M48
; DRILL file {KiCad 9.0.1} date 2025-05-07T17:04:59-0400
; FORMAT={-:-/ absolute / inch / decimal}
; #@! TF.CreationDate,2025-05-07T17:04:59-04:00
; #@! TF.GenerationSoftware,Kicad,Pcbnew,9.0.1
; #@! TF.FileFunction,Plated,1,2,PTH
FMAT,2
INCH
; #@! TA.AperFunction,Plated,PTH,ComponentDrill
T1C0.0315
%
G90
G05
T1
X4.3697Y-4.1618
X4.3697Y-4.1618
X4.3697Y-4.2618
X4.3697Y-4.2618
X4.3697Y-4.3618
X4.3697Y-4.3618
X4.3697Y-4.4618
X4.3697Y-4.4618
X4.3697Y-4.5618
X4.3697Y-4.5618
X4.3697Y-4.6618
X4.3697Y-4.6618
X4.3697Y-4.7618
X4.3697Y-4.7618
X4.3697Y-4.8618
X4.3697Y-4.8618
X4.3697Y-4.9618
X4.3697Y-4.9618
X4.3697Y-5.0618
X4.3697Y-5.0618
X4.4697Y-4.1618
X4.4697Y-4.1618
X4.4697Y-4.2618
X4.4697Y-4.2618
X4.4697Y-4.3618
X4.4697Y-4.3618
X4.4697Y-4.4618
X4.4697Y-4.4618
X4.4697Y-4.5618
X4.4697Y-4.5618
X4.4697Y-4.6618
X4.4697Y-4.6618
X4.4697Y-4.7618
X4.4697Y-4.7618
X4.4697Y-4.8618
X4.4697Y-4.8618
X4.4697Y-4.9618
X4.4697Y-4.9618
X4.4697Y-5.0618
X4.4697Y-5.0618
X4.5697Y-4.1618
X4.5697Y-4.1618
X4.5697Y-4.2618
X4.5697Y-4.2618
X4.5697Y-4.3618
X4.5697Y-4.3618
X4.5697Y-4.4618
X4.5697Y-4.4618
X4.5697Y-4.5618
X4.5697Y-4.5618
X4.5697Y-4.6618
X4.5697Y-4.6618
X4.5697Y-4.7618
X4.5697Y-4.7618
X4.5697Y-4.8618
X4.5697Y-4.8618
X4.5697Y-4.9618
X4.5697Y-4.9618
X4.5697Y-5.0618
X4.5697Y-5.0618
X4.6697Y-4.1618
X4.6697Y-4.1618
X4.6697Y-4.2618
X4.6697Y-4.2618
X4.6697Y-4.3618
X4.6697Y-4.3618
X4.6697Y-4.4618
X4.6697Y-4.4618
X4.6697Y-4.5618
X4.6697Y-4.5618
X4.6697Y-4.6618
X4.6697Y-4.6618
X4.6697Y-4.7618
X4.6697Y-4.7618
X4.6697Y-4.8618
X4.6697Y-4.8618
X4.6697Y-4.9618
X4.6697Y-4.9618
X4.6697Y-5.0618
X4.6697Y-5.0618
X4.7697Y-4.1618
X4.7697Y-4.1618
X4.7697Y-4.2618
X4.7697Y-4.2618
X4.7697Y-4.3618
X4.7697Y-4.3618
X4.7697Y-4.4618
X4.7697Y-4.4618
X4.7697Y-4.5618
X4.7697Y-4.5618
X4.7697Y-4.6618
X4.7697Y-4.6618
X4.7697Y-4.7618
X4.7697Y-4.7618
X4.7697Y-4.8618
X4.7697Y-4.8618
X4.7697Y-4.9618
X4.7697Y-4.9618
X4.7697Y-5.0618
X4.7697Y-5.0618
X4.8697Y-4.1618
X4.8697Y-4.1618
X4.8697Y-4.2618
X4.8697Y-4.2618
X4.8697Y-4.3618
X4.8697Y-4.3618
X4.8697Y-4.4618
X4.8697Y-4.4618
X4.8697Y-4.5618
X4.8697Y-4.5618
X4.8697Y-4.6618
X4.8697Y-4.6618
X4.8697Y-4.7618
X4.8697Y-4.7618
X4.8697Y-4.8618
X4.8697Y-4.8618
X4.8697Y-4.9618
X4.8697Y-4.9618
X4.8697Y-5.0618
X4.8697Y-5.0618
X4.9697Y-4.1618
X4.9697Y-4.1618
X4.9697Y-4.2618
X4.9697Y-4.2618
X4.9697Y-4.3618
X4.9697Y-4.3618
X4.9697Y-4.4618
X4.9697Y-4.4618
X4.9697Y-4.5618
X4.9697Y-4.5618
X4.9697Y-4.6618
X4.9697Y-4.6618
X4.9697Y-4.7618
X4.9697Y-4.7618
X4.9697Y-4.8618
X4.9697Y-4.8618
X4.9697Y-4.9618
X4.9697Y-4.9618
X4.9697Y-5.0618
X4.9697Y-5.0618
X5.0697Y-4.1618
X5.0697Y-4.1618
X5.0697Y-4.2618
X5.0697Y-4.2618
X5.0697Y-4.3618
X5.0697Y-4.3618
X5.0697Y-4.4618
X5.0697Y-4.4618
X5.0697Y-4.5618
X5.0697Y-4.5618
X5.0697Y-4.6618
X5.0697Y-4.6618
X5.0697Y-4.7618
X5.0697Y-4.7618
X5.0697Y-4.8618
X5.0697Y-4.8618
X5.0697Y-4.9618
X5.0697Y-4.9618
X5.0697Y-5.0618
X5.0697Y-5.0618
X5.1697Y-4.1618
X5.1697Y-4.1618
X5.1697Y-4.2618
X5.1697Y-4.2618
X5.1697Y-4.3618
X5.1697Y-4.3618
X5.1697Y-4.4618
X5.1697Y-4.4618
X5.1697Y-4.5618
X5.1697Y-4.5618
X5.1697Y-4.6618
X5.1697Y-4.6618
X5.1697Y-4.7618
X5.1697Y-4.7618
X5.1697Y-4.8618
X5.1697Y-4.8618
X5.1697Y-4.9618
X5.1697Y-4.9618
X5.1697Y-5.0618
X5.1697Y-5.0618
X5.2697Y-4.1618
X5.2697Y-4.1618
X5.2697Y-4.2618
X5.2697Y-4.2618
X5.2697Y-4.3618
X5.2697Y-4.3618
X5.2697Y-4.4618
X5.2697Y-4.4618
X5.2697Y-4.5618
X5.2697Y-4.5618
X5.2697Y-4.6618
X5.2697Y-4.6618
X5.2697Y-4.7618
X5.2697Y-4.7618
X5.2697Y-4.8618
X5.2697Y-4.8618
X5.2697Y-4.9618
X5.2697Y-4.9618
X5.2697Y-5.0618
X5.2697Y-5.0618
X5.3697Y-4.1618
X5.3697Y-4.1618
X5.3697Y-4.2618
X5.3697Y-4.2618
X5.3697Y-4.3618
X5.3697Y-4.3618
X5.3697Y-4.4618
X5.3697Y-4.4618
X5.3697Y-4.5618
X5.3697Y-4.5618
X5.3697Y-4.6618
X5.3697Y-4.6618
X5.3697Y-4.7618
X5.3697Y-4.7618
X5.3697Y-4.8618
X5.3697Y-4.8618
X5.3697Y-4.9618
X5.3697Y-4.9618
X5.3697Y-5.0618
X5.3697Y-5.0618
X5.4697Y-4.1618
X5.4697Y-4.1618
X5.4697Y-4.2618
X5.4697Y-4.2618
X5.4697Y-4.3618
X5.4697Y-4.3618
X5.4697Y-4.4618
X5.4697Y-4.4618
X5.4697Y-4.5618
X5.4697Y-4.5618
X5.4697Y-4.6618
X5.4697Y-4.6618
X5.4697Y-4.7618
X5.4697Y-4.7618
X5.4697Y-4.8618
X5.4697Y-4.8618
X5.4697Y-4.9618
X5.4697Y-4.9618
X5.4697Y-5.0618
X5.4697Y-5.0618
X5.5697Y-4.1618
X5.5697Y-4.1618
X5.5697Y-4.2618
X5.5697Y-4.2618
X5.5697Y-4.3618
X5.5697Y-4.3618
X5.5697Y-4.4618
X5.5697Y-4.4618
X5.5697Y-4.5618
X5.5697Y-4.5618
X5.5697Y-4.6618
X5.5697Y-4.6618
X5.5697Y-4.7618
X5.5697Y-4.7618
X5.5697Y-4.8618
X5.5697Y-4.8618
X5.5697Y-4.9618
X5.5697Y-4.9618
X5.5697Y-5.0618
X5.5697Y-5.0618
X5.6697Y-4.1618
X5.6697Y-4.1618
X5.6697Y-4.2618
X5.6697Y-4.2618
X5.6697Y-4.3618
X5.6697Y-4.3618
X5.6697Y-4.4618
X5.6697Y-4.4618
X5.6697Y-4.5618
X5.6697Y-4.5618
X5.6697Y-4.6618
X5.6697Y-4.6618
X5.6697Y-4.7618
X5.6697Y-4.7618
X5.6697Y-4.8618
X5.6697Y-4.8618
X5.6697Y-4.9618
X5.6697Y-4.9618
X5.6697Y-5.0618
X5.6697Y-5.0618
X5.7697Y-4.1618
X5.7697Y-4.1618
X5.7697Y-4.2618
X5.7697Y-4.2618
X5.7697Y-4.3618
X5.7697Y-4.3618
X5.7697Y-4.4618
X5.7697Y-4.4618
X5.7697Y-4.5618
X5.7697Y-4.5618
X5.7697Y-4.6618
X5.7697Y-4.6618
X5.7697Y-4.7618
X5.7697Y-4.7618
X5.7697Y-4.8618
X5.7697Y-4.8618
X5.7697Y-4.9618
X5.7697Y-4.9618
X5.7697Y-5.0618
X5.7697Y-5.0618
X5.8697Y-4.1618
X5.8697Y-4.1618
X5.8697Y-4.2618
X5.8697Y-4.2618
X5.8697Y-4.3618
X5.8697Y-4.3618
X5.8697Y-4.4618
X5.8697Y-4.4618
X5.8697Y-4.5618
X5.8697Y-4.5618
X5.8697Y-4.6618
X5.8697Y-4.6618
X5.8697Y-4.7618
X5.8697Y-4.7618
X5.8697Y-4.8618
X5.8697Y-4.8618
X5.8697Y-4.9618
X5.8697Y-4.9618
X5.8697Y-5.0618
X5.8697Y-5.0618
X5.9697Y-4.1618
X5.9697Y-4.1618
X5.9697Y-4.2618
X5.9697Y-4.2618
X5.9697Y-4.3618
X5.9697Y-4.3618
X5.9697Y-4.4618
X5.9697Y-4.4618
X5.9697Y-4.5618
X5.9697Y-4.5618
X5.9697Y-4.6618
X5.9697Y-4.6618
X5.9697Y-4.7618
X5.9697Y-4.7618
X5.9697Y-4.8618
X5.9697Y-4.8618
X5.9697Y-4.9618
X5.9697Y-4.9618
X5.9697Y-5.0618
X5.9697Y-5.0618
X6.0697Y-4.1618
X6.0697Y-4.1618
X6.0697Y-4.2618
X6.0697Y-4.2618
X6.0697Y-4.3618
X6.0697Y-4.3618
X6.0697Y-4.4618
X6.0697Y-4.4618
X6.0697Y-4.5618
X6.0697Y-4.5618
X6.0697Y-4.6618
X6.0697Y-4.6618
X6.0697Y-4.7618
X6.0697Y-4.7618
X6.0697Y-4.8618
X6.0697Y-4.8618
X6.0697Y-4.9618
X6.0697Y-4.9618
X6.0697Y-5.0618
X6.0697Y-5.0618
X6.1697Y-4.1618
X6.1697Y-4.1618
X6.1697Y-4.2618
X6.1697Y-4.2618
X6.1697Y-4.3618
X6.1697Y-4.3618
X6.1697Y-4.4618
X6.1697Y-4.4618
X6.1697Y-4.5618
X6.1697Y-4.5618
X6.1697Y-4.6618
X6.1697Y-4.6618
X6.1697Y-4.7618
X6.1697Y-4.7618
X6.1697Y-4.8618
X6.1697Y-4.8618
X6.1697Y-4.9618
X6.1697Y-4.9618
X6.1697Y-5.0618
X6.1697Y-5.0618
X6.2697Y-4.1618
X6.2697Y-4.1618
X6.2697Y-4.2618
X6.2697Y-4.2618
X6.2697Y-4.3618
X6.2697Y-4.3618
X6.2697Y-4.4618
X6.2697Y-4.4618
X6.2697Y-4.5618
X6.2697Y-4.5618
X6.2697Y-4.6618
X6.2697Y-4.6618
X6.2697Y-4.7618
X6.2697Y-4.7618
X6.2697Y-4.8618
X6.2697Y-4.8618
X6.2697Y-4.9618
X6.2697Y-4.9618
X6.2697Y-5.0618
X6.2697Y-5.0618
X6.3697Y-4.1618
X6.3697Y-4.1618
X6.3697Y-4.2618
X6.3697Y-4.2618
X6.3697Y-4.3618
X6.3697Y-4.3618
X6.3697Y-4.4618
X6.3697Y-4.4618
X6.3697Y-4.5618
X6.3697Y-4.5618
X6.3697Y-4.6618
X6.3697Y-4.6618
X6.3697Y-4.7618
X6.3697Y-4.7618
X6.3697Y-4.8618
X6.3697Y-4.8618
X6.3697Y-4.9618
X6.3697Y-4.9618
X6.3697Y-5.0618
X6.3697Y-5.0618
X6.4697Y-4.1618
X6.4697Y-4.1618
X6.4697Y-4.2618
X6.4697Y-4.2618
X6.4697Y-4.3618
X6.4697Y-4.3618
X6.4697Y-4.4618
X6.4697Y-4.4618
X6.4697Y-4.5618
X6.4697Y-4.5618
X6.4697Y-4.6618
X6.4697Y-4.6618
X6.4697Y-4.7618
X6.4697Y-4.7618
X6.4697Y-4.8618
X6.4697Y-4.8618
X6.4697Y-4.9618
X6.4697Y-4.9618
X6.4697Y-5.0618
X6.4697Y-5.0618
X6.5697Y-4.1618
X6.5697Y-4.1618
X6.5697Y-4.2618
X6.5697Y-4.2618
X6.5697Y-4.3618
X6.5697Y-4.3618
X6.5697Y-4.4618
X6.5697Y-4.4618
X6.5697Y-4.5618
X6.5697Y-4.5618
X6.5697Y-4.6618
X6.5697Y-4.6618
X6.5697Y-4.7618
X6.5697Y-4.7618
X6.5697Y-4.8618
X6.5697Y-4.8618
X6.5697Y-4.9618
X6.5697Y-4.9618
X6.5697Y-5.0618
X6.5697Y-5.0618
X6.6697Y-4.1618
X6.6697Y-4.1618
X6.6697Y-4.2618
X6.6697Y-4.2618
X6.6697Y-4.3618
X6.6697Y-4.3618
X6.6697Y-4.4618
X6.6697Y-4.4618
X6.6697Y-4.5618
X6.6697Y-4.5618
X6.6697Y-4.6618
X6.6697Y-4.6618
X6.6697Y-4.7618
X6.6697Y-4.7618
X6.6697Y-4.8618
X6.6697Y-4.8618
X6.6697Y-4.9618
X6.6697Y-4.9618
X6.6697Y-5.0618
X6.6697Y-5.0618
M30
