M48
; DRILL file {KiCad 9.0.1} date 2025-05-06T23:53:56-0400
; FORMAT={-:-/ absolute / inch / decimal}
; #@! TF.CreationDate,2025-05-06T23:53:56-04:00
; #@! TF.GenerationSoftware,Kicad,Pcbnew,9.0.1
; #@! TF.FileFunction,Plated,1,2,PTH
FMAT,2
INCH
; #@! TA.AperFunction,Plated,PTH,ViaDrill
T1C0.0360
%
G90
G05
T1
X3.0837Y-2.1043
X3.0837Y-2.2043
X3.0837Y-2.3043
X3.0837Y-2.4043
X3.0837Y-2.5043
X3.0837Y-2.6043
X3.0837Y-2.7043
X3.0837Y-2.8043
X3.0837Y-2.9043
X3.0837Y-3.0043
X3.0837Y-3.1043
X3.0837Y-3.2043
X3.0837Y-3.3043
X3.0837Y-3.4043
X3.0837Y-3.5043
X3.0837Y-3.6043
X3.0837Y-3.9043
X3.0837Y-4.0043
X3.0837Y-4.1043
X3.0837Y-4.2043
X3.0837Y-4.3043
X3.0837Y-4.4043
X3.0837Y-4.5043
X3.0837Y-4.6043
X3.0837Y-4.7043
X3.0837Y-4.8043
X3.0837Y-4.9043
X3.0837Y-5.0043
X3.0837Y-5.1043
X3.0837Y-5.2043
X3.0837Y-5.3043
X3.0837Y-5.4043
X3.1837Y-2.1043
X3.1837Y-2.2043
X3.1837Y-2.3043
X3.1837Y-2.4043
X3.1837Y-2.5043
X3.1837Y-2.6043
X3.1837Y-2.7043
X3.1837Y-2.8043
X3.1837Y-2.9043
X3.1837Y-3.0043
X3.1837Y-3.1043
X3.1837Y-3.2043
X3.1837Y-3.3043
X3.1837Y-3.4043
X3.1837Y-3.5043
X3.1837Y-3.6043
X3.1837Y-3.9043
X3.1837Y-4.0043
X3.1837Y-4.1043
X3.1837Y-4.2043
X3.1837Y-4.3043
X3.1837Y-4.4043
X3.1837Y-4.5043
X3.1837Y-4.6043
X3.1837Y-4.7043
X3.1837Y-4.8043
X3.1837Y-4.9043
X3.1837Y-5.0043
X3.1837Y-5.1043
X3.1837Y-5.2043
X3.1837Y-5.3043
X3.1837Y-5.4043
X3.2837Y-2.1043
X3.2837Y-2.2043
X3.2837Y-2.3043
X3.2837Y-2.4043
X3.2837Y-2.5043
X3.2837Y-2.6043
X3.2837Y-2.7043
X3.2837Y-2.8043
X3.2837Y-2.9043
X3.2837Y-3.0043
X3.2837Y-3.1043
X3.2837Y-3.2043
X3.2837Y-3.3043
X3.2837Y-3.4043
X3.2837Y-3.5043
X3.2837Y-3.6043
X3.2837Y-3.9043
X3.2837Y-4.0043
X3.2837Y-4.1043
X3.2837Y-4.2043
X3.2837Y-4.3043
X3.2837Y-4.4043
X3.2837Y-4.5043
X3.2837Y-4.6043
X3.2837Y-4.7043
X3.2837Y-4.8043
X3.2837Y-4.9043
X3.2837Y-5.0043
X3.2837Y-5.1043
X3.2837Y-5.2043
X3.2837Y-5.3043
X3.2837Y-5.4043
X3.3837Y-2.1043
X3.3837Y-2.2043
X3.3837Y-2.3043
X3.3837Y-2.4043
X3.3837Y-2.5043
X3.3837Y-2.6043
X3.3837Y-2.7043
X3.3837Y-2.8043
X3.3837Y-2.9043
X3.3837Y-3.0043
X3.3837Y-3.1043
X3.3837Y-3.2043
X3.3837Y-3.3043
X3.3837Y-3.4043
X3.3837Y-3.5043
X3.3837Y-3.6043
X3.3837Y-3.9043
X3.3837Y-4.0043
X3.3837Y-4.1043
X3.3837Y-4.2043
X3.3837Y-4.3043
X3.3837Y-4.4043
X3.3837Y-4.5043
X3.3837Y-4.6043
X3.3837Y-4.7043
X3.3837Y-4.8043
X3.3837Y-4.9043
X3.3837Y-5.0043
X3.3837Y-5.1043
X3.3837Y-5.2043
X3.3837Y-5.3043
X3.3837Y-5.4043
X3.4837Y-2.1043
X3.4837Y-2.2043
X3.4837Y-2.3043
X3.4837Y-2.4043
X3.4837Y-2.5043
X3.4837Y-2.6043
X3.4837Y-2.7043
X3.4837Y-2.8043
X3.4837Y-2.9043
X3.4837Y-3.0043
X3.4837Y-3.1043
X3.4837Y-3.2043
X3.4837Y-3.3043
X3.4837Y-3.4043
X3.4837Y-3.5043
X3.4837Y-3.6043
X3.4837Y-3.9043
X3.4837Y-4.0043
X3.4837Y-4.1043
X3.4837Y-4.2043
X3.4837Y-4.3043
X3.4837Y-4.4043
X3.4837Y-4.5043
X3.4837Y-4.6043
X3.4837Y-4.7043
X3.4837Y-4.8043
X3.4837Y-4.9043
X3.4837Y-5.0043
X3.4837Y-5.1043
X3.4837Y-5.2043
X3.4837Y-5.3043
X3.4837Y-5.4043
X3.5837Y-2.1043
X3.5837Y-2.2043
X3.5837Y-2.3043
X3.5837Y-2.4043
X3.5837Y-2.5043
X3.5837Y-2.6043
X3.5837Y-2.7043
X3.5837Y-2.8043
X3.5837Y-2.9043
X3.5837Y-3.0043
X3.5837Y-3.1043
X3.5837Y-3.2043
X3.5837Y-3.3043
X3.5837Y-3.4043
X3.5837Y-3.5043
X3.5837Y-3.6043
X3.5837Y-3.9043
X3.5837Y-4.0043
X3.5837Y-4.1043
X3.5837Y-4.2043
X3.5837Y-4.3043
X3.5837Y-4.4043
X3.5837Y-4.5043
X3.5837Y-4.6043
X3.5837Y-4.7043
X3.5837Y-4.8043
X3.5837Y-4.9043
X3.5837Y-5.0043
X3.5837Y-5.1043
X3.5837Y-5.2043
X3.5837Y-5.3043
X3.5837Y-5.4043
X3.6837Y-2.1043
X3.6837Y-2.2043
X3.6837Y-2.3043
X3.6837Y-2.4043
X3.6837Y-2.5043
X3.6837Y-2.6043
X3.6837Y-2.7043
X3.6837Y-2.8043
X3.6837Y-2.9043
X3.6837Y-3.0043
X3.6837Y-3.1043
X3.6837Y-3.2043
X3.6837Y-3.3043
X3.6837Y-3.4043
X3.6837Y-3.5043
X3.6837Y-3.6043
X3.6837Y-3.9043
X3.6837Y-4.0043
X3.6837Y-4.1043
X3.6837Y-4.2043
X3.6837Y-4.3043
X3.6837Y-4.4043
X3.6837Y-4.5043
X3.6837Y-4.6043
X3.6837Y-4.7043
X3.6837Y-4.8043
X3.6837Y-4.9043
X3.6837Y-5.0043
X3.6837Y-5.1043
X3.6837Y-5.2043
X3.6837Y-5.3043
X3.6837Y-5.4043
X3.7837Y-2.1043
X3.7837Y-2.2043
X3.7837Y-2.3043
X3.7837Y-2.4043
X3.7837Y-2.5043
X3.7837Y-2.6043
X3.7837Y-2.7043
X3.7837Y-2.8043
X3.7837Y-2.9043
X3.7837Y-3.0043
X3.7837Y-3.1043
X3.7837Y-3.2043
X3.7837Y-3.3043
X3.7837Y-3.4043
X3.7837Y-3.5043
X3.7837Y-3.6043
X3.7837Y-3.9043
X3.7837Y-4.0043
X3.7837Y-4.1043
X3.7837Y-4.2043
X3.7837Y-4.3043
X3.7837Y-4.4043
X3.7837Y-4.5043
X3.7837Y-4.6043
X3.7837Y-4.7043
X3.7837Y-4.8043
X3.7837Y-4.9043
X3.7837Y-5.0043
X3.7837Y-5.1043
X3.7837Y-5.2043
X3.7837Y-5.3043
X3.7837Y-5.4043
X3.8837Y-2.1043
X3.8837Y-2.2043
X3.8837Y-2.3043
X3.8837Y-2.4043
X3.8837Y-2.5043
X3.8837Y-2.6043
X3.8837Y-2.7043
X3.8837Y-2.8043
X3.8837Y-2.9043
X3.8837Y-3.0043
X3.8837Y-3.1043
X3.8837Y-3.2043
X3.8837Y-3.3043
X3.8837Y-3.4043
X3.8837Y-3.5043
X3.8837Y-3.6043
X3.8837Y-3.9043
X3.8837Y-4.0043
X3.8837Y-4.1043
X3.8837Y-4.2043
X3.8837Y-4.3043
X3.8837Y-4.4043
X3.8837Y-4.5043
X3.8837Y-4.6043
X3.8837Y-4.7043
X3.8837Y-4.8043
X3.8837Y-4.9043
X3.8837Y-5.0043
X3.8837Y-5.1043
X3.8837Y-5.2043
X3.8837Y-5.3043
X3.8837Y-5.4043
X3.9837Y-2.1043
X3.9837Y-2.2043
X3.9837Y-2.3043
X3.9837Y-2.4043
X3.9837Y-2.5043
X3.9837Y-2.6043
X3.9837Y-2.7043
X3.9837Y-2.8043
X3.9837Y-2.9043
X3.9837Y-3.0043
X3.9837Y-3.1043
X3.9837Y-3.2043
X3.9837Y-3.3043
X3.9837Y-3.4043
X3.9837Y-3.5043
X3.9837Y-3.6043
X3.9837Y-3.9043
X3.9837Y-4.0043
X3.9837Y-4.1043
X3.9837Y-4.2043
X3.9837Y-4.3043
X3.9837Y-4.4043
X3.9837Y-4.5043
X3.9837Y-4.6043
X3.9837Y-4.7043
X3.9837Y-4.8043
X3.9837Y-4.9043
X3.9837Y-5.0043
X3.9837Y-5.1043
X3.9837Y-5.2043
X3.9837Y-5.3043
X3.9837Y-5.4043
X4.0837Y-2.1043
X4.0837Y-2.2043
X4.0837Y-2.3043
X4.0837Y-2.4043
X4.0837Y-2.5043
X4.0837Y-2.6043
X4.0837Y-2.7043
X4.0837Y-2.8043
X4.0837Y-2.9043
X4.0837Y-3.0043
X4.0837Y-3.1043
X4.0837Y-3.2043
X4.0837Y-3.3043
X4.0837Y-3.4043
X4.0837Y-3.5043
X4.0837Y-3.6043
X4.0837Y-3.9043
X4.0837Y-4.0043
X4.0837Y-4.1043
X4.0837Y-4.2043
X4.0837Y-4.3043
X4.0837Y-4.4043
X4.0837Y-4.5043
X4.0837Y-4.6043
X4.0837Y-4.7043
X4.0837Y-4.8043
X4.0837Y-4.9043
X4.0837Y-5.0043
X4.0837Y-5.1043
X4.0837Y-5.2043
X4.0837Y-5.3043
X4.0837Y-5.4043
X4.1837Y-2.1043
X4.1837Y-2.2043
X4.1837Y-2.3043
X4.1837Y-2.4043
X4.1837Y-2.5043
X4.1837Y-2.6043
X4.1837Y-2.7043
X4.1837Y-2.8043
X4.1837Y-2.9043
X4.1837Y-3.0043
X4.1837Y-3.1043
X4.1837Y-3.2043
X4.1837Y-3.3043
X4.1837Y-3.4043
X4.1837Y-3.5043
X4.1837Y-3.6043
X4.1837Y-3.9043
X4.1837Y-4.0043
X4.1837Y-4.1043
X4.1837Y-4.2043
X4.1837Y-4.3043
X4.1837Y-4.4043
X4.1837Y-4.5043
X4.1837Y-4.6043
X4.1837Y-4.7043
X4.1837Y-4.8043
X4.1837Y-4.9043
X4.1837Y-5.0043
X4.1837Y-5.1043
X4.1837Y-5.2043
X4.1837Y-5.3043
X4.1837Y-5.4043
X4.2837Y-2.1043
X4.2837Y-2.2043
X4.2837Y-2.3043
X4.2837Y-2.4043
X4.2837Y-2.5043
X4.2837Y-2.6043
X4.2837Y-2.7043
X4.2837Y-2.8043
X4.2837Y-2.9043
X4.2837Y-3.0043
X4.2837Y-3.1043
X4.2837Y-3.2043
X4.2837Y-3.3043
X4.2837Y-3.4043
X4.2837Y-3.5043
X4.2837Y-3.6043
X4.2837Y-3.9043
X4.2837Y-4.0043
X4.2837Y-4.1043
X4.2837Y-4.2043
X4.2837Y-4.3043
X4.2837Y-4.4043
X4.2837Y-4.5043
X4.2837Y-4.6043
X4.2837Y-4.7043
X4.2837Y-4.8043
X4.2837Y-4.9043
X4.2837Y-5.0043
X4.2837Y-5.1043
X4.2837Y-5.2043
X4.2837Y-5.3043
X4.2837Y-5.4043
X4.3837Y-2.1043
X4.3837Y-2.2043
X4.3837Y-2.3043
X4.3837Y-2.4043
X4.3837Y-2.5043
X4.3837Y-2.6043
X4.3837Y-2.7043
X4.3837Y-2.8043
X4.3837Y-2.9043
X4.3837Y-3.0043
X4.3837Y-3.1043
X4.3837Y-3.2043
X4.3837Y-3.3043
X4.3837Y-3.4043
X4.3837Y-3.5043
X4.3837Y-3.6043
X4.3837Y-3.9043
X4.3837Y-4.0043
X4.3837Y-4.1043
X4.3837Y-4.2043
X4.3837Y-4.3043
X4.3837Y-4.4043
X4.3837Y-4.5043
X4.3837Y-4.6043
X4.3837Y-4.7043
X4.3837Y-4.8043
X4.3837Y-4.9043
X4.3837Y-5.0043
X4.3837Y-5.1043
X4.3837Y-5.2043
X4.3837Y-5.3043
X4.3837Y-5.4043
X4.4837Y-2.1043
X4.4837Y-2.2043
X4.4837Y-2.3043
X4.4837Y-2.4043
X4.4837Y-2.5043
X4.4837Y-2.6043
X4.4837Y-2.7043
X4.4837Y-2.8043
X4.4837Y-2.9043
X4.4837Y-3.0043
X4.4837Y-3.1043
X4.4837Y-3.2043
X4.4837Y-3.3043
X4.4837Y-3.4043
X4.4837Y-3.5043
X4.4837Y-3.6043
X4.4837Y-3.9043
X4.4837Y-4.0043
X4.4837Y-4.1043
X4.4837Y-4.2043
X4.4837Y-4.3043
X4.4837Y-4.4043
X4.4837Y-4.5043
X4.4837Y-4.6043
X4.4837Y-4.7043
X4.4837Y-4.8043
X4.4837Y-4.9043
X4.4837Y-5.0043
X4.4837Y-5.1043
X4.4837Y-5.2043
X4.4837Y-5.3043
X4.4837Y-5.4043
X4.5837Y-2.1043
X4.5837Y-2.2043
X4.5837Y-2.3043
X4.5837Y-2.4043
X4.5837Y-2.5043
X4.5837Y-2.6043
X4.5837Y-2.7043
X4.5837Y-2.8043
X4.5837Y-2.9043
X4.5837Y-3.0043
X4.5837Y-3.1043
X4.5837Y-3.2043
X4.5837Y-3.3043
X4.5837Y-3.4043
X4.5837Y-3.5043
X4.5837Y-3.6043
X4.5837Y-3.9043
X4.5837Y-4.0043
X4.5837Y-4.1043
X4.5837Y-4.2043
X4.5837Y-4.3043
X4.5837Y-4.4043
X4.5837Y-4.5043
X4.5837Y-4.6043
X4.5837Y-4.7043
X4.5837Y-4.8043
X4.5837Y-4.9043
X4.5837Y-5.0043
X4.5837Y-5.1043
X4.5837Y-5.2043
X4.5837Y-5.3043
X4.5837Y-5.4043
X4.6837Y-2.1043
X4.6837Y-2.2043
X4.6837Y-2.3043
X4.6837Y-2.4043
X4.6837Y-2.5043
X4.6837Y-2.6043
X4.6837Y-2.7043
X4.6837Y-2.8043
X4.6837Y-2.9043
X4.6837Y-3.0043
X4.6837Y-3.1043
X4.6837Y-3.2043
X4.6837Y-3.3043
X4.6837Y-3.4043
X4.6837Y-3.5043
X4.6837Y-3.6043
X4.6837Y-3.9043
X4.6837Y-4.0043
X4.6837Y-4.1043
X4.6837Y-4.2043
X4.6837Y-4.3043
X4.6837Y-4.4043
X4.6837Y-4.5043
X4.6837Y-4.6043
X4.6837Y-4.7043
X4.6837Y-4.8043
X4.6837Y-4.9043
X4.6837Y-5.0043
X4.6837Y-5.1043
X4.6837Y-5.2043
X4.6837Y-5.3043
X4.6837Y-5.4043
X4.7837Y-2.1043
X4.7837Y-2.2043
X4.7837Y-2.3043
X4.7837Y-2.4043
X4.7837Y-2.5043
X4.7837Y-2.6043
X4.7837Y-2.7043
X4.7837Y-2.8043
X4.7837Y-2.9043
X4.7837Y-3.0043
X4.7837Y-3.1043
X4.7837Y-3.2043
X4.7837Y-3.3043
X4.7837Y-3.4043
X4.7837Y-3.5043
X4.7837Y-3.6043
X4.7837Y-3.9043
X4.7837Y-4.0043
X4.7837Y-4.1043
X4.7837Y-4.2043
X4.7837Y-4.3043
X4.7837Y-4.4043
X4.7837Y-4.5043
X4.7837Y-4.6043
X4.7837Y-4.7043
X4.7837Y-4.8043
X4.7837Y-4.9043
X4.7837Y-5.0043
X4.7837Y-5.1043
X4.7837Y-5.2043
X4.7837Y-5.3043
X4.7837Y-5.4043
X4.8837Y-2.1043
X4.8837Y-2.2043
X4.8837Y-2.3043
X4.8837Y-2.4043
X4.8837Y-2.5043
X4.8837Y-2.6043
X4.8837Y-2.7043
X4.8837Y-2.8043
X4.8837Y-2.9043
X4.8837Y-3.0043
X4.8837Y-3.1043
X4.8837Y-3.2043
X4.8837Y-3.3043
X4.8837Y-3.4043
X4.8837Y-3.5043
X4.8837Y-3.6043
X4.8837Y-3.9043
X4.8837Y-4.0043
X4.8837Y-4.1043
X4.8837Y-4.2043
X4.8837Y-4.3043
X4.8837Y-4.4043
X4.8837Y-4.5043
X4.8837Y-4.6043
X4.8837Y-4.7043
X4.8837Y-4.8043
X4.8837Y-4.9043
X4.8837Y-5.0043
X4.8837Y-5.1043
X4.8837Y-5.2043
X4.8837Y-5.3043
X4.8837Y-5.4043
X4.9837Y-2.1043
X4.9837Y-2.2043
X4.9837Y-2.3043
X4.9837Y-2.4043
X4.9837Y-2.5043
X4.9837Y-2.6043
X4.9837Y-2.7043
X4.9837Y-2.8043
X4.9837Y-2.9043
X4.9837Y-3.0043
X4.9837Y-3.1043
X4.9837Y-3.2043
X4.9837Y-3.3043
X4.9837Y-3.4043
X4.9837Y-3.5043
X4.9837Y-3.6043
X4.9837Y-3.9043
X4.9837Y-4.0043
X4.9837Y-4.1043
X4.9837Y-4.2043
X4.9837Y-4.3043
X4.9837Y-4.4043
X4.9837Y-4.5043
X4.9837Y-4.6043
X4.9837Y-4.7043
X4.9837Y-4.8043
X4.9837Y-4.9043
X4.9837Y-5.0043
X4.9837Y-5.1043
X4.9837Y-5.2043
X4.9837Y-5.3043
X4.9837Y-5.4043
X5.0837Y-2.1043
X5.0837Y-2.2043
X5.0837Y-2.3043
X5.0837Y-2.4043
X5.0837Y-2.5043
X5.0837Y-2.6043
X5.0837Y-2.7043
X5.0837Y-2.8043
X5.0837Y-2.9043
X5.0837Y-3.0043
X5.0837Y-3.1043
X5.0837Y-3.2043
X5.0837Y-3.3043
X5.0837Y-3.4043
X5.0837Y-3.5043
X5.0837Y-3.6043
X5.0837Y-3.9043
X5.0837Y-4.0043
X5.0837Y-4.1043
X5.0837Y-4.2043
X5.0837Y-4.3043
X5.0837Y-4.4043
X5.0837Y-4.5043
X5.0837Y-4.6043
X5.0837Y-4.7043
X5.0837Y-4.8043
X5.0837Y-4.9043
X5.0837Y-5.0043
X5.0837Y-5.1043
X5.0837Y-5.2043
X5.0837Y-5.3043
X5.0837Y-5.4043
X5.1837Y-2.1043
X5.1837Y-2.2043
X5.1837Y-2.3043
X5.1837Y-2.4043
X5.1837Y-2.5043
X5.1837Y-2.6043
X5.1837Y-2.7043
X5.1837Y-2.8043
X5.1837Y-2.9043
X5.1837Y-3.0043
X5.1837Y-3.1043
X5.1837Y-3.2043
X5.1837Y-3.3043
X5.1837Y-3.4043
X5.1837Y-3.5043
X5.1837Y-3.6043
X5.1837Y-3.9043
X5.1837Y-4.0043
X5.1837Y-4.1043
X5.1837Y-4.2043
X5.1837Y-4.3043
X5.1837Y-4.4043
X5.1837Y-4.5043
X5.1837Y-4.6043
X5.1837Y-4.7043
X5.1837Y-4.8043
X5.1837Y-4.9043
X5.1837Y-5.0043
X5.1837Y-5.1043
X5.1837Y-5.2043
X5.1837Y-5.3043
X5.1837Y-5.4043
X5.2837Y-2.1043
X5.2837Y-2.2043
X5.2837Y-2.3043
X5.2837Y-2.4043
X5.2837Y-2.5043
X5.2837Y-2.6043
X5.2837Y-2.7043
X5.2837Y-2.8043
X5.2837Y-2.9043
X5.2837Y-3.0043
X5.2837Y-3.1043
X5.2837Y-3.2043
X5.2837Y-3.3043
X5.2837Y-3.4043
X5.2837Y-3.5043
X5.2837Y-3.6043
X5.2837Y-3.9043
X5.2837Y-4.0043
X5.2837Y-4.1043
X5.2837Y-4.2043
X5.2837Y-4.3043
X5.2837Y-4.4043
X5.2837Y-4.5043
X5.2837Y-4.6043
X5.2837Y-4.7043
X5.2837Y-4.8043
X5.2837Y-4.9043
X5.2837Y-5.0043
X5.2837Y-5.1043
X5.2837Y-5.2043
X5.2837Y-5.3043
X5.2837Y-5.4043
X5.3837Y-2.1043
X5.3837Y-2.2043
X5.3837Y-2.3043
X5.3837Y-2.4043
X5.3837Y-2.5043
X5.3837Y-2.6043
X5.3837Y-2.7043
X5.3837Y-2.8043
X5.3837Y-2.9043
X5.3837Y-3.0043
X5.3837Y-3.1043
X5.3837Y-3.2043
X5.3837Y-3.3043
X5.3837Y-3.4043
X5.3837Y-3.5043
X5.3837Y-3.6043
X5.3837Y-3.9043
X5.3837Y-4.0043
X5.3837Y-4.1043
X5.3837Y-4.2043
X5.3837Y-4.3043
X5.3837Y-4.4043
X5.3837Y-4.5043
X5.3837Y-4.6043
X5.3837Y-4.7043
X5.3837Y-4.8043
X5.3837Y-4.9043
X5.3837Y-5.0043
X5.3837Y-5.1043
X5.3837Y-5.2043
X5.3837Y-5.3043
X5.3837Y-5.4043
X5.4837Y-2.1043
X5.4837Y-2.2043
X5.4837Y-2.3043
X5.4837Y-2.4043
X5.4837Y-2.5043
X5.4837Y-2.6043
X5.4837Y-2.7043
X5.4837Y-2.8043
X5.4837Y-2.9043
X5.4837Y-3.0043
X5.4837Y-3.1043
X5.4837Y-3.2043
X5.4837Y-3.3043
X5.4837Y-3.4043
X5.4837Y-3.5043
X5.4837Y-3.6043
X5.4837Y-3.9043
X5.4837Y-4.0043
X5.4837Y-4.1043
X5.4837Y-4.2043
X5.4837Y-4.3043
X5.4837Y-4.4043
X5.4837Y-4.5043
X5.4837Y-4.6043
X5.4837Y-4.7043
X5.4837Y-4.8043
X5.4837Y-4.9043
X5.4837Y-5.0043
X5.4837Y-5.1043
X5.4837Y-5.2043
X5.4837Y-5.3043
X5.4837Y-5.4043
X5.5837Y-2.1043
X5.5837Y-2.2043
X5.5837Y-2.3043
X5.5837Y-2.4043
X5.5837Y-2.5043
X5.5837Y-2.6043
X5.5837Y-2.7043
X5.5837Y-2.8043
X5.5837Y-2.9043
X5.5837Y-3.0043
X5.5837Y-3.1043
X5.5837Y-3.2043
X5.5837Y-3.3043
X5.5837Y-3.4043
X5.5837Y-3.5043
X5.5837Y-3.6043
X5.5837Y-3.9043
X5.5837Y-4.0043
X5.5837Y-4.1043
X5.5837Y-4.2043
X5.5837Y-4.3043
X5.5837Y-4.4043
X5.5837Y-4.5043
X5.5837Y-4.6043
X5.5837Y-4.7043
X5.5837Y-4.8043
X5.5837Y-4.9043
X5.5837Y-5.0043
X5.5837Y-5.1043
X5.5837Y-5.2043
X5.5837Y-5.3043
X5.5837Y-5.4043
X5.6837Y-2.1043
X5.6837Y-2.2043
X5.6837Y-2.3043
X5.6837Y-2.4043
X5.6837Y-2.5043
X5.6837Y-2.6043
X5.6837Y-2.7043
X5.6837Y-2.8043
X5.6837Y-2.9043
X5.6837Y-3.0043
X5.6837Y-3.1043
X5.6837Y-3.2043
X5.6837Y-3.3043
X5.6837Y-3.4043
X5.6837Y-3.5043
X5.6837Y-3.6043
X5.6837Y-3.9043
X5.6837Y-4.0043
X5.6837Y-4.1043
X5.6837Y-4.2043
X5.6837Y-4.3043
X5.6837Y-4.4043
X5.6837Y-4.5043
X5.6837Y-4.6043
X5.6837Y-4.7043
X5.6837Y-4.8043
X5.6837Y-4.9043
X5.6837Y-5.0043
X5.6837Y-5.1043
X5.6837Y-5.2043
X5.6837Y-5.3043
X5.6837Y-5.4043
X5.7837Y-2.1043
X5.7837Y-2.2043
X5.7837Y-2.3043
X5.7837Y-2.4043
X5.7837Y-2.5043
X5.7837Y-2.6043
X5.7837Y-2.7043
X5.7837Y-2.8043
X5.7837Y-2.9043
X5.7837Y-3.0043
X5.7837Y-3.1043
X5.7837Y-3.2043
X5.7837Y-3.3043
X5.7837Y-3.4043
X5.7837Y-3.5043
X5.7837Y-3.6043
X5.7837Y-3.9043
X5.7837Y-4.0043
X5.7837Y-4.1043
X5.7837Y-4.2043
X5.7837Y-4.3043
X5.7837Y-4.4043
X5.7837Y-4.5043
X5.7837Y-4.6043
X5.7837Y-4.7043
X5.7837Y-4.8043
X5.7837Y-4.9043
X5.7837Y-5.0043
X5.7837Y-5.1043
X5.7837Y-5.2043
X5.7837Y-5.3043
X5.7837Y-5.4043
X5.8837Y-2.1043
X5.8837Y-2.2043
X5.8837Y-2.3043
X5.8837Y-2.4043
X5.8837Y-2.5043
X5.8837Y-2.6043
X5.8837Y-2.7043
X5.8837Y-2.8043
X5.8837Y-2.9043
X5.8837Y-3.0043
X5.8837Y-3.1043
X5.8837Y-3.2043
X5.8837Y-3.3043
X5.8837Y-3.4043
X5.8837Y-3.5043
X5.8837Y-3.6043
X5.8837Y-3.9043
X5.8837Y-4.0043
X5.8837Y-4.1043
X5.8837Y-4.2043
X5.8837Y-4.3043
X5.8837Y-4.4043
X5.8837Y-4.5043
X5.8837Y-4.6043
X5.8837Y-4.7043
X5.8837Y-4.8043
X5.8837Y-4.9043
X5.8837Y-5.0043
X5.8837Y-5.1043
X5.8837Y-5.2043
X5.8837Y-5.3043
X5.8837Y-5.4043
X5.9837Y-2.1043
X5.9837Y-2.2043
X5.9837Y-2.3043
X5.9837Y-2.4043
X5.9837Y-2.5043
X5.9837Y-2.6043
X5.9837Y-2.7043
X5.9837Y-2.8043
X5.9837Y-2.9043
X5.9837Y-3.0043
X5.9837Y-3.1043
X5.9837Y-3.2043
X5.9837Y-3.3043
X5.9837Y-3.4043
X5.9837Y-3.5043
X5.9837Y-3.6043
X5.9837Y-3.9043
X5.9837Y-4.0043
X5.9837Y-4.1043
X5.9837Y-4.2043
X5.9837Y-4.3043
X5.9837Y-4.4043
X5.9837Y-4.5043
X5.9837Y-4.6043
X5.9837Y-4.7043
X5.9837Y-4.8043
X5.9837Y-4.9043
X5.9837Y-5.0043
X5.9837Y-5.1043
X5.9837Y-5.2043
X5.9837Y-5.3043
X5.9837Y-5.4043
X6.0837Y-2.1043
X6.0837Y-2.2043
X6.0837Y-2.3043
X6.0837Y-2.4043
X6.0837Y-2.5043
X6.0837Y-2.6043
X6.0837Y-2.7043
X6.0837Y-2.8043
X6.0837Y-2.9043
X6.0837Y-3.0043
X6.0837Y-3.1043
X6.0837Y-3.2043
X6.0837Y-3.3043
X6.0837Y-3.4043
X6.0837Y-3.5043
X6.0837Y-3.6043
X6.0837Y-3.9043
X6.0837Y-4.0043
X6.0837Y-4.1043
X6.0837Y-4.2043
X6.0837Y-4.3043
X6.0837Y-4.4043
X6.0837Y-4.5043
X6.0837Y-4.6043
X6.0837Y-4.7043
X6.0837Y-4.8043
X6.0837Y-4.9043
X6.0837Y-5.0043
X6.0837Y-5.1043
X6.0837Y-5.2043
X6.0837Y-5.3043
X6.0837Y-5.4043
X6.1837Y-2.1043
X6.1837Y-2.2043
X6.1837Y-2.3043
X6.1837Y-2.4043
X6.1837Y-2.5043
X6.1837Y-2.6043
X6.1837Y-2.7043
X6.1837Y-2.8043
X6.1837Y-2.9043
X6.1837Y-3.0043
X6.1837Y-3.1043
X6.1837Y-3.2043
X6.1837Y-3.3043
X6.1837Y-3.4043
X6.1837Y-3.5043
X6.1837Y-3.6043
X6.1837Y-3.9043
X6.1837Y-4.0043
X6.1837Y-4.1043
X6.1837Y-4.2043
X6.1837Y-4.3043
X6.1837Y-4.4043
X6.1837Y-4.5043
X6.1837Y-4.6043
X6.1837Y-4.7043
X6.1837Y-4.8043
X6.1837Y-4.9043
X6.1837Y-5.0043
X6.1837Y-5.1043
X6.1837Y-5.2043
X6.1837Y-5.3043
X6.1837Y-5.4043
X6.2837Y-2.1043
X6.2837Y-2.2043
X6.2837Y-2.3043
X6.2837Y-2.4043
X6.2837Y-2.5043
X6.2837Y-2.6043
X6.2837Y-2.7043
X6.2837Y-2.8043
X6.2837Y-2.9043
X6.2837Y-3.0043
X6.2837Y-3.1043
X6.2837Y-3.2043
X6.2837Y-3.3043
X6.2837Y-3.4043
X6.2837Y-3.5043
X6.2837Y-3.6043
X6.2837Y-3.9043
X6.2837Y-4.0043
X6.2837Y-4.1043
X6.2837Y-4.2043
X6.2837Y-4.3043
X6.2837Y-4.4043
X6.2837Y-4.5043
X6.2837Y-4.6043
X6.2837Y-4.7043
X6.2837Y-4.8043
X6.2837Y-4.9043
X6.2837Y-5.0043
X6.2837Y-5.1043
X6.2837Y-5.2043
X6.2837Y-5.3043
X6.2837Y-5.4043
X6.3837Y-2.1043
X6.3837Y-2.2043
X6.3837Y-2.3043
X6.3837Y-2.4043
X6.3837Y-2.5043
X6.3837Y-2.6043
X6.3837Y-2.7043
X6.3837Y-2.8043
X6.3837Y-2.9043
X6.3837Y-3.0043
X6.3837Y-3.1043
X6.3837Y-3.2043
X6.3837Y-3.3043
X6.3837Y-3.4043
X6.3837Y-3.5043
X6.3837Y-3.6043
X6.3837Y-3.9043
X6.3837Y-4.0043
X6.3837Y-4.1043
X6.3837Y-4.2043
X6.3837Y-4.3043
X6.3837Y-4.4043
X6.3837Y-4.5043
X6.3837Y-4.6043
X6.3837Y-4.7043
X6.3837Y-4.8043
X6.3837Y-4.9043
X6.3837Y-5.0043
X6.3837Y-5.1043
X6.3837Y-5.2043
X6.3837Y-5.3043
X6.3837Y-5.4043
X6.4837Y-2.1043
X6.4837Y-2.2043
X6.4837Y-2.3043
X6.4837Y-2.4043
X6.4837Y-2.5043
X6.4837Y-2.6043
X6.4837Y-2.7043
X6.4837Y-2.8043
X6.4837Y-2.9043
X6.4837Y-3.0043
X6.4837Y-3.1043
X6.4837Y-3.2043
X6.4837Y-3.3043
X6.4837Y-3.4043
X6.4837Y-3.5043
X6.4837Y-3.6043
X6.4837Y-3.9043
X6.4837Y-4.0043
X6.4837Y-4.1043
X6.4837Y-4.2043
X6.4837Y-4.3043
X6.4837Y-4.4043
X6.4837Y-4.5043
X6.4837Y-4.6043
X6.4837Y-4.7043
X6.4837Y-4.8043
X6.4837Y-4.9043
X6.4837Y-5.0043
X6.4837Y-5.1043
X6.4837Y-5.2043
X6.4837Y-5.3043
X6.4837Y-5.4043
X6.5837Y-2.1043
X6.5837Y-2.2043
X6.5837Y-2.3043
X6.5837Y-2.4043
X6.5837Y-2.5043
X6.5837Y-2.6043
X6.5837Y-2.7043
X6.5837Y-2.8043
X6.5837Y-2.9043
X6.5837Y-3.0043
X6.5837Y-3.1043
X6.5837Y-3.2043
X6.5837Y-3.3043
X6.5837Y-3.4043
X6.5837Y-3.5043
X6.5837Y-3.6043
X6.5837Y-3.9043
X6.5837Y-4.0043
X6.5837Y-4.1043
X6.5837Y-4.2043
X6.5837Y-4.3043
X6.5837Y-4.4043
X6.5837Y-4.5043
X6.5837Y-4.6043
X6.5837Y-4.7043
X6.5837Y-4.8043
X6.5837Y-4.9043
X6.5837Y-5.0043
X6.5837Y-5.1043
X6.5837Y-5.2043
X6.5837Y-5.3043
X6.5837Y-5.4043
X6.6837Y-2.1043
X6.6837Y-2.2043
X6.6837Y-2.3043
X6.6837Y-2.4043
X6.6837Y-2.5043
X6.6837Y-2.6043
X6.6837Y-2.7043
X6.6837Y-2.8043
X6.6837Y-2.9043
X6.6837Y-3.0043
X6.6837Y-3.1043
X6.6837Y-3.2043
X6.6837Y-3.3043
X6.6837Y-3.4043
X6.6837Y-3.5043
X6.6837Y-3.6043
X6.6837Y-3.9043
X6.6837Y-4.0043
X6.6837Y-4.1043
X6.6837Y-4.2043
X6.6837Y-4.3043
X6.6837Y-4.4043
X6.6837Y-4.5043
X6.6837Y-4.6043
X6.6837Y-4.7043
X6.6837Y-4.8043
X6.6837Y-4.9043
X6.6837Y-5.0043
X6.6837Y-5.1043
X6.6837Y-5.2043
X6.6837Y-5.3043
X6.6837Y-5.4043
X6.7837Y-2.1043
X6.7837Y-2.2043
X6.7837Y-2.3043
X6.7837Y-2.4043
X6.7837Y-2.5043
X6.7837Y-2.6043
X6.7837Y-2.7043
X6.7837Y-2.8043
X6.7837Y-2.9043
X6.7837Y-3.0043
X6.7837Y-3.1043
X6.7837Y-3.2043
X6.7837Y-3.3043
X6.7837Y-3.4043
X6.7837Y-3.5043
X6.7837Y-3.6043
X6.7837Y-3.9043
X6.7837Y-4.0043
X6.7837Y-4.1043
X6.7837Y-4.2043
X6.7837Y-4.3043
X6.7837Y-4.4043
X6.7837Y-4.5043
X6.7837Y-4.6043
X6.7837Y-4.7043
X6.7837Y-4.8043
X6.7837Y-4.9043
X6.7837Y-5.0043
X6.7837Y-5.1043
X6.7837Y-5.2043
X6.7837Y-5.3043
X6.7837Y-5.4043
X6.8837Y-2.1043
X6.8837Y-2.2043
X6.8837Y-2.3043
X6.8837Y-2.4043
X6.8837Y-2.5043
X6.8837Y-2.6043
X6.8837Y-2.7043
X6.8837Y-2.8043
X6.8837Y-2.9043
X6.8837Y-3.0043
X6.8837Y-3.1043
X6.8837Y-3.2043
X6.8837Y-3.3043
X6.8837Y-3.4043
X6.8837Y-3.5043
X6.8837Y-3.6043
X6.8837Y-3.9043
X6.8837Y-4.0043
X6.8837Y-4.1043
X6.8837Y-4.2043
X6.8837Y-4.3043
X6.8837Y-4.4043
X6.8837Y-4.5043
X6.8837Y-4.6043
X6.8837Y-4.7043
X6.8837Y-4.8043
X6.8837Y-4.9043
X6.8837Y-5.0043
X6.8837Y-5.1043
X6.8837Y-5.2043
X6.8837Y-5.3043
X6.8837Y-5.4043
X6.9837Y-2.1043
X6.9837Y-2.2043
X6.9837Y-2.3043
X6.9837Y-2.4043
X6.9837Y-2.5043
X6.9837Y-2.6043
X6.9837Y-2.7043
X6.9837Y-2.8043
X6.9837Y-2.9043
X6.9837Y-3.0043
X6.9837Y-3.1043
X6.9837Y-3.2043
X6.9837Y-3.3043
X6.9837Y-3.4043
X6.9837Y-3.5043
X6.9837Y-3.6043
X6.9837Y-3.9043
X6.9837Y-4.0043
X6.9837Y-4.1043
X6.9837Y-4.2043
X6.9837Y-4.3043
X6.9837Y-4.4043
X6.9837Y-4.5043
X6.9837Y-4.6043
X6.9837Y-4.7043
X6.9837Y-4.8043
X6.9837Y-4.9043
X6.9837Y-5.0043
X6.9837Y-5.1043
X6.9837Y-5.2043
X6.9837Y-5.3043
X6.9837Y-5.4043
X7.0837Y-2.1043
X7.0837Y-2.2043
X7.0837Y-2.3043
X7.0837Y-2.4043
X7.0837Y-2.5043
X7.0837Y-2.6043
X7.0837Y-2.7043
X7.0837Y-2.8043
X7.0837Y-2.9043
X7.0837Y-3.0043
X7.0837Y-3.1043
X7.0837Y-3.2043
X7.0837Y-3.3043
X7.0837Y-3.4043
X7.0837Y-3.5043
X7.0837Y-3.6043
X7.0837Y-3.9043
X7.0837Y-4.0043
X7.0837Y-4.1043
X7.0837Y-4.2043
X7.0837Y-4.3043
X7.0837Y-4.4043
X7.0837Y-4.5043
X7.0837Y-4.6043
X7.0837Y-4.7043
X7.0837Y-4.8043
X7.0837Y-4.9043
X7.0837Y-5.0043
X7.0837Y-5.1043
X7.0837Y-5.2043
X7.0837Y-5.3043
X7.0837Y-5.4043
X7.1837Y-2.1043
X7.1837Y-2.2043
X7.1837Y-2.3043
X7.1837Y-2.4043
X7.1837Y-2.5043
X7.1837Y-2.6043
X7.1837Y-2.7043
X7.1837Y-2.8043
X7.1837Y-2.9043
X7.1837Y-3.0043
X7.1837Y-3.1043
X7.1837Y-3.2043
X7.1837Y-3.3043
X7.1837Y-3.4043
X7.1837Y-3.5043
X7.1837Y-3.6043
X7.1837Y-3.9043
X7.1837Y-4.0043
X7.1837Y-4.1043
X7.1837Y-4.2043
X7.1837Y-4.3043
X7.1837Y-4.4043
X7.1837Y-4.5043
X7.1837Y-4.6043
X7.1837Y-4.7043
X7.1837Y-4.8043
X7.1837Y-4.9043
X7.1837Y-5.0043
X7.1837Y-5.1043
X7.1837Y-5.2043
X7.1837Y-5.3043
X7.1837Y-5.4043
X7.2837Y-2.1043
X7.2837Y-2.2043
X7.2837Y-2.3043
X7.2837Y-2.4043
X7.2837Y-2.5043
X7.2837Y-2.6043
X7.2837Y-2.7043
X7.2837Y-2.8043
X7.2837Y-2.9043
X7.2837Y-3.0043
X7.2837Y-3.1043
X7.2837Y-3.2043
X7.2837Y-3.3043
X7.2837Y-3.4043
X7.2837Y-3.5043
X7.2837Y-3.6043
X7.2837Y-3.9043
X7.2837Y-4.0043
X7.2837Y-4.1043
X7.2837Y-4.2043
X7.2837Y-4.3043
X7.2837Y-4.4043
X7.2837Y-4.5043
X7.2837Y-4.6043
X7.2837Y-4.7043
X7.2837Y-4.8043
X7.2837Y-4.9043
X7.2837Y-5.0043
X7.2837Y-5.1043
X7.2837Y-5.2043
X7.2837Y-5.3043
X7.2837Y-5.4043
X7.3837Y-2.1043
X7.3837Y-2.2043
X7.3837Y-2.3043
X7.3837Y-2.4043
X7.3837Y-2.5043
X7.3837Y-2.6043
X7.3837Y-2.7043
X7.3837Y-2.8043
X7.3837Y-2.9043
X7.3837Y-3.0043
X7.3837Y-3.1043
X7.3837Y-3.2043
X7.3837Y-3.3043
X7.3837Y-3.4043
X7.3837Y-3.5043
X7.3837Y-3.6043
X7.3837Y-3.9043
X7.3837Y-4.0043
X7.3837Y-4.1043
X7.3837Y-4.2043
X7.3837Y-4.3043
X7.3837Y-4.4043
X7.3837Y-4.5043
X7.3837Y-4.6043
X7.3837Y-4.7043
X7.3837Y-4.8043
X7.3837Y-4.9043
X7.3837Y-5.0043
X7.3837Y-5.1043
X7.3837Y-5.2043
X7.3837Y-5.3043
X7.3837Y-5.4043
X7.4837Y-2.1043
X7.4837Y-2.2043
X7.4837Y-2.3043
X7.4837Y-2.4043
X7.4837Y-2.5043
X7.4837Y-2.6043
X7.4837Y-2.7043
X7.4837Y-2.8043
X7.4837Y-2.9043
X7.4837Y-3.0043
X7.4837Y-3.1043
X7.4837Y-3.2043
X7.4837Y-3.3043
X7.4837Y-3.4043
X7.4837Y-3.5043
X7.4837Y-3.6043
X7.4837Y-3.9043
X7.4837Y-4.0043
X7.4837Y-4.1043
X7.4837Y-4.2043
X7.4837Y-4.3043
X7.4837Y-4.4043
X7.4837Y-4.5043
X7.4837Y-4.6043
X7.4837Y-4.7043
X7.4837Y-4.8043
X7.4837Y-4.9043
X7.4837Y-5.0043
X7.4837Y-5.1043
X7.4837Y-5.2043
X7.4837Y-5.3043
X7.4837Y-5.4043
X7.5837Y-2.1043
X7.5837Y-2.2043
X7.5837Y-2.3043
X7.5837Y-2.4043
X7.5837Y-2.5043
X7.5837Y-2.6043
X7.5837Y-2.7043
X7.5837Y-2.8043
X7.5837Y-2.9043
X7.5837Y-3.0043
X7.5837Y-3.1043
X7.5837Y-3.2043
X7.5837Y-3.3043
X7.5837Y-3.4043
X7.5837Y-3.5043
X7.5837Y-3.6043
X7.5837Y-3.9043
X7.5837Y-4.0043
X7.5837Y-4.1043
X7.5837Y-4.2043
X7.5837Y-4.3043
X7.5837Y-4.4043
X7.5837Y-4.5043
X7.5837Y-4.6043
X7.5837Y-4.7043
X7.5837Y-4.8043
X7.5837Y-4.9043
X7.5837Y-5.0043
X7.5837Y-5.1043
X7.5837Y-5.2043
X7.5837Y-5.3043
X7.5837Y-5.4043
X7.6837Y-2.1043
X7.6837Y-2.2043
X7.6837Y-2.3043
X7.6837Y-2.4043
X7.6837Y-2.5043
X7.6837Y-2.6043
X7.6837Y-2.7043
X7.6837Y-2.8043
X7.6837Y-2.9043
X7.6837Y-3.0043
X7.6837Y-3.1043
X7.6837Y-3.2043
X7.6837Y-3.3043
X7.6837Y-3.4043
X7.6837Y-3.5043
X7.6837Y-3.6043
X7.6837Y-3.9043
X7.6837Y-4.0043
X7.6837Y-4.1043
X7.6837Y-4.2043
X7.6837Y-4.3043
X7.6837Y-4.4043
X7.6837Y-4.5043
X7.6837Y-4.6043
X7.6837Y-4.7043
X7.6837Y-4.8043
X7.6837Y-4.9043
X7.6837Y-5.0043
X7.6837Y-5.1043
X7.6837Y-5.2043
X7.6837Y-5.3043
X7.6837Y-5.4043
X7.7837Y-2.1043
X7.7837Y-2.2043
X7.7837Y-2.3043
X7.7837Y-2.4043
X7.7837Y-2.5043
X7.7837Y-2.6043
X7.7837Y-2.7043
X7.7837Y-2.8043
X7.7837Y-2.9043
X7.7837Y-3.0043
X7.7837Y-3.1043
X7.7837Y-3.2043
X7.7837Y-3.3043
X7.7837Y-3.4043
X7.7837Y-3.5043
X7.7837Y-3.6043
X7.7837Y-3.9043
X7.7837Y-4.0043
X7.7837Y-4.1043
X7.7837Y-4.2043
X7.7837Y-4.3043
X7.7837Y-4.4043
X7.7837Y-4.5043
X7.7837Y-4.6043
X7.7837Y-4.7043
X7.7837Y-4.8043
X7.7837Y-4.9043
X7.7837Y-5.0043
X7.7837Y-5.1043
X7.7837Y-5.2043
X7.7837Y-5.3043
X7.7837Y-5.4043
M30
