%TF.GenerationSoftware,KiCad,Pcbnew,9.0.1*%
%TF.CreationDate,2025-05-06T23:53:55-04:00*%
%TF.ProjectId,KiCad_Stripboard,4b694361-645f-4537-9472-6970626f6172,rev?*%
%TF.SameCoordinates,Original*%
%TF.FileFunction,Copper,L2,Bot*%
%TF.FilePolarity,Positive*%
%FSLAX46Y46*%
G04 Gerber Fmt 4.6, Leading zero omitted, Abs format (unit mm)*
G04 Created by KiCad (PCBNEW 9.0.1) date 2025-05-06 23:53:55*
%MOMM*%
%LPD*%
G01*
G04 APERTURE LIST*
%ADD10C,0.300000*%
%TA.AperFunction,NonConductor*%
%ADD11C,0.300000*%
%TD*%
%TA.AperFunction,EtchedComponent*%
%ADD12C,0.044242*%
%TD*%
%TA.AperFunction,ViaPad*%
%ADD13C,1.524000*%
%TD*%
G04 APERTURE END LIST*
D10*
D11*
X74893100Y-119892851D02*
X74821671Y-119678566D01*
X74821671Y-119678566D02*
X74821671Y-119321423D01*
X74821671Y-119321423D02*
X74893100Y-119178566D01*
X74893100Y-119178566D02*
X74964528Y-119107137D01*
X74964528Y-119107137D02*
X75107385Y-119035708D01*
X75107385Y-119035708D02*
X75250242Y-119035708D01*
X75250242Y-119035708D02*
X75393100Y-119107137D01*
X75393100Y-119107137D02*
X75464528Y-119178566D01*
X75464528Y-119178566D02*
X75535957Y-119321423D01*
X75535957Y-119321423D02*
X75607385Y-119607137D01*
X75607385Y-119607137D02*
X75678814Y-119749994D01*
X75678814Y-119749994D02*
X75750242Y-119821423D01*
X75750242Y-119821423D02*
X75893100Y-119892851D01*
X75893100Y-119892851D02*
X76035957Y-119892851D01*
X76035957Y-119892851D02*
X76178814Y-119821423D01*
X76178814Y-119821423D02*
X76250242Y-119749994D01*
X76250242Y-119749994D02*
X76321671Y-119607137D01*
X76321671Y-119607137D02*
X76321671Y-119249994D01*
X76321671Y-119249994D02*
X76250242Y-119035708D01*
X75607385Y-117892852D02*
X75535957Y-117678566D01*
X75535957Y-117678566D02*
X75464528Y-117607137D01*
X75464528Y-117607137D02*
X75321671Y-117535709D01*
X75321671Y-117535709D02*
X75107385Y-117535709D01*
X75107385Y-117535709D02*
X74964528Y-117607137D01*
X74964528Y-117607137D02*
X74893100Y-117678566D01*
X74893100Y-117678566D02*
X74821671Y-117821423D01*
X74821671Y-117821423D02*
X74821671Y-118392852D01*
X74821671Y-118392852D02*
X76321671Y-118392852D01*
X76321671Y-118392852D02*
X76321671Y-117892852D01*
X76321671Y-117892852D02*
X76250242Y-117749995D01*
X76250242Y-117749995D02*
X76178814Y-117678566D01*
X76178814Y-117678566D02*
X76035957Y-117607137D01*
X76035957Y-117607137D02*
X75893100Y-117607137D01*
X75893100Y-117607137D02*
X75750242Y-117678566D01*
X75750242Y-117678566D02*
X75678814Y-117749995D01*
X75678814Y-117749995D02*
X75607385Y-117892852D01*
X75607385Y-117892852D02*
X75607385Y-118392852D01*
X74678814Y-117249995D02*
X74678814Y-116107137D01*
X76321671Y-115892852D02*
X76321671Y-114964280D01*
X76321671Y-114964280D02*
X75750242Y-115464280D01*
X75750242Y-115464280D02*
X75750242Y-115249995D01*
X75750242Y-115249995D02*
X75678814Y-115107138D01*
X75678814Y-115107138D02*
X75607385Y-115035709D01*
X75607385Y-115035709D02*
X75464528Y-114964280D01*
X75464528Y-114964280D02*
X75107385Y-114964280D01*
X75107385Y-114964280D02*
X74964528Y-115035709D01*
X74964528Y-115035709D02*
X74893100Y-115107138D01*
X74893100Y-115107138D02*
X74821671Y-115249995D01*
X74821671Y-115249995D02*
X74821671Y-115678566D01*
X74821671Y-115678566D02*
X74893100Y-115821423D01*
X74893100Y-115821423D02*
X74964528Y-115892852D01*
X76178814Y-114392852D02*
X76250242Y-114321424D01*
X76250242Y-114321424D02*
X76321671Y-114178567D01*
X76321671Y-114178567D02*
X76321671Y-113821424D01*
X76321671Y-113821424D02*
X76250242Y-113678567D01*
X76250242Y-113678567D02*
X76178814Y-113607138D01*
X76178814Y-113607138D02*
X76035957Y-113535709D01*
X76035957Y-113535709D02*
X75893100Y-113535709D01*
X75893100Y-113535709D02*
X75678814Y-113607138D01*
X75678814Y-113607138D02*
X74821671Y-114464281D01*
X74821671Y-114464281D02*
X74821671Y-113535709D01*
X74821671Y-113035710D02*
X75821671Y-112249996D01*
X75821671Y-113035710D02*
X74821671Y-112249996D01*
X75821671Y-111035710D02*
X74821671Y-111035710D01*
X76393100Y-111392852D02*
X75321671Y-111749995D01*
X75321671Y-111749995D02*
X75321671Y-110821424D01*
X75678814Y-110035710D02*
X75750242Y-110178567D01*
X75750242Y-110178567D02*
X75821671Y-110249996D01*
X75821671Y-110249996D02*
X75964528Y-110321424D01*
X75964528Y-110321424D02*
X76035957Y-110321424D01*
X76035957Y-110321424D02*
X76178814Y-110249996D01*
X76178814Y-110249996D02*
X76250242Y-110178567D01*
X76250242Y-110178567D02*
X76321671Y-110035710D01*
X76321671Y-110035710D02*
X76321671Y-109749996D01*
X76321671Y-109749996D02*
X76250242Y-109607139D01*
X76250242Y-109607139D02*
X76178814Y-109535710D01*
X76178814Y-109535710D02*
X76035957Y-109464281D01*
X76035957Y-109464281D02*
X75964528Y-109464281D01*
X75964528Y-109464281D02*
X75821671Y-109535710D01*
X75821671Y-109535710D02*
X75750242Y-109607139D01*
X75750242Y-109607139D02*
X75678814Y-109749996D01*
X75678814Y-109749996D02*
X75678814Y-110035710D01*
X75678814Y-110035710D02*
X75607385Y-110178567D01*
X75607385Y-110178567D02*
X75535957Y-110249996D01*
X75535957Y-110249996D02*
X75393100Y-110321424D01*
X75393100Y-110321424D02*
X75107385Y-110321424D01*
X75107385Y-110321424D02*
X74964528Y-110249996D01*
X74964528Y-110249996D02*
X74893100Y-110178567D01*
X74893100Y-110178567D02*
X74821671Y-110035710D01*
X74821671Y-110035710D02*
X74821671Y-109749996D01*
X74821671Y-109749996D02*
X74893100Y-109607139D01*
X74893100Y-109607139D02*
X74964528Y-109535710D01*
X74964528Y-109535710D02*
X75107385Y-109464281D01*
X75107385Y-109464281D02*
X75393100Y-109464281D01*
X75393100Y-109464281D02*
X75535957Y-109535710D01*
X75535957Y-109535710D02*
X75607385Y-109607139D01*
X75607385Y-109607139D02*
X75678814Y-109749996D01*
X74678814Y-109178568D02*
X74678814Y-108035710D01*
X76178814Y-107749996D02*
X76250242Y-107678568D01*
X76250242Y-107678568D02*
X76321671Y-107535711D01*
X76321671Y-107535711D02*
X76321671Y-107178568D01*
X76321671Y-107178568D02*
X76250242Y-107035711D01*
X76250242Y-107035711D02*
X76178814Y-106964282D01*
X76178814Y-106964282D02*
X76035957Y-106892853D01*
X76035957Y-106892853D02*
X75893100Y-106892853D01*
X75893100Y-106892853D02*
X75678814Y-106964282D01*
X75678814Y-106964282D02*
X74821671Y-107821425D01*
X74821671Y-107821425D02*
X74821671Y-106892853D01*
X76321671Y-105535711D02*
X76321671Y-106249997D01*
X76321671Y-106249997D02*
X75607385Y-106321425D01*
X75607385Y-106321425D02*
X75678814Y-106249997D01*
X75678814Y-106249997D02*
X75750242Y-106107140D01*
X75750242Y-106107140D02*
X75750242Y-105749997D01*
X75750242Y-105749997D02*
X75678814Y-105607140D01*
X75678814Y-105607140D02*
X75607385Y-105535711D01*
X75607385Y-105535711D02*
X75464528Y-105464282D01*
X75464528Y-105464282D02*
X75107385Y-105464282D01*
X75107385Y-105464282D02*
X74964528Y-105535711D01*
X74964528Y-105535711D02*
X74893100Y-105607140D01*
X74893100Y-105607140D02*
X74821671Y-105749997D01*
X74821671Y-105749997D02*
X74821671Y-106107140D01*
X74821671Y-106107140D02*
X74893100Y-106249997D01*
X74893100Y-106249997D02*
X74964528Y-106321425D01*
X75821671Y-104178569D02*
X74821671Y-104178569D01*
X76393100Y-104535711D02*
X75321671Y-104892854D01*
X75321671Y-104892854D02*
X75321671Y-103964283D01*
X74678814Y-103749998D02*
X74678814Y-102607140D01*
X75821671Y-101607141D02*
X74821671Y-101607141D01*
X76393100Y-101964283D02*
X75321671Y-102321426D01*
X75321671Y-102321426D02*
X75321671Y-101392855D01*
X74821671Y-100821427D02*
X76321671Y-100821427D01*
X75607385Y-100821427D02*
X75607385Y-99964284D01*
X74821671Y-99964284D02*
X76321671Y-99964284D01*
X75821671Y-98607141D02*
X74821671Y-98607141D01*
X76393100Y-98964283D02*
X75321671Y-99321426D01*
X75321671Y-99321426D02*
X75321671Y-98392855D01*
X75678814Y-97607141D02*
X75750242Y-97749998D01*
X75750242Y-97749998D02*
X75821671Y-97821427D01*
X75821671Y-97821427D02*
X75964528Y-97892855D01*
X75964528Y-97892855D02*
X76035957Y-97892855D01*
X76035957Y-97892855D02*
X76178814Y-97821427D01*
X76178814Y-97821427D02*
X76250242Y-97749998D01*
X76250242Y-97749998D02*
X76321671Y-97607141D01*
X76321671Y-97607141D02*
X76321671Y-97321427D01*
X76321671Y-97321427D02*
X76250242Y-97178570D01*
X76250242Y-97178570D02*
X76178814Y-97107141D01*
X76178814Y-97107141D02*
X76035957Y-97035712D01*
X76035957Y-97035712D02*
X75964528Y-97035712D01*
X75964528Y-97035712D02*
X75821671Y-97107141D01*
X75821671Y-97107141D02*
X75750242Y-97178570D01*
X75750242Y-97178570D02*
X75678814Y-97321427D01*
X75678814Y-97321427D02*
X75678814Y-97607141D01*
X75678814Y-97607141D02*
X75607385Y-97749998D01*
X75607385Y-97749998D02*
X75535957Y-97821427D01*
X75535957Y-97821427D02*
X75393100Y-97892855D01*
X75393100Y-97892855D02*
X75107385Y-97892855D01*
X75107385Y-97892855D02*
X74964528Y-97821427D01*
X74964528Y-97821427D02*
X74893100Y-97749998D01*
X74893100Y-97749998D02*
X74821671Y-97607141D01*
X74821671Y-97607141D02*
X74821671Y-97321427D01*
X74821671Y-97321427D02*
X74893100Y-97178570D01*
X74893100Y-97178570D02*
X74964528Y-97107141D01*
X74964528Y-97107141D02*
X75107385Y-97035712D01*
X75107385Y-97035712D02*
X75393100Y-97035712D01*
X75393100Y-97035712D02*
X75535957Y-97107141D01*
X75535957Y-97107141D02*
X75607385Y-97178570D01*
X75607385Y-97178570D02*
X75678814Y-97321427D01*
X74678814Y-96749999D02*
X74678814Y-95607141D01*
X74821671Y-94464284D02*
X74821671Y-95321427D01*
X74821671Y-94892856D02*
X76321671Y-94892856D01*
X76321671Y-94892856D02*
X76107385Y-95035713D01*
X76107385Y-95035713D02*
X75964528Y-95178570D01*
X75964528Y-95178570D02*
X75893100Y-95321427D01*
X74821671Y-93749999D02*
X74821671Y-93464285D01*
X74821671Y-93464285D02*
X74893100Y-93321428D01*
X74893100Y-93321428D02*
X74964528Y-93249999D01*
X74964528Y-93249999D02*
X75178814Y-93107142D01*
X75178814Y-93107142D02*
X75464528Y-93035713D01*
X75464528Y-93035713D02*
X76035957Y-93035713D01*
X76035957Y-93035713D02*
X76178814Y-93107142D01*
X76178814Y-93107142D02*
X76250242Y-93178571D01*
X76250242Y-93178571D02*
X76321671Y-93321428D01*
X76321671Y-93321428D02*
X76321671Y-93607142D01*
X76321671Y-93607142D02*
X76250242Y-93749999D01*
X76250242Y-93749999D02*
X76178814Y-93821428D01*
X76178814Y-93821428D02*
X76035957Y-93892856D01*
X76035957Y-93892856D02*
X75678814Y-93892856D01*
X75678814Y-93892856D02*
X75535957Y-93821428D01*
X75535957Y-93821428D02*
X75464528Y-93749999D01*
X75464528Y-93749999D02*
X75393100Y-93607142D01*
X75393100Y-93607142D02*
X75393100Y-93321428D01*
X75393100Y-93321428D02*
X75464528Y-93178571D01*
X75464528Y-93178571D02*
X75535957Y-93107142D01*
X75535957Y-93107142D02*
X75678814Y-93035713D01*
X76178814Y-92464285D02*
X76250242Y-92392857D01*
X76250242Y-92392857D02*
X76321671Y-92250000D01*
X76321671Y-92250000D02*
X76321671Y-91892857D01*
X76321671Y-91892857D02*
X76250242Y-91750000D01*
X76250242Y-91750000D02*
X76178814Y-91678571D01*
X76178814Y-91678571D02*
X76035957Y-91607142D01*
X76035957Y-91607142D02*
X75893100Y-91607142D01*
X75893100Y-91607142D02*
X75678814Y-91678571D01*
X75678814Y-91678571D02*
X74821671Y-92535714D01*
X74821671Y-92535714D02*
X74821671Y-91607142D01*
X76321671Y-91178571D02*
X74821671Y-90678571D01*
X74821671Y-90678571D02*
X76321671Y-90178571D01*
X76321671Y-88964286D02*
X76321671Y-89678572D01*
X76321671Y-89678572D02*
X75607385Y-89750000D01*
X75607385Y-89750000D02*
X75678814Y-89678572D01*
X75678814Y-89678572D02*
X75750242Y-89535715D01*
X75750242Y-89535715D02*
X75750242Y-89178572D01*
X75750242Y-89178572D02*
X75678814Y-89035715D01*
X75678814Y-89035715D02*
X75607385Y-88964286D01*
X75607385Y-88964286D02*
X75464528Y-88892857D01*
X75464528Y-88892857D02*
X75107385Y-88892857D01*
X75107385Y-88892857D02*
X74964528Y-88964286D01*
X74964528Y-88964286D02*
X74893100Y-89035715D01*
X74893100Y-89035715D02*
X74821671Y-89178572D01*
X74821671Y-89178572D02*
X74821671Y-89535715D01*
X74821671Y-89535715D02*
X74893100Y-89678572D01*
X74893100Y-89678572D02*
X74964528Y-89750000D01*
X74678814Y-88607144D02*
X74678814Y-87464286D01*
X74821671Y-87035715D02*
X74821671Y-86750001D01*
X74821671Y-86750001D02*
X74893100Y-86607144D01*
X74893100Y-86607144D02*
X74964528Y-86535715D01*
X74964528Y-86535715D02*
X75178814Y-86392858D01*
X75178814Y-86392858D02*
X75464528Y-86321429D01*
X75464528Y-86321429D02*
X76035957Y-86321429D01*
X76035957Y-86321429D02*
X76178814Y-86392858D01*
X76178814Y-86392858D02*
X76250242Y-86464287D01*
X76250242Y-86464287D02*
X76321671Y-86607144D01*
X76321671Y-86607144D02*
X76321671Y-86892858D01*
X76321671Y-86892858D02*
X76250242Y-87035715D01*
X76250242Y-87035715D02*
X76178814Y-87107144D01*
X76178814Y-87107144D02*
X76035957Y-87178572D01*
X76035957Y-87178572D02*
X75678814Y-87178572D01*
X75678814Y-87178572D02*
X75535957Y-87107144D01*
X75535957Y-87107144D02*
X75464528Y-87035715D01*
X75464528Y-87035715D02*
X75393100Y-86892858D01*
X75393100Y-86892858D02*
X75393100Y-86607144D01*
X75393100Y-86607144D02*
X75464528Y-86464287D01*
X75464528Y-86464287D02*
X75535957Y-86392858D01*
X75535957Y-86392858D02*
X75678814Y-86321429D01*
X76321671Y-85035716D02*
X76321671Y-85321430D01*
X76321671Y-85321430D02*
X76250242Y-85464287D01*
X76250242Y-85464287D02*
X76178814Y-85535716D01*
X76178814Y-85535716D02*
X75964528Y-85678573D01*
X75964528Y-85678573D02*
X75678814Y-85750001D01*
X75678814Y-85750001D02*
X75107385Y-85750001D01*
X75107385Y-85750001D02*
X74964528Y-85678573D01*
X74964528Y-85678573D02*
X74893100Y-85607144D01*
X74893100Y-85607144D02*
X74821671Y-85464287D01*
X74821671Y-85464287D02*
X74821671Y-85178573D01*
X74821671Y-85178573D02*
X74893100Y-85035716D01*
X74893100Y-85035716D02*
X74964528Y-84964287D01*
X74964528Y-84964287D02*
X75107385Y-84892858D01*
X75107385Y-84892858D02*
X75464528Y-84892858D01*
X75464528Y-84892858D02*
X75607385Y-84964287D01*
X75607385Y-84964287D02*
X75678814Y-85035716D01*
X75678814Y-85035716D02*
X75750242Y-85178573D01*
X75750242Y-85178573D02*
X75750242Y-85464287D01*
X75750242Y-85464287D02*
X75678814Y-85607144D01*
X75678814Y-85607144D02*
X75607385Y-85678573D01*
X75607385Y-85678573D02*
X75464528Y-85750001D01*
X76321671Y-84464287D02*
X74821671Y-83964287D01*
X74821671Y-83964287D02*
X76321671Y-83464287D01*
X76178814Y-83035716D02*
X76250242Y-82964288D01*
X76250242Y-82964288D02*
X76321671Y-82821431D01*
X76321671Y-82821431D02*
X76321671Y-82464288D01*
X76321671Y-82464288D02*
X76250242Y-82321431D01*
X76250242Y-82321431D02*
X76178814Y-82250002D01*
X76178814Y-82250002D02*
X76035957Y-82178573D01*
X76035957Y-82178573D02*
X75893100Y-82178573D01*
X75893100Y-82178573D02*
X75678814Y-82250002D01*
X75678814Y-82250002D02*
X74821671Y-83107145D01*
X74821671Y-83107145D02*
X74821671Y-82178573D01*
X74678814Y-81892860D02*
X74678814Y-80750002D01*
X75821671Y-79750003D02*
X74821671Y-79750003D01*
X76393100Y-80107145D02*
X75321671Y-80464288D01*
X75321671Y-80464288D02*
X75321671Y-79535717D01*
X74821671Y-78964289D02*
X76321671Y-78964289D01*
X75607385Y-78964289D02*
X75607385Y-78107146D01*
X74821671Y-78107146D02*
X76321671Y-78107146D01*
X75821671Y-76750003D02*
X74821671Y-76750003D01*
X76393100Y-77107145D02*
X75321671Y-77464288D01*
X75321671Y-77464288D02*
X75321671Y-76535717D01*
X75678814Y-75750003D02*
X75750242Y-75892860D01*
X75750242Y-75892860D02*
X75821671Y-75964289D01*
X75821671Y-75964289D02*
X75964528Y-76035717D01*
X75964528Y-76035717D02*
X76035957Y-76035717D01*
X76035957Y-76035717D02*
X76178814Y-75964289D01*
X76178814Y-75964289D02*
X76250242Y-75892860D01*
X76250242Y-75892860D02*
X76321671Y-75750003D01*
X76321671Y-75750003D02*
X76321671Y-75464289D01*
X76321671Y-75464289D02*
X76250242Y-75321432D01*
X76250242Y-75321432D02*
X76178814Y-75250003D01*
X76178814Y-75250003D02*
X76035957Y-75178574D01*
X76035957Y-75178574D02*
X75964528Y-75178574D01*
X75964528Y-75178574D02*
X75821671Y-75250003D01*
X75821671Y-75250003D02*
X75750242Y-75321432D01*
X75750242Y-75321432D02*
X75678814Y-75464289D01*
X75678814Y-75464289D02*
X75678814Y-75750003D01*
X75678814Y-75750003D02*
X75607385Y-75892860D01*
X75607385Y-75892860D02*
X75535957Y-75964289D01*
X75535957Y-75964289D02*
X75393100Y-76035717D01*
X75393100Y-76035717D02*
X75107385Y-76035717D01*
X75107385Y-76035717D02*
X74964528Y-75964289D01*
X74964528Y-75964289D02*
X74893100Y-75892860D01*
X74893100Y-75892860D02*
X74821671Y-75750003D01*
X74821671Y-75750003D02*
X74821671Y-75464289D01*
X74821671Y-75464289D02*
X74893100Y-75321432D01*
X74893100Y-75321432D02*
X74964528Y-75250003D01*
X74964528Y-75250003D02*
X75107385Y-75178574D01*
X75107385Y-75178574D02*
X75393100Y-75178574D01*
X75393100Y-75178574D02*
X75535957Y-75250003D01*
X75535957Y-75250003D02*
X75607385Y-75321432D01*
X75607385Y-75321432D02*
X75678814Y-75464289D01*
X74678814Y-74892861D02*
X74678814Y-73750003D01*
X74821671Y-72535718D02*
X75535957Y-73035718D01*
X74821671Y-73392861D02*
X76321671Y-73392861D01*
X76321671Y-73392861D02*
X76321671Y-72821432D01*
X76321671Y-72821432D02*
X76250242Y-72678575D01*
X76250242Y-72678575D02*
X76178814Y-72607146D01*
X76178814Y-72607146D02*
X76035957Y-72535718D01*
X76035957Y-72535718D02*
X75821671Y-72535718D01*
X75821671Y-72535718D02*
X75678814Y-72607146D01*
X75678814Y-72607146D02*
X75607385Y-72678575D01*
X75607385Y-72678575D02*
X75535957Y-72821432D01*
X75535957Y-72821432D02*
X75535957Y-73392861D01*
X74821671Y-71107146D02*
X74821671Y-71964289D01*
X74821671Y-71535718D02*
X76321671Y-71535718D01*
X76321671Y-71535718D02*
X76107385Y-71678575D01*
X76107385Y-71678575D02*
X75964528Y-71821432D01*
X75964528Y-71821432D02*
X75893100Y-71964289D01*
D10*
D11*
X151371429Y-96078328D02*
X151371429Y-94578328D01*
X151371429Y-94578328D02*
X151014286Y-94578328D01*
X151014286Y-94578328D02*
X150800000Y-94649757D01*
X150800000Y-94649757D02*
X150657143Y-94792614D01*
X150657143Y-94792614D02*
X150585714Y-94935471D01*
X150585714Y-94935471D02*
X150514286Y-95221185D01*
X150514286Y-95221185D02*
X150514286Y-95435471D01*
X150514286Y-95435471D02*
X150585714Y-95721185D01*
X150585714Y-95721185D02*
X150657143Y-95864042D01*
X150657143Y-95864042D02*
X150800000Y-96006900D01*
X150800000Y-96006900D02*
X151014286Y-96078328D01*
X151014286Y-96078328D02*
X151371429Y-96078328D01*
X149657143Y-96078328D02*
X149800000Y-96006900D01*
X149800000Y-96006900D02*
X149871429Y-95935471D01*
X149871429Y-95935471D02*
X149942857Y-95792614D01*
X149942857Y-95792614D02*
X149942857Y-95364042D01*
X149942857Y-95364042D02*
X149871429Y-95221185D01*
X149871429Y-95221185D02*
X149800000Y-95149757D01*
X149800000Y-95149757D02*
X149657143Y-95078328D01*
X149657143Y-95078328D02*
X149442857Y-95078328D01*
X149442857Y-95078328D02*
X149300000Y-95149757D01*
X149300000Y-95149757D02*
X149228572Y-95221185D01*
X149228572Y-95221185D02*
X149157143Y-95364042D01*
X149157143Y-95364042D02*
X149157143Y-95792614D01*
X149157143Y-95792614D02*
X149228572Y-95935471D01*
X149228572Y-95935471D02*
X149300000Y-96006900D01*
X149300000Y-96006900D02*
X149442857Y-96078328D01*
X149442857Y-96078328D02*
X149657143Y-96078328D01*
X148514286Y-96078328D02*
X148514286Y-94578328D01*
X147871429Y-96078328D02*
X147871429Y-95292614D01*
X147871429Y-95292614D02*
X147942857Y-95149757D01*
X147942857Y-95149757D02*
X148085714Y-95078328D01*
X148085714Y-95078328D02*
X148300000Y-95078328D01*
X148300000Y-95078328D02*
X148442857Y-95149757D01*
X148442857Y-95149757D02*
X148514286Y-95221185D01*
X147157143Y-95935471D02*
X147085714Y-96006900D01*
X147085714Y-96006900D02*
X147157143Y-96078328D01*
X147157143Y-96078328D02*
X147228571Y-96006900D01*
X147228571Y-96006900D02*
X147157143Y-95935471D01*
X147157143Y-95935471D02*
X147157143Y-96078328D01*
X147157143Y-95506900D02*
X147228571Y-94649757D01*
X147228571Y-94649757D02*
X147157143Y-94578328D01*
X147157143Y-94578328D02*
X147085714Y-94649757D01*
X147085714Y-94649757D02*
X147157143Y-95506900D01*
X147157143Y-95506900D02*
X147157143Y-94578328D01*
X145014285Y-95364042D02*
X145014285Y-96078328D01*
X145514285Y-94578328D02*
X145014285Y-95364042D01*
X145014285Y-95364042D02*
X144514285Y-94578328D01*
X143800000Y-96078328D02*
X143942857Y-96006900D01*
X143942857Y-96006900D02*
X144014286Y-95935471D01*
X144014286Y-95935471D02*
X144085714Y-95792614D01*
X144085714Y-95792614D02*
X144085714Y-95364042D01*
X144085714Y-95364042D02*
X144014286Y-95221185D01*
X144014286Y-95221185D02*
X143942857Y-95149757D01*
X143942857Y-95149757D02*
X143800000Y-95078328D01*
X143800000Y-95078328D02*
X143585714Y-95078328D01*
X143585714Y-95078328D02*
X143442857Y-95149757D01*
X143442857Y-95149757D02*
X143371429Y-95221185D01*
X143371429Y-95221185D02*
X143300000Y-95364042D01*
X143300000Y-95364042D02*
X143300000Y-95792614D01*
X143300000Y-95792614D02*
X143371429Y-95935471D01*
X143371429Y-95935471D02*
X143442857Y-96006900D01*
X143442857Y-96006900D02*
X143585714Y-96078328D01*
X143585714Y-96078328D02*
X143800000Y-96078328D01*
X142014286Y-95078328D02*
X142014286Y-96078328D01*
X142657143Y-95078328D02*
X142657143Y-95864042D01*
X142657143Y-95864042D02*
X142585714Y-96006900D01*
X142585714Y-96006900D02*
X142442857Y-96078328D01*
X142442857Y-96078328D02*
X142228571Y-96078328D01*
X142228571Y-96078328D02*
X142085714Y-96006900D01*
X142085714Y-96006900D02*
X142014286Y-95935471D01*
X140157143Y-96078328D02*
X140157143Y-95078328D01*
X140157143Y-95221185D02*
X140085714Y-95149757D01*
X140085714Y-95149757D02*
X139942857Y-95078328D01*
X139942857Y-95078328D02*
X139728571Y-95078328D01*
X139728571Y-95078328D02*
X139585714Y-95149757D01*
X139585714Y-95149757D02*
X139514286Y-95292614D01*
X139514286Y-95292614D02*
X139514286Y-96078328D01*
X139514286Y-95292614D02*
X139442857Y-95149757D01*
X139442857Y-95149757D02*
X139300000Y-95078328D01*
X139300000Y-95078328D02*
X139085714Y-95078328D01*
X139085714Y-95078328D02*
X138942857Y-95149757D01*
X138942857Y-95149757D02*
X138871428Y-95292614D01*
X138871428Y-95292614D02*
X138871428Y-96078328D01*
X138157143Y-96078328D02*
X138157143Y-95078328D01*
X138157143Y-94578328D02*
X138228571Y-94649757D01*
X138228571Y-94649757D02*
X138157143Y-94721185D01*
X138157143Y-94721185D02*
X138085714Y-94649757D01*
X138085714Y-94649757D02*
X138157143Y-94578328D01*
X138157143Y-94578328D02*
X138157143Y-94721185D01*
X137514285Y-96006900D02*
X137371428Y-96078328D01*
X137371428Y-96078328D02*
X137085714Y-96078328D01*
X137085714Y-96078328D02*
X136942857Y-96006900D01*
X136942857Y-96006900D02*
X136871428Y-95864042D01*
X136871428Y-95864042D02*
X136871428Y-95792614D01*
X136871428Y-95792614D02*
X136942857Y-95649757D01*
X136942857Y-95649757D02*
X137085714Y-95578328D01*
X137085714Y-95578328D02*
X137300000Y-95578328D01*
X137300000Y-95578328D02*
X137442857Y-95506900D01*
X137442857Y-95506900D02*
X137514285Y-95364042D01*
X137514285Y-95364042D02*
X137514285Y-95292614D01*
X137514285Y-95292614D02*
X137442857Y-95149757D01*
X137442857Y-95149757D02*
X137300000Y-95078328D01*
X137300000Y-95078328D02*
X137085714Y-95078328D01*
X137085714Y-95078328D02*
X136942857Y-95149757D01*
X136299999Y-96006900D02*
X136157142Y-96078328D01*
X136157142Y-96078328D02*
X135871428Y-96078328D01*
X135871428Y-96078328D02*
X135728571Y-96006900D01*
X135728571Y-96006900D02*
X135657142Y-95864042D01*
X135657142Y-95864042D02*
X135657142Y-95792614D01*
X135657142Y-95792614D02*
X135728571Y-95649757D01*
X135728571Y-95649757D02*
X135871428Y-95578328D01*
X135871428Y-95578328D02*
X136085714Y-95578328D01*
X136085714Y-95578328D02*
X136228571Y-95506900D01*
X136228571Y-95506900D02*
X136299999Y-95364042D01*
X136299999Y-95364042D02*
X136299999Y-95292614D01*
X136299999Y-95292614D02*
X136228571Y-95149757D01*
X136228571Y-95149757D02*
X136085714Y-95078328D01*
X136085714Y-95078328D02*
X135871428Y-95078328D01*
X135871428Y-95078328D02*
X135728571Y-95149757D01*
X134442856Y-96006900D02*
X134585713Y-96078328D01*
X134585713Y-96078328D02*
X134871428Y-96078328D01*
X134871428Y-96078328D02*
X135014285Y-96006900D01*
X135014285Y-96006900D02*
X135085713Y-95864042D01*
X135085713Y-95864042D02*
X135085713Y-95292614D01*
X135085713Y-95292614D02*
X135014285Y-95149757D01*
X135014285Y-95149757D02*
X134871428Y-95078328D01*
X134871428Y-95078328D02*
X134585713Y-95078328D01*
X134585713Y-95078328D02*
X134442856Y-95149757D01*
X134442856Y-95149757D02*
X134371428Y-95292614D01*
X134371428Y-95292614D02*
X134371428Y-95435471D01*
X134371428Y-95435471D02*
X135085713Y-95578328D01*
X133085714Y-96078328D02*
X133085714Y-94578328D01*
X133085714Y-96006900D02*
X133228571Y-96078328D01*
X133228571Y-96078328D02*
X133514285Y-96078328D01*
X133514285Y-96078328D02*
X133657142Y-96006900D01*
X133657142Y-96006900D02*
X133728571Y-95935471D01*
X133728571Y-95935471D02*
X133799999Y-95792614D01*
X133799999Y-95792614D02*
X133799999Y-95364042D01*
X133799999Y-95364042D02*
X133728571Y-95221185D01*
X133728571Y-95221185D02*
X133657142Y-95149757D01*
X133657142Y-95149757D02*
X133514285Y-95078328D01*
X133514285Y-95078328D02*
X133228571Y-95078328D01*
X133228571Y-95078328D02*
X133085714Y-95149757D01*
X131014285Y-96078328D02*
X131157142Y-96006900D01*
X131157142Y-96006900D02*
X131228571Y-95935471D01*
X131228571Y-95935471D02*
X131299999Y-95792614D01*
X131299999Y-95792614D02*
X131299999Y-95364042D01*
X131299999Y-95364042D02*
X131228571Y-95221185D01*
X131228571Y-95221185D02*
X131157142Y-95149757D01*
X131157142Y-95149757D02*
X131014285Y-95078328D01*
X131014285Y-95078328D02*
X130799999Y-95078328D01*
X130799999Y-95078328D02*
X130657142Y-95149757D01*
X130657142Y-95149757D02*
X130585714Y-95221185D01*
X130585714Y-95221185D02*
X130514285Y-95364042D01*
X130514285Y-95364042D02*
X130514285Y-95792614D01*
X130514285Y-95792614D02*
X130585714Y-95935471D01*
X130585714Y-95935471D02*
X130657142Y-96006900D01*
X130657142Y-96006900D02*
X130799999Y-96078328D01*
X130799999Y-96078328D02*
X131014285Y-96078328D01*
X129871428Y-95078328D02*
X129871428Y-96078328D01*
X129871428Y-95221185D02*
X129799999Y-95149757D01*
X129799999Y-95149757D02*
X129657142Y-95078328D01*
X129657142Y-95078328D02*
X129442856Y-95078328D01*
X129442856Y-95078328D02*
X129299999Y-95149757D01*
X129299999Y-95149757D02*
X129228571Y-95292614D01*
X129228571Y-95292614D02*
X129228571Y-96078328D01*
X127942856Y-96006900D02*
X128085713Y-96078328D01*
X128085713Y-96078328D02*
X128371428Y-96078328D01*
X128371428Y-96078328D02*
X128514285Y-96006900D01*
X128514285Y-96006900D02*
X128585713Y-95864042D01*
X128585713Y-95864042D02*
X128585713Y-95292614D01*
X128585713Y-95292614D02*
X128514285Y-95149757D01*
X128514285Y-95149757D02*
X128371428Y-95078328D01*
X128371428Y-95078328D02*
X128085713Y-95078328D01*
X128085713Y-95078328D02*
X127942856Y-95149757D01*
X127942856Y-95149757D02*
X127871428Y-95292614D01*
X127871428Y-95292614D02*
X127871428Y-95435471D01*
X127871428Y-95435471D02*
X128585713Y-95578328D01*
X127228571Y-95935471D02*
X127157142Y-96006900D01*
X127157142Y-96006900D02*
X127228571Y-96078328D01*
X127228571Y-96078328D02*
X127299999Y-96006900D01*
X127299999Y-96006900D02*
X127228571Y-95935471D01*
X127228571Y-95935471D02*
X127228571Y-96078328D01*
X127228571Y-95506900D02*
X127299999Y-94649757D01*
X127299999Y-94649757D02*
X127228571Y-94578328D01*
X127228571Y-94578328D02*
X127157142Y-94649757D01*
X127157142Y-94649757D02*
X127228571Y-95506900D01*
X127228571Y-95506900D02*
X127228571Y-94578328D01*
D12*
%TO.C,Ref\u002A\u002A*%
X200601025Y-92358788D02*
X200602709Y-92358913D01*
X200604385Y-92359119D01*
X200606050Y-92359404D01*
X200607702Y-92359765D01*
X200609338Y-92360201D01*
X200610955Y-92360710D01*
X200612552Y-92361290D01*
X200614125Y-92361938D01*
X200615673Y-92362652D01*
X200617192Y-92363431D01*
X200618681Y-92364272D01*
X200620136Y-92365174D01*
X200621555Y-92366133D01*
X200622936Y-92367149D01*
X200624276Y-92368219D01*
X200625573Y-92369340D01*
X200626824Y-92370512D01*
X200628027Y-92371731D01*
X200629179Y-92372997D01*
X200630278Y-92374305D01*
X200631321Y-92375656D01*
X200632306Y-92377046D01*
X200633230Y-92378474D01*
X200634091Y-92379937D01*
X200634886Y-92381434D01*
X200635613Y-92382961D01*
X200636269Y-92384518D01*
X200636852Y-92386103D01*
X200637359Y-92387712D01*
X200637788Y-92389345D01*
X200638136Y-92390998D01*
X200778163Y-93143248D01*
X200778516Y-93144915D01*
X200778946Y-93146587D01*
X200780023Y-93149938D01*
X200781374Y-93153278D01*
X200782980Y-93156586D01*
X200784823Y-93159840D01*
X200786884Y-93163017D01*
X200789144Y-93166097D01*
X200791584Y-93169057D01*
X200794186Y-93171876D01*
X200796930Y-93174531D01*
X200799797Y-93177001D01*
X200802769Y-93179264D01*
X200805826Y-93181298D01*
X200808951Y-93183081D01*
X200810533Y-93183872D01*
X200812124Y-93184592D01*
X200813722Y-93185239D01*
X200815326Y-93185809D01*
X201319509Y-93392198D01*
X201322642Y-93393577D01*
X201325964Y-93394728D01*
X201329446Y-93395655D01*
X201333059Y-93396358D01*
X201336775Y-93396841D01*
X201340563Y-93397104D01*
X201344394Y-93397150D01*
X201348239Y-93396981D01*
X201352070Y-93396599D01*
X201355856Y-93396006D01*
X201359569Y-93395204D01*
X201363179Y-93394195D01*
X201366657Y-93392980D01*
X201369974Y-93391563D01*
X201373100Y-93389944D01*
X201376007Y-93388127D01*
X202004467Y-92956854D01*
X202005883Y-92955932D01*
X202007340Y-92955081D01*
X202008837Y-92954303D01*
X202010368Y-92953595D01*
X202011932Y-92952958D01*
X202013526Y-92952392D01*
X202015145Y-92951896D01*
X202016786Y-92951470D01*
X202018448Y-92951114D01*
X202020125Y-92950828D01*
X202023516Y-92950461D01*
X202026934Y-92950370D01*
X202030354Y-92950550D01*
X202033749Y-92950999D01*
X202037093Y-92951716D01*
X202040363Y-92952698D01*
X202041961Y-92953287D01*
X202043531Y-92953942D01*
X202045069Y-92954662D01*
X202046573Y-92955447D01*
X202048038Y-92956296D01*
X202049462Y-92957210D01*
X202050841Y-92958187D01*
X202052173Y-92959228D01*
X202053454Y-92960332D01*
X202054681Y-92961500D01*
X202583949Y-93490768D01*
X202585116Y-93491995D01*
X202586219Y-93493276D01*
X202587259Y-93494608D01*
X202588234Y-93495989D01*
X202589146Y-93497414D01*
X202589993Y-93498880D01*
X202591492Y-93501924D01*
X202592731Y-93505096D01*
X202593707Y-93508369D01*
X202594419Y-93511718D01*
X202594864Y-93515117D01*
X202595040Y-93518541D01*
X202594946Y-93521963D01*
X202594580Y-93525358D01*
X202593939Y-93528700D01*
X202593022Y-93531964D01*
X202592459Y-93533559D01*
X202591827Y-93535124D01*
X202591124Y-93536656D01*
X202590351Y-93538153D01*
X202589508Y-93539611D01*
X202588593Y-93541027D01*
X202164843Y-94158647D01*
X202163019Y-94161566D01*
X202161401Y-94164698D01*
X202159989Y-94168013D01*
X202158787Y-94171483D01*
X202157795Y-94175080D01*
X202157016Y-94178776D01*
X202156450Y-94182541D01*
X202156101Y-94186348D01*
X202155970Y-94190167D01*
X202156059Y-94193972D01*
X202156368Y-94197732D01*
X202156901Y-94201420D01*
X202157659Y-94205007D01*
X202158644Y-94208465D01*
X202159857Y-94211764D01*
X202161300Y-94214878D01*
X202384237Y-94734989D01*
X202385510Y-94738182D01*
X202387075Y-94741347D01*
X202388910Y-94744463D01*
X202390994Y-94747513D01*
X202393303Y-94750477D01*
X202395815Y-94753336D01*
X202398509Y-94756071D01*
X202401363Y-94758664D01*
X202404354Y-94761096D01*
X202407461Y-94763348D01*
X202410660Y-94765400D01*
X202413931Y-94767235D01*
X202417251Y-94768833D01*
X202420598Y-94770176D01*
X202423949Y-94771244D01*
X202427283Y-94772019D01*
X203154581Y-94907268D01*
X203154580Y-94907268D01*
X203156229Y-94907624D01*
X203157858Y-94908060D01*
X203159464Y-94908574D01*
X203161045Y-94909162D01*
X203162599Y-94909823D01*
X203164123Y-94910555D01*
X203165617Y-94911354D01*
X203167078Y-94912218D01*
X203169890Y-94914133D01*
X203172545Y-94916279D01*
X203175026Y-94918637D01*
X203177315Y-94921188D01*
X203179396Y-94923911D01*
X203181253Y-94926787D01*
X203182868Y-94929796D01*
X203183580Y-94931345D01*
X203184226Y-94932920D01*
X203184803Y-94934518D01*
X203185309Y-94936137D01*
X203185742Y-94937775D01*
X203186101Y-94939429D01*
X203186382Y-94941096D01*
X203186585Y-94942775D01*
X203186706Y-94944463D01*
X203186745Y-94946157D01*
X203186656Y-95694690D01*
X203186614Y-95696380D01*
X203186488Y-95698066D01*
X203186281Y-95699743D01*
X203185996Y-95701409D01*
X203185633Y-95703063D01*
X203185196Y-95704701D01*
X203184686Y-95706321D01*
X203184105Y-95707921D01*
X203183456Y-95709497D01*
X203182740Y-95711048D01*
X203181960Y-95712570D01*
X203181117Y-95714062D01*
X203180215Y-95715520D01*
X203179254Y-95716943D01*
X203178237Y-95718327D01*
X203177166Y-95719671D01*
X203176044Y-95720971D01*
X203174871Y-95722225D01*
X203173651Y-95723430D01*
X203172386Y-95724585D01*
X203171077Y-95725686D01*
X203169726Y-95726730D01*
X203168336Y-95727717D01*
X203166909Y-95728642D01*
X203165447Y-95729503D01*
X203163952Y-95730298D01*
X203162426Y-95731024D01*
X203160871Y-95731679D01*
X203159289Y-95732260D01*
X203157683Y-95732765D01*
X203156054Y-95733191D01*
X203154404Y-95733535D01*
X202444982Y-95865553D01*
X202443311Y-95865896D01*
X202441638Y-95866315D01*
X202439963Y-95866810D01*
X202438290Y-95867377D01*
X202434960Y-95868720D01*
X202431669Y-95870323D01*
X202428437Y-95872168D01*
X202425286Y-95874236D01*
X202422238Y-95876506D01*
X202419313Y-95878959D01*
X202416533Y-95881576D01*
X202413919Y-95884337D01*
X202411492Y-95887224D01*
X202409274Y-95890215D01*
X202407285Y-95893293D01*
X202405546Y-95896438D01*
X202404080Y-95899630D01*
X202403455Y-95901237D01*
X202402907Y-95902849D01*
X202181432Y-96456097D01*
X202180061Y-96459244D01*
X202178919Y-96462576D01*
X202178002Y-96466066D01*
X202177309Y-96469684D01*
X202176836Y-96473401D01*
X202176583Y-96477189D01*
X202176546Y-96481018D01*
X202176724Y-96484860D01*
X202177114Y-96488685D01*
X202177713Y-96492466D01*
X202178521Y-96496173D01*
X202179533Y-96499778D01*
X202180748Y-96503251D01*
X202182165Y-96506564D01*
X202183779Y-96509688D01*
X202185590Y-96512594D01*
X202588591Y-97099820D01*
X202589513Y-97101236D01*
X202590364Y-97102694D01*
X202591143Y-97104192D01*
X202591851Y-97105725D01*
X202592487Y-97107291D01*
X202593054Y-97108886D01*
X202593550Y-97110508D01*
X202593976Y-97112153D01*
X202594332Y-97113817D01*
X202594619Y-97115498D01*
X202594985Y-97118897D01*
X202595077Y-97122323D01*
X202594897Y-97125751D01*
X202594447Y-97129154D01*
X202593730Y-97132507D01*
X202592749Y-97135784D01*
X202592159Y-97137386D01*
X202591504Y-97138959D01*
X202590784Y-97140500D01*
X202589999Y-97142006D01*
X202589150Y-97143474D01*
X202588237Y-97144900D01*
X202587259Y-97146281D01*
X202586218Y-97147614D01*
X202585114Y-97148896D01*
X202583947Y-97150123D01*
X202054589Y-97679392D01*
X202053370Y-97680551D01*
X202052096Y-97681648D01*
X202050770Y-97682682D01*
X202049395Y-97683653D01*
X202047976Y-97684560D01*
X202046514Y-97685404D01*
X202043477Y-97686899D01*
X202040310Y-97688136D01*
X202037041Y-97689113D01*
X202033694Y-97689826D01*
X202030295Y-97690274D01*
X202026871Y-97690455D01*
X202023448Y-97690366D01*
X202020051Y-97690005D01*
X202016707Y-97689369D01*
X202013441Y-97688456D01*
X202011846Y-97687896D01*
X202010280Y-97687265D01*
X202008747Y-97686564D01*
X202007249Y-97685792D01*
X202005791Y-97684949D01*
X202004375Y-97684035D01*
X201427501Y-97288112D01*
X201424602Y-97286307D01*
X201421496Y-97284723D01*
X201418212Y-97283362D01*
X201414779Y-97282225D01*
X201411225Y-97281312D01*
X201407577Y-97280623D01*
X201403865Y-97280160D01*
X201400116Y-97279922D01*
X201396359Y-97279910D01*
X201392621Y-97280125D01*
X201388932Y-97280567D01*
X201385320Y-97281237D01*
X201381812Y-97282135D01*
X201378437Y-97283263D01*
X201375223Y-97284619D01*
X201372199Y-97286205D01*
X201117807Y-97422028D01*
X201116286Y-97422752D01*
X201114752Y-97423388D01*
X201113208Y-97423937D01*
X201111657Y-97424401D01*
X201110102Y-97424781D01*
X201108544Y-97425076D01*
X201106986Y-97425290D01*
X201105432Y-97425421D01*
X201103884Y-97425473D01*
X201102345Y-97425444D01*
X201100816Y-97425337D01*
X201099302Y-97425152D01*
X201097804Y-97424890D01*
X201096325Y-97424553D01*
X201094868Y-97424141D01*
X201093435Y-97423655D01*
X201092030Y-97423096D01*
X201090654Y-97422465D01*
X201089310Y-97421763D01*
X201088002Y-97420992D01*
X201086731Y-97420151D01*
X201085501Y-97419243D01*
X201084314Y-97418267D01*
X201083172Y-97417226D01*
X201082078Y-97416119D01*
X201081036Y-97414948D01*
X201080047Y-97413714D01*
X201079114Y-97412418D01*
X201078240Y-97411061D01*
X201077428Y-97409644D01*
X201076680Y-97408167D01*
X201075999Y-97406632D01*
X200551508Y-96139183D01*
X200550901Y-96137607D01*
X200550375Y-96136006D01*
X200549928Y-96134384D01*
X200549560Y-96132745D01*
X200549269Y-96131090D01*
X200549054Y-96129424D01*
X200548914Y-96127749D01*
X200548849Y-96126068D01*
X200548857Y-96124384D01*
X200548937Y-96122700D01*
X200549088Y-96121020D01*
X200549310Y-96119345D01*
X200549600Y-96117680D01*
X200549959Y-96116027D01*
X200550385Y-96114389D01*
X200550877Y-96112770D01*
X200551434Y-96111172D01*
X200552055Y-96109598D01*
X200552739Y-96108051D01*
X200553485Y-96106535D01*
X200554292Y-96105052D01*
X200555159Y-96103605D01*
X200556085Y-96102198D01*
X200557069Y-96100833D01*
X200558110Y-96099513D01*
X200559207Y-96098242D01*
X200560358Y-96097022D01*
X200561564Y-96095857D01*
X200562822Y-96094749D01*
X200564132Y-96093702D01*
X200565493Y-96092717D01*
X200566904Y-96091800D01*
X200630568Y-96052823D01*
X200635151Y-96049904D01*
X200640043Y-96046573D01*
X200645153Y-96042902D01*
X200650389Y-96038964D01*
X200655657Y-96034830D01*
X200660867Y-96030574D01*
X200665926Y-96026269D01*
X200670740Y-96021986D01*
X200712885Y-95993139D01*
X200753106Y-95961818D01*
X200791295Y-95928132D01*
X200827340Y-95892191D01*
X200861132Y-95854103D01*
X200892562Y-95813978D01*
X200921520Y-95771925D01*
X200947895Y-95728052D01*
X200971579Y-95682470D01*
X200992461Y-95635287D01*
X201010432Y-95586613D01*
X201025381Y-95536556D01*
X201037200Y-95485225D01*
X201045777Y-95432731D01*
X201051005Y-95379181D01*
X201052771Y-95324686D01*
X201051694Y-95282086D01*
X201048498Y-95240045D01*
X201043233Y-95198616D01*
X201035954Y-95157850D01*
X201026710Y-95117799D01*
X201015556Y-95078516D01*
X201002541Y-95040052D01*
X200987720Y-95002460D01*
X200971142Y-94965791D01*
X200952862Y-94930097D01*
X200932930Y-94895430D01*
X200911398Y-94861843D01*
X200888320Y-94829388D01*
X200863745Y-94798116D01*
X200837728Y-94768079D01*
X200810319Y-94739330D01*
X200781571Y-94711920D01*
X200751535Y-94685902D01*
X200720265Y-94661327D01*
X200687811Y-94638247D01*
X200654225Y-94616715D01*
X200619561Y-94596783D01*
X200583869Y-94578502D01*
X200547202Y-94561924D01*
X200509612Y-94547102D01*
X200471151Y-94534088D01*
X200431870Y-94522933D01*
X200391823Y-94513690D01*
X200351060Y-94506410D01*
X200309634Y-94501146D01*
X200267597Y-94497949D01*
X200225001Y-94496872D01*
X200182405Y-94497949D01*
X200140367Y-94501146D01*
X200098941Y-94506410D01*
X200058177Y-94513690D01*
X200018129Y-94522933D01*
X199978847Y-94534088D01*
X199940384Y-94547102D01*
X199902793Y-94561924D01*
X199866124Y-94578502D01*
X199830431Y-94596783D01*
X199795764Y-94616715D01*
X199762177Y-94638247D01*
X199729721Y-94661326D01*
X199698448Y-94685901D01*
X199668411Y-94711920D01*
X199639660Y-94739329D01*
X199612250Y-94768079D01*
X199586230Y-94798115D01*
X199561654Y-94829388D01*
X199538573Y-94861843D01*
X199517040Y-94895430D01*
X199497106Y-94930096D01*
X199478824Y-94965790D01*
X199462245Y-95002459D01*
X199447422Y-95040052D01*
X199434406Y-95078516D01*
X199423250Y-95117799D01*
X199414006Y-95157850D01*
X199406725Y-95198616D01*
X199401461Y-95240045D01*
X199398264Y-95282086D01*
X199397186Y-95324686D01*
X199397630Y-95352045D01*
X199398954Y-95379181D01*
X199401142Y-95406081D01*
X199404182Y-95432731D01*
X199408060Y-95459117D01*
X199412762Y-95485225D01*
X199418274Y-95511043D01*
X199424582Y-95536556D01*
X199431674Y-95561750D01*
X199439535Y-95586613D01*
X199448150Y-95611130D01*
X199457508Y-95635287D01*
X199467593Y-95659072D01*
X199478393Y-95682470D01*
X199502079Y-95728052D01*
X199528456Y-95771925D01*
X199557415Y-95813978D01*
X199588845Y-95854103D01*
X199622636Y-95892191D01*
X199658679Y-95928132D01*
X199696863Y-95961818D01*
X199737079Y-95993139D01*
X199779216Y-96021986D01*
X199784058Y-96026269D01*
X199789134Y-96030575D01*
X199794354Y-96034830D01*
X199799628Y-96038964D01*
X199804868Y-96042902D01*
X199809982Y-96046573D01*
X199814882Y-96049904D01*
X199819477Y-96052823D01*
X199883141Y-96091800D01*
X199884560Y-96092718D01*
X199885928Y-96093702D01*
X199887244Y-96094749D01*
X199888508Y-96095857D01*
X199889719Y-96097023D01*
X199890875Y-96098243D01*
X199893019Y-96100833D01*
X199894934Y-96103606D01*
X199896610Y-96106536D01*
X199898041Y-96109599D01*
X199899218Y-96112771D01*
X199900133Y-96116028D01*
X199900778Y-96119346D01*
X199901146Y-96122701D01*
X199901228Y-96126068D01*
X199901016Y-96129424D01*
X199900797Y-96131091D01*
X199900502Y-96132745D01*
X199900130Y-96134385D01*
X199899679Y-96136006D01*
X199899149Y-96137607D01*
X199898538Y-96139183D01*
X199374003Y-97406587D01*
X199373321Y-97408121D01*
X199372573Y-97409598D01*
X199371760Y-97411016D01*
X199370885Y-97412374D01*
X199369952Y-97413671D01*
X199368962Y-97414906D01*
X199367918Y-97416077D01*
X199366823Y-97417185D01*
X199365680Y-97418228D01*
X199364492Y-97419205D01*
X199363260Y-97420115D01*
X199361988Y-97420958D01*
X199360678Y-97421731D01*
X199359333Y-97422434D01*
X199357956Y-97423066D01*
X199356550Y-97423626D01*
X199355116Y-97424113D01*
X199353658Y-97424526D01*
X199352179Y-97424865D01*
X199350680Y-97425127D01*
X199349166Y-97425312D01*
X199347637Y-97425420D01*
X199346098Y-97425448D01*
X199344550Y-97425396D01*
X199342997Y-97425264D01*
X199341441Y-97425049D01*
X199339885Y-97424751D01*
X199338331Y-97424370D01*
X199336783Y-97423903D01*
X199335242Y-97423350D01*
X199333712Y-97422711D01*
X199332194Y-97421983D01*
X199077802Y-97286160D01*
X199074786Y-97284576D01*
X199071577Y-97283223D01*
X199068206Y-97282099D01*
X199064701Y-97281204D01*
X199061089Y-97280537D01*
X199057400Y-97280097D01*
X199053662Y-97279885D01*
X199049903Y-97279899D01*
X199046151Y-97280138D01*
X199042436Y-97280602D01*
X199038786Y-97281290D01*
X199035229Y-97282201D01*
X199031793Y-97283336D01*
X199028507Y-97284692D01*
X199025400Y-97286269D01*
X199022500Y-97288067D01*
X198445671Y-97683990D01*
X198444251Y-97684904D01*
X198442789Y-97685747D01*
X198441289Y-97686519D01*
X198439753Y-97687221D01*
X198438185Y-97687852D01*
X198436588Y-97688413D01*
X198434965Y-97688904D01*
X198433320Y-97689325D01*
X198431655Y-97689677D01*
X198429974Y-97689961D01*
X198426576Y-97690322D01*
X198423153Y-97690411D01*
X198419729Y-97690230D01*
X198416330Y-97689781D01*
X198412983Y-97689067D01*
X198409712Y-97688091D01*
X198408114Y-97687505D01*
X198406544Y-97686854D01*
X198405007Y-97686138D01*
X198403504Y-97685358D01*
X198402041Y-97684515D01*
X198400619Y-97683607D01*
X198399242Y-97682636D01*
X198397913Y-97681602D01*
X198396635Y-97680506D01*
X198395413Y-97679346D01*
X197866056Y-97150077D01*
X197864892Y-97148850D01*
X197863792Y-97147569D01*
X197862755Y-97146236D01*
X197861781Y-97144855D01*
X197860870Y-97143429D01*
X197860024Y-97141961D01*
X197858524Y-97138914D01*
X197857283Y-97135739D01*
X197856304Y-97132462D01*
X197855588Y-97129109D01*
X197855139Y-97125706D01*
X197854959Y-97122278D01*
X197855049Y-97118852D01*
X197855413Y-97115453D01*
X197856052Y-97112108D01*
X197856969Y-97108841D01*
X197857532Y-97107246D01*
X197858166Y-97105680D01*
X197858870Y-97104146D01*
X197859646Y-97102649D01*
X197860492Y-97101191D01*
X197861410Y-97099775D01*
X198264368Y-96512548D01*
X198266194Y-96509643D01*
X198267820Y-96506519D01*
X198269246Y-96503206D01*
X198270469Y-96499733D01*
X198271486Y-96496128D01*
X198272297Y-96492421D01*
X198272898Y-96488640D01*
X198273289Y-96484814D01*
X198273466Y-96480972D01*
X198273428Y-96477143D01*
X198273173Y-96473356D01*
X198272699Y-96469639D01*
X198272004Y-96466021D01*
X198271085Y-96462531D01*
X198269942Y-96459198D01*
X198268571Y-96456052D01*
X198047095Y-95902804D01*
X198046549Y-95901192D01*
X198045927Y-95899584D01*
X198044463Y-95896393D01*
X198042723Y-95893248D01*
X198040731Y-95890170D01*
X198038507Y-95887178D01*
X198036073Y-95884292D01*
X198033452Y-95881530D01*
X198030664Y-95878913D01*
X198027731Y-95876460D01*
X198024676Y-95874190D01*
X198021519Y-95872122D01*
X198018282Y-95870277D01*
X198014988Y-95868674D01*
X198011658Y-95867331D01*
X198008313Y-95866269D01*
X198006643Y-95865850D01*
X198004976Y-95865507D01*
X197295553Y-95733489D01*
X197293899Y-95733145D01*
X197292267Y-95732719D01*
X197290657Y-95732214D01*
X197289073Y-95731633D01*
X197287516Y-95730978D01*
X197285988Y-95730252D01*
X197284492Y-95729457D01*
X197283029Y-95728595D01*
X197281601Y-95727670D01*
X197280211Y-95726684D01*
X197277551Y-95724539D01*
X197275067Y-95722179D01*
X197272773Y-95719625D01*
X197270688Y-95716897D01*
X197268827Y-95714016D01*
X197267207Y-95711002D01*
X197265845Y-95707875D01*
X197265265Y-95706275D01*
X197264756Y-95704655D01*
X197264320Y-95703017D01*
X197263958Y-95701363D01*
X197263674Y-95699697D01*
X197263468Y-95698019D01*
X197263342Y-95696334D01*
X197263300Y-95694644D01*
X197263256Y-94946112D01*
X197263298Y-94944422D01*
X197263423Y-94942738D01*
X197263628Y-94941062D01*
X197263912Y-94939398D01*
X197264273Y-94937747D01*
X197264708Y-94936112D01*
X197265216Y-94934496D01*
X197265794Y-94932900D01*
X197266441Y-94931328D01*
X197267154Y-94929781D01*
X197267931Y-94928263D01*
X197268771Y-94926775D01*
X197269671Y-94925321D01*
X197270630Y-94923902D01*
X197271644Y-94922521D01*
X197272713Y-94921181D01*
X197273833Y-94919884D01*
X197275004Y-94918633D01*
X197276223Y-94917429D01*
X197277488Y-94916276D01*
X197278796Y-94915175D01*
X197280147Y-94914131D01*
X197281537Y-94913143D01*
X197282966Y-94912217D01*
X197284430Y-94911352D01*
X197285928Y-94910553D01*
X197287457Y-94909822D01*
X197289016Y-94909161D01*
X197290603Y-94908572D01*
X197292215Y-94908059D01*
X197293851Y-94907623D01*
X197295508Y-94907267D01*
X198022761Y-94772019D01*
X198024432Y-94771669D01*
X198026110Y-94771244D01*
X198029473Y-94770175D01*
X198032830Y-94768833D01*
X198036156Y-94767234D01*
X198039432Y-94765399D01*
X198042634Y-94763347D01*
X198045741Y-94761095D01*
X198048731Y-94758663D01*
X198051582Y-94756070D01*
X198054272Y-94753334D01*
X198056780Y-94750475D01*
X198059083Y-94747512D01*
X198061159Y-94744462D01*
X198062987Y-94741346D01*
X198064544Y-94738181D01*
X198065214Y-94736587D01*
X198065809Y-94734988D01*
X198288789Y-94214877D01*
X198290225Y-94211764D01*
X198291432Y-94208464D01*
X198292411Y-94205006D01*
X198293164Y-94201419D01*
X198293694Y-94197731D01*
X198294002Y-94193971D01*
X198294090Y-94190167D01*
X198293960Y-94186347D01*
X198293614Y-94182540D01*
X198293053Y-94178775D01*
X198292280Y-94175080D01*
X198291297Y-94171483D01*
X198290104Y-94168012D01*
X198288705Y-94164697D01*
X198287101Y-94161565D01*
X198285294Y-94158646D01*
X197861498Y-93541026D01*
X197860576Y-93539610D01*
X197859726Y-93538152D01*
X197858948Y-93536656D01*
X197858241Y-93535123D01*
X197857605Y-93533558D01*
X197857040Y-93531964D01*
X197856545Y-93530343D01*
X197856120Y-93528700D01*
X197855765Y-93527037D01*
X197855480Y-93525358D01*
X197855117Y-93521963D01*
X197855027Y-93518540D01*
X197855210Y-93515117D01*
X197855661Y-93511718D01*
X197856379Y-93508369D01*
X197857361Y-93505095D01*
X197857950Y-93503495D01*
X197858604Y-93501924D01*
X197859323Y-93500384D01*
X197860107Y-93498879D01*
X197860954Y-93497413D01*
X197861866Y-93495988D01*
X197862840Y-93494608D01*
X197863878Y-93493275D01*
X197864979Y-93491994D01*
X197866143Y-93490767D01*
X198395456Y-92961499D01*
X198396679Y-92960332D01*
X198397956Y-92959227D01*
X198399285Y-92958187D01*
X198400662Y-92957209D01*
X198402084Y-92956296D01*
X198403548Y-92955447D01*
X198406587Y-92953942D01*
X198409755Y-92952697D01*
X198413026Y-92951715D01*
X198416373Y-92950998D01*
X198419772Y-92950549D01*
X198423196Y-92950369D01*
X198426620Y-92950460D01*
X198430017Y-92950827D01*
X198433363Y-92951469D01*
X198436631Y-92952391D01*
X198438229Y-92952957D01*
X198439797Y-92953594D01*
X198441332Y-92954302D01*
X198442833Y-92955080D01*
X198444294Y-92955931D01*
X198445714Y-92956853D01*
X199074130Y-93388126D01*
X199077029Y-93389943D01*
X199080149Y-93391562D01*
X199083460Y-93392979D01*
X199086933Y-93394194D01*
X199090540Y-93395203D01*
X199094250Y-93396006D01*
X199098034Y-93396599D01*
X199101864Y-93396981D01*
X199105710Y-93397150D01*
X199109543Y-93397104D01*
X199113333Y-93396840D01*
X199117052Y-93396358D01*
X199120670Y-93395654D01*
X199124158Y-93394728D01*
X199127487Y-93393576D01*
X199130627Y-93392197D01*
X199634855Y-93185808D01*
X199638064Y-93184591D01*
X199641242Y-93183081D01*
X199644371Y-93181297D01*
X199647431Y-93179263D01*
X199650404Y-93177000D01*
X199653271Y-93174530D01*
X199656014Y-93171875D01*
X199658613Y-93169056D01*
X199661051Y-93166096D01*
X199663309Y-93163016D01*
X199665367Y-93159839D01*
X199667207Y-93156585D01*
X199668812Y-93153277D01*
X199670161Y-93149937D01*
X199671236Y-93146586D01*
X199672019Y-93143247D01*
X199812001Y-92390998D01*
X199812349Y-92389345D01*
X199812778Y-92387712D01*
X199813285Y-92386103D01*
X199813868Y-92384518D01*
X199814524Y-92382961D01*
X199815250Y-92381434D01*
X199816045Y-92379937D01*
X199816906Y-92378474D01*
X199817829Y-92377046D01*
X199818814Y-92375656D01*
X199820955Y-92372997D01*
X199823308Y-92370512D01*
X199825854Y-92368219D01*
X199828573Y-92366133D01*
X199831445Y-92364272D01*
X199834449Y-92362652D01*
X199835994Y-92361938D01*
X199837565Y-92361290D01*
X199839160Y-92360710D01*
X199840775Y-92360201D01*
X199842408Y-92359765D01*
X199844056Y-92359404D01*
X199845718Y-92359119D01*
X199847391Y-92358913D01*
X199849071Y-92358788D01*
X199850757Y-92358745D01*
X200599335Y-92358745D01*
X200601025Y-92358788D01*
%TA.AperFunction,EtchedComponent*%
G36*
X200601025Y-92358788D02*
G01*
X200602709Y-92358913D01*
X200604385Y-92359119D01*
X200606050Y-92359404D01*
X200607702Y-92359765D01*
X200609338Y-92360201D01*
X200610955Y-92360710D01*
X200612552Y-92361290D01*
X200614125Y-92361938D01*
X200615673Y-92362652D01*
X200617192Y-92363431D01*
X200618681Y-92364272D01*
X200620136Y-92365174D01*
X200621555Y-92366133D01*
X200622936Y-92367149D01*
X200624276Y-92368219D01*
X200625573Y-92369340D01*
X200626824Y-92370512D01*
X200628027Y-92371731D01*
X200629179Y-92372997D01*
X200630278Y-92374305D01*
X200631321Y-92375656D01*
X200632306Y-92377046D01*
X200633230Y-92378474D01*
X200634091Y-92379937D01*
X200634886Y-92381434D01*
X200635613Y-92382961D01*
X200636269Y-92384518D01*
X200636852Y-92386103D01*
X200637359Y-92387712D01*
X200637788Y-92389345D01*
X200638136Y-92390998D01*
X200778163Y-93143248D01*
X200778516Y-93144915D01*
X200778946Y-93146587D01*
X200780023Y-93149938D01*
X200781374Y-93153278D01*
X200782980Y-93156586D01*
X200784823Y-93159840D01*
X200786884Y-93163017D01*
X200789144Y-93166097D01*
X200791584Y-93169057D01*
X200794186Y-93171876D01*
X200796930Y-93174531D01*
X200799797Y-93177001D01*
X200802769Y-93179264D01*
X200805826Y-93181298D01*
X200808951Y-93183081D01*
X200810533Y-93183872D01*
X200812124Y-93184592D01*
X200813722Y-93185239D01*
X200815326Y-93185809D01*
X201319509Y-93392198D01*
X201322642Y-93393577D01*
X201325964Y-93394728D01*
X201329446Y-93395655D01*
X201333059Y-93396358D01*
X201336775Y-93396841D01*
X201340563Y-93397104D01*
X201344394Y-93397150D01*
X201348239Y-93396981D01*
X201352070Y-93396599D01*
X201355856Y-93396006D01*
X201359569Y-93395204D01*
X201363179Y-93394195D01*
X201366657Y-93392980D01*
X201369974Y-93391563D01*
X201373100Y-93389944D01*
X201376007Y-93388127D01*
X202004467Y-92956854D01*
X202005883Y-92955932D01*
X202007340Y-92955081D01*
X202008837Y-92954303D01*
X202010368Y-92953595D01*
X202011932Y-92952958D01*
X202013526Y-92952392D01*
X202015145Y-92951896D01*
X202016786Y-92951470D01*
X202018448Y-92951114D01*
X202020125Y-92950828D01*
X202023516Y-92950461D01*
X202026934Y-92950370D01*
X202030354Y-92950550D01*
X202033749Y-92950999D01*
X202037093Y-92951716D01*
X202040363Y-92952698D01*
X202041961Y-92953287D01*
X202043531Y-92953942D01*
X202045069Y-92954662D01*
X202046573Y-92955447D01*
X202048038Y-92956296D01*
X202049462Y-92957210D01*
X202050841Y-92958187D01*
X202052173Y-92959228D01*
X202053454Y-92960332D01*
X202054681Y-92961500D01*
X202583949Y-93490768D01*
X202585116Y-93491995D01*
X202586219Y-93493276D01*
X202587259Y-93494608D01*
X202588234Y-93495989D01*
X202589146Y-93497414D01*
X202589993Y-93498880D01*
X202591492Y-93501924D01*
X202592731Y-93505096D01*
X202593707Y-93508369D01*
X202594419Y-93511718D01*
X202594864Y-93515117D01*
X202595040Y-93518541D01*
X202594946Y-93521963D01*
X202594580Y-93525358D01*
X202593939Y-93528700D01*
X202593022Y-93531964D01*
X202592459Y-93533559D01*
X202591827Y-93535124D01*
X202591124Y-93536656D01*
X202590351Y-93538153D01*
X202589508Y-93539611D01*
X202588593Y-93541027D01*
X202164843Y-94158647D01*
X202163019Y-94161566D01*
X202161401Y-94164698D01*
X202159989Y-94168013D01*
X202158787Y-94171483D01*
X202157795Y-94175080D01*
X202157016Y-94178776D01*
X202156450Y-94182541D01*
X202156101Y-94186348D01*
X202155970Y-94190167D01*
X202156059Y-94193972D01*
X202156368Y-94197732D01*
X202156901Y-94201420D01*
X202157659Y-94205007D01*
X202158644Y-94208465D01*
X202159857Y-94211764D01*
X202161300Y-94214878D01*
X202384237Y-94734989D01*
X202385510Y-94738182D01*
X202387075Y-94741347D01*
X202388910Y-94744463D01*
X202390994Y-94747513D01*
X202393303Y-94750477D01*
X202395815Y-94753336D01*
X202398509Y-94756071D01*
X202401363Y-94758664D01*
X202404354Y-94761096D01*
X202407461Y-94763348D01*
X202410660Y-94765400D01*
X202413931Y-94767235D01*
X202417251Y-94768833D01*
X202420598Y-94770176D01*
X202423949Y-94771244D01*
X202427283Y-94772019D01*
X203154581Y-94907268D01*
X203154580Y-94907268D01*
X203156229Y-94907624D01*
X203157858Y-94908060D01*
X203159464Y-94908574D01*
X203161045Y-94909162D01*
X203162599Y-94909823D01*
X203164123Y-94910555D01*
X203165617Y-94911354D01*
X203167078Y-94912218D01*
X203169890Y-94914133D01*
X203172545Y-94916279D01*
X203175026Y-94918637D01*
X203177315Y-94921188D01*
X203179396Y-94923911D01*
X203181253Y-94926787D01*
X203182868Y-94929796D01*
X203183580Y-94931345D01*
X203184226Y-94932920D01*
X203184803Y-94934518D01*
X203185309Y-94936137D01*
X203185742Y-94937775D01*
X203186101Y-94939429D01*
X203186382Y-94941096D01*
X203186585Y-94942775D01*
X203186706Y-94944463D01*
X203186745Y-94946157D01*
X203186656Y-95694690D01*
X203186614Y-95696380D01*
X203186488Y-95698066D01*
X203186281Y-95699743D01*
X203185996Y-95701409D01*
X203185633Y-95703063D01*
X203185196Y-95704701D01*
X203184686Y-95706321D01*
X203184105Y-95707921D01*
X203183456Y-95709497D01*
X203182740Y-95711048D01*
X203181960Y-95712570D01*
X203181117Y-95714062D01*
X203180215Y-95715520D01*
X203179254Y-95716943D01*
X203178237Y-95718327D01*
X203177166Y-95719671D01*
X203176044Y-95720971D01*
X203174871Y-95722225D01*
X203173651Y-95723430D01*
X203172386Y-95724585D01*
X203171077Y-95725686D01*
X203169726Y-95726730D01*
X203168336Y-95727717D01*
X203166909Y-95728642D01*
X203165447Y-95729503D01*
X203163952Y-95730298D01*
X203162426Y-95731024D01*
X203160871Y-95731679D01*
X203159289Y-95732260D01*
X203157683Y-95732765D01*
X203156054Y-95733191D01*
X203154404Y-95733535D01*
X202444982Y-95865553D01*
X202443311Y-95865896D01*
X202441638Y-95866315D01*
X202439963Y-95866810D01*
X202438290Y-95867377D01*
X202434960Y-95868720D01*
X202431669Y-95870323D01*
X202428437Y-95872168D01*
X202425286Y-95874236D01*
X202422238Y-95876506D01*
X202419313Y-95878959D01*
X202416533Y-95881576D01*
X202413919Y-95884337D01*
X202411492Y-95887224D01*
X202409274Y-95890215D01*
X202407285Y-95893293D01*
X202405546Y-95896438D01*
X202404080Y-95899630D01*
X202403455Y-95901237D01*
X202402907Y-95902849D01*
X202181432Y-96456097D01*
X202180061Y-96459244D01*
X202178919Y-96462576D01*
X202178002Y-96466066D01*
X202177309Y-96469684D01*
X202176836Y-96473401D01*
X202176583Y-96477189D01*
X202176546Y-96481018D01*
X202176724Y-96484860D01*
X202177114Y-96488685D01*
X202177713Y-96492466D01*
X202178521Y-96496173D01*
X202179533Y-96499778D01*
X202180748Y-96503251D01*
X202182165Y-96506564D01*
X202183779Y-96509688D01*
X202185590Y-96512594D01*
X202588591Y-97099820D01*
X202589513Y-97101236D01*
X202590364Y-97102694D01*
X202591143Y-97104192D01*
X202591851Y-97105725D01*
X202592487Y-97107291D01*
X202593054Y-97108886D01*
X202593550Y-97110508D01*
X202593976Y-97112153D01*
X202594332Y-97113817D01*
X202594619Y-97115498D01*
X202594985Y-97118897D01*
X202595077Y-97122323D01*
X202594897Y-97125751D01*
X202594447Y-97129154D01*
X202593730Y-97132507D01*
X202592749Y-97135784D01*
X202592159Y-97137386D01*
X202591504Y-97138959D01*
X202590784Y-97140500D01*
X202589999Y-97142006D01*
X202589150Y-97143474D01*
X202588237Y-97144900D01*
X202587259Y-97146281D01*
X202586218Y-97147614D01*
X202585114Y-97148896D01*
X202583947Y-97150123D01*
X202054589Y-97679392D01*
X202053370Y-97680551D01*
X202052096Y-97681648D01*
X202050770Y-97682682D01*
X202049395Y-97683653D01*
X202047976Y-97684560D01*
X202046514Y-97685404D01*
X202043477Y-97686899D01*
X202040310Y-97688136D01*
X202037041Y-97689113D01*
X202033694Y-97689826D01*
X202030295Y-97690274D01*
X202026871Y-97690455D01*
X202023448Y-97690366D01*
X202020051Y-97690005D01*
X202016707Y-97689369D01*
X202013441Y-97688456D01*
X202011846Y-97687896D01*
X202010280Y-97687265D01*
X202008747Y-97686564D01*
X202007249Y-97685792D01*
X202005791Y-97684949D01*
X202004375Y-97684035D01*
X201427501Y-97288112D01*
X201424602Y-97286307D01*
X201421496Y-97284723D01*
X201418212Y-97283362D01*
X201414779Y-97282225D01*
X201411225Y-97281312D01*
X201407577Y-97280623D01*
X201403865Y-97280160D01*
X201400116Y-97279922D01*
X201396359Y-97279910D01*
X201392621Y-97280125D01*
X201388932Y-97280567D01*
X201385320Y-97281237D01*
X201381812Y-97282135D01*
X201378437Y-97283263D01*
X201375223Y-97284619D01*
X201372199Y-97286205D01*
X201117807Y-97422028D01*
X201116286Y-97422752D01*
X201114752Y-97423388D01*
X201113208Y-97423937D01*
X201111657Y-97424401D01*
X201110102Y-97424781D01*
X201108544Y-97425076D01*
X201106986Y-97425290D01*
X201105432Y-97425421D01*
X201103884Y-97425473D01*
X201102345Y-97425444D01*
X201100816Y-97425337D01*
X201099302Y-97425152D01*
X201097804Y-97424890D01*
X201096325Y-97424553D01*
X201094868Y-97424141D01*
X201093435Y-97423655D01*
X201092030Y-97423096D01*
X201090654Y-97422465D01*
X201089310Y-97421763D01*
X201088002Y-97420992D01*
X201086731Y-97420151D01*
X201085501Y-97419243D01*
X201084314Y-97418267D01*
X201083172Y-97417226D01*
X201082078Y-97416119D01*
X201081036Y-97414948D01*
X201080047Y-97413714D01*
X201079114Y-97412418D01*
X201078240Y-97411061D01*
X201077428Y-97409644D01*
X201076680Y-97408167D01*
X201075999Y-97406632D01*
X200551508Y-96139183D01*
X200550901Y-96137607D01*
X200550375Y-96136006D01*
X200549928Y-96134384D01*
X200549560Y-96132745D01*
X200549269Y-96131090D01*
X200549054Y-96129424D01*
X200548914Y-96127749D01*
X200548849Y-96126068D01*
X200548857Y-96124384D01*
X200548937Y-96122700D01*
X200549088Y-96121020D01*
X200549310Y-96119345D01*
X200549600Y-96117680D01*
X200549959Y-96116027D01*
X200550385Y-96114389D01*
X200550877Y-96112770D01*
X200551434Y-96111172D01*
X200552055Y-96109598D01*
X200552739Y-96108051D01*
X200553485Y-96106535D01*
X200554292Y-96105052D01*
X200555159Y-96103605D01*
X200556085Y-96102198D01*
X200557069Y-96100833D01*
X200558110Y-96099513D01*
X200559207Y-96098242D01*
X200560358Y-96097022D01*
X200561564Y-96095857D01*
X200562822Y-96094749D01*
X200564132Y-96093702D01*
X200565493Y-96092717D01*
X200566904Y-96091800D01*
X200630568Y-96052823D01*
X200635151Y-96049904D01*
X200640043Y-96046573D01*
X200645153Y-96042902D01*
X200650389Y-96038964D01*
X200655657Y-96034830D01*
X200660867Y-96030574D01*
X200665926Y-96026269D01*
X200670740Y-96021986D01*
X200712885Y-95993139D01*
X200753106Y-95961818D01*
X200791295Y-95928132D01*
X200827340Y-95892191D01*
X200861132Y-95854103D01*
X200892562Y-95813978D01*
X200921520Y-95771925D01*
X200947895Y-95728052D01*
X200971579Y-95682470D01*
X200992461Y-95635287D01*
X201010432Y-95586613D01*
X201025381Y-95536556D01*
X201037200Y-95485225D01*
X201045777Y-95432731D01*
X201051005Y-95379181D01*
X201052771Y-95324686D01*
X201051694Y-95282086D01*
X201048498Y-95240045D01*
X201043233Y-95198616D01*
X201035954Y-95157850D01*
X201026710Y-95117799D01*
X201015556Y-95078516D01*
X201002541Y-95040052D01*
X200987720Y-95002460D01*
X200971142Y-94965791D01*
X200952862Y-94930097D01*
X200932930Y-94895430D01*
X200911398Y-94861843D01*
X200888320Y-94829388D01*
X200863745Y-94798116D01*
X200837728Y-94768079D01*
X200810319Y-94739330D01*
X200781571Y-94711920D01*
X200751535Y-94685902D01*
X200720265Y-94661327D01*
X200687811Y-94638247D01*
X200654225Y-94616715D01*
X200619561Y-94596783D01*
X200583869Y-94578502D01*
X200547202Y-94561924D01*
X200509612Y-94547102D01*
X200471151Y-94534088D01*
X200431870Y-94522933D01*
X200391823Y-94513690D01*
X200351060Y-94506410D01*
X200309634Y-94501146D01*
X200267597Y-94497949D01*
X200225001Y-94496872D01*
X200182405Y-94497949D01*
X200140367Y-94501146D01*
X200098941Y-94506410D01*
X200058177Y-94513690D01*
X200018129Y-94522933D01*
X199978847Y-94534088D01*
X199940384Y-94547102D01*
X199902793Y-94561924D01*
X199866124Y-94578502D01*
X199830431Y-94596783D01*
X199795764Y-94616715D01*
X199762177Y-94638247D01*
X199729721Y-94661326D01*
X199698448Y-94685901D01*
X199668411Y-94711920D01*
X199639660Y-94739329D01*
X199612250Y-94768079D01*
X199586230Y-94798115D01*
X199561654Y-94829388D01*
X199538573Y-94861843D01*
X199517040Y-94895430D01*
X199497106Y-94930096D01*
X199478824Y-94965790D01*
X199462245Y-95002459D01*
X199447422Y-95040052D01*
X199434406Y-95078516D01*
X199423250Y-95117799D01*
X199414006Y-95157850D01*
X199406725Y-95198616D01*
X199401461Y-95240045D01*
X199398264Y-95282086D01*
X199397186Y-95324686D01*
X199397630Y-95352045D01*
X199398954Y-95379181D01*
X199401142Y-95406081D01*
X199404182Y-95432731D01*
X199408060Y-95459117D01*
X199412762Y-95485225D01*
X199418274Y-95511043D01*
X199424582Y-95536556D01*
X199431674Y-95561750D01*
X199439535Y-95586613D01*
X199448150Y-95611130D01*
X199457508Y-95635287D01*
X199467593Y-95659072D01*
X199478393Y-95682470D01*
X199502079Y-95728052D01*
X199528456Y-95771925D01*
X199557415Y-95813978D01*
X199588845Y-95854103D01*
X199622636Y-95892191D01*
X199658679Y-95928132D01*
X199696863Y-95961818D01*
X199737079Y-95993139D01*
X199779216Y-96021986D01*
X199784058Y-96026269D01*
X199789134Y-96030575D01*
X199794354Y-96034830D01*
X199799628Y-96038964D01*
X199804868Y-96042902D01*
X199809982Y-96046573D01*
X199814882Y-96049904D01*
X199819477Y-96052823D01*
X199883141Y-96091800D01*
X199884560Y-96092718D01*
X199885928Y-96093702D01*
X199887244Y-96094749D01*
X199888508Y-96095857D01*
X199889719Y-96097023D01*
X199890875Y-96098243D01*
X199893019Y-96100833D01*
X199894934Y-96103606D01*
X199896610Y-96106536D01*
X199898041Y-96109599D01*
X199899218Y-96112771D01*
X199900133Y-96116028D01*
X199900778Y-96119346D01*
X199901146Y-96122701D01*
X199901228Y-96126068D01*
X199901016Y-96129424D01*
X199900797Y-96131091D01*
X199900502Y-96132745D01*
X199900130Y-96134385D01*
X199899679Y-96136006D01*
X199899149Y-96137607D01*
X199898538Y-96139183D01*
X199374003Y-97406587D01*
X199373321Y-97408121D01*
X199372573Y-97409598D01*
X199371760Y-97411016D01*
X199370885Y-97412374D01*
X199369952Y-97413671D01*
X199368962Y-97414906D01*
X199367918Y-97416077D01*
X199366823Y-97417185D01*
X199365680Y-97418228D01*
X199364492Y-97419205D01*
X199363260Y-97420115D01*
X199361988Y-97420958D01*
X199360678Y-97421731D01*
X199359333Y-97422434D01*
X199357956Y-97423066D01*
X199356550Y-97423626D01*
X199355116Y-97424113D01*
X199353658Y-97424526D01*
X199352179Y-97424865D01*
X199350680Y-97425127D01*
X199349166Y-97425312D01*
X199347637Y-97425420D01*
X199346098Y-97425448D01*
X199344550Y-97425396D01*
X199342997Y-97425264D01*
X199341441Y-97425049D01*
X199339885Y-97424751D01*
X199338331Y-97424370D01*
X199336783Y-97423903D01*
X199335242Y-97423350D01*
X199333712Y-97422711D01*
X199332194Y-97421983D01*
X199077802Y-97286160D01*
X199074786Y-97284576D01*
X199071577Y-97283223D01*
X199068206Y-97282099D01*
X199064701Y-97281204D01*
X199061089Y-97280537D01*
X199057400Y-97280097D01*
X199053662Y-97279885D01*
X199049903Y-97279899D01*
X199046151Y-97280138D01*
X199042436Y-97280602D01*
X199038786Y-97281290D01*
X199035229Y-97282201D01*
X199031793Y-97283336D01*
X199028507Y-97284692D01*
X199025400Y-97286269D01*
X199022500Y-97288067D01*
X198445671Y-97683990D01*
X198444251Y-97684904D01*
X198442789Y-97685747D01*
X198441289Y-97686519D01*
X198439753Y-97687221D01*
X198438185Y-97687852D01*
X198436588Y-97688413D01*
X198434965Y-97688904D01*
X198433320Y-97689325D01*
X198431655Y-97689677D01*
X198429974Y-97689961D01*
X198426576Y-97690322D01*
X198423153Y-97690411D01*
X198419729Y-97690230D01*
X198416330Y-97689781D01*
X198412983Y-97689067D01*
X198409712Y-97688091D01*
X198408114Y-97687505D01*
X198406544Y-97686854D01*
X198405007Y-97686138D01*
X198403504Y-97685358D01*
X198402041Y-97684515D01*
X198400619Y-97683607D01*
X198399242Y-97682636D01*
X198397913Y-97681602D01*
X198396635Y-97680506D01*
X198395413Y-97679346D01*
X197866056Y-97150077D01*
X197864892Y-97148850D01*
X197863792Y-97147569D01*
X197862755Y-97146236D01*
X197861781Y-97144855D01*
X197860870Y-97143429D01*
X197860024Y-97141961D01*
X197858524Y-97138914D01*
X197857283Y-97135739D01*
X197856304Y-97132462D01*
X197855588Y-97129109D01*
X197855139Y-97125706D01*
X197854959Y-97122278D01*
X197855049Y-97118852D01*
X197855413Y-97115453D01*
X197856052Y-97112108D01*
X197856969Y-97108841D01*
X197857532Y-97107246D01*
X197858166Y-97105680D01*
X197858870Y-97104146D01*
X197859646Y-97102649D01*
X197860492Y-97101191D01*
X197861410Y-97099775D01*
X198264368Y-96512548D01*
X198266194Y-96509643D01*
X198267820Y-96506519D01*
X198269246Y-96503206D01*
X198270469Y-96499733D01*
X198271486Y-96496128D01*
X198272297Y-96492421D01*
X198272898Y-96488640D01*
X198273289Y-96484814D01*
X198273466Y-96480972D01*
X198273428Y-96477143D01*
X198273173Y-96473356D01*
X198272699Y-96469639D01*
X198272004Y-96466021D01*
X198271085Y-96462531D01*
X198269942Y-96459198D01*
X198268571Y-96456052D01*
X198047095Y-95902804D01*
X198046549Y-95901192D01*
X198045927Y-95899584D01*
X198044463Y-95896393D01*
X198042723Y-95893248D01*
X198040731Y-95890170D01*
X198038507Y-95887178D01*
X198036073Y-95884292D01*
X198033452Y-95881530D01*
X198030664Y-95878913D01*
X198027731Y-95876460D01*
X198024676Y-95874190D01*
X198021519Y-95872122D01*
X198018282Y-95870277D01*
X198014988Y-95868674D01*
X198011658Y-95867331D01*
X198008313Y-95866269D01*
X198006643Y-95865850D01*
X198004976Y-95865507D01*
X197295553Y-95733489D01*
X197293899Y-95733145D01*
X197292267Y-95732719D01*
X197290657Y-95732214D01*
X197289073Y-95731633D01*
X197287516Y-95730978D01*
X197285988Y-95730252D01*
X197284492Y-95729457D01*
X197283029Y-95728595D01*
X197281601Y-95727670D01*
X197280211Y-95726684D01*
X197277551Y-95724539D01*
X197275067Y-95722179D01*
X197272773Y-95719625D01*
X197270688Y-95716897D01*
X197268827Y-95714016D01*
X197267207Y-95711002D01*
X197265845Y-95707875D01*
X197265265Y-95706275D01*
X197264756Y-95704655D01*
X197264320Y-95703017D01*
X197263958Y-95701363D01*
X197263674Y-95699697D01*
X197263468Y-95698019D01*
X197263342Y-95696334D01*
X197263300Y-95694644D01*
X197263256Y-94946112D01*
X197263298Y-94944422D01*
X197263423Y-94942738D01*
X197263628Y-94941062D01*
X197263912Y-94939398D01*
X197264273Y-94937747D01*
X197264708Y-94936112D01*
X197265216Y-94934496D01*
X197265794Y-94932900D01*
X197266441Y-94931328D01*
X197267154Y-94929781D01*
X197267931Y-94928263D01*
X197268771Y-94926775D01*
X197269671Y-94925321D01*
X197270630Y-94923902D01*
X197271644Y-94922521D01*
X197272713Y-94921181D01*
X197273833Y-94919884D01*
X197275004Y-94918633D01*
X197276223Y-94917429D01*
X197277488Y-94916276D01*
X197278796Y-94915175D01*
X197280147Y-94914131D01*
X197281537Y-94913143D01*
X197282966Y-94912217D01*
X197284430Y-94911352D01*
X197285928Y-94910553D01*
X197287457Y-94909822D01*
X197289016Y-94909161D01*
X197290603Y-94908572D01*
X197292215Y-94908059D01*
X197293851Y-94907623D01*
X197295508Y-94907267D01*
X198022761Y-94772019D01*
X198024432Y-94771669D01*
X198026110Y-94771244D01*
X198029473Y-94770175D01*
X198032830Y-94768833D01*
X198036156Y-94767234D01*
X198039432Y-94765399D01*
X198042634Y-94763347D01*
X198045741Y-94761095D01*
X198048731Y-94758663D01*
X198051582Y-94756070D01*
X198054272Y-94753334D01*
X198056780Y-94750475D01*
X198059083Y-94747512D01*
X198061159Y-94744462D01*
X198062987Y-94741346D01*
X198064544Y-94738181D01*
X198065214Y-94736587D01*
X198065809Y-94734988D01*
X198288789Y-94214877D01*
X198290225Y-94211764D01*
X198291432Y-94208464D01*
X198292411Y-94205006D01*
X198293164Y-94201419D01*
X198293694Y-94197731D01*
X198294002Y-94193971D01*
X198294090Y-94190167D01*
X198293960Y-94186347D01*
X198293614Y-94182540D01*
X198293053Y-94178775D01*
X198292280Y-94175080D01*
X198291297Y-94171483D01*
X198290104Y-94168012D01*
X198288705Y-94164697D01*
X198287101Y-94161565D01*
X198285294Y-94158646D01*
X197861498Y-93541026D01*
X197860576Y-93539610D01*
X197859726Y-93538152D01*
X197858948Y-93536656D01*
X197858241Y-93535123D01*
X197857605Y-93533558D01*
X197857040Y-93531964D01*
X197856545Y-93530343D01*
X197856120Y-93528700D01*
X197855765Y-93527037D01*
X197855480Y-93525358D01*
X197855117Y-93521963D01*
X197855027Y-93518540D01*
X197855210Y-93515117D01*
X197855661Y-93511718D01*
X197856379Y-93508369D01*
X197857361Y-93505095D01*
X197857950Y-93503495D01*
X197858604Y-93501924D01*
X197859323Y-93500384D01*
X197860107Y-93498879D01*
X197860954Y-93497413D01*
X197861866Y-93495988D01*
X197862840Y-93494608D01*
X197863878Y-93493275D01*
X197864979Y-93491994D01*
X197866143Y-93490767D01*
X198395456Y-92961499D01*
X198396679Y-92960332D01*
X198397956Y-92959227D01*
X198399285Y-92958187D01*
X198400662Y-92957209D01*
X198402084Y-92956296D01*
X198403548Y-92955447D01*
X198406587Y-92953942D01*
X198409755Y-92952697D01*
X198413026Y-92951715D01*
X198416373Y-92950998D01*
X198419772Y-92950549D01*
X198423196Y-92950369D01*
X198426620Y-92950460D01*
X198430017Y-92950827D01*
X198433363Y-92951469D01*
X198436631Y-92952391D01*
X198438229Y-92952957D01*
X198439797Y-92953594D01*
X198441332Y-92954302D01*
X198442833Y-92955080D01*
X198444294Y-92955931D01*
X198445714Y-92956853D01*
X199074130Y-93388126D01*
X199077029Y-93389943D01*
X199080149Y-93391562D01*
X199083460Y-93392979D01*
X199086933Y-93394194D01*
X199090540Y-93395203D01*
X199094250Y-93396006D01*
X199098034Y-93396599D01*
X199101864Y-93396981D01*
X199105710Y-93397150D01*
X199109543Y-93397104D01*
X199113333Y-93396840D01*
X199117052Y-93396358D01*
X199120670Y-93395654D01*
X199124158Y-93394728D01*
X199127487Y-93393576D01*
X199130627Y-93392197D01*
X199634855Y-93185808D01*
X199638064Y-93184591D01*
X199641242Y-93183081D01*
X199644371Y-93181297D01*
X199647431Y-93179263D01*
X199650404Y-93177000D01*
X199653271Y-93174530D01*
X199656014Y-93171875D01*
X199658613Y-93169056D01*
X199661051Y-93166096D01*
X199663309Y-93163016D01*
X199665367Y-93159839D01*
X199667207Y-93156585D01*
X199668812Y-93153277D01*
X199670161Y-93149937D01*
X199671236Y-93146586D01*
X199672019Y-93143247D01*
X199812001Y-92390998D01*
X199812349Y-92389345D01*
X199812778Y-92387712D01*
X199813285Y-92386103D01*
X199813868Y-92384518D01*
X199814524Y-92382961D01*
X199815250Y-92381434D01*
X199816045Y-92379937D01*
X199816906Y-92378474D01*
X199817829Y-92377046D01*
X199818814Y-92375656D01*
X199820955Y-92372997D01*
X199823308Y-92370512D01*
X199825854Y-92368219D01*
X199828573Y-92366133D01*
X199831445Y-92364272D01*
X199834449Y-92362652D01*
X199835994Y-92361938D01*
X199837565Y-92361290D01*
X199839160Y-92360710D01*
X199840775Y-92360201D01*
X199842408Y-92359765D01*
X199844056Y-92359404D01*
X199845718Y-92359119D01*
X199847391Y-92358913D01*
X199849071Y-92358788D01*
X199850757Y-92358745D01*
X200599335Y-92358745D01*
X200601025Y-92358788D01*
G37*
%TD.AperFunction*%
%TD*%
D13*
%TO.N,*%
X141825000Y-86470000D03*
X88485000Y-134730000D03*
X185005000Y-89010000D03*
X174845000Y-63610000D03*
X129125000Y-53450000D03*
X85945000Y-76310000D03*
X98645000Y-53450000D03*
X96105000Y-109330000D03*
X98645000Y-78850000D03*
X124045000Y-129650000D03*
X91025000Y-91550000D03*
X126585000Y-61070000D03*
X85945000Y-109330000D03*
X98645000Y-137270000D03*
X182465000Y-106790000D03*
X192625000Y-76310000D03*
X179925000Y-104250000D03*
X159605000Y-114410000D03*
X124045000Y-116950000D03*
X96105000Y-119490000D03*
X149445000Y-58530000D03*
X139285000Y-104250000D03*
X136745000Y-104250000D03*
X162145000Y-116950000D03*
X174845000Y-78850000D03*
X162145000Y-99170000D03*
X78325000Y-104250000D03*
X131665000Y-119490000D03*
X80865000Y-114410000D03*
X157065000Y-137270000D03*
X91025000Y-61070000D03*
X85945000Y-114410000D03*
X93565000Y-106790000D03*
X108805000Y-127110000D03*
X190085000Y-81390000D03*
X118965000Y-81390000D03*
X159605000Y-81390000D03*
X83405000Y-116950000D03*
X96105000Y-81390000D03*
X185005000Y-109330000D03*
X131665000Y-63610000D03*
X190085000Y-91550000D03*
X101185000Y-119490000D03*
X85945000Y-116950000D03*
X98645000Y-68690000D03*
X101185000Y-116950000D03*
X85945000Y-129650000D03*
X157065000Y-114410000D03*
X108805000Y-89010000D03*
X167225000Y-76310000D03*
X154525000Y-66150000D03*
X177385000Y-78850000D03*
X182465000Y-137270000D03*
X174845000Y-99170000D03*
X96105000Y-63610000D03*
X197705000Y-71230000D03*
X192625000Y-68690000D03*
X101185000Y-55990000D03*
X98645000Y-83930000D03*
X185005000Y-124570000D03*
X179925000Y-76310000D03*
X103725000Y-104250000D03*
X131665000Y-104250000D03*
X187545000Y-122030000D03*
X113885000Y-116950000D03*
X80865000Y-111870000D03*
X157065000Y-89010000D03*
X144365000Y-73770000D03*
X182465000Y-78850000D03*
X129125000Y-129650000D03*
X111345000Y-55990000D03*
X174845000Y-73770000D03*
X124045000Y-124570000D03*
X78325000Y-58530000D03*
X195165000Y-109330000D03*
X162145000Y-71230000D03*
X98645000Y-122030000D03*
X177385000Y-91550000D03*
X129125000Y-137270000D03*
X88485000Y-137270000D03*
X101185000Y-91550000D03*
X121505000Y-63610000D03*
X93565000Y-109330000D03*
X88485000Y-104250000D03*
X164685000Y-129650000D03*
X96105000Y-58530000D03*
X88485000Y-101710000D03*
X101185000Y-61070000D03*
X106265000Y-91550000D03*
X121505000Y-124570000D03*
X93565000Y-68690000D03*
X139285000Y-61070000D03*
X108805000Y-104250000D03*
X116425000Y-76310000D03*
X197705000Y-58530000D03*
X124045000Y-134730000D03*
X151985000Y-132190000D03*
X154525000Y-106790000D03*
X154525000Y-132190000D03*
X136745000Y-73770000D03*
X126585000Y-127110000D03*
X179925000Y-129650000D03*
X167225000Y-63610000D03*
X190085000Y-63610000D03*
X144365000Y-58530000D03*
X151985000Y-109330000D03*
X118965000Y-134730000D03*
X172305000Y-53450000D03*
X80865000Y-134730000D03*
X91025000Y-116950000D03*
X78325000Y-116950000D03*
X192625000Y-83930000D03*
X167225000Y-53450000D03*
X113885000Y-76310000D03*
X134205000Y-137270000D03*
X88485000Y-129650000D03*
X179925000Y-73770000D03*
X146905000Y-111870000D03*
X157065000Y-104250000D03*
X192625000Y-66150000D03*
X129125000Y-132190000D03*
X149445000Y-81390000D03*
X157065000Y-116950000D03*
X151985000Y-63610000D03*
X197705000Y-86470000D03*
X141825000Y-122030000D03*
X139285000Y-91550000D03*
X141825000Y-109330000D03*
X80865000Y-78850000D03*
X101185000Y-109330000D03*
X154525000Y-91550000D03*
X139285000Y-116950000D03*
X113885000Y-73770000D03*
X139285000Y-109330000D03*
X106265000Y-127110000D03*
X146905000Y-81390000D03*
X154525000Y-134730000D03*
X136745000Y-129650000D03*
X88485000Y-58530000D03*
X80865000Y-101710000D03*
X169765000Y-78850000D03*
X108805000Y-129650000D03*
X179925000Y-116950000D03*
X96105000Y-111870000D03*
X146905000Y-129650000D03*
X146905000Y-134730000D03*
X146905000Y-68690000D03*
X126585000Y-122030000D03*
X144365000Y-111870000D03*
X116425000Y-137270000D03*
X174845000Y-104250000D03*
X144365000Y-83930000D03*
X144365000Y-119490000D03*
X103725000Y-63610000D03*
X195165000Y-132190000D03*
X113885000Y-78850000D03*
X101185000Y-86470000D03*
X162145000Y-134730000D03*
X80865000Y-127110000D03*
X111345000Y-53450000D03*
X85945000Y-66150000D03*
X144365000Y-55990000D03*
X179925000Y-66150000D03*
X167225000Y-101710000D03*
X159605000Y-63610000D03*
X185005000Y-104250000D03*
X157065000Y-66150000D03*
X139285000Y-101710000D03*
X149445000Y-55990000D03*
X162145000Y-127110000D03*
X103725000Y-114410000D03*
X85945000Y-83930000D03*
X134205000Y-129650000D03*
X182465000Y-66150000D03*
X98645000Y-66150000D03*
X131665000Y-83930000D03*
X106265000Y-99170000D03*
X195165000Y-91550000D03*
X177385000Y-76310000D03*
X164685000Y-71230000D03*
X103725000Y-124570000D03*
X144365000Y-137270000D03*
X111345000Y-89010000D03*
X195165000Y-137270000D03*
X185005000Y-127110000D03*
X185005000Y-116950000D03*
X139285000Y-127110000D03*
X187545000Y-104250000D03*
X98645000Y-71230000D03*
X151985000Y-106790000D03*
X159605000Y-89010000D03*
X83405000Y-104250000D03*
X124045000Y-55990000D03*
X167225000Y-109330000D03*
X111345000Y-61070000D03*
X126585000Y-91550000D03*
X116425000Y-73770000D03*
X83405000Y-129650000D03*
X164685000Y-91550000D03*
X126585000Y-129650000D03*
X124045000Y-119490000D03*
X83405000Y-119490000D03*
X195165000Y-66150000D03*
X172305000Y-61070000D03*
X179925000Y-58530000D03*
X101185000Y-106790000D03*
X111345000Y-78850000D03*
X149445000Y-132190000D03*
X190085000Y-111870000D03*
X187545000Y-71230000D03*
X154525000Y-63610000D03*
X159605000Y-76310000D03*
X149445000Y-89010000D03*
X149445000Y-124570000D03*
X174845000Y-71230000D03*
X96105000Y-124570000D03*
X113885000Y-134730000D03*
X103725000Y-109330000D03*
X177385000Y-63610000D03*
X126585000Y-71230000D03*
X78325000Y-81390000D03*
X88485000Y-83930000D03*
X85945000Y-68690000D03*
X187545000Y-53450000D03*
X108805000Y-83930000D03*
X164685000Y-55990000D03*
X108805000Y-137270000D03*
X88485000Y-127110000D03*
X197705000Y-119490000D03*
X118965000Y-66150000D03*
X146905000Y-109330000D03*
X192625000Y-91550000D03*
X91025000Y-78850000D03*
X101185000Y-89010000D03*
X108805000Y-55990000D03*
X149445000Y-106790000D03*
X131665000Y-68690000D03*
X98645000Y-114410000D03*
X141825000Y-99170000D03*
X144365000Y-106790000D03*
X177385000Y-89010000D03*
X157065000Y-53450000D03*
X136745000Y-122030000D03*
X159605000Y-61070000D03*
X195165000Y-89010000D03*
X139285000Y-134730000D03*
X154525000Y-73770000D03*
X179925000Y-137270000D03*
X169765000Y-86470000D03*
X93565000Y-116950000D03*
X121505000Y-91550000D03*
X80865000Y-58530000D03*
X162145000Y-122030000D03*
X134205000Y-73770000D03*
X182465000Y-127110000D03*
X172305000Y-104250000D03*
X192625000Y-78850000D03*
X187545000Y-86470000D03*
X187545000Y-73770000D03*
X164685000Y-73770000D03*
X164685000Y-134730000D03*
X88485000Y-63610000D03*
X174845000Y-134730000D03*
X172305000Y-76310000D03*
X116425000Y-99170000D03*
X106265000Y-119490000D03*
X190085000Y-134730000D03*
X103725000Y-132190000D03*
X126585000Y-101710000D03*
X151985000Y-114410000D03*
X149445000Y-91550000D03*
X157065000Y-132190000D03*
X118965000Y-124570000D03*
X85945000Y-111870000D03*
X93565000Y-134730000D03*
X149445000Y-129650000D03*
X103725000Y-137270000D03*
X159605000Y-86470000D03*
X108805000Y-58530000D03*
X159605000Y-124570000D03*
X169765000Y-68690000D03*
X96105000Y-76310000D03*
X98645000Y-104250000D03*
X190085000Y-101710000D03*
X167225000Y-68690000D03*
X162145000Y-104250000D03*
X118965000Y-116950000D03*
X126585000Y-66150000D03*
X124045000Y-114410000D03*
X167225000Y-61070000D03*
X195165000Y-134730000D03*
X121505000Y-66150000D03*
X131665000Y-99170000D03*
X197705000Y-124570000D03*
X187545000Y-78850000D03*
X174845000Y-61070000D03*
X80865000Y-86470000D03*
X134205000Y-111870000D03*
X164685000Y-61070000D03*
X93565000Y-86470000D03*
X101185000Y-132190000D03*
X111345000Y-124570000D03*
X134205000Y-101710000D03*
X96105000Y-134730000D03*
X187545000Y-119490000D03*
X172305000Y-63610000D03*
X192625000Y-71230000D03*
X144365000Y-104250000D03*
X124045000Y-68690000D03*
X149445000Y-86470000D03*
X83405000Y-63610000D03*
X169765000Y-106790000D03*
X88485000Y-89010000D03*
X101185000Y-73770000D03*
X111345000Y-58530000D03*
X139285000Y-73770000D03*
X167225000Y-91550000D03*
X154525000Y-61070000D03*
X154525000Y-71230000D03*
X172305000Y-106790000D03*
X177385000Y-106790000D03*
X121505000Y-129650000D03*
X169765000Y-58530000D03*
X96105000Y-73770000D03*
X78325000Y-134730000D03*
X134205000Y-127110000D03*
X139285000Y-71230000D03*
X121505000Y-137270000D03*
X185005000Y-68690000D03*
X146905000Y-78850000D03*
X149445000Y-116950000D03*
X118965000Y-68690000D03*
X101185000Y-78850000D03*
X182465000Y-114410000D03*
X157065000Y-127110000D03*
X185005000Y-119490000D03*
X126585000Y-114410000D03*
X146905000Y-73770000D03*
X144365000Y-78850000D03*
X195165000Y-122030000D03*
X116425000Y-134730000D03*
X162145000Y-106790000D03*
X83405000Y-55990000D03*
X96105000Y-66150000D03*
X195165000Y-76310000D03*
X182465000Y-134730000D03*
X174845000Y-109330000D03*
X185005000Y-101710000D03*
X118965000Y-106790000D03*
X131665000Y-55990000D03*
X162145000Y-76310000D03*
X91025000Y-68690000D03*
X187545000Y-63610000D03*
X169765000Y-116950000D03*
X96105000Y-127110000D03*
X164685000Y-109330000D03*
X108805000Y-91550000D03*
X80865000Y-53450000D03*
X187545000Y-132190000D03*
X164685000Y-116950000D03*
X164685000Y-58530000D03*
X182465000Y-55990000D03*
X121505000Y-86470000D03*
X144365000Y-53450000D03*
X190085000Y-66150000D03*
X111345000Y-86470000D03*
X116425000Y-114410000D03*
X131665000Y-122030000D03*
X141825000Y-129650000D03*
X93565000Y-73770000D03*
X111345000Y-109330000D03*
X139285000Y-81390000D03*
X139285000Y-68690000D03*
X111345000Y-68690000D03*
X185005000Y-122030000D03*
X169765000Y-127110000D03*
X185005000Y-76310000D03*
X162145000Y-63610000D03*
X167225000Y-111870000D03*
X118965000Y-129650000D03*
X103725000Y-76310000D03*
X182465000Y-61070000D03*
X154525000Y-104250000D03*
X136745000Y-76310000D03*
X187545000Y-114410000D03*
X174845000Y-101710000D03*
X118965000Y-99170000D03*
X164685000Y-76310000D03*
X162145000Y-101710000D03*
X157065000Y-63610000D03*
X91025000Y-104250000D03*
X197705000Y-114410000D03*
X101185000Y-99170000D03*
X80865000Y-137270000D03*
X103725000Y-91550000D03*
X139285000Y-99170000D03*
X91025000Y-137270000D03*
X111345000Y-99170000D03*
X124045000Y-71230000D03*
X80865000Y-109330000D03*
X80865000Y-116950000D03*
X164685000Y-83930000D03*
X192625000Y-116950000D03*
X124045000Y-81390000D03*
X195165000Y-116950000D03*
X124045000Y-58530000D03*
X103725000Y-101710000D03*
X91025000Y-119490000D03*
X164685000Y-68690000D03*
X169765000Y-134730000D03*
X159605000Y-111870000D03*
X83405000Y-122030000D03*
X144365000Y-132190000D03*
X182465000Y-86470000D03*
X144365000Y-91550000D03*
X113885000Y-109330000D03*
X103725000Y-58530000D03*
X101185000Y-104250000D03*
X159605000Y-106790000D03*
X139285000Y-119490000D03*
X124045000Y-78850000D03*
X151985000Y-134730000D03*
X169765000Y-89010000D03*
X136745000Y-111870000D03*
X116425000Y-55990000D03*
X129125000Y-63610000D03*
X126585000Y-68690000D03*
X101185000Y-129650000D03*
X179925000Y-81390000D03*
X106265000Y-61070000D03*
X164685000Y-78850000D03*
X157065000Y-58530000D03*
X83405000Y-89010000D03*
X169765000Y-71230000D03*
X96105000Y-83930000D03*
X78325000Y-78850000D03*
X116425000Y-78850000D03*
X106265000Y-111870000D03*
X129125000Y-83930000D03*
X121505000Y-119490000D03*
X149445000Y-109330000D03*
X182465000Y-89010000D03*
X141825000Y-134730000D03*
X91025000Y-99170000D03*
X157065000Y-124570000D03*
X131665000Y-134730000D03*
X96105000Y-137270000D03*
X195165000Y-114410000D03*
X162145000Y-68690000D03*
X118965000Y-111870000D03*
X172305000Y-129650000D03*
X172305000Y-119490000D03*
X129125000Y-124570000D03*
X85945000Y-124570000D03*
X187545000Y-99170000D03*
X111345000Y-81390000D03*
X78325000Y-137270000D03*
X141825000Y-137270000D03*
X85945000Y-53450000D03*
X88485000Y-111870000D03*
X126585000Y-78850000D03*
X174845000Y-81390000D03*
X167225000Y-58530000D03*
X80865000Y-81390000D03*
X172305000Y-55990000D03*
X113885000Y-132190000D03*
X83405000Y-114410000D03*
X116425000Y-89010000D03*
X169765000Y-137270000D03*
X164685000Y-132190000D03*
X159605000Y-132190000D03*
X187545000Y-129650000D03*
X121505000Y-132190000D03*
X118965000Y-73770000D03*
X157065000Y-83930000D03*
X78325000Y-53450000D03*
X179925000Y-86470000D03*
X177385000Y-53450000D03*
X146905000Y-99170000D03*
X126585000Y-58530000D03*
X159605000Y-104250000D03*
X134205000Y-89010000D03*
X167225000Y-83930000D03*
X159605000Y-91550000D03*
X195165000Y-104250000D03*
X190085000Y-122030000D03*
X149445000Y-63610000D03*
X190085000Y-114410000D03*
X185005000Y-73770000D03*
X174845000Y-132190000D03*
X157065000Y-106790000D03*
X108805000Y-71230000D03*
X93565000Y-53450000D03*
X101185000Y-101710000D03*
X93565000Y-129650000D03*
X78325000Y-76310000D03*
X151985000Y-66150000D03*
X126585000Y-99170000D03*
X93565000Y-127110000D03*
X197705000Y-78850000D03*
X126585000Y-104250000D03*
X96105000Y-106790000D03*
X187545000Y-127110000D03*
X93565000Y-71230000D03*
X187545000Y-101710000D03*
X179925000Y-53450000D03*
X159605000Y-68690000D03*
X118965000Y-122030000D03*
X101185000Y-58530000D03*
X179925000Y-124570000D03*
X169765000Y-55990000D03*
X146905000Y-124570000D03*
X169765000Y-61070000D03*
X141825000Y-83930000D03*
X78325000Y-73770000D03*
X101185000Y-127110000D03*
X185005000Y-58530000D03*
X151985000Y-68690000D03*
X162145000Y-119490000D03*
X91025000Y-129650000D03*
X126585000Y-89010000D03*
X118965000Y-71230000D03*
X88485000Y-106790000D03*
X177385000Y-132190000D03*
X172305000Y-134730000D03*
X177385000Y-122030000D03*
X93565000Y-55990000D03*
X139285000Y-122030000D03*
X111345000Y-129650000D03*
X91025000Y-89010000D03*
X134205000Y-86470000D03*
X98645000Y-99170000D03*
X85945000Y-63610000D03*
X195165000Y-61070000D03*
X149445000Y-127110000D03*
X149445000Y-114410000D03*
X116425000Y-63610000D03*
X149445000Y-134730000D03*
X101185000Y-137270000D03*
X131665000Y-124570000D03*
X167225000Y-55990000D03*
X190085000Y-129650000D03*
X106265000Y-124570000D03*
X174845000Y-53450000D03*
X126585000Y-106790000D03*
X96105000Y-78850000D03*
X121505000Y-106790000D03*
X157065000Y-71230000D03*
X167225000Y-127110000D03*
X106265000Y-137270000D03*
X172305000Y-101710000D03*
X197705000Y-76310000D03*
X101185000Y-66150000D03*
X80865000Y-119490000D03*
X159605000Y-101710000D03*
X141825000Y-101710000D03*
X121505000Y-101710000D03*
X113885000Y-114410000D03*
X131665000Y-71230000D03*
X144365000Y-122030000D03*
X164685000Y-106790000D03*
X179925000Y-78850000D03*
X141825000Y-104250000D03*
X151985000Y-89010000D03*
X172305000Y-83930000D03*
X195165000Y-63610000D03*
X192625000Y-137270000D03*
X164685000Y-63610000D03*
X149445000Y-83930000D03*
X78325000Y-66150000D03*
X80865000Y-63610000D03*
X172305000Y-78850000D03*
X151985000Y-127110000D03*
X80865000Y-122030000D03*
X169765000Y-66150000D03*
X192625000Y-124570000D03*
X177385000Y-111870000D03*
X85945000Y-55990000D03*
X146905000Y-104250000D03*
X190085000Y-73770000D03*
X182465000Y-119490000D03*
X185005000Y-81390000D03*
X129125000Y-58530000D03*
X113885000Y-119490000D03*
X78325000Y-124570000D03*
X124045000Y-106790000D03*
X154525000Y-55990000D03*
X192625000Y-81390000D03*
X157065000Y-119490000D03*
X179925000Y-119490000D03*
X136745000Y-134730000D03*
X167225000Y-86470000D03*
X91025000Y-106790000D03*
X164685000Y-89010000D03*
X88485000Y-68690000D03*
X118965000Y-86470000D03*
X141825000Y-55990000D03*
X83405000Y-111870000D03*
X144365000Y-89010000D03*
X185005000Y-55990000D03*
X149445000Y-104250000D03*
X164685000Y-104250000D03*
X151985000Y-137270000D03*
X131665000Y-101710000D03*
X177385000Y-83930000D03*
X197705000Y-129650000D03*
X141825000Y-58530000D03*
X141825000Y-127110000D03*
X108805000Y-109330000D03*
X80865000Y-89010000D03*
X136745000Y-63610000D03*
X91025000Y-132190000D03*
X134205000Y-99170000D03*
X103725000Y-116950000D03*
X174845000Y-116950000D03*
X177385000Y-104250000D03*
X139285000Y-76310000D03*
X167225000Y-124570000D03*
X179925000Y-89010000D03*
X98645000Y-129650000D03*
X124045000Y-61070000D03*
X182465000Y-104250000D03*
X144365000Y-134730000D03*
X182465000Y-63610000D03*
X167225000Y-114410000D03*
X174845000Y-111870000D03*
X197705000Y-134730000D03*
X124045000Y-101710000D03*
X129125000Y-89010000D03*
X157065000Y-91550000D03*
X111345000Y-134730000D03*
X98645000Y-86470000D03*
X103725000Y-71230000D03*
X101185000Y-122030000D03*
X139285000Y-124570000D03*
X172305000Y-132190000D03*
X179925000Y-122030000D03*
X113885000Y-106790000D03*
X197705000Y-104250000D03*
X167225000Y-78850000D03*
X108805000Y-86470000D03*
X162145000Y-61070000D03*
X85945000Y-89010000D03*
X159605000Y-134730000D03*
X83405000Y-91550000D03*
X177385000Y-134730000D03*
X113885000Y-137270000D03*
X134205000Y-55990000D03*
X93565000Y-83930000D03*
X151985000Y-104250000D03*
X129125000Y-101710000D03*
X164685000Y-66150000D03*
X182465000Y-81390000D03*
X136745000Y-99170000D03*
X182465000Y-53450000D03*
X80865000Y-132190000D03*
X192625000Y-58530000D03*
X190085000Y-99170000D03*
X134205000Y-122030000D03*
X126585000Y-81390000D03*
X108805000Y-63610000D03*
X154525000Y-89010000D03*
X91025000Y-73770000D03*
X187545000Y-109330000D03*
X172305000Y-89010000D03*
X113885000Y-127110000D03*
X121505000Y-76310000D03*
X144365000Y-68690000D03*
X169765000Y-111870000D03*
X118965000Y-78850000D03*
X88485000Y-99170000D03*
X121505000Y-78850000D03*
X131665000Y-73770000D03*
X103725000Y-127110000D03*
X103725000Y-55990000D03*
X131665000Y-132190000D03*
X101185000Y-124570000D03*
X88485000Y-124570000D03*
X162145000Y-129650000D03*
X134205000Y-61070000D03*
X192625000Y-129650000D03*
X172305000Y-116950000D03*
X136745000Y-78850000D03*
X157065000Y-55990000D03*
X185005000Y-86470000D03*
X197705000Y-73770000D03*
X162145000Y-81390000D03*
X88485000Y-53450000D03*
X141825000Y-78850000D03*
X134205000Y-63610000D03*
X106265000Y-106790000D03*
X116425000Y-124570000D03*
X151985000Y-99170000D03*
X98645000Y-124570000D03*
X116425000Y-122030000D03*
X103725000Y-73770000D03*
X144365000Y-71230000D03*
X182465000Y-83930000D03*
X162145000Y-53450000D03*
X126585000Y-83930000D03*
X139285000Y-137270000D03*
X195165000Y-86470000D03*
X116425000Y-53450000D03*
X146905000Y-122030000D03*
X126585000Y-116950000D03*
X174845000Y-89010000D03*
X91025000Y-124570000D03*
X121505000Y-99170000D03*
X134205000Y-71230000D03*
X141825000Y-76310000D03*
X124045000Y-86470000D03*
X167225000Y-81390000D03*
X106265000Y-68690000D03*
X172305000Y-73770000D03*
X78325000Y-86470000D03*
X85945000Y-58530000D03*
X83405000Y-58530000D03*
X91025000Y-76310000D03*
X192625000Y-73770000D03*
X98645000Y-76310000D03*
X190085000Y-78850000D03*
X106265000Y-71230000D03*
X98645000Y-73770000D03*
X182465000Y-91550000D03*
X78325000Y-127110000D03*
X136745000Y-101710000D03*
X113885000Y-66150000D03*
X139285000Y-106790000D03*
X124045000Y-99170000D03*
X190085000Y-89010000D03*
X88485000Y-116950000D03*
X106265000Y-53450000D03*
X78325000Y-129650000D03*
X151985000Y-81390000D03*
X129125000Y-81390000D03*
X146905000Y-63610000D03*
X149445000Y-71230000D03*
X78325000Y-99170000D03*
X139285000Y-129650000D03*
X169765000Y-119490000D03*
X124045000Y-109330000D03*
X172305000Y-91550000D03*
X192625000Y-132190000D03*
X116425000Y-127110000D03*
X129125000Y-73770000D03*
X116425000Y-71230000D03*
X136745000Y-66150000D03*
X144365000Y-99170000D03*
X141825000Y-91550000D03*
X136745000Y-106790000D03*
X124045000Y-127110000D03*
X151985000Y-55990000D03*
X118965000Y-91550000D03*
X197705000Y-116950000D03*
X106265000Y-55990000D03*
X108805000Y-61070000D03*
X151985000Y-122030000D03*
X80865000Y-71230000D03*
X190085000Y-71230000D03*
X177385000Y-73770000D03*
X197705000Y-99170000D03*
X197705000Y-132190000D03*
X177385000Y-116950000D03*
X129125000Y-55990000D03*
X146905000Y-55990000D03*
X80865000Y-99170000D03*
X167225000Y-104250000D03*
X106265000Y-58530000D03*
X179925000Y-63610000D03*
X116425000Y-116950000D03*
X154525000Y-127110000D03*
X192625000Y-111870000D03*
X126585000Y-134730000D03*
X146905000Y-53450000D03*
X144365000Y-109330000D03*
X167225000Y-73770000D03*
X88485000Y-76310000D03*
X83405000Y-86470000D03*
X103725000Y-89010000D03*
X136745000Y-89010000D03*
X93565000Y-114410000D03*
X162145000Y-114410000D03*
X154525000Y-129650000D03*
X131665000Y-111870000D03*
X190085000Y-127110000D03*
X106265000Y-122030000D03*
X174845000Y-124570000D03*
X103725000Y-119490000D03*
X131665000Y-91550000D03*
X134205000Y-81390000D03*
X118965000Y-101710000D03*
X185005000Y-83930000D03*
X85945000Y-71230000D03*
X78325000Y-122030000D03*
X185005000Y-106790000D03*
X179925000Y-132190000D03*
X159605000Y-137270000D03*
X129125000Y-61070000D03*
X169765000Y-73770000D03*
X136745000Y-109330000D03*
X106265000Y-73770000D03*
X98645000Y-63610000D03*
X141825000Y-132190000D03*
X174845000Y-66150000D03*
X195165000Y-127110000D03*
X83405000Y-83930000D03*
X103725000Y-122030000D03*
X151985000Y-86470000D03*
X154525000Y-53450000D03*
X190085000Y-106790000D03*
X146905000Y-76310000D03*
X167225000Y-134730000D03*
X157065000Y-101710000D03*
X136745000Y-137270000D03*
X187545000Y-137270000D03*
X134205000Y-106790000D03*
X177385000Y-99170000D03*
X172305000Y-86470000D03*
X131665000Y-61070000D03*
X159605000Y-66150000D03*
X136745000Y-71230000D03*
X136745000Y-58530000D03*
X116425000Y-81390000D03*
X116425000Y-91550000D03*
X182465000Y-132190000D03*
X159605000Y-109330000D03*
X177385000Y-127110000D03*
X113885000Y-81390000D03*
X98645000Y-134730000D03*
X146905000Y-61070000D03*
X157065000Y-122030000D03*
X113885000Y-129650000D03*
X93565000Y-104250000D03*
X174845000Y-106790000D03*
X91025000Y-114410000D03*
X83405000Y-124570000D03*
X151985000Y-76310000D03*
X185005000Y-78850000D03*
X169765000Y-76310000D03*
X116425000Y-129650000D03*
X185005000Y-66150000D03*
X108805000Y-68690000D03*
X113885000Y-124570000D03*
X78325000Y-61070000D03*
X154525000Y-116950000D03*
X139285000Y-132190000D03*
X106265000Y-134730000D03*
X96105000Y-89010000D03*
X154525000Y-101710000D03*
X197705000Y-61070000D03*
X187545000Y-134730000D03*
X185005000Y-134730000D03*
X144365000Y-127110000D03*
X192625000Y-134730000D03*
X179925000Y-114410000D03*
X96105000Y-55990000D03*
X131665000Y-129650000D03*
X108805000Y-124570000D03*
X91025000Y-53450000D03*
X141825000Y-53450000D03*
X124045000Y-111870000D03*
X121505000Y-127110000D03*
X131665000Y-86470000D03*
X134205000Y-109330000D03*
X154525000Y-122030000D03*
X106265000Y-101710000D03*
X96105000Y-68690000D03*
X108805000Y-73770000D03*
X179925000Y-99170000D03*
X85945000Y-127110000D03*
X113885000Y-68690000D03*
X146905000Y-91550000D03*
X83405000Y-78850000D03*
X169765000Y-83930000D03*
X116425000Y-86470000D03*
X177385000Y-61070000D03*
X197705000Y-89010000D03*
X185005000Y-129650000D03*
X197705000Y-101710000D03*
X185005000Y-137270000D03*
X121505000Y-116950000D03*
X195165000Y-99170000D03*
X118965000Y-83930000D03*
X116425000Y-61070000D03*
X131665000Y-106790000D03*
X192625000Y-106790000D03*
X93565000Y-124570000D03*
X129125000Y-116950000D03*
X149445000Y-122030000D03*
X96105000Y-114410000D03*
X190085000Y-116950000D03*
X149445000Y-101710000D03*
X149445000Y-68690000D03*
X129125000Y-78850000D03*
X103725000Y-61070000D03*
X88485000Y-132190000D03*
X116425000Y-101710000D03*
X197705000Y-68690000D03*
X118965000Y-76310000D03*
X78325000Y-71230000D03*
X121505000Y-109330000D03*
X159605000Y-83930000D03*
X157065000Y-81390000D03*
X187545000Y-58530000D03*
X116425000Y-68690000D03*
X192625000Y-55990000D03*
X126585000Y-86470000D03*
X174845000Y-55990000D03*
X185005000Y-111870000D03*
X106265000Y-63610000D03*
X136745000Y-119490000D03*
X144365000Y-81390000D03*
X98645000Y-101710000D03*
X179925000Y-61070000D03*
X88485000Y-66150000D03*
X141825000Y-68690000D03*
X93565000Y-122030000D03*
X111345000Y-114410000D03*
X136745000Y-91550000D03*
X116425000Y-109330000D03*
X124045000Y-76310000D03*
X101185000Y-134730000D03*
X187545000Y-68690000D03*
X121505000Y-58530000D03*
X151985000Y-61070000D03*
X151985000Y-73770000D03*
X141825000Y-66150000D03*
X85945000Y-104250000D03*
X126585000Y-124570000D03*
X126585000Y-76310000D03*
X96105000Y-116950000D03*
X131665000Y-127110000D03*
X182465000Y-101710000D03*
X83405000Y-134730000D03*
X98645000Y-61070000D03*
X169765000Y-53450000D03*
X88485000Y-78850000D03*
X192625000Y-101710000D03*
X80865000Y-91550000D03*
X134205000Y-53450000D03*
X98645000Y-109330000D03*
X108805000Y-106790000D03*
X144365000Y-76310000D03*
X187545000Y-111870000D03*
X131665000Y-53450000D03*
X124045000Y-63610000D03*
X106265000Y-76310000D03*
X162145000Y-132190000D03*
X113885000Y-89010000D03*
X190085000Y-83930000D03*
X78325000Y-83930000D03*
X96105000Y-129650000D03*
X174845000Y-86470000D03*
X151985000Y-129650000D03*
X85945000Y-91550000D03*
X91025000Y-111870000D03*
X93565000Y-61070000D03*
X159605000Y-129650000D03*
X179925000Y-109330000D03*
X179925000Y-83930000D03*
X83405000Y-81390000D03*
X195165000Y-111870000D03*
X78325000Y-101710000D03*
X101185000Y-53450000D03*
X106265000Y-132190000D03*
X157065000Y-86470000D03*
X139285000Y-66150000D03*
X197705000Y-122030000D03*
X185005000Y-114410000D03*
X134205000Y-58530000D03*
X118965000Y-89010000D03*
X78325000Y-109330000D03*
X111345000Y-76310000D03*
X182465000Y-129650000D03*
X162145000Y-124570000D03*
X96105000Y-53450000D03*
X169765000Y-109330000D03*
X151985000Y-111870000D03*
X182465000Y-68690000D03*
X185005000Y-91550000D03*
X80865000Y-66150000D03*
X118965000Y-119490000D03*
X134205000Y-66150000D03*
X96105000Y-86470000D03*
X141825000Y-81390000D03*
X118965000Y-53450000D03*
X134205000Y-104250000D03*
X197705000Y-91550000D03*
X93565000Y-99170000D03*
X121505000Y-71230000D03*
X124045000Y-89010000D03*
X190085000Y-76310000D03*
X101185000Y-111870000D03*
X197705000Y-137270000D03*
X78325000Y-63610000D03*
X167225000Y-132190000D03*
X192625000Y-99170000D03*
X106265000Y-89010000D03*
X124045000Y-137270000D03*
X174845000Y-119490000D03*
X164685000Y-86470000D03*
X85945000Y-61070000D03*
X121505000Y-104250000D03*
X141825000Y-124570000D03*
X141825000Y-89010000D03*
X134205000Y-91550000D03*
X139285000Y-89010000D03*
X197705000Y-66150000D03*
X111345000Y-73770000D03*
X93565000Y-132190000D03*
X103725000Y-68690000D03*
X151985000Y-91550000D03*
X108805000Y-119490000D03*
X103725000Y-83930000D03*
X195165000Y-119490000D03*
X101185000Y-63610000D03*
X126585000Y-53450000D03*
X85945000Y-81390000D03*
X192625000Y-122030000D03*
X149445000Y-78850000D03*
X162145000Y-73770000D03*
X101185000Y-68690000D03*
X83405000Y-68690000D03*
X80865000Y-129650000D03*
X78325000Y-55990000D03*
X78325000Y-119490000D03*
X111345000Y-71230000D03*
X131665000Y-66150000D03*
X146905000Y-89010000D03*
X162145000Y-78850000D03*
X121505000Y-134730000D03*
X113885000Y-58530000D03*
X169765000Y-63610000D03*
X129125000Y-114410000D03*
X108805000Y-111870000D03*
X149445000Y-66150000D03*
X187545000Y-116950000D03*
X118965000Y-132190000D03*
X146905000Y-132190000D03*
X113885000Y-53450000D03*
X169765000Y-101710000D03*
X151985000Y-116950000D03*
X190085000Y-86470000D03*
X182465000Y-73770000D03*
X129125000Y-106790000D03*
X195165000Y-53450000D03*
X118965000Y-55990000D03*
X149445000Y-111870000D03*
X179925000Y-68690000D03*
X103725000Y-78850000D03*
X172305000Y-127110000D03*
X164685000Y-137270000D03*
X190085000Y-55990000D03*
X118965000Y-104250000D03*
X129125000Y-111870000D03*
X174845000Y-122030000D03*
X121505000Y-68690000D03*
X192625000Y-89010000D03*
X78325000Y-111870000D03*
X146905000Y-58530000D03*
X162145000Y-109330000D03*
X131665000Y-137270000D03*
X111345000Y-116950000D03*
X167225000Y-122030000D03*
X91025000Y-127110000D03*
X192625000Y-127110000D03*
X164685000Y-111870000D03*
X172305000Y-124570000D03*
X139285000Y-114410000D03*
X113885000Y-104250000D03*
X83405000Y-132190000D03*
X190085000Y-119490000D03*
X83405000Y-73770000D03*
X151985000Y-101710000D03*
X121505000Y-122030000D03*
X129125000Y-134730000D03*
X136745000Y-53450000D03*
X157065000Y-111870000D03*
X149445000Y-99170000D03*
X85945000Y-73770000D03*
X154525000Y-81390000D03*
X136745000Y-61070000D03*
X101185000Y-83930000D03*
X136745000Y-55990000D03*
X146905000Y-116950000D03*
X134205000Y-68690000D03*
X126585000Y-111870000D03*
X187545000Y-91550000D03*
X177385000Y-58530000D03*
X190085000Y-109330000D03*
X91025000Y-122030000D03*
X111345000Y-127110000D03*
X83405000Y-137270000D03*
X182465000Y-58530000D03*
X96105000Y-91550000D03*
X146905000Y-83930000D03*
X174845000Y-83930000D03*
X179925000Y-111870000D03*
X93565000Y-81390000D03*
X157065000Y-68690000D03*
X162145000Y-91550000D03*
X190085000Y-124570000D03*
X167225000Y-119490000D03*
X98645000Y-132190000D03*
X106265000Y-83930000D03*
X162145000Y-89010000D03*
X192625000Y-119490000D03*
X121505000Y-89010000D03*
X159605000Y-78850000D03*
X179925000Y-71230000D03*
X80865000Y-68690000D03*
X111345000Y-106790000D03*
X141825000Y-111870000D03*
X195165000Y-73770000D03*
X195165000Y-55990000D03*
X174845000Y-114410000D03*
X177385000Y-66150000D03*
X124045000Y-73770000D03*
X131665000Y-109330000D03*
X108805000Y-114410000D03*
X157065000Y-129650000D03*
X111345000Y-122030000D03*
X111345000Y-132190000D03*
X113885000Y-101710000D03*
X195165000Y-106790000D03*
X103725000Y-134730000D03*
X111345000Y-101710000D03*
X172305000Y-71230000D03*
X108805000Y-134730000D03*
X179925000Y-101710000D03*
X141825000Y-61070000D03*
X103725000Y-53450000D03*
X121505000Y-73770000D03*
X98645000Y-89010000D03*
X154525000Y-137270000D03*
X78325000Y-68690000D03*
X93565000Y-89010000D03*
X106265000Y-114410000D03*
X190085000Y-104250000D03*
X80865000Y-83930000D03*
X85945000Y-122030000D03*
X108805000Y-116950000D03*
X197705000Y-106790000D03*
X121505000Y-53450000D03*
X139285000Y-86470000D03*
X197705000Y-81390000D03*
X192625000Y-104250000D03*
X131665000Y-76310000D03*
X177385000Y-55990000D03*
X177385000Y-109330000D03*
X172305000Y-114410000D03*
X101185000Y-71230000D03*
X124045000Y-132190000D03*
X187545000Y-89010000D03*
X172305000Y-109330000D03*
X182465000Y-124570000D03*
X144365000Y-63610000D03*
X136745000Y-127110000D03*
X113885000Y-122030000D03*
X197705000Y-53450000D03*
X111345000Y-119490000D03*
X144365000Y-86470000D03*
X164685000Y-114410000D03*
X93565000Y-91550000D03*
X126585000Y-109330000D03*
X167225000Y-89010000D03*
X172305000Y-66150000D03*
X88485000Y-81390000D03*
X129125000Y-71230000D03*
X151985000Y-58530000D03*
X131665000Y-81390000D03*
X118965000Y-58530000D03*
X88485000Y-109330000D03*
X154525000Y-83930000D03*
X187545000Y-61070000D03*
X108805000Y-66150000D03*
X195165000Y-129650000D03*
X106265000Y-86470000D03*
X159605000Y-99170000D03*
X177385000Y-124570000D03*
X162145000Y-58530000D03*
X151985000Y-119490000D03*
X174845000Y-127110000D03*
X93565000Y-119490000D03*
X139285000Y-83930000D03*
X116425000Y-83930000D03*
X98645000Y-111870000D03*
X88485000Y-73770000D03*
X85945000Y-106790000D03*
X190085000Y-53450000D03*
X80865000Y-106790000D03*
X151985000Y-78850000D03*
X106265000Y-66150000D03*
X187545000Y-83930000D03*
X139285000Y-58530000D03*
X129125000Y-68690000D03*
X136745000Y-132190000D03*
X182465000Y-109330000D03*
X157065000Y-76310000D03*
X192625000Y-63610000D03*
X182465000Y-99170000D03*
X124045000Y-91550000D03*
X146905000Y-101710000D03*
X124045000Y-53450000D03*
X141825000Y-73770000D03*
X111345000Y-137270000D03*
X85945000Y-132190000D03*
X151985000Y-83930000D03*
X185005000Y-99170000D03*
X157065000Y-73770000D03*
X80865000Y-76310000D03*
X96105000Y-104250000D03*
X195165000Y-58530000D03*
X154525000Y-124570000D03*
X144365000Y-61070000D03*
X195165000Y-78850000D03*
X93565000Y-66150000D03*
X85945000Y-119490000D03*
X167225000Y-71230000D03*
X129125000Y-99170000D03*
X85945000Y-137270000D03*
X197705000Y-127110000D03*
X101185000Y-81390000D03*
X164685000Y-127110000D03*
X146905000Y-86470000D03*
X159605000Y-119490000D03*
X136745000Y-116950000D03*
X129125000Y-91550000D03*
X116425000Y-111870000D03*
X195165000Y-68690000D03*
X103725000Y-99170000D03*
X85945000Y-86470000D03*
X146905000Y-127110000D03*
X141825000Y-116950000D03*
X169765000Y-122030000D03*
X136745000Y-83930000D03*
X141825000Y-71230000D03*
X167225000Y-106790000D03*
X141825000Y-114410000D03*
X91025000Y-58530000D03*
X108805000Y-132190000D03*
X174845000Y-137270000D03*
X85945000Y-99170000D03*
X113885000Y-111870000D03*
X172305000Y-137270000D03*
X177385000Y-71230000D03*
X106265000Y-78850000D03*
X83405000Y-106790000D03*
X113885000Y-86470000D03*
X146905000Y-119490000D03*
X149445000Y-137270000D03*
X141825000Y-119490000D03*
X154525000Y-119490000D03*
X172305000Y-99170000D03*
X187545000Y-66150000D03*
X83405000Y-53450000D03*
X174845000Y-76310000D03*
X187545000Y-55990000D03*
X85945000Y-101710000D03*
X126585000Y-137270000D03*
X124045000Y-104250000D03*
X195165000Y-71230000D03*
X121505000Y-81390000D03*
X157065000Y-78850000D03*
X185005000Y-132190000D03*
X78325000Y-106790000D03*
X169765000Y-81390000D03*
X185005000Y-71230000D03*
X88485000Y-71230000D03*
X85945000Y-78850000D03*
X118965000Y-114410000D03*
X159605000Y-116950000D03*
X88485000Y-61070000D03*
X111345000Y-63610000D03*
X129125000Y-66150000D03*
X174845000Y-91550000D03*
X103725000Y-111870000D03*
X111345000Y-104250000D03*
X134205000Y-116950000D03*
X177385000Y-129650000D03*
X108805000Y-76310000D03*
X91025000Y-101710000D03*
X131665000Y-114410000D03*
X139285000Y-78850000D03*
X116425000Y-66150000D03*
X96105000Y-71230000D03*
X88485000Y-55990000D03*
X154525000Y-99170000D03*
X187545000Y-76310000D03*
X190085000Y-58530000D03*
X91025000Y-71230000D03*
X131665000Y-78850000D03*
X106265000Y-109330000D03*
X98645000Y-91550000D03*
X159605000Y-58530000D03*
X126585000Y-132190000D03*
X129125000Y-119490000D03*
X91025000Y-134730000D03*
X121505000Y-55990000D03*
X98645000Y-119490000D03*
X93565000Y-137270000D03*
X149445000Y-119490000D03*
X134205000Y-132190000D03*
X157065000Y-61070000D03*
X146905000Y-114410000D03*
X159605000Y-73770000D03*
X177385000Y-68690000D03*
X116425000Y-119490000D03*
X169765000Y-124570000D03*
X169765000Y-104250000D03*
X91025000Y-63610000D03*
X182465000Y-111870000D03*
X88485000Y-114410000D03*
X144365000Y-101710000D03*
X83405000Y-76310000D03*
X197705000Y-55990000D03*
X177385000Y-101710000D03*
X91025000Y-66150000D03*
X162145000Y-137270000D03*
X157065000Y-134730000D03*
X134205000Y-134730000D03*
X88485000Y-122030000D03*
X167225000Y-66150000D03*
X134205000Y-119490000D03*
X91025000Y-83930000D03*
X187545000Y-81390000D03*
X98645000Y-116950000D03*
X134205000Y-83930000D03*
X154525000Y-68690000D03*
X139285000Y-111870000D03*
X108805000Y-99170000D03*
X172305000Y-58530000D03*
X131665000Y-58530000D03*
X192625000Y-61070000D03*
X118965000Y-63610000D03*
X118965000Y-61070000D03*
X98645000Y-55990000D03*
X149445000Y-53450000D03*
X197705000Y-63610000D03*
X139285000Y-63610000D03*
X129125000Y-76310000D03*
X174845000Y-68690000D03*
X80865000Y-55990000D03*
X144365000Y-66150000D03*
X91025000Y-86470000D03*
X192625000Y-53450000D03*
X139285000Y-53450000D03*
X129125000Y-86470000D03*
X177385000Y-137270000D03*
X113885000Y-61070000D03*
X177385000Y-86470000D03*
X154525000Y-86470000D03*
X118965000Y-127110000D03*
X164685000Y-99170000D03*
X167225000Y-137270000D03*
X144365000Y-114410000D03*
X80865000Y-61070000D03*
X93565000Y-101710000D03*
X136745000Y-81390000D03*
X195165000Y-83930000D03*
X164685000Y-101710000D03*
X113885000Y-63610000D03*
X136745000Y-114410000D03*
X108805000Y-122030000D03*
X179925000Y-106790000D03*
X149445000Y-61070000D03*
X118965000Y-109330000D03*
X167225000Y-129650000D03*
X136745000Y-86470000D03*
X136745000Y-68690000D03*
X146905000Y-137270000D03*
X154525000Y-76310000D03*
X83405000Y-101710000D03*
X106265000Y-81390000D03*
X108805000Y-81390000D03*
X121505000Y-83930000D03*
X83405000Y-71230000D03*
X154525000Y-58530000D03*
X172305000Y-81390000D03*
X162145000Y-86470000D03*
X192625000Y-109330000D03*
X162145000Y-83930000D03*
X129125000Y-127110000D03*
X93565000Y-58530000D03*
X172305000Y-122030000D03*
X185005000Y-63610000D03*
X190085000Y-61070000D03*
X116425000Y-104250000D03*
X167225000Y-116950000D03*
X98645000Y-106790000D03*
X118965000Y-137270000D03*
X162145000Y-55990000D03*
X116425000Y-106790000D03*
X103725000Y-66150000D03*
X164685000Y-124570000D03*
X124045000Y-122030000D03*
X192625000Y-86470000D03*
X103725000Y-81390000D03*
X83405000Y-127110000D03*
X134205000Y-76310000D03*
X88485000Y-91550000D03*
X103725000Y-106790000D03*
X177385000Y-114410000D03*
X83405000Y-109330000D03*
X96105000Y-132190000D03*
X98645000Y-58530000D03*
X151985000Y-124570000D03*
X190085000Y-137270000D03*
X182465000Y-71230000D03*
X177385000Y-119490000D03*
X182465000Y-122030000D03*
X159605000Y-122030000D03*
X157065000Y-109330000D03*
X162145000Y-111870000D03*
X131665000Y-89010000D03*
X80865000Y-124570000D03*
X93565000Y-78850000D03*
X121505000Y-111870000D03*
X96105000Y-122030000D03*
X83405000Y-66150000D03*
X164685000Y-81390000D03*
X195165000Y-101710000D03*
X93565000Y-76310000D03*
X85945000Y-134730000D03*
X146905000Y-71230000D03*
X126585000Y-119490000D03*
X116425000Y-58530000D03*
X187545000Y-106790000D03*
X159605000Y-127110000D03*
X96105000Y-101710000D03*
X126585000Y-55990000D03*
X103725000Y-86470000D03*
X78325000Y-89010000D03*
X144365000Y-116950000D03*
X124045000Y-66150000D03*
X174845000Y-58530000D03*
X88485000Y-86470000D03*
X154525000Y-109330000D03*
X172305000Y-68690000D03*
X83405000Y-99170000D03*
X141825000Y-63610000D03*
X136745000Y-124570000D03*
X101185000Y-76310000D03*
X157065000Y-99170000D03*
X159605000Y-55990000D03*
X108805000Y-53450000D03*
X124045000Y-83930000D03*
X108805000Y-101710000D03*
X111345000Y-111870000D03*
X121505000Y-114410000D03*
X146905000Y-106790000D03*
X139285000Y-55990000D03*
X185005000Y-61070000D03*
X154525000Y-78850000D03*
X195165000Y-81390000D03*
X169765000Y-99170000D03*
X151985000Y-71230000D03*
X103725000Y-129650000D03*
X179925000Y-91550000D03*
X169765000Y-114410000D03*
X116425000Y-132190000D03*
X113885000Y-83930000D03*
X78325000Y-114410000D03*
X106265000Y-104250000D03*
X192625000Y-114410000D03*
X159605000Y-53450000D03*
X96105000Y-99170000D03*
X111345000Y-83930000D03*
X106265000Y-129650000D03*
X78325000Y-91550000D03*
X151985000Y-53450000D03*
X91025000Y-55990000D03*
X129125000Y-109330000D03*
X185005000Y-53450000D03*
X154525000Y-114410000D03*
X129125000Y-104250000D03*
X162145000Y-66150000D03*
X91025000Y-109330000D03*
X159605000Y-71230000D03*
X167225000Y-99170000D03*
X88485000Y-119490000D03*
X195165000Y-124570000D03*
X179925000Y-134730000D03*
X98645000Y-127110000D03*
X149445000Y-76310000D03*
X111345000Y-66150000D03*
X187545000Y-124570000D03*
X141825000Y-106790000D03*
X80865000Y-73770000D03*
X98645000Y-81390000D03*
X134205000Y-124570000D03*
X78325000Y-132190000D03*
X164685000Y-119490000D03*
X129125000Y-122030000D03*
X113885000Y-55990000D03*
X182465000Y-116950000D03*
X113885000Y-99170000D03*
X146905000Y-66150000D03*
X154525000Y-111870000D03*
X83405000Y-61070000D03*
X106265000Y-116950000D03*
X144365000Y-124570000D03*
X134205000Y-78850000D03*
X134205000Y-114410000D03*
X179925000Y-55990000D03*
X131665000Y-116950000D03*
X101185000Y-114410000D03*
X149445000Y-73770000D03*
X164685000Y-122030000D03*
X113885000Y-91550000D03*
X174845000Y-129650000D03*
X144365000Y-129650000D03*
X93565000Y-63610000D03*
X126585000Y-63610000D03*
X80865000Y-104250000D03*
X169765000Y-129650000D03*
X111345000Y-91550000D03*
X108805000Y-78850000D03*
X121505000Y-61070000D03*
X113885000Y-71230000D03*
X182465000Y-76310000D03*
X190085000Y-68690000D03*
X126585000Y-73770000D03*
X96105000Y-61070000D03*
X93565000Y-111870000D03*
X190085000Y-132190000D03*
X169765000Y-132190000D03*
X179925000Y-127110000D03*
X91025000Y-81390000D03*
X177385000Y-81390000D03*
X197705000Y-109330000D03*
X197705000Y-111870000D03*
X197705000Y-83930000D03*
X164685000Y-53450000D03*
X172305000Y-111870000D03*
X169765000Y-91550000D03*
%TD*%
M02*
