%TF.GenerationSoftware,KiCad,Pcbnew,9.0.1*%
%TF.CreationDate,2025-05-06T23:47:47-04:00*%
%TF.ProjectId,classic-protoboard_10x24,636c6173-7369-4632-9d70-726f746f626f,rev?*%
%TF.SameCoordinates,Original*%
%TF.FileFunction,Soldermask,Bot*%
%TF.FilePolarity,Negative*%
%FSLAX46Y46*%
G04 Gerber Fmt 4.6, Leading zero omitted, Abs format (unit mm)*
G04 Created by KiCad (PCBNEW 9.0.1) date 2025-05-06 23:47:47*
%MOMM*%
%LPD*%
G01*
G04 APERTURE LIST*
%ADD10C,2.300000*%
%ADD11O,3.148000X1.624000*%
%ADD12C,1.624000*%
G04 APERTURE END LIST*
D10*
%TO.C,REF\u002A\u002A*%
X116130000Y-115890000D03*
%TD*%
%TO.C,REF\u002A\u002A*%
X180930000Y-91090000D03*
%TD*%
%TO.C,REF\u002A\u002A*%
X180930000Y-115890000D03*
%TD*%
%TO.C,REF\u002A\u002A*%
X116130000Y-91090000D03*
%TD*%
D11*
%TO.C,REF\u002A\u002A*%
X181050000Y-107290000D03*
%TD*%
%TO.C,REF\u002A\u002A*%
X116030000Y-104750000D03*
%TD*%
%TO.C,REF\u002A\u002A*%
X116030000Y-102210000D03*
%TD*%
%TO.C,REF\u002A\u002A*%
X181050000Y-99670000D03*
%TD*%
%TO.C,REF\u002A\u002A*%
X116030000Y-97130000D03*
%TD*%
%TO.C,REF\u002A\u002A*%
X116030000Y-99670000D03*
%TD*%
%TO.C,REF\u002A\u002A*%
X181050000Y-112370000D03*
%TD*%
%TO.C,REF\u002A\u002A*%
X116030000Y-94590000D03*
%TD*%
%TO.C,REF\u002A\u002A*%
X116030000Y-112370000D03*
%TD*%
%TO.C,REF\u002A\u002A*%
X181050000Y-94590000D03*
%TD*%
%TO.C,REF\u002A\u002A*%
X181050000Y-102210000D03*
%TD*%
%TO.C,REF\u002A\u002A*%
X181050000Y-109830000D03*
%TD*%
%TO.C,REF\u002A\u002A*%
X181050000Y-97130000D03*
%TD*%
%TO.C,REF\u002A\u002A*%
X116030000Y-109830000D03*
%TD*%
%TO.C,REF\u002A\u002A*%
X116030000Y-107290000D03*
%TD*%
%TO.C,REF\u002A\u002A*%
X181050000Y-104750000D03*
%TD*%
D12*
X129490000Y-99670000D03*
X144730000Y-114910000D03*
X142190000Y-102210000D03*
X144730000Y-102210000D03*
X132030000Y-112370000D03*
X147270000Y-114910000D03*
X175210000Y-107290000D03*
X177750000Y-94590000D03*
X170130000Y-107290000D03*
X175210000Y-99670000D03*
X177750000Y-99670000D03*
X177750000Y-97130000D03*
X134570000Y-112370000D03*
X170130000Y-97130000D03*
X129490000Y-109830000D03*
X132030000Y-109830000D03*
X139650000Y-109830000D03*
X152350000Y-112370000D03*
X162510000Y-112370000D03*
X147270000Y-99670000D03*
X167590000Y-114910000D03*
X144730000Y-112370000D03*
X139650000Y-112370000D03*
X142190000Y-112370000D03*
X177750000Y-112370000D03*
X170130000Y-112370000D03*
X154890000Y-109830000D03*
X165050000Y-114910000D03*
X119330000Y-92050000D03*
X165050000Y-99670000D03*
X177750000Y-107290000D03*
X172670000Y-112370000D03*
X175210000Y-112370000D03*
X124410000Y-114910000D03*
X162510000Y-97130000D03*
X157430000Y-112370000D03*
X144730000Y-107290000D03*
X147270000Y-107290000D03*
X147270000Y-94590000D03*
X149810000Y-112370000D03*
X167590000Y-107290000D03*
X129490000Y-102210000D03*
X132030000Y-102210000D03*
X167590000Y-97130000D03*
X165050000Y-102210000D03*
X162510000Y-92050000D03*
X121870000Y-102210000D03*
X134570000Y-94590000D03*
X139650000Y-92050000D03*
X129490000Y-94590000D03*
X159970000Y-94590000D03*
X126950000Y-92050000D03*
X157430000Y-92050000D03*
X159970000Y-99670000D03*
X167590000Y-109830000D03*
X119330000Y-112370000D03*
X129490000Y-107290000D03*
X139650000Y-107290000D03*
X159970000Y-112370000D03*
X129490000Y-92050000D03*
X139650000Y-94590000D03*
X129490000Y-104750000D03*
X132030000Y-94590000D03*
X137110000Y-92050000D03*
X124410000Y-107290000D03*
X165050000Y-109830000D03*
X167590000Y-102210000D03*
X119330000Y-104750000D03*
X134570000Y-107290000D03*
X137110000Y-107290000D03*
X157430000Y-102210000D03*
X149810000Y-107290000D03*
X119330000Y-107290000D03*
X121870000Y-107290000D03*
X134570000Y-97130000D03*
X139650000Y-114910000D03*
X142190000Y-114910000D03*
X154890000Y-114910000D03*
X157430000Y-114910000D03*
X132030000Y-92050000D03*
X154890000Y-92050000D03*
X121870000Y-104750000D03*
X142190000Y-92050000D03*
X132030000Y-97130000D03*
X165050000Y-107290000D03*
X144730000Y-94590000D03*
X165050000Y-104750000D03*
X124410000Y-92050000D03*
X124410000Y-102210000D03*
X126950000Y-102210000D03*
X157430000Y-104750000D03*
X159970000Y-104750000D03*
X162510000Y-104750000D03*
X129490000Y-114910000D03*
X132030000Y-114910000D03*
X137110000Y-104750000D03*
X139650000Y-104750000D03*
X124410000Y-109830000D03*
X142190000Y-109830000D03*
X134570000Y-109830000D03*
X137110000Y-109830000D03*
X132030000Y-104750000D03*
X142190000Y-104750000D03*
X144730000Y-104750000D03*
X119330000Y-109830000D03*
X121870000Y-109830000D03*
X159970000Y-109830000D03*
X162510000Y-109830000D03*
X126950000Y-104750000D03*
X119330000Y-114910000D03*
X124410000Y-112370000D03*
X126950000Y-112370000D03*
X147270000Y-109830000D03*
X159970000Y-92050000D03*
X147270000Y-97130000D03*
X149810000Y-97130000D03*
X121870000Y-97130000D03*
X124410000Y-97130000D03*
X167590000Y-94590000D03*
X149810000Y-94590000D03*
X121870000Y-92050000D03*
X157430000Y-97130000D03*
X134570000Y-102210000D03*
X137110000Y-102210000D03*
X162510000Y-99670000D03*
X149810000Y-92050000D03*
X137110000Y-94590000D03*
X142190000Y-107290000D03*
X147270000Y-102210000D03*
X149810000Y-102210000D03*
X152350000Y-102210000D03*
X154890000Y-102210000D03*
X134570000Y-114910000D03*
X137110000Y-114910000D03*
X152350000Y-99670000D03*
X126950000Y-97130000D03*
X152350000Y-94590000D03*
X162510000Y-114910000D03*
X142190000Y-99670000D03*
X137110000Y-99670000D03*
X144730000Y-97130000D03*
X134570000Y-104750000D03*
X144730000Y-92050000D03*
X119330000Y-94590000D03*
X121870000Y-94590000D03*
X154890000Y-97130000D03*
X165050000Y-94590000D03*
X154890000Y-94590000D03*
X157430000Y-94590000D03*
X159970000Y-97130000D03*
X142190000Y-94590000D03*
X134570000Y-92050000D03*
X124410000Y-99670000D03*
X159970000Y-107290000D03*
X162510000Y-107290000D03*
X149810000Y-109830000D03*
X152350000Y-109830000D03*
X126950000Y-107290000D03*
X152350000Y-107290000D03*
X154890000Y-107290000D03*
X159970000Y-102210000D03*
X162510000Y-102210000D03*
X157430000Y-99670000D03*
X154890000Y-112370000D03*
X147270000Y-92050000D03*
X121870000Y-114910000D03*
X139650000Y-97130000D03*
X126950000Y-94590000D03*
X152350000Y-97130000D03*
X137110000Y-112370000D03*
X124410000Y-94590000D03*
X142190000Y-97130000D03*
X129490000Y-112370000D03*
X126950000Y-99670000D03*
X165050000Y-112370000D03*
X167590000Y-112370000D03*
X139650000Y-99670000D03*
X119330000Y-102210000D03*
X121870000Y-99670000D03*
X144730000Y-99670000D03*
X149810000Y-99670000D03*
X147270000Y-112370000D03*
X165050000Y-92050000D03*
X149810000Y-114910000D03*
X152350000Y-114910000D03*
X167590000Y-99670000D03*
X159970000Y-114910000D03*
X147270000Y-104750000D03*
X149810000Y-104750000D03*
X124410000Y-104750000D03*
X134570000Y-99670000D03*
X152350000Y-104750000D03*
X154890000Y-104750000D03*
X167590000Y-92050000D03*
X139650000Y-102210000D03*
X152350000Y-92050000D03*
X132030000Y-107290000D03*
X119330000Y-99670000D03*
X129490000Y-97130000D03*
X137110000Y-97130000D03*
X132030000Y-99670000D03*
X126950000Y-109830000D03*
X119330000Y-97130000D03*
X144730000Y-109830000D03*
X126950000Y-114910000D03*
X121870000Y-112370000D03*
X157430000Y-109830000D03*
X162510000Y-94590000D03*
X154890000Y-99670000D03*
X157430000Y-107290000D03*
X167590000Y-104750000D03*
X165050000Y-97130000D03*
X172670000Y-109830000D03*
X172670000Y-107290000D03*
X177750000Y-114910000D03*
X172670000Y-114910000D03*
X170130000Y-104750000D03*
X172670000Y-104750000D03*
X175210000Y-104750000D03*
X177750000Y-104750000D03*
X175210000Y-97130000D03*
X170130000Y-102210000D03*
X172670000Y-102210000D03*
X175210000Y-114910000D03*
X170130000Y-109830000D03*
X175210000Y-102210000D03*
X177750000Y-102210000D03*
X170130000Y-114910000D03*
X177750000Y-109830000D03*
X170130000Y-94590000D03*
X172670000Y-94590000D03*
X172670000Y-97130000D03*
X175210000Y-92050000D03*
X177750000Y-92050000D03*
X170130000Y-99670000D03*
X172670000Y-99670000D03*
X175210000Y-109830000D03*
X170130000Y-92050000D03*
X172670000Y-92050000D03*
X175210000Y-94590000D03*
M02*
