%TF.GenerationSoftware,KiCad,Pcbnew,9.0.1*%
%TF.CreationDate,2025-05-06T23:47:46-04:00*%
%TF.ProjectId,classic-protoboard_10x24,636c6173-7369-4632-9d70-726f746f626f,rev?*%
%TF.SameCoordinates,Original*%
%TF.FileFunction,Legend,Top*%
%TF.FilePolarity,Positive*%
%FSLAX46Y46*%
G04 Gerber Fmt 4.6, Leading zero omitted, Abs format (unit mm)*
G04 Created by KiCad (PCBNEW 9.0.1) date 2025-05-06 23:47:46*
%MOMM*%
%LPD*%
G01*
G04 APERTURE LIST*
%ADD10C,0.150000*%
%ADD11C,0.127000*%
%ADD12C,0.000000*%
%ADD13C,2.300000*%
%ADD14O,3.148000X1.624000*%
%ADD15C,1.624000*%
G04 APERTURE END LIST*
D10*
X121941428Y-89949009D02*
X122084285Y-89996628D01*
X122084285Y-89996628D02*
X122131904Y-90044247D01*
X122131904Y-90044247D02*
X122179523Y-90139485D01*
X122179523Y-90139485D02*
X122179523Y-90282342D01*
X122179523Y-90282342D02*
X122131904Y-90377580D01*
X122131904Y-90377580D02*
X122084285Y-90425200D01*
X122084285Y-90425200D02*
X121989047Y-90472819D01*
X121989047Y-90472819D02*
X121608095Y-90472819D01*
X121608095Y-90472819D02*
X121608095Y-89472819D01*
X121608095Y-89472819D02*
X121941428Y-89472819D01*
X121941428Y-89472819D02*
X122036666Y-89520438D01*
X122036666Y-89520438D02*
X122084285Y-89568057D01*
X122084285Y-89568057D02*
X122131904Y-89663295D01*
X122131904Y-89663295D02*
X122131904Y-89758533D01*
X122131904Y-89758533D02*
X122084285Y-89853771D01*
X122084285Y-89853771D02*
X122036666Y-89901390D01*
X122036666Y-89901390D02*
X121941428Y-89949009D01*
X121941428Y-89949009D02*
X121608095Y-89949009D01*
X144468095Y-90472819D02*
X144468095Y-89472819D01*
X145039523Y-90472819D02*
X144610952Y-89901390D01*
X145039523Y-89472819D02*
X144468095Y-90044247D01*
X177416667Y-89472819D02*
X178083333Y-90472819D01*
X178083333Y-89472819D02*
X177416667Y-90472819D01*
X157168095Y-90472819D02*
X157168095Y-89472819D01*
X157168095Y-89472819D02*
X157549047Y-89472819D01*
X157549047Y-89472819D02*
X157644285Y-89520438D01*
X157644285Y-89520438D02*
X157691904Y-89568057D01*
X157691904Y-89568057D02*
X157739523Y-89663295D01*
X157739523Y-89663295D02*
X157739523Y-89806152D01*
X157739523Y-89806152D02*
X157691904Y-89901390D01*
X157691904Y-89901390D02*
X157644285Y-89949009D01*
X157644285Y-89949009D02*
X157549047Y-89996628D01*
X157549047Y-89996628D02*
X157168095Y-89996628D01*
X134831904Y-116444438D02*
X134736666Y-116396819D01*
X134736666Y-116396819D02*
X134593809Y-116396819D01*
X134593809Y-116396819D02*
X134450952Y-116444438D01*
X134450952Y-116444438D02*
X134355714Y-116539676D01*
X134355714Y-116539676D02*
X134308095Y-116634914D01*
X134308095Y-116634914D02*
X134260476Y-116825390D01*
X134260476Y-116825390D02*
X134260476Y-116968247D01*
X134260476Y-116968247D02*
X134308095Y-117158723D01*
X134308095Y-117158723D02*
X134355714Y-117253961D01*
X134355714Y-117253961D02*
X134450952Y-117349200D01*
X134450952Y-117349200D02*
X134593809Y-117396819D01*
X134593809Y-117396819D02*
X134689047Y-117396819D01*
X134689047Y-117396819D02*
X134831904Y-117349200D01*
X134831904Y-117349200D02*
X134879523Y-117301580D01*
X134879523Y-117301580D02*
X134879523Y-116968247D01*
X134879523Y-116968247D02*
X134689047Y-116968247D01*
X119091905Y-90187104D02*
X119568095Y-90187104D01*
X118996667Y-90472819D02*
X119330000Y-89472819D01*
X119330000Y-89472819D02*
X119663333Y-90472819D01*
X172336667Y-116396819D02*
X172670000Y-117396819D01*
X172670000Y-117396819D02*
X173003333Y-116396819D01*
X154794762Y-89472819D02*
X154985238Y-89472819D01*
X154985238Y-89472819D02*
X155080476Y-89520438D01*
X155080476Y-89520438D02*
X155175714Y-89615676D01*
X155175714Y-89615676D02*
X155223333Y-89806152D01*
X155223333Y-89806152D02*
X155223333Y-90139485D01*
X155223333Y-90139485D02*
X155175714Y-90329961D01*
X155175714Y-90329961D02*
X155080476Y-90425200D01*
X155080476Y-90425200D02*
X154985238Y-90472819D01*
X154985238Y-90472819D02*
X154794762Y-90472819D01*
X154794762Y-90472819D02*
X154699524Y-90425200D01*
X154699524Y-90425200D02*
X154604286Y-90329961D01*
X154604286Y-90329961D02*
X154556667Y-90139485D01*
X154556667Y-90139485D02*
X154556667Y-89806152D01*
X154556667Y-89806152D02*
X154604286Y-89615676D01*
X154604286Y-89615676D02*
X154699524Y-89520438D01*
X154699524Y-89520438D02*
X154794762Y-89472819D01*
X169844286Y-116396819D02*
X169844286Y-117206342D01*
X169844286Y-117206342D02*
X169891905Y-117301580D01*
X169891905Y-117301580D02*
X169939524Y-117349200D01*
X169939524Y-117349200D02*
X170034762Y-117396819D01*
X170034762Y-117396819D02*
X170225238Y-117396819D01*
X170225238Y-117396819D02*
X170320476Y-117349200D01*
X170320476Y-117349200D02*
X170368095Y-117301580D01*
X170368095Y-117301580D02*
X170415714Y-117206342D01*
X170415714Y-117206342D02*
X170415714Y-116396819D01*
X162819523Y-117396819D02*
X162486190Y-116920628D01*
X162248095Y-117396819D02*
X162248095Y-116396819D01*
X162248095Y-116396819D02*
X162629047Y-116396819D01*
X162629047Y-116396819D02*
X162724285Y-116444438D01*
X162724285Y-116444438D02*
X162771904Y-116492057D01*
X162771904Y-116492057D02*
X162819523Y-116587295D01*
X162819523Y-116587295D02*
X162819523Y-116730152D01*
X162819523Y-116730152D02*
X162771904Y-116825390D01*
X162771904Y-116825390D02*
X162724285Y-116873009D01*
X162724285Y-116873009D02*
X162629047Y-116920628D01*
X162629047Y-116920628D02*
X162248095Y-116920628D01*
X172336667Y-89472819D02*
X172670000Y-90472819D01*
X172670000Y-90472819D02*
X173003333Y-89472819D01*
X132172857Y-116873009D02*
X131839524Y-116873009D01*
X131839524Y-117396819D02*
X131839524Y-116396819D01*
X131839524Y-116396819D02*
X132315714Y-116396819D01*
D11*
X118339593Y-99403904D02*
X118339593Y-99452285D01*
X118339593Y-99452285D02*
X118315403Y-99500666D01*
X118315403Y-99500666D02*
X118291212Y-99524856D01*
X118291212Y-99524856D02*
X118242831Y-99549047D01*
X118242831Y-99549047D02*
X118146069Y-99573237D01*
X118146069Y-99573237D02*
X118025117Y-99573237D01*
X118025117Y-99573237D02*
X117928355Y-99549047D01*
X117928355Y-99549047D02*
X117879974Y-99524856D01*
X117879974Y-99524856D02*
X117855784Y-99500666D01*
X117855784Y-99500666D02*
X117831593Y-99452285D01*
X117831593Y-99452285D02*
X117831593Y-99403904D01*
X117831593Y-99403904D02*
X117855784Y-99355523D01*
X117855784Y-99355523D02*
X117879974Y-99331332D01*
X117879974Y-99331332D02*
X117928355Y-99307142D01*
X117928355Y-99307142D02*
X118025117Y-99282951D01*
X118025117Y-99282951D02*
X118146069Y-99282951D01*
X118146069Y-99282951D02*
X118242831Y-99307142D01*
X118242831Y-99307142D02*
X118291212Y-99331332D01*
X118291212Y-99331332D02*
X118315403Y-99355523D01*
X118315403Y-99355523D02*
X118339593Y-99403904D01*
X118339593Y-99742571D02*
X118339593Y-100057047D01*
X118339593Y-100057047D02*
X118146069Y-99887714D01*
X118146069Y-99887714D02*
X118146069Y-99960285D01*
X118146069Y-99960285D02*
X118121879Y-100008666D01*
X118121879Y-100008666D02*
X118097688Y-100032857D01*
X118097688Y-100032857D02*
X118049307Y-100057047D01*
X118049307Y-100057047D02*
X117928355Y-100057047D01*
X117928355Y-100057047D02*
X117879974Y-100032857D01*
X117879974Y-100032857D02*
X117855784Y-100008666D01*
X117855784Y-100008666D02*
X117831593Y-99960285D01*
X117831593Y-99960285D02*
X117831593Y-99815142D01*
X117831593Y-99815142D02*
X117855784Y-99766761D01*
X117855784Y-99766761D02*
X117879974Y-99742571D01*
D10*
X136824286Y-117396819D02*
X136824286Y-116396819D01*
X136824286Y-116873009D02*
X137395714Y-116873009D01*
X137395714Y-117396819D02*
X137395714Y-116396819D01*
D11*
X118339593Y-101943904D02*
X118339593Y-101992285D01*
X118339593Y-101992285D02*
X118315403Y-102040666D01*
X118315403Y-102040666D02*
X118291212Y-102064856D01*
X118291212Y-102064856D02*
X118242831Y-102089047D01*
X118242831Y-102089047D02*
X118146069Y-102113237D01*
X118146069Y-102113237D02*
X118025117Y-102113237D01*
X118025117Y-102113237D02*
X117928355Y-102089047D01*
X117928355Y-102089047D02*
X117879974Y-102064856D01*
X117879974Y-102064856D02*
X117855784Y-102040666D01*
X117855784Y-102040666D02*
X117831593Y-101992285D01*
X117831593Y-101992285D02*
X117831593Y-101943904D01*
X117831593Y-101943904D02*
X117855784Y-101895523D01*
X117855784Y-101895523D02*
X117879974Y-101871332D01*
X117879974Y-101871332D02*
X117928355Y-101847142D01*
X117928355Y-101847142D02*
X118025117Y-101822951D01*
X118025117Y-101822951D02*
X118146069Y-101822951D01*
X118146069Y-101822951D02*
X118242831Y-101847142D01*
X118242831Y-101847142D02*
X118291212Y-101871332D01*
X118291212Y-101871332D02*
X118315403Y-101895523D01*
X118315403Y-101895523D02*
X118339593Y-101943904D01*
X118170260Y-102548666D02*
X117831593Y-102548666D01*
X118363784Y-102427714D02*
X118000926Y-102306761D01*
X118000926Y-102306761D02*
X118000926Y-102621238D01*
X178740406Y-99936095D02*
X178740406Y-99887714D01*
X178740406Y-99887714D02*
X178764596Y-99839333D01*
X178764596Y-99839333D02*
X178788787Y-99815143D01*
X178788787Y-99815143D02*
X178837168Y-99790952D01*
X178837168Y-99790952D02*
X178933930Y-99766762D01*
X178933930Y-99766762D02*
X179054882Y-99766762D01*
X179054882Y-99766762D02*
X179151644Y-99790952D01*
X179151644Y-99790952D02*
X179200025Y-99815143D01*
X179200025Y-99815143D02*
X179224216Y-99839333D01*
X179224216Y-99839333D02*
X179248406Y-99887714D01*
X179248406Y-99887714D02*
X179248406Y-99936095D01*
X179248406Y-99936095D02*
X179224216Y-99984476D01*
X179224216Y-99984476D02*
X179200025Y-100008667D01*
X179200025Y-100008667D02*
X179151644Y-100032857D01*
X179151644Y-100032857D02*
X179054882Y-100057048D01*
X179054882Y-100057048D02*
X178933930Y-100057048D01*
X178933930Y-100057048D02*
X178837168Y-100032857D01*
X178837168Y-100032857D02*
X178788787Y-100008667D01*
X178788787Y-100008667D02*
X178764596Y-99984476D01*
X178764596Y-99984476D02*
X178740406Y-99936095D01*
X178740406Y-99597428D02*
X178740406Y-99282952D01*
X178740406Y-99282952D02*
X178933930Y-99452285D01*
X178933930Y-99452285D02*
X178933930Y-99379714D01*
X178933930Y-99379714D02*
X178958120Y-99331333D01*
X178958120Y-99331333D02*
X178982311Y-99307142D01*
X178982311Y-99307142D02*
X179030692Y-99282952D01*
X179030692Y-99282952D02*
X179151644Y-99282952D01*
X179151644Y-99282952D02*
X179200025Y-99307142D01*
X179200025Y-99307142D02*
X179224216Y-99331333D01*
X179224216Y-99331333D02*
X179248406Y-99379714D01*
X179248406Y-99379714D02*
X179248406Y-99524857D01*
X179248406Y-99524857D02*
X179224216Y-99573238D01*
X179224216Y-99573238D02*
X179200025Y-99597428D01*
D10*
X154794762Y-116396819D02*
X154985238Y-116396819D01*
X154985238Y-116396819D02*
X155080476Y-116444438D01*
X155080476Y-116444438D02*
X155175714Y-116539676D01*
X155175714Y-116539676D02*
X155223333Y-116730152D01*
X155223333Y-116730152D02*
X155223333Y-117063485D01*
X155223333Y-117063485D02*
X155175714Y-117253961D01*
X155175714Y-117253961D02*
X155080476Y-117349200D01*
X155080476Y-117349200D02*
X154985238Y-117396819D01*
X154985238Y-117396819D02*
X154794762Y-117396819D01*
X154794762Y-117396819D02*
X154699524Y-117349200D01*
X154699524Y-117349200D02*
X154604286Y-117253961D01*
X154604286Y-117253961D02*
X154556667Y-117063485D01*
X154556667Y-117063485D02*
X154556667Y-116730152D01*
X154556667Y-116730152D02*
X154604286Y-116539676D01*
X154604286Y-116539676D02*
X154699524Y-116444438D01*
X154699524Y-116444438D02*
X154794762Y-116396819D01*
D11*
X178740406Y-97396095D02*
X178740406Y-97347714D01*
X178740406Y-97347714D02*
X178764596Y-97299333D01*
X178764596Y-97299333D02*
X178788787Y-97275143D01*
X178788787Y-97275143D02*
X178837168Y-97250952D01*
X178837168Y-97250952D02*
X178933930Y-97226762D01*
X178933930Y-97226762D02*
X179054882Y-97226762D01*
X179054882Y-97226762D02*
X179151644Y-97250952D01*
X179151644Y-97250952D02*
X179200025Y-97275143D01*
X179200025Y-97275143D02*
X179224216Y-97299333D01*
X179224216Y-97299333D02*
X179248406Y-97347714D01*
X179248406Y-97347714D02*
X179248406Y-97396095D01*
X179248406Y-97396095D02*
X179224216Y-97444476D01*
X179224216Y-97444476D02*
X179200025Y-97468667D01*
X179200025Y-97468667D02*
X179151644Y-97492857D01*
X179151644Y-97492857D02*
X179054882Y-97517048D01*
X179054882Y-97517048D02*
X178933930Y-97517048D01*
X178933930Y-97517048D02*
X178837168Y-97492857D01*
X178837168Y-97492857D02*
X178788787Y-97468667D01*
X178788787Y-97468667D02*
X178764596Y-97444476D01*
X178764596Y-97444476D02*
X178740406Y-97396095D01*
X178788787Y-97033238D02*
X178764596Y-97009047D01*
X178764596Y-97009047D02*
X178740406Y-96960666D01*
X178740406Y-96960666D02*
X178740406Y-96839714D01*
X178740406Y-96839714D02*
X178764596Y-96791333D01*
X178764596Y-96791333D02*
X178788787Y-96767142D01*
X178788787Y-96767142D02*
X178837168Y-96742952D01*
X178837168Y-96742952D02*
X178885549Y-96742952D01*
X178885549Y-96742952D02*
X178958120Y-96767142D01*
X178958120Y-96767142D02*
X179248406Y-97057428D01*
X179248406Y-97057428D02*
X179248406Y-96742952D01*
D10*
X136824286Y-90472819D02*
X136824286Y-89472819D01*
X136824286Y-89949009D02*
X137395714Y-89949009D01*
X137395714Y-90472819D02*
X137395714Y-89472819D01*
X129275714Y-116873009D02*
X129609047Y-116873009D01*
X129751904Y-117396819D02*
X129275714Y-117396819D01*
X129275714Y-117396819D02*
X129275714Y-116396819D01*
X129275714Y-116396819D02*
X129751904Y-116396819D01*
X157168095Y-117396819D02*
X157168095Y-116396819D01*
X157168095Y-116396819D02*
X157549047Y-116396819D01*
X157549047Y-116396819D02*
X157644285Y-116444438D01*
X157644285Y-116444438D02*
X157691904Y-116492057D01*
X157691904Y-116492057D02*
X157739523Y-116587295D01*
X157739523Y-116587295D02*
X157739523Y-116730152D01*
X157739523Y-116730152D02*
X157691904Y-116825390D01*
X157691904Y-116825390D02*
X157644285Y-116873009D01*
X157644285Y-116873009D02*
X157549047Y-116920628D01*
X157549047Y-116920628D02*
X157168095Y-116920628D01*
D11*
X178740406Y-112636095D02*
X178740406Y-112587714D01*
X178740406Y-112587714D02*
X178764596Y-112539333D01*
X178764596Y-112539333D02*
X178788787Y-112515143D01*
X178788787Y-112515143D02*
X178837168Y-112490952D01*
X178837168Y-112490952D02*
X178933930Y-112466762D01*
X178933930Y-112466762D02*
X179054882Y-112466762D01*
X179054882Y-112466762D02*
X179151644Y-112490952D01*
X179151644Y-112490952D02*
X179200025Y-112515143D01*
X179200025Y-112515143D02*
X179224216Y-112539333D01*
X179224216Y-112539333D02*
X179248406Y-112587714D01*
X179248406Y-112587714D02*
X179248406Y-112636095D01*
X179248406Y-112636095D02*
X179224216Y-112684476D01*
X179224216Y-112684476D02*
X179200025Y-112708667D01*
X179200025Y-112708667D02*
X179151644Y-112732857D01*
X179151644Y-112732857D02*
X179054882Y-112757048D01*
X179054882Y-112757048D02*
X178933930Y-112757048D01*
X178933930Y-112757048D02*
X178837168Y-112732857D01*
X178837168Y-112732857D02*
X178788787Y-112708667D01*
X178788787Y-112708667D02*
X178764596Y-112684476D01*
X178764596Y-112684476D02*
X178740406Y-112636095D01*
X178958120Y-112176476D02*
X178933930Y-112224857D01*
X178933930Y-112224857D02*
X178909739Y-112249047D01*
X178909739Y-112249047D02*
X178861358Y-112273238D01*
X178861358Y-112273238D02*
X178837168Y-112273238D01*
X178837168Y-112273238D02*
X178788787Y-112249047D01*
X178788787Y-112249047D02*
X178764596Y-112224857D01*
X178764596Y-112224857D02*
X178740406Y-112176476D01*
X178740406Y-112176476D02*
X178740406Y-112079714D01*
X178740406Y-112079714D02*
X178764596Y-112031333D01*
X178764596Y-112031333D02*
X178788787Y-112007142D01*
X178788787Y-112007142D02*
X178837168Y-111982952D01*
X178837168Y-111982952D02*
X178861358Y-111982952D01*
X178861358Y-111982952D02*
X178909739Y-112007142D01*
X178909739Y-112007142D02*
X178933930Y-112031333D01*
X178933930Y-112031333D02*
X178958120Y-112079714D01*
X178958120Y-112079714D02*
X178958120Y-112176476D01*
X178958120Y-112176476D02*
X178982311Y-112224857D01*
X178982311Y-112224857D02*
X179006501Y-112249047D01*
X179006501Y-112249047D02*
X179054882Y-112273238D01*
X179054882Y-112273238D02*
X179151644Y-112273238D01*
X179151644Y-112273238D02*
X179200025Y-112249047D01*
X179200025Y-112249047D02*
X179224216Y-112224857D01*
X179224216Y-112224857D02*
X179248406Y-112176476D01*
X179248406Y-112176476D02*
X179248406Y-112079714D01*
X179248406Y-112079714D02*
X179224216Y-112031333D01*
X179224216Y-112031333D02*
X179200025Y-112007142D01*
X179200025Y-112007142D02*
X179151644Y-111982952D01*
X179151644Y-111982952D02*
X179054882Y-111982952D01*
X179054882Y-111982952D02*
X179006501Y-112007142D01*
X179006501Y-112007142D02*
X178982311Y-112031333D01*
X178982311Y-112031333D02*
X178958120Y-112079714D01*
D10*
X160350952Y-90568057D02*
X160255714Y-90520438D01*
X160255714Y-90520438D02*
X160160476Y-90425200D01*
X160160476Y-90425200D02*
X160017619Y-90282342D01*
X160017619Y-90282342D02*
X159922381Y-90234723D01*
X159922381Y-90234723D02*
X159827143Y-90234723D01*
X159874762Y-90472819D02*
X159779524Y-90425200D01*
X159779524Y-90425200D02*
X159684286Y-90329961D01*
X159684286Y-90329961D02*
X159636667Y-90139485D01*
X159636667Y-90139485D02*
X159636667Y-89806152D01*
X159636667Y-89806152D02*
X159684286Y-89615676D01*
X159684286Y-89615676D02*
X159779524Y-89520438D01*
X159779524Y-89520438D02*
X159874762Y-89472819D01*
X159874762Y-89472819D02*
X160065238Y-89472819D01*
X160065238Y-89472819D02*
X160160476Y-89520438D01*
X160160476Y-89520438D02*
X160255714Y-89615676D01*
X160255714Y-89615676D02*
X160303333Y-89806152D01*
X160303333Y-89806152D02*
X160303333Y-90139485D01*
X160303333Y-90139485D02*
X160255714Y-90329961D01*
X160255714Y-90329961D02*
X160160476Y-90425200D01*
X160160476Y-90425200D02*
X160065238Y-90472819D01*
X160065238Y-90472819D02*
X159874762Y-90472819D01*
X147579523Y-117396819D02*
X147103333Y-117396819D01*
X147103333Y-117396819D02*
X147103333Y-116396819D01*
D11*
X178740406Y-110096095D02*
X178740406Y-110047714D01*
X178740406Y-110047714D02*
X178764596Y-109999333D01*
X178764596Y-109999333D02*
X178788787Y-109975143D01*
X178788787Y-109975143D02*
X178837168Y-109950952D01*
X178837168Y-109950952D02*
X178933930Y-109926762D01*
X178933930Y-109926762D02*
X179054882Y-109926762D01*
X179054882Y-109926762D02*
X179151644Y-109950952D01*
X179151644Y-109950952D02*
X179200025Y-109975143D01*
X179200025Y-109975143D02*
X179224216Y-109999333D01*
X179224216Y-109999333D02*
X179248406Y-110047714D01*
X179248406Y-110047714D02*
X179248406Y-110096095D01*
X179248406Y-110096095D02*
X179224216Y-110144476D01*
X179224216Y-110144476D02*
X179200025Y-110168667D01*
X179200025Y-110168667D02*
X179151644Y-110192857D01*
X179151644Y-110192857D02*
X179054882Y-110217048D01*
X179054882Y-110217048D02*
X178933930Y-110217048D01*
X178933930Y-110217048D02*
X178837168Y-110192857D01*
X178837168Y-110192857D02*
X178788787Y-110168667D01*
X178788787Y-110168667D02*
X178764596Y-110144476D01*
X178764596Y-110144476D02*
X178740406Y-110096095D01*
X178740406Y-109757428D02*
X178740406Y-109418761D01*
X178740406Y-109418761D02*
X179248406Y-109636476D01*
D10*
X162819523Y-90472819D02*
X162486190Y-89996628D01*
X162248095Y-90472819D02*
X162248095Y-89472819D01*
X162248095Y-89472819D02*
X162629047Y-89472819D01*
X162629047Y-89472819D02*
X162724285Y-89520438D01*
X162724285Y-89520438D02*
X162771904Y-89568057D01*
X162771904Y-89568057D02*
X162819523Y-89663295D01*
X162819523Y-89663295D02*
X162819523Y-89806152D01*
X162819523Y-89806152D02*
X162771904Y-89901390D01*
X162771904Y-89901390D02*
X162724285Y-89949009D01*
X162724285Y-89949009D02*
X162629047Y-89996628D01*
X162629047Y-89996628D02*
X162248095Y-89996628D01*
X167304286Y-89472819D02*
X167875714Y-89472819D01*
X167590000Y-90472819D02*
X167590000Y-89472819D01*
X134831904Y-89520438D02*
X134736666Y-89472819D01*
X134736666Y-89472819D02*
X134593809Y-89472819D01*
X134593809Y-89472819D02*
X134450952Y-89520438D01*
X134450952Y-89520438D02*
X134355714Y-89615676D01*
X134355714Y-89615676D02*
X134308095Y-89710914D01*
X134308095Y-89710914D02*
X134260476Y-89901390D01*
X134260476Y-89901390D02*
X134260476Y-90044247D01*
X134260476Y-90044247D02*
X134308095Y-90234723D01*
X134308095Y-90234723D02*
X134355714Y-90329961D01*
X134355714Y-90329961D02*
X134450952Y-90425200D01*
X134450952Y-90425200D02*
X134593809Y-90472819D01*
X134593809Y-90472819D02*
X134689047Y-90472819D01*
X134689047Y-90472819D02*
X134831904Y-90425200D01*
X134831904Y-90425200D02*
X134879523Y-90377580D01*
X134879523Y-90377580D02*
X134879523Y-90044247D01*
X134879523Y-90044247D02*
X134689047Y-90044247D01*
X142332857Y-89472819D02*
X142332857Y-90187104D01*
X142332857Y-90187104D02*
X142285238Y-90329961D01*
X142285238Y-90329961D02*
X142190000Y-90425200D01*
X142190000Y-90425200D02*
X142047143Y-90472819D01*
X142047143Y-90472819D02*
X141951905Y-90472819D01*
X119091905Y-117111104D02*
X119568095Y-117111104D01*
X118996667Y-117396819D02*
X119330000Y-116396819D01*
X119330000Y-116396819D02*
X119663333Y-117396819D01*
D11*
X178740406Y-102476095D02*
X178740406Y-102427714D01*
X178740406Y-102427714D02*
X178764596Y-102379333D01*
X178764596Y-102379333D02*
X178788787Y-102355143D01*
X178788787Y-102355143D02*
X178837168Y-102330952D01*
X178837168Y-102330952D02*
X178933930Y-102306762D01*
X178933930Y-102306762D02*
X179054882Y-102306762D01*
X179054882Y-102306762D02*
X179151644Y-102330952D01*
X179151644Y-102330952D02*
X179200025Y-102355143D01*
X179200025Y-102355143D02*
X179224216Y-102379333D01*
X179224216Y-102379333D02*
X179248406Y-102427714D01*
X179248406Y-102427714D02*
X179248406Y-102476095D01*
X179248406Y-102476095D02*
X179224216Y-102524476D01*
X179224216Y-102524476D02*
X179200025Y-102548667D01*
X179200025Y-102548667D02*
X179151644Y-102572857D01*
X179151644Y-102572857D02*
X179054882Y-102597048D01*
X179054882Y-102597048D02*
X178933930Y-102597048D01*
X178933930Y-102597048D02*
X178837168Y-102572857D01*
X178837168Y-102572857D02*
X178788787Y-102548667D01*
X178788787Y-102548667D02*
X178764596Y-102524476D01*
X178764596Y-102524476D02*
X178740406Y-102476095D01*
X178909739Y-101871333D02*
X179248406Y-101871333D01*
X178716216Y-101992285D02*
X179079073Y-102113238D01*
X179079073Y-102113238D02*
X179079073Y-101798761D01*
D10*
X139650000Y-90472819D02*
X139650000Y-89472819D01*
X160350952Y-117492057D02*
X160255714Y-117444438D01*
X160255714Y-117444438D02*
X160160476Y-117349200D01*
X160160476Y-117349200D02*
X160017619Y-117206342D01*
X160017619Y-117206342D02*
X159922381Y-117158723D01*
X159922381Y-117158723D02*
X159827143Y-117158723D01*
X159874762Y-117396819D02*
X159779524Y-117349200D01*
X159779524Y-117349200D02*
X159684286Y-117253961D01*
X159684286Y-117253961D02*
X159636667Y-117063485D01*
X159636667Y-117063485D02*
X159636667Y-116730152D01*
X159636667Y-116730152D02*
X159684286Y-116539676D01*
X159684286Y-116539676D02*
X159779524Y-116444438D01*
X159779524Y-116444438D02*
X159874762Y-116396819D01*
X159874762Y-116396819D02*
X160065238Y-116396819D01*
X160065238Y-116396819D02*
X160160476Y-116444438D01*
X160160476Y-116444438D02*
X160255714Y-116539676D01*
X160255714Y-116539676D02*
X160303333Y-116730152D01*
X160303333Y-116730152D02*
X160303333Y-117063485D01*
X160303333Y-117063485D02*
X160255714Y-117253961D01*
X160255714Y-117253961D02*
X160160476Y-117349200D01*
X160160476Y-117349200D02*
X160065238Y-117396819D01*
X160065238Y-117396819D02*
X159874762Y-117396819D01*
X164764286Y-90425200D02*
X164907143Y-90472819D01*
X164907143Y-90472819D02*
X165145238Y-90472819D01*
X165145238Y-90472819D02*
X165240476Y-90425200D01*
X165240476Y-90425200D02*
X165288095Y-90377580D01*
X165288095Y-90377580D02*
X165335714Y-90282342D01*
X165335714Y-90282342D02*
X165335714Y-90187104D01*
X165335714Y-90187104D02*
X165288095Y-90091866D01*
X165288095Y-90091866D02*
X165240476Y-90044247D01*
X165240476Y-90044247D02*
X165145238Y-89996628D01*
X165145238Y-89996628D02*
X164954762Y-89949009D01*
X164954762Y-89949009D02*
X164859524Y-89901390D01*
X164859524Y-89901390D02*
X164811905Y-89853771D01*
X164811905Y-89853771D02*
X164764286Y-89758533D01*
X164764286Y-89758533D02*
X164764286Y-89663295D01*
X164764286Y-89663295D02*
X164811905Y-89568057D01*
X164811905Y-89568057D02*
X164859524Y-89520438D01*
X164859524Y-89520438D02*
X164954762Y-89472819D01*
X164954762Y-89472819D02*
X165192857Y-89472819D01*
X165192857Y-89472819D02*
X165335714Y-89520438D01*
X152064286Y-90472819D02*
X152064286Y-89472819D01*
X152064286Y-89472819D02*
X152635714Y-90472819D01*
X152635714Y-90472819D02*
X152635714Y-89472819D01*
D11*
X118339593Y-94323904D02*
X118339593Y-94372285D01*
X118339593Y-94372285D02*
X118315403Y-94420666D01*
X118315403Y-94420666D02*
X118291212Y-94444856D01*
X118291212Y-94444856D02*
X118242831Y-94469047D01*
X118242831Y-94469047D02*
X118146069Y-94493237D01*
X118146069Y-94493237D02*
X118025117Y-94493237D01*
X118025117Y-94493237D02*
X117928355Y-94469047D01*
X117928355Y-94469047D02*
X117879974Y-94444856D01*
X117879974Y-94444856D02*
X117855784Y-94420666D01*
X117855784Y-94420666D02*
X117831593Y-94372285D01*
X117831593Y-94372285D02*
X117831593Y-94323904D01*
X117831593Y-94323904D02*
X117855784Y-94275523D01*
X117855784Y-94275523D02*
X117879974Y-94251332D01*
X117879974Y-94251332D02*
X117928355Y-94227142D01*
X117928355Y-94227142D02*
X118025117Y-94202951D01*
X118025117Y-94202951D02*
X118146069Y-94202951D01*
X118146069Y-94202951D02*
X118242831Y-94227142D01*
X118242831Y-94227142D02*
X118291212Y-94251332D01*
X118291212Y-94251332D02*
X118315403Y-94275523D01*
X118315403Y-94275523D02*
X118339593Y-94323904D01*
X117831593Y-94977047D02*
X117831593Y-94686761D01*
X117831593Y-94831904D02*
X118339593Y-94831904D01*
X118339593Y-94831904D02*
X118267022Y-94783523D01*
X118267022Y-94783523D02*
X118218641Y-94735142D01*
X118218641Y-94735142D02*
X118194450Y-94686761D01*
X118339593Y-107023904D02*
X118339593Y-107072285D01*
X118339593Y-107072285D02*
X118315403Y-107120666D01*
X118315403Y-107120666D02*
X118291212Y-107144856D01*
X118291212Y-107144856D02*
X118242831Y-107169047D01*
X118242831Y-107169047D02*
X118146069Y-107193237D01*
X118146069Y-107193237D02*
X118025117Y-107193237D01*
X118025117Y-107193237D02*
X117928355Y-107169047D01*
X117928355Y-107169047D02*
X117879974Y-107144856D01*
X117879974Y-107144856D02*
X117855784Y-107120666D01*
X117855784Y-107120666D02*
X117831593Y-107072285D01*
X117831593Y-107072285D02*
X117831593Y-107023904D01*
X117831593Y-107023904D02*
X117855784Y-106975523D01*
X117855784Y-106975523D02*
X117879974Y-106951332D01*
X117879974Y-106951332D02*
X117928355Y-106927142D01*
X117928355Y-106927142D02*
X118025117Y-106902951D01*
X118025117Y-106902951D02*
X118146069Y-106902951D01*
X118146069Y-106902951D02*
X118242831Y-106927142D01*
X118242831Y-106927142D02*
X118291212Y-106951332D01*
X118291212Y-106951332D02*
X118315403Y-106975523D01*
X118315403Y-106975523D02*
X118339593Y-107023904D01*
X118339593Y-107628666D02*
X118339593Y-107531904D01*
X118339593Y-107531904D02*
X118315403Y-107483523D01*
X118315403Y-107483523D02*
X118291212Y-107459333D01*
X118291212Y-107459333D02*
X118218641Y-107410952D01*
X118218641Y-107410952D02*
X118121879Y-107386761D01*
X118121879Y-107386761D02*
X117928355Y-107386761D01*
X117928355Y-107386761D02*
X117879974Y-107410952D01*
X117879974Y-107410952D02*
X117855784Y-107435142D01*
X117855784Y-107435142D02*
X117831593Y-107483523D01*
X117831593Y-107483523D02*
X117831593Y-107580285D01*
X117831593Y-107580285D02*
X117855784Y-107628666D01*
X117855784Y-107628666D02*
X117879974Y-107652857D01*
X117879974Y-107652857D02*
X117928355Y-107677047D01*
X117928355Y-107677047D02*
X118049307Y-107677047D01*
X118049307Y-107677047D02*
X118097688Y-107652857D01*
X118097688Y-107652857D02*
X118121879Y-107628666D01*
X118121879Y-107628666D02*
X118146069Y-107580285D01*
X118146069Y-107580285D02*
X118146069Y-107483523D01*
X118146069Y-107483523D02*
X118121879Y-107435142D01*
X118121879Y-107435142D02*
X118097688Y-107410952D01*
X118097688Y-107410952D02*
X118049307Y-107386761D01*
D10*
X121941428Y-116873009D02*
X122084285Y-116920628D01*
X122084285Y-116920628D02*
X122131904Y-116968247D01*
X122131904Y-116968247D02*
X122179523Y-117063485D01*
X122179523Y-117063485D02*
X122179523Y-117206342D01*
X122179523Y-117206342D02*
X122131904Y-117301580D01*
X122131904Y-117301580D02*
X122084285Y-117349200D01*
X122084285Y-117349200D02*
X121989047Y-117396819D01*
X121989047Y-117396819D02*
X121608095Y-117396819D01*
X121608095Y-117396819D02*
X121608095Y-116396819D01*
X121608095Y-116396819D02*
X121941428Y-116396819D01*
X121941428Y-116396819D02*
X122036666Y-116444438D01*
X122036666Y-116444438D02*
X122084285Y-116492057D01*
X122084285Y-116492057D02*
X122131904Y-116587295D01*
X122131904Y-116587295D02*
X122131904Y-116682533D01*
X122131904Y-116682533D02*
X122084285Y-116777771D01*
X122084285Y-116777771D02*
X122036666Y-116825390D01*
X122036666Y-116825390D02*
X121941428Y-116873009D01*
X121941428Y-116873009D02*
X121608095Y-116873009D01*
X124719523Y-117301580D02*
X124671904Y-117349200D01*
X124671904Y-117349200D02*
X124529047Y-117396819D01*
X124529047Y-117396819D02*
X124433809Y-117396819D01*
X124433809Y-117396819D02*
X124290952Y-117349200D01*
X124290952Y-117349200D02*
X124195714Y-117253961D01*
X124195714Y-117253961D02*
X124148095Y-117158723D01*
X124148095Y-117158723D02*
X124100476Y-116968247D01*
X124100476Y-116968247D02*
X124100476Y-116825390D01*
X124100476Y-116825390D02*
X124148095Y-116634914D01*
X124148095Y-116634914D02*
X124195714Y-116539676D01*
X124195714Y-116539676D02*
X124290952Y-116444438D01*
X124290952Y-116444438D02*
X124433809Y-116396819D01*
X124433809Y-116396819D02*
X124529047Y-116396819D01*
X124529047Y-116396819D02*
X124671904Y-116444438D01*
X124671904Y-116444438D02*
X124719523Y-116492057D01*
X129275714Y-89949009D02*
X129609047Y-89949009D01*
X129751904Y-90472819D02*
X129275714Y-90472819D01*
X129275714Y-90472819D02*
X129275714Y-89472819D01*
X129275714Y-89472819D02*
X129751904Y-89472819D01*
X126688095Y-90472819D02*
X126688095Y-89472819D01*
X126688095Y-89472819D02*
X126926190Y-89472819D01*
X126926190Y-89472819D02*
X127069047Y-89520438D01*
X127069047Y-89520438D02*
X127164285Y-89615676D01*
X127164285Y-89615676D02*
X127211904Y-89710914D01*
X127211904Y-89710914D02*
X127259523Y-89901390D01*
X127259523Y-89901390D02*
X127259523Y-90044247D01*
X127259523Y-90044247D02*
X127211904Y-90234723D01*
X127211904Y-90234723D02*
X127164285Y-90329961D01*
X127164285Y-90329961D02*
X127069047Y-90425200D01*
X127069047Y-90425200D02*
X126926190Y-90472819D01*
X126926190Y-90472819D02*
X126688095Y-90472819D01*
X149476667Y-90472819D02*
X149476667Y-89472819D01*
X149476667Y-89472819D02*
X149810000Y-90187104D01*
X149810000Y-90187104D02*
X150143333Y-89472819D01*
X150143333Y-89472819D02*
X150143333Y-90472819D01*
X147579523Y-90472819D02*
X147103333Y-90472819D01*
X147103333Y-90472819D02*
X147103333Y-89472819D01*
X167304286Y-116396819D02*
X167875714Y-116396819D01*
X167590000Y-117396819D02*
X167590000Y-116396819D01*
D11*
X178740406Y-107556095D02*
X178740406Y-107507714D01*
X178740406Y-107507714D02*
X178764596Y-107459333D01*
X178764596Y-107459333D02*
X178788787Y-107435143D01*
X178788787Y-107435143D02*
X178837168Y-107410952D01*
X178837168Y-107410952D02*
X178933930Y-107386762D01*
X178933930Y-107386762D02*
X179054882Y-107386762D01*
X179054882Y-107386762D02*
X179151644Y-107410952D01*
X179151644Y-107410952D02*
X179200025Y-107435143D01*
X179200025Y-107435143D02*
X179224216Y-107459333D01*
X179224216Y-107459333D02*
X179248406Y-107507714D01*
X179248406Y-107507714D02*
X179248406Y-107556095D01*
X179248406Y-107556095D02*
X179224216Y-107604476D01*
X179224216Y-107604476D02*
X179200025Y-107628667D01*
X179200025Y-107628667D02*
X179151644Y-107652857D01*
X179151644Y-107652857D02*
X179054882Y-107677048D01*
X179054882Y-107677048D02*
X178933930Y-107677048D01*
X178933930Y-107677048D02*
X178837168Y-107652857D01*
X178837168Y-107652857D02*
X178788787Y-107628667D01*
X178788787Y-107628667D02*
X178764596Y-107604476D01*
X178764596Y-107604476D02*
X178740406Y-107556095D01*
X178740406Y-106951333D02*
X178740406Y-107048095D01*
X178740406Y-107048095D02*
X178764596Y-107096476D01*
X178764596Y-107096476D02*
X178788787Y-107120666D01*
X178788787Y-107120666D02*
X178861358Y-107169047D01*
X178861358Y-107169047D02*
X178958120Y-107193238D01*
X178958120Y-107193238D02*
X179151644Y-107193238D01*
X179151644Y-107193238D02*
X179200025Y-107169047D01*
X179200025Y-107169047D02*
X179224216Y-107144857D01*
X179224216Y-107144857D02*
X179248406Y-107096476D01*
X179248406Y-107096476D02*
X179248406Y-106999714D01*
X179248406Y-106999714D02*
X179224216Y-106951333D01*
X179224216Y-106951333D02*
X179200025Y-106927142D01*
X179200025Y-106927142D02*
X179151644Y-106902952D01*
X179151644Y-106902952D02*
X179030692Y-106902952D01*
X179030692Y-106902952D02*
X178982311Y-106927142D01*
X178982311Y-106927142D02*
X178958120Y-106951333D01*
X178958120Y-106951333D02*
X178933930Y-106999714D01*
X178933930Y-106999714D02*
X178933930Y-107096476D01*
X178933930Y-107096476D02*
X178958120Y-107144857D01*
X178958120Y-107144857D02*
X178982311Y-107169047D01*
X178982311Y-107169047D02*
X179030692Y-107193238D01*
X178740406Y-105016095D02*
X178740406Y-104967714D01*
X178740406Y-104967714D02*
X178764596Y-104919333D01*
X178764596Y-104919333D02*
X178788787Y-104895143D01*
X178788787Y-104895143D02*
X178837168Y-104870952D01*
X178837168Y-104870952D02*
X178933930Y-104846762D01*
X178933930Y-104846762D02*
X179054882Y-104846762D01*
X179054882Y-104846762D02*
X179151644Y-104870952D01*
X179151644Y-104870952D02*
X179200025Y-104895143D01*
X179200025Y-104895143D02*
X179224216Y-104919333D01*
X179224216Y-104919333D02*
X179248406Y-104967714D01*
X179248406Y-104967714D02*
X179248406Y-105016095D01*
X179248406Y-105016095D02*
X179224216Y-105064476D01*
X179224216Y-105064476D02*
X179200025Y-105088667D01*
X179200025Y-105088667D02*
X179151644Y-105112857D01*
X179151644Y-105112857D02*
X179054882Y-105137048D01*
X179054882Y-105137048D02*
X178933930Y-105137048D01*
X178933930Y-105137048D02*
X178837168Y-105112857D01*
X178837168Y-105112857D02*
X178788787Y-105088667D01*
X178788787Y-105088667D02*
X178764596Y-105064476D01*
X178764596Y-105064476D02*
X178740406Y-105016095D01*
X178740406Y-104387142D02*
X178740406Y-104629047D01*
X178740406Y-104629047D02*
X178982311Y-104653238D01*
X178982311Y-104653238D02*
X178958120Y-104629047D01*
X178958120Y-104629047D02*
X178933930Y-104580666D01*
X178933930Y-104580666D02*
X178933930Y-104459714D01*
X178933930Y-104459714D02*
X178958120Y-104411333D01*
X178958120Y-104411333D02*
X178982311Y-104387142D01*
X178982311Y-104387142D02*
X179030692Y-104362952D01*
X179030692Y-104362952D02*
X179151644Y-104362952D01*
X179151644Y-104362952D02*
X179200025Y-104387142D01*
X179200025Y-104387142D02*
X179224216Y-104411333D01*
X179224216Y-104411333D02*
X179248406Y-104459714D01*
X179248406Y-104459714D02*
X179248406Y-104580666D01*
X179248406Y-104580666D02*
X179224216Y-104629047D01*
X179224216Y-104629047D02*
X179200025Y-104653238D01*
D10*
X144468095Y-117396819D02*
X144468095Y-116396819D01*
X145039523Y-117396819D02*
X144610952Y-116825390D01*
X145039523Y-116396819D02*
X144468095Y-116968247D01*
X124719523Y-90377580D02*
X124671904Y-90425200D01*
X124671904Y-90425200D02*
X124529047Y-90472819D01*
X124529047Y-90472819D02*
X124433809Y-90472819D01*
X124433809Y-90472819D02*
X124290952Y-90425200D01*
X124290952Y-90425200D02*
X124195714Y-90329961D01*
X124195714Y-90329961D02*
X124148095Y-90234723D01*
X124148095Y-90234723D02*
X124100476Y-90044247D01*
X124100476Y-90044247D02*
X124100476Y-89901390D01*
X124100476Y-89901390D02*
X124148095Y-89710914D01*
X124148095Y-89710914D02*
X124195714Y-89615676D01*
X124195714Y-89615676D02*
X124290952Y-89520438D01*
X124290952Y-89520438D02*
X124433809Y-89472819D01*
X124433809Y-89472819D02*
X124529047Y-89472819D01*
X124529047Y-89472819D02*
X124671904Y-89520438D01*
X124671904Y-89520438D02*
X124719523Y-89568057D01*
D11*
X118339593Y-96863904D02*
X118339593Y-96912285D01*
X118339593Y-96912285D02*
X118315403Y-96960666D01*
X118315403Y-96960666D02*
X118291212Y-96984856D01*
X118291212Y-96984856D02*
X118242831Y-97009047D01*
X118242831Y-97009047D02*
X118146069Y-97033237D01*
X118146069Y-97033237D02*
X118025117Y-97033237D01*
X118025117Y-97033237D02*
X117928355Y-97009047D01*
X117928355Y-97009047D02*
X117879974Y-96984856D01*
X117879974Y-96984856D02*
X117855784Y-96960666D01*
X117855784Y-96960666D02*
X117831593Y-96912285D01*
X117831593Y-96912285D02*
X117831593Y-96863904D01*
X117831593Y-96863904D02*
X117855784Y-96815523D01*
X117855784Y-96815523D02*
X117879974Y-96791332D01*
X117879974Y-96791332D02*
X117928355Y-96767142D01*
X117928355Y-96767142D02*
X118025117Y-96742951D01*
X118025117Y-96742951D02*
X118146069Y-96742951D01*
X118146069Y-96742951D02*
X118242831Y-96767142D01*
X118242831Y-96767142D02*
X118291212Y-96791332D01*
X118291212Y-96791332D02*
X118315403Y-96815523D01*
X118315403Y-96815523D02*
X118339593Y-96863904D01*
X118291212Y-97226761D02*
X118315403Y-97250952D01*
X118315403Y-97250952D02*
X118339593Y-97299333D01*
X118339593Y-97299333D02*
X118339593Y-97420285D01*
X118339593Y-97420285D02*
X118315403Y-97468666D01*
X118315403Y-97468666D02*
X118291212Y-97492857D01*
X118291212Y-97492857D02*
X118242831Y-97517047D01*
X118242831Y-97517047D02*
X118194450Y-97517047D01*
X118194450Y-97517047D02*
X118121879Y-97492857D01*
X118121879Y-97492857D02*
X117831593Y-97202571D01*
X117831593Y-97202571D02*
X117831593Y-97517047D01*
D10*
X152064286Y-117396819D02*
X152064286Y-116396819D01*
X152064286Y-116396819D02*
X152635714Y-117396819D01*
X152635714Y-117396819D02*
X152635714Y-116396819D01*
X126688095Y-117396819D02*
X126688095Y-116396819D01*
X126688095Y-116396819D02*
X126926190Y-116396819D01*
X126926190Y-116396819D02*
X127069047Y-116444438D01*
X127069047Y-116444438D02*
X127164285Y-116539676D01*
X127164285Y-116539676D02*
X127211904Y-116634914D01*
X127211904Y-116634914D02*
X127259523Y-116825390D01*
X127259523Y-116825390D02*
X127259523Y-116968247D01*
X127259523Y-116968247D02*
X127211904Y-117158723D01*
X127211904Y-117158723D02*
X127164285Y-117253961D01*
X127164285Y-117253961D02*
X127069047Y-117349200D01*
X127069047Y-117349200D02*
X126926190Y-117396819D01*
X126926190Y-117396819D02*
X126688095Y-117396819D01*
D11*
X118339593Y-109563904D02*
X118339593Y-109612285D01*
X118339593Y-109612285D02*
X118315403Y-109660666D01*
X118315403Y-109660666D02*
X118291212Y-109684856D01*
X118291212Y-109684856D02*
X118242831Y-109709047D01*
X118242831Y-109709047D02*
X118146069Y-109733237D01*
X118146069Y-109733237D02*
X118025117Y-109733237D01*
X118025117Y-109733237D02*
X117928355Y-109709047D01*
X117928355Y-109709047D02*
X117879974Y-109684856D01*
X117879974Y-109684856D02*
X117855784Y-109660666D01*
X117855784Y-109660666D02*
X117831593Y-109612285D01*
X117831593Y-109612285D02*
X117831593Y-109563904D01*
X117831593Y-109563904D02*
X117855784Y-109515523D01*
X117855784Y-109515523D02*
X117879974Y-109491332D01*
X117879974Y-109491332D02*
X117928355Y-109467142D01*
X117928355Y-109467142D02*
X118025117Y-109442951D01*
X118025117Y-109442951D02*
X118146069Y-109442951D01*
X118146069Y-109442951D02*
X118242831Y-109467142D01*
X118242831Y-109467142D02*
X118291212Y-109491332D01*
X118291212Y-109491332D02*
X118315403Y-109515523D01*
X118315403Y-109515523D02*
X118339593Y-109563904D01*
X118339593Y-109902571D02*
X118339593Y-110241238D01*
X118339593Y-110241238D02*
X117831593Y-110023523D01*
D10*
X164764286Y-117349200D02*
X164907143Y-117396819D01*
X164907143Y-117396819D02*
X165145238Y-117396819D01*
X165145238Y-117396819D02*
X165240476Y-117349200D01*
X165240476Y-117349200D02*
X165288095Y-117301580D01*
X165288095Y-117301580D02*
X165335714Y-117206342D01*
X165335714Y-117206342D02*
X165335714Y-117111104D01*
X165335714Y-117111104D02*
X165288095Y-117015866D01*
X165288095Y-117015866D02*
X165240476Y-116968247D01*
X165240476Y-116968247D02*
X165145238Y-116920628D01*
X165145238Y-116920628D02*
X164954762Y-116873009D01*
X164954762Y-116873009D02*
X164859524Y-116825390D01*
X164859524Y-116825390D02*
X164811905Y-116777771D01*
X164811905Y-116777771D02*
X164764286Y-116682533D01*
X164764286Y-116682533D02*
X164764286Y-116587295D01*
X164764286Y-116587295D02*
X164811905Y-116492057D01*
X164811905Y-116492057D02*
X164859524Y-116444438D01*
X164859524Y-116444438D02*
X164954762Y-116396819D01*
X164954762Y-116396819D02*
X165192857Y-116396819D01*
X165192857Y-116396819D02*
X165335714Y-116444438D01*
X132172857Y-89949009D02*
X131839524Y-89949009D01*
X131839524Y-90472819D02*
X131839524Y-89472819D01*
X131839524Y-89472819D02*
X132315714Y-89472819D01*
X142332857Y-116396819D02*
X142332857Y-117111104D01*
X142332857Y-117111104D02*
X142285238Y-117253961D01*
X142285238Y-117253961D02*
X142190000Y-117349200D01*
X142190000Y-117349200D02*
X142047143Y-117396819D01*
X142047143Y-117396819D02*
X141951905Y-117396819D01*
X149476667Y-117396819D02*
X149476667Y-116396819D01*
X149476667Y-116396819D02*
X149810000Y-117111104D01*
X149810000Y-117111104D02*
X150143333Y-116396819D01*
X150143333Y-116396819D02*
X150143333Y-117396819D01*
D11*
X118339593Y-112103904D02*
X118339593Y-112152285D01*
X118339593Y-112152285D02*
X118315403Y-112200666D01*
X118315403Y-112200666D02*
X118291212Y-112224856D01*
X118291212Y-112224856D02*
X118242831Y-112249047D01*
X118242831Y-112249047D02*
X118146069Y-112273237D01*
X118146069Y-112273237D02*
X118025117Y-112273237D01*
X118025117Y-112273237D02*
X117928355Y-112249047D01*
X117928355Y-112249047D02*
X117879974Y-112224856D01*
X117879974Y-112224856D02*
X117855784Y-112200666D01*
X117855784Y-112200666D02*
X117831593Y-112152285D01*
X117831593Y-112152285D02*
X117831593Y-112103904D01*
X117831593Y-112103904D02*
X117855784Y-112055523D01*
X117855784Y-112055523D02*
X117879974Y-112031332D01*
X117879974Y-112031332D02*
X117928355Y-112007142D01*
X117928355Y-112007142D02*
X118025117Y-111982951D01*
X118025117Y-111982951D02*
X118146069Y-111982951D01*
X118146069Y-111982951D02*
X118242831Y-112007142D01*
X118242831Y-112007142D02*
X118291212Y-112031332D01*
X118291212Y-112031332D02*
X118315403Y-112055523D01*
X118315403Y-112055523D02*
X118339593Y-112103904D01*
X118121879Y-112563523D02*
X118146069Y-112515142D01*
X118146069Y-112515142D02*
X118170260Y-112490952D01*
X118170260Y-112490952D02*
X118218641Y-112466761D01*
X118218641Y-112466761D02*
X118242831Y-112466761D01*
X118242831Y-112466761D02*
X118291212Y-112490952D01*
X118291212Y-112490952D02*
X118315403Y-112515142D01*
X118315403Y-112515142D02*
X118339593Y-112563523D01*
X118339593Y-112563523D02*
X118339593Y-112660285D01*
X118339593Y-112660285D02*
X118315403Y-112708666D01*
X118315403Y-112708666D02*
X118291212Y-112732857D01*
X118291212Y-112732857D02*
X118242831Y-112757047D01*
X118242831Y-112757047D02*
X118218641Y-112757047D01*
X118218641Y-112757047D02*
X118170260Y-112732857D01*
X118170260Y-112732857D02*
X118146069Y-112708666D01*
X118146069Y-112708666D02*
X118121879Y-112660285D01*
X118121879Y-112660285D02*
X118121879Y-112563523D01*
X118121879Y-112563523D02*
X118097688Y-112515142D01*
X118097688Y-112515142D02*
X118073498Y-112490952D01*
X118073498Y-112490952D02*
X118025117Y-112466761D01*
X118025117Y-112466761D02*
X117928355Y-112466761D01*
X117928355Y-112466761D02*
X117879974Y-112490952D01*
X117879974Y-112490952D02*
X117855784Y-112515142D01*
X117855784Y-112515142D02*
X117831593Y-112563523D01*
X117831593Y-112563523D02*
X117831593Y-112660285D01*
X117831593Y-112660285D02*
X117855784Y-112708666D01*
X117855784Y-112708666D02*
X117879974Y-112732857D01*
X117879974Y-112732857D02*
X117928355Y-112757047D01*
X117928355Y-112757047D02*
X118025117Y-112757047D01*
X118025117Y-112757047D02*
X118073498Y-112732857D01*
X118073498Y-112732857D02*
X118097688Y-112708666D01*
X118097688Y-112708666D02*
X118121879Y-112660285D01*
X178740406Y-94856095D02*
X178740406Y-94807714D01*
X178740406Y-94807714D02*
X178764596Y-94759333D01*
X178764596Y-94759333D02*
X178788787Y-94735143D01*
X178788787Y-94735143D02*
X178837168Y-94710952D01*
X178837168Y-94710952D02*
X178933930Y-94686762D01*
X178933930Y-94686762D02*
X179054882Y-94686762D01*
X179054882Y-94686762D02*
X179151644Y-94710952D01*
X179151644Y-94710952D02*
X179200025Y-94735143D01*
X179200025Y-94735143D02*
X179224216Y-94759333D01*
X179224216Y-94759333D02*
X179248406Y-94807714D01*
X179248406Y-94807714D02*
X179248406Y-94856095D01*
X179248406Y-94856095D02*
X179224216Y-94904476D01*
X179224216Y-94904476D02*
X179200025Y-94928667D01*
X179200025Y-94928667D02*
X179151644Y-94952857D01*
X179151644Y-94952857D02*
X179054882Y-94977048D01*
X179054882Y-94977048D02*
X178933930Y-94977048D01*
X178933930Y-94977048D02*
X178837168Y-94952857D01*
X178837168Y-94952857D02*
X178788787Y-94928667D01*
X178788787Y-94928667D02*
X178764596Y-94904476D01*
X178764596Y-94904476D02*
X178740406Y-94856095D01*
X179248406Y-94202952D02*
X179248406Y-94493238D01*
X179248406Y-94348095D02*
X178740406Y-94348095D01*
X178740406Y-94348095D02*
X178812977Y-94396476D01*
X178812977Y-94396476D02*
X178861358Y-94444857D01*
X178861358Y-94444857D02*
X178885549Y-94493238D01*
D10*
X139650000Y-117396819D02*
X139650000Y-116396819D01*
D11*
X118339593Y-104483904D02*
X118339593Y-104532285D01*
X118339593Y-104532285D02*
X118315403Y-104580666D01*
X118315403Y-104580666D02*
X118291212Y-104604856D01*
X118291212Y-104604856D02*
X118242831Y-104629047D01*
X118242831Y-104629047D02*
X118146069Y-104653237D01*
X118146069Y-104653237D02*
X118025117Y-104653237D01*
X118025117Y-104653237D02*
X117928355Y-104629047D01*
X117928355Y-104629047D02*
X117879974Y-104604856D01*
X117879974Y-104604856D02*
X117855784Y-104580666D01*
X117855784Y-104580666D02*
X117831593Y-104532285D01*
X117831593Y-104532285D02*
X117831593Y-104483904D01*
X117831593Y-104483904D02*
X117855784Y-104435523D01*
X117855784Y-104435523D02*
X117879974Y-104411332D01*
X117879974Y-104411332D02*
X117928355Y-104387142D01*
X117928355Y-104387142D02*
X118025117Y-104362951D01*
X118025117Y-104362951D02*
X118146069Y-104362951D01*
X118146069Y-104362951D02*
X118242831Y-104387142D01*
X118242831Y-104387142D02*
X118291212Y-104411332D01*
X118291212Y-104411332D02*
X118315403Y-104435523D01*
X118315403Y-104435523D02*
X118339593Y-104483904D01*
X118339593Y-105112857D02*
X118339593Y-104870952D01*
X118339593Y-104870952D02*
X118097688Y-104846761D01*
X118097688Y-104846761D02*
X118121879Y-104870952D01*
X118121879Y-104870952D02*
X118146069Y-104919333D01*
X118146069Y-104919333D02*
X118146069Y-105040285D01*
X118146069Y-105040285D02*
X118121879Y-105088666D01*
X118121879Y-105088666D02*
X118097688Y-105112857D01*
X118097688Y-105112857D02*
X118049307Y-105137047D01*
X118049307Y-105137047D02*
X117928355Y-105137047D01*
X117928355Y-105137047D02*
X117879974Y-105112857D01*
X117879974Y-105112857D02*
X117855784Y-105088666D01*
X117855784Y-105088666D02*
X117831593Y-105040285D01*
X117831593Y-105040285D02*
X117831593Y-104919333D01*
X117831593Y-104919333D02*
X117855784Y-104870952D01*
X117855784Y-104870952D02*
X117879974Y-104846761D01*
D10*
X174781429Y-116396819D02*
X175019524Y-117396819D01*
X175019524Y-117396819D02*
X175210000Y-116682533D01*
X175210000Y-116682533D02*
X175400476Y-117396819D01*
X175400476Y-117396819D02*
X175638572Y-116396819D01*
X174781429Y-89472819D02*
X175019524Y-90472819D01*
X175019524Y-90472819D02*
X175210000Y-89758533D01*
X175210000Y-89758533D02*
X175400476Y-90472819D01*
X175400476Y-90472819D02*
X175638572Y-89472819D01*
X177416667Y-116396819D02*
X178083333Y-117396819D01*
X178083333Y-116396819D02*
X177416667Y-117396819D01*
X169844286Y-89472819D02*
X169844286Y-90282342D01*
X169844286Y-90282342D02*
X169891905Y-90377580D01*
X169891905Y-90377580D02*
X169939524Y-90425200D01*
X169939524Y-90425200D02*
X170034762Y-90472819D01*
X170034762Y-90472819D02*
X170225238Y-90472819D01*
X170225238Y-90472819D02*
X170320476Y-90425200D01*
X170320476Y-90425200D02*
X170368095Y-90377580D01*
X170368095Y-90377580D02*
X170415714Y-90282342D01*
X170415714Y-90282342D02*
X170415714Y-89472819D01*
D12*
%TO.C,G\u002A\u002A\u002A*%
G36*
X142334115Y-109277915D02*
G01*
X141917132Y-109820841D01*
X140696873Y-109826133D01*
X139477673Y-109831424D01*
X139474498Y-110050499D01*
X139472382Y-110270632D01*
X141008023Y-110270632D01*
X141701827Y-110271261D01*
X142178540Y-110273279D01*
X142340077Y-110274871D01*
X142452847Y-110276884D01*
X142518687Y-110279343D01*
X142534582Y-110280748D01*
X142539432Y-110282274D01*
X142414284Y-110447903D01*
X142119274Y-110832607D01*
X141701232Y-111371299D01*
X140586807Y-111371299D01*
X139472382Y-111371299D01*
X139472382Y-112165049D01*
X139472382Y-112958800D01*
X138816215Y-112958800D01*
X138160048Y-112958800D01*
X138160048Y-110847424D01*
X138160048Y-108736049D01*
X140455574Y-108736049D01*
X142752156Y-108736049D01*
X142334115Y-109277915D01*
G37*
G36*
X157950039Y-108736578D02*
G01*
X158328143Y-108737389D01*
X158607710Y-108738695D01*
X158801801Y-108740597D01*
X158923474Y-108743193D01*
X158961235Y-108744783D01*
X158985789Y-108746583D01*
X158998769Y-108748607D01*
X159001429Y-108749706D01*
X159001807Y-108750866D01*
X158875072Y-108916495D01*
X158581648Y-109294850D01*
X158169957Y-109826133D01*
X157533898Y-109828249D01*
X156897841Y-109831424D01*
X156894666Y-111394583D01*
X156892549Y-112958800D01*
X156236382Y-112958800D01*
X155580216Y-112958800D01*
X155580216Y-111392466D01*
X155580216Y-109826133D01*
X154712382Y-109824016D01*
X153844548Y-109820841D01*
X154210731Y-109344591D01*
X154484443Y-108988594D01*
X154628772Y-108801666D01*
X154680631Y-108736049D01*
X156845982Y-108736049D01*
X157950039Y-108736578D01*
G37*
G36*
X144604603Y-108719989D02*
G01*
X144643283Y-108722076D01*
X144682019Y-108726116D01*
X144720812Y-108732107D01*
X144759664Y-108740049D01*
X144798577Y-108749940D01*
X144837551Y-108761778D01*
X144876589Y-108775561D01*
X144915693Y-108791289D01*
X144954863Y-108808959D01*
X144994101Y-108828570D01*
X145033409Y-108850120D01*
X145072788Y-108873609D01*
X145112240Y-108899033D01*
X145178812Y-108944469D01*
X145242978Y-108998996D01*
X145325251Y-109089961D01*
X145446145Y-109244711D01*
X145626173Y-109490593D01*
X145885849Y-109854956D01*
X146726198Y-111048508D01*
X148066048Y-112953508D01*
X146821449Y-112956683D01*
X144340715Y-112956683D01*
X143104582Y-112953508D01*
X143494048Y-112413757D01*
X143884574Y-111874008D01*
X144769340Y-111868716D01*
X145655165Y-111863425D01*
X145112240Y-111109891D01*
X144900309Y-110817311D01*
X144725684Y-110578211D01*
X144606225Y-110417096D01*
X144572763Y-110373442D01*
X144563576Y-110362181D01*
X144559790Y-110358475D01*
X144276818Y-110740665D01*
X143607290Y-111657050D01*
X142662198Y-112953508D01*
X141846224Y-112956683D01*
X141029190Y-112958800D01*
X141416540Y-112422224D01*
X142794490Y-110508757D01*
X143244662Y-109884986D01*
X143566148Y-109443677D01*
X143681454Y-109287571D01*
X143767975Y-109172430D01*
X143826838Y-109096703D01*
X143846251Y-109073136D01*
X143859173Y-109058841D01*
X143892430Y-109026773D01*
X143927382Y-108995725D01*
X143963841Y-108965800D01*
X144001618Y-108937099D01*
X144040524Y-108909726D01*
X144080369Y-108883782D01*
X144120965Y-108859369D01*
X144162121Y-108836591D01*
X144203650Y-108815549D01*
X144245362Y-108796345D01*
X144287067Y-108779083D01*
X144328577Y-108763863D01*
X144369703Y-108750790D01*
X144410255Y-108739964D01*
X144450044Y-108731489D01*
X144488882Y-108725466D01*
X144527404Y-108721683D01*
X144565977Y-108719858D01*
X144604603Y-108719989D01*
G37*
G36*
X153717548Y-108742399D02*
G01*
X153684905Y-108786882D01*
X153596104Y-108903795D01*
X153304798Y-109284267D01*
X152890991Y-109820841D01*
X151343707Y-109826133D01*
X149796423Y-109831424D01*
X149746682Y-109854706D01*
X149734998Y-109860451D01*
X149724145Y-109866582D01*
X149714115Y-109873112D01*
X149704895Y-109880057D01*
X149696475Y-109887430D01*
X149688844Y-109895244D01*
X149681991Y-109903514D01*
X149675906Y-109912254D01*
X149670577Y-109921478D01*
X149665994Y-109931199D01*
X149662146Y-109941432D01*
X149659022Y-109952190D01*
X149656611Y-109963488D01*
X149654902Y-109975340D01*
X149653885Y-109987758D01*
X149653549Y-110000759D01*
X149653859Y-110013001D01*
X149654247Y-110018929D01*
X149654791Y-110024730D01*
X149655490Y-110030405D01*
X149656346Y-110035954D01*
X149657358Y-110041379D01*
X149658526Y-110046680D01*
X149659851Y-110051859D01*
X149661332Y-110056916D01*
X149662971Y-110061853D01*
X149664766Y-110066670D01*
X149666719Y-110071369D01*
X149668830Y-110075950D01*
X149671098Y-110080415D01*
X149673524Y-110084763D01*
X149676109Y-110088997D01*
X149678851Y-110093117D01*
X149681753Y-110097125D01*
X149684812Y-110101021D01*
X149688031Y-110104805D01*
X149691409Y-110108480D01*
X149694946Y-110112046D01*
X149698643Y-110115504D01*
X149702499Y-110118855D01*
X149706516Y-110122100D01*
X149710692Y-110125240D01*
X149715028Y-110128276D01*
X149719526Y-110131209D01*
X149724183Y-110134040D01*
X149729002Y-110136769D01*
X149733981Y-110139399D01*
X149751618Y-110145745D01*
X149783393Y-110150677D01*
X149842850Y-110154468D01*
X149943532Y-110157391D01*
X150322746Y-110161723D01*
X151029382Y-110165857D01*
X151479639Y-110168034D01*
X151819577Y-110170372D01*
X151954319Y-110171869D01*
X152068853Y-110173727D01*
X152165637Y-110176053D01*
X152247127Y-110178954D01*
X152315780Y-110182538D01*
X152374054Y-110186910D01*
X152424407Y-110192179D01*
X152469294Y-110198451D01*
X152511174Y-110205832D01*
X152552503Y-110214431D01*
X152643340Y-110235707D01*
X152704178Y-110251020D01*
X152764023Y-110267972D01*
X152822827Y-110286539D01*
X152880539Y-110306698D01*
X152937110Y-110328427D01*
X152992491Y-110351701D01*
X153046631Y-110376497D01*
X153099482Y-110402792D01*
X153150993Y-110430564D01*
X153201115Y-110459787D01*
X153249798Y-110490441D01*
X153296993Y-110522500D01*
X153342650Y-110555942D01*
X153386719Y-110590744D01*
X153429152Y-110626882D01*
X153469898Y-110664333D01*
X153512804Y-110706474D01*
X153532608Y-110726843D01*
X153551406Y-110746866D01*
X153569268Y-110766635D01*
X153586263Y-110786241D01*
X153602461Y-110805776D01*
X153617933Y-110825332D01*
X153632746Y-110844998D01*
X153646973Y-110864868D01*
X153660681Y-110885032D01*
X153673942Y-110905583D01*
X153686824Y-110926611D01*
X153699397Y-110948208D01*
X153711732Y-110970465D01*
X153723898Y-110993474D01*
X153741628Y-111028775D01*
X153757935Y-111063353D01*
X153772858Y-111097380D01*
X153786440Y-111131025D01*
X153798718Y-111164459D01*
X153809735Y-111197853D01*
X153819531Y-111231377D01*
X153828145Y-111265201D01*
X153835617Y-111299497D01*
X153841990Y-111334435D01*
X153847301Y-111370185D01*
X153851593Y-111406919D01*
X153854905Y-111444805D01*
X153857277Y-111484015D01*
X153858750Y-111524720D01*
X153859365Y-111567090D01*
X153859161Y-111609422D01*
X153858129Y-111650009D01*
X153856235Y-111689014D01*
X153853445Y-111726602D01*
X153849725Y-111762937D01*
X153845040Y-111798184D01*
X153839357Y-111832507D01*
X153832642Y-111866070D01*
X153824860Y-111899038D01*
X153815977Y-111931576D01*
X153805960Y-111963846D01*
X153794773Y-111996014D01*
X153782384Y-112028244D01*
X153768757Y-112060701D01*
X153753860Y-112093548D01*
X153737657Y-112126950D01*
X153726438Y-112148862D01*
X153714979Y-112170189D01*
X153703238Y-112190988D01*
X153691173Y-112211319D01*
X153678742Y-112231241D01*
X153665903Y-112250812D01*
X153652615Y-112270092D01*
X153638835Y-112289139D01*
X153624522Y-112308013D01*
X153609634Y-112326772D01*
X153594128Y-112345475D01*
X153577964Y-112364182D01*
X153561099Y-112382950D01*
X153543492Y-112401839D01*
X153525100Y-112420908D01*
X153505882Y-112440216D01*
X153457196Y-112486356D01*
X153406760Y-112530332D01*
X153354535Y-112572162D01*
X153300483Y-112611865D01*
X153244563Y-112649459D01*
X153186739Y-112684964D01*
X153126970Y-112718398D01*
X153065218Y-112749779D01*
X153001445Y-112779126D01*
X152935612Y-112806458D01*
X152867679Y-112831793D01*
X152797609Y-112855149D01*
X152725362Y-112876546D01*
X152650899Y-112896003D01*
X152574183Y-112913536D01*
X152495173Y-112929166D01*
X152368173Y-112953508D01*
X150269499Y-112956683D01*
X148170824Y-112958800D01*
X148234324Y-112877309D01*
X148655540Y-112332266D01*
X149013257Y-111869775D01*
X150616632Y-111866600D01*
X151485408Y-111864185D01*
X151770701Y-111862693D01*
X151975664Y-111860779D01*
X152052491Y-111859609D01*
X152114597Y-111858269D01*
X152163771Y-111856737D01*
X152201800Y-111854991D01*
X152230472Y-111853009D01*
X152251573Y-111850770D01*
X152266892Y-111848252D01*
X152278215Y-111845433D01*
X152317633Y-111833119D01*
X152354192Y-111820739D01*
X152387985Y-111808230D01*
X152419106Y-111795525D01*
X152447647Y-111782560D01*
X152460979Y-111775959D01*
X152473701Y-111769269D01*
X152485825Y-111762482D01*
X152497362Y-111755588D01*
X152508323Y-111748581D01*
X152518721Y-111741451D01*
X152528568Y-111734191D01*
X152537874Y-111726793D01*
X152546651Y-111719248D01*
X152554912Y-111711549D01*
X152562666Y-111703687D01*
X152569928Y-111695654D01*
X152576707Y-111687442D01*
X152583015Y-111679043D01*
X152588865Y-111670448D01*
X152594267Y-111661650D01*
X152599234Y-111652640D01*
X152603777Y-111643411D01*
X152607907Y-111633953D01*
X152611637Y-111624260D01*
X152614977Y-111614322D01*
X152617940Y-111604133D01*
X152620782Y-111591676D01*
X152622763Y-111579313D01*
X152623891Y-111567053D01*
X152624174Y-111554904D01*
X152623621Y-111542871D01*
X152622238Y-111530965D01*
X152620033Y-111519192D01*
X152617014Y-111507560D01*
X152613190Y-111496076D01*
X152608566Y-111484750D01*
X152603152Y-111473587D01*
X152596956Y-111462597D01*
X152589984Y-111451787D01*
X152582244Y-111441164D01*
X152573745Y-111430736D01*
X152564495Y-111420512D01*
X152554500Y-111410498D01*
X152543768Y-111400703D01*
X152520127Y-111381800D01*
X152493634Y-111363864D01*
X152464350Y-111346958D01*
X152432337Y-111331143D01*
X152397658Y-111316481D01*
X152360374Y-111303035D01*
X152320548Y-111290867D01*
X152292879Y-111284868D01*
X152249805Y-111280184D01*
X152066548Y-111273668D01*
X150955298Y-111264408D01*
X150379449Y-111260836D01*
X149958481Y-111256470D01*
X149690111Y-111251311D01*
X149612437Y-111248433D01*
X149572057Y-111245358D01*
X149487863Y-111232630D01*
X149406300Y-111217853D01*
X149327324Y-111201011D01*
X149250886Y-111182089D01*
X149176942Y-111161070D01*
X149105444Y-111137941D01*
X149036346Y-111112684D01*
X148969601Y-111085285D01*
X148905163Y-111055727D01*
X148842985Y-111023996D01*
X148783022Y-110990077D01*
X148725225Y-110953952D01*
X148669549Y-110915608D01*
X148615948Y-110875028D01*
X148564374Y-110832197D01*
X148514782Y-110787100D01*
X148468820Y-110740790D01*
X148426188Y-110693150D01*
X148386892Y-110644185D01*
X148350938Y-110593904D01*
X148318334Y-110542315D01*
X148289084Y-110489425D01*
X148263195Y-110435242D01*
X148240673Y-110379774D01*
X148221525Y-110323028D01*
X148205757Y-110265013D01*
X148193374Y-110205735D01*
X148184383Y-110145204D01*
X148178791Y-110083426D01*
X148176603Y-110020409D01*
X148177826Y-109956161D01*
X148182465Y-109890690D01*
X148188205Y-109839647D01*
X148195542Y-109790414D01*
X148204534Y-109742867D01*
X148215241Y-109696883D01*
X148227721Y-109652338D01*
X148242034Y-109609108D01*
X148258238Y-109567068D01*
X148276392Y-109526095D01*
X148296556Y-109486064D01*
X148318788Y-109446852D01*
X148343146Y-109408335D01*
X148369691Y-109370388D01*
X148398480Y-109332887D01*
X148429573Y-109295709D01*
X148463029Y-109258729D01*
X148498907Y-109221824D01*
X148546067Y-109177202D01*
X148596143Y-109134276D01*
X148648951Y-109093130D01*
X148704306Y-109053847D01*
X148762024Y-109016511D01*
X148821919Y-108981206D01*
X148883809Y-108948016D01*
X148947508Y-108917024D01*
X149012831Y-108888314D01*
X149079595Y-108861970D01*
X149147614Y-108838076D01*
X149216705Y-108816714D01*
X149286682Y-108797970D01*
X149357362Y-108781926D01*
X149428559Y-108768666D01*
X149500090Y-108758274D01*
X149539347Y-108753413D01*
X149575231Y-108748750D01*
X149621798Y-108742399D01*
X151686342Y-108737637D01*
X153717548Y-108742399D01*
G37*
G36*
X148848951Y-93873477D02*
G01*
X149381458Y-93880604D01*
X149548927Y-93885439D01*
X149613332Y-93890807D01*
X149630875Y-93933818D01*
X149654260Y-94018204D01*
X149683672Y-94144857D01*
X149719298Y-94314670D01*
X149809934Y-94787348D01*
X149927657Y-95443383D01*
X149953712Y-95589571D01*
X149964787Y-95650256D01*
X149974770Y-95703451D01*
X149983815Y-95749745D01*
X149992081Y-95789724D01*
X149999724Y-95823976D01*
X150003361Y-95839138D01*
X150006900Y-95853089D01*
X150010362Y-95865902D01*
X150013766Y-95877651D01*
X150017132Y-95888408D01*
X150020479Y-95898248D01*
X150023826Y-95907244D01*
X150027194Y-95915469D01*
X150030602Y-95922997D01*
X150034069Y-95929901D01*
X150037616Y-95936255D01*
X150041261Y-95942132D01*
X150045024Y-95947606D01*
X150048925Y-95952749D01*
X150052984Y-95957636D01*
X150057219Y-95962339D01*
X150066298Y-95971491D01*
X150080758Y-95984879D01*
X150098826Y-95997834D01*
X150127783Y-96013591D01*
X150174910Y-96035388D01*
X150352792Y-96110050D01*
X150690715Y-96247716D01*
X150998029Y-96372732D01*
X151118001Y-96422291D01*
X151193423Y-96454091D01*
X151232453Y-96470643D01*
X151268327Y-96485407D01*
X151301266Y-96498428D01*
X151331486Y-96509752D01*
X151359208Y-96519428D01*
X151384649Y-96527500D01*
X151408028Y-96534016D01*
X151429564Y-96539022D01*
X151449475Y-96542564D01*
X151458890Y-96543801D01*
X151467980Y-96544690D01*
X151476774Y-96545236D01*
X151485298Y-96545445D01*
X151493580Y-96545323D01*
X151501646Y-96544876D01*
X151509526Y-96544109D01*
X151517245Y-96543029D01*
X151524831Y-96541642D01*
X151532311Y-96539952D01*
X151547065Y-96535690D01*
X151561724Y-96530291D01*
X151634418Y-96483575D01*
X151806728Y-96367704D01*
X152347007Y-95997950D01*
X152583774Y-95835415D01*
X152778262Y-95702559D01*
X152934227Y-95596913D01*
X153055429Y-95516011D01*
X153145625Y-95457383D01*
X153180270Y-95435651D01*
X153208573Y-95418561D01*
X153231003Y-95405807D01*
X153248031Y-95397078D01*
X153260125Y-95392068D01*
X153264470Y-95390860D01*
X153267757Y-95390466D01*
X153277251Y-95396652D01*
X153298368Y-95414605D01*
X153371755Y-95482177D01*
X153617139Y-95718549D01*
X153944478Y-96041440D01*
X154294339Y-96392707D01*
X154432173Y-96532761D01*
X154488344Y-96590019D01*
X154536781Y-96639613D01*
X154578055Y-96682182D01*
X154612739Y-96718362D01*
X154627789Y-96734255D01*
X154641405Y-96748790D01*
X154653660Y-96762047D01*
X154664625Y-96774104D01*
X154674371Y-96785043D01*
X154682970Y-96794941D01*
X154690494Y-96803880D01*
X154697013Y-96811938D01*
X154702601Y-96819195D01*
X154707327Y-96825732D01*
X154711263Y-96831626D01*
X154714482Y-96836959D01*
X154717054Y-96841810D01*
X154719052Y-96846259D01*
X154720545Y-96850384D01*
X154721607Y-96854267D01*
X154722309Y-96857986D01*
X154722721Y-96861621D01*
X154722916Y-96865251D01*
X154722965Y-96868957D01*
X154722657Y-96873291D01*
X154722136Y-96877932D01*
X154721414Y-96882840D01*
X154720501Y-96887974D01*
X154719409Y-96893294D01*
X154718147Y-96898760D01*
X154716727Y-96904331D01*
X154715160Y-96909967D01*
X154713457Y-96915629D01*
X154711627Y-96921274D01*
X154709684Y-96926864D01*
X154707636Y-96932358D01*
X154705495Y-96937715D01*
X154703272Y-96942896D01*
X154700978Y-96947860D01*
X154698623Y-96952566D01*
X154650453Y-97026120D01*
X154536301Y-97194924D01*
X154177923Y-97716682D01*
X153648757Y-98487149D01*
X153644388Y-98494329D01*
X153640398Y-98501232D01*
X153636767Y-98507927D01*
X153633477Y-98514484D01*
X153630510Y-98520972D01*
X153627846Y-98527463D01*
X153625468Y-98534024D01*
X153623357Y-98540727D01*
X153621493Y-98547641D01*
X153619860Y-98554835D01*
X153618436Y-98562379D01*
X153617206Y-98570344D01*
X153616149Y-98578799D01*
X153615247Y-98587813D01*
X153614481Y-98597457D01*
X153613833Y-98607799D01*
X153612531Y-98638313D01*
X153612601Y-98652127D01*
X153613337Y-98665578D01*
X153614880Y-98679116D01*
X153617368Y-98693190D01*
X153620941Y-98708250D01*
X153625739Y-98724745D01*
X153631902Y-98743126D01*
X153639568Y-98763842D01*
X153659970Y-98814075D01*
X153688061Y-98879043D01*
X153724958Y-98962341D01*
X153769259Y-99062288D01*
X153822985Y-99186443D01*
X153879292Y-99318933D01*
X153931333Y-99443883D01*
X154000180Y-99608340D01*
X154057654Y-99743341D01*
X154082572Y-99800730D01*
X154105182Y-99851876D01*
X154125661Y-99897153D01*
X154144189Y-99936934D01*
X154160943Y-99971592D01*
X154176102Y-100001502D01*
X154189844Y-100027037D01*
X154202348Y-100048571D01*
X154213791Y-100066477D01*
X154224352Y-100081129D01*
X154234209Y-100092901D01*
X154243540Y-100102165D01*
X154261590Y-100110357D01*
X154308562Y-100122853D01*
X154531936Y-100169238D01*
X155795057Y-100406966D01*
X155865835Y-100420104D01*
X155933450Y-100433093D01*
X155996328Y-100445586D01*
X156052893Y-100457236D01*
X156101570Y-100467695D01*
X156140784Y-100476617D01*
X156168960Y-100483653D01*
X156178416Y-100486356D01*
X156184522Y-100488457D01*
X156188933Y-100490177D01*
X156193413Y-100492145D01*
X156197934Y-100494336D01*
X156202465Y-100496726D01*
X156206978Y-100499289D01*
X156211443Y-100502001D01*
X156215830Y-100504837D01*
X156220110Y-100507772D01*
X156224254Y-100510782D01*
X156228231Y-100513841D01*
X156232014Y-100516925D01*
X156235571Y-100520009D01*
X156238875Y-100523068D01*
X156241894Y-100526078D01*
X156244601Y-100529013D01*
X156246965Y-100531848D01*
X156253952Y-100543011D01*
X156259202Y-100564988D01*
X156262964Y-100609091D01*
X156265486Y-100686630D01*
X156267801Y-100987263D01*
X156268132Y-101557374D01*
X156268132Y-102557499D01*
X156236382Y-102587133D01*
X156232591Y-102590505D01*
X156228378Y-102593865D01*
X156223769Y-102597204D01*
X156218787Y-102600511D01*
X156213458Y-102603774D01*
X156207807Y-102606983D01*
X156201858Y-102610126D01*
X156195636Y-102613194D01*
X156189166Y-102616175D01*
X156182473Y-102619058D01*
X156175581Y-102621833D01*
X156168516Y-102624488D01*
X156161302Y-102627013D01*
X156153964Y-102629397D01*
X156146527Y-102631629D01*
X156139015Y-102633699D01*
X156064519Y-102649094D01*
X155911342Y-102678282D01*
X155457449Y-102761758D01*
X155166583Y-102814296D01*
X154926777Y-102858215D01*
X154733530Y-102894419D01*
X154582339Y-102923815D01*
X154468703Y-102947307D01*
X154424561Y-102957122D01*
X154388119Y-102965801D01*
X154358815Y-102973457D01*
X154336085Y-102980202D01*
X154319368Y-102986151D01*
X154308100Y-102991416D01*
X154296944Y-102998568D01*
X154285881Y-103007800D01*
X154274578Y-103019828D01*
X154262706Y-103035370D01*
X154249936Y-103055141D01*
X154235936Y-103079857D01*
X154202927Y-103146991D01*
X154161037Y-103242501D01*
X154107627Y-103372118D01*
X153955673Y-103756591D01*
X153836214Y-104059010D01*
X153784075Y-104188490D01*
X153746123Y-104280466D01*
X153727980Y-104324007D01*
X153712002Y-104363190D01*
X153698124Y-104398366D01*
X153686278Y-104429889D01*
X153676398Y-104458114D01*
X153668417Y-104483393D01*
X153665117Y-104495039D01*
X153662268Y-104506080D01*
X153659860Y-104516562D01*
X153657885Y-104526528D01*
X153656335Y-104536024D01*
X153655201Y-104545092D01*
X153654476Y-104553777D01*
X153654150Y-104562123D01*
X153654216Y-104570175D01*
X153654664Y-104577976D01*
X153655488Y-104585572D01*
X153656678Y-104593005D01*
X153658226Y-104600320D01*
X153660124Y-104607562D01*
X153662364Y-104614775D01*
X153664936Y-104622002D01*
X153671047Y-104636677D01*
X153678391Y-104651941D01*
X153689757Y-104670933D01*
X153713365Y-104707437D01*
X153791499Y-104824449D01*
X153901186Y-104985911D01*
X154030816Y-105174758D01*
X154316433Y-105589095D01*
X154540933Y-105917707D01*
X154576712Y-105969972D01*
X154607994Y-106015992D01*
X154634994Y-106056294D01*
X154657928Y-106091406D01*
X154667937Y-106107180D01*
X154677011Y-106121855D01*
X154685175Y-106135495D01*
X154692458Y-106148167D01*
X154698886Y-106159937D01*
X154704485Y-106170871D01*
X154709284Y-106181034D01*
X154713308Y-106190492D01*
X154716586Y-106199312D01*
X154719142Y-106207559D01*
X154721006Y-106215299D01*
X154722203Y-106222598D01*
X154722760Y-106229522D01*
X154722705Y-106236136D01*
X154722065Y-106242507D01*
X154720865Y-106248701D01*
X154719134Y-106254783D01*
X154716898Y-106260819D01*
X154714184Y-106266876D01*
X154711020Y-106273018D01*
X154707431Y-106279313D01*
X154703445Y-106285825D01*
X154694390Y-106299767D01*
X154628310Y-106371373D01*
X154475315Y-106528928D01*
X154022878Y-106986889D01*
X153565678Y-107443659D01*
X153406729Y-107599726D01*
X153332315Y-107669249D01*
X153323643Y-107675240D01*
X153315076Y-107680515D01*
X153306596Y-107685076D01*
X153298184Y-107688928D01*
X153289822Y-107692072D01*
X153281491Y-107694513D01*
X153273172Y-107696253D01*
X153264847Y-107697295D01*
X153256497Y-107697643D01*
X153248104Y-107697299D01*
X153239648Y-107696268D01*
X153231113Y-107694550D01*
X153222477Y-107692151D01*
X153213724Y-107689073D01*
X153204835Y-107685319D01*
X153195791Y-107680892D01*
X153167492Y-107664508D01*
X153121012Y-107635152D01*
X152980155Y-107541985D01*
X152786513Y-107410322D01*
X152553382Y-107249091D01*
X152292222Y-107067984D01*
X152088112Y-106928151D01*
X151924286Y-106818085D01*
X151783974Y-106726274D01*
X151632632Y-106629966D01*
X151556432Y-106665948D01*
X151511850Y-106687413D01*
X151447423Y-106720189D01*
X151371885Y-106759711D01*
X151293965Y-106801415D01*
X151199769Y-106852009D01*
X151100191Y-106904339D01*
X151000662Y-106955676D01*
X150906616Y-107003293D01*
X150823483Y-107044461D01*
X150756696Y-107076450D01*
X150711688Y-107096534D01*
X150699048Y-107101258D01*
X150695492Y-107102141D01*
X150693891Y-107101982D01*
X150377316Y-105840978D01*
X150066298Y-104570449D01*
X150066335Y-104569643D01*
X150066445Y-104568814D01*
X150066626Y-104567964D01*
X150066875Y-104567094D01*
X150067575Y-104565303D01*
X150068531Y-104563454D01*
X150069729Y-104561562D01*
X150071154Y-104559640D01*
X150072794Y-104557703D01*
X150074633Y-104555765D01*
X150076659Y-104553838D01*
X150078856Y-104551939D01*
X150081212Y-104550079D01*
X150083712Y-104548274D01*
X150086342Y-104546537D01*
X150089088Y-104544882D01*
X150091937Y-104543323D01*
X150094874Y-104541875D01*
X150099578Y-104539861D01*
X150103829Y-104538220D01*
X150107720Y-104537000D01*
X150109560Y-104536564D01*
X150111344Y-104536252D01*
X150113086Y-104536070D01*
X150114795Y-104536025D01*
X150116485Y-104536122D01*
X150118166Y-104536368D01*
X150119850Y-104536769D01*
X150121548Y-104537331D01*
X150123273Y-104538061D01*
X150125036Y-104538964D01*
X150126849Y-104540047D01*
X150128723Y-104541316D01*
X150130670Y-104542778D01*
X150132701Y-104544438D01*
X150137063Y-104548377D01*
X150141903Y-104553185D01*
X150147314Y-104558911D01*
X150153388Y-104565604D01*
X150167898Y-104582091D01*
X150666374Y-105180049D01*
X150983494Y-105560256D01*
X151211019Y-105830924D01*
X151291214Y-105925182D01*
X151349048Y-105992055D01*
X151384534Y-106031544D01*
X151393899Y-106041020D01*
X151396488Y-106043190D01*
X151397682Y-106043649D01*
X151281001Y-105780256D01*
X150997631Y-105152531D01*
X150712808Y-104521898D01*
X150625413Y-104326685D01*
X150592291Y-104250833D01*
X150592229Y-104250120D01*
X150592239Y-104249372D01*
X150592320Y-104248591D01*
X150592470Y-104247778D01*
X150592688Y-104246936D01*
X150592972Y-104246066D01*
X150593729Y-104244251D01*
X150594728Y-104242350D01*
X150595955Y-104240378D01*
X150597396Y-104238349D01*
X150599037Y-104236281D01*
X150600864Y-104234187D01*
X150602863Y-104232085D01*
X150605021Y-104229988D01*
X150607322Y-104227913D01*
X150609753Y-104225876D01*
X150612301Y-104223891D01*
X150614951Y-104221974D01*
X150617689Y-104220141D01*
X150626973Y-104215320D01*
X150631756Y-104214197D01*
X150637186Y-104214320D01*
X150643677Y-104215981D01*
X150651641Y-104219471D01*
X150661494Y-104225082D01*
X150673650Y-104233105D01*
X150688521Y-104243832D01*
X150706522Y-104257554D01*
X150753570Y-104295150D01*
X150903440Y-104419107D01*
X151315975Y-104760354D01*
X151718489Y-105088503D01*
X152025158Y-105334102D01*
X152115730Y-105404242D01*
X152140632Y-105422348D01*
X152150157Y-105427699D01*
X152110718Y-105368482D01*
X152000535Y-105208756D01*
X151635807Y-104685807D01*
X151259967Y-104148836D01*
X151083357Y-103895232D01*
X151048432Y-103844432D01*
X151074890Y-103817974D01*
X151101349Y-103791516D01*
X151347940Y-103929099D01*
X151657403Y-104099011D01*
X151975003Y-104270809D01*
X152275139Y-104430501D01*
X152532215Y-104564099D01*
X152812674Y-104708032D01*
X152683557Y-104570449D01*
X152429027Y-104307585D01*
X151999874Y-103867716D01*
X151785181Y-103647797D01*
X151610274Y-103467269D01*
X151493114Y-103344882D01*
X151461800Y-103311353D01*
X151453942Y-103302529D01*
X151451657Y-103299390D01*
X151524136Y-103322294D01*
X151717166Y-103387365D01*
X152347007Y-103603132D01*
X152974731Y-103818371D01*
X153166603Y-103883078D01*
X153219237Y-103900319D01*
X153238124Y-103905816D01*
X153192444Y-103867861D01*
X153061994Y-103771441D01*
X152633948Y-103465020D01*
X152128313Y-103110181D01*
X151719416Y-102830549D01*
X151715494Y-102827886D01*
X151712057Y-102825414D01*
X151709090Y-102823080D01*
X151706583Y-102820825D01*
X151705497Y-102819711D01*
X151704522Y-102818596D01*
X151703655Y-102817473D01*
X151702895Y-102816336D01*
X151702240Y-102815177D01*
X151701690Y-102813989D01*
X151701241Y-102812765D01*
X151700894Y-102811499D01*
X151700646Y-102810183D01*
X151700495Y-102808811D01*
X151700440Y-102807375D01*
X151700480Y-102805869D01*
X151700614Y-102804285D01*
X151700838Y-102802616D01*
X151701555Y-102798998D01*
X151702620Y-102794958D01*
X151704019Y-102790440D01*
X151705741Y-102785389D01*
X151707773Y-102779749D01*
X151709691Y-102773952D01*
X151711508Y-102768839D01*
X151713273Y-102764378D01*
X151715033Y-102760534D01*
X151715926Y-102758832D01*
X151716836Y-102757272D01*
X151717769Y-102755850D01*
X151718731Y-102754560D01*
X151719727Y-102753399D01*
X151720765Y-102752362D01*
X151721850Y-102751446D01*
X151722987Y-102750645D01*
X151724183Y-102749956D01*
X151725444Y-102749374D01*
X151726777Y-102748895D01*
X151728186Y-102748516D01*
X151729678Y-102748230D01*
X151731259Y-102748035D01*
X151732935Y-102747927D01*
X151734711Y-102747900D01*
X151738592Y-102748074D01*
X151742949Y-102748524D01*
X151747829Y-102749216D01*
X151753282Y-102750115D01*
X152716233Y-102893652D01*
X153592666Y-103018932D01*
X153550868Y-102993787D01*
X153422588Y-102930280D01*
X152989283Y-102726436D01*
X152458148Y-102483895D01*
X151994582Y-102279157D01*
X151884516Y-102232591D01*
X151890866Y-102196608D01*
X151892100Y-102189542D01*
X151893396Y-102182750D01*
X151894717Y-102176404D01*
X151896025Y-102170678D01*
X151897284Y-102165746D01*
X151897883Y-102163632D01*
X151898456Y-102161781D01*
X151898998Y-102160216D01*
X151899504Y-102158958D01*
X151899970Y-102158028D01*
X151900186Y-102157693D01*
X151900391Y-102157449D01*
X152189712Y-102143956D01*
X152881465Y-102116174D01*
X153572821Y-102088922D01*
X153862540Y-102075958D01*
X153861993Y-102075390D01*
X153860004Y-102074494D01*
X153851973Y-102071790D01*
X153821662Y-102063258D01*
X153776072Y-102051550D01*
X153719666Y-102037857D01*
X152655247Y-101784651D01*
X151941666Y-101618758D01*
X151938079Y-101617748D01*
X151934852Y-101616685D01*
X151931973Y-101615537D01*
X151929428Y-101614276D01*
X151928278Y-101613594D01*
X151927206Y-101612873D01*
X151926212Y-101612109D01*
X151925294Y-101611298D01*
X151924451Y-101610436D01*
X151923680Y-101609521D01*
X151922981Y-101608548D01*
X151922351Y-101607513D01*
X151921789Y-101606413D01*
X151921295Y-101605245D01*
X151920865Y-101604003D01*
X151920499Y-101602686D01*
X151920195Y-101601289D01*
X151919951Y-101599809D01*
X151919639Y-101596582D01*
X151919550Y-101592977D01*
X151919672Y-101588965D01*
X151919993Y-101584515D01*
X151920500Y-101579599D01*
X151923674Y-101545733D01*
X152892048Y-101329832D01*
X153577187Y-101176110D01*
X153786654Y-101128319D01*
X153864657Y-101109699D01*
X153864849Y-101109495D01*
X153865029Y-101109279D01*
X153865196Y-101109052D01*
X153865351Y-101108815D01*
X153865494Y-101108568D01*
X153865624Y-101108313D01*
X153865742Y-101108051D01*
X153865847Y-101107781D01*
X153865940Y-101107505D01*
X153866021Y-101107224D01*
X153866089Y-101106938D01*
X153866145Y-101106648D01*
X153866219Y-101106060D01*
X153866244Y-101105466D01*
X153866219Y-101104871D01*
X153866145Y-101104283D01*
X153866089Y-101103993D01*
X153866021Y-101103707D01*
X153865940Y-101103426D01*
X153865847Y-101103150D01*
X153865742Y-101102881D01*
X153865624Y-101102618D01*
X153865494Y-101102363D01*
X153865351Y-101102117D01*
X153865196Y-101101880D01*
X153865029Y-101101653D01*
X153864849Y-101101437D01*
X153864657Y-101101232D01*
X153737954Y-101092782D01*
X153419363Y-101076494D01*
X152537506Y-101036674D01*
X152231913Y-101023974D01*
X152016808Y-101014449D01*
X151866523Y-101008098D01*
X151860174Y-100976349D01*
X151859417Y-100973189D01*
X151858735Y-100970073D01*
X151858127Y-100967019D01*
X151857594Y-100964046D01*
X151857135Y-100961172D01*
X151856751Y-100958415D01*
X151856441Y-100955795D01*
X151856205Y-100953330D01*
X151856044Y-100951039D01*
X151855957Y-100948940D01*
X151855945Y-100947052D01*
X151856007Y-100945393D01*
X151856143Y-100943982D01*
X151856354Y-100942838D01*
X151856488Y-100942372D01*
X151856640Y-100941979D01*
X151856810Y-100941663D01*
X151856999Y-100941424D01*
X152118936Y-100827521D01*
X152742823Y-100560424D01*
X153370283Y-100291872D01*
X153641349Y-100174133D01*
X153643667Y-100172631D01*
X153645458Y-100171301D01*
X153646716Y-100170137D01*
X153647434Y-100169138D01*
X153647589Y-100168700D01*
X153647607Y-100168301D01*
X153647486Y-100167941D01*
X153647227Y-100167621D01*
X153646829Y-100167340D01*
X153646290Y-100167097D01*
X153644788Y-100166724D01*
X153642716Y-100166500D01*
X153640067Y-100166422D01*
X153636835Y-100166487D01*
X153633014Y-100166691D01*
X153623580Y-100167506D01*
X153611715Y-100168841D01*
X153378882Y-100195299D01*
X152986968Y-100243800D01*
X152458926Y-100312642D01*
X151980493Y-100377316D01*
X151737407Y-100413316D01*
X151733060Y-100414019D01*
X151729126Y-100414523D01*
X151725570Y-100414804D01*
X151723923Y-100414853D01*
X151722359Y-100414837D01*
X151720871Y-100414753D01*
X151719457Y-100414597D01*
X151718112Y-100414368D01*
X151716831Y-100414060D01*
X151715611Y-100413672D01*
X151714447Y-100413200D01*
X151713335Y-100412641D01*
X151712271Y-100411993D01*
X151711250Y-100411251D01*
X151710269Y-100410414D01*
X151709322Y-100409477D01*
X151708406Y-100408437D01*
X151707516Y-100407293D01*
X151706648Y-100406040D01*
X151705799Y-100404675D01*
X151704962Y-100403195D01*
X151703313Y-100399880D01*
X151701668Y-100396068D01*
X151699991Y-100391735D01*
X151698249Y-100386857D01*
X151686606Y-100354049D01*
X152505757Y-99806890D01*
X152822975Y-99593620D01*
X153082151Y-99418350D01*
X153256595Y-99299238D01*
X153303701Y-99266415D01*
X153319616Y-99254441D01*
X153295785Y-99259495D01*
X153230170Y-99278799D01*
X152985050Y-99356438D01*
X152119465Y-99641791D01*
X151447424Y-99866158D01*
X151424141Y-99837582D01*
X151399798Y-99809007D01*
X151635807Y-99570883D01*
X152325840Y-98873441D01*
X152456449Y-98741558D01*
X152510959Y-98686312D01*
X152558707Y-98637730D01*
X152600017Y-98595460D01*
X152635217Y-98559153D01*
X152664631Y-98528457D01*
X152688584Y-98503024D01*
X152707403Y-98482502D01*
X152714989Y-98473973D01*
X152721413Y-98466540D01*
X152726716Y-98460160D01*
X152730940Y-98454789D01*
X152734123Y-98450384D01*
X152736308Y-98446899D01*
X152737535Y-98444292D01*
X152737802Y-98443304D01*
X152737844Y-98442518D01*
X152737668Y-98441930D01*
X152737277Y-98441535D01*
X152736678Y-98441325D01*
X152735874Y-98441297D01*
X152734872Y-98441444D01*
X152733675Y-98441762D01*
X152730722Y-98442885D01*
X152727055Y-98444623D01*
X152722715Y-98446932D01*
X151882398Y-98925299D01*
X151101349Y-99370858D01*
X151075948Y-99347574D01*
X151073396Y-99345171D01*
X151070907Y-99342737D01*
X151068495Y-99340291D01*
X151066175Y-99337851D01*
X151063961Y-99335435D01*
X151061865Y-99333063D01*
X151059903Y-99330753D01*
X151058089Y-99328524D01*
X151056435Y-99326394D01*
X151054957Y-99324382D01*
X151053668Y-99322506D01*
X151052582Y-99320785D01*
X151051713Y-99319238D01*
X151051075Y-99317883D01*
X151050847Y-99317284D01*
X151050682Y-99316739D01*
X151050582Y-99316252D01*
X151050548Y-99315825D01*
X151092650Y-99252754D01*
X151207182Y-99086695D01*
X151582891Y-98546416D01*
X151921210Y-98063485D01*
X152019943Y-97922156D01*
X152055083Y-97871599D01*
X152082027Y-97832570D01*
X152101740Y-97803661D01*
X152115189Y-97783465D01*
X152123339Y-97770574D01*
X152125728Y-97766428D01*
X152127155Y-97763580D01*
X152127740Y-97761855D01*
X152127755Y-97761358D01*
X152127604Y-97761076D01*
X152127304Y-97760986D01*
X152126868Y-97761068D01*
X152125652Y-97761654D01*
X152118407Y-97766424D01*
X152058942Y-97809657D01*
X151938160Y-97903528D01*
X151572571Y-98194917D01*
X151141499Y-98544051D01*
X150764798Y-98854390D01*
X150740186Y-98874906D01*
X150716727Y-98894095D01*
X150694980Y-98911522D01*
X150675502Y-98926754D01*
X150658852Y-98939357D01*
X150645587Y-98948897D01*
X150640399Y-98952382D01*
X150636267Y-98954939D01*
X150633260Y-98956513D01*
X150632201Y-98956914D01*
X150631449Y-98957049D01*
X150630174Y-98956951D01*
X150628743Y-98956663D01*
X150627172Y-98956191D01*
X150625479Y-98955544D01*
X150623681Y-98954730D01*
X150621794Y-98953756D01*
X150619835Y-98952631D01*
X150617823Y-98951361D01*
X150615773Y-98949954D01*
X150613703Y-98948419D01*
X150611630Y-98946763D01*
X150609571Y-98944994D01*
X150607543Y-98943119D01*
X150605563Y-98941147D01*
X150603648Y-98939085D01*
X150601815Y-98936941D01*
X150599140Y-98933086D01*
X150597774Y-98927532D01*
X150600839Y-98906911D01*
X150614744Y-98866247D01*
X150643222Y-98796712D01*
X150758829Y-98535700D01*
X150977523Y-98053233D01*
X151129592Y-97716848D01*
X151253484Y-97440987D01*
X151336497Y-97254025D01*
X151358706Y-97202750D01*
X151365933Y-97184341D01*
X151338951Y-97209939D01*
X151268549Y-97287330D01*
X151027397Y-97562959D01*
X150702307Y-97942173D01*
X150353107Y-98355915D01*
X150305800Y-98413074D01*
X150261396Y-98466313D01*
X150185361Y-98556470D01*
X150133139Y-98617258D01*
X150118500Y-98633787D01*
X150114493Y-98638085D01*
X150112865Y-98639549D01*
X150111850Y-98639308D01*
X150109707Y-98638607D01*
X150106596Y-98637484D01*
X150102679Y-98635977D01*
X150098117Y-98634123D01*
X150093071Y-98631959D01*
X150087703Y-98629521D01*
X150082174Y-98626848D01*
X150079099Y-98625423D01*
X150076229Y-98623928D01*
X150073569Y-98622368D01*
X150072321Y-98621565D01*
X150071127Y-98620747D01*
X150069989Y-98619915D01*
X150068908Y-98619070D01*
X150067884Y-98618213D01*
X150066919Y-98617343D01*
X150066012Y-98616461D01*
X150065165Y-98615568D01*
X150064378Y-98614665D01*
X150063653Y-98613752D01*
X150062989Y-98612830D01*
X150062389Y-98611899D01*
X150061852Y-98610960D01*
X150061379Y-98610013D01*
X150060971Y-98609059D01*
X150060630Y-98608099D01*
X150060354Y-98607133D01*
X150060147Y-98606162D01*
X150060007Y-98605186D01*
X150059937Y-98604206D01*
X150059936Y-98603223D01*
X150060006Y-98602237D01*
X150060147Y-98601248D01*
X150060361Y-98600258D01*
X150060647Y-98599266D01*
X150061007Y-98598274D01*
X150139803Y-98275747D01*
X150278626Y-97674614D01*
X150414473Y-97070703D01*
X150484340Y-96739841D01*
X150488144Y-96719987D01*
X150488375Y-96710191D01*
X150477792Y-96723191D01*
X150449151Y-96771723D01*
X150308723Y-97026335D01*
X150009149Y-97575924D01*
X149863055Y-97844447D01*
X149803564Y-97953515D01*
X149752222Y-98047312D01*
X149708365Y-98126984D01*
X149689035Y-98161879D01*
X149671327Y-98193672D01*
X149655158Y-98222506D01*
X149640445Y-98248523D01*
X149627104Y-98271867D01*
X149615052Y-98292680D01*
X149604206Y-98311106D01*
X149594483Y-98327288D01*
X149585800Y-98341368D01*
X149578074Y-98353489D01*
X149571221Y-98363795D01*
X149568097Y-98368312D01*
X149565159Y-98372429D01*
X149562399Y-98376164D01*
X149559804Y-98379533D01*
X149557366Y-98382557D01*
X149555074Y-98385252D01*
X149552917Y-98387635D01*
X149550884Y-98389726D01*
X149548966Y-98391542D01*
X149547153Y-98393101D01*
X149545432Y-98394420D01*
X149543796Y-98395518D01*
X149542232Y-98396412D01*
X149540730Y-98397121D01*
X149539281Y-98397661D01*
X149537874Y-98398052D01*
X149536498Y-98398311D01*
X149535142Y-98398455D01*
X149533798Y-98398503D01*
X149532453Y-98398473D01*
X149529723Y-98398249D01*
X149523843Y-98397410D01*
X149518198Y-98396496D01*
X149512925Y-98395533D01*
X149508160Y-98394545D01*
X149506011Y-98394049D01*
X149504041Y-98393557D01*
X149502265Y-98393071D01*
X149500702Y-98392594D01*
X149499369Y-98392129D01*
X149498282Y-98391680D01*
X149497458Y-98391250D01*
X149497151Y-98391042D01*
X149496916Y-98390841D01*
X149540307Y-97490331D01*
X149593224Y-96498541D01*
X149593746Y-96493310D01*
X149594127Y-96488344D01*
X149594374Y-96483660D01*
X149594496Y-96479276D01*
X149594501Y-96475207D01*
X149594395Y-96471473D01*
X149594187Y-96468088D01*
X149593885Y-96465071D01*
X149593495Y-96462438D01*
X149593271Y-96461271D01*
X149593027Y-96460207D01*
X149592766Y-96459247D01*
X149592487Y-96458394D01*
X149592193Y-96457650D01*
X149591884Y-96457017D01*
X149591561Y-96456498D01*
X149591225Y-96456093D01*
X149590877Y-96455806D01*
X149590518Y-96455639D01*
X149590148Y-96455593D01*
X149589770Y-96455671D01*
X149589384Y-96455875D01*
X149588990Y-96456207D01*
X149503976Y-96684906D01*
X149324010Y-97199157D01*
X149125986Y-97776908D01*
X148986798Y-98196107D01*
X148955049Y-98297707D01*
X148920123Y-98291358D01*
X148886257Y-98283950D01*
X148872498Y-98179174D01*
X148816969Y-97768078D01*
X148738619Y-97219266D01*
X148662651Y-96704585D01*
X148614265Y-96395883D01*
X148601566Y-96327091D01*
X148594157Y-96369424D01*
X148467157Y-97343091D01*
X148381300Y-98002962D01*
X148353899Y-98205401D01*
X148345860Y-98261290D01*
X148342274Y-98281832D01*
X148341064Y-98283013D01*
X148339630Y-98284172D01*
X148337989Y-98285306D01*
X148336157Y-98286411D01*
X148331993Y-98288523D01*
X148327275Y-98290481D01*
X148322142Y-98292260D01*
X148316731Y-98293832D01*
X148311180Y-98295171D01*
X148305629Y-98296252D01*
X148300213Y-98297048D01*
X148295072Y-98297532D01*
X148290344Y-98297677D01*
X148286165Y-98297459D01*
X148284326Y-98297205D01*
X148282675Y-98296850D01*
X148281232Y-98296391D01*
X148280012Y-98295824D01*
X148279033Y-98295146D01*
X148278312Y-98294355D01*
X148277867Y-98293445D01*
X148277715Y-98292415D01*
X148230255Y-98144381D01*
X148114732Y-97802672D01*
X147840623Y-97009716D01*
X147787198Y-96859323D01*
X147744414Y-96739428D01*
X147711106Y-96646892D01*
X147686107Y-96578578D01*
X147676359Y-96552523D01*
X147668251Y-96531347D01*
X147661638Y-96514658D01*
X147656374Y-96502064D01*
X147652313Y-96493171D01*
X147649309Y-96487588D01*
X147648157Y-96485915D01*
X147647216Y-96484923D01*
X147646466Y-96484562D01*
X147645890Y-96484783D01*
X147647792Y-96561297D01*
X147657135Y-96766696D01*
X147691399Y-97438341D01*
X147709115Y-97770699D01*
X147716088Y-97903717D01*
X147721809Y-98016786D01*
X147724202Y-98066346D01*
X147726284Y-98111525D01*
X147728056Y-98152526D01*
X147729517Y-98189551D01*
X147730669Y-98222803D01*
X147731513Y-98252483D01*
X147732049Y-98278795D01*
X147732277Y-98301941D01*
X147732198Y-98322122D01*
X147731812Y-98339542D01*
X147731505Y-98347279D01*
X147731121Y-98354402D01*
X147730661Y-98360935D01*
X147730125Y-98366905D01*
X147729512Y-98372335D01*
X147728824Y-98377252D01*
X147728059Y-98381681D01*
X147727219Y-98385648D01*
X147726302Y-98389176D01*
X147725310Y-98392293D01*
X147724242Y-98395022D01*
X147723099Y-98397390D01*
X147721880Y-98399421D01*
X147720585Y-98401141D01*
X147719215Y-98402575D01*
X147717770Y-98403749D01*
X147716249Y-98404687D01*
X147714653Y-98405416D01*
X147712982Y-98405960D01*
X147711236Y-98406344D01*
X147709415Y-98406594D01*
X147707519Y-98406736D01*
X147703503Y-98406794D01*
X147694574Y-98406716D01*
X147691657Y-98405249D01*
X147687262Y-98400833D01*
X147673986Y-98383069D01*
X147654632Y-98353250D01*
X147629089Y-98311201D01*
X147558991Y-98189724D01*
X147462799Y-98017249D01*
X147207740Y-97556146D01*
X146959032Y-97110522D01*
X146769855Y-96774832D01*
X146693390Y-96643533D01*
X146760859Y-96930473D01*
X146928340Y-97615082D01*
X147096615Y-98304058D01*
X147147713Y-98516981D01*
X147166465Y-98599332D01*
X147166432Y-98600138D01*
X147166331Y-98600967D01*
X147166165Y-98601816D01*
X147165936Y-98602685D01*
X147165293Y-98604472D01*
X147164415Y-98606311D01*
X147163313Y-98608187D01*
X147162001Y-98610085D01*
X147160489Y-98611989D01*
X147158792Y-98613884D01*
X147156922Y-98615755D01*
X147154890Y-98617584D01*
X147152709Y-98619358D01*
X147150392Y-98621061D01*
X147147951Y-98622677D01*
X147145398Y-98624190D01*
X147142746Y-98625586D01*
X147140007Y-98626848D01*
X147135472Y-98628830D01*
X147131309Y-98630348D01*
X147127394Y-98631311D01*
X147123603Y-98631628D01*
X147121715Y-98631515D01*
X147119812Y-98631207D01*
X147117878Y-98630691D01*
X147115897Y-98629956D01*
X147113854Y-98628991D01*
X147111734Y-98627784D01*
X147107199Y-98624600D01*
X147102168Y-98620312D01*
X147096516Y-98614829D01*
X147090121Y-98608059D01*
X147082857Y-98599911D01*
X147065229Y-98579115D01*
X147042640Y-98551707D01*
X146741412Y-98189195D01*
X146382240Y-97761397D01*
X146060375Y-97381621D01*
X145871066Y-97163174D01*
X145842490Y-97131424D01*
X145857306Y-97168466D01*
X146261590Y-98061700D01*
X146651056Y-98917890D01*
X146625657Y-98936941D01*
X146623068Y-98938898D01*
X146620471Y-98940794D01*
X146617883Y-98942615D01*
X146615322Y-98944349D01*
X146612804Y-98945984D01*
X146610346Y-98947508D01*
X146607966Y-98948907D01*
X146605681Y-98950170D01*
X146603507Y-98951284D01*
X146601462Y-98952237D01*
X146599562Y-98953017D01*
X146597826Y-98953610D01*
X146596269Y-98954004D01*
X146595563Y-98954124D01*
X146594909Y-98954188D01*
X146594308Y-98954197D01*
X146593763Y-98954149D01*
X146593276Y-98954042D01*
X146592848Y-98953874D01*
X146587139Y-98950021D01*
X146573766Y-98939719D01*
X146527497Y-98902545D01*
X146460987Y-98847908D01*
X146381182Y-98781366D01*
X146025846Y-98487927D01*
X145641142Y-98173750D01*
X145310810Y-97907001D01*
X145118590Y-97755841D01*
X145077315Y-97724091D01*
X145098482Y-97755841D01*
X145651990Y-98547474D01*
X146026243Y-99086827D01*
X146140295Y-99252771D01*
X146171369Y-99298740D01*
X146182215Y-99315825D01*
X146182181Y-99316252D01*
X146182081Y-99316739D01*
X146181688Y-99317883D01*
X146181050Y-99319238D01*
X146180181Y-99320785D01*
X146179095Y-99322506D01*
X146177806Y-99324382D01*
X146176328Y-99326394D01*
X146174675Y-99328524D01*
X146172860Y-99330753D01*
X146170898Y-99333063D01*
X146168803Y-99335435D01*
X146166589Y-99337851D01*
X146164269Y-99340291D01*
X146161857Y-99342737D01*
X146159368Y-99345171D01*
X146156815Y-99347574D01*
X146132473Y-99370858D01*
X146075323Y-99336991D01*
X145755707Y-99158347D01*
X145294009Y-98908763D01*
X144838264Y-98667711D01*
X144658885Y-98575220D01*
X144536506Y-98514666D01*
X144463482Y-98479741D01*
X144488882Y-98508316D01*
X145153515Y-99199408D01*
X145400884Y-99456698D01*
X145602116Y-99667852D01*
X145736475Y-99810942D01*
X145772096Y-99850111D01*
X145780883Y-99860402D01*
X145783223Y-99864040D01*
X145505279Y-99771304D01*
X144848715Y-99544424D01*
X144470625Y-99414133D01*
X144183817Y-99317279D01*
X144079728Y-99283034D01*
X144004562Y-99259121D01*
X143960352Y-99246195D01*
X143950491Y-99244058D01*
X143948733Y-99244108D01*
X143949132Y-99244915D01*
X144093197Y-99350104D01*
X144384900Y-99555405D01*
X144768282Y-99821625D01*
X145187382Y-100109575D01*
X145256601Y-100157427D01*
X145321245Y-100202675D01*
X145379910Y-100244301D01*
X145431196Y-100281289D01*
X145473700Y-100312621D01*
X145506023Y-100337281D01*
X145517928Y-100346791D01*
X145526762Y-100354251D01*
X145532349Y-100359535D01*
X145533871Y-100361321D01*
X145534515Y-100362515D01*
X145534652Y-100364559D01*
X145534668Y-100366709D01*
X145534566Y-100368950D01*
X145534350Y-100371263D01*
X145534022Y-100373632D01*
X145533585Y-100376040D01*
X145533043Y-100378470D01*
X145532398Y-100380904D01*
X145531655Y-100383326D01*
X145530815Y-100385718D01*
X145529882Y-100388064D01*
X145528859Y-100390346D01*
X145527750Y-100392548D01*
X145526557Y-100394652D01*
X145525283Y-100396641D01*
X145523932Y-100398499D01*
X145514969Y-100403422D01*
X145491719Y-100404749D01*
X145445351Y-100401364D01*
X145367034Y-100392149D01*
X145079234Y-100351767D01*
X144557673Y-100274674D01*
X143883515Y-100174397D01*
X143599882Y-100132857D01*
X143658586Y-100164229D01*
X143832781Y-100246909D01*
X144387546Y-100502348D01*
X144983983Y-100771479D01*
X145341899Y-100926607D01*
X145346217Y-100928164D01*
X145350057Y-100929687D01*
X145353435Y-100931217D01*
X145356368Y-100932792D01*
X145357673Y-100933610D01*
X145358873Y-100934455D01*
X145359970Y-100935331D01*
X145360967Y-100936244D01*
X145361866Y-100937199D01*
X145362668Y-100938201D01*
X145363375Y-100939255D01*
X145363991Y-100940366D01*
X145364517Y-100941539D01*
X145364955Y-100942779D01*
X145365308Y-100944091D01*
X145365577Y-100945480D01*
X145365764Y-100946951D01*
X145365873Y-100948510D01*
X145365904Y-100950160D01*
X145365860Y-100951908D01*
X145365556Y-100955716D01*
X145364978Y-100959974D01*
X145364142Y-100964721D01*
X145363066Y-100969999D01*
X145361831Y-100976667D01*
X145360535Y-100983063D01*
X145359214Y-100989012D01*
X145357906Y-100994341D01*
X145357268Y-100996719D01*
X145356647Y-100998876D01*
X145356048Y-101000792D01*
X145355475Y-101002444D01*
X145354933Y-101003811D01*
X145354427Y-101004871D01*
X145354189Y-101005279D01*
X145353961Y-101005602D01*
X145353745Y-101005837D01*
X145353540Y-101005983D01*
X144414799Y-101041966D01*
X143739317Y-101067101D01*
X143523020Y-101076196D01*
X143430549Y-101081124D01*
X143415879Y-101083330D01*
X143410524Y-101084382D01*
X143406653Y-101085473D01*
X143404388Y-101086657D01*
X143403897Y-101087301D01*
X143403852Y-101087989D01*
X143404271Y-101088727D01*
X143405167Y-101089522D01*
X143408456Y-101091311D01*
X143413840Y-101093409D01*
X143421443Y-101095873D01*
X143443794Y-101102109D01*
X143476489Y-101110454D01*
X143520507Y-101121341D01*
X144338598Y-101317265D01*
X145105890Y-101498107D01*
X145303798Y-101543616D01*
X145303798Y-101577482D01*
X145303726Y-101580852D01*
X145303513Y-101584198D01*
X145303171Y-101587498D01*
X145302707Y-101590728D01*
X145302132Y-101593865D01*
X145301454Y-101596886D01*
X145300684Y-101599767D01*
X145299830Y-101602485D01*
X145298901Y-101605018D01*
X145297907Y-101607341D01*
X145296858Y-101609431D01*
X145296315Y-101610382D01*
X145295762Y-101611266D01*
X145295199Y-101612080D01*
X145294628Y-101612822D01*
X145294051Y-101613488D01*
X145293467Y-101614075D01*
X145292879Y-101614581D01*
X145292287Y-101615003D01*
X145291693Y-101615338D01*
X145291098Y-101615582D01*
X145000851Y-101682919D01*
X144321665Y-101836774D01*
X143900250Y-101932520D01*
X143737812Y-101970162D01*
X143607026Y-102001080D01*
X143507493Y-102025352D01*
X143438817Y-102043050D01*
X143400601Y-102054249D01*
X143392792Y-102057435D01*
X143391690Y-102058428D01*
X143392448Y-102059024D01*
X143429428Y-102064899D01*
X143501953Y-102071493D01*
X143761277Y-102087335D01*
X144790507Y-102133108D01*
X144891348Y-102136921D01*
X144981885Y-102139454D01*
X145063223Y-102140442D01*
X145136466Y-102139623D01*
X145202721Y-102136733D01*
X145263092Y-102131508D01*
X145318685Y-102123685D01*
X145345036Y-102118716D01*
X145370606Y-102112999D01*
X145395534Y-102106501D01*
X145419959Y-102099189D01*
X145444018Y-102091029D01*
X145467851Y-102081989D01*
X145515385Y-102061137D01*
X145563669Y-102036369D01*
X145613807Y-102007422D01*
X145666904Y-101974031D01*
X145724066Y-101935934D01*
X145786399Y-101892866D01*
X146271065Y-101553125D01*
X146669710Y-101268846D01*
X146823534Y-101157149D01*
X146939965Y-101070888D01*
X147013708Y-101013922D01*
X147032916Y-100997630D01*
X147039465Y-100990107D01*
X147039189Y-100982195D01*
X147038198Y-100975074D01*
X147036249Y-100968669D01*
X147033099Y-100962905D01*
X147028503Y-100957705D01*
X147022220Y-100952994D01*
X147014005Y-100948694D01*
X147003614Y-100944731D01*
X146990805Y-100941029D01*
X146975335Y-100937511D01*
X146956959Y-100934102D01*
X146935434Y-100930725D01*
X146881966Y-100923765D01*
X146812982Y-100916024D01*
X146735112Y-100906996D01*
X146671033Y-100899356D01*
X146646243Y-100896243D01*
X146627393Y-100893700D01*
X146615315Y-100891802D01*
X146612075Y-100891119D01*
X146610840Y-100890624D01*
X146610606Y-100890255D01*
X146610303Y-100889557D01*
X146609517Y-100887251D01*
X146608533Y-100883852D01*
X146607400Y-100879512D01*
X146606168Y-100874377D01*
X146604887Y-100868598D01*
X146603605Y-100862322D01*
X146602373Y-100855700D01*
X146596024Y-100823950D01*
X147118840Y-100617575D01*
X147240370Y-100569757D01*
X147345357Y-100527930D01*
X147433723Y-100492131D01*
X147505397Y-100462396D01*
X147560302Y-100438763D01*
X147581443Y-100429247D01*
X147598364Y-100421270D01*
X147611057Y-100414837D01*
X147619510Y-100409952D01*
X147622145Y-100408092D01*
X147623716Y-100406621D01*
X147624223Y-100405540D01*
X147623665Y-100404849D01*
X147616075Y-100402741D01*
X147601043Y-100399690D01*
X147552228Y-100391356D01*
X147484362Y-100381037D01*
X147404590Y-100369925D01*
X147303447Y-100355674D01*
X147208815Y-100341647D01*
X147121947Y-100328066D01*
X147044095Y-100315155D01*
X146976513Y-100303137D01*
X146920452Y-100292236D01*
X146877166Y-100282674D01*
X146860705Y-100278465D01*
X146847907Y-100274674D01*
X146843510Y-100273098D01*
X146839059Y-100271354D01*
X146834571Y-100269454D01*
X146830060Y-100267411D01*
X146821029Y-100262940D01*
X146812089Y-100258039D01*
X146803359Y-100252802D01*
X146794961Y-100247327D01*
X146787016Y-100241709D01*
X146779644Y-100236045D01*
X146772967Y-100230430D01*
X146767106Y-100224961D01*
X146764519Y-100222312D01*
X146762180Y-100219734D01*
X146760107Y-100217242D01*
X146758313Y-100214845D01*
X146756813Y-100212557D01*
X146755623Y-100210390D01*
X146754758Y-100208356D01*
X146754232Y-100206465D01*
X146754062Y-100204732D01*
X146754262Y-100203167D01*
X146754847Y-100201783D01*
X146755832Y-100200591D01*
X147024781Y-100138149D01*
X147662824Y-99996332D01*
X148012504Y-99919322D01*
X148298882Y-99854913D01*
X148492391Y-99810149D01*
X148545081Y-99797335D01*
X148563465Y-99792075D01*
X148563004Y-99790370D01*
X148561637Y-99788632D01*
X148556282Y-99785071D01*
X148547594Y-99781424D01*
X148535766Y-99777721D01*
X148503469Y-99770271D01*
X148460939Y-99762970D01*
X148409728Y-99756066D01*
X148351385Y-99749807D01*
X148287461Y-99744441D01*
X148219507Y-99740216D01*
X148150903Y-99736382D01*
X148088086Y-99732361D01*
X148030642Y-99728068D01*
X147978157Y-99723415D01*
X147930218Y-99718315D01*
X147886411Y-99712683D01*
X147846321Y-99706430D01*
X147809535Y-99699470D01*
X147775639Y-99691716D01*
X147744218Y-99683082D01*
X147714859Y-99673481D01*
X147687149Y-99662825D01*
X147660672Y-99651028D01*
X147635015Y-99638004D01*
X147609765Y-99623665D01*
X147584507Y-99607924D01*
X147573871Y-99601181D01*
X147564554Y-99595200D01*
X147556511Y-99589925D01*
X147549697Y-99585303D01*
X147546738Y-99583218D01*
X147544069Y-99581275D01*
X147541684Y-99579467D01*
X147539579Y-99577787D01*
X147537748Y-99576227D01*
X147536184Y-99574782D01*
X147534883Y-99573444D01*
X147533839Y-99572206D01*
X147533046Y-99571060D01*
X147532498Y-99570001D01*
X147532315Y-99569502D01*
X147532191Y-99569021D01*
X147532125Y-99568558D01*
X147532117Y-99568113D01*
X147532167Y-99567684D01*
X147532272Y-99567270D01*
X147532434Y-99566871D01*
X147532651Y-99566485D01*
X147533246Y-99565751D01*
X147534054Y-99565062D01*
X147535068Y-99564410D01*
X147536282Y-99563787D01*
X147537691Y-99563189D01*
X147539290Y-99562606D01*
X147541072Y-99562033D01*
X147543032Y-99561462D01*
X147547465Y-99560299D01*
X147557176Y-99558621D01*
X147574552Y-99556793D01*
X147628427Y-99552891D01*
X147701353Y-99548988D01*
X147785590Y-99545483D01*
X147862456Y-99542496D01*
X147930813Y-99538852D01*
X147993764Y-99534190D01*
X148054407Y-99528153D01*
X148115844Y-99520378D01*
X148181175Y-99510508D01*
X148253502Y-99498182D01*
X148335923Y-99483040D01*
X148413967Y-99468929D01*
X148486405Y-99457458D01*
X148554775Y-99448494D01*
X148620615Y-99441898D01*
X148685463Y-99437534D01*
X148750856Y-99435266D01*
X148818333Y-99434958D01*
X148889431Y-99436473D01*
X148935660Y-99438416D01*
X148980012Y-99441096D01*
X149022667Y-99444557D01*
X149063808Y-99448843D01*
X149103616Y-99453997D01*
X149142272Y-99460063D01*
X149179957Y-99467084D01*
X149216853Y-99475103D01*
X149253142Y-99484164D01*
X149289004Y-99494310D01*
X149324621Y-99505585D01*
X149360175Y-99518032D01*
X149395846Y-99531694D01*
X149431817Y-99546616D01*
X149468268Y-99562839D01*
X149505381Y-99580408D01*
X149536817Y-99595655D01*
X149563987Y-99608718D01*
X149593224Y-99622741D01*
X149593553Y-99622718D01*
X149593556Y-99622259D01*
X149592610Y-99620079D01*
X149587122Y-99610967D01*
X149577243Y-99596101D01*
X149563458Y-99576174D01*
X149526102Y-99523919D01*
X149478924Y-99459758D01*
X149355099Y-99293599D01*
X149412249Y-99301007D01*
X149451122Y-99306781D01*
X149495031Y-99315047D01*
X149542064Y-99325322D01*
X149590314Y-99337123D01*
X149637868Y-99349966D01*
X149682819Y-99363366D01*
X149723254Y-99376842D01*
X149741183Y-99383456D01*
X149757266Y-99389908D01*
X149779482Y-99399522D01*
X149801693Y-99409720D01*
X149823920Y-99420517D01*
X149846182Y-99431927D01*
X149868500Y-99443962D01*
X149890894Y-99456638D01*
X149913385Y-99469968D01*
X149935991Y-99483967D01*
X149981634Y-99514024D01*
X150027983Y-99546921D01*
X150075201Y-99582770D01*
X150123448Y-99621682D01*
X150149939Y-99643715D01*
X150173696Y-99663058D01*
X150195088Y-99679825D01*
X150214481Y-99694128D01*
X150232244Y-99706082D01*
X150240628Y-99711212D01*
X150248743Y-99715798D01*
X150256633Y-99719852D01*
X150264346Y-99723390D01*
X150271926Y-99726425D01*
X150279420Y-99728971D01*
X150286874Y-99731043D01*
X150294333Y-99732655D01*
X150301844Y-99733820D01*
X150309452Y-99734554D01*
X150317204Y-99734870D01*
X150325145Y-99734782D01*
X150333322Y-99734305D01*
X150341779Y-99733452D01*
X150359722Y-99730678D01*
X150379340Y-99726571D01*
X150401001Y-99721246D01*
X150425074Y-99714816D01*
X150470584Y-99704313D01*
X150531387Y-99692508D01*
X150601044Y-99680381D01*
X150673121Y-99668911D01*
X150741178Y-99659078D01*
X150798781Y-99651862D01*
X150839492Y-99648242D01*
X150851501Y-99648088D01*
X150855067Y-99648478D01*
X150856874Y-99649199D01*
X150857079Y-99649527D01*
X150857103Y-99650108D01*
X150856622Y-99652006D01*
X150855465Y-99654841D01*
X150853666Y-99658559D01*
X150848279Y-99668435D01*
X150840734Y-99681214D01*
X150831304Y-99696473D01*
X150820262Y-99713790D01*
X150807880Y-99732745D01*
X150794432Y-99752915D01*
X150780700Y-99773579D01*
X150767327Y-99794995D01*
X150754372Y-99817021D01*
X150741896Y-99839517D01*
X150729959Y-99862342D01*
X150718623Y-99885354D01*
X150707946Y-99908413D01*
X150697991Y-99931377D01*
X150688817Y-99954106D01*
X150680485Y-99976458D01*
X150673056Y-99998292D01*
X150666589Y-100019467D01*
X150661145Y-100039842D01*
X150656785Y-100059277D01*
X150653569Y-100077629D01*
X150651558Y-100094758D01*
X150651231Y-100111827D01*
X150652715Y-100134875D01*
X150656133Y-100164521D01*
X150661611Y-100201385D01*
X150669271Y-100246087D01*
X150679239Y-100299247D01*
X150706590Y-100433424D01*
X150768850Y-100724995D01*
X150841131Y-101053872D01*
X150911229Y-101365683D01*
X150966939Y-101606057D01*
X151009273Y-101782799D01*
X150992340Y-101848415D01*
X150989053Y-101860736D01*
X150985356Y-101873078D01*
X150976798Y-101897735D01*
X150966804Y-101922206D01*
X150955513Y-101946311D01*
X150943063Y-101969870D01*
X150929590Y-101992704D01*
X150915235Y-102014633D01*
X150900133Y-102035476D01*
X150884424Y-102055054D01*
X150868244Y-102073187D01*
X150851734Y-102089696D01*
X150835029Y-102104400D01*
X150826647Y-102111019D01*
X150818268Y-102117120D01*
X150809910Y-102122679D01*
X150801590Y-102127675D01*
X150793325Y-102132085D01*
X150785132Y-102135887D01*
X150777028Y-102139057D01*
X150769032Y-102141574D01*
X150755009Y-102145178D01*
X150741120Y-102148052D01*
X150727371Y-102150201D01*
X150713767Y-102151626D01*
X150700311Y-102152332D01*
X150687009Y-102152320D01*
X150673865Y-102151594D01*
X150660883Y-102150157D01*
X150648069Y-102148011D01*
X150635427Y-102145159D01*
X150622962Y-102141605D01*
X150610679Y-102137351D01*
X150598581Y-102132400D01*
X150586674Y-102126756D01*
X150574962Y-102120420D01*
X150563450Y-102113396D01*
X150552143Y-102105687D01*
X150541045Y-102097295D01*
X150530162Y-102088224D01*
X150519496Y-102078477D01*
X150509054Y-102068056D01*
X150498840Y-102056964D01*
X150488859Y-102045205D01*
X150479114Y-102032781D01*
X150469612Y-102019694D01*
X150460356Y-102005949D01*
X150451351Y-101991548D01*
X150442602Y-101976493D01*
X150425890Y-101944435D01*
X150410257Y-101909799D01*
X150394205Y-101873005D01*
X150377488Y-101838093D01*
X150359639Y-101804564D01*
X150340192Y-101771919D01*
X150318680Y-101739658D01*
X150294636Y-101707282D01*
X150267594Y-101674292D01*
X150237087Y-101640189D01*
X150202649Y-101604474D01*
X150163812Y-101566647D01*
X150120111Y-101526210D01*
X150071078Y-101482662D01*
X149955151Y-101384241D01*
X149812298Y-101267390D01*
X149596398Y-101091707D01*
X149531840Y-101126633D01*
X149484716Y-101153194D01*
X149439402Y-101180477D01*
X149395923Y-101208458D01*
X149354305Y-101237112D01*
X149314572Y-101266418D01*
X149276749Y-101296352D01*
X149240861Y-101326891D01*
X149206932Y-101358011D01*
X149174988Y-101389688D01*
X149145053Y-101421901D01*
X149117151Y-101454626D01*
X149091309Y-101487838D01*
X149067550Y-101521516D01*
X149045900Y-101555636D01*
X149026382Y-101590174D01*
X149009023Y-101625107D01*
X148992952Y-101662049D01*
X148978282Y-101702564D01*
X148964133Y-101750718D01*
X148949624Y-101810580D01*
X148933875Y-101886218D01*
X148916006Y-101981700D01*
X148870382Y-102248466D01*
X148823286Y-102526146D01*
X148808172Y-102614137D01*
X148801590Y-102650632D01*
X148801339Y-102651544D01*
X148801179Y-102652490D01*
X148801109Y-102653471D01*
X148801127Y-102654483D01*
X148801232Y-102655526D01*
X148801422Y-102656597D01*
X148801697Y-102657695D01*
X148802053Y-102658818D01*
X148803006Y-102661132D01*
X148804269Y-102663525D01*
X148805829Y-102665983D01*
X148807675Y-102668492D01*
X148809794Y-102671038D01*
X148812173Y-102673608D01*
X148814800Y-102676187D01*
X148817663Y-102678761D01*
X148820749Y-102681317D01*
X148824046Y-102683840D01*
X148827541Y-102686317D01*
X148831223Y-102688733D01*
X148850429Y-102700318D01*
X148870373Y-102710869D01*
X148891098Y-102720394D01*
X148912649Y-102728900D01*
X148935067Y-102736395D01*
X148958397Y-102742888D01*
X148982682Y-102748385D01*
X149007965Y-102752894D01*
X149034290Y-102756424D01*
X149061700Y-102758982D01*
X149090239Y-102760575D01*
X149119950Y-102761212D01*
X149150876Y-102760900D01*
X149183061Y-102759647D01*
X149216549Y-102757461D01*
X149251382Y-102754350D01*
X149280290Y-102751631D01*
X149311591Y-102749074D01*
X149377456Y-102744692D01*
X149441138Y-102741699D01*
X149469710Y-102740878D01*
X149494798Y-102740591D01*
X149529636Y-102740740D01*
X149544307Y-102740982D01*
X149557405Y-102741385D01*
X149569127Y-102741986D01*
X149579668Y-102742823D01*
X149589222Y-102743933D01*
X149597986Y-102745354D01*
X149606155Y-102747121D01*
X149613923Y-102749273D01*
X149621487Y-102751846D01*
X149629042Y-102754878D01*
X149636782Y-102758407D01*
X149644904Y-102762469D01*
X149653603Y-102767101D01*
X149663074Y-102772341D01*
X149682868Y-102784074D01*
X149701370Y-102796652D01*
X149718580Y-102810076D01*
X149734495Y-102824348D01*
X149749114Y-102839470D01*
X149762435Y-102855443D01*
X149774458Y-102872269D01*
X149785179Y-102889948D01*
X149794598Y-102908484D01*
X149802714Y-102927877D01*
X149809524Y-102948128D01*
X149815027Y-102969241D01*
X149819222Y-102991215D01*
X149822107Y-103014052D01*
X149823680Y-103037755D01*
X149823940Y-103062324D01*
X149822638Y-103085998D01*
X149818285Y-103115985D01*
X149810211Y-103155025D01*
X149797747Y-103205861D01*
X149780222Y-103271231D01*
X149756968Y-103353879D01*
X149690590Y-103581966D01*
X149637276Y-103758724D01*
X149590313Y-103908594D01*
X149570825Y-103968516D01*
X149554859Y-104015800D01*
X149543060Y-104048474D01*
X149538925Y-104058715D01*
X149536074Y-104064565D01*
X149526709Y-104076985D01*
X149509971Y-104096158D01*
X149458220Y-104151018D01*
X149388511Y-104221654D01*
X149308532Y-104300574D01*
X149225974Y-104380288D01*
X149148525Y-104453305D01*
X149083876Y-104512133D01*
X149058754Y-104533886D01*
X149039715Y-104549282D01*
X149023458Y-104561367D01*
X149007585Y-104572640D01*
X148992034Y-104583132D01*
X148976744Y-104592873D01*
X148961653Y-104601895D01*
X148946698Y-104610228D01*
X148931817Y-104617904D01*
X148916949Y-104624954D01*
X148902031Y-104631408D01*
X148887001Y-104637298D01*
X148871798Y-104642655D01*
X148856359Y-104647509D01*
X148840622Y-104651892D01*
X148824526Y-104655835D01*
X148808008Y-104659369D01*
X148791006Y-104662524D01*
X148763413Y-104666819D01*
X148738481Y-104669701D01*
X148716069Y-104671044D01*
X148705765Y-104671101D01*
X148696038Y-104670726D01*
X148686870Y-104669905D01*
X148678245Y-104668622D01*
X148670144Y-104666861D01*
X148662550Y-104664608D01*
X148655444Y-104661845D01*
X148648811Y-104658559D01*
X148642631Y-104654734D01*
X148636887Y-104650353D01*
X148631562Y-104645402D01*
X148626638Y-104639865D01*
X148622097Y-104633726D01*
X148617922Y-104626971D01*
X148614095Y-104619583D01*
X148610598Y-104611546D01*
X148607414Y-104602847D01*
X148604525Y-104593468D01*
X148601914Y-104583395D01*
X148599563Y-104572611D01*
X148595569Y-104548853D01*
X148592403Y-104522068D01*
X148589924Y-104492133D01*
X148587632Y-104453509D01*
X148586773Y-104418093D01*
X148586910Y-104401536D01*
X148587440Y-104385718D01*
X148588374Y-104370620D01*
X148589725Y-104356220D01*
X148591504Y-104342497D01*
X148593722Y-104329431D01*
X148596391Y-104317001D01*
X148599523Y-104305186D01*
X148603129Y-104293966D01*
X148607222Y-104283319D01*
X148611812Y-104273226D01*
X148616911Y-104263665D01*
X148622531Y-104254615D01*
X148628684Y-104246057D01*
X148635381Y-104237968D01*
X148642634Y-104230329D01*
X148650454Y-104223119D01*
X148658853Y-104216317D01*
X148667843Y-104209901D01*
X148677435Y-104203852D01*
X148687641Y-104198149D01*
X148698472Y-104192771D01*
X148709941Y-104187697D01*
X148722058Y-104182907D01*
X148734836Y-104178379D01*
X148748286Y-104174094D01*
X148777249Y-104166166D01*
X148822247Y-104154275D01*
X148863685Y-104141932D01*
X148901725Y-104129005D01*
X148936528Y-104115366D01*
X148952766Y-104108238D01*
X148968255Y-104100883D01*
X148983016Y-104093285D01*
X148997068Y-104085427D01*
X149010432Y-104077293D01*
X149023127Y-104068866D01*
X149035175Y-104060132D01*
X149046595Y-104051072D01*
X149057407Y-104041672D01*
X149067631Y-104031914D01*
X149077288Y-104021782D01*
X149086398Y-104011261D01*
X149094980Y-104000333D01*
X149103056Y-103988983D01*
X149110645Y-103977194D01*
X149117767Y-103964951D01*
X149124443Y-103952235D01*
X149130693Y-103939033D01*
X149136536Y-103925326D01*
X149141993Y-103911100D01*
X149151830Y-103881021D01*
X149160365Y-103848667D01*
X149162098Y-103841779D01*
X149164107Y-103834644D01*
X149166370Y-103827310D01*
X149168865Y-103819827D01*
X149171572Y-103812245D01*
X149174467Y-103804613D01*
X149177530Y-103796981D01*
X149180738Y-103789400D01*
X149184071Y-103781917D01*
X149187506Y-103774583D01*
X149191021Y-103767447D01*
X149194596Y-103760560D01*
X149198207Y-103753970D01*
X149201834Y-103747727D01*
X149205455Y-103741882D01*
X149209048Y-103736482D01*
X149213640Y-103729902D01*
X149218298Y-103722435D01*
X149227883Y-103704667D01*
X149237940Y-103682830D01*
X149248604Y-103656579D01*
X149260012Y-103625564D01*
X149272300Y-103589440D01*
X149285606Y-103547859D01*
X149300064Y-103500474D01*
X149322389Y-103427102D01*
X149340546Y-103366727D01*
X149352750Y-103325601D01*
X149357215Y-103309974D01*
X149357045Y-103309679D01*
X149356546Y-103309199D01*
X149354636Y-103307742D01*
X149351634Y-103305714D01*
X149347690Y-103303227D01*
X149342952Y-103300393D01*
X149337570Y-103297324D01*
X149331691Y-103294130D01*
X149325465Y-103290925D01*
X149314363Y-103285499D01*
X149309333Y-103283625D01*
X149304315Y-103282441D01*
X149299055Y-103282045D01*
X149293300Y-103282534D01*
X149286797Y-103284006D01*
X149279295Y-103286559D01*
X149270541Y-103290289D01*
X149260281Y-103295296D01*
X149248263Y-103301676D01*
X149234234Y-103309528D01*
X149199133Y-103330035D01*
X149152957Y-103357599D01*
X149083494Y-103398975D01*
X149028454Y-103431435D01*
X148984502Y-103456775D01*
X148948302Y-103476794D01*
X148932066Y-103485371D01*
X148916516Y-103493291D01*
X148885810Y-103508065D01*
X148852847Y-103522912D01*
X148814290Y-103539633D01*
X148772646Y-103556739D01*
X148731368Y-103572350D01*
X148690326Y-103586486D01*
X148649389Y-103599164D01*
X148608427Y-103610404D01*
X148567310Y-103620223D01*
X148525908Y-103628641D01*
X148484090Y-103635676D01*
X148441727Y-103641347D01*
X148398688Y-103645672D01*
X148354842Y-103648671D01*
X148310061Y-103650360D01*
X148264212Y-103650760D01*
X148217167Y-103649889D01*
X148168795Y-103647765D01*
X148118965Y-103644407D01*
X148065414Y-103640643D01*
X148022343Y-103638107D01*
X148004043Y-103637311D01*
X147987531Y-103636836D01*
X147972529Y-103636686D01*
X147958760Y-103636867D01*
X147945945Y-103637383D01*
X147933808Y-103638238D01*
X147922071Y-103639437D01*
X147910457Y-103640985D01*
X147898687Y-103642886D01*
X147886485Y-103645146D01*
X147859673Y-103650758D01*
X147819194Y-103660382D01*
X147774362Y-103672983D01*
X147723403Y-103689155D01*
X147664543Y-103709495D01*
X147596010Y-103734597D01*
X147516029Y-103765057D01*
X147314632Y-103844432D01*
X147190342Y-103893599D01*
X147084097Y-103933167D01*
X147036218Y-103949731D01*
X146991023Y-103964351D01*
X146947903Y-103977178D01*
X146906247Y-103988366D01*
X146865447Y-103998065D01*
X146824894Y-104006428D01*
X146783978Y-104013606D01*
X146742090Y-104019752D01*
X146698620Y-104025017D01*
X146652961Y-104029554D01*
X146552632Y-104037049D01*
X146483615Y-104042002D01*
X146451878Y-104044965D01*
X146421779Y-104048294D01*
X146393163Y-104052020D01*
X146365871Y-104056174D01*
X146339749Y-104060786D01*
X146314639Y-104065889D01*
X146290385Y-104071512D01*
X146266830Y-104077687D01*
X146243818Y-104084446D01*
X146221192Y-104091818D01*
X146198795Y-104099835D01*
X146176471Y-104108528D01*
X146154063Y-104117928D01*
X146131415Y-104128065D01*
X146101360Y-104142718D01*
X146071549Y-104158865D01*
X146042030Y-104176463D01*
X146012849Y-104195468D01*
X145984052Y-104215838D01*
X145955686Y-104237529D01*
X145927798Y-104260497D01*
X145900434Y-104284699D01*
X145873640Y-104310092D01*
X145847464Y-104336632D01*
X145821950Y-104364276D01*
X145797147Y-104392980D01*
X145773101Y-104422701D01*
X145749857Y-104453396D01*
X145727463Y-104485021D01*
X145705965Y-104517533D01*
X145584438Y-104706131D01*
X145481466Y-104861887D01*
X145433062Y-104933187D01*
X145384645Y-105003159D01*
X145281574Y-105148300D01*
X145206225Y-105252947D01*
X145176380Y-105294426D01*
X145151266Y-105329440D01*
X145130518Y-105358563D01*
X145113770Y-105382369D01*
X145106781Y-105392457D01*
X145100655Y-105401431D01*
X145095346Y-105409362D01*
X145090809Y-105416322D01*
X145086997Y-105422383D01*
X145083865Y-105427617D01*
X145081366Y-105432095D01*
X145079457Y-105435889D01*
X145078089Y-105439070D01*
X145077595Y-105440454D01*
X145077219Y-105441711D01*
X145076956Y-105442851D01*
X145076800Y-105443883D01*
X145076745Y-105444815D01*
X145076786Y-105445657D01*
X145076917Y-105446418D01*
X145077132Y-105447106D01*
X145077425Y-105447731D01*
X145077792Y-105448301D01*
X145078225Y-105448826D01*
X145078720Y-105449314D01*
X145079870Y-105450217D01*
X145082656Y-105451977D01*
X145084199Y-105452979D01*
X145085782Y-105454156D01*
X145089654Y-105454528D01*
X145097213Y-105451422D01*
X145125238Y-105433271D01*
X145173553Y-105396690D01*
X145245855Y-105338666D01*
X145477200Y-105146232D01*
X145848840Y-104831858D01*
X146092873Y-104625026D01*
X146192070Y-104541106D01*
X146277498Y-104469031D01*
X146350238Y-104407939D01*
X146382189Y-104381241D01*
X146411373Y-104356966D01*
X146437927Y-104335004D01*
X146461984Y-104315247D01*
X146483682Y-104297589D01*
X146503155Y-104281921D01*
X146520537Y-104268135D01*
X146535965Y-104256123D01*
X146549574Y-104245777D01*
X146561499Y-104236989D01*
X146571876Y-104229652D01*
X146576525Y-104226493D01*
X146580838Y-104223657D01*
X146584832Y-104221129D01*
X146588523Y-104218897D01*
X146591928Y-104216945D01*
X146595064Y-104215262D01*
X146597949Y-104213834D01*
X146600598Y-104212647D01*
X146603029Y-104211687D01*
X146605260Y-104210942D01*
X146607305Y-104210397D01*
X146609184Y-104210040D01*
X146610912Y-104209856D01*
X146612506Y-104209832D01*
X146613984Y-104209955D01*
X146615362Y-104210212D01*
X146616657Y-104210588D01*
X146617886Y-104211070D01*
X146619066Y-104211645D01*
X146620215Y-104212299D01*
X146622482Y-104213791D01*
X146625035Y-104215425D01*
X146627524Y-104217142D01*
X146629935Y-104218923D01*
X146632255Y-104220753D01*
X146634470Y-104222613D01*
X146636565Y-104224488D01*
X146638527Y-104226360D01*
X146640341Y-104228211D01*
X146641994Y-104230025D01*
X146643473Y-104231785D01*
X146644762Y-104233473D01*
X146645848Y-104235074D01*
X146646716Y-104236568D01*
X146647065Y-104237271D01*
X146647354Y-104237941D01*
X146647582Y-104238576D01*
X146647747Y-104239173D01*
X146647848Y-104239732D01*
X146647881Y-104240250D01*
X146528422Y-104509463D01*
X146241483Y-105143008D01*
X146050486Y-105565365D01*
X145980921Y-105720963D01*
X145927157Y-105842962D01*
X145888077Y-105933956D01*
X145862565Y-105996536D01*
X145854549Y-106017981D01*
X145849506Y-106033294D01*
X145847297Y-106042800D01*
X145847211Y-106045477D01*
X145847782Y-106046823D01*
X145851508Y-106045895D01*
X145859233Y-106039791D01*
X145887403Y-106011204D01*
X145933730Y-105959350D01*
X145999652Y-105882518D01*
X146196040Y-105647072D01*
X146488073Y-105291174D01*
X146732184Y-104993138D01*
X146934425Y-104749175D01*
X147013209Y-104655316D01*
X147073563Y-104584390D01*
X147112833Y-104539532D01*
X147123732Y-104527860D01*
X147128365Y-104523883D01*
X147129826Y-104523956D01*
X147131420Y-104524170D01*
X147133132Y-104524518D01*
X147134947Y-104524991D01*
X147136848Y-104525582D01*
X147138821Y-104526283D01*
X147140849Y-104527086D01*
X147142917Y-104527984D01*
X147145011Y-104528969D01*
X147147114Y-104530032D01*
X147149210Y-104531167D01*
X147151285Y-104532366D01*
X147153322Y-104533620D01*
X147155307Y-104534923D01*
X147157224Y-104536266D01*
X147159057Y-104537641D01*
X147162203Y-104549128D01*
X147158826Y-104582306D01*
X147122280Y-104758436D01*
X147028981Y-105155426D01*
X146858490Y-105862675D01*
X146633065Y-106790303D01*
X146537816Y-107178183D01*
X146536248Y-107177884D01*
X146532418Y-107176240D01*
X146518451Y-107169187D01*
X146468627Y-107141935D01*
X146395982Y-107100792D01*
X146308157Y-107050124D01*
X146137798Y-106953303D01*
X145962082Y-106855788D01*
X145795890Y-106766011D01*
X145654107Y-106692406D01*
X145608028Y-106668218D01*
X145589506Y-106658823D01*
X145573012Y-106651496D01*
X145557808Y-106646439D01*
X145550459Y-106644824D01*
X145543156Y-106643852D01*
X145535806Y-106643549D01*
X145528317Y-106643939D01*
X145520598Y-106645047D01*
X145512555Y-106646899D01*
X145504097Y-106649520D01*
X145495131Y-106652935D01*
X145475307Y-106662249D01*
X145452345Y-106675042D01*
X145425507Y-106691514D01*
X145357253Y-106736307D01*
X145264640Y-106798240D01*
X145134300Y-106885222D01*
X144965661Y-106999589D01*
X144600007Y-107250149D01*
X144376345Y-107405245D01*
X144286405Y-107467438D01*
X144209498Y-107520355D01*
X144144454Y-107564714D01*
X144116015Y-107583909D01*
X144090103Y-107601235D01*
X144066571Y-107616780D01*
X144045273Y-107630636D01*
X144026064Y-107642893D01*
X144008795Y-107653639D01*
X143993322Y-107662965D01*
X143979498Y-107670961D01*
X143967177Y-107677716D01*
X143956211Y-107683322D01*
X143946456Y-107687867D01*
X143937765Y-107691441D01*
X143929991Y-107694135D01*
X143922988Y-107696038D01*
X143919730Y-107696722D01*
X143916609Y-107697241D01*
X143910710Y-107697833D01*
X143905142Y-107697903D01*
X143899760Y-107697543D01*
X143894418Y-107696842D01*
X143888969Y-107695890D01*
X143877165Y-107693591D01*
X143870039Y-107691368D01*
X143860935Y-107686673D01*
X143834237Y-107667414D01*
X143791961Y-107630916D01*
X143728998Y-107572280D01*
X143520573Y-107368997D01*
X143168082Y-107018374D01*
X142904689Y-106754204D01*
X142682571Y-106529821D01*
X142525144Y-106368739D01*
X142478007Y-106319285D01*
X142455823Y-106294475D01*
X142413490Y-106240499D01*
X142439948Y-106187583D01*
X142474956Y-106126729D01*
X142558085Y-105999993D01*
X142732693Y-105743480D01*
X143042140Y-105293291D01*
X143207042Y-105052735D01*
X143344559Y-104849982D01*
X143440404Y-104706164D01*
X143468235Y-104662961D01*
X143480290Y-104642416D01*
X143486039Y-104627087D01*
X143490512Y-104611759D01*
X143493599Y-104595988D01*
X143495189Y-104579329D01*
X143495174Y-104561337D01*
X143493443Y-104541566D01*
X143489885Y-104519572D01*
X143484391Y-104494910D01*
X143476851Y-104467136D01*
X143467154Y-104435803D01*
X143440850Y-104360684D01*
X143404601Y-104265994D01*
X143357523Y-104148174D01*
X143230523Y-103833585D01*
X143106698Y-103523758D01*
X143041782Y-103360202D01*
X143015413Y-103294137D01*
X142992580Y-103237462D01*
X142972891Y-103189363D01*
X142955954Y-103149027D01*
X142948395Y-103131515D01*
X142941377Y-103115639D01*
X142934850Y-103101296D01*
X142928766Y-103088386D01*
X142923076Y-103076805D01*
X142917731Y-103066453D01*
X142912681Y-103057227D01*
X142907879Y-103049027D01*
X142903273Y-103041749D01*
X142898817Y-103035293D01*
X142894460Y-103029557D01*
X142890153Y-103024439D01*
X142885849Y-103019837D01*
X142881496Y-103015650D01*
X142877048Y-103011775D01*
X142872453Y-103008111D01*
X142867664Y-103004557D01*
X142862632Y-103001010D01*
X142851640Y-102993532D01*
X142819332Y-102980539D01*
X142752322Y-102962609D01*
X142503184Y-102909659D01*
X142082199Y-102830119D01*
X141467340Y-102719424D01*
X141330747Y-102694991D01*
X141224899Y-102675768D01*
X141144923Y-102660711D01*
X141113113Y-102654420D01*
X141085943Y-102648780D01*
X141062804Y-102643661D01*
X141043087Y-102638933D01*
X141026182Y-102634465D01*
X141011480Y-102630127D01*
X140998371Y-102625790D01*
X140986247Y-102621322D01*
X140974498Y-102616593D01*
X140962515Y-102611474D01*
X140901132Y-102583958D01*
X140901132Y-101639924D01*
X140901677Y-101266035D01*
X140903116Y-100945128D01*
X140905150Y-100711534D01*
X140907482Y-100599582D01*
X140914890Y-100503274D01*
X141071523Y-100465174D01*
X141158009Y-100446289D01*
X141276840Y-100422047D01*
X141412340Y-100395820D01*
X141548832Y-100370982D01*
X142086746Y-100273301D01*
X142499347Y-100195167D01*
X142653725Y-100164453D01*
X142770859Y-100139853D01*
X142848777Y-100121776D01*
X142872414Y-100115312D01*
X142885507Y-100110633D01*
X142896467Y-100104646D01*
X142906812Y-100098059D01*
X142916670Y-100090669D01*
X142926170Y-100082272D01*
X142935440Y-100072667D01*
X142944610Y-100061649D01*
X142953808Y-100049016D01*
X142963162Y-100034565D01*
X142972801Y-100018092D01*
X142982855Y-99999394D01*
X142993451Y-99978268D01*
X143004718Y-99954512D01*
X143029781Y-99898294D01*
X143059073Y-99829116D01*
X143097273Y-99737553D01*
X143147180Y-99620492D01*
X143255923Y-99369799D01*
X143347767Y-99158149D01*
X143435046Y-98950567D01*
X143506848Y-98773742D01*
X143533533Y-98705205D01*
X143552257Y-98654366D01*
X143571307Y-98599332D01*
X143515215Y-98511491D01*
X143422578Y-98368996D01*
X143307517Y-98197034D01*
X143166660Y-97990741D01*
X142996632Y-97745258D01*
X142820882Y-97491936D01*
X142688392Y-97298244D01*
X142584080Y-97142057D01*
X142492865Y-97001249D01*
X142415607Y-96880599D01*
X142448415Y-96826624D01*
X142516171Y-96750680D01*
X142672170Y-96587772D01*
X143131966Y-96119129D01*
X143593945Y-95656835D01*
X143752673Y-95501864D01*
X143824249Y-95437033D01*
X143830738Y-95434020D01*
X143838212Y-95431336D01*
X143846538Y-95428986D01*
X143855585Y-95426978D01*
X143865222Y-95425317D01*
X143875315Y-95424010D01*
X143885735Y-95423062D01*
X143896348Y-95422480D01*
X143907023Y-95422271D01*
X143917628Y-95422439D01*
X143928032Y-95422992D01*
X143938102Y-95423936D01*
X143947707Y-95425276D01*
X143956716Y-95427020D01*
X143964996Y-95429173D01*
X143972415Y-95431741D01*
X144648293Y-95889205D01*
X145528165Y-96494307D01*
X145537007Y-96500376D01*
X145545326Y-96505903D01*
X145553191Y-96510916D01*
X145560676Y-96515441D01*
X145567850Y-96519507D01*
X145574785Y-96523143D01*
X145581553Y-96526375D01*
X145588225Y-96529233D01*
X145594873Y-96531743D01*
X145601566Y-96533933D01*
X145608378Y-96535832D01*
X145615378Y-96537468D01*
X145622640Y-96538867D01*
X145630232Y-96540060D01*
X145638228Y-96541072D01*
X145646699Y-96541932D01*
X145675650Y-96543294D01*
X145689696Y-96543069D01*
X145703881Y-96542114D01*
X145718526Y-96540334D01*
X145733949Y-96537635D01*
X145750469Y-96533922D01*
X145768407Y-96529100D01*
X145788080Y-96523075D01*
X145809810Y-96515753D01*
X145860713Y-96496837D01*
X145923672Y-96471597D01*
X146001240Y-96439274D01*
X146106313Y-96394874D01*
X146247303Y-96336483D01*
X146563215Y-96207499D01*
X146848750Y-96091165D01*
X146935304Y-96055750D01*
X146967453Y-96042478D01*
X146993296Y-96031684D01*
X147013669Y-96023011D01*
X147029409Y-96016100D01*
X147035802Y-96013194D01*
X147041351Y-96010594D01*
X147046158Y-96008256D01*
X147050330Y-96006135D01*
X147053969Y-96004185D01*
X147057182Y-96002363D01*
X147060071Y-96000624D01*
X147062742Y-95998922D01*
X147067847Y-95995454D01*
X147073332Y-95991599D01*
X147076192Y-95989409D01*
X147079200Y-95986828D01*
X147082329Y-95983888D01*
X147085552Y-95980618D01*
X147088844Y-95977052D01*
X147092177Y-95973219D01*
X147095526Y-95969150D01*
X147098864Y-95964876D01*
X147102165Y-95960429D01*
X147105402Y-95955839D01*
X147108550Y-95951137D01*
X147111581Y-95946355D01*
X147114469Y-95941523D01*
X147117188Y-95936673D01*
X147119712Y-95931835D01*
X147122015Y-95927040D01*
X147138266Y-95862844D01*
X147170070Y-95713307D01*
X147264361Y-95240315D01*
X147372940Y-94672271D01*
X147463857Y-94173383D01*
X147470073Y-94137029D01*
X147476673Y-94100837D01*
X147483447Y-94065761D01*
X147490183Y-94032757D01*
X147496672Y-94002778D01*
X147502701Y-93976781D01*
X147508061Y-93955719D01*
X147512540Y-93940549D01*
X147531590Y-93882341D01*
X147775006Y-93875991D01*
X148239053Y-93871311D01*
X148848951Y-93873477D01*
G37*
%TD*%
%LPC*%
D13*
%TO.C,REF\u002A\u002A*%
X116130000Y-115890000D03*
%TD*%
D14*
%TO.C,REF\u002A\u002A*%
X181052000Y-97130000D03*
%TD*%
%TO.C,REF\u002A\u002A*%
X116028000Y-104750000D03*
%TD*%
D13*
%TO.C,REF\u002A\u002A*%
X180930000Y-91090000D03*
%TD*%
D14*
%TO.C,REF\u002A\u002A*%
X181052000Y-107290000D03*
%TD*%
%TO.C,REF\u002A\u002A*%
X116028000Y-112370000D03*
%TD*%
%TO.C,REF\u002A\u002A*%
X181052000Y-102210000D03*
%TD*%
D13*
%TO.C,REF\u002A\u002A*%
X180930000Y-115890000D03*
%TD*%
D14*
%TO.C,REF\u002A\u002A*%
X181052000Y-99670000D03*
%TD*%
%TO.C,REF\u002A\u002A*%
X116028000Y-102210000D03*
%TD*%
%TO.C,REF\u002A\u002A*%
X116028000Y-94590000D03*
%TD*%
%TO.C,REF\u002A\u002A*%
X116028000Y-97130000D03*
%TD*%
%TO.C,REF\u002A\u002A*%
X116028000Y-107290000D03*
%TD*%
%TO.C,REF\u002A\u002A*%
X181052000Y-109830000D03*
%TD*%
%TO.C,REF\u002A\u002A*%
X116028000Y-99670000D03*
%TD*%
%TO.C,REF\u002A\u002A*%
X181052000Y-104750000D03*
%TD*%
%TO.C,REF\u002A\u002A*%
X181052000Y-112370000D03*
%TD*%
%TO.C,REF\u002A\u002A*%
X116028000Y-109830000D03*
%TD*%
%TO.C,REF\u002A\u002A*%
X181052000Y-94590000D03*
%TD*%
D13*
%TO.C,REF\u002A\u002A*%
X116130000Y-91090000D03*
%TD*%
D15*
X129490000Y-99670000D03*
X144730000Y-114910000D03*
X142190000Y-102210000D03*
X144730000Y-102210000D03*
X132030000Y-112370000D03*
X147270000Y-114910000D03*
X175210000Y-107290000D03*
X177750000Y-94590000D03*
X170130000Y-107290000D03*
X175210000Y-99670000D03*
X177750000Y-99670000D03*
X177750000Y-97130000D03*
X134570000Y-112370000D03*
X170130000Y-97130000D03*
X129490000Y-109830000D03*
X132030000Y-109830000D03*
X139650000Y-109830000D03*
X152350000Y-112370000D03*
X162510000Y-112370000D03*
X147270000Y-99670000D03*
X167590000Y-114910000D03*
X144730000Y-112370000D03*
X139650000Y-112370000D03*
X142190000Y-112370000D03*
X177750000Y-112370000D03*
X170130000Y-112370000D03*
X154890000Y-109830000D03*
X165050000Y-114910000D03*
X119330000Y-92050000D03*
X165050000Y-99670000D03*
X177750000Y-107290000D03*
X172670000Y-112370000D03*
X175210000Y-112370000D03*
X124410000Y-114910000D03*
X162510000Y-97130000D03*
X157430000Y-112370000D03*
X144730000Y-107290000D03*
X147270000Y-107290000D03*
X147270000Y-94590000D03*
X149810000Y-112370000D03*
X167590000Y-107290000D03*
X129490000Y-102210000D03*
X132030000Y-102210000D03*
X167590000Y-97130000D03*
X165050000Y-102210000D03*
X162510000Y-92050000D03*
X121870000Y-102210000D03*
X134570000Y-94590000D03*
X139650000Y-92050000D03*
X129490000Y-94590000D03*
X159970000Y-94590000D03*
X126950000Y-92050000D03*
X157430000Y-92050000D03*
X159970000Y-99670000D03*
X167590000Y-109830000D03*
X119330000Y-112370000D03*
X129490000Y-107290000D03*
X139650000Y-107290000D03*
X159970000Y-112370000D03*
X129490000Y-92050000D03*
X139650000Y-94590000D03*
X129490000Y-104750000D03*
X132030000Y-94590000D03*
X137110000Y-92050000D03*
X124410000Y-107290000D03*
X165050000Y-109830000D03*
X167590000Y-102210000D03*
X119330000Y-104750000D03*
X134570000Y-107290000D03*
X137110000Y-107290000D03*
X157430000Y-102210000D03*
X149810000Y-107290000D03*
X119330000Y-107290000D03*
X121870000Y-107290000D03*
X134570000Y-97130000D03*
X139650000Y-114910000D03*
X142190000Y-114910000D03*
X154890000Y-114910000D03*
X157430000Y-114910000D03*
X132030000Y-92050000D03*
X154890000Y-92050000D03*
X121870000Y-104750000D03*
X142190000Y-92050000D03*
X132030000Y-97130000D03*
X165050000Y-107290000D03*
X144730000Y-94590000D03*
X165050000Y-104750000D03*
X124410000Y-92050000D03*
X124410000Y-102210000D03*
X126950000Y-102210000D03*
X157430000Y-104750000D03*
X159970000Y-104750000D03*
X162510000Y-104750000D03*
X129490000Y-114910000D03*
X132030000Y-114910000D03*
X137110000Y-104750000D03*
X139650000Y-104750000D03*
X124410000Y-109830000D03*
X142190000Y-109830000D03*
X134570000Y-109830000D03*
X137110000Y-109830000D03*
X132030000Y-104750000D03*
X142190000Y-104750000D03*
X144730000Y-104750000D03*
X119330000Y-109830000D03*
X121870000Y-109830000D03*
X159970000Y-109830000D03*
X162510000Y-109830000D03*
X126950000Y-104750000D03*
X119330000Y-114910000D03*
X124410000Y-112370000D03*
X126950000Y-112370000D03*
X147270000Y-109830000D03*
X159970000Y-92050000D03*
X147270000Y-97130000D03*
X149810000Y-97130000D03*
X121870000Y-97130000D03*
X124410000Y-97130000D03*
X167590000Y-94590000D03*
X149810000Y-94590000D03*
X121870000Y-92050000D03*
X157430000Y-97130000D03*
X134570000Y-102210000D03*
X137110000Y-102210000D03*
X162510000Y-99670000D03*
X149810000Y-92050000D03*
X137110000Y-94590000D03*
X142190000Y-107290000D03*
X147270000Y-102210000D03*
X149810000Y-102210000D03*
X152350000Y-102210000D03*
X154890000Y-102210000D03*
X134570000Y-114910000D03*
X137110000Y-114910000D03*
X152350000Y-99670000D03*
X126950000Y-97130000D03*
X152350000Y-94590000D03*
X162510000Y-114910000D03*
X142190000Y-99670000D03*
X137110000Y-99670000D03*
X144730000Y-97130000D03*
X134570000Y-104750000D03*
X144730000Y-92050000D03*
X119330000Y-94590000D03*
X121870000Y-94590000D03*
X154890000Y-97130000D03*
X165050000Y-94590000D03*
X154890000Y-94590000D03*
X157430000Y-94590000D03*
X159970000Y-97130000D03*
X142190000Y-94590000D03*
X134570000Y-92050000D03*
X124410000Y-99670000D03*
X159970000Y-107290000D03*
X162510000Y-107290000D03*
X149810000Y-109830000D03*
X152350000Y-109830000D03*
X126950000Y-107290000D03*
X152350000Y-107290000D03*
X154890000Y-107290000D03*
X159970000Y-102210000D03*
X162510000Y-102210000D03*
X157430000Y-99670000D03*
X154890000Y-112370000D03*
X147270000Y-92050000D03*
X121870000Y-114910000D03*
X139650000Y-97130000D03*
X126950000Y-94590000D03*
X152350000Y-97130000D03*
X137110000Y-112370000D03*
X124410000Y-94590000D03*
X142190000Y-97130000D03*
X129490000Y-112370000D03*
X126950000Y-99670000D03*
X165050000Y-112370000D03*
X167590000Y-112370000D03*
X139650000Y-99670000D03*
X119330000Y-102210000D03*
X121870000Y-99670000D03*
X144730000Y-99670000D03*
X149810000Y-99670000D03*
X147270000Y-112370000D03*
X165050000Y-92050000D03*
X149810000Y-114910000D03*
X152350000Y-114910000D03*
X167590000Y-99670000D03*
X159970000Y-114910000D03*
X147270000Y-104750000D03*
X149810000Y-104750000D03*
X124410000Y-104750000D03*
X134570000Y-99670000D03*
X152350000Y-104750000D03*
X154890000Y-104750000D03*
X167590000Y-92050000D03*
X139650000Y-102210000D03*
X152350000Y-92050000D03*
X132030000Y-107290000D03*
X119330000Y-99670000D03*
X129490000Y-97130000D03*
X137110000Y-97130000D03*
X132030000Y-99670000D03*
X126950000Y-109830000D03*
X119330000Y-97130000D03*
X144730000Y-109830000D03*
X126950000Y-114910000D03*
X121870000Y-112370000D03*
X157430000Y-109830000D03*
X162510000Y-94590000D03*
X154890000Y-99670000D03*
X157430000Y-107290000D03*
X167590000Y-104750000D03*
X165050000Y-97130000D03*
X172670000Y-109830000D03*
X172670000Y-107290000D03*
X177750000Y-114910000D03*
X172670000Y-114910000D03*
X170130000Y-104750000D03*
X172670000Y-104750000D03*
X175210000Y-104750000D03*
X177750000Y-104750000D03*
X175210000Y-97130000D03*
X170130000Y-102210000D03*
X172670000Y-102210000D03*
X175210000Y-114910000D03*
X170130000Y-109830000D03*
X175210000Y-102210000D03*
X177750000Y-102210000D03*
X170130000Y-114910000D03*
X177750000Y-109830000D03*
X170130000Y-94590000D03*
X172670000Y-94590000D03*
X172670000Y-97130000D03*
X175210000Y-92050000D03*
X177750000Y-92050000D03*
X170130000Y-99670000D03*
X172670000Y-99670000D03*
X175210000Y-109830000D03*
X170130000Y-92050000D03*
X172670000Y-92050000D03*
X175210000Y-94590000D03*
%LPD*%
M02*
