%TF.GenerationSoftware,KiCad,Pcbnew,9.0.1*%
%TF.CreationDate,2025-05-06T23:47:46-04:00*%
%TF.ProjectId,classic-protoboard_10x24,636c6173-7369-4632-9d70-726f746f626f,rev?*%
%TF.SameCoordinates,Original*%
%TF.FileFunction,Legend,Bot*%
%TF.FilePolarity,Positive*%
%FSLAX46Y46*%
G04 Gerber Fmt 4.6, Leading zero omitted, Abs format (unit mm)*
G04 Created by KiCad (PCBNEW 9.0.1) date 2025-05-06 23:47:46*
%MOMM*%
%LPD*%
G01*
G04 APERTURE LIST*
%ADD10C,0.150000*%
%ADD11C,0.127000*%
%ADD12C,0.156250*%
%ADD13C,0.200000*%
%ADD14C,2.300000*%
%ADD15O,3.148000X1.624000*%
%ADD16C,1.624000*%
G04 APERTURE END LIST*
D10*
X134308095Y-116432438D02*
X134403333Y-116384819D01*
X134403333Y-116384819D02*
X134546190Y-116384819D01*
X134546190Y-116384819D02*
X134689047Y-116432438D01*
X134689047Y-116432438D02*
X134784285Y-116527676D01*
X134784285Y-116527676D02*
X134831904Y-116622914D01*
X134831904Y-116622914D02*
X134879523Y-116813390D01*
X134879523Y-116813390D02*
X134879523Y-116956247D01*
X134879523Y-116956247D02*
X134831904Y-117146723D01*
X134831904Y-117146723D02*
X134784285Y-117241961D01*
X134784285Y-117241961D02*
X134689047Y-117337200D01*
X134689047Y-117337200D02*
X134546190Y-117384819D01*
X134546190Y-117384819D02*
X134450952Y-117384819D01*
X134450952Y-117384819D02*
X134308095Y-117337200D01*
X134308095Y-117337200D02*
X134260476Y-117289580D01*
X134260476Y-117289580D02*
X134260476Y-116956247D01*
X134260476Y-116956247D02*
X134450952Y-116956247D01*
X144991904Y-90474819D02*
X144991904Y-89474819D01*
X144420476Y-90474819D02*
X144849047Y-89903390D01*
X144420476Y-89474819D02*
X144991904Y-90046247D01*
X139649999Y-90474819D02*
X139649999Y-89474819D01*
X178083332Y-116384819D02*
X177416666Y-117384819D01*
X177416666Y-116384819D02*
X178083332Y-117384819D01*
X131887142Y-116861009D02*
X132220475Y-116861009D01*
X132220475Y-117384819D02*
X132220475Y-116384819D01*
X132220475Y-116384819D02*
X131744285Y-116384819D01*
D11*
X178720406Y-107023904D02*
X178720406Y-107072285D01*
X178720406Y-107072285D02*
X178744596Y-107120666D01*
X178744596Y-107120666D02*
X178768787Y-107144856D01*
X178768787Y-107144856D02*
X178817168Y-107169047D01*
X178817168Y-107169047D02*
X178913930Y-107193237D01*
X178913930Y-107193237D02*
X179034882Y-107193237D01*
X179034882Y-107193237D02*
X179131644Y-107169047D01*
X179131644Y-107169047D02*
X179180025Y-107144856D01*
X179180025Y-107144856D02*
X179204216Y-107120666D01*
X179204216Y-107120666D02*
X179228406Y-107072285D01*
X179228406Y-107072285D02*
X179228406Y-107023904D01*
X179228406Y-107023904D02*
X179204216Y-106975523D01*
X179204216Y-106975523D02*
X179180025Y-106951332D01*
X179180025Y-106951332D02*
X179131644Y-106927142D01*
X179131644Y-106927142D02*
X179034882Y-106902951D01*
X179034882Y-106902951D02*
X178913930Y-106902951D01*
X178913930Y-106902951D02*
X178817168Y-106927142D01*
X178817168Y-106927142D02*
X178768787Y-106951332D01*
X178768787Y-106951332D02*
X178744596Y-106975523D01*
X178744596Y-106975523D02*
X178720406Y-107023904D01*
X178720406Y-107628666D02*
X178720406Y-107531904D01*
X178720406Y-107531904D02*
X178744596Y-107483523D01*
X178744596Y-107483523D02*
X178768787Y-107459333D01*
X178768787Y-107459333D02*
X178841358Y-107410952D01*
X178841358Y-107410952D02*
X178938120Y-107386761D01*
X178938120Y-107386761D02*
X179131644Y-107386761D01*
X179131644Y-107386761D02*
X179180025Y-107410952D01*
X179180025Y-107410952D02*
X179204216Y-107435142D01*
X179204216Y-107435142D02*
X179228406Y-107483523D01*
X179228406Y-107483523D02*
X179228406Y-107580285D01*
X179228406Y-107580285D02*
X179204216Y-107628666D01*
X179204216Y-107628666D02*
X179180025Y-107652857D01*
X179180025Y-107652857D02*
X179131644Y-107677047D01*
X179131644Y-107677047D02*
X179010692Y-107677047D01*
X179010692Y-107677047D02*
X178962311Y-107652857D01*
X178962311Y-107652857D02*
X178938120Y-107628666D01*
X178938120Y-107628666D02*
X178913930Y-107580285D01*
X178913930Y-107580285D02*
X178913930Y-107483523D01*
X178913930Y-107483523D02*
X178938120Y-107435142D01*
X178938120Y-107435142D02*
X178962311Y-107410952D01*
X178962311Y-107410952D02*
X179010692Y-107386761D01*
D12*
X156947142Y-113955779D02*
X157018570Y-113993875D01*
X157018570Y-113993875D02*
X157232856Y-114031970D01*
X157232856Y-114031970D02*
X157375713Y-114031970D01*
X157375713Y-114031970D02*
X157589999Y-113993875D01*
X157589999Y-113993875D02*
X157732856Y-113917684D01*
X157732856Y-113917684D02*
X157804285Y-113841494D01*
X157804285Y-113841494D02*
X157875713Y-113689113D01*
X157875713Y-113689113D02*
X157875713Y-113574827D01*
X157875713Y-113574827D02*
X157804285Y-113422446D01*
X157804285Y-113422446D02*
X157732856Y-113346255D01*
X157732856Y-113346255D02*
X157589999Y-113270065D01*
X157589999Y-113270065D02*
X157375713Y-113231970D01*
X157375713Y-113231970D02*
X157232856Y-113231970D01*
X157232856Y-113231970D02*
X157018570Y-113270065D01*
X157018570Y-113270065D02*
X156947142Y-113308160D01*
X156304285Y-113955779D02*
X156232856Y-113993875D01*
X156232856Y-113993875D02*
X156304285Y-114031970D01*
X156304285Y-114031970D02*
X156375713Y-113993875D01*
X156375713Y-113993875D02*
X156304285Y-113955779D01*
X156304285Y-113955779D02*
X156304285Y-114031970D01*
X155089999Y-113612922D02*
X154875713Y-113651017D01*
X154875713Y-113651017D02*
X154804284Y-113689113D01*
X154804284Y-113689113D02*
X154732856Y-113765303D01*
X154732856Y-113765303D02*
X154732856Y-113879589D01*
X154732856Y-113879589D02*
X154804284Y-113955779D01*
X154804284Y-113955779D02*
X154875713Y-113993875D01*
X154875713Y-113993875D02*
X155018570Y-114031970D01*
X155018570Y-114031970D02*
X155589999Y-114031970D01*
X155589999Y-114031970D02*
X155589999Y-113231970D01*
X155589999Y-113231970D02*
X155089999Y-113231970D01*
X155089999Y-113231970D02*
X154947142Y-113270065D01*
X154947142Y-113270065D02*
X154875713Y-113308160D01*
X154875713Y-113308160D02*
X154804284Y-113384351D01*
X154804284Y-113384351D02*
X154804284Y-113460541D01*
X154804284Y-113460541D02*
X154875713Y-113536732D01*
X154875713Y-113536732D02*
X154947142Y-113574827D01*
X154947142Y-113574827D02*
X155089999Y-113612922D01*
X155089999Y-113612922D02*
X155589999Y-113612922D01*
X154089999Y-114031970D02*
X154089999Y-113498636D01*
X154089999Y-113651017D02*
X154018570Y-113574827D01*
X154018570Y-113574827D02*
X153947142Y-113536732D01*
X153947142Y-113536732D02*
X153804284Y-113498636D01*
X153804284Y-113498636D02*
X153661427Y-113498636D01*
X152947142Y-114031970D02*
X153089999Y-113993875D01*
X153089999Y-113993875D02*
X153161428Y-113955779D01*
X153161428Y-113955779D02*
X153232856Y-113879589D01*
X153232856Y-113879589D02*
X153232856Y-113651017D01*
X153232856Y-113651017D02*
X153161428Y-113574827D01*
X153161428Y-113574827D02*
X153089999Y-113536732D01*
X153089999Y-113536732D02*
X152947142Y-113498636D01*
X152947142Y-113498636D02*
X152732856Y-113498636D01*
X152732856Y-113498636D02*
X152589999Y-113536732D01*
X152589999Y-113536732D02*
X152518571Y-113574827D01*
X152518571Y-113574827D02*
X152447142Y-113651017D01*
X152447142Y-113651017D02*
X152447142Y-113879589D01*
X152447142Y-113879589D02*
X152518571Y-113955779D01*
X152518571Y-113955779D02*
X152589999Y-113993875D01*
X152589999Y-113993875D02*
X152732856Y-114031970D01*
X152732856Y-114031970D02*
X152947142Y-114031970D01*
X151589999Y-114031970D02*
X151732856Y-113993875D01*
X151732856Y-113993875D02*
X151804285Y-113955779D01*
X151804285Y-113955779D02*
X151875713Y-113879589D01*
X151875713Y-113879589D02*
X151875713Y-113651017D01*
X151875713Y-113651017D02*
X151804285Y-113574827D01*
X151804285Y-113574827D02*
X151732856Y-113536732D01*
X151732856Y-113536732D02*
X151589999Y-113498636D01*
X151589999Y-113498636D02*
X151375713Y-113498636D01*
X151375713Y-113498636D02*
X151232856Y-113536732D01*
X151232856Y-113536732D02*
X151161428Y-113574827D01*
X151161428Y-113574827D02*
X151089999Y-113651017D01*
X151089999Y-113651017D02*
X151089999Y-113879589D01*
X151089999Y-113879589D02*
X151161428Y-113955779D01*
X151161428Y-113955779D02*
X151232856Y-113993875D01*
X151232856Y-113993875D02*
X151375713Y-114031970D01*
X151375713Y-114031970D02*
X151589999Y-114031970D01*
X150447142Y-114031970D02*
X150447142Y-113231970D01*
X150304285Y-113727208D02*
X149875713Y-114031970D01*
X149875713Y-113498636D02*
X150447142Y-113803398D01*
X149304284Y-113993875D02*
X149161427Y-114031970D01*
X149161427Y-114031970D02*
X148875713Y-114031970D01*
X148875713Y-114031970D02*
X148732856Y-113993875D01*
X148732856Y-113993875D02*
X148661427Y-113917684D01*
X148661427Y-113917684D02*
X148661427Y-113879589D01*
X148661427Y-113879589D02*
X148732856Y-113803398D01*
X148732856Y-113803398D02*
X148875713Y-113765303D01*
X148875713Y-113765303D02*
X149089999Y-113765303D01*
X149089999Y-113765303D02*
X149232856Y-113727208D01*
X149232856Y-113727208D02*
X149304284Y-113651017D01*
X149304284Y-113651017D02*
X149304284Y-113612922D01*
X149304284Y-113612922D02*
X149232856Y-113536732D01*
X149232856Y-113536732D02*
X149089999Y-113498636D01*
X149089999Y-113498636D02*
X148875713Y-113498636D01*
X148875713Y-113498636D02*
X148732856Y-113536732D01*
X146947141Y-113308160D02*
X146875713Y-113270065D01*
X146875713Y-113270065D02*
X146732856Y-113231970D01*
X146732856Y-113231970D02*
X146375713Y-113231970D01*
X146375713Y-113231970D02*
X146232856Y-113270065D01*
X146232856Y-113270065D02*
X146161427Y-113308160D01*
X146161427Y-113308160D02*
X146089998Y-113384351D01*
X146089998Y-113384351D02*
X146089998Y-113460541D01*
X146089998Y-113460541D02*
X146161427Y-113574827D01*
X146161427Y-113574827D02*
X147018570Y-114031970D01*
X147018570Y-114031970D02*
X146089998Y-114031970D01*
X145161427Y-113231970D02*
X145018570Y-113231970D01*
X145018570Y-113231970D02*
X144875713Y-113270065D01*
X144875713Y-113270065D02*
X144804285Y-113308160D01*
X144804285Y-113308160D02*
X144732856Y-113384351D01*
X144732856Y-113384351D02*
X144661427Y-113536732D01*
X144661427Y-113536732D02*
X144661427Y-113727208D01*
X144661427Y-113727208D02*
X144732856Y-113879589D01*
X144732856Y-113879589D02*
X144804285Y-113955779D01*
X144804285Y-113955779D02*
X144875713Y-113993875D01*
X144875713Y-113993875D02*
X145018570Y-114031970D01*
X145018570Y-114031970D02*
X145161427Y-114031970D01*
X145161427Y-114031970D02*
X145304285Y-113993875D01*
X145304285Y-113993875D02*
X145375713Y-113955779D01*
X145375713Y-113955779D02*
X145447142Y-113879589D01*
X145447142Y-113879589D02*
X145518570Y-113727208D01*
X145518570Y-113727208D02*
X145518570Y-113536732D01*
X145518570Y-113536732D02*
X145447142Y-113384351D01*
X145447142Y-113384351D02*
X145375713Y-113308160D01*
X145375713Y-113308160D02*
X145304285Y-113270065D01*
X145304285Y-113270065D02*
X145161427Y-113231970D01*
X144089999Y-113308160D02*
X144018571Y-113270065D01*
X144018571Y-113270065D02*
X143875714Y-113231970D01*
X143875714Y-113231970D02*
X143518571Y-113231970D01*
X143518571Y-113231970D02*
X143375714Y-113270065D01*
X143375714Y-113270065D02*
X143304285Y-113308160D01*
X143304285Y-113308160D02*
X143232856Y-113384351D01*
X143232856Y-113384351D02*
X143232856Y-113460541D01*
X143232856Y-113460541D02*
X143304285Y-113574827D01*
X143304285Y-113574827D02*
X144161428Y-114031970D01*
X144161428Y-114031970D02*
X143232856Y-114031970D01*
X141875714Y-113231970D02*
X142590000Y-113231970D01*
X142590000Y-113231970D02*
X142661428Y-113612922D01*
X142661428Y-113612922D02*
X142590000Y-113574827D01*
X142590000Y-113574827D02*
X142447143Y-113536732D01*
X142447143Y-113536732D02*
X142090000Y-113536732D01*
X142090000Y-113536732D02*
X141947143Y-113574827D01*
X141947143Y-113574827D02*
X141875714Y-113612922D01*
X141875714Y-113612922D02*
X141804285Y-113689113D01*
X141804285Y-113689113D02*
X141804285Y-113879589D01*
X141804285Y-113879589D02*
X141875714Y-113955779D01*
X141875714Y-113955779D02*
X141947143Y-113993875D01*
X141947143Y-113993875D02*
X142090000Y-114031970D01*
X142090000Y-114031970D02*
X142447143Y-114031970D01*
X142447143Y-114031970D02*
X142590000Y-113993875D01*
X142590000Y-113993875D02*
X142661428Y-113955779D01*
D13*
X158555714Y-108919695D02*
X158555714Y-108119695D01*
X158555714Y-108119695D02*
X157870000Y-108119695D01*
X157870000Y-108119695D02*
X157698571Y-108157790D01*
X157698571Y-108157790D02*
X157612857Y-108195885D01*
X157612857Y-108195885D02*
X157527143Y-108272076D01*
X157527143Y-108272076D02*
X157527143Y-108386361D01*
X157527143Y-108386361D02*
X157612857Y-108462552D01*
X157612857Y-108462552D02*
X157698571Y-108500647D01*
X157698571Y-108500647D02*
X157870000Y-108538742D01*
X157870000Y-108538742D02*
X158555714Y-108538742D01*
X156755714Y-108919695D02*
X156755714Y-108386361D01*
X156755714Y-108119695D02*
X156841428Y-108157790D01*
X156841428Y-108157790D02*
X156755714Y-108195885D01*
X156755714Y-108195885D02*
X156670000Y-108157790D01*
X156670000Y-108157790D02*
X156755714Y-108119695D01*
X156755714Y-108119695D02*
X156755714Y-108195885D01*
X156155714Y-108386361D02*
X155470000Y-108386361D01*
X155898571Y-108119695D02*
X155898571Y-108805409D01*
X155898571Y-108805409D02*
X155812857Y-108881600D01*
X155812857Y-108881600D02*
X155641428Y-108919695D01*
X155641428Y-108919695D02*
X155470000Y-108919695D01*
X154098572Y-108881600D02*
X154270000Y-108919695D01*
X154270000Y-108919695D02*
X154612857Y-108919695D01*
X154612857Y-108919695D02*
X154784286Y-108881600D01*
X154784286Y-108881600D02*
X154870000Y-108843504D01*
X154870000Y-108843504D02*
X154955714Y-108767314D01*
X154955714Y-108767314D02*
X154955714Y-108538742D01*
X154955714Y-108538742D02*
X154870000Y-108462552D01*
X154870000Y-108462552D02*
X154784286Y-108424457D01*
X154784286Y-108424457D02*
X154612857Y-108386361D01*
X154612857Y-108386361D02*
X154270000Y-108386361D01*
X154270000Y-108386361D02*
X154098572Y-108424457D01*
X153327143Y-108919695D02*
X153327143Y-108119695D01*
X152555715Y-108919695D02*
X152555715Y-108500647D01*
X152555715Y-108500647D02*
X152641429Y-108424457D01*
X152641429Y-108424457D02*
X152812857Y-108386361D01*
X152812857Y-108386361D02*
X153070000Y-108386361D01*
X153070000Y-108386361D02*
X153241429Y-108424457D01*
X153241429Y-108424457D02*
X153327143Y-108462552D01*
X150412857Y-108195885D02*
X150327143Y-108157790D01*
X150327143Y-108157790D02*
X150155715Y-108119695D01*
X150155715Y-108119695D02*
X149727143Y-108119695D01*
X149727143Y-108119695D02*
X149555715Y-108157790D01*
X149555715Y-108157790D02*
X149470000Y-108195885D01*
X149470000Y-108195885D02*
X149384286Y-108272076D01*
X149384286Y-108272076D02*
X149384286Y-108348266D01*
X149384286Y-108348266D02*
X149470000Y-108462552D01*
X149470000Y-108462552D02*
X150498572Y-108919695D01*
X150498572Y-108919695D02*
X149384286Y-108919695D01*
X148612857Y-108843504D02*
X148527143Y-108881600D01*
X148527143Y-108881600D02*
X148612857Y-108919695D01*
X148612857Y-108919695D02*
X148698571Y-108881600D01*
X148698571Y-108881600D02*
X148612857Y-108843504D01*
X148612857Y-108843504D02*
X148612857Y-108919695D01*
X146898571Y-108119695D02*
X147755714Y-108119695D01*
X147755714Y-108119695D02*
X147841428Y-108500647D01*
X147841428Y-108500647D02*
X147755714Y-108462552D01*
X147755714Y-108462552D02*
X147584286Y-108424457D01*
X147584286Y-108424457D02*
X147155714Y-108424457D01*
X147155714Y-108424457D02*
X146984286Y-108462552D01*
X146984286Y-108462552D02*
X146898571Y-108500647D01*
X146898571Y-108500647D02*
X146812857Y-108576838D01*
X146812857Y-108576838D02*
X146812857Y-108767314D01*
X146812857Y-108767314D02*
X146898571Y-108843504D01*
X146898571Y-108843504D02*
X146984286Y-108881600D01*
X146984286Y-108881600D02*
X147155714Y-108919695D01*
X147155714Y-108919695D02*
X147584286Y-108919695D01*
X147584286Y-108919695D02*
X147755714Y-108881600D01*
X147755714Y-108881600D02*
X147841428Y-108843504D01*
X145270000Y-108386361D02*
X145270000Y-108919695D01*
X145698571Y-108081600D02*
X146127142Y-108653028D01*
X146127142Y-108653028D02*
X145012857Y-108653028D01*
X144327142Y-108919695D02*
X144327142Y-108386361D01*
X144327142Y-108462552D02*
X144241428Y-108424457D01*
X144241428Y-108424457D02*
X144069999Y-108386361D01*
X144069999Y-108386361D02*
X143812856Y-108386361D01*
X143812856Y-108386361D02*
X143641428Y-108424457D01*
X143641428Y-108424457D02*
X143555714Y-108500647D01*
X143555714Y-108500647D02*
X143555714Y-108919695D01*
X143555714Y-108500647D02*
X143469999Y-108424457D01*
X143469999Y-108424457D02*
X143298571Y-108386361D01*
X143298571Y-108386361D02*
X143041428Y-108386361D01*
X143041428Y-108386361D02*
X142869999Y-108424457D01*
X142869999Y-108424457D02*
X142784285Y-108500647D01*
X142784285Y-108500647D02*
X142784285Y-108919695D01*
X141927142Y-108919695D02*
X141927142Y-108386361D01*
X141927142Y-108462552D02*
X141841428Y-108424457D01*
X141841428Y-108424457D02*
X141669999Y-108386361D01*
X141669999Y-108386361D02*
X141412856Y-108386361D01*
X141412856Y-108386361D02*
X141241428Y-108424457D01*
X141241428Y-108424457D02*
X141155714Y-108500647D01*
X141155714Y-108500647D02*
X141155714Y-108919695D01*
X141155714Y-108500647D02*
X141069999Y-108424457D01*
X141069999Y-108424457D02*
X140898571Y-108386361D01*
X140898571Y-108386361D02*
X140641428Y-108386361D01*
X140641428Y-108386361D02*
X140469999Y-108424457D01*
X140469999Y-108424457D02*
X140384285Y-108500647D01*
X140384285Y-108500647D02*
X140384285Y-108919695D01*
D10*
X165335713Y-117337200D02*
X165192856Y-117384819D01*
X165192856Y-117384819D02*
X164954761Y-117384819D01*
X164954761Y-117384819D02*
X164859523Y-117337200D01*
X164859523Y-117337200D02*
X164811904Y-117289580D01*
X164811904Y-117289580D02*
X164764285Y-117194342D01*
X164764285Y-117194342D02*
X164764285Y-117099104D01*
X164764285Y-117099104D02*
X164811904Y-117003866D01*
X164811904Y-117003866D02*
X164859523Y-116956247D01*
X164859523Y-116956247D02*
X164954761Y-116908628D01*
X164954761Y-116908628D02*
X165145237Y-116861009D01*
X165145237Y-116861009D02*
X165240475Y-116813390D01*
X165240475Y-116813390D02*
X165288094Y-116765771D01*
X165288094Y-116765771D02*
X165335713Y-116670533D01*
X165335713Y-116670533D02*
X165335713Y-116575295D01*
X165335713Y-116575295D02*
X165288094Y-116480057D01*
X165288094Y-116480057D02*
X165240475Y-116432438D01*
X165240475Y-116432438D02*
X165145237Y-116384819D01*
X165145237Y-116384819D02*
X164907142Y-116384819D01*
X164907142Y-116384819D02*
X164764285Y-116432438D01*
X131887142Y-89951009D02*
X132220475Y-89951009D01*
X132220475Y-90474819D02*
X132220475Y-89474819D01*
X132220475Y-89474819D02*
X131744285Y-89474819D01*
X150143332Y-90474819D02*
X150143332Y-89474819D01*
X150143332Y-89474819D02*
X149809999Y-90189104D01*
X149809999Y-90189104D02*
X149476666Y-89474819D01*
X149476666Y-89474819D02*
X149476666Y-90474819D01*
X139649999Y-117384819D02*
X139649999Y-116384819D01*
X159589047Y-117480057D02*
X159684285Y-117432438D01*
X159684285Y-117432438D02*
X159779523Y-117337200D01*
X159779523Y-117337200D02*
X159922380Y-117194342D01*
X159922380Y-117194342D02*
X160017618Y-117146723D01*
X160017618Y-117146723D02*
X160112856Y-117146723D01*
X160065237Y-117384819D02*
X160160475Y-117337200D01*
X160160475Y-117337200D02*
X160255713Y-117241961D01*
X160255713Y-117241961D02*
X160303332Y-117051485D01*
X160303332Y-117051485D02*
X160303332Y-116718152D01*
X160303332Y-116718152D02*
X160255713Y-116527676D01*
X160255713Y-116527676D02*
X160160475Y-116432438D01*
X160160475Y-116432438D02*
X160065237Y-116384819D01*
X160065237Y-116384819D02*
X159874761Y-116384819D01*
X159874761Y-116384819D02*
X159779523Y-116432438D01*
X159779523Y-116432438D02*
X159684285Y-116527676D01*
X159684285Y-116527676D02*
X159636666Y-116718152D01*
X159636666Y-116718152D02*
X159636666Y-117051485D01*
X159636666Y-117051485D02*
X159684285Y-117241961D01*
X159684285Y-117241961D02*
X159779523Y-117337200D01*
X159779523Y-117337200D02*
X159874761Y-117384819D01*
X159874761Y-117384819D02*
X160065237Y-117384819D01*
D11*
X118369593Y-99936095D02*
X118369593Y-99887714D01*
X118369593Y-99887714D02*
X118345403Y-99839333D01*
X118345403Y-99839333D02*
X118321212Y-99815143D01*
X118321212Y-99815143D02*
X118272831Y-99790952D01*
X118272831Y-99790952D02*
X118176069Y-99766762D01*
X118176069Y-99766762D02*
X118055117Y-99766762D01*
X118055117Y-99766762D02*
X117958355Y-99790952D01*
X117958355Y-99790952D02*
X117909974Y-99815143D01*
X117909974Y-99815143D02*
X117885784Y-99839333D01*
X117885784Y-99839333D02*
X117861593Y-99887714D01*
X117861593Y-99887714D02*
X117861593Y-99936095D01*
X117861593Y-99936095D02*
X117885784Y-99984476D01*
X117885784Y-99984476D02*
X117909974Y-100008667D01*
X117909974Y-100008667D02*
X117958355Y-100032857D01*
X117958355Y-100032857D02*
X118055117Y-100057048D01*
X118055117Y-100057048D02*
X118176069Y-100057048D01*
X118176069Y-100057048D02*
X118272831Y-100032857D01*
X118272831Y-100032857D02*
X118321212Y-100008667D01*
X118321212Y-100008667D02*
X118345403Y-99984476D01*
X118345403Y-99984476D02*
X118369593Y-99936095D01*
X118369593Y-99597428D02*
X118369593Y-99282952D01*
X118369593Y-99282952D02*
X118176069Y-99452285D01*
X118176069Y-99452285D02*
X118176069Y-99379714D01*
X118176069Y-99379714D02*
X118151879Y-99331333D01*
X118151879Y-99331333D02*
X118127688Y-99307142D01*
X118127688Y-99307142D02*
X118079307Y-99282952D01*
X118079307Y-99282952D02*
X117958355Y-99282952D01*
X117958355Y-99282952D02*
X117909974Y-99307142D01*
X117909974Y-99307142D02*
X117885784Y-99331333D01*
X117885784Y-99331333D02*
X117861593Y-99379714D01*
X117861593Y-99379714D02*
X117861593Y-99524857D01*
X117861593Y-99524857D02*
X117885784Y-99573238D01*
X117885784Y-99573238D02*
X117909974Y-99597428D01*
D10*
X121798571Y-116861009D02*
X121655714Y-116908628D01*
X121655714Y-116908628D02*
X121608095Y-116956247D01*
X121608095Y-116956247D02*
X121560476Y-117051485D01*
X121560476Y-117051485D02*
X121560476Y-117194342D01*
X121560476Y-117194342D02*
X121608095Y-117289580D01*
X121608095Y-117289580D02*
X121655714Y-117337200D01*
X121655714Y-117337200D02*
X121750952Y-117384819D01*
X121750952Y-117384819D02*
X122131904Y-117384819D01*
X122131904Y-117384819D02*
X122131904Y-116384819D01*
X122131904Y-116384819D02*
X121798571Y-116384819D01*
X121798571Y-116384819D02*
X121703333Y-116432438D01*
X121703333Y-116432438D02*
X121655714Y-116480057D01*
X121655714Y-116480057D02*
X121608095Y-116575295D01*
X121608095Y-116575295D02*
X121608095Y-116670533D01*
X121608095Y-116670533D02*
X121655714Y-116765771D01*
X121655714Y-116765771D02*
X121703333Y-116813390D01*
X121703333Y-116813390D02*
X121798571Y-116861009D01*
X121798571Y-116861009D02*
X122131904Y-116861009D01*
X159589047Y-90570057D02*
X159684285Y-90522438D01*
X159684285Y-90522438D02*
X159779523Y-90427200D01*
X159779523Y-90427200D02*
X159922380Y-90284342D01*
X159922380Y-90284342D02*
X160017618Y-90236723D01*
X160017618Y-90236723D02*
X160112856Y-90236723D01*
X160065237Y-90474819D02*
X160160475Y-90427200D01*
X160160475Y-90427200D02*
X160255713Y-90331961D01*
X160255713Y-90331961D02*
X160303332Y-90141485D01*
X160303332Y-90141485D02*
X160303332Y-89808152D01*
X160303332Y-89808152D02*
X160255713Y-89617676D01*
X160255713Y-89617676D02*
X160160475Y-89522438D01*
X160160475Y-89522438D02*
X160065237Y-89474819D01*
X160065237Y-89474819D02*
X159874761Y-89474819D01*
X159874761Y-89474819D02*
X159779523Y-89522438D01*
X159779523Y-89522438D02*
X159684285Y-89617676D01*
X159684285Y-89617676D02*
X159636666Y-89808152D01*
X159636666Y-89808152D02*
X159636666Y-90141485D01*
X159636666Y-90141485D02*
X159684285Y-90331961D01*
X159684285Y-90331961D02*
X159779523Y-90427200D01*
X159779523Y-90427200D02*
X159874761Y-90474819D01*
X159874761Y-90474819D02*
X160065237Y-90474819D01*
D11*
X118369593Y-105016095D02*
X118369593Y-104967714D01*
X118369593Y-104967714D02*
X118345403Y-104919333D01*
X118345403Y-104919333D02*
X118321212Y-104895143D01*
X118321212Y-104895143D02*
X118272831Y-104870952D01*
X118272831Y-104870952D02*
X118176069Y-104846762D01*
X118176069Y-104846762D02*
X118055117Y-104846762D01*
X118055117Y-104846762D02*
X117958355Y-104870952D01*
X117958355Y-104870952D02*
X117909974Y-104895143D01*
X117909974Y-104895143D02*
X117885784Y-104919333D01*
X117885784Y-104919333D02*
X117861593Y-104967714D01*
X117861593Y-104967714D02*
X117861593Y-105016095D01*
X117861593Y-105016095D02*
X117885784Y-105064476D01*
X117885784Y-105064476D02*
X117909974Y-105088667D01*
X117909974Y-105088667D02*
X117958355Y-105112857D01*
X117958355Y-105112857D02*
X118055117Y-105137048D01*
X118055117Y-105137048D02*
X118176069Y-105137048D01*
X118176069Y-105137048D02*
X118272831Y-105112857D01*
X118272831Y-105112857D02*
X118321212Y-105088667D01*
X118321212Y-105088667D02*
X118345403Y-105064476D01*
X118345403Y-105064476D02*
X118369593Y-105016095D01*
X118369593Y-104387142D02*
X118369593Y-104629047D01*
X118369593Y-104629047D02*
X118127688Y-104653238D01*
X118127688Y-104653238D02*
X118151879Y-104629047D01*
X118151879Y-104629047D02*
X118176069Y-104580666D01*
X118176069Y-104580666D02*
X118176069Y-104459714D01*
X118176069Y-104459714D02*
X118151879Y-104411333D01*
X118151879Y-104411333D02*
X118127688Y-104387142D01*
X118127688Y-104387142D02*
X118079307Y-104362952D01*
X118079307Y-104362952D02*
X117958355Y-104362952D01*
X117958355Y-104362952D02*
X117909974Y-104387142D01*
X117909974Y-104387142D02*
X117885784Y-104411333D01*
X117885784Y-104411333D02*
X117861593Y-104459714D01*
X117861593Y-104459714D02*
X117861593Y-104580666D01*
X117861593Y-104580666D02*
X117885784Y-104629047D01*
X117885784Y-104629047D02*
X117909974Y-104653238D01*
X178720406Y-94323904D02*
X178720406Y-94372285D01*
X178720406Y-94372285D02*
X178744596Y-94420666D01*
X178744596Y-94420666D02*
X178768787Y-94444856D01*
X178768787Y-94444856D02*
X178817168Y-94469047D01*
X178817168Y-94469047D02*
X178913930Y-94493237D01*
X178913930Y-94493237D02*
X179034882Y-94493237D01*
X179034882Y-94493237D02*
X179131644Y-94469047D01*
X179131644Y-94469047D02*
X179180025Y-94444856D01*
X179180025Y-94444856D02*
X179204216Y-94420666D01*
X179204216Y-94420666D02*
X179228406Y-94372285D01*
X179228406Y-94372285D02*
X179228406Y-94323904D01*
X179228406Y-94323904D02*
X179204216Y-94275523D01*
X179204216Y-94275523D02*
X179180025Y-94251332D01*
X179180025Y-94251332D02*
X179131644Y-94227142D01*
X179131644Y-94227142D02*
X179034882Y-94202951D01*
X179034882Y-94202951D02*
X178913930Y-94202951D01*
X178913930Y-94202951D02*
X178817168Y-94227142D01*
X178817168Y-94227142D02*
X178768787Y-94251332D01*
X178768787Y-94251332D02*
X178744596Y-94275523D01*
X178744596Y-94275523D02*
X178720406Y-94323904D01*
X179228406Y-94977047D02*
X179228406Y-94686761D01*
X179228406Y-94831904D02*
X178720406Y-94831904D01*
X178720406Y-94831904D02*
X178792977Y-94783523D01*
X178792977Y-94783523D02*
X178841358Y-94735142D01*
X178841358Y-94735142D02*
X178865549Y-94686761D01*
X118369593Y-97396095D02*
X118369593Y-97347714D01*
X118369593Y-97347714D02*
X118345403Y-97299333D01*
X118345403Y-97299333D02*
X118321212Y-97275143D01*
X118321212Y-97275143D02*
X118272831Y-97250952D01*
X118272831Y-97250952D02*
X118176069Y-97226762D01*
X118176069Y-97226762D02*
X118055117Y-97226762D01*
X118055117Y-97226762D02*
X117958355Y-97250952D01*
X117958355Y-97250952D02*
X117909974Y-97275143D01*
X117909974Y-97275143D02*
X117885784Y-97299333D01*
X117885784Y-97299333D02*
X117861593Y-97347714D01*
X117861593Y-97347714D02*
X117861593Y-97396095D01*
X117861593Y-97396095D02*
X117885784Y-97444476D01*
X117885784Y-97444476D02*
X117909974Y-97468667D01*
X117909974Y-97468667D02*
X117958355Y-97492857D01*
X117958355Y-97492857D02*
X118055117Y-97517048D01*
X118055117Y-97517048D02*
X118176069Y-97517048D01*
X118176069Y-97517048D02*
X118272831Y-97492857D01*
X118272831Y-97492857D02*
X118321212Y-97468667D01*
X118321212Y-97468667D02*
X118345403Y-97444476D01*
X118345403Y-97444476D02*
X118369593Y-97396095D01*
X118321212Y-97033238D02*
X118345403Y-97009047D01*
X118345403Y-97009047D02*
X118369593Y-96960666D01*
X118369593Y-96960666D02*
X118369593Y-96839714D01*
X118369593Y-96839714D02*
X118345403Y-96791333D01*
X118345403Y-96791333D02*
X118321212Y-96767142D01*
X118321212Y-96767142D02*
X118272831Y-96742952D01*
X118272831Y-96742952D02*
X118224450Y-96742952D01*
X118224450Y-96742952D02*
X118151879Y-96767142D01*
X118151879Y-96767142D02*
X117861593Y-97057428D01*
X117861593Y-97057428D02*
X117861593Y-96742952D01*
D10*
X124100476Y-117289580D02*
X124148095Y-117337200D01*
X124148095Y-117337200D02*
X124290952Y-117384819D01*
X124290952Y-117384819D02*
X124386190Y-117384819D01*
X124386190Y-117384819D02*
X124529047Y-117337200D01*
X124529047Y-117337200D02*
X124624285Y-117241961D01*
X124624285Y-117241961D02*
X124671904Y-117146723D01*
X124671904Y-117146723D02*
X124719523Y-116956247D01*
X124719523Y-116956247D02*
X124719523Y-116813390D01*
X124719523Y-116813390D02*
X124671904Y-116622914D01*
X124671904Y-116622914D02*
X124624285Y-116527676D01*
X124624285Y-116527676D02*
X124529047Y-116432438D01*
X124529047Y-116432438D02*
X124386190Y-116384819D01*
X124386190Y-116384819D02*
X124290952Y-116384819D01*
X124290952Y-116384819D02*
X124148095Y-116432438D01*
X124148095Y-116432438D02*
X124100476Y-116480057D01*
X165335713Y-90427200D02*
X165192856Y-90474819D01*
X165192856Y-90474819D02*
X164954761Y-90474819D01*
X164954761Y-90474819D02*
X164859523Y-90427200D01*
X164859523Y-90427200D02*
X164811904Y-90379580D01*
X164811904Y-90379580D02*
X164764285Y-90284342D01*
X164764285Y-90284342D02*
X164764285Y-90189104D01*
X164764285Y-90189104D02*
X164811904Y-90093866D01*
X164811904Y-90093866D02*
X164859523Y-90046247D01*
X164859523Y-90046247D02*
X164954761Y-89998628D01*
X164954761Y-89998628D02*
X165145237Y-89951009D01*
X165145237Y-89951009D02*
X165240475Y-89903390D01*
X165240475Y-89903390D02*
X165288094Y-89855771D01*
X165288094Y-89855771D02*
X165335713Y-89760533D01*
X165335713Y-89760533D02*
X165335713Y-89665295D01*
X165335713Y-89665295D02*
X165288094Y-89570057D01*
X165288094Y-89570057D02*
X165240475Y-89522438D01*
X165240475Y-89522438D02*
X165145237Y-89474819D01*
X165145237Y-89474819D02*
X164907142Y-89474819D01*
X164907142Y-89474819D02*
X164764285Y-89522438D01*
X173003332Y-89474819D02*
X172669999Y-90474819D01*
X172669999Y-90474819D02*
X172336666Y-89474819D01*
X154985237Y-89474819D02*
X154794761Y-89474819D01*
X154794761Y-89474819D02*
X154699523Y-89522438D01*
X154699523Y-89522438D02*
X154604285Y-89617676D01*
X154604285Y-89617676D02*
X154556666Y-89808152D01*
X154556666Y-89808152D02*
X154556666Y-90141485D01*
X154556666Y-90141485D02*
X154604285Y-90331961D01*
X154604285Y-90331961D02*
X154699523Y-90427200D01*
X154699523Y-90427200D02*
X154794761Y-90474819D01*
X154794761Y-90474819D02*
X154985237Y-90474819D01*
X154985237Y-90474819D02*
X155080475Y-90427200D01*
X155080475Y-90427200D02*
X155175713Y-90331961D01*
X155175713Y-90331961D02*
X155223332Y-90141485D01*
X155223332Y-90141485D02*
X155223332Y-89808152D01*
X155223332Y-89808152D02*
X155175713Y-89617676D01*
X155175713Y-89617676D02*
X155080475Y-89522438D01*
X155080475Y-89522438D02*
X154985237Y-89474819D01*
X170415713Y-116384819D02*
X170415713Y-117194342D01*
X170415713Y-117194342D02*
X170368094Y-117289580D01*
X170368094Y-117289580D02*
X170320475Y-117337200D01*
X170320475Y-117337200D02*
X170225237Y-117384819D01*
X170225237Y-117384819D02*
X170034761Y-117384819D01*
X170034761Y-117384819D02*
X169939523Y-117337200D01*
X169939523Y-117337200D02*
X169891904Y-117289580D01*
X169891904Y-117289580D02*
X169844285Y-117194342D01*
X169844285Y-117194342D02*
X169844285Y-116384819D01*
D11*
X118369593Y-112636095D02*
X118369593Y-112587714D01*
X118369593Y-112587714D02*
X118345403Y-112539333D01*
X118345403Y-112539333D02*
X118321212Y-112515143D01*
X118321212Y-112515143D02*
X118272831Y-112490952D01*
X118272831Y-112490952D02*
X118176069Y-112466762D01*
X118176069Y-112466762D02*
X118055117Y-112466762D01*
X118055117Y-112466762D02*
X117958355Y-112490952D01*
X117958355Y-112490952D02*
X117909974Y-112515143D01*
X117909974Y-112515143D02*
X117885784Y-112539333D01*
X117885784Y-112539333D02*
X117861593Y-112587714D01*
X117861593Y-112587714D02*
X117861593Y-112636095D01*
X117861593Y-112636095D02*
X117885784Y-112684476D01*
X117885784Y-112684476D02*
X117909974Y-112708667D01*
X117909974Y-112708667D02*
X117958355Y-112732857D01*
X117958355Y-112732857D02*
X118055117Y-112757048D01*
X118055117Y-112757048D02*
X118176069Y-112757048D01*
X118176069Y-112757048D02*
X118272831Y-112732857D01*
X118272831Y-112732857D02*
X118321212Y-112708667D01*
X118321212Y-112708667D02*
X118345403Y-112684476D01*
X118345403Y-112684476D02*
X118369593Y-112636095D01*
X118151879Y-112176476D02*
X118176069Y-112224857D01*
X118176069Y-112224857D02*
X118200260Y-112249047D01*
X118200260Y-112249047D02*
X118248641Y-112273238D01*
X118248641Y-112273238D02*
X118272831Y-112273238D01*
X118272831Y-112273238D02*
X118321212Y-112249047D01*
X118321212Y-112249047D02*
X118345403Y-112224857D01*
X118345403Y-112224857D02*
X118369593Y-112176476D01*
X118369593Y-112176476D02*
X118369593Y-112079714D01*
X118369593Y-112079714D02*
X118345403Y-112031333D01*
X118345403Y-112031333D02*
X118321212Y-112007142D01*
X118321212Y-112007142D02*
X118272831Y-111982952D01*
X118272831Y-111982952D02*
X118248641Y-111982952D01*
X118248641Y-111982952D02*
X118200260Y-112007142D01*
X118200260Y-112007142D02*
X118176069Y-112031333D01*
X118176069Y-112031333D02*
X118151879Y-112079714D01*
X118151879Y-112079714D02*
X118151879Y-112176476D01*
X118151879Y-112176476D02*
X118127688Y-112224857D01*
X118127688Y-112224857D02*
X118103498Y-112249047D01*
X118103498Y-112249047D02*
X118055117Y-112273238D01*
X118055117Y-112273238D02*
X117958355Y-112273238D01*
X117958355Y-112273238D02*
X117909974Y-112249047D01*
X117909974Y-112249047D02*
X117885784Y-112224857D01*
X117885784Y-112224857D02*
X117861593Y-112176476D01*
X117861593Y-112176476D02*
X117861593Y-112079714D01*
X117861593Y-112079714D02*
X117885784Y-112031333D01*
X117885784Y-112031333D02*
X117909974Y-112007142D01*
X117909974Y-112007142D02*
X117958355Y-111982952D01*
X117958355Y-111982952D02*
X118055117Y-111982952D01*
X118055117Y-111982952D02*
X118103498Y-112007142D01*
X118103498Y-112007142D02*
X118127688Y-112031333D01*
X118127688Y-112031333D02*
X118151879Y-112079714D01*
D10*
X162200476Y-90474819D02*
X162533809Y-89998628D01*
X162771904Y-90474819D02*
X162771904Y-89474819D01*
X162771904Y-89474819D02*
X162390952Y-89474819D01*
X162390952Y-89474819D02*
X162295714Y-89522438D01*
X162295714Y-89522438D02*
X162248095Y-89570057D01*
X162248095Y-89570057D02*
X162200476Y-89665295D01*
X162200476Y-89665295D02*
X162200476Y-89808152D01*
X162200476Y-89808152D02*
X162248095Y-89903390D01*
X162248095Y-89903390D02*
X162295714Y-89951009D01*
X162295714Y-89951009D02*
X162390952Y-89998628D01*
X162390952Y-89998628D02*
X162771904Y-89998628D01*
X167875713Y-116384819D02*
X167304285Y-116384819D01*
X167589999Y-117384819D02*
X167589999Y-116384819D01*
D11*
X178720406Y-104483904D02*
X178720406Y-104532285D01*
X178720406Y-104532285D02*
X178744596Y-104580666D01*
X178744596Y-104580666D02*
X178768787Y-104604856D01*
X178768787Y-104604856D02*
X178817168Y-104629047D01*
X178817168Y-104629047D02*
X178913930Y-104653237D01*
X178913930Y-104653237D02*
X179034882Y-104653237D01*
X179034882Y-104653237D02*
X179131644Y-104629047D01*
X179131644Y-104629047D02*
X179180025Y-104604856D01*
X179180025Y-104604856D02*
X179204216Y-104580666D01*
X179204216Y-104580666D02*
X179228406Y-104532285D01*
X179228406Y-104532285D02*
X179228406Y-104483904D01*
X179228406Y-104483904D02*
X179204216Y-104435523D01*
X179204216Y-104435523D02*
X179180025Y-104411332D01*
X179180025Y-104411332D02*
X179131644Y-104387142D01*
X179131644Y-104387142D02*
X179034882Y-104362951D01*
X179034882Y-104362951D02*
X178913930Y-104362951D01*
X178913930Y-104362951D02*
X178817168Y-104387142D01*
X178817168Y-104387142D02*
X178768787Y-104411332D01*
X178768787Y-104411332D02*
X178744596Y-104435523D01*
X178744596Y-104435523D02*
X178720406Y-104483904D01*
X178720406Y-105112857D02*
X178720406Y-104870952D01*
X178720406Y-104870952D02*
X178962311Y-104846761D01*
X178962311Y-104846761D02*
X178938120Y-104870952D01*
X178938120Y-104870952D02*
X178913930Y-104919333D01*
X178913930Y-104919333D02*
X178913930Y-105040285D01*
X178913930Y-105040285D02*
X178938120Y-105088666D01*
X178938120Y-105088666D02*
X178962311Y-105112857D01*
X178962311Y-105112857D02*
X179010692Y-105137047D01*
X179010692Y-105137047D02*
X179131644Y-105137047D01*
X179131644Y-105137047D02*
X179180025Y-105112857D01*
X179180025Y-105112857D02*
X179204216Y-105088666D01*
X179204216Y-105088666D02*
X179228406Y-105040285D01*
X179228406Y-105040285D02*
X179228406Y-104919333D01*
X179228406Y-104919333D02*
X179204216Y-104870952D01*
X179204216Y-104870952D02*
X179180025Y-104846761D01*
D10*
X127211904Y-117384819D02*
X127211904Y-116384819D01*
X127211904Y-116384819D02*
X126973809Y-116384819D01*
X126973809Y-116384819D02*
X126830952Y-116432438D01*
X126830952Y-116432438D02*
X126735714Y-116527676D01*
X126735714Y-116527676D02*
X126688095Y-116622914D01*
X126688095Y-116622914D02*
X126640476Y-116813390D01*
X126640476Y-116813390D02*
X126640476Y-116956247D01*
X126640476Y-116956247D02*
X126688095Y-117146723D01*
X126688095Y-117146723D02*
X126735714Y-117241961D01*
X126735714Y-117241961D02*
X126830952Y-117337200D01*
X126830952Y-117337200D02*
X126973809Y-117384819D01*
X126973809Y-117384819D02*
X127211904Y-117384819D01*
X146960476Y-117384819D02*
X147436666Y-117384819D01*
X147436666Y-117384819D02*
X147436666Y-116384819D01*
X119568094Y-117099104D02*
X119091904Y-117099104D01*
X119663332Y-117384819D02*
X119329999Y-116384819D01*
X119329999Y-116384819D02*
X118996666Y-117384819D01*
X150143332Y-117384819D02*
X150143332Y-116384819D01*
X150143332Y-116384819D02*
X149809999Y-117099104D01*
X149809999Y-117099104D02*
X149476666Y-116384819D01*
X149476666Y-116384819D02*
X149476666Y-117384819D01*
D11*
X178720406Y-112103904D02*
X178720406Y-112152285D01*
X178720406Y-112152285D02*
X178744596Y-112200666D01*
X178744596Y-112200666D02*
X178768787Y-112224856D01*
X178768787Y-112224856D02*
X178817168Y-112249047D01*
X178817168Y-112249047D02*
X178913930Y-112273237D01*
X178913930Y-112273237D02*
X179034882Y-112273237D01*
X179034882Y-112273237D02*
X179131644Y-112249047D01*
X179131644Y-112249047D02*
X179180025Y-112224856D01*
X179180025Y-112224856D02*
X179204216Y-112200666D01*
X179204216Y-112200666D02*
X179228406Y-112152285D01*
X179228406Y-112152285D02*
X179228406Y-112103904D01*
X179228406Y-112103904D02*
X179204216Y-112055523D01*
X179204216Y-112055523D02*
X179180025Y-112031332D01*
X179180025Y-112031332D02*
X179131644Y-112007142D01*
X179131644Y-112007142D02*
X179034882Y-111982951D01*
X179034882Y-111982951D02*
X178913930Y-111982951D01*
X178913930Y-111982951D02*
X178817168Y-112007142D01*
X178817168Y-112007142D02*
X178768787Y-112031332D01*
X178768787Y-112031332D02*
X178744596Y-112055523D01*
X178744596Y-112055523D02*
X178720406Y-112103904D01*
X178938120Y-112563523D02*
X178913930Y-112515142D01*
X178913930Y-112515142D02*
X178889739Y-112490952D01*
X178889739Y-112490952D02*
X178841358Y-112466761D01*
X178841358Y-112466761D02*
X178817168Y-112466761D01*
X178817168Y-112466761D02*
X178768787Y-112490952D01*
X178768787Y-112490952D02*
X178744596Y-112515142D01*
X178744596Y-112515142D02*
X178720406Y-112563523D01*
X178720406Y-112563523D02*
X178720406Y-112660285D01*
X178720406Y-112660285D02*
X178744596Y-112708666D01*
X178744596Y-112708666D02*
X178768787Y-112732857D01*
X178768787Y-112732857D02*
X178817168Y-112757047D01*
X178817168Y-112757047D02*
X178841358Y-112757047D01*
X178841358Y-112757047D02*
X178889739Y-112732857D01*
X178889739Y-112732857D02*
X178913930Y-112708666D01*
X178913930Y-112708666D02*
X178938120Y-112660285D01*
X178938120Y-112660285D02*
X178938120Y-112563523D01*
X178938120Y-112563523D02*
X178962311Y-112515142D01*
X178962311Y-112515142D02*
X178986501Y-112490952D01*
X178986501Y-112490952D02*
X179034882Y-112466761D01*
X179034882Y-112466761D02*
X179131644Y-112466761D01*
X179131644Y-112466761D02*
X179180025Y-112490952D01*
X179180025Y-112490952D02*
X179204216Y-112515142D01*
X179204216Y-112515142D02*
X179228406Y-112563523D01*
X179228406Y-112563523D02*
X179228406Y-112660285D01*
X179228406Y-112660285D02*
X179204216Y-112708666D01*
X179204216Y-112708666D02*
X179180025Y-112732857D01*
X179180025Y-112732857D02*
X179131644Y-112757047D01*
X179131644Y-112757047D02*
X179034882Y-112757047D01*
X179034882Y-112757047D02*
X178986501Y-112732857D01*
X178986501Y-112732857D02*
X178962311Y-112708666D01*
X178962311Y-112708666D02*
X178938120Y-112660285D01*
D10*
X152635713Y-90474819D02*
X152635713Y-89474819D01*
X152635713Y-89474819D02*
X152064285Y-90474819D01*
X152064285Y-90474819D02*
X152064285Y-89474819D01*
X142047142Y-116384819D02*
X142047142Y-117099104D01*
X142047142Y-117099104D02*
X142094761Y-117241961D01*
X142094761Y-117241961D02*
X142189999Y-117337200D01*
X142189999Y-117337200D02*
X142332856Y-117384819D01*
X142332856Y-117384819D02*
X142428094Y-117384819D01*
X137395713Y-90474819D02*
X137395713Y-89474819D01*
X137395713Y-89951009D02*
X136824285Y-89951009D01*
X136824285Y-90474819D02*
X136824285Y-89474819D01*
X170415713Y-89474819D02*
X170415713Y-90284342D01*
X170415713Y-90284342D02*
X170368094Y-90379580D01*
X170368094Y-90379580D02*
X170320475Y-90427200D01*
X170320475Y-90427200D02*
X170225237Y-90474819D01*
X170225237Y-90474819D02*
X170034761Y-90474819D01*
X170034761Y-90474819D02*
X169939523Y-90427200D01*
X169939523Y-90427200D02*
X169891904Y-90379580D01*
X169891904Y-90379580D02*
X169844285Y-90284342D01*
X169844285Y-90284342D02*
X169844285Y-89474819D01*
X127211904Y-90474819D02*
X127211904Y-89474819D01*
X127211904Y-89474819D02*
X126973809Y-89474819D01*
X126973809Y-89474819D02*
X126830952Y-89522438D01*
X126830952Y-89522438D02*
X126735714Y-89617676D01*
X126735714Y-89617676D02*
X126688095Y-89712914D01*
X126688095Y-89712914D02*
X126640476Y-89903390D01*
X126640476Y-89903390D02*
X126640476Y-90046247D01*
X126640476Y-90046247D02*
X126688095Y-90236723D01*
X126688095Y-90236723D02*
X126735714Y-90331961D01*
X126735714Y-90331961D02*
X126830952Y-90427200D01*
X126830952Y-90427200D02*
X126973809Y-90474819D01*
X126973809Y-90474819D02*
X127211904Y-90474819D01*
X152635713Y-117384819D02*
X152635713Y-116384819D01*
X152635713Y-116384819D02*
X152064285Y-117384819D01*
X152064285Y-117384819D02*
X152064285Y-116384819D01*
D13*
X159541429Y-98019695D02*
X158341429Y-98019695D01*
X158341429Y-98019695D02*
X159112857Y-98819695D01*
X157312857Y-98019695D02*
X157141428Y-98019695D01*
X157141428Y-98019695D02*
X156970000Y-98057790D01*
X156970000Y-98057790D02*
X156884286Y-98095885D01*
X156884286Y-98095885D02*
X156798571Y-98172076D01*
X156798571Y-98172076D02*
X156712857Y-98324457D01*
X156712857Y-98324457D02*
X156712857Y-98514933D01*
X156712857Y-98514933D02*
X156798571Y-98667314D01*
X156798571Y-98667314D02*
X156884286Y-98743504D01*
X156884286Y-98743504D02*
X156970000Y-98781600D01*
X156970000Y-98781600D02*
X157141428Y-98819695D01*
X157141428Y-98819695D02*
X157312857Y-98819695D01*
X157312857Y-98819695D02*
X157484286Y-98781600D01*
X157484286Y-98781600D02*
X157570000Y-98743504D01*
X157570000Y-98743504D02*
X157655714Y-98667314D01*
X157655714Y-98667314D02*
X157741428Y-98514933D01*
X157741428Y-98514933D02*
X157741428Y-98324457D01*
X157741428Y-98324457D02*
X157655714Y-98172076D01*
X157655714Y-98172076D02*
X157570000Y-98095885D01*
X157570000Y-98095885D02*
X157484286Y-98057790D01*
X157484286Y-98057790D02*
X157312857Y-98019695D01*
X155941428Y-98819695D02*
X155941428Y-98286361D01*
X155941428Y-98362552D02*
X155855714Y-98324457D01*
X155855714Y-98324457D02*
X155684285Y-98286361D01*
X155684285Y-98286361D02*
X155427142Y-98286361D01*
X155427142Y-98286361D02*
X155255714Y-98324457D01*
X155255714Y-98324457D02*
X155170000Y-98400647D01*
X155170000Y-98400647D02*
X155170000Y-98819695D01*
X155170000Y-98400647D02*
X155084285Y-98324457D01*
X155084285Y-98324457D02*
X154912857Y-98286361D01*
X154912857Y-98286361D02*
X154655714Y-98286361D01*
X154655714Y-98286361D02*
X154484285Y-98324457D01*
X154484285Y-98324457D02*
X154398571Y-98400647D01*
X154398571Y-98400647D02*
X154398571Y-98819695D01*
X153541428Y-98819695D02*
X153541428Y-98286361D01*
X153541428Y-98362552D02*
X153455714Y-98324457D01*
X153455714Y-98324457D02*
X153284285Y-98286361D01*
X153284285Y-98286361D02*
X153027142Y-98286361D01*
X153027142Y-98286361D02*
X152855714Y-98324457D01*
X152855714Y-98324457D02*
X152770000Y-98400647D01*
X152770000Y-98400647D02*
X152770000Y-98819695D01*
X152770000Y-98400647D02*
X152684285Y-98324457D01*
X152684285Y-98324457D02*
X152512857Y-98286361D01*
X152512857Y-98286361D02*
X152255714Y-98286361D01*
X152255714Y-98286361D02*
X152084285Y-98324457D01*
X152084285Y-98324457D02*
X151998571Y-98400647D01*
X151998571Y-98400647D02*
X151998571Y-98819695D01*
X149941428Y-98819695D02*
X148998571Y-98286361D01*
X149941428Y-98286361D02*
X148998571Y-98819695D01*
X147112856Y-98019695D02*
X145998570Y-98019695D01*
X145998570Y-98019695D02*
X146598570Y-98324457D01*
X146598570Y-98324457D02*
X146341427Y-98324457D01*
X146341427Y-98324457D02*
X146169999Y-98362552D01*
X146169999Y-98362552D02*
X146084284Y-98400647D01*
X146084284Y-98400647D02*
X145998570Y-98476838D01*
X145998570Y-98476838D02*
X145998570Y-98667314D01*
X145998570Y-98667314D02*
X146084284Y-98743504D01*
X146084284Y-98743504D02*
X146169999Y-98781600D01*
X146169999Y-98781600D02*
X146341427Y-98819695D01*
X146341427Y-98819695D02*
X146855713Y-98819695D01*
X146855713Y-98819695D02*
X147027141Y-98781600D01*
X147027141Y-98781600D02*
X147112856Y-98743504D01*
X144884284Y-98019695D02*
X144712855Y-98019695D01*
X144712855Y-98019695D02*
X144541427Y-98057790D01*
X144541427Y-98057790D02*
X144455713Y-98095885D01*
X144455713Y-98095885D02*
X144369998Y-98172076D01*
X144369998Y-98172076D02*
X144284284Y-98324457D01*
X144284284Y-98324457D02*
X144284284Y-98514933D01*
X144284284Y-98514933D02*
X144369998Y-98667314D01*
X144369998Y-98667314D02*
X144455713Y-98743504D01*
X144455713Y-98743504D02*
X144541427Y-98781600D01*
X144541427Y-98781600D02*
X144712855Y-98819695D01*
X144712855Y-98819695D02*
X144884284Y-98819695D01*
X144884284Y-98819695D02*
X145055713Y-98781600D01*
X145055713Y-98781600D02*
X145141427Y-98743504D01*
X145141427Y-98743504D02*
X145227141Y-98667314D01*
X145227141Y-98667314D02*
X145312855Y-98514933D01*
X145312855Y-98514933D02*
X145312855Y-98324457D01*
X145312855Y-98324457D02*
X145227141Y-98172076D01*
X145227141Y-98172076D02*
X145141427Y-98095885D01*
X145141427Y-98095885D02*
X145055713Y-98057790D01*
X145055713Y-98057790D02*
X144884284Y-98019695D01*
X143512855Y-98819695D02*
X143512855Y-98286361D01*
X143512855Y-98362552D02*
X143427141Y-98324457D01*
X143427141Y-98324457D02*
X143255712Y-98286361D01*
X143255712Y-98286361D02*
X142998569Y-98286361D01*
X142998569Y-98286361D02*
X142827141Y-98324457D01*
X142827141Y-98324457D02*
X142741427Y-98400647D01*
X142741427Y-98400647D02*
X142741427Y-98819695D01*
X142741427Y-98400647D02*
X142655712Y-98324457D01*
X142655712Y-98324457D02*
X142484284Y-98286361D01*
X142484284Y-98286361D02*
X142227141Y-98286361D01*
X142227141Y-98286361D02*
X142055712Y-98324457D01*
X142055712Y-98324457D02*
X141969998Y-98400647D01*
X141969998Y-98400647D02*
X141969998Y-98819695D01*
X141112855Y-98819695D02*
X141112855Y-98286361D01*
X141112855Y-98362552D02*
X141027141Y-98324457D01*
X141027141Y-98324457D02*
X140855712Y-98286361D01*
X140855712Y-98286361D02*
X140598569Y-98286361D01*
X140598569Y-98286361D02*
X140427141Y-98324457D01*
X140427141Y-98324457D02*
X140341427Y-98400647D01*
X140341427Y-98400647D02*
X140341427Y-98819695D01*
X140341427Y-98400647D02*
X140255712Y-98324457D01*
X140255712Y-98324457D02*
X140084284Y-98286361D01*
X140084284Y-98286361D02*
X139827141Y-98286361D01*
X139827141Y-98286361D02*
X139655712Y-98324457D01*
X139655712Y-98324457D02*
X139569998Y-98400647D01*
X139569998Y-98400647D02*
X139569998Y-98819695D01*
D10*
X137395713Y-117384819D02*
X137395713Y-116384819D01*
X137395713Y-116861009D02*
X136824285Y-116861009D01*
X136824285Y-117384819D02*
X136824285Y-116384819D01*
X129704285Y-116861009D02*
X129370952Y-116861009D01*
X129228095Y-117384819D02*
X129704285Y-117384819D01*
X129704285Y-117384819D02*
X129704285Y-116384819D01*
X129704285Y-116384819D02*
X129228095Y-116384819D01*
X173003332Y-116384819D02*
X172669999Y-117384819D01*
X172669999Y-117384819D02*
X172336666Y-116384819D01*
D11*
X178720406Y-109563904D02*
X178720406Y-109612285D01*
X178720406Y-109612285D02*
X178744596Y-109660666D01*
X178744596Y-109660666D02*
X178768787Y-109684856D01*
X178768787Y-109684856D02*
X178817168Y-109709047D01*
X178817168Y-109709047D02*
X178913930Y-109733237D01*
X178913930Y-109733237D02*
X179034882Y-109733237D01*
X179034882Y-109733237D02*
X179131644Y-109709047D01*
X179131644Y-109709047D02*
X179180025Y-109684856D01*
X179180025Y-109684856D02*
X179204216Y-109660666D01*
X179204216Y-109660666D02*
X179228406Y-109612285D01*
X179228406Y-109612285D02*
X179228406Y-109563904D01*
X179228406Y-109563904D02*
X179204216Y-109515523D01*
X179204216Y-109515523D02*
X179180025Y-109491332D01*
X179180025Y-109491332D02*
X179131644Y-109467142D01*
X179131644Y-109467142D02*
X179034882Y-109442951D01*
X179034882Y-109442951D02*
X178913930Y-109442951D01*
X178913930Y-109442951D02*
X178817168Y-109467142D01*
X178817168Y-109467142D02*
X178768787Y-109491332D01*
X178768787Y-109491332D02*
X178744596Y-109515523D01*
X178744596Y-109515523D02*
X178720406Y-109563904D01*
X178720406Y-109902571D02*
X178720406Y-110241238D01*
X178720406Y-110241238D02*
X179228406Y-110023523D01*
D10*
X175638570Y-116384819D02*
X175400475Y-117384819D01*
X175400475Y-117384819D02*
X175209999Y-116670533D01*
X175209999Y-116670533D02*
X175019523Y-117384819D01*
X175019523Y-117384819D02*
X174781428Y-116384819D01*
D11*
X178740406Y-96863904D02*
X178740406Y-96912285D01*
X178740406Y-96912285D02*
X178764596Y-96960666D01*
X178764596Y-96960666D02*
X178788787Y-96984856D01*
X178788787Y-96984856D02*
X178837168Y-97009047D01*
X178837168Y-97009047D02*
X178933930Y-97033237D01*
X178933930Y-97033237D02*
X179054882Y-97033237D01*
X179054882Y-97033237D02*
X179151644Y-97009047D01*
X179151644Y-97009047D02*
X179200025Y-96984856D01*
X179200025Y-96984856D02*
X179224216Y-96960666D01*
X179224216Y-96960666D02*
X179248406Y-96912285D01*
X179248406Y-96912285D02*
X179248406Y-96863904D01*
X179248406Y-96863904D02*
X179224216Y-96815523D01*
X179224216Y-96815523D02*
X179200025Y-96791332D01*
X179200025Y-96791332D02*
X179151644Y-96767142D01*
X179151644Y-96767142D02*
X179054882Y-96742951D01*
X179054882Y-96742951D02*
X178933930Y-96742951D01*
X178933930Y-96742951D02*
X178837168Y-96767142D01*
X178837168Y-96767142D02*
X178788787Y-96791332D01*
X178788787Y-96791332D02*
X178764596Y-96815523D01*
X178764596Y-96815523D02*
X178740406Y-96863904D01*
X178788787Y-97226761D02*
X178764596Y-97250952D01*
X178764596Y-97250952D02*
X178740406Y-97299333D01*
X178740406Y-97299333D02*
X178740406Y-97420285D01*
X178740406Y-97420285D02*
X178764596Y-97468666D01*
X178764596Y-97468666D02*
X178788787Y-97492857D01*
X178788787Y-97492857D02*
X178837168Y-97517047D01*
X178837168Y-97517047D02*
X178885549Y-97517047D01*
X178885549Y-97517047D02*
X178958120Y-97492857D01*
X178958120Y-97492857D02*
X179248406Y-97202571D01*
X179248406Y-97202571D02*
X179248406Y-97517047D01*
D10*
X119568094Y-90189104D02*
X119091904Y-90189104D01*
X119663332Y-90474819D02*
X119329999Y-89474819D01*
X119329999Y-89474819D02*
X118996666Y-90474819D01*
X129704285Y-89951009D02*
X129370952Y-89951009D01*
X129228095Y-90474819D02*
X129704285Y-90474819D01*
X129704285Y-90474819D02*
X129704285Y-89474819D01*
X129704285Y-89474819D02*
X129228095Y-89474819D01*
D11*
X178720406Y-99403904D02*
X178720406Y-99452285D01*
X178720406Y-99452285D02*
X178744596Y-99500666D01*
X178744596Y-99500666D02*
X178768787Y-99524856D01*
X178768787Y-99524856D02*
X178817168Y-99549047D01*
X178817168Y-99549047D02*
X178913930Y-99573237D01*
X178913930Y-99573237D02*
X179034882Y-99573237D01*
X179034882Y-99573237D02*
X179131644Y-99549047D01*
X179131644Y-99549047D02*
X179180025Y-99524856D01*
X179180025Y-99524856D02*
X179204216Y-99500666D01*
X179204216Y-99500666D02*
X179228406Y-99452285D01*
X179228406Y-99452285D02*
X179228406Y-99403904D01*
X179228406Y-99403904D02*
X179204216Y-99355523D01*
X179204216Y-99355523D02*
X179180025Y-99331332D01*
X179180025Y-99331332D02*
X179131644Y-99307142D01*
X179131644Y-99307142D02*
X179034882Y-99282951D01*
X179034882Y-99282951D02*
X178913930Y-99282951D01*
X178913930Y-99282951D02*
X178817168Y-99307142D01*
X178817168Y-99307142D02*
X178768787Y-99331332D01*
X178768787Y-99331332D02*
X178744596Y-99355523D01*
X178744596Y-99355523D02*
X178720406Y-99403904D01*
X178720406Y-99742571D02*
X178720406Y-100057047D01*
X178720406Y-100057047D02*
X178913930Y-99887714D01*
X178913930Y-99887714D02*
X178913930Y-99960285D01*
X178913930Y-99960285D02*
X178938120Y-100008666D01*
X178938120Y-100008666D02*
X178962311Y-100032857D01*
X178962311Y-100032857D02*
X179010692Y-100057047D01*
X179010692Y-100057047D02*
X179131644Y-100057047D01*
X179131644Y-100057047D02*
X179180025Y-100032857D01*
X179180025Y-100032857D02*
X179204216Y-100008666D01*
X179204216Y-100008666D02*
X179228406Y-99960285D01*
X179228406Y-99960285D02*
X179228406Y-99815142D01*
X179228406Y-99815142D02*
X179204216Y-99766761D01*
X179204216Y-99766761D02*
X179180025Y-99742571D01*
D13*
X159955713Y-93643504D02*
X160041427Y-93681600D01*
X160041427Y-93681600D02*
X160298570Y-93719695D01*
X160298570Y-93719695D02*
X160469998Y-93719695D01*
X160469998Y-93719695D02*
X160727141Y-93681600D01*
X160727141Y-93681600D02*
X160898570Y-93605409D01*
X160898570Y-93605409D02*
X160984284Y-93529219D01*
X160984284Y-93529219D02*
X161069998Y-93376838D01*
X161069998Y-93376838D02*
X161069998Y-93262552D01*
X161069998Y-93262552D02*
X160984284Y-93110171D01*
X160984284Y-93110171D02*
X160898570Y-93033980D01*
X160898570Y-93033980D02*
X160727141Y-92957790D01*
X160727141Y-92957790D02*
X160469998Y-92919695D01*
X160469998Y-92919695D02*
X160298570Y-92919695D01*
X160298570Y-92919695D02*
X160041427Y-92957790D01*
X160041427Y-92957790D02*
X159955713Y-92995885D01*
X158927141Y-93719695D02*
X159098570Y-93681600D01*
X159098570Y-93681600D02*
X159184284Y-93605409D01*
X159184284Y-93605409D02*
X159184284Y-92919695D01*
X157469999Y-93719695D02*
X157469999Y-93300647D01*
X157469999Y-93300647D02*
X157555713Y-93224457D01*
X157555713Y-93224457D02*
X157727141Y-93186361D01*
X157727141Y-93186361D02*
X158069999Y-93186361D01*
X158069999Y-93186361D02*
X158241427Y-93224457D01*
X157469999Y-93681600D02*
X157641427Y-93719695D01*
X157641427Y-93719695D02*
X158069999Y-93719695D01*
X158069999Y-93719695D02*
X158241427Y-93681600D01*
X158241427Y-93681600D02*
X158327141Y-93605409D01*
X158327141Y-93605409D02*
X158327141Y-93529219D01*
X158327141Y-93529219D02*
X158241427Y-93453028D01*
X158241427Y-93453028D02*
X158069999Y-93414933D01*
X158069999Y-93414933D02*
X157641427Y-93414933D01*
X157641427Y-93414933D02*
X157469999Y-93376838D01*
X156698570Y-93681600D02*
X156527142Y-93719695D01*
X156527142Y-93719695D02*
X156184285Y-93719695D01*
X156184285Y-93719695D02*
X156012856Y-93681600D01*
X156012856Y-93681600D02*
X155927142Y-93605409D01*
X155927142Y-93605409D02*
X155927142Y-93567314D01*
X155927142Y-93567314D02*
X156012856Y-93491123D01*
X156012856Y-93491123D02*
X156184285Y-93453028D01*
X156184285Y-93453028D02*
X156441428Y-93453028D01*
X156441428Y-93453028D02*
X156612856Y-93414933D01*
X156612856Y-93414933D02*
X156698570Y-93338742D01*
X156698570Y-93338742D02*
X156698570Y-93300647D01*
X156698570Y-93300647D02*
X156612856Y-93224457D01*
X156612856Y-93224457D02*
X156441428Y-93186361D01*
X156441428Y-93186361D02*
X156184285Y-93186361D01*
X156184285Y-93186361D02*
X156012856Y-93224457D01*
X155241427Y-93681600D02*
X155069999Y-93719695D01*
X155069999Y-93719695D02*
X154727142Y-93719695D01*
X154727142Y-93719695D02*
X154555713Y-93681600D01*
X154555713Y-93681600D02*
X154469999Y-93605409D01*
X154469999Y-93605409D02*
X154469999Y-93567314D01*
X154469999Y-93567314D02*
X154555713Y-93491123D01*
X154555713Y-93491123D02*
X154727142Y-93453028D01*
X154727142Y-93453028D02*
X154984285Y-93453028D01*
X154984285Y-93453028D02*
X155155713Y-93414933D01*
X155155713Y-93414933D02*
X155241427Y-93338742D01*
X155241427Y-93338742D02*
X155241427Y-93300647D01*
X155241427Y-93300647D02*
X155155713Y-93224457D01*
X155155713Y-93224457D02*
X154984285Y-93186361D01*
X154984285Y-93186361D02*
X154727142Y-93186361D01*
X154727142Y-93186361D02*
X154555713Y-93224457D01*
X153698570Y-93719695D02*
X153698570Y-93186361D01*
X153698570Y-92919695D02*
X153784284Y-92957790D01*
X153784284Y-92957790D02*
X153698570Y-92995885D01*
X153698570Y-92995885D02*
X153612856Y-92957790D01*
X153612856Y-92957790D02*
X153698570Y-92919695D01*
X153698570Y-92919695D02*
X153698570Y-92995885D01*
X152069999Y-93681600D02*
X152241427Y-93719695D01*
X152241427Y-93719695D02*
X152584284Y-93719695D01*
X152584284Y-93719695D02*
X152755713Y-93681600D01*
X152755713Y-93681600D02*
X152841427Y-93643504D01*
X152841427Y-93643504D02*
X152927141Y-93567314D01*
X152927141Y-93567314D02*
X152927141Y-93338742D01*
X152927141Y-93338742D02*
X152841427Y-93262552D01*
X152841427Y-93262552D02*
X152755713Y-93224457D01*
X152755713Y-93224457D02*
X152584284Y-93186361D01*
X152584284Y-93186361D02*
X152241427Y-93186361D01*
X152241427Y-93186361D02*
X152069999Y-93224457D01*
X149927141Y-93719695D02*
X149927141Y-92919695D01*
X149927141Y-92919695D02*
X149241427Y-92919695D01*
X149241427Y-92919695D02*
X149069998Y-92957790D01*
X149069998Y-92957790D02*
X148984284Y-92995885D01*
X148984284Y-92995885D02*
X148898570Y-93072076D01*
X148898570Y-93072076D02*
X148898570Y-93186361D01*
X148898570Y-93186361D02*
X148984284Y-93262552D01*
X148984284Y-93262552D02*
X149069998Y-93300647D01*
X149069998Y-93300647D02*
X149241427Y-93338742D01*
X149241427Y-93338742D02*
X149927141Y-93338742D01*
X148127141Y-93719695D02*
X148127141Y-93186361D01*
X148127141Y-93338742D02*
X148041427Y-93262552D01*
X148041427Y-93262552D02*
X147955713Y-93224457D01*
X147955713Y-93224457D02*
X147784284Y-93186361D01*
X147784284Y-93186361D02*
X147612855Y-93186361D01*
X146755712Y-93719695D02*
X146927141Y-93681600D01*
X146927141Y-93681600D02*
X147012855Y-93643504D01*
X147012855Y-93643504D02*
X147098569Y-93567314D01*
X147098569Y-93567314D02*
X147098569Y-93338742D01*
X147098569Y-93338742D02*
X147012855Y-93262552D01*
X147012855Y-93262552D02*
X146927141Y-93224457D01*
X146927141Y-93224457D02*
X146755712Y-93186361D01*
X146755712Y-93186361D02*
X146498569Y-93186361D01*
X146498569Y-93186361D02*
X146327141Y-93224457D01*
X146327141Y-93224457D02*
X146241427Y-93262552D01*
X146241427Y-93262552D02*
X146155712Y-93338742D01*
X146155712Y-93338742D02*
X146155712Y-93567314D01*
X146155712Y-93567314D02*
X146241427Y-93643504D01*
X146241427Y-93643504D02*
X146327141Y-93681600D01*
X146327141Y-93681600D02*
X146498569Y-93719695D01*
X146498569Y-93719695D02*
X146755712Y-93719695D01*
X145641427Y-93186361D02*
X144955713Y-93186361D01*
X145384284Y-92919695D02*
X145384284Y-93605409D01*
X145384284Y-93605409D02*
X145298570Y-93681600D01*
X145298570Y-93681600D02*
X145127141Y-93719695D01*
X145127141Y-93719695D02*
X144955713Y-93719695D01*
X144098570Y-93719695D02*
X144269999Y-93681600D01*
X144269999Y-93681600D02*
X144355713Y-93643504D01*
X144355713Y-93643504D02*
X144441427Y-93567314D01*
X144441427Y-93567314D02*
X144441427Y-93338742D01*
X144441427Y-93338742D02*
X144355713Y-93262552D01*
X144355713Y-93262552D02*
X144269999Y-93224457D01*
X144269999Y-93224457D02*
X144098570Y-93186361D01*
X144098570Y-93186361D02*
X143841427Y-93186361D01*
X143841427Y-93186361D02*
X143669999Y-93224457D01*
X143669999Y-93224457D02*
X143584285Y-93262552D01*
X143584285Y-93262552D02*
X143498570Y-93338742D01*
X143498570Y-93338742D02*
X143498570Y-93567314D01*
X143498570Y-93567314D02*
X143584285Y-93643504D01*
X143584285Y-93643504D02*
X143669999Y-93681600D01*
X143669999Y-93681600D02*
X143841427Y-93719695D01*
X143841427Y-93719695D02*
X144098570Y-93719695D01*
X142727142Y-93719695D02*
X142727142Y-92919695D01*
X142727142Y-93224457D02*
X142555714Y-93186361D01*
X142555714Y-93186361D02*
X142212856Y-93186361D01*
X142212856Y-93186361D02*
X142041428Y-93224457D01*
X142041428Y-93224457D02*
X141955714Y-93262552D01*
X141955714Y-93262552D02*
X141869999Y-93338742D01*
X141869999Y-93338742D02*
X141869999Y-93567314D01*
X141869999Y-93567314D02*
X141955714Y-93643504D01*
X141955714Y-93643504D02*
X142041428Y-93681600D01*
X142041428Y-93681600D02*
X142212856Y-93719695D01*
X142212856Y-93719695D02*
X142555714Y-93719695D01*
X142555714Y-93719695D02*
X142727142Y-93681600D01*
X140841428Y-93719695D02*
X141012857Y-93681600D01*
X141012857Y-93681600D02*
X141098571Y-93643504D01*
X141098571Y-93643504D02*
X141184285Y-93567314D01*
X141184285Y-93567314D02*
X141184285Y-93338742D01*
X141184285Y-93338742D02*
X141098571Y-93262552D01*
X141098571Y-93262552D02*
X141012857Y-93224457D01*
X141012857Y-93224457D02*
X140841428Y-93186361D01*
X140841428Y-93186361D02*
X140584285Y-93186361D01*
X140584285Y-93186361D02*
X140412857Y-93224457D01*
X140412857Y-93224457D02*
X140327143Y-93262552D01*
X140327143Y-93262552D02*
X140241428Y-93338742D01*
X140241428Y-93338742D02*
X140241428Y-93567314D01*
X140241428Y-93567314D02*
X140327143Y-93643504D01*
X140327143Y-93643504D02*
X140412857Y-93681600D01*
X140412857Y-93681600D02*
X140584285Y-93719695D01*
X140584285Y-93719695D02*
X140841428Y-93719695D01*
X138698572Y-93719695D02*
X138698572Y-93300647D01*
X138698572Y-93300647D02*
X138784286Y-93224457D01*
X138784286Y-93224457D02*
X138955714Y-93186361D01*
X138955714Y-93186361D02*
X139298572Y-93186361D01*
X139298572Y-93186361D02*
X139470000Y-93224457D01*
X138698572Y-93681600D02*
X138870000Y-93719695D01*
X138870000Y-93719695D02*
X139298572Y-93719695D01*
X139298572Y-93719695D02*
X139470000Y-93681600D01*
X139470000Y-93681600D02*
X139555714Y-93605409D01*
X139555714Y-93605409D02*
X139555714Y-93529219D01*
X139555714Y-93529219D02*
X139470000Y-93453028D01*
X139470000Y-93453028D02*
X139298572Y-93414933D01*
X139298572Y-93414933D02*
X138870000Y-93414933D01*
X138870000Y-93414933D02*
X138698572Y-93376838D01*
X137841429Y-93719695D02*
X137841429Y-93186361D01*
X137841429Y-93338742D02*
X137755715Y-93262552D01*
X137755715Y-93262552D02*
X137670001Y-93224457D01*
X137670001Y-93224457D02*
X137498572Y-93186361D01*
X137498572Y-93186361D02*
X137327143Y-93186361D01*
X135955715Y-93719695D02*
X135955715Y-92919695D01*
X135955715Y-93681600D02*
X136127143Y-93719695D01*
X136127143Y-93719695D02*
X136470000Y-93719695D01*
X136470000Y-93719695D02*
X136641429Y-93681600D01*
X136641429Y-93681600D02*
X136727143Y-93643504D01*
X136727143Y-93643504D02*
X136812857Y-93567314D01*
X136812857Y-93567314D02*
X136812857Y-93338742D01*
X136812857Y-93338742D02*
X136727143Y-93262552D01*
X136727143Y-93262552D02*
X136641429Y-93224457D01*
X136641429Y-93224457D02*
X136470000Y-93186361D01*
X136470000Y-93186361D02*
X136127143Y-93186361D01*
X136127143Y-93186361D02*
X135955715Y-93224457D01*
D10*
X144991904Y-117384819D02*
X144991904Y-116384819D01*
X144420476Y-117384819D02*
X144849047Y-116813390D01*
X144420476Y-116384819D02*
X144991904Y-116956247D01*
X134308095Y-89522438D02*
X134403333Y-89474819D01*
X134403333Y-89474819D02*
X134546190Y-89474819D01*
X134546190Y-89474819D02*
X134689047Y-89522438D01*
X134689047Y-89522438D02*
X134784285Y-89617676D01*
X134784285Y-89617676D02*
X134831904Y-89712914D01*
X134831904Y-89712914D02*
X134879523Y-89903390D01*
X134879523Y-89903390D02*
X134879523Y-90046247D01*
X134879523Y-90046247D02*
X134831904Y-90236723D01*
X134831904Y-90236723D02*
X134784285Y-90331961D01*
X134784285Y-90331961D02*
X134689047Y-90427200D01*
X134689047Y-90427200D02*
X134546190Y-90474819D01*
X134546190Y-90474819D02*
X134450952Y-90474819D01*
X134450952Y-90474819D02*
X134308095Y-90427200D01*
X134308095Y-90427200D02*
X134260476Y-90379580D01*
X134260476Y-90379580D02*
X134260476Y-90046247D01*
X134260476Y-90046247D02*
X134450952Y-90046247D01*
D11*
X118369593Y-94856095D02*
X118369593Y-94807714D01*
X118369593Y-94807714D02*
X118345403Y-94759333D01*
X118345403Y-94759333D02*
X118321212Y-94735143D01*
X118321212Y-94735143D02*
X118272831Y-94710952D01*
X118272831Y-94710952D02*
X118176069Y-94686762D01*
X118176069Y-94686762D02*
X118055117Y-94686762D01*
X118055117Y-94686762D02*
X117958355Y-94710952D01*
X117958355Y-94710952D02*
X117909974Y-94735143D01*
X117909974Y-94735143D02*
X117885784Y-94759333D01*
X117885784Y-94759333D02*
X117861593Y-94807714D01*
X117861593Y-94807714D02*
X117861593Y-94856095D01*
X117861593Y-94856095D02*
X117885784Y-94904476D01*
X117885784Y-94904476D02*
X117909974Y-94928667D01*
X117909974Y-94928667D02*
X117958355Y-94952857D01*
X117958355Y-94952857D02*
X118055117Y-94977048D01*
X118055117Y-94977048D02*
X118176069Y-94977048D01*
X118176069Y-94977048D02*
X118272831Y-94952857D01*
X118272831Y-94952857D02*
X118321212Y-94928667D01*
X118321212Y-94928667D02*
X118345403Y-94904476D01*
X118345403Y-94904476D02*
X118369593Y-94856095D01*
X117861593Y-94202952D02*
X117861593Y-94493238D01*
X117861593Y-94348095D02*
X118369593Y-94348095D01*
X118369593Y-94348095D02*
X118297022Y-94396476D01*
X118297022Y-94396476D02*
X118248641Y-94444857D01*
X118248641Y-94444857D02*
X118224450Y-94493238D01*
D10*
X146960476Y-90474819D02*
X147436666Y-90474819D01*
X147436666Y-90474819D02*
X147436666Y-89474819D01*
X157691904Y-90474819D02*
X157691904Y-89474819D01*
X157691904Y-89474819D02*
X157310952Y-89474819D01*
X157310952Y-89474819D02*
X157215714Y-89522438D01*
X157215714Y-89522438D02*
X157168095Y-89570057D01*
X157168095Y-89570057D02*
X157120476Y-89665295D01*
X157120476Y-89665295D02*
X157120476Y-89808152D01*
X157120476Y-89808152D02*
X157168095Y-89903390D01*
X157168095Y-89903390D02*
X157215714Y-89951009D01*
X157215714Y-89951009D02*
X157310952Y-89998628D01*
X157310952Y-89998628D02*
X157691904Y-89998628D01*
X154985237Y-116384819D02*
X154794761Y-116384819D01*
X154794761Y-116384819D02*
X154699523Y-116432438D01*
X154699523Y-116432438D02*
X154604285Y-116527676D01*
X154604285Y-116527676D02*
X154556666Y-116718152D01*
X154556666Y-116718152D02*
X154556666Y-117051485D01*
X154556666Y-117051485D02*
X154604285Y-117241961D01*
X154604285Y-117241961D02*
X154699523Y-117337200D01*
X154699523Y-117337200D02*
X154794761Y-117384819D01*
X154794761Y-117384819D02*
X154985237Y-117384819D01*
X154985237Y-117384819D02*
X155080475Y-117337200D01*
X155080475Y-117337200D02*
X155175713Y-117241961D01*
X155175713Y-117241961D02*
X155223332Y-117051485D01*
X155223332Y-117051485D02*
X155223332Y-116718152D01*
X155223332Y-116718152D02*
X155175713Y-116527676D01*
X155175713Y-116527676D02*
X155080475Y-116432438D01*
X155080475Y-116432438D02*
X154985237Y-116384819D01*
X175638570Y-89474819D02*
X175400475Y-90474819D01*
X175400475Y-90474819D02*
X175209999Y-89760533D01*
X175209999Y-89760533D02*
X175019523Y-90474819D01*
X175019523Y-90474819D02*
X174781428Y-89474819D01*
D11*
X178720406Y-101943904D02*
X178720406Y-101992285D01*
X178720406Y-101992285D02*
X178744596Y-102040666D01*
X178744596Y-102040666D02*
X178768787Y-102064856D01*
X178768787Y-102064856D02*
X178817168Y-102089047D01*
X178817168Y-102089047D02*
X178913930Y-102113237D01*
X178913930Y-102113237D02*
X179034882Y-102113237D01*
X179034882Y-102113237D02*
X179131644Y-102089047D01*
X179131644Y-102089047D02*
X179180025Y-102064856D01*
X179180025Y-102064856D02*
X179204216Y-102040666D01*
X179204216Y-102040666D02*
X179228406Y-101992285D01*
X179228406Y-101992285D02*
X179228406Y-101943904D01*
X179228406Y-101943904D02*
X179204216Y-101895523D01*
X179204216Y-101895523D02*
X179180025Y-101871332D01*
X179180025Y-101871332D02*
X179131644Y-101847142D01*
X179131644Y-101847142D02*
X179034882Y-101822951D01*
X179034882Y-101822951D02*
X178913930Y-101822951D01*
X178913930Y-101822951D02*
X178817168Y-101847142D01*
X178817168Y-101847142D02*
X178768787Y-101871332D01*
X178768787Y-101871332D02*
X178744596Y-101895523D01*
X178744596Y-101895523D02*
X178720406Y-101943904D01*
X178889739Y-102548666D02*
X179228406Y-102548666D01*
X178696216Y-102427714D02*
X179059073Y-102306761D01*
X179059073Y-102306761D02*
X179059073Y-102621238D01*
D10*
X157691904Y-117384819D02*
X157691904Y-116384819D01*
X157691904Y-116384819D02*
X157310952Y-116384819D01*
X157310952Y-116384819D02*
X157215714Y-116432438D01*
X157215714Y-116432438D02*
X157168095Y-116480057D01*
X157168095Y-116480057D02*
X157120476Y-116575295D01*
X157120476Y-116575295D02*
X157120476Y-116718152D01*
X157120476Y-116718152D02*
X157168095Y-116813390D01*
X157168095Y-116813390D02*
X157215714Y-116861009D01*
X157215714Y-116861009D02*
X157310952Y-116908628D01*
X157310952Y-116908628D02*
X157691904Y-116908628D01*
X121798571Y-89951009D02*
X121655714Y-89998628D01*
X121655714Y-89998628D02*
X121608095Y-90046247D01*
X121608095Y-90046247D02*
X121560476Y-90141485D01*
X121560476Y-90141485D02*
X121560476Y-90284342D01*
X121560476Y-90284342D02*
X121608095Y-90379580D01*
X121608095Y-90379580D02*
X121655714Y-90427200D01*
X121655714Y-90427200D02*
X121750952Y-90474819D01*
X121750952Y-90474819D02*
X122131904Y-90474819D01*
X122131904Y-90474819D02*
X122131904Y-89474819D01*
X122131904Y-89474819D02*
X121798571Y-89474819D01*
X121798571Y-89474819D02*
X121703333Y-89522438D01*
X121703333Y-89522438D02*
X121655714Y-89570057D01*
X121655714Y-89570057D02*
X121608095Y-89665295D01*
X121608095Y-89665295D02*
X121608095Y-89760533D01*
X121608095Y-89760533D02*
X121655714Y-89855771D01*
X121655714Y-89855771D02*
X121703333Y-89903390D01*
X121703333Y-89903390D02*
X121798571Y-89951009D01*
X121798571Y-89951009D02*
X122131904Y-89951009D01*
D11*
X118369593Y-102476095D02*
X118369593Y-102427714D01*
X118369593Y-102427714D02*
X118345403Y-102379333D01*
X118345403Y-102379333D02*
X118321212Y-102355143D01*
X118321212Y-102355143D02*
X118272831Y-102330952D01*
X118272831Y-102330952D02*
X118176069Y-102306762D01*
X118176069Y-102306762D02*
X118055117Y-102306762D01*
X118055117Y-102306762D02*
X117958355Y-102330952D01*
X117958355Y-102330952D02*
X117909974Y-102355143D01*
X117909974Y-102355143D02*
X117885784Y-102379333D01*
X117885784Y-102379333D02*
X117861593Y-102427714D01*
X117861593Y-102427714D02*
X117861593Y-102476095D01*
X117861593Y-102476095D02*
X117885784Y-102524476D01*
X117885784Y-102524476D02*
X117909974Y-102548667D01*
X117909974Y-102548667D02*
X117958355Y-102572857D01*
X117958355Y-102572857D02*
X118055117Y-102597048D01*
X118055117Y-102597048D02*
X118176069Y-102597048D01*
X118176069Y-102597048D02*
X118272831Y-102572857D01*
X118272831Y-102572857D02*
X118321212Y-102548667D01*
X118321212Y-102548667D02*
X118345403Y-102524476D01*
X118345403Y-102524476D02*
X118369593Y-102476095D01*
X118200260Y-101871333D02*
X117861593Y-101871333D01*
X118393784Y-101992285D02*
X118030926Y-102113238D01*
X118030926Y-102113238D02*
X118030926Y-101798761D01*
X118369593Y-110096095D02*
X118369593Y-110047714D01*
X118369593Y-110047714D02*
X118345403Y-109999333D01*
X118345403Y-109999333D02*
X118321212Y-109975143D01*
X118321212Y-109975143D02*
X118272831Y-109950952D01*
X118272831Y-109950952D02*
X118176069Y-109926762D01*
X118176069Y-109926762D02*
X118055117Y-109926762D01*
X118055117Y-109926762D02*
X117958355Y-109950952D01*
X117958355Y-109950952D02*
X117909974Y-109975143D01*
X117909974Y-109975143D02*
X117885784Y-109999333D01*
X117885784Y-109999333D02*
X117861593Y-110047714D01*
X117861593Y-110047714D02*
X117861593Y-110096095D01*
X117861593Y-110096095D02*
X117885784Y-110144476D01*
X117885784Y-110144476D02*
X117909974Y-110168667D01*
X117909974Y-110168667D02*
X117958355Y-110192857D01*
X117958355Y-110192857D02*
X118055117Y-110217048D01*
X118055117Y-110217048D02*
X118176069Y-110217048D01*
X118176069Y-110217048D02*
X118272831Y-110192857D01*
X118272831Y-110192857D02*
X118321212Y-110168667D01*
X118321212Y-110168667D02*
X118345403Y-110144476D01*
X118345403Y-110144476D02*
X118369593Y-110096095D01*
X118369593Y-109757428D02*
X118369593Y-109418761D01*
X118369593Y-109418761D02*
X117861593Y-109636476D01*
D13*
X159541427Y-103095885D02*
X159455713Y-103057790D01*
X159455713Y-103057790D02*
X159284285Y-103019695D01*
X159284285Y-103019695D02*
X158855713Y-103019695D01*
X158855713Y-103019695D02*
X158684285Y-103057790D01*
X158684285Y-103057790D02*
X158598570Y-103095885D01*
X158598570Y-103095885D02*
X158512856Y-103172076D01*
X158512856Y-103172076D02*
X158512856Y-103248266D01*
X158512856Y-103248266D02*
X158598570Y-103362552D01*
X158598570Y-103362552D02*
X159627142Y-103819695D01*
X159627142Y-103819695D02*
X158512856Y-103819695D01*
X156969999Y-103286361D02*
X156969999Y-103819695D01*
X157398570Y-102981600D02*
X157827141Y-103553028D01*
X157827141Y-103553028D02*
X156712856Y-103553028D01*
X156198570Y-103819695D02*
X155255713Y-103286361D01*
X156198570Y-103286361D02*
X155255713Y-103819695D01*
X153627141Y-103819695D02*
X154655712Y-103819695D01*
X154141427Y-103819695D02*
X154141427Y-103019695D01*
X154141427Y-103019695D02*
X154312855Y-103133980D01*
X154312855Y-103133980D02*
X154484284Y-103210171D01*
X154484284Y-103210171D02*
X154655712Y-103248266D01*
X152512855Y-103019695D02*
X152341426Y-103019695D01*
X152341426Y-103019695D02*
X152169998Y-103057790D01*
X152169998Y-103057790D02*
X152084284Y-103095885D01*
X152084284Y-103095885D02*
X151998569Y-103172076D01*
X151998569Y-103172076D02*
X151912855Y-103324457D01*
X151912855Y-103324457D02*
X151912855Y-103514933D01*
X151912855Y-103514933D02*
X151998569Y-103667314D01*
X151998569Y-103667314D02*
X152084284Y-103743504D01*
X152084284Y-103743504D02*
X152169998Y-103781600D01*
X152169998Y-103781600D02*
X152341426Y-103819695D01*
X152341426Y-103819695D02*
X152512855Y-103819695D01*
X152512855Y-103819695D02*
X152684284Y-103781600D01*
X152684284Y-103781600D02*
X152769998Y-103743504D01*
X152769998Y-103743504D02*
X152855712Y-103667314D01*
X152855712Y-103667314D02*
X152941426Y-103514933D01*
X152941426Y-103514933D02*
X152941426Y-103324457D01*
X152941426Y-103324457D02*
X152855712Y-103172076D01*
X152855712Y-103172076D02*
X152769998Y-103095885D01*
X152769998Y-103095885D02*
X152684284Y-103057790D01*
X152684284Y-103057790D02*
X152512855Y-103019695D01*
X150027140Y-103286361D02*
X149341426Y-103286361D01*
X149769997Y-103019695D02*
X149769997Y-103705409D01*
X149769997Y-103705409D02*
X149684283Y-103781600D01*
X149684283Y-103781600D02*
X149512854Y-103819695D01*
X149512854Y-103819695D02*
X149341426Y-103819695D01*
X148741426Y-103819695D02*
X148741426Y-103019695D01*
X147969998Y-103819695D02*
X147969998Y-103400647D01*
X147969998Y-103400647D02*
X148055712Y-103324457D01*
X148055712Y-103324457D02*
X148227140Y-103286361D01*
X148227140Y-103286361D02*
X148484283Y-103286361D01*
X148484283Y-103286361D02*
X148655712Y-103324457D01*
X148655712Y-103324457D02*
X148741426Y-103362552D01*
X147112855Y-103819695D02*
X147112855Y-103286361D01*
X147112855Y-103438742D02*
X147027141Y-103362552D01*
X147027141Y-103362552D02*
X146941427Y-103324457D01*
X146941427Y-103324457D02*
X146769998Y-103286361D01*
X146769998Y-103286361D02*
X146598569Y-103286361D01*
X145227141Y-103286361D02*
X145227141Y-103819695D01*
X145998569Y-103286361D02*
X145998569Y-103705409D01*
X145998569Y-103705409D02*
X145912855Y-103781600D01*
X145912855Y-103781600D02*
X145741426Y-103819695D01*
X145741426Y-103819695D02*
X145484283Y-103819695D01*
X145484283Y-103819695D02*
X145312855Y-103781600D01*
X145312855Y-103781600D02*
X145227141Y-103743504D01*
X144369998Y-103819695D02*
X144369998Y-103019695D01*
X143598570Y-103819695D02*
X143598570Y-103400647D01*
X143598570Y-103400647D02*
X143684284Y-103324457D01*
X143684284Y-103324457D02*
X143855712Y-103286361D01*
X143855712Y-103286361D02*
X144112855Y-103286361D01*
X144112855Y-103286361D02*
X144284284Y-103324457D01*
X144284284Y-103324457D02*
X144369998Y-103362552D01*
X142484284Y-103819695D02*
X142655713Y-103781600D01*
X142655713Y-103781600D02*
X142741427Y-103743504D01*
X142741427Y-103743504D02*
X142827141Y-103667314D01*
X142827141Y-103667314D02*
X142827141Y-103438742D01*
X142827141Y-103438742D02*
X142741427Y-103362552D01*
X142741427Y-103362552D02*
X142655713Y-103324457D01*
X142655713Y-103324457D02*
X142484284Y-103286361D01*
X142484284Y-103286361D02*
X142227141Y-103286361D01*
X142227141Y-103286361D02*
X142055713Y-103324457D01*
X142055713Y-103324457D02*
X141969999Y-103362552D01*
X141969999Y-103362552D02*
X141884284Y-103438742D01*
X141884284Y-103438742D02*
X141884284Y-103667314D01*
X141884284Y-103667314D02*
X141969999Y-103743504D01*
X141969999Y-103743504D02*
X142055713Y-103781600D01*
X142055713Y-103781600D02*
X142227141Y-103819695D01*
X142227141Y-103819695D02*
X142484284Y-103819695D01*
X140855713Y-103819695D02*
X141027142Y-103781600D01*
X141027142Y-103781600D02*
X141112856Y-103705409D01*
X141112856Y-103705409D02*
X141112856Y-103019695D01*
X139484285Y-103781600D02*
X139655713Y-103819695D01*
X139655713Y-103819695D02*
X139998571Y-103819695D01*
X139998571Y-103819695D02*
X140169999Y-103781600D01*
X140169999Y-103781600D02*
X140255713Y-103705409D01*
X140255713Y-103705409D02*
X140255713Y-103400647D01*
X140255713Y-103400647D02*
X140169999Y-103324457D01*
X140169999Y-103324457D02*
X139998571Y-103286361D01*
X139998571Y-103286361D02*
X139655713Y-103286361D01*
X139655713Y-103286361D02*
X139484285Y-103324457D01*
X139484285Y-103324457D02*
X139398571Y-103400647D01*
X139398571Y-103400647D02*
X139398571Y-103476838D01*
X139398571Y-103476838D02*
X140255713Y-103553028D01*
D10*
X178083332Y-89474819D02*
X177416666Y-90474819D01*
X177416666Y-89474819D02*
X178083332Y-90474819D01*
X162200476Y-117384819D02*
X162533809Y-116908628D01*
X162771904Y-117384819D02*
X162771904Y-116384819D01*
X162771904Y-116384819D02*
X162390952Y-116384819D01*
X162390952Y-116384819D02*
X162295714Y-116432438D01*
X162295714Y-116432438D02*
X162248095Y-116480057D01*
X162248095Y-116480057D02*
X162200476Y-116575295D01*
X162200476Y-116575295D02*
X162200476Y-116718152D01*
X162200476Y-116718152D02*
X162248095Y-116813390D01*
X162248095Y-116813390D02*
X162295714Y-116861009D01*
X162295714Y-116861009D02*
X162390952Y-116908628D01*
X162390952Y-116908628D02*
X162771904Y-116908628D01*
X167875713Y-89474819D02*
X167304285Y-89474819D01*
X167589999Y-90474819D02*
X167589999Y-89474819D01*
D11*
X118369593Y-107556095D02*
X118369593Y-107507714D01*
X118369593Y-107507714D02*
X118345403Y-107459333D01*
X118345403Y-107459333D02*
X118321212Y-107435143D01*
X118321212Y-107435143D02*
X118272831Y-107410952D01*
X118272831Y-107410952D02*
X118176069Y-107386762D01*
X118176069Y-107386762D02*
X118055117Y-107386762D01*
X118055117Y-107386762D02*
X117958355Y-107410952D01*
X117958355Y-107410952D02*
X117909974Y-107435143D01*
X117909974Y-107435143D02*
X117885784Y-107459333D01*
X117885784Y-107459333D02*
X117861593Y-107507714D01*
X117861593Y-107507714D02*
X117861593Y-107556095D01*
X117861593Y-107556095D02*
X117885784Y-107604476D01*
X117885784Y-107604476D02*
X117909974Y-107628667D01*
X117909974Y-107628667D02*
X117958355Y-107652857D01*
X117958355Y-107652857D02*
X118055117Y-107677048D01*
X118055117Y-107677048D02*
X118176069Y-107677048D01*
X118176069Y-107677048D02*
X118272831Y-107652857D01*
X118272831Y-107652857D02*
X118321212Y-107628667D01*
X118321212Y-107628667D02*
X118345403Y-107604476D01*
X118345403Y-107604476D02*
X118369593Y-107556095D01*
X118369593Y-106951333D02*
X118369593Y-107048095D01*
X118369593Y-107048095D02*
X118345403Y-107096476D01*
X118345403Y-107096476D02*
X118321212Y-107120666D01*
X118321212Y-107120666D02*
X118248641Y-107169047D01*
X118248641Y-107169047D02*
X118151879Y-107193238D01*
X118151879Y-107193238D02*
X117958355Y-107193238D01*
X117958355Y-107193238D02*
X117909974Y-107169047D01*
X117909974Y-107169047D02*
X117885784Y-107144857D01*
X117885784Y-107144857D02*
X117861593Y-107096476D01*
X117861593Y-107096476D02*
X117861593Y-106999714D01*
X117861593Y-106999714D02*
X117885784Y-106951333D01*
X117885784Y-106951333D02*
X117909974Y-106927142D01*
X117909974Y-106927142D02*
X117958355Y-106902952D01*
X117958355Y-106902952D02*
X118079307Y-106902952D01*
X118079307Y-106902952D02*
X118127688Y-106927142D01*
X118127688Y-106927142D02*
X118151879Y-106951333D01*
X118151879Y-106951333D02*
X118176069Y-106999714D01*
X118176069Y-106999714D02*
X118176069Y-107096476D01*
X118176069Y-107096476D02*
X118151879Y-107144857D01*
X118151879Y-107144857D02*
X118127688Y-107169047D01*
X118127688Y-107169047D02*
X118079307Y-107193238D01*
D10*
X124100476Y-90379580D02*
X124148095Y-90427200D01*
X124148095Y-90427200D02*
X124290952Y-90474819D01*
X124290952Y-90474819D02*
X124386190Y-90474819D01*
X124386190Y-90474819D02*
X124529047Y-90427200D01*
X124529047Y-90427200D02*
X124624285Y-90331961D01*
X124624285Y-90331961D02*
X124671904Y-90236723D01*
X124671904Y-90236723D02*
X124719523Y-90046247D01*
X124719523Y-90046247D02*
X124719523Y-89903390D01*
X124719523Y-89903390D02*
X124671904Y-89712914D01*
X124671904Y-89712914D02*
X124624285Y-89617676D01*
X124624285Y-89617676D02*
X124529047Y-89522438D01*
X124529047Y-89522438D02*
X124386190Y-89474819D01*
X124386190Y-89474819D02*
X124290952Y-89474819D01*
X124290952Y-89474819D02*
X124148095Y-89522438D01*
X124148095Y-89522438D02*
X124100476Y-89570057D01*
X142047142Y-89474819D02*
X142047142Y-90189104D01*
X142047142Y-90189104D02*
X142094761Y-90331961D01*
X142094761Y-90331961D02*
X142189999Y-90427200D01*
X142189999Y-90427200D02*
X142332856Y-90474819D01*
X142332856Y-90474819D02*
X142428094Y-90474819D01*
%LPC*%
D14*
%TO.C,REF\u002A\u002A*%
X116130000Y-115890000D03*
%TD*%
%TO.C,REF\u002A\u002A*%
X180930000Y-91090000D03*
%TD*%
%TO.C,REF\u002A\u002A*%
X180930000Y-115890000D03*
%TD*%
%TO.C,REF\u002A\u002A*%
X116130000Y-91090000D03*
%TD*%
D15*
%TO.C,REF\u002A\u002A*%
X181050000Y-107290000D03*
%TD*%
%TO.C,REF\u002A\u002A*%
X116030000Y-104750000D03*
%TD*%
%TO.C,REF\u002A\u002A*%
X116030000Y-102210000D03*
%TD*%
%TO.C,REF\u002A\u002A*%
X181050000Y-99670000D03*
%TD*%
%TO.C,REF\u002A\u002A*%
X116030000Y-97130000D03*
%TD*%
%TO.C,REF\u002A\u002A*%
X116030000Y-99670000D03*
%TD*%
%TO.C,REF\u002A\u002A*%
X181050000Y-112370000D03*
%TD*%
%TO.C,REF\u002A\u002A*%
X116030000Y-94590000D03*
%TD*%
%TO.C,REF\u002A\u002A*%
X116030000Y-112370000D03*
%TD*%
%TO.C,REF\u002A\u002A*%
X181050000Y-94590000D03*
%TD*%
%TO.C,REF\u002A\u002A*%
X181050000Y-102210000D03*
%TD*%
%TO.C,REF\u002A\u002A*%
X181050000Y-109830000D03*
%TD*%
%TO.C,REF\u002A\u002A*%
X181050000Y-97130000D03*
%TD*%
%TO.C,REF\u002A\u002A*%
X116030000Y-109830000D03*
%TD*%
%TO.C,REF\u002A\u002A*%
X116030000Y-107290000D03*
%TD*%
%TO.C,REF\u002A\u002A*%
X181050000Y-104750000D03*
%TD*%
D16*
X129490000Y-99670000D03*
X144730000Y-114910000D03*
X142190000Y-102210000D03*
X144730000Y-102210000D03*
X132030000Y-112370000D03*
X147270000Y-114910000D03*
X175210000Y-107290000D03*
X177750000Y-94590000D03*
X170130000Y-107290000D03*
X175210000Y-99670000D03*
X177750000Y-99670000D03*
X177750000Y-97130000D03*
X134570000Y-112370000D03*
X170130000Y-97130000D03*
X129490000Y-109830000D03*
X132030000Y-109830000D03*
X139650000Y-109830000D03*
X152350000Y-112370000D03*
X162510000Y-112370000D03*
X147270000Y-99670000D03*
X167590000Y-114910000D03*
X144730000Y-112370000D03*
X139650000Y-112370000D03*
X142190000Y-112370000D03*
X177750000Y-112370000D03*
X170130000Y-112370000D03*
X154890000Y-109830000D03*
X165050000Y-114910000D03*
X119330000Y-92050000D03*
X165050000Y-99670000D03*
X177750000Y-107290000D03*
X172670000Y-112370000D03*
X175210000Y-112370000D03*
X124410000Y-114910000D03*
X162510000Y-97130000D03*
X157430000Y-112370000D03*
X144730000Y-107290000D03*
X147270000Y-107290000D03*
X147270000Y-94590000D03*
X149810000Y-112370000D03*
X167590000Y-107290000D03*
X129490000Y-102210000D03*
X132030000Y-102210000D03*
X167590000Y-97130000D03*
X165050000Y-102210000D03*
X162510000Y-92050000D03*
X121870000Y-102210000D03*
X134570000Y-94590000D03*
X139650000Y-92050000D03*
X129490000Y-94590000D03*
X159970000Y-94590000D03*
X126950000Y-92050000D03*
X157430000Y-92050000D03*
X159970000Y-99670000D03*
X167590000Y-109830000D03*
X119330000Y-112370000D03*
X129490000Y-107290000D03*
X139650000Y-107290000D03*
X159970000Y-112370000D03*
X129490000Y-92050000D03*
X139650000Y-94590000D03*
X129490000Y-104750000D03*
X132030000Y-94590000D03*
X137110000Y-92050000D03*
X124410000Y-107290000D03*
X165050000Y-109830000D03*
X167590000Y-102210000D03*
X119330000Y-104750000D03*
X134570000Y-107290000D03*
X137110000Y-107290000D03*
X157430000Y-102210000D03*
X149810000Y-107290000D03*
X119330000Y-107290000D03*
X121870000Y-107290000D03*
X134570000Y-97130000D03*
X139650000Y-114910000D03*
X142190000Y-114910000D03*
X154890000Y-114910000D03*
X157430000Y-114910000D03*
X132030000Y-92050000D03*
X154890000Y-92050000D03*
X121870000Y-104750000D03*
X142190000Y-92050000D03*
X132030000Y-97130000D03*
X165050000Y-107290000D03*
X144730000Y-94590000D03*
X165050000Y-104750000D03*
X124410000Y-92050000D03*
X124410000Y-102210000D03*
X126950000Y-102210000D03*
X157430000Y-104750000D03*
X159970000Y-104750000D03*
X162510000Y-104750000D03*
X129490000Y-114910000D03*
X132030000Y-114910000D03*
X137110000Y-104750000D03*
X139650000Y-104750000D03*
X124410000Y-109830000D03*
X142190000Y-109830000D03*
X134570000Y-109830000D03*
X137110000Y-109830000D03*
X132030000Y-104750000D03*
X142190000Y-104750000D03*
X144730000Y-104750000D03*
X119330000Y-109830000D03*
X121870000Y-109830000D03*
X159970000Y-109830000D03*
X162510000Y-109830000D03*
X126950000Y-104750000D03*
X119330000Y-114910000D03*
X124410000Y-112370000D03*
X126950000Y-112370000D03*
X147270000Y-109830000D03*
X159970000Y-92050000D03*
X147270000Y-97130000D03*
X149810000Y-97130000D03*
X121870000Y-97130000D03*
X124410000Y-97130000D03*
X167590000Y-94590000D03*
X149810000Y-94590000D03*
X121870000Y-92050000D03*
X157430000Y-97130000D03*
X134570000Y-102210000D03*
X137110000Y-102210000D03*
X162510000Y-99670000D03*
X149810000Y-92050000D03*
X137110000Y-94590000D03*
X142190000Y-107290000D03*
X147270000Y-102210000D03*
X149810000Y-102210000D03*
X152350000Y-102210000D03*
X154890000Y-102210000D03*
X134570000Y-114910000D03*
X137110000Y-114910000D03*
X152350000Y-99670000D03*
X126950000Y-97130000D03*
X152350000Y-94590000D03*
X162510000Y-114910000D03*
X142190000Y-99670000D03*
X137110000Y-99670000D03*
X144730000Y-97130000D03*
X134570000Y-104750000D03*
X144730000Y-92050000D03*
X119330000Y-94590000D03*
X121870000Y-94590000D03*
X154890000Y-97130000D03*
X165050000Y-94590000D03*
X154890000Y-94590000D03*
X157430000Y-94590000D03*
X159970000Y-97130000D03*
X142190000Y-94590000D03*
X134570000Y-92050000D03*
X124410000Y-99670000D03*
X159970000Y-107290000D03*
X162510000Y-107290000D03*
X149810000Y-109830000D03*
X152350000Y-109830000D03*
X126950000Y-107290000D03*
X152350000Y-107290000D03*
X154890000Y-107290000D03*
X159970000Y-102210000D03*
X162510000Y-102210000D03*
X157430000Y-99670000D03*
X154890000Y-112370000D03*
X147270000Y-92050000D03*
X121870000Y-114910000D03*
X139650000Y-97130000D03*
X126950000Y-94590000D03*
X152350000Y-97130000D03*
X137110000Y-112370000D03*
X124410000Y-94590000D03*
X142190000Y-97130000D03*
X129490000Y-112370000D03*
X126950000Y-99670000D03*
X165050000Y-112370000D03*
X167590000Y-112370000D03*
X139650000Y-99670000D03*
X119330000Y-102210000D03*
X121870000Y-99670000D03*
X144730000Y-99670000D03*
X149810000Y-99670000D03*
X147270000Y-112370000D03*
X165050000Y-92050000D03*
X149810000Y-114910000D03*
X152350000Y-114910000D03*
X167590000Y-99670000D03*
X159970000Y-114910000D03*
X147270000Y-104750000D03*
X149810000Y-104750000D03*
X124410000Y-104750000D03*
X134570000Y-99670000D03*
X152350000Y-104750000D03*
X154890000Y-104750000D03*
X167590000Y-92050000D03*
X139650000Y-102210000D03*
X152350000Y-92050000D03*
X132030000Y-107290000D03*
X119330000Y-99670000D03*
X129490000Y-97130000D03*
X137110000Y-97130000D03*
X132030000Y-99670000D03*
X126950000Y-109830000D03*
X119330000Y-97130000D03*
X144730000Y-109830000D03*
X126950000Y-114910000D03*
X121870000Y-112370000D03*
X157430000Y-109830000D03*
X162510000Y-94590000D03*
X154890000Y-99670000D03*
X157430000Y-107290000D03*
X167590000Y-104750000D03*
X165050000Y-97130000D03*
X172670000Y-109830000D03*
X172670000Y-107290000D03*
X177750000Y-114910000D03*
X172670000Y-114910000D03*
X170130000Y-104750000D03*
X172670000Y-104750000D03*
X175210000Y-104750000D03*
X177750000Y-104750000D03*
X175210000Y-97130000D03*
X170130000Y-102210000D03*
X172670000Y-102210000D03*
X175210000Y-114910000D03*
X170130000Y-109830000D03*
X175210000Y-102210000D03*
X177750000Y-102210000D03*
X170130000Y-114910000D03*
X177750000Y-109830000D03*
X170130000Y-94590000D03*
X172670000Y-94590000D03*
X172670000Y-97130000D03*
X175210000Y-92050000D03*
X177750000Y-92050000D03*
X170130000Y-99670000D03*
X172670000Y-99670000D03*
X175210000Y-109830000D03*
X170130000Y-92050000D03*
X172670000Y-92050000D03*
X175210000Y-94590000D03*
%LPD*%
M02*
