M48
; DRILL file {KiCad 9.0.1} date 2025-05-06T23:47:48-0400
; FORMAT={-:-/ absolute / inch / decimal}
; #@! TF.CreationDate,2025-05-06T23:47:48-04:00
; #@! TF.GenerationSoftware,Kicad,Pcbnew,9.0.1
; #@! TF.FileFunction,Plated,1,2,PTH
FMAT,2
INCH
; #@! TA.AperFunction,Plated,PTH,ViaDrill
T1C0.0360
%
G90
G05
T1
X4.698Y-3.624
X4.698Y-3.724
X4.698Y-3.824
X4.698Y-3.924
X4.698Y-4.024
X4.698Y-4.124
X4.698Y-4.224
X4.698Y-4.324
X4.698Y-4.424
X4.698Y-4.524
X4.798Y-3.624
X4.798Y-3.724
X4.798Y-3.824
X4.798Y-3.924
X4.798Y-4.024
X4.798Y-4.124
X4.798Y-4.224
X4.798Y-4.324
X4.798Y-4.424
X4.798Y-4.524
X4.898Y-3.624
X4.898Y-3.724
X4.898Y-3.824
X4.898Y-3.924
X4.898Y-4.024
X4.898Y-4.124
X4.898Y-4.224
X4.898Y-4.324
X4.898Y-4.424
X4.898Y-4.524
X4.998Y-3.624
X4.998Y-3.724
X4.998Y-3.824
X4.998Y-3.924
X4.998Y-4.024
X4.998Y-4.124
X4.998Y-4.224
X4.998Y-4.324
X4.998Y-4.424
X4.998Y-4.524
X5.098Y-3.624
X5.098Y-3.724
X5.098Y-3.824
X5.098Y-3.924
X5.098Y-4.024
X5.098Y-4.124
X5.098Y-4.224
X5.098Y-4.324
X5.098Y-4.424
X5.098Y-4.524
X5.198Y-3.624
X5.198Y-3.724
X5.198Y-3.824
X5.198Y-3.924
X5.198Y-4.024
X5.198Y-4.124
X5.198Y-4.224
X5.198Y-4.324
X5.198Y-4.424
X5.198Y-4.524
X5.298Y-3.624
X5.298Y-3.724
X5.298Y-3.824
X5.298Y-3.924
X5.298Y-4.024
X5.298Y-4.124
X5.298Y-4.224
X5.298Y-4.324
X5.298Y-4.424
X5.298Y-4.524
X5.398Y-3.624
X5.398Y-3.724
X5.398Y-3.824
X5.398Y-3.924
X5.398Y-4.024
X5.398Y-4.124
X5.398Y-4.224
X5.398Y-4.324
X5.398Y-4.424
X5.398Y-4.524
X5.498Y-3.624
X5.498Y-3.724
X5.498Y-3.824
X5.498Y-3.924
X5.498Y-4.024
X5.498Y-4.124
X5.498Y-4.224
X5.498Y-4.324
X5.498Y-4.424
X5.498Y-4.524
X5.598Y-3.624
X5.598Y-3.724
X5.598Y-3.824
X5.598Y-3.924
X5.598Y-4.024
X5.598Y-4.124
X5.598Y-4.224
X5.598Y-4.324
X5.598Y-4.424
X5.598Y-4.524
X5.698Y-3.624
X5.698Y-3.724
X5.698Y-3.824
X5.698Y-3.924
X5.698Y-4.024
X5.698Y-4.124
X5.698Y-4.224
X5.698Y-4.324
X5.698Y-4.424
X5.698Y-4.524
X5.798Y-3.624
X5.798Y-3.724
X5.798Y-3.824
X5.798Y-3.924
X5.798Y-4.024
X5.798Y-4.124
X5.798Y-4.224
X5.798Y-4.324
X5.798Y-4.424
X5.798Y-4.524
X5.898Y-3.624
X5.898Y-3.724
X5.898Y-3.824
X5.898Y-3.924
X5.898Y-4.024
X5.898Y-4.124
X5.898Y-4.224
X5.898Y-4.324
X5.898Y-4.424
X5.898Y-4.524
X5.998Y-3.624
X5.998Y-3.724
X5.998Y-3.824
X5.998Y-3.924
X5.998Y-4.024
X5.998Y-4.124
X5.998Y-4.224
X5.998Y-4.324
X5.998Y-4.424
X5.998Y-4.524
X6.098Y-3.624
X6.098Y-3.724
X6.098Y-3.824
X6.098Y-3.924
X6.098Y-4.024
X6.098Y-4.124
X6.098Y-4.224
X6.098Y-4.324
X6.098Y-4.424
X6.098Y-4.524
X6.198Y-3.624
X6.198Y-3.724
X6.198Y-3.824
X6.198Y-3.924
X6.198Y-4.024
X6.198Y-4.124
X6.198Y-4.224
X6.198Y-4.324
X6.198Y-4.424
X6.198Y-4.524
X6.298Y-3.624
X6.298Y-3.724
X6.298Y-3.824
X6.298Y-3.924
X6.298Y-4.024
X6.298Y-4.124
X6.298Y-4.224
X6.298Y-4.324
X6.298Y-4.424
X6.298Y-4.524
X6.398Y-3.624
X6.398Y-3.724
X6.398Y-3.824
X6.398Y-3.924
X6.398Y-4.024
X6.398Y-4.124
X6.398Y-4.224
X6.398Y-4.324
X6.398Y-4.424
X6.398Y-4.524
X6.498Y-3.624
X6.498Y-3.724
X6.498Y-3.824
X6.498Y-3.924
X6.498Y-4.024
X6.498Y-4.124
X6.498Y-4.224
X6.498Y-4.324
X6.498Y-4.424
X6.498Y-4.524
X6.598Y-3.624
X6.598Y-3.724
X6.598Y-3.824
X6.598Y-3.924
X6.598Y-4.024
X6.598Y-4.124
X6.598Y-4.224
X6.598Y-4.324
X6.598Y-4.424
X6.598Y-4.524
X6.698Y-3.624
X6.698Y-3.724
X6.698Y-3.824
X6.698Y-3.924
X6.698Y-4.024
X6.698Y-4.124
X6.698Y-4.224
X6.698Y-4.324
X6.698Y-4.424
X6.698Y-4.524
X6.798Y-3.624
X6.798Y-3.724
X6.798Y-3.824
X6.798Y-3.924
X6.798Y-4.024
X6.798Y-4.124
X6.798Y-4.224
X6.798Y-4.324
X6.798Y-4.424
X6.798Y-4.524
X6.898Y-3.624
X6.898Y-3.724
X6.898Y-3.824
X6.898Y-3.924
X6.898Y-4.024
X6.898Y-4.124
X6.898Y-4.224
X6.898Y-4.324
X6.898Y-4.424
X6.898Y-4.524
X6.998Y-3.624
X6.998Y-3.724
X6.998Y-3.824
X6.998Y-3.924
X6.998Y-4.024
X6.998Y-4.124
X6.998Y-4.224
X6.998Y-4.324
X6.998Y-4.424
X6.998Y-4.524
M30
