M48
; DRILL file {KiCad 9.0.1} date 2025-05-07T17:02:23-0400
; FORMAT={-:-/ absolute / inch / decimal}
; #@! TF.CreationDate,2025-05-07T17:02:23-04:00
; #@! TF.GenerationSoftware,Kicad,Pcbnew,9.0.1
; #@! TF.FileFunction,Plated,1,2,PTH
FMAT,2
INCH
; #@! TA.AperFunction,Plated,PTH,ComponentDrill
T1C0.0315
%
G90
G05
T1
X4.8669Y-2.8555
X4.8669Y-2.9555
X4.8669Y-3.0555
X4.8669Y-3.1555
X4.8669Y-3.2555
X4.8669Y-3.3555
X4.9669Y-2.8555
X4.9669Y-2.9555
X4.9669Y-3.0555
X4.9669Y-3.1555
X4.9669Y-3.2555
X4.9669Y-3.3555
X5.0669Y-2.8555
X5.0669Y-2.9555
X5.0669Y-3.0555
X5.0669Y-3.1555
X5.0669Y-3.2555
X5.0669Y-3.3555
X5.1669Y-2.8555
X5.1669Y-2.9555
X5.1669Y-3.0555
X5.1669Y-3.1555
X5.1669Y-3.2555
X5.1669Y-3.3555
X5.2669Y-2.8555
X5.2669Y-2.9555
X5.2669Y-3.0555
X5.2669Y-3.1555
X5.2669Y-3.2555
X5.2669Y-3.3555
X5.3669Y-2.8555
X5.3669Y-2.9555
X5.3669Y-3.0555
X5.3669Y-3.1555
X5.3669Y-3.2555
X5.3669Y-3.3555
X5.4669Y-2.8555
X5.4669Y-2.9555
X5.4669Y-3.0555
X5.4669Y-3.1555
X5.4669Y-3.2555
X5.4669Y-3.3555
X5.5669Y-2.8555
X5.5669Y-2.9555
X5.5669Y-3.0555
X5.5669Y-3.1555
X5.5669Y-3.2555
X5.5669Y-3.3555
X5.6669Y-2.8555
X5.6669Y-2.9555
X5.6669Y-3.0555
X5.6669Y-3.1555
X5.6669Y-3.2555
X5.6669Y-3.3555
X5.7669Y-2.8555
X5.7669Y-2.9555
X5.7669Y-3.0555
X5.7669Y-3.1555
X5.7669Y-3.2555
X5.7669Y-3.3555
X5.8669Y-2.8555
X5.8669Y-2.9555
X5.8669Y-3.0555
X5.8669Y-3.1555
X5.8669Y-3.2555
X5.8669Y-3.3555
X5.9669Y-2.8555
X5.9669Y-2.9555
X5.9669Y-3.0555
X5.9669Y-3.1555
X5.9669Y-3.2555
X5.9669Y-3.3555
X6.0669Y-2.8555
X6.0669Y-2.9555
X6.0669Y-3.0555
X6.0669Y-3.1555
X6.0669Y-3.2555
X6.0669Y-3.3555
X6.1669Y-2.8555
X6.1669Y-2.9555
X6.1669Y-3.0555
X6.1669Y-3.1555
X6.1669Y-3.2555
X6.1669Y-3.3555
X6.2669Y-2.8555
X6.2669Y-2.9555
X6.2669Y-3.0555
X6.2669Y-3.1555
X6.2669Y-3.2555
X6.2669Y-3.3555
X6.3669Y-2.8555
X6.3669Y-2.9555
X6.3669Y-3.0555
X6.3669Y-3.1555
X6.3669Y-3.2555
X6.3669Y-3.3555
X6.4669Y-2.8555
X6.4669Y-2.9555
X6.4669Y-3.0555
X6.4669Y-3.1555
X6.4669Y-3.2555
X6.4669Y-3.3555
X6.5669Y-2.8555
X6.5669Y-2.9555
X6.5669Y-3.0555
X6.5669Y-3.1555
X6.5669Y-3.2555
X6.5669Y-3.3555
X6.6669Y-2.8555
X6.6669Y-2.9555
X6.6669Y-3.0555
X6.6669Y-3.1555
X6.6669Y-3.2555
X6.6669Y-3.3555
X6.7669Y-2.8555
X6.7669Y-2.9555
X6.7669Y-3.0555
X6.7669Y-3.1555
X6.7669Y-3.2555
X6.7669Y-3.3555
X6.8669Y-2.8555
X6.8669Y-2.9555
X6.8669Y-3.0555
X6.8669Y-3.1555
X6.8669Y-3.2555
X6.8669Y-3.3555
X6.9669Y-2.8555
X6.9669Y-2.9555
X6.9669Y-3.0555
X6.9669Y-3.1555
X6.9669Y-3.2555
X6.9669Y-3.3555
X7.0669Y-2.8555
X7.0669Y-2.9555
X7.0669Y-3.0555
X7.0669Y-3.1555
X7.0669Y-3.2555
X7.0669Y-3.3555
X7.1669Y-2.8555
X7.1669Y-2.9555
X7.1669Y-3.0555
X7.1669Y-3.1555
X7.1669Y-3.2555
X7.1669Y-3.3555
X7.2669Y-2.8555
X7.2669Y-2.9555
X7.2669Y-3.0555
X7.2669Y-3.1555
X7.2669Y-3.2555
X7.2669Y-3.3555
X7.3669Y-2.8555
X7.3669Y-2.9555
X7.3669Y-3.0555
X7.3669Y-3.1555
X7.3669Y-3.2555
X7.3669Y-3.3555
X7.4669Y-2.8555
X7.4669Y-2.9555
X7.4669Y-3.0555
X7.4669Y-3.1555
X7.4669Y-3.2555
X7.4669Y-3.3555
X7.5669Y-2.8555
X7.5669Y-2.9555
X7.5669Y-3.0555
X7.5669Y-3.1555
X7.5669Y-3.2555
X7.5669Y-3.3555
M30
