%TF.GenerationSoftware,KiCad,Pcbnew,9.0.1*%
%TF.CreationDate,2025-05-07T00:25:03-04:00*%
%TF.ProjectId,protoplus,70726f74-6f70-46c7-9573-2e6b69636164,rev?*%
%TF.SameCoordinates,Original*%
%TF.FileFunction,Soldermask,Bot*%
%TF.FilePolarity,Negative*%
%FSLAX46Y46*%
G04 Gerber Fmt 4.6, Leading zero omitted, Abs format (unit mm)*
G04 Created by KiCad (PCBNEW 9.0.1) date 2025-05-07 00:25:03*
%MOMM*%
%LPD*%
G01*
G04 APERTURE LIST*
%ADD10R,1.524000X0.800000*%
%ADD11C,1.524000*%
%ADD12R,1.524000X0.600000*%
%ADD13C,2.200000*%
G04 APERTURE END LIST*
D10*
%TO.C,REF\u002A\u002A*%
X157440000Y-65520000D03*
D11*
X157440000Y-65920000D03*
D12*
X157440000Y-64720000D03*
%TD*%
D10*
%TO.C,REF\u002A\u002A*%
X144740000Y-70600000D03*
D11*
X144740000Y-71000000D03*
D12*
X144740000Y-69800000D03*
%TD*%
D10*
%TO.C,REF\u002A\u002A*%
X149820000Y-68060000D03*
D11*
X149820000Y-68460000D03*
D12*
X149820000Y-67260000D03*
%TD*%
D10*
%TO.C,REF\u002A\u002A*%
X149820000Y-60440000D03*
D11*
X149820000Y-60840000D03*
D12*
X149820000Y-59640000D03*
%TD*%
D10*
%TO.C,REF\u002A\u002A*%
X144740000Y-85840000D03*
D11*
X144740000Y-86240000D03*
D12*
X144740000Y-85040000D03*
%TD*%
D10*
%TO.C,REF\u002A\u002A*%
X157440000Y-62980000D03*
D11*
X157440000Y-63380000D03*
D12*
X157440000Y-62180000D03*
%TD*%
D13*
%TO.C,REF\u002A\u002A*%
X145775000Y-53775000D03*
%TD*%
D10*
%TO.C,REF\u002A\u002A*%
X162520000Y-65520000D03*
D11*
X162520000Y-65920000D03*
D12*
X162520000Y-64720000D03*
%TD*%
D10*
%TO.C,REF\u002A\u002A*%
X165060000Y-85840000D03*
D11*
X165060000Y-86240000D03*
D12*
X165060000Y-85040000D03*
%TD*%
D10*
%TO.C,REF\u002A\u002A*%
X157440000Y-57900000D03*
D11*
X157440000Y-58300000D03*
D12*
X157440000Y-57100000D03*
%TD*%
D10*
%TO.C,REF\u002A\u002A*%
X162520000Y-80760000D03*
D11*
X162520000Y-81160000D03*
D12*
X162520000Y-79960000D03*
%TD*%
D10*
%TO.C,REF\u002A\u002A*%
X154900000Y-70600000D03*
D11*
X154900000Y-71000000D03*
D12*
X154900000Y-69800000D03*
%TD*%
D10*
%TO.C,REF\u002A\u002A*%
X157440000Y-80760000D03*
D11*
X157440000Y-81160000D03*
D12*
X157440000Y-79960000D03*
%TD*%
D13*
%TO.C,REF\u002A\u002A*%
X145775000Y-90725000D03*
%TD*%
D10*
%TO.C,REF\u002A\u002A*%
X154895000Y-55365000D03*
D11*
X154895000Y-55765000D03*
D12*
X154895000Y-54565000D03*
%TD*%
D10*
%TO.C,REF\u002A\u002A*%
X159975000Y-55365000D03*
D11*
X159975000Y-55765000D03*
D12*
X159975000Y-54565000D03*
%TD*%
D10*
%TO.C,REF\u002A\u002A*%
X147280000Y-73140000D03*
D11*
X147280000Y-73540000D03*
D12*
X147280000Y-72340000D03*
%TD*%
D10*
%TO.C,REF\u002A\u002A*%
X154900000Y-65520000D03*
D11*
X154900000Y-65920000D03*
D12*
X154900000Y-64720000D03*
%TD*%
D10*
%TO.C,REF\u002A\u002A*%
X144740000Y-78220000D03*
D11*
X144740000Y-78620000D03*
D12*
X144740000Y-77420000D03*
%TD*%
D10*
%TO.C,REF\u002A\u002A*%
X154900000Y-88380000D03*
D11*
X154900000Y-88780000D03*
D12*
X154900000Y-87580000D03*
%TD*%
D10*
%TO.C,REF\u002A\u002A*%
X159980000Y-60440000D03*
D11*
X159980000Y-60840000D03*
D12*
X159980000Y-59640000D03*
%TD*%
D10*
%TO.C,REF\u002A\u002A*%
X159980000Y-85840000D03*
D11*
X159980000Y-86240000D03*
D12*
X159980000Y-85040000D03*
%TD*%
D10*
%TO.C,REF\u002A\u002A*%
X162520000Y-62980000D03*
D11*
X162520000Y-63380000D03*
D12*
X162520000Y-62180000D03*
%TD*%
D10*
%TO.C,REF\u002A\u002A*%
X162520000Y-60440000D03*
D11*
X162520000Y-60840000D03*
D12*
X162520000Y-59640000D03*
%TD*%
D10*
%TO.C,REF\u002A\u002A*%
X152360000Y-88380000D03*
D11*
X152360000Y-88780000D03*
D12*
X152360000Y-87580000D03*
%TD*%
D10*
%TO.C,REF\u002A\u002A*%
X154900000Y-60440000D03*
D11*
X154900000Y-60840000D03*
D12*
X154900000Y-59640000D03*
%TD*%
D10*
%TO.C,REF\u002A\u002A*%
X165060000Y-68060000D03*
D11*
X165060000Y-68460000D03*
D12*
X165060000Y-67260000D03*
%TD*%
D10*
%TO.C,REF\u002A\u002A*%
X149820000Y-57900000D03*
D11*
X149820000Y-58300000D03*
D12*
X149820000Y-57100000D03*
%TD*%
D10*
%TO.C,REF\u002A\u002A*%
X149820000Y-75680000D03*
D11*
X149820000Y-76080000D03*
D12*
X149820000Y-74880000D03*
%TD*%
D10*
%TO.C,REF\u002A\u002A*%
X165060000Y-70600000D03*
D11*
X165060000Y-71000000D03*
D12*
X165060000Y-69800000D03*
%TD*%
D10*
%TO.C,REF\u002A\u002A*%
X144740000Y-75680000D03*
D11*
X144740000Y-76080000D03*
D12*
X144740000Y-74880000D03*
%TD*%
D10*
%TO.C,REF\u002A\u002A*%
X157440000Y-78220000D03*
D11*
X157440000Y-78620000D03*
D12*
X157440000Y-77420000D03*
%TD*%
D10*
%TO.C,REF\u002A\u002A*%
X152360000Y-73140000D03*
D11*
X152360000Y-73540000D03*
D12*
X152360000Y-72340000D03*
%TD*%
D10*
%TO.C,REF\u002A\u002A*%
X165060000Y-78220000D03*
D11*
X165060000Y-78620000D03*
D12*
X165060000Y-77420000D03*
%TD*%
D10*
%TO.C,REF\u002A\u002A*%
X147280000Y-83300000D03*
D11*
X147280000Y-83700000D03*
D12*
X147280000Y-82500000D03*
%TD*%
D10*
%TO.C,REF\u002A\u002A*%
X159980000Y-57900000D03*
D11*
X159980000Y-58300000D03*
D12*
X159980000Y-57100000D03*
%TD*%
D10*
%TO.C,REF\u002A\u002A*%
X147280000Y-75680000D03*
D11*
X147280000Y-76080000D03*
D12*
X147280000Y-74880000D03*
%TD*%
D10*
%TO.C,REF\u002A\u002A*%
X159980000Y-65520000D03*
D11*
X159980000Y-65920000D03*
D12*
X159980000Y-64720000D03*
%TD*%
D10*
%TO.C,REF\u002A\u002A*%
X149820000Y-80760000D03*
D11*
X149820000Y-81160000D03*
D12*
X149820000Y-79960000D03*
%TD*%
D10*
%TO.C,REF\u002A\u002A*%
X152355000Y-55365000D03*
D11*
X152355000Y-55765000D03*
D12*
X152355000Y-54565000D03*
%TD*%
D10*
%TO.C,REF\u002A\u002A*%
X152360000Y-57900000D03*
D11*
X152360000Y-58300000D03*
D12*
X152360000Y-57100000D03*
%TD*%
D10*
%TO.C,REF\u002A\u002A*%
X159980000Y-75680000D03*
D11*
X159980000Y-76080000D03*
D12*
X159980000Y-74880000D03*
%TD*%
D10*
%TO.C,REF\u002A\u002A*%
X144740000Y-83300000D03*
D11*
X144740000Y-83700000D03*
D12*
X144740000Y-82500000D03*
%TD*%
D10*
%TO.C,REF\u002A\u002A*%
X147280000Y-57900000D03*
D11*
X147280000Y-58300000D03*
D12*
X147280000Y-57100000D03*
%TD*%
D10*
%TO.C,REF\u002A\u002A*%
X147280000Y-60440000D03*
D11*
X147280000Y-60840000D03*
D12*
X147280000Y-59640000D03*
%TD*%
D10*
%TO.C,REF\u002A\u002A*%
X165060000Y-75680000D03*
D11*
X165060000Y-76080000D03*
D12*
X165060000Y-74880000D03*
%TD*%
D10*
%TO.C,REF\u002A\u002A*%
X147280000Y-80760000D03*
D11*
X147280000Y-81160000D03*
D12*
X147280000Y-79960000D03*
%TD*%
D10*
%TO.C,REF\u002A\u002A*%
X162520000Y-75680000D03*
D11*
X162520000Y-76080000D03*
D12*
X162520000Y-74880000D03*
%TD*%
D10*
%TO.C,REF\u002A\u002A*%
X154900000Y-80760000D03*
D11*
X154900000Y-81160000D03*
D12*
X154900000Y-79960000D03*
%TD*%
D10*
%TO.C,REF\u002A\u002A*%
X144740000Y-73140000D03*
D11*
X144740000Y-73540000D03*
D12*
X144740000Y-72340000D03*
%TD*%
D10*
%TO.C,REF\u002A\u002A*%
X157435000Y-55365000D03*
D11*
X157435000Y-55765000D03*
D12*
X157435000Y-54565000D03*
%TD*%
D10*
%TO.C,REF\u002A\u002A*%
X165060000Y-60440000D03*
D11*
X165060000Y-60840000D03*
D12*
X165060000Y-59640000D03*
%TD*%
D10*
%TO.C,REF\u002A\u002A*%
X162520000Y-83300000D03*
D11*
X162520000Y-83700000D03*
D12*
X162520000Y-82500000D03*
%TD*%
D10*
%TO.C,REF\u002A\u002A*%
X144740000Y-57900000D03*
D11*
X144740000Y-58300000D03*
D12*
X144740000Y-57100000D03*
%TD*%
D10*
%TO.C,REF\u002A\u002A*%
X144740000Y-60440000D03*
D11*
X144740000Y-60840000D03*
D12*
X144740000Y-59640000D03*
%TD*%
D10*
%TO.C,REF\u002A\u002A*%
X159980000Y-88380000D03*
D11*
X159980000Y-88780000D03*
D12*
X159980000Y-87580000D03*
%TD*%
D10*
%TO.C,REF\u002A\u002A*%
X165060000Y-83300000D03*
D11*
X165060000Y-83700000D03*
D12*
X165060000Y-82500000D03*
%TD*%
D10*
%TO.C,REF\u002A\u002A*%
X159980000Y-73140000D03*
D11*
X159980000Y-73540000D03*
D12*
X159980000Y-72340000D03*
%TD*%
D10*
%TO.C,REF\u002A\u002A*%
X149820000Y-65520000D03*
D11*
X149820000Y-65920000D03*
D12*
X149820000Y-64720000D03*
%TD*%
D10*
%TO.C,REF\u002A\u002A*%
X147280000Y-78220000D03*
D11*
X147280000Y-78620000D03*
D12*
X147280000Y-77420000D03*
%TD*%
D13*
%TO.C,REF\u002A\u002A*%
X164725000Y-90725000D03*
%TD*%
D10*
%TO.C,REF\u002A\u002A*%
X149820000Y-85840000D03*
D11*
X149820000Y-86240000D03*
D12*
X149820000Y-85040000D03*
%TD*%
D10*
%TO.C,REF\u002A\u002A*%
X154900000Y-83300000D03*
D11*
X154900000Y-83700000D03*
D12*
X154900000Y-82500000D03*
%TD*%
D10*
%TO.C,REF\u002A\u002A*%
X147280000Y-62980000D03*
D11*
X147280000Y-63380000D03*
D12*
X147280000Y-62180000D03*
%TD*%
D10*
%TO.C,REF\u002A\u002A*%
X154900000Y-62980000D03*
D11*
X154900000Y-63380000D03*
D12*
X154900000Y-62180000D03*
%TD*%
D10*
%TO.C,REF\u002A\u002A*%
X149820000Y-70600000D03*
D11*
X149820000Y-71000000D03*
D12*
X149820000Y-69800000D03*
%TD*%
D10*
%TO.C,REF\u002A\u002A*%
X149820000Y-88380000D03*
D11*
X149820000Y-88780000D03*
D12*
X149820000Y-87580000D03*
%TD*%
D10*
%TO.C,REF\u002A\u002A*%
X144740000Y-68060000D03*
D11*
X144740000Y-68460000D03*
D12*
X144740000Y-67260000D03*
%TD*%
D10*
%TO.C,REF\u002A\u002A*%
X154900000Y-57900000D03*
D11*
X154900000Y-58300000D03*
D12*
X154900000Y-57100000D03*
%TD*%
D10*
%TO.C,REF\u002A\u002A*%
X157440000Y-83300000D03*
D11*
X157440000Y-83700000D03*
D12*
X157440000Y-82500000D03*
%TD*%
D13*
%TO.C,REF\u002A\u002A*%
X164725000Y-53775000D03*
%TD*%
D10*
%TO.C,REF\u002A\u002A*%
X144740000Y-65520000D03*
D11*
X144740000Y-65920000D03*
D12*
X144740000Y-64720000D03*
%TD*%
D10*
%TO.C,REF\u002A\u002A*%
X165060000Y-80760000D03*
D11*
X165060000Y-81160000D03*
D12*
X165060000Y-79960000D03*
%TD*%
D10*
%TO.C,REF\u002A\u002A*%
X152360000Y-83300000D03*
D11*
X152360000Y-83700000D03*
D12*
X152360000Y-82500000D03*
%TD*%
D10*
%TO.C,REF\u002A\u002A*%
X147280000Y-68060000D03*
D11*
X147280000Y-68460000D03*
D12*
X147280000Y-67260000D03*
%TD*%
D10*
%TO.C,REF\u002A\u002A*%
X152360000Y-78220000D03*
D11*
X152360000Y-78620000D03*
D12*
X152360000Y-77420000D03*
%TD*%
D10*
%TO.C,REF\u002A\u002A*%
X149815000Y-55365000D03*
D11*
X149815000Y-55765000D03*
D12*
X149815000Y-54565000D03*
%TD*%
D10*
%TO.C,REF\u002A\u002A*%
X149820000Y-78220000D03*
D11*
X149820000Y-78620000D03*
D12*
X149820000Y-77420000D03*
%TD*%
D10*
%TO.C,REF\u002A\u002A*%
X159980000Y-80760000D03*
D11*
X159980000Y-81160000D03*
D12*
X159980000Y-79960000D03*
%TD*%
D10*
%TO.C,REF\u002A\u002A*%
X159980000Y-62980000D03*
D11*
X159980000Y-63380000D03*
D12*
X159980000Y-62180000D03*
%TD*%
D10*
%TO.C,REF\u002A\u002A*%
X152360000Y-80760000D03*
D11*
X152360000Y-81160000D03*
D12*
X152360000Y-79960000D03*
%TD*%
D10*
%TO.C,REF\u002A\u002A*%
X159980000Y-78220000D03*
D11*
X159980000Y-78620000D03*
D12*
X159980000Y-77420000D03*
%TD*%
D10*
%TO.C,REF\u002A\u002A*%
X165060000Y-62980000D03*
D11*
X165060000Y-63380000D03*
D12*
X165060000Y-62180000D03*
%TD*%
D10*
%TO.C,REF\u002A\u002A*%
X157440000Y-68060000D03*
D11*
X157440000Y-68460000D03*
D12*
X157440000Y-67260000D03*
%TD*%
D10*
%TO.C,REF\u002A\u002A*%
X159980000Y-70600000D03*
D11*
X159980000Y-71000000D03*
D12*
X159980000Y-69800000D03*
%TD*%
D10*
%TO.C,REF\u002A\u002A*%
X152360000Y-68060000D03*
D11*
X152360000Y-68460000D03*
D12*
X152360000Y-67260000D03*
%TD*%
D10*
%TO.C,REF\u002A\u002A*%
X165060000Y-57900000D03*
D11*
X165060000Y-58300000D03*
D12*
X165060000Y-57100000D03*
%TD*%
D10*
%TO.C,REF\u002A\u002A*%
X157440000Y-75680000D03*
D11*
X157440000Y-76080000D03*
D12*
X157440000Y-74880000D03*
%TD*%
D10*
%TO.C,REF\u002A\u002A*%
X162520000Y-68060000D03*
D11*
X162520000Y-68460000D03*
D12*
X162520000Y-67260000D03*
%TD*%
D10*
%TO.C,REF\u002A\u002A*%
X147280000Y-70600000D03*
D11*
X147280000Y-71000000D03*
D12*
X147280000Y-69800000D03*
%TD*%
D10*
%TO.C,REF\u002A\u002A*%
X159980000Y-68060000D03*
D11*
X159980000Y-68460000D03*
D12*
X159980000Y-67260000D03*
%TD*%
D10*
%TO.C,REF\u002A\u002A*%
X152360000Y-85840000D03*
D11*
X152360000Y-86240000D03*
D12*
X152360000Y-85040000D03*
%TD*%
D10*
%TO.C,REF\u002A\u002A*%
X144740000Y-80760000D03*
D11*
X144740000Y-81160000D03*
D12*
X144740000Y-79960000D03*
%TD*%
D10*
%TO.C,REF\u002A\u002A*%
X154900000Y-85840000D03*
D11*
X154900000Y-86240000D03*
D12*
X154900000Y-85040000D03*
%TD*%
D10*
%TO.C,REF\u002A\u002A*%
X162520000Y-85840000D03*
D11*
X162520000Y-86240000D03*
D12*
X162520000Y-85040000D03*
%TD*%
D10*
%TO.C,REF\u002A\u002A*%
X149820000Y-62980000D03*
D11*
X149820000Y-63380000D03*
D12*
X149820000Y-62180000D03*
%TD*%
D10*
%TO.C,REF\u002A\u002A*%
X157440000Y-88380000D03*
D11*
X157440000Y-88780000D03*
D12*
X157440000Y-87580000D03*
%TD*%
D10*
%TO.C,REF\u002A\u002A*%
X154900000Y-68060000D03*
D11*
X154900000Y-68460000D03*
D12*
X154900000Y-67260000D03*
%TD*%
D10*
%TO.C,REF\u002A\u002A*%
X149820000Y-73140000D03*
D11*
X149820000Y-73540000D03*
D12*
X149820000Y-72340000D03*
%TD*%
D10*
%TO.C,REF\u002A\u002A*%
X154900000Y-78220000D03*
D11*
X154900000Y-78620000D03*
D12*
X154900000Y-77420000D03*
%TD*%
D10*
%TO.C,REF\u002A\u002A*%
X162520000Y-78220000D03*
D11*
X162520000Y-78620000D03*
D12*
X162520000Y-77420000D03*
%TD*%
D10*
%TO.C,REF\u002A\u002A*%
X162520000Y-70600000D03*
D11*
X162520000Y-71000000D03*
D12*
X162520000Y-69800000D03*
%TD*%
D10*
%TO.C,REF\u002A\u002A*%
X154900000Y-75680000D03*
D11*
X154900000Y-76080000D03*
D12*
X154900000Y-74880000D03*
%TD*%
D10*
%TO.C,REF\u002A\u002A*%
X152360000Y-65520000D03*
D11*
X152360000Y-65920000D03*
D12*
X152360000Y-64720000D03*
%TD*%
D10*
%TO.C,REF\u002A\u002A*%
X149820000Y-83300000D03*
D11*
X149820000Y-83700000D03*
D12*
X149820000Y-82500000D03*
%TD*%
D10*
%TO.C,REF\u002A\u002A*%
X152360000Y-70600000D03*
D11*
X152360000Y-71000000D03*
D12*
X152360000Y-69800000D03*
%TD*%
D10*
%TO.C,REF\u002A\u002A*%
X152360000Y-75680000D03*
D11*
X152360000Y-76080000D03*
D12*
X152360000Y-74880000D03*
%TD*%
D10*
%TO.C,REF\u002A\u002A*%
X152360000Y-60440000D03*
D11*
X152360000Y-60840000D03*
D12*
X152360000Y-59640000D03*
%TD*%
D10*
%TO.C,REF\u002A\u002A*%
X154900000Y-73140000D03*
D11*
X154900000Y-73540000D03*
D12*
X154900000Y-72340000D03*
%TD*%
D10*
%TO.C,REF\u002A\u002A*%
X157440000Y-70600000D03*
D11*
X157440000Y-71000000D03*
D12*
X157440000Y-69800000D03*
%TD*%
D10*
%TO.C,REF\u002A\u002A*%
X157440000Y-85840000D03*
D11*
X157440000Y-86240000D03*
D12*
X157440000Y-85040000D03*
%TD*%
D10*
%TO.C,REF\u002A\u002A*%
X159980000Y-83300000D03*
D11*
X159980000Y-83700000D03*
D12*
X159980000Y-82500000D03*
%TD*%
D10*
%TO.C,REF\u002A\u002A*%
X165060000Y-65520000D03*
D11*
X165060000Y-65920000D03*
D12*
X165060000Y-64720000D03*
%TD*%
D10*
%TO.C,REF\u002A\u002A*%
X147280000Y-85840000D03*
D11*
X147280000Y-86240000D03*
D12*
X147280000Y-85040000D03*
%TD*%
D10*
%TO.C,REF\u002A\u002A*%
X157440000Y-60440000D03*
D11*
X157440000Y-60840000D03*
D12*
X157440000Y-59640000D03*
%TD*%
D10*
%TO.C,REF\u002A\u002A*%
X165060000Y-73140000D03*
D11*
X165060000Y-73540000D03*
D12*
X165060000Y-72340000D03*
%TD*%
D10*
%TO.C,REF\u002A\u002A*%
X162520000Y-57900000D03*
D11*
X162520000Y-58300000D03*
D12*
X162520000Y-57100000D03*
%TD*%
D10*
%TO.C,REF\u002A\u002A*%
X157440000Y-73140000D03*
D11*
X157440000Y-73540000D03*
D12*
X157440000Y-72340000D03*
%TD*%
D10*
%TO.C,REF\u002A\u002A*%
X162520000Y-73140000D03*
D11*
X162520000Y-73540000D03*
D12*
X162520000Y-72340000D03*
%TD*%
D10*
%TO.C,REF\u002A\u002A*%
X147280000Y-65520000D03*
D11*
X147280000Y-65920000D03*
D12*
X147280000Y-64720000D03*
%TD*%
D10*
%TO.C,REF\u002A\u002A*%
X152360000Y-62980000D03*
D11*
X152360000Y-63380000D03*
D12*
X152360000Y-62180000D03*
%TD*%
D10*
%TO.C,REF\u002A\u002A*%
X144740000Y-62980000D03*
D11*
X144740000Y-63380000D03*
D12*
X144740000Y-62180000D03*
%TD*%
M02*
