%TF.GenerationSoftware,KiCad,Pcbnew,9.0.1*%
%TF.CreationDate,2025-05-07T00:25:03-04:00*%
%TF.ProjectId,protoplus,70726f74-6f70-46c7-9573-2e6b69636164,rev?*%
%TF.SameCoordinates,Original*%
%TF.FileFunction,Legend,Top*%
%TF.FilePolarity,Positive*%
%FSLAX46Y46*%
G04 Gerber Fmt 4.6, Leading zero omitted, Abs format (unit mm)*
G04 Created by KiCad (PCBNEW 9.0.1) date 2025-05-07 00:25:03*
%MOMM*%
%LPD*%
G01*
G04 APERTURE LIST*
%ADD10C,0.500000*%
%ADD11C,0.100000*%
%ADD12C,0.029494*%
%ADD13R,0.800000X1.524000*%
%ADD14C,1.524000*%
%ADD15R,0.600000X1.524000*%
%ADD16C,2.200000*%
G04 APERTURE END LIST*
D10*
G36*
X155327608Y-52294622D02*
G01*
X155320685Y-52386602D01*
X155298299Y-52493527D01*
X155262256Y-52585157D01*
X155237665Y-52602215D01*
X155217882Y-52596720D01*
X155211287Y-52580233D01*
X155215684Y-52563289D01*
X155256646Y-52441384D01*
X155270638Y-52307903D01*
X155252581Y-52171310D01*
X155201537Y-52059349D01*
X155118597Y-51966573D01*
X155008763Y-51896062D01*
X154877032Y-51852934D01*
X154717062Y-51837735D01*
X154496568Y-51855987D01*
X154267709Y-51912551D01*
X154026465Y-52012063D01*
X154165136Y-52123098D01*
X154257864Y-52236278D01*
X154311576Y-52353424D01*
X154329448Y-52477499D01*
X154316310Y-52584023D01*
X154277440Y-52682484D01*
X154211917Y-52775069D01*
X154116591Y-52863250D01*
X153965385Y-52954997D01*
X153801030Y-53009031D01*
X153618519Y-53027350D01*
X153505515Y-53018234D01*
X153377268Y-52988882D01*
X153270778Y-52944356D01*
X153247941Y-52912404D01*
X153270289Y-52897749D01*
X153306010Y-52908740D01*
X153434139Y-52954206D01*
X153559168Y-52968732D01*
X153703989Y-52950764D01*
X153834421Y-52896993D01*
X153955391Y-52802800D01*
X154046897Y-52685837D01*
X154102011Y-52555022D01*
X154120987Y-52406363D01*
X154102497Y-52279577D01*
X154047632Y-52163811D01*
X153953925Y-52055722D01*
X153758313Y-52200484D01*
X153553953Y-52402436D01*
X153339818Y-52673631D01*
X153115684Y-53027961D01*
X152942249Y-53308987D01*
X152795552Y-53506815D01*
X152672016Y-53639331D01*
X152528149Y-53754327D01*
X152342115Y-53867274D01*
X152106716Y-53977913D01*
X151813936Y-54080081D01*
X151560580Y-54135900D01*
X151339733Y-54153157D01*
X151159244Y-54140516D01*
X151007390Y-54104810D01*
X150878847Y-54047827D01*
X150773390Y-53968479D01*
X150714238Y-53881711D01*
X150694565Y-53783740D01*
X150710773Y-53700964D01*
X150758496Y-53631241D01*
X150830018Y-53582531D01*
X150911453Y-53566974D01*
X150984724Y-53580436D01*
X151026498Y-53617475D01*
X151042428Y-53686043D01*
X151031357Y-53741087D01*
X150998831Y-53786793D01*
X150949822Y-53818254D01*
X150890937Y-53828620D01*
X150827729Y-53817459D01*
X150793630Y-53787509D01*
X150782676Y-53732907D01*
X150780295Y-53701003D01*
X150763114Y-53714351D01*
X150753367Y-53785114D01*
X150770818Y-53869254D01*
X150823578Y-53944181D01*
X150918414Y-54013176D01*
X151033240Y-54062255D01*
X151170635Y-54093262D01*
X151335703Y-54104309D01*
X151551731Y-54087408D01*
X151756479Y-54037057D01*
X151953479Y-53951984D01*
X152145368Y-53828620D01*
X152295364Y-53704090D01*
X152417210Y-53581476D01*
X152953934Y-52918204D01*
X153176023Y-52661493D01*
X153442297Y-52396135D01*
X153718944Y-52158237D01*
X153914358Y-52024733D01*
X153753609Y-51936218D01*
X153551529Y-51868654D01*
X153299102Y-51824504D01*
X152985441Y-51808426D01*
X152702183Y-51822961D01*
X152435244Y-51865765D01*
X152182058Y-51936348D01*
X151940418Y-52035175D01*
X151708550Y-52163653D01*
X151485179Y-52324084D01*
X151277581Y-52510480D01*
X151130526Y-52680517D01*
X151033894Y-52836724D01*
X150979683Y-52981903D01*
X150962378Y-53119094D01*
X150979541Y-53238909D01*
X151028196Y-53336640D01*
X151108007Y-53417376D01*
X151212488Y-53477003D01*
X151342075Y-53514457D01*
X151503681Y-53527896D01*
X151697540Y-53510057D01*
X151900544Y-53454339D01*
X152117089Y-53355113D01*
X152351081Y-53203968D01*
X152524680Y-53060358D01*
X152647666Y-52927681D01*
X152728632Y-52804128D01*
X152774240Y-52687553D01*
X152788887Y-52575501D01*
X152775731Y-52485626D01*
X152740306Y-52421427D01*
X152684348Y-52376096D01*
X152603720Y-52346930D01*
X152489384Y-52335990D01*
X152348391Y-52350791D01*
X152195900Y-52397939D01*
X152027431Y-52484005D01*
X151838904Y-52618396D01*
X151672783Y-52772258D01*
X151566981Y-52909371D01*
X151509289Y-53033207D01*
X151491224Y-53147640D01*
X151503139Y-53203016D01*
X151538669Y-53249917D01*
X151590901Y-53282264D01*
X151649311Y-53292659D01*
X151681438Y-53298618D01*
X151689977Y-53312962D01*
X151681147Y-53325819D01*
X151645097Y-53331585D01*
X151581984Y-53323338D01*
X151525971Y-53298680D01*
X151474738Y-53255259D01*
X151423565Y-53172160D01*
X151405678Y-53068872D01*
X151425103Y-52942712D01*
X151485344Y-52815054D01*
X151592799Y-52682581D01*
X151757938Y-52542834D01*
X151944636Y-52425970D01*
X152125683Y-52347316D01*
X152303568Y-52301987D01*
X152481324Y-52287142D01*
X152619100Y-52299985D01*
X152715731Y-52334086D01*
X152782305Y-52386726D01*
X152824154Y-52460728D01*
X152839628Y-52563747D01*
X152824170Y-52687514D01*
X152776400Y-52814504D01*
X152692382Y-52947118D01*
X152565948Y-53087420D01*
X152389000Y-53237094D01*
X152148199Y-53394818D01*
X151922344Y-53498937D01*
X151707634Y-53557783D01*
X151499651Y-53576744D01*
X151315193Y-53559620D01*
X151164232Y-53511214D01*
X151039314Y-53432488D01*
X150945155Y-53328281D01*
X150887134Y-53201862D01*
X150866573Y-53046890D01*
X150882952Y-52895418D01*
X150932249Y-52747879D01*
X151016268Y-52602078D01*
X151138795Y-52456258D01*
X151305416Y-52309177D01*
X151523281Y-52160136D01*
X151795001Y-52014324D01*
X152074022Y-51902715D01*
X152362159Y-51823461D01*
X152661634Y-51775699D01*
X152975000Y-51759577D01*
X153277684Y-51774877D01*
X153544046Y-51818598D01*
X153779195Y-51888420D01*
X153987447Y-51983365D01*
X154181609Y-51894841D01*
X154365919Y-51834778D01*
X154542362Y-51800146D01*
X154713032Y-51788886D01*
X154890823Y-51805370D01*
X155037049Y-51852057D01*
X155158714Y-51928105D01*
X155251174Y-52028599D01*
X155307701Y-52148866D01*
X155327608Y-52294622D01*
G37*
G36*
X155007955Y-53537665D02*
G01*
X154991425Y-53561094D01*
X154883391Y-53661466D01*
X154770640Y-53745057D01*
X154673130Y-53788361D01*
X154585903Y-53801448D01*
X154514355Y-53791564D01*
X154466504Y-53764671D01*
X154436058Y-53719383D01*
X154424337Y-53647727D01*
X154443937Y-53542092D01*
X154337218Y-53628319D01*
X154249398Y-53716878D01*
X153968396Y-54094692D01*
X153837971Y-54087670D01*
X153702050Y-54095150D01*
X154044234Y-53636278D01*
X154211371Y-53397440D01*
X154280146Y-53273790D01*
X154295377Y-53218776D01*
X154284333Y-53186095D01*
X154254161Y-53176186D01*
X154188163Y-53197814D01*
X154064118Y-53294890D01*
X153842917Y-53536749D01*
X153821220Y-53557320D01*
X153804448Y-53562547D01*
X153791259Y-53546977D01*
X153800785Y-53530643D01*
X153837238Y-53488359D01*
X154070140Y-53253680D01*
X154200997Y-53158522D01*
X154270464Y-53137107D01*
X154344059Y-53148083D01*
X154394445Y-53178554D01*
X154427379Y-53231319D01*
X154440274Y-53316625D01*
X154425180Y-53401434D01*
X154372187Y-53513753D01*
X154266251Y-53662534D01*
X154370785Y-53564482D01*
X154464454Y-53493244D01*
X154553733Y-53352388D01*
X154659176Y-53239994D01*
X154742892Y-53177850D01*
X154812040Y-53146385D01*
X154870935Y-53137107D01*
X154923750Y-53150334D01*
X154940361Y-53187787D01*
X154920576Y-53236513D01*
X154840289Y-53310529D01*
X154652765Y-53423787D01*
X154517760Y-53493091D01*
X154494862Y-53508967D01*
X154473016Y-53582069D01*
X154466835Y-53634752D01*
X154483104Y-53716438D01*
X154523577Y-53757931D01*
X154590117Y-53772138D01*
X154684870Y-53753941D01*
X154796682Y-53690669D01*
X154933949Y-53561021D01*
X154989820Y-53522553D01*
X155007955Y-53537665D01*
G37*
G36*
X155817965Y-53147804D02*
G01*
X155871815Y-53176511D01*
X155905415Y-53223897D01*
X155918187Y-53297697D01*
X155895795Y-53423204D01*
X155820037Y-53576106D01*
X155673089Y-53765116D01*
X155709696Y-53777461D01*
X155756620Y-53781908D01*
X155847989Y-53766543D01*
X155968745Y-53711536D01*
X156079955Y-53633506D01*
X156167864Y-53541939D01*
X156205417Y-53516141D01*
X156219522Y-53527896D01*
X156200112Y-53562781D01*
X156096973Y-53659481D01*
X155967319Y-53750234D01*
X155857147Y-53797131D01*
X155760650Y-53811217D01*
X155698747Y-53806152D01*
X155649825Y-53792136D01*
X155496886Y-53951039D01*
X155363948Y-54047888D01*
X155246691Y-54098592D01*
X155139663Y-54114078D01*
X155060526Y-54104645D01*
X154989973Y-54076612D01*
X154925340Y-54027983D01*
X154876266Y-53967136D01*
X154873923Y-53961732D01*
X155014550Y-53961732D01*
X155030039Y-54026564D01*
X155071068Y-54061988D01*
X155143876Y-54075000D01*
X155240761Y-54060826D01*
X155348989Y-54014007D01*
X155473944Y-53923879D01*
X155620150Y-53775191D01*
X155576079Y-53718895D01*
X155562264Y-53661771D01*
X155581158Y-53578050D01*
X155643597Y-53485458D01*
X155730438Y-53414176D01*
X155803881Y-53394783D01*
X155834556Y-53401421D01*
X155850043Y-53420123D01*
X155868833Y-53369208D01*
X155875872Y-53300292D01*
X155858211Y-53222900D01*
X155812191Y-53181398D01*
X155732074Y-53166416D01*
X155652075Y-53179257D01*
X155554902Y-53223529D01*
X155433619Y-53312229D01*
X155281446Y-53463019D01*
X155152124Y-53622750D01*
X155070874Y-53756022D01*
X155027639Y-53867529D01*
X155014550Y-53961732D01*
X154873923Y-53961732D01*
X154846807Y-53899200D01*
X154836680Y-53822056D01*
X154858674Y-53700956D01*
X154927759Y-53577864D01*
X155053884Y-53448662D01*
X155253053Y-53310672D01*
X155456865Y-53205475D01*
X155614096Y-53152399D01*
X155736104Y-53137107D01*
X155817965Y-53147804D01*
G37*
G36*
X156982109Y-53137107D02*
G01*
X156960310Y-53176186D01*
X156691399Y-53176186D01*
X156236374Y-53819613D01*
X156170225Y-53931846D01*
X156153027Y-54003558D01*
X156163402Y-54043749D01*
X156191686Y-54066428D01*
X156243519Y-54075000D01*
X156318539Y-54057440D01*
X156433414Y-53988171D01*
X156608594Y-53831799D01*
X156867803Y-53541634D01*
X156897112Y-53522553D01*
X156910640Y-53526458D01*
X156915247Y-53538428D01*
X156893632Y-53567738D01*
X156805521Y-53668183D01*
X156581009Y-53904362D01*
X156419128Y-54036217D01*
X156303953Y-54097587D01*
X156220987Y-54114078D01*
X156130033Y-54099204D01*
X156055757Y-54054849D01*
X156006554Y-53988979D01*
X155989628Y-53906625D01*
X156013112Y-53799786D01*
X156098988Y-53648796D01*
X156438058Y-53176186D01*
X156229047Y-53176186D01*
X156256525Y-53137107D01*
X156461505Y-53137107D01*
X156701840Y-52804173D01*
X156821275Y-52818675D01*
X156952433Y-52802036D01*
X156714846Y-53137107D01*
X156982109Y-53137107D01*
G37*
G36*
X157725990Y-53147804D02*
G01*
X157779840Y-53176511D01*
X157813440Y-53223897D01*
X157826212Y-53297697D01*
X157803820Y-53423204D01*
X157728062Y-53576106D01*
X157581115Y-53765116D01*
X157617721Y-53777461D01*
X157664646Y-53781908D01*
X157756014Y-53766543D01*
X157876770Y-53711536D01*
X157987980Y-53633506D01*
X158075889Y-53541939D01*
X158113442Y-53516141D01*
X158127547Y-53527896D01*
X158108137Y-53562781D01*
X158004998Y-53659481D01*
X157875344Y-53750234D01*
X157765172Y-53797131D01*
X157668676Y-53811217D01*
X157606772Y-53806152D01*
X157557850Y-53792136D01*
X157404911Y-53951039D01*
X157271973Y-54047888D01*
X157154716Y-54098592D01*
X157047688Y-54114078D01*
X156968551Y-54104645D01*
X156897998Y-54076612D01*
X156833365Y-54027983D01*
X156784291Y-53967136D01*
X156781948Y-53961732D01*
X156922575Y-53961732D01*
X156938064Y-54026564D01*
X156979093Y-54061988D01*
X157051901Y-54075000D01*
X157148786Y-54060826D01*
X157257014Y-54014007D01*
X157381969Y-53923879D01*
X157528175Y-53775191D01*
X157484104Y-53718895D01*
X157470289Y-53661771D01*
X157489183Y-53578050D01*
X157551622Y-53485458D01*
X157638463Y-53414176D01*
X157711907Y-53394783D01*
X157742581Y-53401421D01*
X157758068Y-53420123D01*
X157776859Y-53369208D01*
X157783897Y-53300292D01*
X157766236Y-53222900D01*
X157720216Y-53181398D01*
X157640099Y-53166416D01*
X157560100Y-53179257D01*
X157462927Y-53223529D01*
X157341645Y-53312229D01*
X157189471Y-53463019D01*
X157060149Y-53622750D01*
X156978899Y-53756022D01*
X156935664Y-53867529D01*
X156922575Y-53961732D01*
X156781948Y-53961732D01*
X156754832Y-53899200D01*
X156744705Y-53822056D01*
X156766699Y-53700956D01*
X156835784Y-53577864D01*
X156961909Y-53448662D01*
X157161078Y-53310672D01*
X157364890Y-53205475D01*
X157522121Y-53152399D01*
X157644129Y-53137107D01*
X157725990Y-53147804D01*
G37*
G36*
X160413477Y-53167332D02*
G01*
X160387162Y-53190285D01*
X160282868Y-53201984D01*
X159485110Y-53201984D01*
X159142376Y-53813354D01*
X159096732Y-53876255D01*
X159069469Y-53889375D01*
X159054448Y-53885559D01*
X159033937Y-53861754D01*
X159055914Y-53795341D01*
X159392236Y-53201984D01*
X158553079Y-53201984D01*
X158494792Y-53191039D01*
X158485851Y-53165500D01*
X158512539Y-53141193D01*
X158616460Y-53129016D01*
X159430521Y-53129016D01*
X159769225Y-52523142D01*
X159824337Y-52451450D01*
X159856420Y-52443763D01*
X159880258Y-52468055D01*
X159859717Y-52534285D01*
X159523578Y-53129016D01*
X160338189Y-53129016D01*
X160403170Y-53140693D01*
X160413477Y-53167332D01*
G37*
D11*
X150171666Y-90904763D02*
X150124047Y-90923811D01*
X150124047Y-90923811D02*
X149981190Y-90942858D01*
X149981190Y-90942858D02*
X149885952Y-90942858D01*
X149885952Y-90942858D02*
X149743095Y-90923811D01*
X149743095Y-90923811D02*
X149647857Y-90885715D01*
X149647857Y-90885715D02*
X149600238Y-90847620D01*
X149600238Y-90847620D02*
X149552619Y-90771430D01*
X149552619Y-90771430D02*
X149552619Y-90714287D01*
X149552619Y-90714287D02*
X149600238Y-90638096D01*
X149600238Y-90638096D02*
X149647857Y-90600001D01*
X149647857Y-90600001D02*
X149743095Y-90561906D01*
X149743095Y-90561906D02*
X149885952Y-90542858D01*
X149885952Y-90542858D02*
X149981190Y-90542858D01*
X149981190Y-90542858D02*
X150124047Y-90561906D01*
X150124047Y-90561906D02*
X150171666Y-90580953D01*
X150600238Y-90904763D02*
X150647857Y-90923811D01*
X150647857Y-90923811D02*
X150600238Y-90942858D01*
X150600238Y-90942858D02*
X150552619Y-90923811D01*
X150552619Y-90923811D02*
X150600238Y-90904763D01*
X150600238Y-90904763D02*
X150600238Y-90942858D01*
X151409761Y-90733334D02*
X151552618Y-90752382D01*
X151552618Y-90752382D02*
X151600237Y-90771430D01*
X151600237Y-90771430D02*
X151647856Y-90809525D01*
X151647856Y-90809525D02*
X151647856Y-90866668D01*
X151647856Y-90866668D02*
X151600237Y-90904763D01*
X151600237Y-90904763D02*
X151552618Y-90923811D01*
X151552618Y-90923811D02*
X151457380Y-90942858D01*
X151457380Y-90942858D02*
X151076428Y-90942858D01*
X151076428Y-90942858D02*
X151076428Y-90542858D01*
X151076428Y-90542858D02*
X151409761Y-90542858D01*
X151409761Y-90542858D02*
X151504999Y-90561906D01*
X151504999Y-90561906D02*
X151552618Y-90580953D01*
X151552618Y-90580953D02*
X151600237Y-90619049D01*
X151600237Y-90619049D02*
X151600237Y-90657144D01*
X151600237Y-90657144D02*
X151552618Y-90695239D01*
X151552618Y-90695239D02*
X151504999Y-90714287D01*
X151504999Y-90714287D02*
X151409761Y-90733334D01*
X151409761Y-90733334D02*
X151076428Y-90733334D01*
X152076428Y-90942858D02*
X152076428Y-90676191D01*
X152076428Y-90752382D02*
X152124047Y-90714287D01*
X152124047Y-90714287D02*
X152171666Y-90695239D01*
X152171666Y-90695239D02*
X152266904Y-90676191D01*
X152266904Y-90676191D02*
X152362142Y-90676191D01*
X152838333Y-90942858D02*
X152743095Y-90923811D01*
X152743095Y-90923811D02*
X152695476Y-90904763D01*
X152695476Y-90904763D02*
X152647857Y-90866668D01*
X152647857Y-90866668D02*
X152647857Y-90752382D01*
X152647857Y-90752382D02*
X152695476Y-90714287D01*
X152695476Y-90714287D02*
X152743095Y-90695239D01*
X152743095Y-90695239D02*
X152838333Y-90676191D01*
X152838333Y-90676191D02*
X152981190Y-90676191D01*
X152981190Y-90676191D02*
X153076428Y-90695239D01*
X153076428Y-90695239D02*
X153124047Y-90714287D01*
X153124047Y-90714287D02*
X153171666Y-90752382D01*
X153171666Y-90752382D02*
X153171666Y-90866668D01*
X153171666Y-90866668D02*
X153124047Y-90904763D01*
X153124047Y-90904763D02*
X153076428Y-90923811D01*
X153076428Y-90923811D02*
X152981190Y-90942858D01*
X152981190Y-90942858D02*
X152838333Y-90942858D01*
X153743095Y-90942858D02*
X153647857Y-90923811D01*
X153647857Y-90923811D02*
X153600238Y-90904763D01*
X153600238Y-90904763D02*
X153552619Y-90866668D01*
X153552619Y-90866668D02*
X153552619Y-90752382D01*
X153552619Y-90752382D02*
X153600238Y-90714287D01*
X153600238Y-90714287D02*
X153647857Y-90695239D01*
X153647857Y-90695239D02*
X153743095Y-90676191D01*
X153743095Y-90676191D02*
X153885952Y-90676191D01*
X153885952Y-90676191D02*
X153981190Y-90695239D01*
X153981190Y-90695239D02*
X154028809Y-90714287D01*
X154028809Y-90714287D02*
X154076428Y-90752382D01*
X154076428Y-90752382D02*
X154076428Y-90866668D01*
X154076428Y-90866668D02*
X154028809Y-90904763D01*
X154028809Y-90904763D02*
X153981190Y-90923811D01*
X153981190Y-90923811D02*
X153885952Y-90942858D01*
X153885952Y-90942858D02*
X153743095Y-90942858D01*
X154505000Y-90942858D02*
X154505000Y-90542858D01*
X154600238Y-90790477D02*
X154885952Y-90942858D01*
X154885952Y-90676191D02*
X154505000Y-90828572D01*
X155266905Y-90923811D02*
X155362143Y-90942858D01*
X155362143Y-90942858D02*
X155552619Y-90942858D01*
X155552619Y-90942858D02*
X155647857Y-90923811D01*
X155647857Y-90923811D02*
X155695476Y-90885715D01*
X155695476Y-90885715D02*
X155695476Y-90866668D01*
X155695476Y-90866668D02*
X155647857Y-90828572D01*
X155647857Y-90828572D02*
X155552619Y-90809525D01*
X155552619Y-90809525D02*
X155409762Y-90809525D01*
X155409762Y-90809525D02*
X155314524Y-90790477D01*
X155314524Y-90790477D02*
X155266905Y-90752382D01*
X155266905Y-90752382D02*
X155266905Y-90733334D01*
X155266905Y-90733334D02*
X155314524Y-90695239D01*
X155314524Y-90695239D02*
X155409762Y-90676191D01*
X155409762Y-90676191D02*
X155552619Y-90676191D01*
X155552619Y-90676191D02*
X155647857Y-90695239D01*
X151290714Y-91224931D02*
X151338333Y-91205884D01*
X151338333Y-91205884D02*
X151433571Y-91186836D01*
X151433571Y-91186836D02*
X151671666Y-91186836D01*
X151671666Y-91186836D02*
X151766904Y-91205884D01*
X151766904Y-91205884D02*
X151814523Y-91224931D01*
X151814523Y-91224931D02*
X151862142Y-91263027D01*
X151862142Y-91263027D02*
X151862142Y-91301122D01*
X151862142Y-91301122D02*
X151814523Y-91358265D01*
X151814523Y-91358265D02*
X151243095Y-91586836D01*
X151243095Y-91586836D02*
X151862142Y-91586836D01*
X152481190Y-91186836D02*
X152576428Y-91186836D01*
X152576428Y-91186836D02*
X152671666Y-91205884D01*
X152671666Y-91205884D02*
X152719285Y-91224931D01*
X152719285Y-91224931D02*
X152766904Y-91263027D01*
X152766904Y-91263027D02*
X152814523Y-91339217D01*
X152814523Y-91339217D02*
X152814523Y-91434455D01*
X152814523Y-91434455D02*
X152766904Y-91510646D01*
X152766904Y-91510646D02*
X152719285Y-91548741D01*
X152719285Y-91548741D02*
X152671666Y-91567789D01*
X152671666Y-91567789D02*
X152576428Y-91586836D01*
X152576428Y-91586836D02*
X152481190Y-91586836D01*
X152481190Y-91586836D02*
X152385952Y-91567789D01*
X152385952Y-91567789D02*
X152338333Y-91548741D01*
X152338333Y-91548741D02*
X152290714Y-91510646D01*
X152290714Y-91510646D02*
X152243095Y-91434455D01*
X152243095Y-91434455D02*
X152243095Y-91339217D01*
X152243095Y-91339217D02*
X152290714Y-91263027D01*
X152290714Y-91263027D02*
X152338333Y-91224931D01*
X152338333Y-91224931D02*
X152385952Y-91205884D01*
X152385952Y-91205884D02*
X152481190Y-91186836D01*
X153195476Y-91224931D02*
X153243095Y-91205884D01*
X153243095Y-91205884D02*
X153338333Y-91186836D01*
X153338333Y-91186836D02*
X153576428Y-91186836D01*
X153576428Y-91186836D02*
X153671666Y-91205884D01*
X153671666Y-91205884D02*
X153719285Y-91224931D01*
X153719285Y-91224931D02*
X153766904Y-91263027D01*
X153766904Y-91263027D02*
X153766904Y-91301122D01*
X153766904Y-91301122D02*
X153719285Y-91358265D01*
X153719285Y-91358265D02*
X153147857Y-91586836D01*
X153147857Y-91586836D02*
X153766904Y-91586836D01*
X154671666Y-91186836D02*
X154195476Y-91186836D01*
X154195476Y-91186836D02*
X154147857Y-91377312D01*
X154147857Y-91377312D02*
X154195476Y-91358265D01*
X154195476Y-91358265D02*
X154290714Y-91339217D01*
X154290714Y-91339217D02*
X154528809Y-91339217D01*
X154528809Y-91339217D02*
X154624047Y-91358265D01*
X154624047Y-91358265D02*
X154671666Y-91377312D01*
X154671666Y-91377312D02*
X154719285Y-91415408D01*
X154719285Y-91415408D02*
X154719285Y-91510646D01*
X154719285Y-91510646D02*
X154671666Y-91548741D01*
X154671666Y-91548741D02*
X154624047Y-91567789D01*
X154624047Y-91567789D02*
X154528809Y-91586836D01*
X154528809Y-91586836D02*
X154290714Y-91586836D01*
X154290714Y-91586836D02*
X154195476Y-91567789D01*
X154195476Y-91567789D02*
X154147857Y-91548741D01*
D12*
%TO.C,Ref\u002A\u002A*%
X157625678Y-89597831D02*
X157626801Y-89597914D01*
X157627918Y-89598052D01*
X157629028Y-89598242D01*
X157630129Y-89598483D01*
X157631220Y-89598774D01*
X157632298Y-89599113D01*
X157633362Y-89599499D01*
X157634411Y-89599931D01*
X157635443Y-89600407D01*
X157636456Y-89600927D01*
X157637448Y-89601487D01*
X157638418Y-89602088D01*
X157639364Y-89602728D01*
X157640285Y-89603405D01*
X157641178Y-89604118D01*
X157642043Y-89604866D01*
X157642877Y-89605647D01*
X157643679Y-89606460D01*
X157644447Y-89607303D01*
X157645180Y-89608176D01*
X157645875Y-89609076D01*
X157646531Y-89610003D01*
X157647148Y-89610955D01*
X157647721Y-89611930D01*
X157648251Y-89612928D01*
X157648736Y-89613946D01*
X157649173Y-89614984D01*
X157649562Y-89616041D01*
X157649900Y-89617114D01*
X157650186Y-89618202D01*
X157650418Y-89619304D01*
X157743767Y-90120793D01*
X157744003Y-90121904D01*
X157744289Y-90123019D01*
X157745007Y-90125253D01*
X157745908Y-90127479D01*
X157746979Y-90129685D01*
X157748208Y-90131854D01*
X157749582Y-90133972D01*
X157751088Y-90136025D01*
X157752715Y-90137999D01*
X157754449Y-90139878D01*
X157756278Y-90141648D01*
X157758190Y-90143294D01*
X157760171Y-90144803D01*
X157762209Y-90146159D01*
X157764292Y-90147348D01*
X157765347Y-90147875D01*
X157766407Y-90148355D01*
X157767473Y-90148786D01*
X157768542Y-90149166D01*
X158104657Y-90286756D01*
X158106745Y-90287675D01*
X158108960Y-90288443D01*
X158111281Y-90289060D01*
X158113690Y-90289529D01*
X158116167Y-90289851D01*
X158118692Y-90290027D01*
X158121246Y-90290057D01*
X158123810Y-90289945D01*
X158126363Y-90289690D01*
X158128887Y-90289295D01*
X158131363Y-90288760D01*
X158133769Y-90288087D01*
X158136088Y-90287277D01*
X158138299Y-90286332D01*
X158140383Y-90285253D01*
X158142321Y-90284042D01*
X158561285Y-89996533D01*
X158562229Y-89995918D01*
X158563201Y-89995351D01*
X158564198Y-89994832D01*
X158565219Y-89994360D01*
X158566262Y-89993936D01*
X158567324Y-89993558D01*
X158568403Y-89993228D01*
X158569498Y-89992944D01*
X158570605Y-89992707D01*
X158571724Y-89992515D01*
X158573984Y-89992271D01*
X158576263Y-89992210D01*
X158578543Y-89992330D01*
X158580806Y-89992630D01*
X158583036Y-89993108D01*
X158585215Y-89993762D01*
X158586281Y-89994155D01*
X158587327Y-89994592D01*
X158588353Y-89995072D01*
X158589355Y-89995595D01*
X158590332Y-89996161D01*
X158591281Y-89996770D01*
X158592201Y-89997422D01*
X158593089Y-89998116D01*
X158593943Y-89998852D01*
X158594760Y-89999630D01*
X158947598Y-90352468D01*
X158948376Y-90353286D01*
X158949111Y-90354140D01*
X158949804Y-90355028D01*
X158950455Y-90355948D01*
X158951062Y-90356898D01*
X158951627Y-90357876D01*
X158952627Y-90359905D01*
X158953452Y-90362020D01*
X158954103Y-90364202D01*
X158954577Y-90366434D01*
X158954874Y-90368700D01*
X158954992Y-90370983D01*
X158954929Y-90373264D01*
X158954685Y-90375527D01*
X158954258Y-90377755D01*
X158953646Y-90379931D01*
X158953271Y-90380994D01*
X158952849Y-90382037D01*
X158952381Y-90383059D01*
X158951866Y-90384057D01*
X158951304Y-90385029D01*
X158950694Y-90385973D01*
X158668200Y-90797710D01*
X158666984Y-90799656D01*
X158665905Y-90801744D01*
X158664964Y-90803954D01*
X158664163Y-90806268D01*
X158663501Y-90808666D01*
X158662982Y-90811129D01*
X158662605Y-90813639D01*
X158662373Y-90816177D01*
X158662285Y-90818724D01*
X158662344Y-90821260D01*
X158662550Y-90823766D01*
X158662906Y-90826225D01*
X158663411Y-90828616D01*
X158664067Y-90830921D01*
X158664876Y-90833121D01*
X158665838Y-90835197D01*
X158814459Y-91181930D01*
X158815308Y-91184059D01*
X158816352Y-91186168D01*
X158817575Y-91188246D01*
X158818964Y-91190279D01*
X158820503Y-91192255D01*
X158822178Y-91194161D01*
X158823974Y-91195984D01*
X158825877Y-91197713D01*
X158827871Y-91199334D01*
X158829942Y-91200835D01*
X158832075Y-91202204D01*
X158834255Y-91203427D01*
X158836468Y-91204492D01*
X158838699Y-91205387D01*
X158840934Y-91206100D01*
X158843156Y-91206616D01*
X159328011Y-91296780D01*
X159328010Y-91296780D01*
X159329110Y-91297017D01*
X159330195Y-91297308D01*
X159331266Y-91297650D01*
X159332320Y-91298043D01*
X159333356Y-91298484D01*
X159334372Y-91298971D01*
X159335368Y-91299504D01*
X159336342Y-91300080D01*
X159338217Y-91301357D01*
X159339987Y-91302787D01*
X159341640Y-91304359D01*
X159343166Y-91306060D01*
X159344554Y-91307875D01*
X159345791Y-91309792D01*
X159346868Y-91311799D01*
X159347343Y-91312831D01*
X159347773Y-91313881D01*
X159348158Y-91314946D01*
X159348496Y-91316025D01*
X159348784Y-91317117D01*
X159349023Y-91318220D01*
X159349211Y-91319332D01*
X159349346Y-91320451D01*
X159349427Y-91321576D01*
X159349453Y-91322705D01*
X159349393Y-91821716D01*
X159349365Y-91822843D01*
X159349282Y-91823967D01*
X159349144Y-91825085D01*
X159348953Y-91826196D01*
X159348712Y-91827298D01*
X159348420Y-91828390D01*
X159348080Y-91829470D01*
X159347693Y-91830536D01*
X159347260Y-91831587D01*
X159346783Y-91832621D01*
X159346263Y-91833636D01*
X159345701Y-91834631D01*
X159345099Y-91835603D01*
X159344459Y-91836551D01*
X159343781Y-91837474D01*
X159343067Y-91838370D01*
X159342319Y-91839236D01*
X159341537Y-91840072D01*
X159340724Y-91840876D01*
X159339880Y-91841646D01*
X159339008Y-91842379D01*
X159338107Y-91843076D01*
X159337181Y-91843733D01*
X159336229Y-91844350D01*
X159335255Y-91844924D01*
X159334258Y-91845454D01*
X159333241Y-91845938D01*
X159332204Y-91846375D01*
X159331149Y-91846762D01*
X159330078Y-91847099D01*
X159328992Y-91847383D01*
X159327893Y-91847612D01*
X158854955Y-91935623D01*
X158853842Y-91935851D01*
X158852726Y-91936131D01*
X158851609Y-91936460D01*
X158850494Y-91936839D01*
X158848274Y-91937734D01*
X158846080Y-91938802D01*
X158843925Y-91940033D01*
X158841825Y-91941411D01*
X158839793Y-91942924D01*
X158837843Y-91944559D01*
X158835990Y-91946304D01*
X158834247Y-91948145D01*
X158832629Y-91950069D01*
X158831150Y-91952064D01*
X158829824Y-91954116D01*
X158828665Y-91956212D01*
X158827688Y-91958340D01*
X158827271Y-91959411D01*
X158826906Y-91960486D01*
X158679259Y-92329309D01*
X158678345Y-92331407D01*
X158677584Y-92333629D01*
X158676973Y-92335955D01*
X158676510Y-92338367D01*
X158676195Y-92340845D01*
X158676027Y-92343370D01*
X158676002Y-92345923D01*
X158676121Y-92348484D01*
X158676381Y-92351035D01*
X158676780Y-92353555D01*
X158677318Y-92356027D01*
X158677993Y-92358430D01*
X158678803Y-92360745D01*
X158679748Y-92362954D01*
X158680824Y-92365036D01*
X158682031Y-92366973D01*
X158950692Y-92758449D01*
X158951307Y-92759393D01*
X158951874Y-92760365D01*
X158952394Y-92761363D01*
X158952865Y-92762385D01*
X158953290Y-92763429D01*
X158953668Y-92764493D01*
X158953998Y-92765574D01*
X158954282Y-92766670D01*
X158954520Y-92767780D01*
X158954711Y-92768901D01*
X158954955Y-92771166D01*
X158955016Y-92773450D01*
X158954896Y-92775736D01*
X158954597Y-92778004D01*
X158954119Y-92780240D01*
X158953464Y-92782424D01*
X158953071Y-92783492D01*
X158952634Y-92784541D01*
X158952154Y-92785568D01*
X158951631Y-92786572D01*
X158951065Y-92787551D01*
X158950456Y-92788501D01*
X158949805Y-92789422D01*
X158949111Y-92790311D01*
X158948374Y-92791165D01*
X158947596Y-92791983D01*
X158594699Y-93144821D01*
X158593886Y-93145594D01*
X158593037Y-93146325D01*
X158592153Y-93147015D01*
X158591237Y-93147662D01*
X158590290Y-93148267D01*
X158589316Y-93148829D01*
X158587291Y-93149826D01*
X158585180Y-93150651D01*
X158583000Y-93151302D01*
X158580769Y-93151777D01*
X158578503Y-93152076D01*
X158576221Y-93152197D01*
X158573939Y-93152137D01*
X158571674Y-93151896D01*
X158569445Y-93151472D01*
X158567268Y-93150864D01*
X158566204Y-93150490D01*
X158565160Y-93150070D01*
X158564138Y-93149602D01*
X158563140Y-93149088D01*
X158562168Y-93148526D01*
X158561224Y-93147917D01*
X158176650Y-92883974D01*
X158174717Y-92882770D01*
X158172646Y-92881715D01*
X158170457Y-92880807D01*
X158168169Y-92880049D01*
X158165799Y-92879441D01*
X158163368Y-92878982D01*
X158160893Y-92878673D01*
X158158393Y-92878514D01*
X158155889Y-92878506D01*
X158153397Y-92878649D01*
X158150938Y-92878944D01*
X158148529Y-92879391D01*
X158146191Y-92879990D01*
X158143941Y-92880741D01*
X158141799Y-92881645D01*
X158139783Y-92882703D01*
X157970192Y-92973250D01*
X157969178Y-92973732D01*
X157968155Y-92974156D01*
X157967126Y-92974522D01*
X157966092Y-92974831D01*
X157965055Y-92975084D01*
X157964016Y-92975281D01*
X157962978Y-92975424D01*
X157961942Y-92975511D01*
X157960910Y-92975546D01*
X157959884Y-92975527D01*
X157958865Y-92975455D01*
X157957855Y-92975332D01*
X157956857Y-92975157D01*
X157955871Y-92974932D01*
X157954899Y-92974658D01*
X157953944Y-92974334D01*
X157953007Y-92973961D01*
X157952090Y-92973541D01*
X157951194Y-92973073D01*
X157950322Y-92972558D01*
X157949475Y-92971998D01*
X157948655Y-92971392D01*
X157947863Y-92970742D01*
X157947102Y-92970048D01*
X157946373Y-92969310D01*
X157945678Y-92968529D01*
X157945019Y-92967707D01*
X157944397Y-92966843D01*
X157943814Y-92965938D01*
X157943273Y-92964993D01*
X157942774Y-92964009D01*
X157942320Y-92962985D01*
X157592667Y-92118039D01*
X157592263Y-92116987D01*
X157591912Y-92115920D01*
X157591614Y-92114839D01*
X157591369Y-92113746D01*
X157591175Y-92112643D01*
X157591031Y-92111532D01*
X157590938Y-92110416D01*
X157590895Y-92109295D01*
X157590900Y-92108172D01*
X157590953Y-92107050D01*
X157591054Y-92105930D01*
X157591202Y-92104813D01*
X157591396Y-92103703D01*
X157591635Y-92102601D01*
X157591919Y-92101510D01*
X157592247Y-92100430D01*
X157592618Y-92099365D01*
X157593032Y-92098315D01*
X157593488Y-92097284D01*
X157593986Y-92096273D01*
X157594524Y-92095285D01*
X157595102Y-92094320D01*
X157595719Y-92093382D01*
X157596375Y-92092472D01*
X157597069Y-92091592D01*
X157597800Y-92090745D01*
X157598568Y-92089932D01*
X157599371Y-92089155D01*
X157600210Y-92088416D01*
X157601083Y-92087718D01*
X157601991Y-92087062D01*
X157602931Y-92086450D01*
X157645373Y-92060466D01*
X157648428Y-92058520D01*
X157651689Y-92056300D01*
X157655096Y-92053853D01*
X157658586Y-92051227D01*
X157662099Y-92048471D01*
X157665572Y-92045634D01*
X157668944Y-92042764D01*
X157672154Y-92039909D01*
X157700250Y-92020678D01*
X157727063Y-91999797D01*
X157752522Y-91977341D01*
X157776551Y-91953380D01*
X157799079Y-91927989D01*
X157820032Y-91901240D01*
X157839336Y-91873205D01*
X157856920Y-91843957D01*
X157872709Y-91813570D01*
X157886630Y-91782115D01*
X157898610Y-91749666D01*
X157908576Y-91716296D01*
X157916455Y-91682076D01*
X157922173Y-91647081D01*
X157925658Y-91611382D01*
X157926836Y-91575052D01*
X157926117Y-91546653D01*
X157923986Y-91518626D01*
X157920477Y-91491008D01*
X157915624Y-91463831D01*
X157909462Y-91437131D01*
X157902026Y-91410943D01*
X157893350Y-91385301D01*
X157883469Y-91360240D01*
X157872417Y-91335794D01*
X157860231Y-91311999D01*
X157846943Y-91288888D01*
X157832589Y-91266498D01*
X157817204Y-91244861D01*
X157800821Y-91224013D01*
X157783476Y-91203989D01*
X157765204Y-91184824D01*
X157746039Y-91166551D01*
X157726016Y-91149206D01*
X157705169Y-91132823D01*
X157683534Y-91117437D01*
X157661144Y-91103082D01*
X157638035Y-91089794D01*
X157614241Y-91077607D01*
X157589797Y-91066556D01*
X157564737Y-91056675D01*
X157539097Y-91047999D01*
X157512911Y-91040562D01*
X157486213Y-91034400D01*
X157459038Y-91029547D01*
X157431422Y-91026038D01*
X157403398Y-91023907D01*
X157375001Y-91023189D01*
X157346604Y-91023907D01*
X157318580Y-91026038D01*
X157290963Y-91029547D01*
X157263788Y-91034400D01*
X157237089Y-91040562D01*
X157210902Y-91047999D01*
X157185261Y-91056675D01*
X157160200Y-91066556D01*
X157135755Y-91077607D01*
X157111960Y-91089794D01*
X157088850Y-91103082D01*
X157066459Y-91117437D01*
X157044822Y-91132823D01*
X157023974Y-91149205D01*
X157003949Y-91166551D01*
X156984783Y-91184823D01*
X156966509Y-91203989D01*
X156949163Y-91224013D01*
X156932779Y-91244861D01*
X156917393Y-91266497D01*
X156903037Y-91288888D01*
X156889748Y-91311999D01*
X156877561Y-91335794D01*
X156866508Y-91360239D01*
X156856626Y-91385301D01*
X156847950Y-91410943D01*
X156840512Y-91437131D01*
X156834350Y-91463831D01*
X156829496Y-91491007D01*
X156825986Y-91518626D01*
X156823855Y-91546653D01*
X156823137Y-91575052D01*
X156823433Y-91593291D01*
X156824315Y-91611382D01*
X156825774Y-91629315D01*
X156827801Y-91647081D01*
X156830386Y-91664671D01*
X156833520Y-91682076D01*
X156837195Y-91699288D01*
X156841401Y-91716296D01*
X156846128Y-91733092D01*
X156851368Y-91749666D01*
X156857112Y-91766011D01*
X156863350Y-91782115D01*
X156870074Y-91797971D01*
X156877273Y-91813570D01*
X156893063Y-91843957D01*
X156910648Y-91873205D01*
X156929953Y-91901240D01*
X156950906Y-91927989D01*
X156973433Y-91953380D01*
X156997461Y-91977341D01*
X157022917Y-91999797D01*
X157049727Y-92020678D01*
X157077818Y-92039909D01*
X157081046Y-92042764D01*
X157084430Y-92045634D01*
X157087909Y-92048471D01*
X157091426Y-92051227D01*
X157094918Y-92053853D01*
X157098328Y-92056300D01*
X157101594Y-92058521D01*
X157104658Y-92060466D01*
X157147100Y-92086450D01*
X157148045Y-92087062D01*
X157148957Y-92087718D01*
X157149835Y-92088416D01*
X157150678Y-92089155D01*
X157151484Y-92089932D01*
X157152255Y-92090745D01*
X157153685Y-92092473D01*
X157154961Y-92094321D01*
X157156079Y-92096274D01*
X157157033Y-92098316D01*
X157157817Y-92100430D01*
X157158427Y-92102602D01*
X157158857Y-92104814D01*
X157159102Y-92107050D01*
X157159157Y-92109295D01*
X157159016Y-92111533D01*
X157158870Y-92112644D01*
X157158673Y-92113746D01*
X157158425Y-92114839D01*
X157158124Y-92115920D01*
X157157771Y-92116987D01*
X157157364Y-92118039D01*
X156807681Y-92962955D01*
X156807227Y-92963978D01*
X156806728Y-92964963D01*
X156806186Y-92965908D01*
X156805603Y-92966813D01*
X156804981Y-92967678D01*
X156804321Y-92968501D01*
X156803625Y-92969282D01*
X156802895Y-92970021D01*
X156802133Y-92970716D01*
X156801341Y-92971367D01*
X156800520Y-92971974D01*
X156799672Y-92972536D01*
X156798799Y-92973051D01*
X156797902Y-92973520D01*
X156796984Y-92973941D01*
X156796046Y-92974315D01*
X156795091Y-92974639D01*
X156794119Y-92974915D01*
X156793132Y-92975140D01*
X156792133Y-92975315D01*
X156791124Y-92975439D01*
X156790105Y-92975510D01*
X156789079Y-92975529D01*
X156788047Y-92975495D01*
X156787012Y-92975406D01*
X156785974Y-92975263D01*
X156784937Y-92975065D01*
X156783901Y-92974810D01*
X156782869Y-92974499D01*
X156781842Y-92974131D01*
X156780821Y-92973704D01*
X156779810Y-92973219D01*
X156610219Y-92882673D01*
X156608208Y-92881617D01*
X156606069Y-92880714D01*
X156603822Y-92879965D01*
X156601485Y-92879368D01*
X156599077Y-92878924D01*
X156596618Y-92878631D01*
X156594126Y-92878489D01*
X156591620Y-92878498D01*
X156589119Y-92878658D01*
X156586642Y-92878967D01*
X156584209Y-92879426D01*
X156581837Y-92880034D01*
X156579547Y-92880790D01*
X156577356Y-92881694D01*
X156575285Y-92882745D01*
X156573352Y-92883944D01*
X156188807Y-93147887D01*
X156187861Y-93148496D01*
X156186886Y-93149058D01*
X156185886Y-93149573D01*
X156184862Y-93150040D01*
X156183817Y-93150461D01*
X156182752Y-93150835D01*
X156181671Y-93151162D01*
X156180574Y-93151443D01*
X156179464Y-93151678D01*
X156178343Y-93151867D01*
X156176078Y-93152108D01*
X156173796Y-93152167D01*
X156171513Y-93152046D01*
X156169247Y-93151747D01*
X156167016Y-93151271D01*
X156164835Y-93150620D01*
X156163770Y-93150230D01*
X156162723Y-93149796D01*
X156161698Y-93149319D01*
X156160697Y-93148799D01*
X156159721Y-93148236D01*
X156158773Y-93147631D01*
X156157855Y-93146984D01*
X156156969Y-93146295D01*
X156156118Y-93145564D01*
X156155303Y-93144791D01*
X155802406Y-92791953D01*
X155801630Y-92791135D01*
X155800897Y-92790280D01*
X155800205Y-92789392D01*
X155799556Y-92788471D01*
X155798949Y-92787521D01*
X155798385Y-92786542D01*
X155797385Y-92784511D01*
X155796558Y-92782394D01*
X155795905Y-92780210D01*
X155795428Y-92777974D01*
X155795128Y-92775706D01*
X155795008Y-92773421D01*
X155795068Y-92771137D01*
X155795311Y-92768871D01*
X155795737Y-92766640D01*
X155796348Y-92764463D01*
X155796724Y-92763399D01*
X155797146Y-92762355D01*
X155797616Y-92761333D01*
X155798133Y-92760335D01*
X155798697Y-92759362D01*
X155799309Y-92758419D01*
X156067941Y-92366943D01*
X156069158Y-92365006D01*
X156070243Y-92362923D01*
X156071193Y-92360715D01*
X156072009Y-92358399D01*
X156072687Y-92355996D01*
X156073227Y-92353525D01*
X156073628Y-92351004D01*
X156073888Y-92348454D01*
X156074007Y-92345893D01*
X156073981Y-92343340D01*
X156073811Y-92340815D01*
X156073495Y-92338337D01*
X156073032Y-92335925D01*
X156072420Y-92333599D01*
X156071657Y-92331377D01*
X156070744Y-92329279D01*
X155923096Y-91960456D01*
X155922732Y-91959381D01*
X155922317Y-91958309D01*
X155921341Y-91956182D01*
X155920182Y-91954085D01*
X155918853Y-91952033D01*
X155917371Y-91950039D01*
X155915749Y-91948115D01*
X155914001Y-91946274D01*
X155912142Y-91944529D01*
X155910187Y-91942893D01*
X155908150Y-91941380D01*
X155906046Y-91940002D01*
X155903888Y-91938772D01*
X155901692Y-91937703D01*
X155899472Y-91936808D01*
X155897242Y-91936100D01*
X155896128Y-91935820D01*
X155895017Y-91935592D01*
X155422079Y-91847582D01*
X155420977Y-91847352D01*
X155419889Y-91847068D01*
X155418816Y-91846732D01*
X155417759Y-91846344D01*
X155416721Y-91845908D01*
X155415703Y-91845424D01*
X155414705Y-91844894D01*
X155413730Y-91844319D01*
X155412778Y-91843703D01*
X155411851Y-91843045D01*
X155410078Y-91841615D01*
X155408422Y-91840042D01*
X155406893Y-91838339D01*
X155405503Y-91836520D01*
X155404262Y-91834600D01*
X155403182Y-91832590D01*
X155402274Y-91830506D01*
X155401888Y-91829439D01*
X155401549Y-91828359D01*
X155401258Y-91827267D01*
X155401017Y-91826165D01*
X155400827Y-91825054D01*
X155400689Y-91823936D01*
X155400606Y-91822812D01*
X155400578Y-91821686D01*
X155400548Y-91322675D01*
X155400576Y-91321549D01*
X155400659Y-91320426D01*
X155400796Y-91319309D01*
X155400986Y-91318199D01*
X155401226Y-91317099D01*
X155401516Y-91316009D01*
X155401855Y-91314931D01*
X155402241Y-91313868D01*
X155402672Y-91312819D01*
X155403147Y-91311788D01*
X155403665Y-91310776D01*
X155404225Y-91309784D01*
X155404825Y-91308815D01*
X155405464Y-91307869D01*
X155406140Y-91306949D01*
X155406853Y-91306055D01*
X155407600Y-91305190D01*
X155408380Y-91304356D01*
X155409193Y-91303554D01*
X155410036Y-91302785D01*
X155410908Y-91302051D01*
X155411809Y-91301355D01*
X155412736Y-91300697D01*
X155413688Y-91300079D01*
X155414664Y-91299503D01*
X155415662Y-91298970D01*
X155416682Y-91298483D01*
X155417722Y-91298042D01*
X155418779Y-91297650D01*
X155419854Y-91297307D01*
X155420945Y-91297017D01*
X155422050Y-91296779D01*
X155906873Y-91206616D01*
X155907988Y-91206383D01*
X155909106Y-91206099D01*
X155911349Y-91205387D01*
X155913586Y-91204492D01*
X155915804Y-91203426D01*
X155917987Y-91202203D01*
X155920122Y-91200834D01*
X155922193Y-91199333D01*
X155924187Y-91197712D01*
X155926087Y-91195983D01*
X155927881Y-91194160D01*
X155929552Y-91192254D01*
X155931088Y-91190278D01*
X155932472Y-91188245D01*
X155933690Y-91186168D01*
X155934728Y-91184058D01*
X155935175Y-91182995D01*
X155935572Y-91181929D01*
X156084222Y-90835196D01*
X156085179Y-90833121D01*
X156085983Y-90830921D01*
X156086636Y-90828616D01*
X156087139Y-90826225D01*
X156087492Y-90823766D01*
X156087697Y-90821259D01*
X156087756Y-90818723D01*
X156087669Y-90816177D01*
X156087438Y-90813639D01*
X156087065Y-90811129D01*
X156086549Y-90808665D01*
X156085894Y-90806267D01*
X156085099Y-90803954D01*
X156084166Y-90801744D01*
X156083097Y-90799656D01*
X156081892Y-90797710D01*
X155799368Y-90385972D01*
X155798753Y-90385029D01*
X155798186Y-90384057D01*
X155797667Y-90383059D01*
X155797196Y-90382037D01*
X155796772Y-90380994D01*
X155796395Y-90379931D01*
X155796066Y-90378851D01*
X155795782Y-90377755D01*
X155795546Y-90376646D01*
X155795356Y-90375527D01*
X155795113Y-90373264D01*
X155795054Y-90370982D01*
X155795175Y-90368700D01*
X155795476Y-90366434D01*
X155795955Y-90364201D01*
X155796609Y-90362019D01*
X155797002Y-90360952D01*
X155797438Y-90359905D01*
X155797918Y-90358878D01*
X155798440Y-90357875D01*
X155799005Y-90356898D01*
X155799613Y-90355948D01*
X155800262Y-90355027D01*
X155800954Y-90354139D01*
X155801688Y-90353285D01*
X155802464Y-90352467D01*
X156155332Y-89999630D01*
X156156147Y-89998851D01*
X156156998Y-89998115D01*
X156157884Y-89997421D01*
X156158802Y-89996770D01*
X156159750Y-89996161D01*
X156160726Y-89995595D01*
X156162752Y-89994592D01*
X156164864Y-89993762D01*
X156167045Y-89993107D01*
X156169276Y-89992629D01*
X156171542Y-89992330D01*
X156173824Y-89992209D01*
X156176107Y-89992271D01*
X156178372Y-89992515D01*
X156180602Y-89992943D01*
X156182781Y-89993558D01*
X156183846Y-89993935D01*
X156184891Y-89994360D01*
X156185915Y-89994831D01*
X156186915Y-89995351D01*
X156187890Y-89995918D01*
X156188836Y-89996532D01*
X156607771Y-90284041D01*
X156609703Y-90285253D01*
X156611783Y-90286332D01*
X156613991Y-90287277D01*
X156616306Y-90288086D01*
X156618710Y-90288759D01*
X156621184Y-90289294D01*
X156623707Y-90289690D01*
X156626260Y-90289944D01*
X156628824Y-90290057D01*
X156631379Y-90290026D01*
X156633906Y-90289851D01*
X156636385Y-90289529D01*
X156638797Y-90289060D01*
X156641122Y-90288442D01*
X156643341Y-90287674D01*
X156645434Y-90286755D01*
X156981579Y-90149165D01*
X156983718Y-90148354D01*
X156985837Y-90147347D01*
X156987923Y-90146158D01*
X156989963Y-90144802D01*
X156991945Y-90143294D01*
X156993856Y-90141647D01*
X156995685Y-90139877D01*
X156997418Y-90137998D01*
X156999043Y-90136025D01*
X157000548Y-90133972D01*
X157001920Y-90131853D01*
X157003147Y-90129684D01*
X157004216Y-90127479D01*
X157005116Y-90125252D01*
X157005833Y-90123018D01*
X157006354Y-90120792D01*
X157099674Y-89619304D01*
X157099906Y-89618202D01*
X157100192Y-89617114D01*
X157100530Y-89616041D01*
X157100918Y-89614984D01*
X157101356Y-89613946D01*
X157101840Y-89612928D01*
X157102370Y-89611930D01*
X157102943Y-89610955D01*
X157103559Y-89610003D01*
X157104215Y-89609076D01*
X157105643Y-89607303D01*
X157107212Y-89605647D01*
X157108909Y-89604118D01*
X157110722Y-89602728D01*
X157112636Y-89601487D01*
X157114639Y-89600407D01*
X157115669Y-89599931D01*
X157116716Y-89599499D01*
X157117779Y-89599113D01*
X157118856Y-89598774D01*
X157119944Y-89598483D01*
X157121044Y-89598242D01*
X157122151Y-89598052D01*
X157123266Y-89597914D01*
X157124387Y-89597831D01*
X157125511Y-89597803D01*
X157624551Y-89597803D01*
X157625678Y-89597831D01*
G36*
X157625678Y-89597831D02*
G01*
X157626801Y-89597914D01*
X157627918Y-89598052D01*
X157629028Y-89598242D01*
X157630129Y-89598483D01*
X157631220Y-89598774D01*
X157632298Y-89599113D01*
X157633362Y-89599499D01*
X157634411Y-89599931D01*
X157635443Y-89600407D01*
X157636456Y-89600927D01*
X157637448Y-89601487D01*
X157638418Y-89602088D01*
X157639364Y-89602728D01*
X157640285Y-89603405D01*
X157641178Y-89604118D01*
X157642043Y-89604866D01*
X157642877Y-89605647D01*
X157643679Y-89606460D01*
X157644447Y-89607303D01*
X157645180Y-89608176D01*
X157645875Y-89609076D01*
X157646531Y-89610003D01*
X157647148Y-89610955D01*
X157647721Y-89611930D01*
X157648251Y-89612928D01*
X157648736Y-89613946D01*
X157649173Y-89614984D01*
X157649562Y-89616041D01*
X157649900Y-89617114D01*
X157650186Y-89618202D01*
X157650418Y-89619304D01*
X157743767Y-90120793D01*
X157744003Y-90121904D01*
X157744289Y-90123019D01*
X157745007Y-90125253D01*
X157745908Y-90127479D01*
X157746979Y-90129685D01*
X157748208Y-90131854D01*
X157749582Y-90133972D01*
X157751088Y-90136025D01*
X157752715Y-90137999D01*
X157754449Y-90139878D01*
X157756278Y-90141648D01*
X157758190Y-90143294D01*
X157760171Y-90144803D01*
X157762209Y-90146159D01*
X157764292Y-90147348D01*
X157765347Y-90147875D01*
X157766407Y-90148355D01*
X157767473Y-90148786D01*
X157768542Y-90149166D01*
X158104657Y-90286756D01*
X158106745Y-90287675D01*
X158108960Y-90288443D01*
X158111281Y-90289060D01*
X158113690Y-90289529D01*
X158116167Y-90289851D01*
X158118692Y-90290027D01*
X158121246Y-90290057D01*
X158123810Y-90289945D01*
X158126363Y-90289690D01*
X158128887Y-90289295D01*
X158131363Y-90288760D01*
X158133769Y-90288087D01*
X158136088Y-90287277D01*
X158138299Y-90286332D01*
X158140383Y-90285253D01*
X158142321Y-90284042D01*
X158561285Y-89996533D01*
X158562229Y-89995918D01*
X158563201Y-89995351D01*
X158564198Y-89994832D01*
X158565219Y-89994360D01*
X158566262Y-89993936D01*
X158567324Y-89993558D01*
X158568403Y-89993228D01*
X158569498Y-89992944D01*
X158570605Y-89992707D01*
X158571724Y-89992515D01*
X158573984Y-89992271D01*
X158576263Y-89992210D01*
X158578543Y-89992330D01*
X158580806Y-89992630D01*
X158583036Y-89993108D01*
X158585215Y-89993762D01*
X158586281Y-89994155D01*
X158587327Y-89994592D01*
X158588353Y-89995072D01*
X158589355Y-89995595D01*
X158590332Y-89996161D01*
X158591281Y-89996770D01*
X158592201Y-89997422D01*
X158593089Y-89998116D01*
X158593943Y-89998852D01*
X158594760Y-89999630D01*
X158947598Y-90352468D01*
X158948376Y-90353286D01*
X158949111Y-90354140D01*
X158949804Y-90355028D01*
X158950455Y-90355948D01*
X158951062Y-90356898D01*
X158951627Y-90357876D01*
X158952627Y-90359905D01*
X158953452Y-90362020D01*
X158954103Y-90364202D01*
X158954577Y-90366434D01*
X158954874Y-90368700D01*
X158954992Y-90370983D01*
X158954929Y-90373264D01*
X158954685Y-90375527D01*
X158954258Y-90377755D01*
X158953646Y-90379931D01*
X158953271Y-90380994D01*
X158952849Y-90382037D01*
X158952381Y-90383059D01*
X158951866Y-90384057D01*
X158951304Y-90385029D01*
X158950694Y-90385973D01*
X158668200Y-90797710D01*
X158666984Y-90799656D01*
X158665905Y-90801744D01*
X158664964Y-90803954D01*
X158664163Y-90806268D01*
X158663501Y-90808666D01*
X158662982Y-90811129D01*
X158662605Y-90813639D01*
X158662373Y-90816177D01*
X158662285Y-90818724D01*
X158662344Y-90821260D01*
X158662550Y-90823766D01*
X158662906Y-90826225D01*
X158663411Y-90828616D01*
X158664067Y-90830921D01*
X158664876Y-90833121D01*
X158665838Y-90835197D01*
X158814459Y-91181930D01*
X158815308Y-91184059D01*
X158816352Y-91186168D01*
X158817575Y-91188246D01*
X158818964Y-91190279D01*
X158820503Y-91192255D01*
X158822178Y-91194161D01*
X158823974Y-91195984D01*
X158825877Y-91197713D01*
X158827871Y-91199334D01*
X158829942Y-91200835D01*
X158832075Y-91202204D01*
X158834255Y-91203427D01*
X158836468Y-91204492D01*
X158838699Y-91205387D01*
X158840934Y-91206100D01*
X158843156Y-91206616D01*
X159328011Y-91296780D01*
X159328010Y-91296780D01*
X159329110Y-91297017D01*
X159330195Y-91297308D01*
X159331266Y-91297650D01*
X159332320Y-91298043D01*
X159333356Y-91298484D01*
X159334372Y-91298971D01*
X159335368Y-91299504D01*
X159336342Y-91300080D01*
X159338217Y-91301357D01*
X159339987Y-91302787D01*
X159341640Y-91304359D01*
X159343166Y-91306060D01*
X159344554Y-91307875D01*
X159345791Y-91309792D01*
X159346868Y-91311799D01*
X159347343Y-91312831D01*
X159347773Y-91313881D01*
X159348158Y-91314946D01*
X159348496Y-91316025D01*
X159348784Y-91317117D01*
X159349023Y-91318220D01*
X159349211Y-91319332D01*
X159349346Y-91320451D01*
X159349427Y-91321576D01*
X159349453Y-91322705D01*
X159349393Y-91821716D01*
X159349365Y-91822843D01*
X159349282Y-91823967D01*
X159349144Y-91825085D01*
X159348953Y-91826196D01*
X159348712Y-91827298D01*
X159348420Y-91828390D01*
X159348080Y-91829470D01*
X159347693Y-91830536D01*
X159347260Y-91831587D01*
X159346783Y-91832621D01*
X159346263Y-91833636D01*
X159345701Y-91834631D01*
X159345099Y-91835603D01*
X159344459Y-91836551D01*
X159343781Y-91837474D01*
X159343067Y-91838370D01*
X159342319Y-91839236D01*
X159341537Y-91840072D01*
X159340724Y-91840876D01*
X159339880Y-91841646D01*
X159339008Y-91842379D01*
X159338107Y-91843076D01*
X159337181Y-91843733D01*
X159336229Y-91844350D01*
X159335255Y-91844924D01*
X159334258Y-91845454D01*
X159333241Y-91845938D01*
X159332204Y-91846375D01*
X159331149Y-91846762D01*
X159330078Y-91847099D01*
X159328992Y-91847383D01*
X159327893Y-91847612D01*
X158854955Y-91935623D01*
X158853842Y-91935851D01*
X158852726Y-91936131D01*
X158851609Y-91936460D01*
X158850494Y-91936839D01*
X158848274Y-91937734D01*
X158846080Y-91938802D01*
X158843925Y-91940033D01*
X158841825Y-91941411D01*
X158839793Y-91942924D01*
X158837843Y-91944559D01*
X158835990Y-91946304D01*
X158834247Y-91948145D01*
X158832629Y-91950069D01*
X158831150Y-91952064D01*
X158829824Y-91954116D01*
X158828665Y-91956212D01*
X158827688Y-91958340D01*
X158827271Y-91959411D01*
X158826906Y-91960486D01*
X158679259Y-92329309D01*
X158678345Y-92331407D01*
X158677584Y-92333629D01*
X158676973Y-92335955D01*
X158676510Y-92338367D01*
X158676195Y-92340845D01*
X158676027Y-92343370D01*
X158676002Y-92345923D01*
X158676121Y-92348484D01*
X158676381Y-92351035D01*
X158676780Y-92353555D01*
X158677318Y-92356027D01*
X158677993Y-92358430D01*
X158678803Y-92360745D01*
X158679748Y-92362954D01*
X158680824Y-92365036D01*
X158682031Y-92366973D01*
X158950692Y-92758449D01*
X158951307Y-92759393D01*
X158951874Y-92760365D01*
X158952394Y-92761363D01*
X158952865Y-92762385D01*
X158953290Y-92763429D01*
X158953668Y-92764493D01*
X158953998Y-92765574D01*
X158954282Y-92766670D01*
X158954520Y-92767780D01*
X158954711Y-92768901D01*
X158954955Y-92771166D01*
X158955016Y-92773450D01*
X158954896Y-92775736D01*
X158954597Y-92778004D01*
X158954119Y-92780240D01*
X158953464Y-92782424D01*
X158953071Y-92783492D01*
X158952634Y-92784541D01*
X158952154Y-92785568D01*
X158951631Y-92786572D01*
X158951065Y-92787551D01*
X158950456Y-92788501D01*
X158949805Y-92789422D01*
X158949111Y-92790311D01*
X158948374Y-92791165D01*
X158947596Y-92791983D01*
X158594699Y-93144821D01*
X158593886Y-93145594D01*
X158593037Y-93146325D01*
X158592153Y-93147015D01*
X158591237Y-93147662D01*
X158590290Y-93148267D01*
X158589316Y-93148829D01*
X158587291Y-93149826D01*
X158585180Y-93150651D01*
X158583000Y-93151302D01*
X158580769Y-93151777D01*
X158578503Y-93152076D01*
X158576221Y-93152197D01*
X158573939Y-93152137D01*
X158571674Y-93151896D01*
X158569445Y-93151472D01*
X158567268Y-93150864D01*
X158566204Y-93150490D01*
X158565160Y-93150070D01*
X158564138Y-93149602D01*
X158563140Y-93149088D01*
X158562168Y-93148526D01*
X158561224Y-93147917D01*
X158176650Y-92883974D01*
X158174717Y-92882770D01*
X158172646Y-92881715D01*
X158170457Y-92880807D01*
X158168169Y-92880049D01*
X158165799Y-92879441D01*
X158163368Y-92878982D01*
X158160893Y-92878673D01*
X158158393Y-92878514D01*
X158155889Y-92878506D01*
X158153397Y-92878649D01*
X158150938Y-92878944D01*
X158148529Y-92879391D01*
X158146191Y-92879990D01*
X158143941Y-92880741D01*
X158141799Y-92881645D01*
X158139783Y-92882703D01*
X157970192Y-92973250D01*
X157969178Y-92973732D01*
X157968155Y-92974156D01*
X157967126Y-92974522D01*
X157966092Y-92974831D01*
X157965055Y-92975084D01*
X157964016Y-92975281D01*
X157962978Y-92975424D01*
X157961942Y-92975511D01*
X157960910Y-92975546D01*
X157959884Y-92975527D01*
X157958865Y-92975455D01*
X157957855Y-92975332D01*
X157956857Y-92975157D01*
X157955871Y-92974932D01*
X157954899Y-92974658D01*
X157953944Y-92974334D01*
X157953007Y-92973961D01*
X157952090Y-92973541D01*
X157951194Y-92973073D01*
X157950322Y-92972558D01*
X157949475Y-92971998D01*
X157948655Y-92971392D01*
X157947863Y-92970742D01*
X157947102Y-92970048D01*
X157946373Y-92969310D01*
X157945678Y-92968529D01*
X157945019Y-92967707D01*
X157944397Y-92966843D01*
X157943814Y-92965938D01*
X157943273Y-92964993D01*
X157942774Y-92964009D01*
X157942320Y-92962985D01*
X157592667Y-92118039D01*
X157592263Y-92116987D01*
X157591912Y-92115920D01*
X157591614Y-92114839D01*
X157591369Y-92113746D01*
X157591175Y-92112643D01*
X157591031Y-92111532D01*
X157590938Y-92110416D01*
X157590895Y-92109295D01*
X157590900Y-92108172D01*
X157590953Y-92107050D01*
X157591054Y-92105930D01*
X157591202Y-92104813D01*
X157591396Y-92103703D01*
X157591635Y-92102601D01*
X157591919Y-92101510D01*
X157592247Y-92100430D01*
X157592618Y-92099365D01*
X157593032Y-92098315D01*
X157593488Y-92097284D01*
X157593986Y-92096273D01*
X157594524Y-92095285D01*
X157595102Y-92094320D01*
X157595719Y-92093382D01*
X157596375Y-92092472D01*
X157597069Y-92091592D01*
X157597800Y-92090745D01*
X157598568Y-92089932D01*
X157599371Y-92089155D01*
X157600210Y-92088416D01*
X157601083Y-92087718D01*
X157601991Y-92087062D01*
X157602931Y-92086450D01*
X157645373Y-92060466D01*
X157648428Y-92058520D01*
X157651689Y-92056300D01*
X157655096Y-92053853D01*
X157658586Y-92051227D01*
X157662099Y-92048471D01*
X157665572Y-92045634D01*
X157668944Y-92042764D01*
X157672154Y-92039909D01*
X157700250Y-92020678D01*
X157727063Y-91999797D01*
X157752522Y-91977341D01*
X157776551Y-91953380D01*
X157799079Y-91927989D01*
X157820032Y-91901240D01*
X157839336Y-91873205D01*
X157856920Y-91843957D01*
X157872709Y-91813570D01*
X157886630Y-91782115D01*
X157898610Y-91749666D01*
X157908576Y-91716296D01*
X157916455Y-91682076D01*
X157922173Y-91647081D01*
X157925658Y-91611382D01*
X157926836Y-91575052D01*
X157926117Y-91546653D01*
X157923986Y-91518626D01*
X157920477Y-91491008D01*
X157915624Y-91463831D01*
X157909462Y-91437131D01*
X157902026Y-91410943D01*
X157893350Y-91385301D01*
X157883469Y-91360240D01*
X157872417Y-91335794D01*
X157860231Y-91311999D01*
X157846943Y-91288888D01*
X157832589Y-91266498D01*
X157817204Y-91244861D01*
X157800821Y-91224013D01*
X157783476Y-91203989D01*
X157765204Y-91184824D01*
X157746039Y-91166551D01*
X157726016Y-91149206D01*
X157705169Y-91132823D01*
X157683534Y-91117437D01*
X157661144Y-91103082D01*
X157638035Y-91089794D01*
X157614241Y-91077607D01*
X157589797Y-91066556D01*
X157564737Y-91056675D01*
X157539097Y-91047999D01*
X157512911Y-91040562D01*
X157486213Y-91034400D01*
X157459038Y-91029547D01*
X157431422Y-91026038D01*
X157403398Y-91023907D01*
X157375001Y-91023189D01*
X157346604Y-91023907D01*
X157318580Y-91026038D01*
X157290963Y-91029547D01*
X157263788Y-91034400D01*
X157237089Y-91040562D01*
X157210902Y-91047999D01*
X157185261Y-91056675D01*
X157160200Y-91066556D01*
X157135755Y-91077607D01*
X157111960Y-91089794D01*
X157088850Y-91103082D01*
X157066459Y-91117437D01*
X157044822Y-91132823D01*
X157023974Y-91149205D01*
X157003949Y-91166551D01*
X156984783Y-91184823D01*
X156966509Y-91203989D01*
X156949163Y-91224013D01*
X156932779Y-91244861D01*
X156917393Y-91266497D01*
X156903037Y-91288888D01*
X156889748Y-91311999D01*
X156877561Y-91335794D01*
X156866508Y-91360239D01*
X156856626Y-91385301D01*
X156847950Y-91410943D01*
X156840512Y-91437131D01*
X156834350Y-91463831D01*
X156829496Y-91491007D01*
X156825986Y-91518626D01*
X156823855Y-91546653D01*
X156823137Y-91575052D01*
X156823433Y-91593291D01*
X156824315Y-91611382D01*
X156825774Y-91629315D01*
X156827801Y-91647081D01*
X156830386Y-91664671D01*
X156833520Y-91682076D01*
X156837195Y-91699288D01*
X156841401Y-91716296D01*
X156846128Y-91733092D01*
X156851368Y-91749666D01*
X156857112Y-91766011D01*
X156863350Y-91782115D01*
X156870074Y-91797971D01*
X156877273Y-91813570D01*
X156893063Y-91843957D01*
X156910648Y-91873205D01*
X156929953Y-91901240D01*
X156950906Y-91927989D01*
X156973433Y-91953380D01*
X156997461Y-91977341D01*
X157022917Y-91999797D01*
X157049727Y-92020678D01*
X157077818Y-92039909D01*
X157081046Y-92042764D01*
X157084430Y-92045634D01*
X157087909Y-92048471D01*
X157091426Y-92051227D01*
X157094918Y-92053853D01*
X157098328Y-92056300D01*
X157101594Y-92058521D01*
X157104658Y-92060466D01*
X157147100Y-92086450D01*
X157148045Y-92087062D01*
X157148957Y-92087718D01*
X157149835Y-92088416D01*
X157150678Y-92089155D01*
X157151484Y-92089932D01*
X157152255Y-92090745D01*
X157153685Y-92092473D01*
X157154961Y-92094321D01*
X157156079Y-92096274D01*
X157157033Y-92098316D01*
X157157817Y-92100430D01*
X157158427Y-92102602D01*
X157158857Y-92104814D01*
X157159102Y-92107050D01*
X157159157Y-92109295D01*
X157159016Y-92111533D01*
X157158870Y-92112644D01*
X157158673Y-92113746D01*
X157158425Y-92114839D01*
X157158124Y-92115920D01*
X157157771Y-92116987D01*
X157157364Y-92118039D01*
X156807681Y-92962955D01*
X156807227Y-92963978D01*
X156806728Y-92964963D01*
X156806186Y-92965908D01*
X156805603Y-92966813D01*
X156804981Y-92967678D01*
X156804321Y-92968501D01*
X156803625Y-92969282D01*
X156802895Y-92970021D01*
X156802133Y-92970716D01*
X156801341Y-92971367D01*
X156800520Y-92971974D01*
X156799672Y-92972536D01*
X156798799Y-92973051D01*
X156797902Y-92973520D01*
X156796984Y-92973941D01*
X156796046Y-92974315D01*
X156795091Y-92974639D01*
X156794119Y-92974915D01*
X156793132Y-92975140D01*
X156792133Y-92975315D01*
X156791124Y-92975439D01*
X156790105Y-92975510D01*
X156789079Y-92975529D01*
X156788047Y-92975495D01*
X156787012Y-92975406D01*
X156785974Y-92975263D01*
X156784937Y-92975065D01*
X156783901Y-92974810D01*
X156782869Y-92974499D01*
X156781842Y-92974131D01*
X156780821Y-92973704D01*
X156779810Y-92973219D01*
X156610219Y-92882673D01*
X156608208Y-92881617D01*
X156606069Y-92880714D01*
X156603822Y-92879965D01*
X156601485Y-92879368D01*
X156599077Y-92878924D01*
X156596618Y-92878631D01*
X156594126Y-92878489D01*
X156591620Y-92878498D01*
X156589119Y-92878658D01*
X156586642Y-92878967D01*
X156584209Y-92879426D01*
X156581837Y-92880034D01*
X156579547Y-92880790D01*
X156577356Y-92881694D01*
X156575285Y-92882745D01*
X156573352Y-92883944D01*
X156188807Y-93147887D01*
X156187861Y-93148496D01*
X156186886Y-93149058D01*
X156185886Y-93149573D01*
X156184862Y-93150040D01*
X156183817Y-93150461D01*
X156182752Y-93150835D01*
X156181671Y-93151162D01*
X156180574Y-93151443D01*
X156179464Y-93151678D01*
X156178343Y-93151867D01*
X156176078Y-93152108D01*
X156173796Y-93152167D01*
X156171513Y-93152046D01*
X156169247Y-93151747D01*
X156167016Y-93151271D01*
X156164835Y-93150620D01*
X156163770Y-93150230D01*
X156162723Y-93149796D01*
X156161698Y-93149319D01*
X156160697Y-93148799D01*
X156159721Y-93148236D01*
X156158773Y-93147631D01*
X156157855Y-93146984D01*
X156156969Y-93146295D01*
X156156118Y-93145564D01*
X156155303Y-93144791D01*
X155802406Y-92791953D01*
X155801630Y-92791135D01*
X155800897Y-92790280D01*
X155800205Y-92789392D01*
X155799556Y-92788471D01*
X155798949Y-92787521D01*
X155798385Y-92786542D01*
X155797385Y-92784511D01*
X155796558Y-92782394D01*
X155795905Y-92780210D01*
X155795428Y-92777974D01*
X155795128Y-92775706D01*
X155795008Y-92773421D01*
X155795068Y-92771137D01*
X155795311Y-92768871D01*
X155795737Y-92766640D01*
X155796348Y-92764463D01*
X155796724Y-92763399D01*
X155797146Y-92762355D01*
X155797616Y-92761333D01*
X155798133Y-92760335D01*
X155798697Y-92759362D01*
X155799309Y-92758419D01*
X156067941Y-92366943D01*
X156069158Y-92365006D01*
X156070243Y-92362923D01*
X156071193Y-92360715D01*
X156072009Y-92358399D01*
X156072687Y-92355996D01*
X156073227Y-92353525D01*
X156073628Y-92351004D01*
X156073888Y-92348454D01*
X156074007Y-92345893D01*
X156073981Y-92343340D01*
X156073811Y-92340815D01*
X156073495Y-92338337D01*
X156073032Y-92335925D01*
X156072420Y-92333599D01*
X156071657Y-92331377D01*
X156070744Y-92329279D01*
X155923096Y-91960456D01*
X155922732Y-91959381D01*
X155922317Y-91958309D01*
X155921341Y-91956182D01*
X155920182Y-91954085D01*
X155918853Y-91952033D01*
X155917371Y-91950039D01*
X155915749Y-91948115D01*
X155914001Y-91946274D01*
X155912142Y-91944529D01*
X155910187Y-91942893D01*
X155908150Y-91941380D01*
X155906046Y-91940002D01*
X155903888Y-91938772D01*
X155901692Y-91937703D01*
X155899472Y-91936808D01*
X155897242Y-91936100D01*
X155896128Y-91935820D01*
X155895017Y-91935592D01*
X155422079Y-91847582D01*
X155420977Y-91847352D01*
X155419889Y-91847068D01*
X155418816Y-91846732D01*
X155417759Y-91846344D01*
X155416721Y-91845908D01*
X155415703Y-91845424D01*
X155414705Y-91844894D01*
X155413730Y-91844319D01*
X155412778Y-91843703D01*
X155411851Y-91843045D01*
X155410078Y-91841615D01*
X155408422Y-91840042D01*
X155406893Y-91838339D01*
X155405503Y-91836520D01*
X155404262Y-91834600D01*
X155403182Y-91832590D01*
X155402274Y-91830506D01*
X155401888Y-91829439D01*
X155401549Y-91828359D01*
X155401258Y-91827267D01*
X155401017Y-91826165D01*
X155400827Y-91825054D01*
X155400689Y-91823936D01*
X155400606Y-91822812D01*
X155400578Y-91821686D01*
X155400548Y-91322675D01*
X155400576Y-91321549D01*
X155400659Y-91320426D01*
X155400796Y-91319309D01*
X155400986Y-91318199D01*
X155401226Y-91317099D01*
X155401516Y-91316009D01*
X155401855Y-91314931D01*
X155402241Y-91313868D01*
X155402672Y-91312819D01*
X155403147Y-91311788D01*
X155403665Y-91310776D01*
X155404225Y-91309784D01*
X155404825Y-91308815D01*
X155405464Y-91307869D01*
X155406140Y-91306949D01*
X155406853Y-91306055D01*
X155407600Y-91305190D01*
X155408380Y-91304356D01*
X155409193Y-91303554D01*
X155410036Y-91302785D01*
X155410908Y-91302051D01*
X155411809Y-91301355D01*
X155412736Y-91300697D01*
X155413688Y-91300079D01*
X155414664Y-91299503D01*
X155415662Y-91298970D01*
X155416682Y-91298483D01*
X155417722Y-91298042D01*
X155418779Y-91297650D01*
X155419854Y-91297307D01*
X155420945Y-91297017D01*
X155422050Y-91296779D01*
X155906873Y-91206616D01*
X155907988Y-91206383D01*
X155909106Y-91206099D01*
X155911349Y-91205387D01*
X155913586Y-91204492D01*
X155915804Y-91203426D01*
X155917987Y-91202203D01*
X155920122Y-91200834D01*
X155922193Y-91199333D01*
X155924187Y-91197712D01*
X155926087Y-91195983D01*
X155927881Y-91194160D01*
X155929552Y-91192254D01*
X155931088Y-91190278D01*
X155932472Y-91188245D01*
X155933690Y-91186168D01*
X155934728Y-91184058D01*
X155935175Y-91182995D01*
X155935572Y-91181929D01*
X156084222Y-90835196D01*
X156085179Y-90833121D01*
X156085983Y-90830921D01*
X156086636Y-90828616D01*
X156087139Y-90826225D01*
X156087492Y-90823766D01*
X156087697Y-90821259D01*
X156087756Y-90818723D01*
X156087669Y-90816177D01*
X156087438Y-90813639D01*
X156087065Y-90811129D01*
X156086549Y-90808665D01*
X156085894Y-90806267D01*
X156085099Y-90803954D01*
X156084166Y-90801744D01*
X156083097Y-90799656D01*
X156081892Y-90797710D01*
X155799368Y-90385972D01*
X155798753Y-90385029D01*
X155798186Y-90384057D01*
X155797667Y-90383059D01*
X155797196Y-90382037D01*
X155796772Y-90380994D01*
X155796395Y-90379931D01*
X155796066Y-90378851D01*
X155795782Y-90377755D01*
X155795546Y-90376646D01*
X155795356Y-90375527D01*
X155795113Y-90373264D01*
X155795054Y-90370982D01*
X155795175Y-90368700D01*
X155795476Y-90366434D01*
X155795955Y-90364201D01*
X155796609Y-90362019D01*
X155797002Y-90360952D01*
X155797438Y-90359905D01*
X155797918Y-90358878D01*
X155798440Y-90357875D01*
X155799005Y-90356898D01*
X155799613Y-90355948D01*
X155800262Y-90355027D01*
X155800954Y-90354139D01*
X155801688Y-90353285D01*
X155802464Y-90352467D01*
X156155332Y-89999630D01*
X156156147Y-89998851D01*
X156156998Y-89998115D01*
X156157884Y-89997421D01*
X156158802Y-89996770D01*
X156159750Y-89996161D01*
X156160726Y-89995595D01*
X156162752Y-89994592D01*
X156164864Y-89993762D01*
X156167045Y-89993107D01*
X156169276Y-89992629D01*
X156171542Y-89992330D01*
X156173824Y-89992209D01*
X156176107Y-89992271D01*
X156178372Y-89992515D01*
X156180602Y-89992943D01*
X156182781Y-89993558D01*
X156183846Y-89993935D01*
X156184891Y-89994360D01*
X156185915Y-89994831D01*
X156186915Y-89995351D01*
X156187890Y-89995918D01*
X156188836Y-89996532D01*
X156607771Y-90284041D01*
X156609703Y-90285253D01*
X156611783Y-90286332D01*
X156613991Y-90287277D01*
X156616306Y-90288086D01*
X156618710Y-90288759D01*
X156621184Y-90289294D01*
X156623707Y-90289690D01*
X156626260Y-90289944D01*
X156628824Y-90290057D01*
X156631379Y-90290026D01*
X156633906Y-90289851D01*
X156636385Y-90289529D01*
X156638797Y-90289060D01*
X156641122Y-90288442D01*
X156643341Y-90287674D01*
X156645434Y-90286755D01*
X156981579Y-90149165D01*
X156983718Y-90148354D01*
X156985837Y-90147347D01*
X156987923Y-90146158D01*
X156989963Y-90144802D01*
X156991945Y-90143294D01*
X156993856Y-90141647D01*
X156995685Y-90139877D01*
X156997418Y-90137998D01*
X156999043Y-90136025D01*
X157000548Y-90133972D01*
X157001920Y-90131853D01*
X157003147Y-90129684D01*
X157004216Y-90127479D01*
X157005116Y-90125252D01*
X157005833Y-90123018D01*
X157006354Y-90120792D01*
X157099674Y-89619304D01*
X157099906Y-89618202D01*
X157100192Y-89617114D01*
X157100530Y-89616041D01*
X157100918Y-89614984D01*
X157101356Y-89613946D01*
X157101840Y-89612928D01*
X157102370Y-89611930D01*
X157102943Y-89610955D01*
X157103559Y-89610003D01*
X157104215Y-89609076D01*
X157105643Y-89607303D01*
X157107212Y-89605647D01*
X157108909Y-89604118D01*
X157110722Y-89602728D01*
X157112636Y-89601487D01*
X157114639Y-89600407D01*
X157115669Y-89599931D01*
X157116716Y-89599499D01*
X157117779Y-89599113D01*
X157118856Y-89598774D01*
X157119944Y-89598483D01*
X157121044Y-89598242D01*
X157122151Y-89598052D01*
X157123266Y-89597914D01*
X157124387Y-89597831D01*
X157125511Y-89597803D01*
X157624551Y-89597803D01*
X157625678Y-89597831D01*
G37*
%TD*%
%LPC*%
D13*
%TO.C,REF\u002A\u002A*%
X157840000Y-65920000D03*
D14*
X157440000Y-65920000D03*
D15*
X158640000Y-65920000D03*
%TD*%
D13*
%TO.C,REF\u002A\u002A*%
X145140000Y-71000000D03*
D14*
X144740000Y-71000000D03*
D15*
X145940000Y-71000000D03*
%TD*%
D13*
%TO.C,REF\u002A\u002A*%
X150220000Y-68460000D03*
D14*
X149820000Y-68460000D03*
D15*
X151020000Y-68460000D03*
%TD*%
D13*
%TO.C,REF\u002A\u002A*%
X150220000Y-60840000D03*
D14*
X149820000Y-60840000D03*
D15*
X151020000Y-60840000D03*
%TD*%
D13*
%TO.C,REF\u002A\u002A*%
X145140000Y-86240000D03*
D14*
X144740000Y-86240000D03*
D15*
X145940000Y-86240000D03*
%TD*%
D13*
%TO.C,REF\u002A\u002A*%
X157840000Y-63380000D03*
D14*
X157440000Y-63380000D03*
D15*
X158640000Y-63380000D03*
%TD*%
D16*
%TO.C,REF\u002A\u002A*%
X145775000Y-53775000D03*
%TD*%
D13*
%TO.C,REF\u002A\u002A*%
X162920000Y-65920000D03*
D14*
X162520000Y-65920000D03*
D15*
X163720000Y-65920000D03*
%TD*%
D13*
%TO.C,REF\u002A\u002A*%
X165460000Y-86240000D03*
D14*
X165060000Y-86240000D03*
D15*
X166260000Y-86240000D03*
%TD*%
D13*
%TO.C,REF\u002A\u002A*%
X157840000Y-58300000D03*
D14*
X157440000Y-58300000D03*
D15*
X158640000Y-58300000D03*
%TD*%
D13*
%TO.C,REF\u002A\u002A*%
X162920000Y-81160000D03*
D14*
X162520000Y-81160000D03*
D15*
X163720000Y-81160000D03*
%TD*%
D13*
%TO.C,REF\u002A\u002A*%
X155300000Y-71000000D03*
D14*
X154900000Y-71000000D03*
D15*
X156100000Y-71000000D03*
%TD*%
D13*
%TO.C,REF\u002A\u002A*%
X157840000Y-81160000D03*
D14*
X157440000Y-81160000D03*
D15*
X158640000Y-81160000D03*
%TD*%
D16*
%TO.C,REF\u002A\u002A*%
X145775000Y-90725000D03*
%TD*%
D13*
%TO.C,REF\u002A\u002A*%
X155295000Y-55765000D03*
D14*
X154895000Y-55765000D03*
D15*
X156095000Y-55765000D03*
%TD*%
D13*
%TO.C,REF\u002A\u002A*%
X160375000Y-55765000D03*
D14*
X159975000Y-55765000D03*
D15*
X161175000Y-55765000D03*
%TD*%
D13*
%TO.C,REF\u002A\u002A*%
X147680000Y-73540000D03*
D14*
X147280000Y-73540000D03*
D15*
X148480000Y-73540000D03*
%TD*%
D13*
%TO.C,REF\u002A\u002A*%
X155300000Y-65920000D03*
D14*
X154900000Y-65920000D03*
D15*
X156100000Y-65920000D03*
%TD*%
D13*
%TO.C,REF\u002A\u002A*%
X145140000Y-78620000D03*
D14*
X144740000Y-78620000D03*
D15*
X145940000Y-78620000D03*
%TD*%
D13*
%TO.C,REF\u002A\u002A*%
X155300000Y-88780000D03*
D14*
X154900000Y-88780000D03*
D15*
X156100000Y-88780000D03*
%TD*%
D13*
%TO.C,REF\u002A\u002A*%
X160380000Y-60840000D03*
D14*
X159980000Y-60840000D03*
D15*
X161180000Y-60840000D03*
%TD*%
D13*
%TO.C,REF\u002A\u002A*%
X160380000Y-86240000D03*
D14*
X159980000Y-86240000D03*
D15*
X161180000Y-86240000D03*
%TD*%
D13*
%TO.C,REF\u002A\u002A*%
X162920000Y-63380000D03*
D14*
X162520000Y-63380000D03*
D15*
X163720000Y-63380000D03*
%TD*%
D13*
%TO.C,REF\u002A\u002A*%
X162920000Y-60840000D03*
D14*
X162520000Y-60840000D03*
D15*
X163720000Y-60840000D03*
%TD*%
D13*
%TO.C,REF\u002A\u002A*%
X152760000Y-88780000D03*
D14*
X152360000Y-88780000D03*
D15*
X153560000Y-88780000D03*
%TD*%
D13*
%TO.C,REF\u002A\u002A*%
X155300000Y-60840000D03*
D14*
X154900000Y-60840000D03*
D15*
X156100000Y-60840000D03*
%TD*%
D13*
%TO.C,REF\u002A\u002A*%
X165460000Y-68460000D03*
D14*
X165060000Y-68460000D03*
D15*
X166260000Y-68460000D03*
%TD*%
D13*
%TO.C,REF\u002A\u002A*%
X150220000Y-58300000D03*
D14*
X149820000Y-58300000D03*
D15*
X151020000Y-58300000D03*
%TD*%
D13*
%TO.C,REF\u002A\u002A*%
X150220000Y-76080000D03*
D14*
X149820000Y-76080000D03*
D15*
X151020000Y-76080000D03*
%TD*%
D13*
%TO.C,REF\u002A\u002A*%
X165460000Y-71000000D03*
D14*
X165060000Y-71000000D03*
D15*
X166260000Y-71000000D03*
%TD*%
D13*
%TO.C,REF\u002A\u002A*%
X145140000Y-76080000D03*
D14*
X144740000Y-76080000D03*
D15*
X145940000Y-76080000D03*
%TD*%
D13*
%TO.C,REF\u002A\u002A*%
X157840000Y-78620000D03*
D14*
X157440000Y-78620000D03*
D15*
X158640000Y-78620000D03*
%TD*%
D13*
%TO.C,REF\u002A\u002A*%
X152760000Y-73540000D03*
D14*
X152360000Y-73540000D03*
D15*
X153560000Y-73540000D03*
%TD*%
D13*
%TO.C,REF\u002A\u002A*%
X165460000Y-78620000D03*
D14*
X165060000Y-78620000D03*
D15*
X166260000Y-78620000D03*
%TD*%
D13*
%TO.C,REF\u002A\u002A*%
X147680000Y-83700000D03*
D14*
X147280000Y-83700000D03*
D15*
X148480000Y-83700000D03*
%TD*%
D13*
%TO.C,REF\u002A\u002A*%
X160380000Y-58300000D03*
D14*
X159980000Y-58300000D03*
D15*
X161180000Y-58300000D03*
%TD*%
D13*
%TO.C,REF\u002A\u002A*%
X147680000Y-76080000D03*
D14*
X147280000Y-76080000D03*
D15*
X148480000Y-76080000D03*
%TD*%
D13*
%TO.C,REF\u002A\u002A*%
X160380000Y-65920000D03*
D14*
X159980000Y-65920000D03*
D15*
X161180000Y-65920000D03*
%TD*%
D13*
%TO.C,REF\u002A\u002A*%
X150220000Y-81160000D03*
D14*
X149820000Y-81160000D03*
D15*
X151020000Y-81160000D03*
%TD*%
D13*
%TO.C,REF\u002A\u002A*%
X152755000Y-55765000D03*
D14*
X152355000Y-55765000D03*
D15*
X153555000Y-55765000D03*
%TD*%
D13*
%TO.C,REF\u002A\u002A*%
X152760000Y-58300000D03*
D14*
X152360000Y-58300000D03*
D15*
X153560000Y-58300000D03*
%TD*%
D13*
%TO.C,REF\u002A\u002A*%
X160380000Y-76080000D03*
D14*
X159980000Y-76080000D03*
D15*
X161180000Y-76080000D03*
%TD*%
D13*
%TO.C,REF\u002A\u002A*%
X145140000Y-83700000D03*
D14*
X144740000Y-83700000D03*
D15*
X145940000Y-83700000D03*
%TD*%
D13*
%TO.C,REF\u002A\u002A*%
X147680000Y-58300000D03*
D14*
X147280000Y-58300000D03*
D15*
X148480000Y-58300000D03*
%TD*%
D13*
%TO.C,REF\u002A\u002A*%
X147680000Y-60840000D03*
D14*
X147280000Y-60840000D03*
D15*
X148480000Y-60840000D03*
%TD*%
D13*
%TO.C,REF\u002A\u002A*%
X165460000Y-76080000D03*
D14*
X165060000Y-76080000D03*
D15*
X166260000Y-76080000D03*
%TD*%
D13*
%TO.C,REF\u002A\u002A*%
X147680000Y-81160000D03*
D14*
X147280000Y-81160000D03*
D15*
X148480000Y-81160000D03*
%TD*%
D13*
%TO.C,REF\u002A\u002A*%
X162920000Y-76080000D03*
D14*
X162520000Y-76080000D03*
D15*
X163720000Y-76080000D03*
%TD*%
D13*
%TO.C,REF\u002A\u002A*%
X155300000Y-81160000D03*
D14*
X154900000Y-81160000D03*
D15*
X156100000Y-81160000D03*
%TD*%
D13*
%TO.C,REF\u002A\u002A*%
X145140000Y-73540000D03*
D14*
X144740000Y-73540000D03*
D15*
X145940000Y-73540000D03*
%TD*%
D13*
%TO.C,REF\u002A\u002A*%
X157835000Y-55765000D03*
D14*
X157435000Y-55765000D03*
D15*
X158635000Y-55765000D03*
%TD*%
D13*
%TO.C,REF\u002A\u002A*%
X165460000Y-60840000D03*
D14*
X165060000Y-60840000D03*
D15*
X166260000Y-60840000D03*
%TD*%
D13*
%TO.C,REF\u002A\u002A*%
X162920000Y-83700000D03*
D14*
X162520000Y-83700000D03*
D15*
X163720000Y-83700000D03*
%TD*%
D13*
%TO.C,REF\u002A\u002A*%
X145140000Y-58300000D03*
D14*
X144740000Y-58300000D03*
D15*
X145940000Y-58300000D03*
%TD*%
D13*
%TO.C,REF\u002A\u002A*%
X145140000Y-60840000D03*
D14*
X144740000Y-60840000D03*
D15*
X145940000Y-60840000D03*
%TD*%
D13*
%TO.C,REF\u002A\u002A*%
X160380000Y-88780000D03*
D14*
X159980000Y-88780000D03*
D15*
X161180000Y-88780000D03*
%TD*%
D13*
%TO.C,REF\u002A\u002A*%
X165460000Y-83700000D03*
D14*
X165060000Y-83700000D03*
D15*
X166260000Y-83700000D03*
%TD*%
D13*
%TO.C,REF\u002A\u002A*%
X160380000Y-73540000D03*
D14*
X159980000Y-73540000D03*
D15*
X161180000Y-73540000D03*
%TD*%
D13*
%TO.C,REF\u002A\u002A*%
X150220000Y-65920000D03*
D14*
X149820000Y-65920000D03*
D15*
X151020000Y-65920000D03*
%TD*%
D13*
%TO.C,REF\u002A\u002A*%
X147680000Y-78620000D03*
D14*
X147280000Y-78620000D03*
D15*
X148480000Y-78620000D03*
%TD*%
D16*
%TO.C,REF\u002A\u002A*%
X164725000Y-90725000D03*
%TD*%
D13*
%TO.C,REF\u002A\u002A*%
X150220000Y-86240000D03*
D14*
X149820000Y-86240000D03*
D15*
X151020000Y-86240000D03*
%TD*%
D13*
%TO.C,REF\u002A\u002A*%
X155300000Y-83700000D03*
D14*
X154900000Y-83700000D03*
D15*
X156100000Y-83700000D03*
%TD*%
D13*
%TO.C,REF\u002A\u002A*%
X147680000Y-63380000D03*
D14*
X147280000Y-63380000D03*
D15*
X148480000Y-63380000D03*
%TD*%
D13*
%TO.C,REF\u002A\u002A*%
X155300000Y-63380000D03*
D14*
X154900000Y-63380000D03*
D15*
X156100000Y-63380000D03*
%TD*%
D13*
%TO.C,REF\u002A\u002A*%
X150220000Y-71000000D03*
D14*
X149820000Y-71000000D03*
D15*
X151020000Y-71000000D03*
%TD*%
D13*
%TO.C,REF\u002A\u002A*%
X150220000Y-88780000D03*
D14*
X149820000Y-88780000D03*
D15*
X151020000Y-88780000D03*
%TD*%
D13*
%TO.C,REF\u002A\u002A*%
X145140000Y-68460000D03*
D14*
X144740000Y-68460000D03*
D15*
X145940000Y-68460000D03*
%TD*%
D13*
%TO.C,REF\u002A\u002A*%
X155300000Y-58300000D03*
D14*
X154900000Y-58300000D03*
D15*
X156100000Y-58300000D03*
%TD*%
D13*
%TO.C,REF\u002A\u002A*%
X157840000Y-83700000D03*
D14*
X157440000Y-83700000D03*
D15*
X158640000Y-83700000D03*
%TD*%
D16*
%TO.C,REF\u002A\u002A*%
X164725000Y-53775000D03*
%TD*%
D13*
%TO.C,REF\u002A\u002A*%
X145140000Y-65920000D03*
D14*
X144740000Y-65920000D03*
D15*
X145940000Y-65920000D03*
%TD*%
D13*
%TO.C,REF\u002A\u002A*%
X165460000Y-81160000D03*
D14*
X165060000Y-81160000D03*
D15*
X166260000Y-81160000D03*
%TD*%
D13*
%TO.C,REF\u002A\u002A*%
X152760000Y-83700000D03*
D14*
X152360000Y-83700000D03*
D15*
X153560000Y-83700000D03*
%TD*%
D13*
%TO.C,REF\u002A\u002A*%
X147680000Y-68460000D03*
D14*
X147280000Y-68460000D03*
D15*
X148480000Y-68460000D03*
%TD*%
D13*
%TO.C,REF\u002A\u002A*%
X152760000Y-78620000D03*
D14*
X152360000Y-78620000D03*
D15*
X153560000Y-78620000D03*
%TD*%
D13*
%TO.C,REF\u002A\u002A*%
X150215000Y-55765000D03*
D14*
X149815000Y-55765000D03*
D15*
X151015000Y-55765000D03*
%TD*%
D13*
%TO.C,REF\u002A\u002A*%
X150220000Y-78620000D03*
D14*
X149820000Y-78620000D03*
D15*
X151020000Y-78620000D03*
%TD*%
D13*
%TO.C,REF\u002A\u002A*%
X160380000Y-81160000D03*
D14*
X159980000Y-81160000D03*
D15*
X161180000Y-81160000D03*
%TD*%
D13*
%TO.C,REF\u002A\u002A*%
X160380000Y-63380000D03*
D14*
X159980000Y-63380000D03*
D15*
X161180000Y-63380000D03*
%TD*%
D13*
%TO.C,REF\u002A\u002A*%
X152760000Y-81160000D03*
D14*
X152360000Y-81160000D03*
D15*
X153560000Y-81160000D03*
%TD*%
D13*
%TO.C,REF\u002A\u002A*%
X160380000Y-78620000D03*
D14*
X159980000Y-78620000D03*
D15*
X161180000Y-78620000D03*
%TD*%
D13*
%TO.C,REF\u002A\u002A*%
X165460000Y-63380000D03*
D14*
X165060000Y-63380000D03*
D15*
X166260000Y-63380000D03*
%TD*%
D13*
%TO.C,REF\u002A\u002A*%
X157840000Y-68460000D03*
D14*
X157440000Y-68460000D03*
D15*
X158640000Y-68460000D03*
%TD*%
D13*
%TO.C,REF\u002A\u002A*%
X160380000Y-71000000D03*
D14*
X159980000Y-71000000D03*
D15*
X161180000Y-71000000D03*
%TD*%
D13*
%TO.C,REF\u002A\u002A*%
X152760000Y-68460000D03*
D14*
X152360000Y-68460000D03*
D15*
X153560000Y-68460000D03*
%TD*%
D13*
%TO.C,REF\u002A\u002A*%
X165460000Y-58300000D03*
D14*
X165060000Y-58300000D03*
D15*
X166260000Y-58300000D03*
%TD*%
D13*
%TO.C,REF\u002A\u002A*%
X157840000Y-76080000D03*
D14*
X157440000Y-76080000D03*
D15*
X158640000Y-76080000D03*
%TD*%
D13*
%TO.C,REF\u002A\u002A*%
X162920000Y-68460000D03*
D14*
X162520000Y-68460000D03*
D15*
X163720000Y-68460000D03*
%TD*%
D13*
%TO.C,REF\u002A\u002A*%
X147680000Y-71000000D03*
D14*
X147280000Y-71000000D03*
D15*
X148480000Y-71000000D03*
%TD*%
D13*
%TO.C,REF\u002A\u002A*%
X160380000Y-68460000D03*
D14*
X159980000Y-68460000D03*
D15*
X161180000Y-68460000D03*
%TD*%
D13*
%TO.C,REF\u002A\u002A*%
X152760000Y-86240000D03*
D14*
X152360000Y-86240000D03*
D15*
X153560000Y-86240000D03*
%TD*%
D13*
%TO.C,REF\u002A\u002A*%
X145140000Y-81160000D03*
D14*
X144740000Y-81160000D03*
D15*
X145940000Y-81160000D03*
%TD*%
D13*
%TO.C,REF\u002A\u002A*%
X155300000Y-86240000D03*
D14*
X154900000Y-86240000D03*
D15*
X156100000Y-86240000D03*
%TD*%
D13*
%TO.C,REF\u002A\u002A*%
X162920000Y-86240000D03*
D14*
X162520000Y-86240000D03*
D15*
X163720000Y-86240000D03*
%TD*%
D13*
%TO.C,REF\u002A\u002A*%
X150220000Y-63380000D03*
D14*
X149820000Y-63380000D03*
D15*
X151020000Y-63380000D03*
%TD*%
D13*
%TO.C,REF\u002A\u002A*%
X157840000Y-88780000D03*
D14*
X157440000Y-88780000D03*
D15*
X158640000Y-88780000D03*
%TD*%
D13*
%TO.C,REF\u002A\u002A*%
X155300000Y-68460000D03*
D14*
X154900000Y-68460000D03*
D15*
X156100000Y-68460000D03*
%TD*%
D13*
%TO.C,REF\u002A\u002A*%
X150220000Y-73540000D03*
D14*
X149820000Y-73540000D03*
D15*
X151020000Y-73540000D03*
%TD*%
D13*
%TO.C,REF\u002A\u002A*%
X155300000Y-78620000D03*
D14*
X154900000Y-78620000D03*
D15*
X156100000Y-78620000D03*
%TD*%
D13*
%TO.C,REF\u002A\u002A*%
X162920000Y-78620000D03*
D14*
X162520000Y-78620000D03*
D15*
X163720000Y-78620000D03*
%TD*%
D13*
%TO.C,REF\u002A\u002A*%
X162920000Y-71000000D03*
D14*
X162520000Y-71000000D03*
D15*
X163720000Y-71000000D03*
%TD*%
D13*
%TO.C,REF\u002A\u002A*%
X155300000Y-76080000D03*
D14*
X154900000Y-76080000D03*
D15*
X156100000Y-76080000D03*
%TD*%
D13*
%TO.C,REF\u002A\u002A*%
X152760000Y-65920000D03*
D14*
X152360000Y-65920000D03*
D15*
X153560000Y-65920000D03*
%TD*%
D13*
%TO.C,REF\u002A\u002A*%
X150220000Y-83700000D03*
D14*
X149820000Y-83700000D03*
D15*
X151020000Y-83700000D03*
%TD*%
D13*
%TO.C,REF\u002A\u002A*%
X152760000Y-71000000D03*
D14*
X152360000Y-71000000D03*
D15*
X153560000Y-71000000D03*
%TD*%
D13*
%TO.C,REF\u002A\u002A*%
X152760000Y-76080000D03*
D14*
X152360000Y-76080000D03*
D15*
X153560000Y-76080000D03*
%TD*%
D13*
%TO.C,REF\u002A\u002A*%
X152760000Y-60840000D03*
D14*
X152360000Y-60840000D03*
D15*
X153560000Y-60840000D03*
%TD*%
D13*
%TO.C,REF\u002A\u002A*%
X155300000Y-73540000D03*
D14*
X154900000Y-73540000D03*
D15*
X156100000Y-73540000D03*
%TD*%
D13*
%TO.C,REF\u002A\u002A*%
X157840000Y-71000000D03*
D14*
X157440000Y-71000000D03*
D15*
X158640000Y-71000000D03*
%TD*%
D13*
%TO.C,REF\u002A\u002A*%
X157840000Y-86240000D03*
D14*
X157440000Y-86240000D03*
D15*
X158640000Y-86240000D03*
%TD*%
D13*
%TO.C,REF\u002A\u002A*%
X160380000Y-83700000D03*
D14*
X159980000Y-83700000D03*
D15*
X161180000Y-83700000D03*
%TD*%
D13*
%TO.C,REF\u002A\u002A*%
X165460000Y-65920000D03*
D14*
X165060000Y-65920000D03*
D15*
X166260000Y-65920000D03*
%TD*%
D13*
%TO.C,REF\u002A\u002A*%
X147680000Y-86240000D03*
D14*
X147280000Y-86240000D03*
D15*
X148480000Y-86240000D03*
%TD*%
D13*
%TO.C,REF\u002A\u002A*%
X157840000Y-60840000D03*
D14*
X157440000Y-60840000D03*
D15*
X158640000Y-60840000D03*
%TD*%
D13*
%TO.C,REF\u002A\u002A*%
X165460000Y-73540000D03*
D14*
X165060000Y-73540000D03*
D15*
X166260000Y-73540000D03*
%TD*%
D13*
%TO.C,REF\u002A\u002A*%
X162920000Y-58300000D03*
D14*
X162520000Y-58300000D03*
D15*
X163720000Y-58300000D03*
%TD*%
D13*
%TO.C,REF\u002A\u002A*%
X157840000Y-73540000D03*
D14*
X157440000Y-73540000D03*
D15*
X158640000Y-73540000D03*
%TD*%
D13*
%TO.C,REF\u002A\u002A*%
X162920000Y-73540000D03*
D14*
X162520000Y-73540000D03*
D15*
X163720000Y-73540000D03*
%TD*%
D13*
%TO.C,REF\u002A\u002A*%
X147680000Y-65920000D03*
D14*
X147280000Y-65920000D03*
D15*
X148480000Y-65920000D03*
%TD*%
D13*
%TO.C,REF\u002A\u002A*%
X152760000Y-63380000D03*
D14*
X152360000Y-63380000D03*
D15*
X153560000Y-63380000D03*
%TD*%
D13*
%TO.C,REF\u002A\u002A*%
X145140000Y-63380000D03*
D14*
X144740000Y-63380000D03*
D15*
X145940000Y-63380000D03*
%TD*%
%LPD*%
M02*
