%TF.GenerationSoftware,KiCad,Pcbnew,9.0.1*%
%TF.CreationDate,2025-05-07T00:25:03-04:00*%
%TF.ProjectId,protoplus,70726f74-6f70-46c7-9573-2e6b69636164,rev?*%
%TF.SameCoordinates,Original*%
%TF.FileFunction,Soldermask,Top*%
%TF.FilePolarity,Negative*%
%FSLAX46Y46*%
G04 Gerber Fmt 4.6, Leading zero omitted, Abs format (unit mm)*
G04 Created by KiCad (PCBNEW 9.0.1) date 2025-05-07 00:25:03*
%MOMM*%
%LPD*%
G01*
G04 APERTURE LIST*
%ADD10R,0.800000X1.524000*%
%ADD11C,1.524000*%
%ADD12R,0.600000X1.524000*%
%ADD13C,2.200000*%
G04 APERTURE END LIST*
D10*
%TO.C,REF\u002A\u002A*%
X157840000Y-65920000D03*
D11*
X157440000Y-65920000D03*
D12*
X158640000Y-65920000D03*
%TD*%
D10*
%TO.C,REF\u002A\u002A*%
X145140000Y-71000000D03*
D11*
X144740000Y-71000000D03*
D12*
X145940000Y-71000000D03*
%TD*%
D10*
%TO.C,REF\u002A\u002A*%
X150220000Y-68460000D03*
D11*
X149820000Y-68460000D03*
D12*
X151020000Y-68460000D03*
%TD*%
D10*
%TO.C,REF\u002A\u002A*%
X150220000Y-60840000D03*
D11*
X149820000Y-60840000D03*
D12*
X151020000Y-60840000D03*
%TD*%
D10*
%TO.C,REF\u002A\u002A*%
X145140000Y-86240000D03*
D11*
X144740000Y-86240000D03*
D12*
X145940000Y-86240000D03*
%TD*%
D10*
%TO.C,REF\u002A\u002A*%
X157840000Y-63380000D03*
D11*
X157440000Y-63380000D03*
D12*
X158640000Y-63380000D03*
%TD*%
D13*
%TO.C,REF\u002A\u002A*%
X145775000Y-53775000D03*
%TD*%
D10*
%TO.C,REF\u002A\u002A*%
X162920000Y-65920000D03*
D11*
X162520000Y-65920000D03*
D12*
X163720000Y-65920000D03*
%TD*%
D10*
%TO.C,REF\u002A\u002A*%
X165460000Y-86240000D03*
D11*
X165060000Y-86240000D03*
D12*
X166260000Y-86240000D03*
%TD*%
D10*
%TO.C,REF\u002A\u002A*%
X157840000Y-58300000D03*
D11*
X157440000Y-58300000D03*
D12*
X158640000Y-58300000D03*
%TD*%
D10*
%TO.C,REF\u002A\u002A*%
X162920000Y-81160000D03*
D11*
X162520000Y-81160000D03*
D12*
X163720000Y-81160000D03*
%TD*%
D10*
%TO.C,REF\u002A\u002A*%
X155300000Y-71000000D03*
D11*
X154900000Y-71000000D03*
D12*
X156100000Y-71000000D03*
%TD*%
D10*
%TO.C,REF\u002A\u002A*%
X157840000Y-81160000D03*
D11*
X157440000Y-81160000D03*
D12*
X158640000Y-81160000D03*
%TD*%
D13*
%TO.C,REF\u002A\u002A*%
X145775000Y-90725000D03*
%TD*%
D10*
%TO.C,REF\u002A\u002A*%
X155295000Y-55765000D03*
D11*
X154895000Y-55765000D03*
D12*
X156095000Y-55765000D03*
%TD*%
D10*
%TO.C,REF\u002A\u002A*%
X160375000Y-55765000D03*
D11*
X159975000Y-55765000D03*
D12*
X161175000Y-55765000D03*
%TD*%
D10*
%TO.C,REF\u002A\u002A*%
X147680000Y-73540000D03*
D11*
X147280000Y-73540000D03*
D12*
X148480000Y-73540000D03*
%TD*%
D10*
%TO.C,REF\u002A\u002A*%
X155300000Y-65920000D03*
D11*
X154900000Y-65920000D03*
D12*
X156100000Y-65920000D03*
%TD*%
D10*
%TO.C,REF\u002A\u002A*%
X145140000Y-78620000D03*
D11*
X144740000Y-78620000D03*
D12*
X145940000Y-78620000D03*
%TD*%
D10*
%TO.C,REF\u002A\u002A*%
X155300000Y-88780000D03*
D11*
X154900000Y-88780000D03*
D12*
X156100000Y-88780000D03*
%TD*%
D10*
%TO.C,REF\u002A\u002A*%
X160380000Y-60840000D03*
D11*
X159980000Y-60840000D03*
D12*
X161180000Y-60840000D03*
%TD*%
D10*
%TO.C,REF\u002A\u002A*%
X160380000Y-86240000D03*
D11*
X159980000Y-86240000D03*
D12*
X161180000Y-86240000D03*
%TD*%
D10*
%TO.C,REF\u002A\u002A*%
X162920000Y-63380000D03*
D11*
X162520000Y-63380000D03*
D12*
X163720000Y-63380000D03*
%TD*%
D10*
%TO.C,REF\u002A\u002A*%
X162920000Y-60840000D03*
D11*
X162520000Y-60840000D03*
D12*
X163720000Y-60840000D03*
%TD*%
D10*
%TO.C,REF\u002A\u002A*%
X152760000Y-88780000D03*
D11*
X152360000Y-88780000D03*
D12*
X153560000Y-88780000D03*
%TD*%
D10*
%TO.C,REF\u002A\u002A*%
X155300000Y-60840000D03*
D11*
X154900000Y-60840000D03*
D12*
X156100000Y-60840000D03*
%TD*%
D10*
%TO.C,REF\u002A\u002A*%
X165460000Y-68460000D03*
D11*
X165060000Y-68460000D03*
D12*
X166260000Y-68460000D03*
%TD*%
D10*
%TO.C,REF\u002A\u002A*%
X150220000Y-58300000D03*
D11*
X149820000Y-58300000D03*
D12*
X151020000Y-58300000D03*
%TD*%
D10*
%TO.C,REF\u002A\u002A*%
X150220000Y-76080000D03*
D11*
X149820000Y-76080000D03*
D12*
X151020000Y-76080000D03*
%TD*%
D10*
%TO.C,REF\u002A\u002A*%
X165460000Y-71000000D03*
D11*
X165060000Y-71000000D03*
D12*
X166260000Y-71000000D03*
%TD*%
D10*
%TO.C,REF\u002A\u002A*%
X145140000Y-76080000D03*
D11*
X144740000Y-76080000D03*
D12*
X145940000Y-76080000D03*
%TD*%
D10*
%TO.C,REF\u002A\u002A*%
X157840000Y-78620000D03*
D11*
X157440000Y-78620000D03*
D12*
X158640000Y-78620000D03*
%TD*%
D10*
%TO.C,REF\u002A\u002A*%
X152760000Y-73540000D03*
D11*
X152360000Y-73540000D03*
D12*
X153560000Y-73540000D03*
%TD*%
D10*
%TO.C,REF\u002A\u002A*%
X165460000Y-78620000D03*
D11*
X165060000Y-78620000D03*
D12*
X166260000Y-78620000D03*
%TD*%
D10*
%TO.C,REF\u002A\u002A*%
X147680000Y-83700000D03*
D11*
X147280000Y-83700000D03*
D12*
X148480000Y-83700000D03*
%TD*%
D10*
%TO.C,REF\u002A\u002A*%
X160380000Y-58300000D03*
D11*
X159980000Y-58300000D03*
D12*
X161180000Y-58300000D03*
%TD*%
D10*
%TO.C,REF\u002A\u002A*%
X147680000Y-76080000D03*
D11*
X147280000Y-76080000D03*
D12*
X148480000Y-76080000D03*
%TD*%
D10*
%TO.C,REF\u002A\u002A*%
X160380000Y-65920000D03*
D11*
X159980000Y-65920000D03*
D12*
X161180000Y-65920000D03*
%TD*%
D10*
%TO.C,REF\u002A\u002A*%
X150220000Y-81160000D03*
D11*
X149820000Y-81160000D03*
D12*
X151020000Y-81160000D03*
%TD*%
D10*
%TO.C,REF\u002A\u002A*%
X152755000Y-55765000D03*
D11*
X152355000Y-55765000D03*
D12*
X153555000Y-55765000D03*
%TD*%
D10*
%TO.C,REF\u002A\u002A*%
X152760000Y-58300000D03*
D11*
X152360000Y-58300000D03*
D12*
X153560000Y-58300000D03*
%TD*%
D10*
%TO.C,REF\u002A\u002A*%
X160380000Y-76080000D03*
D11*
X159980000Y-76080000D03*
D12*
X161180000Y-76080000D03*
%TD*%
D10*
%TO.C,REF\u002A\u002A*%
X145140000Y-83700000D03*
D11*
X144740000Y-83700000D03*
D12*
X145940000Y-83700000D03*
%TD*%
D10*
%TO.C,REF\u002A\u002A*%
X147680000Y-58300000D03*
D11*
X147280000Y-58300000D03*
D12*
X148480000Y-58300000D03*
%TD*%
D10*
%TO.C,REF\u002A\u002A*%
X147680000Y-60840000D03*
D11*
X147280000Y-60840000D03*
D12*
X148480000Y-60840000D03*
%TD*%
D10*
%TO.C,REF\u002A\u002A*%
X165460000Y-76080000D03*
D11*
X165060000Y-76080000D03*
D12*
X166260000Y-76080000D03*
%TD*%
D10*
%TO.C,REF\u002A\u002A*%
X147680000Y-81160000D03*
D11*
X147280000Y-81160000D03*
D12*
X148480000Y-81160000D03*
%TD*%
D10*
%TO.C,REF\u002A\u002A*%
X162920000Y-76080000D03*
D11*
X162520000Y-76080000D03*
D12*
X163720000Y-76080000D03*
%TD*%
D10*
%TO.C,REF\u002A\u002A*%
X155300000Y-81160000D03*
D11*
X154900000Y-81160000D03*
D12*
X156100000Y-81160000D03*
%TD*%
D10*
%TO.C,REF\u002A\u002A*%
X145140000Y-73540000D03*
D11*
X144740000Y-73540000D03*
D12*
X145940000Y-73540000D03*
%TD*%
D10*
%TO.C,REF\u002A\u002A*%
X157835000Y-55765000D03*
D11*
X157435000Y-55765000D03*
D12*
X158635000Y-55765000D03*
%TD*%
D10*
%TO.C,REF\u002A\u002A*%
X165460000Y-60840000D03*
D11*
X165060000Y-60840000D03*
D12*
X166260000Y-60840000D03*
%TD*%
D10*
%TO.C,REF\u002A\u002A*%
X162920000Y-83700000D03*
D11*
X162520000Y-83700000D03*
D12*
X163720000Y-83700000D03*
%TD*%
D10*
%TO.C,REF\u002A\u002A*%
X145140000Y-58300000D03*
D11*
X144740000Y-58300000D03*
D12*
X145940000Y-58300000D03*
%TD*%
D10*
%TO.C,REF\u002A\u002A*%
X145140000Y-60840000D03*
D11*
X144740000Y-60840000D03*
D12*
X145940000Y-60840000D03*
%TD*%
D10*
%TO.C,REF\u002A\u002A*%
X160380000Y-88780000D03*
D11*
X159980000Y-88780000D03*
D12*
X161180000Y-88780000D03*
%TD*%
D10*
%TO.C,REF\u002A\u002A*%
X165460000Y-83700000D03*
D11*
X165060000Y-83700000D03*
D12*
X166260000Y-83700000D03*
%TD*%
D10*
%TO.C,REF\u002A\u002A*%
X160380000Y-73540000D03*
D11*
X159980000Y-73540000D03*
D12*
X161180000Y-73540000D03*
%TD*%
D10*
%TO.C,REF\u002A\u002A*%
X150220000Y-65920000D03*
D11*
X149820000Y-65920000D03*
D12*
X151020000Y-65920000D03*
%TD*%
D10*
%TO.C,REF\u002A\u002A*%
X147680000Y-78620000D03*
D11*
X147280000Y-78620000D03*
D12*
X148480000Y-78620000D03*
%TD*%
D13*
%TO.C,REF\u002A\u002A*%
X164725000Y-90725000D03*
%TD*%
D10*
%TO.C,REF\u002A\u002A*%
X150220000Y-86240000D03*
D11*
X149820000Y-86240000D03*
D12*
X151020000Y-86240000D03*
%TD*%
D10*
%TO.C,REF\u002A\u002A*%
X155300000Y-83700000D03*
D11*
X154900000Y-83700000D03*
D12*
X156100000Y-83700000D03*
%TD*%
D10*
%TO.C,REF\u002A\u002A*%
X147680000Y-63380000D03*
D11*
X147280000Y-63380000D03*
D12*
X148480000Y-63380000D03*
%TD*%
D10*
%TO.C,REF\u002A\u002A*%
X155300000Y-63380000D03*
D11*
X154900000Y-63380000D03*
D12*
X156100000Y-63380000D03*
%TD*%
D10*
%TO.C,REF\u002A\u002A*%
X150220000Y-71000000D03*
D11*
X149820000Y-71000000D03*
D12*
X151020000Y-71000000D03*
%TD*%
D10*
%TO.C,REF\u002A\u002A*%
X150220000Y-88780000D03*
D11*
X149820000Y-88780000D03*
D12*
X151020000Y-88780000D03*
%TD*%
D10*
%TO.C,REF\u002A\u002A*%
X145140000Y-68460000D03*
D11*
X144740000Y-68460000D03*
D12*
X145940000Y-68460000D03*
%TD*%
D10*
%TO.C,REF\u002A\u002A*%
X155300000Y-58300000D03*
D11*
X154900000Y-58300000D03*
D12*
X156100000Y-58300000D03*
%TD*%
D10*
%TO.C,REF\u002A\u002A*%
X157840000Y-83700000D03*
D11*
X157440000Y-83700000D03*
D12*
X158640000Y-83700000D03*
%TD*%
D13*
%TO.C,REF\u002A\u002A*%
X164725000Y-53775000D03*
%TD*%
D10*
%TO.C,REF\u002A\u002A*%
X145140000Y-65920000D03*
D11*
X144740000Y-65920000D03*
D12*
X145940000Y-65920000D03*
%TD*%
D10*
%TO.C,REF\u002A\u002A*%
X165460000Y-81160000D03*
D11*
X165060000Y-81160000D03*
D12*
X166260000Y-81160000D03*
%TD*%
D10*
%TO.C,REF\u002A\u002A*%
X152760000Y-83700000D03*
D11*
X152360000Y-83700000D03*
D12*
X153560000Y-83700000D03*
%TD*%
D10*
%TO.C,REF\u002A\u002A*%
X147680000Y-68460000D03*
D11*
X147280000Y-68460000D03*
D12*
X148480000Y-68460000D03*
%TD*%
D10*
%TO.C,REF\u002A\u002A*%
X152760000Y-78620000D03*
D11*
X152360000Y-78620000D03*
D12*
X153560000Y-78620000D03*
%TD*%
D10*
%TO.C,REF\u002A\u002A*%
X150215000Y-55765000D03*
D11*
X149815000Y-55765000D03*
D12*
X151015000Y-55765000D03*
%TD*%
D10*
%TO.C,REF\u002A\u002A*%
X150220000Y-78620000D03*
D11*
X149820000Y-78620000D03*
D12*
X151020000Y-78620000D03*
%TD*%
D10*
%TO.C,REF\u002A\u002A*%
X160380000Y-81160000D03*
D11*
X159980000Y-81160000D03*
D12*
X161180000Y-81160000D03*
%TD*%
D10*
%TO.C,REF\u002A\u002A*%
X160380000Y-63380000D03*
D11*
X159980000Y-63380000D03*
D12*
X161180000Y-63380000D03*
%TD*%
D10*
%TO.C,REF\u002A\u002A*%
X152760000Y-81160000D03*
D11*
X152360000Y-81160000D03*
D12*
X153560000Y-81160000D03*
%TD*%
D10*
%TO.C,REF\u002A\u002A*%
X160380000Y-78620000D03*
D11*
X159980000Y-78620000D03*
D12*
X161180000Y-78620000D03*
%TD*%
D10*
%TO.C,REF\u002A\u002A*%
X165460000Y-63380000D03*
D11*
X165060000Y-63380000D03*
D12*
X166260000Y-63380000D03*
%TD*%
D10*
%TO.C,REF\u002A\u002A*%
X157840000Y-68460000D03*
D11*
X157440000Y-68460000D03*
D12*
X158640000Y-68460000D03*
%TD*%
D10*
%TO.C,REF\u002A\u002A*%
X160380000Y-71000000D03*
D11*
X159980000Y-71000000D03*
D12*
X161180000Y-71000000D03*
%TD*%
D10*
%TO.C,REF\u002A\u002A*%
X152760000Y-68460000D03*
D11*
X152360000Y-68460000D03*
D12*
X153560000Y-68460000D03*
%TD*%
D10*
%TO.C,REF\u002A\u002A*%
X165460000Y-58300000D03*
D11*
X165060000Y-58300000D03*
D12*
X166260000Y-58300000D03*
%TD*%
D10*
%TO.C,REF\u002A\u002A*%
X157840000Y-76080000D03*
D11*
X157440000Y-76080000D03*
D12*
X158640000Y-76080000D03*
%TD*%
D10*
%TO.C,REF\u002A\u002A*%
X162920000Y-68460000D03*
D11*
X162520000Y-68460000D03*
D12*
X163720000Y-68460000D03*
%TD*%
D10*
%TO.C,REF\u002A\u002A*%
X147680000Y-71000000D03*
D11*
X147280000Y-71000000D03*
D12*
X148480000Y-71000000D03*
%TD*%
D10*
%TO.C,REF\u002A\u002A*%
X160380000Y-68460000D03*
D11*
X159980000Y-68460000D03*
D12*
X161180000Y-68460000D03*
%TD*%
D10*
%TO.C,REF\u002A\u002A*%
X152760000Y-86240000D03*
D11*
X152360000Y-86240000D03*
D12*
X153560000Y-86240000D03*
%TD*%
D10*
%TO.C,REF\u002A\u002A*%
X145140000Y-81160000D03*
D11*
X144740000Y-81160000D03*
D12*
X145940000Y-81160000D03*
%TD*%
D10*
%TO.C,REF\u002A\u002A*%
X155300000Y-86240000D03*
D11*
X154900000Y-86240000D03*
D12*
X156100000Y-86240000D03*
%TD*%
D10*
%TO.C,REF\u002A\u002A*%
X162920000Y-86240000D03*
D11*
X162520000Y-86240000D03*
D12*
X163720000Y-86240000D03*
%TD*%
D10*
%TO.C,REF\u002A\u002A*%
X150220000Y-63380000D03*
D11*
X149820000Y-63380000D03*
D12*
X151020000Y-63380000D03*
%TD*%
D10*
%TO.C,REF\u002A\u002A*%
X157840000Y-88780000D03*
D11*
X157440000Y-88780000D03*
D12*
X158640000Y-88780000D03*
%TD*%
D10*
%TO.C,REF\u002A\u002A*%
X155300000Y-68460000D03*
D11*
X154900000Y-68460000D03*
D12*
X156100000Y-68460000D03*
%TD*%
D10*
%TO.C,REF\u002A\u002A*%
X150220000Y-73540000D03*
D11*
X149820000Y-73540000D03*
D12*
X151020000Y-73540000D03*
%TD*%
D10*
%TO.C,REF\u002A\u002A*%
X155300000Y-78620000D03*
D11*
X154900000Y-78620000D03*
D12*
X156100000Y-78620000D03*
%TD*%
D10*
%TO.C,REF\u002A\u002A*%
X162920000Y-78620000D03*
D11*
X162520000Y-78620000D03*
D12*
X163720000Y-78620000D03*
%TD*%
D10*
%TO.C,REF\u002A\u002A*%
X162920000Y-71000000D03*
D11*
X162520000Y-71000000D03*
D12*
X163720000Y-71000000D03*
%TD*%
D10*
%TO.C,REF\u002A\u002A*%
X155300000Y-76080000D03*
D11*
X154900000Y-76080000D03*
D12*
X156100000Y-76080000D03*
%TD*%
D10*
%TO.C,REF\u002A\u002A*%
X152760000Y-65920000D03*
D11*
X152360000Y-65920000D03*
D12*
X153560000Y-65920000D03*
%TD*%
D10*
%TO.C,REF\u002A\u002A*%
X150220000Y-83700000D03*
D11*
X149820000Y-83700000D03*
D12*
X151020000Y-83700000D03*
%TD*%
D10*
%TO.C,REF\u002A\u002A*%
X152760000Y-71000000D03*
D11*
X152360000Y-71000000D03*
D12*
X153560000Y-71000000D03*
%TD*%
D10*
%TO.C,REF\u002A\u002A*%
X152760000Y-76080000D03*
D11*
X152360000Y-76080000D03*
D12*
X153560000Y-76080000D03*
%TD*%
D10*
%TO.C,REF\u002A\u002A*%
X152760000Y-60840000D03*
D11*
X152360000Y-60840000D03*
D12*
X153560000Y-60840000D03*
%TD*%
D10*
%TO.C,REF\u002A\u002A*%
X155300000Y-73540000D03*
D11*
X154900000Y-73540000D03*
D12*
X156100000Y-73540000D03*
%TD*%
D10*
%TO.C,REF\u002A\u002A*%
X157840000Y-71000000D03*
D11*
X157440000Y-71000000D03*
D12*
X158640000Y-71000000D03*
%TD*%
D10*
%TO.C,REF\u002A\u002A*%
X157840000Y-86240000D03*
D11*
X157440000Y-86240000D03*
D12*
X158640000Y-86240000D03*
%TD*%
D10*
%TO.C,REF\u002A\u002A*%
X160380000Y-83700000D03*
D11*
X159980000Y-83700000D03*
D12*
X161180000Y-83700000D03*
%TD*%
D10*
%TO.C,REF\u002A\u002A*%
X165460000Y-65920000D03*
D11*
X165060000Y-65920000D03*
D12*
X166260000Y-65920000D03*
%TD*%
D10*
%TO.C,REF\u002A\u002A*%
X147680000Y-86240000D03*
D11*
X147280000Y-86240000D03*
D12*
X148480000Y-86240000D03*
%TD*%
D10*
%TO.C,REF\u002A\u002A*%
X157840000Y-60840000D03*
D11*
X157440000Y-60840000D03*
D12*
X158640000Y-60840000D03*
%TD*%
D10*
%TO.C,REF\u002A\u002A*%
X165460000Y-73540000D03*
D11*
X165060000Y-73540000D03*
D12*
X166260000Y-73540000D03*
%TD*%
D10*
%TO.C,REF\u002A\u002A*%
X162920000Y-58300000D03*
D11*
X162520000Y-58300000D03*
D12*
X163720000Y-58300000D03*
%TD*%
D10*
%TO.C,REF\u002A\u002A*%
X157840000Y-73540000D03*
D11*
X157440000Y-73540000D03*
D12*
X158640000Y-73540000D03*
%TD*%
D10*
%TO.C,REF\u002A\u002A*%
X162920000Y-73540000D03*
D11*
X162520000Y-73540000D03*
D12*
X163720000Y-73540000D03*
%TD*%
D10*
%TO.C,REF\u002A\u002A*%
X147680000Y-65920000D03*
D11*
X147280000Y-65920000D03*
D12*
X148480000Y-65920000D03*
%TD*%
D10*
%TO.C,REF\u002A\u002A*%
X152760000Y-63380000D03*
D11*
X152360000Y-63380000D03*
D12*
X153560000Y-63380000D03*
%TD*%
D10*
%TO.C,REF\u002A\u002A*%
X145140000Y-63380000D03*
D11*
X144740000Y-63380000D03*
D12*
X145940000Y-63380000D03*
%TD*%
M02*
