%TF.GenerationSoftware,KiCad,Pcbnew,9.0.1*%
%TF.CreationDate,2025-05-07T00:25:03-04:00*%
%TF.ProjectId,protoplus,70726f74-6f70-46c7-9573-2e6b69636164,rev?*%
%TF.SameCoordinates,Original*%
%TF.FileFunction,Legend,Bot*%
%TF.FilePolarity,Positive*%
%FSLAX46Y46*%
G04 Gerber Fmt 4.6, Leading zero omitted, Abs format (unit mm)*
G04 Created by KiCad (PCBNEW 9.0.1) date 2025-05-07 00:25:03*
%MOMM*%
%LPD*%
G01*
G04 APERTURE LIST*
%ADD10C,0.500000*%
%ADD11C,0.160000*%
%ADD12R,1.524000X0.800000*%
%ADD13C,1.524000*%
%ADD14R,1.524000X0.600000*%
%ADD15C,2.200000*%
G04 APERTURE END LIST*
D10*
G36*
X155027608Y-92255377D02*
G01*
X155020685Y-92163397D01*
X154998299Y-92056472D01*
X154962256Y-91964842D01*
X154937665Y-91947784D01*
X154917882Y-91953279D01*
X154911287Y-91969766D01*
X154915684Y-91986710D01*
X154956646Y-92108615D01*
X154970638Y-92242096D01*
X154952581Y-92378689D01*
X154901537Y-92490650D01*
X154818597Y-92583426D01*
X154708763Y-92653937D01*
X154577032Y-92697065D01*
X154417062Y-92712264D01*
X154196568Y-92694012D01*
X153967709Y-92637448D01*
X153726465Y-92537936D01*
X153865136Y-92426901D01*
X153957864Y-92313721D01*
X154011576Y-92196575D01*
X154029448Y-92072500D01*
X154016310Y-91965976D01*
X153977440Y-91867515D01*
X153911917Y-91774930D01*
X153816591Y-91686749D01*
X153665385Y-91595002D01*
X153501030Y-91540968D01*
X153318519Y-91522649D01*
X153205515Y-91531765D01*
X153077268Y-91561117D01*
X152970778Y-91605643D01*
X152947941Y-91637595D01*
X152970289Y-91652250D01*
X153006010Y-91641259D01*
X153134139Y-91595793D01*
X153259168Y-91581267D01*
X153403989Y-91599235D01*
X153534421Y-91653006D01*
X153655391Y-91747199D01*
X153746897Y-91864162D01*
X153802011Y-91994977D01*
X153820987Y-92143636D01*
X153802497Y-92270422D01*
X153747632Y-92386188D01*
X153653925Y-92494277D01*
X153458313Y-92349515D01*
X153253953Y-92147563D01*
X153039818Y-91876368D01*
X152815684Y-91522038D01*
X152642249Y-91241012D01*
X152495552Y-91043184D01*
X152372016Y-90910668D01*
X152228149Y-90795672D01*
X152042115Y-90682725D01*
X151806716Y-90572086D01*
X151513936Y-90469918D01*
X151260580Y-90414099D01*
X151039733Y-90396842D01*
X150859244Y-90409483D01*
X150707390Y-90445189D01*
X150578847Y-90502172D01*
X150473390Y-90581520D01*
X150414238Y-90668288D01*
X150394565Y-90766259D01*
X150410773Y-90849035D01*
X150458496Y-90918758D01*
X150530018Y-90967468D01*
X150611453Y-90983025D01*
X150684724Y-90969563D01*
X150726498Y-90932524D01*
X150742428Y-90863956D01*
X150731357Y-90808912D01*
X150698831Y-90763206D01*
X150649822Y-90731745D01*
X150590937Y-90721379D01*
X150527729Y-90732540D01*
X150493630Y-90762490D01*
X150482676Y-90817092D01*
X150480295Y-90848996D01*
X150463114Y-90835648D01*
X150453367Y-90764885D01*
X150470818Y-90680745D01*
X150523578Y-90605818D01*
X150618414Y-90536823D01*
X150733240Y-90487744D01*
X150870635Y-90456737D01*
X151035703Y-90445690D01*
X151251731Y-90462591D01*
X151456479Y-90512942D01*
X151653479Y-90598015D01*
X151845368Y-90721379D01*
X151995364Y-90845909D01*
X152117210Y-90968523D01*
X152653934Y-91631795D01*
X152876023Y-91888506D01*
X153142297Y-92153864D01*
X153418944Y-92391762D01*
X153614358Y-92525266D01*
X153453609Y-92613781D01*
X153251529Y-92681345D01*
X152999102Y-92725495D01*
X152685441Y-92741573D01*
X152402183Y-92727038D01*
X152135244Y-92684234D01*
X151882058Y-92613651D01*
X151640418Y-92514824D01*
X151408550Y-92386346D01*
X151185179Y-92225915D01*
X150977581Y-92039519D01*
X150830526Y-91869482D01*
X150733894Y-91713275D01*
X150679683Y-91568096D01*
X150662378Y-91430905D01*
X150679541Y-91311090D01*
X150728196Y-91213359D01*
X150808007Y-91132623D01*
X150912488Y-91072996D01*
X151042075Y-91035542D01*
X151203681Y-91022103D01*
X151397540Y-91039942D01*
X151600544Y-91095660D01*
X151817089Y-91194886D01*
X152051081Y-91346031D01*
X152224680Y-91489641D01*
X152347666Y-91622318D01*
X152428632Y-91745871D01*
X152474240Y-91862446D01*
X152488887Y-91974498D01*
X152475731Y-92064373D01*
X152440306Y-92128572D01*
X152384348Y-92173903D01*
X152303720Y-92203069D01*
X152189384Y-92214009D01*
X152048391Y-92199208D01*
X151895900Y-92152060D01*
X151727431Y-92065994D01*
X151538904Y-91931603D01*
X151372783Y-91777741D01*
X151266981Y-91640628D01*
X151209289Y-91516792D01*
X151191224Y-91402359D01*
X151203139Y-91346983D01*
X151238669Y-91300082D01*
X151290901Y-91267735D01*
X151349311Y-91257340D01*
X151381438Y-91251381D01*
X151389977Y-91237037D01*
X151381147Y-91224180D01*
X151345097Y-91218414D01*
X151281984Y-91226661D01*
X151225971Y-91251319D01*
X151174738Y-91294740D01*
X151123565Y-91377839D01*
X151105678Y-91481127D01*
X151125103Y-91607287D01*
X151185344Y-91734945D01*
X151292799Y-91867418D01*
X151457938Y-92007165D01*
X151644636Y-92124029D01*
X151825683Y-92202683D01*
X152003568Y-92248012D01*
X152181324Y-92262857D01*
X152319100Y-92250014D01*
X152415731Y-92215913D01*
X152482305Y-92163273D01*
X152524154Y-92089271D01*
X152539628Y-91986252D01*
X152524170Y-91862485D01*
X152476400Y-91735495D01*
X152392382Y-91602881D01*
X152265948Y-91462579D01*
X152089000Y-91312905D01*
X151848199Y-91155181D01*
X151622344Y-91051062D01*
X151407634Y-90992216D01*
X151199651Y-90973255D01*
X151015193Y-90990379D01*
X150864232Y-91038785D01*
X150739314Y-91117511D01*
X150645155Y-91221718D01*
X150587134Y-91348137D01*
X150566573Y-91503109D01*
X150582952Y-91654581D01*
X150632249Y-91802120D01*
X150716268Y-91947921D01*
X150838795Y-92093741D01*
X151005416Y-92240822D01*
X151223281Y-92389863D01*
X151495001Y-92535675D01*
X151774022Y-92647284D01*
X152062159Y-92726538D01*
X152361634Y-92774300D01*
X152675000Y-92790422D01*
X152977684Y-92775122D01*
X153244046Y-92731401D01*
X153479195Y-92661579D01*
X153687447Y-92566634D01*
X153881609Y-92655158D01*
X154065919Y-92715221D01*
X154242362Y-92749853D01*
X154413032Y-92761113D01*
X154590823Y-92744629D01*
X154737049Y-92697942D01*
X154858714Y-92621894D01*
X154951174Y-92521400D01*
X155007701Y-92401133D01*
X155027608Y-92255377D01*
G37*
G36*
X154707955Y-91012334D02*
G01*
X154691425Y-90988905D01*
X154583391Y-90888533D01*
X154470640Y-90804942D01*
X154373130Y-90761638D01*
X154285903Y-90748551D01*
X154214355Y-90758435D01*
X154166504Y-90785328D01*
X154136058Y-90830616D01*
X154124337Y-90902272D01*
X154143937Y-91007907D01*
X154037218Y-90921680D01*
X153949398Y-90833121D01*
X153668396Y-90455307D01*
X153537971Y-90462329D01*
X153402050Y-90454849D01*
X153744234Y-90913721D01*
X153911371Y-91152559D01*
X153980146Y-91276209D01*
X153995377Y-91331223D01*
X153984333Y-91363904D01*
X153954161Y-91373813D01*
X153888163Y-91352185D01*
X153764118Y-91255109D01*
X153542917Y-91013250D01*
X153521220Y-90992679D01*
X153504448Y-90987452D01*
X153491259Y-91003022D01*
X153500785Y-91019356D01*
X153537238Y-91061640D01*
X153770140Y-91296319D01*
X153900997Y-91391477D01*
X153970464Y-91412892D01*
X154044059Y-91401916D01*
X154094445Y-91371445D01*
X154127379Y-91318680D01*
X154140274Y-91233374D01*
X154125180Y-91148565D01*
X154072187Y-91036246D01*
X153966251Y-90887465D01*
X154070785Y-90985517D01*
X154164454Y-91056755D01*
X154253733Y-91197611D01*
X154359176Y-91310005D01*
X154442892Y-91372149D01*
X154512040Y-91403614D01*
X154570935Y-91412892D01*
X154623750Y-91399665D01*
X154640361Y-91362212D01*
X154620576Y-91313486D01*
X154540289Y-91239470D01*
X154352765Y-91126212D01*
X154217760Y-91056908D01*
X154194862Y-91041032D01*
X154173016Y-90967930D01*
X154166835Y-90915247D01*
X154183104Y-90833561D01*
X154223577Y-90792068D01*
X154290117Y-90777861D01*
X154384870Y-90796058D01*
X154496682Y-90859330D01*
X154633949Y-90988978D01*
X154689820Y-91027446D01*
X154707955Y-91012334D01*
G37*
G36*
X154946691Y-90451407D02*
G01*
X155063948Y-90502111D01*
X155196886Y-90598960D01*
X155349825Y-90757863D01*
X155398747Y-90743847D01*
X155460650Y-90738782D01*
X155557147Y-90752868D01*
X155667319Y-90799765D01*
X155796973Y-90890518D01*
X155900112Y-90987218D01*
X155919522Y-91022103D01*
X155905417Y-91033858D01*
X155867864Y-91008060D01*
X155779955Y-90916493D01*
X155668745Y-90838463D01*
X155547989Y-90783456D01*
X155456620Y-90768091D01*
X155409696Y-90772538D01*
X155373089Y-90784883D01*
X155520037Y-90973893D01*
X155595795Y-91126795D01*
X155618187Y-91252302D01*
X155605415Y-91326102D01*
X155571815Y-91373488D01*
X155517965Y-91402195D01*
X155436104Y-91412892D01*
X155314096Y-91397600D01*
X155156865Y-91344524D01*
X154953053Y-91239327D01*
X154753884Y-91101337D01*
X154627759Y-90972135D01*
X154558674Y-90849043D01*
X154536680Y-90727943D01*
X154546807Y-90650799D01*
X154573923Y-90588267D01*
X154714550Y-90588267D01*
X154727639Y-90682470D01*
X154770874Y-90793977D01*
X154852124Y-90927249D01*
X154981446Y-91086980D01*
X155133619Y-91237770D01*
X155254902Y-91326470D01*
X155352075Y-91370742D01*
X155432074Y-91383583D01*
X155512191Y-91368601D01*
X155558211Y-91327099D01*
X155575872Y-91249707D01*
X155568833Y-91180791D01*
X155550043Y-91129876D01*
X155534556Y-91148578D01*
X155503881Y-91155216D01*
X155430438Y-91135823D01*
X155343597Y-91064541D01*
X155281158Y-90971949D01*
X155262264Y-90888228D01*
X155276079Y-90831104D01*
X155320150Y-90774808D01*
X155173944Y-90626120D01*
X155048989Y-90535992D01*
X154940761Y-90489173D01*
X154843876Y-90475000D01*
X154771068Y-90488011D01*
X154730039Y-90523435D01*
X154714550Y-90588267D01*
X154573923Y-90588267D01*
X154576266Y-90582863D01*
X154625340Y-90522016D01*
X154689973Y-90473387D01*
X154760526Y-90445354D01*
X154839663Y-90435921D01*
X154946691Y-90451407D01*
G37*
G36*
X156682109Y-91412892D02*
G01*
X156660310Y-91373813D01*
X156391399Y-91373813D01*
X155936374Y-90730386D01*
X155870225Y-90618153D01*
X155853027Y-90546441D01*
X155863402Y-90506250D01*
X155891686Y-90483571D01*
X155943519Y-90475000D01*
X156018539Y-90492559D01*
X156133414Y-90561828D01*
X156308594Y-90718200D01*
X156567803Y-91008365D01*
X156597112Y-91027446D01*
X156610640Y-91023541D01*
X156615247Y-91011571D01*
X156593632Y-90982261D01*
X156505521Y-90881816D01*
X156281009Y-90645637D01*
X156119128Y-90513782D01*
X156003953Y-90452412D01*
X155920987Y-90435921D01*
X155830033Y-90450795D01*
X155755757Y-90495150D01*
X155706554Y-90561020D01*
X155689628Y-90643374D01*
X155713112Y-90750213D01*
X155798988Y-90901203D01*
X156138058Y-91373813D01*
X155929047Y-91373813D01*
X155956525Y-91412892D01*
X156161505Y-91412892D01*
X156401840Y-91745826D01*
X156521275Y-91731324D01*
X156652433Y-91747963D01*
X156414846Y-91412892D01*
X156682109Y-91412892D01*
G37*
G36*
X156854716Y-90451407D02*
G01*
X156971973Y-90502111D01*
X157104911Y-90598960D01*
X157257850Y-90757863D01*
X157306772Y-90743847D01*
X157368676Y-90738782D01*
X157465172Y-90752868D01*
X157575344Y-90799765D01*
X157704998Y-90890518D01*
X157808137Y-90987218D01*
X157827547Y-91022103D01*
X157813442Y-91033858D01*
X157775889Y-91008060D01*
X157687980Y-90916493D01*
X157576770Y-90838463D01*
X157456014Y-90783456D01*
X157364646Y-90768091D01*
X157317721Y-90772538D01*
X157281115Y-90784883D01*
X157428062Y-90973893D01*
X157503820Y-91126795D01*
X157526212Y-91252302D01*
X157513440Y-91326102D01*
X157479840Y-91373488D01*
X157425990Y-91402195D01*
X157344129Y-91412892D01*
X157222121Y-91397600D01*
X157064890Y-91344524D01*
X156861078Y-91239327D01*
X156661909Y-91101337D01*
X156535784Y-90972135D01*
X156466699Y-90849043D01*
X156444705Y-90727943D01*
X156454832Y-90650799D01*
X156481948Y-90588267D01*
X156622575Y-90588267D01*
X156635664Y-90682470D01*
X156678899Y-90793977D01*
X156760149Y-90927249D01*
X156889471Y-91086980D01*
X157041645Y-91237770D01*
X157162927Y-91326470D01*
X157260100Y-91370742D01*
X157340099Y-91383583D01*
X157420216Y-91368601D01*
X157466236Y-91327099D01*
X157483897Y-91249707D01*
X157476859Y-91180791D01*
X157458068Y-91129876D01*
X157442581Y-91148578D01*
X157411907Y-91155216D01*
X157338463Y-91135823D01*
X157251622Y-91064541D01*
X157189183Y-90971949D01*
X157170289Y-90888228D01*
X157184104Y-90831104D01*
X157228175Y-90774808D01*
X157081969Y-90626120D01*
X156957014Y-90535992D01*
X156848786Y-90489173D01*
X156751901Y-90475000D01*
X156679093Y-90488011D01*
X156638064Y-90523435D01*
X156622575Y-90588267D01*
X156481948Y-90588267D01*
X156484291Y-90582863D01*
X156533365Y-90522016D01*
X156597998Y-90473387D01*
X156668551Y-90445354D01*
X156747688Y-90435921D01*
X156854716Y-90451407D01*
G37*
G36*
X160113477Y-91382667D02*
G01*
X160087162Y-91359714D01*
X159982868Y-91348015D01*
X159185110Y-91348015D01*
X158842376Y-90736645D01*
X158796732Y-90673744D01*
X158769469Y-90660624D01*
X158754448Y-90664440D01*
X158733937Y-90688245D01*
X158755914Y-90754658D01*
X159092236Y-91348015D01*
X158253079Y-91348015D01*
X158194792Y-91358960D01*
X158185851Y-91384499D01*
X158212539Y-91408806D01*
X158316460Y-91420983D01*
X159130521Y-91420983D01*
X159469225Y-92026857D01*
X159524337Y-92098549D01*
X159556420Y-92106236D01*
X159580258Y-92081944D01*
X159559717Y-92015714D01*
X159223578Y-91420983D01*
X160038189Y-91420983D01*
X160103170Y-91409306D01*
X160113477Y-91382667D01*
G37*
D11*
G36*
X150071481Y-53547085D02*
G01*
X150015427Y-53488495D01*
X149969654Y-53432632D01*
X149933041Y-53379241D01*
X149879329Y-53281400D01*
X149796066Y-53104028D01*
X149642239Y-52759353D01*
X149643888Y-52717441D01*
X149695545Y-52654768D01*
X149459332Y-52654768D01*
X149539749Y-52717538D01*
X149520102Y-53062995D01*
X149369527Y-52724621D01*
X149434831Y-52611000D01*
X149175354Y-52611000D01*
X149165874Y-52626631D01*
X149404423Y-52626631D01*
X149349056Y-52721153D01*
X149517217Y-53097482D01*
X149513691Y-53156052D01*
X149333394Y-52750560D01*
X149334768Y-52717392D01*
X149383220Y-52654768D01*
X149146502Y-52654768D01*
X149229530Y-52717587D01*
X149195687Y-53290288D01*
X149131939Y-53361314D01*
X149384593Y-53361314D01*
X149299872Y-53290239D01*
X149326204Y-52845424D01*
X149354094Y-52906191D01*
X149330829Y-53283547D01*
X149386608Y-53329025D01*
X149398744Y-53318229D01*
X149348461Y-53277147D01*
X149368565Y-52939506D01*
X149556922Y-53361314D01*
X149606290Y-53361314D01*
X149635736Y-52849820D01*
X149661290Y-52906191D01*
X149634454Y-53361314D01*
X149651398Y-53361314D01*
X149675716Y-52939506D01*
X149756499Y-53119025D01*
X149823907Y-53279151D01*
X149844701Y-53345193D01*
X149846731Y-53373050D01*
X149841796Y-53396939D01*
X149830105Y-53418127D01*
X149810629Y-53437371D01*
X149876519Y-53461305D01*
X149949802Y-53493400D01*
X150018822Y-53528862D01*
X150063100Y-53556903D01*
X150071481Y-53547085D01*
G37*
G36*
X150093600Y-53505661D02*
G01*
X150045432Y-53454759D01*
X150001514Y-53400042D01*
X149961709Y-53341334D01*
X149905338Y-53240340D01*
X149832886Y-53087127D01*
X149675532Y-52733707D01*
X149749126Y-52611000D01*
X149488641Y-52611000D01*
X149477284Y-52626631D01*
X149715604Y-52626631D01*
X149655566Y-52727992D01*
X149819651Y-53096163D01*
X149892396Y-53249177D01*
X149947466Y-53347782D01*
X149986040Y-53404807D01*
X150030632Y-53461217D01*
X150081647Y-53517092D01*
X150093600Y-53505661D01*
G37*
G36*
X150149699Y-52628683D02*
G01*
X150123497Y-52680916D01*
X150113475Y-52707866D01*
X150110584Y-52732719D01*
X150114025Y-52765508D01*
X150124753Y-52803258D01*
X150145933Y-52852212D01*
X150180840Y-52915082D01*
X150183359Y-52910637D01*
X150210396Y-52853654D01*
X150229658Y-52806931D01*
X150236528Y-52788466D01*
X150274728Y-52835807D01*
X150315635Y-52878001D01*
X150359351Y-52915326D01*
X150363473Y-52894272D01*
X150358985Y-52889387D01*
X150292287Y-52822712D01*
X150245824Y-52767022D01*
X150259792Y-52762821D01*
X150304836Y-52817434D01*
X150365534Y-52877615D01*
X150389302Y-52720811D01*
X150304809Y-52654768D01*
X150565981Y-52654768D01*
X150500997Y-52720909D01*
X150463078Y-52989185D01*
X150490573Y-53000429D01*
X150534382Y-53004914D01*
X150557417Y-53003595D01*
X150543796Y-53057417D01*
X150538412Y-53121223D01*
X150513408Y-53100071D01*
X150493853Y-53084684D01*
X150487625Y-53080043D01*
X150457720Y-53280567D01*
X150521742Y-53345438D01*
X150507042Y-53352863D01*
X150439631Y-53285012D01*
X150471825Y-53070030D01*
X150452225Y-53059381D01*
X150416871Y-53294782D01*
X150483640Y-53361314D01*
X150246099Y-53361314D01*
X150288185Y-53297468D01*
X150181756Y-53096017D01*
X150162109Y-53118591D01*
X150139395Y-53139736D01*
X150127076Y-53125570D01*
X150131885Y-53120637D01*
X150166415Y-53081802D01*
X150170536Y-53077210D01*
X150158217Y-53055619D01*
X150137060Y-53078920D01*
X150119016Y-53101976D01*
X150110773Y-53112577D01*
X150082401Y-53063134D01*
X150049794Y-53018152D01*
X150189129Y-53018152D01*
X150311037Y-53243198D01*
X150316166Y-53206122D01*
X150218398Y-53025724D01*
X150237673Y-53025724D01*
X150321249Y-53179939D01*
X150349780Y-52983519D01*
X150316692Y-52954393D01*
X150289284Y-52926806D01*
X150286765Y-52932960D01*
X150256540Y-52994705D01*
X150241016Y-53019715D01*
X150237673Y-53025724D01*
X150218398Y-53025724D01*
X150215645Y-53020644D01*
X150249760Y-52969723D01*
X150276461Y-52913958D01*
X150270279Y-52907510D01*
X150261395Y-52898131D01*
X150256769Y-52893491D01*
X150253976Y-52899011D01*
X150237856Y-52934084D01*
X150216244Y-52975457D01*
X150189129Y-53018152D01*
X150049794Y-53018152D01*
X150047209Y-53014586D01*
X150080685Y-53007975D01*
X150103786Y-52997948D01*
X150119154Y-52985326D01*
X150116040Y-52978585D01*
X150067336Y-52883580D01*
X150026328Y-52814693D01*
X149991980Y-52766778D01*
X149952652Y-52724555D01*
X149906193Y-52687237D01*
X149851799Y-52654768D01*
X150111643Y-52654768D01*
X150103080Y-52667713D01*
X150082664Y-52701472D01*
X150073999Y-52722667D01*
X150071385Y-52743975D01*
X150074457Y-52773079D01*
X150083376Y-52803890D01*
X150102438Y-52847427D01*
X150129870Y-52903505D01*
X150155286Y-52953086D01*
X150170628Y-52930518D01*
X150130259Y-52854212D01*
X150107238Y-52800254D01*
X150096622Y-52763309D01*
X150093081Y-52730906D01*
X150095615Y-52704984D01*
X150104618Y-52678383D01*
X150125748Y-52635863D01*
X150130786Y-52626631D01*
X149875522Y-52626631D01*
X149885047Y-52611000D01*
X150158950Y-52611000D01*
X150149699Y-52628683D01*
G37*
G36*
X150540335Y-52719394D02*
G01*
X150504477Y-52961683D01*
X150513499Y-52964272D01*
X150552609Y-52960658D01*
X150592313Y-52955577D01*
X150606693Y-52952939D01*
X150584288Y-53037706D01*
X150577430Y-53091963D01*
X150560943Y-53104614D01*
X150566182Y-53048182D01*
X150581322Y-52983714D01*
X150584162Y-52974091D01*
X150527421Y-52979904D01*
X150505579Y-52978188D01*
X150485426Y-52973163D01*
X150524398Y-52711969D01*
X150595611Y-52626631D01*
X150330134Y-52626631D01*
X150339018Y-52611000D01*
X150633346Y-52611000D01*
X150540335Y-52719394D01*
G37*
G36*
X151071335Y-52570455D02*
G01*
X151153400Y-52615551D01*
X151232489Y-52648222D01*
X151242839Y-52651642D01*
X151211960Y-52690214D01*
X151181621Y-52740536D01*
X151151980Y-52804782D01*
X151128065Y-52871465D01*
X151110121Y-52938586D01*
X151097988Y-53006380D01*
X151150707Y-53024451D01*
X151195854Y-53048145D01*
X151234412Y-53077259D01*
X151267195Y-53112845D01*
X151289241Y-53150346D01*
X151301869Y-53190441D01*
X151304820Y-53228670D01*
X151298497Y-53262036D01*
X151283150Y-53292109D01*
X151257539Y-53319890D01*
X151226841Y-53341001D01*
X151189758Y-53356854D01*
X151145038Y-53367038D01*
X151091164Y-53370692D01*
X151023844Y-53366074D01*
X150956126Y-53352083D01*
X150887500Y-53328305D01*
X150817490Y-53294049D01*
X150824130Y-53291167D01*
X150865621Y-53266303D01*
X150816708Y-53015173D01*
X150919431Y-53015173D01*
X150976400Y-53307336D01*
X151017627Y-53321788D01*
X151067671Y-53326924D01*
X151109513Y-53322146D01*
X151142114Y-53308937D01*
X151167597Y-53287943D01*
X151185549Y-53260081D01*
X151193401Y-53227915D01*
X151190907Y-53189367D01*
X151177559Y-53147705D01*
X151154970Y-53111717D01*
X151122122Y-53080434D01*
X151083224Y-53056651D01*
X151031545Y-53035880D01*
X150964173Y-53018983D01*
X150960647Y-53018299D01*
X151010335Y-53273337D01*
X151034649Y-53278256D01*
X151064053Y-53280030D01*
X151100866Y-53276694D01*
X151128213Y-53267769D01*
X151153680Y-53251068D01*
X151188434Y-53218090D01*
X151176346Y-53245416D01*
X151159048Y-53266368D01*
X151135944Y-53281879D01*
X151105620Y-53291954D01*
X151066022Y-53295661D01*
X151028416Y-53293316D01*
X150996917Y-53286771D01*
X150944481Y-53017664D01*
X150919431Y-53015173D01*
X150816708Y-53015173D01*
X150813597Y-52999199D01*
X150789646Y-52998662D01*
X150753788Y-52999248D01*
X150750857Y-52993484D01*
X150739134Y-52968815D01*
X150720999Y-52929736D01*
X150729746Y-52932960D01*
X150774318Y-52944125D01*
X150803980Y-52947175D01*
X150798943Y-52921432D01*
X150795645Y-52920602D01*
X150767710Y-52913421D01*
X150729242Y-52900281D01*
X150732310Y-52886261D01*
X150738172Y-52888508D01*
X150793585Y-52904335D01*
X150795691Y-52904628D01*
X150760200Y-52722667D01*
X150679416Y-52654768D01*
X150908028Y-52654768D01*
X150862324Y-52722130D01*
X150909768Y-52965542D01*
X150914485Y-52966422D01*
X150995772Y-52978756D01*
X151034607Y-52987475D01*
X151035431Y-52982688D01*
X151037354Y-52966715D01*
X151038957Y-52959632D01*
X150995692Y-52945264D01*
X150939993Y-52935501D01*
X150928086Y-52933644D01*
X150884580Y-52710406D01*
X150939352Y-52626631D01*
X150701215Y-52626631D01*
X150708222Y-52611000D01*
X150971088Y-52611000D01*
X150901479Y-52714949D01*
X150941229Y-52918745D01*
X150944344Y-52919136D01*
X151001469Y-52932018D01*
X151041247Y-52946540D01*
X151041842Y-52942974D01*
X151056163Y-52844370D01*
X151063199Y-52725747D01*
X151061443Y-52584035D01*
X151060435Y-52563568D01*
X151071335Y-52570455D01*
G37*
G36*
X151090431Y-52534796D02*
G01*
X151167791Y-52576854D01*
X151247021Y-52611080D01*
X151328385Y-52637671D01*
X151285150Y-52677108D01*
X151250383Y-52717930D01*
X151223193Y-52760281D01*
X151188822Y-52833926D01*
X151166292Y-52906729D01*
X151154774Y-52979415D01*
X151218084Y-53010809D01*
X151265768Y-53045668D01*
X151300581Y-53083693D01*
X151324521Y-53125159D01*
X151338689Y-53170902D01*
X151342740Y-53210058D01*
X151339224Y-53243659D01*
X151328866Y-53273031D01*
X151311532Y-53299178D01*
X151325088Y-53256131D01*
X151329847Y-53217624D01*
X151326919Y-53182528D01*
X151312350Y-53135994D01*
X151287608Y-53094009D01*
X151251500Y-53055692D01*
X151201854Y-53020788D01*
X151135677Y-52989674D01*
X151137005Y-52979073D01*
X151157295Y-52884582D01*
X151183967Y-52805804D01*
X151216272Y-52740530D01*
X151253828Y-52686893D01*
X151296649Y-52643435D01*
X151223421Y-52618592D01*
X151149241Y-52584968D01*
X151073807Y-52541976D01*
X151084295Y-52530937D01*
X151090431Y-52534796D01*
G37*
G36*
X152055297Y-53361314D02*
G01*
X151993356Y-53325074D01*
X151964714Y-53299764D01*
X151946077Y-53270456D01*
X151929504Y-53229978D01*
X151915621Y-53175494D01*
X151908706Y-53140030D01*
X151814138Y-52654768D01*
X151727127Y-52654768D01*
X151590061Y-53153023D01*
X151533137Y-52861006D01*
X151527824Y-52836338D01*
X151518436Y-52757399D01*
X151521754Y-52722733D01*
X151531682Y-52696733D01*
X151547700Y-52677238D01*
X151555073Y-52668641D01*
X151532425Y-52682513D01*
X151516397Y-52703508D01*
X151506433Y-52733484D01*
X151503720Y-52775780D01*
X151510972Y-52834775D01*
X151521505Y-52886457D01*
X151579894Y-53186143D01*
X151565789Y-53237092D01*
X151505476Y-52927538D01*
X151488170Y-52824113D01*
X151483026Y-52763361D01*
X151485006Y-52731167D01*
X151492078Y-52710910D01*
X151505266Y-52693112D01*
X151525847Y-52677317D01*
X151555989Y-52663707D01*
X151591801Y-52611000D01*
X151316386Y-52611000D01*
X151309380Y-52626631D01*
X151560019Y-52626631D01*
X151542067Y-52654768D01*
X151309288Y-52656331D01*
X151350922Y-52676434D01*
X151381052Y-52698457D01*
X151401978Y-52722179D01*
X151417504Y-52750812D01*
X151433343Y-52795387D01*
X151448965Y-52861153D01*
X151534190Y-53298690D01*
X151477541Y-53361314D01*
X151739858Y-53361314D01*
X151654999Y-53307140D01*
X151794767Y-52796917D01*
X151806353Y-52856415D01*
X151684399Y-53299911D01*
X151766831Y-53353058D01*
X151776082Y-53340211D01*
X151704641Y-53294098D01*
X151813405Y-52892612D01*
X151862223Y-53142863D01*
X151867856Y-53171781D01*
X151878302Y-53236739D01*
X151880705Y-53276015D01*
X151878343Y-53297810D01*
X151869728Y-53316240D01*
X151850409Y-53337120D01*
X151815558Y-53361314D01*
X152055297Y-53361314D01*
G37*
G36*
X152061938Y-53321600D02*
G01*
X152047054Y-53301572D01*
X152021248Y-53292635D01*
X152001957Y-53280577D01*
X151987886Y-53265619D01*
X151972200Y-53234277D01*
X151957020Y-53177106D01*
X151846699Y-52611000D01*
X151736744Y-52611000D01*
X151731615Y-52626631D01*
X151833235Y-52626631D01*
X151939618Y-53172318D01*
X151952203Y-53223664D01*
X151965561Y-53258251D01*
X151979139Y-53280323D01*
X151997477Y-53297342D01*
X152024222Y-53311319D01*
X152061938Y-53321600D01*
G37*
G36*
X152103886Y-53361314D02*
G01*
X152348664Y-53361314D01*
X152264354Y-53284670D01*
X152153346Y-52715096D01*
X152206926Y-52654768D01*
X151965492Y-52654768D01*
X152050672Y-52720469D01*
X152161909Y-53291118D01*
X152103886Y-53361314D01*
G37*
G36*
X152363089Y-53328292D02*
G01*
X152300624Y-53272653D01*
X152191768Y-52714070D01*
X152257393Y-52611000D01*
X151993382Y-52611000D01*
X151980742Y-52626631D01*
X152224741Y-52626631D01*
X152173541Y-52707866D01*
X152284916Y-53279248D01*
X152355121Y-53341921D01*
X152363089Y-53328292D01*
G37*
G36*
X153006379Y-53361314D02*
G01*
X152944438Y-53325074D01*
X152915795Y-53299764D01*
X152897159Y-53270456D01*
X152880586Y-53229978D01*
X152866703Y-53175494D01*
X152859788Y-53140030D01*
X152765220Y-52654768D01*
X152678208Y-52654768D01*
X152541142Y-53153023D01*
X152484218Y-52861006D01*
X152478906Y-52836338D01*
X152469518Y-52757399D01*
X152472835Y-52722733D01*
X152482764Y-52696733D01*
X152498781Y-52677238D01*
X152506154Y-52668641D01*
X152483506Y-52682513D01*
X152467479Y-52703508D01*
X152457515Y-52733484D01*
X152454802Y-52775780D01*
X152462053Y-52834775D01*
X152472586Y-52886457D01*
X152530976Y-53186143D01*
X152516871Y-53237092D01*
X152456558Y-52927538D01*
X152439251Y-52824113D01*
X152434108Y-52763361D01*
X152436087Y-52731167D01*
X152443159Y-52710910D01*
X152456348Y-52693112D01*
X152476929Y-52677317D01*
X152507070Y-52663707D01*
X152542882Y-52611000D01*
X152267468Y-52611000D01*
X152260461Y-52626631D01*
X152511100Y-52626631D01*
X152493148Y-52654768D01*
X152260370Y-52656331D01*
X152302004Y-52676434D01*
X152332134Y-52698457D01*
X152353060Y-52722179D01*
X152368585Y-52750812D01*
X152384425Y-52795387D01*
X152400046Y-52861153D01*
X152485272Y-53298690D01*
X152428623Y-53361314D01*
X152690939Y-53361314D01*
X152606080Y-53307140D01*
X152745848Y-52796917D01*
X152757434Y-52856415D01*
X152635481Y-53299911D01*
X152717913Y-53353058D01*
X152727164Y-53340211D01*
X152655723Y-53294098D01*
X152764487Y-52892612D01*
X152813305Y-53142863D01*
X152818938Y-53171781D01*
X152829384Y-53236739D01*
X152831787Y-53276015D01*
X152829425Y-53297810D01*
X152820810Y-53316240D01*
X152801491Y-53337120D01*
X152766639Y-53361314D01*
X153006379Y-53361314D01*
G37*
G36*
X153013019Y-53321600D02*
G01*
X152998136Y-53301572D01*
X152972330Y-53292635D01*
X152953039Y-53280577D01*
X152938968Y-53265619D01*
X152923282Y-53234277D01*
X152908102Y-53177106D01*
X152797780Y-52611000D01*
X152687825Y-52611000D01*
X152682696Y-52626631D01*
X152784316Y-52626631D01*
X152890700Y-53172318D01*
X152903285Y-53223664D01*
X152916643Y-53258251D01*
X152930221Y-53280323D01*
X152948558Y-53297342D01*
X152975304Y-53311319D01*
X153013019Y-53321600D01*
G37*
G36*
X153625718Y-53344656D02*
G01*
X153486454Y-53134070D01*
X153487149Y-53194193D01*
X153478793Y-53238018D01*
X153463418Y-53269674D01*
X153439775Y-53293895D01*
X153408453Y-53308952D01*
X153366927Y-53314419D01*
X153321870Y-53309491D01*
X153280576Y-53294961D01*
X153242090Y-53270553D01*
X153205773Y-53235138D01*
X153176080Y-53194133D01*
X153150065Y-53144333D01*
X153127970Y-53084383D01*
X153110289Y-53012681D01*
X153098713Y-52927225D01*
X153099331Y-52860915D01*
X153109403Y-52809762D01*
X153127230Y-52770410D01*
X153152330Y-52740343D01*
X153185505Y-52718168D01*
X153228713Y-52703809D01*
X153284816Y-52698536D01*
X153364317Y-52698536D01*
X153419180Y-52979904D01*
X153294708Y-52979904D01*
X153256440Y-52981201D01*
X153236181Y-52984154D01*
X153219825Y-52990942D01*
X153204216Y-53003351D01*
X153207467Y-53019813D01*
X153224907Y-53006723D01*
X153241264Y-52999883D01*
X153261133Y-52996862D01*
X153298600Y-52995535D01*
X153422202Y-52995535D01*
X153427103Y-53020546D01*
X153289579Y-53020546D01*
X153267001Y-53020546D01*
X153231092Y-53025507D01*
X153211435Y-53037653D01*
X153202258Y-53055949D01*
X153202842Y-53083561D01*
X153210443Y-53106053D01*
X153223770Y-53125082D01*
X153241003Y-53138387D01*
X153258163Y-53142472D01*
X153270521Y-53139606D01*
X153279962Y-53131090D01*
X153285250Y-53118855D01*
X153285045Y-53104175D01*
X153276273Y-53082983D01*
X153262193Y-53074035D01*
X153249599Y-53071202D01*
X153243600Y-53066708D01*
X153245427Y-53063088D01*
X153257293Y-53061188D01*
X153274329Y-53061188D01*
X153609186Y-53061188D01*
X153523273Y-52987036D01*
X153471204Y-52719883D01*
X153524693Y-52654768D01*
X153265399Y-52654768D01*
X153214794Y-52654768D01*
X153154331Y-52659537D01*
X153112258Y-52671865D01*
X153075883Y-52694674D01*
X153039306Y-52732584D01*
X153012159Y-52774156D01*
X152993497Y-52820850D01*
X152983222Y-52873764D01*
X152981937Y-52934321D01*
X152990900Y-53004182D01*
X153008537Y-53073575D01*
X153032357Y-53134790D01*
X153062124Y-53188792D01*
X153097866Y-53236354D01*
X153139873Y-53278027D01*
X153192467Y-53316777D01*
X153245411Y-53343472D01*
X153299323Y-53359199D01*
X153354975Y-53364440D01*
X153407328Y-53359728D01*
X153468777Y-53344363D01*
X153527380Y-53327607D01*
X153553544Y-53323798D01*
X153585442Y-53328514D01*
X153625718Y-53344656D01*
G37*
G36*
X153646143Y-53303623D02*
G01*
X153522907Y-53117022D01*
X153509397Y-53124447D01*
X153633366Y-53311830D01*
X153646143Y-53303623D01*
G37*
G36*
X153469006Y-53220239D02*
G01*
X153459572Y-53229813D01*
X153426023Y-53257286D01*
X153395052Y-53272209D01*
X153365599Y-53276903D01*
X153329317Y-53272170D01*
X153294109Y-53257777D01*
X153259125Y-53232646D01*
X153226579Y-53195471D01*
X153199270Y-53146526D01*
X153178433Y-53088562D01*
X153158603Y-53005794D01*
X153146694Y-52930485D01*
X153143081Y-52875375D01*
X153145460Y-52836094D01*
X153154881Y-52798910D01*
X153172271Y-52763704D01*
X153198537Y-52729848D01*
X153196705Y-52720665D01*
X153165832Y-52750409D01*
X153144290Y-52786260D01*
X153131447Y-52829499D01*
X153127281Y-52875850D01*
X153130143Y-52937151D01*
X153142300Y-53017078D01*
X153158240Y-53082562D01*
X153177878Y-53137272D01*
X153200765Y-53182666D01*
X153226656Y-53219995D01*
X153258562Y-53252580D01*
X153292170Y-53274877D01*
X153328035Y-53288074D01*
X153367019Y-53292535D01*
X153400843Y-53288229D01*
X153428504Y-53276011D01*
X153451425Y-53255950D01*
X153470288Y-53226833D01*
X153469006Y-53220239D01*
G37*
G36*
X153622833Y-53030511D02*
G01*
X153559772Y-52973749D01*
X153509947Y-52718027D01*
X153573786Y-52610951D01*
X153372743Y-52614126D01*
X153191714Y-52611000D01*
X153165702Y-52612074D01*
X153135744Y-52621809D01*
X153104336Y-52645389D01*
X153119036Y-52645389D01*
X153140164Y-52635715D01*
X153169127Y-52629122D01*
X153208108Y-52626631D01*
X153233800Y-52629757D01*
X153543332Y-52629757D01*
X153491628Y-52711383D01*
X153544156Y-52980881D01*
X153615963Y-53045996D01*
X153622833Y-53030511D01*
G37*
G36*
X153834225Y-53195619D02*
G01*
X153859253Y-53190165D01*
X153877502Y-53174370D01*
X153887524Y-53151404D01*
X153887073Y-53123079D01*
X153877106Y-53096169D01*
X153857901Y-53072814D01*
X153833070Y-53056925D01*
X153806793Y-53051809D01*
X153782234Y-53057224D01*
X153764066Y-53073009D01*
X153754031Y-53095938D01*
X153754403Y-53123763D01*
X153764500Y-53151177D01*
X153783667Y-53174614D01*
X153808422Y-53190530D01*
X153834225Y-53195619D01*
G37*
G36*
X153912444Y-53174712D02*
G01*
X153924443Y-53153490D01*
X153929540Y-53129742D01*
X153927602Y-53102221D01*
X153920245Y-53078551D01*
X153907638Y-53056703D01*
X153889134Y-53036275D01*
X153867311Y-53020150D01*
X153845756Y-53011017D01*
X153823921Y-53008041D01*
X153798062Y-53012036D01*
X153778128Y-53023290D01*
X153762646Y-53042088D01*
X153768829Y-53048292D01*
X153797392Y-53029276D01*
X153822318Y-53023672D01*
X153851814Y-53029428D01*
X153879929Y-53047364D01*
X153901684Y-53073732D01*
X153912993Y-53104175D01*
X153914164Y-53135466D01*
X153905162Y-53168655D01*
X153912444Y-53174712D01*
G37*
G36*
X153755594Y-52792325D02*
G01*
X153780622Y-52786871D01*
X153798871Y-52771076D01*
X153808928Y-52748107D01*
X153808488Y-52719785D01*
X153798495Y-52692871D01*
X153779316Y-52669520D01*
X153754485Y-52653631D01*
X153728208Y-52648515D01*
X153703649Y-52653930D01*
X153685481Y-52669715D01*
X153675423Y-52692647D01*
X153675818Y-52720469D01*
X153685906Y-52747887D01*
X153705036Y-52771321D01*
X153729791Y-52787236D01*
X153755594Y-52792325D01*
G37*
G36*
X153833721Y-52770344D02*
G01*
X153845757Y-52749594D01*
X153850893Y-52726037D01*
X153848925Y-52698341D01*
X153841578Y-52674835D01*
X153828988Y-52653132D01*
X153810503Y-52632835D01*
X153788689Y-52616798D01*
X153767133Y-52607710D01*
X153745290Y-52604747D01*
X153719368Y-52608676D01*
X153699373Y-52619726D01*
X153683832Y-52638110D01*
X153689969Y-52643630D01*
X153718681Y-52625697D01*
X153743733Y-52620378D01*
X153773222Y-52626156D01*
X153801344Y-52644168D01*
X153823107Y-52670620D01*
X153834362Y-52700881D01*
X153835480Y-52731933D01*
X153826394Y-52764970D01*
X153833721Y-52770344D01*
G37*
G36*
X154862426Y-53361314D02*
G01*
X154849787Y-53348222D01*
X154809158Y-53300677D01*
X154771316Y-53247272D01*
X154736260Y-53187559D01*
X154731543Y-53209834D01*
X154718706Y-53251495D01*
X154704456Y-53277629D01*
X154689273Y-53292681D01*
X154669615Y-53301662D01*
X154635497Y-53308492D01*
X154580555Y-53311293D01*
X154491024Y-53308655D01*
X154442802Y-53061188D01*
X154471928Y-53061188D01*
X154515159Y-53283009D01*
X154589622Y-53286282D01*
X154648883Y-53281862D01*
X154681259Y-53271579D01*
X154697369Y-53259340D01*
X154712555Y-53239116D01*
X154726780Y-53208418D01*
X154713728Y-53221411D01*
X154681545Y-53252582D01*
X154663948Y-53263958D01*
X154642963Y-53268486D01*
X154594614Y-53270651D01*
X154536866Y-53266450D01*
X154527203Y-53265473D01*
X154487361Y-53061188D01*
X154577166Y-53061188D01*
X154664040Y-53162598D01*
X154616550Y-52919039D01*
X154567778Y-53011167D01*
X154433047Y-53011167D01*
X154373925Y-52707915D01*
X154403051Y-52707915D01*
X154457914Y-52989283D01*
X154568419Y-52989283D01*
X154581654Y-52973651D01*
X154470279Y-52973651D01*
X154418484Y-52707915D01*
X154511915Y-52712654D01*
X154564618Y-52723742D01*
X154593313Y-52737410D01*
X154619634Y-52757917D01*
X154643936Y-52786122D01*
X154680206Y-52836191D01*
X154691151Y-52851921D01*
X154695648Y-52790810D01*
X154704569Y-52751000D01*
X154721216Y-52714216D01*
X154753570Y-52664147D01*
X154184011Y-52664147D01*
X154276106Y-52730434D01*
X154323459Y-52973407D01*
X154283397Y-52963720D01*
X154242904Y-52944391D01*
X154236905Y-52958752D01*
X154276188Y-52977772D01*
X154326527Y-52989136D01*
X154330832Y-53011167D01*
X154320573Y-53011167D01*
X154287896Y-53006996D01*
X154253364Y-52993878D01*
X154216114Y-52970281D01*
X154241228Y-53011803D01*
X154269853Y-53039416D01*
X154302498Y-53055631D01*
X154340586Y-53061188D01*
X154385512Y-53291802D01*
X154320573Y-53361314D01*
X154862426Y-53361314D01*
G37*
G36*
X154877493Y-53322967D02*
G01*
X154872364Y-53317350D01*
X154801437Y-53229860D01*
X154760485Y-53165919D01*
X154752517Y-53180525D01*
X154807358Y-53262173D01*
X154871402Y-53337427D01*
X154877493Y-53322967D01*
G37*
G36*
X154694311Y-53140567D02*
G01*
X154646454Y-52895152D01*
X154632670Y-52903993D01*
X154680481Y-53149408D01*
X154694311Y-53140567D01*
G37*
G36*
X154808433Y-52659799D02*
G01*
X154771980Y-52611000D01*
X154223166Y-52611000D01*
X154216114Y-52626631D01*
X154766485Y-52626631D01*
X154789153Y-52659750D01*
X154755308Y-52710515D01*
X154731819Y-52763284D01*
X154717941Y-52818752D01*
X154735847Y-52810741D01*
X154748738Y-52765089D01*
X154770202Y-52718215D01*
X154801381Y-52669569D01*
X154808433Y-52659799D01*
G37*
G36*
X155591491Y-53361314D02*
G01*
X155461478Y-53279932D01*
X155258512Y-53058306D01*
X155377076Y-52729213D01*
X155452731Y-52654768D01*
X155186292Y-52654768D01*
X155265473Y-52724426D01*
X155192246Y-52925584D01*
X155014330Y-52728090D01*
X155074597Y-52611000D01*
X154797076Y-52611000D01*
X154790665Y-52626631D01*
X155045563Y-52626631D01*
X154994730Y-52728578D01*
X155186750Y-52942535D01*
X155178690Y-52963540D01*
X154972748Y-52738592D01*
X155018543Y-52654768D01*
X154780544Y-52654768D01*
X154918388Y-52740057D01*
X155164036Y-53008480D01*
X155062461Y-53285696D01*
X154978747Y-53361314D01*
X155251688Y-53361314D01*
X155171363Y-53297029D01*
X155243124Y-53101635D01*
X155263778Y-53124349D01*
X155201725Y-53287113D01*
X155270602Y-53346659D01*
X155279715Y-53334984D01*
X155221784Y-53286136D01*
X155276189Y-53137734D01*
X155412110Y-53286771D01*
X155362788Y-53361314D01*
X155591491Y-53361314D01*
G37*
G36*
X155598040Y-53317643D02*
G01*
X155486986Y-53254237D01*
X155306826Y-53054349D01*
X155418155Y-52741523D01*
X155517211Y-52611000D01*
X155202046Y-52611000D01*
X155193803Y-52626631D01*
X155481490Y-52626631D01*
X155402630Y-52732828D01*
X155287409Y-53055131D01*
X155477964Y-53266059D01*
X155591262Y-53331272D01*
X155598040Y-53317643D01*
G37*
G36*
X155767392Y-52717001D02*
G01*
X155818591Y-52979904D01*
X155878995Y-52979904D01*
X155957135Y-52982564D01*
X156013259Y-52989458D01*
X156052148Y-52999150D01*
X156088670Y-53015028D01*
X156120315Y-53036011D01*
X156147678Y-53062214D01*
X156170248Y-53093110D01*
X156186761Y-53127195D01*
X156197458Y-53165040D01*
X156201506Y-53212965D01*
X156194557Y-53253027D01*
X156177447Y-53287432D01*
X156149189Y-53317594D01*
X156122597Y-53334253D01*
X156083675Y-53348007D01*
X156028565Y-53357628D01*
X155952726Y-53361314D01*
X155724573Y-53361314D01*
X155775223Y-53297273D01*
X155723145Y-53030316D01*
X155828437Y-53030316D01*
X155882659Y-53308655D01*
X155939583Y-53311293D01*
X155999867Y-53306385D01*
X156039580Y-53293968D01*
X156064651Y-53276366D01*
X156077715Y-53257986D01*
X156085696Y-53234359D01*
X156088107Y-53203825D01*
X156083518Y-53164210D01*
X156069836Y-53121397D01*
X156048088Y-53088170D01*
X156017802Y-53062800D01*
X155981578Y-53046020D01*
X155932920Y-53034703D01*
X155868508Y-53030462D01*
X155912884Y-53258145D01*
X155963351Y-53258145D01*
X156010431Y-53254934D01*
X156038913Y-53247154D01*
X156061276Y-53232445D01*
X156078389Y-53209736D01*
X156069470Y-53234369D01*
X156058007Y-53250976D01*
X156044088Y-53261418D01*
X156014613Y-53269945D01*
X155955245Y-53273777D01*
X155898917Y-53273777D01*
X155851472Y-53030316D01*
X155846068Y-53029925D01*
X155833063Y-53029925D01*
X155828437Y-53030316D01*
X155723145Y-53030316D01*
X155722421Y-53026603D01*
X155715643Y-53026799D01*
X155683049Y-53022827D01*
X155654038Y-53011199D01*
X155627718Y-52991654D01*
X155603581Y-52963051D01*
X155608115Y-52952256D01*
X155635332Y-52969194D01*
X155665754Y-52979480D01*
X155700210Y-52983030D01*
X155713445Y-52980344D01*
X155708682Y-52956066D01*
X155705705Y-52955675D01*
X155687799Y-52955675D01*
X155659982Y-52950957D01*
X155621854Y-52934084D01*
X155625197Y-52921286D01*
X155663105Y-52934926D01*
X155698744Y-52939262D01*
X155705293Y-52938578D01*
X155662932Y-52721300D01*
X155577615Y-52654768D01*
X155818362Y-52654768D01*
X155767392Y-52717001D01*
G37*
G36*
X155806639Y-52712946D02*
G01*
X155850556Y-52938383D01*
X155892047Y-52936136D01*
X155972769Y-52939327D01*
X156035213Y-52947875D01*
X156082642Y-52960432D01*
X156117957Y-52975947D01*
X156160914Y-53006415D01*
X156194480Y-53044606D01*
X156219611Y-53091438D01*
X156236338Y-53148627D01*
X156241471Y-53200365D01*
X156236109Y-53243833D01*
X156226346Y-53269848D01*
X156211951Y-53290205D01*
X156192603Y-53305822D01*
X156215558Y-53261257D01*
X156225576Y-53229227D01*
X156227964Y-53196786D01*
X156223240Y-53155856D01*
X156209438Y-53106515D01*
X156189525Y-53065618D01*
X156163653Y-53031841D01*
X156131420Y-53004328D01*
X156095119Y-52984106D01*
X156050653Y-52968619D01*
X155996451Y-52958537D01*
X155930699Y-52954893D01*
X155837093Y-52956603D01*
X155788320Y-52706303D01*
X155835444Y-52626631D01*
X155598727Y-52626631D01*
X155612557Y-52611000D01*
X155866951Y-52611000D01*
X155806639Y-52712946D01*
G37*
G36*
X156867171Y-53361314D02*
G01*
X156854532Y-53348222D01*
X156813903Y-53300677D01*
X156776061Y-53247272D01*
X156741005Y-53187559D01*
X156736288Y-53209834D01*
X156723451Y-53251495D01*
X156709201Y-53277629D01*
X156694019Y-53292681D01*
X156674360Y-53301662D01*
X156640242Y-53308492D01*
X156585300Y-53311293D01*
X156495770Y-53308655D01*
X156447547Y-53061188D01*
X156476673Y-53061188D01*
X156519904Y-53283009D01*
X156594368Y-53286282D01*
X156653628Y-53281862D01*
X156686004Y-53271579D01*
X156702114Y-53259340D01*
X156717301Y-53239116D01*
X156731525Y-53208418D01*
X156718473Y-53221411D01*
X156686290Y-53252582D01*
X156668694Y-53263958D01*
X156647708Y-53268486D01*
X156599359Y-53270651D01*
X156541611Y-53266450D01*
X156531948Y-53265473D01*
X156492106Y-53061188D01*
X156581911Y-53061188D01*
X156668785Y-53162598D01*
X156621295Y-52919039D01*
X156572523Y-53011167D01*
X156437793Y-53011167D01*
X156378671Y-52707915D01*
X156407796Y-52707915D01*
X156462660Y-52989283D01*
X156573164Y-52989283D01*
X156586399Y-52973651D01*
X156475024Y-52973651D01*
X156423230Y-52707915D01*
X156516660Y-52712654D01*
X156569363Y-52723742D01*
X156598058Y-52737410D01*
X156624380Y-52757917D01*
X156648681Y-52786122D01*
X156684951Y-52836191D01*
X156695896Y-52851921D01*
X156700394Y-52790810D01*
X156709314Y-52751000D01*
X156725962Y-52714216D01*
X156758316Y-52664147D01*
X156188756Y-52664147D01*
X156280851Y-52730434D01*
X156328204Y-52973407D01*
X156288142Y-52963720D01*
X156247650Y-52944391D01*
X156241650Y-52958752D01*
X156280934Y-52977772D01*
X156331272Y-52989136D01*
X156335577Y-53011167D01*
X156325319Y-53011167D01*
X156292642Y-53006996D01*
X156258109Y-52993878D01*
X156220859Y-52970281D01*
X156245973Y-53011803D01*
X156274599Y-53039416D01*
X156307243Y-53055631D01*
X156345331Y-53061188D01*
X156390257Y-53291802D01*
X156325319Y-53361314D01*
X156867171Y-53361314D01*
G37*
G36*
X156882238Y-53322967D02*
G01*
X156877109Y-53317350D01*
X156806182Y-53229860D01*
X156765231Y-53165919D01*
X156757262Y-53180525D01*
X156812104Y-53262173D01*
X156876147Y-53337427D01*
X156882238Y-53322967D01*
G37*
G36*
X156699056Y-53140567D02*
G01*
X156651200Y-52895152D01*
X156637415Y-52903993D01*
X156685226Y-53149408D01*
X156699056Y-53140567D01*
G37*
G36*
X156813179Y-52659799D02*
G01*
X156776725Y-52611000D01*
X156227912Y-52611000D01*
X156220859Y-52626631D01*
X156771230Y-52626631D01*
X156793899Y-52659750D01*
X156760053Y-52710515D01*
X156736565Y-52763284D01*
X156722687Y-52818752D01*
X156740593Y-52810741D01*
X156753483Y-52765089D01*
X156774947Y-52718215D01*
X156806126Y-52669569D01*
X156813179Y-52659799D01*
G37*
G36*
X157233582Y-52570455D02*
G01*
X157315647Y-52615551D01*
X157394736Y-52648222D01*
X157405086Y-52651642D01*
X157374207Y-52690214D01*
X157343868Y-52740536D01*
X157314228Y-52804782D01*
X157290312Y-52871465D01*
X157272369Y-52938586D01*
X157260235Y-53006380D01*
X157312954Y-53024451D01*
X157358101Y-53048145D01*
X157396659Y-53077259D01*
X157429442Y-53112845D01*
X157451488Y-53150346D01*
X157464116Y-53190441D01*
X157467067Y-53228670D01*
X157460744Y-53262036D01*
X157445397Y-53292109D01*
X157419786Y-53319890D01*
X157389088Y-53341001D01*
X157352005Y-53356854D01*
X157307285Y-53367038D01*
X157253411Y-53370692D01*
X157186091Y-53366074D01*
X157118373Y-53352083D01*
X157049747Y-53328305D01*
X156979737Y-53294049D01*
X156986377Y-53291167D01*
X157027868Y-53266303D01*
X156978955Y-53015173D01*
X157081678Y-53015173D01*
X157138647Y-53307336D01*
X157179874Y-53321788D01*
X157229918Y-53326924D01*
X157271760Y-53322146D01*
X157304361Y-53308937D01*
X157329844Y-53287943D01*
X157347796Y-53260081D01*
X157355648Y-53227915D01*
X157353154Y-53189367D01*
X157339806Y-53147705D01*
X157317217Y-53111717D01*
X157284369Y-53080434D01*
X157245471Y-53056651D01*
X157193792Y-53035880D01*
X157126420Y-53018983D01*
X157122894Y-53018299D01*
X157172582Y-53273337D01*
X157196896Y-53278256D01*
X157226300Y-53280030D01*
X157263113Y-53276694D01*
X157290460Y-53267769D01*
X157315927Y-53251068D01*
X157350681Y-53218090D01*
X157338593Y-53245416D01*
X157321295Y-53266368D01*
X157298191Y-53281879D01*
X157267867Y-53291954D01*
X157228269Y-53295661D01*
X157190663Y-53293316D01*
X157159164Y-53286771D01*
X157106728Y-53017664D01*
X157081678Y-53015173D01*
X156978955Y-53015173D01*
X156975844Y-52999199D01*
X156951893Y-52998662D01*
X156916035Y-52999248D01*
X156913104Y-52993484D01*
X156901381Y-52968815D01*
X156883246Y-52929736D01*
X156891993Y-52932960D01*
X156936565Y-52944125D01*
X156966227Y-52947175D01*
X156961190Y-52921432D01*
X156957892Y-52920602D01*
X156929957Y-52913421D01*
X156891489Y-52900281D01*
X156894557Y-52886261D01*
X156900419Y-52888508D01*
X156955832Y-52904335D01*
X156957938Y-52904628D01*
X156922447Y-52722667D01*
X156841663Y-52654768D01*
X157070275Y-52654768D01*
X157024571Y-52722130D01*
X157072015Y-52965542D01*
X157076732Y-52966422D01*
X157158019Y-52978756D01*
X157196854Y-52987475D01*
X157197678Y-52982688D01*
X157199601Y-52966715D01*
X157201204Y-52959632D01*
X157157939Y-52945264D01*
X157102240Y-52935501D01*
X157090333Y-52933644D01*
X157046827Y-52710406D01*
X157101599Y-52626631D01*
X156863462Y-52626631D01*
X156870469Y-52611000D01*
X157133335Y-52611000D01*
X157063726Y-52714949D01*
X157103476Y-52918745D01*
X157106591Y-52919136D01*
X157163716Y-52932018D01*
X157203494Y-52946540D01*
X157204089Y-52942974D01*
X157218410Y-52844370D01*
X157225446Y-52725747D01*
X157223690Y-52584035D01*
X157222682Y-52563568D01*
X157233582Y-52570455D01*
G37*
G36*
X157252678Y-52534796D02*
G01*
X157330038Y-52576854D01*
X157409268Y-52611080D01*
X157490632Y-52637671D01*
X157447397Y-52677108D01*
X157412630Y-52717930D01*
X157385440Y-52760281D01*
X157351069Y-52833926D01*
X157328539Y-52906729D01*
X157317021Y-52979415D01*
X157380331Y-53010809D01*
X157428015Y-53045668D01*
X157462828Y-53083693D01*
X157486768Y-53125159D01*
X157500936Y-53170902D01*
X157504987Y-53210058D01*
X157501471Y-53243659D01*
X157491113Y-53273031D01*
X157473779Y-53299178D01*
X157487335Y-53256131D01*
X157492094Y-53217624D01*
X157489166Y-53182528D01*
X157474597Y-53135994D01*
X157449855Y-53094009D01*
X157413747Y-53055692D01*
X157364101Y-53020788D01*
X157297924Y-52989674D01*
X157299252Y-52979073D01*
X157319542Y-52884582D01*
X157346214Y-52805804D01*
X157378519Y-52740530D01*
X157416075Y-52686893D01*
X157458896Y-52643435D01*
X157385668Y-52618592D01*
X157311488Y-52584968D01*
X157236055Y-52541976D01*
X157246542Y-52530937D01*
X157252678Y-52534796D01*
G37*
G36*
X157635987Y-53361314D02*
G01*
X157880764Y-53361314D01*
X157796454Y-53284670D01*
X157685446Y-52715096D01*
X157739027Y-52654768D01*
X157497593Y-52654768D01*
X157582773Y-52720469D01*
X157694010Y-53291118D01*
X157635987Y-53361314D01*
G37*
G36*
X157895190Y-53328292D02*
G01*
X157832725Y-53272653D01*
X157723869Y-52714070D01*
X157789494Y-52611000D01*
X157525482Y-52611000D01*
X157512843Y-52626631D01*
X157756841Y-52626631D01*
X157705642Y-52707866D01*
X157817017Y-53279248D01*
X157887221Y-53341921D01*
X157895190Y-53328292D01*
G37*
G36*
X158016639Y-52677189D02*
G01*
X158000289Y-52706069D01*
X157994108Y-52729604D01*
X157994730Y-52757300D01*
X158003038Y-52811034D01*
X158057993Y-53100511D01*
X158108093Y-52657894D01*
X158145279Y-52657894D01*
X158440156Y-53220581D01*
X158422479Y-53137587D01*
X158155858Y-52626631D01*
X158111436Y-52626631D01*
X158113405Y-52611000D01*
X158163689Y-52611000D01*
X158414832Y-53090692D01*
X158341788Y-52723693D01*
X158256104Y-52654768D01*
X158494104Y-52654768D01*
X158443958Y-52723205D01*
X158553088Y-53283058D01*
X158639138Y-53361314D01*
X158378241Y-53361314D01*
X158426601Y-53288138D01*
X158224093Y-52903749D01*
X158179580Y-53278711D01*
X158252395Y-53327266D01*
X158241587Y-53338843D01*
X158163826Y-53284670D01*
X158213148Y-52878934D01*
X158188327Y-52835654D01*
X158136212Y-53287552D01*
X158225559Y-53361314D01*
X157959029Y-53361314D01*
X158013571Y-53291655D01*
X157925644Y-52840685D01*
X157913642Y-52791343D01*
X157900513Y-52756084D01*
X157890036Y-52737582D01*
X157956200Y-52737582D01*
X157958024Y-52776346D01*
X157967638Y-52837803D01*
X158042697Y-53230448D01*
X158051856Y-53143693D01*
X157988979Y-52821000D01*
X157981102Y-52780553D01*
X157977713Y-52745241D01*
X157981726Y-52716430D01*
X157992254Y-52692451D01*
X158009541Y-52672158D01*
X158011236Y-52667322D01*
X157984901Y-52679813D01*
X157968316Y-52695551D01*
X157959166Y-52714705D01*
X157956200Y-52737582D01*
X157890036Y-52737582D01*
X157886763Y-52731802D01*
X157868652Y-52711132D01*
X157840828Y-52688561D01*
X157800530Y-52663854D01*
X157783128Y-52654768D01*
X158012014Y-52654768D01*
X158023234Y-52626631D01*
X157776854Y-52626631D01*
X157785097Y-52611000D01*
X158050528Y-52611000D01*
X158016639Y-52677189D01*
G37*
G36*
X158483342Y-52719590D02*
G01*
X158591053Y-53271969D01*
X158657319Y-53316861D01*
X158646465Y-53328438D01*
X158577177Y-53283205D01*
X158465710Y-52711286D01*
X158517368Y-52626631D01*
X158275338Y-52626631D01*
X158281109Y-52611000D01*
X158550936Y-52611000D01*
X158483342Y-52719590D01*
G37*
G36*
X159274917Y-53361314D02*
G01*
X159262278Y-53348222D01*
X159221649Y-53300677D01*
X159183807Y-53247272D01*
X159148751Y-53187559D01*
X159144034Y-53209834D01*
X159131197Y-53251495D01*
X159116947Y-53277629D01*
X159101765Y-53292681D01*
X159082106Y-53301662D01*
X159047988Y-53308492D01*
X158993046Y-53311293D01*
X158903516Y-53308655D01*
X158855293Y-53061188D01*
X158884419Y-53061188D01*
X158927650Y-53283009D01*
X159002113Y-53286282D01*
X159061374Y-53281862D01*
X159093750Y-53271579D01*
X159109860Y-53259340D01*
X159125047Y-53239116D01*
X159139271Y-53208418D01*
X159126219Y-53221411D01*
X159094036Y-53252582D01*
X159076440Y-53263958D01*
X159055454Y-53268486D01*
X159007105Y-53270651D01*
X158949357Y-53266450D01*
X158939694Y-53265473D01*
X158899852Y-53061188D01*
X158989657Y-53061188D01*
X159076531Y-53162598D01*
X159029041Y-52919039D01*
X158980269Y-53011167D01*
X158845539Y-53011167D01*
X158786417Y-52707915D01*
X158815542Y-52707915D01*
X158870406Y-52989283D01*
X158980910Y-52989283D01*
X158994145Y-52973651D01*
X158882770Y-52973651D01*
X158830976Y-52707915D01*
X158924406Y-52712654D01*
X158977109Y-52723742D01*
X159005804Y-52737410D01*
X159032126Y-52757917D01*
X159056427Y-52786122D01*
X159092697Y-52836191D01*
X159103642Y-52851921D01*
X159108140Y-52790810D01*
X159117060Y-52751000D01*
X159133708Y-52714216D01*
X159166062Y-52664147D01*
X158596502Y-52664147D01*
X158688597Y-52730434D01*
X158735950Y-52973407D01*
X158695888Y-52963720D01*
X158655396Y-52944391D01*
X158649396Y-52958752D01*
X158688680Y-52977772D01*
X158739018Y-52989136D01*
X158743323Y-53011167D01*
X158733065Y-53011167D01*
X158700388Y-53006996D01*
X158665855Y-52993878D01*
X158628605Y-52970281D01*
X158653719Y-53011803D01*
X158682345Y-53039416D01*
X158714989Y-53055631D01*
X158753077Y-53061188D01*
X158798003Y-53291802D01*
X158733065Y-53361314D01*
X159274917Y-53361314D01*
G37*
G36*
X159289984Y-53322967D02*
G01*
X159284855Y-53317350D01*
X159213928Y-53229860D01*
X159172977Y-53165919D01*
X159165008Y-53180525D01*
X159219850Y-53262173D01*
X159283893Y-53337427D01*
X159289984Y-53322967D01*
G37*
G36*
X159106802Y-53140567D02*
G01*
X159058946Y-52895152D01*
X159045161Y-52903993D01*
X159092972Y-53149408D01*
X159106802Y-53140567D01*
G37*
G36*
X159220925Y-52659799D02*
G01*
X159184471Y-52611000D01*
X158635658Y-52611000D01*
X158628605Y-52626631D01*
X159178976Y-52626631D01*
X159201645Y-52659750D01*
X159167799Y-52710515D01*
X159144311Y-52763284D01*
X159130433Y-52818752D01*
X159148339Y-52810741D01*
X159161229Y-52765089D01*
X159182693Y-52718215D01*
X159213872Y-52669569D01*
X159220925Y-52659799D01*
G37*
G36*
X159958507Y-53361314D02*
G01*
X159896566Y-53325074D01*
X159867924Y-53299764D01*
X159849287Y-53270456D01*
X159832714Y-53229978D01*
X159818831Y-53175494D01*
X159811916Y-53140030D01*
X159717348Y-52654768D01*
X159630337Y-52654768D01*
X159493271Y-53153023D01*
X159436347Y-52861006D01*
X159431034Y-52836338D01*
X159421646Y-52757399D01*
X159424964Y-52722733D01*
X159434892Y-52696733D01*
X159450910Y-52677238D01*
X159458283Y-52668641D01*
X159435635Y-52682513D01*
X159419607Y-52703508D01*
X159409643Y-52733484D01*
X159406930Y-52775780D01*
X159414182Y-52834775D01*
X159424715Y-52886457D01*
X159483104Y-53186143D01*
X159468999Y-53237092D01*
X159408686Y-52927538D01*
X159391380Y-52824113D01*
X159386236Y-52763361D01*
X159388216Y-52731167D01*
X159395288Y-52710910D01*
X159408476Y-52693112D01*
X159429057Y-52677317D01*
X159459199Y-52663707D01*
X159495011Y-52611000D01*
X159219596Y-52611000D01*
X159212590Y-52626631D01*
X159463229Y-52626631D01*
X159445277Y-52654768D01*
X159212498Y-52656331D01*
X159254132Y-52676434D01*
X159284262Y-52698457D01*
X159305188Y-52722179D01*
X159320714Y-52750812D01*
X159336553Y-52795387D01*
X159352175Y-52861153D01*
X159437400Y-53298690D01*
X159380751Y-53361314D01*
X159643068Y-53361314D01*
X159558209Y-53307140D01*
X159697977Y-52796917D01*
X159709563Y-52856415D01*
X159587609Y-53299911D01*
X159670041Y-53353058D01*
X159679292Y-53340211D01*
X159607851Y-53294098D01*
X159716615Y-52892612D01*
X159765433Y-53142863D01*
X159771066Y-53171781D01*
X159781512Y-53236739D01*
X159783915Y-53276015D01*
X159781553Y-53297810D01*
X159772938Y-53316240D01*
X159753619Y-53337120D01*
X159718768Y-53361314D01*
X159958507Y-53361314D01*
G37*
G36*
X159965148Y-53321600D02*
G01*
X159950264Y-53301572D01*
X159924458Y-53292635D01*
X159905168Y-53280577D01*
X159891096Y-53265619D01*
X159875410Y-53234277D01*
X159860230Y-53177106D01*
X159749909Y-52611000D01*
X159639954Y-52611000D01*
X159634825Y-52626631D01*
X159736445Y-52626631D01*
X159842828Y-53172318D01*
X159855413Y-53223664D01*
X159868771Y-53258251D01*
X159882349Y-53280323D01*
X159900687Y-53297342D01*
X159927433Y-53311319D01*
X159965148Y-53321600D01*
G37*
G36*
X160571984Y-53361314D02*
G01*
X160561818Y-53346219D01*
X160514969Y-53280518D01*
X160491377Y-53242897D01*
X160465372Y-53193030D01*
X160462899Y-53188683D01*
X160456854Y-53194251D01*
X160456717Y-53202263D01*
X160452484Y-53244258D01*
X160444208Y-53272234D01*
X160433132Y-53290092D01*
X160417103Y-53302581D01*
X160392827Y-53311113D01*
X160357158Y-53314419D01*
X160311499Y-53311293D01*
X160306553Y-53311293D01*
X160190691Y-52716708D01*
X160239738Y-52654768D01*
X160003021Y-52654768D01*
X160088887Y-52721593D01*
X160195041Y-53266108D01*
X160161519Y-53267524D01*
X160128036Y-53264609D01*
X160103043Y-53256802D01*
X160084583Y-53245005D01*
X160069854Y-53228093D01*
X160055986Y-53202152D01*
X160043321Y-53164356D01*
X160027201Y-53164356D01*
X160042526Y-53208044D01*
X160058975Y-53237951D01*
X160076202Y-53257364D01*
X160097640Y-53270927D01*
X160126215Y-53279846D01*
X160163992Y-53283156D01*
X160194171Y-53283693D01*
X160198476Y-53283693D01*
X160203239Y-53308166D01*
X160157031Y-53311293D01*
X160115018Y-53307583D01*
X160083084Y-53297561D01*
X160058983Y-53282277D01*
X160039721Y-53260474D01*
X160022678Y-53228311D01*
X160008333Y-53182772D01*
X159999861Y-53182772D01*
X159988558Y-53261692D01*
X159966293Y-53353791D01*
X159963637Y-53361314D01*
X160571984Y-53361314D01*
G37*
G36*
X160594424Y-53317496D02*
G01*
X160550225Y-53259660D01*
X160490148Y-53158055D01*
X160486026Y-53150825D01*
X160475035Y-53163477D01*
X160478012Y-53169339D01*
X160519989Y-53244123D01*
X160553647Y-53294532D01*
X160580411Y-53326338D01*
X160584716Y-53330832D01*
X160594424Y-53317496D01*
G37*
G36*
X160446184Y-53235919D02*
G01*
X160420755Y-53253324D01*
X160391994Y-53263873D01*
X160358989Y-53267524D01*
X160335588Y-53264593D01*
X160230304Y-52714021D01*
X160291304Y-52611000D01*
X160031872Y-52611000D01*
X160020515Y-52626631D01*
X160260804Y-52626631D01*
X160211253Y-52709087D01*
X160323177Y-53283254D01*
X160351387Y-53283156D01*
X160396540Y-53280518D01*
X160419439Y-53274607D01*
X160435097Y-53261542D01*
X160446184Y-53235919D01*
G37*
G36*
X160751549Y-52628683D02*
G01*
X160725346Y-52680916D01*
X160715324Y-52707866D01*
X160712433Y-52732719D01*
X160715874Y-52765508D01*
X160726602Y-52803258D01*
X160747782Y-52852212D01*
X160782690Y-52915082D01*
X160785208Y-52910637D01*
X160812245Y-52853654D01*
X160831508Y-52806931D01*
X160838377Y-52788466D01*
X160876577Y-52835807D01*
X160917485Y-52878001D01*
X160961201Y-52915326D01*
X160965322Y-52894272D01*
X160960834Y-52889387D01*
X160894136Y-52822712D01*
X160847674Y-52767022D01*
X160861641Y-52762821D01*
X160906685Y-52817434D01*
X160967383Y-52877615D01*
X160991151Y-52720811D01*
X160906658Y-52654768D01*
X161167830Y-52654768D01*
X161102846Y-52720909D01*
X161064928Y-52989185D01*
X161092422Y-53000429D01*
X161136231Y-53004914D01*
X161159266Y-53003595D01*
X161145646Y-53057417D01*
X161140261Y-53121223D01*
X161115257Y-53100071D01*
X161095702Y-53084684D01*
X161089474Y-53080043D01*
X161059569Y-53280567D01*
X161123592Y-53345438D01*
X161108891Y-53352863D01*
X161041480Y-53285012D01*
X161073674Y-53070030D01*
X161054074Y-53059381D01*
X161018720Y-53294782D01*
X161085490Y-53361314D01*
X160847948Y-53361314D01*
X160890034Y-53297468D01*
X160783606Y-53096017D01*
X160763959Y-53118591D01*
X160741245Y-53139736D01*
X160728926Y-53125570D01*
X160733734Y-53120637D01*
X160768264Y-53081802D01*
X160772386Y-53077210D01*
X160760067Y-53055619D01*
X160738909Y-53078920D01*
X160720866Y-53101976D01*
X160712622Y-53112577D01*
X160684250Y-53063134D01*
X160651643Y-53018152D01*
X160790979Y-53018152D01*
X160912886Y-53243198D01*
X160918015Y-53206122D01*
X160820247Y-53025724D01*
X160839522Y-53025724D01*
X160923099Y-53179939D01*
X160951629Y-52983519D01*
X160918542Y-52954393D01*
X160891133Y-52926806D01*
X160888615Y-52932960D01*
X160858390Y-52994705D01*
X160842865Y-53019715D01*
X160839522Y-53025724D01*
X160820247Y-53025724D01*
X160817494Y-53020644D01*
X160851610Y-52969723D01*
X160878311Y-52913958D01*
X160872128Y-52907510D01*
X160863244Y-52898131D01*
X160858619Y-52893491D01*
X160855825Y-52899011D01*
X160839705Y-52934084D01*
X160818093Y-52975457D01*
X160790979Y-53018152D01*
X160651643Y-53018152D01*
X160649058Y-53014586D01*
X160682534Y-53007975D01*
X160705635Y-52997948D01*
X160721003Y-52985326D01*
X160717889Y-52978585D01*
X160669186Y-52883580D01*
X160628178Y-52814693D01*
X160593829Y-52766778D01*
X160554502Y-52724555D01*
X160508043Y-52687237D01*
X160453649Y-52654768D01*
X160713493Y-52654768D01*
X160704929Y-52667713D01*
X160684513Y-52701472D01*
X160675849Y-52722667D01*
X160673234Y-52743975D01*
X160676307Y-52773079D01*
X160685225Y-52803890D01*
X160704288Y-52847427D01*
X160731719Y-52903505D01*
X160757136Y-52953086D01*
X160772477Y-52930518D01*
X160732108Y-52854212D01*
X160709088Y-52800254D01*
X160698472Y-52763309D01*
X160694931Y-52730906D01*
X160697464Y-52704984D01*
X160706467Y-52678383D01*
X160727598Y-52635863D01*
X160732635Y-52626631D01*
X160477371Y-52626631D01*
X160486896Y-52611000D01*
X160760799Y-52611000D01*
X160751549Y-52628683D01*
G37*
G36*
X161142185Y-52719394D02*
G01*
X161106327Y-52961683D01*
X161115348Y-52964272D01*
X161154458Y-52960658D01*
X161194163Y-52955577D01*
X161208542Y-52952939D01*
X161186137Y-53037706D01*
X161179279Y-53091963D01*
X161162793Y-53104614D01*
X161168031Y-53048182D01*
X161183172Y-52983714D01*
X161186011Y-52974091D01*
X161129270Y-52979904D01*
X161107428Y-52978188D01*
X161087276Y-52973163D01*
X161126248Y-52711969D01*
X161197460Y-52626631D01*
X160931983Y-52626631D01*
X160940867Y-52611000D01*
X161235195Y-52611000D01*
X161142185Y-52719394D01*
G37*
G36*
X161408852Y-53361314D02*
G01*
X161655644Y-53361314D01*
X161567717Y-53284084D01*
X161454281Y-52702346D01*
X161456571Y-52702346D01*
X161474614Y-52701662D01*
X161477591Y-52700979D01*
X161590523Y-53280323D01*
X161658163Y-53341628D01*
X161664070Y-53326582D01*
X161604445Y-53272116D01*
X161493024Y-52700539D01*
X161533920Y-52698536D01*
X161585642Y-52703240D01*
X161627366Y-52716295D01*
X161661094Y-52736785D01*
X161689246Y-52765621D01*
X161716410Y-52808447D01*
X161742335Y-52869066D01*
X161754865Y-52786394D01*
X161769353Y-52726111D01*
X161784947Y-52683581D01*
X161801045Y-52654768D01*
X161270504Y-52654768D01*
X161355271Y-52721397D01*
X161466096Y-53289995D01*
X161408852Y-53361314D01*
G37*
G36*
X161849680Y-52659702D02*
G01*
X161816890Y-52611000D01*
X161292302Y-52611000D01*
X161279663Y-52626631D01*
X161812265Y-52626631D01*
X161832644Y-52659848D01*
X161808807Y-52710325D01*
X161790223Y-52765295D01*
X161777002Y-52825298D01*
X161775812Y-52834091D01*
X161793672Y-52826129D01*
X161795504Y-52815968D01*
X161817256Y-52737139D01*
X161846291Y-52666052D01*
X161849680Y-52659702D01*
G37*
%LPC*%
D12*
%TO.C,REF\u002A\u002A*%
X157440000Y-65520000D03*
D13*
X157440000Y-65920000D03*
D14*
X157440000Y-64720000D03*
%TD*%
D12*
%TO.C,REF\u002A\u002A*%
X144740000Y-70600000D03*
D13*
X144740000Y-71000000D03*
D14*
X144740000Y-69800000D03*
%TD*%
D12*
%TO.C,REF\u002A\u002A*%
X149820000Y-68060000D03*
D13*
X149820000Y-68460000D03*
D14*
X149820000Y-67260000D03*
%TD*%
D12*
%TO.C,REF\u002A\u002A*%
X149820000Y-60440000D03*
D13*
X149820000Y-60840000D03*
D14*
X149820000Y-59640000D03*
%TD*%
D12*
%TO.C,REF\u002A\u002A*%
X144740000Y-85840000D03*
D13*
X144740000Y-86240000D03*
D14*
X144740000Y-85040000D03*
%TD*%
D12*
%TO.C,REF\u002A\u002A*%
X157440000Y-62980000D03*
D13*
X157440000Y-63380000D03*
D14*
X157440000Y-62180000D03*
%TD*%
D15*
%TO.C,REF\u002A\u002A*%
X145775000Y-53775000D03*
%TD*%
D12*
%TO.C,REF\u002A\u002A*%
X162520000Y-65520000D03*
D13*
X162520000Y-65920000D03*
D14*
X162520000Y-64720000D03*
%TD*%
D12*
%TO.C,REF\u002A\u002A*%
X165060000Y-85840000D03*
D13*
X165060000Y-86240000D03*
D14*
X165060000Y-85040000D03*
%TD*%
D12*
%TO.C,REF\u002A\u002A*%
X157440000Y-57900000D03*
D13*
X157440000Y-58300000D03*
D14*
X157440000Y-57100000D03*
%TD*%
D12*
%TO.C,REF\u002A\u002A*%
X162520000Y-80760000D03*
D13*
X162520000Y-81160000D03*
D14*
X162520000Y-79960000D03*
%TD*%
D12*
%TO.C,REF\u002A\u002A*%
X154900000Y-70600000D03*
D13*
X154900000Y-71000000D03*
D14*
X154900000Y-69800000D03*
%TD*%
D12*
%TO.C,REF\u002A\u002A*%
X157440000Y-80760000D03*
D13*
X157440000Y-81160000D03*
D14*
X157440000Y-79960000D03*
%TD*%
D15*
%TO.C,REF\u002A\u002A*%
X145775000Y-90725000D03*
%TD*%
D12*
%TO.C,REF\u002A\u002A*%
X154895000Y-55365000D03*
D13*
X154895000Y-55765000D03*
D14*
X154895000Y-54565000D03*
%TD*%
D12*
%TO.C,REF\u002A\u002A*%
X159975000Y-55365000D03*
D13*
X159975000Y-55765000D03*
D14*
X159975000Y-54565000D03*
%TD*%
D12*
%TO.C,REF\u002A\u002A*%
X147280000Y-73140000D03*
D13*
X147280000Y-73540000D03*
D14*
X147280000Y-72340000D03*
%TD*%
D12*
%TO.C,REF\u002A\u002A*%
X154900000Y-65520000D03*
D13*
X154900000Y-65920000D03*
D14*
X154900000Y-64720000D03*
%TD*%
D12*
%TO.C,REF\u002A\u002A*%
X144740000Y-78220000D03*
D13*
X144740000Y-78620000D03*
D14*
X144740000Y-77420000D03*
%TD*%
D12*
%TO.C,REF\u002A\u002A*%
X154900000Y-88380000D03*
D13*
X154900000Y-88780000D03*
D14*
X154900000Y-87580000D03*
%TD*%
D12*
%TO.C,REF\u002A\u002A*%
X159980000Y-60440000D03*
D13*
X159980000Y-60840000D03*
D14*
X159980000Y-59640000D03*
%TD*%
D12*
%TO.C,REF\u002A\u002A*%
X159980000Y-85840000D03*
D13*
X159980000Y-86240000D03*
D14*
X159980000Y-85040000D03*
%TD*%
D12*
%TO.C,REF\u002A\u002A*%
X162520000Y-62980000D03*
D13*
X162520000Y-63380000D03*
D14*
X162520000Y-62180000D03*
%TD*%
D12*
%TO.C,REF\u002A\u002A*%
X162520000Y-60440000D03*
D13*
X162520000Y-60840000D03*
D14*
X162520000Y-59640000D03*
%TD*%
D12*
%TO.C,REF\u002A\u002A*%
X152360000Y-88380000D03*
D13*
X152360000Y-88780000D03*
D14*
X152360000Y-87580000D03*
%TD*%
D12*
%TO.C,REF\u002A\u002A*%
X154900000Y-60440000D03*
D13*
X154900000Y-60840000D03*
D14*
X154900000Y-59640000D03*
%TD*%
D12*
%TO.C,REF\u002A\u002A*%
X165060000Y-68060000D03*
D13*
X165060000Y-68460000D03*
D14*
X165060000Y-67260000D03*
%TD*%
D12*
%TO.C,REF\u002A\u002A*%
X149820000Y-57900000D03*
D13*
X149820000Y-58300000D03*
D14*
X149820000Y-57100000D03*
%TD*%
D12*
%TO.C,REF\u002A\u002A*%
X149820000Y-75680000D03*
D13*
X149820000Y-76080000D03*
D14*
X149820000Y-74880000D03*
%TD*%
D12*
%TO.C,REF\u002A\u002A*%
X165060000Y-70600000D03*
D13*
X165060000Y-71000000D03*
D14*
X165060000Y-69800000D03*
%TD*%
D12*
%TO.C,REF\u002A\u002A*%
X144740000Y-75680000D03*
D13*
X144740000Y-76080000D03*
D14*
X144740000Y-74880000D03*
%TD*%
D12*
%TO.C,REF\u002A\u002A*%
X157440000Y-78220000D03*
D13*
X157440000Y-78620000D03*
D14*
X157440000Y-77420000D03*
%TD*%
D12*
%TO.C,REF\u002A\u002A*%
X152360000Y-73140000D03*
D13*
X152360000Y-73540000D03*
D14*
X152360000Y-72340000D03*
%TD*%
D12*
%TO.C,REF\u002A\u002A*%
X165060000Y-78220000D03*
D13*
X165060000Y-78620000D03*
D14*
X165060000Y-77420000D03*
%TD*%
D12*
%TO.C,REF\u002A\u002A*%
X147280000Y-83300000D03*
D13*
X147280000Y-83700000D03*
D14*
X147280000Y-82500000D03*
%TD*%
D12*
%TO.C,REF\u002A\u002A*%
X159980000Y-57900000D03*
D13*
X159980000Y-58300000D03*
D14*
X159980000Y-57100000D03*
%TD*%
D12*
%TO.C,REF\u002A\u002A*%
X147280000Y-75680000D03*
D13*
X147280000Y-76080000D03*
D14*
X147280000Y-74880000D03*
%TD*%
D12*
%TO.C,REF\u002A\u002A*%
X159980000Y-65520000D03*
D13*
X159980000Y-65920000D03*
D14*
X159980000Y-64720000D03*
%TD*%
D12*
%TO.C,REF\u002A\u002A*%
X149820000Y-80760000D03*
D13*
X149820000Y-81160000D03*
D14*
X149820000Y-79960000D03*
%TD*%
D12*
%TO.C,REF\u002A\u002A*%
X152355000Y-55365000D03*
D13*
X152355000Y-55765000D03*
D14*
X152355000Y-54565000D03*
%TD*%
D12*
%TO.C,REF\u002A\u002A*%
X152360000Y-57900000D03*
D13*
X152360000Y-58300000D03*
D14*
X152360000Y-57100000D03*
%TD*%
D12*
%TO.C,REF\u002A\u002A*%
X159980000Y-75680000D03*
D13*
X159980000Y-76080000D03*
D14*
X159980000Y-74880000D03*
%TD*%
D12*
%TO.C,REF\u002A\u002A*%
X144740000Y-83300000D03*
D13*
X144740000Y-83700000D03*
D14*
X144740000Y-82500000D03*
%TD*%
D12*
%TO.C,REF\u002A\u002A*%
X147280000Y-57900000D03*
D13*
X147280000Y-58300000D03*
D14*
X147280000Y-57100000D03*
%TD*%
D12*
%TO.C,REF\u002A\u002A*%
X147280000Y-60440000D03*
D13*
X147280000Y-60840000D03*
D14*
X147280000Y-59640000D03*
%TD*%
D12*
%TO.C,REF\u002A\u002A*%
X165060000Y-75680000D03*
D13*
X165060000Y-76080000D03*
D14*
X165060000Y-74880000D03*
%TD*%
D12*
%TO.C,REF\u002A\u002A*%
X147280000Y-80760000D03*
D13*
X147280000Y-81160000D03*
D14*
X147280000Y-79960000D03*
%TD*%
D12*
%TO.C,REF\u002A\u002A*%
X162520000Y-75680000D03*
D13*
X162520000Y-76080000D03*
D14*
X162520000Y-74880000D03*
%TD*%
D12*
%TO.C,REF\u002A\u002A*%
X154900000Y-80760000D03*
D13*
X154900000Y-81160000D03*
D14*
X154900000Y-79960000D03*
%TD*%
D12*
%TO.C,REF\u002A\u002A*%
X144740000Y-73140000D03*
D13*
X144740000Y-73540000D03*
D14*
X144740000Y-72340000D03*
%TD*%
D12*
%TO.C,REF\u002A\u002A*%
X157435000Y-55365000D03*
D13*
X157435000Y-55765000D03*
D14*
X157435000Y-54565000D03*
%TD*%
D12*
%TO.C,REF\u002A\u002A*%
X165060000Y-60440000D03*
D13*
X165060000Y-60840000D03*
D14*
X165060000Y-59640000D03*
%TD*%
D12*
%TO.C,REF\u002A\u002A*%
X162520000Y-83300000D03*
D13*
X162520000Y-83700000D03*
D14*
X162520000Y-82500000D03*
%TD*%
D12*
%TO.C,REF\u002A\u002A*%
X144740000Y-57900000D03*
D13*
X144740000Y-58300000D03*
D14*
X144740000Y-57100000D03*
%TD*%
D12*
%TO.C,REF\u002A\u002A*%
X144740000Y-60440000D03*
D13*
X144740000Y-60840000D03*
D14*
X144740000Y-59640000D03*
%TD*%
D12*
%TO.C,REF\u002A\u002A*%
X159980000Y-88380000D03*
D13*
X159980000Y-88780000D03*
D14*
X159980000Y-87580000D03*
%TD*%
D12*
%TO.C,REF\u002A\u002A*%
X165060000Y-83300000D03*
D13*
X165060000Y-83700000D03*
D14*
X165060000Y-82500000D03*
%TD*%
D12*
%TO.C,REF\u002A\u002A*%
X159980000Y-73140000D03*
D13*
X159980000Y-73540000D03*
D14*
X159980000Y-72340000D03*
%TD*%
D12*
%TO.C,REF\u002A\u002A*%
X149820000Y-65520000D03*
D13*
X149820000Y-65920000D03*
D14*
X149820000Y-64720000D03*
%TD*%
D12*
%TO.C,REF\u002A\u002A*%
X147280000Y-78220000D03*
D13*
X147280000Y-78620000D03*
D14*
X147280000Y-77420000D03*
%TD*%
D15*
%TO.C,REF\u002A\u002A*%
X164725000Y-90725000D03*
%TD*%
D12*
%TO.C,REF\u002A\u002A*%
X149820000Y-85840000D03*
D13*
X149820000Y-86240000D03*
D14*
X149820000Y-85040000D03*
%TD*%
D12*
%TO.C,REF\u002A\u002A*%
X154900000Y-83300000D03*
D13*
X154900000Y-83700000D03*
D14*
X154900000Y-82500000D03*
%TD*%
D12*
%TO.C,REF\u002A\u002A*%
X147280000Y-62980000D03*
D13*
X147280000Y-63380000D03*
D14*
X147280000Y-62180000D03*
%TD*%
D12*
%TO.C,REF\u002A\u002A*%
X154900000Y-62980000D03*
D13*
X154900000Y-63380000D03*
D14*
X154900000Y-62180000D03*
%TD*%
D12*
%TO.C,REF\u002A\u002A*%
X149820000Y-70600000D03*
D13*
X149820000Y-71000000D03*
D14*
X149820000Y-69800000D03*
%TD*%
D12*
%TO.C,REF\u002A\u002A*%
X149820000Y-88380000D03*
D13*
X149820000Y-88780000D03*
D14*
X149820000Y-87580000D03*
%TD*%
D12*
%TO.C,REF\u002A\u002A*%
X144740000Y-68060000D03*
D13*
X144740000Y-68460000D03*
D14*
X144740000Y-67260000D03*
%TD*%
D12*
%TO.C,REF\u002A\u002A*%
X154900000Y-57900000D03*
D13*
X154900000Y-58300000D03*
D14*
X154900000Y-57100000D03*
%TD*%
D12*
%TO.C,REF\u002A\u002A*%
X157440000Y-83300000D03*
D13*
X157440000Y-83700000D03*
D14*
X157440000Y-82500000D03*
%TD*%
D15*
%TO.C,REF\u002A\u002A*%
X164725000Y-53775000D03*
%TD*%
D12*
%TO.C,REF\u002A\u002A*%
X144740000Y-65520000D03*
D13*
X144740000Y-65920000D03*
D14*
X144740000Y-64720000D03*
%TD*%
D12*
%TO.C,REF\u002A\u002A*%
X165060000Y-80760000D03*
D13*
X165060000Y-81160000D03*
D14*
X165060000Y-79960000D03*
%TD*%
D12*
%TO.C,REF\u002A\u002A*%
X152360000Y-83300000D03*
D13*
X152360000Y-83700000D03*
D14*
X152360000Y-82500000D03*
%TD*%
D12*
%TO.C,REF\u002A\u002A*%
X147280000Y-68060000D03*
D13*
X147280000Y-68460000D03*
D14*
X147280000Y-67260000D03*
%TD*%
D12*
%TO.C,REF\u002A\u002A*%
X152360000Y-78220000D03*
D13*
X152360000Y-78620000D03*
D14*
X152360000Y-77420000D03*
%TD*%
D12*
%TO.C,REF\u002A\u002A*%
X149815000Y-55365000D03*
D13*
X149815000Y-55765000D03*
D14*
X149815000Y-54565000D03*
%TD*%
D12*
%TO.C,REF\u002A\u002A*%
X149820000Y-78220000D03*
D13*
X149820000Y-78620000D03*
D14*
X149820000Y-77420000D03*
%TD*%
D12*
%TO.C,REF\u002A\u002A*%
X159980000Y-80760000D03*
D13*
X159980000Y-81160000D03*
D14*
X159980000Y-79960000D03*
%TD*%
D12*
%TO.C,REF\u002A\u002A*%
X159980000Y-62980000D03*
D13*
X159980000Y-63380000D03*
D14*
X159980000Y-62180000D03*
%TD*%
D12*
%TO.C,REF\u002A\u002A*%
X152360000Y-80760000D03*
D13*
X152360000Y-81160000D03*
D14*
X152360000Y-79960000D03*
%TD*%
D12*
%TO.C,REF\u002A\u002A*%
X159980000Y-78220000D03*
D13*
X159980000Y-78620000D03*
D14*
X159980000Y-77420000D03*
%TD*%
D12*
%TO.C,REF\u002A\u002A*%
X165060000Y-62980000D03*
D13*
X165060000Y-63380000D03*
D14*
X165060000Y-62180000D03*
%TD*%
D12*
%TO.C,REF\u002A\u002A*%
X157440000Y-68060000D03*
D13*
X157440000Y-68460000D03*
D14*
X157440000Y-67260000D03*
%TD*%
D12*
%TO.C,REF\u002A\u002A*%
X159980000Y-70600000D03*
D13*
X159980000Y-71000000D03*
D14*
X159980000Y-69800000D03*
%TD*%
D12*
%TO.C,REF\u002A\u002A*%
X152360000Y-68060000D03*
D13*
X152360000Y-68460000D03*
D14*
X152360000Y-67260000D03*
%TD*%
D12*
%TO.C,REF\u002A\u002A*%
X165060000Y-57900000D03*
D13*
X165060000Y-58300000D03*
D14*
X165060000Y-57100000D03*
%TD*%
D12*
%TO.C,REF\u002A\u002A*%
X157440000Y-75680000D03*
D13*
X157440000Y-76080000D03*
D14*
X157440000Y-74880000D03*
%TD*%
D12*
%TO.C,REF\u002A\u002A*%
X162520000Y-68060000D03*
D13*
X162520000Y-68460000D03*
D14*
X162520000Y-67260000D03*
%TD*%
D12*
%TO.C,REF\u002A\u002A*%
X147280000Y-70600000D03*
D13*
X147280000Y-71000000D03*
D14*
X147280000Y-69800000D03*
%TD*%
D12*
%TO.C,REF\u002A\u002A*%
X159980000Y-68060000D03*
D13*
X159980000Y-68460000D03*
D14*
X159980000Y-67260000D03*
%TD*%
D12*
%TO.C,REF\u002A\u002A*%
X152360000Y-85840000D03*
D13*
X152360000Y-86240000D03*
D14*
X152360000Y-85040000D03*
%TD*%
D12*
%TO.C,REF\u002A\u002A*%
X144740000Y-80760000D03*
D13*
X144740000Y-81160000D03*
D14*
X144740000Y-79960000D03*
%TD*%
D12*
%TO.C,REF\u002A\u002A*%
X154900000Y-85840000D03*
D13*
X154900000Y-86240000D03*
D14*
X154900000Y-85040000D03*
%TD*%
D12*
%TO.C,REF\u002A\u002A*%
X162520000Y-85840000D03*
D13*
X162520000Y-86240000D03*
D14*
X162520000Y-85040000D03*
%TD*%
D12*
%TO.C,REF\u002A\u002A*%
X149820000Y-62980000D03*
D13*
X149820000Y-63380000D03*
D14*
X149820000Y-62180000D03*
%TD*%
D12*
%TO.C,REF\u002A\u002A*%
X157440000Y-88380000D03*
D13*
X157440000Y-88780000D03*
D14*
X157440000Y-87580000D03*
%TD*%
D12*
%TO.C,REF\u002A\u002A*%
X154900000Y-68060000D03*
D13*
X154900000Y-68460000D03*
D14*
X154900000Y-67260000D03*
%TD*%
D12*
%TO.C,REF\u002A\u002A*%
X149820000Y-73140000D03*
D13*
X149820000Y-73540000D03*
D14*
X149820000Y-72340000D03*
%TD*%
D12*
%TO.C,REF\u002A\u002A*%
X154900000Y-78220000D03*
D13*
X154900000Y-78620000D03*
D14*
X154900000Y-77420000D03*
%TD*%
D12*
%TO.C,REF\u002A\u002A*%
X162520000Y-78220000D03*
D13*
X162520000Y-78620000D03*
D14*
X162520000Y-77420000D03*
%TD*%
D12*
%TO.C,REF\u002A\u002A*%
X162520000Y-70600000D03*
D13*
X162520000Y-71000000D03*
D14*
X162520000Y-69800000D03*
%TD*%
D12*
%TO.C,REF\u002A\u002A*%
X154900000Y-75680000D03*
D13*
X154900000Y-76080000D03*
D14*
X154900000Y-74880000D03*
%TD*%
D12*
%TO.C,REF\u002A\u002A*%
X152360000Y-65520000D03*
D13*
X152360000Y-65920000D03*
D14*
X152360000Y-64720000D03*
%TD*%
D12*
%TO.C,REF\u002A\u002A*%
X149820000Y-83300000D03*
D13*
X149820000Y-83700000D03*
D14*
X149820000Y-82500000D03*
%TD*%
D12*
%TO.C,REF\u002A\u002A*%
X152360000Y-70600000D03*
D13*
X152360000Y-71000000D03*
D14*
X152360000Y-69800000D03*
%TD*%
D12*
%TO.C,REF\u002A\u002A*%
X152360000Y-75680000D03*
D13*
X152360000Y-76080000D03*
D14*
X152360000Y-74880000D03*
%TD*%
D12*
%TO.C,REF\u002A\u002A*%
X152360000Y-60440000D03*
D13*
X152360000Y-60840000D03*
D14*
X152360000Y-59640000D03*
%TD*%
D12*
%TO.C,REF\u002A\u002A*%
X154900000Y-73140000D03*
D13*
X154900000Y-73540000D03*
D14*
X154900000Y-72340000D03*
%TD*%
D12*
%TO.C,REF\u002A\u002A*%
X157440000Y-70600000D03*
D13*
X157440000Y-71000000D03*
D14*
X157440000Y-69800000D03*
%TD*%
D12*
%TO.C,REF\u002A\u002A*%
X157440000Y-85840000D03*
D13*
X157440000Y-86240000D03*
D14*
X157440000Y-85040000D03*
%TD*%
D12*
%TO.C,REF\u002A\u002A*%
X159980000Y-83300000D03*
D13*
X159980000Y-83700000D03*
D14*
X159980000Y-82500000D03*
%TD*%
D12*
%TO.C,REF\u002A\u002A*%
X165060000Y-65520000D03*
D13*
X165060000Y-65920000D03*
D14*
X165060000Y-64720000D03*
%TD*%
D12*
%TO.C,REF\u002A\u002A*%
X147280000Y-85840000D03*
D13*
X147280000Y-86240000D03*
D14*
X147280000Y-85040000D03*
%TD*%
D12*
%TO.C,REF\u002A\u002A*%
X157440000Y-60440000D03*
D13*
X157440000Y-60840000D03*
D14*
X157440000Y-59640000D03*
%TD*%
D12*
%TO.C,REF\u002A\u002A*%
X165060000Y-73140000D03*
D13*
X165060000Y-73540000D03*
D14*
X165060000Y-72340000D03*
%TD*%
D12*
%TO.C,REF\u002A\u002A*%
X162520000Y-57900000D03*
D13*
X162520000Y-58300000D03*
D14*
X162520000Y-57100000D03*
%TD*%
D12*
%TO.C,REF\u002A\u002A*%
X157440000Y-73140000D03*
D13*
X157440000Y-73540000D03*
D14*
X157440000Y-72340000D03*
%TD*%
D12*
%TO.C,REF\u002A\u002A*%
X162520000Y-73140000D03*
D13*
X162520000Y-73540000D03*
D14*
X162520000Y-72340000D03*
%TD*%
D12*
%TO.C,REF\u002A\u002A*%
X147280000Y-65520000D03*
D13*
X147280000Y-65920000D03*
D14*
X147280000Y-64720000D03*
%TD*%
D12*
%TO.C,REF\u002A\u002A*%
X152360000Y-62980000D03*
D13*
X152360000Y-63380000D03*
D14*
X152360000Y-62180000D03*
%TD*%
D12*
%TO.C,REF\u002A\u002A*%
X144740000Y-62980000D03*
D13*
X144740000Y-63380000D03*
D14*
X144740000Y-62180000D03*
%TD*%
%LPD*%
M02*
