M48
; DRILL file {KiCad 9.0.1} date 2025-05-07T00:25:06-0400
; FORMAT={-:-/ absolute / inch / decimal}
; #@! TF.CreationDate,2025-05-07T00:25:06-04:00
; #@! TF.GenerationSoftware,Kicad,Pcbnew,9.0.1
; #@! TF.FileFunction,Plated,1,2,PTH
FMAT,2
INCH
; #@! TA.AperFunction,Plated,PTH,ComponentDrill
T1C0.0300
%
G90
G05
T1
X5.6984Y-2.2953
X5.6984Y-2.3953
X5.6984Y-2.4953
X5.6984Y-2.5953
X5.6984Y-2.6953
X5.6984Y-2.7953
X5.6984Y-2.8953
X5.6984Y-2.9953
X5.6984Y-3.0953
X5.6984Y-3.1953
X5.6984Y-3.2953
X5.6984Y-3.3953
X5.7984Y-2.2953
X5.7984Y-2.3953
X5.7984Y-2.4953
X5.7984Y-2.5953
X5.7984Y-2.6953
X5.7984Y-2.7953
X5.7984Y-2.8953
X5.7984Y-2.9953
X5.7984Y-3.0953
X5.7984Y-3.1953
X5.7984Y-3.2953
X5.7984Y-3.3953
X5.8982Y-2.1955
X5.8984Y-2.2953
X5.8984Y-2.3953
X5.8984Y-2.4953
X5.8984Y-2.5953
X5.8984Y-2.6953
X5.8984Y-2.7953
X5.8984Y-2.8953
X5.8984Y-2.9953
X5.8984Y-3.0953
X5.8984Y-3.1953
X5.8984Y-3.2953
X5.8984Y-3.3953
X5.8984Y-3.4953
X5.9982Y-2.1955
X5.9984Y-2.2953
X5.9984Y-2.3953
X5.9984Y-2.4953
X5.9984Y-2.5953
X5.9984Y-2.6953
X5.9984Y-2.7953
X5.9984Y-2.8953
X5.9984Y-2.9953
X5.9984Y-3.0953
X5.9984Y-3.1953
X5.9984Y-3.2953
X5.9984Y-3.3953
X5.9984Y-3.4953
X6.0982Y-2.1955
X6.0984Y-2.2953
X6.0984Y-2.3953
X6.0984Y-2.4953
X6.0984Y-2.5953
X6.0984Y-2.6953
X6.0984Y-2.7953
X6.0984Y-2.8953
X6.0984Y-2.9953
X6.0984Y-3.0953
X6.0984Y-3.1953
X6.0984Y-3.2953
X6.0984Y-3.3953
X6.0984Y-3.4953
X6.1982Y-2.1955
X6.1984Y-2.2953
X6.1984Y-2.3953
X6.1984Y-2.4953
X6.1984Y-2.5953
X6.1984Y-2.6953
X6.1984Y-2.7953
X6.1984Y-2.8953
X6.1984Y-2.9953
X6.1984Y-3.0953
X6.1984Y-3.1953
X6.1984Y-3.2953
X6.1984Y-3.3953
X6.1984Y-3.4953
X6.2982Y-2.1955
X6.2984Y-2.2953
X6.2984Y-2.3953
X6.2984Y-2.4953
X6.2984Y-2.5953
X6.2984Y-2.6953
X6.2984Y-2.7953
X6.2984Y-2.8953
X6.2984Y-2.9953
X6.2984Y-3.0953
X6.2984Y-3.1953
X6.2984Y-3.2953
X6.2984Y-3.3953
X6.2984Y-3.4953
X6.3984Y-2.2953
X6.3984Y-2.3953
X6.3984Y-2.4953
X6.3984Y-2.5953
X6.3984Y-2.6953
X6.3984Y-2.7953
X6.3984Y-2.8953
X6.3984Y-2.9953
X6.3984Y-3.0953
X6.3984Y-3.1953
X6.3984Y-3.2953
X6.3984Y-3.3953
X6.4984Y-2.2953
X6.4984Y-2.3953
X6.4984Y-2.4953
X6.4984Y-2.5953
X6.4984Y-2.6953
X6.4984Y-2.7953
X6.4984Y-2.8953
X6.4984Y-2.9953
X6.4984Y-3.0953
X6.4984Y-3.1953
X6.4984Y-3.2953
X6.4984Y-3.3953
M30
