M48
; DRILL file {KiCad 9.0.1} date 2025-05-07T17:02:50-0400
; FORMAT={-:-/ absolute / inch / decimal}
; #@! TF.CreationDate,2025-05-07T17:02:50-04:00
; #@! TF.GenerationSoftware,Kicad,Pcbnew,9.0.1
; #@! TF.FileFunction,Plated,1,2,PTH
FMAT,2
INCH
; #@! TA.AperFunction,Plated,PTH,ComponentDrill
T1C0.0315
%
G90
G05
T1
X4.8602Y-4.0791
X4.8602Y-4.0791
X4.8602Y-4.1791
X4.8602Y-4.1791
X4.8602Y-4.2791
X4.8602Y-4.2791
X4.8602Y-4.3791
X4.8602Y-4.3791
X4.8602Y-4.4791
X4.8602Y-4.4791
X4.8602Y-4.5791
X4.8602Y-4.5791
X4.9602Y-4.0791
X4.9602Y-4.0791
X4.9602Y-4.1791
X4.9602Y-4.1791
X4.9602Y-4.2791
X4.9602Y-4.2791
X4.9602Y-4.3791
X4.9602Y-4.3791
X4.9602Y-4.4791
X4.9602Y-4.4791
X4.9602Y-4.5791
X4.9602Y-4.5791
X5.0602Y-4.0791
X5.0602Y-4.0791
X5.0602Y-4.1791
X5.0602Y-4.1791
X5.0602Y-4.2791
X5.0602Y-4.2791
X5.0602Y-4.3791
X5.0602Y-4.3791
X5.0602Y-4.4791
X5.0602Y-4.4791
X5.0602Y-4.5791
X5.0602Y-4.5791
X5.1602Y-4.0791
X5.1602Y-4.0791
X5.1602Y-4.1791
X5.1602Y-4.1791
X5.1602Y-4.2791
X5.1602Y-4.2791
X5.1602Y-4.3791
X5.1602Y-4.3791
X5.1602Y-4.4791
X5.1602Y-4.4791
X5.1602Y-4.5791
X5.1602Y-4.5791
X5.2602Y-4.0791
X5.2602Y-4.0791
X5.2602Y-4.1791
X5.2602Y-4.1791
X5.2602Y-4.2791
X5.2602Y-4.2791
X5.2602Y-4.3791
X5.2602Y-4.3791
X5.2602Y-4.4791
X5.2602Y-4.4791
X5.2602Y-4.5791
X5.2602Y-4.5791
X5.3602Y-4.0791
X5.3602Y-4.0791
X5.3602Y-4.1791
X5.3602Y-4.1791
X5.3602Y-4.2791
X5.3602Y-4.2791
X5.3602Y-4.3791
X5.3602Y-4.3791
X5.3602Y-4.4791
X5.3602Y-4.4791
X5.3602Y-4.5791
X5.3602Y-4.5791
X5.4602Y-4.0791
X5.4602Y-4.0791
X5.4602Y-4.1791
X5.4602Y-4.1791
X5.4602Y-4.2791
X5.4602Y-4.2791
X5.4602Y-4.3791
X5.4602Y-4.3791
X5.4602Y-4.4791
X5.4602Y-4.4791
X5.4602Y-4.5791
X5.4602Y-4.5791
X5.5602Y-4.0791
X5.5602Y-4.0791
X5.5602Y-4.1791
X5.5602Y-4.1791
X5.5602Y-4.2791
X5.5602Y-4.2791
X5.5602Y-4.3791
X5.5602Y-4.3791
X5.5602Y-4.4791
X5.5602Y-4.4791
X5.5602Y-4.5791
X5.5602Y-4.5791
X5.6602Y-4.0791
X5.6602Y-4.0791
X5.6602Y-4.1791
X5.6602Y-4.1791
X5.6602Y-4.2791
X5.6602Y-4.2791
X5.6602Y-4.3791
X5.6602Y-4.3791
X5.6602Y-4.4791
X5.6602Y-4.4791
X5.6602Y-4.5791
X5.6602Y-4.5791
X5.7602Y-4.0791
X5.7602Y-4.0791
X5.7602Y-4.1791
X5.7602Y-4.1791
X5.7602Y-4.2791
X5.7602Y-4.2791
X5.7602Y-4.3791
X5.7602Y-4.3791
X5.7602Y-4.4791
X5.7602Y-4.4791
X5.7602Y-4.5791
X5.7602Y-4.5791
X5.8602Y-4.0791
X5.8602Y-4.0791
X5.8602Y-4.1791
X5.8602Y-4.1791
X5.8602Y-4.2791
X5.8602Y-4.2791
X5.8602Y-4.3791
X5.8602Y-4.3791
X5.8602Y-4.4791
X5.8602Y-4.4791
X5.8602Y-4.5791
X5.8602Y-4.5791
X5.9602Y-4.0791
X5.9602Y-4.0791
X5.9602Y-4.1791
X5.9602Y-4.1791
X5.9602Y-4.2791
X5.9602Y-4.2791
X5.9602Y-4.3791
X5.9602Y-4.3791
X5.9602Y-4.4791
X5.9602Y-4.4791
X5.9602Y-4.5791
X5.9602Y-4.5791
X6.0602Y-4.0791
X6.0602Y-4.0791
X6.0602Y-4.1791
X6.0602Y-4.1791
X6.0602Y-4.2791
X6.0602Y-4.2791
X6.0602Y-4.3791
X6.0602Y-4.3791
X6.0602Y-4.4791
X6.0602Y-4.4791
X6.0602Y-4.5791
X6.0602Y-4.5791
X6.1602Y-4.0791
X6.1602Y-4.0791
X6.1602Y-4.1791
X6.1602Y-4.1791
X6.1602Y-4.2791
X6.1602Y-4.2791
X6.1602Y-4.3791
X6.1602Y-4.3791
X6.1602Y-4.4791
X6.1602Y-4.4791
X6.1602Y-4.5791
X6.1602Y-4.5791
X6.2602Y-4.0791
X6.2602Y-4.0791
X6.2602Y-4.1791
X6.2602Y-4.1791
X6.2602Y-4.2791
X6.2602Y-4.2791
X6.2602Y-4.3791
X6.2602Y-4.3791
X6.2602Y-4.4791
X6.2602Y-4.4791
X6.2602Y-4.5791
X6.2602Y-4.5791
X6.3602Y-4.0791
X6.3602Y-4.0791
X6.3602Y-4.1791
X6.3602Y-4.1791
X6.3602Y-4.2791
X6.3602Y-4.2791
X6.3602Y-4.3791
X6.3602Y-4.3791
X6.3602Y-4.4791
X6.3602Y-4.4791
X6.3602Y-4.5791
X6.3602Y-4.5791
X6.4602Y-4.0791
X6.4602Y-4.0791
X6.4602Y-4.1791
X6.4602Y-4.1791
X6.4602Y-4.2791
X6.4602Y-4.2791
X6.4602Y-4.3791
X6.4602Y-4.3791
X6.4602Y-4.4791
X6.4602Y-4.4791
X6.4602Y-4.5791
X6.4602Y-4.5791
X6.5602Y-4.0791
X6.5602Y-4.0791
X6.5602Y-4.1791
X6.5602Y-4.1791
X6.5602Y-4.2791
X6.5602Y-4.2791
X6.5602Y-4.3791
X6.5602Y-4.3791
X6.5602Y-4.4791
X6.5602Y-4.4791
X6.5602Y-4.5791
X6.5602Y-4.5791
X6.6602Y-4.0791
X6.6602Y-4.0791
X6.6602Y-4.1791
X6.6602Y-4.1791
X6.6602Y-4.2791
X6.6602Y-4.2791
X6.6602Y-4.3791
X6.6602Y-4.3791
X6.6602Y-4.4791
X6.6602Y-4.4791
X6.6602Y-4.5791
X6.6602Y-4.5791
X6.7602Y-4.0791
X6.7602Y-4.0791
X6.7602Y-4.1791
X6.7602Y-4.1791
X6.7602Y-4.2791
X6.7602Y-4.2791
X6.7602Y-4.3791
X6.7602Y-4.3791
X6.7602Y-4.4791
X6.7602Y-4.4791
X6.7602Y-4.5791
X6.7602Y-4.5791
X6.8602Y-4.0791
X6.8602Y-4.0791
X6.8602Y-4.1791
X6.8602Y-4.1791
X6.8602Y-4.2791
X6.8602Y-4.2791
X6.8602Y-4.3791
X6.8602Y-4.3791
X6.8602Y-4.4791
X6.8602Y-4.4791
X6.8602Y-4.5791
X6.8602Y-4.5791
X6.9602Y-4.0791
X6.9602Y-4.0791
X6.9602Y-4.1791
X6.9602Y-4.1791
X6.9602Y-4.2791
X6.9602Y-4.2791
X6.9602Y-4.3791
X6.9602Y-4.3791
X6.9602Y-4.4791
X6.9602Y-4.4791
X6.9602Y-4.5791
X6.9602Y-4.5791
X7.0602Y-4.0791
X7.0602Y-4.0791
X7.0602Y-4.1791
X7.0602Y-4.1791
X7.0602Y-4.2791
X7.0602Y-4.2791
X7.0602Y-4.3791
X7.0602Y-4.3791
X7.0602Y-4.4791
X7.0602Y-4.4791
X7.0602Y-4.5791
X7.0602Y-4.5791
X7.1602Y-4.0791
X7.1602Y-4.0791
X7.1602Y-4.1791
X7.1602Y-4.1791
X7.1602Y-4.2791
X7.1602Y-4.2791
X7.1602Y-4.3791
X7.1602Y-4.3791
X7.1602Y-4.4791
X7.1602Y-4.4791
X7.1602Y-4.5791
X7.1602Y-4.5791
X7.2602Y-4.0791
X7.2602Y-4.0791
X7.2602Y-4.1791
X7.2602Y-4.1791
X7.2602Y-4.2791
X7.2602Y-4.2791
X7.2602Y-4.3791
X7.2602Y-4.3791
X7.2602Y-4.4791
X7.2602Y-4.4791
X7.2602Y-4.5791
X7.2602Y-4.5791
X7.3602Y-4.0791
X7.3602Y-4.0791
X7.3602Y-4.1791
X7.3602Y-4.1791
X7.3602Y-4.2791
X7.3602Y-4.2791
X7.3602Y-4.3791
X7.3602Y-4.3791
X7.3602Y-4.4791
X7.3602Y-4.4791
X7.3602Y-4.5791
X7.3602Y-4.5791
X7.4602Y-4.0791
X7.4602Y-4.0791
X7.4602Y-4.1791
X7.4602Y-4.1791
X7.4602Y-4.2791
X7.4602Y-4.2791
X7.4602Y-4.3791
X7.4602Y-4.3791
X7.4602Y-4.4791
X7.4602Y-4.4791
X7.4602Y-4.5791
X7.4602Y-4.5791
X7.5602Y-4.0791
X7.5602Y-4.0791
X7.5602Y-4.1791
X7.5602Y-4.1791
X7.5602Y-4.2791
X7.5602Y-4.2791
X7.5602Y-4.3791
X7.5602Y-4.3791
X7.5602Y-4.4791
X7.5602Y-4.4791
X7.5602Y-4.5791
X7.5602Y-4.5791
M30
