G04 #@! TF.GenerationSoftware,KiCad,Pcbnew,9.0.1*
G04 #@! TF.CreationDate,2025-05-07T17:02:48-04:00*
G04 #@! TF.ProjectId,matrix-protoboard_6x28,6d617472-6978-42d7-9072-6f746f626f61,rev?*
G04 #@! TF.SameCoordinates,Original*
G04 #@! TF.FileFunction,Copper,L1,Top*
G04 #@! TF.FilePolarity,Positive*
%FSLAX46Y46*%
G04 Gerber Fmt 4.6, Leading zero omitted, Abs format (unit mm)*
G04 Created by KiCad (PCBNEW 9.0.1) date 2025-05-07 17:02:48*
%MOMM*%
%LPD*%
G01*
G04 APERTURE LIST*
G04 Aperture macros list*
%AMOutline4P*
0 Free polygon, 4 corners , with rotation*
0 The origin of the aperture is its center*
0 number of corners: always 4*
0 $1 to $8 corner X, Y*
0 $9 Rotation angle, in degrees counterclockwise*
0 create outline with 4 corners*
4,1,4,$1,$2,$3,$4,$5,$6,$7,$8,$1,$2,$9*%
G04 Aperture macros list end*
G04 #@! TA.AperFunction,SMDPad,CuDef*
%ADD10Outline4P,-0.247450X-0.123750X0.247450X-0.123750X0.000050X0.123750X-0.000050X0.123750X45.000000*%
G04 #@! TD*
G04 #@! TA.AperFunction,SMDPad,CuDef*
%ADD11Outline4P,-0.282750X-0.141400X0.282750X-0.141400X0.000050X0.141400X-0.000050X0.141400X315.000000*%
G04 #@! TD*
G04 #@! TA.AperFunction,SMDPad,CuDef*
%ADD12Outline4P,-0.282750X-0.141400X0.282750X-0.141400X0.000050X0.141400X-0.000050X0.141400X225.000000*%
G04 #@! TD*
G04 #@! TA.AperFunction,SMDPad,CuDef*
%ADD13Outline4P,-0.349950X-0.175000X0.349950X-0.175000X0.000050X0.175000X-0.000050X0.175000X0.000000*%
G04 #@! TD*
G04 #@! TA.AperFunction,SMDPad,CuDef*
%ADD14R,0.700000X0.850000*%
G04 #@! TD*
G04 #@! TA.AperFunction,SMDPad,CuDef*
%ADD15Outline4P,-0.282750X-0.141400X0.282750X-0.141400X0.000050X0.141400X-0.000050X0.141400X45.000000*%
G04 #@! TD*
G04 #@! TA.AperFunction,SMDPad,CuDef*
%ADD16Outline4P,-0.282750X-0.141400X0.282750X-0.141400X0.000050X0.141400X-0.000050X0.141400X135.000000*%
G04 #@! TD*
G04 #@! TA.AperFunction,SMDPad,CuDef*
%ADD17Outline4P,-0.247450X-0.123750X0.247450X-0.123750X0.000050X0.123750X-0.000050X0.123750X315.000000*%
G04 #@! TD*
G04 #@! TA.AperFunction,SMDPad,CuDef*
%ADD18Outline4P,-0.349950X-0.175000X0.349950X-0.175000X0.000050X0.175000X-0.000050X0.175000X90.000000*%
G04 #@! TD*
G04 #@! TA.AperFunction,SMDPad,CuDef*
%ADD19R,0.470000X0.520000*%
G04 #@! TD*
G04 #@! TA.AperFunction,SMDPad,CuDef*
%ADD20Outline4P,-0.247450X-0.123750X0.247450X-0.123750X0.000050X0.123750X-0.000050X0.123750X135.000000*%
G04 #@! TD*
G04 #@! TA.AperFunction,ComponentPad*
%ADD21C,1.400000*%
G04 #@! TD*
G04 #@! TA.AperFunction,SMDPad,CuDef*
%ADD22R,0.850000X0.700000*%
G04 #@! TD*
G04 #@! TA.AperFunction,SMDPad,CuDef*
%ADD23O,3.048000X1.524000*%
G04 #@! TD*
G04 APERTURE END LIST*
D10*
X139700000Y-111670000D03*
D11*
X139710000Y-110830000D03*
D12*
X139710000Y-111630000D03*
D13*
X139960000Y-110580000D03*
D14*
X139960000Y-111170000D03*
D15*
X140210000Y-110830000D03*
D16*
X140210000Y-111630000D03*
D17*
X140210000Y-111670000D03*
D10*
X182880000Y-114210000D03*
D11*
X182890000Y-113370000D03*
D12*
X182890000Y-114170000D03*
D13*
X183140000Y-113120000D03*
D14*
X183140000Y-113710000D03*
D15*
X183390000Y-113370000D03*
D16*
X183390000Y-114170000D03*
D17*
X183390000Y-114210000D03*
D18*
X149650000Y-115040000D03*
D10*
X149860000Y-115300000D03*
D19*
X150060000Y-114955000D03*
D13*
X150120000Y-114570000D03*
D10*
X150380000Y-114780000D03*
D20*
X150380000Y-115300000D03*
D17*
X150380000Y-115300000D03*
D21*
X159010000Y-103610000D03*
X174250000Y-103610000D03*
X181870000Y-111230000D03*
D18*
X182670000Y-109960000D03*
D10*
X182880000Y-110220000D03*
D19*
X183080000Y-109875000D03*
D13*
X183140000Y-109490000D03*
D10*
X183400000Y-109700000D03*
D20*
X183400000Y-110220000D03*
D17*
X183400000Y-110220000D03*
D21*
X133610000Y-108690000D03*
D18*
X164890000Y-115040000D03*
D10*
X165100000Y-115300000D03*
D19*
X165300000Y-114955000D03*
D13*
X165360000Y-114570000D03*
D10*
X165620000Y-114780000D03*
D20*
X165620000Y-115300000D03*
D17*
X165620000Y-115300000D03*
D21*
X151390000Y-106150000D03*
D20*
X179770000Y-115300000D03*
D15*
X178930000Y-115290000D03*
D11*
X179730000Y-115290000D03*
D18*
X178680000Y-115040000D03*
D22*
X179270000Y-115040000D03*
D16*
X178930000Y-114790000D03*
D12*
X179730000Y-114790000D03*
D10*
X179770000Y-114790000D03*
X160020000Y-104050000D03*
D11*
X160030000Y-103210000D03*
D12*
X160030000Y-104010000D03*
D13*
X160280000Y-102960000D03*
D14*
X160280000Y-103550000D03*
D15*
X160530000Y-103210000D03*
D16*
X160530000Y-104010000D03*
D17*
X160530000Y-104050000D03*
D18*
X154730000Y-112500000D03*
D10*
X154940000Y-112760000D03*
D19*
X155140000Y-112415000D03*
D13*
X155200000Y-112030000D03*
D10*
X155460000Y-112240000D03*
D17*
X155460000Y-112760000D03*
D20*
X155460000Y-112760000D03*
D10*
X154940000Y-114210000D03*
D11*
X154950000Y-113370000D03*
D12*
X154950000Y-114170000D03*
D13*
X155200000Y-113120000D03*
D14*
X155200000Y-113710000D03*
D15*
X155450000Y-113370000D03*
D16*
X155450000Y-114170000D03*
D17*
X155450000Y-114210000D03*
D18*
X139490000Y-107420000D03*
D10*
X139700000Y-107680000D03*
D19*
X139900000Y-107335000D03*
D13*
X139960000Y-106950000D03*
D10*
X140220000Y-107160000D03*
D17*
X140220000Y-107680000D03*
D20*
X140220000Y-107680000D03*
D10*
X129540000Y-106590000D03*
D11*
X129550000Y-105750000D03*
D12*
X129550000Y-106550000D03*
D13*
X129800000Y-105500000D03*
D14*
X129800000Y-106090000D03*
D15*
X130050000Y-105750000D03*
D16*
X130050000Y-106550000D03*
D17*
X130050000Y-106590000D03*
D18*
X136950000Y-115040000D03*
D10*
X137160000Y-115300000D03*
D19*
X137360000Y-114955000D03*
D13*
X137420000Y-114570000D03*
D10*
X137680000Y-114780000D03*
D20*
X137680000Y-115300000D03*
D17*
X137680000Y-115300000D03*
D18*
X180130000Y-107420000D03*
D10*
X180340000Y-107680000D03*
D19*
X180540000Y-107335000D03*
D13*
X180600000Y-106950000D03*
D10*
X180860000Y-107160000D03*
D17*
X180860000Y-107680000D03*
D20*
X180860000Y-107680000D03*
X192470000Y-107680000D03*
D15*
X191630000Y-107670000D03*
D11*
X192430000Y-107670000D03*
D18*
X191380000Y-107420000D03*
D22*
X191970000Y-107420000D03*
D16*
X191630000Y-107170000D03*
D12*
X192430000Y-107170000D03*
D10*
X192470000Y-107170000D03*
X160020000Y-111670000D03*
D11*
X160030000Y-110830000D03*
D12*
X160030000Y-111630000D03*
D13*
X160280000Y-110580000D03*
D14*
X160280000Y-111170000D03*
D15*
X160530000Y-110830000D03*
D16*
X160530000Y-111630000D03*
D17*
X160530000Y-111670000D03*
D18*
X124250000Y-115040000D03*
D10*
X124460000Y-115300000D03*
D19*
X124660000Y-114955000D03*
D13*
X124720000Y-114570000D03*
D10*
X124980000Y-114780000D03*
D20*
X124980000Y-115300000D03*
D17*
X124980000Y-115300000D03*
D18*
X177590000Y-109960000D03*
D10*
X177800000Y-110220000D03*
D19*
X178000000Y-109875000D03*
D13*
X178060000Y-109490000D03*
D10*
X178320000Y-109700000D03*
D20*
X178320000Y-110220000D03*
D17*
X178320000Y-110220000D03*
D10*
X137160000Y-109130000D03*
D11*
X137170000Y-108290000D03*
D12*
X137170000Y-109090000D03*
D13*
X137420000Y-108040000D03*
D14*
X137420000Y-108630000D03*
D15*
X137670000Y-108290000D03*
D16*
X137670000Y-109090000D03*
D17*
X137670000Y-109130000D03*
D20*
X189930000Y-115300000D03*
D15*
X189090000Y-115290000D03*
D11*
X189890000Y-115290000D03*
D18*
X188840000Y-115040000D03*
D22*
X189430000Y-115040000D03*
D16*
X189090000Y-114790000D03*
D12*
X189890000Y-114790000D03*
D10*
X189930000Y-114790000D03*
X154940000Y-111670000D03*
D11*
X154950000Y-110830000D03*
D12*
X154950000Y-111630000D03*
D13*
X155200000Y-110580000D03*
D14*
X155200000Y-111170000D03*
D15*
X155450000Y-110830000D03*
D16*
X155450000Y-111630000D03*
D17*
X155450000Y-111670000D03*
D21*
X148850000Y-116310000D03*
X148850000Y-108690000D03*
X192030000Y-116310000D03*
D20*
X141670000Y-115300000D03*
D15*
X140830000Y-115290000D03*
D11*
X141630000Y-115290000D03*
D18*
X140580000Y-115040000D03*
D22*
X141170000Y-115040000D03*
D16*
X140830000Y-114790000D03*
D12*
X141630000Y-114790000D03*
D10*
X141670000Y-114790000D03*
D21*
X192030000Y-108690000D03*
D10*
X170180000Y-111670000D03*
D11*
X170190000Y-110830000D03*
D12*
X170190000Y-111630000D03*
D13*
X170440000Y-110580000D03*
D14*
X170440000Y-111170000D03*
D15*
X170690000Y-110830000D03*
D16*
X170690000Y-111630000D03*
D17*
X170690000Y-111670000D03*
D23*
X120150000Y-106160000D03*
D18*
X175050000Y-109960000D03*
D10*
X175260000Y-110220000D03*
D19*
X175460000Y-109875000D03*
D13*
X175520000Y-109490000D03*
D10*
X175780000Y-109700000D03*
D20*
X175780000Y-110220000D03*
D17*
X175780000Y-110220000D03*
D10*
X160020000Y-114210000D03*
D11*
X160030000Y-113370000D03*
D12*
X160030000Y-114170000D03*
D13*
X160280000Y-113120000D03*
D14*
X160280000Y-113710000D03*
D15*
X160530000Y-113370000D03*
D16*
X160530000Y-114170000D03*
D17*
X160530000Y-114210000D03*
D21*
X125990000Y-103610000D03*
D20*
X156910000Y-112760000D03*
D15*
X156070000Y-112750000D03*
D11*
X156870000Y-112750000D03*
D18*
X155820000Y-112500000D03*
D22*
X156410000Y-112500000D03*
D16*
X156070000Y-112250000D03*
D12*
X156870000Y-112250000D03*
D10*
X156910000Y-112250000D03*
D21*
X179330000Y-111230000D03*
X148850000Y-106150000D03*
D18*
X190290000Y-107420000D03*
D10*
X190500000Y-107680000D03*
D19*
X190700000Y-107335000D03*
D13*
X190760000Y-106950000D03*
D10*
X191020000Y-107160000D03*
D17*
X191020000Y-107680000D03*
D20*
X191020000Y-107680000D03*
D18*
X124250000Y-109960000D03*
D10*
X124460000Y-110220000D03*
D19*
X124660000Y-109875000D03*
D13*
X124720000Y-109490000D03*
D10*
X124980000Y-109700000D03*
D20*
X124980000Y-110220000D03*
D17*
X124980000Y-110220000D03*
D10*
X149860000Y-116750000D03*
D11*
X149870000Y-115910000D03*
D12*
X149870000Y-116710000D03*
D13*
X150120000Y-115660000D03*
D14*
X150120000Y-116250000D03*
D15*
X150370000Y-115910000D03*
D16*
X150370000Y-116710000D03*
D17*
X150370000Y-116750000D03*
D10*
X162560000Y-109130000D03*
D11*
X162570000Y-108290000D03*
D12*
X162570000Y-109090000D03*
D13*
X162820000Y-108040000D03*
D14*
X162820000Y-108630000D03*
D15*
X163070000Y-108290000D03*
D16*
X163070000Y-109090000D03*
D17*
X163070000Y-109130000D03*
D20*
X141670000Y-107680000D03*
D15*
X140830000Y-107670000D03*
D11*
X141630000Y-107670000D03*
D18*
X140580000Y-107420000D03*
D22*
X141170000Y-107420000D03*
D16*
X140830000Y-107170000D03*
D12*
X141630000Y-107170000D03*
D10*
X141670000Y-107170000D03*
D18*
X175050000Y-104880000D03*
D10*
X175260000Y-105140000D03*
D19*
X175460000Y-104795000D03*
D13*
X175520000Y-104410000D03*
D10*
X175780000Y-104620000D03*
D20*
X175780000Y-105140000D03*
D17*
X175780000Y-105140000D03*
D10*
X157480000Y-109130000D03*
D11*
X157490000Y-108290000D03*
D12*
X157490000Y-109090000D03*
D13*
X157740000Y-108040000D03*
D14*
X157740000Y-108630000D03*
D15*
X157990000Y-108290000D03*
D16*
X157990000Y-109090000D03*
D17*
X157990000Y-109130000D03*
D21*
X174250000Y-116310000D03*
D10*
X167640000Y-109130000D03*
D11*
X167650000Y-108290000D03*
D12*
X167650000Y-109090000D03*
D13*
X167900000Y-108040000D03*
D14*
X167900000Y-108630000D03*
D15*
X168150000Y-108290000D03*
D16*
X168150000Y-109090000D03*
D17*
X168150000Y-109130000D03*
D10*
X142240000Y-114210000D03*
D11*
X142250000Y-113370000D03*
D12*
X142250000Y-114170000D03*
D13*
X142500000Y-113120000D03*
D14*
X142500000Y-113710000D03*
D15*
X142750000Y-113370000D03*
D16*
X142750000Y-114170000D03*
D17*
X142750000Y-114210000D03*
D20*
X182310000Y-112760000D03*
D15*
X181470000Y-112750000D03*
D11*
X182270000Y-112750000D03*
D18*
X181220000Y-112500000D03*
D22*
X181810000Y-112500000D03*
D16*
X181470000Y-112250000D03*
D12*
X182270000Y-112250000D03*
D10*
X182310000Y-112250000D03*
D18*
X142030000Y-107420000D03*
D10*
X142240000Y-107680000D03*
D19*
X142440000Y-107335000D03*
D13*
X142500000Y-106950000D03*
D10*
X142760000Y-107160000D03*
D20*
X142760000Y-107680000D03*
D17*
X142760000Y-107680000D03*
D20*
X164530000Y-110220000D03*
D15*
X163690000Y-110210000D03*
D11*
X164490000Y-110210000D03*
D18*
X163440000Y-109960000D03*
D22*
X164030000Y-109960000D03*
D16*
X163690000Y-109710000D03*
D12*
X164490000Y-109710000D03*
D10*
X164530000Y-109710000D03*
D20*
X139130000Y-107680000D03*
D15*
X138290000Y-107670000D03*
D11*
X139090000Y-107670000D03*
D18*
X138040000Y-107420000D03*
D22*
X138630000Y-107420000D03*
D16*
X138290000Y-107170000D03*
D12*
X139090000Y-107170000D03*
D10*
X139130000Y-107170000D03*
D21*
X179330000Y-116310000D03*
D20*
X139130000Y-110220000D03*
D15*
X138290000Y-110210000D03*
D11*
X139090000Y-110210000D03*
D18*
X138040000Y-109960000D03*
D22*
X138630000Y-109960000D03*
D16*
X138290000Y-109710000D03*
D12*
X139090000Y-109710000D03*
D10*
X139130000Y-109710000D03*
D21*
X153930000Y-113770000D03*
X146310000Y-103610000D03*
D10*
X162560000Y-104050000D03*
D11*
X162570000Y-103210000D03*
D12*
X162570000Y-104010000D03*
D13*
X162820000Y-102960000D03*
D14*
X162820000Y-103550000D03*
D15*
X163070000Y-103210000D03*
D16*
X163070000Y-104010000D03*
D17*
X163070000Y-104050000D03*
D10*
X187960000Y-111670000D03*
D11*
X187970000Y-110830000D03*
D12*
X187970000Y-111630000D03*
D13*
X188220000Y-110580000D03*
D14*
X188220000Y-111170000D03*
D15*
X188470000Y-110830000D03*
D16*
X188470000Y-111630000D03*
D17*
X188470000Y-111670000D03*
D10*
X147320000Y-104050000D03*
D11*
X147330000Y-103210000D03*
D12*
X147330000Y-104010000D03*
D13*
X147580000Y-102960000D03*
D14*
X147580000Y-103550000D03*
D15*
X147830000Y-103210000D03*
D16*
X147830000Y-104010000D03*
D17*
X147830000Y-104050000D03*
D10*
X177800000Y-114210000D03*
D11*
X177810000Y-113370000D03*
D12*
X177810000Y-114170000D03*
D13*
X178060000Y-113120000D03*
D14*
X178060000Y-113710000D03*
D15*
X178310000Y-113370000D03*
D16*
X178310000Y-114170000D03*
D17*
X178310000Y-114210000D03*
D21*
X156470000Y-111230000D03*
D10*
X177800000Y-116750000D03*
D11*
X177810000Y-115910000D03*
D12*
X177810000Y-116710000D03*
D13*
X178060000Y-115660000D03*
D14*
X178060000Y-116250000D03*
D15*
X178310000Y-115910000D03*
D16*
X178310000Y-116710000D03*
D17*
X178310000Y-116750000D03*
D20*
X154370000Y-107680000D03*
D15*
X153530000Y-107670000D03*
D11*
X154330000Y-107670000D03*
D18*
X153280000Y-107420000D03*
D22*
X153870000Y-107420000D03*
D16*
X153530000Y-107170000D03*
D12*
X154330000Y-107170000D03*
D10*
X154370000Y-107170000D03*
X142240000Y-116750000D03*
D11*
X142250000Y-115910000D03*
D12*
X142250000Y-116710000D03*
D13*
X142500000Y-115660000D03*
D14*
X142500000Y-116250000D03*
D15*
X142750000Y-115910000D03*
D16*
X142750000Y-116710000D03*
D17*
X142750000Y-116750000D03*
D21*
X161550000Y-111230000D03*
D10*
X170180000Y-109130000D03*
D11*
X170190000Y-108290000D03*
D12*
X170190000Y-109090000D03*
D13*
X170440000Y-108040000D03*
D14*
X170440000Y-108630000D03*
D15*
X170690000Y-108290000D03*
D16*
X170690000Y-109090000D03*
D17*
X170690000Y-109130000D03*
D21*
X131070000Y-116310000D03*
X143770000Y-113770000D03*
D20*
X169610000Y-115300000D03*
D15*
X168770000Y-115290000D03*
D11*
X169570000Y-115290000D03*
D18*
X168520000Y-115040000D03*
D22*
X169110000Y-115040000D03*
D16*
X168770000Y-114790000D03*
D12*
X169570000Y-114790000D03*
D10*
X169610000Y-114790000D03*
D21*
X169170000Y-108690000D03*
X161550000Y-108690000D03*
D10*
X162560000Y-111670000D03*
D11*
X162570000Y-110830000D03*
D12*
X162570000Y-111630000D03*
D13*
X162820000Y-110580000D03*
D14*
X162820000Y-111170000D03*
D15*
X163070000Y-110830000D03*
D16*
X163070000Y-111630000D03*
D17*
X163070000Y-111670000D03*
D10*
X185420000Y-104050000D03*
D11*
X185430000Y-103210000D03*
D12*
X185430000Y-104010000D03*
D13*
X185680000Y-102960000D03*
D14*
X185680000Y-103550000D03*
D15*
X185930000Y-103210000D03*
D16*
X185930000Y-104010000D03*
D17*
X185930000Y-104050000D03*
D20*
X136590000Y-115300000D03*
D15*
X135750000Y-115290000D03*
D11*
X136550000Y-115290000D03*
D18*
X135500000Y-115040000D03*
D22*
X136090000Y-115040000D03*
D16*
X135750000Y-114790000D03*
D12*
X136550000Y-114790000D03*
D10*
X136590000Y-114790000D03*
D21*
X186950000Y-106150000D03*
D18*
X131870000Y-109960000D03*
D10*
X132080000Y-110220000D03*
D19*
X132280000Y-109875000D03*
D13*
X132340000Y-109490000D03*
D10*
X132600000Y-109700000D03*
D20*
X132600000Y-110220000D03*
D17*
X132600000Y-110220000D03*
D21*
X136150000Y-108690000D03*
D20*
X161990000Y-115300000D03*
D15*
X161150000Y-115290000D03*
D11*
X161950000Y-115290000D03*
D18*
X160900000Y-115040000D03*
D22*
X161490000Y-115040000D03*
D16*
X161150000Y-114790000D03*
D12*
X161950000Y-114790000D03*
D10*
X161990000Y-114790000D03*
X182880000Y-104050000D03*
D11*
X182890000Y-103210000D03*
D12*
X182890000Y-104010000D03*
D13*
X183140000Y-102960000D03*
D14*
X183140000Y-103550000D03*
D15*
X183390000Y-103210000D03*
D16*
X183390000Y-104010000D03*
D17*
X183390000Y-104050000D03*
D18*
X157270000Y-104880000D03*
D10*
X157480000Y-105140000D03*
D19*
X157680000Y-104795000D03*
D13*
X157740000Y-104410000D03*
D10*
X158000000Y-104620000D03*
D20*
X158000000Y-105140000D03*
D17*
X158000000Y-105140000D03*
D21*
X176790000Y-111230000D03*
D20*
X189930000Y-112760000D03*
D15*
X189090000Y-112750000D03*
D11*
X189890000Y-112750000D03*
D18*
X188840000Y-112500000D03*
D22*
X189430000Y-112500000D03*
D16*
X189090000Y-112250000D03*
D12*
X189890000Y-112250000D03*
D10*
X189930000Y-112250000D03*
X167640000Y-104050000D03*
D11*
X167650000Y-103210000D03*
D12*
X167650000Y-104010000D03*
D13*
X167900000Y-102960000D03*
D14*
X167900000Y-103550000D03*
D15*
X168150000Y-103210000D03*
D16*
X168150000Y-104010000D03*
D17*
X168150000Y-104050000D03*
D21*
X159010000Y-113770000D03*
X189490000Y-116310000D03*
D20*
X172150000Y-107680000D03*
D15*
X171310000Y-107670000D03*
D11*
X172110000Y-107670000D03*
D18*
X171060000Y-107420000D03*
D22*
X171650000Y-107420000D03*
D16*
X171310000Y-107170000D03*
D12*
X172110000Y-107170000D03*
D10*
X172150000Y-107170000D03*
D20*
X161990000Y-105140000D03*
D15*
X161150000Y-105130000D03*
D11*
X161950000Y-105130000D03*
D18*
X160900000Y-104880000D03*
D22*
X161490000Y-104880000D03*
D16*
X161150000Y-104630000D03*
D12*
X161950000Y-104630000D03*
D10*
X161990000Y-104630000D03*
D18*
X162350000Y-109960000D03*
D10*
X162560000Y-110220000D03*
D19*
X162760000Y-109875000D03*
D13*
X162820000Y-109490000D03*
D10*
X163080000Y-109700000D03*
D20*
X163080000Y-110220000D03*
D17*
X163080000Y-110220000D03*
D10*
X172720000Y-116750000D03*
D11*
X172730000Y-115910000D03*
D12*
X172730000Y-116710000D03*
D13*
X172980000Y-115660000D03*
D14*
X172980000Y-116250000D03*
D15*
X173230000Y-115910000D03*
D16*
X173230000Y-116710000D03*
D17*
X173230000Y-116750000D03*
D10*
X149860000Y-111670000D03*
D11*
X149870000Y-110830000D03*
D12*
X149870000Y-111630000D03*
D13*
X150120000Y-110580000D03*
D14*
X150120000Y-111170000D03*
D15*
X150370000Y-110830000D03*
D16*
X150370000Y-111630000D03*
D17*
X150370000Y-111670000D03*
D21*
X189490000Y-111230000D03*
D20*
X182310000Y-107680000D03*
D15*
X181470000Y-107670000D03*
D11*
X182270000Y-107670000D03*
D18*
X181220000Y-107420000D03*
D22*
X181810000Y-107420000D03*
D16*
X181470000Y-107170000D03*
D12*
X182270000Y-107170000D03*
D10*
X182310000Y-107170000D03*
D18*
X190290000Y-112500000D03*
D10*
X190500000Y-112760000D03*
D19*
X190700000Y-112415000D03*
D13*
X190760000Y-112030000D03*
D10*
X191020000Y-112240000D03*
D17*
X191020000Y-112760000D03*
D20*
X191020000Y-112760000D03*
D18*
X172510000Y-109960000D03*
D10*
X172720000Y-110220000D03*
D19*
X172920000Y-109875000D03*
D13*
X172980000Y-109490000D03*
D10*
X173240000Y-109700000D03*
D17*
X173240000Y-110220000D03*
D20*
X173240000Y-110220000D03*
D21*
X131070000Y-106150000D03*
X148850000Y-111230000D03*
X146310000Y-113770000D03*
X138690000Y-113770000D03*
D10*
X142240000Y-111670000D03*
D11*
X142250000Y-110830000D03*
D12*
X142250000Y-111630000D03*
D13*
X142500000Y-110580000D03*
D14*
X142500000Y-111170000D03*
D15*
X142750000Y-110830000D03*
D16*
X142750000Y-111630000D03*
D17*
X142750000Y-111670000D03*
D21*
X159010000Y-111230000D03*
D18*
X169970000Y-104880000D03*
D10*
X170180000Y-105140000D03*
D19*
X170380000Y-104795000D03*
D13*
X170440000Y-104410000D03*
D10*
X170700000Y-104620000D03*
D17*
X170700000Y-105140000D03*
D20*
X170700000Y-105140000D03*
D21*
X164090000Y-111230000D03*
X161550000Y-116310000D03*
D20*
X134050000Y-112760000D03*
D15*
X133210000Y-112750000D03*
D11*
X134010000Y-112750000D03*
D18*
X132960000Y-112500000D03*
D22*
X133550000Y-112500000D03*
D16*
X133210000Y-112250000D03*
D12*
X134010000Y-112250000D03*
D10*
X134050000Y-112250000D03*
D20*
X128970000Y-107680000D03*
D15*
X128130000Y-107670000D03*
D11*
X128930000Y-107670000D03*
D18*
X127880000Y-107420000D03*
D22*
X128470000Y-107420000D03*
D16*
X128130000Y-107170000D03*
D12*
X128930000Y-107170000D03*
D10*
X128970000Y-107170000D03*
X127000000Y-111670000D03*
D11*
X127010000Y-110830000D03*
D12*
X127010000Y-111630000D03*
D13*
X127260000Y-110580000D03*
D14*
X127260000Y-111170000D03*
D15*
X127510000Y-110830000D03*
D16*
X127510000Y-111630000D03*
D17*
X127510000Y-111670000D03*
D18*
X172510000Y-107420000D03*
D10*
X172720000Y-107680000D03*
D19*
X172920000Y-107335000D03*
D13*
X172980000Y-106950000D03*
D10*
X173240000Y-107160000D03*
D20*
X173240000Y-107680000D03*
D17*
X173240000Y-107680000D03*
D21*
X143770000Y-103610000D03*
D10*
X129540000Y-104050000D03*
D11*
X129550000Y-103210000D03*
D12*
X129550000Y-104010000D03*
D13*
X129800000Y-102960000D03*
D14*
X129800000Y-103550000D03*
D15*
X130050000Y-103210000D03*
D16*
X130050000Y-104010000D03*
D17*
X130050000Y-104050000D03*
D20*
X146750000Y-110220000D03*
D15*
X145910000Y-110210000D03*
D11*
X146710000Y-110210000D03*
D18*
X145660000Y-109960000D03*
D22*
X146250000Y-109960000D03*
D16*
X145910000Y-109710000D03*
D12*
X146710000Y-109710000D03*
D10*
X146750000Y-109710000D03*
X175260000Y-104050000D03*
D11*
X175270000Y-103210000D03*
D12*
X175270000Y-104010000D03*
D13*
X175520000Y-102960000D03*
D14*
X175520000Y-103550000D03*
D15*
X175770000Y-103210000D03*
D16*
X175770000Y-104010000D03*
D17*
X175770000Y-104050000D03*
D10*
X154940000Y-116750000D03*
D11*
X154950000Y-115910000D03*
D12*
X154950000Y-116710000D03*
D13*
X155200000Y-115660000D03*
D14*
X155200000Y-116250000D03*
D15*
X155450000Y-115910000D03*
D16*
X155450000Y-116710000D03*
D17*
X155450000Y-116750000D03*
D21*
X146310000Y-111230000D03*
D18*
X182670000Y-107420000D03*
D10*
X182880000Y-107680000D03*
D19*
X183080000Y-107335000D03*
D13*
X183140000Y-106950000D03*
D10*
X183400000Y-107160000D03*
D20*
X183400000Y-107680000D03*
D17*
X183400000Y-107680000D03*
D20*
X134050000Y-115300000D03*
D15*
X133210000Y-115290000D03*
D11*
X134010000Y-115290000D03*
D18*
X132960000Y-115040000D03*
D22*
X133550000Y-115040000D03*
D16*
X133210000Y-114790000D03*
D12*
X134010000Y-114790000D03*
D10*
X134050000Y-114790000D03*
D21*
X123450000Y-103610000D03*
D20*
X164530000Y-105140000D03*
D15*
X163690000Y-105130000D03*
D11*
X164490000Y-105130000D03*
D18*
X163440000Y-104880000D03*
D22*
X164030000Y-104880000D03*
D16*
X163690000Y-104630000D03*
D12*
X164490000Y-104630000D03*
D10*
X164530000Y-104630000D03*
D18*
X187750000Y-112500000D03*
D10*
X187960000Y-112760000D03*
D19*
X188160000Y-112415000D03*
D13*
X188220000Y-112030000D03*
D10*
X188480000Y-112240000D03*
D20*
X188480000Y-112760000D03*
D17*
X188480000Y-112760000D03*
D10*
X139700000Y-116750000D03*
D11*
X139710000Y-115910000D03*
D12*
X139710000Y-116710000D03*
D13*
X139960000Y-115660000D03*
D14*
X139960000Y-116250000D03*
D15*
X140210000Y-115910000D03*
D16*
X140210000Y-116710000D03*
D17*
X140210000Y-116750000D03*
D20*
X189930000Y-110220000D03*
D15*
X189090000Y-110210000D03*
D11*
X189890000Y-110210000D03*
D18*
X188840000Y-109960000D03*
D22*
X189430000Y-109960000D03*
D16*
X189090000Y-109710000D03*
D12*
X189890000Y-109710000D03*
D10*
X189930000Y-109710000D03*
D20*
X187390000Y-115300000D03*
D15*
X186550000Y-115290000D03*
D11*
X187350000Y-115290000D03*
D18*
X186300000Y-115040000D03*
D22*
X186890000Y-115040000D03*
D16*
X186550000Y-114790000D03*
D12*
X187350000Y-114790000D03*
D10*
X187390000Y-114790000D03*
D21*
X192030000Y-111230000D03*
D10*
X134620000Y-104050000D03*
D11*
X134630000Y-103210000D03*
D12*
X134630000Y-104010000D03*
D13*
X134880000Y-102960000D03*
D14*
X134880000Y-103550000D03*
D15*
X135130000Y-103210000D03*
D16*
X135130000Y-104010000D03*
D17*
X135130000Y-104050000D03*
D18*
X144570000Y-112500000D03*
D10*
X144780000Y-112760000D03*
D19*
X144980000Y-112415000D03*
D13*
X145040000Y-112030000D03*
D10*
X145300000Y-112240000D03*
D17*
X145300000Y-112760000D03*
D20*
X145300000Y-112760000D03*
X177230000Y-112760000D03*
D15*
X176390000Y-112750000D03*
D11*
X177190000Y-112750000D03*
D18*
X176140000Y-112500000D03*
D22*
X176730000Y-112500000D03*
D16*
X176390000Y-112250000D03*
D12*
X177190000Y-112250000D03*
D10*
X177230000Y-112250000D03*
D21*
X161550000Y-106150000D03*
D18*
X134410000Y-109960000D03*
D10*
X134620000Y-110220000D03*
D19*
X134820000Y-109875000D03*
D13*
X134880000Y-109490000D03*
D10*
X135140000Y-109700000D03*
D17*
X135140000Y-110220000D03*
D20*
X135140000Y-110220000D03*
D18*
X162350000Y-104880000D03*
D10*
X162560000Y-105140000D03*
D19*
X162760000Y-104795000D03*
D13*
X162820000Y-104410000D03*
D10*
X163080000Y-104620000D03*
D17*
X163080000Y-105140000D03*
D20*
X163080000Y-105140000D03*
D21*
X184410000Y-116310000D03*
D10*
X162560000Y-116750000D03*
D11*
X162570000Y-115910000D03*
D12*
X162570000Y-116710000D03*
D13*
X162820000Y-115660000D03*
D14*
X162820000Y-116250000D03*
D15*
X163070000Y-115910000D03*
D16*
X163070000Y-116710000D03*
D17*
X163070000Y-116750000D03*
D10*
X157480000Y-116750000D03*
D11*
X157490000Y-115910000D03*
D12*
X157490000Y-116710000D03*
D13*
X157740000Y-115660000D03*
D14*
X157740000Y-116250000D03*
D15*
X157990000Y-115910000D03*
D16*
X157990000Y-116710000D03*
D17*
X157990000Y-116750000D03*
D20*
X131510000Y-115300000D03*
D15*
X130670000Y-115290000D03*
D11*
X131470000Y-115290000D03*
D18*
X130420000Y-115040000D03*
D22*
X131010000Y-115040000D03*
D16*
X130670000Y-114790000D03*
D12*
X131470000Y-114790000D03*
D10*
X131510000Y-114790000D03*
D20*
X179770000Y-107680000D03*
D15*
X178930000Y-107670000D03*
D11*
X179730000Y-107670000D03*
D18*
X178680000Y-107420000D03*
D22*
X179270000Y-107420000D03*
D16*
X178930000Y-107170000D03*
D12*
X179730000Y-107170000D03*
D10*
X179770000Y-107170000D03*
D21*
X136150000Y-116310000D03*
D10*
X137160000Y-116750000D03*
D11*
X137170000Y-115910000D03*
D12*
X137170000Y-116710000D03*
D13*
X137420000Y-115660000D03*
D14*
X137420000Y-116250000D03*
D15*
X137670000Y-115910000D03*
D16*
X137670000Y-116710000D03*
D17*
X137670000Y-116750000D03*
D10*
X132080000Y-114210000D03*
D11*
X132090000Y-113370000D03*
D12*
X132090000Y-114170000D03*
D13*
X132340000Y-113120000D03*
D14*
X132340000Y-113710000D03*
D15*
X132590000Y-113370000D03*
D16*
X132590000Y-114170000D03*
D17*
X132590000Y-114210000D03*
D21*
X153930000Y-103610000D03*
D10*
X177800000Y-111670000D03*
D11*
X177810000Y-110830000D03*
D12*
X177810000Y-111630000D03*
D13*
X178060000Y-110580000D03*
D14*
X178060000Y-111170000D03*
D15*
X178310000Y-110830000D03*
D16*
X178310000Y-111630000D03*
D17*
X178310000Y-111670000D03*
D10*
X144780000Y-109130000D03*
D11*
X144790000Y-108290000D03*
D12*
X144790000Y-109090000D03*
D13*
X145040000Y-108040000D03*
D14*
X145040000Y-108630000D03*
D15*
X145290000Y-108290000D03*
D16*
X145290000Y-109090000D03*
D17*
X145290000Y-109130000D03*
D18*
X190290000Y-109960000D03*
D10*
X190500000Y-110220000D03*
D19*
X190700000Y-109875000D03*
D13*
X190760000Y-109490000D03*
D10*
X191020000Y-109700000D03*
D17*
X191020000Y-110220000D03*
D20*
X191020000Y-110220000D03*
D21*
X179330000Y-113770000D03*
D18*
X180130000Y-109960000D03*
D10*
X180340000Y-110220000D03*
D19*
X180540000Y-109875000D03*
D13*
X180600000Y-109490000D03*
D10*
X180860000Y-109700000D03*
D20*
X180860000Y-110220000D03*
D17*
X180860000Y-110220000D03*
D18*
X139490000Y-115040000D03*
D10*
X139700000Y-115300000D03*
D19*
X139900000Y-114955000D03*
D13*
X139960000Y-114570000D03*
D10*
X140220000Y-114780000D03*
D20*
X140220000Y-115300000D03*
D17*
X140220000Y-115300000D03*
D20*
X167070000Y-105140000D03*
D15*
X166230000Y-105130000D03*
D11*
X167030000Y-105130000D03*
D18*
X165980000Y-104880000D03*
D22*
X166570000Y-104880000D03*
D16*
X166230000Y-104630000D03*
D12*
X167030000Y-104630000D03*
D10*
X167070000Y-104630000D03*
D20*
X131510000Y-110220000D03*
D15*
X130670000Y-110210000D03*
D11*
X131470000Y-110210000D03*
D18*
X130420000Y-109960000D03*
D22*
X131010000Y-109960000D03*
D16*
X130670000Y-109710000D03*
D12*
X131470000Y-109710000D03*
D10*
X131510000Y-109710000D03*
X157480000Y-111670000D03*
D11*
X157490000Y-110830000D03*
D12*
X157490000Y-111630000D03*
D13*
X157740000Y-110580000D03*
D14*
X157740000Y-111170000D03*
D15*
X157990000Y-110830000D03*
D16*
X157990000Y-111630000D03*
D17*
X157990000Y-111670000D03*
D21*
X164090000Y-113770000D03*
X179330000Y-103610000D03*
X123450000Y-106150000D03*
D10*
X124460000Y-109130000D03*
D11*
X124470000Y-108290000D03*
D12*
X124470000Y-109090000D03*
D13*
X124720000Y-108040000D03*
D14*
X124720000Y-108630000D03*
D15*
X124970000Y-108290000D03*
D16*
X124970000Y-109090000D03*
D17*
X124970000Y-109130000D03*
D10*
X134620000Y-116750000D03*
D11*
X134630000Y-115910000D03*
D12*
X134630000Y-116710000D03*
D13*
X134880000Y-115660000D03*
D14*
X134880000Y-116250000D03*
D15*
X135130000Y-115910000D03*
D16*
X135130000Y-116710000D03*
D17*
X135130000Y-116750000D03*
D20*
X182310000Y-105140000D03*
D15*
X181470000Y-105130000D03*
D11*
X182270000Y-105130000D03*
D18*
X181220000Y-104880000D03*
D22*
X181810000Y-104880000D03*
D16*
X181470000Y-104630000D03*
D12*
X182270000Y-104630000D03*
D10*
X182310000Y-104630000D03*
X134620000Y-111670000D03*
D11*
X134630000Y-110830000D03*
D12*
X134630000Y-111630000D03*
D13*
X134880000Y-110580000D03*
D14*
X134880000Y-111170000D03*
D15*
X135130000Y-110830000D03*
D16*
X135130000Y-111630000D03*
D17*
X135130000Y-111670000D03*
D10*
X124460000Y-116750000D03*
D11*
X124470000Y-115910000D03*
D12*
X124470000Y-116710000D03*
D13*
X124720000Y-115660000D03*
D14*
X124720000Y-116250000D03*
D15*
X124970000Y-115910000D03*
D16*
X124970000Y-116710000D03*
D17*
X124970000Y-116750000D03*
D21*
X123450000Y-116310000D03*
D10*
X172720000Y-114210000D03*
D11*
X172730000Y-113370000D03*
D12*
X172730000Y-114170000D03*
D13*
X172980000Y-113120000D03*
D14*
X172980000Y-113710000D03*
D15*
X173230000Y-113370000D03*
D16*
X173230000Y-114170000D03*
D17*
X173230000Y-114210000D03*
D18*
X177590000Y-107420000D03*
D10*
X177800000Y-107680000D03*
D19*
X178000000Y-107335000D03*
D13*
X178060000Y-106950000D03*
D10*
X178320000Y-107160000D03*
D17*
X178320000Y-107680000D03*
D20*
X178320000Y-107680000D03*
D21*
X181870000Y-108690000D03*
D18*
X124250000Y-107420000D03*
D10*
X124460000Y-107680000D03*
D19*
X124660000Y-107335000D03*
D13*
X124720000Y-106950000D03*
D10*
X124980000Y-107160000D03*
D20*
X124980000Y-107680000D03*
D17*
X124980000Y-107680000D03*
D10*
X154940000Y-106590000D03*
D11*
X154950000Y-105750000D03*
D12*
X154950000Y-106550000D03*
D13*
X155200000Y-105500000D03*
D14*
X155200000Y-106090000D03*
D15*
X155450000Y-105750000D03*
D16*
X155450000Y-106550000D03*
D17*
X155450000Y-106590000D03*
D18*
X149650000Y-107420000D03*
D10*
X149860000Y-107680000D03*
D19*
X150060000Y-107335000D03*
D13*
X150120000Y-106950000D03*
D10*
X150380000Y-107160000D03*
D20*
X150380000Y-107680000D03*
D17*
X150380000Y-107680000D03*
D20*
X167070000Y-112760000D03*
D15*
X166230000Y-112750000D03*
D11*
X167030000Y-112750000D03*
D18*
X165980000Y-112500000D03*
D22*
X166570000Y-112500000D03*
D16*
X166230000Y-112250000D03*
D12*
X167030000Y-112250000D03*
D10*
X167070000Y-112250000D03*
D18*
X167430000Y-104880000D03*
D10*
X167640000Y-105140000D03*
D19*
X167840000Y-104795000D03*
D13*
X167900000Y-104410000D03*
D10*
X168160000Y-104620000D03*
D20*
X168160000Y-105140000D03*
D17*
X168160000Y-105140000D03*
D21*
X141230000Y-113770000D03*
D18*
X175050000Y-112500000D03*
D10*
X175260000Y-112760000D03*
D19*
X175460000Y-112415000D03*
D13*
X175520000Y-112030000D03*
D10*
X175780000Y-112240000D03*
D17*
X175780000Y-112760000D03*
D20*
X175780000Y-112760000D03*
D10*
X132080000Y-106590000D03*
D11*
X132090000Y-105750000D03*
D12*
X132090000Y-106550000D03*
D13*
X132340000Y-105500000D03*
D14*
X132340000Y-106090000D03*
D15*
X132590000Y-105750000D03*
D16*
X132590000Y-106550000D03*
D17*
X132590000Y-106590000D03*
D10*
X170180000Y-114210000D03*
D11*
X170190000Y-113370000D03*
D12*
X170190000Y-114170000D03*
D13*
X170440000Y-113120000D03*
D14*
X170440000Y-113710000D03*
D15*
X170690000Y-113370000D03*
D16*
X170690000Y-114170000D03*
D17*
X170690000Y-114210000D03*
D10*
X175260000Y-106590000D03*
D11*
X175270000Y-105750000D03*
D12*
X175270000Y-106550000D03*
D13*
X175520000Y-105500000D03*
D14*
X175520000Y-106090000D03*
D15*
X175770000Y-105750000D03*
D16*
X175770000Y-106550000D03*
D17*
X175770000Y-106590000D03*
D20*
X126430000Y-105140000D03*
D15*
X125590000Y-105130000D03*
D11*
X126390000Y-105130000D03*
D18*
X125340000Y-104880000D03*
D22*
X125930000Y-104880000D03*
D16*
X125590000Y-104630000D03*
D12*
X126390000Y-104630000D03*
D10*
X126430000Y-104630000D03*
D20*
X187390000Y-105140000D03*
D15*
X186550000Y-105130000D03*
D11*
X187350000Y-105130000D03*
D18*
X186300000Y-104880000D03*
D22*
X186890000Y-104880000D03*
D16*
X186550000Y-104630000D03*
D12*
X187350000Y-104630000D03*
D10*
X187390000Y-104630000D03*
D21*
X153930000Y-116310000D03*
D10*
X137160000Y-106590000D03*
D11*
X137170000Y-105750000D03*
D12*
X137170000Y-106550000D03*
D13*
X137420000Y-105500000D03*
D14*
X137420000Y-106090000D03*
D15*
X137670000Y-105750000D03*
D16*
X137670000Y-106550000D03*
D17*
X137670000Y-106590000D03*
D20*
X167070000Y-110220000D03*
D15*
X166230000Y-110210000D03*
D11*
X167030000Y-110210000D03*
D18*
X165980000Y-109960000D03*
D22*
X166570000Y-109960000D03*
D16*
X166230000Y-109710000D03*
D12*
X167030000Y-109710000D03*
D10*
X167070000Y-109710000D03*
D18*
X136950000Y-104880000D03*
D10*
X137160000Y-105140000D03*
D19*
X137360000Y-104795000D03*
D13*
X137420000Y-104410000D03*
D10*
X137680000Y-104620000D03*
D17*
X137680000Y-105140000D03*
D20*
X137680000Y-105140000D03*
D10*
X134620000Y-109130000D03*
D11*
X134630000Y-108290000D03*
D12*
X134630000Y-109090000D03*
D13*
X134880000Y-108040000D03*
D14*
X134880000Y-108630000D03*
D15*
X135130000Y-108290000D03*
D16*
X135130000Y-109090000D03*
D17*
X135130000Y-109130000D03*
D18*
X159810000Y-104880000D03*
D10*
X160020000Y-105140000D03*
D19*
X160220000Y-104795000D03*
D13*
X160280000Y-104410000D03*
D10*
X160540000Y-104620000D03*
D17*
X160540000Y-105140000D03*
D20*
X160540000Y-105140000D03*
D18*
X180130000Y-115040000D03*
D10*
X180340000Y-115300000D03*
D19*
X180540000Y-114955000D03*
D13*
X180600000Y-114570000D03*
D10*
X180860000Y-114780000D03*
D20*
X180860000Y-115300000D03*
D17*
X180860000Y-115300000D03*
D10*
X129540000Y-109130000D03*
D11*
X129550000Y-108290000D03*
D12*
X129550000Y-109090000D03*
D13*
X129800000Y-108040000D03*
D14*
X129800000Y-108630000D03*
D15*
X130050000Y-108290000D03*
D16*
X130050000Y-109090000D03*
D17*
X130050000Y-109130000D03*
D10*
X190500000Y-116750000D03*
D11*
X190510000Y-115910000D03*
D12*
X190510000Y-116710000D03*
D13*
X190760000Y-115660000D03*
D14*
X190760000Y-116250000D03*
D15*
X191010000Y-115910000D03*
D16*
X191010000Y-116710000D03*
D17*
X191010000Y-116750000D03*
D21*
X181870000Y-116310000D03*
D10*
X180340000Y-111670000D03*
D11*
X180350000Y-110830000D03*
D12*
X180350000Y-111630000D03*
D13*
X180600000Y-110580000D03*
D14*
X180600000Y-111170000D03*
D15*
X180850000Y-110830000D03*
D16*
X180850000Y-111630000D03*
D17*
X180850000Y-111670000D03*
D18*
X159810000Y-109960000D03*
D10*
X160020000Y-110220000D03*
D19*
X160220000Y-109875000D03*
D13*
X160280000Y-109490000D03*
D10*
X160540000Y-109700000D03*
D17*
X160540000Y-110220000D03*
D20*
X160540000Y-110220000D03*
D21*
X176790000Y-106150000D03*
D10*
X177800000Y-106590000D03*
D11*
X177810000Y-105750000D03*
D12*
X177810000Y-106550000D03*
D13*
X178060000Y-105500000D03*
D14*
X178060000Y-106090000D03*
D15*
X178310000Y-105750000D03*
D16*
X178310000Y-106550000D03*
D17*
X178310000Y-106590000D03*
D20*
X141670000Y-112760000D03*
D15*
X140830000Y-112750000D03*
D11*
X141630000Y-112750000D03*
D18*
X140580000Y-112500000D03*
D22*
X141170000Y-112500000D03*
D16*
X140830000Y-112250000D03*
D12*
X141630000Y-112250000D03*
D10*
X141670000Y-112250000D03*
D20*
X169610000Y-105140000D03*
D15*
X168770000Y-105130000D03*
D11*
X169570000Y-105130000D03*
D18*
X168520000Y-104880000D03*
D22*
X169110000Y-104880000D03*
D16*
X168770000Y-104630000D03*
D12*
X169570000Y-104630000D03*
D10*
X169610000Y-104630000D03*
X127000000Y-114210000D03*
D11*
X127010000Y-113370000D03*
D12*
X127010000Y-114170000D03*
D13*
X127260000Y-113120000D03*
D14*
X127260000Y-113710000D03*
D15*
X127510000Y-113370000D03*
D16*
X127510000Y-114170000D03*
D17*
X127510000Y-114210000D03*
D18*
X167430000Y-115040000D03*
D10*
X167640000Y-115300000D03*
D19*
X167840000Y-114955000D03*
D13*
X167900000Y-114570000D03*
D10*
X168160000Y-114780000D03*
D20*
X168160000Y-115300000D03*
D17*
X168160000Y-115300000D03*
D21*
X192030000Y-103610000D03*
X181870000Y-113770000D03*
D10*
X185420000Y-106590000D03*
D11*
X185430000Y-105750000D03*
D12*
X185430000Y-106550000D03*
D13*
X185680000Y-105500000D03*
D14*
X185680000Y-106090000D03*
D15*
X185930000Y-105750000D03*
D16*
X185930000Y-106550000D03*
D17*
X185930000Y-106590000D03*
D21*
X141230000Y-103610000D03*
X136150000Y-111230000D03*
D20*
X159450000Y-115300000D03*
D15*
X158610000Y-115290000D03*
D11*
X159410000Y-115290000D03*
D18*
X158360000Y-115040000D03*
D22*
X158950000Y-115040000D03*
D16*
X158610000Y-114790000D03*
D12*
X159410000Y-114790000D03*
D10*
X159450000Y-114790000D03*
D21*
X189490000Y-106150000D03*
D10*
X124460000Y-111670000D03*
D11*
X124470000Y-110830000D03*
D12*
X124470000Y-111630000D03*
D13*
X124720000Y-110580000D03*
D14*
X124720000Y-111170000D03*
D15*
X124970000Y-110830000D03*
D16*
X124970000Y-111630000D03*
D17*
X124970000Y-111670000D03*
D20*
X184850000Y-107680000D03*
D15*
X184010000Y-107670000D03*
D11*
X184810000Y-107670000D03*
D18*
X183760000Y-107420000D03*
D22*
X184350000Y-107420000D03*
D16*
X184010000Y-107170000D03*
D12*
X184810000Y-107170000D03*
D10*
X184850000Y-107170000D03*
D21*
X184410000Y-113770000D03*
D18*
X147110000Y-112500000D03*
D10*
X147320000Y-112760000D03*
D19*
X147520000Y-112415000D03*
D13*
X147580000Y-112030000D03*
D10*
X147840000Y-112240000D03*
D17*
X147840000Y-112760000D03*
D20*
X147840000Y-112760000D03*
D10*
X157480000Y-104050000D03*
D11*
X157490000Y-103210000D03*
D12*
X157490000Y-104010000D03*
D13*
X157740000Y-102960000D03*
D14*
X157740000Y-103550000D03*
D15*
X157990000Y-103210000D03*
D16*
X157990000Y-104010000D03*
D17*
X157990000Y-104050000D03*
D10*
X132080000Y-109130000D03*
D11*
X132090000Y-108290000D03*
D12*
X132090000Y-109090000D03*
D13*
X132340000Y-108040000D03*
D14*
X132340000Y-108630000D03*
D15*
X132590000Y-108290000D03*
D16*
X132590000Y-109090000D03*
D17*
X132590000Y-109130000D03*
D21*
X169170000Y-113770000D03*
D10*
X160020000Y-116750000D03*
D11*
X160030000Y-115910000D03*
D12*
X160030000Y-116710000D03*
D13*
X160280000Y-115660000D03*
D14*
X160280000Y-116250000D03*
D15*
X160530000Y-115910000D03*
D16*
X160530000Y-116710000D03*
D17*
X160530000Y-116750000D03*
D21*
X141230000Y-106150000D03*
D18*
X159810000Y-115040000D03*
D10*
X160020000Y-115300000D03*
D19*
X160220000Y-114955000D03*
D13*
X160280000Y-114570000D03*
D10*
X160540000Y-114780000D03*
D17*
X160540000Y-115300000D03*
D20*
X160540000Y-115300000D03*
X123890000Y-115300000D03*
D15*
X123050000Y-115290000D03*
D11*
X123850000Y-115290000D03*
D18*
X122800000Y-115040000D03*
D22*
X123390000Y-115040000D03*
D16*
X123050000Y-114790000D03*
D12*
X123850000Y-114790000D03*
D10*
X123890000Y-114790000D03*
X149860000Y-109130000D03*
D11*
X149870000Y-108290000D03*
D12*
X149870000Y-109090000D03*
D13*
X150120000Y-108040000D03*
D14*
X150120000Y-108630000D03*
D15*
X150370000Y-108290000D03*
D16*
X150370000Y-109090000D03*
D17*
X150370000Y-109130000D03*
D10*
X152400000Y-106590000D03*
D11*
X152410000Y-105750000D03*
D12*
X152410000Y-106550000D03*
D13*
X152660000Y-105500000D03*
D14*
X152660000Y-106090000D03*
D15*
X152910000Y-105750000D03*
D16*
X152910000Y-106550000D03*
D17*
X152910000Y-106590000D03*
D18*
X182670000Y-112500000D03*
D10*
X182880000Y-112760000D03*
D19*
X183080000Y-112415000D03*
D13*
X183140000Y-112030000D03*
D10*
X183400000Y-112240000D03*
D17*
X183400000Y-112760000D03*
D20*
X183400000Y-112760000D03*
D10*
X139700000Y-106590000D03*
D11*
X139710000Y-105750000D03*
D12*
X139710000Y-106550000D03*
D13*
X139960000Y-105500000D03*
D14*
X139960000Y-106090000D03*
D15*
X140210000Y-105750000D03*
D16*
X140210000Y-106550000D03*
D17*
X140210000Y-106590000D03*
D21*
X164090000Y-116310000D03*
X169170000Y-116310000D03*
D18*
X157270000Y-115040000D03*
D10*
X157480000Y-115300000D03*
D19*
X157680000Y-114955000D03*
D13*
X157740000Y-114570000D03*
D10*
X158000000Y-114780000D03*
D20*
X158000000Y-115300000D03*
D17*
X158000000Y-115300000D03*
D18*
X126790000Y-107420000D03*
D10*
X127000000Y-107680000D03*
D19*
X127200000Y-107335000D03*
D13*
X127260000Y-106950000D03*
D10*
X127520000Y-107160000D03*
D20*
X127520000Y-107680000D03*
D17*
X127520000Y-107680000D03*
D18*
X142030000Y-109960000D03*
D10*
X142240000Y-110220000D03*
D19*
X142440000Y-109875000D03*
D13*
X142500000Y-109490000D03*
D10*
X142760000Y-109700000D03*
D17*
X142760000Y-110220000D03*
D20*
X142760000Y-110220000D03*
D21*
X169170000Y-111230000D03*
D10*
X160020000Y-109130000D03*
D11*
X160030000Y-108290000D03*
D12*
X160030000Y-109090000D03*
D13*
X160280000Y-108040000D03*
D14*
X160280000Y-108630000D03*
D15*
X160530000Y-108290000D03*
D16*
X160530000Y-109090000D03*
D17*
X160530000Y-109130000D03*
D10*
X132080000Y-104050000D03*
D11*
X132090000Y-103210000D03*
D12*
X132090000Y-104010000D03*
D13*
X132340000Y-102960000D03*
D14*
X132340000Y-103550000D03*
D15*
X132590000Y-103210000D03*
D16*
X132590000Y-104010000D03*
D17*
X132590000Y-104050000D03*
D20*
X154370000Y-110220000D03*
D15*
X153530000Y-110210000D03*
D11*
X154330000Y-110210000D03*
D18*
X153280000Y-109960000D03*
D22*
X153870000Y-109960000D03*
D16*
X153530000Y-109710000D03*
D12*
X154330000Y-109710000D03*
D10*
X154370000Y-109710000D03*
D21*
X138690000Y-111230000D03*
X181870000Y-106150000D03*
D23*
X195334000Y-108700000D03*
D21*
X181870000Y-103610000D03*
X164090000Y-108690000D03*
D10*
X152400000Y-109130000D03*
D11*
X152410000Y-108290000D03*
D12*
X152410000Y-109090000D03*
D13*
X152660000Y-108040000D03*
D14*
X152660000Y-108630000D03*
D15*
X152910000Y-108290000D03*
D16*
X152910000Y-109090000D03*
D17*
X152910000Y-109130000D03*
D21*
X179330000Y-106150000D03*
D10*
X144780000Y-111670000D03*
D11*
X144790000Y-110830000D03*
D12*
X144790000Y-111630000D03*
D13*
X145040000Y-110580000D03*
D14*
X145040000Y-111170000D03*
D15*
X145290000Y-110830000D03*
D16*
X145290000Y-111630000D03*
D17*
X145290000Y-111670000D03*
D23*
X120150000Y-113780000D03*
D21*
X143770000Y-111230000D03*
D10*
X127000000Y-109130000D03*
D11*
X127010000Y-108290000D03*
D12*
X127010000Y-109090000D03*
D13*
X127260000Y-108040000D03*
D14*
X127260000Y-108630000D03*
D15*
X127510000Y-108290000D03*
D16*
X127510000Y-109090000D03*
D17*
X127510000Y-109130000D03*
D21*
X166630000Y-108690000D03*
D18*
X182670000Y-104880000D03*
D10*
X182880000Y-105140000D03*
D19*
X183080000Y-104795000D03*
D13*
X183140000Y-104410000D03*
D10*
X183400000Y-104620000D03*
D20*
X183400000Y-105140000D03*
D17*
X183400000Y-105140000D03*
D21*
X166630000Y-103610000D03*
D18*
X144570000Y-115040000D03*
D10*
X144780000Y-115300000D03*
D19*
X144980000Y-114955000D03*
D13*
X145040000Y-114570000D03*
D10*
X145300000Y-114780000D03*
D20*
X145300000Y-115300000D03*
D17*
X145300000Y-115300000D03*
D10*
X134620000Y-114210000D03*
D11*
X134630000Y-113370000D03*
D12*
X134630000Y-114170000D03*
D13*
X134880000Y-113120000D03*
D14*
X134880000Y-113710000D03*
D15*
X135130000Y-113370000D03*
D16*
X135130000Y-114170000D03*
D17*
X135130000Y-114210000D03*
D20*
X134050000Y-110220000D03*
D15*
X133210000Y-110210000D03*
D11*
X134010000Y-110210000D03*
D18*
X132960000Y-109960000D03*
D22*
X133550000Y-109960000D03*
D16*
X133210000Y-109710000D03*
D12*
X134010000Y-109710000D03*
D10*
X134050000Y-109710000D03*
D21*
X166630000Y-106150000D03*
D10*
X180340000Y-106590000D03*
D11*
X180350000Y-105750000D03*
D12*
X180350000Y-106550000D03*
D13*
X180600000Y-105500000D03*
D14*
X180600000Y-106090000D03*
D15*
X180850000Y-105750000D03*
D16*
X180850000Y-106550000D03*
D17*
X180850000Y-106590000D03*
D18*
X157270000Y-107420000D03*
D10*
X157480000Y-107680000D03*
D19*
X157680000Y-107335000D03*
D13*
X157740000Y-106950000D03*
D10*
X158000000Y-107160000D03*
D17*
X158000000Y-107680000D03*
D20*
X158000000Y-107680000D03*
X126430000Y-107680000D03*
D15*
X125590000Y-107670000D03*
D11*
X126390000Y-107670000D03*
D18*
X125340000Y-107420000D03*
D22*
X125930000Y-107420000D03*
D16*
X125590000Y-107170000D03*
D12*
X126390000Y-107170000D03*
D10*
X126430000Y-107170000D03*
D20*
X126430000Y-112760000D03*
D15*
X125590000Y-112750000D03*
D11*
X126390000Y-112750000D03*
D18*
X125340000Y-112500000D03*
D22*
X125930000Y-112500000D03*
D16*
X125590000Y-112250000D03*
D12*
X126390000Y-112250000D03*
D10*
X126430000Y-112250000D03*
D18*
X187750000Y-107420000D03*
D10*
X187960000Y-107680000D03*
D19*
X188160000Y-107335000D03*
D13*
X188220000Y-106950000D03*
D10*
X188480000Y-107160000D03*
D20*
X188480000Y-107680000D03*
D17*
X188480000Y-107680000D03*
D18*
X129330000Y-115040000D03*
D10*
X129540000Y-115300000D03*
D19*
X129740000Y-114955000D03*
D13*
X129800000Y-114570000D03*
D10*
X130060000Y-114780000D03*
D20*
X130060000Y-115300000D03*
D17*
X130060000Y-115300000D03*
D20*
X151830000Y-115300000D03*
D15*
X150990000Y-115290000D03*
D11*
X151790000Y-115290000D03*
D18*
X150740000Y-115040000D03*
D22*
X151330000Y-115040000D03*
D16*
X150990000Y-114790000D03*
D12*
X151790000Y-114790000D03*
D10*
X151830000Y-114790000D03*
D18*
X175050000Y-107420000D03*
D10*
X175260000Y-107680000D03*
D19*
X175460000Y-107335000D03*
D13*
X175520000Y-106950000D03*
D10*
X175780000Y-107160000D03*
D20*
X175780000Y-107680000D03*
D17*
X175780000Y-107680000D03*
D18*
X144570000Y-104880000D03*
D10*
X144780000Y-105140000D03*
D19*
X144980000Y-104795000D03*
D13*
X145040000Y-104410000D03*
D10*
X145300000Y-104620000D03*
D20*
X145300000Y-105140000D03*
D17*
X145300000Y-105140000D03*
D21*
X189490000Y-113770000D03*
D18*
X134410000Y-115040000D03*
D10*
X134620000Y-115300000D03*
D19*
X134820000Y-114955000D03*
D13*
X134880000Y-114570000D03*
D10*
X135140000Y-114780000D03*
D20*
X135140000Y-115300000D03*
D17*
X135140000Y-115300000D03*
D21*
X151390000Y-116310000D03*
X143770000Y-108690000D03*
D18*
X124250000Y-104880000D03*
D10*
X124460000Y-105140000D03*
D19*
X124660000Y-104795000D03*
D13*
X124720000Y-104410000D03*
D10*
X124980000Y-104620000D03*
D17*
X124980000Y-105140000D03*
D20*
X124980000Y-105140000D03*
D21*
X138690000Y-103610000D03*
D10*
X190500000Y-109130000D03*
D11*
X190510000Y-108290000D03*
D12*
X190510000Y-109090000D03*
D13*
X190760000Y-108040000D03*
D14*
X190760000Y-108630000D03*
D15*
X191010000Y-108290000D03*
D16*
X191010000Y-109090000D03*
D17*
X191010000Y-109130000D03*
D18*
X164890000Y-104880000D03*
D10*
X165100000Y-105140000D03*
D19*
X165300000Y-104795000D03*
D13*
X165360000Y-104410000D03*
D10*
X165620000Y-104620000D03*
D20*
X165620000Y-105140000D03*
D17*
X165620000Y-105140000D03*
D18*
X159810000Y-112500000D03*
D10*
X160020000Y-112760000D03*
D19*
X160220000Y-112415000D03*
D13*
X160280000Y-112030000D03*
D10*
X160540000Y-112240000D03*
D20*
X160540000Y-112760000D03*
D17*
X160540000Y-112760000D03*
D18*
X131870000Y-107420000D03*
D10*
X132080000Y-107680000D03*
D19*
X132280000Y-107335000D03*
D13*
X132340000Y-106950000D03*
D10*
X132600000Y-107160000D03*
D17*
X132600000Y-107680000D03*
D20*
X132600000Y-107680000D03*
D21*
X186950000Y-113770000D03*
D10*
X127000000Y-116750000D03*
D11*
X127010000Y-115910000D03*
D12*
X127010000Y-116710000D03*
D13*
X127260000Y-115660000D03*
D14*
X127260000Y-116250000D03*
D15*
X127510000Y-115910000D03*
D16*
X127510000Y-116710000D03*
D17*
X127510000Y-116750000D03*
D20*
X156910000Y-115300000D03*
D15*
X156070000Y-115290000D03*
D11*
X156870000Y-115290000D03*
D18*
X155820000Y-115040000D03*
D22*
X156410000Y-115040000D03*
D16*
X156070000Y-114790000D03*
D12*
X156870000Y-114790000D03*
D10*
X156910000Y-114790000D03*
D18*
X147110000Y-115040000D03*
D10*
X147320000Y-115300000D03*
D19*
X147520000Y-114955000D03*
D13*
X147580000Y-114570000D03*
D10*
X147840000Y-114780000D03*
D17*
X147840000Y-115300000D03*
D20*
X147840000Y-115300000D03*
D10*
X187960000Y-104050000D03*
D11*
X187970000Y-103210000D03*
D12*
X187970000Y-104010000D03*
D13*
X188220000Y-102960000D03*
D14*
X188220000Y-103550000D03*
D15*
X188470000Y-103210000D03*
D16*
X188470000Y-104010000D03*
D17*
X188470000Y-104050000D03*
D20*
X128970000Y-110220000D03*
D15*
X128130000Y-110210000D03*
D11*
X128930000Y-110210000D03*
D18*
X127880000Y-109960000D03*
D22*
X128470000Y-109960000D03*
D16*
X128130000Y-109710000D03*
D12*
X128930000Y-109710000D03*
D10*
X128970000Y-109710000D03*
D21*
X176790000Y-116310000D03*
X123450000Y-113770000D03*
D20*
X123890000Y-112760000D03*
D15*
X123050000Y-112750000D03*
D11*
X123850000Y-112750000D03*
D18*
X122800000Y-112500000D03*
D22*
X123390000Y-112500000D03*
D16*
X123050000Y-112250000D03*
D12*
X123850000Y-112250000D03*
D10*
X123890000Y-112250000D03*
D20*
X177230000Y-115300000D03*
D15*
X176390000Y-115290000D03*
D11*
X177190000Y-115290000D03*
D18*
X176140000Y-115040000D03*
D22*
X176730000Y-115040000D03*
D16*
X176390000Y-114790000D03*
D12*
X177190000Y-114790000D03*
D10*
X177230000Y-114790000D03*
D20*
X156910000Y-107680000D03*
D15*
X156070000Y-107670000D03*
D11*
X156870000Y-107670000D03*
D18*
X155820000Y-107420000D03*
D22*
X156410000Y-107420000D03*
D16*
X156070000Y-107170000D03*
D12*
X156870000Y-107170000D03*
D10*
X156910000Y-107170000D03*
X147320000Y-109130000D03*
D11*
X147330000Y-108290000D03*
D12*
X147330000Y-109090000D03*
D13*
X147580000Y-108040000D03*
D14*
X147580000Y-108630000D03*
D15*
X147830000Y-108290000D03*
D16*
X147830000Y-109090000D03*
D17*
X147830000Y-109130000D03*
D10*
X182880000Y-106590000D03*
D11*
X182890000Y-105750000D03*
D12*
X182890000Y-106550000D03*
D13*
X183140000Y-105500000D03*
D14*
X183140000Y-106090000D03*
D15*
X183390000Y-105750000D03*
D16*
X183390000Y-106550000D03*
D17*
X183390000Y-106590000D03*
D21*
X128530000Y-106150000D03*
D18*
X152190000Y-104880000D03*
D10*
X152400000Y-105140000D03*
D19*
X152600000Y-104795000D03*
D13*
X152660000Y-104410000D03*
D10*
X152920000Y-104620000D03*
D20*
X152920000Y-105140000D03*
D17*
X152920000Y-105140000D03*
D10*
X144780000Y-106590000D03*
D11*
X144790000Y-105750000D03*
D12*
X144790000Y-106550000D03*
D13*
X145040000Y-105500000D03*
D14*
X145040000Y-106090000D03*
D15*
X145290000Y-105750000D03*
D16*
X145290000Y-106550000D03*
D17*
X145290000Y-106590000D03*
D20*
X136590000Y-110220000D03*
D15*
X135750000Y-110210000D03*
D11*
X136550000Y-110210000D03*
D18*
X135500000Y-109960000D03*
D22*
X136090000Y-109960000D03*
D16*
X135750000Y-109710000D03*
D12*
X136550000Y-109710000D03*
D10*
X136590000Y-109710000D03*
D20*
X174690000Y-107680000D03*
D15*
X173850000Y-107670000D03*
D11*
X174650000Y-107670000D03*
D18*
X173600000Y-107420000D03*
D22*
X174190000Y-107420000D03*
D16*
X173850000Y-107170000D03*
D12*
X174650000Y-107170000D03*
D10*
X174690000Y-107170000D03*
X172720000Y-104050000D03*
D11*
X172730000Y-103210000D03*
D12*
X172730000Y-104010000D03*
D13*
X172980000Y-102960000D03*
D14*
X172980000Y-103550000D03*
D15*
X173230000Y-103210000D03*
D16*
X173230000Y-104010000D03*
D17*
X173230000Y-104050000D03*
D18*
X147110000Y-109960000D03*
D10*
X147320000Y-110220000D03*
D19*
X147520000Y-109875000D03*
D13*
X147580000Y-109490000D03*
D10*
X147840000Y-109700000D03*
D20*
X147840000Y-110220000D03*
D17*
X147840000Y-110220000D03*
D10*
X160020000Y-106590000D03*
D11*
X160030000Y-105750000D03*
D12*
X160030000Y-106550000D03*
D13*
X160280000Y-105500000D03*
D14*
X160280000Y-106090000D03*
D15*
X160530000Y-105750000D03*
D16*
X160530000Y-106550000D03*
D17*
X160530000Y-106590000D03*
D20*
X159450000Y-105140000D03*
D15*
X158610000Y-105130000D03*
D11*
X159410000Y-105130000D03*
D18*
X158360000Y-104880000D03*
D22*
X158950000Y-104880000D03*
D16*
X158610000Y-104630000D03*
D12*
X159410000Y-104630000D03*
D10*
X159450000Y-104630000D03*
D20*
X159450000Y-110220000D03*
D15*
X158610000Y-110210000D03*
D11*
X159410000Y-110210000D03*
D18*
X158360000Y-109960000D03*
D22*
X158950000Y-109960000D03*
D16*
X158610000Y-109710000D03*
D12*
X159410000Y-109710000D03*
D10*
X159450000Y-109710000D03*
D21*
X146310000Y-108690000D03*
D20*
X179770000Y-112760000D03*
D15*
X178930000Y-112750000D03*
D11*
X179730000Y-112750000D03*
D18*
X178680000Y-112500000D03*
D22*
X179270000Y-112500000D03*
D16*
X178930000Y-112250000D03*
D12*
X179730000Y-112250000D03*
D10*
X179770000Y-112250000D03*
D18*
X177590000Y-112500000D03*
D10*
X177800000Y-112760000D03*
D19*
X178000000Y-112415000D03*
D13*
X178060000Y-112030000D03*
D10*
X178320000Y-112240000D03*
D17*
X178320000Y-112760000D03*
D20*
X178320000Y-112760000D03*
D18*
X149650000Y-112500000D03*
D10*
X149860000Y-112760000D03*
D19*
X150060000Y-112415000D03*
D13*
X150120000Y-112030000D03*
D10*
X150380000Y-112240000D03*
D20*
X150380000Y-112760000D03*
D17*
X150380000Y-112760000D03*
D10*
X165100000Y-109130000D03*
D11*
X165110000Y-108290000D03*
D12*
X165110000Y-109090000D03*
D13*
X165360000Y-108040000D03*
D14*
X165360000Y-108630000D03*
D15*
X165610000Y-108290000D03*
D16*
X165610000Y-109090000D03*
D17*
X165610000Y-109130000D03*
D23*
X120150000Y-108700000D03*
D18*
X134410000Y-107420000D03*
D10*
X134620000Y-107680000D03*
D19*
X134820000Y-107335000D03*
D13*
X134880000Y-106950000D03*
D10*
X135140000Y-107160000D03*
D20*
X135140000Y-107680000D03*
D17*
X135140000Y-107680000D03*
D21*
X184410000Y-103610000D03*
D18*
X152190000Y-115040000D03*
D10*
X152400000Y-115300000D03*
D19*
X152600000Y-114955000D03*
D13*
X152660000Y-114570000D03*
D10*
X152920000Y-114780000D03*
D17*
X152920000Y-115300000D03*
D20*
X152920000Y-115300000D03*
D18*
X147110000Y-107420000D03*
D10*
X147320000Y-107680000D03*
D19*
X147520000Y-107335000D03*
D13*
X147580000Y-106950000D03*
D10*
X147840000Y-107160000D03*
D17*
X147840000Y-107680000D03*
D20*
X147840000Y-107680000D03*
X139130000Y-105140000D03*
D15*
X138290000Y-105130000D03*
D11*
X139090000Y-105130000D03*
D18*
X138040000Y-104880000D03*
D22*
X138630000Y-104880000D03*
D16*
X138290000Y-104630000D03*
D12*
X139090000Y-104630000D03*
D10*
X139130000Y-104630000D03*
X129540000Y-114210000D03*
D11*
X129550000Y-113370000D03*
D12*
X129550000Y-114170000D03*
D13*
X129800000Y-113120000D03*
D14*
X129800000Y-113710000D03*
D15*
X130050000Y-113370000D03*
D16*
X130050000Y-114170000D03*
D17*
X130050000Y-114210000D03*
D20*
X164530000Y-115300000D03*
D15*
X163690000Y-115290000D03*
D11*
X164490000Y-115290000D03*
D18*
X163440000Y-115040000D03*
D22*
X164030000Y-115040000D03*
D16*
X163690000Y-114790000D03*
D12*
X164490000Y-114790000D03*
D10*
X164530000Y-114790000D03*
X180340000Y-114210000D03*
D11*
X180350000Y-113370000D03*
D12*
X180350000Y-114170000D03*
D13*
X180600000Y-113120000D03*
D14*
X180600000Y-113710000D03*
D15*
X180850000Y-113370000D03*
D16*
X180850000Y-114170000D03*
D17*
X180850000Y-114210000D03*
D18*
X185210000Y-107420000D03*
D10*
X185420000Y-107680000D03*
D19*
X185620000Y-107335000D03*
D13*
X185680000Y-106950000D03*
D10*
X185940000Y-107160000D03*
D17*
X185940000Y-107680000D03*
D20*
X185940000Y-107680000D03*
D10*
X147320000Y-114210000D03*
D11*
X147330000Y-113370000D03*
D12*
X147330000Y-114170000D03*
D13*
X147580000Y-113120000D03*
D14*
X147580000Y-113710000D03*
D15*
X147830000Y-113370000D03*
D16*
X147830000Y-114170000D03*
D17*
X147830000Y-114210000D03*
D20*
X172150000Y-112760000D03*
D15*
X171310000Y-112750000D03*
D11*
X172110000Y-112750000D03*
D18*
X171060000Y-112500000D03*
D22*
X171650000Y-112500000D03*
D16*
X171310000Y-112250000D03*
D12*
X172110000Y-112250000D03*
D10*
X172150000Y-112250000D03*
X187960000Y-106590000D03*
D11*
X187970000Y-105750000D03*
D12*
X187970000Y-106550000D03*
D13*
X188220000Y-105500000D03*
D14*
X188220000Y-106090000D03*
D15*
X188470000Y-105750000D03*
D16*
X188470000Y-106550000D03*
D17*
X188470000Y-106590000D03*
D18*
X126790000Y-109960000D03*
D10*
X127000000Y-110220000D03*
D19*
X127200000Y-109875000D03*
D13*
X127260000Y-109490000D03*
D10*
X127520000Y-109700000D03*
D20*
X127520000Y-110220000D03*
D17*
X127520000Y-110220000D03*
D10*
X144780000Y-116750000D03*
D11*
X144790000Y-115910000D03*
D12*
X144790000Y-116710000D03*
D13*
X145040000Y-115660000D03*
D14*
X145040000Y-116250000D03*
D15*
X145290000Y-115910000D03*
D16*
X145290000Y-116710000D03*
D17*
X145290000Y-116750000D03*
D20*
X192470000Y-115300000D03*
D15*
X191630000Y-115290000D03*
D11*
X192430000Y-115290000D03*
D18*
X191380000Y-115040000D03*
D22*
X191970000Y-115040000D03*
D16*
X191630000Y-114790000D03*
D12*
X192430000Y-114790000D03*
D10*
X192470000Y-114790000D03*
D20*
X192470000Y-110220000D03*
D15*
X191630000Y-110210000D03*
D11*
X192430000Y-110210000D03*
D18*
X191380000Y-109960000D03*
D22*
X191970000Y-109960000D03*
D16*
X191630000Y-109710000D03*
D12*
X192430000Y-109710000D03*
D10*
X192470000Y-109710000D03*
D21*
X186950000Y-103610000D03*
D20*
X128970000Y-105140000D03*
D15*
X128130000Y-105130000D03*
D11*
X128930000Y-105130000D03*
D18*
X127880000Y-104880000D03*
D22*
X128470000Y-104880000D03*
D16*
X128130000Y-104630000D03*
D12*
X128930000Y-104630000D03*
D10*
X128970000Y-104630000D03*
D20*
X189930000Y-105140000D03*
D15*
X189090000Y-105130000D03*
D11*
X189890000Y-105130000D03*
D18*
X188840000Y-104880000D03*
D22*
X189430000Y-104880000D03*
D16*
X189090000Y-104630000D03*
D12*
X189890000Y-104630000D03*
D10*
X189930000Y-104630000D03*
D21*
X141230000Y-116310000D03*
D18*
X142030000Y-112500000D03*
D10*
X142240000Y-112760000D03*
D19*
X142440000Y-112415000D03*
D13*
X142500000Y-112030000D03*
D10*
X142760000Y-112240000D03*
D17*
X142760000Y-112760000D03*
D20*
X142760000Y-112760000D03*
D23*
X195334000Y-106160000D03*
D20*
X151830000Y-107680000D03*
D15*
X150990000Y-107670000D03*
D11*
X151790000Y-107670000D03*
D18*
X150740000Y-107420000D03*
D22*
X151330000Y-107420000D03*
D16*
X150990000Y-107170000D03*
D12*
X151790000Y-107170000D03*
D10*
X151830000Y-107170000D03*
D18*
X139490000Y-104880000D03*
D10*
X139700000Y-105140000D03*
D19*
X139900000Y-104795000D03*
D13*
X139960000Y-104410000D03*
D10*
X140220000Y-104620000D03*
D20*
X140220000Y-105140000D03*
D17*
X140220000Y-105140000D03*
D21*
X131070000Y-113770000D03*
D18*
X131870000Y-104880000D03*
D10*
X132080000Y-105140000D03*
D19*
X132280000Y-104795000D03*
D13*
X132340000Y-104410000D03*
D10*
X132600000Y-104620000D03*
D17*
X132600000Y-105140000D03*
D20*
X132600000Y-105140000D03*
D10*
X172720000Y-106590000D03*
D11*
X172730000Y-105750000D03*
D12*
X172730000Y-106550000D03*
D13*
X172980000Y-105500000D03*
D14*
X172980000Y-106090000D03*
D15*
X173230000Y-105750000D03*
D16*
X173230000Y-106550000D03*
D17*
X173230000Y-106590000D03*
D21*
X143770000Y-116310000D03*
X192030000Y-113770000D03*
D10*
X165100000Y-114210000D03*
D11*
X165110000Y-113370000D03*
D12*
X165110000Y-114170000D03*
D13*
X165360000Y-113120000D03*
D14*
X165360000Y-113710000D03*
D15*
X165610000Y-113370000D03*
D16*
X165610000Y-114170000D03*
D17*
X165610000Y-114210000D03*
D10*
X129540000Y-116750000D03*
D11*
X129550000Y-115910000D03*
D12*
X129550000Y-116710000D03*
D13*
X129800000Y-115660000D03*
D14*
X129800000Y-116250000D03*
D15*
X130050000Y-115910000D03*
D16*
X130050000Y-116710000D03*
D17*
X130050000Y-116750000D03*
D18*
X131870000Y-112500000D03*
D10*
X132080000Y-112760000D03*
D19*
X132280000Y-112415000D03*
D13*
X132340000Y-112030000D03*
D10*
X132600000Y-112240000D03*
D17*
X132600000Y-112760000D03*
D20*
X132600000Y-112760000D03*
X174690000Y-110220000D03*
D15*
X173850000Y-110210000D03*
D11*
X174650000Y-110210000D03*
D18*
X173600000Y-109960000D03*
D22*
X174190000Y-109960000D03*
D16*
X173850000Y-109710000D03*
D12*
X174650000Y-109710000D03*
D10*
X174690000Y-109710000D03*
D18*
X139490000Y-109960000D03*
D10*
X139700000Y-110220000D03*
D19*
X139900000Y-109875000D03*
D13*
X139960000Y-109490000D03*
D10*
X140220000Y-109700000D03*
D17*
X140220000Y-110220000D03*
D20*
X140220000Y-110220000D03*
D10*
X182880000Y-109130000D03*
D11*
X182890000Y-108290000D03*
D12*
X182890000Y-109090000D03*
D13*
X183140000Y-108040000D03*
D14*
X183140000Y-108630000D03*
D15*
X183390000Y-108290000D03*
D16*
X183390000Y-109090000D03*
D17*
X183390000Y-109130000D03*
D18*
X172510000Y-104880000D03*
D10*
X172720000Y-105140000D03*
D19*
X172920000Y-104795000D03*
D13*
X172980000Y-104410000D03*
D10*
X173240000Y-104620000D03*
D17*
X173240000Y-105140000D03*
D20*
X173240000Y-105140000D03*
D10*
X180340000Y-104050000D03*
D11*
X180350000Y-103210000D03*
D12*
X180350000Y-104010000D03*
D13*
X180600000Y-102960000D03*
D14*
X180600000Y-103550000D03*
D15*
X180850000Y-103210000D03*
D16*
X180850000Y-104010000D03*
D17*
X180850000Y-104050000D03*
D20*
X159450000Y-107680000D03*
D15*
X158610000Y-107670000D03*
D11*
X159410000Y-107670000D03*
D18*
X158360000Y-107420000D03*
D22*
X158950000Y-107420000D03*
D16*
X158610000Y-107170000D03*
D12*
X159410000Y-107170000D03*
D10*
X159450000Y-107170000D03*
X165100000Y-111670000D03*
D11*
X165110000Y-110830000D03*
D12*
X165110000Y-111630000D03*
D13*
X165360000Y-110580000D03*
D14*
X165360000Y-111170000D03*
D15*
X165610000Y-110830000D03*
D16*
X165610000Y-111630000D03*
D17*
X165610000Y-111670000D03*
D21*
X166630000Y-113770000D03*
D20*
X184850000Y-105140000D03*
D15*
X184010000Y-105130000D03*
D11*
X184810000Y-105130000D03*
D18*
X183760000Y-104880000D03*
D22*
X184350000Y-104880000D03*
D16*
X184010000Y-104630000D03*
D12*
X184810000Y-104630000D03*
D10*
X184850000Y-104630000D03*
D20*
X179770000Y-110220000D03*
D15*
X178930000Y-110210000D03*
D11*
X179730000Y-110210000D03*
D18*
X178680000Y-109960000D03*
D22*
X179270000Y-109960000D03*
D16*
X178930000Y-109710000D03*
D12*
X179730000Y-109710000D03*
D10*
X179770000Y-109710000D03*
X165100000Y-116750000D03*
D11*
X165110000Y-115910000D03*
D12*
X165110000Y-116710000D03*
D13*
X165360000Y-115660000D03*
D14*
X165360000Y-116250000D03*
D15*
X165610000Y-115910000D03*
D16*
X165610000Y-116710000D03*
D17*
X165610000Y-116750000D03*
D20*
X156910000Y-105140000D03*
D15*
X156070000Y-105130000D03*
D11*
X156870000Y-105130000D03*
D18*
X155820000Y-104880000D03*
D22*
X156410000Y-104880000D03*
D16*
X156070000Y-104630000D03*
D12*
X156870000Y-104630000D03*
D10*
X156910000Y-104630000D03*
D20*
X182310000Y-115300000D03*
D15*
X181470000Y-115290000D03*
D11*
X182270000Y-115290000D03*
D18*
X181220000Y-115040000D03*
D22*
X181810000Y-115040000D03*
D16*
X181470000Y-114790000D03*
D12*
X182270000Y-114790000D03*
D10*
X182310000Y-114790000D03*
D21*
X131070000Y-108690000D03*
X171710000Y-111230000D03*
X186950000Y-116310000D03*
D18*
X129330000Y-107420000D03*
D10*
X129540000Y-107680000D03*
D19*
X129740000Y-107335000D03*
D13*
X129800000Y-106950000D03*
D10*
X130060000Y-107160000D03*
D20*
X130060000Y-107680000D03*
D17*
X130060000Y-107680000D03*
D10*
X152400000Y-116750000D03*
D11*
X152410000Y-115910000D03*
D12*
X152410000Y-116710000D03*
D13*
X152660000Y-115660000D03*
D14*
X152660000Y-116250000D03*
D15*
X152910000Y-115910000D03*
D16*
X152910000Y-116710000D03*
D17*
X152910000Y-116750000D03*
D18*
X185210000Y-104880000D03*
D10*
X185420000Y-105140000D03*
D19*
X185620000Y-104795000D03*
D13*
X185680000Y-104410000D03*
D10*
X185940000Y-104620000D03*
D20*
X185940000Y-105140000D03*
D17*
X185940000Y-105140000D03*
D18*
X144570000Y-107420000D03*
D10*
X144780000Y-107680000D03*
D19*
X144980000Y-107335000D03*
D13*
X145040000Y-106950000D03*
D10*
X145300000Y-107160000D03*
D20*
X145300000Y-107680000D03*
D17*
X145300000Y-107680000D03*
D20*
X164530000Y-112760000D03*
D15*
X163690000Y-112750000D03*
D11*
X164490000Y-112750000D03*
D18*
X163440000Y-112500000D03*
D22*
X164030000Y-112500000D03*
D16*
X163690000Y-112250000D03*
D12*
X164490000Y-112250000D03*
D10*
X164530000Y-112250000D03*
D21*
X171710000Y-116310000D03*
D20*
X159450000Y-112760000D03*
D15*
X158610000Y-112750000D03*
D11*
X159410000Y-112750000D03*
D18*
X158360000Y-112500000D03*
D22*
X158950000Y-112500000D03*
D16*
X158610000Y-112250000D03*
D12*
X159410000Y-112250000D03*
D10*
X159450000Y-112250000D03*
D21*
X128530000Y-116310000D03*
X138690000Y-116310000D03*
X141230000Y-108690000D03*
D10*
X139700000Y-109130000D03*
D11*
X139710000Y-108290000D03*
D12*
X139710000Y-109090000D03*
D13*
X139960000Y-108040000D03*
D14*
X139960000Y-108630000D03*
D15*
X140210000Y-108290000D03*
D16*
X140210000Y-109090000D03*
D17*
X140210000Y-109130000D03*
D10*
X185420000Y-114210000D03*
D11*
X185430000Y-113370000D03*
D12*
X185430000Y-114170000D03*
D13*
X185680000Y-113120000D03*
D14*
X185680000Y-113710000D03*
D15*
X185930000Y-113370000D03*
D16*
X185930000Y-114170000D03*
D17*
X185930000Y-114210000D03*
D18*
X154730000Y-109960000D03*
D10*
X154940000Y-110220000D03*
D19*
X155140000Y-109875000D03*
D13*
X155200000Y-109490000D03*
D10*
X155460000Y-109700000D03*
D17*
X155460000Y-110220000D03*
D20*
X155460000Y-110220000D03*
X151830000Y-105140000D03*
D15*
X150990000Y-105130000D03*
D11*
X151790000Y-105130000D03*
D18*
X150740000Y-104880000D03*
D22*
X151330000Y-104880000D03*
D16*
X150990000Y-104630000D03*
D12*
X151790000Y-104630000D03*
D10*
X151830000Y-104630000D03*
X149860000Y-114210000D03*
D11*
X149870000Y-113370000D03*
D12*
X149870000Y-114170000D03*
D13*
X150120000Y-113120000D03*
D14*
X150120000Y-113710000D03*
D15*
X150370000Y-113370000D03*
D16*
X150370000Y-114170000D03*
D17*
X150370000Y-114210000D03*
D21*
X153930000Y-111230000D03*
D18*
X187750000Y-115040000D03*
D10*
X187960000Y-115300000D03*
D19*
X188160000Y-114955000D03*
D13*
X188220000Y-114570000D03*
D10*
X188480000Y-114780000D03*
D17*
X188480000Y-115300000D03*
D20*
X188480000Y-115300000D03*
D18*
X152190000Y-109960000D03*
D10*
X152400000Y-110220000D03*
D19*
X152600000Y-109875000D03*
D13*
X152660000Y-109490000D03*
D10*
X152920000Y-109700000D03*
D17*
X152920000Y-110220000D03*
D20*
X152920000Y-110220000D03*
D18*
X169970000Y-112500000D03*
D10*
X170180000Y-112760000D03*
D19*
X170380000Y-112415000D03*
D13*
X170440000Y-112030000D03*
D10*
X170700000Y-112240000D03*
D17*
X170700000Y-112760000D03*
D20*
X170700000Y-112760000D03*
D21*
X153930000Y-108690000D03*
X166630000Y-111230000D03*
D20*
X149290000Y-107680000D03*
D15*
X148450000Y-107670000D03*
D11*
X149250000Y-107670000D03*
D18*
X148200000Y-107420000D03*
D22*
X148790000Y-107420000D03*
D16*
X148450000Y-107170000D03*
D12*
X149250000Y-107170000D03*
D10*
X149290000Y-107170000D03*
D23*
X195334000Y-113780000D03*
D10*
X175260000Y-114210000D03*
D11*
X175270000Y-113370000D03*
D12*
X175270000Y-114170000D03*
D13*
X175520000Y-113120000D03*
D14*
X175520000Y-113710000D03*
D15*
X175770000Y-113370000D03*
D16*
X175770000Y-114170000D03*
D17*
X175770000Y-114210000D03*
D18*
X142030000Y-115040000D03*
D10*
X142240000Y-115300000D03*
D19*
X142440000Y-114955000D03*
D13*
X142500000Y-114570000D03*
D10*
X142760000Y-114780000D03*
D17*
X142760000Y-115300000D03*
D20*
X142760000Y-115300000D03*
D21*
X133610000Y-113770000D03*
D18*
X147110000Y-104880000D03*
D10*
X147320000Y-105140000D03*
D19*
X147520000Y-104795000D03*
D13*
X147580000Y-104410000D03*
D10*
X147840000Y-104620000D03*
D17*
X147840000Y-105140000D03*
D20*
X147840000Y-105140000D03*
D18*
X149650000Y-109960000D03*
D10*
X149860000Y-110220000D03*
D19*
X150060000Y-109875000D03*
D13*
X150120000Y-109490000D03*
D10*
X150380000Y-109700000D03*
D17*
X150380000Y-110220000D03*
D20*
X150380000Y-110220000D03*
D10*
X127000000Y-106590000D03*
D11*
X127010000Y-105750000D03*
D12*
X127010000Y-106550000D03*
D13*
X127260000Y-105500000D03*
D14*
X127260000Y-106090000D03*
D15*
X127510000Y-105750000D03*
D16*
X127510000Y-106550000D03*
D17*
X127510000Y-106590000D03*
D20*
X182310000Y-110220000D03*
D15*
X181470000Y-110210000D03*
D11*
X182270000Y-110210000D03*
D18*
X181220000Y-109960000D03*
D22*
X181810000Y-109960000D03*
D16*
X181470000Y-109710000D03*
D12*
X182270000Y-109710000D03*
D10*
X182310000Y-109710000D03*
D20*
X167070000Y-107680000D03*
D15*
X166230000Y-107670000D03*
D11*
X167030000Y-107670000D03*
D18*
X165980000Y-107420000D03*
D22*
X166570000Y-107420000D03*
D16*
X166230000Y-107170000D03*
D12*
X167030000Y-107170000D03*
D10*
X167070000Y-107170000D03*
D20*
X154370000Y-105140000D03*
D15*
X153530000Y-105130000D03*
D11*
X154330000Y-105130000D03*
D18*
X153280000Y-104880000D03*
D22*
X153870000Y-104880000D03*
D16*
X153530000Y-104630000D03*
D12*
X154330000Y-104630000D03*
D10*
X154370000Y-104630000D03*
X187960000Y-116750000D03*
D11*
X187970000Y-115910000D03*
D12*
X187970000Y-116710000D03*
D13*
X188220000Y-115660000D03*
D14*
X188220000Y-116250000D03*
D15*
X188470000Y-115910000D03*
D16*
X188470000Y-116710000D03*
D17*
X188470000Y-116750000D03*
D20*
X128970000Y-115300000D03*
D15*
X128130000Y-115290000D03*
D11*
X128930000Y-115290000D03*
D18*
X127880000Y-115040000D03*
D22*
X128470000Y-115040000D03*
D16*
X128130000Y-114790000D03*
D12*
X128930000Y-114790000D03*
D10*
X128970000Y-114790000D03*
D20*
X134050000Y-107680000D03*
D15*
X133210000Y-107670000D03*
D11*
X134010000Y-107670000D03*
D18*
X132960000Y-107420000D03*
D22*
X133550000Y-107420000D03*
D16*
X133210000Y-107170000D03*
D12*
X134010000Y-107170000D03*
D10*
X134050000Y-107170000D03*
X142240000Y-109130000D03*
D11*
X142250000Y-108290000D03*
D12*
X142250000Y-109090000D03*
D13*
X142500000Y-108040000D03*
D14*
X142500000Y-108630000D03*
D15*
X142750000Y-108290000D03*
D16*
X142750000Y-109090000D03*
D17*
X142750000Y-109130000D03*
D10*
X167640000Y-106590000D03*
D11*
X167650000Y-105750000D03*
D12*
X167650000Y-106550000D03*
D13*
X167900000Y-105500000D03*
D14*
X167900000Y-106090000D03*
D15*
X168150000Y-105750000D03*
D16*
X168150000Y-106550000D03*
D17*
X168150000Y-106590000D03*
D18*
X129330000Y-109960000D03*
D10*
X129540000Y-110220000D03*
D19*
X129740000Y-109875000D03*
D13*
X129800000Y-109490000D03*
D10*
X130060000Y-109700000D03*
D20*
X130060000Y-110220000D03*
D17*
X130060000Y-110220000D03*
D21*
X161550000Y-103610000D03*
X166630000Y-116310000D03*
D18*
X152190000Y-112500000D03*
D10*
X152400000Y-112760000D03*
D19*
X152600000Y-112415000D03*
D13*
X152660000Y-112030000D03*
D10*
X152920000Y-112240000D03*
D17*
X152920000Y-112760000D03*
D20*
X152920000Y-112760000D03*
D21*
X136150000Y-106150000D03*
D18*
X162350000Y-112500000D03*
D10*
X162560000Y-112760000D03*
D19*
X162760000Y-112415000D03*
D13*
X162820000Y-112030000D03*
D10*
X163080000Y-112240000D03*
D17*
X163080000Y-112760000D03*
D20*
X163080000Y-112760000D03*
D18*
X185210000Y-112500000D03*
D10*
X185420000Y-112760000D03*
D19*
X185620000Y-112415000D03*
D13*
X185680000Y-112030000D03*
D10*
X185940000Y-112240000D03*
D17*
X185940000Y-112760000D03*
D20*
X185940000Y-112760000D03*
D18*
X152190000Y-107420000D03*
D10*
X152400000Y-107680000D03*
D19*
X152600000Y-107335000D03*
D13*
X152660000Y-106950000D03*
D10*
X152920000Y-107160000D03*
D17*
X152920000Y-107680000D03*
D20*
X152920000Y-107680000D03*
D10*
X137160000Y-104050000D03*
D11*
X137170000Y-103210000D03*
D12*
X137170000Y-104010000D03*
D13*
X137420000Y-102960000D03*
D14*
X137420000Y-103550000D03*
D15*
X137670000Y-103210000D03*
D16*
X137670000Y-104010000D03*
D17*
X137670000Y-104050000D03*
D18*
X190290000Y-104880000D03*
D10*
X190500000Y-105140000D03*
D19*
X190700000Y-104795000D03*
D13*
X190760000Y-104410000D03*
D10*
X191020000Y-104620000D03*
D17*
X191020000Y-105140000D03*
D20*
X191020000Y-105140000D03*
D21*
X133610000Y-111230000D03*
D10*
X190500000Y-114210000D03*
D11*
X190510000Y-113370000D03*
D12*
X190510000Y-114170000D03*
D13*
X190760000Y-113120000D03*
D14*
X190760000Y-113710000D03*
D15*
X191010000Y-113370000D03*
D16*
X191010000Y-114170000D03*
D17*
X191010000Y-114210000D03*
D20*
X128970000Y-112760000D03*
D15*
X128130000Y-112750000D03*
D11*
X128930000Y-112750000D03*
D18*
X127880000Y-112500000D03*
D22*
X128470000Y-112500000D03*
D16*
X128130000Y-112250000D03*
D12*
X128930000Y-112250000D03*
D10*
X128970000Y-112250000D03*
D20*
X126430000Y-115300000D03*
D15*
X125590000Y-115290000D03*
D11*
X126390000Y-115290000D03*
D18*
X125340000Y-115040000D03*
D22*
X125930000Y-115040000D03*
D16*
X125590000Y-114790000D03*
D12*
X126390000Y-114790000D03*
D10*
X126430000Y-114790000D03*
D21*
X151390000Y-111230000D03*
D18*
X187750000Y-104880000D03*
D10*
X187960000Y-105140000D03*
D19*
X188160000Y-104795000D03*
D13*
X188220000Y-104410000D03*
D10*
X188480000Y-104620000D03*
D20*
X188480000Y-105140000D03*
D17*
X188480000Y-105140000D03*
D18*
X190290000Y-115040000D03*
D10*
X190500000Y-115300000D03*
D19*
X190700000Y-114955000D03*
D13*
X190760000Y-114570000D03*
D10*
X191020000Y-114780000D03*
D20*
X191020000Y-115300000D03*
D17*
X191020000Y-115300000D03*
D18*
X136950000Y-107420000D03*
D10*
X137160000Y-107680000D03*
D19*
X137360000Y-107335000D03*
D13*
X137420000Y-106950000D03*
D10*
X137680000Y-107160000D03*
D17*
X137680000Y-107680000D03*
D20*
X137680000Y-107680000D03*
D21*
X156470000Y-113770000D03*
X171710000Y-103610000D03*
D20*
X139130000Y-115300000D03*
D15*
X138290000Y-115290000D03*
D11*
X139090000Y-115290000D03*
D18*
X138040000Y-115040000D03*
D22*
X138630000Y-115040000D03*
D16*
X138290000Y-114790000D03*
D12*
X139090000Y-114790000D03*
D10*
X139130000Y-114790000D03*
D20*
X141670000Y-105140000D03*
D15*
X140830000Y-105130000D03*
D11*
X141630000Y-105130000D03*
D18*
X140580000Y-104880000D03*
D22*
X141170000Y-104880000D03*
D16*
X140830000Y-104630000D03*
D12*
X141630000Y-104630000D03*
D10*
X141670000Y-104630000D03*
D21*
X128530000Y-103610000D03*
X125990000Y-113770000D03*
D20*
X172150000Y-115300000D03*
D15*
X171310000Y-115290000D03*
D11*
X172110000Y-115290000D03*
D18*
X171060000Y-115040000D03*
D22*
X171650000Y-115040000D03*
D16*
X171310000Y-114790000D03*
D12*
X172110000Y-114790000D03*
D10*
X172150000Y-114790000D03*
D18*
X126790000Y-115040000D03*
D10*
X127000000Y-115300000D03*
D19*
X127200000Y-114955000D03*
D13*
X127260000Y-114570000D03*
D10*
X127520000Y-114780000D03*
D17*
X127520000Y-115300000D03*
D20*
X127520000Y-115300000D03*
D18*
X180130000Y-104880000D03*
D10*
X180340000Y-105140000D03*
D19*
X180540000Y-104795000D03*
D13*
X180600000Y-104410000D03*
D10*
X180860000Y-104620000D03*
D20*
X180860000Y-105140000D03*
D17*
X180860000Y-105140000D03*
D10*
X129540000Y-111670000D03*
D11*
X129550000Y-110830000D03*
D12*
X129550000Y-111630000D03*
D13*
X129800000Y-110580000D03*
D14*
X129800000Y-111170000D03*
D15*
X130050000Y-110830000D03*
D16*
X130050000Y-111630000D03*
D17*
X130050000Y-111670000D03*
D21*
X151390000Y-113770000D03*
D18*
X134410000Y-112500000D03*
D10*
X134620000Y-112760000D03*
D19*
X134820000Y-112415000D03*
D13*
X134880000Y-112030000D03*
D10*
X135140000Y-112240000D03*
D17*
X135140000Y-112760000D03*
D20*
X135140000Y-112760000D03*
X161990000Y-112760000D03*
D15*
X161150000Y-112750000D03*
D11*
X161950000Y-112750000D03*
D18*
X160900000Y-112500000D03*
D22*
X161490000Y-112500000D03*
D16*
X161150000Y-112250000D03*
D12*
X161950000Y-112250000D03*
D10*
X161990000Y-112250000D03*
D21*
X156470000Y-116310000D03*
D20*
X126430000Y-110220000D03*
D15*
X125590000Y-110210000D03*
D11*
X126390000Y-110210000D03*
D18*
X125340000Y-109960000D03*
D22*
X125930000Y-109960000D03*
D16*
X125590000Y-109710000D03*
D12*
X126390000Y-109710000D03*
D10*
X126430000Y-109710000D03*
D21*
X125990000Y-106150000D03*
D20*
X192470000Y-105140000D03*
D15*
X191630000Y-105130000D03*
D11*
X192430000Y-105130000D03*
D18*
X191380000Y-104880000D03*
D22*
X191970000Y-104880000D03*
D16*
X191630000Y-104630000D03*
D12*
X192430000Y-104630000D03*
D10*
X192470000Y-104630000D03*
D20*
X151830000Y-110220000D03*
D15*
X150990000Y-110210000D03*
D11*
X151790000Y-110210000D03*
D18*
X150740000Y-109960000D03*
D22*
X151330000Y-109960000D03*
D16*
X150990000Y-109710000D03*
D12*
X151790000Y-109710000D03*
D10*
X151830000Y-109710000D03*
D20*
X169610000Y-112760000D03*
D15*
X168770000Y-112750000D03*
D11*
X169570000Y-112750000D03*
D18*
X168520000Y-112500000D03*
D22*
X169110000Y-112500000D03*
D16*
X168770000Y-112250000D03*
D12*
X169570000Y-112250000D03*
D10*
X169610000Y-112250000D03*
X177800000Y-104050000D03*
D11*
X177810000Y-103210000D03*
D12*
X177810000Y-104010000D03*
D13*
X178060000Y-102960000D03*
D14*
X178060000Y-103550000D03*
D15*
X178310000Y-103210000D03*
D16*
X178310000Y-104010000D03*
D17*
X178310000Y-104050000D03*
D20*
X136590000Y-107680000D03*
D15*
X135750000Y-107670000D03*
D11*
X136550000Y-107670000D03*
D18*
X135500000Y-107420000D03*
D22*
X136090000Y-107420000D03*
D16*
X135750000Y-107170000D03*
D12*
X136550000Y-107170000D03*
D10*
X136590000Y-107170000D03*
D20*
X174690000Y-115300000D03*
D15*
X173850000Y-115290000D03*
D11*
X174650000Y-115290000D03*
D18*
X173600000Y-115040000D03*
D22*
X174190000Y-115040000D03*
D16*
X173850000Y-114790000D03*
D12*
X174650000Y-114790000D03*
D10*
X174690000Y-114790000D03*
D18*
X159810000Y-107420000D03*
D10*
X160020000Y-107680000D03*
D19*
X160220000Y-107335000D03*
D13*
X160280000Y-106950000D03*
D10*
X160540000Y-107160000D03*
D20*
X160540000Y-107680000D03*
D17*
X160540000Y-107680000D03*
D18*
X136950000Y-109960000D03*
D10*
X137160000Y-110220000D03*
D19*
X137360000Y-109875000D03*
D13*
X137420000Y-109490000D03*
D10*
X137680000Y-109700000D03*
D20*
X137680000Y-110220000D03*
D17*
X137680000Y-110220000D03*
D10*
X175260000Y-111670000D03*
D11*
X175270000Y-110830000D03*
D12*
X175270000Y-111630000D03*
D13*
X175520000Y-110580000D03*
D14*
X175520000Y-111170000D03*
D15*
X175770000Y-110830000D03*
D16*
X175770000Y-111630000D03*
D17*
X175770000Y-111670000D03*
D20*
X123890000Y-110220000D03*
D15*
X123050000Y-110210000D03*
D11*
X123850000Y-110210000D03*
D18*
X122800000Y-109960000D03*
D22*
X123390000Y-109960000D03*
D16*
X123050000Y-109710000D03*
D12*
X123850000Y-109710000D03*
D10*
X123890000Y-109710000D03*
D21*
X186950000Y-108690000D03*
D18*
X182670000Y-115040000D03*
D10*
X182880000Y-115300000D03*
D19*
X183080000Y-114955000D03*
D13*
X183140000Y-114570000D03*
D10*
X183400000Y-114780000D03*
D17*
X183400000Y-115300000D03*
D20*
X183400000Y-115300000D03*
D21*
X192030000Y-106150000D03*
D10*
X182880000Y-111670000D03*
D11*
X182890000Y-110830000D03*
D12*
X182890000Y-111630000D03*
D13*
X183140000Y-110580000D03*
D14*
X183140000Y-111170000D03*
D15*
X183390000Y-110830000D03*
D16*
X183390000Y-111630000D03*
D17*
X183390000Y-111670000D03*
D18*
X169970000Y-109960000D03*
D10*
X170180000Y-110220000D03*
D19*
X170380000Y-109875000D03*
D13*
X170440000Y-109490000D03*
D10*
X170700000Y-109700000D03*
D20*
X170700000Y-110220000D03*
D17*
X170700000Y-110220000D03*
D18*
X162350000Y-115040000D03*
D10*
X162560000Y-115300000D03*
D19*
X162760000Y-114955000D03*
D13*
X162820000Y-114570000D03*
D10*
X163080000Y-114780000D03*
D17*
X163080000Y-115300000D03*
D20*
X163080000Y-115300000D03*
D10*
X137160000Y-114210000D03*
D11*
X137170000Y-113370000D03*
D12*
X137170000Y-114170000D03*
D13*
X137420000Y-113120000D03*
D14*
X137420000Y-113710000D03*
D15*
X137670000Y-113370000D03*
D16*
X137670000Y-114170000D03*
D17*
X137670000Y-114210000D03*
D10*
X182880000Y-116750000D03*
D11*
X182890000Y-115910000D03*
D12*
X182890000Y-116710000D03*
D13*
X183140000Y-115660000D03*
D14*
X183140000Y-116250000D03*
D15*
X183390000Y-115910000D03*
D16*
X183390000Y-116710000D03*
D17*
X183390000Y-116750000D03*
D20*
X161990000Y-110220000D03*
D15*
X161150000Y-110210000D03*
D11*
X161950000Y-110210000D03*
D18*
X160900000Y-109960000D03*
D22*
X161490000Y-109960000D03*
D16*
X161150000Y-109710000D03*
D12*
X161950000Y-109710000D03*
D10*
X161990000Y-109710000D03*
X167640000Y-116750000D03*
D11*
X167650000Y-115910000D03*
D12*
X167650000Y-116710000D03*
D13*
X167900000Y-115660000D03*
D14*
X167900000Y-116250000D03*
D15*
X168150000Y-115910000D03*
D16*
X168150000Y-116710000D03*
D17*
X168150000Y-116750000D03*
D10*
X190500000Y-104050000D03*
D11*
X190510000Y-103210000D03*
D12*
X190510000Y-104010000D03*
D13*
X190760000Y-102960000D03*
D14*
X190760000Y-103550000D03*
D15*
X191010000Y-103210000D03*
D16*
X191010000Y-104010000D03*
D17*
X191010000Y-104050000D03*
D21*
X161550000Y-113770000D03*
X159010000Y-108690000D03*
D10*
X132080000Y-116750000D03*
D11*
X132090000Y-115910000D03*
D12*
X132090000Y-116710000D03*
D13*
X132340000Y-115660000D03*
D14*
X132340000Y-116250000D03*
D15*
X132590000Y-115910000D03*
D16*
X132590000Y-116710000D03*
D17*
X132590000Y-116750000D03*
D21*
X179330000Y-108690000D03*
D10*
X172720000Y-109130000D03*
D11*
X172730000Y-108290000D03*
D12*
X172730000Y-109090000D03*
D13*
X172980000Y-108040000D03*
D14*
X172980000Y-108630000D03*
D15*
X173230000Y-108290000D03*
D16*
X173230000Y-109090000D03*
D17*
X173230000Y-109130000D03*
D21*
X176790000Y-108690000D03*
D10*
X142240000Y-104050000D03*
D11*
X142250000Y-103210000D03*
D12*
X142250000Y-104010000D03*
D13*
X142500000Y-102960000D03*
D14*
X142500000Y-103550000D03*
D15*
X142750000Y-103210000D03*
D16*
X142750000Y-104010000D03*
D17*
X142750000Y-104050000D03*
D21*
X133610000Y-116310000D03*
D18*
X185210000Y-109960000D03*
D10*
X185420000Y-110220000D03*
D19*
X185620000Y-109875000D03*
D13*
X185680000Y-109490000D03*
D10*
X185940000Y-109700000D03*
D17*
X185940000Y-110220000D03*
D20*
X185940000Y-110220000D03*
D21*
X174250000Y-111230000D03*
X136150000Y-103610000D03*
X169170000Y-103610000D03*
D10*
X185420000Y-109130000D03*
D11*
X185430000Y-108290000D03*
D12*
X185430000Y-109090000D03*
D13*
X185680000Y-108040000D03*
D14*
X185680000Y-108630000D03*
D15*
X185930000Y-108290000D03*
D16*
X185930000Y-109090000D03*
D17*
X185930000Y-109130000D03*
D21*
X169170000Y-106150000D03*
X148850000Y-113770000D03*
D10*
X180340000Y-116750000D03*
D11*
X180350000Y-115910000D03*
D12*
X180350000Y-116710000D03*
D13*
X180600000Y-115660000D03*
D14*
X180600000Y-116250000D03*
D15*
X180850000Y-115910000D03*
D16*
X180850000Y-116710000D03*
D17*
X180850000Y-116750000D03*
D10*
X190500000Y-111670000D03*
D11*
X190510000Y-110830000D03*
D12*
X190510000Y-111630000D03*
D13*
X190760000Y-110580000D03*
D14*
X190760000Y-111170000D03*
D15*
X191010000Y-110830000D03*
D16*
X191010000Y-111630000D03*
D17*
X191010000Y-111670000D03*
D20*
X136590000Y-112760000D03*
D15*
X135750000Y-112750000D03*
D11*
X136550000Y-112750000D03*
D18*
X135500000Y-112500000D03*
D22*
X136090000Y-112500000D03*
D16*
X135750000Y-112250000D03*
D12*
X136550000Y-112250000D03*
D10*
X136590000Y-112250000D03*
D21*
X189490000Y-108690000D03*
D20*
X187390000Y-112760000D03*
D15*
X186550000Y-112750000D03*
D11*
X187350000Y-112750000D03*
D18*
X186300000Y-112500000D03*
D22*
X186890000Y-112500000D03*
D16*
X186550000Y-112250000D03*
D12*
X187350000Y-112250000D03*
D10*
X187390000Y-112250000D03*
X187960000Y-114210000D03*
D11*
X187970000Y-113370000D03*
D12*
X187970000Y-114170000D03*
D13*
X188220000Y-113120000D03*
D14*
X188220000Y-113710000D03*
D15*
X188470000Y-113370000D03*
D16*
X188470000Y-114170000D03*
D17*
X188470000Y-114210000D03*
D20*
X144210000Y-107680000D03*
D15*
X143370000Y-107670000D03*
D11*
X144170000Y-107670000D03*
D18*
X143120000Y-107420000D03*
D22*
X143710000Y-107420000D03*
D16*
X143370000Y-107170000D03*
D12*
X144170000Y-107170000D03*
D10*
X144210000Y-107170000D03*
D21*
X138690000Y-108690000D03*
X153930000Y-106150000D03*
D18*
X169970000Y-115040000D03*
D10*
X170180000Y-115300000D03*
D19*
X170380000Y-114955000D03*
D13*
X170440000Y-114570000D03*
D10*
X170700000Y-114780000D03*
D20*
X170700000Y-115300000D03*
D17*
X170700000Y-115300000D03*
D23*
X195334000Y-111240000D03*
D21*
X171710000Y-106150000D03*
D18*
X164890000Y-112500000D03*
D10*
X165100000Y-112760000D03*
D19*
X165300000Y-112415000D03*
D13*
X165360000Y-112030000D03*
D10*
X165620000Y-112240000D03*
D17*
X165620000Y-112760000D03*
D20*
X165620000Y-112760000D03*
D21*
X171710000Y-113770000D03*
D10*
X127000000Y-104050000D03*
D11*
X127010000Y-103210000D03*
D12*
X127010000Y-104010000D03*
D13*
X127260000Y-102960000D03*
D14*
X127260000Y-103550000D03*
D15*
X127510000Y-103210000D03*
D16*
X127510000Y-104010000D03*
D17*
X127510000Y-104050000D03*
D10*
X152400000Y-114210000D03*
D11*
X152410000Y-113370000D03*
D12*
X152410000Y-114170000D03*
D13*
X152660000Y-113120000D03*
D14*
X152660000Y-113710000D03*
D15*
X152910000Y-113370000D03*
D16*
X152910000Y-114170000D03*
D17*
X152910000Y-114210000D03*
D21*
X143770000Y-106150000D03*
D20*
X146750000Y-115300000D03*
D15*
X145910000Y-115290000D03*
D11*
X146710000Y-115290000D03*
D18*
X145660000Y-115040000D03*
D22*
X146250000Y-115040000D03*
D16*
X145910000Y-114790000D03*
D12*
X146710000Y-114790000D03*
D10*
X146750000Y-114790000D03*
X167640000Y-111670000D03*
D11*
X167650000Y-110830000D03*
D12*
X167650000Y-111630000D03*
D13*
X167900000Y-110580000D03*
D14*
X167900000Y-111170000D03*
D15*
X168150000Y-110830000D03*
D16*
X168150000Y-111630000D03*
D17*
X168150000Y-111670000D03*
D21*
X131070000Y-103610000D03*
D20*
X179770000Y-105140000D03*
D15*
X178930000Y-105130000D03*
D11*
X179730000Y-105130000D03*
D18*
X178680000Y-104880000D03*
D22*
X179270000Y-104880000D03*
D16*
X178930000Y-104630000D03*
D12*
X179730000Y-104630000D03*
D10*
X179770000Y-104630000D03*
D20*
X151830000Y-112760000D03*
D15*
X150990000Y-112750000D03*
D11*
X151790000Y-112750000D03*
D18*
X150740000Y-112500000D03*
D22*
X151330000Y-112500000D03*
D16*
X150990000Y-112250000D03*
D12*
X151790000Y-112250000D03*
D10*
X151830000Y-112250000D03*
D20*
X146750000Y-112760000D03*
D15*
X145910000Y-112750000D03*
D11*
X146710000Y-112750000D03*
D18*
X145660000Y-112500000D03*
D22*
X146250000Y-112500000D03*
D16*
X145910000Y-112250000D03*
D12*
X146710000Y-112250000D03*
D10*
X146750000Y-112250000D03*
D20*
X169610000Y-107680000D03*
D15*
X168770000Y-107670000D03*
D11*
X169570000Y-107670000D03*
D18*
X168520000Y-107420000D03*
D22*
X169110000Y-107420000D03*
D16*
X168770000Y-107170000D03*
D12*
X169570000Y-107170000D03*
D10*
X169610000Y-107170000D03*
D21*
X128530000Y-113770000D03*
D20*
X169610000Y-110220000D03*
D15*
X168770000Y-110210000D03*
D11*
X169570000Y-110210000D03*
D18*
X168520000Y-109960000D03*
D22*
X169110000Y-109960000D03*
D16*
X168770000Y-109710000D03*
D12*
X169570000Y-109710000D03*
D10*
X169610000Y-109710000D03*
X172720000Y-111670000D03*
D11*
X172730000Y-110830000D03*
D12*
X172730000Y-111630000D03*
D13*
X172980000Y-110580000D03*
D14*
X172980000Y-111170000D03*
D15*
X173230000Y-110830000D03*
D16*
X173230000Y-111630000D03*
D17*
X173230000Y-111670000D03*
D18*
X172510000Y-112500000D03*
D10*
X172720000Y-112760000D03*
D19*
X172920000Y-112415000D03*
D13*
X172980000Y-112030000D03*
D10*
X173240000Y-112240000D03*
D17*
X173240000Y-112760000D03*
D20*
X173240000Y-112760000D03*
D10*
X187960000Y-109130000D03*
D11*
X187970000Y-108290000D03*
D12*
X187970000Y-109090000D03*
D13*
X188220000Y-108040000D03*
D14*
X188220000Y-108630000D03*
D15*
X188470000Y-108290000D03*
D16*
X188470000Y-109090000D03*
D17*
X188470000Y-109130000D03*
D21*
X174250000Y-113770000D03*
D18*
X167430000Y-107420000D03*
D10*
X167640000Y-107680000D03*
D19*
X167840000Y-107335000D03*
D13*
X167900000Y-106950000D03*
D10*
X168160000Y-107160000D03*
D20*
X168160000Y-107680000D03*
D17*
X168160000Y-107680000D03*
D18*
X167430000Y-109960000D03*
D10*
X167640000Y-110220000D03*
D19*
X167840000Y-109875000D03*
D13*
X167900000Y-109490000D03*
D10*
X168160000Y-109700000D03*
D20*
X168160000Y-110220000D03*
D17*
X168160000Y-110220000D03*
D20*
X172150000Y-110220000D03*
D15*
X171310000Y-110210000D03*
D11*
X172110000Y-110210000D03*
D18*
X171060000Y-109960000D03*
D22*
X171650000Y-109960000D03*
D16*
X171310000Y-109710000D03*
D12*
X172110000Y-109710000D03*
D10*
X172150000Y-109710000D03*
D20*
X131510000Y-112760000D03*
D15*
X130670000Y-112750000D03*
D11*
X131470000Y-112750000D03*
D18*
X130420000Y-112500000D03*
D22*
X131010000Y-112500000D03*
D16*
X130670000Y-112250000D03*
D12*
X131470000Y-112250000D03*
D10*
X131510000Y-112250000D03*
X139700000Y-114210000D03*
D11*
X139710000Y-113370000D03*
D12*
X139710000Y-114170000D03*
D13*
X139960000Y-113120000D03*
D14*
X139960000Y-113710000D03*
D15*
X140210000Y-113370000D03*
D16*
X140210000Y-114170000D03*
D17*
X140210000Y-114210000D03*
D10*
X137160000Y-111670000D03*
D11*
X137170000Y-110830000D03*
D12*
X137170000Y-111630000D03*
D13*
X137420000Y-110580000D03*
D14*
X137420000Y-111170000D03*
D15*
X137670000Y-110830000D03*
D16*
X137670000Y-111630000D03*
D17*
X137670000Y-111670000D03*
D20*
X136590000Y-105140000D03*
D15*
X135750000Y-105130000D03*
D11*
X136550000Y-105130000D03*
D18*
X135500000Y-104880000D03*
D22*
X136090000Y-104880000D03*
D16*
X135750000Y-104630000D03*
D12*
X136550000Y-104630000D03*
D10*
X136590000Y-104630000D03*
D20*
X174690000Y-112760000D03*
D15*
X173850000Y-112750000D03*
D11*
X174650000Y-112750000D03*
D18*
X173600000Y-112500000D03*
D22*
X174190000Y-112500000D03*
D16*
X173850000Y-112250000D03*
D12*
X174650000Y-112250000D03*
D10*
X174690000Y-112250000D03*
D18*
X149650000Y-104880000D03*
D10*
X149860000Y-105140000D03*
D19*
X150060000Y-104795000D03*
D13*
X150120000Y-104410000D03*
D10*
X150380000Y-104620000D03*
D17*
X150380000Y-105140000D03*
D20*
X150380000Y-105140000D03*
D10*
X170180000Y-106590000D03*
D11*
X170190000Y-105750000D03*
D12*
X170190000Y-106550000D03*
D13*
X170440000Y-105500000D03*
D14*
X170440000Y-106090000D03*
D15*
X170690000Y-105750000D03*
D16*
X170690000Y-106550000D03*
D17*
X170690000Y-106590000D03*
D10*
X190500000Y-106590000D03*
D11*
X190510000Y-105750000D03*
D12*
X190510000Y-106550000D03*
D13*
X190760000Y-105500000D03*
D14*
X190760000Y-106090000D03*
D15*
X191010000Y-105750000D03*
D16*
X191010000Y-106550000D03*
D17*
X191010000Y-106590000D03*
D18*
X187750000Y-109960000D03*
D10*
X187960000Y-110220000D03*
D19*
X188160000Y-109875000D03*
D13*
X188220000Y-109490000D03*
D10*
X188480000Y-109700000D03*
D20*
X188480000Y-110220000D03*
D17*
X188480000Y-110220000D03*
D20*
X177230000Y-110220000D03*
D15*
X176390000Y-110210000D03*
D11*
X177190000Y-110210000D03*
D18*
X176140000Y-109960000D03*
D22*
X176730000Y-109960000D03*
D16*
X176390000Y-109710000D03*
D12*
X177190000Y-109710000D03*
D10*
X177230000Y-109710000D03*
X185420000Y-116750000D03*
D11*
X185430000Y-115910000D03*
D12*
X185430000Y-116710000D03*
D13*
X185680000Y-115660000D03*
D14*
X185680000Y-116250000D03*
D15*
X185930000Y-115910000D03*
D16*
X185930000Y-116710000D03*
D17*
X185930000Y-116750000D03*
D18*
X175050000Y-115040000D03*
D10*
X175260000Y-115300000D03*
D19*
X175460000Y-114955000D03*
D13*
X175520000Y-114570000D03*
D10*
X175780000Y-114780000D03*
D17*
X175780000Y-115300000D03*
D20*
X175780000Y-115300000D03*
D18*
X177590000Y-115040000D03*
D10*
X177800000Y-115300000D03*
D19*
X178000000Y-114955000D03*
D13*
X178060000Y-114570000D03*
D10*
X178320000Y-114780000D03*
D20*
X178320000Y-115300000D03*
D17*
X178320000Y-115300000D03*
D20*
X184850000Y-115300000D03*
D15*
X184010000Y-115290000D03*
D11*
X184810000Y-115290000D03*
D18*
X183760000Y-115040000D03*
D22*
X184350000Y-115040000D03*
D16*
X184010000Y-114790000D03*
D12*
X184810000Y-114790000D03*
D10*
X184850000Y-114790000D03*
D18*
X131870000Y-115040000D03*
D10*
X132080000Y-115300000D03*
D19*
X132280000Y-114955000D03*
D13*
X132340000Y-114570000D03*
D10*
X132600000Y-114780000D03*
D20*
X132600000Y-115300000D03*
D17*
X132600000Y-115300000D03*
D21*
X131070000Y-111230000D03*
X125990000Y-111230000D03*
D10*
X175260000Y-116750000D03*
D11*
X175270000Y-115910000D03*
D12*
X175270000Y-116710000D03*
D13*
X175520000Y-115660000D03*
D14*
X175520000Y-116250000D03*
D15*
X175770000Y-115910000D03*
D16*
X175770000Y-116710000D03*
D17*
X175770000Y-116750000D03*
D10*
X149860000Y-104050000D03*
D11*
X149870000Y-103210000D03*
D12*
X149870000Y-104010000D03*
D13*
X150120000Y-102960000D03*
D14*
X150120000Y-103550000D03*
D15*
X150370000Y-103210000D03*
D16*
X150370000Y-104010000D03*
D17*
X150370000Y-104050000D03*
D18*
X177590000Y-104880000D03*
D10*
X177800000Y-105140000D03*
D19*
X178000000Y-104795000D03*
D13*
X178060000Y-104410000D03*
D10*
X178320000Y-104620000D03*
D20*
X178320000Y-105140000D03*
D17*
X178320000Y-105140000D03*
D18*
X124250000Y-112500000D03*
D10*
X124460000Y-112760000D03*
D19*
X124660000Y-112415000D03*
D13*
X124720000Y-112030000D03*
D10*
X124980000Y-112240000D03*
D17*
X124980000Y-112760000D03*
D20*
X124980000Y-112760000D03*
D18*
X172510000Y-115040000D03*
D10*
X172720000Y-115300000D03*
D19*
X172920000Y-114955000D03*
D13*
X172980000Y-114570000D03*
D10*
X173240000Y-114780000D03*
D20*
X173240000Y-115300000D03*
D17*
X173240000Y-115300000D03*
D21*
X176790000Y-103610000D03*
D18*
X169970000Y-107420000D03*
D10*
X170180000Y-107680000D03*
D19*
X170380000Y-107335000D03*
D13*
X170440000Y-106950000D03*
D10*
X170700000Y-107160000D03*
D17*
X170700000Y-107680000D03*
D20*
X170700000Y-107680000D03*
D18*
X185210000Y-115040000D03*
D10*
X185420000Y-115300000D03*
D19*
X185620000Y-114955000D03*
D13*
X185680000Y-114570000D03*
D10*
X185940000Y-114780000D03*
D17*
X185940000Y-115300000D03*
D20*
X185940000Y-115300000D03*
D10*
X142240000Y-106590000D03*
D11*
X142250000Y-105750000D03*
D12*
X142250000Y-106550000D03*
D13*
X142500000Y-105500000D03*
D14*
X142500000Y-106090000D03*
D15*
X142750000Y-105750000D03*
D16*
X142750000Y-106550000D03*
D17*
X142750000Y-106590000D03*
D10*
X162560000Y-114210000D03*
D11*
X162570000Y-113370000D03*
D12*
X162570000Y-114170000D03*
D13*
X162820000Y-113120000D03*
D14*
X162820000Y-113710000D03*
D15*
X163070000Y-113370000D03*
D16*
X163070000Y-114170000D03*
D17*
X163070000Y-114210000D03*
D18*
X142030000Y-104880000D03*
D10*
X142240000Y-105140000D03*
D19*
X142440000Y-104795000D03*
D13*
X142500000Y-104410000D03*
D10*
X142760000Y-104620000D03*
D17*
X142760000Y-105140000D03*
D20*
X142760000Y-105140000D03*
X141670000Y-110220000D03*
D15*
X140830000Y-110210000D03*
D11*
X141630000Y-110210000D03*
D18*
X140580000Y-109960000D03*
D22*
X141170000Y-109960000D03*
D16*
X140830000Y-109710000D03*
D12*
X141630000Y-109710000D03*
D10*
X141670000Y-109710000D03*
D18*
X129330000Y-112500000D03*
D10*
X129540000Y-112760000D03*
D19*
X129740000Y-112415000D03*
D13*
X129800000Y-112030000D03*
D10*
X130060000Y-112240000D03*
D17*
X130060000Y-112760000D03*
D20*
X130060000Y-112760000D03*
D21*
X123450000Y-111230000D03*
D10*
X152400000Y-111670000D03*
D11*
X152410000Y-110830000D03*
D12*
X152410000Y-111630000D03*
D13*
X152660000Y-110580000D03*
D14*
X152660000Y-111170000D03*
D15*
X152910000Y-110830000D03*
D16*
X152910000Y-111630000D03*
D17*
X152910000Y-111670000D03*
D10*
X170180000Y-116750000D03*
D11*
X170190000Y-115910000D03*
D12*
X170190000Y-116710000D03*
D13*
X170440000Y-115660000D03*
D14*
X170440000Y-116250000D03*
D15*
X170690000Y-115910000D03*
D16*
X170690000Y-116710000D03*
D17*
X170690000Y-116750000D03*
D21*
X128530000Y-111230000D03*
D10*
X124460000Y-114210000D03*
D11*
X124470000Y-113370000D03*
D12*
X124470000Y-114170000D03*
D13*
X124720000Y-113120000D03*
D14*
X124720000Y-113710000D03*
D15*
X124970000Y-113370000D03*
D16*
X124970000Y-114170000D03*
D17*
X124970000Y-114210000D03*
D10*
X134620000Y-106590000D03*
D11*
X134630000Y-105750000D03*
D12*
X134630000Y-106550000D03*
D13*
X134880000Y-105500000D03*
D14*
X134880000Y-106090000D03*
D15*
X135130000Y-105750000D03*
D16*
X135130000Y-106550000D03*
D17*
X135130000Y-106590000D03*
D21*
X174250000Y-108690000D03*
D18*
X180130000Y-112500000D03*
D10*
X180340000Y-112760000D03*
D19*
X180540000Y-112415000D03*
D13*
X180600000Y-112030000D03*
D10*
X180860000Y-112240000D03*
D17*
X180860000Y-112760000D03*
D20*
X180860000Y-112760000D03*
D21*
X184410000Y-108690000D03*
D20*
X154370000Y-115300000D03*
D15*
X153530000Y-115290000D03*
D11*
X154330000Y-115290000D03*
D18*
X153280000Y-115040000D03*
D22*
X153870000Y-115040000D03*
D16*
X153530000Y-114790000D03*
D12*
X154330000Y-114790000D03*
D10*
X154370000Y-114790000D03*
D21*
X133610000Y-103610000D03*
D10*
X149860000Y-106590000D03*
D11*
X149870000Y-105750000D03*
D12*
X149870000Y-106550000D03*
D13*
X150120000Y-105500000D03*
D14*
X150120000Y-106090000D03*
D15*
X150370000Y-105750000D03*
D16*
X150370000Y-106550000D03*
D17*
X150370000Y-106590000D03*
D10*
X144780000Y-104050000D03*
D11*
X144790000Y-103210000D03*
D12*
X144790000Y-104010000D03*
D13*
X145040000Y-102960000D03*
D14*
X145040000Y-103550000D03*
D15*
X145290000Y-103210000D03*
D16*
X145290000Y-104010000D03*
D17*
X145290000Y-104050000D03*
D20*
X144210000Y-115300000D03*
D15*
X143370000Y-115290000D03*
D11*
X144170000Y-115290000D03*
D18*
X143120000Y-115040000D03*
D22*
X143710000Y-115040000D03*
D16*
X143370000Y-114790000D03*
D12*
X144170000Y-114790000D03*
D10*
X144210000Y-114790000D03*
D21*
X156470000Y-108690000D03*
X138690000Y-106150000D03*
D18*
X167430000Y-112500000D03*
D10*
X167640000Y-112760000D03*
D19*
X167840000Y-112415000D03*
D13*
X167900000Y-112030000D03*
D10*
X168160000Y-112240000D03*
D20*
X168160000Y-112760000D03*
D17*
X168160000Y-112760000D03*
D10*
X177800000Y-109130000D03*
D11*
X177810000Y-108290000D03*
D12*
X177810000Y-109090000D03*
D13*
X178060000Y-108040000D03*
D14*
X178060000Y-108630000D03*
D15*
X178310000Y-108290000D03*
D16*
X178310000Y-109090000D03*
D17*
X178310000Y-109130000D03*
D20*
X123890000Y-105140000D03*
D15*
X123050000Y-105130000D03*
D11*
X123850000Y-105130000D03*
D18*
X122800000Y-104880000D03*
D22*
X123390000Y-104880000D03*
D16*
X123050000Y-104630000D03*
D12*
X123850000Y-104630000D03*
D10*
X123890000Y-104630000D03*
D18*
X157270000Y-109960000D03*
D10*
X157480000Y-110220000D03*
D19*
X157680000Y-109875000D03*
D13*
X157740000Y-109490000D03*
D10*
X158000000Y-109700000D03*
D20*
X158000000Y-110220000D03*
D17*
X158000000Y-110220000D03*
D10*
X147320000Y-116750000D03*
D11*
X147330000Y-115910000D03*
D12*
X147330000Y-116710000D03*
D13*
X147580000Y-115660000D03*
D14*
X147580000Y-116250000D03*
D15*
X147830000Y-115910000D03*
D16*
X147830000Y-116710000D03*
D17*
X147830000Y-116750000D03*
D10*
X124460000Y-104050000D03*
D11*
X124470000Y-103210000D03*
D12*
X124470000Y-104010000D03*
D13*
X124720000Y-102960000D03*
D14*
X124720000Y-103550000D03*
D15*
X124970000Y-103210000D03*
D16*
X124970000Y-104010000D03*
D17*
X124970000Y-104050000D03*
D18*
X136950000Y-112500000D03*
D10*
X137160000Y-112760000D03*
D19*
X137360000Y-112415000D03*
D13*
X137420000Y-112030000D03*
D10*
X137680000Y-112240000D03*
D20*
X137680000Y-112760000D03*
D17*
X137680000Y-112760000D03*
D20*
X149290000Y-105140000D03*
D15*
X148450000Y-105130000D03*
D11*
X149250000Y-105130000D03*
D18*
X148200000Y-104880000D03*
D22*
X148790000Y-104880000D03*
D16*
X148450000Y-104630000D03*
D12*
X149250000Y-104630000D03*
D10*
X149290000Y-104630000D03*
D18*
X126790000Y-112500000D03*
D10*
X127000000Y-112760000D03*
D19*
X127200000Y-112415000D03*
D13*
X127260000Y-112030000D03*
D10*
X127520000Y-112240000D03*
D20*
X127520000Y-112760000D03*
D17*
X127520000Y-112760000D03*
D20*
X146750000Y-107680000D03*
D15*
X145910000Y-107670000D03*
D11*
X146710000Y-107670000D03*
D18*
X145660000Y-107420000D03*
D22*
X146250000Y-107420000D03*
D16*
X145910000Y-107170000D03*
D12*
X146710000Y-107170000D03*
D10*
X146750000Y-107170000D03*
X144780000Y-114210000D03*
D11*
X144790000Y-113370000D03*
D12*
X144790000Y-114170000D03*
D13*
X145040000Y-113120000D03*
D14*
X145040000Y-113710000D03*
D15*
X145290000Y-113370000D03*
D16*
X145290000Y-114170000D03*
D17*
X145290000Y-114210000D03*
D20*
X144210000Y-110220000D03*
D15*
X143370000Y-110210000D03*
D11*
X144170000Y-110210000D03*
D18*
X143120000Y-109960000D03*
D22*
X143710000Y-109960000D03*
D16*
X143370000Y-109710000D03*
D12*
X144170000Y-109710000D03*
D10*
X144210000Y-109710000D03*
X157480000Y-114210000D03*
D11*
X157490000Y-113370000D03*
D12*
X157490000Y-114170000D03*
D13*
X157740000Y-113120000D03*
D14*
X157740000Y-113710000D03*
D15*
X157990000Y-113370000D03*
D16*
X157990000Y-114170000D03*
D17*
X157990000Y-114210000D03*
D18*
X154730000Y-115040000D03*
D10*
X154940000Y-115300000D03*
D19*
X155140000Y-114955000D03*
D13*
X155200000Y-114570000D03*
D10*
X155460000Y-114780000D03*
D17*
X155460000Y-115300000D03*
D20*
X155460000Y-115300000D03*
X139130000Y-112760000D03*
D15*
X138290000Y-112750000D03*
D11*
X139090000Y-112750000D03*
D18*
X138040000Y-112500000D03*
D22*
X138630000Y-112500000D03*
D16*
X138290000Y-112250000D03*
D12*
X139090000Y-112250000D03*
D10*
X139130000Y-112250000D03*
D21*
X125990000Y-116310000D03*
X174250000Y-106150000D03*
D10*
X162560000Y-106590000D03*
D11*
X162570000Y-105750000D03*
D12*
X162570000Y-106550000D03*
D13*
X162820000Y-105500000D03*
D14*
X162820000Y-106090000D03*
D15*
X163070000Y-105750000D03*
D16*
X163070000Y-106550000D03*
D17*
X163070000Y-106590000D03*
D10*
X152400000Y-104050000D03*
D11*
X152410000Y-103210000D03*
D12*
X152410000Y-104010000D03*
D13*
X152660000Y-102960000D03*
D14*
X152660000Y-103550000D03*
D15*
X152910000Y-103210000D03*
D16*
X152910000Y-104010000D03*
D17*
X152910000Y-104050000D03*
D18*
X164890000Y-109960000D03*
D10*
X165100000Y-110220000D03*
D19*
X165300000Y-109875000D03*
D13*
X165360000Y-109490000D03*
D10*
X165620000Y-109700000D03*
D17*
X165620000Y-110220000D03*
D20*
X165620000Y-110220000D03*
D18*
X129330000Y-104880000D03*
D10*
X129540000Y-105140000D03*
D19*
X129740000Y-104795000D03*
D13*
X129800000Y-104410000D03*
D10*
X130060000Y-104620000D03*
D17*
X130060000Y-105140000D03*
D20*
X130060000Y-105140000D03*
X167070000Y-115300000D03*
D15*
X166230000Y-115290000D03*
D11*
X167030000Y-115290000D03*
D18*
X165980000Y-115040000D03*
D22*
X166570000Y-115040000D03*
D16*
X166230000Y-114790000D03*
D12*
X167030000Y-114790000D03*
D10*
X167070000Y-114790000D03*
D20*
X161990000Y-107680000D03*
D15*
X161150000Y-107670000D03*
D11*
X161950000Y-107670000D03*
D18*
X160900000Y-107420000D03*
D22*
X161490000Y-107420000D03*
D16*
X161150000Y-107170000D03*
D12*
X161950000Y-107170000D03*
D10*
X161990000Y-107170000D03*
X170180000Y-104050000D03*
D11*
X170190000Y-103210000D03*
D12*
X170190000Y-104010000D03*
D13*
X170440000Y-102960000D03*
D14*
X170440000Y-103550000D03*
D15*
X170690000Y-103210000D03*
D16*
X170690000Y-104010000D03*
D17*
X170690000Y-104050000D03*
D10*
X165100000Y-104050000D03*
D11*
X165110000Y-103210000D03*
D12*
X165110000Y-104010000D03*
D13*
X165360000Y-102960000D03*
D14*
X165360000Y-103550000D03*
D15*
X165610000Y-103210000D03*
D16*
X165610000Y-104010000D03*
D17*
X165610000Y-104050000D03*
D20*
X172150000Y-105140000D03*
D15*
X171310000Y-105130000D03*
D11*
X172110000Y-105130000D03*
D18*
X171060000Y-104880000D03*
D22*
X171650000Y-104880000D03*
D16*
X171310000Y-104630000D03*
D12*
X172110000Y-104630000D03*
D10*
X172150000Y-104630000D03*
D21*
X186950000Y-111230000D03*
D20*
X144210000Y-112760000D03*
D15*
X143370000Y-112750000D03*
D11*
X144170000Y-112750000D03*
D18*
X143120000Y-112500000D03*
D22*
X143710000Y-112500000D03*
D16*
X143370000Y-112250000D03*
D12*
X144170000Y-112250000D03*
D10*
X144210000Y-112250000D03*
X139700000Y-104050000D03*
D11*
X139710000Y-103210000D03*
D12*
X139710000Y-104010000D03*
D13*
X139960000Y-102960000D03*
D14*
X139960000Y-103550000D03*
D15*
X140210000Y-103210000D03*
D16*
X140210000Y-104010000D03*
D17*
X140210000Y-104050000D03*
D21*
X164090000Y-106150000D03*
X146310000Y-106150000D03*
D10*
X157480000Y-106590000D03*
D11*
X157490000Y-105750000D03*
D12*
X157490000Y-106550000D03*
D13*
X157740000Y-105500000D03*
D14*
X157740000Y-106090000D03*
D15*
X157990000Y-105750000D03*
D16*
X157990000Y-106550000D03*
D17*
X157990000Y-106590000D03*
D10*
X154940000Y-104050000D03*
D11*
X154950000Y-103210000D03*
D12*
X154950000Y-104010000D03*
D13*
X155200000Y-102960000D03*
D14*
X155200000Y-103550000D03*
D15*
X155450000Y-103210000D03*
D16*
X155450000Y-104010000D03*
D17*
X155450000Y-104050000D03*
D20*
X149290000Y-110220000D03*
D15*
X148450000Y-110210000D03*
D11*
X149250000Y-110210000D03*
D18*
X148200000Y-109960000D03*
D22*
X148790000Y-109960000D03*
D16*
X148450000Y-109710000D03*
D12*
X149250000Y-109710000D03*
D10*
X149290000Y-109710000D03*
D20*
X146750000Y-105140000D03*
D15*
X145910000Y-105130000D03*
D11*
X146710000Y-105130000D03*
D18*
X145660000Y-104880000D03*
D22*
X146250000Y-104880000D03*
D16*
X145910000Y-104630000D03*
D12*
X146710000Y-104630000D03*
D10*
X146750000Y-104630000D03*
D18*
X134410000Y-104880000D03*
D10*
X134620000Y-105140000D03*
D19*
X134820000Y-104795000D03*
D13*
X134880000Y-104410000D03*
D10*
X135140000Y-104620000D03*
D20*
X135140000Y-105140000D03*
D17*
X135140000Y-105140000D03*
D21*
X133610000Y-106150000D03*
D20*
X131510000Y-107680000D03*
D15*
X130670000Y-107670000D03*
D11*
X131470000Y-107670000D03*
D18*
X130420000Y-107420000D03*
D22*
X131010000Y-107420000D03*
D16*
X130670000Y-107170000D03*
D12*
X131470000Y-107170000D03*
D10*
X131510000Y-107170000D03*
D18*
X162350000Y-107420000D03*
D10*
X162560000Y-107680000D03*
D19*
X162760000Y-107335000D03*
D13*
X162820000Y-106950000D03*
D10*
X163080000Y-107160000D03*
D17*
X163080000Y-107680000D03*
D20*
X163080000Y-107680000D03*
D10*
X167640000Y-114210000D03*
D11*
X167650000Y-113370000D03*
D12*
X167650000Y-114170000D03*
D13*
X167900000Y-113120000D03*
D14*
X167900000Y-113710000D03*
D15*
X168150000Y-113370000D03*
D16*
X168150000Y-114170000D03*
D17*
X168150000Y-114210000D03*
D20*
X144210000Y-105140000D03*
D15*
X143370000Y-105130000D03*
D11*
X144170000Y-105130000D03*
D18*
X143120000Y-104880000D03*
D22*
X143710000Y-104880000D03*
D16*
X143370000Y-104630000D03*
D12*
X144170000Y-104630000D03*
D10*
X144210000Y-104630000D03*
D20*
X174690000Y-105140000D03*
D15*
X173850000Y-105130000D03*
D11*
X174650000Y-105130000D03*
D18*
X173600000Y-104880000D03*
D22*
X174190000Y-104880000D03*
D16*
X173850000Y-104630000D03*
D12*
X174650000Y-104630000D03*
D10*
X174690000Y-104630000D03*
D21*
X141230000Y-111230000D03*
D10*
X185420000Y-111670000D03*
D11*
X185430000Y-110830000D03*
D12*
X185430000Y-111630000D03*
D13*
X185680000Y-110580000D03*
D14*
X185680000Y-111170000D03*
D15*
X185930000Y-110830000D03*
D16*
X185930000Y-111630000D03*
D17*
X185930000Y-111670000D03*
D21*
X151390000Y-103610000D03*
X146310000Y-116310000D03*
D20*
X184850000Y-110220000D03*
D15*
X184010000Y-110210000D03*
D11*
X184810000Y-110210000D03*
D18*
X183760000Y-109960000D03*
D22*
X184350000Y-109960000D03*
D16*
X184010000Y-109710000D03*
D12*
X184810000Y-109710000D03*
D10*
X184850000Y-109710000D03*
X165100000Y-106590000D03*
D11*
X165110000Y-105750000D03*
D12*
X165110000Y-106550000D03*
D13*
X165360000Y-105500000D03*
D14*
X165360000Y-106090000D03*
D15*
X165610000Y-105750000D03*
D16*
X165610000Y-106550000D03*
D17*
X165610000Y-106590000D03*
D18*
X144570000Y-109960000D03*
D10*
X144780000Y-110220000D03*
D19*
X144980000Y-109875000D03*
D13*
X145040000Y-109490000D03*
D10*
X145300000Y-109700000D03*
D20*
X145300000Y-110220000D03*
D17*
X145300000Y-110220000D03*
D20*
X149290000Y-112760000D03*
D15*
X148450000Y-112750000D03*
D11*
X149250000Y-112750000D03*
D18*
X148200000Y-112500000D03*
D22*
X148790000Y-112500000D03*
D16*
X148450000Y-112250000D03*
D12*
X149250000Y-112250000D03*
D10*
X149290000Y-112250000D03*
D18*
X154730000Y-104880000D03*
D10*
X154940000Y-105140000D03*
D19*
X155140000Y-104795000D03*
D13*
X155200000Y-104410000D03*
D10*
X155460000Y-104620000D03*
D20*
X155460000Y-105140000D03*
D17*
X155460000Y-105140000D03*
D21*
X159010000Y-106150000D03*
X156470000Y-103610000D03*
X176790000Y-113770000D03*
D18*
X157270000Y-112500000D03*
D10*
X157480000Y-112760000D03*
D19*
X157680000Y-112415000D03*
D13*
X157740000Y-112030000D03*
D10*
X158000000Y-112240000D03*
D17*
X158000000Y-112760000D03*
D20*
X158000000Y-112760000D03*
D21*
X156470000Y-106150000D03*
X189490000Y-103610000D03*
D20*
X149290000Y-115300000D03*
D15*
X148450000Y-115290000D03*
D11*
X149250000Y-115290000D03*
D18*
X148200000Y-115040000D03*
D22*
X148790000Y-115040000D03*
D16*
X148450000Y-114790000D03*
D12*
X149250000Y-114790000D03*
D10*
X149290000Y-114790000D03*
D21*
X123450000Y-108690000D03*
X151390000Y-108690000D03*
D20*
X123890000Y-107680000D03*
D15*
X123050000Y-107670000D03*
D11*
X123850000Y-107670000D03*
D18*
X122800000Y-107420000D03*
D22*
X123390000Y-107420000D03*
D16*
X123050000Y-107170000D03*
D12*
X123850000Y-107170000D03*
D10*
X123890000Y-107170000D03*
D20*
X184850000Y-112760000D03*
D15*
X184010000Y-112750000D03*
D11*
X184810000Y-112750000D03*
D18*
X183760000Y-112500000D03*
D22*
X184350000Y-112500000D03*
D16*
X184010000Y-112250000D03*
D12*
X184810000Y-112250000D03*
D10*
X184850000Y-112250000D03*
D21*
X184410000Y-111230000D03*
X128530000Y-108690000D03*
D10*
X180340000Y-109130000D03*
D11*
X180350000Y-108290000D03*
D12*
X180350000Y-109090000D03*
D13*
X180600000Y-108040000D03*
D14*
X180600000Y-108630000D03*
D15*
X180850000Y-108290000D03*
D16*
X180850000Y-109090000D03*
D17*
X180850000Y-109130000D03*
D21*
X125990000Y-108690000D03*
D20*
X177230000Y-107680000D03*
D15*
X176390000Y-107670000D03*
D11*
X177190000Y-107670000D03*
D18*
X176140000Y-107420000D03*
D22*
X176730000Y-107420000D03*
D16*
X176390000Y-107170000D03*
D12*
X177190000Y-107170000D03*
D10*
X177230000Y-107170000D03*
D20*
X192470000Y-112760000D03*
D15*
X191630000Y-112750000D03*
D11*
X192430000Y-112750000D03*
D18*
X191380000Y-112500000D03*
D22*
X191970000Y-112500000D03*
D16*
X191630000Y-112250000D03*
D12*
X192430000Y-112250000D03*
D10*
X192470000Y-112250000D03*
D21*
X136150000Y-113770000D03*
D10*
X175260000Y-109130000D03*
D11*
X175270000Y-108290000D03*
D12*
X175270000Y-109090000D03*
D13*
X175520000Y-108040000D03*
D14*
X175520000Y-108630000D03*
D15*
X175770000Y-108290000D03*
D16*
X175770000Y-109090000D03*
D17*
X175770000Y-109130000D03*
D21*
X159010000Y-116310000D03*
D20*
X154370000Y-112760000D03*
D15*
X153530000Y-112750000D03*
D11*
X154330000Y-112750000D03*
D18*
X153280000Y-112500000D03*
D22*
X153870000Y-112500000D03*
D16*
X153530000Y-112250000D03*
D12*
X154330000Y-112250000D03*
D10*
X154370000Y-112250000D03*
X124460000Y-106590000D03*
D11*
X124470000Y-105750000D03*
D12*
X124470000Y-106550000D03*
D13*
X124720000Y-105500000D03*
D14*
X124720000Y-106090000D03*
D15*
X124970000Y-105750000D03*
D16*
X124970000Y-106550000D03*
D17*
X124970000Y-106590000D03*
D21*
X184410000Y-106150000D03*
D18*
X154730000Y-107420000D03*
D10*
X154940000Y-107680000D03*
D19*
X155140000Y-107335000D03*
D13*
X155200000Y-106950000D03*
D10*
X155460000Y-107160000D03*
D20*
X155460000Y-107680000D03*
D17*
X155460000Y-107680000D03*
D20*
X131510000Y-105140000D03*
D15*
X130670000Y-105130000D03*
D11*
X131470000Y-105130000D03*
D18*
X130420000Y-104880000D03*
D22*
X131010000Y-104880000D03*
D16*
X130670000Y-104630000D03*
D12*
X131470000Y-104630000D03*
D10*
X131510000Y-104630000D03*
D18*
X126790000Y-104880000D03*
D10*
X127000000Y-105140000D03*
D19*
X127200000Y-104795000D03*
D13*
X127260000Y-104410000D03*
D10*
X127520000Y-104620000D03*
D20*
X127520000Y-105140000D03*
D17*
X127520000Y-105140000D03*
D10*
X154940000Y-109130000D03*
D11*
X154950000Y-108290000D03*
D12*
X154950000Y-109090000D03*
D13*
X155200000Y-108040000D03*
D14*
X155200000Y-108630000D03*
D15*
X155450000Y-108290000D03*
D16*
X155450000Y-109090000D03*
D17*
X155450000Y-109130000D03*
D20*
X164530000Y-107680000D03*
D15*
X163690000Y-107670000D03*
D11*
X164490000Y-107670000D03*
D18*
X163440000Y-107420000D03*
D22*
X164030000Y-107420000D03*
D16*
X163690000Y-107170000D03*
D12*
X164490000Y-107170000D03*
D10*
X164530000Y-107170000D03*
D20*
X177230000Y-105140000D03*
D15*
X176390000Y-105130000D03*
D11*
X177190000Y-105130000D03*
D18*
X176140000Y-104880000D03*
D22*
X176730000Y-104880000D03*
D16*
X176390000Y-104630000D03*
D12*
X177190000Y-104630000D03*
D10*
X177230000Y-104630000D03*
D20*
X156910000Y-110220000D03*
D15*
X156070000Y-110210000D03*
D11*
X156870000Y-110210000D03*
D18*
X155820000Y-109960000D03*
D22*
X156410000Y-109960000D03*
D16*
X156070000Y-109710000D03*
D12*
X156870000Y-109710000D03*
D10*
X156910000Y-109710000D03*
D20*
X189930000Y-107680000D03*
D15*
X189090000Y-107670000D03*
D11*
X189890000Y-107670000D03*
D18*
X188840000Y-107420000D03*
D22*
X189430000Y-107420000D03*
D16*
X189090000Y-107170000D03*
D12*
X189890000Y-107170000D03*
D10*
X189930000Y-107170000D03*
D18*
X139490000Y-112500000D03*
D10*
X139700000Y-112760000D03*
D19*
X139900000Y-112415000D03*
D13*
X139960000Y-112030000D03*
D10*
X140220000Y-112240000D03*
D17*
X140220000Y-112760000D03*
D20*
X140220000Y-112760000D03*
D10*
X147320000Y-106590000D03*
D11*
X147330000Y-105750000D03*
D12*
X147330000Y-106550000D03*
D13*
X147580000Y-105500000D03*
D14*
X147580000Y-106090000D03*
D15*
X147830000Y-105750000D03*
D16*
X147830000Y-106550000D03*
D17*
X147830000Y-106590000D03*
D21*
X164090000Y-103610000D03*
D18*
X164890000Y-107420000D03*
D10*
X165100000Y-107680000D03*
D19*
X165300000Y-107335000D03*
D13*
X165360000Y-106950000D03*
D10*
X165620000Y-107160000D03*
D17*
X165620000Y-107680000D03*
D20*
X165620000Y-107680000D03*
X187390000Y-110220000D03*
D15*
X186550000Y-110210000D03*
D11*
X187350000Y-110210000D03*
D18*
X186300000Y-109960000D03*
D22*
X186890000Y-109960000D03*
D16*
X186550000Y-109710000D03*
D12*
X187350000Y-109710000D03*
D10*
X187390000Y-109710000D03*
D21*
X148850000Y-103610000D03*
D23*
X120150000Y-111240000D03*
D10*
X132080000Y-111670000D03*
D11*
X132090000Y-110830000D03*
D12*
X132090000Y-111630000D03*
D13*
X132340000Y-110580000D03*
D14*
X132340000Y-111170000D03*
D15*
X132590000Y-110830000D03*
D16*
X132590000Y-111630000D03*
D17*
X132590000Y-111670000D03*
D21*
X171710000Y-108690000D03*
D10*
X147320000Y-111670000D03*
D11*
X147330000Y-110830000D03*
D12*
X147330000Y-111630000D03*
D13*
X147580000Y-110580000D03*
D14*
X147580000Y-111170000D03*
D15*
X147830000Y-110830000D03*
D16*
X147830000Y-111630000D03*
D17*
X147830000Y-111670000D03*
D20*
X134050000Y-105140000D03*
D15*
X133210000Y-105130000D03*
D11*
X134010000Y-105130000D03*
D18*
X132960000Y-104880000D03*
D22*
X133550000Y-104880000D03*
D16*
X133210000Y-104630000D03*
D12*
X134010000Y-104630000D03*
D10*
X134050000Y-104630000D03*
D20*
X187390000Y-107680000D03*
D15*
X186550000Y-107670000D03*
D11*
X187350000Y-107670000D03*
D18*
X186300000Y-107420000D03*
D22*
X186890000Y-107420000D03*
D16*
X186550000Y-107170000D03*
D12*
X187350000Y-107170000D03*
D10*
X187390000Y-107170000D03*
M02*
