G04 #@! TF.GenerationSoftware,KiCad,Pcbnew,9.0.1*
G04 #@! TF.CreationDate,2025-05-07T17:02:48-04:00*
G04 #@! TF.ProjectId,matrix-protoboard_6x28,6d617472-6978-42d7-9072-6f746f626f61,rev?*
G04 #@! TF.SameCoordinates,Original*
G04 #@! TF.FileFunction,Legend,Top*
G04 #@! TF.FilePolarity,Positive*
%FSLAX46Y46*%
G04 Gerber Fmt 4.6, Leading zero omitted, Abs format (unit mm)*
G04 Created by KiCad (PCBNEW 9.0.1) date 2025-05-07 17:02:48*
%MOMM*%
%LPD*%
G01*
G04 APERTURE LIST*
%ADD10C,0.127000*%
%ADD11C,0.150000*%
G04 APERTURE END LIST*
D10*
X192980406Y-108966095D02*
X192980406Y-108917714D01*
X192980406Y-108917714D02*
X193004596Y-108869333D01*
X193004596Y-108869333D02*
X193028787Y-108845143D01*
X193028787Y-108845143D02*
X193077168Y-108820952D01*
X193077168Y-108820952D02*
X193173930Y-108796762D01*
X193173930Y-108796762D02*
X193294882Y-108796762D01*
X193294882Y-108796762D02*
X193391644Y-108820952D01*
X193391644Y-108820952D02*
X193440025Y-108845143D01*
X193440025Y-108845143D02*
X193464216Y-108869333D01*
X193464216Y-108869333D02*
X193488406Y-108917714D01*
X193488406Y-108917714D02*
X193488406Y-108966095D01*
X193488406Y-108966095D02*
X193464216Y-109014476D01*
X193464216Y-109014476D02*
X193440025Y-109038667D01*
X193440025Y-109038667D02*
X193391644Y-109062857D01*
X193391644Y-109062857D02*
X193294882Y-109087048D01*
X193294882Y-109087048D02*
X193173930Y-109087048D01*
X193173930Y-109087048D02*
X193077168Y-109062857D01*
X193077168Y-109062857D02*
X193028787Y-109038667D01*
X193028787Y-109038667D02*
X193004596Y-109014476D01*
X193004596Y-109014476D02*
X192980406Y-108966095D01*
X193028787Y-108603238D02*
X193004596Y-108579047D01*
X193004596Y-108579047D02*
X192980406Y-108530666D01*
X192980406Y-108530666D02*
X192980406Y-108409714D01*
X192980406Y-108409714D02*
X193004596Y-108361333D01*
X193004596Y-108361333D02*
X193028787Y-108337142D01*
X193028787Y-108337142D02*
X193077168Y-108312952D01*
X193077168Y-108312952D02*
X193125549Y-108312952D01*
X193125549Y-108312952D02*
X193198120Y-108337142D01*
X193198120Y-108337142D02*
X193488406Y-108627428D01*
X193488406Y-108627428D02*
X193488406Y-108312952D01*
D11*
X136294857Y-101519009D02*
X135961524Y-101519009D01*
X135961524Y-102042819D02*
X135961524Y-101042819D01*
X135961524Y-101042819D02*
X136437714Y-101042819D01*
X161290095Y-102042819D02*
X161290095Y-101042819D01*
X161290095Y-101042819D02*
X161671047Y-101042819D01*
X161671047Y-101042819D02*
X161766285Y-101090438D01*
X161766285Y-101090438D02*
X161813904Y-101138057D01*
X161813904Y-101138057D02*
X161861523Y-101233295D01*
X161861523Y-101233295D02*
X161861523Y-101376152D01*
X161861523Y-101376152D02*
X161813904Y-101471390D01*
X161813904Y-101471390D02*
X161766285Y-101519009D01*
X161766285Y-101519009D02*
X161671047Y-101566628D01*
X161671047Y-101566628D02*
X161290095Y-101566628D01*
X143772000Y-102042819D02*
X143772000Y-101042819D01*
X128841523Y-101947580D02*
X128793904Y-101995200D01*
X128793904Y-101995200D02*
X128651047Y-102042819D01*
X128651047Y-102042819D02*
X128555809Y-102042819D01*
X128555809Y-102042819D02*
X128412952Y-101995200D01*
X128412952Y-101995200D02*
X128317714Y-101899961D01*
X128317714Y-101899961D02*
X128270095Y-101804723D01*
X128270095Y-101804723D02*
X128222476Y-101614247D01*
X128222476Y-101614247D02*
X128222476Y-101471390D01*
X128222476Y-101471390D02*
X128270095Y-101280914D01*
X128270095Y-101280914D02*
X128317714Y-101185676D01*
X128317714Y-101185676D02*
X128412952Y-101090438D01*
X128412952Y-101090438D02*
X128555809Y-101042819D01*
X128555809Y-101042819D02*
X128651047Y-101042819D01*
X128651047Y-101042819D02*
X128793904Y-101090438D01*
X128793904Y-101090438D02*
X128841523Y-101138057D01*
D10*
X122529593Y-113513904D02*
X122529593Y-113562285D01*
X122529593Y-113562285D02*
X122505403Y-113610666D01*
X122505403Y-113610666D02*
X122481212Y-113634856D01*
X122481212Y-113634856D02*
X122432831Y-113659047D01*
X122432831Y-113659047D02*
X122336069Y-113683237D01*
X122336069Y-113683237D02*
X122215117Y-113683237D01*
X122215117Y-113683237D02*
X122118355Y-113659047D01*
X122118355Y-113659047D02*
X122069974Y-113634856D01*
X122069974Y-113634856D02*
X122045784Y-113610666D01*
X122045784Y-113610666D02*
X122021593Y-113562285D01*
X122021593Y-113562285D02*
X122021593Y-113513904D01*
X122021593Y-113513904D02*
X122045784Y-113465523D01*
X122045784Y-113465523D02*
X122069974Y-113441332D01*
X122069974Y-113441332D02*
X122118355Y-113417142D01*
X122118355Y-113417142D02*
X122215117Y-113392951D01*
X122215117Y-113392951D02*
X122336069Y-113392951D01*
X122336069Y-113392951D02*
X122432831Y-113417142D01*
X122432831Y-113417142D02*
X122481212Y-113441332D01*
X122481212Y-113441332D02*
X122505403Y-113465523D01*
X122505403Y-113465523D02*
X122529593Y-113513904D01*
X122360260Y-114118666D02*
X122021593Y-114118666D01*
X122553784Y-113997714D02*
X122190926Y-113876761D01*
X122190926Y-113876761D02*
X122190926Y-114191238D01*
D11*
X148590095Y-102042819D02*
X148590095Y-101042819D01*
X149161523Y-102042819D02*
X148732952Y-101471390D01*
X149161523Y-101042819D02*
X148590095Y-101614247D01*
X166941523Y-102042819D02*
X166608190Y-101566628D01*
X166370095Y-102042819D02*
X166370095Y-101042819D01*
X166370095Y-101042819D02*
X166751047Y-101042819D01*
X166751047Y-101042819D02*
X166846285Y-101090438D01*
X166846285Y-101090438D02*
X166893904Y-101138057D01*
X166893904Y-101138057D02*
X166941523Y-101233295D01*
X166941523Y-101233295D02*
X166941523Y-101376152D01*
X166941523Y-101376152D02*
X166893904Y-101471390D01*
X166893904Y-101471390D02*
X166846285Y-101519009D01*
X166846285Y-101519009D02*
X166751047Y-101566628D01*
X166751047Y-101566628D02*
X166370095Y-101566628D01*
D10*
X192980406Y-106426095D02*
X192980406Y-106377714D01*
X192980406Y-106377714D02*
X193004596Y-106329333D01*
X193004596Y-106329333D02*
X193028787Y-106305143D01*
X193028787Y-106305143D02*
X193077168Y-106280952D01*
X193077168Y-106280952D02*
X193173930Y-106256762D01*
X193173930Y-106256762D02*
X193294882Y-106256762D01*
X193294882Y-106256762D02*
X193391644Y-106280952D01*
X193391644Y-106280952D02*
X193440025Y-106305143D01*
X193440025Y-106305143D02*
X193464216Y-106329333D01*
X193464216Y-106329333D02*
X193488406Y-106377714D01*
X193488406Y-106377714D02*
X193488406Y-106426095D01*
X193488406Y-106426095D02*
X193464216Y-106474476D01*
X193464216Y-106474476D02*
X193440025Y-106498667D01*
X193440025Y-106498667D02*
X193391644Y-106522857D01*
X193391644Y-106522857D02*
X193294882Y-106547048D01*
X193294882Y-106547048D02*
X193173930Y-106547048D01*
X193173930Y-106547048D02*
X193077168Y-106522857D01*
X193077168Y-106522857D02*
X193028787Y-106498667D01*
X193028787Y-106498667D02*
X193004596Y-106474476D01*
X193004596Y-106474476D02*
X192980406Y-106426095D01*
X193488406Y-105772952D02*
X193488406Y-106063238D01*
X193488406Y-105918095D02*
X192980406Y-105918095D01*
X192980406Y-105918095D02*
X193052977Y-105966476D01*
X193052977Y-105966476D02*
X193101358Y-106014857D01*
X193101358Y-106014857D02*
X193125549Y-106063238D01*
X192980406Y-111506095D02*
X192980406Y-111457714D01*
X192980406Y-111457714D02*
X193004596Y-111409333D01*
X193004596Y-111409333D02*
X193028787Y-111385143D01*
X193028787Y-111385143D02*
X193077168Y-111360952D01*
X193077168Y-111360952D02*
X193173930Y-111336762D01*
X193173930Y-111336762D02*
X193294882Y-111336762D01*
X193294882Y-111336762D02*
X193391644Y-111360952D01*
X193391644Y-111360952D02*
X193440025Y-111385143D01*
X193440025Y-111385143D02*
X193464216Y-111409333D01*
X193464216Y-111409333D02*
X193488406Y-111457714D01*
X193488406Y-111457714D02*
X193488406Y-111506095D01*
X193488406Y-111506095D02*
X193464216Y-111554476D01*
X193464216Y-111554476D02*
X193440025Y-111578667D01*
X193440025Y-111578667D02*
X193391644Y-111602857D01*
X193391644Y-111602857D02*
X193294882Y-111627048D01*
X193294882Y-111627048D02*
X193173930Y-111627048D01*
X193173930Y-111627048D02*
X193077168Y-111602857D01*
X193077168Y-111602857D02*
X193028787Y-111578667D01*
X193028787Y-111578667D02*
X193004596Y-111554476D01*
X193004596Y-111554476D02*
X192980406Y-111506095D01*
X192980406Y-111167428D02*
X192980406Y-110852952D01*
X192980406Y-110852952D02*
X193173930Y-111022285D01*
X193173930Y-111022285D02*
X193173930Y-110949714D01*
X193173930Y-110949714D02*
X193198120Y-110901333D01*
X193198120Y-110901333D02*
X193222311Y-110877142D01*
X193222311Y-110877142D02*
X193270692Y-110852952D01*
X193270692Y-110852952D02*
X193391644Y-110852952D01*
X193391644Y-110852952D02*
X193440025Y-110877142D01*
X193440025Y-110877142D02*
X193464216Y-110901333D01*
X193464216Y-110901333D02*
X193488406Y-110949714D01*
X193488406Y-110949714D02*
X193488406Y-111094857D01*
X193488406Y-111094857D02*
X193464216Y-111143238D01*
X193464216Y-111143238D02*
X193440025Y-111167428D01*
D11*
X189253905Y-101757104D02*
X189730095Y-101757104D01*
X189158667Y-102042819D02*
X189492000Y-101042819D01*
X189492000Y-101042819D02*
X189825333Y-102042819D01*
X192103428Y-101519009D02*
X192246285Y-101566628D01*
X192246285Y-101566628D02*
X192293904Y-101614247D01*
X192293904Y-101614247D02*
X192341523Y-101709485D01*
X192341523Y-101709485D02*
X192341523Y-101852342D01*
X192341523Y-101852342D02*
X192293904Y-101947580D01*
X192293904Y-101947580D02*
X192246285Y-101995200D01*
X192246285Y-101995200D02*
X192151047Y-102042819D01*
X192151047Y-102042819D02*
X191770095Y-102042819D01*
X191770095Y-102042819D02*
X191770095Y-101042819D01*
X191770095Y-101042819D02*
X192103428Y-101042819D01*
X192103428Y-101042819D02*
X192198666Y-101090438D01*
X192198666Y-101090438D02*
X192246285Y-101138057D01*
X192246285Y-101138057D02*
X192293904Y-101233295D01*
X192293904Y-101233295D02*
X192293904Y-101328533D01*
X192293904Y-101328533D02*
X192246285Y-101423771D01*
X192246285Y-101423771D02*
X192198666Y-101471390D01*
X192198666Y-101471390D02*
X192103428Y-101519009D01*
X192103428Y-101519009D02*
X191770095Y-101519009D01*
X171426286Y-117806819D02*
X171997714Y-117806819D01*
X171712000Y-118806819D02*
X171712000Y-117806819D01*
X186618667Y-101042819D02*
X187285333Y-101042819D01*
X187285333Y-101042819D02*
X186618667Y-102042819D01*
X186618667Y-102042819D02*
X187285333Y-102042819D01*
X168886286Y-101995200D02*
X169029143Y-102042819D01*
X169029143Y-102042819D02*
X169267238Y-102042819D01*
X169267238Y-102042819D02*
X169362476Y-101995200D01*
X169362476Y-101995200D02*
X169410095Y-101947580D01*
X169410095Y-101947580D02*
X169457714Y-101852342D01*
X169457714Y-101852342D02*
X169457714Y-101757104D01*
X169457714Y-101757104D02*
X169410095Y-101661866D01*
X169410095Y-101661866D02*
X169362476Y-101614247D01*
X169362476Y-101614247D02*
X169267238Y-101566628D01*
X169267238Y-101566628D02*
X169076762Y-101519009D01*
X169076762Y-101519009D02*
X168981524Y-101471390D01*
X168981524Y-101471390D02*
X168933905Y-101423771D01*
X168933905Y-101423771D02*
X168886286Y-101328533D01*
X168886286Y-101328533D02*
X168886286Y-101233295D01*
X168886286Y-101233295D02*
X168933905Y-101138057D01*
X168933905Y-101138057D02*
X168981524Y-101090438D01*
X168981524Y-101090438D02*
X169076762Y-101042819D01*
X169076762Y-101042819D02*
X169314857Y-101042819D01*
X169314857Y-101042819D02*
X169457714Y-101090438D01*
X143772000Y-118806819D02*
X143772000Y-117806819D01*
X156757713Y-101133180D02*
X156757713Y-102133180D01*
X156757713Y-102133180D02*
X156186285Y-101133180D01*
X156186285Y-101133180D02*
X156186285Y-102133180D01*
X189253905Y-118521104D02*
X189730095Y-118521104D01*
X189158667Y-118806819D02*
X189492000Y-117806819D01*
X189492000Y-117806819D02*
X189825333Y-118806819D01*
X153598667Y-102042819D02*
X153598667Y-101042819D01*
X153598667Y-101042819D02*
X153932000Y-101757104D01*
X153932000Y-101757104D02*
X154265333Y-101042819D01*
X154265333Y-101042819D02*
X154265333Y-102042819D01*
X146454857Y-101042819D02*
X146454857Y-101757104D01*
X146454857Y-101757104D02*
X146407238Y-101899961D01*
X146407238Y-101899961D02*
X146312000Y-101995200D01*
X146312000Y-101995200D02*
X146169143Y-102042819D01*
X146169143Y-102042819D02*
X146073905Y-102042819D01*
X176458667Y-101042819D02*
X176792000Y-102042819D01*
X176792000Y-102042819D02*
X177125333Y-101042819D01*
X133397714Y-118283009D02*
X133731047Y-118283009D01*
X133873904Y-118806819D02*
X133397714Y-118806819D01*
X133397714Y-118806819D02*
X133397714Y-117806819D01*
X133397714Y-117806819D02*
X133873904Y-117806819D01*
X148590095Y-118806819D02*
X148590095Y-117806819D01*
X149161523Y-118806819D02*
X148732952Y-118235390D01*
X149161523Y-117806819D02*
X148590095Y-118378247D01*
X164472952Y-118902057D02*
X164377714Y-118854438D01*
X164377714Y-118854438D02*
X164282476Y-118759200D01*
X164282476Y-118759200D02*
X164139619Y-118616342D01*
X164139619Y-118616342D02*
X164044381Y-118568723D01*
X164044381Y-118568723D02*
X163949143Y-118568723D01*
X163996762Y-118806819D02*
X163901524Y-118759200D01*
X163901524Y-118759200D02*
X163806286Y-118663961D01*
X163806286Y-118663961D02*
X163758667Y-118473485D01*
X163758667Y-118473485D02*
X163758667Y-118140152D01*
X163758667Y-118140152D02*
X163806286Y-117949676D01*
X163806286Y-117949676D02*
X163901524Y-117854438D01*
X163901524Y-117854438D02*
X163996762Y-117806819D01*
X163996762Y-117806819D02*
X164187238Y-117806819D01*
X164187238Y-117806819D02*
X164282476Y-117854438D01*
X164282476Y-117854438D02*
X164377714Y-117949676D01*
X164377714Y-117949676D02*
X164425333Y-118140152D01*
X164425333Y-118140152D02*
X164425333Y-118473485D01*
X164425333Y-118473485D02*
X164377714Y-118663961D01*
X164377714Y-118663961D02*
X164282476Y-118759200D01*
X164282476Y-118759200D02*
X164187238Y-118806819D01*
X164187238Y-118806819D02*
X163996762Y-118806819D01*
X181538667Y-117806819D02*
X182205333Y-118806819D01*
X182205333Y-117806819D02*
X181538667Y-118806819D01*
X153598667Y-118806819D02*
X153598667Y-117806819D01*
X153598667Y-117806819D02*
X153932000Y-118521104D01*
X153932000Y-118521104D02*
X154265333Y-117806819D01*
X154265333Y-117806819D02*
X154265333Y-118806819D01*
X128841523Y-118711580D02*
X128793904Y-118759200D01*
X128793904Y-118759200D02*
X128651047Y-118806819D01*
X128651047Y-118806819D02*
X128555809Y-118806819D01*
X128555809Y-118806819D02*
X128412952Y-118759200D01*
X128412952Y-118759200D02*
X128317714Y-118663961D01*
X128317714Y-118663961D02*
X128270095Y-118568723D01*
X128270095Y-118568723D02*
X128222476Y-118378247D01*
X128222476Y-118378247D02*
X128222476Y-118235390D01*
X128222476Y-118235390D02*
X128270095Y-118044914D01*
X128270095Y-118044914D02*
X128317714Y-117949676D01*
X128317714Y-117949676D02*
X128412952Y-117854438D01*
X128412952Y-117854438D02*
X128555809Y-117806819D01*
X128555809Y-117806819D02*
X128651047Y-117806819D01*
X128651047Y-117806819D02*
X128793904Y-117854438D01*
X128793904Y-117854438D02*
X128841523Y-117902057D01*
X123213905Y-101757104D02*
X123690095Y-101757104D01*
X123118667Y-102042819D02*
X123452000Y-101042819D01*
X123452000Y-101042819D02*
X123785333Y-102042819D01*
X171426286Y-101042819D02*
X171997714Y-101042819D01*
X171712000Y-102042819D02*
X171712000Y-101042819D01*
X126063428Y-101519009D02*
X126206285Y-101566628D01*
X126206285Y-101566628D02*
X126253904Y-101614247D01*
X126253904Y-101614247D02*
X126301523Y-101709485D01*
X126301523Y-101709485D02*
X126301523Y-101852342D01*
X126301523Y-101852342D02*
X126253904Y-101947580D01*
X126253904Y-101947580D02*
X126206285Y-101995200D01*
X126206285Y-101995200D02*
X126111047Y-102042819D01*
X126111047Y-102042819D02*
X125730095Y-102042819D01*
X125730095Y-102042819D02*
X125730095Y-101042819D01*
X125730095Y-101042819D02*
X126063428Y-101042819D01*
X126063428Y-101042819D02*
X126158666Y-101090438D01*
X126158666Y-101090438D02*
X126206285Y-101138057D01*
X126206285Y-101138057D02*
X126253904Y-101233295D01*
X126253904Y-101233295D02*
X126253904Y-101328533D01*
X126253904Y-101328533D02*
X126206285Y-101423771D01*
X126206285Y-101423771D02*
X126158666Y-101471390D01*
X126158666Y-101471390D02*
X126063428Y-101519009D01*
X126063428Y-101519009D02*
X125730095Y-101519009D01*
X186618667Y-117806819D02*
X187285333Y-117806819D01*
X187285333Y-117806819D02*
X186618667Y-118806819D01*
X186618667Y-118806819D02*
X187285333Y-118806819D01*
X140946286Y-102042819D02*
X140946286Y-101042819D01*
X140946286Y-101519009D02*
X141517714Y-101519009D01*
X141517714Y-102042819D02*
X141517714Y-101042819D01*
X130810095Y-102042819D02*
X130810095Y-101042819D01*
X130810095Y-101042819D02*
X131048190Y-101042819D01*
X131048190Y-101042819D02*
X131191047Y-101090438D01*
X131191047Y-101090438D02*
X131286285Y-101185676D01*
X131286285Y-101185676D02*
X131333904Y-101280914D01*
X131333904Y-101280914D02*
X131381523Y-101471390D01*
X131381523Y-101471390D02*
X131381523Y-101614247D01*
X131381523Y-101614247D02*
X131333904Y-101804723D01*
X131333904Y-101804723D02*
X131286285Y-101899961D01*
X131286285Y-101899961D02*
X131191047Y-101995200D01*
X131191047Y-101995200D02*
X131048190Y-102042819D01*
X131048190Y-102042819D02*
X130810095Y-102042819D01*
X151701523Y-118806819D02*
X151225333Y-118806819D01*
X151225333Y-118806819D02*
X151225333Y-117806819D01*
X166941523Y-118806819D02*
X166608190Y-118330628D01*
X166370095Y-118806819D02*
X166370095Y-117806819D01*
X166370095Y-117806819D02*
X166751047Y-117806819D01*
X166751047Y-117806819D02*
X166846285Y-117854438D01*
X166846285Y-117854438D02*
X166893904Y-117902057D01*
X166893904Y-117902057D02*
X166941523Y-117997295D01*
X166941523Y-117997295D02*
X166941523Y-118140152D01*
X166941523Y-118140152D02*
X166893904Y-118235390D01*
X166893904Y-118235390D02*
X166846285Y-118283009D01*
X166846285Y-118283009D02*
X166751047Y-118330628D01*
X166751047Y-118330628D02*
X166370095Y-118330628D01*
X178903429Y-117806819D02*
X179141524Y-118806819D01*
X179141524Y-118806819D02*
X179332000Y-118092533D01*
X179332000Y-118092533D02*
X179522476Y-118806819D01*
X179522476Y-118806819D02*
X179760572Y-117806819D01*
X181538667Y-101042819D02*
X182205333Y-102042819D01*
X182205333Y-101042819D02*
X181538667Y-102042819D01*
X184412000Y-118330628D02*
X184412000Y-118806819D01*
X184078667Y-117806819D02*
X184412000Y-118330628D01*
X184412000Y-118330628D02*
X184745333Y-117806819D01*
X184412000Y-101566628D02*
X184412000Y-102042819D01*
X184078667Y-101042819D02*
X184412000Y-101566628D01*
X184412000Y-101566628D02*
X184745333Y-101042819D01*
X140946286Y-118806819D02*
X140946286Y-117806819D01*
X140946286Y-118283009D02*
X141517714Y-118283009D01*
X141517714Y-118806819D02*
X141517714Y-117806819D01*
X156186286Y-118806819D02*
X156186286Y-117806819D01*
X156186286Y-117806819D02*
X156757714Y-118806819D01*
X156757714Y-118806819D02*
X156757714Y-117806819D01*
X138953904Y-117854438D02*
X138858666Y-117806819D01*
X138858666Y-117806819D02*
X138715809Y-117806819D01*
X138715809Y-117806819D02*
X138572952Y-117854438D01*
X138572952Y-117854438D02*
X138477714Y-117949676D01*
X138477714Y-117949676D02*
X138430095Y-118044914D01*
X138430095Y-118044914D02*
X138382476Y-118235390D01*
X138382476Y-118235390D02*
X138382476Y-118378247D01*
X138382476Y-118378247D02*
X138430095Y-118568723D01*
X138430095Y-118568723D02*
X138477714Y-118663961D01*
X138477714Y-118663961D02*
X138572952Y-118759200D01*
X138572952Y-118759200D02*
X138715809Y-118806819D01*
X138715809Y-118806819D02*
X138811047Y-118806819D01*
X138811047Y-118806819D02*
X138953904Y-118759200D01*
X138953904Y-118759200D02*
X139001523Y-118711580D01*
X139001523Y-118711580D02*
X139001523Y-118378247D01*
X139001523Y-118378247D02*
X138811047Y-118378247D01*
X164472952Y-102138057D02*
X164377714Y-102090438D01*
X164377714Y-102090438D02*
X164282476Y-101995200D01*
X164282476Y-101995200D02*
X164139619Y-101852342D01*
X164139619Y-101852342D02*
X164044381Y-101804723D01*
X164044381Y-101804723D02*
X163949143Y-101804723D01*
X163996762Y-102042819D02*
X163901524Y-101995200D01*
X163901524Y-101995200D02*
X163806286Y-101899961D01*
X163806286Y-101899961D02*
X163758667Y-101709485D01*
X163758667Y-101709485D02*
X163758667Y-101376152D01*
X163758667Y-101376152D02*
X163806286Y-101185676D01*
X163806286Y-101185676D02*
X163901524Y-101090438D01*
X163901524Y-101090438D02*
X163996762Y-101042819D01*
X163996762Y-101042819D02*
X164187238Y-101042819D01*
X164187238Y-101042819D02*
X164282476Y-101090438D01*
X164282476Y-101090438D02*
X164377714Y-101185676D01*
X164377714Y-101185676D02*
X164425333Y-101376152D01*
X164425333Y-101376152D02*
X164425333Y-101709485D01*
X164425333Y-101709485D02*
X164377714Y-101899961D01*
X164377714Y-101899961D02*
X164282476Y-101995200D01*
X164282476Y-101995200D02*
X164187238Y-102042819D01*
X164187238Y-102042819D02*
X163996762Y-102042819D01*
X136294857Y-118283009D02*
X135961524Y-118283009D01*
X135961524Y-118806819D02*
X135961524Y-117806819D01*
X135961524Y-117806819D02*
X136437714Y-117806819D01*
X168886286Y-118759200D02*
X169029143Y-118806819D01*
X169029143Y-118806819D02*
X169267238Y-118806819D01*
X169267238Y-118806819D02*
X169362476Y-118759200D01*
X169362476Y-118759200D02*
X169410095Y-118711580D01*
X169410095Y-118711580D02*
X169457714Y-118616342D01*
X169457714Y-118616342D02*
X169457714Y-118521104D01*
X169457714Y-118521104D02*
X169410095Y-118425866D01*
X169410095Y-118425866D02*
X169362476Y-118378247D01*
X169362476Y-118378247D02*
X169267238Y-118330628D01*
X169267238Y-118330628D02*
X169076762Y-118283009D01*
X169076762Y-118283009D02*
X168981524Y-118235390D01*
X168981524Y-118235390D02*
X168933905Y-118187771D01*
X168933905Y-118187771D02*
X168886286Y-118092533D01*
X168886286Y-118092533D02*
X168886286Y-117997295D01*
X168886286Y-117997295D02*
X168933905Y-117902057D01*
X168933905Y-117902057D02*
X168981524Y-117854438D01*
X168981524Y-117854438D02*
X169076762Y-117806819D01*
X169076762Y-117806819D02*
X169314857Y-117806819D01*
X169314857Y-117806819D02*
X169457714Y-117854438D01*
D10*
X192980406Y-114046095D02*
X192980406Y-113997714D01*
X192980406Y-113997714D02*
X193004596Y-113949333D01*
X193004596Y-113949333D02*
X193028787Y-113925143D01*
X193028787Y-113925143D02*
X193077168Y-113900952D01*
X193077168Y-113900952D02*
X193173930Y-113876762D01*
X193173930Y-113876762D02*
X193294882Y-113876762D01*
X193294882Y-113876762D02*
X193391644Y-113900952D01*
X193391644Y-113900952D02*
X193440025Y-113925143D01*
X193440025Y-113925143D02*
X193464216Y-113949333D01*
X193464216Y-113949333D02*
X193488406Y-113997714D01*
X193488406Y-113997714D02*
X193488406Y-114046095D01*
X193488406Y-114046095D02*
X193464216Y-114094476D01*
X193464216Y-114094476D02*
X193440025Y-114118667D01*
X193440025Y-114118667D02*
X193391644Y-114142857D01*
X193391644Y-114142857D02*
X193294882Y-114167048D01*
X193294882Y-114167048D02*
X193173930Y-114167048D01*
X193173930Y-114167048D02*
X193077168Y-114142857D01*
X193077168Y-114142857D02*
X193028787Y-114118667D01*
X193028787Y-114118667D02*
X193004596Y-114094476D01*
X193004596Y-114094476D02*
X192980406Y-114046095D01*
X193149739Y-113441333D02*
X193488406Y-113441333D01*
X192956216Y-113562285D02*
X193319073Y-113683238D01*
X193319073Y-113683238D02*
X193319073Y-113368761D01*
D11*
X173966286Y-101042819D02*
X173966286Y-101852342D01*
X173966286Y-101852342D02*
X174013905Y-101947580D01*
X174013905Y-101947580D02*
X174061524Y-101995200D01*
X174061524Y-101995200D02*
X174156762Y-102042819D01*
X174156762Y-102042819D02*
X174347238Y-102042819D01*
X174347238Y-102042819D02*
X174442476Y-101995200D01*
X174442476Y-101995200D02*
X174490095Y-101947580D01*
X174490095Y-101947580D02*
X174537714Y-101852342D01*
X174537714Y-101852342D02*
X174537714Y-101042819D01*
D10*
X122529593Y-105893904D02*
X122529593Y-105942285D01*
X122529593Y-105942285D02*
X122505403Y-105990666D01*
X122505403Y-105990666D02*
X122481212Y-106014856D01*
X122481212Y-106014856D02*
X122432831Y-106039047D01*
X122432831Y-106039047D02*
X122336069Y-106063237D01*
X122336069Y-106063237D02*
X122215117Y-106063237D01*
X122215117Y-106063237D02*
X122118355Y-106039047D01*
X122118355Y-106039047D02*
X122069974Y-106014856D01*
X122069974Y-106014856D02*
X122045784Y-105990666D01*
X122045784Y-105990666D02*
X122021593Y-105942285D01*
X122021593Y-105942285D02*
X122021593Y-105893904D01*
X122021593Y-105893904D02*
X122045784Y-105845523D01*
X122045784Y-105845523D02*
X122069974Y-105821332D01*
X122069974Y-105821332D02*
X122118355Y-105797142D01*
X122118355Y-105797142D02*
X122215117Y-105772951D01*
X122215117Y-105772951D02*
X122336069Y-105772951D01*
X122336069Y-105772951D02*
X122432831Y-105797142D01*
X122432831Y-105797142D02*
X122481212Y-105821332D01*
X122481212Y-105821332D02*
X122505403Y-105845523D01*
X122505403Y-105845523D02*
X122529593Y-105893904D01*
X122021593Y-106547047D02*
X122021593Y-106256761D01*
X122021593Y-106401904D02*
X122529593Y-106401904D01*
X122529593Y-106401904D02*
X122457022Y-106353523D01*
X122457022Y-106353523D02*
X122408641Y-106305142D01*
X122408641Y-106305142D02*
X122384450Y-106256761D01*
D11*
X173966286Y-117806819D02*
X173966286Y-118616342D01*
X173966286Y-118616342D02*
X174013905Y-118711580D01*
X174013905Y-118711580D02*
X174061524Y-118759200D01*
X174061524Y-118759200D02*
X174156762Y-118806819D01*
X174156762Y-118806819D02*
X174347238Y-118806819D01*
X174347238Y-118806819D02*
X174442476Y-118759200D01*
X174442476Y-118759200D02*
X174490095Y-118711580D01*
X174490095Y-118711580D02*
X174537714Y-118616342D01*
X174537714Y-118616342D02*
X174537714Y-117806819D01*
D10*
X122529593Y-108433904D02*
X122529593Y-108482285D01*
X122529593Y-108482285D02*
X122505403Y-108530666D01*
X122505403Y-108530666D02*
X122481212Y-108554856D01*
X122481212Y-108554856D02*
X122432831Y-108579047D01*
X122432831Y-108579047D02*
X122336069Y-108603237D01*
X122336069Y-108603237D02*
X122215117Y-108603237D01*
X122215117Y-108603237D02*
X122118355Y-108579047D01*
X122118355Y-108579047D02*
X122069974Y-108554856D01*
X122069974Y-108554856D02*
X122045784Y-108530666D01*
X122045784Y-108530666D02*
X122021593Y-108482285D01*
X122021593Y-108482285D02*
X122021593Y-108433904D01*
X122021593Y-108433904D02*
X122045784Y-108385523D01*
X122045784Y-108385523D02*
X122069974Y-108361332D01*
X122069974Y-108361332D02*
X122118355Y-108337142D01*
X122118355Y-108337142D02*
X122215117Y-108312951D01*
X122215117Y-108312951D02*
X122336069Y-108312951D01*
X122336069Y-108312951D02*
X122432831Y-108337142D01*
X122432831Y-108337142D02*
X122481212Y-108361332D01*
X122481212Y-108361332D02*
X122505403Y-108385523D01*
X122505403Y-108385523D02*
X122529593Y-108433904D01*
X122481212Y-108796761D02*
X122505403Y-108820952D01*
X122505403Y-108820952D02*
X122529593Y-108869333D01*
X122529593Y-108869333D02*
X122529593Y-108990285D01*
X122529593Y-108990285D02*
X122505403Y-109038666D01*
X122505403Y-109038666D02*
X122481212Y-109062857D01*
X122481212Y-109062857D02*
X122432831Y-109087047D01*
X122432831Y-109087047D02*
X122384450Y-109087047D01*
X122384450Y-109087047D02*
X122311879Y-109062857D01*
X122311879Y-109062857D02*
X122021593Y-108772571D01*
X122021593Y-108772571D02*
X122021593Y-109087047D01*
D11*
X138953904Y-101090438D02*
X138858666Y-101042819D01*
X138858666Y-101042819D02*
X138715809Y-101042819D01*
X138715809Y-101042819D02*
X138572952Y-101090438D01*
X138572952Y-101090438D02*
X138477714Y-101185676D01*
X138477714Y-101185676D02*
X138430095Y-101280914D01*
X138430095Y-101280914D02*
X138382476Y-101471390D01*
X138382476Y-101471390D02*
X138382476Y-101614247D01*
X138382476Y-101614247D02*
X138430095Y-101804723D01*
X138430095Y-101804723D02*
X138477714Y-101899961D01*
X138477714Y-101899961D02*
X138572952Y-101995200D01*
X138572952Y-101995200D02*
X138715809Y-102042819D01*
X138715809Y-102042819D02*
X138811047Y-102042819D01*
X138811047Y-102042819D02*
X138953904Y-101995200D01*
X138953904Y-101995200D02*
X139001523Y-101947580D01*
X139001523Y-101947580D02*
X139001523Y-101614247D01*
X139001523Y-101614247D02*
X138811047Y-101614247D01*
X151701523Y-102042819D02*
X151225333Y-102042819D01*
X151225333Y-102042819D02*
X151225333Y-101042819D01*
X158916762Y-117806819D02*
X159107238Y-117806819D01*
X159107238Y-117806819D02*
X159202476Y-117854438D01*
X159202476Y-117854438D02*
X159297714Y-117949676D01*
X159297714Y-117949676D02*
X159345333Y-118140152D01*
X159345333Y-118140152D02*
X159345333Y-118473485D01*
X159345333Y-118473485D02*
X159297714Y-118663961D01*
X159297714Y-118663961D02*
X159202476Y-118759200D01*
X159202476Y-118759200D02*
X159107238Y-118806819D01*
X159107238Y-118806819D02*
X158916762Y-118806819D01*
X158916762Y-118806819D02*
X158821524Y-118759200D01*
X158821524Y-118759200D02*
X158726286Y-118663961D01*
X158726286Y-118663961D02*
X158678667Y-118473485D01*
X158678667Y-118473485D02*
X158678667Y-118140152D01*
X158678667Y-118140152D02*
X158726286Y-117949676D01*
X158726286Y-117949676D02*
X158821524Y-117854438D01*
X158821524Y-117854438D02*
X158916762Y-117806819D01*
X161290095Y-118806819D02*
X161290095Y-117806819D01*
X161290095Y-117806819D02*
X161671047Y-117806819D01*
X161671047Y-117806819D02*
X161766285Y-117854438D01*
X161766285Y-117854438D02*
X161813904Y-117902057D01*
X161813904Y-117902057D02*
X161861523Y-117997295D01*
X161861523Y-117997295D02*
X161861523Y-118140152D01*
X161861523Y-118140152D02*
X161813904Y-118235390D01*
X161813904Y-118235390D02*
X161766285Y-118283009D01*
X161766285Y-118283009D02*
X161671047Y-118330628D01*
X161671047Y-118330628D02*
X161290095Y-118330628D01*
X123213905Y-118521104D02*
X123690095Y-118521104D01*
X123118667Y-118806819D02*
X123452000Y-117806819D01*
X123452000Y-117806819D02*
X123785333Y-118806819D01*
X126063428Y-118283009D02*
X126206285Y-118330628D01*
X126206285Y-118330628D02*
X126253904Y-118378247D01*
X126253904Y-118378247D02*
X126301523Y-118473485D01*
X126301523Y-118473485D02*
X126301523Y-118616342D01*
X126301523Y-118616342D02*
X126253904Y-118711580D01*
X126253904Y-118711580D02*
X126206285Y-118759200D01*
X126206285Y-118759200D02*
X126111047Y-118806819D01*
X126111047Y-118806819D02*
X125730095Y-118806819D01*
X125730095Y-118806819D02*
X125730095Y-117806819D01*
X125730095Y-117806819D02*
X126063428Y-117806819D01*
X126063428Y-117806819D02*
X126158666Y-117854438D01*
X126158666Y-117854438D02*
X126206285Y-117902057D01*
X126206285Y-117902057D02*
X126253904Y-117997295D01*
X126253904Y-117997295D02*
X126253904Y-118092533D01*
X126253904Y-118092533D02*
X126206285Y-118187771D01*
X126206285Y-118187771D02*
X126158666Y-118235390D01*
X126158666Y-118235390D02*
X126063428Y-118283009D01*
X126063428Y-118283009D02*
X125730095Y-118283009D01*
X130810095Y-118806819D02*
X130810095Y-117806819D01*
X130810095Y-117806819D02*
X131048190Y-117806819D01*
X131048190Y-117806819D02*
X131191047Y-117854438D01*
X131191047Y-117854438D02*
X131286285Y-117949676D01*
X131286285Y-117949676D02*
X131333904Y-118044914D01*
X131333904Y-118044914D02*
X131381523Y-118235390D01*
X131381523Y-118235390D02*
X131381523Y-118378247D01*
X131381523Y-118378247D02*
X131333904Y-118568723D01*
X131333904Y-118568723D02*
X131286285Y-118663961D01*
X131286285Y-118663961D02*
X131191047Y-118759200D01*
X131191047Y-118759200D02*
X131048190Y-118806819D01*
X131048190Y-118806819D02*
X130810095Y-118806819D01*
D10*
X122529593Y-110973904D02*
X122529593Y-111022285D01*
X122529593Y-111022285D02*
X122505403Y-111070666D01*
X122505403Y-111070666D02*
X122481212Y-111094856D01*
X122481212Y-111094856D02*
X122432831Y-111119047D01*
X122432831Y-111119047D02*
X122336069Y-111143237D01*
X122336069Y-111143237D02*
X122215117Y-111143237D01*
X122215117Y-111143237D02*
X122118355Y-111119047D01*
X122118355Y-111119047D02*
X122069974Y-111094856D01*
X122069974Y-111094856D02*
X122045784Y-111070666D01*
X122045784Y-111070666D02*
X122021593Y-111022285D01*
X122021593Y-111022285D02*
X122021593Y-110973904D01*
X122021593Y-110973904D02*
X122045784Y-110925523D01*
X122045784Y-110925523D02*
X122069974Y-110901332D01*
X122069974Y-110901332D02*
X122118355Y-110877142D01*
X122118355Y-110877142D02*
X122215117Y-110852951D01*
X122215117Y-110852951D02*
X122336069Y-110852951D01*
X122336069Y-110852951D02*
X122432831Y-110877142D01*
X122432831Y-110877142D02*
X122481212Y-110901332D01*
X122481212Y-110901332D02*
X122505403Y-110925523D01*
X122505403Y-110925523D02*
X122529593Y-110973904D01*
X122529593Y-111312571D02*
X122529593Y-111627047D01*
X122529593Y-111627047D02*
X122336069Y-111457714D01*
X122336069Y-111457714D02*
X122336069Y-111530285D01*
X122336069Y-111530285D02*
X122311879Y-111578666D01*
X122311879Y-111578666D02*
X122287688Y-111602857D01*
X122287688Y-111602857D02*
X122239307Y-111627047D01*
X122239307Y-111627047D02*
X122118355Y-111627047D01*
X122118355Y-111627047D02*
X122069974Y-111602857D01*
X122069974Y-111602857D02*
X122045784Y-111578666D01*
X122045784Y-111578666D02*
X122021593Y-111530285D01*
X122021593Y-111530285D02*
X122021593Y-111385142D01*
X122021593Y-111385142D02*
X122045784Y-111336761D01*
X122045784Y-111336761D02*
X122069974Y-111312571D01*
D11*
X192103428Y-118283009D02*
X192246285Y-118330628D01*
X192246285Y-118330628D02*
X192293904Y-118378247D01*
X192293904Y-118378247D02*
X192341523Y-118473485D01*
X192341523Y-118473485D02*
X192341523Y-118616342D01*
X192341523Y-118616342D02*
X192293904Y-118711580D01*
X192293904Y-118711580D02*
X192246285Y-118759200D01*
X192246285Y-118759200D02*
X192151047Y-118806819D01*
X192151047Y-118806819D02*
X191770095Y-118806819D01*
X191770095Y-118806819D02*
X191770095Y-117806819D01*
X191770095Y-117806819D02*
X192103428Y-117806819D01*
X192103428Y-117806819D02*
X192198666Y-117854438D01*
X192198666Y-117854438D02*
X192246285Y-117902057D01*
X192246285Y-117902057D02*
X192293904Y-117997295D01*
X192293904Y-117997295D02*
X192293904Y-118092533D01*
X192293904Y-118092533D02*
X192246285Y-118187771D01*
X192246285Y-118187771D02*
X192198666Y-118235390D01*
X192198666Y-118235390D02*
X192103428Y-118283009D01*
X192103428Y-118283009D02*
X191770095Y-118283009D01*
X176458667Y-117806819D02*
X176792000Y-118806819D01*
X176792000Y-118806819D02*
X177125333Y-117806819D01*
X178903429Y-101042819D02*
X179141524Y-102042819D01*
X179141524Y-102042819D02*
X179332000Y-101328533D01*
X179332000Y-101328533D02*
X179522476Y-102042819D01*
X179522476Y-102042819D02*
X179760572Y-101042819D01*
X146454857Y-117806819D02*
X146454857Y-118521104D01*
X146454857Y-118521104D02*
X146407238Y-118663961D01*
X146407238Y-118663961D02*
X146312000Y-118759200D01*
X146312000Y-118759200D02*
X146169143Y-118806819D01*
X146169143Y-118806819D02*
X146073905Y-118806819D01*
X158916762Y-101042819D02*
X159107238Y-101042819D01*
X159107238Y-101042819D02*
X159202476Y-101090438D01*
X159202476Y-101090438D02*
X159297714Y-101185676D01*
X159297714Y-101185676D02*
X159345333Y-101376152D01*
X159345333Y-101376152D02*
X159345333Y-101709485D01*
X159345333Y-101709485D02*
X159297714Y-101899961D01*
X159297714Y-101899961D02*
X159202476Y-101995200D01*
X159202476Y-101995200D02*
X159107238Y-102042819D01*
X159107238Y-102042819D02*
X158916762Y-102042819D01*
X158916762Y-102042819D02*
X158821524Y-101995200D01*
X158821524Y-101995200D02*
X158726286Y-101899961D01*
X158726286Y-101899961D02*
X158678667Y-101709485D01*
X158678667Y-101709485D02*
X158678667Y-101376152D01*
X158678667Y-101376152D02*
X158726286Y-101185676D01*
X158726286Y-101185676D02*
X158821524Y-101090438D01*
X158821524Y-101090438D02*
X158916762Y-101042819D01*
X133397714Y-101519009D02*
X133731047Y-101519009D01*
X133873904Y-102042819D02*
X133397714Y-102042819D01*
X133397714Y-102042819D02*
X133397714Y-101042819D01*
X133397714Y-101042819D02*
X133873904Y-101042819D01*
%LPC*%
G36*
X120653479Y-116135919D02*
G01*
X120847488Y-116198957D01*
X121029248Y-116291568D01*
X121194282Y-116411472D01*
X121338528Y-116555718D01*
X121458432Y-116720752D01*
X121551043Y-116902512D01*
X121614081Y-117096521D01*
X121645993Y-117298003D01*
X121645993Y-117501997D01*
X121614081Y-117703479D01*
X121551043Y-117897488D01*
X121458432Y-118079248D01*
X121338528Y-118244282D01*
X121194282Y-118388528D01*
X121029248Y-118508432D01*
X120847488Y-118601043D01*
X120653479Y-118664081D01*
X120451997Y-118695993D01*
X120248003Y-118695993D01*
X120046521Y-118664081D01*
X119852512Y-118601043D01*
X119670752Y-118508432D01*
X119505718Y-118388528D01*
X119361472Y-118244282D01*
X119241568Y-118079248D01*
X119148957Y-117897488D01*
X119085919Y-117703479D01*
X119054007Y-117501997D01*
X119054007Y-117298003D01*
X119085919Y-117096521D01*
X119148957Y-116902512D01*
X119241568Y-116720752D01*
X119361472Y-116555718D01*
X119505718Y-116411472D01*
X119670752Y-116291568D01*
X119852512Y-116198957D01*
X120046521Y-116135919D01*
X120248003Y-116104007D01*
X120451997Y-116104007D01*
X120653479Y-116135919D01*
G37*
G36*
X195453479Y-116135919D02*
G01*
X195647488Y-116198957D01*
X195829248Y-116291568D01*
X195994282Y-116411472D01*
X196138528Y-116555718D01*
X196258432Y-116720752D01*
X196351043Y-116902512D01*
X196414081Y-117096521D01*
X196445993Y-117298003D01*
X196445993Y-117501997D01*
X196414081Y-117703479D01*
X196351043Y-117897488D01*
X196258432Y-118079248D01*
X196138528Y-118244282D01*
X195994282Y-118388528D01*
X195829248Y-118508432D01*
X195647488Y-118601043D01*
X195453479Y-118664081D01*
X195251997Y-118695993D01*
X195048003Y-118695993D01*
X194846521Y-118664081D01*
X194652512Y-118601043D01*
X194470752Y-118508432D01*
X194305718Y-118388528D01*
X194161472Y-118244282D01*
X194041568Y-118079248D01*
X193948957Y-117897488D01*
X193885919Y-117703479D01*
X193854007Y-117501997D01*
X193854007Y-117298003D01*
X193885919Y-117096521D01*
X193948957Y-116902512D01*
X194041568Y-116720752D01*
X194161472Y-116555718D01*
X194305718Y-116411472D01*
X194470752Y-116291568D01*
X194652512Y-116198957D01*
X194846521Y-116135919D01*
X195048003Y-116104007D01*
X195251997Y-116104007D01*
X195453479Y-116135919D01*
G37*
G36*
X124759082Y-102588846D02*
G01*
X124831176Y-102618714D01*
X124861492Y-102643598D01*
X125112621Y-102894800D01*
X125149369Y-102910028D01*
X125263599Y-102910048D01*
X125263613Y-102910049D01*
X125269956Y-102910051D01*
X125281333Y-102912315D01*
X125317081Y-102916887D01*
X125326487Y-102921304D01*
X125346472Y-102925282D01*
X125354766Y-102930825D01*
X125400285Y-102927404D01*
X125417305Y-102916031D01*
X125419046Y-102914291D01*
X125565743Y-102816271D01*
X125728744Y-102748754D01*
X125901785Y-102714334D01*
X126078215Y-102714334D01*
X126251256Y-102748754D01*
X126414257Y-102816271D01*
X126560954Y-102914291D01*
X126562695Y-102916032D01*
X126579713Y-102927403D01*
X126625230Y-102930825D01*
X126633527Y-102925281D01*
X126653508Y-102921303D01*
X126662913Y-102916888D01*
X126698642Y-102912320D01*
X126710045Y-102910051D01*
X126729275Y-102910047D01*
X126830629Y-102910029D01*
X126867378Y-102894800D01*
X127114827Y-102647281D01*
X127114827Y-102647280D01*
X127118507Y-102643600D01*
X127148824Y-102618714D01*
X127220917Y-102588846D01*
X127259951Y-102585000D01*
X127260050Y-102585000D01*
X127299082Y-102588846D01*
X127371176Y-102618714D01*
X127401492Y-102643598D01*
X127652621Y-102894800D01*
X127689369Y-102910028D01*
X127803599Y-102910048D01*
X127803613Y-102910049D01*
X127809956Y-102910051D01*
X127821333Y-102912315D01*
X127857081Y-102916887D01*
X127866487Y-102921304D01*
X127886472Y-102925282D01*
X127894766Y-102930825D01*
X127940285Y-102927404D01*
X127957305Y-102916031D01*
X127959046Y-102914291D01*
X128105743Y-102816271D01*
X128268744Y-102748754D01*
X128441785Y-102714334D01*
X128618215Y-102714334D01*
X128791256Y-102748754D01*
X128954257Y-102816271D01*
X129100954Y-102914291D01*
X129102695Y-102916032D01*
X129119713Y-102927403D01*
X129165230Y-102930825D01*
X129173527Y-102925281D01*
X129193508Y-102921303D01*
X129202913Y-102916888D01*
X129238642Y-102912320D01*
X129250045Y-102910051D01*
X129269275Y-102910047D01*
X129370629Y-102910029D01*
X129407378Y-102894800D01*
X129654827Y-102647281D01*
X129654827Y-102647280D01*
X129658507Y-102643600D01*
X129688824Y-102618714D01*
X129760917Y-102588846D01*
X129799951Y-102585000D01*
X129800050Y-102585000D01*
X129839082Y-102588846D01*
X129911176Y-102618714D01*
X129941492Y-102643598D01*
X130192621Y-102894800D01*
X130229369Y-102910028D01*
X130343599Y-102910048D01*
X130343613Y-102910049D01*
X130349956Y-102910051D01*
X130361333Y-102912315D01*
X130397081Y-102916887D01*
X130406487Y-102921304D01*
X130426472Y-102925282D01*
X130434766Y-102930825D01*
X130480285Y-102927404D01*
X130497305Y-102916031D01*
X130499046Y-102914291D01*
X130645743Y-102816271D01*
X130808744Y-102748754D01*
X130981785Y-102714334D01*
X131158215Y-102714334D01*
X131331256Y-102748754D01*
X131494257Y-102816271D01*
X131640954Y-102914291D01*
X131642695Y-102916032D01*
X131659713Y-102927403D01*
X131705230Y-102930825D01*
X131713527Y-102925281D01*
X131733508Y-102921303D01*
X131742913Y-102916888D01*
X131778642Y-102912320D01*
X131790045Y-102910051D01*
X131809275Y-102910047D01*
X131910629Y-102910029D01*
X131947378Y-102894800D01*
X132194827Y-102647281D01*
X132194827Y-102647280D01*
X132198507Y-102643600D01*
X132228824Y-102618714D01*
X132300917Y-102588846D01*
X132339951Y-102585000D01*
X132340050Y-102585000D01*
X132379082Y-102588846D01*
X132451176Y-102618714D01*
X132481492Y-102643598D01*
X132732621Y-102894800D01*
X132769369Y-102910028D01*
X132883599Y-102910048D01*
X132883613Y-102910049D01*
X132889956Y-102910051D01*
X132901333Y-102912315D01*
X132937081Y-102916887D01*
X132946487Y-102921304D01*
X132966472Y-102925282D01*
X132974766Y-102930825D01*
X133020285Y-102927404D01*
X133037305Y-102916031D01*
X133039046Y-102914291D01*
X133185743Y-102816271D01*
X133348744Y-102748754D01*
X133521785Y-102714334D01*
X133698215Y-102714334D01*
X133871256Y-102748754D01*
X134034257Y-102816271D01*
X134180954Y-102914291D01*
X134182695Y-102916032D01*
X134199713Y-102927403D01*
X134245230Y-102930825D01*
X134253527Y-102925281D01*
X134273508Y-102921303D01*
X134282913Y-102916888D01*
X134318642Y-102912320D01*
X134330045Y-102910051D01*
X134349275Y-102910047D01*
X134450629Y-102910029D01*
X134487378Y-102894800D01*
X134734827Y-102647281D01*
X134734827Y-102647280D01*
X134738507Y-102643600D01*
X134768824Y-102618714D01*
X134840917Y-102588846D01*
X134879951Y-102585000D01*
X134880050Y-102585000D01*
X134919082Y-102588846D01*
X134991176Y-102618714D01*
X135021492Y-102643598D01*
X135272621Y-102894800D01*
X135309369Y-102910028D01*
X135423599Y-102910048D01*
X135423613Y-102910049D01*
X135429956Y-102910051D01*
X135441333Y-102912315D01*
X135477081Y-102916887D01*
X135486487Y-102921304D01*
X135506472Y-102925282D01*
X135514766Y-102930825D01*
X135560285Y-102927404D01*
X135577305Y-102916031D01*
X135579046Y-102914291D01*
X135725743Y-102816271D01*
X135888744Y-102748754D01*
X136061785Y-102714334D01*
X136238215Y-102714334D01*
X136411256Y-102748754D01*
X136574257Y-102816271D01*
X136720954Y-102914291D01*
X136722695Y-102916032D01*
X136739713Y-102927403D01*
X136785230Y-102930825D01*
X136793527Y-102925281D01*
X136813508Y-102921303D01*
X136822913Y-102916888D01*
X136858642Y-102912320D01*
X136870045Y-102910051D01*
X136889275Y-102910047D01*
X136990629Y-102910029D01*
X137027378Y-102894800D01*
X137274827Y-102647281D01*
X137274827Y-102647280D01*
X137278507Y-102643600D01*
X137308824Y-102618714D01*
X137380917Y-102588846D01*
X137419951Y-102585000D01*
X137420050Y-102585000D01*
X137459082Y-102588846D01*
X137531176Y-102618714D01*
X137561492Y-102643598D01*
X137812621Y-102894800D01*
X137849369Y-102910028D01*
X137963599Y-102910048D01*
X137963613Y-102910049D01*
X137969956Y-102910051D01*
X137981333Y-102912315D01*
X138017081Y-102916887D01*
X138026487Y-102921304D01*
X138046472Y-102925282D01*
X138054766Y-102930825D01*
X138100285Y-102927404D01*
X138117305Y-102916031D01*
X138119046Y-102914291D01*
X138265743Y-102816271D01*
X138428744Y-102748754D01*
X138601785Y-102714334D01*
X138778215Y-102714334D01*
X138951256Y-102748754D01*
X139114257Y-102816271D01*
X139260954Y-102914291D01*
X139262695Y-102916032D01*
X139279713Y-102927403D01*
X139325230Y-102930825D01*
X139333527Y-102925281D01*
X139353508Y-102921303D01*
X139362913Y-102916888D01*
X139398642Y-102912320D01*
X139410045Y-102910051D01*
X139429275Y-102910047D01*
X139530629Y-102910029D01*
X139567378Y-102894800D01*
X139814827Y-102647281D01*
X139814827Y-102647280D01*
X139818507Y-102643600D01*
X139848824Y-102618714D01*
X139920917Y-102588846D01*
X139959951Y-102585000D01*
X139960050Y-102585000D01*
X139999082Y-102588846D01*
X140071176Y-102618714D01*
X140101492Y-102643598D01*
X140352621Y-102894800D01*
X140389369Y-102910028D01*
X140503599Y-102910048D01*
X140503613Y-102910049D01*
X140509956Y-102910051D01*
X140521333Y-102912315D01*
X140557081Y-102916887D01*
X140566487Y-102921304D01*
X140586472Y-102925282D01*
X140594766Y-102930825D01*
X140640285Y-102927404D01*
X140657305Y-102916031D01*
X140659046Y-102914291D01*
X140805743Y-102816271D01*
X140968744Y-102748754D01*
X141141785Y-102714334D01*
X141318215Y-102714334D01*
X141491256Y-102748754D01*
X141654257Y-102816271D01*
X141800954Y-102914291D01*
X141802695Y-102916032D01*
X141819713Y-102927403D01*
X141865230Y-102930825D01*
X141873527Y-102925281D01*
X141893508Y-102921303D01*
X141902913Y-102916888D01*
X141938642Y-102912320D01*
X141950045Y-102910051D01*
X141969275Y-102910047D01*
X142070629Y-102910029D01*
X142107378Y-102894800D01*
X142354827Y-102647281D01*
X142354827Y-102647280D01*
X142358507Y-102643600D01*
X142388824Y-102618714D01*
X142460917Y-102588846D01*
X142499951Y-102585000D01*
X142500050Y-102585000D01*
X142539082Y-102588846D01*
X142611176Y-102618714D01*
X142641492Y-102643598D01*
X142892621Y-102894800D01*
X142929369Y-102910028D01*
X143043599Y-102910048D01*
X143043613Y-102910049D01*
X143049956Y-102910051D01*
X143061333Y-102912315D01*
X143097081Y-102916887D01*
X143106487Y-102921304D01*
X143126472Y-102925282D01*
X143134766Y-102930825D01*
X143180285Y-102927404D01*
X143197305Y-102916031D01*
X143199046Y-102914291D01*
X143345743Y-102816271D01*
X143508744Y-102748754D01*
X143681785Y-102714334D01*
X143858215Y-102714334D01*
X144031256Y-102748754D01*
X144194257Y-102816271D01*
X144340954Y-102914291D01*
X144342695Y-102916032D01*
X144359713Y-102927403D01*
X144405230Y-102930825D01*
X144413527Y-102925281D01*
X144433508Y-102921303D01*
X144442913Y-102916888D01*
X144478642Y-102912320D01*
X144490045Y-102910051D01*
X144509275Y-102910047D01*
X144610629Y-102910029D01*
X144647378Y-102894800D01*
X144894827Y-102647281D01*
X144894827Y-102647280D01*
X144898507Y-102643600D01*
X144928824Y-102618714D01*
X145000917Y-102588846D01*
X145039951Y-102585000D01*
X145040050Y-102585000D01*
X145079082Y-102588846D01*
X145151176Y-102618714D01*
X145181492Y-102643598D01*
X145432621Y-102894800D01*
X145469369Y-102910028D01*
X145583599Y-102910048D01*
X145583613Y-102910049D01*
X145589956Y-102910051D01*
X145601333Y-102912315D01*
X145637081Y-102916887D01*
X145646487Y-102921304D01*
X145666472Y-102925282D01*
X145674766Y-102930825D01*
X145720285Y-102927404D01*
X145737305Y-102916031D01*
X145739046Y-102914291D01*
X145885743Y-102816271D01*
X146048744Y-102748754D01*
X146221785Y-102714334D01*
X146398215Y-102714334D01*
X146571256Y-102748754D01*
X146734257Y-102816271D01*
X146880954Y-102914291D01*
X146882695Y-102916032D01*
X146899713Y-102927403D01*
X146945230Y-102930825D01*
X146953527Y-102925281D01*
X146973508Y-102921303D01*
X146982913Y-102916888D01*
X147018642Y-102912320D01*
X147030045Y-102910051D01*
X147049275Y-102910047D01*
X147150629Y-102910029D01*
X147187378Y-102894800D01*
X147434827Y-102647281D01*
X147434827Y-102647280D01*
X147438507Y-102643600D01*
X147468824Y-102618714D01*
X147540917Y-102588846D01*
X147579951Y-102585000D01*
X147580050Y-102585000D01*
X147619082Y-102588846D01*
X147691176Y-102618714D01*
X147721492Y-102643598D01*
X147972621Y-102894800D01*
X148009369Y-102910028D01*
X148123599Y-102910048D01*
X148123613Y-102910049D01*
X148129956Y-102910051D01*
X148141333Y-102912315D01*
X148177081Y-102916887D01*
X148186487Y-102921304D01*
X148206472Y-102925282D01*
X148214766Y-102930825D01*
X148260285Y-102927404D01*
X148277305Y-102916031D01*
X148279046Y-102914291D01*
X148425743Y-102816271D01*
X148588744Y-102748754D01*
X148761785Y-102714334D01*
X148938215Y-102714334D01*
X149111256Y-102748754D01*
X149274257Y-102816271D01*
X149420954Y-102914291D01*
X149422695Y-102916032D01*
X149439713Y-102927403D01*
X149485230Y-102930825D01*
X149493527Y-102925281D01*
X149513508Y-102921303D01*
X149522913Y-102916888D01*
X149558642Y-102912320D01*
X149570045Y-102910051D01*
X149589275Y-102910047D01*
X149690629Y-102910029D01*
X149727378Y-102894800D01*
X149974827Y-102647281D01*
X149974827Y-102647280D01*
X149978507Y-102643600D01*
X150008824Y-102618714D01*
X150080917Y-102588846D01*
X150119951Y-102585000D01*
X150120050Y-102585000D01*
X150159082Y-102588846D01*
X150231176Y-102618714D01*
X150261492Y-102643598D01*
X150512621Y-102894800D01*
X150549369Y-102910028D01*
X150663599Y-102910048D01*
X150663613Y-102910049D01*
X150669956Y-102910051D01*
X150681333Y-102912315D01*
X150717081Y-102916887D01*
X150726487Y-102921304D01*
X150746472Y-102925282D01*
X150754766Y-102930825D01*
X150800285Y-102927404D01*
X150817305Y-102916031D01*
X150819046Y-102914291D01*
X150965743Y-102816271D01*
X151128744Y-102748754D01*
X151301785Y-102714334D01*
X151478215Y-102714334D01*
X151651256Y-102748754D01*
X151814257Y-102816271D01*
X151960954Y-102914291D01*
X151962695Y-102916032D01*
X151979713Y-102927403D01*
X152025230Y-102930825D01*
X152033527Y-102925281D01*
X152053508Y-102921303D01*
X152062913Y-102916888D01*
X152098642Y-102912320D01*
X152110045Y-102910051D01*
X152129275Y-102910047D01*
X152230629Y-102910029D01*
X152267378Y-102894800D01*
X152514827Y-102647281D01*
X152514827Y-102647280D01*
X152518507Y-102643600D01*
X152548824Y-102618714D01*
X152620917Y-102588846D01*
X152659951Y-102585000D01*
X152660050Y-102585000D01*
X152699082Y-102588846D01*
X152771176Y-102618714D01*
X152801492Y-102643598D01*
X153052621Y-102894800D01*
X153089369Y-102910028D01*
X153203599Y-102910048D01*
X153203613Y-102910049D01*
X153209956Y-102910051D01*
X153221333Y-102912315D01*
X153257081Y-102916887D01*
X153266487Y-102921304D01*
X153286472Y-102925282D01*
X153294766Y-102930825D01*
X153340285Y-102927404D01*
X153357305Y-102916031D01*
X153359046Y-102914291D01*
X153505743Y-102816271D01*
X153668744Y-102748754D01*
X153841785Y-102714334D01*
X154018215Y-102714334D01*
X154191256Y-102748754D01*
X154354257Y-102816271D01*
X154500954Y-102914291D01*
X154502695Y-102916032D01*
X154519713Y-102927403D01*
X154565230Y-102930825D01*
X154573527Y-102925281D01*
X154593508Y-102921303D01*
X154602913Y-102916888D01*
X154638642Y-102912320D01*
X154650045Y-102910051D01*
X154669275Y-102910047D01*
X154770629Y-102910029D01*
X154807378Y-102894800D01*
X155054827Y-102647281D01*
X155054827Y-102647280D01*
X155058507Y-102643600D01*
X155088824Y-102618714D01*
X155160917Y-102588846D01*
X155199951Y-102585000D01*
X155200050Y-102585000D01*
X155239082Y-102588846D01*
X155311176Y-102618714D01*
X155341492Y-102643598D01*
X155592621Y-102894800D01*
X155629369Y-102910028D01*
X155743599Y-102910048D01*
X155743613Y-102910049D01*
X155749956Y-102910051D01*
X155761333Y-102912315D01*
X155797081Y-102916887D01*
X155806487Y-102921304D01*
X155826472Y-102925282D01*
X155834766Y-102930825D01*
X155880285Y-102927404D01*
X155897305Y-102916031D01*
X155899046Y-102914291D01*
X156045743Y-102816271D01*
X156208744Y-102748754D01*
X156381785Y-102714334D01*
X156558215Y-102714334D01*
X156731256Y-102748754D01*
X156894257Y-102816271D01*
X157040954Y-102914291D01*
X157042695Y-102916032D01*
X157059713Y-102927403D01*
X157105230Y-102930825D01*
X157113527Y-102925281D01*
X157133508Y-102921303D01*
X157142913Y-102916888D01*
X157178642Y-102912320D01*
X157190045Y-102910051D01*
X157209275Y-102910047D01*
X157310629Y-102910029D01*
X157347378Y-102894800D01*
X157594827Y-102647281D01*
X157594827Y-102647280D01*
X157598507Y-102643600D01*
X157628824Y-102618714D01*
X157700917Y-102588846D01*
X157739951Y-102585000D01*
X157740050Y-102585000D01*
X157779082Y-102588846D01*
X157851176Y-102618714D01*
X157881492Y-102643598D01*
X158132621Y-102894800D01*
X158169369Y-102910028D01*
X158283599Y-102910048D01*
X158283613Y-102910049D01*
X158289956Y-102910051D01*
X158301333Y-102912315D01*
X158337081Y-102916887D01*
X158346487Y-102921304D01*
X158366472Y-102925282D01*
X158374766Y-102930825D01*
X158420285Y-102927404D01*
X158437305Y-102916031D01*
X158439046Y-102914291D01*
X158585743Y-102816271D01*
X158748744Y-102748754D01*
X158921785Y-102714334D01*
X159098215Y-102714334D01*
X159271256Y-102748754D01*
X159434257Y-102816271D01*
X159580954Y-102914291D01*
X159582695Y-102916032D01*
X159599713Y-102927403D01*
X159645230Y-102930825D01*
X159653527Y-102925281D01*
X159673508Y-102921303D01*
X159682913Y-102916888D01*
X159718642Y-102912320D01*
X159730045Y-102910051D01*
X159749275Y-102910047D01*
X159850629Y-102910029D01*
X159887378Y-102894800D01*
X160134827Y-102647281D01*
X160134827Y-102647280D01*
X160138507Y-102643600D01*
X160168824Y-102618714D01*
X160240917Y-102588846D01*
X160279951Y-102585000D01*
X160280050Y-102585000D01*
X160319082Y-102588846D01*
X160391176Y-102618714D01*
X160421492Y-102643598D01*
X160672621Y-102894800D01*
X160709369Y-102910028D01*
X160823599Y-102910048D01*
X160823613Y-102910049D01*
X160829956Y-102910051D01*
X160841333Y-102912315D01*
X160877081Y-102916887D01*
X160886487Y-102921304D01*
X160906472Y-102925282D01*
X160914766Y-102930825D01*
X160960285Y-102927404D01*
X160977305Y-102916031D01*
X160979046Y-102914291D01*
X161125743Y-102816271D01*
X161288744Y-102748754D01*
X161461785Y-102714334D01*
X161638215Y-102714334D01*
X161811256Y-102748754D01*
X161974257Y-102816271D01*
X162120954Y-102914291D01*
X162122695Y-102916032D01*
X162139713Y-102927403D01*
X162185230Y-102930825D01*
X162193527Y-102925281D01*
X162213508Y-102921303D01*
X162222913Y-102916888D01*
X162258642Y-102912320D01*
X162270045Y-102910051D01*
X162289275Y-102910047D01*
X162390629Y-102910029D01*
X162427378Y-102894800D01*
X162674827Y-102647281D01*
X162674827Y-102647280D01*
X162678507Y-102643600D01*
X162708824Y-102618714D01*
X162780917Y-102588846D01*
X162819951Y-102585000D01*
X162820050Y-102585000D01*
X162859082Y-102588846D01*
X162931176Y-102618714D01*
X162961492Y-102643598D01*
X163212621Y-102894800D01*
X163249369Y-102910028D01*
X163363599Y-102910048D01*
X163363613Y-102910049D01*
X163369956Y-102910051D01*
X163381333Y-102912315D01*
X163417081Y-102916887D01*
X163426487Y-102921304D01*
X163446472Y-102925282D01*
X163454766Y-102930825D01*
X163500285Y-102927404D01*
X163517305Y-102916031D01*
X163519046Y-102914291D01*
X163665743Y-102816271D01*
X163828744Y-102748754D01*
X164001785Y-102714334D01*
X164178215Y-102714334D01*
X164351256Y-102748754D01*
X164514257Y-102816271D01*
X164660954Y-102914291D01*
X164662695Y-102916032D01*
X164679713Y-102927403D01*
X164725230Y-102930825D01*
X164733527Y-102925281D01*
X164753508Y-102921303D01*
X164762913Y-102916888D01*
X164798642Y-102912320D01*
X164810045Y-102910051D01*
X164829275Y-102910047D01*
X164930629Y-102910029D01*
X164967378Y-102894800D01*
X165214827Y-102647281D01*
X165214827Y-102647280D01*
X165218507Y-102643600D01*
X165248824Y-102618714D01*
X165320917Y-102588846D01*
X165359951Y-102585000D01*
X165360050Y-102585000D01*
X165399082Y-102588846D01*
X165471176Y-102618714D01*
X165501492Y-102643598D01*
X165752621Y-102894800D01*
X165789369Y-102910028D01*
X165903599Y-102910048D01*
X165903613Y-102910049D01*
X165909956Y-102910051D01*
X165921333Y-102912315D01*
X165957081Y-102916887D01*
X165966487Y-102921304D01*
X165986472Y-102925282D01*
X165994766Y-102930825D01*
X166040285Y-102927404D01*
X166057305Y-102916031D01*
X166059046Y-102914291D01*
X166205743Y-102816271D01*
X166368744Y-102748754D01*
X166541785Y-102714334D01*
X166718215Y-102714334D01*
X166891256Y-102748754D01*
X167054257Y-102816271D01*
X167200954Y-102914291D01*
X167202695Y-102916032D01*
X167219713Y-102927403D01*
X167265230Y-102930825D01*
X167273527Y-102925281D01*
X167293508Y-102921303D01*
X167302913Y-102916888D01*
X167338642Y-102912320D01*
X167350045Y-102910051D01*
X167369275Y-102910047D01*
X167470629Y-102910029D01*
X167507378Y-102894800D01*
X167754827Y-102647281D01*
X167754827Y-102647280D01*
X167758507Y-102643600D01*
X167788824Y-102618714D01*
X167860917Y-102588846D01*
X167899951Y-102585000D01*
X167900050Y-102585000D01*
X167939082Y-102588846D01*
X168011176Y-102618714D01*
X168041492Y-102643598D01*
X168292621Y-102894800D01*
X168329369Y-102910028D01*
X168443599Y-102910048D01*
X168443613Y-102910049D01*
X168449956Y-102910051D01*
X168461333Y-102912315D01*
X168497081Y-102916887D01*
X168506487Y-102921304D01*
X168526472Y-102925282D01*
X168534766Y-102930825D01*
X168580285Y-102927404D01*
X168597305Y-102916031D01*
X168599046Y-102914291D01*
X168745743Y-102816271D01*
X168908744Y-102748754D01*
X169081785Y-102714334D01*
X169258215Y-102714334D01*
X169431256Y-102748754D01*
X169594257Y-102816271D01*
X169740954Y-102914291D01*
X169742695Y-102916032D01*
X169759713Y-102927403D01*
X169805230Y-102930825D01*
X169813527Y-102925281D01*
X169833508Y-102921303D01*
X169842913Y-102916888D01*
X169878642Y-102912320D01*
X169890045Y-102910051D01*
X169909275Y-102910047D01*
X170010629Y-102910029D01*
X170047378Y-102894800D01*
X170294827Y-102647281D01*
X170294827Y-102647280D01*
X170298507Y-102643600D01*
X170328824Y-102618714D01*
X170400917Y-102588846D01*
X170439951Y-102585000D01*
X170440050Y-102585000D01*
X170479082Y-102588846D01*
X170551176Y-102618714D01*
X170581492Y-102643598D01*
X170832621Y-102894800D01*
X170869369Y-102910028D01*
X170983599Y-102910048D01*
X170983613Y-102910049D01*
X170989956Y-102910051D01*
X171001333Y-102912315D01*
X171037081Y-102916887D01*
X171046487Y-102921304D01*
X171066472Y-102925282D01*
X171074766Y-102930825D01*
X171120285Y-102927404D01*
X171137305Y-102916031D01*
X171139046Y-102914291D01*
X171285743Y-102816271D01*
X171448744Y-102748754D01*
X171621785Y-102714334D01*
X171798215Y-102714334D01*
X171971256Y-102748754D01*
X172134257Y-102816271D01*
X172280954Y-102914291D01*
X172282695Y-102916032D01*
X172299713Y-102927403D01*
X172345230Y-102930825D01*
X172353527Y-102925281D01*
X172373508Y-102921303D01*
X172382913Y-102916888D01*
X172418642Y-102912320D01*
X172430045Y-102910051D01*
X172449275Y-102910047D01*
X172550629Y-102910029D01*
X172587378Y-102894800D01*
X172834827Y-102647281D01*
X172834827Y-102647280D01*
X172838507Y-102643600D01*
X172868824Y-102618714D01*
X172940917Y-102588846D01*
X172979951Y-102585000D01*
X172980050Y-102585000D01*
X173019082Y-102588846D01*
X173091176Y-102618714D01*
X173121492Y-102643598D01*
X173372621Y-102894800D01*
X173409369Y-102910028D01*
X173523599Y-102910048D01*
X173523613Y-102910049D01*
X173529956Y-102910051D01*
X173541333Y-102912315D01*
X173577081Y-102916887D01*
X173586487Y-102921304D01*
X173606472Y-102925282D01*
X173614766Y-102930825D01*
X173660285Y-102927404D01*
X173677305Y-102916031D01*
X173679046Y-102914291D01*
X173825743Y-102816271D01*
X173988744Y-102748754D01*
X174161785Y-102714334D01*
X174338215Y-102714334D01*
X174511256Y-102748754D01*
X174674257Y-102816271D01*
X174820954Y-102914291D01*
X174822695Y-102916032D01*
X174839713Y-102927403D01*
X174885230Y-102930825D01*
X174893527Y-102925281D01*
X174913508Y-102921303D01*
X174922913Y-102916888D01*
X174958642Y-102912320D01*
X174970045Y-102910051D01*
X174989275Y-102910047D01*
X175090629Y-102910029D01*
X175127378Y-102894800D01*
X175374827Y-102647281D01*
X175374827Y-102647280D01*
X175378507Y-102643600D01*
X175408824Y-102618714D01*
X175480917Y-102588846D01*
X175519951Y-102585000D01*
X175520050Y-102585000D01*
X175559082Y-102588846D01*
X175631176Y-102618714D01*
X175661492Y-102643598D01*
X175912621Y-102894800D01*
X175949369Y-102910028D01*
X176063599Y-102910048D01*
X176063613Y-102910049D01*
X176069956Y-102910051D01*
X176081333Y-102912315D01*
X176117081Y-102916887D01*
X176126487Y-102921304D01*
X176146472Y-102925282D01*
X176154766Y-102930825D01*
X176200285Y-102927404D01*
X176217305Y-102916031D01*
X176219046Y-102914291D01*
X176365743Y-102816271D01*
X176528744Y-102748754D01*
X176701785Y-102714334D01*
X176878215Y-102714334D01*
X177051256Y-102748754D01*
X177214257Y-102816271D01*
X177360954Y-102914291D01*
X177362695Y-102916032D01*
X177379713Y-102927403D01*
X177425230Y-102930825D01*
X177433527Y-102925281D01*
X177453508Y-102921303D01*
X177462913Y-102916888D01*
X177498642Y-102912320D01*
X177510045Y-102910051D01*
X177529275Y-102910047D01*
X177630629Y-102910029D01*
X177667378Y-102894800D01*
X177914827Y-102647281D01*
X177914827Y-102647280D01*
X177918507Y-102643600D01*
X177948824Y-102618714D01*
X178020917Y-102588846D01*
X178059951Y-102585000D01*
X178060050Y-102585000D01*
X178099082Y-102588846D01*
X178171176Y-102618714D01*
X178201492Y-102643598D01*
X178452621Y-102894800D01*
X178489369Y-102910028D01*
X178603599Y-102910048D01*
X178603613Y-102910049D01*
X178609956Y-102910051D01*
X178621333Y-102912315D01*
X178657081Y-102916887D01*
X178666487Y-102921304D01*
X178686472Y-102925282D01*
X178694766Y-102930825D01*
X178740285Y-102927404D01*
X178757305Y-102916031D01*
X178759046Y-102914291D01*
X178905743Y-102816271D01*
X179068744Y-102748754D01*
X179241785Y-102714334D01*
X179418215Y-102714334D01*
X179591256Y-102748754D01*
X179754257Y-102816271D01*
X179900954Y-102914291D01*
X179902695Y-102916032D01*
X179919713Y-102927403D01*
X179965230Y-102930825D01*
X179973527Y-102925281D01*
X179993508Y-102921303D01*
X180002913Y-102916888D01*
X180038642Y-102912320D01*
X180050045Y-102910051D01*
X180069275Y-102910047D01*
X180170629Y-102910029D01*
X180207378Y-102894800D01*
X180454827Y-102647281D01*
X180454827Y-102647280D01*
X180458507Y-102643600D01*
X180488824Y-102618714D01*
X180560917Y-102588846D01*
X180599951Y-102585000D01*
X180600050Y-102585000D01*
X180639082Y-102588846D01*
X180711176Y-102618714D01*
X180741492Y-102643598D01*
X180992621Y-102894800D01*
X181029369Y-102910028D01*
X181143599Y-102910048D01*
X181143613Y-102910049D01*
X181149956Y-102910051D01*
X181161333Y-102912315D01*
X181197081Y-102916887D01*
X181206487Y-102921304D01*
X181226472Y-102925282D01*
X181234766Y-102930825D01*
X181280285Y-102927404D01*
X181297305Y-102916031D01*
X181299046Y-102914291D01*
X181445743Y-102816271D01*
X181608744Y-102748754D01*
X181781785Y-102714334D01*
X181958215Y-102714334D01*
X182131256Y-102748754D01*
X182294257Y-102816271D01*
X182440954Y-102914291D01*
X182442695Y-102916032D01*
X182459713Y-102927403D01*
X182505230Y-102930825D01*
X182513527Y-102925281D01*
X182533508Y-102921303D01*
X182542913Y-102916888D01*
X182578642Y-102912320D01*
X182590045Y-102910051D01*
X182609275Y-102910047D01*
X182710629Y-102910029D01*
X182747378Y-102894800D01*
X182994827Y-102647281D01*
X182994827Y-102647280D01*
X182998507Y-102643600D01*
X183028824Y-102618714D01*
X183100917Y-102588846D01*
X183139951Y-102585000D01*
X183140050Y-102585000D01*
X183179082Y-102588846D01*
X183251176Y-102618714D01*
X183281492Y-102643598D01*
X183532621Y-102894800D01*
X183569369Y-102910028D01*
X183683599Y-102910048D01*
X183683613Y-102910049D01*
X183689956Y-102910051D01*
X183701333Y-102912315D01*
X183737081Y-102916887D01*
X183746487Y-102921304D01*
X183766472Y-102925282D01*
X183774766Y-102930825D01*
X183820285Y-102927404D01*
X183837305Y-102916031D01*
X183839046Y-102914291D01*
X183985743Y-102816271D01*
X184148744Y-102748754D01*
X184321785Y-102714334D01*
X184498215Y-102714334D01*
X184671256Y-102748754D01*
X184834257Y-102816271D01*
X184980954Y-102914291D01*
X184982695Y-102916032D01*
X184999713Y-102927403D01*
X185045230Y-102930825D01*
X185053527Y-102925281D01*
X185073508Y-102921303D01*
X185082913Y-102916888D01*
X185118642Y-102912320D01*
X185130045Y-102910051D01*
X185149275Y-102910047D01*
X185250629Y-102910029D01*
X185287378Y-102894800D01*
X185534827Y-102647281D01*
X185534827Y-102647280D01*
X185538507Y-102643600D01*
X185568824Y-102618714D01*
X185640917Y-102588846D01*
X185679951Y-102585000D01*
X185680050Y-102585000D01*
X185719082Y-102588846D01*
X185791176Y-102618714D01*
X185821492Y-102643598D01*
X186072621Y-102894800D01*
X186109369Y-102910028D01*
X186223599Y-102910048D01*
X186223613Y-102910049D01*
X186229956Y-102910051D01*
X186241333Y-102912315D01*
X186277081Y-102916887D01*
X186286487Y-102921304D01*
X186306472Y-102925282D01*
X186314766Y-102930825D01*
X186360285Y-102927404D01*
X186377305Y-102916031D01*
X186379046Y-102914291D01*
X186525743Y-102816271D01*
X186688744Y-102748754D01*
X186861785Y-102714334D01*
X187038215Y-102714334D01*
X187211256Y-102748754D01*
X187374257Y-102816271D01*
X187520954Y-102914291D01*
X187522695Y-102916032D01*
X187539713Y-102927403D01*
X187585230Y-102930825D01*
X187593527Y-102925281D01*
X187613508Y-102921303D01*
X187622913Y-102916888D01*
X187658642Y-102912320D01*
X187670045Y-102910051D01*
X187689275Y-102910047D01*
X187790629Y-102910029D01*
X187827378Y-102894800D01*
X188074827Y-102647281D01*
X188074827Y-102647280D01*
X188078507Y-102643600D01*
X188108824Y-102618714D01*
X188180917Y-102588846D01*
X188219951Y-102585000D01*
X188220050Y-102585000D01*
X188259082Y-102588846D01*
X188331176Y-102618714D01*
X188361492Y-102643598D01*
X188612621Y-102894800D01*
X188649369Y-102910028D01*
X188763599Y-102910048D01*
X188763613Y-102910049D01*
X188769956Y-102910051D01*
X188781333Y-102912315D01*
X188817081Y-102916887D01*
X188826487Y-102921304D01*
X188846472Y-102925282D01*
X188854766Y-102930825D01*
X188900285Y-102927404D01*
X188917305Y-102916031D01*
X188919046Y-102914291D01*
X189065743Y-102816271D01*
X189228744Y-102748754D01*
X189401785Y-102714334D01*
X189578215Y-102714334D01*
X189751256Y-102748754D01*
X189914257Y-102816271D01*
X190060954Y-102914291D01*
X190062695Y-102916032D01*
X190079713Y-102927403D01*
X190125230Y-102930825D01*
X190133527Y-102925281D01*
X190153508Y-102921303D01*
X190162913Y-102916888D01*
X190198642Y-102912320D01*
X190210045Y-102910051D01*
X190229275Y-102910047D01*
X190330629Y-102910029D01*
X190367378Y-102894800D01*
X190614827Y-102647281D01*
X190614827Y-102647280D01*
X190618507Y-102643600D01*
X190648824Y-102618714D01*
X190720917Y-102588846D01*
X190759951Y-102585000D01*
X190760050Y-102585000D01*
X190799082Y-102588846D01*
X190871176Y-102618714D01*
X190901492Y-102643598D01*
X191152621Y-102894800D01*
X191189369Y-102910028D01*
X191303599Y-102910048D01*
X191303613Y-102910049D01*
X191309956Y-102910051D01*
X191321333Y-102912315D01*
X191357081Y-102916887D01*
X191366487Y-102921304D01*
X191386472Y-102925282D01*
X191394766Y-102930825D01*
X191440285Y-102927404D01*
X191457305Y-102916031D01*
X191459046Y-102914291D01*
X191605743Y-102816271D01*
X191768744Y-102748754D01*
X191941785Y-102714334D01*
X192118215Y-102714334D01*
X192291256Y-102748754D01*
X192454257Y-102816271D01*
X192600954Y-102914291D01*
X192725709Y-103039046D01*
X192823729Y-103185743D01*
X192891246Y-103348744D01*
X192925666Y-103521785D01*
X192925666Y-103698215D01*
X192891246Y-103871256D01*
X192823729Y-104034257D01*
X192725709Y-104180954D01*
X192723964Y-104182698D01*
X192712595Y-104199714D01*
X192709173Y-104245229D01*
X192714719Y-104253527D01*
X192718697Y-104273518D01*
X192723109Y-104282912D01*
X192724823Y-104296329D01*
X192755035Y-104337815D01*
X192789039Y-104353781D01*
X192809034Y-104357762D01*
X192836242Y-104375946D01*
X192848291Y-104381604D01*
X192854607Y-104388220D01*
X192873914Y-104401124D01*
X192890204Y-104425510D01*
X192898602Y-104434307D01*
X192902713Y-104444235D01*
X192917261Y-104466013D01*
X192922367Y-104491698D01*
X192926479Y-104501627D01*
X192926758Y-104513784D01*
X192932478Y-104542551D01*
X192927944Y-104565329D01*
X192928155Y-104574473D01*
X192923633Y-104586990D01*
X192917246Y-104619087D01*
X192905917Y-104636039D01*
X192902393Y-104645798D01*
X192880379Y-104674256D01*
X192873900Y-104683953D01*
X192714272Y-104843580D01*
X192714272Y-104926420D01*
X192873899Y-105086048D01*
X192880360Y-105095716D01*
X192902393Y-105124199D01*
X192905920Y-105133964D01*
X192917246Y-105150913D01*
X192923633Y-105183010D01*
X192928155Y-105195528D01*
X192927944Y-105204670D01*
X192932478Y-105227449D01*
X192926759Y-105256210D01*
X192926480Y-105268373D01*
X192922366Y-105278305D01*
X192917261Y-105303987D01*
X192902715Y-105325761D01*
X192898603Y-105335692D01*
X192890204Y-105344489D01*
X192873914Y-105368876D01*
X192854604Y-105381781D01*
X192848290Y-105388396D01*
X192836244Y-105394052D01*
X192809034Y-105412238D01*
X192789037Y-105416218D01*
X192757965Y-105430809D01*
X192733223Y-105455549D01*
X192718696Y-105486484D01*
X192714718Y-105506472D01*
X192709174Y-105514766D01*
X192712595Y-105560285D01*
X192723966Y-105577303D01*
X192725709Y-105579046D01*
X192823729Y-105725743D01*
X192891246Y-105888744D01*
X192925666Y-106061785D01*
X192925666Y-106238215D01*
X192891246Y-106411256D01*
X192823729Y-106574257D01*
X192725709Y-106720954D01*
X192723964Y-106722698D01*
X192712595Y-106739714D01*
X192709173Y-106785229D01*
X192714719Y-106793527D01*
X192718697Y-106813518D01*
X192723109Y-106822912D01*
X192724823Y-106836329D01*
X192755035Y-106877815D01*
X192789039Y-106893781D01*
X192809034Y-106897762D01*
X192836242Y-106915946D01*
X192848291Y-106921604D01*
X192854607Y-106928220D01*
X192873914Y-106941124D01*
X192890204Y-106965510D01*
X192898602Y-106974307D01*
X192902713Y-106984235D01*
X192917261Y-107006013D01*
X192922367Y-107031698D01*
X192926479Y-107041627D01*
X192926758Y-107053784D01*
X192932478Y-107082551D01*
X192927944Y-107105329D01*
X192928155Y-107114473D01*
X192923633Y-107126990D01*
X192917246Y-107159087D01*
X192905917Y-107176039D01*
X192902393Y-107185798D01*
X192880379Y-107214256D01*
X192873900Y-107223953D01*
X192714272Y-107383580D01*
X192714272Y-107466420D01*
X192873899Y-107626048D01*
X192880360Y-107635716D01*
X192902393Y-107664199D01*
X192905920Y-107673964D01*
X192917246Y-107690913D01*
X192923633Y-107723010D01*
X192928155Y-107735528D01*
X192927944Y-107744670D01*
X192932478Y-107767449D01*
X192926759Y-107796210D01*
X192926480Y-107808373D01*
X192922366Y-107818305D01*
X192917261Y-107843987D01*
X192902715Y-107865761D01*
X192898603Y-107875692D01*
X192890204Y-107884489D01*
X192873914Y-107908876D01*
X192854604Y-107921781D01*
X192848290Y-107928396D01*
X192836244Y-107934052D01*
X192809034Y-107952238D01*
X192789037Y-107956218D01*
X192757965Y-107970809D01*
X192733223Y-107995549D01*
X192718696Y-108026484D01*
X192714718Y-108046472D01*
X192709174Y-108054766D01*
X192712595Y-108100285D01*
X192723966Y-108117303D01*
X192725709Y-108119046D01*
X192823729Y-108265743D01*
X192891246Y-108428744D01*
X192925666Y-108601785D01*
X192925666Y-108778215D01*
X192891246Y-108951256D01*
X192823729Y-109114257D01*
X192725709Y-109260954D01*
X192723964Y-109262698D01*
X192712595Y-109279714D01*
X192709173Y-109325229D01*
X192714719Y-109333527D01*
X192718697Y-109353518D01*
X192723109Y-109362912D01*
X192724823Y-109376329D01*
X192755035Y-109417815D01*
X192789039Y-109433781D01*
X192809034Y-109437762D01*
X192836242Y-109455946D01*
X192848291Y-109461604D01*
X192854607Y-109468220D01*
X192873914Y-109481124D01*
X192890204Y-109505510D01*
X192898602Y-109514307D01*
X192902713Y-109524235D01*
X192917261Y-109546013D01*
X192922367Y-109571698D01*
X192926479Y-109581627D01*
X192926758Y-109593784D01*
X192932478Y-109622551D01*
X192927944Y-109645329D01*
X192928155Y-109654473D01*
X192923633Y-109666990D01*
X192917246Y-109699087D01*
X192905917Y-109716039D01*
X192902393Y-109725798D01*
X192880379Y-109754256D01*
X192873900Y-109763953D01*
X192714272Y-109923580D01*
X192714272Y-110006420D01*
X192873899Y-110166048D01*
X192880360Y-110175716D01*
X192902393Y-110204199D01*
X192905920Y-110213964D01*
X192917246Y-110230913D01*
X192923633Y-110263010D01*
X192928155Y-110275528D01*
X192927944Y-110284670D01*
X192932478Y-110307449D01*
X192926759Y-110336210D01*
X192926480Y-110348373D01*
X192922366Y-110358305D01*
X192917261Y-110383987D01*
X192902715Y-110405761D01*
X192898603Y-110415692D01*
X192890204Y-110424489D01*
X192873914Y-110448876D01*
X192854604Y-110461781D01*
X192848290Y-110468396D01*
X192836244Y-110474052D01*
X192809034Y-110492238D01*
X192789037Y-110496218D01*
X192757965Y-110510809D01*
X192733223Y-110535549D01*
X192718696Y-110566484D01*
X192714718Y-110586472D01*
X192709174Y-110594766D01*
X192712595Y-110640285D01*
X192723966Y-110657303D01*
X192725709Y-110659046D01*
X192823729Y-110805743D01*
X192891246Y-110968744D01*
X192925666Y-111141785D01*
X192925666Y-111318215D01*
X192891246Y-111491256D01*
X192823729Y-111654257D01*
X192725709Y-111800954D01*
X192723964Y-111802698D01*
X192712595Y-111819714D01*
X192709173Y-111865229D01*
X192714719Y-111873527D01*
X192718697Y-111893518D01*
X192723109Y-111902912D01*
X192724823Y-111916329D01*
X192755035Y-111957815D01*
X192789039Y-111973781D01*
X192809034Y-111977762D01*
X192836242Y-111995946D01*
X192848291Y-112001604D01*
X192854607Y-112008220D01*
X192873914Y-112021124D01*
X192890204Y-112045510D01*
X192898602Y-112054307D01*
X192902713Y-112064235D01*
X192917261Y-112086013D01*
X192922367Y-112111698D01*
X192926479Y-112121627D01*
X192926758Y-112133784D01*
X192932478Y-112162551D01*
X192927944Y-112185329D01*
X192928155Y-112194473D01*
X192923633Y-112206990D01*
X192917246Y-112239087D01*
X192905917Y-112256039D01*
X192902393Y-112265798D01*
X192880379Y-112294256D01*
X192873900Y-112303953D01*
X192714272Y-112463580D01*
X192714272Y-112546420D01*
X192873899Y-112706048D01*
X192880360Y-112715716D01*
X192902393Y-112744199D01*
X192905920Y-112753964D01*
X192917246Y-112770913D01*
X192923633Y-112803010D01*
X192928155Y-112815528D01*
X192927944Y-112824670D01*
X192932478Y-112847449D01*
X192926759Y-112876210D01*
X192926480Y-112888373D01*
X192922366Y-112898305D01*
X192917261Y-112923987D01*
X192902715Y-112945761D01*
X192898603Y-112955692D01*
X192890204Y-112964489D01*
X192873914Y-112988876D01*
X192854604Y-113001781D01*
X192848290Y-113008396D01*
X192836244Y-113014052D01*
X192809034Y-113032238D01*
X192789037Y-113036218D01*
X192757965Y-113050809D01*
X192733223Y-113075549D01*
X192718696Y-113106484D01*
X192714718Y-113126472D01*
X192709174Y-113134766D01*
X192712595Y-113180285D01*
X192723966Y-113197303D01*
X192725709Y-113199046D01*
X192823729Y-113345743D01*
X192891246Y-113508744D01*
X192925666Y-113681785D01*
X192925666Y-113858215D01*
X192891246Y-114031256D01*
X192823729Y-114194257D01*
X192725709Y-114340954D01*
X192723964Y-114342698D01*
X192712595Y-114359714D01*
X192709173Y-114405229D01*
X192714719Y-114413527D01*
X192718697Y-114433518D01*
X192723109Y-114442912D01*
X192724823Y-114456329D01*
X192755035Y-114497815D01*
X192789039Y-114513781D01*
X192809034Y-114517762D01*
X192836242Y-114535946D01*
X192848291Y-114541604D01*
X192854607Y-114548220D01*
X192873914Y-114561124D01*
X192890204Y-114585510D01*
X192898602Y-114594307D01*
X192902713Y-114604235D01*
X192917261Y-114626013D01*
X192922367Y-114651698D01*
X192926479Y-114661627D01*
X192926758Y-114673784D01*
X192932478Y-114702551D01*
X192927944Y-114725329D01*
X192928155Y-114734473D01*
X192923633Y-114746990D01*
X192917246Y-114779087D01*
X192905917Y-114796039D01*
X192902393Y-114805798D01*
X192880379Y-114834256D01*
X192873900Y-114843953D01*
X192714272Y-115003580D01*
X192714272Y-115086420D01*
X192873899Y-115246048D01*
X192880360Y-115255716D01*
X192902393Y-115284199D01*
X192905920Y-115293964D01*
X192917246Y-115310913D01*
X192923633Y-115343010D01*
X192928155Y-115355528D01*
X192927944Y-115364670D01*
X192932478Y-115387449D01*
X192926759Y-115416210D01*
X192926480Y-115428373D01*
X192922366Y-115438305D01*
X192917261Y-115463987D01*
X192902715Y-115485761D01*
X192898603Y-115495692D01*
X192890204Y-115504489D01*
X192873914Y-115528876D01*
X192854604Y-115541781D01*
X192848290Y-115548396D01*
X192836244Y-115554052D01*
X192809034Y-115572238D01*
X192789037Y-115576218D01*
X192757965Y-115590809D01*
X192733223Y-115615549D01*
X192718696Y-115646484D01*
X192714718Y-115666472D01*
X192709174Y-115674766D01*
X192712595Y-115720285D01*
X192723966Y-115737303D01*
X192725709Y-115739046D01*
X192823729Y-115885743D01*
X192891246Y-116048744D01*
X192925666Y-116221785D01*
X192925666Y-116398215D01*
X192891246Y-116571256D01*
X192823729Y-116734257D01*
X192725709Y-116880954D01*
X192600954Y-117005709D01*
X192454257Y-117103729D01*
X192291256Y-117171246D01*
X192118215Y-117205666D01*
X191941785Y-117205666D01*
X191768744Y-117171246D01*
X191605743Y-117103729D01*
X191459046Y-117005709D01*
X191457303Y-117003966D01*
X191440285Y-116992595D01*
X191394768Y-116989174D01*
X191386473Y-116994719D01*
X191366481Y-116998698D01*
X191357088Y-117003109D01*
X191343672Y-117004822D01*
X191302184Y-117035035D01*
X191286218Y-117069034D01*
X191282238Y-117089034D01*
X191264048Y-117116249D01*
X191258395Y-117128290D01*
X191251782Y-117134602D01*
X191238876Y-117153914D01*
X191214486Y-117170206D01*
X191205692Y-117178602D01*
X191195765Y-117182712D01*
X191173987Y-117197261D01*
X191148299Y-117202368D01*
X191138372Y-117206479D01*
X191126215Y-117206758D01*
X191097449Y-117212478D01*
X191074670Y-117207944D01*
X191065526Y-117208155D01*
X191053007Y-117203633D01*
X191020913Y-117197246D01*
X191003961Y-117185918D01*
X190994201Y-117182393D01*
X190965736Y-117160374D01*
X190956047Y-117153900D01*
X190796420Y-116994272D01*
X190713580Y-116994272D01*
X190553952Y-117153899D01*
X190544275Y-117160365D01*
X190515800Y-117182393D01*
X190506036Y-117185919D01*
X190489087Y-117197246D01*
X190456987Y-117203634D01*
X190444471Y-117208155D01*
X190435328Y-117207944D01*
X190412551Y-117212478D01*
X190383789Y-117206759D01*
X190371626Y-117206480D01*
X190361692Y-117202366D01*
X190336013Y-117197261D01*
X190314240Y-117182716D01*
X190304307Y-117178603D01*
X190295507Y-117170202D01*
X190271124Y-117153914D01*
X190258220Y-117134607D01*
X190251603Y-117128290D01*
X190245944Y-117116239D01*
X190227762Y-117089034D01*
X190223782Y-117069040D01*
X190209190Y-117037964D01*
X190184449Y-117013223D01*
X190153513Y-116998696D01*
X190133528Y-116994718D01*
X190125233Y-116989174D01*
X190079714Y-116992595D01*
X190062698Y-117003964D01*
X190060954Y-117005709D01*
X189914257Y-117103729D01*
X189751256Y-117171246D01*
X189578215Y-117205666D01*
X189401785Y-117205666D01*
X189228744Y-117171246D01*
X189065743Y-117103729D01*
X188919046Y-117005709D01*
X188917303Y-117003966D01*
X188900285Y-116992595D01*
X188854768Y-116989174D01*
X188846473Y-116994719D01*
X188826481Y-116998698D01*
X188817088Y-117003109D01*
X188803672Y-117004822D01*
X188762184Y-117035035D01*
X188746218Y-117069034D01*
X188742238Y-117089034D01*
X188724048Y-117116249D01*
X188718395Y-117128290D01*
X188711782Y-117134602D01*
X188698876Y-117153914D01*
X188674486Y-117170206D01*
X188665692Y-117178602D01*
X188655765Y-117182712D01*
X188633987Y-117197261D01*
X188608299Y-117202368D01*
X188598372Y-117206479D01*
X188586215Y-117206758D01*
X188557449Y-117212478D01*
X188534670Y-117207944D01*
X188525526Y-117208155D01*
X188513007Y-117203633D01*
X188480913Y-117197246D01*
X188463961Y-117185918D01*
X188454201Y-117182393D01*
X188425736Y-117160374D01*
X188416047Y-117153900D01*
X188256420Y-116994272D01*
X188173580Y-116994272D01*
X188013952Y-117153899D01*
X188004275Y-117160365D01*
X187975800Y-117182393D01*
X187966036Y-117185919D01*
X187949087Y-117197246D01*
X187916987Y-117203634D01*
X187904471Y-117208155D01*
X187895328Y-117207944D01*
X187872551Y-117212478D01*
X187843789Y-117206759D01*
X187831626Y-117206480D01*
X187821692Y-117202366D01*
X187796013Y-117197261D01*
X187774240Y-117182716D01*
X187764307Y-117178603D01*
X187755507Y-117170202D01*
X187731124Y-117153914D01*
X187718220Y-117134607D01*
X187711603Y-117128290D01*
X187705944Y-117116239D01*
X187687762Y-117089034D01*
X187683782Y-117069040D01*
X187669190Y-117037964D01*
X187644449Y-117013223D01*
X187613513Y-116998696D01*
X187593528Y-116994718D01*
X187585233Y-116989174D01*
X187539714Y-116992595D01*
X187522698Y-117003964D01*
X187520954Y-117005709D01*
X187374257Y-117103729D01*
X187211256Y-117171246D01*
X187038215Y-117205666D01*
X186861785Y-117205666D01*
X186688744Y-117171246D01*
X186525743Y-117103729D01*
X186379046Y-117005709D01*
X186377303Y-117003966D01*
X186360285Y-116992595D01*
X186314768Y-116989174D01*
X186306473Y-116994719D01*
X186286481Y-116998698D01*
X186277088Y-117003109D01*
X186263672Y-117004822D01*
X186222184Y-117035035D01*
X186206218Y-117069034D01*
X186202238Y-117089034D01*
X186184048Y-117116249D01*
X186178395Y-117128290D01*
X186171782Y-117134602D01*
X186158876Y-117153914D01*
X186134486Y-117170206D01*
X186125692Y-117178602D01*
X186115765Y-117182712D01*
X186093987Y-117197261D01*
X186068299Y-117202368D01*
X186058372Y-117206479D01*
X186046215Y-117206758D01*
X186017449Y-117212478D01*
X185994670Y-117207944D01*
X185985526Y-117208155D01*
X185973007Y-117203633D01*
X185940913Y-117197246D01*
X185923961Y-117185918D01*
X185914201Y-117182393D01*
X185885736Y-117160374D01*
X185876047Y-117153900D01*
X185716420Y-116994272D01*
X185633580Y-116994272D01*
X185473952Y-117153899D01*
X185464275Y-117160365D01*
X185435800Y-117182393D01*
X185426036Y-117185919D01*
X185409087Y-117197246D01*
X185376987Y-117203634D01*
X185364471Y-117208155D01*
X185355328Y-117207944D01*
X185332551Y-117212478D01*
X185303789Y-117206759D01*
X185291626Y-117206480D01*
X185281692Y-117202366D01*
X185256013Y-117197261D01*
X185234240Y-117182716D01*
X185224307Y-117178603D01*
X185215507Y-117170202D01*
X185191124Y-117153914D01*
X185178220Y-117134607D01*
X185171603Y-117128290D01*
X185165944Y-117116239D01*
X185147762Y-117089034D01*
X185143782Y-117069040D01*
X185129190Y-117037964D01*
X185104449Y-117013223D01*
X185073513Y-116998696D01*
X185053528Y-116994718D01*
X185045233Y-116989174D01*
X184999714Y-116992595D01*
X184982698Y-117003964D01*
X184980954Y-117005709D01*
X184834257Y-117103729D01*
X184671256Y-117171246D01*
X184498215Y-117205666D01*
X184321785Y-117205666D01*
X184148744Y-117171246D01*
X183985743Y-117103729D01*
X183839046Y-117005709D01*
X183837303Y-117003966D01*
X183820285Y-116992595D01*
X183774768Y-116989174D01*
X183766473Y-116994719D01*
X183746481Y-116998698D01*
X183737088Y-117003109D01*
X183723672Y-117004822D01*
X183682184Y-117035035D01*
X183666218Y-117069034D01*
X183662238Y-117089034D01*
X183644048Y-117116249D01*
X183638395Y-117128290D01*
X183631782Y-117134602D01*
X183618876Y-117153914D01*
X183594486Y-117170206D01*
X183585692Y-117178602D01*
X183575765Y-117182712D01*
X183553987Y-117197261D01*
X183528299Y-117202368D01*
X183518372Y-117206479D01*
X183506215Y-117206758D01*
X183477449Y-117212478D01*
X183454670Y-117207944D01*
X183445526Y-117208155D01*
X183433007Y-117203633D01*
X183400913Y-117197246D01*
X183383961Y-117185918D01*
X183374201Y-117182393D01*
X183345736Y-117160374D01*
X183336047Y-117153900D01*
X183176420Y-116994272D01*
X183093580Y-116994272D01*
X182933952Y-117153899D01*
X182924275Y-117160365D01*
X182895800Y-117182393D01*
X182886036Y-117185919D01*
X182869087Y-117197246D01*
X182836987Y-117203634D01*
X182824471Y-117208155D01*
X182815328Y-117207944D01*
X182792551Y-117212478D01*
X182763789Y-117206759D01*
X182751626Y-117206480D01*
X182741692Y-117202366D01*
X182716013Y-117197261D01*
X182694240Y-117182716D01*
X182684307Y-117178603D01*
X182675507Y-117170202D01*
X182651124Y-117153914D01*
X182638220Y-117134607D01*
X182631603Y-117128290D01*
X182625944Y-117116239D01*
X182607762Y-117089034D01*
X182603782Y-117069040D01*
X182589190Y-117037964D01*
X182564449Y-117013223D01*
X182533513Y-116998696D01*
X182513528Y-116994718D01*
X182505233Y-116989174D01*
X182459714Y-116992595D01*
X182442698Y-117003964D01*
X182440954Y-117005709D01*
X182294257Y-117103729D01*
X182131256Y-117171246D01*
X181958215Y-117205666D01*
X181781785Y-117205666D01*
X181608744Y-117171246D01*
X181445743Y-117103729D01*
X181299046Y-117005709D01*
X181297303Y-117003966D01*
X181280285Y-116992595D01*
X181234768Y-116989174D01*
X181226473Y-116994719D01*
X181206481Y-116998698D01*
X181197088Y-117003109D01*
X181183672Y-117004822D01*
X181142184Y-117035035D01*
X181126218Y-117069034D01*
X181122238Y-117089034D01*
X181104048Y-117116249D01*
X181098395Y-117128290D01*
X181091782Y-117134602D01*
X181078876Y-117153914D01*
X181054486Y-117170206D01*
X181045692Y-117178602D01*
X181035765Y-117182712D01*
X181013987Y-117197261D01*
X180988299Y-117202368D01*
X180978372Y-117206479D01*
X180966215Y-117206758D01*
X180937449Y-117212478D01*
X180914670Y-117207944D01*
X180905526Y-117208155D01*
X180893007Y-117203633D01*
X180860913Y-117197246D01*
X180843961Y-117185918D01*
X180834201Y-117182393D01*
X180805736Y-117160374D01*
X180796047Y-117153900D01*
X180636420Y-116994272D01*
X180553580Y-116994272D01*
X180393952Y-117153899D01*
X180384275Y-117160365D01*
X180355800Y-117182393D01*
X180346036Y-117185919D01*
X180329087Y-117197246D01*
X180296987Y-117203634D01*
X180284471Y-117208155D01*
X180275328Y-117207944D01*
X180252551Y-117212478D01*
X180223789Y-117206759D01*
X180211626Y-117206480D01*
X180201692Y-117202366D01*
X180176013Y-117197261D01*
X180154240Y-117182716D01*
X180144307Y-117178603D01*
X180135507Y-117170202D01*
X180111124Y-117153914D01*
X180098220Y-117134607D01*
X180091603Y-117128290D01*
X180085944Y-117116239D01*
X180067762Y-117089034D01*
X180063782Y-117069040D01*
X180049190Y-117037964D01*
X180024449Y-117013223D01*
X179993513Y-116998696D01*
X179973528Y-116994718D01*
X179965233Y-116989174D01*
X179919714Y-116992595D01*
X179902698Y-117003964D01*
X179900954Y-117005709D01*
X179754257Y-117103729D01*
X179591256Y-117171246D01*
X179418215Y-117205666D01*
X179241785Y-117205666D01*
X179068744Y-117171246D01*
X178905743Y-117103729D01*
X178759046Y-117005709D01*
X178757303Y-117003966D01*
X178740285Y-116992595D01*
X178694768Y-116989174D01*
X178686473Y-116994719D01*
X178666481Y-116998698D01*
X178657088Y-117003109D01*
X178643672Y-117004822D01*
X178602184Y-117035035D01*
X178586218Y-117069034D01*
X178582238Y-117089034D01*
X178564048Y-117116249D01*
X178558395Y-117128290D01*
X178551782Y-117134602D01*
X178538876Y-117153914D01*
X178514486Y-117170206D01*
X178505692Y-117178602D01*
X178495765Y-117182712D01*
X178473987Y-117197261D01*
X178448299Y-117202368D01*
X178438372Y-117206479D01*
X178426215Y-117206758D01*
X178397449Y-117212478D01*
X178374670Y-117207944D01*
X178365526Y-117208155D01*
X178353007Y-117203633D01*
X178320913Y-117197246D01*
X178303961Y-117185918D01*
X178294201Y-117182393D01*
X178265736Y-117160374D01*
X178256047Y-117153900D01*
X178096420Y-116994272D01*
X178013580Y-116994272D01*
X177853952Y-117153899D01*
X177844275Y-117160365D01*
X177815800Y-117182393D01*
X177806036Y-117185919D01*
X177789087Y-117197246D01*
X177756987Y-117203634D01*
X177744471Y-117208155D01*
X177735328Y-117207944D01*
X177712551Y-117212478D01*
X177683789Y-117206759D01*
X177671626Y-117206480D01*
X177661692Y-117202366D01*
X177636013Y-117197261D01*
X177614240Y-117182716D01*
X177604307Y-117178603D01*
X177595507Y-117170202D01*
X177571124Y-117153914D01*
X177558220Y-117134607D01*
X177551603Y-117128290D01*
X177545944Y-117116239D01*
X177527762Y-117089034D01*
X177523782Y-117069040D01*
X177509190Y-117037964D01*
X177484449Y-117013223D01*
X177453513Y-116998696D01*
X177433528Y-116994718D01*
X177425233Y-116989174D01*
X177379714Y-116992595D01*
X177362698Y-117003964D01*
X177360954Y-117005709D01*
X177214257Y-117103729D01*
X177051256Y-117171246D01*
X176878215Y-117205666D01*
X176701785Y-117205666D01*
X176528744Y-117171246D01*
X176365743Y-117103729D01*
X176219046Y-117005709D01*
X176217303Y-117003966D01*
X176200285Y-116992595D01*
X176154768Y-116989174D01*
X176146473Y-116994719D01*
X176126481Y-116998698D01*
X176117088Y-117003109D01*
X176103672Y-117004822D01*
X176062184Y-117035035D01*
X176046218Y-117069034D01*
X176042238Y-117089034D01*
X176024048Y-117116249D01*
X176018395Y-117128290D01*
X176011782Y-117134602D01*
X175998876Y-117153914D01*
X175974486Y-117170206D01*
X175965692Y-117178602D01*
X175955765Y-117182712D01*
X175933987Y-117197261D01*
X175908299Y-117202368D01*
X175898372Y-117206479D01*
X175886215Y-117206758D01*
X175857449Y-117212478D01*
X175834670Y-117207944D01*
X175825526Y-117208155D01*
X175813007Y-117203633D01*
X175780913Y-117197246D01*
X175763961Y-117185918D01*
X175754201Y-117182393D01*
X175725736Y-117160374D01*
X175716047Y-117153900D01*
X175556420Y-116994272D01*
X175473580Y-116994272D01*
X175313952Y-117153899D01*
X175304275Y-117160365D01*
X175275800Y-117182393D01*
X175266036Y-117185919D01*
X175249087Y-117197246D01*
X175216987Y-117203634D01*
X175204471Y-117208155D01*
X175195328Y-117207944D01*
X175172551Y-117212478D01*
X175143789Y-117206759D01*
X175131626Y-117206480D01*
X175121692Y-117202366D01*
X175096013Y-117197261D01*
X175074240Y-117182716D01*
X175064307Y-117178603D01*
X175055507Y-117170202D01*
X175031124Y-117153914D01*
X175018220Y-117134607D01*
X175011603Y-117128290D01*
X175005944Y-117116239D01*
X174987762Y-117089034D01*
X174983782Y-117069040D01*
X174969190Y-117037964D01*
X174944449Y-117013223D01*
X174913513Y-116998696D01*
X174893528Y-116994718D01*
X174885233Y-116989174D01*
X174839714Y-116992595D01*
X174822698Y-117003964D01*
X174820954Y-117005709D01*
X174674257Y-117103729D01*
X174511256Y-117171246D01*
X174338215Y-117205666D01*
X174161785Y-117205666D01*
X173988744Y-117171246D01*
X173825743Y-117103729D01*
X173679046Y-117005709D01*
X173677303Y-117003966D01*
X173660285Y-116992595D01*
X173614768Y-116989174D01*
X173606473Y-116994719D01*
X173586481Y-116998698D01*
X173577088Y-117003109D01*
X173563672Y-117004822D01*
X173522184Y-117035035D01*
X173506218Y-117069034D01*
X173502238Y-117089034D01*
X173484048Y-117116249D01*
X173478395Y-117128290D01*
X173471782Y-117134602D01*
X173458876Y-117153914D01*
X173434486Y-117170206D01*
X173425692Y-117178602D01*
X173415765Y-117182712D01*
X173393987Y-117197261D01*
X173368299Y-117202368D01*
X173358372Y-117206479D01*
X173346215Y-117206758D01*
X173317449Y-117212478D01*
X173294670Y-117207944D01*
X173285526Y-117208155D01*
X173273007Y-117203633D01*
X173240913Y-117197246D01*
X173223961Y-117185918D01*
X173214201Y-117182393D01*
X173185736Y-117160374D01*
X173176047Y-117153900D01*
X173016420Y-116994272D01*
X172933580Y-116994272D01*
X172773952Y-117153899D01*
X172764275Y-117160365D01*
X172735800Y-117182393D01*
X172726036Y-117185919D01*
X172709087Y-117197246D01*
X172676987Y-117203634D01*
X172664471Y-117208155D01*
X172655328Y-117207944D01*
X172632551Y-117212478D01*
X172603789Y-117206759D01*
X172591626Y-117206480D01*
X172581692Y-117202366D01*
X172556013Y-117197261D01*
X172534240Y-117182716D01*
X172524307Y-117178603D01*
X172515507Y-117170202D01*
X172491124Y-117153914D01*
X172478220Y-117134607D01*
X172471603Y-117128290D01*
X172465944Y-117116239D01*
X172447762Y-117089034D01*
X172443782Y-117069040D01*
X172429190Y-117037964D01*
X172404449Y-117013223D01*
X172373513Y-116998696D01*
X172353528Y-116994718D01*
X172345233Y-116989174D01*
X172299714Y-116992595D01*
X172282698Y-117003964D01*
X172280954Y-117005709D01*
X172134257Y-117103729D01*
X171971256Y-117171246D01*
X171798215Y-117205666D01*
X171621785Y-117205666D01*
X171448744Y-117171246D01*
X171285743Y-117103729D01*
X171139046Y-117005709D01*
X171137303Y-117003966D01*
X171120285Y-116992595D01*
X171074768Y-116989174D01*
X171066473Y-116994719D01*
X171046481Y-116998698D01*
X171037088Y-117003109D01*
X171023672Y-117004822D01*
X170982184Y-117035035D01*
X170966218Y-117069034D01*
X170962238Y-117089034D01*
X170944048Y-117116249D01*
X170938395Y-117128290D01*
X170931782Y-117134602D01*
X170918876Y-117153914D01*
X170894486Y-117170206D01*
X170885692Y-117178602D01*
X170875765Y-117182712D01*
X170853987Y-117197261D01*
X170828299Y-117202368D01*
X170818372Y-117206479D01*
X170806215Y-117206758D01*
X170777449Y-117212478D01*
X170754670Y-117207944D01*
X170745526Y-117208155D01*
X170733007Y-117203633D01*
X170700913Y-117197246D01*
X170683961Y-117185918D01*
X170674201Y-117182393D01*
X170645736Y-117160374D01*
X170636047Y-117153900D01*
X170476420Y-116994272D01*
X170393580Y-116994272D01*
X170233952Y-117153899D01*
X170224275Y-117160365D01*
X170195800Y-117182393D01*
X170186036Y-117185919D01*
X170169087Y-117197246D01*
X170136987Y-117203634D01*
X170124471Y-117208155D01*
X170115328Y-117207944D01*
X170092551Y-117212478D01*
X170063789Y-117206759D01*
X170051626Y-117206480D01*
X170041692Y-117202366D01*
X170016013Y-117197261D01*
X169994240Y-117182716D01*
X169984307Y-117178603D01*
X169975507Y-117170202D01*
X169951124Y-117153914D01*
X169938220Y-117134607D01*
X169931603Y-117128290D01*
X169925944Y-117116239D01*
X169907762Y-117089034D01*
X169903782Y-117069040D01*
X169889190Y-117037964D01*
X169864449Y-117013223D01*
X169833513Y-116998696D01*
X169813528Y-116994718D01*
X169805233Y-116989174D01*
X169759714Y-116992595D01*
X169742698Y-117003964D01*
X169740954Y-117005709D01*
X169594257Y-117103729D01*
X169431256Y-117171246D01*
X169258215Y-117205666D01*
X169081785Y-117205666D01*
X168908744Y-117171246D01*
X168745743Y-117103729D01*
X168599046Y-117005709D01*
X168597303Y-117003966D01*
X168580285Y-116992595D01*
X168534768Y-116989174D01*
X168526473Y-116994719D01*
X168506481Y-116998698D01*
X168497088Y-117003109D01*
X168483672Y-117004822D01*
X168442184Y-117035035D01*
X168426218Y-117069034D01*
X168422238Y-117089034D01*
X168404048Y-117116249D01*
X168398395Y-117128290D01*
X168391782Y-117134602D01*
X168378876Y-117153914D01*
X168354486Y-117170206D01*
X168345692Y-117178602D01*
X168335765Y-117182712D01*
X168313987Y-117197261D01*
X168288299Y-117202368D01*
X168278372Y-117206479D01*
X168266215Y-117206758D01*
X168237449Y-117212478D01*
X168214670Y-117207944D01*
X168205526Y-117208155D01*
X168193007Y-117203633D01*
X168160913Y-117197246D01*
X168143961Y-117185918D01*
X168134201Y-117182393D01*
X168105736Y-117160374D01*
X168096047Y-117153900D01*
X167936420Y-116994272D01*
X167853580Y-116994272D01*
X167693952Y-117153899D01*
X167684275Y-117160365D01*
X167655800Y-117182393D01*
X167646036Y-117185919D01*
X167629087Y-117197246D01*
X167596987Y-117203634D01*
X167584471Y-117208155D01*
X167575328Y-117207944D01*
X167552551Y-117212478D01*
X167523789Y-117206759D01*
X167511626Y-117206480D01*
X167501692Y-117202366D01*
X167476013Y-117197261D01*
X167454240Y-117182716D01*
X167444307Y-117178603D01*
X167435507Y-117170202D01*
X167411124Y-117153914D01*
X167398220Y-117134607D01*
X167391603Y-117128290D01*
X167385944Y-117116239D01*
X167367762Y-117089034D01*
X167363782Y-117069040D01*
X167349190Y-117037964D01*
X167324449Y-117013223D01*
X167293513Y-116998696D01*
X167273528Y-116994718D01*
X167265233Y-116989174D01*
X167219714Y-116992595D01*
X167202698Y-117003964D01*
X167200954Y-117005709D01*
X167054257Y-117103729D01*
X166891256Y-117171246D01*
X166718215Y-117205666D01*
X166541785Y-117205666D01*
X166368744Y-117171246D01*
X166205743Y-117103729D01*
X166059046Y-117005709D01*
X166057303Y-117003966D01*
X166040285Y-116992595D01*
X165994768Y-116989174D01*
X165986473Y-116994719D01*
X165966481Y-116998698D01*
X165957088Y-117003109D01*
X165943672Y-117004822D01*
X165902184Y-117035035D01*
X165886218Y-117069034D01*
X165882238Y-117089034D01*
X165864048Y-117116249D01*
X165858395Y-117128290D01*
X165851782Y-117134602D01*
X165838876Y-117153914D01*
X165814486Y-117170206D01*
X165805692Y-117178602D01*
X165795765Y-117182712D01*
X165773987Y-117197261D01*
X165748299Y-117202368D01*
X165738372Y-117206479D01*
X165726215Y-117206758D01*
X165697449Y-117212478D01*
X165674670Y-117207944D01*
X165665526Y-117208155D01*
X165653007Y-117203633D01*
X165620913Y-117197246D01*
X165603961Y-117185918D01*
X165594201Y-117182393D01*
X165565736Y-117160374D01*
X165556047Y-117153900D01*
X165396420Y-116994272D01*
X165313580Y-116994272D01*
X165153952Y-117153899D01*
X165144275Y-117160365D01*
X165115800Y-117182393D01*
X165106036Y-117185919D01*
X165089087Y-117197246D01*
X165056987Y-117203634D01*
X165044471Y-117208155D01*
X165035328Y-117207944D01*
X165012551Y-117212478D01*
X164983789Y-117206759D01*
X164971626Y-117206480D01*
X164961692Y-117202366D01*
X164936013Y-117197261D01*
X164914240Y-117182716D01*
X164904307Y-117178603D01*
X164895507Y-117170202D01*
X164871124Y-117153914D01*
X164858220Y-117134607D01*
X164851603Y-117128290D01*
X164845944Y-117116239D01*
X164827762Y-117089034D01*
X164823782Y-117069040D01*
X164809190Y-117037964D01*
X164784449Y-117013223D01*
X164753513Y-116998696D01*
X164733528Y-116994718D01*
X164725233Y-116989174D01*
X164679714Y-116992595D01*
X164662698Y-117003964D01*
X164660954Y-117005709D01*
X164514257Y-117103729D01*
X164351256Y-117171246D01*
X164178215Y-117205666D01*
X164001785Y-117205666D01*
X163828744Y-117171246D01*
X163665743Y-117103729D01*
X163519046Y-117005709D01*
X163517303Y-117003966D01*
X163500285Y-116992595D01*
X163454768Y-116989174D01*
X163446473Y-116994719D01*
X163426481Y-116998698D01*
X163417088Y-117003109D01*
X163403672Y-117004822D01*
X163362184Y-117035035D01*
X163346218Y-117069034D01*
X163342238Y-117089034D01*
X163324048Y-117116249D01*
X163318395Y-117128290D01*
X163311782Y-117134602D01*
X163298876Y-117153914D01*
X163274486Y-117170206D01*
X163265692Y-117178602D01*
X163255765Y-117182712D01*
X163233987Y-117197261D01*
X163208299Y-117202368D01*
X163198372Y-117206479D01*
X163186215Y-117206758D01*
X163157449Y-117212478D01*
X163134670Y-117207944D01*
X163125526Y-117208155D01*
X163113007Y-117203633D01*
X163080913Y-117197246D01*
X163063961Y-117185918D01*
X163054201Y-117182393D01*
X163025736Y-117160374D01*
X163016047Y-117153900D01*
X162856420Y-116994272D01*
X162773580Y-116994272D01*
X162613952Y-117153899D01*
X162604275Y-117160365D01*
X162575800Y-117182393D01*
X162566036Y-117185919D01*
X162549087Y-117197246D01*
X162516987Y-117203634D01*
X162504471Y-117208155D01*
X162495328Y-117207944D01*
X162472551Y-117212478D01*
X162443789Y-117206759D01*
X162431626Y-117206480D01*
X162421692Y-117202366D01*
X162396013Y-117197261D01*
X162374240Y-117182716D01*
X162364307Y-117178603D01*
X162355507Y-117170202D01*
X162331124Y-117153914D01*
X162318220Y-117134607D01*
X162311603Y-117128290D01*
X162305944Y-117116239D01*
X162287762Y-117089034D01*
X162283782Y-117069040D01*
X162269190Y-117037964D01*
X162244449Y-117013223D01*
X162213513Y-116998696D01*
X162193528Y-116994718D01*
X162185233Y-116989174D01*
X162139714Y-116992595D01*
X162122698Y-117003964D01*
X162120954Y-117005709D01*
X161974257Y-117103729D01*
X161811256Y-117171246D01*
X161638215Y-117205666D01*
X161461785Y-117205666D01*
X161288744Y-117171246D01*
X161125743Y-117103729D01*
X160979046Y-117005709D01*
X160977303Y-117003966D01*
X160960285Y-116992595D01*
X160914768Y-116989174D01*
X160906473Y-116994719D01*
X160886481Y-116998698D01*
X160877088Y-117003109D01*
X160863672Y-117004822D01*
X160822184Y-117035035D01*
X160806218Y-117069034D01*
X160802238Y-117089034D01*
X160784048Y-117116249D01*
X160778395Y-117128290D01*
X160771782Y-117134602D01*
X160758876Y-117153914D01*
X160734486Y-117170206D01*
X160725692Y-117178602D01*
X160715765Y-117182712D01*
X160693987Y-117197261D01*
X160668299Y-117202368D01*
X160658372Y-117206479D01*
X160646215Y-117206758D01*
X160617449Y-117212478D01*
X160594670Y-117207944D01*
X160585526Y-117208155D01*
X160573007Y-117203633D01*
X160540913Y-117197246D01*
X160523961Y-117185918D01*
X160514201Y-117182393D01*
X160485736Y-117160374D01*
X160476047Y-117153900D01*
X160316420Y-116994272D01*
X160233580Y-116994272D01*
X160073952Y-117153899D01*
X160064275Y-117160365D01*
X160035800Y-117182393D01*
X160026036Y-117185919D01*
X160009087Y-117197246D01*
X159976987Y-117203634D01*
X159964471Y-117208155D01*
X159955328Y-117207944D01*
X159932551Y-117212478D01*
X159903789Y-117206759D01*
X159891626Y-117206480D01*
X159881692Y-117202366D01*
X159856013Y-117197261D01*
X159834240Y-117182716D01*
X159824307Y-117178603D01*
X159815507Y-117170202D01*
X159791124Y-117153914D01*
X159778220Y-117134607D01*
X159771603Y-117128290D01*
X159765944Y-117116239D01*
X159747762Y-117089034D01*
X159743782Y-117069040D01*
X159729190Y-117037964D01*
X159704449Y-117013223D01*
X159673513Y-116998696D01*
X159653528Y-116994718D01*
X159645233Y-116989174D01*
X159599714Y-116992595D01*
X159582698Y-117003964D01*
X159580954Y-117005709D01*
X159434257Y-117103729D01*
X159271256Y-117171246D01*
X159098215Y-117205666D01*
X158921785Y-117205666D01*
X158748744Y-117171246D01*
X158585743Y-117103729D01*
X158439046Y-117005709D01*
X158437303Y-117003966D01*
X158420285Y-116992595D01*
X158374768Y-116989174D01*
X158366473Y-116994719D01*
X158346481Y-116998698D01*
X158337088Y-117003109D01*
X158323672Y-117004822D01*
X158282184Y-117035035D01*
X158266218Y-117069034D01*
X158262238Y-117089034D01*
X158244048Y-117116249D01*
X158238395Y-117128290D01*
X158231782Y-117134602D01*
X158218876Y-117153914D01*
X158194486Y-117170206D01*
X158185692Y-117178602D01*
X158175765Y-117182712D01*
X158153987Y-117197261D01*
X158128299Y-117202368D01*
X158118372Y-117206479D01*
X158106215Y-117206758D01*
X158077449Y-117212478D01*
X158054670Y-117207944D01*
X158045526Y-117208155D01*
X158033007Y-117203633D01*
X158000913Y-117197246D01*
X157983961Y-117185918D01*
X157974201Y-117182393D01*
X157945736Y-117160374D01*
X157936047Y-117153900D01*
X157776420Y-116994272D01*
X157693580Y-116994272D01*
X157533952Y-117153899D01*
X157524275Y-117160365D01*
X157495800Y-117182393D01*
X157486036Y-117185919D01*
X157469087Y-117197246D01*
X157436987Y-117203634D01*
X157424471Y-117208155D01*
X157415328Y-117207944D01*
X157392551Y-117212478D01*
X157363789Y-117206759D01*
X157351626Y-117206480D01*
X157341692Y-117202366D01*
X157316013Y-117197261D01*
X157294240Y-117182716D01*
X157284307Y-117178603D01*
X157275507Y-117170202D01*
X157251124Y-117153914D01*
X157238220Y-117134607D01*
X157231603Y-117128290D01*
X157225944Y-117116239D01*
X157207762Y-117089034D01*
X157203782Y-117069040D01*
X157189190Y-117037964D01*
X157164449Y-117013223D01*
X157133513Y-116998696D01*
X157113528Y-116994718D01*
X157105233Y-116989174D01*
X157059714Y-116992595D01*
X157042698Y-117003964D01*
X157040954Y-117005709D01*
X156894257Y-117103729D01*
X156731256Y-117171246D01*
X156558215Y-117205666D01*
X156381785Y-117205666D01*
X156208744Y-117171246D01*
X156045743Y-117103729D01*
X155899046Y-117005709D01*
X155897303Y-117003966D01*
X155880285Y-116992595D01*
X155834768Y-116989174D01*
X155826473Y-116994719D01*
X155806481Y-116998698D01*
X155797088Y-117003109D01*
X155783672Y-117004822D01*
X155742184Y-117035035D01*
X155726218Y-117069034D01*
X155722238Y-117089034D01*
X155704048Y-117116249D01*
X155698395Y-117128290D01*
X155691782Y-117134602D01*
X155678876Y-117153914D01*
X155654486Y-117170206D01*
X155645692Y-117178602D01*
X155635765Y-117182712D01*
X155613987Y-117197261D01*
X155588299Y-117202368D01*
X155578372Y-117206479D01*
X155566215Y-117206758D01*
X155537449Y-117212478D01*
X155514670Y-117207944D01*
X155505526Y-117208155D01*
X155493007Y-117203633D01*
X155460913Y-117197246D01*
X155443961Y-117185918D01*
X155434201Y-117182393D01*
X155405736Y-117160374D01*
X155396047Y-117153900D01*
X155236420Y-116994272D01*
X155153580Y-116994272D01*
X154993952Y-117153899D01*
X154984275Y-117160365D01*
X154955800Y-117182393D01*
X154946036Y-117185919D01*
X154929087Y-117197246D01*
X154896987Y-117203634D01*
X154884471Y-117208155D01*
X154875328Y-117207944D01*
X154852551Y-117212478D01*
X154823789Y-117206759D01*
X154811626Y-117206480D01*
X154801692Y-117202366D01*
X154776013Y-117197261D01*
X154754240Y-117182716D01*
X154744307Y-117178603D01*
X154735507Y-117170202D01*
X154711124Y-117153914D01*
X154698220Y-117134607D01*
X154691603Y-117128290D01*
X154685944Y-117116239D01*
X154667762Y-117089034D01*
X154663782Y-117069040D01*
X154649190Y-117037964D01*
X154624449Y-117013223D01*
X154593513Y-116998696D01*
X154573528Y-116994718D01*
X154565233Y-116989174D01*
X154519714Y-116992595D01*
X154502698Y-117003964D01*
X154500954Y-117005709D01*
X154354257Y-117103729D01*
X154191256Y-117171246D01*
X154018215Y-117205666D01*
X153841785Y-117205666D01*
X153668744Y-117171246D01*
X153505743Y-117103729D01*
X153359046Y-117005709D01*
X153357303Y-117003966D01*
X153340285Y-116992595D01*
X153294768Y-116989174D01*
X153286473Y-116994719D01*
X153266481Y-116998698D01*
X153257088Y-117003109D01*
X153243672Y-117004822D01*
X153202184Y-117035035D01*
X153186218Y-117069034D01*
X153182238Y-117089034D01*
X153164048Y-117116249D01*
X153158395Y-117128290D01*
X153151782Y-117134602D01*
X153138876Y-117153914D01*
X153114486Y-117170206D01*
X153105692Y-117178602D01*
X153095765Y-117182712D01*
X153073987Y-117197261D01*
X153048299Y-117202368D01*
X153038372Y-117206479D01*
X153026215Y-117206758D01*
X152997449Y-117212478D01*
X152974670Y-117207944D01*
X152965526Y-117208155D01*
X152953007Y-117203633D01*
X152920913Y-117197246D01*
X152903961Y-117185918D01*
X152894201Y-117182393D01*
X152865736Y-117160374D01*
X152856047Y-117153900D01*
X152696420Y-116994272D01*
X152613580Y-116994272D01*
X152453952Y-117153899D01*
X152444275Y-117160365D01*
X152415800Y-117182393D01*
X152406036Y-117185919D01*
X152389087Y-117197246D01*
X152356987Y-117203634D01*
X152344471Y-117208155D01*
X152335328Y-117207944D01*
X152312551Y-117212478D01*
X152283789Y-117206759D01*
X152271626Y-117206480D01*
X152261692Y-117202366D01*
X152236013Y-117197261D01*
X152214240Y-117182716D01*
X152204307Y-117178603D01*
X152195507Y-117170202D01*
X152171124Y-117153914D01*
X152158220Y-117134607D01*
X152151603Y-117128290D01*
X152145944Y-117116239D01*
X152127762Y-117089034D01*
X152123782Y-117069040D01*
X152109190Y-117037964D01*
X152084449Y-117013223D01*
X152053513Y-116998696D01*
X152033528Y-116994718D01*
X152025233Y-116989174D01*
X151979714Y-116992595D01*
X151962698Y-117003964D01*
X151960954Y-117005709D01*
X151814257Y-117103729D01*
X151651256Y-117171246D01*
X151478215Y-117205666D01*
X151301785Y-117205666D01*
X151128744Y-117171246D01*
X150965743Y-117103729D01*
X150819046Y-117005709D01*
X150817303Y-117003966D01*
X150800285Y-116992595D01*
X150754768Y-116989174D01*
X150746473Y-116994719D01*
X150726481Y-116998698D01*
X150717088Y-117003109D01*
X150703672Y-117004822D01*
X150662184Y-117035035D01*
X150646218Y-117069034D01*
X150642238Y-117089034D01*
X150624048Y-117116249D01*
X150618395Y-117128290D01*
X150611782Y-117134602D01*
X150598876Y-117153914D01*
X150574486Y-117170206D01*
X150565692Y-117178602D01*
X150555765Y-117182712D01*
X150533987Y-117197261D01*
X150508299Y-117202368D01*
X150498372Y-117206479D01*
X150486215Y-117206758D01*
X150457449Y-117212478D01*
X150434670Y-117207944D01*
X150425526Y-117208155D01*
X150413007Y-117203633D01*
X150380913Y-117197246D01*
X150363961Y-117185918D01*
X150354201Y-117182393D01*
X150325736Y-117160374D01*
X150316047Y-117153900D01*
X150156420Y-116994272D01*
X150073580Y-116994272D01*
X149913952Y-117153899D01*
X149904275Y-117160365D01*
X149875800Y-117182393D01*
X149866036Y-117185919D01*
X149849087Y-117197246D01*
X149816987Y-117203634D01*
X149804471Y-117208155D01*
X149795328Y-117207944D01*
X149772551Y-117212478D01*
X149743789Y-117206759D01*
X149731626Y-117206480D01*
X149721692Y-117202366D01*
X149696013Y-117197261D01*
X149674240Y-117182716D01*
X149664307Y-117178603D01*
X149655507Y-117170202D01*
X149631124Y-117153914D01*
X149618220Y-117134607D01*
X149611603Y-117128290D01*
X149605944Y-117116239D01*
X149587762Y-117089034D01*
X149583782Y-117069040D01*
X149569190Y-117037964D01*
X149544449Y-117013223D01*
X149513513Y-116998696D01*
X149493528Y-116994718D01*
X149485233Y-116989174D01*
X149439714Y-116992595D01*
X149422698Y-117003964D01*
X149420954Y-117005709D01*
X149274257Y-117103729D01*
X149111256Y-117171246D01*
X148938215Y-117205666D01*
X148761785Y-117205666D01*
X148588744Y-117171246D01*
X148425743Y-117103729D01*
X148279046Y-117005709D01*
X148277303Y-117003966D01*
X148260285Y-116992595D01*
X148214768Y-116989174D01*
X148206473Y-116994719D01*
X148186481Y-116998698D01*
X148177088Y-117003109D01*
X148163672Y-117004822D01*
X148122184Y-117035035D01*
X148106218Y-117069034D01*
X148102238Y-117089034D01*
X148084048Y-117116249D01*
X148078395Y-117128290D01*
X148071782Y-117134602D01*
X148058876Y-117153914D01*
X148034486Y-117170206D01*
X148025692Y-117178602D01*
X148015765Y-117182712D01*
X147993987Y-117197261D01*
X147968299Y-117202368D01*
X147958372Y-117206479D01*
X147946215Y-117206758D01*
X147917449Y-117212478D01*
X147894670Y-117207944D01*
X147885526Y-117208155D01*
X147873007Y-117203633D01*
X147840913Y-117197246D01*
X147823961Y-117185918D01*
X147814201Y-117182393D01*
X147785736Y-117160374D01*
X147776047Y-117153900D01*
X147616420Y-116994272D01*
X147533580Y-116994272D01*
X147373952Y-117153899D01*
X147364275Y-117160365D01*
X147335800Y-117182393D01*
X147326036Y-117185919D01*
X147309087Y-117197246D01*
X147276987Y-117203634D01*
X147264471Y-117208155D01*
X147255328Y-117207944D01*
X147232551Y-117212478D01*
X147203789Y-117206759D01*
X147191626Y-117206480D01*
X147181692Y-117202366D01*
X147156013Y-117197261D01*
X147134240Y-117182716D01*
X147124307Y-117178603D01*
X147115507Y-117170202D01*
X147091124Y-117153914D01*
X147078220Y-117134607D01*
X147071603Y-117128290D01*
X147065944Y-117116239D01*
X147047762Y-117089034D01*
X147043782Y-117069040D01*
X147029190Y-117037964D01*
X147004449Y-117013223D01*
X146973513Y-116998696D01*
X146953528Y-116994718D01*
X146945233Y-116989174D01*
X146899714Y-116992595D01*
X146882698Y-117003964D01*
X146880954Y-117005709D01*
X146734257Y-117103729D01*
X146571256Y-117171246D01*
X146398215Y-117205666D01*
X146221785Y-117205666D01*
X146048744Y-117171246D01*
X145885743Y-117103729D01*
X145739046Y-117005709D01*
X145737303Y-117003966D01*
X145720285Y-116992595D01*
X145674768Y-116989174D01*
X145666473Y-116994719D01*
X145646481Y-116998698D01*
X145637088Y-117003109D01*
X145623672Y-117004822D01*
X145582184Y-117035035D01*
X145566218Y-117069034D01*
X145562238Y-117089034D01*
X145544048Y-117116249D01*
X145538395Y-117128290D01*
X145531782Y-117134602D01*
X145518876Y-117153914D01*
X145494486Y-117170206D01*
X145485692Y-117178602D01*
X145475765Y-117182712D01*
X145453987Y-117197261D01*
X145428299Y-117202368D01*
X145418372Y-117206479D01*
X145406215Y-117206758D01*
X145377449Y-117212478D01*
X145354670Y-117207944D01*
X145345526Y-117208155D01*
X145333007Y-117203633D01*
X145300913Y-117197246D01*
X145283961Y-117185918D01*
X145274201Y-117182393D01*
X145245736Y-117160374D01*
X145236047Y-117153900D01*
X145076420Y-116994272D01*
X144993580Y-116994272D01*
X144833952Y-117153899D01*
X144824275Y-117160365D01*
X144795800Y-117182393D01*
X144786036Y-117185919D01*
X144769087Y-117197246D01*
X144736987Y-117203634D01*
X144724471Y-117208155D01*
X144715328Y-117207944D01*
X144692551Y-117212478D01*
X144663789Y-117206759D01*
X144651626Y-117206480D01*
X144641692Y-117202366D01*
X144616013Y-117197261D01*
X144594240Y-117182716D01*
X144584307Y-117178603D01*
X144575507Y-117170202D01*
X144551124Y-117153914D01*
X144538220Y-117134607D01*
X144531603Y-117128290D01*
X144525944Y-117116239D01*
X144507762Y-117089034D01*
X144503782Y-117069040D01*
X144489190Y-117037964D01*
X144464449Y-117013223D01*
X144433513Y-116998696D01*
X144413528Y-116994718D01*
X144405233Y-116989174D01*
X144359714Y-116992595D01*
X144342698Y-117003964D01*
X144340954Y-117005709D01*
X144194257Y-117103729D01*
X144031256Y-117171246D01*
X143858215Y-117205666D01*
X143681785Y-117205666D01*
X143508744Y-117171246D01*
X143345743Y-117103729D01*
X143199046Y-117005709D01*
X143197303Y-117003966D01*
X143180285Y-116992595D01*
X143134768Y-116989174D01*
X143126473Y-116994719D01*
X143106481Y-116998698D01*
X143097088Y-117003109D01*
X143083672Y-117004822D01*
X143042184Y-117035035D01*
X143026218Y-117069034D01*
X143022238Y-117089034D01*
X143004048Y-117116249D01*
X142998395Y-117128290D01*
X142991782Y-117134602D01*
X142978876Y-117153914D01*
X142954486Y-117170206D01*
X142945692Y-117178602D01*
X142935765Y-117182712D01*
X142913987Y-117197261D01*
X142888299Y-117202368D01*
X142878372Y-117206479D01*
X142866215Y-117206758D01*
X142837449Y-117212478D01*
X142814670Y-117207944D01*
X142805526Y-117208155D01*
X142793007Y-117203633D01*
X142760913Y-117197246D01*
X142743961Y-117185918D01*
X142734201Y-117182393D01*
X142705736Y-117160374D01*
X142696047Y-117153900D01*
X142536420Y-116994272D01*
X142453580Y-116994272D01*
X142293952Y-117153899D01*
X142284275Y-117160365D01*
X142255800Y-117182393D01*
X142246036Y-117185919D01*
X142229087Y-117197246D01*
X142196987Y-117203634D01*
X142184471Y-117208155D01*
X142175328Y-117207944D01*
X142152551Y-117212478D01*
X142123789Y-117206759D01*
X142111626Y-117206480D01*
X142101692Y-117202366D01*
X142076013Y-117197261D01*
X142054240Y-117182716D01*
X142044307Y-117178603D01*
X142035507Y-117170202D01*
X142011124Y-117153914D01*
X141998220Y-117134607D01*
X141991603Y-117128290D01*
X141985944Y-117116239D01*
X141967762Y-117089034D01*
X141963782Y-117069040D01*
X141949190Y-117037964D01*
X141924449Y-117013223D01*
X141893513Y-116998696D01*
X141873528Y-116994718D01*
X141865233Y-116989174D01*
X141819714Y-116992595D01*
X141802698Y-117003964D01*
X141800954Y-117005709D01*
X141654257Y-117103729D01*
X141491256Y-117171246D01*
X141318215Y-117205666D01*
X141141785Y-117205666D01*
X140968744Y-117171246D01*
X140805743Y-117103729D01*
X140659046Y-117005709D01*
X140657303Y-117003966D01*
X140640285Y-116992595D01*
X140594768Y-116989174D01*
X140586473Y-116994719D01*
X140566481Y-116998698D01*
X140557088Y-117003109D01*
X140543672Y-117004822D01*
X140502184Y-117035035D01*
X140486218Y-117069034D01*
X140482238Y-117089034D01*
X140464048Y-117116249D01*
X140458395Y-117128290D01*
X140451782Y-117134602D01*
X140438876Y-117153914D01*
X140414486Y-117170206D01*
X140405692Y-117178602D01*
X140395765Y-117182712D01*
X140373987Y-117197261D01*
X140348299Y-117202368D01*
X140338372Y-117206479D01*
X140326215Y-117206758D01*
X140297449Y-117212478D01*
X140274670Y-117207944D01*
X140265526Y-117208155D01*
X140253007Y-117203633D01*
X140220913Y-117197246D01*
X140203961Y-117185918D01*
X140194201Y-117182393D01*
X140165736Y-117160374D01*
X140156047Y-117153900D01*
X139996420Y-116994272D01*
X139913580Y-116994272D01*
X139753952Y-117153899D01*
X139744275Y-117160365D01*
X139715800Y-117182393D01*
X139706036Y-117185919D01*
X139689087Y-117197246D01*
X139656987Y-117203634D01*
X139644471Y-117208155D01*
X139635328Y-117207944D01*
X139612551Y-117212478D01*
X139583789Y-117206759D01*
X139571626Y-117206480D01*
X139561692Y-117202366D01*
X139536013Y-117197261D01*
X139514240Y-117182716D01*
X139504307Y-117178603D01*
X139495507Y-117170202D01*
X139471124Y-117153914D01*
X139458220Y-117134607D01*
X139451603Y-117128290D01*
X139445944Y-117116239D01*
X139427762Y-117089034D01*
X139423782Y-117069040D01*
X139409190Y-117037964D01*
X139384449Y-117013223D01*
X139353513Y-116998696D01*
X139333528Y-116994718D01*
X139325233Y-116989174D01*
X139279714Y-116992595D01*
X139262698Y-117003964D01*
X139260954Y-117005709D01*
X139114257Y-117103729D01*
X138951256Y-117171246D01*
X138778215Y-117205666D01*
X138601785Y-117205666D01*
X138428744Y-117171246D01*
X138265743Y-117103729D01*
X138119046Y-117005709D01*
X138117303Y-117003966D01*
X138100285Y-116992595D01*
X138054768Y-116989174D01*
X138046473Y-116994719D01*
X138026481Y-116998698D01*
X138017088Y-117003109D01*
X138003672Y-117004822D01*
X137962184Y-117035035D01*
X137946218Y-117069034D01*
X137942238Y-117089034D01*
X137924048Y-117116249D01*
X137918395Y-117128290D01*
X137911782Y-117134602D01*
X137898876Y-117153914D01*
X137874486Y-117170206D01*
X137865692Y-117178602D01*
X137855765Y-117182712D01*
X137833987Y-117197261D01*
X137808299Y-117202368D01*
X137798372Y-117206479D01*
X137786215Y-117206758D01*
X137757449Y-117212478D01*
X137734670Y-117207944D01*
X137725526Y-117208155D01*
X137713007Y-117203633D01*
X137680913Y-117197246D01*
X137663961Y-117185918D01*
X137654201Y-117182393D01*
X137625736Y-117160374D01*
X137616047Y-117153900D01*
X137456420Y-116994272D01*
X137373580Y-116994272D01*
X137213952Y-117153899D01*
X137204275Y-117160365D01*
X137175800Y-117182393D01*
X137166036Y-117185919D01*
X137149087Y-117197246D01*
X137116987Y-117203634D01*
X137104471Y-117208155D01*
X137095328Y-117207944D01*
X137072551Y-117212478D01*
X137043789Y-117206759D01*
X137031626Y-117206480D01*
X137021692Y-117202366D01*
X136996013Y-117197261D01*
X136974240Y-117182716D01*
X136964307Y-117178603D01*
X136955507Y-117170202D01*
X136931124Y-117153914D01*
X136918220Y-117134607D01*
X136911603Y-117128290D01*
X136905944Y-117116239D01*
X136887762Y-117089034D01*
X136883782Y-117069040D01*
X136869190Y-117037964D01*
X136844449Y-117013223D01*
X136813513Y-116998696D01*
X136793528Y-116994718D01*
X136785233Y-116989174D01*
X136739714Y-116992595D01*
X136722698Y-117003964D01*
X136720954Y-117005709D01*
X136574257Y-117103729D01*
X136411256Y-117171246D01*
X136238215Y-117205666D01*
X136061785Y-117205666D01*
X135888744Y-117171246D01*
X135725743Y-117103729D01*
X135579046Y-117005709D01*
X135577303Y-117003966D01*
X135560285Y-116992595D01*
X135514768Y-116989174D01*
X135506473Y-116994719D01*
X135486481Y-116998698D01*
X135477088Y-117003109D01*
X135463672Y-117004822D01*
X135422184Y-117035035D01*
X135406218Y-117069034D01*
X135402238Y-117089034D01*
X135384048Y-117116249D01*
X135378395Y-117128290D01*
X135371782Y-117134602D01*
X135358876Y-117153914D01*
X135334486Y-117170206D01*
X135325692Y-117178602D01*
X135315765Y-117182712D01*
X135293987Y-117197261D01*
X135268299Y-117202368D01*
X135258372Y-117206479D01*
X135246215Y-117206758D01*
X135217449Y-117212478D01*
X135194670Y-117207944D01*
X135185526Y-117208155D01*
X135173007Y-117203633D01*
X135140913Y-117197246D01*
X135123961Y-117185918D01*
X135114201Y-117182393D01*
X135085736Y-117160374D01*
X135076047Y-117153900D01*
X134916420Y-116994272D01*
X134833580Y-116994272D01*
X134673952Y-117153899D01*
X134664275Y-117160365D01*
X134635800Y-117182393D01*
X134626036Y-117185919D01*
X134609087Y-117197246D01*
X134576987Y-117203634D01*
X134564471Y-117208155D01*
X134555328Y-117207944D01*
X134532551Y-117212478D01*
X134503789Y-117206759D01*
X134491626Y-117206480D01*
X134481692Y-117202366D01*
X134456013Y-117197261D01*
X134434240Y-117182716D01*
X134424307Y-117178603D01*
X134415507Y-117170202D01*
X134391124Y-117153914D01*
X134378220Y-117134607D01*
X134371603Y-117128290D01*
X134365944Y-117116239D01*
X134347762Y-117089034D01*
X134343782Y-117069040D01*
X134329190Y-117037964D01*
X134304449Y-117013223D01*
X134273513Y-116998696D01*
X134253528Y-116994718D01*
X134245233Y-116989174D01*
X134199714Y-116992595D01*
X134182698Y-117003964D01*
X134180954Y-117005709D01*
X134034257Y-117103729D01*
X133871256Y-117171246D01*
X133698215Y-117205666D01*
X133521785Y-117205666D01*
X133348744Y-117171246D01*
X133185743Y-117103729D01*
X133039046Y-117005709D01*
X133037303Y-117003966D01*
X133020285Y-116992595D01*
X132974768Y-116989174D01*
X132966473Y-116994719D01*
X132946481Y-116998698D01*
X132937088Y-117003109D01*
X132923672Y-117004822D01*
X132882184Y-117035035D01*
X132866218Y-117069034D01*
X132862238Y-117089034D01*
X132844048Y-117116249D01*
X132838395Y-117128290D01*
X132831782Y-117134602D01*
X132818876Y-117153914D01*
X132794486Y-117170206D01*
X132785692Y-117178602D01*
X132775765Y-117182712D01*
X132753987Y-117197261D01*
X132728299Y-117202368D01*
X132718372Y-117206479D01*
X132706215Y-117206758D01*
X132677449Y-117212478D01*
X132654670Y-117207944D01*
X132645526Y-117208155D01*
X132633007Y-117203633D01*
X132600913Y-117197246D01*
X132583961Y-117185918D01*
X132574201Y-117182393D01*
X132545736Y-117160374D01*
X132536047Y-117153900D01*
X132376420Y-116994272D01*
X132293580Y-116994272D01*
X132133952Y-117153899D01*
X132124275Y-117160365D01*
X132095800Y-117182393D01*
X132086036Y-117185919D01*
X132069087Y-117197246D01*
X132036987Y-117203634D01*
X132024471Y-117208155D01*
X132015328Y-117207944D01*
X131992551Y-117212478D01*
X131963789Y-117206759D01*
X131951626Y-117206480D01*
X131941692Y-117202366D01*
X131916013Y-117197261D01*
X131894240Y-117182716D01*
X131884307Y-117178603D01*
X131875507Y-117170202D01*
X131851124Y-117153914D01*
X131838220Y-117134607D01*
X131831603Y-117128290D01*
X131825944Y-117116239D01*
X131807762Y-117089034D01*
X131803782Y-117069040D01*
X131789190Y-117037964D01*
X131764449Y-117013223D01*
X131733513Y-116998696D01*
X131713528Y-116994718D01*
X131705233Y-116989174D01*
X131659714Y-116992595D01*
X131642698Y-117003964D01*
X131640954Y-117005709D01*
X131494257Y-117103729D01*
X131331256Y-117171246D01*
X131158215Y-117205666D01*
X130981785Y-117205666D01*
X130808744Y-117171246D01*
X130645743Y-117103729D01*
X130499046Y-117005709D01*
X130497303Y-117003966D01*
X130480285Y-116992595D01*
X130434768Y-116989174D01*
X130426473Y-116994719D01*
X130406481Y-116998698D01*
X130397088Y-117003109D01*
X130383672Y-117004822D01*
X130342184Y-117035035D01*
X130326218Y-117069034D01*
X130322238Y-117089034D01*
X130304048Y-117116249D01*
X130298395Y-117128290D01*
X130291782Y-117134602D01*
X130278876Y-117153914D01*
X130254486Y-117170206D01*
X130245692Y-117178602D01*
X130235765Y-117182712D01*
X130213987Y-117197261D01*
X130188299Y-117202368D01*
X130178372Y-117206479D01*
X130166215Y-117206758D01*
X130137449Y-117212478D01*
X130114670Y-117207944D01*
X130105526Y-117208155D01*
X130093007Y-117203633D01*
X130060913Y-117197246D01*
X130043961Y-117185918D01*
X130034201Y-117182393D01*
X130005736Y-117160374D01*
X129996047Y-117153900D01*
X129836420Y-116994272D01*
X129753580Y-116994272D01*
X129593952Y-117153899D01*
X129584275Y-117160365D01*
X129555800Y-117182393D01*
X129546036Y-117185919D01*
X129529087Y-117197246D01*
X129496987Y-117203634D01*
X129484471Y-117208155D01*
X129475328Y-117207944D01*
X129452551Y-117212478D01*
X129423789Y-117206759D01*
X129411626Y-117206480D01*
X129401692Y-117202366D01*
X129376013Y-117197261D01*
X129354240Y-117182716D01*
X129344307Y-117178603D01*
X129335507Y-117170202D01*
X129311124Y-117153914D01*
X129298220Y-117134607D01*
X129291603Y-117128290D01*
X129285944Y-117116239D01*
X129267762Y-117089034D01*
X129263782Y-117069040D01*
X129249190Y-117037964D01*
X129224449Y-117013223D01*
X129193513Y-116998696D01*
X129173528Y-116994718D01*
X129165233Y-116989174D01*
X129119714Y-116992595D01*
X129102698Y-117003964D01*
X129100954Y-117005709D01*
X128954257Y-117103729D01*
X128791256Y-117171246D01*
X128618215Y-117205666D01*
X128441785Y-117205666D01*
X128268744Y-117171246D01*
X128105743Y-117103729D01*
X127959046Y-117005709D01*
X127957303Y-117003966D01*
X127940285Y-116992595D01*
X127894768Y-116989174D01*
X127886473Y-116994719D01*
X127866481Y-116998698D01*
X127857088Y-117003109D01*
X127843672Y-117004822D01*
X127802184Y-117035035D01*
X127786218Y-117069034D01*
X127782238Y-117089034D01*
X127764048Y-117116249D01*
X127758395Y-117128290D01*
X127751782Y-117134602D01*
X127738876Y-117153914D01*
X127714486Y-117170206D01*
X127705692Y-117178602D01*
X127695765Y-117182712D01*
X127673987Y-117197261D01*
X127648299Y-117202368D01*
X127638372Y-117206479D01*
X127626215Y-117206758D01*
X127597449Y-117212478D01*
X127574670Y-117207944D01*
X127565526Y-117208155D01*
X127553007Y-117203633D01*
X127520913Y-117197246D01*
X127503961Y-117185918D01*
X127494201Y-117182393D01*
X127465736Y-117160374D01*
X127456047Y-117153900D01*
X127296420Y-116994272D01*
X127213580Y-116994272D01*
X127053952Y-117153899D01*
X127044275Y-117160365D01*
X127015800Y-117182393D01*
X127006036Y-117185919D01*
X126989087Y-117197246D01*
X126956987Y-117203634D01*
X126944471Y-117208155D01*
X126935328Y-117207944D01*
X126912551Y-117212478D01*
X126883789Y-117206759D01*
X126871626Y-117206480D01*
X126861692Y-117202366D01*
X126836013Y-117197261D01*
X126814240Y-117182716D01*
X126804307Y-117178603D01*
X126795507Y-117170202D01*
X126771124Y-117153914D01*
X126758220Y-117134607D01*
X126751603Y-117128290D01*
X126745944Y-117116239D01*
X126727762Y-117089034D01*
X126723782Y-117069040D01*
X126709190Y-117037964D01*
X126684449Y-117013223D01*
X126653513Y-116998696D01*
X126633528Y-116994718D01*
X126625233Y-116989174D01*
X126579714Y-116992595D01*
X126562698Y-117003964D01*
X126560954Y-117005709D01*
X126414257Y-117103729D01*
X126251256Y-117171246D01*
X126078215Y-117205666D01*
X125901785Y-117205666D01*
X125728744Y-117171246D01*
X125565743Y-117103729D01*
X125419046Y-117005709D01*
X125417303Y-117003966D01*
X125400285Y-116992595D01*
X125354768Y-116989174D01*
X125346473Y-116994719D01*
X125326481Y-116998698D01*
X125317088Y-117003109D01*
X125303672Y-117004822D01*
X125262184Y-117035035D01*
X125246218Y-117069034D01*
X125242238Y-117089034D01*
X125224048Y-117116249D01*
X125218395Y-117128290D01*
X125211782Y-117134602D01*
X125198876Y-117153914D01*
X125174486Y-117170206D01*
X125165692Y-117178602D01*
X125155765Y-117182712D01*
X125133987Y-117197261D01*
X125108299Y-117202368D01*
X125098372Y-117206479D01*
X125086215Y-117206758D01*
X125057449Y-117212478D01*
X125034670Y-117207944D01*
X125025526Y-117208155D01*
X125013007Y-117203633D01*
X124980913Y-117197246D01*
X124963961Y-117185918D01*
X124954201Y-117182393D01*
X124925736Y-117160374D01*
X124916047Y-117153900D01*
X124756420Y-116994272D01*
X124673580Y-116994272D01*
X124513952Y-117153899D01*
X124504275Y-117160365D01*
X124475800Y-117182393D01*
X124466036Y-117185919D01*
X124449087Y-117197246D01*
X124416987Y-117203634D01*
X124404471Y-117208155D01*
X124395328Y-117207944D01*
X124372551Y-117212478D01*
X124343789Y-117206759D01*
X124331626Y-117206480D01*
X124321692Y-117202366D01*
X124296013Y-117197261D01*
X124274240Y-117182716D01*
X124264307Y-117178603D01*
X124255507Y-117170202D01*
X124231124Y-117153914D01*
X124218220Y-117134607D01*
X124211603Y-117128290D01*
X124205944Y-117116239D01*
X124187762Y-117089034D01*
X124183782Y-117069040D01*
X124169190Y-117037964D01*
X124144449Y-117013223D01*
X124113513Y-116998696D01*
X124093528Y-116994718D01*
X124085233Y-116989174D01*
X124039714Y-116992595D01*
X124022698Y-117003964D01*
X124020954Y-117005709D01*
X123874257Y-117103729D01*
X123711256Y-117171246D01*
X123538215Y-117205666D01*
X123361785Y-117205666D01*
X123188744Y-117171246D01*
X123025743Y-117103729D01*
X122879046Y-117005709D01*
X122754291Y-116880954D01*
X122656271Y-116734257D01*
X122588754Y-116571256D01*
X122554334Y-116398215D01*
X122554334Y-116221785D01*
X122588754Y-116048744D01*
X122656271Y-115885743D01*
X122754291Y-115739046D01*
X122756031Y-115737305D01*
X122767404Y-115720285D01*
X122770825Y-115674768D01*
X122765281Y-115666473D01*
X122761303Y-115646487D01*
X122756888Y-115637085D01*
X122752321Y-115601359D01*
X122750051Y-115589955D01*
X122750044Y-115548396D01*
X122750029Y-115469370D01*
X122734800Y-115432622D01*
X122483600Y-115181493D01*
X122458714Y-115151176D01*
X122428846Y-115079083D01*
X122425000Y-115040049D01*
X122425000Y-115039950D01*
X122428846Y-115000918D01*
X122458714Y-114928824D01*
X122483598Y-114898508D01*
X122716507Y-114665666D01*
X122734799Y-114647379D01*
X122750028Y-114610630D01*
X122750048Y-114496400D01*
X122750049Y-114496385D01*
X122750051Y-114490044D01*
X122752315Y-114478669D01*
X122756887Y-114442916D01*
X122761305Y-114433506D01*
X122765282Y-114413528D01*
X122770825Y-114405233D01*
X122767403Y-114359713D01*
X122756032Y-114342695D01*
X122754291Y-114340954D01*
X122656271Y-114194257D01*
X122588754Y-114031256D01*
X122554334Y-113858215D01*
X122554334Y-113681785D01*
X122588754Y-113508744D01*
X122656271Y-113345743D01*
X122754291Y-113199046D01*
X122756031Y-113197305D01*
X122767404Y-113180285D01*
X122770825Y-113134768D01*
X122765281Y-113126473D01*
X122761303Y-113106487D01*
X122756888Y-113097085D01*
X122752321Y-113061359D01*
X122750051Y-113049955D01*
X122750044Y-113008396D01*
X122750029Y-112929370D01*
X122734800Y-112892622D01*
X122483600Y-112641493D01*
X122458714Y-112611176D01*
X122428846Y-112539083D01*
X122425000Y-112500049D01*
X122425000Y-112499950D01*
X122428846Y-112460918D01*
X122458714Y-112388824D01*
X122483598Y-112358508D01*
X122716507Y-112125666D01*
X122734799Y-112107379D01*
X122750028Y-112070630D01*
X122750048Y-111956400D01*
X122750049Y-111956385D01*
X122750051Y-111950044D01*
X122752315Y-111938669D01*
X122756887Y-111902916D01*
X122761305Y-111893506D01*
X122765282Y-111873528D01*
X122770825Y-111865233D01*
X122767403Y-111819713D01*
X122756032Y-111802695D01*
X122754291Y-111800954D01*
X122656271Y-111654257D01*
X122588754Y-111491256D01*
X122554334Y-111318215D01*
X122554334Y-111141785D01*
X122588754Y-110968744D01*
X122656271Y-110805743D01*
X122754291Y-110659046D01*
X122756031Y-110657305D01*
X122767404Y-110640285D01*
X122770825Y-110594768D01*
X122765281Y-110586473D01*
X122761303Y-110566487D01*
X122756888Y-110557085D01*
X122752321Y-110521359D01*
X122750051Y-110509955D01*
X122750044Y-110468396D01*
X122750029Y-110389370D01*
X122734800Y-110352622D01*
X122483600Y-110101493D01*
X122458714Y-110071176D01*
X122428846Y-109999083D01*
X122425000Y-109960049D01*
X122425000Y-109959950D01*
X122428846Y-109920918D01*
X122458714Y-109848824D01*
X122483598Y-109818508D01*
X122716507Y-109585666D01*
X122734799Y-109567379D01*
X122750028Y-109530630D01*
X122750048Y-109416400D01*
X122750049Y-109416385D01*
X122750051Y-109410044D01*
X122752315Y-109398669D01*
X122756887Y-109362916D01*
X122761305Y-109353506D01*
X122765282Y-109333528D01*
X122770825Y-109325233D01*
X122767403Y-109279713D01*
X122756032Y-109262695D01*
X122754291Y-109260954D01*
X122656271Y-109114257D01*
X122588754Y-108951256D01*
X122554334Y-108778215D01*
X122554334Y-108601785D01*
X122588754Y-108428744D01*
X122656271Y-108265743D01*
X122754291Y-108119046D01*
X122756031Y-108117305D01*
X122767404Y-108100285D01*
X122770825Y-108054768D01*
X122765281Y-108046473D01*
X122761303Y-108026487D01*
X122756888Y-108017085D01*
X122752321Y-107981359D01*
X122750051Y-107969955D01*
X122750044Y-107928396D01*
X122750029Y-107849370D01*
X122734800Y-107812622D01*
X122483600Y-107561493D01*
X122458714Y-107531176D01*
X122428846Y-107459083D01*
X122425000Y-107420049D01*
X122425000Y-107419950D01*
X122428846Y-107380918D01*
X122458714Y-107308824D01*
X122483598Y-107278508D01*
X122716507Y-107045666D01*
X122734799Y-107027379D01*
X122750028Y-106990630D01*
X122750048Y-106876400D01*
X122750049Y-106876385D01*
X122750051Y-106870044D01*
X122752315Y-106858669D01*
X122756887Y-106822916D01*
X122761305Y-106813506D01*
X122765282Y-106793528D01*
X122770825Y-106785233D01*
X122767403Y-106739713D01*
X122756032Y-106722695D01*
X122754291Y-106720954D01*
X122656271Y-106574257D01*
X122588754Y-106411256D01*
X122554334Y-106238215D01*
X122554334Y-106061785D01*
X122588754Y-105888744D01*
X122656271Y-105725743D01*
X122754291Y-105579046D01*
X122756031Y-105577305D01*
X122767404Y-105560285D01*
X122770825Y-105514768D01*
X122765281Y-105506473D01*
X122761303Y-105486487D01*
X122756888Y-105477085D01*
X122752321Y-105441359D01*
X122750051Y-105429955D01*
X122750044Y-105388396D01*
X122750029Y-105309370D01*
X122734800Y-105272622D01*
X122483600Y-105021493D01*
X122458714Y-104991176D01*
X122428846Y-104919083D01*
X122425000Y-104880049D01*
X122425000Y-104879950D01*
X122428846Y-104840918D01*
X122458714Y-104768824D01*
X122483598Y-104738508D01*
X122716507Y-104505666D01*
X122734799Y-104487379D01*
X122750028Y-104450630D01*
X122750048Y-104336400D01*
X122750049Y-104336385D01*
X122750051Y-104330044D01*
X122752315Y-104318669D01*
X122756887Y-104282916D01*
X122761305Y-104273506D01*
X122765282Y-104253528D01*
X122770825Y-104245233D01*
X122767403Y-104199713D01*
X122756032Y-104182695D01*
X122754291Y-104180954D01*
X122656271Y-104034257D01*
X122588754Y-103871256D01*
X122554334Y-103698215D01*
X122554334Y-103521785D01*
X122588754Y-103348744D01*
X122656271Y-103185743D01*
X122754291Y-103039046D01*
X122879046Y-102914291D01*
X123025743Y-102816271D01*
X123188744Y-102748754D01*
X123361785Y-102714334D01*
X123538215Y-102714334D01*
X123711256Y-102748754D01*
X123874257Y-102816271D01*
X124020954Y-102914291D01*
X124022695Y-102916032D01*
X124039713Y-102927403D01*
X124085230Y-102930825D01*
X124093527Y-102925281D01*
X124113508Y-102921303D01*
X124122913Y-102916888D01*
X124158642Y-102912320D01*
X124170045Y-102910051D01*
X124189275Y-102910047D01*
X124290629Y-102910029D01*
X124327378Y-102894800D01*
X124574827Y-102647281D01*
X124574827Y-102647280D01*
X124578507Y-102643600D01*
X124608824Y-102618714D01*
X124680917Y-102588846D01*
X124719951Y-102585000D01*
X124720050Y-102585000D01*
X124759082Y-102588846D01*
G37*
G36*
X121006292Y-112822632D02*
G01*
X121191254Y-112859423D01*
X121365484Y-112931592D01*
X121522286Y-113036364D01*
X121655636Y-113169714D01*
X121760408Y-113326516D01*
X121832577Y-113500746D01*
X121869368Y-113685708D01*
X121869368Y-113874292D01*
X121832577Y-114059254D01*
X121760408Y-114233484D01*
X121655636Y-114390286D01*
X121522286Y-114523636D01*
X121365484Y-114628408D01*
X121191254Y-114700577D01*
X121006292Y-114737368D01*
X120912000Y-114742000D01*
X120909536Y-114742000D01*
X119390464Y-114742000D01*
X119388000Y-114742000D01*
X119293708Y-114737368D01*
X119108746Y-114700577D01*
X118934516Y-114628408D01*
X118777714Y-114523636D01*
X118644364Y-114390286D01*
X118539592Y-114233484D01*
X118467423Y-114059254D01*
X118430632Y-113874292D01*
X118430632Y-113685708D01*
X118467423Y-113500746D01*
X118539592Y-113326516D01*
X118644364Y-113169714D01*
X118777714Y-113036364D01*
X118934516Y-112931592D01*
X119108746Y-112859423D01*
X119293708Y-112822632D01*
X119388000Y-112818000D01*
X120912000Y-112818000D01*
X121006292Y-112822632D01*
G37*
G36*
X196190292Y-112822632D02*
G01*
X196375254Y-112859423D01*
X196549484Y-112931592D01*
X196706286Y-113036364D01*
X196839636Y-113169714D01*
X196944408Y-113326516D01*
X197016577Y-113500746D01*
X197053368Y-113685708D01*
X197053368Y-113874292D01*
X197016577Y-114059254D01*
X196944408Y-114233484D01*
X196839636Y-114390286D01*
X196706286Y-114523636D01*
X196549484Y-114628408D01*
X196375254Y-114700577D01*
X196190292Y-114737368D01*
X196096000Y-114742000D01*
X196093536Y-114742000D01*
X194574464Y-114742000D01*
X194572000Y-114742000D01*
X194477708Y-114737368D01*
X194292746Y-114700577D01*
X194118516Y-114628408D01*
X193961714Y-114523636D01*
X193828364Y-114390286D01*
X193723592Y-114233484D01*
X193651423Y-114059254D01*
X193614632Y-113874292D01*
X193614632Y-113685708D01*
X193651423Y-113500746D01*
X193723592Y-113326516D01*
X193828364Y-113169714D01*
X193961714Y-113036364D01*
X194118516Y-112931592D01*
X194292746Y-112859423D01*
X194477708Y-112822632D01*
X194572000Y-112818000D01*
X196096000Y-112818000D01*
X196190292Y-112822632D01*
G37*
G36*
X121006292Y-110282632D02*
G01*
X121191254Y-110319423D01*
X121365484Y-110391592D01*
X121522286Y-110496364D01*
X121655636Y-110629714D01*
X121760408Y-110786516D01*
X121832577Y-110960746D01*
X121869368Y-111145708D01*
X121869368Y-111334292D01*
X121832577Y-111519254D01*
X121760408Y-111693484D01*
X121655636Y-111850286D01*
X121522286Y-111983636D01*
X121365484Y-112088408D01*
X121191254Y-112160577D01*
X121006292Y-112197368D01*
X120912000Y-112202000D01*
X120909536Y-112202000D01*
X119390464Y-112202000D01*
X119388000Y-112202000D01*
X119293708Y-112197368D01*
X119108746Y-112160577D01*
X118934516Y-112088408D01*
X118777714Y-111983636D01*
X118644364Y-111850286D01*
X118539592Y-111693484D01*
X118467423Y-111519254D01*
X118430632Y-111334292D01*
X118430632Y-111145708D01*
X118467423Y-110960746D01*
X118539592Y-110786516D01*
X118644364Y-110629714D01*
X118777714Y-110496364D01*
X118934516Y-110391592D01*
X119108746Y-110319423D01*
X119293708Y-110282632D01*
X119388000Y-110278000D01*
X120912000Y-110278000D01*
X121006292Y-110282632D01*
G37*
G36*
X196190292Y-110282632D02*
G01*
X196375254Y-110319423D01*
X196549484Y-110391592D01*
X196706286Y-110496364D01*
X196839636Y-110629714D01*
X196944408Y-110786516D01*
X197016577Y-110960746D01*
X197053368Y-111145708D01*
X197053368Y-111334292D01*
X197016577Y-111519254D01*
X196944408Y-111693484D01*
X196839636Y-111850286D01*
X196706286Y-111983636D01*
X196549484Y-112088408D01*
X196375254Y-112160577D01*
X196190292Y-112197368D01*
X196096000Y-112202000D01*
X196093536Y-112202000D01*
X194574464Y-112202000D01*
X194572000Y-112202000D01*
X194477708Y-112197368D01*
X194292746Y-112160577D01*
X194118516Y-112088408D01*
X193961714Y-111983636D01*
X193828364Y-111850286D01*
X193723592Y-111693484D01*
X193651423Y-111519254D01*
X193614632Y-111334292D01*
X193614632Y-111145708D01*
X193651423Y-110960746D01*
X193723592Y-110786516D01*
X193828364Y-110629714D01*
X193961714Y-110496364D01*
X194118516Y-110391592D01*
X194292746Y-110319423D01*
X194477708Y-110282632D01*
X194572000Y-110278000D01*
X196096000Y-110278000D01*
X196190292Y-110282632D01*
G37*
G36*
X121006292Y-107742632D02*
G01*
X121191254Y-107779423D01*
X121365484Y-107851592D01*
X121522286Y-107956364D01*
X121655636Y-108089714D01*
X121760408Y-108246516D01*
X121832577Y-108420746D01*
X121869368Y-108605708D01*
X121869368Y-108794292D01*
X121832577Y-108979254D01*
X121760408Y-109153484D01*
X121655636Y-109310286D01*
X121522286Y-109443636D01*
X121365484Y-109548408D01*
X121191254Y-109620577D01*
X121006292Y-109657368D01*
X120912000Y-109662000D01*
X120909536Y-109662000D01*
X119390464Y-109662000D01*
X119388000Y-109662000D01*
X119293708Y-109657368D01*
X119108746Y-109620577D01*
X118934516Y-109548408D01*
X118777714Y-109443636D01*
X118644364Y-109310286D01*
X118539592Y-109153484D01*
X118467423Y-108979254D01*
X118430632Y-108794292D01*
X118430632Y-108605708D01*
X118467423Y-108420746D01*
X118539592Y-108246516D01*
X118644364Y-108089714D01*
X118777714Y-107956364D01*
X118934516Y-107851592D01*
X119108746Y-107779423D01*
X119293708Y-107742632D01*
X119388000Y-107738000D01*
X120912000Y-107738000D01*
X121006292Y-107742632D01*
G37*
G36*
X196190292Y-107742632D02*
G01*
X196375254Y-107779423D01*
X196549484Y-107851592D01*
X196706286Y-107956364D01*
X196839636Y-108089714D01*
X196944408Y-108246516D01*
X197016577Y-108420746D01*
X197053368Y-108605708D01*
X197053368Y-108794292D01*
X197016577Y-108979254D01*
X196944408Y-109153484D01*
X196839636Y-109310286D01*
X196706286Y-109443636D01*
X196549484Y-109548408D01*
X196375254Y-109620577D01*
X196190292Y-109657368D01*
X196096000Y-109662000D01*
X196093536Y-109662000D01*
X194574464Y-109662000D01*
X194572000Y-109662000D01*
X194477708Y-109657368D01*
X194292746Y-109620577D01*
X194118516Y-109548408D01*
X193961714Y-109443636D01*
X193828364Y-109310286D01*
X193723592Y-109153484D01*
X193651423Y-108979254D01*
X193614632Y-108794292D01*
X193614632Y-108605708D01*
X193651423Y-108420746D01*
X193723592Y-108246516D01*
X193828364Y-108089714D01*
X193961714Y-107956364D01*
X194118516Y-107851592D01*
X194292746Y-107779423D01*
X194477708Y-107742632D01*
X194572000Y-107738000D01*
X196096000Y-107738000D01*
X196190292Y-107742632D01*
G37*
G36*
X121006292Y-105202632D02*
G01*
X121191254Y-105239423D01*
X121365484Y-105311592D01*
X121522286Y-105416364D01*
X121655636Y-105549714D01*
X121760408Y-105706516D01*
X121832577Y-105880746D01*
X121869368Y-106065708D01*
X121869368Y-106254292D01*
X121832577Y-106439254D01*
X121760408Y-106613484D01*
X121655636Y-106770286D01*
X121522286Y-106903636D01*
X121365484Y-107008408D01*
X121191254Y-107080577D01*
X121006292Y-107117368D01*
X120912000Y-107122000D01*
X120909536Y-107122000D01*
X119390464Y-107122000D01*
X119388000Y-107122000D01*
X119293708Y-107117368D01*
X119108746Y-107080577D01*
X118934516Y-107008408D01*
X118777714Y-106903636D01*
X118644364Y-106770286D01*
X118539592Y-106613484D01*
X118467423Y-106439254D01*
X118430632Y-106254292D01*
X118430632Y-106065708D01*
X118467423Y-105880746D01*
X118539592Y-105706516D01*
X118644364Y-105549714D01*
X118777714Y-105416364D01*
X118934516Y-105311592D01*
X119108746Y-105239423D01*
X119293708Y-105202632D01*
X119388000Y-105198000D01*
X120912000Y-105198000D01*
X121006292Y-105202632D01*
G37*
G36*
X196190292Y-105202632D02*
G01*
X196375254Y-105239423D01*
X196549484Y-105311592D01*
X196706286Y-105416364D01*
X196839636Y-105549714D01*
X196944408Y-105706516D01*
X197016577Y-105880746D01*
X197053368Y-106065708D01*
X197053368Y-106254292D01*
X197016577Y-106439254D01*
X196944408Y-106613484D01*
X196839636Y-106770286D01*
X196706286Y-106903636D01*
X196549484Y-107008408D01*
X196375254Y-107080577D01*
X196190292Y-107117368D01*
X196096000Y-107122000D01*
X196093536Y-107122000D01*
X194574464Y-107122000D01*
X194572000Y-107122000D01*
X194477708Y-107117368D01*
X194292746Y-107080577D01*
X194118516Y-107008408D01*
X193961714Y-106903636D01*
X193828364Y-106770286D01*
X193723592Y-106613484D01*
X193651423Y-106439254D01*
X193614632Y-106254292D01*
X193614632Y-106065708D01*
X193651423Y-105880746D01*
X193723592Y-105706516D01*
X193828364Y-105549714D01*
X193961714Y-105416364D01*
X194118516Y-105311592D01*
X194292746Y-105239423D01*
X194477708Y-105202632D01*
X194572000Y-105198000D01*
X196096000Y-105198000D01*
X196190292Y-105202632D01*
G37*
G36*
X120653479Y-101335919D02*
G01*
X120847488Y-101398957D01*
X121029248Y-101491568D01*
X121194282Y-101611472D01*
X121338528Y-101755718D01*
X121458432Y-101920752D01*
X121551043Y-102102512D01*
X121614081Y-102296521D01*
X121645993Y-102498003D01*
X121645993Y-102701997D01*
X121614081Y-102903479D01*
X121551043Y-103097488D01*
X121458432Y-103279248D01*
X121338528Y-103444282D01*
X121194282Y-103588528D01*
X121029248Y-103708432D01*
X120847488Y-103801043D01*
X120653479Y-103864081D01*
X120451997Y-103895993D01*
X120248003Y-103895993D01*
X120046521Y-103864081D01*
X119852512Y-103801043D01*
X119670752Y-103708432D01*
X119505718Y-103588528D01*
X119361472Y-103444282D01*
X119241568Y-103279248D01*
X119148957Y-103097488D01*
X119085919Y-102903479D01*
X119054007Y-102701997D01*
X119054007Y-102498003D01*
X119085919Y-102296521D01*
X119148957Y-102102512D01*
X119241568Y-101920752D01*
X119361472Y-101755718D01*
X119505718Y-101611472D01*
X119670752Y-101491568D01*
X119852512Y-101398957D01*
X120046521Y-101335919D01*
X120248003Y-101304007D01*
X120451997Y-101304007D01*
X120653479Y-101335919D01*
G37*
G36*
X195453479Y-101335919D02*
G01*
X195647488Y-101398957D01*
X195829248Y-101491568D01*
X195994282Y-101611472D01*
X196138528Y-101755718D01*
X196258432Y-101920752D01*
X196351043Y-102102512D01*
X196414081Y-102296521D01*
X196445993Y-102498003D01*
X196445993Y-102701997D01*
X196414081Y-102903479D01*
X196351043Y-103097488D01*
X196258432Y-103279248D01*
X196138528Y-103444282D01*
X195994282Y-103588528D01*
X195829248Y-103708432D01*
X195647488Y-103801043D01*
X195453479Y-103864081D01*
X195251997Y-103895993D01*
X195048003Y-103895993D01*
X194846521Y-103864081D01*
X194652512Y-103801043D01*
X194470752Y-103708432D01*
X194305718Y-103588528D01*
X194161472Y-103444282D01*
X194041568Y-103279248D01*
X193948957Y-103097488D01*
X193885919Y-102903479D01*
X193854007Y-102701997D01*
X193854007Y-102498003D01*
X193885919Y-102296521D01*
X193948957Y-102102512D01*
X194041568Y-101920752D01*
X194161472Y-101755718D01*
X194305718Y-101611472D01*
X194470752Y-101491568D01*
X194652512Y-101398957D01*
X194846521Y-101335919D01*
X195048003Y-101304007D01*
X195251997Y-101304007D01*
X195453479Y-101335919D01*
G37*
%LPD*%
M02*
