G04 #@! TF.GenerationSoftware,KiCad,Pcbnew,9.0.1*
G04 #@! TF.CreationDate,2025-05-07T17:02:48-04:00*
G04 #@! TF.ProjectId,matrix-protoboard_6x28,6d617472-6978-42d7-9072-6f746f626f61,rev?*
G04 #@! TF.SameCoordinates,Original*
G04 #@! TF.FileFunction,Soldermask,Bot*
G04 #@! TF.FilePolarity,Negative*
%FSLAX46Y46*%
G04 Gerber Fmt 4.6, Leading zero omitted, Abs format (unit mm)*
G04 Created by KiCad (PCBNEW 9.0.1) date 2025-05-07 17:02:48*
%MOMM*%
%LPD*%
G01*
G04 APERTURE LIST*
G04 APERTURE END LIST*
G36*
X120653479Y-116135919D02*
G01*
X120847488Y-116198957D01*
X121029248Y-116291568D01*
X121194282Y-116411472D01*
X121338528Y-116555718D01*
X121458432Y-116720752D01*
X121551043Y-116902512D01*
X121614081Y-117096521D01*
X121645993Y-117298003D01*
X121645993Y-117501997D01*
X121614081Y-117703479D01*
X121551043Y-117897488D01*
X121458432Y-118079248D01*
X121338528Y-118244282D01*
X121194282Y-118388528D01*
X121029248Y-118508432D01*
X120847488Y-118601043D01*
X120653479Y-118664081D01*
X120451997Y-118695993D01*
X120248003Y-118695993D01*
X120046521Y-118664081D01*
X119852512Y-118601043D01*
X119670752Y-118508432D01*
X119505718Y-118388528D01*
X119361472Y-118244282D01*
X119241568Y-118079248D01*
X119148957Y-117897488D01*
X119085919Y-117703479D01*
X119054007Y-117501997D01*
X119054007Y-117298003D01*
X119085919Y-117096521D01*
X119148957Y-116902512D01*
X119241568Y-116720752D01*
X119361472Y-116555718D01*
X119505718Y-116411472D01*
X119670752Y-116291568D01*
X119852512Y-116198957D01*
X120046521Y-116135919D01*
X120248003Y-116104007D01*
X120451997Y-116104007D01*
X120653479Y-116135919D01*
G37*
G36*
X195453479Y-116135919D02*
G01*
X195647488Y-116198957D01*
X195829248Y-116291568D01*
X195994282Y-116411472D01*
X196138528Y-116555718D01*
X196258432Y-116720752D01*
X196351043Y-116902512D01*
X196414081Y-117096521D01*
X196445993Y-117298003D01*
X196445993Y-117501997D01*
X196414081Y-117703479D01*
X196351043Y-117897488D01*
X196258432Y-118079248D01*
X196138528Y-118244282D01*
X195994282Y-118388528D01*
X195829248Y-118508432D01*
X195647488Y-118601043D01*
X195453479Y-118664081D01*
X195251997Y-118695993D01*
X195048003Y-118695993D01*
X194846521Y-118664081D01*
X194652512Y-118601043D01*
X194470752Y-118508432D01*
X194305718Y-118388528D01*
X194161472Y-118244282D01*
X194041568Y-118079248D01*
X193948957Y-117897488D01*
X193885919Y-117703479D01*
X193854007Y-117501997D01*
X193854007Y-117298003D01*
X193885919Y-117096521D01*
X193948957Y-116902512D01*
X194041568Y-116720752D01*
X194161472Y-116555718D01*
X194305718Y-116411472D01*
X194470752Y-116291568D01*
X194652512Y-116198957D01*
X194846521Y-116135919D01*
X195048003Y-116104007D01*
X195251997Y-116104007D01*
X195453479Y-116135919D01*
G37*
G36*
X123706790Y-115240393D02*
G01*
X123870952Y-115293733D01*
X124024748Y-115372096D01*
X124164393Y-115473553D01*
X124286447Y-115595607D01*
X124387904Y-115735252D01*
X124466267Y-115889048D01*
X124519607Y-116053210D01*
X124546609Y-116223695D01*
X124546609Y-116396305D01*
X124519607Y-116566790D01*
X124466267Y-116730952D01*
X124387904Y-116884748D01*
X124286447Y-117024393D01*
X124164393Y-117146447D01*
X124024748Y-117247904D01*
X123870952Y-117326267D01*
X123706790Y-117379607D01*
X123536305Y-117406609D01*
X123363695Y-117406609D01*
X123193210Y-117379607D01*
X123029048Y-117326267D01*
X122875252Y-117247904D01*
X122735607Y-117146447D01*
X122613553Y-117024393D01*
X122512096Y-116884748D01*
X122433733Y-116730952D01*
X122380393Y-116566790D01*
X122353391Y-116396305D01*
X122353391Y-116223695D01*
X122380393Y-116053210D01*
X122433733Y-115889048D01*
X122512096Y-115735252D01*
X122613553Y-115595607D01*
X122735607Y-115473553D01*
X122875252Y-115372096D01*
X123029048Y-115293733D01*
X123193210Y-115240393D01*
X123363695Y-115213391D01*
X123536305Y-115213391D01*
X123706790Y-115240393D01*
G37*
G36*
X126246790Y-115240393D02*
G01*
X126410952Y-115293733D01*
X126564748Y-115372096D01*
X126704393Y-115473553D01*
X126826447Y-115595607D01*
X126927904Y-115735252D01*
X127006267Y-115889048D01*
X127059607Y-116053210D01*
X127086609Y-116223695D01*
X127086609Y-116396305D01*
X127059607Y-116566790D01*
X127006267Y-116730952D01*
X126927904Y-116884748D01*
X126826447Y-117024393D01*
X126704393Y-117146447D01*
X126564748Y-117247904D01*
X126410952Y-117326267D01*
X126246790Y-117379607D01*
X126076305Y-117406609D01*
X125903695Y-117406609D01*
X125733210Y-117379607D01*
X125569048Y-117326267D01*
X125415252Y-117247904D01*
X125275607Y-117146447D01*
X125153553Y-117024393D01*
X125052096Y-116884748D01*
X124973733Y-116730952D01*
X124920393Y-116566790D01*
X124893391Y-116396305D01*
X124893391Y-116223695D01*
X124920393Y-116053210D01*
X124973733Y-115889048D01*
X125052096Y-115735252D01*
X125153553Y-115595607D01*
X125275607Y-115473553D01*
X125415252Y-115372096D01*
X125569048Y-115293733D01*
X125733210Y-115240393D01*
X125903695Y-115213391D01*
X126076305Y-115213391D01*
X126246790Y-115240393D01*
G37*
G36*
X128786790Y-115240393D02*
G01*
X128950952Y-115293733D01*
X129104748Y-115372096D01*
X129244393Y-115473553D01*
X129366447Y-115595607D01*
X129467904Y-115735252D01*
X129546267Y-115889048D01*
X129599607Y-116053210D01*
X129626609Y-116223695D01*
X129626609Y-116396305D01*
X129599607Y-116566790D01*
X129546267Y-116730952D01*
X129467904Y-116884748D01*
X129366447Y-117024393D01*
X129244393Y-117146447D01*
X129104748Y-117247904D01*
X128950952Y-117326267D01*
X128786790Y-117379607D01*
X128616305Y-117406609D01*
X128443695Y-117406609D01*
X128273210Y-117379607D01*
X128109048Y-117326267D01*
X127955252Y-117247904D01*
X127815607Y-117146447D01*
X127693553Y-117024393D01*
X127592096Y-116884748D01*
X127513733Y-116730952D01*
X127460393Y-116566790D01*
X127433391Y-116396305D01*
X127433391Y-116223695D01*
X127460393Y-116053210D01*
X127513733Y-115889048D01*
X127592096Y-115735252D01*
X127693553Y-115595607D01*
X127815607Y-115473553D01*
X127955252Y-115372096D01*
X128109048Y-115293733D01*
X128273210Y-115240393D01*
X128443695Y-115213391D01*
X128616305Y-115213391D01*
X128786790Y-115240393D01*
G37*
G36*
X131326790Y-115240393D02*
G01*
X131490952Y-115293733D01*
X131644748Y-115372096D01*
X131784393Y-115473553D01*
X131906447Y-115595607D01*
X132007904Y-115735252D01*
X132086267Y-115889048D01*
X132139607Y-116053210D01*
X132166609Y-116223695D01*
X132166609Y-116396305D01*
X132139607Y-116566790D01*
X132086267Y-116730952D01*
X132007904Y-116884748D01*
X131906447Y-117024393D01*
X131784393Y-117146447D01*
X131644748Y-117247904D01*
X131490952Y-117326267D01*
X131326790Y-117379607D01*
X131156305Y-117406609D01*
X130983695Y-117406609D01*
X130813210Y-117379607D01*
X130649048Y-117326267D01*
X130495252Y-117247904D01*
X130355607Y-117146447D01*
X130233553Y-117024393D01*
X130132096Y-116884748D01*
X130053733Y-116730952D01*
X130000393Y-116566790D01*
X129973391Y-116396305D01*
X129973391Y-116223695D01*
X130000393Y-116053210D01*
X130053733Y-115889048D01*
X130132096Y-115735252D01*
X130233553Y-115595607D01*
X130355607Y-115473553D01*
X130495252Y-115372096D01*
X130649048Y-115293733D01*
X130813210Y-115240393D01*
X130983695Y-115213391D01*
X131156305Y-115213391D01*
X131326790Y-115240393D01*
G37*
G36*
X133866790Y-115240393D02*
G01*
X134030952Y-115293733D01*
X134184748Y-115372096D01*
X134324393Y-115473553D01*
X134446447Y-115595607D01*
X134547904Y-115735252D01*
X134626267Y-115889048D01*
X134679607Y-116053210D01*
X134706609Y-116223695D01*
X134706609Y-116396305D01*
X134679607Y-116566790D01*
X134626267Y-116730952D01*
X134547904Y-116884748D01*
X134446447Y-117024393D01*
X134324393Y-117146447D01*
X134184748Y-117247904D01*
X134030952Y-117326267D01*
X133866790Y-117379607D01*
X133696305Y-117406609D01*
X133523695Y-117406609D01*
X133353210Y-117379607D01*
X133189048Y-117326267D01*
X133035252Y-117247904D01*
X132895607Y-117146447D01*
X132773553Y-117024393D01*
X132672096Y-116884748D01*
X132593733Y-116730952D01*
X132540393Y-116566790D01*
X132513391Y-116396305D01*
X132513391Y-116223695D01*
X132540393Y-116053210D01*
X132593733Y-115889048D01*
X132672096Y-115735252D01*
X132773553Y-115595607D01*
X132895607Y-115473553D01*
X133035252Y-115372096D01*
X133189048Y-115293733D01*
X133353210Y-115240393D01*
X133523695Y-115213391D01*
X133696305Y-115213391D01*
X133866790Y-115240393D01*
G37*
G36*
X136406790Y-115240393D02*
G01*
X136570952Y-115293733D01*
X136724748Y-115372096D01*
X136864393Y-115473553D01*
X136986447Y-115595607D01*
X137087904Y-115735252D01*
X137166267Y-115889048D01*
X137219607Y-116053210D01*
X137246609Y-116223695D01*
X137246609Y-116396305D01*
X137219607Y-116566790D01*
X137166267Y-116730952D01*
X137087904Y-116884748D01*
X136986447Y-117024393D01*
X136864393Y-117146447D01*
X136724748Y-117247904D01*
X136570952Y-117326267D01*
X136406790Y-117379607D01*
X136236305Y-117406609D01*
X136063695Y-117406609D01*
X135893210Y-117379607D01*
X135729048Y-117326267D01*
X135575252Y-117247904D01*
X135435607Y-117146447D01*
X135313553Y-117024393D01*
X135212096Y-116884748D01*
X135133733Y-116730952D01*
X135080393Y-116566790D01*
X135053391Y-116396305D01*
X135053391Y-116223695D01*
X135080393Y-116053210D01*
X135133733Y-115889048D01*
X135212096Y-115735252D01*
X135313553Y-115595607D01*
X135435607Y-115473553D01*
X135575252Y-115372096D01*
X135729048Y-115293733D01*
X135893210Y-115240393D01*
X136063695Y-115213391D01*
X136236305Y-115213391D01*
X136406790Y-115240393D01*
G37*
G36*
X138946790Y-115240393D02*
G01*
X139110952Y-115293733D01*
X139264748Y-115372096D01*
X139404393Y-115473553D01*
X139526447Y-115595607D01*
X139627904Y-115735252D01*
X139706267Y-115889048D01*
X139759607Y-116053210D01*
X139786609Y-116223695D01*
X139786609Y-116396305D01*
X139759607Y-116566790D01*
X139706267Y-116730952D01*
X139627904Y-116884748D01*
X139526447Y-117024393D01*
X139404393Y-117146447D01*
X139264748Y-117247904D01*
X139110952Y-117326267D01*
X138946790Y-117379607D01*
X138776305Y-117406609D01*
X138603695Y-117406609D01*
X138433210Y-117379607D01*
X138269048Y-117326267D01*
X138115252Y-117247904D01*
X137975607Y-117146447D01*
X137853553Y-117024393D01*
X137752096Y-116884748D01*
X137673733Y-116730952D01*
X137620393Y-116566790D01*
X137593391Y-116396305D01*
X137593391Y-116223695D01*
X137620393Y-116053210D01*
X137673733Y-115889048D01*
X137752096Y-115735252D01*
X137853553Y-115595607D01*
X137975607Y-115473553D01*
X138115252Y-115372096D01*
X138269048Y-115293733D01*
X138433210Y-115240393D01*
X138603695Y-115213391D01*
X138776305Y-115213391D01*
X138946790Y-115240393D01*
G37*
G36*
X141486790Y-115240393D02*
G01*
X141650952Y-115293733D01*
X141804748Y-115372096D01*
X141944393Y-115473553D01*
X142066447Y-115595607D01*
X142167904Y-115735252D01*
X142246267Y-115889048D01*
X142299607Y-116053210D01*
X142326609Y-116223695D01*
X142326609Y-116396305D01*
X142299607Y-116566790D01*
X142246267Y-116730952D01*
X142167904Y-116884748D01*
X142066447Y-117024393D01*
X141944393Y-117146447D01*
X141804748Y-117247904D01*
X141650952Y-117326267D01*
X141486790Y-117379607D01*
X141316305Y-117406609D01*
X141143695Y-117406609D01*
X140973210Y-117379607D01*
X140809048Y-117326267D01*
X140655252Y-117247904D01*
X140515607Y-117146447D01*
X140393553Y-117024393D01*
X140292096Y-116884748D01*
X140213733Y-116730952D01*
X140160393Y-116566790D01*
X140133391Y-116396305D01*
X140133391Y-116223695D01*
X140160393Y-116053210D01*
X140213733Y-115889048D01*
X140292096Y-115735252D01*
X140393553Y-115595607D01*
X140515607Y-115473553D01*
X140655252Y-115372096D01*
X140809048Y-115293733D01*
X140973210Y-115240393D01*
X141143695Y-115213391D01*
X141316305Y-115213391D01*
X141486790Y-115240393D01*
G37*
G36*
X144026790Y-115240393D02*
G01*
X144190952Y-115293733D01*
X144344748Y-115372096D01*
X144484393Y-115473553D01*
X144606447Y-115595607D01*
X144707904Y-115735252D01*
X144786267Y-115889048D01*
X144839607Y-116053210D01*
X144866609Y-116223695D01*
X144866609Y-116396305D01*
X144839607Y-116566790D01*
X144786267Y-116730952D01*
X144707904Y-116884748D01*
X144606447Y-117024393D01*
X144484393Y-117146447D01*
X144344748Y-117247904D01*
X144190952Y-117326267D01*
X144026790Y-117379607D01*
X143856305Y-117406609D01*
X143683695Y-117406609D01*
X143513210Y-117379607D01*
X143349048Y-117326267D01*
X143195252Y-117247904D01*
X143055607Y-117146447D01*
X142933553Y-117024393D01*
X142832096Y-116884748D01*
X142753733Y-116730952D01*
X142700393Y-116566790D01*
X142673391Y-116396305D01*
X142673391Y-116223695D01*
X142700393Y-116053210D01*
X142753733Y-115889048D01*
X142832096Y-115735252D01*
X142933553Y-115595607D01*
X143055607Y-115473553D01*
X143195252Y-115372096D01*
X143349048Y-115293733D01*
X143513210Y-115240393D01*
X143683695Y-115213391D01*
X143856305Y-115213391D01*
X144026790Y-115240393D01*
G37*
G36*
X146566790Y-115240393D02*
G01*
X146730952Y-115293733D01*
X146884748Y-115372096D01*
X147024393Y-115473553D01*
X147146447Y-115595607D01*
X147247904Y-115735252D01*
X147326267Y-115889048D01*
X147379607Y-116053210D01*
X147406609Y-116223695D01*
X147406609Y-116396305D01*
X147379607Y-116566790D01*
X147326267Y-116730952D01*
X147247904Y-116884748D01*
X147146447Y-117024393D01*
X147024393Y-117146447D01*
X146884748Y-117247904D01*
X146730952Y-117326267D01*
X146566790Y-117379607D01*
X146396305Y-117406609D01*
X146223695Y-117406609D01*
X146053210Y-117379607D01*
X145889048Y-117326267D01*
X145735252Y-117247904D01*
X145595607Y-117146447D01*
X145473553Y-117024393D01*
X145372096Y-116884748D01*
X145293733Y-116730952D01*
X145240393Y-116566790D01*
X145213391Y-116396305D01*
X145213391Y-116223695D01*
X145240393Y-116053210D01*
X145293733Y-115889048D01*
X145372096Y-115735252D01*
X145473553Y-115595607D01*
X145595607Y-115473553D01*
X145735252Y-115372096D01*
X145889048Y-115293733D01*
X146053210Y-115240393D01*
X146223695Y-115213391D01*
X146396305Y-115213391D01*
X146566790Y-115240393D01*
G37*
G36*
X149106790Y-115240393D02*
G01*
X149270952Y-115293733D01*
X149424748Y-115372096D01*
X149564393Y-115473553D01*
X149686447Y-115595607D01*
X149787904Y-115735252D01*
X149866267Y-115889048D01*
X149919607Y-116053210D01*
X149946609Y-116223695D01*
X149946609Y-116396305D01*
X149919607Y-116566790D01*
X149866267Y-116730952D01*
X149787904Y-116884748D01*
X149686447Y-117024393D01*
X149564393Y-117146447D01*
X149424748Y-117247904D01*
X149270952Y-117326267D01*
X149106790Y-117379607D01*
X148936305Y-117406609D01*
X148763695Y-117406609D01*
X148593210Y-117379607D01*
X148429048Y-117326267D01*
X148275252Y-117247904D01*
X148135607Y-117146447D01*
X148013553Y-117024393D01*
X147912096Y-116884748D01*
X147833733Y-116730952D01*
X147780393Y-116566790D01*
X147753391Y-116396305D01*
X147753391Y-116223695D01*
X147780393Y-116053210D01*
X147833733Y-115889048D01*
X147912096Y-115735252D01*
X148013553Y-115595607D01*
X148135607Y-115473553D01*
X148275252Y-115372096D01*
X148429048Y-115293733D01*
X148593210Y-115240393D01*
X148763695Y-115213391D01*
X148936305Y-115213391D01*
X149106790Y-115240393D01*
G37*
G36*
X151646790Y-115240393D02*
G01*
X151810952Y-115293733D01*
X151964748Y-115372096D01*
X152104393Y-115473553D01*
X152226447Y-115595607D01*
X152327904Y-115735252D01*
X152406267Y-115889048D01*
X152459607Y-116053210D01*
X152486609Y-116223695D01*
X152486609Y-116396305D01*
X152459607Y-116566790D01*
X152406267Y-116730952D01*
X152327904Y-116884748D01*
X152226447Y-117024393D01*
X152104393Y-117146447D01*
X151964748Y-117247904D01*
X151810952Y-117326267D01*
X151646790Y-117379607D01*
X151476305Y-117406609D01*
X151303695Y-117406609D01*
X151133210Y-117379607D01*
X150969048Y-117326267D01*
X150815252Y-117247904D01*
X150675607Y-117146447D01*
X150553553Y-117024393D01*
X150452096Y-116884748D01*
X150373733Y-116730952D01*
X150320393Y-116566790D01*
X150293391Y-116396305D01*
X150293391Y-116223695D01*
X150320393Y-116053210D01*
X150373733Y-115889048D01*
X150452096Y-115735252D01*
X150553553Y-115595607D01*
X150675607Y-115473553D01*
X150815252Y-115372096D01*
X150969048Y-115293733D01*
X151133210Y-115240393D01*
X151303695Y-115213391D01*
X151476305Y-115213391D01*
X151646790Y-115240393D01*
G37*
G36*
X154186790Y-115240393D02*
G01*
X154350952Y-115293733D01*
X154504748Y-115372096D01*
X154644393Y-115473553D01*
X154766447Y-115595607D01*
X154867904Y-115735252D01*
X154946267Y-115889048D01*
X154999607Y-116053210D01*
X155026609Y-116223695D01*
X155026609Y-116396305D01*
X154999607Y-116566790D01*
X154946267Y-116730952D01*
X154867904Y-116884748D01*
X154766447Y-117024393D01*
X154644393Y-117146447D01*
X154504748Y-117247904D01*
X154350952Y-117326267D01*
X154186790Y-117379607D01*
X154016305Y-117406609D01*
X153843695Y-117406609D01*
X153673210Y-117379607D01*
X153509048Y-117326267D01*
X153355252Y-117247904D01*
X153215607Y-117146447D01*
X153093553Y-117024393D01*
X152992096Y-116884748D01*
X152913733Y-116730952D01*
X152860393Y-116566790D01*
X152833391Y-116396305D01*
X152833391Y-116223695D01*
X152860393Y-116053210D01*
X152913733Y-115889048D01*
X152992096Y-115735252D01*
X153093553Y-115595607D01*
X153215607Y-115473553D01*
X153355252Y-115372096D01*
X153509048Y-115293733D01*
X153673210Y-115240393D01*
X153843695Y-115213391D01*
X154016305Y-115213391D01*
X154186790Y-115240393D01*
G37*
G36*
X156726790Y-115240393D02*
G01*
X156890952Y-115293733D01*
X157044748Y-115372096D01*
X157184393Y-115473553D01*
X157306447Y-115595607D01*
X157407904Y-115735252D01*
X157486267Y-115889048D01*
X157539607Y-116053210D01*
X157566609Y-116223695D01*
X157566609Y-116396305D01*
X157539607Y-116566790D01*
X157486267Y-116730952D01*
X157407904Y-116884748D01*
X157306447Y-117024393D01*
X157184393Y-117146447D01*
X157044748Y-117247904D01*
X156890952Y-117326267D01*
X156726790Y-117379607D01*
X156556305Y-117406609D01*
X156383695Y-117406609D01*
X156213210Y-117379607D01*
X156049048Y-117326267D01*
X155895252Y-117247904D01*
X155755607Y-117146447D01*
X155633553Y-117024393D01*
X155532096Y-116884748D01*
X155453733Y-116730952D01*
X155400393Y-116566790D01*
X155373391Y-116396305D01*
X155373391Y-116223695D01*
X155400393Y-116053210D01*
X155453733Y-115889048D01*
X155532096Y-115735252D01*
X155633553Y-115595607D01*
X155755607Y-115473553D01*
X155895252Y-115372096D01*
X156049048Y-115293733D01*
X156213210Y-115240393D01*
X156383695Y-115213391D01*
X156556305Y-115213391D01*
X156726790Y-115240393D01*
G37*
G36*
X159266790Y-115240393D02*
G01*
X159430952Y-115293733D01*
X159584748Y-115372096D01*
X159724393Y-115473553D01*
X159846447Y-115595607D01*
X159947904Y-115735252D01*
X160026267Y-115889048D01*
X160079607Y-116053210D01*
X160106609Y-116223695D01*
X160106609Y-116396305D01*
X160079607Y-116566790D01*
X160026267Y-116730952D01*
X159947904Y-116884748D01*
X159846447Y-117024393D01*
X159724393Y-117146447D01*
X159584748Y-117247904D01*
X159430952Y-117326267D01*
X159266790Y-117379607D01*
X159096305Y-117406609D01*
X158923695Y-117406609D01*
X158753210Y-117379607D01*
X158589048Y-117326267D01*
X158435252Y-117247904D01*
X158295607Y-117146447D01*
X158173553Y-117024393D01*
X158072096Y-116884748D01*
X157993733Y-116730952D01*
X157940393Y-116566790D01*
X157913391Y-116396305D01*
X157913391Y-116223695D01*
X157940393Y-116053210D01*
X157993733Y-115889048D01*
X158072096Y-115735252D01*
X158173553Y-115595607D01*
X158295607Y-115473553D01*
X158435252Y-115372096D01*
X158589048Y-115293733D01*
X158753210Y-115240393D01*
X158923695Y-115213391D01*
X159096305Y-115213391D01*
X159266790Y-115240393D01*
G37*
G36*
X161806790Y-115240393D02*
G01*
X161970952Y-115293733D01*
X162124748Y-115372096D01*
X162264393Y-115473553D01*
X162386447Y-115595607D01*
X162487904Y-115735252D01*
X162566267Y-115889048D01*
X162619607Y-116053210D01*
X162646609Y-116223695D01*
X162646609Y-116396305D01*
X162619607Y-116566790D01*
X162566267Y-116730952D01*
X162487904Y-116884748D01*
X162386447Y-117024393D01*
X162264393Y-117146447D01*
X162124748Y-117247904D01*
X161970952Y-117326267D01*
X161806790Y-117379607D01*
X161636305Y-117406609D01*
X161463695Y-117406609D01*
X161293210Y-117379607D01*
X161129048Y-117326267D01*
X160975252Y-117247904D01*
X160835607Y-117146447D01*
X160713553Y-117024393D01*
X160612096Y-116884748D01*
X160533733Y-116730952D01*
X160480393Y-116566790D01*
X160453391Y-116396305D01*
X160453391Y-116223695D01*
X160480393Y-116053210D01*
X160533733Y-115889048D01*
X160612096Y-115735252D01*
X160713553Y-115595607D01*
X160835607Y-115473553D01*
X160975252Y-115372096D01*
X161129048Y-115293733D01*
X161293210Y-115240393D01*
X161463695Y-115213391D01*
X161636305Y-115213391D01*
X161806790Y-115240393D01*
G37*
G36*
X164346790Y-115240393D02*
G01*
X164510952Y-115293733D01*
X164664748Y-115372096D01*
X164804393Y-115473553D01*
X164926447Y-115595607D01*
X165027904Y-115735252D01*
X165106267Y-115889048D01*
X165159607Y-116053210D01*
X165186609Y-116223695D01*
X165186609Y-116396305D01*
X165159607Y-116566790D01*
X165106267Y-116730952D01*
X165027904Y-116884748D01*
X164926447Y-117024393D01*
X164804393Y-117146447D01*
X164664748Y-117247904D01*
X164510952Y-117326267D01*
X164346790Y-117379607D01*
X164176305Y-117406609D01*
X164003695Y-117406609D01*
X163833210Y-117379607D01*
X163669048Y-117326267D01*
X163515252Y-117247904D01*
X163375607Y-117146447D01*
X163253553Y-117024393D01*
X163152096Y-116884748D01*
X163073733Y-116730952D01*
X163020393Y-116566790D01*
X162993391Y-116396305D01*
X162993391Y-116223695D01*
X163020393Y-116053210D01*
X163073733Y-115889048D01*
X163152096Y-115735252D01*
X163253553Y-115595607D01*
X163375607Y-115473553D01*
X163515252Y-115372096D01*
X163669048Y-115293733D01*
X163833210Y-115240393D01*
X164003695Y-115213391D01*
X164176305Y-115213391D01*
X164346790Y-115240393D01*
G37*
G36*
X166886790Y-115240393D02*
G01*
X167050952Y-115293733D01*
X167204748Y-115372096D01*
X167344393Y-115473553D01*
X167466447Y-115595607D01*
X167567904Y-115735252D01*
X167646267Y-115889048D01*
X167699607Y-116053210D01*
X167726609Y-116223695D01*
X167726609Y-116396305D01*
X167699607Y-116566790D01*
X167646267Y-116730952D01*
X167567904Y-116884748D01*
X167466447Y-117024393D01*
X167344393Y-117146447D01*
X167204748Y-117247904D01*
X167050952Y-117326267D01*
X166886790Y-117379607D01*
X166716305Y-117406609D01*
X166543695Y-117406609D01*
X166373210Y-117379607D01*
X166209048Y-117326267D01*
X166055252Y-117247904D01*
X165915607Y-117146447D01*
X165793553Y-117024393D01*
X165692096Y-116884748D01*
X165613733Y-116730952D01*
X165560393Y-116566790D01*
X165533391Y-116396305D01*
X165533391Y-116223695D01*
X165560393Y-116053210D01*
X165613733Y-115889048D01*
X165692096Y-115735252D01*
X165793553Y-115595607D01*
X165915607Y-115473553D01*
X166055252Y-115372096D01*
X166209048Y-115293733D01*
X166373210Y-115240393D01*
X166543695Y-115213391D01*
X166716305Y-115213391D01*
X166886790Y-115240393D01*
G37*
G36*
X169426790Y-115240393D02*
G01*
X169590952Y-115293733D01*
X169744748Y-115372096D01*
X169884393Y-115473553D01*
X170006447Y-115595607D01*
X170107904Y-115735252D01*
X170186267Y-115889048D01*
X170239607Y-116053210D01*
X170266609Y-116223695D01*
X170266609Y-116396305D01*
X170239607Y-116566790D01*
X170186267Y-116730952D01*
X170107904Y-116884748D01*
X170006447Y-117024393D01*
X169884393Y-117146447D01*
X169744748Y-117247904D01*
X169590952Y-117326267D01*
X169426790Y-117379607D01*
X169256305Y-117406609D01*
X169083695Y-117406609D01*
X168913210Y-117379607D01*
X168749048Y-117326267D01*
X168595252Y-117247904D01*
X168455607Y-117146447D01*
X168333553Y-117024393D01*
X168232096Y-116884748D01*
X168153733Y-116730952D01*
X168100393Y-116566790D01*
X168073391Y-116396305D01*
X168073391Y-116223695D01*
X168100393Y-116053210D01*
X168153733Y-115889048D01*
X168232096Y-115735252D01*
X168333553Y-115595607D01*
X168455607Y-115473553D01*
X168595252Y-115372096D01*
X168749048Y-115293733D01*
X168913210Y-115240393D01*
X169083695Y-115213391D01*
X169256305Y-115213391D01*
X169426790Y-115240393D01*
G37*
G36*
X171966790Y-115240393D02*
G01*
X172130952Y-115293733D01*
X172284748Y-115372096D01*
X172424393Y-115473553D01*
X172546447Y-115595607D01*
X172647904Y-115735252D01*
X172726267Y-115889048D01*
X172779607Y-116053210D01*
X172806609Y-116223695D01*
X172806609Y-116396305D01*
X172779607Y-116566790D01*
X172726267Y-116730952D01*
X172647904Y-116884748D01*
X172546447Y-117024393D01*
X172424393Y-117146447D01*
X172284748Y-117247904D01*
X172130952Y-117326267D01*
X171966790Y-117379607D01*
X171796305Y-117406609D01*
X171623695Y-117406609D01*
X171453210Y-117379607D01*
X171289048Y-117326267D01*
X171135252Y-117247904D01*
X170995607Y-117146447D01*
X170873553Y-117024393D01*
X170772096Y-116884748D01*
X170693733Y-116730952D01*
X170640393Y-116566790D01*
X170613391Y-116396305D01*
X170613391Y-116223695D01*
X170640393Y-116053210D01*
X170693733Y-115889048D01*
X170772096Y-115735252D01*
X170873553Y-115595607D01*
X170995607Y-115473553D01*
X171135252Y-115372096D01*
X171289048Y-115293733D01*
X171453210Y-115240393D01*
X171623695Y-115213391D01*
X171796305Y-115213391D01*
X171966790Y-115240393D01*
G37*
G36*
X174506790Y-115240393D02*
G01*
X174670952Y-115293733D01*
X174824748Y-115372096D01*
X174964393Y-115473553D01*
X175086447Y-115595607D01*
X175187904Y-115735252D01*
X175266267Y-115889048D01*
X175319607Y-116053210D01*
X175346609Y-116223695D01*
X175346609Y-116396305D01*
X175319607Y-116566790D01*
X175266267Y-116730952D01*
X175187904Y-116884748D01*
X175086447Y-117024393D01*
X174964393Y-117146447D01*
X174824748Y-117247904D01*
X174670952Y-117326267D01*
X174506790Y-117379607D01*
X174336305Y-117406609D01*
X174163695Y-117406609D01*
X173993210Y-117379607D01*
X173829048Y-117326267D01*
X173675252Y-117247904D01*
X173535607Y-117146447D01*
X173413553Y-117024393D01*
X173312096Y-116884748D01*
X173233733Y-116730952D01*
X173180393Y-116566790D01*
X173153391Y-116396305D01*
X173153391Y-116223695D01*
X173180393Y-116053210D01*
X173233733Y-115889048D01*
X173312096Y-115735252D01*
X173413553Y-115595607D01*
X173535607Y-115473553D01*
X173675252Y-115372096D01*
X173829048Y-115293733D01*
X173993210Y-115240393D01*
X174163695Y-115213391D01*
X174336305Y-115213391D01*
X174506790Y-115240393D01*
G37*
G36*
X177046790Y-115240393D02*
G01*
X177210952Y-115293733D01*
X177364748Y-115372096D01*
X177504393Y-115473553D01*
X177626447Y-115595607D01*
X177727904Y-115735252D01*
X177806267Y-115889048D01*
X177859607Y-116053210D01*
X177886609Y-116223695D01*
X177886609Y-116396305D01*
X177859607Y-116566790D01*
X177806267Y-116730952D01*
X177727904Y-116884748D01*
X177626447Y-117024393D01*
X177504393Y-117146447D01*
X177364748Y-117247904D01*
X177210952Y-117326267D01*
X177046790Y-117379607D01*
X176876305Y-117406609D01*
X176703695Y-117406609D01*
X176533210Y-117379607D01*
X176369048Y-117326267D01*
X176215252Y-117247904D01*
X176075607Y-117146447D01*
X175953553Y-117024393D01*
X175852096Y-116884748D01*
X175773733Y-116730952D01*
X175720393Y-116566790D01*
X175693391Y-116396305D01*
X175693391Y-116223695D01*
X175720393Y-116053210D01*
X175773733Y-115889048D01*
X175852096Y-115735252D01*
X175953553Y-115595607D01*
X176075607Y-115473553D01*
X176215252Y-115372096D01*
X176369048Y-115293733D01*
X176533210Y-115240393D01*
X176703695Y-115213391D01*
X176876305Y-115213391D01*
X177046790Y-115240393D01*
G37*
G36*
X179586790Y-115240393D02*
G01*
X179750952Y-115293733D01*
X179904748Y-115372096D01*
X180044393Y-115473553D01*
X180166447Y-115595607D01*
X180267904Y-115735252D01*
X180346267Y-115889048D01*
X180399607Y-116053210D01*
X180426609Y-116223695D01*
X180426609Y-116396305D01*
X180399607Y-116566790D01*
X180346267Y-116730952D01*
X180267904Y-116884748D01*
X180166447Y-117024393D01*
X180044393Y-117146447D01*
X179904748Y-117247904D01*
X179750952Y-117326267D01*
X179586790Y-117379607D01*
X179416305Y-117406609D01*
X179243695Y-117406609D01*
X179073210Y-117379607D01*
X178909048Y-117326267D01*
X178755252Y-117247904D01*
X178615607Y-117146447D01*
X178493553Y-117024393D01*
X178392096Y-116884748D01*
X178313733Y-116730952D01*
X178260393Y-116566790D01*
X178233391Y-116396305D01*
X178233391Y-116223695D01*
X178260393Y-116053210D01*
X178313733Y-115889048D01*
X178392096Y-115735252D01*
X178493553Y-115595607D01*
X178615607Y-115473553D01*
X178755252Y-115372096D01*
X178909048Y-115293733D01*
X179073210Y-115240393D01*
X179243695Y-115213391D01*
X179416305Y-115213391D01*
X179586790Y-115240393D01*
G37*
G36*
X182126790Y-115240393D02*
G01*
X182290952Y-115293733D01*
X182444748Y-115372096D01*
X182584393Y-115473553D01*
X182706447Y-115595607D01*
X182807904Y-115735252D01*
X182886267Y-115889048D01*
X182939607Y-116053210D01*
X182966609Y-116223695D01*
X182966609Y-116396305D01*
X182939607Y-116566790D01*
X182886267Y-116730952D01*
X182807904Y-116884748D01*
X182706447Y-117024393D01*
X182584393Y-117146447D01*
X182444748Y-117247904D01*
X182290952Y-117326267D01*
X182126790Y-117379607D01*
X181956305Y-117406609D01*
X181783695Y-117406609D01*
X181613210Y-117379607D01*
X181449048Y-117326267D01*
X181295252Y-117247904D01*
X181155607Y-117146447D01*
X181033553Y-117024393D01*
X180932096Y-116884748D01*
X180853733Y-116730952D01*
X180800393Y-116566790D01*
X180773391Y-116396305D01*
X180773391Y-116223695D01*
X180800393Y-116053210D01*
X180853733Y-115889048D01*
X180932096Y-115735252D01*
X181033553Y-115595607D01*
X181155607Y-115473553D01*
X181295252Y-115372096D01*
X181449048Y-115293733D01*
X181613210Y-115240393D01*
X181783695Y-115213391D01*
X181956305Y-115213391D01*
X182126790Y-115240393D01*
G37*
G36*
X184666790Y-115240393D02*
G01*
X184830952Y-115293733D01*
X184984748Y-115372096D01*
X185124393Y-115473553D01*
X185246447Y-115595607D01*
X185347904Y-115735252D01*
X185426267Y-115889048D01*
X185479607Y-116053210D01*
X185506609Y-116223695D01*
X185506609Y-116396305D01*
X185479607Y-116566790D01*
X185426267Y-116730952D01*
X185347904Y-116884748D01*
X185246447Y-117024393D01*
X185124393Y-117146447D01*
X184984748Y-117247904D01*
X184830952Y-117326267D01*
X184666790Y-117379607D01*
X184496305Y-117406609D01*
X184323695Y-117406609D01*
X184153210Y-117379607D01*
X183989048Y-117326267D01*
X183835252Y-117247904D01*
X183695607Y-117146447D01*
X183573553Y-117024393D01*
X183472096Y-116884748D01*
X183393733Y-116730952D01*
X183340393Y-116566790D01*
X183313391Y-116396305D01*
X183313391Y-116223695D01*
X183340393Y-116053210D01*
X183393733Y-115889048D01*
X183472096Y-115735252D01*
X183573553Y-115595607D01*
X183695607Y-115473553D01*
X183835252Y-115372096D01*
X183989048Y-115293733D01*
X184153210Y-115240393D01*
X184323695Y-115213391D01*
X184496305Y-115213391D01*
X184666790Y-115240393D01*
G37*
G36*
X187206790Y-115240393D02*
G01*
X187370952Y-115293733D01*
X187524748Y-115372096D01*
X187664393Y-115473553D01*
X187786447Y-115595607D01*
X187887904Y-115735252D01*
X187966267Y-115889048D01*
X188019607Y-116053210D01*
X188046609Y-116223695D01*
X188046609Y-116396305D01*
X188019607Y-116566790D01*
X187966267Y-116730952D01*
X187887904Y-116884748D01*
X187786447Y-117024393D01*
X187664393Y-117146447D01*
X187524748Y-117247904D01*
X187370952Y-117326267D01*
X187206790Y-117379607D01*
X187036305Y-117406609D01*
X186863695Y-117406609D01*
X186693210Y-117379607D01*
X186529048Y-117326267D01*
X186375252Y-117247904D01*
X186235607Y-117146447D01*
X186113553Y-117024393D01*
X186012096Y-116884748D01*
X185933733Y-116730952D01*
X185880393Y-116566790D01*
X185853391Y-116396305D01*
X185853391Y-116223695D01*
X185880393Y-116053210D01*
X185933733Y-115889048D01*
X186012096Y-115735252D01*
X186113553Y-115595607D01*
X186235607Y-115473553D01*
X186375252Y-115372096D01*
X186529048Y-115293733D01*
X186693210Y-115240393D01*
X186863695Y-115213391D01*
X187036305Y-115213391D01*
X187206790Y-115240393D01*
G37*
G36*
X189746790Y-115240393D02*
G01*
X189910952Y-115293733D01*
X190064748Y-115372096D01*
X190204393Y-115473553D01*
X190326447Y-115595607D01*
X190427904Y-115735252D01*
X190506267Y-115889048D01*
X190559607Y-116053210D01*
X190586609Y-116223695D01*
X190586609Y-116396305D01*
X190559607Y-116566790D01*
X190506267Y-116730952D01*
X190427904Y-116884748D01*
X190326447Y-117024393D01*
X190204393Y-117146447D01*
X190064748Y-117247904D01*
X189910952Y-117326267D01*
X189746790Y-117379607D01*
X189576305Y-117406609D01*
X189403695Y-117406609D01*
X189233210Y-117379607D01*
X189069048Y-117326267D01*
X188915252Y-117247904D01*
X188775607Y-117146447D01*
X188653553Y-117024393D01*
X188552096Y-116884748D01*
X188473733Y-116730952D01*
X188420393Y-116566790D01*
X188393391Y-116396305D01*
X188393391Y-116223695D01*
X188420393Y-116053210D01*
X188473733Y-115889048D01*
X188552096Y-115735252D01*
X188653553Y-115595607D01*
X188775607Y-115473553D01*
X188915252Y-115372096D01*
X189069048Y-115293733D01*
X189233210Y-115240393D01*
X189403695Y-115213391D01*
X189576305Y-115213391D01*
X189746790Y-115240393D01*
G37*
G36*
X192286790Y-115240393D02*
G01*
X192450952Y-115293733D01*
X192604748Y-115372096D01*
X192744393Y-115473553D01*
X192866447Y-115595607D01*
X192967904Y-115735252D01*
X193046267Y-115889048D01*
X193099607Y-116053210D01*
X193126609Y-116223695D01*
X193126609Y-116396305D01*
X193099607Y-116566790D01*
X193046267Y-116730952D01*
X192967904Y-116884748D01*
X192866447Y-117024393D01*
X192744393Y-117146447D01*
X192604748Y-117247904D01*
X192450952Y-117326267D01*
X192286790Y-117379607D01*
X192116305Y-117406609D01*
X191943695Y-117406609D01*
X191773210Y-117379607D01*
X191609048Y-117326267D01*
X191455252Y-117247904D01*
X191315607Y-117146447D01*
X191193553Y-117024393D01*
X191092096Y-116884748D01*
X191013733Y-116730952D01*
X190960393Y-116566790D01*
X190933391Y-116396305D01*
X190933391Y-116223695D01*
X190960393Y-116053210D01*
X191013733Y-115889048D01*
X191092096Y-115735252D01*
X191193553Y-115595607D01*
X191315607Y-115473553D01*
X191455252Y-115372096D01*
X191609048Y-115293733D01*
X191773210Y-115240393D01*
X191943695Y-115213391D01*
X192116305Y-115213391D01*
X192286790Y-115240393D01*
G37*
G36*
X123706790Y-112700393D02*
G01*
X123870952Y-112753733D01*
X124024748Y-112832096D01*
X124164393Y-112933553D01*
X124286447Y-113055607D01*
X124387904Y-113195252D01*
X124466267Y-113349048D01*
X124519607Y-113513210D01*
X124546609Y-113683695D01*
X124546609Y-113856305D01*
X124519607Y-114026790D01*
X124466267Y-114190952D01*
X124387904Y-114344748D01*
X124286447Y-114484393D01*
X124164393Y-114606447D01*
X124024748Y-114707904D01*
X123870952Y-114786267D01*
X123706790Y-114839607D01*
X123536305Y-114866609D01*
X123363695Y-114866609D01*
X123193210Y-114839607D01*
X123029048Y-114786267D01*
X122875252Y-114707904D01*
X122735607Y-114606447D01*
X122613553Y-114484393D01*
X122512096Y-114344748D01*
X122433733Y-114190952D01*
X122380393Y-114026790D01*
X122353391Y-113856305D01*
X122353391Y-113683695D01*
X122380393Y-113513210D01*
X122433733Y-113349048D01*
X122512096Y-113195252D01*
X122613553Y-113055607D01*
X122735607Y-112933553D01*
X122875252Y-112832096D01*
X123029048Y-112753733D01*
X123193210Y-112700393D01*
X123363695Y-112673391D01*
X123536305Y-112673391D01*
X123706790Y-112700393D01*
G37*
G36*
X126246790Y-112700393D02*
G01*
X126410952Y-112753733D01*
X126564748Y-112832096D01*
X126704393Y-112933553D01*
X126826447Y-113055607D01*
X126927904Y-113195252D01*
X127006267Y-113349048D01*
X127059607Y-113513210D01*
X127086609Y-113683695D01*
X127086609Y-113856305D01*
X127059607Y-114026790D01*
X127006267Y-114190952D01*
X126927904Y-114344748D01*
X126826447Y-114484393D01*
X126704393Y-114606447D01*
X126564748Y-114707904D01*
X126410952Y-114786267D01*
X126246790Y-114839607D01*
X126076305Y-114866609D01*
X125903695Y-114866609D01*
X125733210Y-114839607D01*
X125569048Y-114786267D01*
X125415252Y-114707904D01*
X125275607Y-114606447D01*
X125153553Y-114484393D01*
X125052096Y-114344748D01*
X124973733Y-114190952D01*
X124920393Y-114026790D01*
X124893391Y-113856305D01*
X124893391Y-113683695D01*
X124920393Y-113513210D01*
X124973733Y-113349048D01*
X125052096Y-113195252D01*
X125153553Y-113055607D01*
X125275607Y-112933553D01*
X125415252Y-112832096D01*
X125569048Y-112753733D01*
X125733210Y-112700393D01*
X125903695Y-112673391D01*
X126076305Y-112673391D01*
X126246790Y-112700393D01*
G37*
G36*
X128786790Y-112700393D02*
G01*
X128950952Y-112753733D01*
X129104748Y-112832096D01*
X129244393Y-112933553D01*
X129366447Y-113055607D01*
X129467904Y-113195252D01*
X129546267Y-113349048D01*
X129599607Y-113513210D01*
X129626609Y-113683695D01*
X129626609Y-113856305D01*
X129599607Y-114026790D01*
X129546267Y-114190952D01*
X129467904Y-114344748D01*
X129366447Y-114484393D01*
X129244393Y-114606447D01*
X129104748Y-114707904D01*
X128950952Y-114786267D01*
X128786790Y-114839607D01*
X128616305Y-114866609D01*
X128443695Y-114866609D01*
X128273210Y-114839607D01*
X128109048Y-114786267D01*
X127955252Y-114707904D01*
X127815607Y-114606447D01*
X127693553Y-114484393D01*
X127592096Y-114344748D01*
X127513733Y-114190952D01*
X127460393Y-114026790D01*
X127433391Y-113856305D01*
X127433391Y-113683695D01*
X127460393Y-113513210D01*
X127513733Y-113349048D01*
X127592096Y-113195252D01*
X127693553Y-113055607D01*
X127815607Y-112933553D01*
X127955252Y-112832096D01*
X128109048Y-112753733D01*
X128273210Y-112700393D01*
X128443695Y-112673391D01*
X128616305Y-112673391D01*
X128786790Y-112700393D01*
G37*
G36*
X131326790Y-112700393D02*
G01*
X131490952Y-112753733D01*
X131644748Y-112832096D01*
X131784393Y-112933553D01*
X131906447Y-113055607D01*
X132007904Y-113195252D01*
X132086267Y-113349048D01*
X132139607Y-113513210D01*
X132166609Y-113683695D01*
X132166609Y-113856305D01*
X132139607Y-114026790D01*
X132086267Y-114190952D01*
X132007904Y-114344748D01*
X131906447Y-114484393D01*
X131784393Y-114606447D01*
X131644748Y-114707904D01*
X131490952Y-114786267D01*
X131326790Y-114839607D01*
X131156305Y-114866609D01*
X130983695Y-114866609D01*
X130813210Y-114839607D01*
X130649048Y-114786267D01*
X130495252Y-114707904D01*
X130355607Y-114606447D01*
X130233553Y-114484393D01*
X130132096Y-114344748D01*
X130053733Y-114190952D01*
X130000393Y-114026790D01*
X129973391Y-113856305D01*
X129973391Y-113683695D01*
X130000393Y-113513210D01*
X130053733Y-113349048D01*
X130132096Y-113195252D01*
X130233553Y-113055607D01*
X130355607Y-112933553D01*
X130495252Y-112832096D01*
X130649048Y-112753733D01*
X130813210Y-112700393D01*
X130983695Y-112673391D01*
X131156305Y-112673391D01*
X131326790Y-112700393D01*
G37*
G36*
X133866790Y-112700393D02*
G01*
X134030952Y-112753733D01*
X134184748Y-112832096D01*
X134324393Y-112933553D01*
X134446447Y-113055607D01*
X134547904Y-113195252D01*
X134626267Y-113349048D01*
X134679607Y-113513210D01*
X134706609Y-113683695D01*
X134706609Y-113856305D01*
X134679607Y-114026790D01*
X134626267Y-114190952D01*
X134547904Y-114344748D01*
X134446447Y-114484393D01*
X134324393Y-114606447D01*
X134184748Y-114707904D01*
X134030952Y-114786267D01*
X133866790Y-114839607D01*
X133696305Y-114866609D01*
X133523695Y-114866609D01*
X133353210Y-114839607D01*
X133189048Y-114786267D01*
X133035252Y-114707904D01*
X132895607Y-114606447D01*
X132773553Y-114484393D01*
X132672096Y-114344748D01*
X132593733Y-114190952D01*
X132540393Y-114026790D01*
X132513391Y-113856305D01*
X132513391Y-113683695D01*
X132540393Y-113513210D01*
X132593733Y-113349048D01*
X132672096Y-113195252D01*
X132773553Y-113055607D01*
X132895607Y-112933553D01*
X133035252Y-112832096D01*
X133189048Y-112753733D01*
X133353210Y-112700393D01*
X133523695Y-112673391D01*
X133696305Y-112673391D01*
X133866790Y-112700393D01*
G37*
G36*
X136406790Y-112700393D02*
G01*
X136570952Y-112753733D01*
X136724748Y-112832096D01*
X136864393Y-112933553D01*
X136986447Y-113055607D01*
X137087904Y-113195252D01*
X137166267Y-113349048D01*
X137219607Y-113513210D01*
X137246609Y-113683695D01*
X137246609Y-113856305D01*
X137219607Y-114026790D01*
X137166267Y-114190952D01*
X137087904Y-114344748D01*
X136986447Y-114484393D01*
X136864393Y-114606447D01*
X136724748Y-114707904D01*
X136570952Y-114786267D01*
X136406790Y-114839607D01*
X136236305Y-114866609D01*
X136063695Y-114866609D01*
X135893210Y-114839607D01*
X135729048Y-114786267D01*
X135575252Y-114707904D01*
X135435607Y-114606447D01*
X135313553Y-114484393D01*
X135212096Y-114344748D01*
X135133733Y-114190952D01*
X135080393Y-114026790D01*
X135053391Y-113856305D01*
X135053391Y-113683695D01*
X135080393Y-113513210D01*
X135133733Y-113349048D01*
X135212096Y-113195252D01*
X135313553Y-113055607D01*
X135435607Y-112933553D01*
X135575252Y-112832096D01*
X135729048Y-112753733D01*
X135893210Y-112700393D01*
X136063695Y-112673391D01*
X136236305Y-112673391D01*
X136406790Y-112700393D01*
G37*
G36*
X138946790Y-112700393D02*
G01*
X139110952Y-112753733D01*
X139264748Y-112832096D01*
X139404393Y-112933553D01*
X139526447Y-113055607D01*
X139627904Y-113195252D01*
X139706267Y-113349048D01*
X139759607Y-113513210D01*
X139786609Y-113683695D01*
X139786609Y-113856305D01*
X139759607Y-114026790D01*
X139706267Y-114190952D01*
X139627904Y-114344748D01*
X139526447Y-114484393D01*
X139404393Y-114606447D01*
X139264748Y-114707904D01*
X139110952Y-114786267D01*
X138946790Y-114839607D01*
X138776305Y-114866609D01*
X138603695Y-114866609D01*
X138433210Y-114839607D01*
X138269048Y-114786267D01*
X138115252Y-114707904D01*
X137975607Y-114606447D01*
X137853553Y-114484393D01*
X137752096Y-114344748D01*
X137673733Y-114190952D01*
X137620393Y-114026790D01*
X137593391Y-113856305D01*
X137593391Y-113683695D01*
X137620393Y-113513210D01*
X137673733Y-113349048D01*
X137752096Y-113195252D01*
X137853553Y-113055607D01*
X137975607Y-112933553D01*
X138115252Y-112832096D01*
X138269048Y-112753733D01*
X138433210Y-112700393D01*
X138603695Y-112673391D01*
X138776305Y-112673391D01*
X138946790Y-112700393D01*
G37*
G36*
X141486790Y-112700393D02*
G01*
X141650952Y-112753733D01*
X141804748Y-112832096D01*
X141944393Y-112933553D01*
X142066447Y-113055607D01*
X142167904Y-113195252D01*
X142246267Y-113349048D01*
X142299607Y-113513210D01*
X142326609Y-113683695D01*
X142326609Y-113856305D01*
X142299607Y-114026790D01*
X142246267Y-114190952D01*
X142167904Y-114344748D01*
X142066447Y-114484393D01*
X141944393Y-114606447D01*
X141804748Y-114707904D01*
X141650952Y-114786267D01*
X141486790Y-114839607D01*
X141316305Y-114866609D01*
X141143695Y-114866609D01*
X140973210Y-114839607D01*
X140809048Y-114786267D01*
X140655252Y-114707904D01*
X140515607Y-114606447D01*
X140393553Y-114484393D01*
X140292096Y-114344748D01*
X140213733Y-114190952D01*
X140160393Y-114026790D01*
X140133391Y-113856305D01*
X140133391Y-113683695D01*
X140160393Y-113513210D01*
X140213733Y-113349048D01*
X140292096Y-113195252D01*
X140393553Y-113055607D01*
X140515607Y-112933553D01*
X140655252Y-112832096D01*
X140809048Y-112753733D01*
X140973210Y-112700393D01*
X141143695Y-112673391D01*
X141316305Y-112673391D01*
X141486790Y-112700393D01*
G37*
G36*
X144026790Y-112700393D02*
G01*
X144190952Y-112753733D01*
X144344748Y-112832096D01*
X144484393Y-112933553D01*
X144606447Y-113055607D01*
X144707904Y-113195252D01*
X144786267Y-113349048D01*
X144839607Y-113513210D01*
X144866609Y-113683695D01*
X144866609Y-113856305D01*
X144839607Y-114026790D01*
X144786267Y-114190952D01*
X144707904Y-114344748D01*
X144606447Y-114484393D01*
X144484393Y-114606447D01*
X144344748Y-114707904D01*
X144190952Y-114786267D01*
X144026790Y-114839607D01*
X143856305Y-114866609D01*
X143683695Y-114866609D01*
X143513210Y-114839607D01*
X143349048Y-114786267D01*
X143195252Y-114707904D01*
X143055607Y-114606447D01*
X142933553Y-114484393D01*
X142832096Y-114344748D01*
X142753733Y-114190952D01*
X142700393Y-114026790D01*
X142673391Y-113856305D01*
X142673391Y-113683695D01*
X142700393Y-113513210D01*
X142753733Y-113349048D01*
X142832096Y-113195252D01*
X142933553Y-113055607D01*
X143055607Y-112933553D01*
X143195252Y-112832096D01*
X143349048Y-112753733D01*
X143513210Y-112700393D01*
X143683695Y-112673391D01*
X143856305Y-112673391D01*
X144026790Y-112700393D01*
G37*
G36*
X146566790Y-112700393D02*
G01*
X146730952Y-112753733D01*
X146884748Y-112832096D01*
X147024393Y-112933553D01*
X147146447Y-113055607D01*
X147247904Y-113195252D01*
X147326267Y-113349048D01*
X147379607Y-113513210D01*
X147406609Y-113683695D01*
X147406609Y-113856305D01*
X147379607Y-114026790D01*
X147326267Y-114190952D01*
X147247904Y-114344748D01*
X147146447Y-114484393D01*
X147024393Y-114606447D01*
X146884748Y-114707904D01*
X146730952Y-114786267D01*
X146566790Y-114839607D01*
X146396305Y-114866609D01*
X146223695Y-114866609D01*
X146053210Y-114839607D01*
X145889048Y-114786267D01*
X145735252Y-114707904D01*
X145595607Y-114606447D01*
X145473553Y-114484393D01*
X145372096Y-114344748D01*
X145293733Y-114190952D01*
X145240393Y-114026790D01*
X145213391Y-113856305D01*
X145213391Y-113683695D01*
X145240393Y-113513210D01*
X145293733Y-113349048D01*
X145372096Y-113195252D01*
X145473553Y-113055607D01*
X145595607Y-112933553D01*
X145735252Y-112832096D01*
X145889048Y-112753733D01*
X146053210Y-112700393D01*
X146223695Y-112673391D01*
X146396305Y-112673391D01*
X146566790Y-112700393D01*
G37*
G36*
X149106790Y-112700393D02*
G01*
X149270952Y-112753733D01*
X149424748Y-112832096D01*
X149564393Y-112933553D01*
X149686447Y-113055607D01*
X149787904Y-113195252D01*
X149866267Y-113349048D01*
X149919607Y-113513210D01*
X149946609Y-113683695D01*
X149946609Y-113856305D01*
X149919607Y-114026790D01*
X149866267Y-114190952D01*
X149787904Y-114344748D01*
X149686447Y-114484393D01*
X149564393Y-114606447D01*
X149424748Y-114707904D01*
X149270952Y-114786267D01*
X149106790Y-114839607D01*
X148936305Y-114866609D01*
X148763695Y-114866609D01*
X148593210Y-114839607D01*
X148429048Y-114786267D01*
X148275252Y-114707904D01*
X148135607Y-114606447D01*
X148013553Y-114484393D01*
X147912096Y-114344748D01*
X147833733Y-114190952D01*
X147780393Y-114026790D01*
X147753391Y-113856305D01*
X147753391Y-113683695D01*
X147780393Y-113513210D01*
X147833733Y-113349048D01*
X147912096Y-113195252D01*
X148013553Y-113055607D01*
X148135607Y-112933553D01*
X148275252Y-112832096D01*
X148429048Y-112753733D01*
X148593210Y-112700393D01*
X148763695Y-112673391D01*
X148936305Y-112673391D01*
X149106790Y-112700393D01*
G37*
G36*
X151646790Y-112700393D02*
G01*
X151810952Y-112753733D01*
X151964748Y-112832096D01*
X152104393Y-112933553D01*
X152226447Y-113055607D01*
X152327904Y-113195252D01*
X152406267Y-113349048D01*
X152459607Y-113513210D01*
X152486609Y-113683695D01*
X152486609Y-113856305D01*
X152459607Y-114026790D01*
X152406267Y-114190952D01*
X152327904Y-114344748D01*
X152226447Y-114484393D01*
X152104393Y-114606447D01*
X151964748Y-114707904D01*
X151810952Y-114786267D01*
X151646790Y-114839607D01*
X151476305Y-114866609D01*
X151303695Y-114866609D01*
X151133210Y-114839607D01*
X150969048Y-114786267D01*
X150815252Y-114707904D01*
X150675607Y-114606447D01*
X150553553Y-114484393D01*
X150452096Y-114344748D01*
X150373733Y-114190952D01*
X150320393Y-114026790D01*
X150293391Y-113856305D01*
X150293391Y-113683695D01*
X150320393Y-113513210D01*
X150373733Y-113349048D01*
X150452096Y-113195252D01*
X150553553Y-113055607D01*
X150675607Y-112933553D01*
X150815252Y-112832096D01*
X150969048Y-112753733D01*
X151133210Y-112700393D01*
X151303695Y-112673391D01*
X151476305Y-112673391D01*
X151646790Y-112700393D01*
G37*
G36*
X154186790Y-112700393D02*
G01*
X154350952Y-112753733D01*
X154504748Y-112832096D01*
X154644393Y-112933553D01*
X154766447Y-113055607D01*
X154867904Y-113195252D01*
X154946267Y-113349048D01*
X154999607Y-113513210D01*
X155026609Y-113683695D01*
X155026609Y-113856305D01*
X154999607Y-114026790D01*
X154946267Y-114190952D01*
X154867904Y-114344748D01*
X154766447Y-114484393D01*
X154644393Y-114606447D01*
X154504748Y-114707904D01*
X154350952Y-114786267D01*
X154186790Y-114839607D01*
X154016305Y-114866609D01*
X153843695Y-114866609D01*
X153673210Y-114839607D01*
X153509048Y-114786267D01*
X153355252Y-114707904D01*
X153215607Y-114606447D01*
X153093553Y-114484393D01*
X152992096Y-114344748D01*
X152913733Y-114190952D01*
X152860393Y-114026790D01*
X152833391Y-113856305D01*
X152833391Y-113683695D01*
X152860393Y-113513210D01*
X152913733Y-113349048D01*
X152992096Y-113195252D01*
X153093553Y-113055607D01*
X153215607Y-112933553D01*
X153355252Y-112832096D01*
X153509048Y-112753733D01*
X153673210Y-112700393D01*
X153843695Y-112673391D01*
X154016305Y-112673391D01*
X154186790Y-112700393D01*
G37*
G36*
X156726790Y-112700393D02*
G01*
X156890952Y-112753733D01*
X157044748Y-112832096D01*
X157184393Y-112933553D01*
X157306447Y-113055607D01*
X157407904Y-113195252D01*
X157486267Y-113349048D01*
X157539607Y-113513210D01*
X157566609Y-113683695D01*
X157566609Y-113856305D01*
X157539607Y-114026790D01*
X157486267Y-114190952D01*
X157407904Y-114344748D01*
X157306447Y-114484393D01*
X157184393Y-114606447D01*
X157044748Y-114707904D01*
X156890952Y-114786267D01*
X156726790Y-114839607D01*
X156556305Y-114866609D01*
X156383695Y-114866609D01*
X156213210Y-114839607D01*
X156049048Y-114786267D01*
X155895252Y-114707904D01*
X155755607Y-114606447D01*
X155633553Y-114484393D01*
X155532096Y-114344748D01*
X155453733Y-114190952D01*
X155400393Y-114026790D01*
X155373391Y-113856305D01*
X155373391Y-113683695D01*
X155400393Y-113513210D01*
X155453733Y-113349048D01*
X155532096Y-113195252D01*
X155633553Y-113055607D01*
X155755607Y-112933553D01*
X155895252Y-112832096D01*
X156049048Y-112753733D01*
X156213210Y-112700393D01*
X156383695Y-112673391D01*
X156556305Y-112673391D01*
X156726790Y-112700393D01*
G37*
G36*
X159266790Y-112700393D02*
G01*
X159430952Y-112753733D01*
X159584748Y-112832096D01*
X159724393Y-112933553D01*
X159846447Y-113055607D01*
X159947904Y-113195252D01*
X160026267Y-113349048D01*
X160079607Y-113513210D01*
X160106609Y-113683695D01*
X160106609Y-113856305D01*
X160079607Y-114026790D01*
X160026267Y-114190952D01*
X159947904Y-114344748D01*
X159846447Y-114484393D01*
X159724393Y-114606447D01*
X159584748Y-114707904D01*
X159430952Y-114786267D01*
X159266790Y-114839607D01*
X159096305Y-114866609D01*
X158923695Y-114866609D01*
X158753210Y-114839607D01*
X158589048Y-114786267D01*
X158435252Y-114707904D01*
X158295607Y-114606447D01*
X158173553Y-114484393D01*
X158072096Y-114344748D01*
X157993733Y-114190952D01*
X157940393Y-114026790D01*
X157913391Y-113856305D01*
X157913391Y-113683695D01*
X157940393Y-113513210D01*
X157993733Y-113349048D01*
X158072096Y-113195252D01*
X158173553Y-113055607D01*
X158295607Y-112933553D01*
X158435252Y-112832096D01*
X158589048Y-112753733D01*
X158753210Y-112700393D01*
X158923695Y-112673391D01*
X159096305Y-112673391D01*
X159266790Y-112700393D01*
G37*
G36*
X161806790Y-112700393D02*
G01*
X161970952Y-112753733D01*
X162124748Y-112832096D01*
X162264393Y-112933553D01*
X162386447Y-113055607D01*
X162487904Y-113195252D01*
X162566267Y-113349048D01*
X162619607Y-113513210D01*
X162646609Y-113683695D01*
X162646609Y-113856305D01*
X162619607Y-114026790D01*
X162566267Y-114190952D01*
X162487904Y-114344748D01*
X162386447Y-114484393D01*
X162264393Y-114606447D01*
X162124748Y-114707904D01*
X161970952Y-114786267D01*
X161806790Y-114839607D01*
X161636305Y-114866609D01*
X161463695Y-114866609D01*
X161293210Y-114839607D01*
X161129048Y-114786267D01*
X160975252Y-114707904D01*
X160835607Y-114606447D01*
X160713553Y-114484393D01*
X160612096Y-114344748D01*
X160533733Y-114190952D01*
X160480393Y-114026790D01*
X160453391Y-113856305D01*
X160453391Y-113683695D01*
X160480393Y-113513210D01*
X160533733Y-113349048D01*
X160612096Y-113195252D01*
X160713553Y-113055607D01*
X160835607Y-112933553D01*
X160975252Y-112832096D01*
X161129048Y-112753733D01*
X161293210Y-112700393D01*
X161463695Y-112673391D01*
X161636305Y-112673391D01*
X161806790Y-112700393D01*
G37*
G36*
X164346790Y-112700393D02*
G01*
X164510952Y-112753733D01*
X164664748Y-112832096D01*
X164804393Y-112933553D01*
X164926447Y-113055607D01*
X165027904Y-113195252D01*
X165106267Y-113349048D01*
X165159607Y-113513210D01*
X165186609Y-113683695D01*
X165186609Y-113856305D01*
X165159607Y-114026790D01*
X165106267Y-114190952D01*
X165027904Y-114344748D01*
X164926447Y-114484393D01*
X164804393Y-114606447D01*
X164664748Y-114707904D01*
X164510952Y-114786267D01*
X164346790Y-114839607D01*
X164176305Y-114866609D01*
X164003695Y-114866609D01*
X163833210Y-114839607D01*
X163669048Y-114786267D01*
X163515252Y-114707904D01*
X163375607Y-114606447D01*
X163253553Y-114484393D01*
X163152096Y-114344748D01*
X163073733Y-114190952D01*
X163020393Y-114026790D01*
X162993391Y-113856305D01*
X162993391Y-113683695D01*
X163020393Y-113513210D01*
X163073733Y-113349048D01*
X163152096Y-113195252D01*
X163253553Y-113055607D01*
X163375607Y-112933553D01*
X163515252Y-112832096D01*
X163669048Y-112753733D01*
X163833210Y-112700393D01*
X164003695Y-112673391D01*
X164176305Y-112673391D01*
X164346790Y-112700393D01*
G37*
G36*
X166886790Y-112700393D02*
G01*
X167050952Y-112753733D01*
X167204748Y-112832096D01*
X167344393Y-112933553D01*
X167466447Y-113055607D01*
X167567904Y-113195252D01*
X167646267Y-113349048D01*
X167699607Y-113513210D01*
X167726609Y-113683695D01*
X167726609Y-113856305D01*
X167699607Y-114026790D01*
X167646267Y-114190952D01*
X167567904Y-114344748D01*
X167466447Y-114484393D01*
X167344393Y-114606447D01*
X167204748Y-114707904D01*
X167050952Y-114786267D01*
X166886790Y-114839607D01*
X166716305Y-114866609D01*
X166543695Y-114866609D01*
X166373210Y-114839607D01*
X166209048Y-114786267D01*
X166055252Y-114707904D01*
X165915607Y-114606447D01*
X165793553Y-114484393D01*
X165692096Y-114344748D01*
X165613733Y-114190952D01*
X165560393Y-114026790D01*
X165533391Y-113856305D01*
X165533391Y-113683695D01*
X165560393Y-113513210D01*
X165613733Y-113349048D01*
X165692096Y-113195252D01*
X165793553Y-113055607D01*
X165915607Y-112933553D01*
X166055252Y-112832096D01*
X166209048Y-112753733D01*
X166373210Y-112700393D01*
X166543695Y-112673391D01*
X166716305Y-112673391D01*
X166886790Y-112700393D01*
G37*
G36*
X169426790Y-112700393D02*
G01*
X169590952Y-112753733D01*
X169744748Y-112832096D01*
X169884393Y-112933553D01*
X170006447Y-113055607D01*
X170107904Y-113195252D01*
X170186267Y-113349048D01*
X170239607Y-113513210D01*
X170266609Y-113683695D01*
X170266609Y-113856305D01*
X170239607Y-114026790D01*
X170186267Y-114190952D01*
X170107904Y-114344748D01*
X170006447Y-114484393D01*
X169884393Y-114606447D01*
X169744748Y-114707904D01*
X169590952Y-114786267D01*
X169426790Y-114839607D01*
X169256305Y-114866609D01*
X169083695Y-114866609D01*
X168913210Y-114839607D01*
X168749048Y-114786267D01*
X168595252Y-114707904D01*
X168455607Y-114606447D01*
X168333553Y-114484393D01*
X168232096Y-114344748D01*
X168153733Y-114190952D01*
X168100393Y-114026790D01*
X168073391Y-113856305D01*
X168073391Y-113683695D01*
X168100393Y-113513210D01*
X168153733Y-113349048D01*
X168232096Y-113195252D01*
X168333553Y-113055607D01*
X168455607Y-112933553D01*
X168595252Y-112832096D01*
X168749048Y-112753733D01*
X168913210Y-112700393D01*
X169083695Y-112673391D01*
X169256305Y-112673391D01*
X169426790Y-112700393D01*
G37*
G36*
X171966790Y-112700393D02*
G01*
X172130952Y-112753733D01*
X172284748Y-112832096D01*
X172424393Y-112933553D01*
X172546447Y-113055607D01*
X172647904Y-113195252D01*
X172726267Y-113349048D01*
X172779607Y-113513210D01*
X172806609Y-113683695D01*
X172806609Y-113856305D01*
X172779607Y-114026790D01*
X172726267Y-114190952D01*
X172647904Y-114344748D01*
X172546447Y-114484393D01*
X172424393Y-114606447D01*
X172284748Y-114707904D01*
X172130952Y-114786267D01*
X171966790Y-114839607D01*
X171796305Y-114866609D01*
X171623695Y-114866609D01*
X171453210Y-114839607D01*
X171289048Y-114786267D01*
X171135252Y-114707904D01*
X170995607Y-114606447D01*
X170873553Y-114484393D01*
X170772096Y-114344748D01*
X170693733Y-114190952D01*
X170640393Y-114026790D01*
X170613391Y-113856305D01*
X170613391Y-113683695D01*
X170640393Y-113513210D01*
X170693733Y-113349048D01*
X170772096Y-113195252D01*
X170873553Y-113055607D01*
X170995607Y-112933553D01*
X171135252Y-112832096D01*
X171289048Y-112753733D01*
X171453210Y-112700393D01*
X171623695Y-112673391D01*
X171796305Y-112673391D01*
X171966790Y-112700393D01*
G37*
G36*
X174506790Y-112700393D02*
G01*
X174670952Y-112753733D01*
X174824748Y-112832096D01*
X174964393Y-112933553D01*
X175086447Y-113055607D01*
X175187904Y-113195252D01*
X175266267Y-113349048D01*
X175319607Y-113513210D01*
X175346609Y-113683695D01*
X175346609Y-113856305D01*
X175319607Y-114026790D01*
X175266267Y-114190952D01*
X175187904Y-114344748D01*
X175086447Y-114484393D01*
X174964393Y-114606447D01*
X174824748Y-114707904D01*
X174670952Y-114786267D01*
X174506790Y-114839607D01*
X174336305Y-114866609D01*
X174163695Y-114866609D01*
X173993210Y-114839607D01*
X173829048Y-114786267D01*
X173675252Y-114707904D01*
X173535607Y-114606447D01*
X173413553Y-114484393D01*
X173312096Y-114344748D01*
X173233733Y-114190952D01*
X173180393Y-114026790D01*
X173153391Y-113856305D01*
X173153391Y-113683695D01*
X173180393Y-113513210D01*
X173233733Y-113349048D01*
X173312096Y-113195252D01*
X173413553Y-113055607D01*
X173535607Y-112933553D01*
X173675252Y-112832096D01*
X173829048Y-112753733D01*
X173993210Y-112700393D01*
X174163695Y-112673391D01*
X174336305Y-112673391D01*
X174506790Y-112700393D01*
G37*
G36*
X177046790Y-112700393D02*
G01*
X177210952Y-112753733D01*
X177364748Y-112832096D01*
X177504393Y-112933553D01*
X177626447Y-113055607D01*
X177727904Y-113195252D01*
X177806267Y-113349048D01*
X177859607Y-113513210D01*
X177886609Y-113683695D01*
X177886609Y-113856305D01*
X177859607Y-114026790D01*
X177806267Y-114190952D01*
X177727904Y-114344748D01*
X177626447Y-114484393D01*
X177504393Y-114606447D01*
X177364748Y-114707904D01*
X177210952Y-114786267D01*
X177046790Y-114839607D01*
X176876305Y-114866609D01*
X176703695Y-114866609D01*
X176533210Y-114839607D01*
X176369048Y-114786267D01*
X176215252Y-114707904D01*
X176075607Y-114606447D01*
X175953553Y-114484393D01*
X175852096Y-114344748D01*
X175773733Y-114190952D01*
X175720393Y-114026790D01*
X175693391Y-113856305D01*
X175693391Y-113683695D01*
X175720393Y-113513210D01*
X175773733Y-113349048D01*
X175852096Y-113195252D01*
X175953553Y-113055607D01*
X176075607Y-112933553D01*
X176215252Y-112832096D01*
X176369048Y-112753733D01*
X176533210Y-112700393D01*
X176703695Y-112673391D01*
X176876305Y-112673391D01*
X177046790Y-112700393D01*
G37*
G36*
X179586790Y-112700393D02*
G01*
X179750952Y-112753733D01*
X179904748Y-112832096D01*
X180044393Y-112933553D01*
X180166447Y-113055607D01*
X180267904Y-113195252D01*
X180346267Y-113349048D01*
X180399607Y-113513210D01*
X180426609Y-113683695D01*
X180426609Y-113856305D01*
X180399607Y-114026790D01*
X180346267Y-114190952D01*
X180267904Y-114344748D01*
X180166447Y-114484393D01*
X180044393Y-114606447D01*
X179904748Y-114707904D01*
X179750952Y-114786267D01*
X179586790Y-114839607D01*
X179416305Y-114866609D01*
X179243695Y-114866609D01*
X179073210Y-114839607D01*
X178909048Y-114786267D01*
X178755252Y-114707904D01*
X178615607Y-114606447D01*
X178493553Y-114484393D01*
X178392096Y-114344748D01*
X178313733Y-114190952D01*
X178260393Y-114026790D01*
X178233391Y-113856305D01*
X178233391Y-113683695D01*
X178260393Y-113513210D01*
X178313733Y-113349048D01*
X178392096Y-113195252D01*
X178493553Y-113055607D01*
X178615607Y-112933553D01*
X178755252Y-112832096D01*
X178909048Y-112753733D01*
X179073210Y-112700393D01*
X179243695Y-112673391D01*
X179416305Y-112673391D01*
X179586790Y-112700393D01*
G37*
G36*
X182126790Y-112700393D02*
G01*
X182290952Y-112753733D01*
X182444748Y-112832096D01*
X182584393Y-112933553D01*
X182706447Y-113055607D01*
X182807904Y-113195252D01*
X182886267Y-113349048D01*
X182939607Y-113513210D01*
X182966609Y-113683695D01*
X182966609Y-113856305D01*
X182939607Y-114026790D01*
X182886267Y-114190952D01*
X182807904Y-114344748D01*
X182706447Y-114484393D01*
X182584393Y-114606447D01*
X182444748Y-114707904D01*
X182290952Y-114786267D01*
X182126790Y-114839607D01*
X181956305Y-114866609D01*
X181783695Y-114866609D01*
X181613210Y-114839607D01*
X181449048Y-114786267D01*
X181295252Y-114707904D01*
X181155607Y-114606447D01*
X181033553Y-114484393D01*
X180932096Y-114344748D01*
X180853733Y-114190952D01*
X180800393Y-114026790D01*
X180773391Y-113856305D01*
X180773391Y-113683695D01*
X180800393Y-113513210D01*
X180853733Y-113349048D01*
X180932096Y-113195252D01*
X181033553Y-113055607D01*
X181155607Y-112933553D01*
X181295252Y-112832096D01*
X181449048Y-112753733D01*
X181613210Y-112700393D01*
X181783695Y-112673391D01*
X181956305Y-112673391D01*
X182126790Y-112700393D01*
G37*
G36*
X184666790Y-112700393D02*
G01*
X184830952Y-112753733D01*
X184984748Y-112832096D01*
X185124393Y-112933553D01*
X185246447Y-113055607D01*
X185347904Y-113195252D01*
X185426267Y-113349048D01*
X185479607Y-113513210D01*
X185506609Y-113683695D01*
X185506609Y-113856305D01*
X185479607Y-114026790D01*
X185426267Y-114190952D01*
X185347904Y-114344748D01*
X185246447Y-114484393D01*
X185124393Y-114606447D01*
X184984748Y-114707904D01*
X184830952Y-114786267D01*
X184666790Y-114839607D01*
X184496305Y-114866609D01*
X184323695Y-114866609D01*
X184153210Y-114839607D01*
X183989048Y-114786267D01*
X183835252Y-114707904D01*
X183695607Y-114606447D01*
X183573553Y-114484393D01*
X183472096Y-114344748D01*
X183393733Y-114190952D01*
X183340393Y-114026790D01*
X183313391Y-113856305D01*
X183313391Y-113683695D01*
X183340393Y-113513210D01*
X183393733Y-113349048D01*
X183472096Y-113195252D01*
X183573553Y-113055607D01*
X183695607Y-112933553D01*
X183835252Y-112832096D01*
X183989048Y-112753733D01*
X184153210Y-112700393D01*
X184323695Y-112673391D01*
X184496305Y-112673391D01*
X184666790Y-112700393D01*
G37*
G36*
X187206790Y-112700393D02*
G01*
X187370952Y-112753733D01*
X187524748Y-112832096D01*
X187664393Y-112933553D01*
X187786447Y-113055607D01*
X187887904Y-113195252D01*
X187966267Y-113349048D01*
X188019607Y-113513210D01*
X188046609Y-113683695D01*
X188046609Y-113856305D01*
X188019607Y-114026790D01*
X187966267Y-114190952D01*
X187887904Y-114344748D01*
X187786447Y-114484393D01*
X187664393Y-114606447D01*
X187524748Y-114707904D01*
X187370952Y-114786267D01*
X187206790Y-114839607D01*
X187036305Y-114866609D01*
X186863695Y-114866609D01*
X186693210Y-114839607D01*
X186529048Y-114786267D01*
X186375252Y-114707904D01*
X186235607Y-114606447D01*
X186113553Y-114484393D01*
X186012096Y-114344748D01*
X185933733Y-114190952D01*
X185880393Y-114026790D01*
X185853391Y-113856305D01*
X185853391Y-113683695D01*
X185880393Y-113513210D01*
X185933733Y-113349048D01*
X186012096Y-113195252D01*
X186113553Y-113055607D01*
X186235607Y-112933553D01*
X186375252Y-112832096D01*
X186529048Y-112753733D01*
X186693210Y-112700393D01*
X186863695Y-112673391D01*
X187036305Y-112673391D01*
X187206790Y-112700393D01*
G37*
G36*
X189746790Y-112700393D02*
G01*
X189910952Y-112753733D01*
X190064748Y-112832096D01*
X190204393Y-112933553D01*
X190326447Y-113055607D01*
X190427904Y-113195252D01*
X190506267Y-113349048D01*
X190559607Y-113513210D01*
X190586609Y-113683695D01*
X190586609Y-113856305D01*
X190559607Y-114026790D01*
X190506267Y-114190952D01*
X190427904Y-114344748D01*
X190326447Y-114484393D01*
X190204393Y-114606447D01*
X190064748Y-114707904D01*
X189910952Y-114786267D01*
X189746790Y-114839607D01*
X189576305Y-114866609D01*
X189403695Y-114866609D01*
X189233210Y-114839607D01*
X189069048Y-114786267D01*
X188915252Y-114707904D01*
X188775607Y-114606447D01*
X188653553Y-114484393D01*
X188552096Y-114344748D01*
X188473733Y-114190952D01*
X188420393Y-114026790D01*
X188393391Y-113856305D01*
X188393391Y-113683695D01*
X188420393Y-113513210D01*
X188473733Y-113349048D01*
X188552096Y-113195252D01*
X188653553Y-113055607D01*
X188775607Y-112933553D01*
X188915252Y-112832096D01*
X189069048Y-112753733D01*
X189233210Y-112700393D01*
X189403695Y-112673391D01*
X189576305Y-112673391D01*
X189746790Y-112700393D01*
G37*
G36*
X192286790Y-112700393D02*
G01*
X192450952Y-112753733D01*
X192604748Y-112832096D01*
X192744393Y-112933553D01*
X192866447Y-113055607D01*
X192967904Y-113195252D01*
X193046267Y-113349048D01*
X193099607Y-113513210D01*
X193126609Y-113683695D01*
X193126609Y-113856305D01*
X193099607Y-114026790D01*
X193046267Y-114190952D01*
X192967904Y-114344748D01*
X192866447Y-114484393D01*
X192744393Y-114606447D01*
X192604748Y-114707904D01*
X192450952Y-114786267D01*
X192286790Y-114839607D01*
X192116305Y-114866609D01*
X191943695Y-114866609D01*
X191773210Y-114839607D01*
X191609048Y-114786267D01*
X191455252Y-114707904D01*
X191315607Y-114606447D01*
X191193553Y-114484393D01*
X191092096Y-114344748D01*
X191013733Y-114190952D01*
X190960393Y-114026790D01*
X190933391Y-113856305D01*
X190933391Y-113683695D01*
X190960393Y-113513210D01*
X191013733Y-113349048D01*
X191092096Y-113195252D01*
X191193553Y-113055607D01*
X191315607Y-112933553D01*
X191455252Y-112832096D01*
X191609048Y-112753733D01*
X191773210Y-112700393D01*
X191943695Y-112673391D01*
X192116305Y-112673391D01*
X192286790Y-112700393D01*
G37*
G36*
X123706790Y-110160393D02*
G01*
X123870952Y-110213733D01*
X124024748Y-110292096D01*
X124164393Y-110393553D01*
X124286447Y-110515607D01*
X124387904Y-110655252D01*
X124466267Y-110809048D01*
X124519607Y-110973210D01*
X124546609Y-111143695D01*
X124546609Y-111316305D01*
X124519607Y-111486790D01*
X124466267Y-111650952D01*
X124387904Y-111804748D01*
X124286447Y-111944393D01*
X124164393Y-112066447D01*
X124024748Y-112167904D01*
X123870952Y-112246267D01*
X123706790Y-112299607D01*
X123536305Y-112326609D01*
X123363695Y-112326609D01*
X123193210Y-112299607D01*
X123029048Y-112246267D01*
X122875252Y-112167904D01*
X122735607Y-112066447D01*
X122613553Y-111944393D01*
X122512096Y-111804748D01*
X122433733Y-111650952D01*
X122380393Y-111486790D01*
X122353391Y-111316305D01*
X122353391Y-111143695D01*
X122380393Y-110973210D01*
X122433733Y-110809048D01*
X122512096Y-110655252D01*
X122613553Y-110515607D01*
X122735607Y-110393553D01*
X122875252Y-110292096D01*
X123029048Y-110213733D01*
X123193210Y-110160393D01*
X123363695Y-110133391D01*
X123536305Y-110133391D01*
X123706790Y-110160393D01*
G37*
G36*
X126246790Y-110160393D02*
G01*
X126410952Y-110213733D01*
X126564748Y-110292096D01*
X126704393Y-110393553D01*
X126826447Y-110515607D01*
X126927904Y-110655252D01*
X127006267Y-110809048D01*
X127059607Y-110973210D01*
X127086609Y-111143695D01*
X127086609Y-111316305D01*
X127059607Y-111486790D01*
X127006267Y-111650952D01*
X126927904Y-111804748D01*
X126826447Y-111944393D01*
X126704393Y-112066447D01*
X126564748Y-112167904D01*
X126410952Y-112246267D01*
X126246790Y-112299607D01*
X126076305Y-112326609D01*
X125903695Y-112326609D01*
X125733210Y-112299607D01*
X125569048Y-112246267D01*
X125415252Y-112167904D01*
X125275607Y-112066447D01*
X125153553Y-111944393D01*
X125052096Y-111804748D01*
X124973733Y-111650952D01*
X124920393Y-111486790D01*
X124893391Y-111316305D01*
X124893391Y-111143695D01*
X124920393Y-110973210D01*
X124973733Y-110809048D01*
X125052096Y-110655252D01*
X125153553Y-110515607D01*
X125275607Y-110393553D01*
X125415252Y-110292096D01*
X125569048Y-110213733D01*
X125733210Y-110160393D01*
X125903695Y-110133391D01*
X126076305Y-110133391D01*
X126246790Y-110160393D01*
G37*
G36*
X128786790Y-110160393D02*
G01*
X128950952Y-110213733D01*
X129104748Y-110292096D01*
X129244393Y-110393553D01*
X129366447Y-110515607D01*
X129467904Y-110655252D01*
X129546267Y-110809048D01*
X129599607Y-110973210D01*
X129626609Y-111143695D01*
X129626609Y-111316305D01*
X129599607Y-111486790D01*
X129546267Y-111650952D01*
X129467904Y-111804748D01*
X129366447Y-111944393D01*
X129244393Y-112066447D01*
X129104748Y-112167904D01*
X128950952Y-112246267D01*
X128786790Y-112299607D01*
X128616305Y-112326609D01*
X128443695Y-112326609D01*
X128273210Y-112299607D01*
X128109048Y-112246267D01*
X127955252Y-112167904D01*
X127815607Y-112066447D01*
X127693553Y-111944393D01*
X127592096Y-111804748D01*
X127513733Y-111650952D01*
X127460393Y-111486790D01*
X127433391Y-111316305D01*
X127433391Y-111143695D01*
X127460393Y-110973210D01*
X127513733Y-110809048D01*
X127592096Y-110655252D01*
X127693553Y-110515607D01*
X127815607Y-110393553D01*
X127955252Y-110292096D01*
X128109048Y-110213733D01*
X128273210Y-110160393D01*
X128443695Y-110133391D01*
X128616305Y-110133391D01*
X128786790Y-110160393D01*
G37*
G36*
X131326790Y-110160393D02*
G01*
X131490952Y-110213733D01*
X131644748Y-110292096D01*
X131784393Y-110393553D01*
X131906447Y-110515607D01*
X132007904Y-110655252D01*
X132086267Y-110809048D01*
X132139607Y-110973210D01*
X132166609Y-111143695D01*
X132166609Y-111316305D01*
X132139607Y-111486790D01*
X132086267Y-111650952D01*
X132007904Y-111804748D01*
X131906447Y-111944393D01*
X131784393Y-112066447D01*
X131644748Y-112167904D01*
X131490952Y-112246267D01*
X131326790Y-112299607D01*
X131156305Y-112326609D01*
X130983695Y-112326609D01*
X130813210Y-112299607D01*
X130649048Y-112246267D01*
X130495252Y-112167904D01*
X130355607Y-112066447D01*
X130233553Y-111944393D01*
X130132096Y-111804748D01*
X130053733Y-111650952D01*
X130000393Y-111486790D01*
X129973391Y-111316305D01*
X129973391Y-111143695D01*
X130000393Y-110973210D01*
X130053733Y-110809048D01*
X130132096Y-110655252D01*
X130233553Y-110515607D01*
X130355607Y-110393553D01*
X130495252Y-110292096D01*
X130649048Y-110213733D01*
X130813210Y-110160393D01*
X130983695Y-110133391D01*
X131156305Y-110133391D01*
X131326790Y-110160393D01*
G37*
G36*
X133866790Y-110160393D02*
G01*
X134030952Y-110213733D01*
X134184748Y-110292096D01*
X134324393Y-110393553D01*
X134446447Y-110515607D01*
X134547904Y-110655252D01*
X134626267Y-110809048D01*
X134679607Y-110973210D01*
X134706609Y-111143695D01*
X134706609Y-111316305D01*
X134679607Y-111486790D01*
X134626267Y-111650952D01*
X134547904Y-111804748D01*
X134446447Y-111944393D01*
X134324393Y-112066447D01*
X134184748Y-112167904D01*
X134030952Y-112246267D01*
X133866790Y-112299607D01*
X133696305Y-112326609D01*
X133523695Y-112326609D01*
X133353210Y-112299607D01*
X133189048Y-112246267D01*
X133035252Y-112167904D01*
X132895607Y-112066447D01*
X132773553Y-111944393D01*
X132672096Y-111804748D01*
X132593733Y-111650952D01*
X132540393Y-111486790D01*
X132513391Y-111316305D01*
X132513391Y-111143695D01*
X132540393Y-110973210D01*
X132593733Y-110809048D01*
X132672096Y-110655252D01*
X132773553Y-110515607D01*
X132895607Y-110393553D01*
X133035252Y-110292096D01*
X133189048Y-110213733D01*
X133353210Y-110160393D01*
X133523695Y-110133391D01*
X133696305Y-110133391D01*
X133866790Y-110160393D01*
G37*
G36*
X136406790Y-110160393D02*
G01*
X136570952Y-110213733D01*
X136724748Y-110292096D01*
X136864393Y-110393553D01*
X136986447Y-110515607D01*
X137087904Y-110655252D01*
X137166267Y-110809048D01*
X137219607Y-110973210D01*
X137246609Y-111143695D01*
X137246609Y-111316305D01*
X137219607Y-111486790D01*
X137166267Y-111650952D01*
X137087904Y-111804748D01*
X136986447Y-111944393D01*
X136864393Y-112066447D01*
X136724748Y-112167904D01*
X136570952Y-112246267D01*
X136406790Y-112299607D01*
X136236305Y-112326609D01*
X136063695Y-112326609D01*
X135893210Y-112299607D01*
X135729048Y-112246267D01*
X135575252Y-112167904D01*
X135435607Y-112066447D01*
X135313553Y-111944393D01*
X135212096Y-111804748D01*
X135133733Y-111650952D01*
X135080393Y-111486790D01*
X135053391Y-111316305D01*
X135053391Y-111143695D01*
X135080393Y-110973210D01*
X135133733Y-110809048D01*
X135212096Y-110655252D01*
X135313553Y-110515607D01*
X135435607Y-110393553D01*
X135575252Y-110292096D01*
X135729048Y-110213733D01*
X135893210Y-110160393D01*
X136063695Y-110133391D01*
X136236305Y-110133391D01*
X136406790Y-110160393D01*
G37*
G36*
X138946790Y-110160393D02*
G01*
X139110952Y-110213733D01*
X139264748Y-110292096D01*
X139404393Y-110393553D01*
X139526447Y-110515607D01*
X139627904Y-110655252D01*
X139706267Y-110809048D01*
X139759607Y-110973210D01*
X139786609Y-111143695D01*
X139786609Y-111316305D01*
X139759607Y-111486790D01*
X139706267Y-111650952D01*
X139627904Y-111804748D01*
X139526447Y-111944393D01*
X139404393Y-112066447D01*
X139264748Y-112167904D01*
X139110952Y-112246267D01*
X138946790Y-112299607D01*
X138776305Y-112326609D01*
X138603695Y-112326609D01*
X138433210Y-112299607D01*
X138269048Y-112246267D01*
X138115252Y-112167904D01*
X137975607Y-112066447D01*
X137853553Y-111944393D01*
X137752096Y-111804748D01*
X137673733Y-111650952D01*
X137620393Y-111486790D01*
X137593391Y-111316305D01*
X137593391Y-111143695D01*
X137620393Y-110973210D01*
X137673733Y-110809048D01*
X137752096Y-110655252D01*
X137853553Y-110515607D01*
X137975607Y-110393553D01*
X138115252Y-110292096D01*
X138269048Y-110213733D01*
X138433210Y-110160393D01*
X138603695Y-110133391D01*
X138776305Y-110133391D01*
X138946790Y-110160393D01*
G37*
G36*
X141486790Y-110160393D02*
G01*
X141650952Y-110213733D01*
X141804748Y-110292096D01*
X141944393Y-110393553D01*
X142066447Y-110515607D01*
X142167904Y-110655252D01*
X142246267Y-110809048D01*
X142299607Y-110973210D01*
X142326609Y-111143695D01*
X142326609Y-111316305D01*
X142299607Y-111486790D01*
X142246267Y-111650952D01*
X142167904Y-111804748D01*
X142066447Y-111944393D01*
X141944393Y-112066447D01*
X141804748Y-112167904D01*
X141650952Y-112246267D01*
X141486790Y-112299607D01*
X141316305Y-112326609D01*
X141143695Y-112326609D01*
X140973210Y-112299607D01*
X140809048Y-112246267D01*
X140655252Y-112167904D01*
X140515607Y-112066447D01*
X140393553Y-111944393D01*
X140292096Y-111804748D01*
X140213733Y-111650952D01*
X140160393Y-111486790D01*
X140133391Y-111316305D01*
X140133391Y-111143695D01*
X140160393Y-110973210D01*
X140213733Y-110809048D01*
X140292096Y-110655252D01*
X140393553Y-110515607D01*
X140515607Y-110393553D01*
X140655252Y-110292096D01*
X140809048Y-110213733D01*
X140973210Y-110160393D01*
X141143695Y-110133391D01*
X141316305Y-110133391D01*
X141486790Y-110160393D01*
G37*
G36*
X144026790Y-110160393D02*
G01*
X144190952Y-110213733D01*
X144344748Y-110292096D01*
X144484393Y-110393553D01*
X144606447Y-110515607D01*
X144707904Y-110655252D01*
X144786267Y-110809048D01*
X144839607Y-110973210D01*
X144866609Y-111143695D01*
X144866609Y-111316305D01*
X144839607Y-111486790D01*
X144786267Y-111650952D01*
X144707904Y-111804748D01*
X144606447Y-111944393D01*
X144484393Y-112066447D01*
X144344748Y-112167904D01*
X144190952Y-112246267D01*
X144026790Y-112299607D01*
X143856305Y-112326609D01*
X143683695Y-112326609D01*
X143513210Y-112299607D01*
X143349048Y-112246267D01*
X143195252Y-112167904D01*
X143055607Y-112066447D01*
X142933553Y-111944393D01*
X142832096Y-111804748D01*
X142753733Y-111650952D01*
X142700393Y-111486790D01*
X142673391Y-111316305D01*
X142673391Y-111143695D01*
X142700393Y-110973210D01*
X142753733Y-110809048D01*
X142832096Y-110655252D01*
X142933553Y-110515607D01*
X143055607Y-110393553D01*
X143195252Y-110292096D01*
X143349048Y-110213733D01*
X143513210Y-110160393D01*
X143683695Y-110133391D01*
X143856305Y-110133391D01*
X144026790Y-110160393D01*
G37*
G36*
X146566790Y-110160393D02*
G01*
X146730952Y-110213733D01*
X146884748Y-110292096D01*
X147024393Y-110393553D01*
X147146447Y-110515607D01*
X147247904Y-110655252D01*
X147326267Y-110809048D01*
X147379607Y-110973210D01*
X147406609Y-111143695D01*
X147406609Y-111316305D01*
X147379607Y-111486790D01*
X147326267Y-111650952D01*
X147247904Y-111804748D01*
X147146447Y-111944393D01*
X147024393Y-112066447D01*
X146884748Y-112167904D01*
X146730952Y-112246267D01*
X146566790Y-112299607D01*
X146396305Y-112326609D01*
X146223695Y-112326609D01*
X146053210Y-112299607D01*
X145889048Y-112246267D01*
X145735252Y-112167904D01*
X145595607Y-112066447D01*
X145473553Y-111944393D01*
X145372096Y-111804748D01*
X145293733Y-111650952D01*
X145240393Y-111486790D01*
X145213391Y-111316305D01*
X145213391Y-111143695D01*
X145240393Y-110973210D01*
X145293733Y-110809048D01*
X145372096Y-110655252D01*
X145473553Y-110515607D01*
X145595607Y-110393553D01*
X145735252Y-110292096D01*
X145889048Y-110213733D01*
X146053210Y-110160393D01*
X146223695Y-110133391D01*
X146396305Y-110133391D01*
X146566790Y-110160393D01*
G37*
G36*
X149106790Y-110160393D02*
G01*
X149270952Y-110213733D01*
X149424748Y-110292096D01*
X149564393Y-110393553D01*
X149686447Y-110515607D01*
X149787904Y-110655252D01*
X149866267Y-110809048D01*
X149919607Y-110973210D01*
X149946609Y-111143695D01*
X149946609Y-111316305D01*
X149919607Y-111486790D01*
X149866267Y-111650952D01*
X149787904Y-111804748D01*
X149686447Y-111944393D01*
X149564393Y-112066447D01*
X149424748Y-112167904D01*
X149270952Y-112246267D01*
X149106790Y-112299607D01*
X148936305Y-112326609D01*
X148763695Y-112326609D01*
X148593210Y-112299607D01*
X148429048Y-112246267D01*
X148275252Y-112167904D01*
X148135607Y-112066447D01*
X148013553Y-111944393D01*
X147912096Y-111804748D01*
X147833733Y-111650952D01*
X147780393Y-111486790D01*
X147753391Y-111316305D01*
X147753391Y-111143695D01*
X147780393Y-110973210D01*
X147833733Y-110809048D01*
X147912096Y-110655252D01*
X148013553Y-110515607D01*
X148135607Y-110393553D01*
X148275252Y-110292096D01*
X148429048Y-110213733D01*
X148593210Y-110160393D01*
X148763695Y-110133391D01*
X148936305Y-110133391D01*
X149106790Y-110160393D01*
G37*
G36*
X151646790Y-110160393D02*
G01*
X151810952Y-110213733D01*
X151964748Y-110292096D01*
X152104393Y-110393553D01*
X152226447Y-110515607D01*
X152327904Y-110655252D01*
X152406267Y-110809048D01*
X152459607Y-110973210D01*
X152486609Y-111143695D01*
X152486609Y-111316305D01*
X152459607Y-111486790D01*
X152406267Y-111650952D01*
X152327904Y-111804748D01*
X152226447Y-111944393D01*
X152104393Y-112066447D01*
X151964748Y-112167904D01*
X151810952Y-112246267D01*
X151646790Y-112299607D01*
X151476305Y-112326609D01*
X151303695Y-112326609D01*
X151133210Y-112299607D01*
X150969048Y-112246267D01*
X150815252Y-112167904D01*
X150675607Y-112066447D01*
X150553553Y-111944393D01*
X150452096Y-111804748D01*
X150373733Y-111650952D01*
X150320393Y-111486790D01*
X150293391Y-111316305D01*
X150293391Y-111143695D01*
X150320393Y-110973210D01*
X150373733Y-110809048D01*
X150452096Y-110655252D01*
X150553553Y-110515607D01*
X150675607Y-110393553D01*
X150815252Y-110292096D01*
X150969048Y-110213733D01*
X151133210Y-110160393D01*
X151303695Y-110133391D01*
X151476305Y-110133391D01*
X151646790Y-110160393D01*
G37*
G36*
X154186790Y-110160393D02*
G01*
X154350952Y-110213733D01*
X154504748Y-110292096D01*
X154644393Y-110393553D01*
X154766447Y-110515607D01*
X154867904Y-110655252D01*
X154946267Y-110809048D01*
X154999607Y-110973210D01*
X155026609Y-111143695D01*
X155026609Y-111316305D01*
X154999607Y-111486790D01*
X154946267Y-111650952D01*
X154867904Y-111804748D01*
X154766447Y-111944393D01*
X154644393Y-112066447D01*
X154504748Y-112167904D01*
X154350952Y-112246267D01*
X154186790Y-112299607D01*
X154016305Y-112326609D01*
X153843695Y-112326609D01*
X153673210Y-112299607D01*
X153509048Y-112246267D01*
X153355252Y-112167904D01*
X153215607Y-112066447D01*
X153093553Y-111944393D01*
X152992096Y-111804748D01*
X152913733Y-111650952D01*
X152860393Y-111486790D01*
X152833391Y-111316305D01*
X152833391Y-111143695D01*
X152860393Y-110973210D01*
X152913733Y-110809048D01*
X152992096Y-110655252D01*
X153093553Y-110515607D01*
X153215607Y-110393553D01*
X153355252Y-110292096D01*
X153509048Y-110213733D01*
X153673210Y-110160393D01*
X153843695Y-110133391D01*
X154016305Y-110133391D01*
X154186790Y-110160393D01*
G37*
G36*
X156726790Y-110160393D02*
G01*
X156890952Y-110213733D01*
X157044748Y-110292096D01*
X157184393Y-110393553D01*
X157306447Y-110515607D01*
X157407904Y-110655252D01*
X157486267Y-110809048D01*
X157539607Y-110973210D01*
X157566609Y-111143695D01*
X157566609Y-111316305D01*
X157539607Y-111486790D01*
X157486267Y-111650952D01*
X157407904Y-111804748D01*
X157306447Y-111944393D01*
X157184393Y-112066447D01*
X157044748Y-112167904D01*
X156890952Y-112246267D01*
X156726790Y-112299607D01*
X156556305Y-112326609D01*
X156383695Y-112326609D01*
X156213210Y-112299607D01*
X156049048Y-112246267D01*
X155895252Y-112167904D01*
X155755607Y-112066447D01*
X155633553Y-111944393D01*
X155532096Y-111804748D01*
X155453733Y-111650952D01*
X155400393Y-111486790D01*
X155373391Y-111316305D01*
X155373391Y-111143695D01*
X155400393Y-110973210D01*
X155453733Y-110809048D01*
X155532096Y-110655252D01*
X155633553Y-110515607D01*
X155755607Y-110393553D01*
X155895252Y-110292096D01*
X156049048Y-110213733D01*
X156213210Y-110160393D01*
X156383695Y-110133391D01*
X156556305Y-110133391D01*
X156726790Y-110160393D01*
G37*
G36*
X159266790Y-110160393D02*
G01*
X159430952Y-110213733D01*
X159584748Y-110292096D01*
X159724393Y-110393553D01*
X159846447Y-110515607D01*
X159947904Y-110655252D01*
X160026267Y-110809048D01*
X160079607Y-110973210D01*
X160106609Y-111143695D01*
X160106609Y-111316305D01*
X160079607Y-111486790D01*
X160026267Y-111650952D01*
X159947904Y-111804748D01*
X159846447Y-111944393D01*
X159724393Y-112066447D01*
X159584748Y-112167904D01*
X159430952Y-112246267D01*
X159266790Y-112299607D01*
X159096305Y-112326609D01*
X158923695Y-112326609D01*
X158753210Y-112299607D01*
X158589048Y-112246267D01*
X158435252Y-112167904D01*
X158295607Y-112066447D01*
X158173553Y-111944393D01*
X158072096Y-111804748D01*
X157993733Y-111650952D01*
X157940393Y-111486790D01*
X157913391Y-111316305D01*
X157913391Y-111143695D01*
X157940393Y-110973210D01*
X157993733Y-110809048D01*
X158072096Y-110655252D01*
X158173553Y-110515607D01*
X158295607Y-110393553D01*
X158435252Y-110292096D01*
X158589048Y-110213733D01*
X158753210Y-110160393D01*
X158923695Y-110133391D01*
X159096305Y-110133391D01*
X159266790Y-110160393D01*
G37*
G36*
X161806790Y-110160393D02*
G01*
X161970952Y-110213733D01*
X162124748Y-110292096D01*
X162264393Y-110393553D01*
X162386447Y-110515607D01*
X162487904Y-110655252D01*
X162566267Y-110809048D01*
X162619607Y-110973210D01*
X162646609Y-111143695D01*
X162646609Y-111316305D01*
X162619607Y-111486790D01*
X162566267Y-111650952D01*
X162487904Y-111804748D01*
X162386447Y-111944393D01*
X162264393Y-112066447D01*
X162124748Y-112167904D01*
X161970952Y-112246267D01*
X161806790Y-112299607D01*
X161636305Y-112326609D01*
X161463695Y-112326609D01*
X161293210Y-112299607D01*
X161129048Y-112246267D01*
X160975252Y-112167904D01*
X160835607Y-112066447D01*
X160713553Y-111944393D01*
X160612096Y-111804748D01*
X160533733Y-111650952D01*
X160480393Y-111486790D01*
X160453391Y-111316305D01*
X160453391Y-111143695D01*
X160480393Y-110973210D01*
X160533733Y-110809048D01*
X160612096Y-110655252D01*
X160713553Y-110515607D01*
X160835607Y-110393553D01*
X160975252Y-110292096D01*
X161129048Y-110213733D01*
X161293210Y-110160393D01*
X161463695Y-110133391D01*
X161636305Y-110133391D01*
X161806790Y-110160393D01*
G37*
G36*
X164346790Y-110160393D02*
G01*
X164510952Y-110213733D01*
X164664748Y-110292096D01*
X164804393Y-110393553D01*
X164926447Y-110515607D01*
X165027904Y-110655252D01*
X165106267Y-110809048D01*
X165159607Y-110973210D01*
X165186609Y-111143695D01*
X165186609Y-111316305D01*
X165159607Y-111486790D01*
X165106267Y-111650952D01*
X165027904Y-111804748D01*
X164926447Y-111944393D01*
X164804393Y-112066447D01*
X164664748Y-112167904D01*
X164510952Y-112246267D01*
X164346790Y-112299607D01*
X164176305Y-112326609D01*
X164003695Y-112326609D01*
X163833210Y-112299607D01*
X163669048Y-112246267D01*
X163515252Y-112167904D01*
X163375607Y-112066447D01*
X163253553Y-111944393D01*
X163152096Y-111804748D01*
X163073733Y-111650952D01*
X163020393Y-111486790D01*
X162993391Y-111316305D01*
X162993391Y-111143695D01*
X163020393Y-110973210D01*
X163073733Y-110809048D01*
X163152096Y-110655252D01*
X163253553Y-110515607D01*
X163375607Y-110393553D01*
X163515252Y-110292096D01*
X163669048Y-110213733D01*
X163833210Y-110160393D01*
X164003695Y-110133391D01*
X164176305Y-110133391D01*
X164346790Y-110160393D01*
G37*
G36*
X166886790Y-110160393D02*
G01*
X167050952Y-110213733D01*
X167204748Y-110292096D01*
X167344393Y-110393553D01*
X167466447Y-110515607D01*
X167567904Y-110655252D01*
X167646267Y-110809048D01*
X167699607Y-110973210D01*
X167726609Y-111143695D01*
X167726609Y-111316305D01*
X167699607Y-111486790D01*
X167646267Y-111650952D01*
X167567904Y-111804748D01*
X167466447Y-111944393D01*
X167344393Y-112066447D01*
X167204748Y-112167904D01*
X167050952Y-112246267D01*
X166886790Y-112299607D01*
X166716305Y-112326609D01*
X166543695Y-112326609D01*
X166373210Y-112299607D01*
X166209048Y-112246267D01*
X166055252Y-112167904D01*
X165915607Y-112066447D01*
X165793553Y-111944393D01*
X165692096Y-111804748D01*
X165613733Y-111650952D01*
X165560393Y-111486790D01*
X165533391Y-111316305D01*
X165533391Y-111143695D01*
X165560393Y-110973210D01*
X165613733Y-110809048D01*
X165692096Y-110655252D01*
X165793553Y-110515607D01*
X165915607Y-110393553D01*
X166055252Y-110292096D01*
X166209048Y-110213733D01*
X166373210Y-110160393D01*
X166543695Y-110133391D01*
X166716305Y-110133391D01*
X166886790Y-110160393D01*
G37*
G36*
X169426790Y-110160393D02*
G01*
X169590952Y-110213733D01*
X169744748Y-110292096D01*
X169884393Y-110393553D01*
X170006447Y-110515607D01*
X170107904Y-110655252D01*
X170186267Y-110809048D01*
X170239607Y-110973210D01*
X170266609Y-111143695D01*
X170266609Y-111316305D01*
X170239607Y-111486790D01*
X170186267Y-111650952D01*
X170107904Y-111804748D01*
X170006447Y-111944393D01*
X169884393Y-112066447D01*
X169744748Y-112167904D01*
X169590952Y-112246267D01*
X169426790Y-112299607D01*
X169256305Y-112326609D01*
X169083695Y-112326609D01*
X168913210Y-112299607D01*
X168749048Y-112246267D01*
X168595252Y-112167904D01*
X168455607Y-112066447D01*
X168333553Y-111944393D01*
X168232096Y-111804748D01*
X168153733Y-111650952D01*
X168100393Y-111486790D01*
X168073391Y-111316305D01*
X168073391Y-111143695D01*
X168100393Y-110973210D01*
X168153733Y-110809048D01*
X168232096Y-110655252D01*
X168333553Y-110515607D01*
X168455607Y-110393553D01*
X168595252Y-110292096D01*
X168749048Y-110213733D01*
X168913210Y-110160393D01*
X169083695Y-110133391D01*
X169256305Y-110133391D01*
X169426790Y-110160393D01*
G37*
G36*
X171966790Y-110160393D02*
G01*
X172130952Y-110213733D01*
X172284748Y-110292096D01*
X172424393Y-110393553D01*
X172546447Y-110515607D01*
X172647904Y-110655252D01*
X172726267Y-110809048D01*
X172779607Y-110973210D01*
X172806609Y-111143695D01*
X172806609Y-111316305D01*
X172779607Y-111486790D01*
X172726267Y-111650952D01*
X172647904Y-111804748D01*
X172546447Y-111944393D01*
X172424393Y-112066447D01*
X172284748Y-112167904D01*
X172130952Y-112246267D01*
X171966790Y-112299607D01*
X171796305Y-112326609D01*
X171623695Y-112326609D01*
X171453210Y-112299607D01*
X171289048Y-112246267D01*
X171135252Y-112167904D01*
X170995607Y-112066447D01*
X170873553Y-111944393D01*
X170772096Y-111804748D01*
X170693733Y-111650952D01*
X170640393Y-111486790D01*
X170613391Y-111316305D01*
X170613391Y-111143695D01*
X170640393Y-110973210D01*
X170693733Y-110809048D01*
X170772096Y-110655252D01*
X170873553Y-110515607D01*
X170995607Y-110393553D01*
X171135252Y-110292096D01*
X171289048Y-110213733D01*
X171453210Y-110160393D01*
X171623695Y-110133391D01*
X171796305Y-110133391D01*
X171966790Y-110160393D01*
G37*
G36*
X174506790Y-110160393D02*
G01*
X174670952Y-110213733D01*
X174824748Y-110292096D01*
X174964393Y-110393553D01*
X175086447Y-110515607D01*
X175187904Y-110655252D01*
X175266267Y-110809048D01*
X175319607Y-110973210D01*
X175346609Y-111143695D01*
X175346609Y-111316305D01*
X175319607Y-111486790D01*
X175266267Y-111650952D01*
X175187904Y-111804748D01*
X175086447Y-111944393D01*
X174964393Y-112066447D01*
X174824748Y-112167904D01*
X174670952Y-112246267D01*
X174506790Y-112299607D01*
X174336305Y-112326609D01*
X174163695Y-112326609D01*
X173993210Y-112299607D01*
X173829048Y-112246267D01*
X173675252Y-112167904D01*
X173535607Y-112066447D01*
X173413553Y-111944393D01*
X173312096Y-111804748D01*
X173233733Y-111650952D01*
X173180393Y-111486790D01*
X173153391Y-111316305D01*
X173153391Y-111143695D01*
X173180393Y-110973210D01*
X173233733Y-110809048D01*
X173312096Y-110655252D01*
X173413553Y-110515607D01*
X173535607Y-110393553D01*
X173675252Y-110292096D01*
X173829048Y-110213733D01*
X173993210Y-110160393D01*
X174163695Y-110133391D01*
X174336305Y-110133391D01*
X174506790Y-110160393D01*
G37*
G36*
X177046790Y-110160393D02*
G01*
X177210952Y-110213733D01*
X177364748Y-110292096D01*
X177504393Y-110393553D01*
X177626447Y-110515607D01*
X177727904Y-110655252D01*
X177806267Y-110809048D01*
X177859607Y-110973210D01*
X177886609Y-111143695D01*
X177886609Y-111316305D01*
X177859607Y-111486790D01*
X177806267Y-111650952D01*
X177727904Y-111804748D01*
X177626447Y-111944393D01*
X177504393Y-112066447D01*
X177364748Y-112167904D01*
X177210952Y-112246267D01*
X177046790Y-112299607D01*
X176876305Y-112326609D01*
X176703695Y-112326609D01*
X176533210Y-112299607D01*
X176369048Y-112246267D01*
X176215252Y-112167904D01*
X176075607Y-112066447D01*
X175953553Y-111944393D01*
X175852096Y-111804748D01*
X175773733Y-111650952D01*
X175720393Y-111486790D01*
X175693391Y-111316305D01*
X175693391Y-111143695D01*
X175720393Y-110973210D01*
X175773733Y-110809048D01*
X175852096Y-110655252D01*
X175953553Y-110515607D01*
X176075607Y-110393553D01*
X176215252Y-110292096D01*
X176369048Y-110213733D01*
X176533210Y-110160393D01*
X176703695Y-110133391D01*
X176876305Y-110133391D01*
X177046790Y-110160393D01*
G37*
G36*
X179586790Y-110160393D02*
G01*
X179750952Y-110213733D01*
X179904748Y-110292096D01*
X180044393Y-110393553D01*
X180166447Y-110515607D01*
X180267904Y-110655252D01*
X180346267Y-110809048D01*
X180399607Y-110973210D01*
X180426609Y-111143695D01*
X180426609Y-111316305D01*
X180399607Y-111486790D01*
X180346267Y-111650952D01*
X180267904Y-111804748D01*
X180166447Y-111944393D01*
X180044393Y-112066447D01*
X179904748Y-112167904D01*
X179750952Y-112246267D01*
X179586790Y-112299607D01*
X179416305Y-112326609D01*
X179243695Y-112326609D01*
X179073210Y-112299607D01*
X178909048Y-112246267D01*
X178755252Y-112167904D01*
X178615607Y-112066447D01*
X178493553Y-111944393D01*
X178392096Y-111804748D01*
X178313733Y-111650952D01*
X178260393Y-111486790D01*
X178233391Y-111316305D01*
X178233391Y-111143695D01*
X178260393Y-110973210D01*
X178313733Y-110809048D01*
X178392096Y-110655252D01*
X178493553Y-110515607D01*
X178615607Y-110393553D01*
X178755252Y-110292096D01*
X178909048Y-110213733D01*
X179073210Y-110160393D01*
X179243695Y-110133391D01*
X179416305Y-110133391D01*
X179586790Y-110160393D01*
G37*
G36*
X182126790Y-110160393D02*
G01*
X182290952Y-110213733D01*
X182444748Y-110292096D01*
X182584393Y-110393553D01*
X182706447Y-110515607D01*
X182807904Y-110655252D01*
X182886267Y-110809048D01*
X182939607Y-110973210D01*
X182966609Y-111143695D01*
X182966609Y-111316305D01*
X182939607Y-111486790D01*
X182886267Y-111650952D01*
X182807904Y-111804748D01*
X182706447Y-111944393D01*
X182584393Y-112066447D01*
X182444748Y-112167904D01*
X182290952Y-112246267D01*
X182126790Y-112299607D01*
X181956305Y-112326609D01*
X181783695Y-112326609D01*
X181613210Y-112299607D01*
X181449048Y-112246267D01*
X181295252Y-112167904D01*
X181155607Y-112066447D01*
X181033553Y-111944393D01*
X180932096Y-111804748D01*
X180853733Y-111650952D01*
X180800393Y-111486790D01*
X180773391Y-111316305D01*
X180773391Y-111143695D01*
X180800393Y-110973210D01*
X180853733Y-110809048D01*
X180932096Y-110655252D01*
X181033553Y-110515607D01*
X181155607Y-110393553D01*
X181295252Y-110292096D01*
X181449048Y-110213733D01*
X181613210Y-110160393D01*
X181783695Y-110133391D01*
X181956305Y-110133391D01*
X182126790Y-110160393D01*
G37*
G36*
X184666790Y-110160393D02*
G01*
X184830952Y-110213733D01*
X184984748Y-110292096D01*
X185124393Y-110393553D01*
X185246447Y-110515607D01*
X185347904Y-110655252D01*
X185426267Y-110809048D01*
X185479607Y-110973210D01*
X185506609Y-111143695D01*
X185506609Y-111316305D01*
X185479607Y-111486790D01*
X185426267Y-111650952D01*
X185347904Y-111804748D01*
X185246447Y-111944393D01*
X185124393Y-112066447D01*
X184984748Y-112167904D01*
X184830952Y-112246267D01*
X184666790Y-112299607D01*
X184496305Y-112326609D01*
X184323695Y-112326609D01*
X184153210Y-112299607D01*
X183989048Y-112246267D01*
X183835252Y-112167904D01*
X183695607Y-112066447D01*
X183573553Y-111944393D01*
X183472096Y-111804748D01*
X183393733Y-111650952D01*
X183340393Y-111486790D01*
X183313391Y-111316305D01*
X183313391Y-111143695D01*
X183340393Y-110973210D01*
X183393733Y-110809048D01*
X183472096Y-110655252D01*
X183573553Y-110515607D01*
X183695607Y-110393553D01*
X183835252Y-110292096D01*
X183989048Y-110213733D01*
X184153210Y-110160393D01*
X184323695Y-110133391D01*
X184496305Y-110133391D01*
X184666790Y-110160393D01*
G37*
G36*
X187206790Y-110160393D02*
G01*
X187370952Y-110213733D01*
X187524748Y-110292096D01*
X187664393Y-110393553D01*
X187786447Y-110515607D01*
X187887904Y-110655252D01*
X187966267Y-110809048D01*
X188019607Y-110973210D01*
X188046609Y-111143695D01*
X188046609Y-111316305D01*
X188019607Y-111486790D01*
X187966267Y-111650952D01*
X187887904Y-111804748D01*
X187786447Y-111944393D01*
X187664393Y-112066447D01*
X187524748Y-112167904D01*
X187370952Y-112246267D01*
X187206790Y-112299607D01*
X187036305Y-112326609D01*
X186863695Y-112326609D01*
X186693210Y-112299607D01*
X186529048Y-112246267D01*
X186375252Y-112167904D01*
X186235607Y-112066447D01*
X186113553Y-111944393D01*
X186012096Y-111804748D01*
X185933733Y-111650952D01*
X185880393Y-111486790D01*
X185853391Y-111316305D01*
X185853391Y-111143695D01*
X185880393Y-110973210D01*
X185933733Y-110809048D01*
X186012096Y-110655252D01*
X186113553Y-110515607D01*
X186235607Y-110393553D01*
X186375252Y-110292096D01*
X186529048Y-110213733D01*
X186693210Y-110160393D01*
X186863695Y-110133391D01*
X187036305Y-110133391D01*
X187206790Y-110160393D01*
G37*
G36*
X189746790Y-110160393D02*
G01*
X189910952Y-110213733D01*
X190064748Y-110292096D01*
X190204393Y-110393553D01*
X190326447Y-110515607D01*
X190427904Y-110655252D01*
X190506267Y-110809048D01*
X190559607Y-110973210D01*
X190586609Y-111143695D01*
X190586609Y-111316305D01*
X190559607Y-111486790D01*
X190506267Y-111650952D01*
X190427904Y-111804748D01*
X190326447Y-111944393D01*
X190204393Y-112066447D01*
X190064748Y-112167904D01*
X189910952Y-112246267D01*
X189746790Y-112299607D01*
X189576305Y-112326609D01*
X189403695Y-112326609D01*
X189233210Y-112299607D01*
X189069048Y-112246267D01*
X188915252Y-112167904D01*
X188775607Y-112066447D01*
X188653553Y-111944393D01*
X188552096Y-111804748D01*
X188473733Y-111650952D01*
X188420393Y-111486790D01*
X188393391Y-111316305D01*
X188393391Y-111143695D01*
X188420393Y-110973210D01*
X188473733Y-110809048D01*
X188552096Y-110655252D01*
X188653553Y-110515607D01*
X188775607Y-110393553D01*
X188915252Y-110292096D01*
X189069048Y-110213733D01*
X189233210Y-110160393D01*
X189403695Y-110133391D01*
X189576305Y-110133391D01*
X189746790Y-110160393D01*
G37*
G36*
X192286790Y-110160393D02*
G01*
X192450952Y-110213733D01*
X192604748Y-110292096D01*
X192744393Y-110393553D01*
X192866447Y-110515607D01*
X192967904Y-110655252D01*
X193046267Y-110809048D01*
X193099607Y-110973210D01*
X193126609Y-111143695D01*
X193126609Y-111316305D01*
X193099607Y-111486790D01*
X193046267Y-111650952D01*
X192967904Y-111804748D01*
X192866447Y-111944393D01*
X192744393Y-112066447D01*
X192604748Y-112167904D01*
X192450952Y-112246267D01*
X192286790Y-112299607D01*
X192116305Y-112326609D01*
X191943695Y-112326609D01*
X191773210Y-112299607D01*
X191609048Y-112246267D01*
X191455252Y-112167904D01*
X191315607Y-112066447D01*
X191193553Y-111944393D01*
X191092096Y-111804748D01*
X191013733Y-111650952D01*
X190960393Y-111486790D01*
X190933391Y-111316305D01*
X190933391Y-111143695D01*
X190960393Y-110973210D01*
X191013733Y-110809048D01*
X191092096Y-110655252D01*
X191193553Y-110515607D01*
X191315607Y-110393553D01*
X191455252Y-110292096D01*
X191609048Y-110213733D01*
X191773210Y-110160393D01*
X191943695Y-110133391D01*
X192116305Y-110133391D01*
X192286790Y-110160393D01*
G37*
G36*
X123706790Y-107620393D02*
G01*
X123870952Y-107673733D01*
X124024748Y-107752096D01*
X124164393Y-107853553D01*
X124286447Y-107975607D01*
X124387904Y-108115252D01*
X124466267Y-108269048D01*
X124519607Y-108433210D01*
X124546609Y-108603695D01*
X124546609Y-108776305D01*
X124519607Y-108946790D01*
X124466267Y-109110952D01*
X124387904Y-109264748D01*
X124286447Y-109404393D01*
X124164393Y-109526447D01*
X124024748Y-109627904D01*
X123870952Y-109706267D01*
X123706790Y-109759607D01*
X123536305Y-109786609D01*
X123363695Y-109786609D01*
X123193210Y-109759607D01*
X123029048Y-109706267D01*
X122875252Y-109627904D01*
X122735607Y-109526447D01*
X122613553Y-109404393D01*
X122512096Y-109264748D01*
X122433733Y-109110952D01*
X122380393Y-108946790D01*
X122353391Y-108776305D01*
X122353391Y-108603695D01*
X122380393Y-108433210D01*
X122433733Y-108269048D01*
X122512096Y-108115252D01*
X122613553Y-107975607D01*
X122735607Y-107853553D01*
X122875252Y-107752096D01*
X123029048Y-107673733D01*
X123193210Y-107620393D01*
X123363695Y-107593391D01*
X123536305Y-107593391D01*
X123706790Y-107620393D01*
G37*
G36*
X126246790Y-107620393D02*
G01*
X126410952Y-107673733D01*
X126564748Y-107752096D01*
X126704393Y-107853553D01*
X126826447Y-107975607D01*
X126927904Y-108115252D01*
X127006267Y-108269048D01*
X127059607Y-108433210D01*
X127086609Y-108603695D01*
X127086609Y-108776305D01*
X127059607Y-108946790D01*
X127006267Y-109110952D01*
X126927904Y-109264748D01*
X126826447Y-109404393D01*
X126704393Y-109526447D01*
X126564748Y-109627904D01*
X126410952Y-109706267D01*
X126246790Y-109759607D01*
X126076305Y-109786609D01*
X125903695Y-109786609D01*
X125733210Y-109759607D01*
X125569048Y-109706267D01*
X125415252Y-109627904D01*
X125275607Y-109526447D01*
X125153553Y-109404393D01*
X125052096Y-109264748D01*
X124973733Y-109110952D01*
X124920393Y-108946790D01*
X124893391Y-108776305D01*
X124893391Y-108603695D01*
X124920393Y-108433210D01*
X124973733Y-108269048D01*
X125052096Y-108115252D01*
X125153553Y-107975607D01*
X125275607Y-107853553D01*
X125415252Y-107752096D01*
X125569048Y-107673733D01*
X125733210Y-107620393D01*
X125903695Y-107593391D01*
X126076305Y-107593391D01*
X126246790Y-107620393D01*
G37*
G36*
X128786790Y-107620393D02*
G01*
X128950952Y-107673733D01*
X129104748Y-107752096D01*
X129244393Y-107853553D01*
X129366447Y-107975607D01*
X129467904Y-108115252D01*
X129546267Y-108269048D01*
X129599607Y-108433210D01*
X129626609Y-108603695D01*
X129626609Y-108776305D01*
X129599607Y-108946790D01*
X129546267Y-109110952D01*
X129467904Y-109264748D01*
X129366447Y-109404393D01*
X129244393Y-109526447D01*
X129104748Y-109627904D01*
X128950952Y-109706267D01*
X128786790Y-109759607D01*
X128616305Y-109786609D01*
X128443695Y-109786609D01*
X128273210Y-109759607D01*
X128109048Y-109706267D01*
X127955252Y-109627904D01*
X127815607Y-109526447D01*
X127693553Y-109404393D01*
X127592096Y-109264748D01*
X127513733Y-109110952D01*
X127460393Y-108946790D01*
X127433391Y-108776305D01*
X127433391Y-108603695D01*
X127460393Y-108433210D01*
X127513733Y-108269048D01*
X127592096Y-108115252D01*
X127693553Y-107975607D01*
X127815607Y-107853553D01*
X127955252Y-107752096D01*
X128109048Y-107673733D01*
X128273210Y-107620393D01*
X128443695Y-107593391D01*
X128616305Y-107593391D01*
X128786790Y-107620393D01*
G37*
G36*
X131326790Y-107620393D02*
G01*
X131490952Y-107673733D01*
X131644748Y-107752096D01*
X131784393Y-107853553D01*
X131906447Y-107975607D01*
X132007904Y-108115252D01*
X132086267Y-108269048D01*
X132139607Y-108433210D01*
X132166609Y-108603695D01*
X132166609Y-108776305D01*
X132139607Y-108946790D01*
X132086267Y-109110952D01*
X132007904Y-109264748D01*
X131906447Y-109404393D01*
X131784393Y-109526447D01*
X131644748Y-109627904D01*
X131490952Y-109706267D01*
X131326790Y-109759607D01*
X131156305Y-109786609D01*
X130983695Y-109786609D01*
X130813210Y-109759607D01*
X130649048Y-109706267D01*
X130495252Y-109627904D01*
X130355607Y-109526447D01*
X130233553Y-109404393D01*
X130132096Y-109264748D01*
X130053733Y-109110952D01*
X130000393Y-108946790D01*
X129973391Y-108776305D01*
X129973391Y-108603695D01*
X130000393Y-108433210D01*
X130053733Y-108269048D01*
X130132096Y-108115252D01*
X130233553Y-107975607D01*
X130355607Y-107853553D01*
X130495252Y-107752096D01*
X130649048Y-107673733D01*
X130813210Y-107620393D01*
X130983695Y-107593391D01*
X131156305Y-107593391D01*
X131326790Y-107620393D01*
G37*
G36*
X133866790Y-107620393D02*
G01*
X134030952Y-107673733D01*
X134184748Y-107752096D01*
X134324393Y-107853553D01*
X134446447Y-107975607D01*
X134547904Y-108115252D01*
X134626267Y-108269048D01*
X134679607Y-108433210D01*
X134706609Y-108603695D01*
X134706609Y-108776305D01*
X134679607Y-108946790D01*
X134626267Y-109110952D01*
X134547904Y-109264748D01*
X134446447Y-109404393D01*
X134324393Y-109526447D01*
X134184748Y-109627904D01*
X134030952Y-109706267D01*
X133866790Y-109759607D01*
X133696305Y-109786609D01*
X133523695Y-109786609D01*
X133353210Y-109759607D01*
X133189048Y-109706267D01*
X133035252Y-109627904D01*
X132895607Y-109526447D01*
X132773553Y-109404393D01*
X132672096Y-109264748D01*
X132593733Y-109110952D01*
X132540393Y-108946790D01*
X132513391Y-108776305D01*
X132513391Y-108603695D01*
X132540393Y-108433210D01*
X132593733Y-108269048D01*
X132672096Y-108115252D01*
X132773553Y-107975607D01*
X132895607Y-107853553D01*
X133035252Y-107752096D01*
X133189048Y-107673733D01*
X133353210Y-107620393D01*
X133523695Y-107593391D01*
X133696305Y-107593391D01*
X133866790Y-107620393D01*
G37*
G36*
X136406790Y-107620393D02*
G01*
X136570952Y-107673733D01*
X136724748Y-107752096D01*
X136864393Y-107853553D01*
X136986447Y-107975607D01*
X137087904Y-108115252D01*
X137166267Y-108269048D01*
X137219607Y-108433210D01*
X137246609Y-108603695D01*
X137246609Y-108776305D01*
X137219607Y-108946790D01*
X137166267Y-109110952D01*
X137087904Y-109264748D01*
X136986447Y-109404393D01*
X136864393Y-109526447D01*
X136724748Y-109627904D01*
X136570952Y-109706267D01*
X136406790Y-109759607D01*
X136236305Y-109786609D01*
X136063695Y-109786609D01*
X135893210Y-109759607D01*
X135729048Y-109706267D01*
X135575252Y-109627904D01*
X135435607Y-109526447D01*
X135313553Y-109404393D01*
X135212096Y-109264748D01*
X135133733Y-109110952D01*
X135080393Y-108946790D01*
X135053391Y-108776305D01*
X135053391Y-108603695D01*
X135080393Y-108433210D01*
X135133733Y-108269048D01*
X135212096Y-108115252D01*
X135313553Y-107975607D01*
X135435607Y-107853553D01*
X135575252Y-107752096D01*
X135729048Y-107673733D01*
X135893210Y-107620393D01*
X136063695Y-107593391D01*
X136236305Y-107593391D01*
X136406790Y-107620393D01*
G37*
G36*
X138946790Y-107620393D02*
G01*
X139110952Y-107673733D01*
X139264748Y-107752096D01*
X139404393Y-107853553D01*
X139526447Y-107975607D01*
X139627904Y-108115252D01*
X139706267Y-108269048D01*
X139759607Y-108433210D01*
X139786609Y-108603695D01*
X139786609Y-108776305D01*
X139759607Y-108946790D01*
X139706267Y-109110952D01*
X139627904Y-109264748D01*
X139526447Y-109404393D01*
X139404393Y-109526447D01*
X139264748Y-109627904D01*
X139110952Y-109706267D01*
X138946790Y-109759607D01*
X138776305Y-109786609D01*
X138603695Y-109786609D01*
X138433210Y-109759607D01*
X138269048Y-109706267D01*
X138115252Y-109627904D01*
X137975607Y-109526447D01*
X137853553Y-109404393D01*
X137752096Y-109264748D01*
X137673733Y-109110952D01*
X137620393Y-108946790D01*
X137593391Y-108776305D01*
X137593391Y-108603695D01*
X137620393Y-108433210D01*
X137673733Y-108269048D01*
X137752096Y-108115252D01*
X137853553Y-107975607D01*
X137975607Y-107853553D01*
X138115252Y-107752096D01*
X138269048Y-107673733D01*
X138433210Y-107620393D01*
X138603695Y-107593391D01*
X138776305Y-107593391D01*
X138946790Y-107620393D01*
G37*
G36*
X141486790Y-107620393D02*
G01*
X141650952Y-107673733D01*
X141804748Y-107752096D01*
X141944393Y-107853553D01*
X142066447Y-107975607D01*
X142167904Y-108115252D01*
X142246267Y-108269048D01*
X142299607Y-108433210D01*
X142326609Y-108603695D01*
X142326609Y-108776305D01*
X142299607Y-108946790D01*
X142246267Y-109110952D01*
X142167904Y-109264748D01*
X142066447Y-109404393D01*
X141944393Y-109526447D01*
X141804748Y-109627904D01*
X141650952Y-109706267D01*
X141486790Y-109759607D01*
X141316305Y-109786609D01*
X141143695Y-109786609D01*
X140973210Y-109759607D01*
X140809048Y-109706267D01*
X140655252Y-109627904D01*
X140515607Y-109526447D01*
X140393553Y-109404393D01*
X140292096Y-109264748D01*
X140213733Y-109110952D01*
X140160393Y-108946790D01*
X140133391Y-108776305D01*
X140133391Y-108603695D01*
X140160393Y-108433210D01*
X140213733Y-108269048D01*
X140292096Y-108115252D01*
X140393553Y-107975607D01*
X140515607Y-107853553D01*
X140655252Y-107752096D01*
X140809048Y-107673733D01*
X140973210Y-107620393D01*
X141143695Y-107593391D01*
X141316305Y-107593391D01*
X141486790Y-107620393D01*
G37*
G36*
X144026790Y-107620393D02*
G01*
X144190952Y-107673733D01*
X144344748Y-107752096D01*
X144484393Y-107853553D01*
X144606447Y-107975607D01*
X144707904Y-108115252D01*
X144786267Y-108269048D01*
X144839607Y-108433210D01*
X144866609Y-108603695D01*
X144866609Y-108776305D01*
X144839607Y-108946790D01*
X144786267Y-109110952D01*
X144707904Y-109264748D01*
X144606447Y-109404393D01*
X144484393Y-109526447D01*
X144344748Y-109627904D01*
X144190952Y-109706267D01*
X144026790Y-109759607D01*
X143856305Y-109786609D01*
X143683695Y-109786609D01*
X143513210Y-109759607D01*
X143349048Y-109706267D01*
X143195252Y-109627904D01*
X143055607Y-109526447D01*
X142933553Y-109404393D01*
X142832096Y-109264748D01*
X142753733Y-109110952D01*
X142700393Y-108946790D01*
X142673391Y-108776305D01*
X142673391Y-108603695D01*
X142700393Y-108433210D01*
X142753733Y-108269048D01*
X142832096Y-108115252D01*
X142933553Y-107975607D01*
X143055607Y-107853553D01*
X143195252Y-107752096D01*
X143349048Y-107673733D01*
X143513210Y-107620393D01*
X143683695Y-107593391D01*
X143856305Y-107593391D01*
X144026790Y-107620393D01*
G37*
G36*
X146566790Y-107620393D02*
G01*
X146730952Y-107673733D01*
X146884748Y-107752096D01*
X147024393Y-107853553D01*
X147146447Y-107975607D01*
X147247904Y-108115252D01*
X147326267Y-108269048D01*
X147379607Y-108433210D01*
X147406609Y-108603695D01*
X147406609Y-108776305D01*
X147379607Y-108946790D01*
X147326267Y-109110952D01*
X147247904Y-109264748D01*
X147146447Y-109404393D01*
X147024393Y-109526447D01*
X146884748Y-109627904D01*
X146730952Y-109706267D01*
X146566790Y-109759607D01*
X146396305Y-109786609D01*
X146223695Y-109786609D01*
X146053210Y-109759607D01*
X145889048Y-109706267D01*
X145735252Y-109627904D01*
X145595607Y-109526447D01*
X145473553Y-109404393D01*
X145372096Y-109264748D01*
X145293733Y-109110952D01*
X145240393Y-108946790D01*
X145213391Y-108776305D01*
X145213391Y-108603695D01*
X145240393Y-108433210D01*
X145293733Y-108269048D01*
X145372096Y-108115252D01*
X145473553Y-107975607D01*
X145595607Y-107853553D01*
X145735252Y-107752096D01*
X145889048Y-107673733D01*
X146053210Y-107620393D01*
X146223695Y-107593391D01*
X146396305Y-107593391D01*
X146566790Y-107620393D01*
G37*
G36*
X149106790Y-107620393D02*
G01*
X149270952Y-107673733D01*
X149424748Y-107752096D01*
X149564393Y-107853553D01*
X149686447Y-107975607D01*
X149787904Y-108115252D01*
X149866267Y-108269048D01*
X149919607Y-108433210D01*
X149946609Y-108603695D01*
X149946609Y-108776305D01*
X149919607Y-108946790D01*
X149866267Y-109110952D01*
X149787904Y-109264748D01*
X149686447Y-109404393D01*
X149564393Y-109526447D01*
X149424748Y-109627904D01*
X149270952Y-109706267D01*
X149106790Y-109759607D01*
X148936305Y-109786609D01*
X148763695Y-109786609D01*
X148593210Y-109759607D01*
X148429048Y-109706267D01*
X148275252Y-109627904D01*
X148135607Y-109526447D01*
X148013553Y-109404393D01*
X147912096Y-109264748D01*
X147833733Y-109110952D01*
X147780393Y-108946790D01*
X147753391Y-108776305D01*
X147753391Y-108603695D01*
X147780393Y-108433210D01*
X147833733Y-108269048D01*
X147912096Y-108115252D01*
X148013553Y-107975607D01*
X148135607Y-107853553D01*
X148275252Y-107752096D01*
X148429048Y-107673733D01*
X148593210Y-107620393D01*
X148763695Y-107593391D01*
X148936305Y-107593391D01*
X149106790Y-107620393D01*
G37*
G36*
X151646790Y-107620393D02*
G01*
X151810952Y-107673733D01*
X151964748Y-107752096D01*
X152104393Y-107853553D01*
X152226447Y-107975607D01*
X152327904Y-108115252D01*
X152406267Y-108269048D01*
X152459607Y-108433210D01*
X152486609Y-108603695D01*
X152486609Y-108776305D01*
X152459607Y-108946790D01*
X152406267Y-109110952D01*
X152327904Y-109264748D01*
X152226447Y-109404393D01*
X152104393Y-109526447D01*
X151964748Y-109627904D01*
X151810952Y-109706267D01*
X151646790Y-109759607D01*
X151476305Y-109786609D01*
X151303695Y-109786609D01*
X151133210Y-109759607D01*
X150969048Y-109706267D01*
X150815252Y-109627904D01*
X150675607Y-109526447D01*
X150553553Y-109404393D01*
X150452096Y-109264748D01*
X150373733Y-109110952D01*
X150320393Y-108946790D01*
X150293391Y-108776305D01*
X150293391Y-108603695D01*
X150320393Y-108433210D01*
X150373733Y-108269048D01*
X150452096Y-108115252D01*
X150553553Y-107975607D01*
X150675607Y-107853553D01*
X150815252Y-107752096D01*
X150969048Y-107673733D01*
X151133210Y-107620393D01*
X151303695Y-107593391D01*
X151476305Y-107593391D01*
X151646790Y-107620393D01*
G37*
G36*
X154186790Y-107620393D02*
G01*
X154350952Y-107673733D01*
X154504748Y-107752096D01*
X154644393Y-107853553D01*
X154766447Y-107975607D01*
X154867904Y-108115252D01*
X154946267Y-108269048D01*
X154999607Y-108433210D01*
X155026609Y-108603695D01*
X155026609Y-108776305D01*
X154999607Y-108946790D01*
X154946267Y-109110952D01*
X154867904Y-109264748D01*
X154766447Y-109404393D01*
X154644393Y-109526447D01*
X154504748Y-109627904D01*
X154350952Y-109706267D01*
X154186790Y-109759607D01*
X154016305Y-109786609D01*
X153843695Y-109786609D01*
X153673210Y-109759607D01*
X153509048Y-109706267D01*
X153355252Y-109627904D01*
X153215607Y-109526447D01*
X153093553Y-109404393D01*
X152992096Y-109264748D01*
X152913733Y-109110952D01*
X152860393Y-108946790D01*
X152833391Y-108776305D01*
X152833391Y-108603695D01*
X152860393Y-108433210D01*
X152913733Y-108269048D01*
X152992096Y-108115252D01*
X153093553Y-107975607D01*
X153215607Y-107853553D01*
X153355252Y-107752096D01*
X153509048Y-107673733D01*
X153673210Y-107620393D01*
X153843695Y-107593391D01*
X154016305Y-107593391D01*
X154186790Y-107620393D01*
G37*
G36*
X156726790Y-107620393D02*
G01*
X156890952Y-107673733D01*
X157044748Y-107752096D01*
X157184393Y-107853553D01*
X157306447Y-107975607D01*
X157407904Y-108115252D01*
X157486267Y-108269048D01*
X157539607Y-108433210D01*
X157566609Y-108603695D01*
X157566609Y-108776305D01*
X157539607Y-108946790D01*
X157486267Y-109110952D01*
X157407904Y-109264748D01*
X157306447Y-109404393D01*
X157184393Y-109526447D01*
X157044748Y-109627904D01*
X156890952Y-109706267D01*
X156726790Y-109759607D01*
X156556305Y-109786609D01*
X156383695Y-109786609D01*
X156213210Y-109759607D01*
X156049048Y-109706267D01*
X155895252Y-109627904D01*
X155755607Y-109526447D01*
X155633553Y-109404393D01*
X155532096Y-109264748D01*
X155453733Y-109110952D01*
X155400393Y-108946790D01*
X155373391Y-108776305D01*
X155373391Y-108603695D01*
X155400393Y-108433210D01*
X155453733Y-108269048D01*
X155532096Y-108115252D01*
X155633553Y-107975607D01*
X155755607Y-107853553D01*
X155895252Y-107752096D01*
X156049048Y-107673733D01*
X156213210Y-107620393D01*
X156383695Y-107593391D01*
X156556305Y-107593391D01*
X156726790Y-107620393D01*
G37*
G36*
X159266790Y-107620393D02*
G01*
X159430952Y-107673733D01*
X159584748Y-107752096D01*
X159724393Y-107853553D01*
X159846447Y-107975607D01*
X159947904Y-108115252D01*
X160026267Y-108269048D01*
X160079607Y-108433210D01*
X160106609Y-108603695D01*
X160106609Y-108776305D01*
X160079607Y-108946790D01*
X160026267Y-109110952D01*
X159947904Y-109264748D01*
X159846447Y-109404393D01*
X159724393Y-109526447D01*
X159584748Y-109627904D01*
X159430952Y-109706267D01*
X159266790Y-109759607D01*
X159096305Y-109786609D01*
X158923695Y-109786609D01*
X158753210Y-109759607D01*
X158589048Y-109706267D01*
X158435252Y-109627904D01*
X158295607Y-109526447D01*
X158173553Y-109404393D01*
X158072096Y-109264748D01*
X157993733Y-109110952D01*
X157940393Y-108946790D01*
X157913391Y-108776305D01*
X157913391Y-108603695D01*
X157940393Y-108433210D01*
X157993733Y-108269048D01*
X158072096Y-108115252D01*
X158173553Y-107975607D01*
X158295607Y-107853553D01*
X158435252Y-107752096D01*
X158589048Y-107673733D01*
X158753210Y-107620393D01*
X158923695Y-107593391D01*
X159096305Y-107593391D01*
X159266790Y-107620393D01*
G37*
G36*
X161806790Y-107620393D02*
G01*
X161970952Y-107673733D01*
X162124748Y-107752096D01*
X162264393Y-107853553D01*
X162386447Y-107975607D01*
X162487904Y-108115252D01*
X162566267Y-108269048D01*
X162619607Y-108433210D01*
X162646609Y-108603695D01*
X162646609Y-108776305D01*
X162619607Y-108946790D01*
X162566267Y-109110952D01*
X162487904Y-109264748D01*
X162386447Y-109404393D01*
X162264393Y-109526447D01*
X162124748Y-109627904D01*
X161970952Y-109706267D01*
X161806790Y-109759607D01*
X161636305Y-109786609D01*
X161463695Y-109786609D01*
X161293210Y-109759607D01*
X161129048Y-109706267D01*
X160975252Y-109627904D01*
X160835607Y-109526447D01*
X160713553Y-109404393D01*
X160612096Y-109264748D01*
X160533733Y-109110952D01*
X160480393Y-108946790D01*
X160453391Y-108776305D01*
X160453391Y-108603695D01*
X160480393Y-108433210D01*
X160533733Y-108269048D01*
X160612096Y-108115252D01*
X160713553Y-107975607D01*
X160835607Y-107853553D01*
X160975252Y-107752096D01*
X161129048Y-107673733D01*
X161293210Y-107620393D01*
X161463695Y-107593391D01*
X161636305Y-107593391D01*
X161806790Y-107620393D01*
G37*
G36*
X164346790Y-107620393D02*
G01*
X164510952Y-107673733D01*
X164664748Y-107752096D01*
X164804393Y-107853553D01*
X164926447Y-107975607D01*
X165027904Y-108115252D01*
X165106267Y-108269048D01*
X165159607Y-108433210D01*
X165186609Y-108603695D01*
X165186609Y-108776305D01*
X165159607Y-108946790D01*
X165106267Y-109110952D01*
X165027904Y-109264748D01*
X164926447Y-109404393D01*
X164804393Y-109526447D01*
X164664748Y-109627904D01*
X164510952Y-109706267D01*
X164346790Y-109759607D01*
X164176305Y-109786609D01*
X164003695Y-109786609D01*
X163833210Y-109759607D01*
X163669048Y-109706267D01*
X163515252Y-109627904D01*
X163375607Y-109526447D01*
X163253553Y-109404393D01*
X163152096Y-109264748D01*
X163073733Y-109110952D01*
X163020393Y-108946790D01*
X162993391Y-108776305D01*
X162993391Y-108603695D01*
X163020393Y-108433210D01*
X163073733Y-108269048D01*
X163152096Y-108115252D01*
X163253553Y-107975607D01*
X163375607Y-107853553D01*
X163515252Y-107752096D01*
X163669048Y-107673733D01*
X163833210Y-107620393D01*
X164003695Y-107593391D01*
X164176305Y-107593391D01*
X164346790Y-107620393D01*
G37*
G36*
X166886790Y-107620393D02*
G01*
X167050952Y-107673733D01*
X167204748Y-107752096D01*
X167344393Y-107853553D01*
X167466447Y-107975607D01*
X167567904Y-108115252D01*
X167646267Y-108269048D01*
X167699607Y-108433210D01*
X167726609Y-108603695D01*
X167726609Y-108776305D01*
X167699607Y-108946790D01*
X167646267Y-109110952D01*
X167567904Y-109264748D01*
X167466447Y-109404393D01*
X167344393Y-109526447D01*
X167204748Y-109627904D01*
X167050952Y-109706267D01*
X166886790Y-109759607D01*
X166716305Y-109786609D01*
X166543695Y-109786609D01*
X166373210Y-109759607D01*
X166209048Y-109706267D01*
X166055252Y-109627904D01*
X165915607Y-109526447D01*
X165793553Y-109404393D01*
X165692096Y-109264748D01*
X165613733Y-109110952D01*
X165560393Y-108946790D01*
X165533391Y-108776305D01*
X165533391Y-108603695D01*
X165560393Y-108433210D01*
X165613733Y-108269048D01*
X165692096Y-108115252D01*
X165793553Y-107975607D01*
X165915607Y-107853553D01*
X166055252Y-107752096D01*
X166209048Y-107673733D01*
X166373210Y-107620393D01*
X166543695Y-107593391D01*
X166716305Y-107593391D01*
X166886790Y-107620393D01*
G37*
G36*
X169426790Y-107620393D02*
G01*
X169590952Y-107673733D01*
X169744748Y-107752096D01*
X169884393Y-107853553D01*
X170006447Y-107975607D01*
X170107904Y-108115252D01*
X170186267Y-108269048D01*
X170239607Y-108433210D01*
X170266609Y-108603695D01*
X170266609Y-108776305D01*
X170239607Y-108946790D01*
X170186267Y-109110952D01*
X170107904Y-109264748D01*
X170006447Y-109404393D01*
X169884393Y-109526447D01*
X169744748Y-109627904D01*
X169590952Y-109706267D01*
X169426790Y-109759607D01*
X169256305Y-109786609D01*
X169083695Y-109786609D01*
X168913210Y-109759607D01*
X168749048Y-109706267D01*
X168595252Y-109627904D01*
X168455607Y-109526447D01*
X168333553Y-109404393D01*
X168232096Y-109264748D01*
X168153733Y-109110952D01*
X168100393Y-108946790D01*
X168073391Y-108776305D01*
X168073391Y-108603695D01*
X168100393Y-108433210D01*
X168153733Y-108269048D01*
X168232096Y-108115252D01*
X168333553Y-107975607D01*
X168455607Y-107853553D01*
X168595252Y-107752096D01*
X168749048Y-107673733D01*
X168913210Y-107620393D01*
X169083695Y-107593391D01*
X169256305Y-107593391D01*
X169426790Y-107620393D01*
G37*
G36*
X171966790Y-107620393D02*
G01*
X172130952Y-107673733D01*
X172284748Y-107752096D01*
X172424393Y-107853553D01*
X172546447Y-107975607D01*
X172647904Y-108115252D01*
X172726267Y-108269048D01*
X172779607Y-108433210D01*
X172806609Y-108603695D01*
X172806609Y-108776305D01*
X172779607Y-108946790D01*
X172726267Y-109110952D01*
X172647904Y-109264748D01*
X172546447Y-109404393D01*
X172424393Y-109526447D01*
X172284748Y-109627904D01*
X172130952Y-109706267D01*
X171966790Y-109759607D01*
X171796305Y-109786609D01*
X171623695Y-109786609D01*
X171453210Y-109759607D01*
X171289048Y-109706267D01*
X171135252Y-109627904D01*
X170995607Y-109526447D01*
X170873553Y-109404393D01*
X170772096Y-109264748D01*
X170693733Y-109110952D01*
X170640393Y-108946790D01*
X170613391Y-108776305D01*
X170613391Y-108603695D01*
X170640393Y-108433210D01*
X170693733Y-108269048D01*
X170772096Y-108115252D01*
X170873553Y-107975607D01*
X170995607Y-107853553D01*
X171135252Y-107752096D01*
X171289048Y-107673733D01*
X171453210Y-107620393D01*
X171623695Y-107593391D01*
X171796305Y-107593391D01*
X171966790Y-107620393D01*
G37*
G36*
X174506790Y-107620393D02*
G01*
X174670952Y-107673733D01*
X174824748Y-107752096D01*
X174964393Y-107853553D01*
X175086447Y-107975607D01*
X175187904Y-108115252D01*
X175266267Y-108269048D01*
X175319607Y-108433210D01*
X175346609Y-108603695D01*
X175346609Y-108776305D01*
X175319607Y-108946790D01*
X175266267Y-109110952D01*
X175187904Y-109264748D01*
X175086447Y-109404393D01*
X174964393Y-109526447D01*
X174824748Y-109627904D01*
X174670952Y-109706267D01*
X174506790Y-109759607D01*
X174336305Y-109786609D01*
X174163695Y-109786609D01*
X173993210Y-109759607D01*
X173829048Y-109706267D01*
X173675252Y-109627904D01*
X173535607Y-109526447D01*
X173413553Y-109404393D01*
X173312096Y-109264748D01*
X173233733Y-109110952D01*
X173180393Y-108946790D01*
X173153391Y-108776305D01*
X173153391Y-108603695D01*
X173180393Y-108433210D01*
X173233733Y-108269048D01*
X173312096Y-108115252D01*
X173413553Y-107975607D01*
X173535607Y-107853553D01*
X173675252Y-107752096D01*
X173829048Y-107673733D01*
X173993210Y-107620393D01*
X174163695Y-107593391D01*
X174336305Y-107593391D01*
X174506790Y-107620393D01*
G37*
G36*
X177046790Y-107620393D02*
G01*
X177210952Y-107673733D01*
X177364748Y-107752096D01*
X177504393Y-107853553D01*
X177626447Y-107975607D01*
X177727904Y-108115252D01*
X177806267Y-108269048D01*
X177859607Y-108433210D01*
X177886609Y-108603695D01*
X177886609Y-108776305D01*
X177859607Y-108946790D01*
X177806267Y-109110952D01*
X177727904Y-109264748D01*
X177626447Y-109404393D01*
X177504393Y-109526447D01*
X177364748Y-109627904D01*
X177210952Y-109706267D01*
X177046790Y-109759607D01*
X176876305Y-109786609D01*
X176703695Y-109786609D01*
X176533210Y-109759607D01*
X176369048Y-109706267D01*
X176215252Y-109627904D01*
X176075607Y-109526447D01*
X175953553Y-109404393D01*
X175852096Y-109264748D01*
X175773733Y-109110952D01*
X175720393Y-108946790D01*
X175693391Y-108776305D01*
X175693391Y-108603695D01*
X175720393Y-108433210D01*
X175773733Y-108269048D01*
X175852096Y-108115252D01*
X175953553Y-107975607D01*
X176075607Y-107853553D01*
X176215252Y-107752096D01*
X176369048Y-107673733D01*
X176533210Y-107620393D01*
X176703695Y-107593391D01*
X176876305Y-107593391D01*
X177046790Y-107620393D01*
G37*
G36*
X179586790Y-107620393D02*
G01*
X179750952Y-107673733D01*
X179904748Y-107752096D01*
X180044393Y-107853553D01*
X180166447Y-107975607D01*
X180267904Y-108115252D01*
X180346267Y-108269048D01*
X180399607Y-108433210D01*
X180426609Y-108603695D01*
X180426609Y-108776305D01*
X180399607Y-108946790D01*
X180346267Y-109110952D01*
X180267904Y-109264748D01*
X180166447Y-109404393D01*
X180044393Y-109526447D01*
X179904748Y-109627904D01*
X179750952Y-109706267D01*
X179586790Y-109759607D01*
X179416305Y-109786609D01*
X179243695Y-109786609D01*
X179073210Y-109759607D01*
X178909048Y-109706267D01*
X178755252Y-109627904D01*
X178615607Y-109526447D01*
X178493553Y-109404393D01*
X178392096Y-109264748D01*
X178313733Y-109110952D01*
X178260393Y-108946790D01*
X178233391Y-108776305D01*
X178233391Y-108603695D01*
X178260393Y-108433210D01*
X178313733Y-108269048D01*
X178392096Y-108115252D01*
X178493553Y-107975607D01*
X178615607Y-107853553D01*
X178755252Y-107752096D01*
X178909048Y-107673733D01*
X179073210Y-107620393D01*
X179243695Y-107593391D01*
X179416305Y-107593391D01*
X179586790Y-107620393D01*
G37*
G36*
X182126790Y-107620393D02*
G01*
X182290952Y-107673733D01*
X182444748Y-107752096D01*
X182584393Y-107853553D01*
X182706447Y-107975607D01*
X182807904Y-108115252D01*
X182886267Y-108269048D01*
X182939607Y-108433210D01*
X182966609Y-108603695D01*
X182966609Y-108776305D01*
X182939607Y-108946790D01*
X182886267Y-109110952D01*
X182807904Y-109264748D01*
X182706447Y-109404393D01*
X182584393Y-109526447D01*
X182444748Y-109627904D01*
X182290952Y-109706267D01*
X182126790Y-109759607D01*
X181956305Y-109786609D01*
X181783695Y-109786609D01*
X181613210Y-109759607D01*
X181449048Y-109706267D01*
X181295252Y-109627904D01*
X181155607Y-109526447D01*
X181033553Y-109404393D01*
X180932096Y-109264748D01*
X180853733Y-109110952D01*
X180800393Y-108946790D01*
X180773391Y-108776305D01*
X180773391Y-108603695D01*
X180800393Y-108433210D01*
X180853733Y-108269048D01*
X180932096Y-108115252D01*
X181033553Y-107975607D01*
X181155607Y-107853553D01*
X181295252Y-107752096D01*
X181449048Y-107673733D01*
X181613210Y-107620393D01*
X181783695Y-107593391D01*
X181956305Y-107593391D01*
X182126790Y-107620393D01*
G37*
G36*
X184666790Y-107620393D02*
G01*
X184830952Y-107673733D01*
X184984748Y-107752096D01*
X185124393Y-107853553D01*
X185246447Y-107975607D01*
X185347904Y-108115252D01*
X185426267Y-108269048D01*
X185479607Y-108433210D01*
X185506609Y-108603695D01*
X185506609Y-108776305D01*
X185479607Y-108946790D01*
X185426267Y-109110952D01*
X185347904Y-109264748D01*
X185246447Y-109404393D01*
X185124393Y-109526447D01*
X184984748Y-109627904D01*
X184830952Y-109706267D01*
X184666790Y-109759607D01*
X184496305Y-109786609D01*
X184323695Y-109786609D01*
X184153210Y-109759607D01*
X183989048Y-109706267D01*
X183835252Y-109627904D01*
X183695607Y-109526447D01*
X183573553Y-109404393D01*
X183472096Y-109264748D01*
X183393733Y-109110952D01*
X183340393Y-108946790D01*
X183313391Y-108776305D01*
X183313391Y-108603695D01*
X183340393Y-108433210D01*
X183393733Y-108269048D01*
X183472096Y-108115252D01*
X183573553Y-107975607D01*
X183695607Y-107853553D01*
X183835252Y-107752096D01*
X183989048Y-107673733D01*
X184153210Y-107620393D01*
X184323695Y-107593391D01*
X184496305Y-107593391D01*
X184666790Y-107620393D01*
G37*
G36*
X187206790Y-107620393D02*
G01*
X187370952Y-107673733D01*
X187524748Y-107752096D01*
X187664393Y-107853553D01*
X187786447Y-107975607D01*
X187887904Y-108115252D01*
X187966267Y-108269048D01*
X188019607Y-108433210D01*
X188046609Y-108603695D01*
X188046609Y-108776305D01*
X188019607Y-108946790D01*
X187966267Y-109110952D01*
X187887904Y-109264748D01*
X187786447Y-109404393D01*
X187664393Y-109526447D01*
X187524748Y-109627904D01*
X187370952Y-109706267D01*
X187206790Y-109759607D01*
X187036305Y-109786609D01*
X186863695Y-109786609D01*
X186693210Y-109759607D01*
X186529048Y-109706267D01*
X186375252Y-109627904D01*
X186235607Y-109526447D01*
X186113553Y-109404393D01*
X186012096Y-109264748D01*
X185933733Y-109110952D01*
X185880393Y-108946790D01*
X185853391Y-108776305D01*
X185853391Y-108603695D01*
X185880393Y-108433210D01*
X185933733Y-108269048D01*
X186012096Y-108115252D01*
X186113553Y-107975607D01*
X186235607Y-107853553D01*
X186375252Y-107752096D01*
X186529048Y-107673733D01*
X186693210Y-107620393D01*
X186863695Y-107593391D01*
X187036305Y-107593391D01*
X187206790Y-107620393D01*
G37*
G36*
X189746790Y-107620393D02*
G01*
X189910952Y-107673733D01*
X190064748Y-107752096D01*
X190204393Y-107853553D01*
X190326447Y-107975607D01*
X190427904Y-108115252D01*
X190506267Y-108269048D01*
X190559607Y-108433210D01*
X190586609Y-108603695D01*
X190586609Y-108776305D01*
X190559607Y-108946790D01*
X190506267Y-109110952D01*
X190427904Y-109264748D01*
X190326447Y-109404393D01*
X190204393Y-109526447D01*
X190064748Y-109627904D01*
X189910952Y-109706267D01*
X189746790Y-109759607D01*
X189576305Y-109786609D01*
X189403695Y-109786609D01*
X189233210Y-109759607D01*
X189069048Y-109706267D01*
X188915252Y-109627904D01*
X188775607Y-109526447D01*
X188653553Y-109404393D01*
X188552096Y-109264748D01*
X188473733Y-109110952D01*
X188420393Y-108946790D01*
X188393391Y-108776305D01*
X188393391Y-108603695D01*
X188420393Y-108433210D01*
X188473733Y-108269048D01*
X188552096Y-108115252D01*
X188653553Y-107975607D01*
X188775607Y-107853553D01*
X188915252Y-107752096D01*
X189069048Y-107673733D01*
X189233210Y-107620393D01*
X189403695Y-107593391D01*
X189576305Y-107593391D01*
X189746790Y-107620393D01*
G37*
G36*
X192286790Y-107620393D02*
G01*
X192450952Y-107673733D01*
X192604748Y-107752096D01*
X192744393Y-107853553D01*
X192866447Y-107975607D01*
X192967904Y-108115252D01*
X193046267Y-108269048D01*
X193099607Y-108433210D01*
X193126609Y-108603695D01*
X193126609Y-108776305D01*
X193099607Y-108946790D01*
X193046267Y-109110952D01*
X192967904Y-109264748D01*
X192866447Y-109404393D01*
X192744393Y-109526447D01*
X192604748Y-109627904D01*
X192450952Y-109706267D01*
X192286790Y-109759607D01*
X192116305Y-109786609D01*
X191943695Y-109786609D01*
X191773210Y-109759607D01*
X191609048Y-109706267D01*
X191455252Y-109627904D01*
X191315607Y-109526447D01*
X191193553Y-109404393D01*
X191092096Y-109264748D01*
X191013733Y-109110952D01*
X190960393Y-108946790D01*
X190933391Y-108776305D01*
X190933391Y-108603695D01*
X190960393Y-108433210D01*
X191013733Y-108269048D01*
X191092096Y-108115252D01*
X191193553Y-107975607D01*
X191315607Y-107853553D01*
X191455252Y-107752096D01*
X191609048Y-107673733D01*
X191773210Y-107620393D01*
X191943695Y-107593391D01*
X192116305Y-107593391D01*
X192286790Y-107620393D01*
G37*
G36*
X123706790Y-105080393D02*
G01*
X123870952Y-105133733D01*
X124024748Y-105212096D01*
X124164393Y-105313553D01*
X124286447Y-105435607D01*
X124387904Y-105575252D01*
X124466267Y-105729048D01*
X124519607Y-105893210D01*
X124546609Y-106063695D01*
X124546609Y-106236305D01*
X124519607Y-106406790D01*
X124466267Y-106570952D01*
X124387904Y-106724748D01*
X124286447Y-106864393D01*
X124164393Y-106986447D01*
X124024748Y-107087904D01*
X123870952Y-107166267D01*
X123706790Y-107219607D01*
X123536305Y-107246609D01*
X123363695Y-107246609D01*
X123193210Y-107219607D01*
X123029048Y-107166267D01*
X122875252Y-107087904D01*
X122735607Y-106986447D01*
X122613553Y-106864393D01*
X122512096Y-106724748D01*
X122433733Y-106570952D01*
X122380393Y-106406790D01*
X122353391Y-106236305D01*
X122353391Y-106063695D01*
X122380393Y-105893210D01*
X122433733Y-105729048D01*
X122512096Y-105575252D01*
X122613553Y-105435607D01*
X122735607Y-105313553D01*
X122875252Y-105212096D01*
X123029048Y-105133733D01*
X123193210Y-105080393D01*
X123363695Y-105053391D01*
X123536305Y-105053391D01*
X123706790Y-105080393D01*
G37*
G36*
X126246790Y-105080393D02*
G01*
X126410952Y-105133733D01*
X126564748Y-105212096D01*
X126704393Y-105313553D01*
X126826447Y-105435607D01*
X126927904Y-105575252D01*
X127006267Y-105729048D01*
X127059607Y-105893210D01*
X127086609Y-106063695D01*
X127086609Y-106236305D01*
X127059607Y-106406790D01*
X127006267Y-106570952D01*
X126927904Y-106724748D01*
X126826447Y-106864393D01*
X126704393Y-106986447D01*
X126564748Y-107087904D01*
X126410952Y-107166267D01*
X126246790Y-107219607D01*
X126076305Y-107246609D01*
X125903695Y-107246609D01*
X125733210Y-107219607D01*
X125569048Y-107166267D01*
X125415252Y-107087904D01*
X125275607Y-106986447D01*
X125153553Y-106864393D01*
X125052096Y-106724748D01*
X124973733Y-106570952D01*
X124920393Y-106406790D01*
X124893391Y-106236305D01*
X124893391Y-106063695D01*
X124920393Y-105893210D01*
X124973733Y-105729048D01*
X125052096Y-105575252D01*
X125153553Y-105435607D01*
X125275607Y-105313553D01*
X125415252Y-105212096D01*
X125569048Y-105133733D01*
X125733210Y-105080393D01*
X125903695Y-105053391D01*
X126076305Y-105053391D01*
X126246790Y-105080393D01*
G37*
G36*
X128786790Y-105080393D02*
G01*
X128950952Y-105133733D01*
X129104748Y-105212096D01*
X129244393Y-105313553D01*
X129366447Y-105435607D01*
X129467904Y-105575252D01*
X129546267Y-105729048D01*
X129599607Y-105893210D01*
X129626609Y-106063695D01*
X129626609Y-106236305D01*
X129599607Y-106406790D01*
X129546267Y-106570952D01*
X129467904Y-106724748D01*
X129366447Y-106864393D01*
X129244393Y-106986447D01*
X129104748Y-107087904D01*
X128950952Y-107166267D01*
X128786790Y-107219607D01*
X128616305Y-107246609D01*
X128443695Y-107246609D01*
X128273210Y-107219607D01*
X128109048Y-107166267D01*
X127955252Y-107087904D01*
X127815607Y-106986447D01*
X127693553Y-106864393D01*
X127592096Y-106724748D01*
X127513733Y-106570952D01*
X127460393Y-106406790D01*
X127433391Y-106236305D01*
X127433391Y-106063695D01*
X127460393Y-105893210D01*
X127513733Y-105729048D01*
X127592096Y-105575252D01*
X127693553Y-105435607D01*
X127815607Y-105313553D01*
X127955252Y-105212096D01*
X128109048Y-105133733D01*
X128273210Y-105080393D01*
X128443695Y-105053391D01*
X128616305Y-105053391D01*
X128786790Y-105080393D01*
G37*
G36*
X131326790Y-105080393D02*
G01*
X131490952Y-105133733D01*
X131644748Y-105212096D01*
X131784393Y-105313553D01*
X131906447Y-105435607D01*
X132007904Y-105575252D01*
X132086267Y-105729048D01*
X132139607Y-105893210D01*
X132166609Y-106063695D01*
X132166609Y-106236305D01*
X132139607Y-106406790D01*
X132086267Y-106570952D01*
X132007904Y-106724748D01*
X131906447Y-106864393D01*
X131784393Y-106986447D01*
X131644748Y-107087904D01*
X131490952Y-107166267D01*
X131326790Y-107219607D01*
X131156305Y-107246609D01*
X130983695Y-107246609D01*
X130813210Y-107219607D01*
X130649048Y-107166267D01*
X130495252Y-107087904D01*
X130355607Y-106986447D01*
X130233553Y-106864393D01*
X130132096Y-106724748D01*
X130053733Y-106570952D01*
X130000393Y-106406790D01*
X129973391Y-106236305D01*
X129973391Y-106063695D01*
X130000393Y-105893210D01*
X130053733Y-105729048D01*
X130132096Y-105575252D01*
X130233553Y-105435607D01*
X130355607Y-105313553D01*
X130495252Y-105212096D01*
X130649048Y-105133733D01*
X130813210Y-105080393D01*
X130983695Y-105053391D01*
X131156305Y-105053391D01*
X131326790Y-105080393D01*
G37*
G36*
X133866790Y-105080393D02*
G01*
X134030952Y-105133733D01*
X134184748Y-105212096D01*
X134324393Y-105313553D01*
X134446447Y-105435607D01*
X134547904Y-105575252D01*
X134626267Y-105729048D01*
X134679607Y-105893210D01*
X134706609Y-106063695D01*
X134706609Y-106236305D01*
X134679607Y-106406790D01*
X134626267Y-106570952D01*
X134547904Y-106724748D01*
X134446447Y-106864393D01*
X134324393Y-106986447D01*
X134184748Y-107087904D01*
X134030952Y-107166267D01*
X133866790Y-107219607D01*
X133696305Y-107246609D01*
X133523695Y-107246609D01*
X133353210Y-107219607D01*
X133189048Y-107166267D01*
X133035252Y-107087904D01*
X132895607Y-106986447D01*
X132773553Y-106864393D01*
X132672096Y-106724748D01*
X132593733Y-106570952D01*
X132540393Y-106406790D01*
X132513391Y-106236305D01*
X132513391Y-106063695D01*
X132540393Y-105893210D01*
X132593733Y-105729048D01*
X132672096Y-105575252D01*
X132773553Y-105435607D01*
X132895607Y-105313553D01*
X133035252Y-105212096D01*
X133189048Y-105133733D01*
X133353210Y-105080393D01*
X133523695Y-105053391D01*
X133696305Y-105053391D01*
X133866790Y-105080393D01*
G37*
G36*
X136406790Y-105080393D02*
G01*
X136570952Y-105133733D01*
X136724748Y-105212096D01*
X136864393Y-105313553D01*
X136986447Y-105435607D01*
X137087904Y-105575252D01*
X137166267Y-105729048D01*
X137219607Y-105893210D01*
X137246609Y-106063695D01*
X137246609Y-106236305D01*
X137219607Y-106406790D01*
X137166267Y-106570952D01*
X137087904Y-106724748D01*
X136986447Y-106864393D01*
X136864393Y-106986447D01*
X136724748Y-107087904D01*
X136570952Y-107166267D01*
X136406790Y-107219607D01*
X136236305Y-107246609D01*
X136063695Y-107246609D01*
X135893210Y-107219607D01*
X135729048Y-107166267D01*
X135575252Y-107087904D01*
X135435607Y-106986447D01*
X135313553Y-106864393D01*
X135212096Y-106724748D01*
X135133733Y-106570952D01*
X135080393Y-106406790D01*
X135053391Y-106236305D01*
X135053391Y-106063695D01*
X135080393Y-105893210D01*
X135133733Y-105729048D01*
X135212096Y-105575252D01*
X135313553Y-105435607D01*
X135435607Y-105313553D01*
X135575252Y-105212096D01*
X135729048Y-105133733D01*
X135893210Y-105080393D01*
X136063695Y-105053391D01*
X136236305Y-105053391D01*
X136406790Y-105080393D01*
G37*
G36*
X138946790Y-105080393D02*
G01*
X139110952Y-105133733D01*
X139264748Y-105212096D01*
X139404393Y-105313553D01*
X139526447Y-105435607D01*
X139627904Y-105575252D01*
X139706267Y-105729048D01*
X139759607Y-105893210D01*
X139786609Y-106063695D01*
X139786609Y-106236305D01*
X139759607Y-106406790D01*
X139706267Y-106570952D01*
X139627904Y-106724748D01*
X139526447Y-106864393D01*
X139404393Y-106986447D01*
X139264748Y-107087904D01*
X139110952Y-107166267D01*
X138946790Y-107219607D01*
X138776305Y-107246609D01*
X138603695Y-107246609D01*
X138433210Y-107219607D01*
X138269048Y-107166267D01*
X138115252Y-107087904D01*
X137975607Y-106986447D01*
X137853553Y-106864393D01*
X137752096Y-106724748D01*
X137673733Y-106570952D01*
X137620393Y-106406790D01*
X137593391Y-106236305D01*
X137593391Y-106063695D01*
X137620393Y-105893210D01*
X137673733Y-105729048D01*
X137752096Y-105575252D01*
X137853553Y-105435607D01*
X137975607Y-105313553D01*
X138115252Y-105212096D01*
X138269048Y-105133733D01*
X138433210Y-105080393D01*
X138603695Y-105053391D01*
X138776305Y-105053391D01*
X138946790Y-105080393D01*
G37*
G36*
X141486790Y-105080393D02*
G01*
X141650952Y-105133733D01*
X141804748Y-105212096D01*
X141944393Y-105313553D01*
X142066447Y-105435607D01*
X142167904Y-105575252D01*
X142246267Y-105729048D01*
X142299607Y-105893210D01*
X142326609Y-106063695D01*
X142326609Y-106236305D01*
X142299607Y-106406790D01*
X142246267Y-106570952D01*
X142167904Y-106724748D01*
X142066447Y-106864393D01*
X141944393Y-106986447D01*
X141804748Y-107087904D01*
X141650952Y-107166267D01*
X141486790Y-107219607D01*
X141316305Y-107246609D01*
X141143695Y-107246609D01*
X140973210Y-107219607D01*
X140809048Y-107166267D01*
X140655252Y-107087904D01*
X140515607Y-106986447D01*
X140393553Y-106864393D01*
X140292096Y-106724748D01*
X140213733Y-106570952D01*
X140160393Y-106406790D01*
X140133391Y-106236305D01*
X140133391Y-106063695D01*
X140160393Y-105893210D01*
X140213733Y-105729048D01*
X140292096Y-105575252D01*
X140393553Y-105435607D01*
X140515607Y-105313553D01*
X140655252Y-105212096D01*
X140809048Y-105133733D01*
X140973210Y-105080393D01*
X141143695Y-105053391D01*
X141316305Y-105053391D01*
X141486790Y-105080393D01*
G37*
G36*
X144026790Y-105080393D02*
G01*
X144190952Y-105133733D01*
X144344748Y-105212096D01*
X144484393Y-105313553D01*
X144606447Y-105435607D01*
X144707904Y-105575252D01*
X144786267Y-105729048D01*
X144839607Y-105893210D01*
X144866609Y-106063695D01*
X144866609Y-106236305D01*
X144839607Y-106406790D01*
X144786267Y-106570952D01*
X144707904Y-106724748D01*
X144606447Y-106864393D01*
X144484393Y-106986447D01*
X144344748Y-107087904D01*
X144190952Y-107166267D01*
X144026790Y-107219607D01*
X143856305Y-107246609D01*
X143683695Y-107246609D01*
X143513210Y-107219607D01*
X143349048Y-107166267D01*
X143195252Y-107087904D01*
X143055607Y-106986447D01*
X142933553Y-106864393D01*
X142832096Y-106724748D01*
X142753733Y-106570952D01*
X142700393Y-106406790D01*
X142673391Y-106236305D01*
X142673391Y-106063695D01*
X142700393Y-105893210D01*
X142753733Y-105729048D01*
X142832096Y-105575252D01*
X142933553Y-105435607D01*
X143055607Y-105313553D01*
X143195252Y-105212096D01*
X143349048Y-105133733D01*
X143513210Y-105080393D01*
X143683695Y-105053391D01*
X143856305Y-105053391D01*
X144026790Y-105080393D01*
G37*
G36*
X146566790Y-105080393D02*
G01*
X146730952Y-105133733D01*
X146884748Y-105212096D01*
X147024393Y-105313553D01*
X147146447Y-105435607D01*
X147247904Y-105575252D01*
X147326267Y-105729048D01*
X147379607Y-105893210D01*
X147406609Y-106063695D01*
X147406609Y-106236305D01*
X147379607Y-106406790D01*
X147326267Y-106570952D01*
X147247904Y-106724748D01*
X147146447Y-106864393D01*
X147024393Y-106986447D01*
X146884748Y-107087904D01*
X146730952Y-107166267D01*
X146566790Y-107219607D01*
X146396305Y-107246609D01*
X146223695Y-107246609D01*
X146053210Y-107219607D01*
X145889048Y-107166267D01*
X145735252Y-107087904D01*
X145595607Y-106986447D01*
X145473553Y-106864393D01*
X145372096Y-106724748D01*
X145293733Y-106570952D01*
X145240393Y-106406790D01*
X145213391Y-106236305D01*
X145213391Y-106063695D01*
X145240393Y-105893210D01*
X145293733Y-105729048D01*
X145372096Y-105575252D01*
X145473553Y-105435607D01*
X145595607Y-105313553D01*
X145735252Y-105212096D01*
X145889048Y-105133733D01*
X146053210Y-105080393D01*
X146223695Y-105053391D01*
X146396305Y-105053391D01*
X146566790Y-105080393D01*
G37*
G36*
X149106790Y-105080393D02*
G01*
X149270952Y-105133733D01*
X149424748Y-105212096D01*
X149564393Y-105313553D01*
X149686447Y-105435607D01*
X149787904Y-105575252D01*
X149866267Y-105729048D01*
X149919607Y-105893210D01*
X149946609Y-106063695D01*
X149946609Y-106236305D01*
X149919607Y-106406790D01*
X149866267Y-106570952D01*
X149787904Y-106724748D01*
X149686447Y-106864393D01*
X149564393Y-106986447D01*
X149424748Y-107087904D01*
X149270952Y-107166267D01*
X149106790Y-107219607D01*
X148936305Y-107246609D01*
X148763695Y-107246609D01*
X148593210Y-107219607D01*
X148429048Y-107166267D01*
X148275252Y-107087904D01*
X148135607Y-106986447D01*
X148013553Y-106864393D01*
X147912096Y-106724748D01*
X147833733Y-106570952D01*
X147780393Y-106406790D01*
X147753391Y-106236305D01*
X147753391Y-106063695D01*
X147780393Y-105893210D01*
X147833733Y-105729048D01*
X147912096Y-105575252D01*
X148013553Y-105435607D01*
X148135607Y-105313553D01*
X148275252Y-105212096D01*
X148429048Y-105133733D01*
X148593210Y-105080393D01*
X148763695Y-105053391D01*
X148936305Y-105053391D01*
X149106790Y-105080393D01*
G37*
G36*
X151646790Y-105080393D02*
G01*
X151810952Y-105133733D01*
X151964748Y-105212096D01*
X152104393Y-105313553D01*
X152226447Y-105435607D01*
X152327904Y-105575252D01*
X152406267Y-105729048D01*
X152459607Y-105893210D01*
X152486609Y-106063695D01*
X152486609Y-106236305D01*
X152459607Y-106406790D01*
X152406267Y-106570952D01*
X152327904Y-106724748D01*
X152226447Y-106864393D01*
X152104393Y-106986447D01*
X151964748Y-107087904D01*
X151810952Y-107166267D01*
X151646790Y-107219607D01*
X151476305Y-107246609D01*
X151303695Y-107246609D01*
X151133210Y-107219607D01*
X150969048Y-107166267D01*
X150815252Y-107087904D01*
X150675607Y-106986447D01*
X150553553Y-106864393D01*
X150452096Y-106724748D01*
X150373733Y-106570952D01*
X150320393Y-106406790D01*
X150293391Y-106236305D01*
X150293391Y-106063695D01*
X150320393Y-105893210D01*
X150373733Y-105729048D01*
X150452096Y-105575252D01*
X150553553Y-105435607D01*
X150675607Y-105313553D01*
X150815252Y-105212096D01*
X150969048Y-105133733D01*
X151133210Y-105080393D01*
X151303695Y-105053391D01*
X151476305Y-105053391D01*
X151646790Y-105080393D01*
G37*
G36*
X154186790Y-105080393D02*
G01*
X154350952Y-105133733D01*
X154504748Y-105212096D01*
X154644393Y-105313553D01*
X154766447Y-105435607D01*
X154867904Y-105575252D01*
X154946267Y-105729048D01*
X154999607Y-105893210D01*
X155026609Y-106063695D01*
X155026609Y-106236305D01*
X154999607Y-106406790D01*
X154946267Y-106570952D01*
X154867904Y-106724748D01*
X154766447Y-106864393D01*
X154644393Y-106986447D01*
X154504748Y-107087904D01*
X154350952Y-107166267D01*
X154186790Y-107219607D01*
X154016305Y-107246609D01*
X153843695Y-107246609D01*
X153673210Y-107219607D01*
X153509048Y-107166267D01*
X153355252Y-107087904D01*
X153215607Y-106986447D01*
X153093553Y-106864393D01*
X152992096Y-106724748D01*
X152913733Y-106570952D01*
X152860393Y-106406790D01*
X152833391Y-106236305D01*
X152833391Y-106063695D01*
X152860393Y-105893210D01*
X152913733Y-105729048D01*
X152992096Y-105575252D01*
X153093553Y-105435607D01*
X153215607Y-105313553D01*
X153355252Y-105212096D01*
X153509048Y-105133733D01*
X153673210Y-105080393D01*
X153843695Y-105053391D01*
X154016305Y-105053391D01*
X154186790Y-105080393D01*
G37*
G36*
X156726790Y-105080393D02*
G01*
X156890952Y-105133733D01*
X157044748Y-105212096D01*
X157184393Y-105313553D01*
X157306447Y-105435607D01*
X157407904Y-105575252D01*
X157486267Y-105729048D01*
X157539607Y-105893210D01*
X157566609Y-106063695D01*
X157566609Y-106236305D01*
X157539607Y-106406790D01*
X157486267Y-106570952D01*
X157407904Y-106724748D01*
X157306447Y-106864393D01*
X157184393Y-106986447D01*
X157044748Y-107087904D01*
X156890952Y-107166267D01*
X156726790Y-107219607D01*
X156556305Y-107246609D01*
X156383695Y-107246609D01*
X156213210Y-107219607D01*
X156049048Y-107166267D01*
X155895252Y-107087904D01*
X155755607Y-106986447D01*
X155633553Y-106864393D01*
X155532096Y-106724748D01*
X155453733Y-106570952D01*
X155400393Y-106406790D01*
X155373391Y-106236305D01*
X155373391Y-106063695D01*
X155400393Y-105893210D01*
X155453733Y-105729048D01*
X155532096Y-105575252D01*
X155633553Y-105435607D01*
X155755607Y-105313553D01*
X155895252Y-105212096D01*
X156049048Y-105133733D01*
X156213210Y-105080393D01*
X156383695Y-105053391D01*
X156556305Y-105053391D01*
X156726790Y-105080393D01*
G37*
G36*
X159266790Y-105080393D02*
G01*
X159430952Y-105133733D01*
X159584748Y-105212096D01*
X159724393Y-105313553D01*
X159846447Y-105435607D01*
X159947904Y-105575252D01*
X160026267Y-105729048D01*
X160079607Y-105893210D01*
X160106609Y-106063695D01*
X160106609Y-106236305D01*
X160079607Y-106406790D01*
X160026267Y-106570952D01*
X159947904Y-106724748D01*
X159846447Y-106864393D01*
X159724393Y-106986447D01*
X159584748Y-107087904D01*
X159430952Y-107166267D01*
X159266790Y-107219607D01*
X159096305Y-107246609D01*
X158923695Y-107246609D01*
X158753210Y-107219607D01*
X158589048Y-107166267D01*
X158435252Y-107087904D01*
X158295607Y-106986447D01*
X158173553Y-106864393D01*
X158072096Y-106724748D01*
X157993733Y-106570952D01*
X157940393Y-106406790D01*
X157913391Y-106236305D01*
X157913391Y-106063695D01*
X157940393Y-105893210D01*
X157993733Y-105729048D01*
X158072096Y-105575252D01*
X158173553Y-105435607D01*
X158295607Y-105313553D01*
X158435252Y-105212096D01*
X158589048Y-105133733D01*
X158753210Y-105080393D01*
X158923695Y-105053391D01*
X159096305Y-105053391D01*
X159266790Y-105080393D01*
G37*
G36*
X161806790Y-105080393D02*
G01*
X161970952Y-105133733D01*
X162124748Y-105212096D01*
X162264393Y-105313553D01*
X162386447Y-105435607D01*
X162487904Y-105575252D01*
X162566267Y-105729048D01*
X162619607Y-105893210D01*
X162646609Y-106063695D01*
X162646609Y-106236305D01*
X162619607Y-106406790D01*
X162566267Y-106570952D01*
X162487904Y-106724748D01*
X162386447Y-106864393D01*
X162264393Y-106986447D01*
X162124748Y-107087904D01*
X161970952Y-107166267D01*
X161806790Y-107219607D01*
X161636305Y-107246609D01*
X161463695Y-107246609D01*
X161293210Y-107219607D01*
X161129048Y-107166267D01*
X160975252Y-107087904D01*
X160835607Y-106986447D01*
X160713553Y-106864393D01*
X160612096Y-106724748D01*
X160533733Y-106570952D01*
X160480393Y-106406790D01*
X160453391Y-106236305D01*
X160453391Y-106063695D01*
X160480393Y-105893210D01*
X160533733Y-105729048D01*
X160612096Y-105575252D01*
X160713553Y-105435607D01*
X160835607Y-105313553D01*
X160975252Y-105212096D01*
X161129048Y-105133733D01*
X161293210Y-105080393D01*
X161463695Y-105053391D01*
X161636305Y-105053391D01*
X161806790Y-105080393D01*
G37*
G36*
X164346790Y-105080393D02*
G01*
X164510952Y-105133733D01*
X164664748Y-105212096D01*
X164804393Y-105313553D01*
X164926447Y-105435607D01*
X165027904Y-105575252D01*
X165106267Y-105729048D01*
X165159607Y-105893210D01*
X165186609Y-106063695D01*
X165186609Y-106236305D01*
X165159607Y-106406790D01*
X165106267Y-106570952D01*
X165027904Y-106724748D01*
X164926447Y-106864393D01*
X164804393Y-106986447D01*
X164664748Y-107087904D01*
X164510952Y-107166267D01*
X164346790Y-107219607D01*
X164176305Y-107246609D01*
X164003695Y-107246609D01*
X163833210Y-107219607D01*
X163669048Y-107166267D01*
X163515252Y-107087904D01*
X163375607Y-106986447D01*
X163253553Y-106864393D01*
X163152096Y-106724748D01*
X163073733Y-106570952D01*
X163020393Y-106406790D01*
X162993391Y-106236305D01*
X162993391Y-106063695D01*
X163020393Y-105893210D01*
X163073733Y-105729048D01*
X163152096Y-105575252D01*
X163253553Y-105435607D01*
X163375607Y-105313553D01*
X163515252Y-105212096D01*
X163669048Y-105133733D01*
X163833210Y-105080393D01*
X164003695Y-105053391D01*
X164176305Y-105053391D01*
X164346790Y-105080393D01*
G37*
G36*
X166886790Y-105080393D02*
G01*
X167050952Y-105133733D01*
X167204748Y-105212096D01*
X167344393Y-105313553D01*
X167466447Y-105435607D01*
X167567904Y-105575252D01*
X167646267Y-105729048D01*
X167699607Y-105893210D01*
X167726609Y-106063695D01*
X167726609Y-106236305D01*
X167699607Y-106406790D01*
X167646267Y-106570952D01*
X167567904Y-106724748D01*
X167466447Y-106864393D01*
X167344393Y-106986447D01*
X167204748Y-107087904D01*
X167050952Y-107166267D01*
X166886790Y-107219607D01*
X166716305Y-107246609D01*
X166543695Y-107246609D01*
X166373210Y-107219607D01*
X166209048Y-107166267D01*
X166055252Y-107087904D01*
X165915607Y-106986447D01*
X165793553Y-106864393D01*
X165692096Y-106724748D01*
X165613733Y-106570952D01*
X165560393Y-106406790D01*
X165533391Y-106236305D01*
X165533391Y-106063695D01*
X165560393Y-105893210D01*
X165613733Y-105729048D01*
X165692096Y-105575252D01*
X165793553Y-105435607D01*
X165915607Y-105313553D01*
X166055252Y-105212096D01*
X166209048Y-105133733D01*
X166373210Y-105080393D01*
X166543695Y-105053391D01*
X166716305Y-105053391D01*
X166886790Y-105080393D01*
G37*
G36*
X169426790Y-105080393D02*
G01*
X169590952Y-105133733D01*
X169744748Y-105212096D01*
X169884393Y-105313553D01*
X170006447Y-105435607D01*
X170107904Y-105575252D01*
X170186267Y-105729048D01*
X170239607Y-105893210D01*
X170266609Y-106063695D01*
X170266609Y-106236305D01*
X170239607Y-106406790D01*
X170186267Y-106570952D01*
X170107904Y-106724748D01*
X170006447Y-106864393D01*
X169884393Y-106986447D01*
X169744748Y-107087904D01*
X169590952Y-107166267D01*
X169426790Y-107219607D01*
X169256305Y-107246609D01*
X169083695Y-107246609D01*
X168913210Y-107219607D01*
X168749048Y-107166267D01*
X168595252Y-107087904D01*
X168455607Y-106986447D01*
X168333553Y-106864393D01*
X168232096Y-106724748D01*
X168153733Y-106570952D01*
X168100393Y-106406790D01*
X168073391Y-106236305D01*
X168073391Y-106063695D01*
X168100393Y-105893210D01*
X168153733Y-105729048D01*
X168232096Y-105575252D01*
X168333553Y-105435607D01*
X168455607Y-105313553D01*
X168595252Y-105212096D01*
X168749048Y-105133733D01*
X168913210Y-105080393D01*
X169083695Y-105053391D01*
X169256305Y-105053391D01*
X169426790Y-105080393D01*
G37*
G36*
X171966790Y-105080393D02*
G01*
X172130952Y-105133733D01*
X172284748Y-105212096D01*
X172424393Y-105313553D01*
X172546447Y-105435607D01*
X172647904Y-105575252D01*
X172726267Y-105729048D01*
X172779607Y-105893210D01*
X172806609Y-106063695D01*
X172806609Y-106236305D01*
X172779607Y-106406790D01*
X172726267Y-106570952D01*
X172647904Y-106724748D01*
X172546447Y-106864393D01*
X172424393Y-106986447D01*
X172284748Y-107087904D01*
X172130952Y-107166267D01*
X171966790Y-107219607D01*
X171796305Y-107246609D01*
X171623695Y-107246609D01*
X171453210Y-107219607D01*
X171289048Y-107166267D01*
X171135252Y-107087904D01*
X170995607Y-106986447D01*
X170873553Y-106864393D01*
X170772096Y-106724748D01*
X170693733Y-106570952D01*
X170640393Y-106406790D01*
X170613391Y-106236305D01*
X170613391Y-106063695D01*
X170640393Y-105893210D01*
X170693733Y-105729048D01*
X170772096Y-105575252D01*
X170873553Y-105435607D01*
X170995607Y-105313553D01*
X171135252Y-105212096D01*
X171289048Y-105133733D01*
X171453210Y-105080393D01*
X171623695Y-105053391D01*
X171796305Y-105053391D01*
X171966790Y-105080393D01*
G37*
G36*
X174506790Y-105080393D02*
G01*
X174670952Y-105133733D01*
X174824748Y-105212096D01*
X174964393Y-105313553D01*
X175086447Y-105435607D01*
X175187904Y-105575252D01*
X175266267Y-105729048D01*
X175319607Y-105893210D01*
X175346609Y-106063695D01*
X175346609Y-106236305D01*
X175319607Y-106406790D01*
X175266267Y-106570952D01*
X175187904Y-106724748D01*
X175086447Y-106864393D01*
X174964393Y-106986447D01*
X174824748Y-107087904D01*
X174670952Y-107166267D01*
X174506790Y-107219607D01*
X174336305Y-107246609D01*
X174163695Y-107246609D01*
X173993210Y-107219607D01*
X173829048Y-107166267D01*
X173675252Y-107087904D01*
X173535607Y-106986447D01*
X173413553Y-106864393D01*
X173312096Y-106724748D01*
X173233733Y-106570952D01*
X173180393Y-106406790D01*
X173153391Y-106236305D01*
X173153391Y-106063695D01*
X173180393Y-105893210D01*
X173233733Y-105729048D01*
X173312096Y-105575252D01*
X173413553Y-105435607D01*
X173535607Y-105313553D01*
X173675252Y-105212096D01*
X173829048Y-105133733D01*
X173993210Y-105080393D01*
X174163695Y-105053391D01*
X174336305Y-105053391D01*
X174506790Y-105080393D01*
G37*
G36*
X177046790Y-105080393D02*
G01*
X177210952Y-105133733D01*
X177364748Y-105212096D01*
X177504393Y-105313553D01*
X177626447Y-105435607D01*
X177727904Y-105575252D01*
X177806267Y-105729048D01*
X177859607Y-105893210D01*
X177886609Y-106063695D01*
X177886609Y-106236305D01*
X177859607Y-106406790D01*
X177806267Y-106570952D01*
X177727904Y-106724748D01*
X177626447Y-106864393D01*
X177504393Y-106986447D01*
X177364748Y-107087904D01*
X177210952Y-107166267D01*
X177046790Y-107219607D01*
X176876305Y-107246609D01*
X176703695Y-107246609D01*
X176533210Y-107219607D01*
X176369048Y-107166267D01*
X176215252Y-107087904D01*
X176075607Y-106986447D01*
X175953553Y-106864393D01*
X175852096Y-106724748D01*
X175773733Y-106570952D01*
X175720393Y-106406790D01*
X175693391Y-106236305D01*
X175693391Y-106063695D01*
X175720393Y-105893210D01*
X175773733Y-105729048D01*
X175852096Y-105575252D01*
X175953553Y-105435607D01*
X176075607Y-105313553D01*
X176215252Y-105212096D01*
X176369048Y-105133733D01*
X176533210Y-105080393D01*
X176703695Y-105053391D01*
X176876305Y-105053391D01*
X177046790Y-105080393D01*
G37*
G36*
X179586790Y-105080393D02*
G01*
X179750952Y-105133733D01*
X179904748Y-105212096D01*
X180044393Y-105313553D01*
X180166447Y-105435607D01*
X180267904Y-105575252D01*
X180346267Y-105729048D01*
X180399607Y-105893210D01*
X180426609Y-106063695D01*
X180426609Y-106236305D01*
X180399607Y-106406790D01*
X180346267Y-106570952D01*
X180267904Y-106724748D01*
X180166447Y-106864393D01*
X180044393Y-106986447D01*
X179904748Y-107087904D01*
X179750952Y-107166267D01*
X179586790Y-107219607D01*
X179416305Y-107246609D01*
X179243695Y-107246609D01*
X179073210Y-107219607D01*
X178909048Y-107166267D01*
X178755252Y-107087904D01*
X178615607Y-106986447D01*
X178493553Y-106864393D01*
X178392096Y-106724748D01*
X178313733Y-106570952D01*
X178260393Y-106406790D01*
X178233391Y-106236305D01*
X178233391Y-106063695D01*
X178260393Y-105893210D01*
X178313733Y-105729048D01*
X178392096Y-105575252D01*
X178493553Y-105435607D01*
X178615607Y-105313553D01*
X178755252Y-105212096D01*
X178909048Y-105133733D01*
X179073210Y-105080393D01*
X179243695Y-105053391D01*
X179416305Y-105053391D01*
X179586790Y-105080393D01*
G37*
G36*
X182126790Y-105080393D02*
G01*
X182290952Y-105133733D01*
X182444748Y-105212096D01*
X182584393Y-105313553D01*
X182706447Y-105435607D01*
X182807904Y-105575252D01*
X182886267Y-105729048D01*
X182939607Y-105893210D01*
X182966609Y-106063695D01*
X182966609Y-106236305D01*
X182939607Y-106406790D01*
X182886267Y-106570952D01*
X182807904Y-106724748D01*
X182706447Y-106864393D01*
X182584393Y-106986447D01*
X182444748Y-107087904D01*
X182290952Y-107166267D01*
X182126790Y-107219607D01*
X181956305Y-107246609D01*
X181783695Y-107246609D01*
X181613210Y-107219607D01*
X181449048Y-107166267D01*
X181295252Y-107087904D01*
X181155607Y-106986447D01*
X181033553Y-106864393D01*
X180932096Y-106724748D01*
X180853733Y-106570952D01*
X180800393Y-106406790D01*
X180773391Y-106236305D01*
X180773391Y-106063695D01*
X180800393Y-105893210D01*
X180853733Y-105729048D01*
X180932096Y-105575252D01*
X181033553Y-105435607D01*
X181155607Y-105313553D01*
X181295252Y-105212096D01*
X181449048Y-105133733D01*
X181613210Y-105080393D01*
X181783695Y-105053391D01*
X181956305Y-105053391D01*
X182126790Y-105080393D01*
G37*
G36*
X184666790Y-105080393D02*
G01*
X184830952Y-105133733D01*
X184984748Y-105212096D01*
X185124393Y-105313553D01*
X185246447Y-105435607D01*
X185347904Y-105575252D01*
X185426267Y-105729048D01*
X185479607Y-105893210D01*
X185506609Y-106063695D01*
X185506609Y-106236305D01*
X185479607Y-106406790D01*
X185426267Y-106570952D01*
X185347904Y-106724748D01*
X185246447Y-106864393D01*
X185124393Y-106986447D01*
X184984748Y-107087904D01*
X184830952Y-107166267D01*
X184666790Y-107219607D01*
X184496305Y-107246609D01*
X184323695Y-107246609D01*
X184153210Y-107219607D01*
X183989048Y-107166267D01*
X183835252Y-107087904D01*
X183695607Y-106986447D01*
X183573553Y-106864393D01*
X183472096Y-106724748D01*
X183393733Y-106570952D01*
X183340393Y-106406790D01*
X183313391Y-106236305D01*
X183313391Y-106063695D01*
X183340393Y-105893210D01*
X183393733Y-105729048D01*
X183472096Y-105575252D01*
X183573553Y-105435607D01*
X183695607Y-105313553D01*
X183835252Y-105212096D01*
X183989048Y-105133733D01*
X184153210Y-105080393D01*
X184323695Y-105053391D01*
X184496305Y-105053391D01*
X184666790Y-105080393D01*
G37*
G36*
X187206790Y-105080393D02*
G01*
X187370952Y-105133733D01*
X187524748Y-105212096D01*
X187664393Y-105313553D01*
X187786447Y-105435607D01*
X187887904Y-105575252D01*
X187966267Y-105729048D01*
X188019607Y-105893210D01*
X188046609Y-106063695D01*
X188046609Y-106236305D01*
X188019607Y-106406790D01*
X187966267Y-106570952D01*
X187887904Y-106724748D01*
X187786447Y-106864393D01*
X187664393Y-106986447D01*
X187524748Y-107087904D01*
X187370952Y-107166267D01*
X187206790Y-107219607D01*
X187036305Y-107246609D01*
X186863695Y-107246609D01*
X186693210Y-107219607D01*
X186529048Y-107166267D01*
X186375252Y-107087904D01*
X186235607Y-106986447D01*
X186113553Y-106864393D01*
X186012096Y-106724748D01*
X185933733Y-106570952D01*
X185880393Y-106406790D01*
X185853391Y-106236305D01*
X185853391Y-106063695D01*
X185880393Y-105893210D01*
X185933733Y-105729048D01*
X186012096Y-105575252D01*
X186113553Y-105435607D01*
X186235607Y-105313553D01*
X186375252Y-105212096D01*
X186529048Y-105133733D01*
X186693210Y-105080393D01*
X186863695Y-105053391D01*
X187036305Y-105053391D01*
X187206790Y-105080393D01*
G37*
G36*
X189746790Y-105080393D02*
G01*
X189910952Y-105133733D01*
X190064748Y-105212096D01*
X190204393Y-105313553D01*
X190326447Y-105435607D01*
X190427904Y-105575252D01*
X190506267Y-105729048D01*
X190559607Y-105893210D01*
X190586609Y-106063695D01*
X190586609Y-106236305D01*
X190559607Y-106406790D01*
X190506267Y-106570952D01*
X190427904Y-106724748D01*
X190326447Y-106864393D01*
X190204393Y-106986447D01*
X190064748Y-107087904D01*
X189910952Y-107166267D01*
X189746790Y-107219607D01*
X189576305Y-107246609D01*
X189403695Y-107246609D01*
X189233210Y-107219607D01*
X189069048Y-107166267D01*
X188915252Y-107087904D01*
X188775607Y-106986447D01*
X188653553Y-106864393D01*
X188552096Y-106724748D01*
X188473733Y-106570952D01*
X188420393Y-106406790D01*
X188393391Y-106236305D01*
X188393391Y-106063695D01*
X188420393Y-105893210D01*
X188473733Y-105729048D01*
X188552096Y-105575252D01*
X188653553Y-105435607D01*
X188775607Y-105313553D01*
X188915252Y-105212096D01*
X189069048Y-105133733D01*
X189233210Y-105080393D01*
X189403695Y-105053391D01*
X189576305Y-105053391D01*
X189746790Y-105080393D01*
G37*
G36*
X192286790Y-105080393D02*
G01*
X192450952Y-105133733D01*
X192604748Y-105212096D01*
X192744393Y-105313553D01*
X192866447Y-105435607D01*
X192967904Y-105575252D01*
X193046267Y-105729048D01*
X193099607Y-105893210D01*
X193126609Y-106063695D01*
X193126609Y-106236305D01*
X193099607Y-106406790D01*
X193046267Y-106570952D01*
X192967904Y-106724748D01*
X192866447Y-106864393D01*
X192744393Y-106986447D01*
X192604748Y-107087904D01*
X192450952Y-107166267D01*
X192286790Y-107219607D01*
X192116305Y-107246609D01*
X191943695Y-107246609D01*
X191773210Y-107219607D01*
X191609048Y-107166267D01*
X191455252Y-107087904D01*
X191315607Y-106986447D01*
X191193553Y-106864393D01*
X191092096Y-106724748D01*
X191013733Y-106570952D01*
X190960393Y-106406790D01*
X190933391Y-106236305D01*
X190933391Y-106063695D01*
X190960393Y-105893210D01*
X191013733Y-105729048D01*
X191092096Y-105575252D01*
X191193553Y-105435607D01*
X191315607Y-105313553D01*
X191455252Y-105212096D01*
X191609048Y-105133733D01*
X191773210Y-105080393D01*
X191943695Y-105053391D01*
X192116305Y-105053391D01*
X192286790Y-105080393D01*
G37*
G36*
X123706790Y-102540393D02*
G01*
X123870952Y-102593733D01*
X124024748Y-102672096D01*
X124164393Y-102773553D01*
X124286447Y-102895607D01*
X124387904Y-103035252D01*
X124466267Y-103189048D01*
X124519607Y-103353210D01*
X124546609Y-103523695D01*
X124546609Y-103696305D01*
X124519607Y-103866790D01*
X124466267Y-104030952D01*
X124387904Y-104184748D01*
X124286447Y-104324393D01*
X124164393Y-104446447D01*
X124024748Y-104547904D01*
X123870952Y-104626267D01*
X123706790Y-104679607D01*
X123536305Y-104706609D01*
X123363695Y-104706609D01*
X123193210Y-104679607D01*
X123029048Y-104626267D01*
X122875252Y-104547904D01*
X122735607Y-104446447D01*
X122613553Y-104324393D01*
X122512096Y-104184748D01*
X122433733Y-104030952D01*
X122380393Y-103866790D01*
X122353391Y-103696305D01*
X122353391Y-103523695D01*
X122380393Y-103353210D01*
X122433733Y-103189048D01*
X122512096Y-103035252D01*
X122613553Y-102895607D01*
X122735607Y-102773553D01*
X122875252Y-102672096D01*
X123029048Y-102593733D01*
X123193210Y-102540393D01*
X123363695Y-102513391D01*
X123536305Y-102513391D01*
X123706790Y-102540393D01*
G37*
G36*
X126246790Y-102540393D02*
G01*
X126410952Y-102593733D01*
X126564748Y-102672096D01*
X126704393Y-102773553D01*
X126826447Y-102895607D01*
X126927904Y-103035252D01*
X127006267Y-103189048D01*
X127059607Y-103353210D01*
X127086609Y-103523695D01*
X127086609Y-103696305D01*
X127059607Y-103866790D01*
X127006267Y-104030952D01*
X126927904Y-104184748D01*
X126826447Y-104324393D01*
X126704393Y-104446447D01*
X126564748Y-104547904D01*
X126410952Y-104626267D01*
X126246790Y-104679607D01*
X126076305Y-104706609D01*
X125903695Y-104706609D01*
X125733210Y-104679607D01*
X125569048Y-104626267D01*
X125415252Y-104547904D01*
X125275607Y-104446447D01*
X125153553Y-104324393D01*
X125052096Y-104184748D01*
X124973733Y-104030952D01*
X124920393Y-103866790D01*
X124893391Y-103696305D01*
X124893391Y-103523695D01*
X124920393Y-103353210D01*
X124973733Y-103189048D01*
X125052096Y-103035252D01*
X125153553Y-102895607D01*
X125275607Y-102773553D01*
X125415252Y-102672096D01*
X125569048Y-102593733D01*
X125733210Y-102540393D01*
X125903695Y-102513391D01*
X126076305Y-102513391D01*
X126246790Y-102540393D01*
G37*
G36*
X128786790Y-102540393D02*
G01*
X128950952Y-102593733D01*
X129104748Y-102672096D01*
X129244393Y-102773553D01*
X129366447Y-102895607D01*
X129467904Y-103035252D01*
X129546267Y-103189048D01*
X129599607Y-103353210D01*
X129626609Y-103523695D01*
X129626609Y-103696305D01*
X129599607Y-103866790D01*
X129546267Y-104030952D01*
X129467904Y-104184748D01*
X129366447Y-104324393D01*
X129244393Y-104446447D01*
X129104748Y-104547904D01*
X128950952Y-104626267D01*
X128786790Y-104679607D01*
X128616305Y-104706609D01*
X128443695Y-104706609D01*
X128273210Y-104679607D01*
X128109048Y-104626267D01*
X127955252Y-104547904D01*
X127815607Y-104446447D01*
X127693553Y-104324393D01*
X127592096Y-104184748D01*
X127513733Y-104030952D01*
X127460393Y-103866790D01*
X127433391Y-103696305D01*
X127433391Y-103523695D01*
X127460393Y-103353210D01*
X127513733Y-103189048D01*
X127592096Y-103035252D01*
X127693553Y-102895607D01*
X127815607Y-102773553D01*
X127955252Y-102672096D01*
X128109048Y-102593733D01*
X128273210Y-102540393D01*
X128443695Y-102513391D01*
X128616305Y-102513391D01*
X128786790Y-102540393D01*
G37*
G36*
X131326790Y-102540393D02*
G01*
X131490952Y-102593733D01*
X131644748Y-102672096D01*
X131784393Y-102773553D01*
X131906447Y-102895607D01*
X132007904Y-103035252D01*
X132086267Y-103189048D01*
X132139607Y-103353210D01*
X132166609Y-103523695D01*
X132166609Y-103696305D01*
X132139607Y-103866790D01*
X132086267Y-104030952D01*
X132007904Y-104184748D01*
X131906447Y-104324393D01*
X131784393Y-104446447D01*
X131644748Y-104547904D01*
X131490952Y-104626267D01*
X131326790Y-104679607D01*
X131156305Y-104706609D01*
X130983695Y-104706609D01*
X130813210Y-104679607D01*
X130649048Y-104626267D01*
X130495252Y-104547904D01*
X130355607Y-104446447D01*
X130233553Y-104324393D01*
X130132096Y-104184748D01*
X130053733Y-104030952D01*
X130000393Y-103866790D01*
X129973391Y-103696305D01*
X129973391Y-103523695D01*
X130000393Y-103353210D01*
X130053733Y-103189048D01*
X130132096Y-103035252D01*
X130233553Y-102895607D01*
X130355607Y-102773553D01*
X130495252Y-102672096D01*
X130649048Y-102593733D01*
X130813210Y-102540393D01*
X130983695Y-102513391D01*
X131156305Y-102513391D01*
X131326790Y-102540393D01*
G37*
G36*
X133866790Y-102540393D02*
G01*
X134030952Y-102593733D01*
X134184748Y-102672096D01*
X134324393Y-102773553D01*
X134446447Y-102895607D01*
X134547904Y-103035252D01*
X134626267Y-103189048D01*
X134679607Y-103353210D01*
X134706609Y-103523695D01*
X134706609Y-103696305D01*
X134679607Y-103866790D01*
X134626267Y-104030952D01*
X134547904Y-104184748D01*
X134446447Y-104324393D01*
X134324393Y-104446447D01*
X134184748Y-104547904D01*
X134030952Y-104626267D01*
X133866790Y-104679607D01*
X133696305Y-104706609D01*
X133523695Y-104706609D01*
X133353210Y-104679607D01*
X133189048Y-104626267D01*
X133035252Y-104547904D01*
X132895607Y-104446447D01*
X132773553Y-104324393D01*
X132672096Y-104184748D01*
X132593733Y-104030952D01*
X132540393Y-103866790D01*
X132513391Y-103696305D01*
X132513391Y-103523695D01*
X132540393Y-103353210D01*
X132593733Y-103189048D01*
X132672096Y-103035252D01*
X132773553Y-102895607D01*
X132895607Y-102773553D01*
X133035252Y-102672096D01*
X133189048Y-102593733D01*
X133353210Y-102540393D01*
X133523695Y-102513391D01*
X133696305Y-102513391D01*
X133866790Y-102540393D01*
G37*
G36*
X136406790Y-102540393D02*
G01*
X136570952Y-102593733D01*
X136724748Y-102672096D01*
X136864393Y-102773553D01*
X136986447Y-102895607D01*
X137087904Y-103035252D01*
X137166267Y-103189048D01*
X137219607Y-103353210D01*
X137246609Y-103523695D01*
X137246609Y-103696305D01*
X137219607Y-103866790D01*
X137166267Y-104030952D01*
X137087904Y-104184748D01*
X136986447Y-104324393D01*
X136864393Y-104446447D01*
X136724748Y-104547904D01*
X136570952Y-104626267D01*
X136406790Y-104679607D01*
X136236305Y-104706609D01*
X136063695Y-104706609D01*
X135893210Y-104679607D01*
X135729048Y-104626267D01*
X135575252Y-104547904D01*
X135435607Y-104446447D01*
X135313553Y-104324393D01*
X135212096Y-104184748D01*
X135133733Y-104030952D01*
X135080393Y-103866790D01*
X135053391Y-103696305D01*
X135053391Y-103523695D01*
X135080393Y-103353210D01*
X135133733Y-103189048D01*
X135212096Y-103035252D01*
X135313553Y-102895607D01*
X135435607Y-102773553D01*
X135575252Y-102672096D01*
X135729048Y-102593733D01*
X135893210Y-102540393D01*
X136063695Y-102513391D01*
X136236305Y-102513391D01*
X136406790Y-102540393D01*
G37*
G36*
X138946790Y-102540393D02*
G01*
X139110952Y-102593733D01*
X139264748Y-102672096D01*
X139404393Y-102773553D01*
X139526447Y-102895607D01*
X139627904Y-103035252D01*
X139706267Y-103189048D01*
X139759607Y-103353210D01*
X139786609Y-103523695D01*
X139786609Y-103696305D01*
X139759607Y-103866790D01*
X139706267Y-104030952D01*
X139627904Y-104184748D01*
X139526447Y-104324393D01*
X139404393Y-104446447D01*
X139264748Y-104547904D01*
X139110952Y-104626267D01*
X138946790Y-104679607D01*
X138776305Y-104706609D01*
X138603695Y-104706609D01*
X138433210Y-104679607D01*
X138269048Y-104626267D01*
X138115252Y-104547904D01*
X137975607Y-104446447D01*
X137853553Y-104324393D01*
X137752096Y-104184748D01*
X137673733Y-104030952D01*
X137620393Y-103866790D01*
X137593391Y-103696305D01*
X137593391Y-103523695D01*
X137620393Y-103353210D01*
X137673733Y-103189048D01*
X137752096Y-103035252D01*
X137853553Y-102895607D01*
X137975607Y-102773553D01*
X138115252Y-102672096D01*
X138269048Y-102593733D01*
X138433210Y-102540393D01*
X138603695Y-102513391D01*
X138776305Y-102513391D01*
X138946790Y-102540393D01*
G37*
G36*
X141486790Y-102540393D02*
G01*
X141650952Y-102593733D01*
X141804748Y-102672096D01*
X141944393Y-102773553D01*
X142066447Y-102895607D01*
X142167904Y-103035252D01*
X142246267Y-103189048D01*
X142299607Y-103353210D01*
X142326609Y-103523695D01*
X142326609Y-103696305D01*
X142299607Y-103866790D01*
X142246267Y-104030952D01*
X142167904Y-104184748D01*
X142066447Y-104324393D01*
X141944393Y-104446447D01*
X141804748Y-104547904D01*
X141650952Y-104626267D01*
X141486790Y-104679607D01*
X141316305Y-104706609D01*
X141143695Y-104706609D01*
X140973210Y-104679607D01*
X140809048Y-104626267D01*
X140655252Y-104547904D01*
X140515607Y-104446447D01*
X140393553Y-104324393D01*
X140292096Y-104184748D01*
X140213733Y-104030952D01*
X140160393Y-103866790D01*
X140133391Y-103696305D01*
X140133391Y-103523695D01*
X140160393Y-103353210D01*
X140213733Y-103189048D01*
X140292096Y-103035252D01*
X140393553Y-102895607D01*
X140515607Y-102773553D01*
X140655252Y-102672096D01*
X140809048Y-102593733D01*
X140973210Y-102540393D01*
X141143695Y-102513391D01*
X141316305Y-102513391D01*
X141486790Y-102540393D01*
G37*
G36*
X144026790Y-102540393D02*
G01*
X144190952Y-102593733D01*
X144344748Y-102672096D01*
X144484393Y-102773553D01*
X144606447Y-102895607D01*
X144707904Y-103035252D01*
X144786267Y-103189048D01*
X144839607Y-103353210D01*
X144866609Y-103523695D01*
X144866609Y-103696305D01*
X144839607Y-103866790D01*
X144786267Y-104030952D01*
X144707904Y-104184748D01*
X144606447Y-104324393D01*
X144484393Y-104446447D01*
X144344748Y-104547904D01*
X144190952Y-104626267D01*
X144026790Y-104679607D01*
X143856305Y-104706609D01*
X143683695Y-104706609D01*
X143513210Y-104679607D01*
X143349048Y-104626267D01*
X143195252Y-104547904D01*
X143055607Y-104446447D01*
X142933553Y-104324393D01*
X142832096Y-104184748D01*
X142753733Y-104030952D01*
X142700393Y-103866790D01*
X142673391Y-103696305D01*
X142673391Y-103523695D01*
X142700393Y-103353210D01*
X142753733Y-103189048D01*
X142832096Y-103035252D01*
X142933553Y-102895607D01*
X143055607Y-102773553D01*
X143195252Y-102672096D01*
X143349048Y-102593733D01*
X143513210Y-102540393D01*
X143683695Y-102513391D01*
X143856305Y-102513391D01*
X144026790Y-102540393D01*
G37*
G36*
X146566790Y-102540393D02*
G01*
X146730952Y-102593733D01*
X146884748Y-102672096D01*
X147024393Y-102773553D01*
X147146447Y-102895607D01*
X147247904Y-103035252D01*
X147326267Y-103189048D01*
X147379607Y-103353210D01*
X147406609Y-103523695D01*
X147406609Y-103696305D01*
X147379607Y-103866790D01*
X147326267Y-104030952D01*
X147247904Y-104184748D01*
X147146447Y-104324393D01*
X147024393Y-104446447D01*
X146884748Y-104547904D01*
X146730952Y-104626267D01*
X146566790Y-104679607D01*
X146396305Y-104706609D01*
X146223695Y-104706609D01*
X146053210Y-104679607D01*
X145889048Y-104626267D01*
X145735252Y-104547904D01*
X145595607Y-104446447D01*
X145473553Y-104324393D01*
X145372096Y-104184748D01*
X145293733Y-104030952D01*
X145240393Y-103866790D01*
X145213391Y-103696305D01*
X145213391Y-103523695D01*
X145240393Y-103353210D01*
X145293733Y-103189048D01*
X145372096Y-103035252D01*
X145473553Y-102895607D01*
X145595607Y-102773553D01*
X145735252Y-102672096D01*
X145889048Y-102593733D01*
X146053210Y-102540393D01*
X146223695Y-102513391D01*
X146396305Y-102513391D01*
X146566790Y-102540393D01*
G37*
G36*
X149106790Y-102540393D02*
G01*
X149270952Y-102593733D01*
X149424748Y-102672096D01*
X149564393Y-102773553D01*
X149686447Y-102895607D01*
X149787904Y-103035252D01*
X149866267Y-103189048D01*
X149919607Y-103353210D01*
X149946609Y-103523695D01*
X149946609Y-103696305D01*
X149919607Y-103866790D01*
X149866267Y-104030952D01*
X149787904Y-104184748D01*
X149686447Y-104324393D01*
X149564393Y-104446447D01*
X149424748Y-104547904D01*
X149270952Y-104626267D01*
X149106790Y-104679607D01*
X148936305Y-104706609D01*
X148763695Y-104706609D01*
X148593210Y-104679607D01*
X148429048Y-104626267D01*
X148275252Y-104547904D01*
X148135607Y-104446447D01*
X148013553Y-104324393D01*
X147912096Y-104184748D01*
X147833733Y-104030952D01*
X147780393Y-103866790D01*
X147753391Y-103696305D01*
X147753391Y-103523695D01*
X147780393Y-103353210D01*
X147833733Y-103189048D01*
X147912096Y-103035252D01*
X148013553Y-102895607D01*
X148135607Y-102773553D01*
X148275252Y-102672096D01*
X148429048Y-102593733D01*
X148593210Y-102540393D01*
X148763695Y-102513391D01*
X148936305Y-102513391D01*
X149106790Y-102540393D01*
G37*
G36*
X151646790Y-102540393D02*
G01*
X151810952Y-102593733D01*
X151964748Y-102672096D01*
X152104393Y-102773553D01*
X152226447Y-102895607D01*
X152327904Y-103035252D01*
X152406267Y-103189048D01*
X152459607Y-103353210D01*
X152486609Y-103523695D01*
X152486609Y-103696305D01*
X152459607Y-103866790D01*
X152406267Y-104030952D01*
X152327904Y-104184748D01*
X152226447Y-104324393D01*
X152104393Y-104446447D01*
X151964748Y-104547904D01*
X151810952Y-104626267D01*
X151646790Y-104679607D01*
X151476305Y-104706609D01*
X151303695Y-104706609D01*
X151133210Y-104679607D01*
X150969048Y-104626267D01*
X150815252Y-104547904D01*
X150675607Y-104446447D01*
X150553553Y-104324393D01*
X150452096Y-104184748D01*
X150373733Y-104030952D01*
X150320393Y-103866790D01*
X150293391Y-103696305D01*
X150293391Y-103523695D01*
X150320393Y-103353210D01*
X150373733Y-103189048D01*
X150452096Y-103035252D01*
X150553553Y-102895607D01*
X150675607Y-102773553D01*
X150815252Y-102672096D01*
X150969048Y-102593733D01*
X151133210Y-102540393D01*
X151303695Y-102513391D01*
X151476305Y-102513391D01*
X151646790Y-102540393D01*
G37*
G36*
X154186790Y-102540393D02*
G01*
X154350952Y-102593733D01*
X154504748Y-102672096D01*
X154644393Y-102773553D01*
X154766447Y-102895607D01*
X154867904Y-103035252D01*
X154946267Y-103189048D01*
X154999607Y-103353210D01*
X155026609Y-103523695D01*
X155026609Y-103696305D01*
X154999607Y-103866790D01*
X154946267Y-104030952D01*
X154867904Y-104184748D01*
X154766447Y-104324393D01*
X154644393Y-104446447D01*
X154504748Y-104547904D01*
X154350952Y-104626267D01*
X154186790Y-104679607D01*
X154016305Y-104706609D01*
X153843695Y-104706609D01*
X153673210Y-104679607D01*
X153509048Y-104626267D01*
X153355252Y-104547904D01*
X153215607Y-104446447D01*
X153093553Y-104324393D01*
X152992096Y-104184748D01*
X152913733Y-104030952D01*
X152860393Y-103866790D01*
X152833391Y-103696305D01*
X152833391Y-103523695D01*
X152860393Y-103353210D01*
X152913733Y-103189048D01*
X152992096Y-103035252D01*
X153093553Y-102895607D01*
X153215607Y-102773553D01*
X153355252Y-102672096D01*
X153509048Y-102593733D01*
X153673210Y-102540393D01*
X153843695Y-102513391D01*
X154016305Y-102513391D01*
X154186790Y-102540393D01*
G37*
G36*
X156726790Y-102540393D02*
G01*
X156890952Y-102593733D01*
X157044748Y-102672096D01*
X157184393Y-102773553D01*
X157306447Y-102895607D01*
X157407904Y-103035252D01*
X157486267Y-103189048D01*
X157539607Y-103353210D01*
X157566609Y-103523695D01*
X157566609Y-103696305D01*
X157539607Y-103866790D01*
X157486267Y-104030952D01*
X157407904Y-104184748D01*
X157306447Y-104324393D01*
X157184393Y-104446447D01*
X157044748Y-104547904D01*
X156890952Y-104626267D01*
X156726790Y-104679607D01*
X156556305Y-104706609D01*
X156383695Y-104706609D01*
X156213210Y-104679607D01*
X156049048Y-104626267D01*
X155895252Y-104547904D01*
X155755607Y-104446447D01*
X155633553Y-104324393D01*
X155532096Y-104184748D01*
X155453733Y-104030952D01*
X155400393Y-103866790D01*
X155373391Y-103696305D01*
X155373391Y-103523695D01*
X155400393Y-103353210D01*
X155453733Y-103189048D01*
X155532096Y-103035252D01*
X155633553Y-102895607D01*
X155755607Y-102773553D01*
X155895252Y-102672096D01*
X156049048Y-102593733D01*
X156213210Y-102540393D01*
X156383695Y-102513391D01*
X156556305Y-102513391D01*
X156726790Y-102540393D01*
G37*
G36*
X159266790Y-102540393D02*
G01*
X159430952Y-102593733D01*
X159584748Y-102672096D01*
X159724393Y-102773553D01*
X159846447Y-102895607D01*
X159947904Y-103035252D01*
X160026267Y-103189048D01*
X160079607Y-103353210D01*
X160106609Y-103523695D01*
X160106609Y-103696305D01*
X160079607Y-103866790D01*
X160026267Y-104030952D01*
X159947904Y-104184748D01*
X159846447Y-104324393D01*
X159724393Y-104446447D01*
X159584748Y-104547904D01*
X159430952Y-104626267D01*
X159266790Y-104679607D01*
X159096305Y-104706609D01*
X158923695Y-104706609D01*
X158753210Y-104679607D01*
X158589048Y-104626267D01*
X158435252Y-104547904D01*
X158295607Y-104446447D01*
X158173553Y-104324393D01*
X158072096Y-104184748D01*
X157993733Y-104030952D01*
X157940393Y-103866790D01*
X157913391Y-103696305D01*
X157913391Y-103523695D01*
X157940393Y-103353210D01*
X157993733Y-103189048D01*
X158072096Y-103035252D01*
X158173553Y-102895607D01*
X158295607Y-102773553D01*
X158435252Y-102672096D01*
X158589048Y-102593733D01*
X158753210Y-102540393D01*
X158923695Y-102513391D01*
X159096305Y-102513391D01*
X159266790Y-102540393D01*
G37*
G36*
X161806790Y-102540393D02*
G01*
X161970952Y-102593733D01*
X162124748Y-102672096D01*
X162264393Y-102773553D01*
X162386447Y-102895607D01*
X162487904Y-103035252D01*
X162566267Y-103189048D01*
X162619607Y-103353210D01*
X162646609Y-103523695D01*
X162646609Y-103696305D01*
X162619607Y-103866790D01*
X162566267Y-104030952D01*
X162487904Y-104184748D01*
X162386447Y-104324393D01*
X162264393Y-104446447D01*
X162124748Y-104547904D01*
X161970952Y-104626267D01*
X161806790Y-104679607D01*
X161636305Y-104706609D01*
X161463695Y-104706609D01*
X161293210Y-104679607D01*
X161129048Y-104626267D01*
X160975252Y-104547904D01*
X160835607Y-104446447D01*
X160713553Y-104324393D01*
X160612096Y-104184748D01*
X160533733Y-104030952D01*
X160480393Y-103866790D01*
X160453391Y-103696305D01*
X160453391Y-103523695D01*
X160480393Y-103353210D01*
X160533733Y-103189048D01*
X160612096Y-103035252D01*
X160713553Y-102895607D01*
X160835607Y-102773553D01*
X160975252Y-102672096D01*
X161129048Y-102593733D01*
X161293210Y-102540393D01*
X161463695Y-102513391D01*
X161636305Y-102513391D01*
X161806790Y-102540393D01*
G37*
G36*
X164346790Y-102540393D02*
G01*
X164510952Y-102593733D01*
X164664748Y-102672096D01*
X164804393Y-102773553D01*
X164926447Y-102895607D01*
X165027904Y-103035252D01*
X165106267Y-103189048D01*
X165159607Y-103353210D01*
X165186609Y-103523695D01*
X165186609Y-103696305D01*
X165159607Y-103866790D01*
X165106267Y-104030952D01*
X165027904Y-104184748D01*
X164926447Y-104324393D01*
X164804393Y-104446447D01*
X164664748Y-104547904D01*
X164510952Y-104626267D01*
X164346790Y-104679607D01*
X164176305Y-104706609D01*
X164003695Y-104706609D01*
X163833210Y-104679607D01*
X163669048Y-104626267D01*
X163515252Y-104547904D01*
X163375607Y-104446447D01*
X163253553Y-104324393D01*
X163152096Y-104184748D01*
X163073733Y-104030952D01*
X163020393Y-103866790D01*
X162993391Y-103696305D01*
X162993391Y-103523695D01*
X163020393Y-103353210D01*
X163073733Y-103189048D01*
X163152096Y-103035252D01*
X163253553Y-102895607D01*
X163375607Y-102773553D01*
X163515252Y-102672096D01*
X163669048Y-102593733D01*
X163833210Y-102540393D01*
X164003695Y-102513391D01*
X164176305Y-102513391D01*
X164346790Y-102540393D01*
G37*
G36*
X166886790Y-102540393D02*
G01*
X167050952Y-102593733D01*
X167204748Y-102672096D01*
X167344393Y-102773553D01*
X167466447Y-102895607D01*
X167567904Y-103035252D01*
X167646267Y-103189048D01*
X167699607Y-103353210D01*
X167726609Y-103523695D01*
X167726609Y-103696305D01*
X167699607Y-103866790D01*
X167646267Y-104030952D01*
X167567904Y-104184748D01*
X167466447Y-104324393D01*
X167344393Y-104446447D01*
X167204748Y-104547904D01*
X167050952Y-104626267D01*
X166886790Y-104679607D01*
X166716305Y-104706609D01*
X166543695Y-104706609D01*
X166373210Y-104679607D01*
X166209048Y-104626267D01*
X166055252Y-104547904D01*
X165915607Y-104446447D01*
X165793553Y-104324393D01*
X165692096Y-104184748D01*
X165613733Y-104030952D01*
X165560393Y-103866790D01*
X165533391Y-103696305D01*
X165533391Y-103523695D01*
X165560393Y-103353210D01*
X165613733Y-103189048D01*
X165692096Y-103035252D01*
X165793553Y-102895607D01*
X165915607Y-102773553D01*
X166055252Y-102672096D01*
X166209048Y-102593733D01*
X166373210Y-102540393D01*
X166543695Y-102513391D01*
X166716305Y-102513391D01*
X166886790Y-102540393D01*
G37*
G36*
X169426790Y-102540393D02*
G01*
X169590952Y-102593733D01*
X169744748Y-102672096D01*
X169884393Y-102773553D01*
X170006447Y-102895607D01*
X170107904Y-103035252D01*
X170186267Y-103189048D01*
X170239607Y-103353210D01*
X170266609Y-103523695D01*
X170266609Y-103696305D01*
X170239607Y-103866790D01*
X170186267Y-104030952D01*
X170107904Y-104184748D01*
X170006447Y-104324393D01*
X169884393Y-104446447D01*
X169744748Y-104547904D01*
X169590952Y-104626267D01*
X169426790Y-104679607D01*
X169256305Y-104706609D01*
X169083695Y-104706609D01*
X168913210Y-104679607D01*
X168749048Y-104626267D01*
X168595252Y-104547904D01*
X168455607Y-104446447D01*
X168333553Y-104324393D01*
X168232096Y-104184748D01*
X168153733Y-104030952D01*
X168100393Y-103866790D01*
X168073391Y-103696305D01*
X168073391Y-103523695D01*
X168100393Y-103353210D01*
X168153733Y-103189048D01*
X168232096Y-103035252D01*
X168333553Y-102895607D01*
X168455607Y-102773553D01*
X168595252Y-102672096D01*
X168749048Y-102593733D01*
X168913210Y-102540393D01*
X169083695Y-102513391D01*
X169256305Y-102513391D01*
X169426790Y-102540393D01*
G37*
G36*
X171966790Y-102540393D02*
G01*
X172130952Y-102593733D01*
X172284748Y-102672096D01*
X172424393Y-102773553D01*
X172546447Y-102895607D01*
X172647904Y-103035252D01*
X172726267Y-103189048D01*
X172779607Y-103353210D01*
X172806609Y-103523695D01*
X172806609Y-103696305D01*
X172779607Y-103866790D01*
X172726267Y-104030952D01*
X172647904Y-104184748D01*
X172546447Y-104324393D01*
X172424393Y-104446447D01*
X172284748Y-104547904D01*
X172130952Y-104626267D01*
X171966790Y-104679607D01*
X171796305Y-104706609D01*
X171623695Y-104706609D01*
X171453210Y-104679607D01*
X171289048Y-104626267D01*
X171135252Y-104547904D01*
X170995607Y-104446447D01*
X170873553Y-104324393D01*
X170772096Y-104184748D01*
X170693733Y-104030952D01*
X170640393Y-103866790D01*
X170613391Y-103696305D01*
X170613391Y-103523695D01*
X170640393Y-103353210D01*
X170693733Y-103189048D01*
X170772096Y-103035252D01*
X170873553Y-102895607D01*
X170995607Y-102773553D01*
X171135252Y-102672096D01*
X171289048Y-102593733D01*
X171453210Y-102540393D01*
X171623695Y-102513391D01*
X171796305Y-102513391D01*
X171966790Y-102540393D01*
G37*
G36*
X174506790Y-102540393D02*
G01*
X174670952Y-102593733D01*
X174824748Y-102672096D01*
X174964393Y-102773553D01*
X175086447Y-102895607D01*
X175187904Y-103035252D01*
X175266267Y-103189048D01*
X175319607Y-103353210D01*
X175346609Y-103523695D01*
X175346609Y-103696305D01*
X175319607Y-103866790D01*
X175266267Y-104030952D01*
X175187904Y-104184748D01*
X175086447Y-104324393D01*
X174964393Y-104446447D01*
X174824748Y-104547904D01*
X174670952Y-104626267D01*
X174506790Y-104679607D01*
X174336305Y-104706609D01*
X174163695Y-104706609D01*
X173993210Y-104679607D01*
X173829048Y-104626267D01*
X173675252Y-104547904D01*
X173535607Y-104446447D01*
X173413553Y-104324393D01*
X173312096Y-104184748D01*
X173233733Y-104030952D01*
X173180393Y-103866790D01*
X173153391Y-103696305D01*
X173153391Y-103523695D01*
X173180393Y-103353210D01*
X173233733Y-103189048D01*
X173312096Y-103035252D01*
X173413553Y-102895607D01*
X173535607Y-102773553D01*
X173675252Y-102672096D01*
X173829048Y-102593733D01*
X173993210Y-102540393D01*
X174163695Y-102513391D01*
X174336305Y-102513391D01*
X174506790Y-102540393D01*
G37*
G36*
X177046790Y-102540393D02*
G01*
X177210952Y-102593733D01*
X177364748Y-102672096D01*
X177504393Y-102773553D01*
X177626447Y-102895607D01*
X177727904Y-103035252D01*
X177806267Y-103189048D01*
X177859607Y-103353210D01*
X177886609Y-103523695D01*
X177886609Y-103696305D01*
X177859607Y-103866790D01*
X177806267Y-104030952D01*
X177727904Y-104184748D01*
X177626447Y-104324393D01*
X177504393Y-104446447D01*
X177364748Y-104547904D01*
X177210952Y-104626267D01*
X177046790Y-104679607D01*
X176876305Y-104706609D01*
X176703695Y-104706609D01*
X176533210Y-104679607D01*
X176369048Y-104626267D01*
X176215252Y-104547904D01*
X176075607Y-104446447D01*
X175953553Y-104324393D01*
X175852096Y-104184748D01*
X175773733Y-104030952D01*
X175720393Y-103866790D01*
X175693391Y-103696305D01*
X175693391Y-103523695D01*
X175720393Y-103353210D01*
X175773733Y-103189048D01*
X175852096Y-103035252D01*
X175953553Y-102895607D01*
X176075607Y-102773553D01*
X176215252Y-102672096D01*
X176369048Y-102593733D01*
X176533210Y-102540393D01*
X176703695Y-102513391D01*
X176876305Y-102513391D01*
X177046790Y-102540393D01*
G37*
G36*
X179586790Y-102540393D02*
G01*
X179750952Y-102593733D01*
X179904748Y-102672096D01*
X180044393Y-102773553D01*
X180166447Y-102895607D01*
X180267904Y-103035252D01*
X180346267Y-103189048D01*
X180399607Y-103353210D01*
X180426609Y-103523695D01*
X180426609Y-103696305D01*
X180399607Y-103866790D01*
X180346267Y-104030952D01*
X180267904Y-104184748D01*
X180166447Y-104324393D01*
X180044393Y-104446447D01*
X179904748Y-104547904D01*
X179750952Y-104626267D01*
X179586790Y-104679607D01*
X179416305Y-104706609D01*
X179243695Y-104706609D01*
X179073210Y-104679607D01*
X178909048Y-104626267D01*
X178755252Y-104547904D01*
X178615607Y-104446447D01*
X178493553Y-104324393D01*
X178392096Y-104184748D01*
X178313733Y-104030952D01*
X178260393Y-103866790D01*
X178233391Y-103696305D01*
X178233391Y-103523695D01*
X178260393Y-103353210D01*
X178313733Y-103189048D01*
X178392096Y-103035252D01*
X178493553Y-102895607D01*
X178615607Y-102773553D01*
X178755252Y-102672096D01*
X178909048Y-102593733D01*
X179073210Y-102540393D01*
X179243695Y-102513391D01*
X179416305Y-102513391D01*
X179586790Y-102540393D01*
G37*
G36*
X182126790Y-102540393D02*
G01*
X182290952Y-102593733D01*
X182444748Y-102672096D01*
X182584393Y-102773553D01*
X182706447Y-102895607D01*
X182807904Y-103035252D01*
X182886267Y-103189048D01*
X182939607Y-103353210D01*
X182966609Y-103523695D01*
X182966609Y-103696305D01*
X182939607Y-103866790D01*
X182886267Y-104030952D01*
X182807904Y-104184748D01*
X182706447Y-104324393D01*
X182584393Y-104446447D01*
X182444748Y-104547904D01*
X182290952Y-104626267D01*
X182126790Y-104679607D01*
X181956305Y-104706609D01*
X181783695Y-104706609D01*
X181613210Y-104679607D01*
X181449048Y-104626267D01*
X181295252Y-104547904D01*
X181155607Y-104446447D01*
X181033553Y-104324393D01*
X180932096Y-104184748D01*
X180853733Y-104030952D01*
X180800393Y-103866790D01*
X180773391Y-103696305D01*
X180773391Y-103523695D01*
X180800393Y-103353210D01*
X180853733Y-103189048D01*
X180932096Y-103035252D01*
X181033553Y-102895607D01*
X181155607Y-102773553D01*
X181295252Y-102672096D01*
X181449048Y-102593733D01*
X181613210Y-102540393D01*
X181783695Y-102513391D01*
X181956305Y-102513391D01*
X182126790Y-102540393D01*
G37*
G36*
X184666790Y-102540393D02*
G01*
X184830952Y-102593733D01*
X184984748Y-102672096D01*
X185124393Y-102773553D01*
X185246447Y-102895607D01*
X185347904Y-103035252D01*
X185426267Y-103189048D01*
X185479607Y-103353210D01*
X185506609Y-103523695D01*
X185506609Y-103696305D01*
X185479607Y-103866790D01*
X185426267Y-104030952D01*
X185347904Y-104184748D01*
X185246447Y-104324393D01*
X185124393Y-104446447D01*
X184984748Y-104547904D01*
X184830952Y-104626267D01*
X184666790Y-104679607D01*
X184496305Y-104706609D01*
X184323695Y-104706609D01*
X184153210Y-104679607D01*
X183989048Y-104626267D01*
X183835252Y-104547904D01*
X183695607Y-104446447D01*
X183573553Y-104324393D01*
X183472096Y-104184748D01*
X183393733Y-104030952D01*
X183340393Y-103866790D01*
X183313391Y-103696305D01*
X183313391Y-103523695D01*
X183340393Y-103353210D01*
X183393733Y-103189048D01*
X183472096Y-103035252D01*
X183573553Y-102895607D01*
X183695607Y-102773553D01*
X183835252Y-102672096D01*
X183989048Y-102593733D01*
X184153210Y-102540393D01*
X184323695Y-102513391D01*
X184496305Y-102513391D01*
X184666790Y-102540393D01*
G37*
G36*
X187206790Y-102540393D02*
G01*
X187370952Y-102593733D01*
X187524748Y-102672096D01*
X187664393Y-102773553D01*
X187786447Y-102895607D01*
X187887904Y-103035252D01*
X187966267Y-103189048D01*
X188019607Y-103353210D01*
X188046609Y-103523695D01*
X188046609Y-103696305D01*
X188019607Y-103866790D01*
X187966267Y-104030952D01*
X187887904Y-104184748D01*
X187786447Y-104324393D01*
X187664393Y-104446447D01*
X187524748Y-104547904D01*
X187370952Y-104626267D01*
X187206790Y-104679607D01*
X187036305Y-104706609D01*
X186863695Y-104706609D01*
X186693210Y-104679607D01*
X186529048Y-104626267D01*
X186375252Y-104547904D01*
X186235607Y-104446447D01*
X186113553Y-104324393D01*
X186012096Y-104184748D01*
X185933733Y-104030952D01*
X185880393Y-103866790D01*
X185853391Y-103696305D01*
X185853391Y-103523695D01*
X185880393Y-103353210D01*
X185933733Y-103189048D01*
X186012096Y-103035252D01*
X186113553Y-102895607D01*
X186235607Y-102773553D01*
X186375252Y-102672096D01*
X186529048Y-102593733D01*
X186693210Y-102540393D01*
X186863695Y-102513391D01*
X187036305Y-102513391D01*
X187206790Y-102540393D01*
G37*
G36*
X189746790Y-102540393D02*
G01*
X189910952Y-102593733D01*
X190064748Y-102672096D01*
X190204393Y-102773553D01*
X190326447Y-102895607D01*
X190427904Y-103035252D01*
X190506267Y-103189048D01*
X190559607Y-103353210D01*
X190586609Y-103523695D01*
X190586609Y-103696305D01*
X190559607Y-103866790D01*
X190506267Y-104030952D01*
X190427904Y-104184748D01*
X190326447Y-104324393D01*
X190204393Y-104446447D01*
X190064748Y-104547904D01*
X189910952Y-104626267D01*
X189746790Y-104679607D01*
X189576305Y-104706609D01*
X189403695Y-104706609D01*
X189233210Y-104679607D01*
X189069048Y-104626267D01*
X188915252Y-104547904D01*
X188775607Y-104446447D01*
X188653553Y-104324393D01*
X188552096Y-104184748D01*
X188473733Y-104030952D01*
X188420393Y-103866790D01*
X188393391Y-103696305D01*
X188393391Y-103523695D01*
X188420393Y-103353210D01*
X188473733Y-103189048D01*
X188552096Y-103035252D01*
X188653553Y-102895607D01*
X188775607Y-102773553D01*
X188915252Y-102672096D01*
X189069048Y-102593733D01*
X189233210Y-102540393D01*
X189403695Y-102513391D01*
X189576305Y-102513391D01*
X189746790Y-102540393D01*
G37*
G36*
X192286790Y-102540393D02*
G01*
X192450952Y-102593733D01*
X192604748Y-102672096D01*
X192744393Y-102773553D01*
X192866447Y-102895607D01*
X192967904Y-103035252D01*
X193046267Y-103189048D01*
X193099607Y-103353210D01*
X193126609Y-103523695D01*
X193126609Y-103696305D01*
X193099607Y-103866790D01*
X193046267Y-104030952D01*
X192967904Y-104184748D01*
X192866447Y-104324393D01*
X192744393Y-104446447D01*
X192604748Y-104547904D01*
X192450952Y-104626267D01*
X192286790Y-104679607D01*
X192116305Y-104706609D01*
X191943695Y-104706609D01*
X191773210Y-104679607D01*
X191609048Y-104626267D01*
X191455252Y-104547904D01*
X191315607Y-104446447D01*
X191193553Y-104324393D01*
X191092096Y-104184748D01*
X191013733Y-104030952D01*
X190960393Y-103866790D01*
X190933391Y-103696305D01*
X190933391Y-103523695D01*
X190960393Y-103353210D01*
X191013733Y-103189048D01*
X191092096Y-103035252D01*
X191193553Y-102895607D01*
X191315607Y-102773553D01*
X191455252Y-102672096D01*
X191609048Y-102593733D01*
X191773210Y-102540393D01*
X191943695Y-102513391D01*
X192116305Y-102513391D01*
X192286790Y-102540393D01*
G37*
G36*
X120653479Y-101335919D02*
G01*
X120847488Y-101398957D01*
X121029248Y-101491568D01*
X121194282Y-101611472D01*
X121338528Y-101755718D01*
X121458432Y-101920752D01*
X121551043Y-102102512D01*
X121614081Y-102296521D01*
X121645993Y-102498003D01*
X121645993Y-102701997D01*
X121614081Y-102903479D01*
X121551043Y-103097488D01*
X121458432Y-103279248D01*
X121338528Y-103444282D01*
X121194282Y-103588528D01*
X121029248Y-103708432D01*
X120847488Y-103801043D01*
X120653479Y-103864081D01*
X120451997Y-103895993D01*
X120248003Y-103895993D01*
X120046521Y-103864081D01*
X119852512Y-103801043D01*
X119670752Y-103708432D01*
X119505718Y-103588528D01*
X119361472Y-103444282D01*
X119241568Y-103279248D01*
X119148957Y-103097488D01*
X119085919Y-102903479D01*
X119054007Y-102701997D01*
X119054007Y-102498003D01*
X119085919Y-102296521D01*
X119148957Y-102102512D01*
X119241568Y-101920752D01*
X119361472Y-101755718D01*
X119505718Y-101611472D01*
X119670752Y-101491568D01*
X119852512Y-101398957D01*
X120046521Y-101335919D01*
X120248003Y-101304007D01*
X120451997Y-101304007D01*
X120653479Y-101335919D01*
G37*
G36*
X195453479Y-101335919D02*
G01*
X195647488Y-101398957D01*
X195829248Y-101491568D01*
X195994282Y-101611472D01*
X196138528Y-101755718D01*
X196258432Y-101920752D01*
X196351043Y-102102512D01*
X196414081Y-102296521D01*
X196445993Y-102498003D01*
X196445993Y-102701997D01*
X196414081Y-102903479D01*
X196351043Y-103097488D01*
X196258432Y-103279248D01*
X196138528Y-103444282D01*
X195994282Y-103588528D01*
X195829248Y-103708432D01*
X195647488Y-103801043D01*
X195453479Y-103864081D01*
X195251997Y-103895993D01*
X195048003Y-103895993D01*
X194846521Y-103864081D01*
X194652512Y-103801043D01*
X194470752Y-103708432D01*
X194305718Y-103588528D01*
X194161472Y-103444282D01*
X194041568Y-103279248D01*
X193948957Y-103097488D01*
X193885919Y-102903479D01*
X193854007Y-102701997D01*
X193854007Y-102498003D01*
X193885919Y-102296521D01*
X193948957Y-102102512D01*
X194041568Y-101920752D01*
X194161472Y-101755718D01*
X194305718Y-101611472D01*
X194470752Y-101491568D01*
X194652512Y-101398957D01*
X194846521Y-101335919D01*
X195048003Y-101304007D01*
X195251997Y-101304007D01*
X195453479Y-101335919D01*
G37*
M02*
