M48
; DRILL file {KiCad 9.0.1} date 2026-01-25T18:39:16-0500
; FORMAT={-:-/ absolute / inch / decimal}
; #@! TF.CreationDate,2026-01-25T18:39:16-05:00
; #@! TF.GenerationSoftware,Kicad,Pcbnew,9.0.1
; #@! TF.FileFunction,Plated,1,2,PTH
FMAT,2
INCH
; #@! TA.AperFunction,Plated,PTH,ViaDrill
T1C0.0118
; #@! TA.AperFunction,Plated,PTH,ViaDrill
T2C0.0360
; #@! TA.AperFunction,Plated,PTH,ComponentDrill
T3C0.0394
; #@! TA.AperFunction,Plated,PTH,ComponentDrill
T4C0.0472
%
G90
G05
T1
X4.2335Y-3.9696
X4.2335Y-4.6036
X4.3335Y-3.9696
X4.3335Y-4.6036
X4.4335Y-3.9696
X4.4335Y-4.6036
X4.5335Y-3.9696
X4.5335Y-4.6036
X4.6335Y-3.9696
X4.6335Y-4.6036
X4.7335Y-3.9696
X4.7335Y-4.6036
X4.8335Y-3.9696
X4.8335Y-4.6036
X4.9335Y-3.9696
X4.9335Y-4.6036
X5.0335Y-3.9696
X5.0335Y-4.6036
X5.1335Y-3.9696
X5.1335Y-4.6036
X5.2335Y-3.9696
X5.2335Y-4.6036
X5.3335Y-3.9696
X5.3335Y-4.6036
X5.4335Y-3.9696
X5.4335Y-4.6036
X5.5335Y-3.9696
X5.5335Y-4.6036
X5.6335Y-3.9696
X5.6335Y-4.6036
X5.7335Y-3.9696
X5.7335Y-4.6036
X5.8335Y-3.9696
X5.8335Y-4.6036
X5.9335Y-3.9696
X5.9335Y-4.6036
X6.0335Y-3.9696
X6.0335Y-4.6036
X6.1335Y-3.9696
X6.1335Y-4.6036
X6.2335Y-3.9696
X6.2335Y-4.6036
X6.3335Y-3.9696
X6.3335Y-4.6036
X6.4335Y-3.9696
X6.4335Y-4.6036
T2
X4.1195Y-1.6005
X4.1195Y-1.7005
X4.1195Y-1.8005
X4.1195Y-1.9005
X4.1195Y-2.0005
X4.1195Y-2.1005
X4.1195Y-2.2005
X4.1195Y-2.3005
X4.1195Y-2.4005
X4.1195Y-2.5005
X4.1195Y-2.6005
X4.1195Y-2.7005
X4.1195Y-2.8005
X4.1195Y-2.9005
X4.1195Y-3.0005
X4.1195Y-3.1005
X4.1195Y-3.2005
X4.1195Y-3.3005
X4.1195Y-3.4005
X4.1195Y-3.5005
X4.1195Y-3.6005
X4.1195Y-3.7005
X4.1195Y-3.8005
X4.1195Y-3.9005
X4.1195Y-4.0005
X4.1195Y-4.1005
X4.1195Y-4.2005
X4.1195Y-4.3005
X4.1195Y-4.4005
X4.1195Y-4.5005
X4.1195Y-4.6005
X4.1195Y-4.7005
X4.1195Y-4.8005
X4.1195Y-4.9005
X4.1195Y-5.0005
X4.1195Y-5.1005
X6.5409Y-5.1654
X6.5409Y-5.4646
X6.6409Y-5.1654
X6.6409Y-5.4646
X6.7409Y-5.1654
X6.7409Y-5.4646
X6.8409Y-5.1654
X6.8409Y-5.4646
X6.9409Y-5.1654
X6.9409Y-5.4646
X7.0409Y-5.1654
X7.0409Y-5.4646
X7.1409Y-5.1654
X7.1409Y-5.4646
X7.2409Y-5.1654
X7.2409Y-5.4646
X7.3409Y-5.1654
X7.3409Y-5.4646
X7.4409Y-5.1654
X7.4409Y-5.4646
X7.5409Y-5.1654
X7.5409Y-5.4646
X7.6409Y-5.1654
X7.6409Y-5.4646
X7.7409Y-5.1654
X7.7409Y-5.4646
X7.8409Y-5.1654
X7.8409Y-5.4646
X7.9409Y-5.1654
X7.9409Y-5.4646
X8.0409Y-5.1654
X8.0409Y-5.4646
X8.1409Y-5.1654
X8.1409Y-5.4646
X8.2409Y-5.1654
X8.2409Y-5.4646
X8.3409Y-5.1654
X8.3409Y-5.4646
X8.4409Y-5.1654
X8.4409Y-5.4646
T3
X4.0171Y-1.6005
X4.0171Y-1.7005
X4.0171Y-1.8005
X4.0171Y-1.9005
X4.0171Y-2.0005
X4.0171Y-2.1005
X4.0171Y-2.2005
X4.0171Y-2.3005
X4.0171Y-2.4005
X4.0171Y-2.5005
X4.0171Y-2.6005
X4.0171Y-2.7005
X4.0171Y-2.8005
X4.0171Y-2.9005
X4.0171Y-3.0005
X4.0171Y-3.1005
X4.0171Y-3.2005
X4.0171Y-3.3005
X4.0171Y-3.4005
X4.0171Y-3.5005
X4.0171Y-3.6005
X4.0171Y-3.7005
X4.0171Y-3.8005
X4.0171Y-3.9005
X4.0171Y-4.0005
X4.0171Y-4.1005
X4.0171Y-4.2005
X4.0171Y-4.3005
X4.0171Y-4.4005
X4.0171Y-4.5005
X4.0171Y-4.6005
X4.0171Y-4.7005
X4.0171Y-4.8005
X4.0171Y-4.9005
X4.0171Y-5.0005
X4.0171Y-5.1005
X4.2205Y-3.5866
X4.2205Y-3.6866
X4.2205Y-3.7866
X4.2205Y-3.8866
X4.2205Y-4.6866
X4.2205Y-4.7866
X4.2205Y-4.8866
X4.2205Y-4.9866
X4.2209Y-2.0887
X4.2209Y-2.1887
X4.2209Y-2.2887
X4.2209Y-2.3887
X4.2209Y-2.4887
X4.2209Y-2.5887
X4.2209Y-2.7887
X4.2209Y-2.8887
X4.2209Y-3.0887
X4.2209Y-3.1887
X4.2209Y-3.3887
X4.2819Y-5.1032
X4.3205Y-3.5866
X4.3205Y-3.6866
X4.3205Y-3.7866
X4.3205Y-3.8866
X4.3205Y-4.6866
X4.3205Y-4.7866
X4.3205Y-4.8866
X4.3205Y-4.9866
X4.3819Y-5.1032
X4.4163Y-1.7821
X4.4205Y-3.5866
X4.4205Y-3.6866
X4.4205Y-3.7866
X4.4205Y-3.8866
X4.4205Y-4.6866
X4.4205Y-4.7866
X4.4205Y-4.8866
X4.4205Y-4.9866
X4.4463Y-1.2541
X4.4663Y-1.8821
X4.5163Y-1.7821
X4.5205Y-3.5866
X4.5205Y-3.6866
X4.5205Y-3.7866
X4.5205Y-3.8866
X4.5205Y-4.6866
X4.5205Y-4.7866
X4.5205Y-4.8866
X4.5205Y-4.9866
X4.5575Y-5.1032
X4.5663Y-1.8821
X4.6163Y-1.7821
X4.6205Y-3.5866
X4.6205Y-3.6866
X4.6205Y-3.7866
X4.6205Y-3.8866
X4.6205Y-4.6866
X4.6205Y-4.7866
X4.6205Y-4.8866
X4.6205Y-4.9866
X4.6575Y-5.1032
X4.6663Y-1.8821
X4.7163Y-1.7821
X4.7205Y-3.5866
X4.7205Y-3.6866
X4.7205Y-3.7866
X4.7205Y-3.8866
X4.7205Y-4.6866
X4.7205Y-4.7866
X4.7205Y-4.8866
X4.7205Y-4.9866
X4.7612Y-1.2541
X4.7663Y-1.8821
X4.8163Y-1.7821
X4.8205Y-3.5866
X4.8205Y-3.6866
X4.8205Y-3.7866
X4.8205Y-3.8866
X4.8205Y-4.6866
X4.8205Y-4.7866
X4.8205Y-4.8866
X4.8205Y-4.9866
X4.8209Y-2.0887
X4.8209Y-2.1887
X4.8209Y-2.2887
X4.8209Y-2.3887
X4.8209Y-2.4887
X4.8209Y-2.5887
X4.8209Y-2.7887
X4.8209Y-2.8887
X4.8209Y-3.0887
X4.8209Y-3.1887
X4.8209Y-3.3887
X4.8663Y-1.8821
X4.9079Y-5.1032
X4.9205Y-3.5866
X4.9205Y-3.6866
X4.9205Y-3.7866
X4.9205Y-3.8866
X4.9205Y-4.6866
X4.9205Y-4.7866
X4.9205Y-4.8866
X4.9205Y-4.9866
X4.9929Y-1.8887
X4.9929Y-1.9887
X4.9929Y-2.0887
X4.9929Y-2.1887
X4.9929Y-2.2887
X4.9929Y-2.3887
X4.9929Y-2.4887
X4.9929Y-2.5887
X4.9929Y-2.6887
X4.9929Y-2.7887
X4.9929Y-2.8887
X4.9929Y-2.9887
X4.9929Y-3.0887
X4.9929Y-3.1887
X4.9929Y-3.2887
X4.9929Y-3.3887
X5.0Y-1.3425
X5.0079Y-5.1032
X5.0205Y-3.5866
X5.0205Y-3.6866
X5.0205Y-3.7866
X5.0205Y-3.8866
X5.0205Y-4.6866
X5.0205Y-4.7866
X5.0205Y-4.8866
X5.0205Y-4.9866
X5.0636Y-1.5387
X5.0636Y-1.7387
X5.0929Y-1.8887
X5.0929Y-1.9887
X5.0929Y-2.0887
X5.0929Y-2.1887
X5.0929Y-2.2887
X5.0929Y-2.3887
X5.0929Y-2.4887
X5.0929Y-2.5887
X5.0929Y-2.6887
X5.0929Y-2.7887
X5.0929Y-2.8887
X5.0929Y-2.9887
X5.0929Y-3.0887
X5.0929Y-3.1887
X5.0929Y-3.2887
X5.0929Y-3.3887
X5.1Y-1.2675
X5.1Y-1.4175
X5.1205Y-3.5866
X5.1205Y-3.6866
X5.1205Y-3.7866
X5.1205Y-3.8866
X5.1205Y-4.6866
X5.1205Y-4.7866
X5.1205Y-4.8866
X5.1205Y-4.9866
X5.1636Y-1.5387
X5.1636Y-1.7387
X5.1835Y-5.1032
X5.1929Y-1.8887
X5.1929Y-1.9887
X5.1929Y-2.0887
X5.1929Y-2.1887
X5.1929Y-2.2887
X5.1929Y-2.3887
X5.1929Y-2.4887
X5.1929Y-2.5887
X5.1929Y-2.6887
X5.1929Y-2.7887
X5.1929Y-2.8887
X5.1929Y-2.9887
X5.1929Y-3.0887
X5.1929Y-3.1887
X5.1929Y-3.2887
X5.1929Y-3.3887
X5.2205Y-3.5866
X5.2205Y-3.6866
X5.2205Y-3.7866
X5.2205Y-3.8866
X5.2205Y-4.6866
X5.2205Y-4.7866
X5.2205Y-4.8866
X5.2205Y-4.9866
X5.2636Y-1.5387
X5.2636Y-1.7387
X5.2835Y-5.1032
X5.2929Y-1.8887
X5.2929Y-1.9887
X5.2929Y-2.0887
X5.2929Y-2.1887
X5.2929Y-2.2887
X5.2929Y-2.3887
X5.2929Y-2.4887
X5.2929Y-2.5887
X5.2929Y-2.6887
X5.2929Y-2.7887
X5.2929Y-2.8887
X5.2929Y-2.9887
X5.2929Y-3.0887
X5.2929Y-3.1887
X5.2929Y-3.2887
X5.2929Y-3.3887
X5.3205Y-3.5866
X5.3205Y-3.6866
X5.3205Y-3.7866
X5.3205Y-3.8866
X5.3205Y-4.6866
X5.3205Y-4.7866
X5.3205Y-4.8866
X5.3205Y-4.9866
X5.3636Y-1.5387
X5.3636Y-1.7387
X5.4205Y-3.5866
X5.4205Y-3.6866
X5.4205Y-3.7866
X5.4205Y-3.8866
X5.4205Y-4.6866
X5.4205Y-4.7866
X5.4205Y-4.8866
X5.4205Y-4.9866
X5.45Y-1.2675
X5.45Y-1.4175
X5.4636Y-1.7887
X5.4636Y-3.3887
X5.5205Y-3.5866
X5.5205Y-3.6866
X5.5205Y-3.7866
X5.5205Y-3.8866
X5.5205Y-4.6866
X5.5205Y-4.7866
X5.5205Y-4.8866
X5.5205Y-4.9866
X5.526Y-5.1032
X5.55Y-1.3425
X5.5636Y-1.6887
X5.5636Y-1.7887
X5.5636Y-1.9887
X5.5636Y-2.0887
X5.5636Y-2.1887
X5.5636Y-2.2887
X5.5636Y-2.3887
X5.5636Y-2.4887
X5.5636Y-2.5887
X5.5636Y-2.6887
X5.5636Y-2.7887
X5.5636Y-2.8887
X5.5636Y-2.9887
X5.5636Y-3.0887
X5.5636Y-3.1887
X5.5636Y-3.3887
X5.5636Y-3.4887
X5.6205Y-3.5866
X5.6205Y-3.6866
X5.6205Y-3.7866
X5.6205Y-3.8866
X5.6205Y-4.6866
X5.6205Y-4.7866
X5.6205Y-4.8866
X5.6205Y-4.9866
X5.626Y-5.1032
X5.6636Y-1.2887
X5.6636Y-1.3887
X5.6636Y-1.4887
X5.6636Y-1.5887
X5.6636Y-2.0387
X5.6636Y-2.1387
X5.6636Y-2.2387
X5.6636Y-2.3387
X5.6636Y-2.4387
X5.6636Y-2.5387
X5.6636Y-2.6387
X5.6636Y-2.7387
X5.6636Y-2.8387
X5.6636Y-2.9387
X5.6636Y-3.0387
X5.6636Y-3.1387
X5.7136Y-1.9387
X5.7136Y-3.2387
X5.7205Y-3.5866
X5.7205Y-3.6866
X5.7205Y-3.7866
X5.7205Y-3.8866
X5.7205Y-4.6866
X5.7205Y-4.7866
X5.7205Y-4.8866
X5.7205Y-4.9866
X5.7636Y-1.2887
X5.7636Y-1.3887
X5.7636Y-1.4887
X5.7636Y-1.5887
X5.7636Y-1.7887
X5.7636Y-1.9887
X5.7636Y-3.1887
X5.7636Y-3.3887
X5.8136Y-1.8887
X5.8136Y-3.2887
X5.8205Y-3.5866
X5.8205Y-3.6866
X5.8205Y-3.7866
X5.8205Y-3.8866
X5.8205Y-4.6866
X5.8205Y-4.7866
X5.8205Y-4.8866
X5.8205Y-4.9866
X5.8636Y-1.2887
X5.8636Y-1.3887
X5.8636Y-1.4887
X5.8636Y-1.5887
X5.8636Y-1.7887
X5.8636Y-3.3887
X5.8764Y-5.1032
X5.9136Y-1.8887
X5.9136Y-3.2887
X5.9205Y-3.5866
X5.9205Y-3.6866
X5.9205Y-3.7866
X5.9205Y-3.8866
X5.9205Y-4.6866
X5.9205Y-4.7866
X5.9205Y-4.8866
X5.9205Y-4.9866
X5.9636Y-1.2887
X5.9636Y-1.3887
X5.9636Y-1.4887
X5.9636Y-1.5887
X5.9636Y-1.7887
X5.9636Y-3.3887
X5.9764Y-5.1032
X6.0136Y-1.8887
X6.0136Y-3.2887
X6.0205Y-3.5866
X6.0205Y-3.6866
X6.0205Y-3.7866
X6.0205Y-3.8866
X6.0205Y-4.6866
X6.0205Y-4.7866
X6.0205Y-4.8866
X6.0205Y-4.9866
X6.0636Y-1.2887
X6.0636Y-1.3887
X6.0636Y-1.4887
X6.0636Y-1.5887
X6.0636Y-1.7887
X6.0636Y-3.3887
X6.1136Y-1.8887
X6.1136Y-3.2887
X6.1205Y-3.5866
X6.1205Y-3.6866
X6.1205Y-3.7866
X6.1205Y-3.8866
X6.1205Y-4.6866
X6.1205Y-4.7866
X6.1205Y-4.8866
X6.1205Y-4.9866
X6.1636Y-1.2887
X6.1636Y-1.3887
X6.1636Y-1.4887
X6.1636Y-1.5887
X6.1636Y-1.7887
X6.1636Y-3.3887
X6.2136Y-1.8887
X6.2136Y-3.2887
X6.2189Y-5.1032
X6.2205Y-3.5866
X6.2205Y-3.6866
X6.2205Y-3.7866
X6.2205Y-3.8866
X6.2205Y-4.6866
X6.2205Y-4.7866
X6.2205Y-4.8866
X6.2205Y-4.9866
X6.2636Y-1.2887
X6.2636Y-1.3887
X6.2636Y-1.4887
X6.2636Y-1.5887
X6.2636Y-1.7887
X6.2636Y-3.3887
X6.3136Y-1.8887
X6.3136Y-3.2887
X6.3189Y-5.1032
X6.3205Y-3.5866
X6.3205Y-3.6866
X6.3205Y-3.7866
X6.3205Y-3.8866
X6.3205Y-4.6866
X6.3205Y-4.7866
X6.3205Y-4.8866
X6.3205Y-4.9866
X6.3636Y-1.2887
X6.3636Y-1.3887
X6.3636Y-1.4887
X6.3636Y-1.5887
X6.3636Y-1.7887
X6.3636Y-3.3887
X6.4136Y-1.8887
X6.4136Y-3.2887
X6.4205Y-3.5866
X6.4205Y-3.6866
X6.4205Y-3.7866
X6.4205Y-3.8866
X6.4205Y-4.6866
X6.4205Y-4.7866
X6.4205Y-4.8866
X6.4205Y-4.9866
X6.4636Y-1.2887
X6.4636Y-1.3887
X6.4636Y-1.4887
X6.4636Y-1.5887
X6.4636Y-1.7887
X6.4636Y-3.3887
X6.5136Y-1.8887
X6.5136Y-3.2887
X6.5409Y-5.2661
X6.5409Y-5.3661
X6.547Y-3.5866
X6.547Y-3.6866
X6.547Y-3.7866
X6.547Y-3.8866
X6.547Y-3.9866
X6.547Y-4.0866
X6.547Y-4.1866
X6.547Y-4.2866
X6.547Y-4.3866
X6.547Y-4.4866
X6.547Y-4.5866
X6.547Y-4.6866
X6.547Y-4.7866
X6.547Y-4.8866
X6.547Y-4.9866
X6.547Y-5.0866
X6.5636Y-1.2887
X6.5636Y-1.3887
X6.5636Y-1.4887
X6.5636Y-1.5887
X6.5636Y-1.7887
X6.5636Y-3.3887
X6.6136Y-1.8887
X6.6136Y-3.2887
X6.6409Y-5.2661
X6.6409Y-5.3661
X6.647Y-3.5866
X6.647Y-3.6866
X6.647Y-3.7866
X6.647Y-3.8866
X6.647Y-3.9866
X6.647Y-4.0866
X6.647Y-4.1866
X6.647Y-4.2866
X6.647Y-4.3866
X6.647Y-4.4866
X6.647Y-4.5866
X6.647Y-4.6866
X6.647Y-4.7866
X6.647Y-4.8866
X6.647Y-4.9866
X6.647Y-5.0866
X6.6636Y-1.2887
X6.6636Y-1.3887
X6.6636Y-1.4887
X6.6636Y-1.5887
X6.6636Y-1.7887
X6.6636Y-3.3887
X6.7136Y-1.8887
X6.7136Y-3.2887
X6.7409Y-5.2661
X6.7409Y-5.3661
X6.747Y-3.5866
X6.747Y-3.6866
X6.747Y-3.7866
X6.747Y-3.8866
X6.747Y-3.9866
X6.747Y-4.0866
X6.747Y-4.1866
X6.747Y-4.2866
X6.747Y-4.3866
X6.747Y-4.4866
X6.747Y-4.5866
X6.747Y-4.6866
X6.747Y-4.7866
X6.747Y-4.8866
X6.747Y-4.9866
X6.747Y-5.0866
X6.7636Y-1.2887
X6.7636Y-1.3887
X6.7636Y-1.4887
X6.7636Y-1.5887
X6.7636Y-1.7887
X6.7636Y-3.3887
X6.8136Y-1.8887
X6.8136Y-3.2887
X6.8409Y-5.2661
X6.8409Y-5.3661
X6.847Y-3.5866
X6.847Y-3.6866
X6.847Y-3.7866
X6.847Y-3.8866
X6.847Y-3.9866
X6.847Y-4.0866
X6.847Y-4.1866
X6.847Y-4.2866
X6.847Y-4.3866
X6.847Y-4.4866
X6.847Y-4.5866
X6.847Y-4.6866
X6.847Y-4.7866
X6.847Y-4.8866
X6.847Y-4.9866
X6.847Y-5.0866
X6.8636Y-1.2887
X6.8636Y-1.3887
X6.8636Y-1.4887
X6.8636Y-1.5887
X6.8636Y-1.7887
X6.8636Y-3.3887
X6.9136Y-1.8887
X6.9136Y-3.2887
X6.9409Y-5.2661
X6.9409Y-5.3661
X6.947Y-3.5866
X6.947Y-3.6866
X6.947Y-3.7866
X6.947Y-3.8866
X6.947Y-3.9866
X6.947Y-4.0866
X6.947Y-4.1866
X6.947Y-4.2866
X6.947Y-4.3866
X6.947Y-4.4866
X6.947Y-4.5866
X6.947Y-4.6866
X6.947Y-4.7866
X6.947Y-4.8866
X6.947Y-4.9866
X6.947Y-5.0866
X6.9636Y-1.2887
X6.9636Y-1.3887
X6.9636Y-1.4887
X6.9636Y-1.5887
X6.9636Y-1.7887
X6.9636Y-1.9887
X6.9636Y-3.1887
X6.9636Y-3.3887
X7.0136Y-1.9387
X7.0136Y-3.2387
X7.0409Y-5.2661
X7.0409Y-5.3661
X7.047Y-3.5866
X7.047Y-3.6866
X7.047Y-3.7866
X7.047Y-3.8866
X7.047Y-3.9866
X7.047Y-4.0866
X7.047Y-4.1866
X7.047Y-4.2866
X7.047Y-4.3866
X7.047Y-4.4866
X7.047Y-4.5866
X7.047Y-4.6866
X7.047Y-4.7866
X7.047Y-4.8866
X7.047Y-4.9866
X7.047Y-5.0866
X7.0636Y-1.2887
X7.0636Y-1.3887
X7.0636Y-1.4887
X7.0636Y-1.5887
X7.0636Y-2.0387
X7.0636Y-2.1387
X7.0636Y-2.2387
X7.0636Y-2.3387
X7.0636Y-2.4387
X7.0636Y-2.5387
X7.0636Y-2.6387
X7.0636Y-2.7387
X7.0636Y-2.8387
X7.0636Y-2.9387
X7.0636Y-3.0387
X7.0636Y-3.1387
X7.1409Y-5.2661
X7.1409Y-5.3661
X7.1636Y-1.2887
X7.1636Y-1.3887
X7.1636Y-1.4887
X7.1636Y-1.5887
X7.1636Y-1.6887
X7.1636Y-1.7887
X7.1636Y-1.9887
X7.1636Y-2.0887
X7.1636Y-2.1887
X7.1636Y-2.2887
X7.1636Y-2.3887
X7.1636Y-2.4887
X7.1636Y-2.5887
X7.1636Y-2.6887
X7.1636Y-2.7887
X7.1636Y-2.8887
X7.1636Y-2.9887
X7.1636Y-3.0887
X7.1636Y-3.1887
X7.1636Y-3.3887
X7.1636Y-3.4887
X7.2409Y-5.2661
X7.2409Y-5.3661
X7.2636Y-1.7887
X7.2636Y-3.3887
X7.3409Y-5.2661
X7.3409Y-5.3661
X7.3636Y-1.7887
X7.3636Y-1.8887
X7.3636Y-1.9887
X7.3636Y-2.0887
X7.3636Y-2.1887
X7.3636Y-2.2887
X7.3636Y-2.3887
X7.3636Y-2.4887
X7.3636Y-2.5887
X7.3636Y-2.6887
X7.3636Y-2.7887
X7.3636Y-2.8887
X7.3636Y-2.9887
X7.3636Y-3.0887
X7.3636Y-3.1887
X7.3636Y-3.2887
X7.3636Y-3.3887
X7.4409Y-5.2661
X7.4409Y-5.3661
X7.4575Y-1.2498
X7.4575Y-1.3998
X7.4575Y-1.4998
X7.4575Y-1.6498
X7.4636Y-1.8887
X7.4636Y-1.9887
X7.4636Y-2.0887
X7.4636Y-2.1887
X7.4636Y-2.2887
X7.4636Y-2.3887
X7.4636Y-2.4887
X7.4636Y-2.5887
X7.4636Y-2.6887
X7.4636Y-2.7887
X7.4636Y-2.8887
X7.4636Y-2.9887
X7.4636Y-3.0887
X7.4636Y-3.1887
X7.4636Y-3.2887
X7.4636Y-3.3887
X7.5409Y-5.2661
X7.5409Y-5.3661
X7.5575Y-1.2498
X7.5575Y-1.3998
X7.5575Y-1.4998
X7.5575Y-1.6498
X7.5636Y-1.8887
X7.5636Y-1.9887
X7.5636Y-2.0887
X7.5636Y-2.1887
X7.5636Y-2.2887
X7.5636Y-2.3887
X7.5636Y-2.4887
X7.5636Y-2.5887
X7.5636Y-2.6887
X7.5636Y-2.7887
X7.5636Y-2.8887
X7.5636Y-2.9887
X7.5636Y-3.0887
X7.5636Y-3.1887
X7.5636Y-3.2887
X7.5636Y-3.3887
X7.6409Y-5.2661
X7.6409Y-5.3661
X7.6575Y-1.2498
X7.6575Y-1.3998
X7.6575Y-1.4998
X7.6575Y-1.6498
X7.6636Y-1.8887
X7.6636Y-1.9887
X7.6636Y-2.0887
X7.6636Y-2.1887
X7.6636Y-2.2887
X7.6636Y-2.3887
X7.6636Y-2.4887
X7.6636Y-2.5887
X7.6636Y-2.6887
X7.6636Y-2.7887
X7.6636Y-2.8887
X7.6636Y-2.9887
X7.6636Y-3.0887
X7.6636Y-3.1887
X7.6636Y-3.2887
X7.6636Y-3.3887
X7.7409Y-5.2661
X7.7409Y-5.3661
X7.7575Y-1.2498
X7.7575Y-1.3998
X7.7575Y-1.4998
X7.7575Y-1.6498
X7.7636Y-1.8887
X7.7636Y-1.9887
X7.7636Y-2.0887
X7.7636Y-2.1887
X7.7636Y-2.2887
X7.7636Y-2.3887
X7.7636Y-2.4887
X7.7636Y-2.5887
X7.7636Y-2.6887
X7.7636Y-2.7887
X7.7636Y-2.8887
X7.7636Y-2.9887
X7.7636Y-3.0887
X7.7636Y-3.1887
X7.7636Y-3.2887
X7.7636Y-3.3887
X7.8409Y-5.2661
X7.8409Y-5.3661
X7.8575Y-1.2498
X7.8575Y-1.3998
X7.8575Y-1.4998
X7.8575Y-1.6498
X7.8636Y-1.8887
X7.8636Y-1.9887
X7.8636Y-2.0887
X7.8636Y-2.1887
X7.8636Y-2.2887
X7.8636Y-2.3887
X7.8636Y-2.4887
X7.8636Y-2.5887
X7.8636Y-2.6887
X7.8636Y-2.7887
X7.8636Y-2.8887
X7.8636Y-2.9887
X7.8636Y-3.0887
X7.8636Y-3.1887
X7.8636Y-3.2887
X7.8636Y-3.3887
X7.9409Y-5.2661
X7.9409Y-5.3661
X7.9636Y-1.7887
X7.9636Y-1.8887
X7.9636Y-1.9887
X7.9636Y-2.0887
X7.9636Y-2.1887
X7.9636Y-2.2887
X7.9636Y-2.3887
X7.9636Y-2.4887
X7.9636Y-2.5887
X7.9636Y-2.6887
X7.9636Y-2.7887
X7.9636Y-2.8887
X7.9636Y-2.9887
X7.9636Y-3.0887
X7.9636Y-3.1887
X7.9636Y-3.2887
X7.9636Y-3.3887
X8.0409Y-5.2661
X8.0409Y-5.3661
X8.047Y-3.5866
X8.047Y-3.6866
X8.047Y-3.7866
X8.047Y-3.8866
X8.047Y-3.9866
X8.047Y-4.0866
X8.047Y-4.1866
X8.047Y-4.2866
X8.047Y-4.3866
X8.047Y-4.4866
X8.047Y-4.5866
X8.047Y-4.6866
X8.047Y-4.7866
X8.047Y-4.8866
X8.047Y-4.9866
X8.047Y-5.0866
X8.0636Y-1.8887
X8.0636Y-1.9887
X8.0636Y-2.0887
X8.0636Y-2.1887
X8.0636Y-2.2887
X8.0636Y-2.3887
X8.0636Y-2.4887
X8.0636Y-2.5887
X8.0636Y-2.6887
X8.0636Y-2.7887
X8.0636Y-2.8887
X8.0636Y-2.9887
X8.0636Y-3.0887
X8.0636Y-3.1887
X8.0636Y-3.2887
X8.0636Y-3.3887
X8.1409Y-5.2661
X8.1409Y-5.3661
X8.147Y-3.5866
X8.147Y-3.6866
X8.147Y-3.7866
X8.147Y-3.8866
X8.147Y-3.9866
X8.147Y-4.0866
X8.147Y-4.1866
X8.147Y-4.2866
X8.147Y-4.3866
X8.147Y-4.4866
X8.147Y-4.5866
X8.147Y-4.6866
X8.147Y-4.7866
X8.147Y-4.8866
X8.147Y-4.9866
X8.147Y-5.0866
X8.1636Y-1.6887
X8.1636Y-1.7887
X8.1636Y-1.8887
X8.1636Y-1.9887
X8.1636Y-2.7887
X8.1636Y-2.8887
X8.1636Y-2.9887
X8.1636Y-3.1887
X8.1636Y-3.2887
X8.1636Y-3.3887
X8.2136Y-2.2387
X8.2136Y-2.5887
X8.2394Y-3.5866
X8.2394Y-3.6866
X8.2394Y-3.7866
X8.2394Y-3.8866
X8.2394Y-3.9866
X8.2394Y-4.0866
X8.2394Y-4.1866
X8.2394Y-4.2866
X8.2394Y-4.3866
X8.2394Y-4.4866
X8.2394Y-4.5866
X8.2394Y-4.6866
X8.2394Y-4.7866
X8.2394Y-4.8866
X8.2394Y-4.9866
X8.2394Y-5.0866
X8.2409Y-5.2661
X8.2409Y-5.3661
X8.2636Y-1.6887
X8.2636Y-1.7887
X8.2636Y-1.8887
X8.2636Y-1.9887
X8.2886Y-2.1387
X8.2886Y-2.6887
X8.3394Y-3.5866
X8.3394Y-3.6866
X8.3394Y-3.7866
X8.3394Y-3.8866
X8.3394Y-3.9866
X8.3394Y-4.0866
X8.3394Y-4.1866
X8.3394Y-4.2866
X8.3394Y-4.3866
X8.3394Y-4.4866
X8.3394Y-4.5866
X8.3394Y-4.6866
X8.3394Y-4.7866
X8.3394Y-4.8866
X8.3394Y-4.9866
X8.3394Y-5.0866
X8.3409Y-5.2661
X8.3409Y-5.3661
X8.3636Y-1.6887
X8.3636Y-1.7887
X8.3636Y-1.8887
X8.3636Y-1.9887
X8.3636Y-2.2387
X8.3636Y-2.5887
X8.4394Y-3.5866
X8.4394Y-3.6866
X8.4394Y-3.7866
X8.4394Y-3.8866
X8.4394Y-3.9866
X8.4394Y-4.0866
X8.4394Y-4.1866
X8.4394Y-4.2866
X8.4394Y-4.3866
X8.4394Y-4.4866
X8.4394Y-4.5866
X8.4394Y-4.6866
X8.4394Y-4.7866
X8.4394Y-4.8866
X8.4394Y-4.9866
X8.4394Y-5.0866
X8.4409Y-5.2661
X8.4409Y-5.3661
X8.4636Y-1.6887
X8.4636Y-1.7887
X8.4636Y-1.8887
X8.4636Y-1.9887
X8.5195Y-2.2387
X8.5195Y-2.5887
X8.5394Y-3.5866
X8.5394Y-3.6866
X8.5394Y-3.7866
X8.5394Y-3.8866
X8.5394Y-3.9866
X8.5394Y-4.0866
X8.5394Y-4.1866
X8.5394Y-4.2866
X8.5394Y-4.3866
X8.5394Y-4.4866
X8.5394Y-4.5866
X8.5394Y-4.6866
X8.5394Y-4.7866
X8.5394Y-4.8866
X8.5394Y-4.9866
X8.5394Y-5.0866
X8.5636Y-1.6887
X8.5636Y-1.7887
X8.5636Y-1.8887
X8.5636Y-1.9887
X8.5945Y-2.1387
X8.5945Y-2.6887
X8.6398Y-2.8921
X8.6398Y-2.9921
X8.6398Y-3.0921
X8.6398Y-3.1921
X8.6398Y-3.2921
X8.6629Y-4.6339
X8.6629Y-4.7339
X8.6629Y-4.9843
X8.6629Y-5.0843
X8.6634Y-1.3965
X8.6634Y-1.4965
X8.6634Y-1.5965
X8.6634Y-3.5984
X8.6634Y-3.6984
X8.6634Y-3.9409
X8.6634Y-4.0409
X8.6634Y-4.2913
X8.6634Y-4.3913
X8.6636Y-1.6887
X8.6636Y-1.7887
X8.6636Y-1.8887
X8.6636Y-1.9887
X8.6695Y-2.2387
X8.6695Y-2.5887
X8.7398Y-2.8921
X8.7398Y-2.9921
X8.7398Y-3.0921
X8.7398Y-3.1921
X8.7398Y-3.2921
X8.7636Y-1.6887
X8.7636Y-1.7887
X8.7636Y-1.8887
X8.7636Y-1.9887
X8.8187Y-2.2387
X8.8187Y-2.5887
X8.8398Y-2.8921
X8.8398Y-2.9921
X8.8398Y-3.0921
X8.8398Y-3.1921
X8.8398Y-3.2921
X8.8636Y-1.6887
X8.8636Y-1.7887
X8.8636Y-1.8887
X8.8636Y-1.9887
X8.8937Y-2.1387
X8.8937Y-2.6887
X8.9398Y-2.8921
X8.9398Y-2.9921
X8.9398Y-3.0921
X8.9398Y-3.1921
X8.9398Y-3.2921
X8.9636Y-1.6887
X8.9636Y-1.7887
X8.9636Y-1.8887
X8.9636Y-1.9887
X8.9687Y-2.2387
X8.9687Y-2.5887
T4
X4.2638Y-5.3307
X4.4016Y-5.3307
X4.5394Y-5.3307
X4.6772Y-5.3307
X4.8858Y-5.3307
X5.0236Y-5.3307
X5.1614Y-5.3307
X5.2992Y-5.3307
X5.5079Y-5.3307
X5.6457Y-5.3307
X5.8543Y-5.3307
X5.9921Y-5.3307
X6.2008Y-5.3307
X6.3386Y-5.3307
X8.8904Y-4.6181
X8.8904Y-4.7559
X8.8904Y-4.9646
X8.8904Y-5.1024
X8.8908Y-3.5787
X8.8908Y-3.7165
X8.8908Y-3.9252
X8.8908Y-4.063
X8.8908Y-4.2717
X8.8908Y-4.4094
M30
