%TF.GenerationSoftware,KiCad,Pcbnew,9.0.1*%
%TF.CreationDate,2026-01-25T18:39:14-05:00*%
%TF.ProjectId,project-board-olimex-smt,70726f6a-6563-4742-9d62-6f6172642d6f,rev?*%
%TF.SameCoordinates,Original*%
%TF.FileFunction,Copper,L2,Bot*%
%TF.FilePolarity,Positive*%
%FSLAX46Y46*%
G04 Gerber Fmt 4.6, Leading zero omitted, Abs format (unit mm)*
G04 Created by KiCad (PCBNEW 9.0.1) date 2026-01-25 18:39:14*
%MOMM*%
%LPD*%
G01*
G04 APERTURE LIST*
G04 Aperture macros list*
%AMRoundRect*
0 Rectangle with rounded corners*
0 $1 Rounding radius*
0 $2 $3 $4 $5 $6 $7 $8 $9 X,Y pos of 4 corners*
0 Add a 4 corners polygon primitive as box body*
4,1,4,$2,$3,$4,$5,$6,$7,$8,$9,$2,$3,0*
0 Add four circle primitives for the rounded corners*
1,1,$1+$1,$2,$3*
1,1,$1+$1,$4,$5*
1,1,$1+$1,$6,$7*
1,1,$1+$1,$8,$9*
0 Add four rect primitives between the rounded corners*
20,1,$1+$1,$2,$3,$4,$5,0*
20,1,$1+$1,$4,$5,$6,$7,0*
20,1,$1+$1,$6,$7,$8,$9,0*
20,1,$1+$1,$8,$9,$2,$3,0*%
G04 Aperture macros list end*
%TA.AperFunction,ComponentPad*%
%ADD10R,1.700000X1.700000*%
%TD*%
%TA.AperFunction,ComponentPad*%
%ADD11C,2.060000*%
%TD*%
%TA.AperFunction,ComponentPad*%
%ADD12RoundRect,0.250001X-0.949999X-0.949999X0.949999X-0.949999X0.949999X0.949999X-0.949999X0.949999X0*%
%TD*%
%TA.AperFunction,ComponentPad*%
%ADD13C,2.400000*%
%TD*%
%TA.AperFunction,ComponentPad*%
%ADD14O,1.300000X1.900000*%
%TD*%
%TA.AperFunction,ComponentPad*%
%ADD15O,1.400000X1.700000*%
%TD*%
%TA.AperFunction,ComponentPad*%
%ADD16R,1.800000X1.800000*%
%TD*%
%TA.AperFunction,ComponentPad*%
%ADD17RoundRect,0.250001X0.949999X-0.949999X0.949999X0.949999X-0.949999X0.949999X-0.949999X-0.949999X0*%
%TD*%
%TA.AperFunction,ComponentPad*%
%ADD18O,1.700000X1.700000*%
%TD*%
%TA.AperFunction,ComponentPad*%
%ADD19R,1.600000X1.600000*%
%TD*%
%TA.AperFunction,ComponentPad*%
%ADD20O,1.900000X1.700000*%
%TD*%
%TA.AperFunction,ComponentPad*%
%ADD21C,1.700000*%
%TD*%
%TA.AperFunction,ComponentPad*%
%ADD22O,1.900000X1.400000*%
%TD*%
%TA.AperFunction,ComponentPad*%
%ADD23C,1.000000*%
%TD*%
%TA.AperFunction,ComponentPad*%
%ADD24O,1.399540X1.800000*%
%TD*%
%TA.AperFunction,ComponentPad*%
%ADD25O,1.700000X1.900000*%
%TD*%
%TA.AperFunction,SMDPad,CuDef*%
%ADD26R,2.500000X0.600000*%
%TD*%
%TA.AperFunction,SMDPad,CuDef*%
%ADD27R,0.600000X8.900000*%
%TD*%
%TA.AperFunction,SMDPad,CuDef*%
%ADD28R,0.600000X6.500000*%
%TD*%
%TA.AperFunction,SMDPad,CuDef*%
%ADD29R,0.600000X4.900000*%
%TD*%
%TA.AperFunction,SMDPad,CuDef*%
%ADD30R,0.600000X2.500000*%
%TD*%
%TA.AperFunction,SMDPad,CuDef*%
%ADD31R,4.900000X0.600000*%
%TD*%
%TA.AperFunction,SMDPad,CuDef*%
%ADD32R,6.500000X0.600000*%
%TD*%
%TA.AperFunction,SMDPad,CuDef*%
%ADD33R,8.900000X0.600000*%
%TD*%
%TA.AperFunction,ViaPad*%
%ADD34C,0.600000*%
%TD*%
%TA.AperFunction,ViaPad*%
%ADD35C,1.524000*%
%TD*%
%TA.AperFunction,Conductor*%
%ADD36C,0.203200*%
%TD*%
%TA.AperFunction,Conductor*%
%ADD37C,0.304800*%
%TD*%
%TA.AperFunction,Conductor*%
%ADD38C,1.016000*%
%TD*%
%TA.AperFunction,Conductor*%
%ADD39C,0.508000*%
%TD*%
%TA.AperFunction,Profile*%
%ADD40C,0.254000*%
%TD*%
G04 APERTURE END LIST*
D10*
%TO.P,,1*%
%TO.N,N/C*%
X129360000Y-50513220D03*
%TO.P,,2*%
X131900000Y-50513220D03*
%TO.P,,3*%
X131900000Y-53053220D03*
%TO.P,,4*%
X129360000Y-53053220D03*
%TO.P,,5*%
X126820000Y-53053220D03*
%TO.P,,6*%
X126820000Y-50513220D03*
%TO.P,,7*%
X126820000Y-47973220D03*
%TO.P,,8*%
X129360000Y-47973220D03*
%TO.P,,9*%
X131900000Y-47973220D03*
%TO.P,,10*%
X134440000Y-47973220D03*
%TO.P,,11*%
X134440000Y-50513220D03*
%TO.P,,12*%
X134440000Y-53053220D03*
%TO.P,,13*%
X134440000Y-55593220D03*
%TO.P,,14*%
X131900000Y-55593220D03*
%TO.P,,15*%
X129360000Y-55593220D03*
%TO.P,,16*%
X126820000Y-55593220D03*
%TD*%
D11*
%TO.P,,1*%
%TO.N,N/C*%
X216395000Y-65753220D03*
%TO.P,,2*%
X218300000Y-68293220D03*
%TO.P,,3*%
X220205000Y-65753220D03*
%TO.P,,4*%
X220205000Y-56863220D03*
%TO.P,,5*%
X218300000Y-54323220D03*
%TO.P,,6*%
X216395000Y-56863220D03*
%TD*%
D10*
%TO.P,,1*%
%TO.N,N/C*%
X207354740Y-80993220D03*
%TO.P,,2*%
X207354740Y-83533220D03*
%TO.P,,3*%
X207354740Y-86073220D03*
%TD*%
%TO.P,,1*%
%TO.N,N/C*%
X189574740Y-70833220D03*
%TO.P,,2*%
X192114740Y-70833220D03*
%TO.P,,3*%
X192114740Y-73373220D03*
%TO.P,,4*%
X189574740Y-73373220D03*
%TO.P,,5*%
X187034740Y-73373220D03*
%TO.P,,6*%
X187034740Y-70833220D03*
%TO.P,,7*%
X187034740Y-68293220D03*
%TO.P,,8*%
X189574740Y-68293220D03*
%TO.P,,9*%
X192114740Y-68293220D03*
%TO.P,,10*%
X194654740Y-68293220D03*
%TO.P,,11*%
X194654740Y-70833220D03*
%TO.P,,12*%
X194654740Y-73373220D03*
%TO.P,,13*%
X194654740Y-75913220D03*
%TO.P,,14*%
X192114740Y-75913220D03*
%TO.P,,15*%
X189574740Y-75913220D03*
%TO.P,,16*%
X187034740Y-75913220D03*
%TD*%
D12*
%TO.P,REF\u002A\u002A,1*%
%TO.N,N/C*%
X157500000Y-135400000D03*
D13*
%TO.P,REF\u002A\u002A,2*%
X161000000Y-135400000D03*
%TD*%
D10*
%TO.P,,1*%
%TO.N,N/C*%
X166714740Y-35273220D03*
%TO.P,,2*%
X169254740Y-35273220D03*
%TO.P,,3*%
X169254740Y-37813220D03*
%TO.P,,4*%
X166714740Y-37813220D03*
%TO.P,,5*%
X164174740Y-37813220D03*
%TO.P,,6*%
X164174740Y-35273220D03*
%TO.P,,7*%
X164174740Y-32733220D03*
%TO.P,,8*%
X166714740Y-32733220D03*
%TO.P,,9*%
X169254740Y-32733220D03*
%TO.P,,10*%
X171794740Y-32733220D03*
%TO.P,,11*%
X171794740Y-35273220D03*
%TO.P,,12*%
X171794740Y-37813220D03*
%TO.P,,13*%
X171794740Y-40353220D03*
%TO.P,,14*%
X169254740Y-40353220D03*
%TO.P,,15*%
X166714740Y-40353220D03*
%TO.P,,16*%
X164174740Y-40353220D03*
%TD*%
D14*
%TO.P,,1*%
%TO.N,N/C*%
X160540000Y-126660000D03*
%TO.P,,2*%
X160540000Y-124120000D03*
%TO.P,,3*%
X160540000Y-121580000D03*
%TO.P,,4*%
X160540000Y-119040000D03*
D15*
%TO.P,,5*%
X160540000Y-98720000D03*
%TO.P,,6*%
X160540000Y-96180000D03*
%TO.P,,7*%
X160540000Y-93640000D03*
%TO.P,,8*%
X160540000Y-91100000D03*
%TD*%
D14*
%TO.P,,1*%
%TO.N,N/C*%
X112280000Y-126660000D03*
%TO.P,,2*%
X112280000Y-124120000D03*
%TO.P,,3*%
X112280000Y-121580000D03*
%TO.P,,4*%
X112280000Y-119040000D03*
D15*
%TO.P,,5*%
X112280000Y-98720000D03*
%TO.P,,6*%
X112280000Y-96180000D03*
%TO.P,,7*%
X112280000Y-93640000D03*
%TO.P,,8*%
X112280000Y-91100000D03*
%TD*%
D16*
%TO.P,,1*%
%TO.N,N/C*%
X107210000Y-73373220D03*
X122450000Y-73373220D03*
%TO.P,,2*%
X107210000Y-78453220D03*
X122450000Y-78453220D03*
%TD*%
D17*
%TO.P,REF\u002A\u002A,1*%
%TO.N,N/C*%
X225827500Y-103200000D03*
D13*
%TO.P,REF\u002A\u002A,2*%
X225827500Y-99700000D03*
%TD*%
D11*
%TO.P,,1*%
%TO.N,N/C*%
X208624740Y-65753220D03*
%TO.P,,2*%
X210529740Y-68293220D03*
%TO.P,,3*%
X212434740Y-65753220D03*
%TO.P,,4*%
X212434740Y-56863220D03*
%TO.P,,5*%
X210529740Y-54323220D03*
%TO.P,,6*%
X208624740Y-56863220D03*
%TD*%
D18*
%TO.P,REF\u002A\u002A,1*%
%TO.N,N/C*%
X220050000Y-102640000D03*
X220050000Y-100100000D03*
%TD*%
D19*
%TO.P,,1*%
%TO.N,N/C*%
X107210000Y-60673220D03*
%TO.P,,2*%
X122450000Y-60673220D03*
%TD*%
D14*
%TO.P,,1*%
%TO.N,N/C*%
X135140000Y-126660000D03*
%TO.P,,2*%
X135140000Y-124120000D03*
%TO.P,,3*%
X135140000Y-121580000D03*
%TO.P,,4*%
X135140000Y-119040000D03*
D15*
%TO.P,,5*%
X135140000Y-98720000D03*
%TO.P,,6*%
X135140000Y-96180000D03*
%TO.P,,7*%
X135140000Y-93640000D03*
%TO.P,,8*%
X135140000Y-91100000D03*
%TD*%
D10*
%TO.P,,1*%
%TO.N,N/C*%
X224530000Y-83620000D03*
X227070000Y-83620000D03*
D20*
%TO.P,,2*%
X219450000Y-83620000D03*
D21*
X221990000Y-83620000D03*
%TO.P,,3*%
X224530000Y-81080000D03*
D20*
X227070000Y-81080000D03*
%TO.P,,4*%
X219450000Y-81080000D03*
D21*
X221990000Y-81080000D03*
%TO.P,,5*%
X224530000Y-78540000D03*
D20*
X227070000Y-78540000D03*
%TO.P,,6*%
X219450000Y-78540000D03*
D21*
X221990000Y-78540000D03*
%TO.P,,7*%
X224530000Y-76000000D03*
D20*
X227070000Y-76000000D03*
%TO.P,,8*%
X219450000Y-76000000D03*
D21*
X221990000Y-76000000D03*
%TO.P,,9*%
X224530000Y-73460000D03*
D20*
X227070000Y-73460000D03*
%TO.P,,10*%
X219450000Y-73460000D03*
D21*
X221990000Y-73460000D03*
%TD*%
D17*
%TO.P,REF\u002A\u002A,1*%
%TO.N,N/C*%
X225816250Y-129600000D03*
D13*
%TO.P,REF\u002A\u002A,2*%
X225816250Y-126100000D03*
%TD*%
D10*
%TO.P,REF\u002A\u002A,1*%
%TO.N,N/C*%
X166140000Y-136300000D03*
D21*
%TO.P,REF\u002A\u002A,2*%
X166140000Y-133760000D03*
%TO.P,REF\u002A\u002A,3*%
X168680000Y-136300000D03*
%TO.P,REF\u002A\u002A,4*%
X168680000Y-133760000D03*
%TO.P,REF\u002A\u002A,5*%
X171220000Y-136300000D03*
%TO.P,REF\u002A\u002A,6*%
X171220000Y-133760000D03*
%TO.P,REF\u002A\u002A,7*%
X173760000Y-136300000D03*
%TO.P,REF\u002A\u002A,8*%
X173760000Y-133760000D03*
%TO.P,REF\u002A\u002A,9*%
X176300000Y-136300000D03*
%TO.P,REF\u002A\u002A,10*%
X176300000Y-133760000D03*
%TO.P,REF\u002A\u002A,11*%
X178840000Y-136300000D03*
%TO.P,REF\u002A\u002A,12*%
X178840000Y-133760000D03*
%TO.P,REF\u002A\u002A,13*%
X181380000Y-136300000D03*
%TO.P,REF\u002A\u002A,14*%
X181380000Y-133760000D03*
%TO.P,REF\u002A\u002A,15*%
X183920000Y-136300000D03*
%TO.P,REF\u002A\u002A,16*%
X183920000Y-133760000D03*
%TO.P,REF\u002A\u002A,17*%
X186460000Y-136300000D03*
%TO.P,REF\u002A\u002A,18*%
X186460000Y-133760000D03*
%TO.P,REF\u002A\u002A,19*%
X189000000Y-136300000D03*
%TO.P,REF\u002A\u002A,20*%
X189000000Y-133760000D03*
%TO.P,REF\u002A\u002A,21*%
X191540000Y-136300000D03*
%TO.P,REF\u002A\u002A,22*%
X191540000Y-133760000D03*
%TO.P,REF\u002A\u002A,23*%
X194080000Y-136300000D03*
%TO.P,REF\u002A\u002A,24*%
X194080000Y-133760000D03*
%TO.P,REF\u002A\u002A,25*%
X196620000Y-136300000D03*
%TO.P,REF\u002A\u002A,26*%
X196620000Y-133760000D03*
%TO.P,REF\u002A\u002A,27*%
X199160000Y-136300000D03*
%TO.P,REF\u002A\u002A,28*%
X199160000Y-133760000D03*
%TO.P,REF\u002A\u002A,29*%
X201700000Y-136300000D03*
%TO.P,REF\u002A\u002A,30*%
X201700000Y-133760000D03*
%TO.P,REF\u002A\u002A,31*%
X204240000Y-136300000D03*
%TO.P,REF\u002A\u002A,32*%
X204240000Y-133760000D03*
%TO.P,REF\u002A\u002A,33*%
X206780000Y-136300000D03*
%TO.P,REF\u002A\u002A,34*%
X206780000Y-133760000D03*
%TO.P,REF\u002A\u002A,35*%
X209320000Y-136300000D03*
%TO.P,REF\u002A\u002A,36*%
X209320000Y-133760000D03*
%TO.P,REF\u002A\u002A,37*%
X211860000Y-136300000D03*
%TO.P,REF\u002A\u002A,38*%
X211860000Y-133760000D03*
%TO.P,REF\u002A\u002A,39*%
X214400000Y-136300000D03*
%TO.P,REF\u002A\u002A,40*%
X214400000Y-133760000D03*
%TD*%
D10*
%TO.P,,1*%
%TO.N,N/C*%
X168834740Y-124120000D03*
%TO.P,,2*%
X171374740Y-124120000D03*
%TO.P,,3*%
X171374740Y-126660000D03*
%TO.P,,4*%
X168834740Y-126660000D03*
%TO.P,,5*%
X166294740Y-126660000D03*
%TO.P,,6*%
X166294740Y-124120000D03*
%TO.P,,7*%
X166294740Y-121580000D03*
%TO.P,,8*%
X168834740Y-121580000D03*
%TO.P,,9*%
X171374740Y-121580000D03*
%TO.P,,10*%
X173914740Y-121580000D03*
%TO.P,,11*%
X173914740Y-124120000D03*
%TO.P,,12*%
X173914740Y-126660000D03*
%TO.P,,13*%
X173914740Y-129200000D03*
%TO.P,,14*%
X171374740Y-129200000D03*
%TO.P,,15*%
X168834740Y-129200000D03*
%TO.P,,16*%
X166294740Y-129200000D03*
%TD*%
D12*
%TO.P,REF\u002A\u002A,1*%
%TO.N,N/C*%
X124100000Y-135400000D03*
D13*
%TO.P,REF\u002A\u002A,2*%
X127600000Y-135400000D03*
%TO.P,REF\u002A\u002A,3*%
X131100000Y-135400000D03*
%TO.P,REF\u002A\u002A,4*%
X134600000Y-135400000D03*
%TD*%
D14*
%TO.P,,1*%
%TO.N,N/C*%
X127520000Y-126660000D03*
%TO.P,,2*%
X127520000Y-124120000D03*
%TO.P,,3*%
X127520000Y-121580000D03*
%TO.P,,4*%
X127520000Y-119040000D03*
D15*
%TO.P,,5*%
X127520000Y-98720000D03*
%TO.P,,6*%
X127520000Y-96180000D03*
%TO.P,,7*%
X127520000Y-93640000D03*
%TO.P,,8*%
X127520000Y-91100000D03*
%TD*%
D10*
%TO.P,,1*%
%TO.N,N/C*%
X146394740Y-35273220D03*
%TO.P,,2*%
X148934740Y-35273220D03*
%TO.P,,3*%
X148934740Y-37813220D03*
%TO.P,,4*%
X146394740Y-37813220D03*
%TO.P,,5*%
X143854740Y-37813220D03*
%TO.P,,6*%
X143854740Y-35273220D03*
%TO.P,,7*%
X143854740Y-32733220D03*
%TO.P,,8*%
X146394740Y-32733220D03*
%TO.P,,9*%
X148934740Y-32733220D03*
%TO.P,,10*%
X151474740Y-32733220D03*
%TO.P,,11*%
X151474740Y-35273220D03*
%TO.P,,12*%
X151474740Y-37813220D03*
%TO.P,,13*%
X151474740Y-40353220D03*
%TO.P,,14*%
X148934740Y-40353220D03*
%TO.P,,15*%
X146394740Y-40353220D03*
%TO.P,,16*%
X143854740Y-40353220D03*
%TD*%
%TO.P,,1*%
%TO.N,N/C*%
X199734740Y-80993220D03*
%TO.P,,2*%
X202274740Y-80993220D03*
%TO.P,,3*%
X202274740Y-83533220D03*
%TO.P,,4*%
X199734740Y-83533220D03*
%TO.P,,5*%
X197194740Y-83533220D03*
%TO.P,,6*%
X197194740Y-80993220D03*
%TO.P,,7*%
X197194740Y-78453220D03*
%TO.P,,8*%
X199734740Y-78453220D03*
%TO.P,,9*%
X202274740Y-78453220D03*
%TO.P,,10*%
X204814740Y-78453220D03*
%TO.P,,11*%
X204814740Y-80993220D03*
%TO.P,,12*%
X204814740Y-83533220D03*
%TO.P,,13*%
X204814740Y-86073220D03*
%TO.P,,14*%
X202274740Y-86073220D03*
%TO.P,,15*%
X199734740Y-86073220D03*
%TO.P,,16*%
X197194740Y-86073220D03*
%TD*%
D16*
%TO.P,,1*%
%TO.N,N/C*%
X107210000Y-80993220D03*
X122450000Y-80993220D03*
%TO.P,,2*%
X107210000Y-86073220D03*
X122450000Y-86073220D03*
%TD*%
D18*
%TO.P,REF\u002A\u002A,1*%
%TO.N,N/C*%
X131660000Y-129622500D03*
X134200000Y-129622500D03*
%TD*%
D10*
%TO.P,REF\u002A\u002A,1*%
%TO.N,N/C*%
X102034740Y-40653220D03*
D21*
%TO.P,REF\u002A\u002A,2*%
X102034740Y-43193220D03*
%TO.P,REF\u002A\u002A,3*%
X102034740Y-45733220D03*
%TO.P,REF\u002A\u002A,4*%
X102034740Y-48273220D03*
%TO.P,REF\u002A\u002A,5*%
X102034740Y-50813220D03*
%TO.P,REF\u002A\u002A,6*%
X102034740Y-53353220D03*
%TO.P,REF\u002A\u002A,7*%
X102034740Y-55893220D03*
%TO.P,REF\u002A\u002A,8*%
X102034740Y-58433220D03*
%TO.P,REF\u002A\u002A,9*%
X102034740Y-60973220D03*
%TO.P,REF\u002A\u002A,10*%
X102034740Y-63513220D03*
%TO.P,REF\u002A\u002A,11*%
X102034740Y-66053220D03*
%TO.P,REF\u002A\u002A,12*%
X102034740Y-68593220D03*
%TO.P,REF\u002A\u002A,13*%
X102034740Y-71133220D03*
%TO.P,REF\u002A\u002A,14*%
X102034740Y-73673220D03*
%TO.P,REF\u002A\u002A,15*%
X102034740Y-76213220D03*
%TO.P,REF\u002A\u002A,16*%
X102034740Y-78753220D03*
%TO.P,REF\u002A\u002A,17*%
X102034740Y-81293220D03*
%TO.P,REF\u002A\u002A,18*%
X102034740Y-83833220D03*
%TO.P,REF\u002A\u002A,19*%
X102034740Y-86373220D03*
%TO.P,REF\u002A\u002A,20*%
X102034740Y-88913220D03*
%TO.P,REF\u002A\u002A,21*%
X102034740Y-91453220D03*
%TO.P,REF\u002A\u002A,22*%
X102034740Y-93993220D03*
%TO.P,REF\u002A\u002A,23*%
X102034740Y-96533220D03*
%TO.P,REF\u002A\u002A,24*%
X102034740Y-99073220D03*
%TO.P,REF\u002A\u002A,25*%
X102034740Y-101613220D03*
%TO.P,REF\u002A\u002A,26*%
X102034740Y-104153220D03*
%TO.P,REF\u002A\u002A,27*%
X102034740Y-106693220D03*
%TO.P,REF\u002A\u002A,28*%
X102034740Y-109233220D03*
%TO.P,REF\u002A\u002A,29*%
X102034740Y-111773220D03*
%TO.P,REF\u002A\u002A,30*%
X102034740Y-114313220D03*
%TO.P,REF\u002A\u002A,31*%
X102034740Y-116853220D03*
%TO.P,REF\u002A\u002A,32*%
X102034740Y-119393220D03*
%TO.P,REF\u002A\u002A,33*%
X102034740Y-121933220D03*
%TO.P,REF\u002A\u002A,34*%
X102034740Y-124473220D03*
%TO.P,REF\u002A\u002A,35*%
X102034740Y-127013220D03*
%TO.P,REF\u002A\u002A,36*%
X102034740Y-129553220D03*
%TD*%
D10*
%TO.P,,1*%
%TO.N,N/C*%
X189574740Y-60673220D03*
%TO.P,,2*%
X192114740Y-60673220D03*
%TO.P,,3*%
X192114740Y-63213220D03*
%TO.P,,4*%
X189574740Y-63213220D03*
%TO.P,,5*%
X187034740Y-63213220D03*
%TO.P,,6*%
X187034740Y-60673220D03*
%TO.P,,7*%
X187034740Y-58133220D03*
%TO.P,,8*%
X189574740Y-58133220D03*
%TO.P,,9*%
X192114740Y-58133220D03*
%TO.P,,10*%
X194654740Y-58133220D03*
%TO.P,,11*%
X194654740Y-60673220D03*
%TO.P,,12*%
X194654740Y-63213220D03*
%TO.P,,13*%
X194654740Y-65753220D03*
%TO.P,,14*%
X192114740Y-65753220D03*
%TO.P,,15*%
X189574740Y-65753220D03*
%TO.P,,16*%
X187034740Y-65753220D03*
%TD*%
D19*
%TO.P,,1*%
%TO.N,N/C*%
X176454740Y-126660000D03*
D22*
%TO.P,,2*%
X178994740Y-126660000D03*
%TO.P,,3*%
X204394740Y-126660000D03*
D19*
%TO.P,,4*%
X206934740Y-126660000D03*
%TD*%
D14*
%TO.P,,1*%
%TO.N,N/C*%
X140220000Y-126660000D03*
%TO.P,,2*%
X140220000Y-124120000D03*
%TO.P,,3*%
X140220000Y-121580000D03*
%TO.P,,4*%
X140220000Y-119040000D03*
D15*
%TO.P,,5*%
X140220000Y-98720000D03*
%TO.P,,6*%
X140220000Y-96180000D03*
%TO.P,,7*%
X140220000Y-93640000D03*
%TO.P,,8*%
X140220000Y-91100000D03*
%TD*%
D10*
%TO.P,,1*%
%TO.N,N/C*%
X129360000Y-80993220D03*
%TO.P,,2*%
X131900000Y-80993220D03*
%TO.P,,3*%
X131900000Y-83533220D03*
%TO.P,,4*%
X129360000Y-83533220D03*
%TO.P,,5*%
X126820000Y-83533220D03*
%TO.P,,6*%
X126820000Y-80993220D03*
%TO.P,,7*%
X126820000Y-78453220D03*
%TO.P,,8*%
X129360000Y-78453220D03*
%TO.P,,9*%
X131900000Y-78453220D03*
%TO.P,,10*%
X134440000Y-78453220D03*
%TO.P,,11*%
X134440000Y-80993220D03*
%TO.P,,12*%
X134440000Y-83533220D03*
%TO.P,,13*%
X134440000Y-86073220D03*
%TO.P,,14*%
X131900000Y-86073220D03*
%TO.P,,15*%
X129360000Y-86073220D03*
%TO.P,,16*%
X126820000Y-86073220D03*
%TD*%
D19*
%TO.P,,1*%
%TO.N,N/C*%
X176454740Y-129200000D03*
D22*
%TO.P,,2*%
X178994740Y-129200000D03*
%TO.P,,3*%
X204394740Y-129200000D03*
D19*
%TO.P,,4*%
X206934740Y-129200000D03*
%TD*%
D23*
%TO.P,,0*%
%TO.N,N/C*%
X112935200Y-31854440D03*
X120935200Y-31854440D03*
D24*
%TO.P,,1*%
X112175200Y-45264440D03*
%TO.P,,2*%
X113445200Y-47804440D03*
%TO.P,,3*%
X114715200Y-45264440D03*
%TO.P,,4*%
X115985200Y-47804440D03*
%TO.P,,5*%
X117255200Y-45264440D03*
%TO.P,,6*%
X118525200Y-47804440D03*
%TO.P,,7*%
X119795200Y-45264440D03*
%TO.P,,8*%
X121065200Y-47804440D03*
%TO.P,,9*%
X122335200Y-45264440D03*
%TO.P,,10*%
X123605200Y-47804440D03*
%TD*%
D19*
%TO.P,,1*%
%TO.N,N/C*%
X187034740Y-45433220D03*
%TO.P,,2*%
X202274740Y-45433220D03*
%TD*%
%TO.P,,1*%
%TO.N,N/C*%
X107210000Y-55593220D03*
%TO.P,,2*%
X122450000Y-55593220D03*
%TD*%
D10*
%TO.P,,1*%
%TO.N,N/C*%
X156554740Y-35273220D03*
%TO.P,,2*%
X159094740Y-35273220D03*
%TO.P,,3*%
X159094740Y-37813220D03*
%TO.P,,4*%
X156554740Y-37813220D03*
%TO.P,,5*%
X154014740Y-37813220D03*
%TO.P,,6*%
X154014740Y-35273220D03*
%TO.P,,7*%
X154014740Y-32733220D03*
%TO.P,,8*%
X156554740Y-32733220D03*
%TO.P,,9*%
X159094740Y-32733220D03*
%TO.P,,10*%
X161634740Y-32733220D03*
%TO.P,,11*%
X161634740Y-35273220D03*
%TO.P,,12*%
X161634740Y-37813220D03*
%TO.P,,13*%
X161634740Y-40353220D03*
%TO.P,,14*%
X159094740Y-40353220D03*
%TO.P,,15*%
X156554740Y-40353220D03*
%TO.P,,16*%
X154014740Y-40353220D03*
%TD*%
%TO.P,,1*%
%TO.N,N/C*%
X189574740Y-80993220D03*
%TO.P,,2*%
X192114740Y-80993220D03*
%TO.P,,3*%
X192114740Y-83533220D03*
%TO.P,,4*%
X189574740Y-83533220D03*
%TO.P,,5*%
X187034740Y-83533220D03*
%TO.P,,6*%
X187034740Y-80993220D03*
%TO.P,,7*%
X187034740Y-78453220D03*
%TO.P,,8*%
X189574740Y-78453220D03*
%TO.P,,9*%
X192114740Y-78453220D03*
%TO.P,,10*%
X194654740Y-78453220D03*
%TO.P,,11*%
X194654740Y-80993220D03*
%TO.P,,12*%
X194654740Y-83533220D03*
%TO.P,,13*%
X194654740Y-86073220D03*
%TO.P,,14*%
X192114740Y-86073220D03*
%TO.P,,15*%
X189574740Y-86073220D03*
%TO.P,,16*%
X187034740Y-86073220D03*
%TD*%
D17*
%TO.P,REF\u002A\u002A,1*%
%TO.N,N/C*%
X225827500Y-112000000D03*
D13*
%TO.P,REF\u002A\u002A,2*%
X225827500Y-108500000D03*
%TD*%
D10*
%TO.P,,1*%
%TO.N,N/C*%
X189420000Y-38095000D03*
X189420000Y-41905000D03*
D25*
%TO.P,,2*%
X189420000Y-31745000D03*
D21*
X189420000Y-35555000D03*
%TO.P,,3*%
X191960000Y-38095000D03*
D25*
X191960000Y-41905000D03*
%TO.P,,4*%
X191960000Y-31745000D03*
D21*
X191960000Y-35555000D03*
%TO.P,,5*%
X194500000Y-38095000D03*
D25*
X194500000Y-41905000D03*
%TO.P,,6*%
X194500000Y-31745000D03*
D21*
X194500000Y-35555000D03*
%TO.P,,7*%
X197040000Y-38095000D03*
D25*
X197040000Y-41905000D03*
%TO.P,,8*%
X197040000Y-31745000D03*
D21*
X197040000Y-35555000D03*
%TO.P,,9*%
X199580000Y-38095000D03*
D25*
X199580000Y-41905000D03*
%TO.P,,10*%
X199580000Y-31745000D03*
D21*
X199580000Y-35555000D03*
%TD*%
D19*
%TO.P,,1*%
%TO.N,N/C*%
X176454740Y-91100000D03*
D22*
%TO.P,,2*%
X178994740Y-91100000D03*
%TO.P,,3*%
X204394740Y-91100000D03*
D19*
%TO.P,,4*%
X206934740Y-91100000D03*
%TD*%
D10*
%TO.P,,1*%
%TO.N,N/C*%
X222594740Y-45433220D03*
%TO.P,,2*%
X225134740Y-45433220D03*
%TO.P,,3*%
X225134740Y-47973220D03*
%TO.P,,4*%
X222594740Y-47973220D03*
%TO.P,,5*%
X220054740Y-47973220D03*
%TO.P,,6*%
X220054740Y-45433220D03*
%TO.P,,7*%
X220054740Y-42893220D03*
%TO.P,,8*%
X222594740Y-42893220D03*
%TO.P,,9*%
X225134740Y-42893220D03*
%TO.P,,10*%
X227674740Y-42893220D03*
%TO.P,,11*%
X227674740Y-45433220D03*
%TO.P,,12*%
X227674740Y-47973220D03*
%TO.P,,13*%
X227674740Y-50513220D03*
%TO.P,,14*%
X225134740Y-50513220D03*
%TO.P,,15*%
X222594740Y-50513220D03*
%TO.P,,16*%
X220054740Y-50513220D03*
%TD*%
%TO.P,,1*%
%TO.N,N/C*%
X199734740Y-60673220D03*
%TO.P,,2*%
X202274740Y-60673220D03*
%TO.P,,3*%
X202274740Y-63213220D03*
%TO.P,,4*%
X199734740Y-63213220D03*
%TO.P,,5*%
X197194740Y-63213220D03*
%TO.P,,6*%
X197194740Y-60673220D03*
%TO.P,,7*%
X197194740Y-58133220D03*
%TO.P,,8*%
X199734740Y-58133220D03*
%TO.P,,9*%
X202274740Y-58133220D03*
%TO.P,,10*%
X204814740Y-58133220D03*
%TO.P,,11*%
X204814740Y-60673220D03*
%TO.P,,12*%
X204814740Y-63213220D03*
%TO.P,,13*%
X204814740Y-65753220D03*
%TO.P,,14*%
X202274740Y-65753220D03*
%TO.P,,15*%
X199734740Y-65753220D03*
%TO.P,,16*%
X197194740Y-65753220D03*
%TD*%
D19*
%TO.P,,1*%
%TO.N,N/C*%
X176454740Y-101260000D03*
D22*
%TO.P,,2*%
X178994740Y-101260000D03*
%TO.P,,3*%
X204394740Y-101260000D03*
D19*
%TO.P,,4*%
X206934740Y-101260000D03*
%TD*%
D12*
%TO.P,REF\u002A\u002A,1*%
%TO.N,N/C*%
X139900000Y-135400000D03*
D13*
%TO.P,REF\u002A\u002A,2*%
X143400000Y-135400000D03*
%TD*%
D14*
%TO.P,,1*%
%TO.N,N/C*%
X142760000Y-126660000D03*
%TO.P,,2*%
X142760000Y-124120000D03*
%TO.P,,3*%
X142760000Y-121580000D03*
%TO.P,,4*%
X142760000Y-119040000D03*
D15*
%TO.P,,5*%
X142760000Y-98720000D03*
%TO.P,,6*%
X142760000Y-96180000D03*
%TO.P,,7*%
X142760000Y-93640000D03*
%TO.P,,8*%
X142760000Y-91100000D03*
%TD*%
D19*
%TO.P,,1*%
%TO.N,N/C*%
X176454740Y-124120000D03*
D22*
%TO.P,,2*%
X178994740Y-124120000D03*
%TO.P,,3*%
X204394740Y-124120000D03*
D19*
%TO.P,,4*%
X206934740Y-124120000D03*
%TD*%
D10*
%TO.P,,1*%
%TO.N,N/C*%
X168834740Y-103800000D03*
%TO.P,,2*%
X171374740Y-103800000D03*
%TO.P,,3*%
X171374740Y-106340000D03*
%TO.P,,4*%
X168834740Y-106340000D03*
%TO.P,,5*%
X166294740Y-106340000D03*
%TO.P,,6*%
X166294740Y-103800000D03*
%TO.P,,7*%
X166294740Y-101260000D03*
%TO.P,,8*%
X168834740Y-101260000D03*
%TO.P,,9*%
X171374740Y-101260000D03*
%TO.P,,10*%
X173914740Y-101260000D03*
%TO.P,,11*%
X173914740Y-103800000D03*
%TO.P,,12*%
X173914740Y-106340000D03*
%TO.P,,13*%
X173914740Y-108880000D03*
%TO.P,,14*%
X171374740Y-108880000D03*
%TO.P,,15*%
X168834740Y-108880000D03*
%TO.P,,16*%
X166294740Y-108880000D03*
%TD*%
D19*
%TO.P,,1*%
%TO.N,N/C*%
X176454740Y-96180000D03*
D22*
%TO.P,,2*%
X178994740Y-96180000D03*
%TO.P,,3*%
X204394740Y-96180000D03*
D19*
%TO.P,,4*%
X206934740Y-96180000D03*
%TD*%
D10*
%TO.P,,1*%
%TO.N,N/C*%
X211820000Y-103800000D03*
%TO.P,,2*%
X214360000Y-103800000D03*
%TO.P,,3*%
X214360000Y-106340000D03*
%TO.P,,4*%
X211820000Y-106340000D03*
%TO.P,,5*%
X209280000Y-106340000D03*
%TO.P,,6*%
X209280000Y-103800000D03*
%TO.P,,7*%
X209280000Y-101260000D03*
%TO.P,,8*%
X211820000Y-101260000D03*
%TO.P,,9*%
X214360000Y-101260000D03*
%TO.P,,10*%
X216900000Y-101260000D03*
%TO.P,,11*%
X216900000Y-103800000D03*
%TO.P,,12*%
X216900000Y-106340000D03*
%TO.P,,13*%
X216900000Y-108880000D03*
%TO.P,,14*%
X214360000Y-108880000D03*
%TO.P,,15*%
X211820000Y-108880000D03*
%TO.P,,16*%
X209280000Y-108880000D03*
%TD*%
D19*
%TO.P,,1*%
%TO.N,N/C*%
X107210000Y-58133220D03*
%TO.P,,2*%
X122450000Y-58133220D03*
%TD*%
D14*
%TO.P,,1*%
%TO.N,N/C*%
X152920000Y-126660000D03*
%TO.P,,2*%
X152920000Y-124120000D03*
%TO.P,,3*%
X152920000Y-121580000D03*
%TO.P,,4*%
X152920000Y-119040000D03*
D15*
%TO.P,,5*%
X152920000Y-98720000D03*
%TO.P,,6*%
X152920000Y-96180000D03*
%TO.P,,7*%
X152920000Y-93640000D03*
%TO.P,,8*%
X152920000Y-91100000D03*
%TD*%
D10*
%TO.P,,1*%
%TO.N,N/C*%
X199734740Y-70833220D03*
%TO.P,,2*%
X202274740Y-70833220D03*
%TO.P,,3*%
X202274740Y-73373220D03*
%TO.P,,4*%
X199734740Y-73373220D03*
%TO.P,,5*%
X197194740Y-73373220D03*
%TO.P,,6*%
X197194740Y-70833220D03*
%TO.P,,7*%
X197194740Y-68293220D03*
%TO.P,,8*%
X199734740Y-68293220D03*
%TO.P,,9*%
X202274740Y-68293220D03*
%TO.P,,10*%
X204814740Y-68293220D03*
%TO.P,,11*%
X204814740Y-70833220D03*
%TO.P,,12*%
X204814740Y-73373220D03*
%TO.P,,13*%
X204814740Y-75913220D03*
%TO.P,,14*%
X202274740Y-75913220D03*
%TO.P,,15*%
X199734740Y-75913220D03*
%TO.P,,16*%
X197194740Y-75913220D03*
%TD*%
D14*
%TO.P,,1*%
%TO.N,N/C*%
X147840000Y-126660000D03*
%TO.P,,2*%
X147840000Y-124120000D03*
%TO.P,,3*%
X147840000Y-121580000D03*
%TO.P,,4*%
X147840000Y-119040000D03*
D15*
%TO.P,,5*%
X147840000Y-98720000D03*
%TO.P,,6*%
X147840000Y-96180000D03*
%TO.P,,7*%
X147840000Y-93640000D03*
%TO.P,,8*%
X147840000Y-91100000D03*
%TD*%
D18*
%TO.P,REF\u002A\u002A,1*%
%TO.N,N/C*%
X220038750Y-120240000D03*
X220038750Y-117700000D03*
%TD*%
D19*
%TO.P,,1*%
%TO.N,N/C*%
X176454740Y-116500000D03*
D22*
%TO.P,,2*%
X178994740Y-116500000D03*
%TO.P,,3*%
X204394740Y-116500000D03*
D19*
%TO.P,,4*%
X206934740Y-116500000D03*
%TD*%
D10*
%TO.P,,1*%
%TO.N,N/C*%
X129360000Y-60673220D03*
%TO.P,,2*%
X131900000Y-60673220D03*
%TO.P,,3*%
X131900000Y-63213220D03*
%TO.P,,4*%
X129360000Y-63213220D03*
%TO.P,,5*%
X126820000Y-63213220D03*
%TO.P,,6*%
X126820000Y-60673220D03*
%TO.P,,7*%
X126820000Y-58133220D03*
%TO.P,,8*%
X129360000Y-58133220D03*
%TO.P,,9*%
X131900000Y-58133220D03*
%TO.P,,10*%
X134440000Y-58133220D03*
%TO.P,,11*%
X134440000Y-60673220D03*
%TO.P,,12*%
X134440000Y-63213220D03*
%TO.P,,13*%
X134440000Y-65753220D03*
%TO.P,,14*%
X131900000Y-65753220D03*
%TO.P,,15*%
X129360000Y-65753220D03*
%TO.P,,16*%
X126820000Y-65753220D03*
%TD*%
D14*
%TO.P,,1*%
%TO.N,N/C*%
X137680000Y-126660000D03*
%TO.P,,2*%
X137680000Y-124120000D03*
%TO.P,,3*%
X137680000Y-121580000D03*
%TO.P,,4*%
X137680000Y-119040000D03*
D15*
%TO.P,,5*%
X137680000Y-98720000D03*
%TO.P,,6*%
X137680000Y-96180000D03*
%TO.P,,7*%
X137680000Y-93640000D03*
%TO.P,,8*%
X137680000Y-91100000D03*
%TD*%
D19*
%TO.P,,1*%
%TO.N,N/C*%
X107210000Y-63213220D03*
%TO.P,,2*%
X122450000Y-63213220D03*
%TD*%
%TO.P,,1*%
%TO.N,N/C*%
X176454740Y-113960000D03*
D22*
%TO.P,,2*%
X178994740Y-113960000D03*
%TO.P,,3*%
X204394740Y-113960000D03*
D19*
%TO.P,,4*%
X206934740Y-113960000D03*
%TD*%
D14*
%TO.P,,1*%
%TO.N,N/C*%
X119900000Y-126660000D03*
%TO.P,,2*%
X119900000Y-124120000D03*
%TO.P,,3*%
X119900000Y-121580000D03*
%TO.P,,4*%
X119900000Y-119040000D03*
D15*
%TO.P,,5*%
X119900000Y-98720000D03*
%TO.P,,6*%
X119900000Y-96180000D03*
%TO.P,,7*%
X119900000Y-93640000D03*
%TO.P,,8*%
X119900000Y-91100000D03*
%TD*%
D19*
%TO.P,,1*%
%TO.N,N/C*%
X176454740Y-103800000D03*
D22*
%TO.P,,2*%
X178994740Y-103800000D03*
%TO.P,,3*%
X204394740Y-103800000D03*
D19*
%TO.P,,4*%
X206934740Y-103800000D03*
%TD*%
D11*
%TO.P,,1*%
%TO.N,N/C*%
X223995000Y-65753220D03*
%TO.P,,2*%
X225900000Y-68293220D03*
%TO.P,,3*%
X227805000Y-65753220D03*
%TO.P,,4*%
X227805000Y-56863220D03*
%TO.P,,5*%
X225900000Y-54323220D03*
%TO.P,,6*%
X223995000Y-56863220D03*
%TD*%
D21*
%TO.P,,1*%
%TO.N,N/C*%
X141314740Y-50513220D03*
%TO.P,,2*%
X143854740Y-51783220D03*
%TO.P,,3*%
X141314740Y-53053220D03*
%TO.P,,4*%
X143854740Y-54323220D03*
%TO.P,,5*%
X141314740Y-55593220D03*
%TO.P,,6*%
X143854740Y-56863220D03*
%TO.P,,7*%
X141314740Y-58133220D03*
%TO.P,,8*%
X143854740Y-59403220D03*
%TO.P,,9*%
X141314740Y-60673220D03*
%TO.P,,10*%
X143854740Y-61943220D03*
%TO.P,,11*%
X141314740Y-63213220D03*
%TO.P,,12*%
X143854740Y-64483220D03*
%TO.P,,13*%
X141314740Y-65753220D03*
%TO.P,,14*%
X143854740Y-67023220D03*
%TO.P,,15*%
X141314740Y-68293220D03*
%TO.P,,16*%
X143854740Y-69563220D03*
%TO.P,,17*%
X141314740Y-70833220D03*
%TO.P,,18*%
X143854740Y-72103220D03*
%TO.P,,19*%
X141314740Y-73373220D03*
%TO.P,,20*%
X143854740Y-74643220D03*
%TO.P,,21*%
X141314740Y-75913220D03*
%TO.P,,22*%
X143854740Y-77183220D03*
%TO.P,,23*%
X141314740Y-78453220D03*
%TO.P,,24*%
X143854740Y-79723220D03*
%TO.P,,25*%
X141314740Y-80993220D03*
%TO.P,,26*%
X146394740Y-86073220D03*
%TO.P,,27*%
X147664740Y-83533220D03*
%TO.P,,28*%
X148934740Y-86073220D03*
%TO.P,,29*%
X150204740Y-83533220D03*
%TO.P,,30*%
X151474740Y-86073220D03*
%TO.P,,31*%
X152744740Y-83533220D03*
%TO.P,,32*%
X154014740Y-86073220D03*
%TO.P,,33*%
X155284740Y-83533220D03*
%TO.P,,34*%
X156554740Y-86073220D03*
%TO.P,,35*%
X157824740Y-83533220D03*
%TO.P,,36*%
X159094740Y-86073220D03*
%TO.P,,37*%
X160364740Y-83533220D03*
%TO.P,,38*%
X161634740Y-86073220D03*
%TO.P,,39*%
X162904740Y-83533220D03*
%TO.P,,40*%
X164174740Y-86073220D03*
%TO.P,,41*%
X165444740Y-83533220D03*
%TO.P,,42*%
X166714740Y-86073220D03*
%TO.P,,43*%
X167984740Y-83533220D03*
%TO.P,,44*%
X169254740Y-86073220D03*
%TO.P,,45*%
X170524740Y-83533220D03*
%TO.P,,46*%
X171794740Y-86073220D03*
%TO.P,,47*%
X173064740Y-83533220D03*
%TO.P,,48*%
X174334740Y-86073220D03*
%TO.P,,49*%
X175604740Y-83533220D03*
%TO.P,,50*%
X176874740Y-86073220D03*
%TO.P,,51*%
X181954740Y-80993220D03*
%TO.P,,52*%
X179414740Y-79723220D03*
%TO.P,,53*%
X181954740Y-78453220D03*
%TO.P,,54*%
X179414740Y-77183220D03*
%TO.P,,55*%
X181954740Y-75913220D03*
%TO.P,,56*%
X179414740Y-74643220D03*
%TO.P,,57*%
X181954740Y-73373220D03*
%TO.P,,58*%
X179414740Y-72103220D03*
%TO.P,,59*%
X181954740Y-70833220D03*
%TO.P,,60*%
X179414740Y-69563220D03*
%TO.P,,61*%
X181954740Y-68293220D03*
%TO.P,,62*%
X179414740Y-67023220D03*
%TO.P,,63*%
X181954740Y-65753220D03*
%TO.P,,64*%
X179414740Y-64483220D03*
%TO.P,,65*%
X181954740Y-63213220D03*
%TO.P,,66*%
X179414740Y-61943220D03*
%TO.P,,67*%
X181954740Y-60673220D03*
%TO.P,,68*%
X179414740Y-59403220D03*
%TO.P,,69*%
X181954740Y-58133220D03*
%TO.P,,70*%
X179414740Y-56863220D03*
%TO.P,,71*%
X181954740Y-55593220D03*
%TO.P,,72*%
X179414740Y-54323220D03*
%TO.P,,73*%
X181954740Y-53053220D03*
%TO.P,,74*%
X179414740Y-51783220D03*
%TO.P,,75*%
X181954740Y-50513220D03*
%TO.P,,76*%
X176874740Y-45433220D03*
%TO.P,,77*%
X175604740Y-47973220D03*
%TO.P,,78*%
X174334740Y-45433220D03*
%TO.P,,79*%
X173064740Y-47973220D03*
%TO.P,,80*%
X171794740Y-45433220D03*
%TO.P,,81*%
X170524740Y-47973220D03*
%TO.P,,82*%
X169254740Y-45433220D03*
%TO.P,,83*%
X167984740Y-47973220D03*
%TO.P,,84*%
X166714740Y-45433220D03*
%TO.P,,85*%
X165444740Y-47973220D03*
%TO.P,,86*%
X164174740Y-45433220D03*
%TO.P,,87*%
X162904740Y-47973220D03*
%TO.P,,88*%
X161634740Y-45433220D03*
%TO.P,,89*%
X160364740Y-47973220D03*
%TO.P,,90*%
X159094740Y-45433220D03*
%TO.P,,91*%
X157824740Y-47973220D03*
%TO.P,,92*%
X156554740Y-45433220D03*
%TO.P,,93*%
X155284740Y-47973220D03*
%TO.P,,94*%
X154014740Y-45433220D03*
%TO.P,,95*%
X152744740Y-47973220D03*
%TO.P,,96*%
X151474740Y-45433220D03*
%TO.P,,97*%
X150204740Y-47973220D03*
%TO.P,,98*%
X148934740Y-45433220D03*
%TO.P,,99*%
X147664740Y-47973220D03*
%TO.P,,100*%
X146394740Y-45433220D03*
%TO.P,,101*%
X145124740Y-49243220D03*
%TO.P,,102*%
X141314740Y-45433220D03*
%TO.P,,103*%
X145124740Y-82263220D03*
%TO.P,,104*%
X141314740Y-86073220D03*
%TO.P,,105*%
X178144740Y-82263220D03*
%TO.P,,106*%
X181954740Y-86073220D03*
%TO.P,,107*%
X178144740Y-49243220D03*
%TO.P,,108*%
X181954740Y-45433220D03*
%TO.P,,109*%
X146394740Y-50513220D03*
%TO.P,,110*%
X176874740Y-50513220D03*
%TO.P,,111*%
X146394740Y-80993220D03*
%TO.P,,112*%
X176874740Y-80993220D03*
D16*
%TO.P,,113*%
X181954740Y-42893220D03*
%TO.P,,114*%
X184494740Y-45433220D03*
%TO.P,,115*%
X141314740Y-42893220D03*
%TO.P,,116*%
X138774740Y-45433220D03*
%TO.P,,117*%
X184494740Y-86073220D03*
%TO.P,,118*%
X181954740Y-88613220D03*
%TO.P,,119*%
X141314740Y-88613220D03*
%TO.P,,120*%
X138774740Y-86073220D03*
%TD*%
D10*
%TO.P,,1*%
%TO.N,N/C*%
X168834740Y-93640000D03*
%TO.P,,2*%
X171374740Y-93640000D03*
%TO.P,,3*%
X171374740Y-96180000D03*
%TO.P,,4*%
X168834740Y-96180000D03*
%TO.P,,5*%
X166294740Y-96180000D03*
%TO.P,,6*%
X166294740Y-93640000D03*
%TO.P,,7*%
X166294740Y-91100000D03*
%TO.P,,8*%
X168834740Y-91100000D03*
%TO.P,,9*%
X171374740Y-91100000D03*
%TO.P,,10*%
X173914740Y-91100000D03*
%TO.P,,11*%
X173914740Y-93640000D03*
%TO.P,,12*%
X173914740Y-96180000D03*
%TO.P,,13*%
X173914740Y-98720000D03*
%TO.P,,14*%
X171374740Y-98720000D03*
%TO.P,,15*%
X168834740Y-98720000D03*
%TO.P,,16*%
X166294740Y-98720000D03*
%TD*%
%TO.P,,1*%
%TO.N,N/C*%
X211820000Y-124120000D03*
%TO.P,,2*%
X214360000Y-124120000D03*
%TO.P,,3*%
X214360000Y-126660000D03*
%TO.P,,4*%
X211820000Y-126660000D03*
%TO.P,,5*%
X209280000Y-126660000D03*
%TO.P,,6*%
X209280000Y-124120000D03*
%TO.P,,7*%
X209280000Y-121580000D03*
%TO.P,,8*%
X211820000Y-121580000D03*
%TO.P,,9*%
X214360000Y-121580000D03*
%TO.P,,10*%
X216900000Y-121580000D03*
%TO.P,,11*%
X216900000Y-124120000D03*
%TO.P,,12*%
X216900000Y-126660000D03*
%TO.P,,13*%
X216900000Y-129200000D03*
%TO.P,,14*%
X214360000Y-129200000D03*
%TO.P,,15*%
X211820000Y-129200000D03*
%TO.P,,16*%
X209280000Y-129200000D03*
%TD*%
%TO.P,,1*%
%TO.N,N/C*%
X176874740Y-35273220D03*
%TO.P,,2*%
X179414740Y-35273220D03*
%TO.P,,3*%
X179414740Y-37813220D03*
%TO.P,,4*%
X176874740Y-37813220D03*
%TO.P,,5*%
X174334740Y-37813220D03*
%TO.P,,6*%
X174334740Y-35273220D03*
%TO.P,,7*%
X174334740Y-32733220D03*
%TO.P,,8*%
X176874740Y-32733220D03*
%TO.P,,9*%
X179414740Y-32733220D03*
%TO.P,,10*%
X181954740Y-32733220D03*
%TO.P,,11*%
X181954740Y-35273220D03*
%TO.P,,12*%
X181954740Y-37813220D03*
%TO.P,,13*%
X181954740Y-40353220D03*
%TO.P,,14*%
X179414740Y-40353220D03*
%TO.P,,15*%
X176874740Y-40353220D03*
%TO.P,,16*%
X174334740Y-40353220D03*
%TD*%
D19*
%TO.P,,1*%
%TO.N,N/C*%
X128614740Y-39083220D03*
%TO.P,,2*%
X128614740Y-44163220D03*
%TD*%
D18*
%TO.P,REF\u002A\u002A,1*%
%TO.N,N/C*%
X124660000Y-129622500D03*
X127200000Y-129622500D03*
%TD*%
D14*
%TO.P,,1*%
%TO.N,N/C*%
X117360000Y-126660000D03*
%TO.P,,2*%
X117360000Y-124120000D03*
%TO.P,,3*%
X117360000Y-121580000D03*
%TO.P,,4*%
X117360000Y-119040000D03*
D15*
%TO.P,,5*%
X117360000Y-98720000D03*
%TO.P,,6*%
X117360000Y-96180000D03*
%TO.P,,7*%
X117360000Y-93640000D03*
%TO.P,,8*%
X117360000Y-91100000D03*
%TD*%
D11*
%TO.P,,1*%
%TO.N,N/C*%
X129540000Y-32195000D03*
%TO.P,,2*%
X127000000Y-34100000D03*
%TO.P,,3*%
X129540000Y-36005000D03*
%TO.P,,4*%
X138430000Y-36005000D03*
%TO.P,,5*%
X140970000Y-34100000D03*
%TO.P,,6*%
X138430000Y-32195000D03*
%TD*%
D10*
%TO.P,,1*%
%TO.N,N/C*%
X220050000Y-35470000D03*
%TO.P,,2*%
X220050000Y-38010000D03*
%TO.P,,3*%
X220050000Y-40550000D03*
%TD*%
D14*
%TO.P,,1*%
%TO.N,N/C*%
X158000000Y-126660000D03*
%TO.P,,2*%
X158000000Y-124120000D03*
%TO.P,,3*%
X158000000Y-121580000D03*
%TO.P,,4*%
X158000000Y-119040000D03*
D15*
%TO.P,,5*%
X158000000Y-98720000D03*
%TO.P,,6*%
X158000000Y-96180000D03*
%TO.P,,7*%
X158000000Y-93640000D03*
%TO.P,,8*%
X158000000Y-91100000D03*
%TD*%
D18*
%TO.P,REF\u002A\u002A,1*%
%TO.N,N/C*%
X115760000Y-129622500D03*
X118300000Y-129622500D03*
%TD*%
D14*
%TO.P,,1*%
%TO.N,N/C*%
X124980000Y-126660000D03*
%TO.P,,2*%
X124980000Y-124120000D03*
%TO.P,,3*%
X124980000Y-121580000D03*
%TO.P,,4*%
X124980000Y-119040000D03*
D15*
%TO.P,,5*%
X124980000Y-98720000D03*
%TO.P,,6*%
X124980000Y-96180000D03*
%TO.P,,7*%
X124980000Y-93640000D03*
%TO.P,,8*%
X124980000Y-91100000D03*
%TD*%
D10*
%TO.P,,1*%
%TO.N,N/C*%
X129360000Y-70833220D03*
%TO.P,,2*%
X131900000Y-70833220D03*
%TO.P,,3*%
X131900000Y-73373220D03*
%TO.P,,4*%
X129360000Y-73373220D03*
%TO.P,,5*%
X126820000Y-73373220D03*
%TO.P,,6*%
X126820000Y-70833220D03*
%TO.P,,7*%
X126820000Y-68293220D03*
%TO.P,,8*%
X129360000Y-68293220D03*
%TO.P,,9*%
X131900000Y-68293220D03*
%TO.P,,10*%
X134440000Y-68293220D03*
%TO.P,,11*%
X134440000Y-70833220D03*
%TO.P,,12*%
X134440000Y-73373220D03*
%TO.P,,13*%
X134440000Y-75913220D03*
%TO.P,,14*%
X131900000Y-75913220D03*
%TO.P,,15*%
X129360000Y-75913220D03*
%TO.P,,16*%
X126820000Y-75913220D03*
%TD*%
D16*
%TO.P,,1*%
%TO.N,N/C*%
X107210000Y-65753220D03*
X122450000Y-65753220D03*
%TO.P,,2*%
X107210000Y-70833220D03*
X122450000Y-70833220D03*
%TD*%
D18*
%TO.P,REF\u002A\u002A,1*%
%TO.N,N/C*%
X220050000Y-111540000D03*
X220050000Y-109000000D03*
%TD*%
D19*
%TO.P,,1*%
%TO.N,N/C*%
X131154740Y-44163220D03*
%TO.P,,2*%
X131154740Y-39083220D03*
%TD*%
D18*
%TO.P,REF\u002A\u002A,1*%
%TO.N,N/C*%
X157960000Y-129622500D03*
X160500000Y-129622500D03*
%TD*%
D14*
%TO.P,,1*%
%TO.N,N/C*%
X163080000Y-126660000D03*
%TO.P,,2*%
X163080000Y-124120000D03*
%TO.P,,3*%
X163080000Y-121580000D03*
%TO.P,,4*%
X163080000Y-119040000D03*
D15*
%TO.P,,5*%
X163080000Y-98720000D03*
%TO.P,,6*%
X163080000Y-96180000D03*
%TO.P,,7*%
X163080000Y-93640000D03*
%TO.P,,8*%
X163080000Y-91100000D03*
%TD*%
D10*
%TO.P,,1*%
%TO.N,N/C*%
X211820000Y-93640000D03*
%TO.P,,2*%
X214360000Y-93640000D03*
%TO.P,,3*%
X214360000Y-96180000D03*
%TO.P,,4*%
X211820000Y-96180000D03*
%TO.P,,5*%
X209280000Y-96180000D03*
%TO.P,,6*%
X209280000Y-93640000D03*
%TO.P,,7*%
X209280000Y-91100000D03*
%TO.P,,8*%
X211820000Y-91100000D03*
%TO.P,,9*%
X214360000Y-91100000D03*
%TO.P,,10*%
X216900000Y-91100000D03*
%TO.P,,11*%
X216900000Y-93640000D03*
%TO.P,,12*%
X216900000Y-96180000D03*
%TO.P,,13*%
X216900000Y-98720000D03*
%TO.P,,14*%
X214360000Y-98720000D03*
%TO.P,,15*%
X211820000Y-98720000D03*
%TO.P,,16*%
X209280000Y-98720000D03*
%TD*%
D12*
%TO.P,REF\u002A\u002A,1*%
%TO.N,N/C*%
X108300000Y-135400000D03*
D13*
%TO.P,REF\u002A\u002A,2*%
X111800000Y-135400000D03*
%TO.P,REF\u002A\u002A,3*%
X115300000Y-135400000D03*
%TO.P,REF\u002A\u002A,4*%
X118800000Y-135400000D03*
%TD*%
D14*
%TO.P,,1*%
%TO.N,N/C*%
X114820000Y-126660000D03*
%TO.P,,2*%
X114820000Y-124120000D03*
%TO.P,,3*%
X114820000Y-121580000D03*
%TO.P,,4*%
X114820000Y-119040000D03*
D15*
%TO.P,,5*%
X114820000Y-98720000D03*
%TO.P,,6*%
X114820000Y-96180000D03*
%TO.P,,7*%
X114820000Y-93640000D03*
%TO.P,,8*%
X114820000Y-91100000D03*
%TD*%
D18*
%TO.P,REF\u002A\u002A,1*%
%TO.N,N/C*%
X220038750Y-129140000D03*
X220038750Y-126600000D03*
%TD*%
D19*
%TO.P,,1*%
%TO.N,N/C*%
X176454740Y-121580000D03*
D22*
%TO.P,,2*%
X178994740Y-121580000D03*
%TO.P,,3*%
X204394740Y-121580000D03*
D19*
%TO.P,,4*%
X206934740Y-121580000D03*
%TD*%
D17*
%TO.P,REF\u002A\u002A,1*%
%TO.N,N/C*%
X225816250Y-120800000D03*
D13*
%TO.P,REF\u002A\u002A,2*%
X225816250Y-117300000D03*
%TD*%
D10*
%TO.P,,1*%
%TO.N,N/C*%
X207354740Y-70833220D03*
%TO.P,,2*%
X207354740Y-73373220D03*
%TO.P,,3*%
X207354740Y-75913220D03*
%TD*%
D18*
%TO.P,REF\u002A\u002A,1*%
%TO.N,N/C*%
X149260000Y-129622500D03*
X151800000Y-129622500D03*
%TD*%
D19*
%TO.P,,1*%
%TO.N,N/C*%
X176454740Y-98720000D03*
D22*
%TO.P,,2*%
X178994740Y-98720000D03*
%TO.P,,3*%
X204394740Y-98720000D03*
D19*
%TO.P,,4*%
X206934740Y-98720000D03*
%TD*%
%TO.P,,1*%
%TO.N,N/C*%
X176454740Y-119040000D03*
D22*
%TO.P,,2*%
X178994740Y-119040000D03*
%TO.P,,3*%
X204394740Y-119040000D03*
D19*
%TO.P,,4*%
X206934740Y-119040000D03*
%TD*%
D18*
%TO.P,REF\u002A\u002A,1*%
%TO.N,N/C*%
X140360000Y-129622500D03*
X142900000Y-129622500D03*
%TD*%
D19*
%TO.P,,1*%
%TO.N,N/C*%
X176454740Y-108880000D03*
D22*
%TO.P,,2*%
X178994740Y-108880000D03*
%TO.P,,3*%
X204394740Y-108880000D03*
D19*
%TO.P,,4*%
X206934740Y-108880000D03*
%TD*%
D14*
%TO.P,,1*%
%TO.N,N/C*%
X130060000Y-126660000D03*
%TO.P,,2*%
X130060000Y-124120000D03*
%TO.P,,3*%
X130060000Y-121580000D03*
%TO.P,,4*%
X130060000Y-119040000D03*
D15*
%TO.P,,5*%
X130060000Y-98720000D03*
%TO.P,,6*%
X130060000Y-96180000D03*
%TO.P,,7*%
X130060000Y-93640000D03*
%TO.P,,8*%
X130060000Y-91100000D03*
%TD*%
D12*
%TO.P,REF\u002A\u002A,1*%
%TO.N,N/C*%
X148700000Y-135400000D03*
D13*
%TO.P,REF\u002A\u002A,2*%
X152200000Y-135400000D03*
%TD*%
D17*
%TO.P,REF\u002A\u002A,1*%
%TO.N,N/C*%
X225827500Y-94400000D03*
D13*
%TO.P,REF\u002A\u002A,2*%
X225827500Y-90900000D03*
%TD*%
D10*
%TO.P,,1*%
%TO.N,N/C*%
X212434740Y-45433220D03*
%TO.P,,2*%
X212434740Y-47973220D03*
%TO.P,,3*%
X209894740Y-47973220D03*
%TO.P,,4*%
X209894740Y-45433220D03*
%TO.P,,5*%
X209894740Y-42893220D03*
%TO.P,,6*%
X212434740Y-42893220D03*
%TO.P,,7*%
X214974740Y-42893220D03*
%TO.P,,8*%
X214974740Y-45433220D03*
%TO.P,,9*%
X214974740Y-47973220D03*
%TO.P,,10*%
X214974740Y-50513220D03*
%TO.P,,11*%
X212434740Y-50513220D03*
%TO.P,,12*%
X209894740Y-50513220D03*
%TO.P,,13*%
X207354740Y-50513220D03*
%TO.P,,14*%
X207354740Y-47973220D03*
%TO.P,,15*%
X207354740Y-45433220D03*
%TO.P,,16*%
X207354740Y-42893220D03*
%TO.P,,17*%
X217514740Y-42893220D03*
%TO.P,,18*%
X217514740Y-45433220D03*
%TO.P,,19*%
X217514740Y-47973220D03*
%TO.P,,20*%
X217514740Y-50513220D03*
%TD*%
D14*
%TO.P,,1*%
%TO.N,N/C*%
X109740000Y-126660000D03*
%TO.P,,2*%
X109740000Y-124120000D03*
%TO.P,,3*%
X109740000Y-121580000D03*
%TO.P,,4*%
X109740000Y-119040000D03*
D15*
%TO.P,,5*%
X109740000Y-98720000D03*
%TO.P,,6*%
X109740000Y-96180000D03*
%TO.P,,7*%
X109740000Y-93640000D03*
%TO.P,,8*%
X109740000Y-91100000D03*
%TD*%
D18*
%TO.P,REF\u002A\u002A,1*%
%TO.N,N/C*%
X220050000Y-93940000D03*
X220050000Y-91400000D03*
%TD*%
D19*
%TO.P,,1*%
%TO.N,N/C*%
X176454740Y-93640000D03*
D22*
%TO.P,,2*%
X178994740Y-93640000D03*
%TO.P,,3*%
X204394740Y-93640000D03*
D19*
%TO.P,,4*%
X206934740Y-93640000D03*
%TD*%
D18*
%TO.P,REF\u002A\u002A,1*%
%TO.N,N/C*%
X108760000Y-129622500D03*
X111300000Y-129622500D03*
%TD*%
D14*
%TO.P,,1*%
%TO.N,N/C*%
X122440000Y-126660000D03*
%TO.P,,2*%
X122440000Y-124120000D03*
%TO.P,,3*%
X122440000Y-121580000D03*
%TO.P,,4*%
X122440000Y-119040000D03*
D15*
%TO.P,,5*%
X122440000Y-98720000D03*
%TO.P,,6*%
X122440000Y-96180000D03*
%TO.P,,7*%
X122440000Y-93640000D03*
%TO.P,,8*%
X122440000Y-91100000D03*
%TD*%
D19*
%TO.P,,1*%
%TO.N,N/C*%
X136234740Y-44163220D03*
%TO.P,,2*%
X136234740Y-39083220D03*
%TD*%
D10*
%TO.P,,1*%
%TO.N,N/C*%
X211820000Y-113960000D03*
%TO.P,,2*%
X214360000Y-113960000D03*
%TO.P,,3*%
X214360000Y-116500000D03*
%TO.P,,4*%
X211820000Y-116500000D03*
%TO.P,,5*%
X209280000Y-116500000D03*
%TO.P,,6*%
X209280000Y-113960000D03*
%TO.P,,7*%
X209280000Y-111420000D03*
%TO.P,,8*%
X211820000Y-111420000D03*
%TO.P,,9*%
X214360000Y-111420000D03*
%TO.P,,10*%
X216900000Y-111420000D03*
%TO.P,,11*%
X216900000Y-113960000D03*
%TO.P,,12*%
X216900000Y-116500000D03*
%TO.P,,13*%
X216900000Y-119040000D03*
%TO.P,,14*%
X214360000Y-119040000D03*
%TO.P,,15*%
X211820000Y-119040000D03*
%TO.P,,16*%
X209280000Y-119040000D03*
%TD*%
D14*
%TO.P,,1*%
%TO.N,N/C*%
X155460000Y-126660000D03*
%TO.P,,2*%
X155460000Y-124120000D03*
%TO.P,,3*%
X155460000Y-121580000D03*
%TO.P,,4*%
X155460000Y-119040000D03*
D15*
%TO.P,,5*%
X155460000Y-98720000D03*
%TO.P,,6*%
X155460000Y-96180000D03*
%TO.P,,7*%
X155460000Y-93640000D03*
%TO.P,,8*%
X155460000Y-91100000D03*
%TD*%
D14*
%TO.P,,1*%
%TO.N,N/C*%
X107200000Y-126660000D03*
%TO.P,,2*%
X107200000Y-124120000D03*
%TO.P,,3*%
X107200000Y-121580000D03*
%TO.P,,4*%
X107200000Y-119040000D03*
D15*
%TO.P,,5*%
X107200000Y-98720000D03*
%TO.P,,6*%
X107200000Y-96180000D03*
%TO.P,,7*%
X107200000Y-93640000D03*
%TO.P,,8*%
X107200000Y-91100000D03*
%TD*%
D14*
%TO.P,,1*%
%TO.N,N/C*%
X132600000Y-126660000D03*
%TO.P,,2*%
X132600000Y-124120000D03*
%TO.P,,3*%
X132600000Y-121580000D03*
%TO.P,,4*%
X132600000Y-119040000D03*
D15*
%TO.P,,5*%
X132600000Y-98720000D03*
%TO.P,,6*%
X132600000Y-96180000D03*
%TO.P,,7*%
X132600000Y-93640000D03*
%TO.P,,8*%
X132600000Y-91100000D03*
%TD*%
D14*
%TO.P,,1*%
%TO.N,N/C*%
X150380000Y-126660000D03*
%TO.P,,2*%
X150380000Y-124120000D03*
%TO.P,,3*%
X150380000Y-121580000D03*
%TO.P,,4*%
X150380000Y-119040000D03*
D15*
%TO.P,,5*%
X150380000Y-98720000D03*
%TO.P,,6*%
X150380000Y-96180000D03*
%TO.P,,7*%
X150380000Y-93640000D03*
%TO.P,,8*%
X150380000Y-91100000D03*
%TD*%
D19*
%TO.P,,1*%
%TO.N,N/C*%
X176454740Y-106340000D03*
D22*
%TO.P,,2*%
X178994740Y-106340000D03*
%TO.P,,3*%
X204394740Y-106340000D03*
D19*
%TO.P,,4*%
X206934740Y-106340000D03*
%TD*%
%TO.P,,1*%
%TO.N,N/C*%
X107210000Y-53053220D03*
%TO.P,,2*%
X122450000Y-53053220D03*
%TD*%
D10*
%TO.P,,1*%
%TO.N,N/C*%
X189574740Y-50513220D03*
%TO.P,,2*%
X192114740Y-50513220D03*
%TO.P,,3*%
X192114740Y-53053220D03*
%TO.P,,4*%
X189574740Y-53053220D03*
%TO.P,,5*%
X187034740Y-53053220D03*
%TO.P,,6*%
X187034740Y-50513220D03*
%TO.P,,7*%
X187034740Y-47973220D03*
%TO.P,,8*%
X189574740Y-47973220D03*
%TO.P,,9*%
X192114740Y-47973220D03*
%TO.P,,10*%
X194654740Y-47973220D03*
%TO.P,,11*%
X194654740Y-50513220D03*
%TO.P,,12*%
X194654740Y-53053220D03*
%TO.P,,13*%
X194654740Y-55593220D03*
%TO.P,,14*%
X192114740Y-55593220D03*
%TO.P,,15*%
X189574740Y-55593220D03*
%TO.P,,16*%
X187034740Y-55593220D03*
%TD*%
D19*
%TO.P,,1*%
%TO.N,N/C*%
X176454740Y-111420000D03*
D22*
%TO.P,,2*%
X178994740Y-111420000D03*
%TO.P,,3*%
X204394740Y-111420000D03*
D19*
%TO.P,,4*%
X206934740Y-111420000D03*
%TD*%
%TO.P,,1*%
%TO.N,N/C*%
X133694740Y-44163220D03*
%TO.P,,2*%
X133694740Y-39083220D03*
%TD*%
D10*
%TO.P,,1*%
%TO.N,N/C*%
X199734740Y-50513220D03*
%TO.P,,2*%
X202274740Y-50513220D03*
%TO.P,,3*%
X202274740Y-53053220D03*
%TO.P,,4*%
X199734740Y-53053220D03*
%TO.P,,5*%
X197194740Y-53053220D03*
%TO.P,,6*%
X197194740Y-50513220D03*
%TO.P,,7*%
X197194740Y-47973220D03*
%TO.P,,8*%
X199734740Y-47973220D03*
%TO.P,,9*%
X202274740Y-47973220D03*
%TO.P,,10*%
X204814740Y-47973220D03*
%TO.P,,11*%
X204814740Y-50513220D03*
%TO.P,,12*%
X204814740Y-53053220D03*
%TO.P,,13*%
X204814740Y-55593220D03*
%TO.P,,14*%
X202274740Y-55593220D03*
%TO.P,,15*%
X199734740Y-55593220D03*
%TO.P,,16*%
X197194740Y-55593220D03*
%TD*%
%TO.P,,1*%
%TO.N,N/C*%
X168834740Y-113960000D03*
%TO.P,,2*%
X171374740Y-113960000D03*
%TO.P,,3*%
X171374740Y-116500000D03*
%TO.P,,4*%
X168834740Y-116500000D03*
%TO.P,,5*%
X166294740Y-116500000D03*
%TO.P,,6*%
X166294740Y-113960000D03*
%TO.P,,7*%
X166294740Y-111420000D03*
%TO.P,,8*%
X168834740Y-111420000D03*
%TO.P,,9*%
X171374740Y-111420000D03*
%TO.P,,10*%
X173914740Y-111420000D03*
%TO.P,,11*%
X173914740Y-113960000D03*
%TO.P,,12*%
X173914740Y-116500000D03*
%TO.P,,13*%
X173914740Y-119040000D03*
%TO.P,,14*%
X171374740Y-119040000D03*
%TO.P,,15*%
X168834740Y-119040000D03*
%TO.P,,16*%
X166294740Y-119040000D03*
%TD*%
D14*
%TO.P,,1*%
%TO.N,N/C*%
X145300000Y-126660000D03*
%TO.P,,2*%
X145300000Y-124120000D03*
%TO.P,,3*%
X145300000Y-121580000D03*
%TO.P,,4*%
X145300000Y-119040000D03*
D15*
%TO.P,,5*%
X145300000Y-98720000D03*
%TO.P,,6*%
X145300000Y-96180000D03*
%TO.P,,7*%
X145300000Y-93640000D03*
%TO.P,,8*%
X145300000Y-91100000D03*
%TD*%
D26*
%TO.P,REF\u002A\u002A,1*%
%TO.N,N/C*%
X153734740Y-71753220D03*
%TO.P,REF\u002A\u002A,2*%
X153734740Y-70953220D03*
%TO.P,REF\u002A\u002A,3*%
X153734740Y-70153220D03*
%TO.P,REF\u002A\u002A,4*%
X153734740Y-69353220D03*
%TO.P,REF\u002A\u002A,5*%
X153734740Y-68553220D03*
%TO.P,REF\u002A\u002A,6*%
X153734740Y-67753220D03*
%TO.P,REF\u002A\u002A,7*%
X153734740Y-66953220D03*
%TO.P,REF\u002A\u002A,8*%
X153734740Y-66153220D03*
%TO.P,REF\u002A\u002A,9*%
X153734740Y-65353220D03*
%TO.P,REF\u002A\u002A,10*%
X153734740Y-64553220D03*
%TO.P,REF\u002A\u002A,11*%
X153734740Y-63753220D03*
%TO.P,REF\u002A\u002A,12*%
X153734740Y-62953220D03*
%TO.P,REF\u002A\u002A,13*%
X153734740Y-62153220D03*
%TO.P,REF\u002A\u002A,14*%
X153734740Y-61353220D03*
%TO.P,REF\u002A\u002A,15*%
X153734740Y-60553220D03*
%TO.P,REF\u002A\u002A,16*%
X153734740Y-59753220D03*
D27*
%TO.P,REF\u002A\u002A,17*%
X155634740Y-61053220D03*
%TO.P,REF\u002A\u002A,18*%
X156434740Y-61053220D03*
%TO.P,REF\u002A\u002A,19*%
X157234740Y-61053220D03*
%TO.P,REF\u002A\u002A,20*%
X158034740Y-61053220D03*
%TO.P,REF\u002A\u002A,21*%
X158834740Y-61053220D03*
%TO.P,REF\u002A\u002A,22*%
X159634740Y-61053220D03*
%TO.P,REF\u002A\u002A,23*%
X160434740Y-61053220D03*
%TO.P,REF\u002A\u002A,24*%
X161234740Y-61053220D03*
D28*
%TO.P,REF\u002A\u002A,25*%
X162034740Y-59853220D03*
%TO.P,REF\u002A\u002A,26*%
X162834740Y-59853220D03*
%TO.P,REF\u002A\u002A,27*%
X163634740Y-59853220D03*
D29*
%TO.P,REF\u002A\u002A,28*%
X164434740Y-59053220D03*
%TO.P,REF\u002A\u002A,29*%
X165234740Y-59053220D03*
D30*
%TO.P,REF\u002A\u002A,30*%
X166034740Y-57853220D03*
%TO.P,REF\u002A\u002A,31*%
X166834740Y-57853220D03*
%TO.P,REF\u002A\u002A,32*%
X167634740Y-57853220D03*
D26*
%TO.P,REF\u002A\u002A,33*%
X169534740Y-59753220D03*
%TO.P,REF\u002A\u002A,34*%
X169534740Y-60553220D03*
%TO.P,REF\u002A\u002A,35*%
X169534740Y-61353220D03*
D31*
%TO.P,REF\u002A\u002A,36*%
X168334740Y-62153220D03*
%TO.P,REF\u002A\u002A,37*%
X168334740Y-62953220D03*
D32*
%TO.P,REF\u002A\u002A,38*%
X167534740Y-63753220D03*
%TO.P,REF\u002A\u002A,39*%
X167534740Y-64553220D03*
%TO.P,REF\u002A\u002A,40*%
X167534740Y-65353220D03*
D33*
%TO.P,REF\u002A\u002A,41*%
X166334740Y-66153220D03*
%TO.P,REF\u002A\u002A,42*%
X166334740Y-66953220D03*
%TO.P,REF\u002A\u002A,43*%
X166334740Y-67753220D03*
%TO.P,REF\u002A\u002A,44*%
X166334740Y-68553220D03*
%TO.P,REF\u002A\u002A,45*%
X166334740Y-69353220D03*
%TO.P,REF\u002A\u002A,46*%
X166334740Y-70153220D03*
%TO.P,REF\u002A\u002A,47*%
X166334740Y-70953220D03*
%TO.P,REF\u002A\u002A,48*%
X166334740Y-71753220D03*
D30*
%TO.P,REF\u002A\u002A,49*%
X167634740Y-73653220D03*
%TO.P,REF\u002A\u002A,50*%
X166834740Y-73653220D03*
%TO.P,REF\u002A\u002A,51*%
X166034740Y-73653220D03*
%TO.P,REF\u002A\u002A,52*%
X165234740Y-73653220D03*
%TO.P,REF\u002A\u002A,53*%
X164434740Y-73653220D03*
%TO.P,REF\u002A\u002A,54*%
X163634740Y-73653220D03*
%TO.P,REF\u002A\u002A,55*%
X162834740Y-73653220D03*
%TO.P,REF\u002A\u002A,56*%
X162034740Y-73653220D03*
%TO.P,REF\u002A\u002A,57*%
X161234740Y-73653220D03*
%TO.P,REF\u002A\u002A,58*%
X160434740Y-73653220D03*
%TO.P,REF\u002A\u002A,59*%
X159634740Y-73653220D03*
%TO.P,REF\u002A\u002A,60*%
X158834740Y-73653220D03*
%TO.P,REF\u002A\u002A,61*%
X158034740Y-73653220D03*
%TO.P,REF\u002A\u002A,62*%
X157234740Y-73653220D03*
%TO.P,REF\u002A\u002A,63*%
X156434740Y-73653220D03*
%TO.P,REF\u002A\u002A,64*%
X155634740Y-73653220D03*
%TD*%
D34*
%TO.N,*%
X150710200Y-116931800D03*
D35*
X104634740Y-119393220D03*
X171220000Y-138800000D03*
X199160000Y-138800000D03*
X191540000Y-131200000D03*
D34*
X115150200Y-100828200D03*
X138010200Y-116931800D03*
D35*
X104634740Y-127013220D03*
X166140000Y-138800000D03*
X209320000Y-138800000D03*
X189000000Y-138800000D03*
X104634740Y-58433220D03*
X186460000Y-131200000D03*
X104634740Y-96533220D03*
X168680000Y-131200000D03*
X104634740Y-73673220D03*
D34*
X122770200Y-100828200D03*
D35*
X104634740Y-88913220D03*
X104634740Y-104153220D03*
X104634740Y-83833220D03*
X104634740Y-124473220D03*
X196620000Y-138800000D03*
X104634740Y-53353220D03*
D34*
X153250200Y-116931800D03*
D35*
X104634740Y-106693220D03*
X104634740Y-43193220D03*
D34*
X148170200Y-100828200D03*
D35*
X173760000Y-138800000D03*
D34*
X110070200Y-100828200D03*
D35*
X199160000Y-131200000D03*
D34*
X155790200Y-100828200D03*
D35*
X194080000Y-138800000D03*
X104634740Y-78753220D03*
D34*
X148170200Y-116931800D03*
D35*
X166140000Y-131200000D03*
D34*
X163410200Y-100828200D03*
D35*
X183920000Y-131200000D03*
D34*
X132930200Y-116931800D03*
X145630200Y-116931800D03*
X130390200Y-116931800D03*
X153250200Y-100828200D03*
D35*
X104634740Y-50813220D03*
X104634740Y-129553220D03*
D34*
X122770200Y-116931800D03*
X120230200Y-100828200D03*
X143090200Y-100828200D03*
X160870200Y-116931800D03*
X140550200Y-116931800D03*
X127850200Y-116931800D03*
X135470200Y-100828200D03*
D35*
X206780000Y-131200000D03*
X211860000Y-131200000D03*
D34*
X132930200Y-100828200D03*
D35*
X104634740Y-48273220D03*
D34*
X117690200Y-100828200D03*
D35*
X186460000Y-138800000D03*
D34*
X130390200Y-100828200D03*
X138010200Y-100828200D03*
X145630200Y-100828200D03*
D35*
X104634740Y-93993220D03*
X214400000Y-138800000D03*
X104634740Y-109233220D03*
D34*
X112610200Y-116931800D03*
D35*
X104634740Y-68593220D03*
D34*
X110070200Y-116931800D03*
D35*
X181380000Y-138800000D03*
X191540000Y-138800000D03*
X104634740Y-121933220D03*
D34*
X107530200Y-116931800D03*
X135470200Y-116931800D03*
X125310200Y-100828200D03*
X120230200Y-116931800D03*
D35*
X104634740Y-63513220D03*
X104634740Y-60973220D03*
D34*
X150710200Y-100828200D03*
D35*
X104634740Y-40653220D03*
X178840000Y-131200000D03*
D34*
X155790200Y-116931800D03*
D35*
X176300000Y-131200000D03*
X104634740Y-91453220D03*
X204240000Y-138800000D03*
X168680000Y-138800000D03*
D34*
X158330200Y-100828200D03*
D35*
X104634740Y-114313220D03*
D34*
X117690200Y-116931800D03*
D35*
X181380000Y-131200000D03*
X214400000Y-131200000D03*
X196620000Y-131200000D03*
X189000000Y-131200000D03*
D34*
X112610200Y-100828200D03*
D35*
X104634740Y-55893220D03*
X204240000Y-131200000D03*
X171220000Y-131200000D03*
X176300000Y-138800000D03*
X211860000Y-138800000D03*
X104634740Y-86373220D03*
X201700000Y-131200000D03*
X104634740Y-45733220D03*
X104634740Y-71133220D03*
X178840000Y-138800000D03*
X201700000Y-138800000D03*
D34*
X107530200Y-100828200D03*
D35*
X104634740Y-116853220D03*
X104634740Y-99073220D03*
D34*
X160870200Y-100828200D03*
D35*
X104634740Y-101613220D03*
D34*
X163410200Y-116931800D03*
D35*
X104634740Y-81293220D03*
X206780000Y-138800000D03*
X104634740Y-111773220D03*
X209320000Y-131200000D03*
X183920000Y-138800000D03*
D34*
X115150200Y-116931800D03*
X140550200Y-100828200D03*
D35*
X104634740Y-76213220D03*
D34*
X143090200Y-116931800D03*
D35*
X194080000Y-131200000D03*
X173760000Y-131200000D03*
D34*
X125310200Y-116931800D03*
X158330200Y-116931800D03*
D35*
X104634740Y-66053220D03*
D34*
X127850200Y-100828200D03*
%TD*%
D36*
%TO.N,*%
X120966800Y-100091600D02*
X120966800Y-97246800D01*
D37*
X165234740Y-55205420D02*
X161634740Y-51605420D01*
X174334740Y-82161620D02*
X174334740Y-86073220D01*
D36*
X164741540Y-100038380D02*
X164741540Y-97193580D01*
D37*
X172665340Y-70953220D02*
X175325340Y-68293220D01*
D38*
X185510740Y-34257220D02*
X185510740Y-41110740D01*
D36*
X162191000Y-120691000D02*
X163080000Y-121580000D01*
D38*
X143854740Y-87343220D02*
X143854740Y-83533220D01*
D37*
X153734740Y-66953220D02*
X151392340Y-66953220D01*
X157234740Y-73653220D02*
X157234740Y-77380620D01*
D36*
X133666800Y-100091600D02*
X133666800Y-97246800D01*
X108266800Y-97246800D02*
X107200000Y-96180000D01*
D37*
X169534740Y-59753220D02*
X170987540Y-59753220D01*
X162834740Y-59853220D02*
X162834740Y-55675620D01*
X141924340Y-81602820D02*
X141314740Y-80993220D01*
D38*
X138774740Y-82263220D02*
X138774740Y-49243220D01*
D36*
X160870200Y-100828200D02*
X161606800Y-100091600D01*
D37*
X167349740Y-81247220D02*
X168314940Y-81247220D01*
D39*
X179414740Y-47973220D02*
X184240740Y-47973220D01*
D37*
X166334740Y-71753220D02*
X172830540Y-71753220D01*
X151112140Y-60553220D02*
X148452140Y-63213220D01*
D36*
X148170200Y-100828200D02*
X148906800Y-100091600D01*
X143826800Y-100091600D02*
X143826800Y-97246800D01*
X144411000Y-120691000D02*
X145300000Y-121580000D01*
D37*
X171261340Y-78224620D02*
X175604740Y-82568020D01*
X158834740Y-73653220D02*
X158834740Y-77177220D01*
X150972340Y-59753220D02*
X148782340Y-61943220D01*
X164434740Y-59053220D02*
X164434740Y-55345220D01*
D36*
X106311000Y-118151000D02*
X106311000Y-120691000D01*
X146951000Y-118151000D02*
X146951000Y-120691000D01*
D37*
X147588540Y-65753220D02*
X141314740Y-65753220D01*
D36*
X116471000Y-118151000D02*
X116471000Y-120691000D01*
D37*
X148452140Y-63213220D02*
X141314740Y-63213220D01*
X176442940Y-52875420D02*
X178805140Y-50513220D01*
X166334740Y-70153220D02*
X172500140Y-70153220D01*
X148020340Y-64483220D02*
X143854740Y-64483220D01*
X153734740Y-64553220D02*
X151353940Y-64553220D01*
X177027140Y-54577220D02*
X177027140Y-53358020D01*
D36*
X153250200Y-100828200D02*
X153986800Y-100091600D01*
X139331000Y-118151000D02*
X139331000Y-120691000D01*
D37*
X178424140Y-56863220D02*
X179414740Y-56863220D01*
X153734740Y-71753220D02*
X151672340Y-71753220D01*
X158834740Y-77177220D02*
X162904740Y-81247220D01*
D39*
X177192240Y-50195720D02*
X179414740Y-47973220D01*
D37*
X151627140Y-52418220D02*
X150204740Y-52418220D01*
X147207540Y-67023220D02*
X143854740Y-67023220D01*
D36*
X123506800Y-100091600D02*
X123506800Y-97246800D01*
D37*
X151150340Y-61353220D02*
X148020340Y-64483220D01*
X177738340Y-53662820D02*
X178347940Y-53053220D01*
D38*
X145124740Y-88613220D02*
X143854740Y-87343220D01*
D37*
X151474740Y-48913020D02*
X151474740Y-45433220D01*
X145480340Y-72103220D02*
X143854740Y-72103220D01*
D36*
X134251000Y-118151000D02*
X134251000Y-120691000D01*
D37*
X159634740Y-77088220D02*
X164174740Y-81628220D01*
X162834740Y-55675620D02*
X157824740Y-50665620D01*
D36*
X119011000Y-118151000D02*
X119011000Y-120691000D01*
D37*
X151557940Y-70953220D02*
X147131340Y-75379820D01*
D36*
X162191000Y-118151000D02*
X162191000Y-120691000D01*
X154571000Y-120691000D02*
X155460000Y-121580000D01*
D37*
X166334740Y-70953220D02*
X172665340Y-70953220D01*
D36*
X111391000Y-120691000D02*
X112280000Y-121580000D01*
D37*
X167756140Y-81958420D02*
X167984740Y-82187020D01*
X151119140Y-51249820D02*
X148934740Y-49065420D01*
D36*
X158330200Y-116931800D02*
X157111000Y-118151000D01*
D37*
X153734740Y-59753220D02*
X150972340Y-59753220D01*
X171794740Y-81399620D02*
X171794740Y-86073220D01*
X172500140Y-70153220D02*
X175630140Y-67023220D01*
X157824740Y-50665620D02*
X157824740Y-47973220D01*
D36*
X116471000Y-120691000D02*
X117360000Y-121580000D01*
X126046800Y-97246800D02*
X124980000Y-96180000D01*
X140550200Y-100828200D02*
X141286800Y-100091600D01*
D38*
X176874740Y-80993220D02*
X179414740Y-83533220D01*
D36*
X140550200Y-116931800D02*
X139331000Y-118151000D01*
X131126800Y-100091600D02*
X131126800Y-97246800D01*
D37*
X175020540Y-69563220D02*
X179414740Y-69563220D01*
D39*
X176874740Y-50513220D02*
X177509740Y-50513220D01*
D37*
X168949940Y-77589620D02*
X171489940Y-77589620D01*
X169534740Y-60553220D02*
X171051140Y-60553220D01*
D36*
X156526800Y-97246800D02*
X155460000Y-96180000D01*
X146366800Y-97246800D02*
X145300000Y-96180000D01*
X155790200Y-100828200D02*
X156526800Y-100091600D01*
D39*
X184240740Y-47973220D02*
X184494740Y-48227220D01*
D37*
X168365740Y-78834220D02*
X171007340Y-78834220D01*
X153734740Y-62153220D02*
X151188540Y-62153220D01*
D36*
X136206800Y-97246800D02*
X135140000Y-96180000D01*
D37*
X161234740Y-73653220D02*
X161234740Y-76884820D01*
X143829340Y-81602820D02*
X141924340Y-81602820D01*
X153734740Y-70953220D02*
X151557940Y-70953220D01*
X179033740Y-54323220D02*
X179414740Y-54323220D01*
X172169540Y-66953220D02*
X177179540Y-61943220D01*
D36*
X161606800Y-100091600D02*
X161606800Y-97246800D01*
D38*
X179414740Y-87343220D02*
X178144740Y-88613220D01*
D36*
X118426800Y-100091600D02*
X118426800Y-97246800D01*
X120230200Y-116931800D02*
X119011000Y-118151000D01*
D37*
X147766340Y-77665820D02*
X143829340Y-81602820D01*
X162904740Y-51961020D02*
X162904740Y-47973220D01*
D36*
X145630200Y-116931800D02*
X144411000Y-118151000D01*
D38*
X184494740Y-48227220D02*
X184494740Y-81628220D01*
D36*
X148906800Y-100091600D02*
X148906800Y-97246800D01*
D37*
X163634740Y-55510420D02*
X159094740Y-50970420D01*
X160364740Y-80510620D02*
X160364740Y-83533220D01*
D36*
X163410200Y-116931800D02*
X162191000Y-118151000D01*
D37*
X178347940Y-53053220D02*
X181954740Y-53053220D01*
X153734740Y-68553220D02*
X151468740Y-68553220D01*
D36*
X135470200Y-116931800D02*
X134251000Y-118151000D01*
X153986800Y-97246800D02*
X152920000Y-96180000D01*
D37*
X153734740Y-62953220D02*
X151277540Y-62953220D01*
X166334740Y-66153220D02*
X172029740Y-66153220D01*
X153734740Y-60553220D02*
X151112140Y-60553220D01*
D36*
X134251000Y-120691000D02*
X135140000Y-121580000D01*
D37*
X148934740Y-49065420D02*
X148934740Y-45433220D01*
D36*
X113931000Y-120691000D02*
X114820000Y-121580000D01*
D37*
X166834740Y-57853220D02*
X166834740Y-55027420D01*
D36*
X132930200Y-100828200D02*
X133666800Y-100091600D01*
D38*
X185510740Y-41110740D02*
X189574740Y-45174740D01*
X138774740Y-49243220D02*
X140044740Y-47973220D01*
D37*
X151392340Y-66953220D02*
X144972340Y-73373220D01*
X152744740Y-49294020D02*
X152744740Y-47973220D01*
X144972340Y-73373220D02*
X141314740Y-73373220D01*
X170524740Y-81450420D02*
X170524740Y-83533220D01*
X145912140Y-70833220D02*
X141314740Y-70833220D01*
X168314940Y-81247220D02*
X169254740Y-82187020D01*
D36*
X149491000Y-118151000D02*
X149491000Y-120691000D01*
D38*
X143854740Y-83533220D02*
X140044740Y-83533220D01*
D37*
X156434740Y-61053220D02*
X156434740Y-56413020D01*
X165234740Y-76566820D02*
X168086340Y-79418420D01*
X172830540Y-71753220D02*
X175020540Y-69563220D01*
X156434740Y-73653220D02*
X156434740Y-77520420D01*
X150204740Y-52418220D02*
X145658140Y-47871620D01*
X161634740Y-80866220D02*
X161634740Y-86073220D01*
X162834740Y-76732220D02*
X167349740Y-81247220D01*
D36*
X150710200Y-100828200D02*
X151446800Y-100091600D01*
X157111000Y-120691000D02*
X158000000Y-121580000D01*
D37*
X152363740Y-50665620D02*
X151246140Y-50665620D01*
X169534740Y-61353220D02*
X171114740Y-61353220D01*
X168670540Y-78224620D02*
X171261340Y-78224620D01*
X158034740Y-61053220D02*
X158034740Y-56336620D01*
X151246140Y-50665620D02*
X150204740Y-49624220D01*
D36*
X159066800Y-100091600D02*
X159066800Y-97246800D01*
X138746800Y-97246800D02*
X137680000Y-96180000D01*
D37*
X169254740Y-82187020D02*
X169254740Y-86073220D01*
X157234740Y-77380620D02*
X160364740Y-80510620D01*
X167222740Y-81958420D02*
X167756140Y-81958420D01*
D39*
X179414740Y-47973220D02*
X176874740Y-50513220D01*
D38*
X182589740Y-83533220D02*
X179414740Y-83533220D01*
D37*
X166334740Y-66953220D02*
X172169540Y-66953220D01*
X151277540Y-62953220D02*
X147207540Y-67023220D01*
D36*
X126631000Y-120691000D02*
X127520000Y-121580000D01*
D37*
X160434740Y-56069620D02*
X154014740Y-49649620D01*
D38*
X184494740Y-81628220D02*
X182589740Y-83533220D01*
D37*
X178805140Y-50513220D02*
X181954740Y-50513220D01*
X171007340Y-78834220D02*
X174334740Y-82161620D01*
X158834740Y-61053220D02*
X158834740Y-56273020D01*
X147131340Y-75379820D02*
X147131340Y-77437220D01*
X167634740Y-73653220D02*
X167634740Y-76274420D01*
X169711940Y-80637620D02*
X170524740Y-81450420D01*
D36*
X153250200Y-116931800D02*
X152031000Y-118151000D01*
D37*
X144540540Y-74643220D02*
X143854740Y-74643220D01*
D38*
X202274740Y-45433220D02*
X202274740Y-44163220D01*
D37*
X170423140Y-80028020D02*
X171794740Y-81399620D01*
D36*
X128586800Y-100091600D02*
X128586800Y-97246800D01*
D37*
X151672340Y-71753220D02*
X147766340Y-75659220D01*
X161234740Y-61053220D02*
X161234740Y-55853620D01*
D36*
X113931000Y-118151000D02*
X113931000Y-120691000D01*
X160870200Y-116931800D02*
X159651000Y-118151000D01*
D37*
X157824740Y-79951820D02*
X157824740Y-83533220D01*
D36*
X108266800Y-100091600D02*
X108266800Y-97246800D01*
D37*
X171051140Y-60553220D02*
X177027140Y-54577220D01*
D38*
X146394740Y-50513220D02*
X143854740Y-47973220D01*
D37*
X158034740Y-77266220D02*
X161634740Y-80866220D01*
X167603740Y-80637620D02*
X169711940Y-80637620D01*
X162034740Y-59853220D02*
X162034740Y-55739220D01*
D36*
X108851000Y-118151000D02*
X108851000Y-120691000D01*
X115150200Y-116931800D02*
X113931000Y-118151000D01*
D37*
X151779540Y-51757820D02*
X150738140Y-51757820D01*
D36*
X131711000Y-118151000D02*
X131711000Y-120691000D01*
D37*
X145886740Y-76192620D02*
X144896140Y-77183220D01*
D36*
X144411000Y-118151000D02*
X144411000Y-120691000D01*
D37*
X172436540Y-69353220D02*
X176036540Y-65753220D01*
X175630140Y-67023220D02*
X179414740Y-67023220D01*
X168086340Y-79418420D02*
X170702540Y-79418420D01*
X146496340Y-76700620D02*
X144743740Y-78453220D01*
X153734740Y-67753220D02*
X151430540Y-67753220D01*
X155634740Y-61053220D02*
X155634740Y-56425820D01*
X151468740Y-68553220D02*
X145327940Y-74694020D01*
D36*
X110806800Y-100091600D02*
X110806800Y-97246800D01*
D37*
X167534740Y-64553220D02*
X171673940Y-64553220D01*
D36*
X149491000Y-120691000D02*
X150380000Y-121580000D01*
D38*
X187034740Y-47973220D02*
X204814740Y-47973220D01*
D36*
X146951000Y-120691000D02*
X147840000Y-121580000D01*
D39*
X179414740Y-47973220D02*
X176874740Y-50513220D01*
D37*
X151456140Y-69353220D02*
X145886740Y-74922620D01*
X153734740Y-61353220D02*
X151150340Y-61353220D01*
X167857740Y-80028020D02*
X170423140Y-80028020D01*
D38*
X181954740Y-32733220D02*
X183986740Y-32733220D01*
D37*
X153734740Y-69353220D02*
X151456140Y-69353220D01*
D38*
X146394740Y-80993220D02*
X143854740Y-83533220D01*
D37*
X166834740Y-73653220D02*
X166834740Y-76388820D01*
X181929340Y-55567820D02*
X181954740Y-55593220D01*
X168334740Y-62953220D02*
X171318140Y-62953220D01*
D36*
X110070200Y-116931800D02*
X108851000Y-118151000D01*
X131126800Y-97246800D02*
X130060000Y-96180000D01*
X163410200Y-100828200D02*
X164146800Y-100091600D01*
D37*
X144845340Y-79723220D02*
X143854740Y-79723220D01*
X171114740Y-61353220D02*
X177738340Y-54729620D01*
X152109740Y-51249820D02*
X151119140Y-51249820D01*
X172347540Y-68553220D02*
X176417540Y-64483220D01*
X157234740Y-56374820D02*
X152109740Y-51249820D01*
X166334740Y-69353220D02*
X172436540Y-69353220D01*
D38*
X187034740Y-47973220D02*
X179414740Y-47973220D01*
D37*
X145327940Y-74694020D02*
X145327940Y-75354420D01*
D36*
X136791000Y-118151000D02*
X136791000Y-120691000D01*
X136206800Y-100091600D02*
X136206800Y-97246800D01*
D37*
X160434740Y-76999220D02*
X165444740Y-82009220D01*
X171534140Y-63753220D02*
X178424140Y-56863220D01*
X156554740Y-50259220D02*
X156554740Y-45433220D01*
X158034740Y-56336620D02*
X152363740Y-50665620D01*
D36*
X139331000Y-120691000D02*
X140220000Y-121580000D01*
X130390200Y-116931800D02*
X129171000Y-118151000D01*
X141871000Y-120691000D02*
X142760000Y-121580000D01*
D37*
X165234740Y-73653220D02*
X165234740Y-76566820D01*
D38*
X202274740Y-47973220D02*
X202274740Y-45433220D01*
D36*
X115886800Y-100091600D02*
X115886800Y-97246800D01*
X151446800Y-97246800D02*
X150380000Y-96180000D01*
D37*
X151392140Y-65353220D02*
X145912140Y-70833220D01*
X177738340Y-54729620D02*
X177738340Y-53662820D01*
X167634740Y-76274420D02*
X168949940Y-77589620D01*
X160434740Y-61053220D02*
X160434740Y-56069620D01*
X147664740Y-48684420D02*
X147664740Y-47973220D01*
X147766340Y-75659220D02*
X147766340Y-77665820D01*
D36*
X117690200Y-100828200D02*
X118426800Y-100091600D01*
X143090200Y-100828200D02*
X143826800Y-100091600D01*
X121551000Y-118151000D02*
X121551000Y-120691000D01*
D37*
X158034740Y-73653220D02*
X158034740Y-77266220D01*
D36*
X148906800Y-97246800D02*
X147840000Y-96180000D01*
D37*
X167634740Y-54938420D02*
X165444740Y-52748420D01*
D36*
X138746800Y-100091600D02*
X138746800Y-97246800D01*
X136791000Y-120691000D02*
X137680000Y-121580000D01*
X164146800Y-97246800D02*
X163080000Y-96180000D01*
D37*
X166834740Y-55027420D02*
X164174740Y-52367420D01*
D36*
X132930200Y-116931800D02*
X131711000Y-118151000D01*
D37*
X167534740Y-63753220D02*
X171534140Y-63753220D01*
D36*
X158330200Y-100828200D02*
X159066800Y-100091600D01*
D37*
X166334740Y-68553220D02*
X172347540Y-68553220D01*
X170702540Y-79418420D02*
X173064740Y-81780620D01*
X170987540Y-59753220D02*
X176442940Y-54297820D01*
X173064740Y-81780620D02*
X173064740Y-83533220D01*
X161634740Y-51605420D02*
X161634740Y-45433220D01*
D38*
X178144740Y-88613220D02*
X145124740Y-88613220D01*
D37*
X163634740Y-59853220D02*
X163634740Y-55510420D01*
X167984740Y-82187020D02*
X167984740Y-83533220D01*
D38*
X179414740Y-83533220D02*
X179414740Y-87343220D01*
D36*
X152031000Y-120691000D02*
X152920000Y-121580000D01*
X159066800Y-97246800D02*
X158000000Y-96180000D01*
D37*
X154014740Y-49649620D02*
X154014740Y-45433220D01*
X166034740Y-73653220D02*
X166034740Y-76503220D01*
X146775740Y-68293220D02*
X141314740Y-68293220D01*
D36*
X153986800Y-100091600D02*
X153986800Y-97246800D01*
D37*
X176798540Y-63213220D02*
X181954740Y-63213220D01*
X162034740Y-73653220D02*
X162034740Y-76770420D01*
D36*
X143826800Y-97246800D02*
X142760000Y-96180000D01*
D37*
X151315740Y-63753220D02*
X146775740Y-68293220D01*
D36*
X117690200Y-116931800D02*
X116471000Y-118151000D01*
D37*
X171788340Y-65353220D02*
X177738340Y-59403220D01*
D36*
X107530200Y-100828200D02*
X108266800Y-100091600D01*
D37*
X155284740Y-49903620D02*
X155284740Y-47973220D01*
X159094740Y-50970420D02*
X159094740Y-45433220D01*
X161234740Y-76884820D02*
X166714740Y-82364820D01*
X162834740Y-73653220D02*
X162834740Y-76732220D01*
D36*
X161606800Y-97246800D02*
X160540000Y-96180000D01*
D38*
X140044740Y-47973220D02*
X143854740Y-47973220D01*
D37*
X151188540Y-62153220D02*
X147588540Y-65753220D01*
D36*
X122770200Y-116931800D02*
X121551000Y-118151000D01*
D37*
X166034740Y-55091020D02*
X162904740Y-51961020D01*
X166034740Y-76503220D02*
X168365740Y-78834220D01*
X145886740Y-74922620D02*
X145886740Y-76192620D01*
D36*
X159651000Y-120691000D02*
X160540000Y-121580000D01*
D37*
X168334740Y-62153220D02*
X171203740Y-62153220D01*
X147131340Y-77437220D02*
X144845340Y-79723220D01*
X160434740Y-73653220D02*
X160434740Y-76999220D01*
X145658140Y-46169820D02*
X146394740Y-45433220D01*
X148782340Y-61943220D02*
X143854740Y-61943220D01*
X177738340Y-59403220D02*
X179414740Y-59403220D01*
D36*
X122770200Y-100828200D02*
X123506800Y-100091600D01*
X121551000Y-120691000D02*
X122440000Y-121580000D01*
D38*
X143854740Y-47973220D02*
X143854740Y-44798220D01*
X203544740Y-42893220D02*
X207354740Y-42893220D01*
X143854740Y-44798220D02*
X145759740Y-42893220D01*
D37*
X166834740Y-76388820D02*
X168670540Y-78224620D01*
D36*
X155790200Y-116931800D02*
X154571000Y-118151000D01*
D38*
X177509740Y-42893220D02*
X179414740Y-44798220D01*
D37*
X161234740Y-55853620D02*
X155284740Y-49903620D01*
D36*
X152031000Y-118151000D02*
X152031000Y-120691000D01*
D37*
X145658140Y-47871620D02*
X145658140Y-46169820D01*
X158834740Y-56273020D02*
X151474740Y-48913020D01*
D36*
X133666800Y-97246800D02*
X132600000Y-96180000D01*
X113346800Y-100091600D02*
X113346800Y-97246800D01*
X151446800Y-100091600D02*
X151446800Y-97246800D01*
X119011000Y-120691000D02*
X119900000Y-121580000D01*
X154571000Y-118151000D02*
X154571000Y-120691000D01*
D37*
X167534740Y-65353220D02*
X171788340Y-65353220D01*
X166334740Y-67753220D02*
X172258540Y-67753220D01*
D36*
X111391000Y-118151000D02*
X111391000Y-120691000D01*
X118426800Y-97246800D02*
X117360000Y-96180000D01*
D38*
X145759740Y-42893220D02*
X177509740Y-42893220D01*
D37*
X177027140Y-53358020D02*
X178601940Y-51783220D01*
X153734740Y-66153220D02*
X151430340Y-66153220D01*
D36*
X120966800Y-97246800D02*
X119900000Y-96180000D01*
X113346800Y-97246800D02*
X112280000Y-96180000D01*
X125310200Y-100828200D02*
X126046800Y-100091600D01*
D37*
X151430540Y-67753220D02*
X144540540Y-74643220D01*
D36*
X159651000Y-118151000D02*
X159651000Y-120691000D01*
D37*
X165444740Y-52748420D02*
X165444740Y-47973220D01*
D38*
X183986740Y-32733220D02*
X185510740Y-34257220D01*
D36*
X126046800Y-100091600D02*
X126046800Y-97246800D01*
D37*
X176036540Y-65753220D02*
X181954740Y-65753220D01*
X164174740Y-81628220D02*
X164174740Y-86073220D01*
X178093940Y-58133220D02*
X181954740Y-58133220D01*
X153734740Y-65353220D02*
X151392140Y-65353220D01*
X162034740Y-55739220D02*
X156554740Y-50259220D01*
X150204740Y-49624220D02*
X150204740Y-47973220D01*
X176442940Y-54297820D02*
X176442940Y-52875420D01*
D36*
X107530200Y-116931800D02*
X106311000Y-118151000D01*
X148170200Y-116931800D02*
X146951000Y-118151000D01*
X131711000Y-120691000D02*
X132600000Y-121580000D01*
D37*
X146343940Y-69563220D02*
X143854740Y-69563220D01*
D36*
X125310200Y-116931800D02*
X124091000Y-118151000D01*
X127850200Y-116931800D02*
X126631000Y-118151000D01*
D37*
X166714740Y-82364820D02*
X166714740Y-86073220D01*
D36*
X112610200Y-116931800D02*
X111391000Y-118151000D01*
D37*
X156434740Y-77520420D02*
X159094740Y-80180420D01*
D36*
X127850200Y-100828200D02*
X128586800Y-100091600D01*
D37*
X145327940Y-75354420D02*
X144769140Y-75913220D01*
X159094740Y-80180420D02*
X159094740Y-86073220D01*
X164434740Y-55345220D02*
X160364740Y-51275220D01*
D36*
X106311000Y-120691000D02*
X107200000Y-121580000D01*
X141286800Y-100091600D02*
X141286800Y-97246800D01*
D37*
X176417540Y-64483220D02*
X179414740Y-64483220D01*
D36*
X112610200Y-100828200D02*
X113346800Y-100091600D01*
X130390200Y-100828200D02*
X131126800Y-100091600D01*
X126631000Y-118151000D02*
X126631000Y-120691000D01*
D37*
X171203740Y-62153220D02*
X179033740Y-54323220D01*
D36*
X124091000Y-120691000D02*
X124980000Y-121580000D01*
X115150200Y-100828200D02*
X115886800Y-100091600D01*
D37*
X165444740Y-82009220D02*
X165444740Y-83533220D01*
D36*
X129171000Y-118151000D02*
X129171000Y-120691000D01*
D37*
X151468940Y-70153220D02*
X146496340Y-75125820D01*
X176874740Y-82974420D02*
X176874740Y-86073220D01*
X175604740Y-82568020D02*
X175604740Y-83533220D01*
D36*
X156526800Y-100091600D02*
X156526800Y-97246800D01*
D37*
X157234740Y-61053220D02*
X157234740Y-56374820D01*
X150738140Y-51757820D02*
X147664740Y-48684420D01*
D36*
X146366800Y-100091600D02*
X146366800Y-97246800D01*
D37*
X159634740Y-73653220D02*
X159634740Y-77088220D01*
D36*
X138010200Y-100828200D02*
X138746800Y-100091600D01*
D37*
X172258540Y-67753220D02*
X176798540Y-63213220D01*
D36*
X129171000Y-120691000D02*
X130060000Y-121580000D01*
D37*
X153734740Y-63753220D02*
X151315740Y-63753220D01*
X171673940Y-64553220D02*
X178093940Y-58133220D01*
X164434740Y-76605020D02*
X167857740Y-80028020D01*
X163634740Y-76668620D02*
X167603740Y-80637620D01*
X159634740Y-61053220D02*
X159634740Y-56184020D01*
X167634740Y-57853220D02*
X167634740Y-54938420D01*
D36*
X141871000Y-118151000D02*
X141871000Y-120691000D01*
X157111000Y-118151000D02*
X157111000Y-120691000D01*
D37*
X178601940Y-51783220D02*
X179414740Y-51783220D01*
D36*
X128586800Y-97246800D02*
X127520000Y-96180000D01*
X115886800Y-97246800D02*
X114820000Y-96180000D01*
X150710200Y-116931800D02*
X149491000Y-118151000D01*
X145630200Y-100828200D02*
X146366800Y-100091600D01*
D38*
X140044740Y-83533220D02*
X138774740Y-82263220D01*
D37*
X171318140Y-62953220D02*
X178703540Y-55567820D01*
X166034740Y-57853220D02*
X166034740Y-55091020D01*
X171489940Y-77589620D02*
X176874740Y-82974420D01*
X172029740Y-66153220D02*
X177509740Y-60673220D01*
X144743740Y-78453220D02*
X141314740Y-78453220D01*
X155634740Y-77761820D02*
X157824740Y-79951820D01*
X175325340Y-68293220D02*
X181954740Y-68293220D01*
D36*
X110806800Y-97246800D02*
X109740000Y-96180000D01*
X110070200Y-100828200D02*
X110806800Y-100091600D01*
D37*
X151430340Y-66153220D02*
X145480340Y-72103220D01*
D36*
X120230200Y-100828200D02*
X120966800Y-100091600D01*
D37*
X146496340Y-75125820D02*
X146496340Y-76700620D01*
X155634740Y-73653220D02*
X155634740Y-77761820D01*
X164174740Y-52367420D02*
X164174740Y-45433220D01*
X153734740Y-70153220D02*
X151468940Y-70153220D01*
X160364740Y-51275220D02*
X160364740Y-47973220D01*
D36*
X141286800Y-97246800D02*
X140220000Y-96180000D01*
D37*
X164434740Y-73653220D02*
X164434740Y-76605020D01*
D36*
X124091000Y-118151000D02*
X124091000Y-120691000D01*
D37*
X165234740Y-59053220D02*
X165234740Y-55205420D01*
X178703540Y-55567820D02*
X181929340Y-55567820D01*
X151353940Y-64553220D02*
X146343940Y-69563220D01*
X159634740Y-56184020D02*
X152744740Y-49294020D01*
D38*
X202274740Y-44163220D02*
X203544740Y-42893220D01*
D36*
X123506800Y-97246800D02*
X122440000Y-96180000D01*
D37*
X163634740Y-73653220D02*
X163634740Y-76668620D01*
X162034740Y-76770420D02*
X167222740Y-81958420D01*
X156434740Y-56413020D02*
X151779540Y-51757820D01*
X177509740Y-60673220D02*
X181954740Y-60673220D01*
D36*
X138010200Y-116931800D02*
X136791000Y-118151000D01*
D38*
X179414740Y-44798220D02*
X179414740Y-47973220D01*
D36*
X135470200Y-100828200D02*
X136206800Y-100091600D01*
D37*
X155634740Y-56425820D02*
X151627140Y-52418220D01*
D36*
X143090200Y-116931800D02*
X141871000Y-118151000D01*
D37*
X162904740Y-81247220D02*
X162904740Y-83533220D01*
X144769140Y-75913220D02*
X141314740Y-75913220D01*
D36*
X108851000Y-120691000D02*
X109740000Y-121580000D01*
D37*
X177179540Y-61943220D02*
X179414740Y-61943220D01*
D38*
X189574740Y-45174740D02*
X189574740Y-47973220D01*
D37*
X144896140Y-77183220D02*
X143854740Y-77183220D01*
%TD*%
D40*
X227100000Y-30000000D02*
G75*
G02*
X230100000Y-33000000I0J-3000000D01*
G01*
X230100000Y-137000000D02*
X230100000Y-33000000D01*
X103100000Y-140000000D02*
X227100000Y-140000000D01*
X230100000Y-136999999D02*
G75*
G02*
X227100000Y-140000000I-3000000J-1D01*
G01*
X100100000Y-33000000D02*
X100100000Y-137000000D01*
X100100000Y-33000000D02*
G75*
G02*
X103100000Y-30000000I3000000J0D01*
G01*
X227100000Y-30000000D02*
X103100000Y-30000000D01*
X103100003Y-140000000D02*
G75*
G02*
X100100000Y-137000000I-3J3000000D01*
G01*
M02*
