%TF.GenerationSoftware,KiCad,Pcbnew,9.0.1*%
%TF.CreationDate,2026-01-25T18:39:14-05:00*%
%TF.ProjectId,project-board-olimex-smt,70726f6a-6563-4742-9d62-6f6172642d6f,rev?*%
%TF.SameCoordinates,Original*%
%TF.FileFunction,Copper,L1,Top*%
%TF.FilePolarity,Positive*%
%FSLAX46Y46*%
G04 Gerber Fmt 4.6, Leading zero omitted, Abs format (unit mm)*
G04 Created by KiCad (PCBNEW 9.0.1) date 2026-01-25 18:39:14*
%MOMM*%
%LPD*%
G01*
G04 APERTURE LIST*
G04 Aperture macros list*
%AMRoundRect*
0 Rectangle with rounded corners*
0 $1 Rounding radius*
0 $2 $3 $4 $5 $6 $7 $8 $9 X,Y pos of 4 corners*
0 Add a 4 corners polygon primitive as box body*
4,1,4,$2,$3,$4,$5,$6,$7,$8,$9,$2,$3,0*
0 Add four circle primitives for the rounded corners*
1,1,$1+$1,$2,$3*
1,1,$1+$1,$4,$5*
1,1,$1+$1,$6,$7*
1,1,$1+$1,$8,$9*
0 Add four rect primitives between the rounded corners*
20,1,$1+$1,$2,$3,$4,$5,0*
20,1,$1+$1,$4,$5,$6,$7,0*
20,1,$1+$1,$6,$7,$8,$9,0*
20,1,$1+$1,$8,$9,$2,$3,0*%
%AMRotRect*
0 Rectangle, with rotation*
0 The origin of the aperture is its center*
0 $1 length*
0 $2 width*
0 $3 Rotation angle, in degrees counterclockwise*
0 Add horizontal line*
21,1,$1,$2,0,0,$3*%
%AMOutline4P*
0 Free polygon, 4 corners , with rotation*
0 The origin of the aperture is its center*
0 number of corners: always 4*
0 $1 to $8 corner X, Y*
0 $9 Rotation angle, in degrees counterclockwise*
0 create outline with 4 corners*
4,1,4,$1,$2,$3,$4,$5,$6,$7,$8,$1,$2,$9*%
G04 Aperture macros list end*
%TA.AperFunction,ComponentPad*%
%ADD10R,1.700000X1.700000*%
%TD*%
%TA.AperFunction,ComponentPad*%
%ADD11C,2.060000*%
%TD*%
%TA.AperFunction,SMDPad,CuDef*%
%ADD12R,0.550000X2.500000*%
%TD*%
%TA.AperFunction,SMDPad,CuDef*%
%ADD13R,2.501900X1.000760*%
%TD*%
%TA.AperFunction,SMDPad,CuDef*%
%ADD14R,4.000500X1.998980*%
%TD*%
%TA.AperFunction,SMDPad,CuDef*%
%ADD15Outline4P,-1.000760X-0.374650X1.000760X-0.374650X0.500380X0.374650X-0.500380X0.374650X90.000000*%
%TD*%
%TA.AperFunction,ComponentPad*%
%ADD16RoundRect,0.250001X-0.949999X-0.949999X0.949999X-0.949999X0.949999X0.949999X-0.949999X0.949999X0*%
%TD*%
%TA.AperFunction,ComponentPad*%
%ADD17C,2.400000*%
%TD*%
%TA.AperFunction,ComponentPad*%
%ADD18O,1.300000X1.900000*%
%TD*%
%TA.AperFunction,SMDPad,CuDef*%
%ADD19R,0.350000X6.000000*%
%TD*%
%TA.AperFunction,ComponentPad*%
%ADD20O,1.400000X1.700000*%
%TD*%
%TA.AperFunction,ComponentPad*%
%ADD21R,1.800000X1.800000*%
%TD*%
%TA.AperFunction,SMDPad,CuDef*%
%ADD22R,4.000000X1.200000*%
%TD*%
%TA.AperFunction,ComponentPad*%
%ADD23RoundRect,0.250001X0.949999X-0.949999X0.949999X0.949999X-0.949999X0.949999X-0.949999X-0.949999X0*%
%TD*%
%TA.AperFunction,ComponentPad*%
%ADD24O,1.700000X1.700000*%
%TD*%
%TA.AperFunction,ComponentPad*%
%ADD25R,1.600000X1.600000*%
%TD*%
%TA.AperFunction,SMDPad,CuDef*%
%ADD26R,1.600000X1.600000*%
%TD*%
%TA.AperFunction,ComponentPad*%
%ADD27O,1.900000X1.700000*%
%TD*%
%TA.AperFunction,ComponentPad*%
%ADD28C,1.700000*%
%TD*%
%TA.AperFunction,SMDPad,CuDef*%
%ADD29R,8.890000X0.650000*%
%TD*%
%TA.AperFunction,ComponentPad*%
%ADD30O,1.900000X1.400000*%
%TD*%
%TA.AperFunction,ComponentPad*%
%ADD31C,1.000000*%
%TD*%
%TA.AperFunction,ComponentPad*%
%ADD32O,1.399540X1.800000*%
%TD*%
%TA.AperFunction,SMDPad,CuDef*%
%ADD33R,0.698500X1.597660*%
%TD*%
%TA.AperFunction,SMDPad,CuDef*%
%ADD34R,1.198880X1.399540*%
%TD*%
%TA.AperFunction,SMDPad,CuDef*%
%ADD35R,1.597660X1.399540*%
%TD*%
%TA.AperFunction,SMDPad,CuDef*%
%ADD36R,1.198880X2.199640*%
%TD*%
%TA.AperFunction,ComponentPad*%
%ADD37O,1.700000X1.900000*%
%TD*%
%TA.AperFunction,SMDPad,CuDef*%
%ADD38R,2.500000X0.300000*%
%TD*%
%TA.AperFunction,SMDPad,CuDef*%
%ADD39R,0.300000X10.800000*%
%TD*%
%TA.AperFunction,SMDPad,CuDef*%
%ADD40R,0.300000X9.300000*%
%TD*%
%TA.AperFunction,SMDPad,CuDef*%
%ADD41R,0.300000X8.300000*%
%TD*%
%TA.AperFunction,SMDPad,CuDef*%
%ADD42R,0.300000X6.800000*%
%TD*%
%TA.AperFunction,SMDPad,CuDef*%
%ADD43R,0.300000X4.800000*%
%TD*%
%TA.AperFunction,SMDPad,CuDef*%
%ADD44R,0.300000X2.500000*%
%TD*%
%TA.AperFunction,SMDPad,CuDef*%
%ADD45R,4.800000X0.300000*%
%TD*%
%TA.AperFunction,SMDPad,CuDef*%
%ADD46R,6.800000X0.300000*%
%TD*%
%TA.AperFunction,SMDPad,CuDef*%
%ADD47R,8.300000X0.300000*%
%TD*%
%TA.AperFunction,SMDPad,CuDef*%
%ADD48R,9.300000X0.300000*%
%TD*%
%TA.AperFunction,SMDPad,CuDef*%
%ADD49R,10.800000X0.300000*%
%TD*%
%TA.AperFunction,SMDPad,CuDef*%
%ADD50RotRect,1.200000X1.400000X315.000000*%
%TD*%
%TA.AperFunction,SMDPad,CuDef*%
%ADD51RotRect,1.200000X1.400000X45.000000*%
%TD*%
%TA.AperFunction,SMDPad,CuDef*%
%ADD52R,0.500380X2.301240*%
%TD*%
%TA.AperFunction,SMDPad,CuDef*%
%ADD53R,1.998980X2.499360*%
%TD*%
%TA.AperFunction,SMDPad,CuDef*%
%ADD54R,2.500000X0.550000*%
%TD*%
%TA.AperFunction,ViaPad*%
%ADD55C,0.600000*%
%TD*%
%TA.AperFunction,ViaPad*%
%ADD56C,1.524000*%
%TD*%
%TA.AperFunction,Conductor*%
%ADD57C,0.203200*%
%TD*%
%TA.AperFunction,Conductor*%
%ADD58C,0.254000*%
%TD*%
%TA.AperFunction,Conductor*%
%ADD59C,0.508000*%
%TD*%
%TA.AperFunction,Conductor*%
%ADD60C,0.762000*%
%TD*%
%TA.AperFunction,Conductor*%
%ADD61C,0.355600*%
%TD*%
%TA.AperFunction,Conductor*%
%ADD62C,1.016000*%
%TD*%
%TA.AperFunction,Profile*%
%ADD63C,0.254000*%
%TD*%
G04 APERTURE END LIST*
D10*
%TO.P,,1*%
%TO.N,N/C*%
X129360000Y-50513220D03*
%TO.P,,2*%
X131900000Y-50513220D03*
%TO.P,,3*%
X131900000Y-53053220D03*
%TO.P,,4*%
X129360000Y-53053220D03*
%TO.P,,5*%
X126820000Y-53053220D03*
%TO.P,,6*%
X126820000Y-50513220D03*
%TO.P,,7*%
X126820000Y-47973220D03*
%TO.P,,8*%
X129360000Y-47973220D03*
%TO.P,,9*%
X131900000Y-47973220D03*
%TO.P,,10*%
X134440000Y-47973220D03*
%TO.P,,11*%
X134440000Y-50513220D03*
%TO.P,,12*%
X134440000Y-53053220D03*
%TO.P,,13*%
X134440000Y-55593220D03*
%TO.P,,14*%
X131900000Y-55593220D03*
%TO.P,,15*%
X129360000Y-55593220D03*
%TO.P,,16*%
X126820000Y-55593220D03*
%TD*%
D11*
%TO.P,,1*%
%TO.N,N/C*%
X216395000Y-65753220D03*
D12*
X217350000Y-62908220D03*
D11*
%TO.P,,2*%
X218300000Y-68293220D03*
D12*
X218300000Y-62908220D03*
D11*
%TO.P,,3*%
X220205000Y-65753220D03*
D12*
X219250000Y-62908220D03*
%TO.P,,4*%
X219250000Y-59708220D03*
D11*
X220205000Y-56863220D03*
D12*
%TO.P,,5*%
X218300000Y-59708220D03*
D11*
X218300000Y-54323220D03*
D12*
%TO.P,,6*%
X217350000Y-59708220D03*
D11*
X216395000Y-56863220D03*
%TD*%
D10*
%TO.P,,1*%
%TO.N,N/C*%
X207354740Y-80993220D03*
D13*
X210082700Y-82032080D03*
D14*
%TO.P,,2*%
X214034940Y-83533220D03*
D15*
X211685440Y-83533220D03*
D13*
X210082700Y-83533220D03*
D10*
X207354740Y-83533220D03*
D13*
%TO.P,,3*%
X210082700Y-85034360D03*
D10*
X207354740Y-86073220D03*
%TD*%
%TO.P,,1*%
%TO.N,N/C*%
X189574740Y-70833220D03*
%TO.P,,2*%
X192114740Y-70833220D03*
%TO.P,,3*%
X192114740Y-73373220D03*
%TO.P,,4*%
X189574740Y-73373220D03*
%TO.P,,5*%
X187034740Y-73373220D03*
%TO.P,,6*%
X187034740Y-70833220D03*
%TO.P,,7*%
X187034740Y-68293220D03*
%TO.P,,8*%
X189574740Y-68293220D03*
%TO.P,,9*%
X192114740Y-68293220D03*
%TO.P,,10*%
X194654740Y-68293220D03*
%TO.P,,11*%
X194654740Y-70833220D03*
%TO.P,,12*%
X194654740Y-73373220D03*
%TO.P,,13*%
X194654740Y-75913220D03*
%TO.P,,14*%
X192114740Y-75913220D03*
%TO.P,,15*%
X189574740Y-75913220D03*
%TO.P,,16*%
X187034740Y-75913220D03*
%TD*%
D16*
%TO.P,REF\u002A\u002A,1*%
%TO.N,N/C*%
X157500000Y-135400000D03*
D17*
%TO.P,REF\u002A\u002A,2*%
X161000000Y-135400000D03*
%TD*%
D10*
%TO.P,,1*%
%TO.N,N/C*%
X166714740Y-35273220D03*
%TO.P,,2*%
X169254740Y-35273220D03*
%TO.P,,3*%
X169254740Y-37813220D03*
%TO.P,,4*%
X166714740Y-37813220D03*
%TO.P,,5*%
X164174740Y-37813220D03*
%TO.P,,6*%
X164174740Y-35273220D03*
%TO.P,,7*%
X164174740Y-32733220D03*
%TO.P,,8*%
X166714740Y-32733220D03*
%TO.P,,9*%
X169254740Y-32733220D03*
%TO.P,,10*%
X171794740Y-32733220D03*
%TO.P,,11*%
X171794740Y-35273220D03*
%TO.P,,12*%
X171794740Y-37813220D03*
%TO.P,,13*%
X171794740Y-40353220D03*
%TO.P,,14*%
X169254740Y-40353220D03*
%TO.P,,15*%
X166714740Y-40353220D03*
%TO.P,,16*%
X164174740Y-40353220D03*
%TD*%
D18*
%TO.P,,1*%
%TO.N,N/C*%
X160540000Y-126660000D03*
D19*
X159565000Y-113380000D03*
D18*
%TO.P,,2*%
X160540000Y-124120000D03*
D19*
X160215000Y-113380000D03*
D18*
%TO.P,,3*%
X160540000Y-121580000D03*
D19*
X160865000Y-113380000D03*
D18*
%TO.P,,4*%
X160540000Y-119040000D03*
D19*
X161515000Y-113380000D03*
%TO.P,,5*%
X161515000Y-104380000D03*
D20*
X160540000Y-98720000D03*
D19*
%TO.P,,6*%
X160865000Y-104380000D03*
D20*
X160540000Y-96180000D03*
D19*
%TO.P,,7*%
X160215000Y-104380000D03*
D20*
X160540000Y-93640000D03*
D19*
%TO.P,,8*%
X159565000Y-104380000D03*
D20*
X160540000Y-91100000D03*
%TD*%
D18*
%TO.P,,1*%
%TO.N,N/C*%
X112280000Y-126660000D03*
D19*
X111305000Y-113380000D03*
D18*
%TO.P,,2*%
X112280000Y-124120000D03*
D19*
X111955000Y-113380000D03*
D18*
%TO.P,,3*%
X112280000Y-121580000D03*
D19*
X112605000Y-113380000D03*
D18*
%TO.P,,4*%
X112280000Y-119040000D03*
D19*
X113255000Y-113380000D03*
%TO.P,,5*%
X113255000Y-104380000D03*
D20*
X112280000Y-98720000D03*
D19*
%TO.P,,6*%
X112605000Y-104380000D03*
D20*
X112280000Y-96180000D03*
D19*
%TO.P,,7*%
X111955000Y-104380000D03*
D20*
X112280000Y-93640000D03*
D19*
%TO.P,,8*%
X111305000Y-104380000D03*
D20*
X112280000Y-91100000D03*
%TD*%
D21*
%TO.P,,1*%
%TO.N,N/C*%
X107210000Y-73373220D03*
D22*
X111330000Y-73913220D03*
X118330000Y-73913220D03*
D21*
X122450000Y-73373220D03*
%TO.P,,2*%
X107210000Y-78453220D03*
D22*
X111330000Y-77913220D03*
X118330000Y-77913220D03*
D21*
X122450000Y-78453220D03*
%TD*%
D23*
%TO.P,REF\u002A\u002A,1*%
%TO.N,N/C*%
X225827500Y-103200000D03*
D17*
%TO.P,REF\u002A\u002A,2*%
X225827500Y-99700000D03*
%TD*%
D11*
%TO.P,,1*%
%TO.N,N/C*%
X208624740Y-65753220D03*
D12*
X209579740Y-62908220D03*
D11*
%TO.P,,2*%
X210529740Y-68293220D03*
D12*
X210529740Y-62908220D03*
D11*
%TO.P,,3*%
X212434740Y-65753220D03*
D12*
X211479740Y-62908220D03*
%TO.P,,4*%
X211479740Y-59708220D03*
D11*
X212434740Y-56863220D03*
D12*
%TO.P,,5*%
X210529740Y-59708220D03*
D11*
X210529740Y-54323220D03*
D12*
%TO.P,,6*%
X209579740Y-59708220D03*
D11*
X208624740Y-56863220D03*
%TD*%
D24*
%TO.P,REF\u002A\u002A,1*%
%TO.N,N/C*%
X220050000Y-102640000D03*
X220050000Y-100100000D03*
%TD*%
D25*
%TO.P,,1*%
%TO.N,N/C*%
X107210000Y-60673220D03*
D26*
X111020000Y-60673220D03*
%TO.P,,2*%
X118640000Y-60673220D03*
D25*
X122450000Y-60673220D03*
D26*
%TO.P,,3*%
X113560000Y-60673220D03*
X116100000Y-60673220D03*
%TD*%
D18*
%TO.P,,1*%
%TO.N,N/C*%
X135140000Y-126660000D03*
D19*
X134165000Y-113380000D03*
D18*
%TO.P,,2*%
X135140000Y-124120000D03*
D19*
X134815000Y-113380000D03*
D18*
%TO.P,,3*%
X135140000Y-121580000D03*
D19*
X135465000Y-113380000D03*
D18*
%TO.P,,4*%
X135140000Y-119040000D03*
D19*
X136115000Y-113380000D03*
%TO.P,,5*%
X136115000Y-104380000D03*
D20*
X135140000Y-98720000D03*
D19*
%TO.P,,6*%
X135465000Y-104380000D03*
D20*
X135140000Y-96180000D03*
D19*
%TO.P,,7*%
X134815000Y-104380000D03*
D20*
X135140000Y-93640000D03*
D19*
%TO.P,,8*%
X134165000Y-104380000D03*
D20*
X135140000Y-91100000D03*
%TD*%
D10*
%TO.P,,1*%
%TO.N,N/C*%
X224530000Y-83620000D03*
X227070000Y-83620000D03*
D27*
%TO.P,,2*%
X219450000Y-83620000D03*
D28*
X221990000Y-83620000D03*
%TO.P,,3*%
X224530000Y-81080000D03*
D27*
X227070000Y-81080000D03*
%TO.P,,4*%
X219450000Y-81080000D03*
D28*
X221990000Y-81080000D03*
%TO.P,,5*%
X224530000Y-78540000D03*
D27*
X227070000Y-78540000D03*
%TO.P,,6*%
X219450000Y-78540000D03*
D28*
X221990000Y-78540000D03*
%TO.P,,7*%
X224530000Y-76000000D03*
D27*
X227070000Y-76000000D03*
%TO.P,,8*%
X219450000Y-76000000D03*
D28*
X221990000Y-76000000D03*
%TO.P,,9*%
X224530000Y-73460000D03*
D27*
X227070000Y-73460000D03*
%TO.P,,10*%
X219450000Y-73460000D03*
D28*
X221990000Y-73460000D03*
%TD*%
D23*
%TO.P,REF\u002A\u002A,1*%
%TO.N,N/C*%
X225816250Y-129600000D03*
D17*
%TO.P,REF\u002A\u002A,2*%
X225816250Y-126100000D03*
%TD*%
D10*
%TO.P,REF\u002A\u002A,1*%
%TO.N,N/C*%
X166140000Y-136300000D03*
D28*
%TO.P,REF\u002A\u002A,2*%
X166140000Y-133760000D03*
%TO.P,REF\u002A\u002A,3*%
X168680000Y-136300000D03*
%TO.P,REF\u002A\u002A,4*%
X168680000Y-133760000D03*
%TO.P,REF\u002A\u002A,5*%
X171220000Y-136300000D03*
%TO.P,REF\u002A\u002A,6*%
X171220000Y-133760000D03*
%TO.P,REF\u002A\u002A,7*%
X173760000Y-136300000D03*
%TO.P,REF\u002A\u002A,8*%
X173760000Y-133760000D03*
%TO.P,REF\u002A\u002A,9*%
X176300000Y-136300000D03*
%TO.P,REF\u002A\u002A,10*%
X176300000Y-133760000D03*
%TO.P,REF\u002A\u002A,11*%
X178840000Y-136300000D03*
%TO.P,REF\u002A\u002A,12*%
X178840000Y-133760000D03*
%TO.P,REF\u002A\u002A,13*%
X181380000Y-136300000D03*
%TO.P,REF\u002A\u002A,14*%
X181380000Y-133760000D03*
%TO.P,REF\u002A\u002A,15*%
X183920000Y-136300000D03*
%TO.P,REF\u002A\u002A,16*%
X183920000Y-133760000D03*
%TO.P,REF\u002A\u002A,17*%
X186460000Y-136300000D03*
%TO.P,REF\u002A\u002A,18*%
X186460000Y-133760000D03*
%TO.P,REF\u002A\u002A,19*%
X189000000Y-136300000D03*
%TO.P,REF\u002A\u002A,20*%
X189000000Y-133760000D03*
%TO.P,REF\u002A\u002A,21*%
X191540000Y-136300000D03*
%TO.P,REF\u002A\u002A,22*%
X191540000Y-133760000D03*
%TO.P,REF\u002A\u002A,23*%
X194080000Y-136300000D03*
%TO.P,REF\u002A\u002A,24*%
X194080000Y-133760000D03*
%TO.P,REF\u002A\u002A,25*%
X196620000Y-136300000D03*
%TO.P,REF\u002A\u002A,26*%
X196620000Y-133760000D03*
%TO.P,REF\u002A\u002A,27*%
X199160000Y-136300000D03*
%TO.P,REF\u002A\u002A,28*%
X199160000Y-133760000D03*
%TO.P,REF\u002A\u002A,29*%
X201700000Y-136300000D03*
%TO.P,REF\u002A\u002A,30*%
X201700000Y-133760000D03*
%TO.P,REF\u002A\u002A,31*%
X204240000Y-136300000D03*
%TO.P,REF\u002A\u002A,32*%
X204240000Y-133760000D03*
%TO.P,REF\u002A\u002A,33*%
X206780000Y-136300000D03*
%TO.P,REF\u002A\u002A,34*%
X206780000Y-133760000D03*
%TO.P,REF\u002A\u002A,35*%
X209320000Y-136300000D03*
%TO.P,REF\u002A\u002A,36*%
X209320000Y-133760000D03*
%TO.P,REF\u002A\u002A,37*%
X211860000Y-136300000D03*
%TO.P,REF\u002A\u002A,38*%
X211860000Y-133760000D03*
%TO.P,REF\u002A\u002A,39*%
X214400000Y-136300000D03*
%TO.P,REF\u002A\u002A,40*%
X214400000Y-133760000D03*
%TD*%
D10*
%TO.P,,1*%
%TO.N,N/C*%
X168834740Y-124120000D03*
%TO.P,,2*%
X171374740Y-124120000D03*
%TO.P,,3*%
X171374740Y-126660000D03*
%TO.P,,4*%
X168834740Y-126660000D03*
%TO.P,,5*%
X166294740Y-126660000D03*
%TO.P,,6*%
X166294740Y-124120000D03*
%TO.P,,7*%
X166294740Y-121580000D03*
%TO.P,,8*%
X168834740Y-121580000D03*
%TO.P,,9*%
X171374740Y-121580000D03*
%TO.P,,10*%
X173914740Y-121580000D03*
%TO.P,,11*%
X173914740Y-124120000D03*
%TO.P,,12*%
X173914740Y-126660000D03*
%TO.P,,13*%
X173914740Y-129200000D03*
%TO.P,,14*%
X171374740Y-129200000D03*
%TO.P,,15*%
X168834740Y-129200000D03*
%TO.P,,16*%
X166294740Y-129200000D03*
%TD*%
D16*
%TO.P,REF\u002A\u002A,1*%
%TO.N,N/C*%
X124100000Y-135400000D03*
D17*
%TO.P,REF\u002A\u002A,2*%
X127600000Y-135400000D03*
%TO.P,REF\u002A\u002A,3*%
X131100000Y-135400000D03*
%TO.P,REF\u002A\u002A,4*%
X134600000Y-135400000D03*
%TD*%
D18*
%TO.P,,1*%
%TO.N,N/C*%
X127520000Y-126660000D03*
D19*
X126545000Y-113380000D03*
D18*
%TO.P,,2*%
X127520000Y-124120000D03*
D19*
X127195000Y-113380000D03*
D18*
%TO.P,,3*%
X127520000Y-121580000D03*
D19*
X127845000Y-113380000D03*
D18*
%TO.P,,4*%
X127520000Y-119040000D03*
D19*
X128495000Y-113380000D03*
%TO.P,,5*%
X128495000Y-104380000D03*
D20*
X127520000Y-98720000D03*
D19*
%TO.P,,6*%
X127845000Y-104380000D03*
D20*
X127520000Y-96180000D03*
D19*
%TO.P,,7*%
X127195000Y-104380000D03*
D20*
X127520000Y-93640000D03*
D19*
%TO.P,,8*%
X126545000Y-104380000D03*
D20*
X127520000Y-91100000D03*
%TD*%
D10*
%TO.P,,1*%
%TO.N,N/C*%
X146394740Y-35273220D03*
%TO.P,,2*%
X148934740Y-35273220D03*
%TO.P,,3*%
X148934740Y-37813220D03*
%TO.P,,4*%
X146394740Y-37813220D03*
%TO.P,,5*%
X143854740Y-37813220D03*
%TO.P,,6*%
X143854740Y-35273220D03*
%TO.P,,7*%
X143854740Y-32733220D03*
%TO.P,,8*%
X146394740Y-32733220D03*
%TO.P,,9*%
X148934740Y-32733220D03*
%TO.P,,10*%
X151474740Y-32733220D03*
%TO.P,,11*%
X151474740Y-35273220D03*
%TO.P,,12*%
X151474740Y-37813220D03*
%TO.P,,13*%
X151474740Y-40353220D03*
%TO.P,,14*%
X148934740Y-40353220D03*
%TO.P,,15*%
X146394740Y-40353220D03*
%TO.P,,16*%
X143854740Y-40353220D03*
%TD*%
%TO.P,,1*%
%TO.N,N/C*%
X199734740Y-80993220D03*
%TO.P,,2*%
X202274740Y-80993220D03*
%TO.P,,3*%
X202274740Y-83533220D03*
%TO.P,,4*%
X199734740Y-83533220D03*
%TO.P,,5*%
X197194740Y-83533220D03*
%TO.P,,6*%
X197194740Y-80993220D03*
%TO.P,,7*%
X197194740Y-78453220D03*
%TO.P,,8*%
X199734740Y-78453220D03*
%TO.P,,9*%
X202274740Y-78453220D03*
%TO.P,,10*%
X204814740Y-78453220D03*
%TO.P,,11*%
X204814740Y-80993220D03*
%TO.P,,12*%
X204814740Y-83533220D03*
%TO.P,,13*%
X204814740Y-86073220D03*
%TO.P,,14*%
X202274740Y-86073220D03*
%TO.P,,15*%
X199734740Y-86073220D03*
%TO.P,,16*%
X197194740Y-86073220D03*
%TD*%
D21*
%TO.P,,1*%
%TO.N,N/C*%
X107210000Y-80993220D03*
D22*
X111330000Y-81533220D03*
X118330000Y-81533220D03*
D21*
X122450000Y-80993220D03*
%TO.P,,2*%
X107210000Y-86073220D03*
D22*
X111330000Y-85533220D03*
X118330000Y-85533220D03*
D21*
X122450000Y-86073220D03*
%TD*%
D24*
%TO.P,REF\u002A\u002A,1*%
%TO.N,N/C*%
X131660000Y-129622500D03*
X134200000Y-129622500D03*
%TD*%
D10*
%TO.P,REF\u002A\u002A,1*%
%TO.N,N/C*%
X102034740Y-40653220D03*
D28*
%TO.P,REF\u002A\u002A,2*%
X102034740Y-43193220D03*
%TO.P,REF\u002A\u002A,3*%
X102034740Y-45733220D03*
%TO.P,REF\u002A\u002A,4*%
X102034740Y-48273220D03*
%TO.P,REF\u002A\u002A,5*%
X102034740Y-50813220D03*
%TO.P,REF\u002A\u002A,6*%
X102034740Y-53353220D03*
%TO.P,REF\u002A\u002A,7*%
X102034740Y-55893220D03*
%TO.P,REF\u002A\u002A,8*%
X102034740Y-58433220D03*
%TO.P,REF\u002A\u002A,9*%
X102034740Y-60973220D03*
%TO.P,REF\u002A\u002A,10*%
X102034740Y-63513220D03*
%TO.P,REF\u002A\u002A,11*%
X102034740Y-66053220D03*
%TO.P,REF\u002A\u002A,12*%
X102034740Y-68593220D03*
%TO.P,REF\u002A\u002A,13*%
X102034740Y-71133220D03*
%TO.P,REF\u002A\u002A,14*%
X102034740Y-73673220D03*
%TO.P,REF\u002A\u002A,15*%
X102034740Y-76213220D03*
%TO.P,REF\u002A\u002A,16*%
X102034740Y-78753220D03*
%TO.P,REF\u002A\u002A,17*%
X102034740Y-81293220D03*
%TO.P,REF\u002A\u002A,18*%
X102034740Y-83833220D03*
%TO.P,REF\u002A\u002A,19*%
X102034740Y-86373220D03*
%TO.P,REF\u002A\u002A,20*%
X102034740Y-88913220D03*
%TO.P,REF\u002A\u002A,21*%
X102034740Y-91453220D03*
%TO.P,REF\u002A\u002A,22*%
X102034740Y-93993220D03*
%TO.P,REF\u002A\u002A,23*%
X102034740Y-96533220D03*
%TO.P,REF\u002A\u002A,24*%
X102034740Y-99073220D03*
%TO.P,REF\u002A\u002A,25*%
X102034740Y-101613220D03*
%TO.P,REF\u002A\u002A,26*%
X102034740Y-104153220D03*
%TO.P,REF\u002A\u002A,27*%
X102034740Y-106693220D03*
%TO.P,REF\u002A\u002A,28*%
X102034740Y-109233220D03*
%TO.P,REF\u002A\u002A,29*%
X102034740Y-111773220D03*
%TO.P,REF\u002A\u002A,30*%
X102034740Y-114313220D03*
%TO.P,REF\u002A\u002A,31*%
X102034740Y-116853220D03*
%TO.P,REF\u002A\u002A,32*%
X102034740Y-119393220D03*
%TO.P,REF\u002A\u002A,33*%
X102034740Y-121933220D03*
%TO.P,REF\u002A\u002A,34*%
X102034740Y-124473220D03*
%TO.P,REF\u002A\u002A,35*%
X102034740Y-127013220D03*
%TO.P,REF\u002A\u002A,36*%
X102034740Y-129553220D03*
%TD*%
D10*
%TO.P,,1*%
%TO.N,N/C*%
X189574740Y-60673220D03*
%TO.P,,2*%
X192114740Y-60673220D03*
%TO.P,,3*%
X192114740Y-63213220D03*
%TO.P,,4*%
X189574740Y-63213220D03*
%TO.P,,5*%
X187034740Y-63213220D03*
%TO.P,,6*%
X187034740Y-60673220D03*
%TO.P,,7*%
X187034740Y-58133220D03*
%TO.P,,8*%
X189574740Y-58133220D03*
%TO.P,,9*%
X192114740Y-58133220D03*
%TO.P,,10*%
X194654740Y-58133220D03*
%TO.P,,11*%
X194654740Y-60673220D03*
%TO.P,,12*%
X194654740Y-63213220D03*
%TO.P,,13*%
X194654740Y-65753220D03*
%TO.P,,14*%
X192114740Y-65753220D03*
%TO.P,,15*%
X189574740Y-65753220D03*
%TO.P,,16*%
X187034740Y-65753220D03*
%TD*%
D25*
%TO.P,,1*%
%TO.N,N/C*%
X176454740Y-126660000D03*
D29*
X185344740Y-126025000D03*
D30*
%TO.P,,2*%
X178994740Y-126660000D03*
D29*
X185344740Y-127295000D03*
%TO.P,,3*%
X198044740Y-127295000D03*
D30*
X204394740Y-126660000D03*
D29*
%TO.P,,4*%
X198044740Y-126025000D03*
D25*
X206934740Y-126660000D03*
%TD*%
D18*
%TO.P,,1*%
%TO.N,N/C*%
X140220000Y-126660000D03*
D19*
X139245000Y-113380000D03*
D18*
%TO.P,,2*%
X140220000Y-124120000D03*
D19*
X139895000Y-113380000D03*
D18*
%TO.P,,3*%
X140220000Y-121580000D03*
D19*
X140545000Y-113380000D03*
D18*
%TO.P,,4*%
X140220000Y-119040000D03*
D19*
X141195000Y-113380000D03*
%TO.P,,5*%
X141195000Y-104380000D03*
D20*
X140220000Y-98720000D03*
D19*
%TO.P,,6*%
X140545000Y-104380000D03*
D20*
X140220000Y-96180000D03*
D19*
%TO.P,,7*%
X139895000Y-104380000D03*
D20*
X140220000Y-93640000D03*
D19*
%TO.P,,8*%
X139245000Y-104380000D03*
D20*
X140220000Y-91100000D03*
%TD*%
D10*
%TO.P,,1*%
%TO.N,N/C*%
X129360000Y-80993220D03*
%TO.P,,2*%
X131900000Y-80993220D03*
%TO.P,,3*%
X131900000Y-83533220D03*
%TO.P,,4*%
X129360000Y-83533220D03*
%TO.P,,5*%
X126820000Y-83533220D03*
%TO.P,,6*%
X126820000Y-80993220D03*
%TO.P,,7*%
X126820000Y-78453220D03*
%TO.P,,8*%
X129360000Y-78453220D03*
%TO.P,,9*%
X131900000Y-78453220D03*
%TO.P,,10*%
X134440000Y-78453220D03*
%TO.P,,11*%
X134440000Y-80993220D03*
%TO.P,,12*%
X134440000Y-83533220D03*
%TO.P,,13*%
X134440000Y-86073220D03*
%TO.P,,14*%
X131900000Y-86073220D03*
%TO.P,,15*%
X129360000Y-86073220D03*
%TO.P,,16*%
X126820000Y-86073220D03*
%TD*%
D25*
%TO.P,,1*%
%TO.N,N/C*%
X176454740Y-129200000D03*
D29*
X185344740Y-128565000D03*
D30*
%TO.P,,2*%
X178994740Y-129200000D03*
D29*
X185344740Y-129835000D03*
%TO.P,,3*%
X198044740Y-129835000D03*
D30*
X204394740Y-129200000D03*
D29*
%TO.P,,4*%
X198044740Y-128565000D03*
D25*
X206934740Y-129200000D03*
%TD*%
D31*
%TO.P,,0*%
%TO.N,N/C*%
X112935200Y-31854440D03*
X120935200Y-31854440D03*
D32*
%TO.P,,1*%
X112175200Y-45264440D03*
D33*
X113737300Y-42478060D03*
D32*
%TO.P,,2*%
X113445200Y-47804440D03*
D33*
X114837120Y-42478060D03*
D32*
%TO.P,,3*%
X114715200Y-45264440D03*
D33*
X115936940Y-42478060D03*
D32*
%TO.P,,4*%
X115985200Y-47804440D03*
D33*
X117034220Y-42478060D03*
D32*
%TO.P,,5*%
X117255200Y-45264440D03*
D33*
X118134040Y-42478060D03*
D32*
%TO.P,,6*%
X118525200Y-47804440D03*
D33*
X119233860Y-42478060D03*
D32*
%TO.P,,7*%
X119795200Y-45264440D03*
D33*
X120333680Y-42478060D03*
D32*
%TO.P,,8*%
X121065200Y-47804440D03*
D33*
X121433500Y-42478060D03*
D32*
%TO.P,,9*%
X122335200Y-45264440D03*
D33*
X122533320Y-42478060D03*
D32*
%TO.P,,10*%
X123605200Y-47804440D03*
D34*
X123734740Y-41853220D03*
D35*
%TO.P,,11*%
X109137360Y-41853220D03*
D36*
%TO.P,,12*%
X123734740Y-32254560D03*
%TO.P,,13*%
X108235660Y-32254560D03*
%TD*%
D25*
%TO.P,,1*%
%TO.N,N/C*%
X187034740Y-45433220D03*
D26*
X190844740Y-45433220D03*
%TO.P,,2*%
X198464740Y-45433220D03*
D25*
X202274740Y-45433220D03*
D26*
%TO.P,,3*%
X193384740Y-45433220D03*
X195924740Y-45433220D03*
%TD*%
D25*
%TO.P,,1*%
%TO.N,N/C*%
X107210000Y-55593220D03*
D26*
X111020000Y-55593220D03*
%TO.P,,2*%
X118640000Y-55593220D03*
D25*
X122450000Y-55593220D03*
D26*
%TO.P,,3*%
X113560000Y-55593220D03*
X116100000Y-55593220D03*
%TD*%
D10*
%TO.P,,1*%
%TO.N,N/C*%
X156554740Y-35273220D03*
%TO.P,,2*%
X159094740Y-35273220D03*
%TO.P,,3*%
X159094740Y-37813220D03*
%TO.P,,4*%
X156554740Y-37813220D03*
%TO.P,,5*%
X154014740Y-37813220D03*
%TO.P,,6*%
X154014740Y-35273220D03*
%TO.P,,7*%
X154014740Y-32733220D03*
%TO.P,,8*%
X156554740Y-32733220D03*
%TO.P,,9*%
X159094740Y-32733220D03*
%TO.P,,10*%
X161634740Y-32733220D03*
%TO.P,,11*%
X161634740Y-35273220D03*
%TO.P,,12*%
X161634740Y-37813220D03*
%TO.P,,13*%
X161634740Y-40353220D03*
%TO.P,,14*%
X159094740Y-40353220D03*
%TO.P,,15*%
X156554740Y-40353220D03*
%TO.P,,16*%
X154014740Y-40353220D03*
%TD*%
%TO.P,,1*%
%TO.N,N/C*%
X189574740Y-80993220D03*
%TO.P,,2*%
X192114740Y-80993220D03*
%TO.P,,3*%
X192114740Y-83533220D03*
%TO.P,,4*%
X189574740Y-83533220D03*
%TO.P,,5*%
X187034740Y-83533220D03*
%TO.P,,6*%
X187034740Y-80993220D03*
%TO.P,,7*%
X187034740Y-78453220D03*
%TO.P,,8*%
X189574740Y-78453220D03*
%TO.P,,9*%
X192114740Y-78453220D03*
%TO.P,,10*%
X194654740Y-78453220D03*
%TO.P,,11*%
X194654740Y-80993220D03*
%TO.P,,12*%
X194654740Y-83533220D03*
%TO.P,,13*%
X194654740Y-86073220D03*
%TO.P,,14*%
X192114740Y-86073220D03*
%TO.P,,15*%
X189574740Y-86073220D03*
%TO.P,,16*%
X187034740Y-86073220D03*
%TD*%
D23*
%TO.P,REF\u002A\u002A,1*%
%TO.N,N/C*%
X225827500Y-112000000D03*
D17*
%TO.P,REF\u002A\u002A,2*%
X225827500Y-108500000D03*
%TD*%
D10*
%TO.P,,1*%
%TO.N,N/C*%
X189420000Y-38095000D03*
X189420000Y-41905000D03*
D37*
%TO.P,,2*%
X189420000Y-31745000D03*
D28*
X189420000Y-35555000D03*
%TO.P,,3*%
X191960000Y-38095000D03*
D37*
X191960000Y-41905000D03*
%TO.P,,4*%
X191960000Y-31745000D03*
D28*
X191960000Y-35555000D03*
%TO.P,,5*%
X194500000Y-38095000D03*
D37*
X194500000Y-41905000D03*
%TO.P,,6*%
X194500000Y-31745000D03*
D28*
X194500000Y-35555000D03*
%TO.P,,7*%
X197040000Y-38095000D03*
D37*
X197040000Y-41905000D03*
%TO.P,,8*%
X197040000Y-31745000D03*
D28*
X197040000Y-35555000D03*
%TO.P,,9*%
X199580000Y-38095000D03*
D37*
X199580000Y-41905000D03*
%TO.P,,10*%
X199580000Y-31745000D03*
D28*
X199580000Y-35555000D03*
%TD*%
D25*
%TO.P,,1*%
%TO.N,N/C*%
X176454740Y-91100000D03*
D29*
X185344740Y-90465000D03*
D30*
%TO.P,,2*%
X178994740Y-91100000D03*
D29*
X185344740Y-91735000D03*
%TO.P,,3*%
X198044740Y-91735000D03*
D30*
X204394740Y-91100000D03*
D29*
%TO.P,,4*%
X198044740Y-90465000D03*
D25*
X206934740Y-91100000D03*
%TD*%
D10*
%TO.P,,1*%
%TO.N,N/C*%
X222594740Y-45433220D03*
%TO.P,,2*%
X225134740Y-45433220D03*
%TO.P,,3*%
X225134740Y-47973220D03*
%TO.P,,4*%
X222594740Y-47973220D03*
%TO.P,,5*%
X220054740Y-47973220D03*
%TO.P,,6*%
X220054740Y-45433220D03*
%TO.P,,7*%
X220054740Y-42893220D03*
%TO.P,,8*%
X222594740Y-42893220D03*
%TO.P,,9*%
X225134740Y-42893220D03*
%TO.P,,10*%
X227674740Y-42893220D03*
%TO.P,,11*%
X227674740Y-45433220D03*
%TO.P,,12*%
X227674740Y-47973220D03*
%TO.P,,13*%
X227674740Y-50513220D03*
%TO.P,,14*%
X225134740Y-50513220D03*
%TO.P,,15*%
X222594740Y-50513220D03*
%TO.P,,16*%
X220054740Y-50513220D03*
%TD*%
%TO.P,,1*%
%TO.N,N/C*%
X199734740Y-60673220D03*
%TO.P,,2*%
X202274740Y-60673220D03*
%TO.P,,3*%
X202274740Y-63213220D03*
%TO.P,,4*%
X199734740Y-63213220D03*
%TO.P,,5*%
X197194740Y-63213220D03*
%TO.P,,6*%
X197194740Y-60673220D03*
%TO.P,,7*%
X197194740Y-58133220D03*
%TO.P,,8*%
X199734740Y-58133220D03*
%TO.P,,9*%
X202274740Y-58133220D03*
%TO.P,,10*%
X204814740Y-58133220D03*
%TO.P,,11*%
X204814740Y-60673220D03*
%TO.P,,12*%
X204814740Y-63213220D03*
%TO.P,,13*%
X204814740Y-65753220D03*
%TO.P,,14*%
X202274740Y-65753220D03*
%TO.P,,15*%
X199734740Y-65753220D03*
%TO.P,,16*%
X197194740Y-65753220D03*
%TD*%
D25*
%TO.P,,1*%
%TO.N,N/C*%
X176454740Y-101260000D03*
D29*
X185344740Y-100625000D03*
D30*
%TO.P,,2*%
X178994740Y-101260000D03*
D29*
X185344740Y-101895000D03*
%TO.P,,3*%
X198044740Y-101895000D03*
D30*
X204394740Y-101260000D03*
D29*
%TO.P,,4*%
X198044740Y-100625000D03*
D25*
X206934740Y-101260000D03*
%TD*%
D16*
%TO.P,REF\u002A\u002A,1*%
%TO.N,N/C*%
X139900000Y-135400000D03*
D17*
%TO.P,REF\u002A\u002A,2*%
X143400000Y-135400000D03*
%TD*%
D18*
%TO.P,,1*%
%TO.N,N/C*%
X142760000Y-126660000D03*
D19*
X141785000Y-113380000D03*
D18*
%TO.P,,2*%
X142760000Y-124120000D03*
D19*
X142435000Y-113380000D03*
D18*
%TO.P,,3*%
X142760000Y-121580000D03*
D19*
X143085000Y-113380000D03*
D18*
%TO.P,,4*%
X142760000Y-119040000D03*
D19*
X143735000Y-113380000D03*
%TO.P,,5*%
X143735000Y-104380000D03*
D20*
X142760000Y-98720000D03*
D19*
%TO.P,,6*%
X143085000Y-104380000D03*
D20*
X142760000Y-96180000D03*
D19*
%TO.P,,7*%
X142435000Y-104380000D03*
D20*
X142760000Y-93640000D03*
D19*
%TO.P,,8*%
X141785000Y-104380000D03*
D20*
X142760000Y-91100000D03*
%TD*%
D25*
%TO.P,,1*%
%TO.N,N/C*%
X176454740Y-124120000D03*
D29*
X185344740Y-123485000D03*
D30*
%TO.P,,2*%
X178994740Y-124120000D03*
D29*
X185344740Y-124755000D03*
%TO.P,,3*%
X198044740Y-124755000D03*
D30*
X204394740Y-124120000D03*
D29*
%TO.P,,4*%
X198044740Y-123485000D03*
D25*
X206934740Y-124120000D03*
%TD*%
D10*
%TO.P,,1*%
%TO.N,N/C*%
X168834740Y-103800000D03*
%TO.P,,2*%
X171374740Y-103800000D03*
%TO.P,,3*%
X171374740Y-106340000D03*
%TO.P,,4*%
X168834740Y-106340000D03*
%TO.P,,5*%
X166294740Y-106340000D03*
%TO.P,,6*%
X166294740Y-103800000D03*
%TO.P,,7*%
X166294740Y-101260000D03*
%TO.P,,8*%
X168834740Y-101260000D03*
%TO.P,,9*%
X171374740Y-101260000D03*
%TO.P,,10*%
X173914740Y-101260000D03*
%TO.P,,11*%
X173914740Y-103800000D03*
%TO.P,,12*%
X173914740Y-106340000D03*
%TO.P,,13*%
X173914740Y-108880000D03*
%TO.P,,14*%
X171374740Y-108880000D03*
%TO.P,,15*%
X168834740Y-108880000D03*
%TO.P,,16*%
X166294740Y-108880000D03*
%TD*%
D25*
%TO.P,,1*%
%TO.N,N/C*%
X176454740Y-96180000D03*
D29*
X185344740Y-95545000D03*
D30*
%TO.P,,2*%
X178994740Y-96180000D03*
D29*
X185344740Y-96815000D03*
%TO.P,,3*%
X198044740Y-96815000D03*
D30*
X204394740Y-96180000D03*
D29*
%TO.P,,4*%
X198044740Y-95545000D03*
D25*
X206934740Y-96180000D03*
%TD*%
D10*
%TO.P,,1*%
%TO.N,N/C*%
X211820000Y-103800000D03*
%TO.P,,2*%
X214360000Y-103800000D03*
%TO.P,,3*%
X214360000Y-106340000D03*
%TO.P,,4*%
X211820000Y-106340000D03*
%TO.P,,5*%
X209280000Y-106340000D03*
%TO.P,,6*%
X209280000Y-103800000D03*
%TO.P,,7*%
X209280000Y-101260000D03*
%TO.P,,8*%
X211820000Y-101260000D03*
%TO.P,,9*%
X214360000Y-101260000D03*
%TO.P,,10*%
X216900000Y-101260000D03*
%TO.P,,11*%
X216900000Y-103800000D03*
%TO.P,,12*%
X216900000Y-106340000D03*
%TO.P,,13*%
X216900000Y-108880000D03*
%TO.P,,14*%
X214360000Y-108880000D03*
%TO.P,,15*%
X211820000Y-108880000D03*
%TO.P,,16*%
X209280000Y-108880000D03*
%TD*%
D25*
%TO.P,,1*%
%TO.N,N/C*%
X107210000Y-58133220D03*
D26*
X111020000Y-58133220D03*
%TO.P,,2*%
X118640000Y-58133220D03*
D25*
X122450000Y-58133220D03*
D26*
%TO.P,,3*%
X113560000Y-58133220D03*
X116100000Y-58133220D03*
%TD*%
D18*
%TO.P,,1*%
%TO.N,N/C*%
X152920000Y-126660000D03*
D19*
X151945000Y-113380000D03*
D18*
%TO.P,,2*%
X152920000Y-124120000D03*
D19*
X152595000Y-113380000D03*
D18*
%TO.P,,3*%
X152920000Y-121580000D03*
D19*
X153245000Y-113380000D03*
D18*
%TO.P,,4*%
X152920000Y-119040000D03*
D19*
X153895000Y-113380000D03*
%TO.P,,5*%
X153895000Y-104380000D03*
D20*
X152920000Y-98720000D03*
D19*
%TO.P,,6*%
X153245000Y-104380000D03*
D20*
X152920000Y-96180000D03*
D19*
%TO.P,,7*%
X152595000Y-104380000D03*
D20*
X152920000Y-93640000D03*
D19*
%TO.P,,8*%
X151945000Y-104380000D03*
D20*
X152920000Y-91100000D03*
%TD*%
D10*
%TO.P,,1*%
%TO.N,N/C*%
X199734740Y-70833220D03*
%TO.P,,2*%
X202274740Y-70833220D03*
%TO.P,,3*%
X202274740Y-73373220D03*
%TO.P,,4*%
X199734740Y-73373220D03*
%TO.P,,5*%
X197194740Y-73373220D03*
%TO.P,,6*%
X197194740Y-70833220D03*
%TO.P,,7*%
X197194740Y-68293220D03*
%TO.P,,8*%
X199734740Y-68293220D03*
%TO.P,,9*%
X202274740Y-68293220D03*
%TO.P,,10*%
X204814740Y-68293220D03*
%TO.P,,11*%
X204814740Y-70833220D03*
%TO.P,,12*%
X204814740Y-73373220D03*
%TO.P,,13*%
X204814740Y-75913220D03*
%TO.P,,14*%
X202274740Y-75913220D03*
%TO.P,,15*%
X199734740Y-75913220D03*
%TO.P,,16*%
X197194740Y-75913220D03*
%TD*%
D18*
%TO.P,,1*%
%TO.N,N/C*%
X147840000Y-126660000D03*
D19*
X146865000Y-113380000D03*
D18*
%TO.P,,2*%
X147840000Y-124120000D03*
D19*
X147515000Y-113380000D03*
D18*
%TO.P,,3*%
X147840000Y-121580000D03*
D19*
X148165000Y-113380000D03*
D18*
%TO.P,,4*%
X147840000Y-119040000D03*
D19*
X148815000Y-113380000D03*
%TO.P,,5*%
X148815000Y-104380000D03*
D20*
X147840000Y-98720000D03*
D19*
%TO.P,,6*%
X148165000Y-104380000D03*
D20*
X147840000Y-96180000D03*
D19*
%TO.P,,7*%
X147515000Y-104380000D03*
D20*
X147840000Y-93640000D03*
D19*
%TO.P,,8*%
X146865000Y-104380000D03*
D20*
X147840000Y-91100000D03*
%TD*%
D24*
%TO.P,REF\u002A\u002A,1*%
%TO.N,N/C*%
X220038750Y-120240000D03*
X220038750Y-117700000D03*
%TD*%
D25*
%TO.P,,1*%
%TO.N,N/C*%
X176454740Y-116500000D03*
D29*
X185344740Y-115865000D03*
D30*
%TO.P,,2*%
X178994740Y-116500000D03*
D29*
X185344740Y-117135000D03*
%TO.P,,3*%
X198044740Y-117135000D03*
D30*
X204394740Y-116500000D03*
D29*
%TO.P,,4*%
X198044740Y-115865000D03*
D25*
X206934740Y-116500000D03*
%TD*%
D10*
%TO.P,,1*%
%TO.N,N/C*%
X129360000Y-60673220D03*
%TO.P,,2*%
X131900000Y-60673220D03*
%TO.P,,3*%
X131900000Y-63213220D03*
%TO.P,,4*%
X129360000Y-63213220D03*
%TO.P,,5*%
X126820000Y-63213220D03*
%TO.P,,6*%
X126820000Y-60673220D03*
%TO.P,,7*%
X126820000Y-58133220D03*
%TO.P,,8*%
X129360000Y-58133220D03*
%TO.P,,9*%
X131900000Y-58133220D03*
%TO.P,,10*%
X134440000Y-58133220D03*
%TO.P,,11*%
X134440000Y-60673220D03*
%TO.P,,12*%
X134440000Y-63213220D03*
%TO.P,,13*%
X134440000Y-65753220D03*
%TO.P,,14*%
X131900000Y-65753220D03*
%TO.P,,15*%
X129360000Y-65753220D03*
%TO.P,,16*%
X126820000Y-65753220D03*
%TD*%
D18*
%TO.P,,1*%
%TO.N,N/C*%
X137680000Y-126660000D03*
D19*
X136705000Y-113380000D03*
D18*
%TO.P,,2*%
X137680000Y-124120000D03*
D19*
X137355000Y-113380000D03*
D18*
%TO.P,,3*%
X137680000Y-121580000D03*
D19*
X138005000Y-113380000D03*
D18*
%TO.P,,4*%
X137680000Y-119040000D03*
D19*
X138655000Y-113380000D03*
%TO.P,,5*%
X138655000Y-104380000D03*
D20*
X137680000Y-98720000D03*
D19*
%TO.P,,6*%
X138005000Y-104380000D03*
D20*
X137680000Y-96180000D03*
D19*
%TO.P,,7*%
X137355000Y-104380000D03*
D20*
X137680000Y-93640000D03*
D19*
%TO.P,,8*%
X136705000Y-104380000D03*
D20*
X137680000Y-91100000D03*
%TD*%
D25*
%TO.P,,1*%
%TO.N,N/C*%
X107210000Y-63213220D03*
D26*
X111020000Y-63213220D03*
%TO.P,,2*%
X118640000Y-63213220D03*
D25*
X122450000Y-63213220D03*
D26*
%TO.P,,3*%
X113560000Y-63213220D03*
X116100000Y-63213220D03*
%TD*%
D25*
%TO.P,,1*%
%TO.N,N/C*%
X176454740Y-113960000D03*
D29*
X185344740Y-113325000D03*
D30*
%TO.P,,2*%
X178994740Y-113960000D03*
D29*
X185344740Y-114595000D03*
%TO.P,,3*%
X198044740Y-114595000D03*
D30*
X204394740Y-113960000D03*
D29*
%TO.P,,4*%
X198044740Y-113325000D03*
D25*
X206934740Y-113960000D03*
%TD*%
D18*
%TO.P,,1*%
%TO.N,N/C*%
X119900000Y-126660000D03*
D19*
X118925000Y-113380000D03*
D18*
%TO.P,,2*%
X119900000Y-124120000D03*
D19*
X119575000Y-113380000D03*
D18*
%TO.P,,3*%
X119900000Y-121580000D03*
D19*
X120225000Y-113380000D03*
D18*
%TO.P,,4*%
X119900000Y-119040000D03*
D19*
X120875000Y-113380000D03*
%TO.P,,5*%
X120875000Y-104380000D03*
D20*
X119900000Y-98720000D03*
D19*
%TO.P,,6*%
X120225000Y-104380000D03*
D20*
X119900000Y-96180000D03*
D19*
%TO.P,,7*%
X119575000Y-104380000D03*
D20*
X119900000Y-93640000D03*
D19*
%TO.P,,8*%
X118925000Y-104380000D03*
D20*
X119900000Y-91100000D03*
%TD*%
D25*
%TO.P,,1*%
%TO.N,N/C*%
X176454740Y-103800000D03*
D29*
X185344740Y-103165000D03*
D30*
%TO.P,,2*%
X178994740Y-103800000D03*
D29*
X185344740Y-104435000D03*
%TO.P,,3*%
X198044740Y-104435000D03*
D30*
X204394740Y-103800000D03*
D29*
%TO.P,,4*%
X198044740Y-103165000D03*
D25*
X206934740Y-103800000D03*
%TD*%
D11*
%TO.P,,1*%
%TO.N,N/C*%
X223995000Y-65753220D03*
D12*
X224950000Y-62908220D03*
D11*
%TO.P,,2*%
X225900000Y-68293220D03*
D12*
X225900000Y-62908220D03*
D11*
%TO.P,,3*%
X227805000Y-65753220D03*
D12*
X226850000Y-62908220D03*
%TO.P,,4*%
X226850000Y-59708220D03*
D11*
X227805000Y-56863220D03*
D12*
%TO.P,,5*%
X225900000Y-59708220D03*
D11*
X225900000Y-54323220D03*
D12*
%TO.P,,6*%
X224950000Y-59708220D03*
D11*
X223995000Y-56863220D03*
%TD*%
D28*
%TO.P,,1*%
%TO.N,N/C*%
X141314740Y-50513220D03*
D38*
X153934740Y-59753220D03*
D28*
%TO.P,,2*%
X143854740Y-51783220D03*
D38*
X153934740Y-60253220D03*
D28*
%TO.P,,3*%
X141314740Y-53053220D03*
D38*
X153934740Y-60753220D03*
D28*
%TO.P,,4*%
X143854740Y-54323220D03*
D38*
X153934740Y-61253220D03*
D28*
%TO.P,,5*%
X141314740Y-55593220D03*
D38*
X153934740Y-61753220D03*
D28*
%TO.P,,6*%
X143854740Y-56863220D03*
D38*
X153934740Y-62253220D03*
D28*
%TO.P,,7*%
X141314740Y-58133220D03*
D38*
X153934740Y-62753220D03*
D28*
%TO.P,,8*%
X143854740Y-59403220D03*
D38*
X153934740Y-63253220D03*
D28*
%TO.P,,9*%
X141314740Y-60673220D03*
D38*
X153934740Y-63753220D03*
D28*
%TO.P,,10*%
X143854740Y-61943220D03*
D38*
X153934740Y-64253220D03*
D28*
%TO.P,,11*%
X141314740Y-63213220D03*
D38*
X153934740Y-64753220D03*
D28*
%TO.P,,12*%
X143854740Y-64483220D03*
D38*
X153934740Y-65253220D03*
D28*
%TO.P,,13*%
X141314740Y-65753220D03*
D38*
X153934740Y-65753220D03*
D28*
%TO.P,,14*%
X143854740Y-67023220D03*
D38*
X153934740Y-66253220D03*
D28*
%TO.P,,15*%
X141314740Y-68293220D03*
D38*
X153934740Y-66753220D03*
D28*
%TO.P,,16*%
X143854740Y-69563220D03*
D38*
X153934740Y-67253220D03*
D28*
%TO.P,,17*%
X141314740Y-70833220D03*
D38*
X153934740Y-67753220D03*
D28*
%TO.P,,18*%
X143854740Y-72103220D03*
D38*
X153934740Y-68253220D03*
D28*
%TO.P,,19*%
X141314740Y-73373220D03*
D38*
X153934740Y-68753220D03*
D28*
%TO.P,,20*%
X143854740Y-74643220D03*
D38*
X153934740Y-69253220D03*
D28*
%TO.P,,21*%
X141314740Y-75913220D03*
D38*
X153934740Y-69753220D03*
D28*
%TO.P,,22*%
X143854740Y-77183220D03*
D38*
X153934740Y-70253220D03*
D28*
%TO.P,,23*%
X141314740Y-78453220D03*
D38*
X153934740Y-70753220D03*
D28*
%TO.P,,24*%
X143854740Y-79723220D03*
D38*
X153934740Y-71253220D03*
D28*
%TO.P,,25*%
X141314740Y-80993220D03*
D38*
X153934740Y-71753220D03*
D28*
%TO.P,,26*%
X146394740Y-86073220D03*
D39*
X155634740Y-69303220D03*
D28*
%TO.P,,27*%
X147664740Y-83533220D03*
D39*
X156134740Y-69303220D03*
D28*
%TO.P,,28*%
X148934740Y-86073220D03*
D39*
X156634740Y-69303220D03*
D28*
%TO.P,,29*%
X150204740Y-83533220D03*
D39*
X157134740Y-69303220D03*
D28*
%TO.P,,30*%
X151474740Y-86073220D03*
D39*
X157634740Y-69303220D03*
D28*
%TO.P,,31*%
X152744740Y-83533220D03*
D39*
X158134740Y-69303220D03*
D28*
%TO.P,,32*%
X154014740Y-86073220D03*
D39*
X158634740Y-69303220D03*
D28*
%TO.P,,33*%
X155284740Y-83533220D03*
D39*
X159134740Y-69303220D03*
D28*
%TO.P,,34*%
X156554740Y-86073220D03*
D40*
X159634740Y-70053220D03*
D28*
%TO.P,,35*%
X157824740Y-83533220D03*
D40*
X160134740Y-70053220D03*
D28*
%TO.P,,36*%
X159094740Y-86073220D03*
D40*
X160634740Y-70053220D03*
D28*
%TO.P,,37*%
X160364740Y-83533220D03*
D41*
X161134740Y-70553220D03*
%TO.P,,38*%
X161634740Y-70553220D03*
D28*
X161634740Y-86073220D03*
D42*
%TO.P,,39*%
X162134740Y-71303220D03*
D28*
X162904740Y-83533220D03*
D42*
%TO.P,,40*%
X162634740Y-71303220D03*
D28*
X164174740Y-86073220D03*
D42*
%TO.P,,41*%
X163134740Y-71303220D03*
D28*
X165444740Y-83533220D03*
D43*
%TO.P,,42*%
X163634740Y-72303220D03*
D28*
X166714740Y-86073220D03*
D43*
%TO.P,,43*%
X164134740Y-72303220D03*
D28*
X167984740Y-83533220D03*
D43*
%TO.P,,44*%
X164634740Y-72303220D03*
D28*
X169254740Y-86073220D03*
D43*
%TO.P,,45*%
X165134740Y-72303220D03*
D28*
X170524740Y-83533220D03*
D44*
%TO.P,,46*%
X165634740Y-73453220D03*
D28*
X171794740Y-86073220D03*
D44*
%TO.P,,47*%
X166134740Y-73453220D03*
D28*
X173064740Y-83533220D03*
D44*
%TO.P,,48*%
X166634740Y-73453220D03*
D28*
X174334740Y-86073220D03*
D44*
%TO.P,,49*%
X167134740Y-73453220D03*
D28*
X175604740Y-83533220D03*
D44*
%TO.P,,50*%
X167634740Y-73453220D03*
D28*
X176874740Y-86073220D03*
D38*
%TO.P,,51*%
X169334740Y-71753220D03*
D28*
X181954740Y-80993220D03*
D38*
%TO.P,,52*%
X169334740Y-71253220D03*
D28*
X179414740Y-79723220D03*
D38*
%TO.P,,53*%
X169334740Y-70753220D03*
D28*
X181954740Y-78453220D03*
D38*
%TO.P,,54*%
X169334740Y-70253220D03*
D28*
X179414740Y-77183220D03*
D38*
%TO.P,,55*%
X169334740Y-69753220D03*
D28*
X181954740Y-75913220D03*
D45*
%TO.P,,56*%
X168184740Y-69253220D03*
D28*
X179414740Y-74643220D03*
D45*
%TO.P,,57*%
X168184740Y-68753220D03*
D28*
X181954740Y-73373220D03*
D45*
%TO.P,,58*%
X168184740Y-68253220D03*
D28*
X179414740Y-72103220D03*
D45*
%TO.P,,59*%
X168184740Y-67753220D03*
D28*
X181954740Y-70833220D03*
D46*
%TO.P,,60*%
X167184740Y-67253220D03*
D28*
X179414740Y-69563220D03*
D46*
%TO.P,,61*%
X167184740Y-66753220D03*
D28*
X181954740Y-68293220D03*
D46*
%TO.P,,62*%
X167184740Y-66253220D03*
D28*
X179414740Y-67023220D03*
D47*
%TO.P,,63*%
X166434740Y-65753220D03*
D28*
X181954740Y-65753220D03*
D47*
%TO.P,,64*%
X166434740Y-65253220D03*
D28*
X179414740Y-64483220D03*
D48*
%TO.P,,65*%
X165934740Y-64753220D03*
D28*
X181954740Y-63213220D03*
D48*
%TO.P,,66*%
X165934740Y-64253220D03*
D28*
X179414740Y-61943220D03*
D48*
%TO.P,,67*%
X165934740Y-63753220D03*
D28*
X181954740Y-60673220D03*
D49*
%TO.P,,68*%
X165184740Y-63253220D03*
D28*
X179414740Y-59403220D03*
D49*
%TO.P,,69*%
X165184740Y-62753220D03*
D28*
X181954740Y-58133220D03*
D49*
%TO.P,,70*%
X165184740Y-62253220D03*
D28*
X179414740Y-56863220D03*
D49*
%TO.P,,71*%
X165184740Y-61753220D03*
D28*
X181954740Y-55593220D03*
D49*
%TO.P,,72*%
X165184740Y-61253220D03*
D28*
X179414740Y-54323220D03*
D49*
%TO.P,,73*%
X165184740Y-60753220D03*
D28*
X181954740Y-53053220D03*
D49*
%TO.P,,74*%
X165184740Y-60253220D03*
D28*
X179414740Y-51783220D03*
D49*
%TO.P,,75*%
X165184740Y-59753220D03*
D28*
X181954740Y-50513220D03*
D44*
%TO.P,,76*%
X167634740Y-58053220D03*
D28*
X176874740Y-45433220D03*
D44*
%TO.P,,77*%
X167134740Y-58053220D03*
D28*
X175604740Y-47973220D03*
D44*
%TO.P,,78*%
X166634740Y-58053220D03*
D28*
X174334740Y-45433220D03*
D44*
%TO.P,,79*%
X166134740Y-58053220D03*
D28*
X173064740Y-47973220D03*
D44*
%TO.P,,80*%
X165634740Y-58053220D03*
D28*
X171794740Y-45433220D03*
D44*
%TO.P,,81*%
X165134740Y-58053220D03*
D28*
X170524740Y-47973220D03*
D44*
%TO.P,,82*%
X164634740Y-58053220D03*
D28*
X169254740Y-45433220D03*
D44*
%TO.P,,83*%
X164134740Y-58053220D03*
D28*
X167984740Y-47973220D03*
D44*
%TO.P,,84*%
X163634740Y-58053220D03*
D28*
X166714740Y-45433220D03*
D44*
%TO.P,,85*%
X163134740Y-58053220D03*
D28*
X165444740Y-47973220D03*
D44*
%TO.P,,86*%
X162634740Y-58053220D03*
D28*
X164174740Y-45433220D03*
D44*
%TO.P,,87*%
X162134740Y-58053220D03*
D28*
X162904740Y-47973220D03*
%TO.P,,88*%
X161634740Y-45433220D03*
D44*
X161634740Y-58053220D03*
D28*
%TO.P,,89*%
X160364740Y-47973220D03*
D44*
X161134740Y-58053220D03*
D28*
%TO.P,,90*%
X159094740Y-45433220D03*
D44*
X160634740Y-58053220D03*
D28*
%TO.P,,91*%
X157824740Y-47973220D03*
D44*
X160134740Y-58053220D03*
D28*
%TO.P,,92*%
X156554740Y-45433220D03*
D44*
X159634740Y-58053220D03*
D28*
%TO.P,,93*%
X155284740Y-47973220D03*
D44*
X159134740Y-58053220D03*
D28*
%TO.P,,94*%
X154014740Y-45433220D03*
D44*
X158634740Y-58053220D03*
D28*
%TO.P,,95*%
X152744740Y-47973220D03*
D44*
X158134740Y-58053220D03*
D28*
%TO.P,,96*%
X151474740Y-45433220D03*
D44*
X157634740Y-58053220D03*
D28*
%TO.P,,97*%
X150204740Y-47973220D03*
D44*
X157134740Y-58053220D03*
D28*
%TO.P,,98*%
X148934740Y-45433220D03*
D44*
X156634740Y-58053220D03*
D28*
%TO.P,,99*%
X147664740Y-47973220D03*
D44*
X156134740Y-58053220D03*
D28*
%TO.P,,100*%
X146394740Y-45433220D03*
D44*
X155634740Y-58053220D03*
D50*
%TO.P,,101*%
X143854740Y-47973220D03*
D28*
X145124740Y-49243220D03*
%TO.P,,102*%
X141314740Y-45433220D03*
D50*
X142584740Y-46703220D03*
D51*
%TO.P,,103*%
X143854740Y-83533220D03*
D28*
X145124740Y-82263220D03*
%TO.P,,104*%
X141314740Y-86073220D03*
D51*
X142584740Y-84803220D03*
D28*
%TO.P,,105*%
X178144740Y-82263220D03*
D50*
X179414740Y-83533220D03*
%TO.P,,106*%
X180684740Y-84803220D03*
D28*
X181954740Y-86073220D03*
%TO.P,,107*%
X178144740Y-49243220D03*
D51*
X179414740Y-47973220D03*
%TO.P,,108*%
X180684740Y-46703220D03*
D28*
X181954740Y-45433220D03*
%TO.P,,109*%
X146394740Y-50513220D03*
%TO.P,,110*%
X176874740Y-50513220D03*
%TO.P,,111*%
X146394740Y-80993220D03*
%TO.P,,112*%
X176874740Y-80993220D03*
D21*
%TO.P,,113*%
X181954740Y-42893220D03*
%TO.P,,114*%
X184494740Y-45433220D03*
%TO.P,,115*%
X141314740Y-42893220D03*
%TO.P,,116*%
X138774740Y-45433220D03*
%TO.P,,117*%
X184494740Y-86073220D03*
%TO.P,,118*%
X181954740Y-88613220D03*
%TO.P,,119*%
X141314740Y-88613220D03*
%TO.P,,120*%
X138774740Y-86073220D03*
%TD*%
D10*
%TO.P,,1*%
%TO.N,N/C*%
X168834740Y-93640000D03*
%TO.P,,2*%
X171374740Y-93640000D03*
%TO.P,,3*%
X171374740Y-96180000D03*
%TO.P,,4*%
X168834740Y-96180000D03*
%TO.P,,5*%
X166294740Y-96180000D03*
%TO.P,,6*%
X166294740Y-93640000D03*
%TO.P,,7*%
X166294740Y-91100000D03*
%TO.P,,8*%
X168834740Y-91100000D03*
%TO.P,,9*%
X171374740Y-91100000D03*
%TO.P,,10*%
X173914740Y-91100000D03*
%TO.P,,11*%
X173914740Y-93640000D03*
%TO.P,,12*%
X173914740Y-96180000D03*
%TO.P,,13*%
X173914740Y-98720000D03*
%TO.P,,14*%
X171374740Y-98720000D03*
%TO.P,,15*%
X168834740Y-98720000D03*
%TO.P,,16*%
X166294740Y-98720000D03*
%TD*%
%TO.P,,1*%
%TO.N,N/C*%
X211820000Y-124120000D03*
%TO.P,,2*%
X214360000Y-124120000D03*
%TO.P,,3*%
X214360000Y-126660000D03*
%TO.P,,4*%
X211820000Y-126660000D03*
%TO.P,,5*%
X209280000Y-126660000D03*
%TO.P,,6*%
X209280000Y-124120000D03*
%TO.P,,7*%
X209280000Y-121580000D03*
%TO.P,,8*%
X211820000Y-121580000D03*
%TO.P,,9*%
X214360000Y-121580000D03*
%TO.P,,10*%
X216900000Y-121580000D03*
%TO.P,,11*%
X216900000Y-124120000D03*
%TO.P,,12*%
X216900000Y-126660000D03*
%TO.P,,13*%
X216900000Y-129200000D03*
%TO.P,,14*%
X214360000Y-129200000D03*
%TO.P,,15*%
X211820000Y-129200000D03*
%TO.P,,16*%
X209280000Y-129200000D03*
%TD*%
%TO.P,,1*%
%TO.N,N/C*%
X176874740Y-35273220D03*
%TO.P,,2*%
X179414740Y-35273220D03*
%TO.P,,3*%
X179414740Y-37813220D03*
%TO.P,,4*%
X176874740Y-37813220D03*
%TO.P,,5*%
X174334740Y-37813220D03*
%TO.P,,6*%
X174334740Y-35273220D03*
%TO.P,,7*%
X174334740Y-32733220D03*
%TO.P,,8*%
X176874740Y-32733220D03*
%TO.P,,9*%
X179414740Y-32733220D03*
%TO.P,,10*%
X181954740Y-32733220D03*
%TO.P,,11*%
X181954740Y-35273220D03*
%TO.P,,12*%
X181954740Y-37813220D03*
%TO.P,,13*%
X181954740Y-40353220D03*
%TO.P,,14*%
X179414740Y-40353220D03*
%TO.P,,15*%
X176874740Y-40353220D03*
%TO.P,,16*%
X174334740Y-40353220D03*
%TD*%
D25*
%TO.P,,1*%
%TO.N,N/C*%
X128614740Y-39083220D03*
D26*
X128614740Y-40353220D03*
%TO.P,,2*%
X128614740Y-42893220D03*
D25*
X128614740Y-44163220D03*
%TD*%
D52*
%TO.P,>NAME,1*%
%TO.N,N/C*%
X214034940Y-38067220D03*
%TO.P,>NAME,2*%
X213234840Y-38067220D03*
%TO.P,>NAME,3*%
X212434740Y-38067220D03*
%TO.P,>NAME,4*%
X211634640Y-38067220D03*
%TO.P,>NAME,5*%
X210834540Y-38067220D03*
D53*
%TO.P,>NAME,6*%
X216884820Y-37353480D03*
%TO.P,>NAME,7*%
X216884820Y-31854380D03*
%TO.P,>NAME,8*%
X207984660Y-37353480D03*
%TO.P,>NAME,9*%
X207984660Y-31854380D03*
%TD*%
D24*
%TO.P,REF\u002A\u002A,1*%
%TO.N,N/C*%
X124660000Y-129622500D03*
X127200000Y-129622500D03*
%TD*%
D18*
%TO.P,,1*%
%TO.N,N/C*%
X117360000Y-126660000D03*
D19*
X116385000Y-113380000D03*
D18*
%TO.P,,2*%
X117360000Y-124120000D03*
D19*
X117035000Y-113380000D03*
D18*
%TO.P,,3*%
X117360000Y-121580000D03*
D19*
X117685000Y-113380000D03*
D18*
%TO.P,,4*%
X117360000Y-119040000D03*
D19*
X118335000Y-113380000D03*
%TO.P,,5*%
X118335000Y-104380000D03*
D20*
X117360000Y-98720000D03*
D19*
%TO.P,,6*%
X117685000Y-104380000D03*
D20*
X117360000Y-96180000D03*
D19*
%TO.P,,7*%
X117035000Y-104380000D03*
D20*
X117360000Y-93640000D03*
D19*
%TO.P,,8*%
X116385000Y-104380000D03*
D20*
X117360000Y-91100000D03*
%TD*%
D11*
%TO.P,,1*%
%TO.N,N/C*%
X129540000Y-32195000D03*
D54*
X132385000Y-33150000D03*
D11*
%TO.P,,2*%
X127000000Y-34100000D03*
D54*
X132385000Y-34100000D03*
D11*
%TO.P,,3*%
X129540000Y-36005000D03*
D54*
X132385000Y-35050000D03*
%TO.P,,4*%
X135585000Y-35050000D03*
D11*
X138430000Y-36005000D03*
D54*
%TO.P,,5*%
X135585000Y-34100000D03*
D11*
X140970000Y-34100000D03*
D54*
%TO.P,,6*%
X135585000Y-33150000D03*
D11*
X138430000Y-32195000D03*
%TD*%
D10*
%TO.P,,1*%
%TO.N,N/C*%
X220050000Y-35470000D03*
D13*
X222777960Y-36508860D03*
D14*
%TO.P,,2*%
X226730200Y-38010000D03*
D15*
X224380700Y-38010000D03*
D13*
X222777960Y-38010000D03*
D10*
X220050000Y-38010000D03*
D13*
%TO.P,,3*%
X222777960Y-39511140D03*
D10*
X220050000Y-40550000D03*
%TD*%
D18*
%TO.P,,1*%
%TO.N,N/C*%
X158000000Y-126660000D03*
D19*
X157025000Y-113380000D03*
D18*
%TO.P,,2*%
X158000000Y-124120000D03*
D19*
X157675000Y-113380000D03*
D18*
%TO.P,,3*%
X158000000Y-121580000D03*
D19*
X158325000Y-113380000D03*
D18*
%TO.P,,4*%
X158000000Y-119040000D03*
D19*
X158975000Y-113380000D03*
%TO.P,,5*%
X158975000Y-104380000D03*
D20*
X158000000Y-98720000D03*
D19*
%TO.P,,6*%
X158325000Y-104380000D03*
D20*
X158000000Y-96180000D03*
D19*
%TO.P,,7*%
X157675000Y-104380000D03*
D20*
X158000000Y-93640000D03*
D19*
%TO.P,,8*%
X157025000Y-104380000D03*
D20*
X158000000Y-91100000D03*
%TD*%
D24*
%TO.P,REF\u002A\u002A,1*%
%TO.N,N/C*%
X115760000Y-129622500D03*
X118300000Y-129622500D03*
%TD*%
D18*
%TO.P,,1*%
%TO.N,N/C*%
X124980000Y-126660000D03*
D19*
X124005000Y-113380000D03*
D18*
%TO.P,,2*%
X124980000Y-124120000D03*
D19*
X124655000Y-113380000D03*
D18*
%TO.P,,3*%
X124980000Y-121580000D03*
D19*
X125305000Y-113380000D03*
D18*
%TO.P,,4*%
X124980000Y-119040000D03*
D19*
X125955000Y-113380000D03*
%TO.P,,5*%
X125955000Y-104380000D03*
D20*
X124980000Y-98720000D03*
D19*
%TO.P,,6*%
X125305000Y-104380000D03*
D20*
X124980000Y-96180000D03*
D19*
%TO.P,,7*%
X124655000Y-104380000D03*
D20*
X124980000Y-93640000D03*
D19*
%TO.P,,8*%
X124005000Y-104380000D03*
D20*
X124980000Y-91100000D03*
%TD*%
D10*
%TO.P,,1*%
%TO.N,N/C*%
X129360000Y-70833220D03*
%TO.P,,2*%
X131900000Y-70833220D03*
%TO.P,,3*%
X131900000Y-73373220D03*
%TO.P,,4*%
X129360000Y-73373220D03*
%TO.P,,5*%
X126820000Y-73373220D03*
%TO.P,,6*%
X126820000Y-70833220D03*
%TO.P,,7*%
X126820000Y-68293220D03*
%TO.P,,8*%
X129360000Y-68293220D03*
%TO.P,,9*%
X131900000Y-68293220D03*
%TO.P,,10*%
X134440000Y-68293220D03*
%TO.P,,11*%
X134440000Y-70833220D03*
%TO.P,,12*%
X134440000Y-73373220D03*
%TO.P,,13*%
X134440000Y-75913220D03*
%TO.P,,14*%
X131900000Y-75913220D03*
%TO.P,,15*%
X129360000Y-75913220D03*
%TO.P,,16*%
X126820000Y-75913220D03*
%TD*%
D21*
%TO.P,,1*%
%TO.N,N/C*%
X107210000Y-65753220D03*
D22*
X111330000Y-66293220D03*
X118330000Y-66293220D03*
D21*
X122450000Y-65753220D03*
%TO.P,,2*%
X107210000Y-70833220D03*
D22*
X111330000Y-70293220D03*
X118330000Y-70293220D03*
D21*
X122450000Y-70833220D03*
%TD*%
D24*
%TO.P,REF\u002A\u002A,1*%
%TO.N,N/C*%
X220050000Y-111540000D03*
X220050000Y-109000000D03*
%TD*%
D25*
%TO.P,,1*%
%TO.N,N/C*%
X131154740Y-44163220D03*
D26*
X131154740Y-42893220D03*
%TO.P,,2*%
X131154740Y-40353220D03*
D25*
X131154740Y-39083220D03*
%TD*%
D24*
%TO.P,REF\u002A\u002A,1*%
%TO.N,N/C*%
X157960000Y-129622500D03*
X160500000Y-129622500D03*
%TD*%
D18*
%TO.P,,1*%
%TO.N,N/C*%
X163080000Y-126660000D03*
D19*
X162105000Y-113380000D03*
D18*
%TO.P,,2*%
X163080000Y-124120000D03*
D19*
X162755000Y-113380000D03*
D18*
%TO.P,,3*%
X163080000Y-121580000D03*
D19*
X163405000Y-113380000D03*
D18*
%TO.P,,4*%
X163080000Y-119040000D03*
D19*
X164055000Y-113380000D03*
%TO.P,,5*%
X164055000Y-104380000D03*
D20*
X163080000Y-98720000D03*
D19*
%TO.P,,6*%
X163405000Y-104380000D03*
D20*
X163080000Y-96180000D03*
D19*
%TO.P,,7*%
X162755000Y-104380000D03*
D20*
X163080000Y-93640000D03*
D19*
%TO.P,,8*%
X162105000Y-104380000D03*
D20*
X163080000Y-91100000D03*
%TD*%
D10*
%TO.P,,1*%
%TO.N,N/C*%
X211820000Y-93640000D03*
%TO.P,,2*%
X214360000Y-93640000D03*
%TO.P,,3*%
X214360000Y-96180000D03*
%TO.P,,4*%
X211820000Y-96180000D03*
%TO.P,,5*%
X209280000Y-96180000D03*
%TO.P,,6*%
X209280000Y-93640000D03*
%TO.P,,7*%
X209280000Y-91100000D03*
%TO.P,,8*%
X211820000Y-91100000D03*
%TO.P,,9*%
X214360000Y-91100000D03*
%TO.P,,10*%
X216900000Y-91100000D03*
%TO.P,,11*%
X216900000Y-93640000D03*
%TO.P,,12*%
X216900000Y-96180000D03*
%TO.P,,13*%
X216900000Y-98720000D03*
%TO.P,,14*%
X214360000Y-98720000D03*
%TO.P,,15*%
X211820000Y-98720000D03*
%TO.P,,16*%
X209280000Y-98720000D03*
%TD*%
D16*
%TO.P,REF\u002A\u002A,1*%
%TO.N,N/C*%
X108300000Y-135400000D03*
D17*
%TO.P,REF\u002A\u002A,2*%
X111800000Y-135400000D03*
%TO.P,REF\u002A\u002A,3*%
X115300000Y-135400000D03*
%TO.P,REF\u002A\u002A,4*%
X118800000Y-135400000D03*
%TD*%
D18*
%TO.P,,1*%
%TO.N,N/C*%
X114820000Y-126660000D03*
D19*
X113845000Y-113380000D03*
D18*
%TO.P,,2*%
X114820000Y-124120000D03*
D19*
X114495000Y-113380000D03*
D18*
%TO.P,,3*%
X114820000Y-121580000D03*
D19*
X115145000Y-113380000D03*
D18*
%TO.P,,4*%
X114820000Y-119040000D03*
D19*
X115795000Y-113380000D03*
%TO.P,,5*%
X115795000Y-104380000D03*
D20*
X114820000Y-98720000D03*
D19*
%TO.P,,6*%
X115145000Y-104380000D03*
D20*
X114820000Y-96180000D03*
D19*
%TO.P,,7*%
X114495000Y-104380000D03*
D20*
X114820000Y-93640000D03*
D19*
%TO.P,,8*%
X113845000Y-104380000D03*
D20*
X114820000Y-91100000D03*
%TD*%
D24*
%TO.P,REF\u002A\u002A,1*%
%TO.N,N/C*%
X220038750Y-129140000D03*
X220038750Y-126600000D03*
%TD*%
D25*
%TO.P,,1*%
%TO.N,N/C*%
X176454740Y-121580000D03*
D29*
X185344740Y-120945000D03*
D30*
%TO.P,,2*%
X178994740Y-121580000D03*
D29*
X185344740Y-122215000D03*
%TO.P,,3*%
X198044740Y-122215000D03*
D30*
X204394740Y-121580000D03*
D29*
%TO.P,,4*%
X198044740Y-120945000D03*
D25*
X206934740Y-121580000D03*
%TD*%
D23*
%TO.P,REF\u002A\u002A,1*%
%TO.N,N/C*%
X225816250Y-120800000D03*
D17*
%TO.P,REF\u002A\u002A,2*%
X225816250Y-117300000D03*
%TD*%
D10*
%TO.P,,1*%
%TO.N,N/C*%
X207354740Y-70833220D03*
D13*
X210082700Y-71872080D03*
D14*
%TO.P,,2*%
X214034940Y-73373220D03*
D15*
X211685440Y-73373220D03*
D13*
X210082700Y-73373220D03*
D10*
X207354740Y-73373220D03*
D13*
%TO.P,,3*%
X210082700Y-74874360D03*
D10*
X207354740Y-75913220D03*
%TD*%
D24*
%TO.P,REF\u002A\u002A,1*%
%TO.N,N/C*%
X149260000Y-129622500D03*
X151800000Y-129622500D03*
%TD*%
D25*
%TO.P,,1*%
%TO.N,N/C*%
X176454740Y-98720000D03*
D29*
X185344740Y-98085000D03*
D30*
%TO.P,,2*%
X178994740Y-98720000D03*
D29*
X185344740Y-99355000D03*
%TO.P,,3*%
X198044740Y-99355000D03*
D30*
X204394740Y-98720000D03*
D29*
%TO.P,,4*%
X198044740Y-98085000D03*
D25*
X206934740Y-98720000D03*
%TD*%
%TO.P,,1*%
%TO.N,N/C*%
X176454740Y-119040000D03*
D29*
X185344740Y-118405000D03*
D30*
%TO.P,,2*%
X178994740Y-119040000D03*
D29*
X185344740Y-119675000D03*
%TO.P,,3*%
X198044740Y-119675000D03*
D30*
X204394740Y-119040000D03*
D29*
%TO.P,,4*%
X198044740Y-118405000D03*
D25*
X206934740Y-119040000D03*
%TD*%
D24*
%TO.P,REF\u002A\u002A,1*%
%TO.N,N/C*%
X140360000Y-129622500D03*
X142900000Y-129622500D03*
%TD*%
D25*
%TO.P,,1*%
%TO.N,N/C*%
X176454740Y-108880000D03*
D29*
X185344740Y-108245000D03*
D30*
%TO.P,,2*%
X178994740Y-108880000D03*
D29*
X185344740Y-109515000D03*
%TO.P,,3*%
X198044740Y-109515000D03*
D30*
X204394740Y-108880000D03*
D29*
%TO.P,,4*%
X198044740Y-108245000D03*
D25*
X206934740Y-108880000D03*
%TD*%
D18*
%TO.P,,1*%
%TO.N,N/C*%
X130060000Y-126660000D03*
D19*
X129085000Y-113380000D03*
D18*
%TO.P,,2*%
X130060000Y-124120000D03*
D19*
X129735000Y-113380000D03*
D18*
%TO.P,,3*%
X130060000Y-121580000D03*
D19*
X130385000Y-113380000D03*
D18*
%TO.P,,4*%
X130060000Y-119040000D03*
D19*
X131035000Y-113380000D03*
%TO.P,,5*%
X131035000Y-104380000D03*
D20*
X130060000Y-98720000D03*
D19*
%TO.P,,6*%
X130385000Y-104380000D03*
D20*
X130060000Y-96180000D03*
D19*
%TO.P,,7*%
X129735000Y-104380000D03*
D20*
X130060000Y-93640000D03*
D19*
%TO.P,,8*%
X129085000Y-104380000D03*
D20*
X130060000Y-91100000D03*
%TD*%
D16*
%TO.P,REF\u002A\u002A,1*%
%TO.N,N/C*%
X148700000Y-135400000D03*
D17*
%TO.P,REF\u002A\u002A,2*%
X152200000Y-135400000D03*
%TD*%
D23*
%TO.P,REF\u002A\u002A,1*%
%TO.N,N/C*%
X225827500Y-94400000D03*
D17*
%TO.P,REF\u002A\u002A,2*%
X225827500Y-90900000D03*
%TD*%
D10*
%TO.P,,1*%
%TO.N,N/C*%
X212434740Y-45433220D03*
%TO.P,,2*%
X212434740Y-47973220D03*
%TO.P,,3*%
X209894740Y-47973220D03*
%TO.P,,4*%
X209894740Y-45433220D03*
%TO.P,,5*%
X209894740Y-42893220D03*
%TO.P,,6*%
X212434740Y-42893220D03*
%TO.P,,7*%
X214974740Y-42893220D03*
%TO.P,,8*%
X214974740Y-45433220D03*
%TO.P,,9*%
X214974740Y-47973220D03*
%TO.P,,10*%
X214974740Y-50513220D03*
%TO.P,,11*%
X212434740Y-50513220D03*
%TO.P,,12*%
X209894740Y-50513220D03*
%TO.P,,13*%
X207354740Y-50513220D03*
%TO.P,,14*%
X207354740Y-47973220D03*
%TO.P,,15*%
X207354740Y-45433220D03*
%TO.P,,16*%
X207354740Y-42893220D03*
%TO.P,,17*%
X217514740Y-42893220D03*
%TO.P,,18*%
X217514740Y-45433220D03*
%TO.P,,19*%
X217514740Y-47973220D03*
%TO.P,,20*%
X217514740Y-50513220D03*
%TD*%
D18*
%TO.P,,1*%
%TO.N,N/C*%
X109740000Y-126660000D03*
D19*
X108765000Y-113380000D03*
D18*
%TO.P,,2*%
X109740000Y-124120000D03*
D19*
X109415000Y-113380000D03*
D18*
%TO.P,,3*%
X109740000Y-121580000D03*
D19*
X110065000Y-113380000D03*
D18*
%TO.P,,4*%
X109740000Y-119040000D03*
D19*
X110715000Y-113380000D03*
%TO.P,,5*%
X110715000Y-104380000D03*
D20*
X109740000Y-98720000D03*
D19*
%TO.P,,6*%
X110065000Y-104380000D03*
D20*
X109740000Y-96180000D03*
D19*
%TO.P,,7*%
X109415000Y-104380000D03*
D20*
X109740000Y-93640000D03*
D19*
%TO.P,,8*%
X108765000Y-104380000D03*
D20*
X109740000Y-91100000D03*
%TD*%
D24*
%TO.P,REF\u002A\u002A,1*%
%TO.N,N/C*%
X220050000Y-93940000D03*
X220050000Y-91400000D03*
%TD*%
D25*
%TO.P,,1*%
%TO.N,N/C*%
X176454740Y-93640000D03*
D29*
X185344740Y-93005000D03*
D30*
%TO.P,,2*%
X178994740Y-93640000D03*
D29*
X185344740Y-94275000D03*
%TO.P,,3*%
X198044740Y-94275000D03*
D30*
X204394740Y-93640000D03*
D29*
%TO.P,,4*%
X198044740Y-93005000D03*
D25*
X206934740Y-93640000D03*
%TD*%
D24*
%TO.P,REF\u002A\u002A,1*%
%TO.N,N/C*%
X108760000Y-129622500D03*
X111300000Y-129622500D03*
%TD*%
D18*
%TO.P,,1*%
%TO.N,N/C*%
X122440000Y-126660000D03*
D19*
X121465000Y-113380000D03*
D18*
%TO.P,,2*%
X122440000Y-124120000D03*
D19*
X122115000Y-113380000D03*
D18*
%TO.P,,3*%
X122440000Y-121580000D03*
D19*
X122765000Y-113380000D03*
D18*
%TO.P,,4*%
X122440000Y-119040000D03*
D19*
X123415000Y-113380000D03*
%TO.P,,5*%
X123415000Y-104380000D03*
D20*
X122440000Y-98720000D03*
D19*
%TO.P,,6*%
X122765000Y-104380000D03*
D20*
X122440000Y-96180000D03*
D19*
%TO.P,,7*%
X122115000Y-104380000D03*
D20*
X122440000Y-93640000D03*
D19*
%TO.P,,8*%
X121465000Y-104380000D03*
D20*
X122440000Y-91100000D03*
%TD*%
D25*
%TO.P,,1*%
%TO.N,N/C*%
X136234740Y-44163220D03*
D26*
X136234740Y-42893220D03*
%TO.P,,2*%
X136234740Y-40353220D03*
D25*
X136234740Y-39083220D03*
%TD*%
D10*
%TO.P,,1*%
%TO.N,N/C*%
X211820000Y-113960000D03*
%TO.P,,2*%
X214360000Y-113960000D03*
%TO.P,,3*%
X214360000Y-116500000D03*
%TO.P,,4*%
X211820000Y-116500000D03*
%TO.P,,5*%
X209280000Y-116500000D03*
%TO.P,,6*%
X209280000Y-113960000D03*
%TO.P,,7*%
X209280000Y-111420000D03*
%TO.P,,8*%
X211820000Y-111420000D03*
%TO.P,,9*%
X214360000Y-111420000D03*
%TO.P,,10*%
X216900000Y-111420000D03*
%TO.P,,11*%
X216900000Y-113960000D03*
%TO.P,,12*%
X216900000Y-116500000D03*
%TO.P,,13*%
X216900000Y-119040000D03*
%TO.P,,14*%
X214360000Y-119040000D03*
%TO.P,,15*%
X211820000Y-119040000D03*
%TO.P,,16*%
X209280000Y-119040000D03*
%TD*%
D18*
%TO.P,,1*%
%TO.N,N/C*%
X155460000Y-126660000D03*
D19*
X154485000Y-113380000D03*
D18*
%TO.P,,2*%
X155460000Y-124120000D03*
D19*
X155135000Y-113380000D03*
D18*
%TO.P,,3*%
X155460000Y-121580000D03*
D19*
X155785000Y-113380000D03*
D18*
%TO.P,,4*%
X155460000Y-119040000D03*
D19*
X156435000Y-113380000D03*
%TO.P,,5*%
X156435000Y-104380000D03*
D20*
X155460000Y-98720000D03*
D19*
%TO.P,,6*%
X155785000Y-104380000D03*
D20*
X155460000Y-96180000D03*
D19*
%TO.P,,7*%
X155135000Y-104380000D03*
D20*
X155460000Y-93640000D03*
D19*
%TO.P,,8*%
X154485000Y-104380000D03*
D20*
X155460000Y-91100000D03*
%TD*%
D18*
%TO.P,,1*%
%TO.N,N/C*%
X107200000Y-126660000D03*
D19*
X106225000Y-113380000D03*
D18*
%TO.P,,2*%
X107200000Y-124120000D03*
D19*
X106875000Y-113380000D03*
D18*
%TO.P,,3*%
X107200000Y-121580000D03*
D19*
X107525000Y-113380000D03*
D18*
%TO.P,,4*%
X107200000Y-119040000D03*
D19*
X108175000Y-113380000D03*
%TO.P,,5*%
X108175000Y-104380000D03*
D20*
X107200000Y-98720000D03*
D19*
%TO.P,,6*%
X107525000Y-104380000D03*
D20*
X107200000Y-96180000D03*
D19*
%TO.P,,7*%
X106875000Y-104380000D03*
D20*
X107200000Y-93640000D03*
D19*
%TO.P,,8*%
X106225000Y-104380000D03*
D20*
X107200000Y-91100000D03*
%TD*%
D18*
%TO.P,,1*%
%TO.N,N/C*%
X132600000Y-126660000D03*
D19*
X131625000Y-113380000D03*
D18*
%TO.P,,2*%
X132600000Y-124120000D03*
D19*
X132275000Y-113380000D03*
D18*
%TO.P,,3*%
X132600000Y-121580000D03*
D19*
X132925000Y-113380000D03*
D18*
%TO.P,,4*%
X132600000Y-119040000D03*
D19*
X133575000Y-113380000D03*
%TO.P,,5*%
X133575000Y-104380000D03*
D20*
X132600000Y-98720000D03*
D19*
%TO.P,,6*%
X132925000Y-104380000D03*
D20*
X132600000Y-96180000D03*
D19*
%TO.P,,7*%
X132275000Y-104380000D03*
D20*
X132600000Y-93640000D03*
D19*
%TO.P,,8*%
X131625000Y-104380000D03*
D20*
X132600000Y-91100000D03*
%TD*%
D18*
%TO.P,,1*%
%TO.N,N/C*%
X150380000Y-126660000D03*
D19*
X149405000Y-113380000D03*
D18*
%TO.P,,2*%
X150380000Y-124120000D03*
D19*
X150055000Y-113380000D03*
D18*
%TO.P,,3*%
X150380000Y-121580000D03*
D19*
X150705000Y-113380000D03*
D18*
%TO.P,,4*%
X150380000Y-119040000D03*
D19*
X151355000Y-113380000D03*
%TO.P,,5*%
X151355000Y-104380000D03*
D20*
X150380000Y-98720000D03*
D19*
%TO.P,,6*%
X150705000Y-104380000D03*
D20*
X150380000Y-96180000D03*
D19*
%TO.P,,7*%
X150055000Y-104380000D03*
D20*
X150380000Y-93640000D03*
D19*
%TO.P,,8*%
X149405000Y-104380000D03*
D20*
X150380000Y-91100000D03*
%TD*%
D25*
%TO.P,,1*%
%TO.N,N/C*%
X176454740Y-106340000D03*
D29*
X185344740Y-105705000D03*
D30*
%TO.P,,2*%
X178994740Y-106340000D03*
D29*
X185344740Y-106975000D03*
%TO.P,,3*%
X198044740Y-106975000D03*
D30*
X204394740Y-106340000D03*
D29*
%TO.P,,4*%
X198044740Y-105705000D03*
D25*
X206934740Y-106340000D03*
%TD*%
%TO.P,,1*%
%TO.N,N/C*%
X107210000Y-53053220D03*
D26*
X111020000Y-53053220D03*
%TO.P,,2*%
X118640000Y-53053220D03*
D25*
X122450000Y-53053220D03*
D26*
%TO.P,,3*%
X113560000Y-53053220D03*
X116100000Y-53053220D03*
%TD*%
D10*
%TO.P,,1*%
%TO.N,N/C*%
X189574740Y-50513220D03*
%TO.P,,2*%
X192114740Y-50513220D03*
%TO.P,,3*%
X192114740Y-53053220D03*
%TO.P,,4*%
X189574740Y-53053220D03*
%TO.P,,5*%
X187034740Y-53053220D03*
%TO.P,,6*%
X187034740Y-50513220D03*
%TO.P,,7*%
X187034740Y-47973220D03*
%TO.P,,8*%
X189574740Y-47973220D03*
%TO.P,,9*%
X192114740Y-47973220D03*
%TO.P,,10*%
X194654740Y-47973220D03*
%TO.P,,11*%
X194654740Y-50513220D03*
%TO.P,,12*%
X194654740Y-53053220D03*
%TO.P,,13*%
X194654740Y-55593220D03*
%TO.P,,14*%
X192114740Y-55593220D03*
%TO.P,,15*%
X189574740Y-55593220D03*
%TO.P,,16*%
X187034740Y-55593220D03*
%TD*%
D25*
%TO.P,,1*%
%TO.N,N/C*%
X176454740Y-111420000D03*
D29*
X185344740Y-110785000D03*
D30*
%TO.P,,2*%
X178994740Y-111420000D03*
D29*
X185344740Y-112055000D03*
%TO.P,,3*%
X198044740Y-112055000D03*
D30*
X204394740Y-111420000D03*
D29*
%TO.P,,4*%
X198044740Y-110785000D03*
D25*
X206934740Y-111420000D03*
%TD*%
%TO.P,,1*%
%TO.N,N/C*%
X133694740Y-44163220D03*
D26*
X133694740Y-42893220D03*
%TO.P,,2*%
X133694740Y-40353220D03*
D25*
X133694740Y-39083220D03*
%TD*%
D10*
%TO.P,,1*%
%TO.N,N/C*%
X199734740Y-50513220D03*
%TO.P,,2*%
X202274740Y-50513220D03*
%TO.P,,3*%
X202274740Y-53053220D03*
%TO.P,,4*%
X199734740Y-53053220D03*
%TO.P,,5*%
X197194740Y-53053220D03*
%TO.P,,6*%
X197194740Y-50513220D03*
%TO.P,,7*%
X197194740Y-47973220D03*
%TO.P,,8*%
X199734740Y-47973220D03*
%TO.P,,9*%
X202274740Y-47973220D03*
%TO.P,,10*%
X204814740Y-47973220D03*
%TO.P,,11*%
X204814740Y-50513220D03*
%TO.P,,12*%
X204814740Y-53053220D03*
%TO.P,,13*%
X204814740Y-55593220D03*
%TO.P,,14*%
X202274740Y-55593220D03*
%TO.P,,15*%
X199734740Y-55593220D03*
%TO.P,,16*%
X197194740Y-55593220D03*
%TD*%
%TO.P,,1*%
%TO.N,N/C*%
X168834740Y-113960000D03*
%TO.P,,2*%
X171374740Y-113960000D03*
%TO.P,,3*%
X171374740Y-116500000D03*
%TO.P,,4*%
X168834740Y-116500000D03*
%TO.P,,5*%
X166294740Y-116500000D03*
%TO.P,,6*%
X166294740Y-113960000D03*
%TO.P,,7*%
X166294740Y-111420000D03*
%TO.P,,8*%
X168834740Y-111420000D03*
%TO.P,,9*%
X171374740Y-111420000D03*
%TO.P,,10*%
X173914740Y-111420000D03*
%TO.P,,11*%
X173914740Y-113960000D03*
%TO.P,,12*%
X173914740Y-116500000D03*
%TO.P,,13*%
X173914740Y-119040000D03*
%TO.P,,14*%
X171374740Y-119040000D03*
%TO.P,,15*%
X168834740Y-119040000D03*
%TO.P,,16*%
X166294740Y-119040000D03*
%TD*%
D18*
%TO.P,,1*%
%TO.N,N/C*%
X145300000Y-126660000D03*
D19*
X144325000Y-113380000D03*
D18*
%TO.P,,2*%
X145300000Y-124120000D03*
D19*
X144975000Y-113380000D03*
D18*
%TO.P,,3*%
X145300000Y-121580000D03*
D19*
X145625000Y-113380000D03*
D18*
%TO.P,,4*%
X145300000Y-119040000D03*
D19*
X146275000Y-113380000D03*
%TO.P,,5*%
X146275000Y-104380000D03*
D20*
X145300000Y-98720000D03*
D19*
%TO.P,,6*%
X145625000Y-104380000D03*
D20*
X145300000Y-96180000D03*
D19*
%TO.P,,7*%
X144975000Y-104380000D03*
D20*
X145300000Y-93640000D03*
D19*
%TO.P,,8*%
X144325000Y-104380000D03*
D20*
X145300000Y-91100000D03*
%TD*%
D55*
%TO.N,*%
X150710200Y-116931800D03*
D56*
X104634740Y-119393220D03*
X171220000Y-138800000D03*
X199160000Y-138800000D03*
X191540000Y-131200000D03*
D55*
X115150200Y-100828200D03*
X138010200Y-116931800D03*
D56*
X104634740Y-127013220D03*
X166140000Y-138800000D03*
X209320000Y-138800000D03*
X189000000Y-138800000D03*
X104634740Y-58433220D03*
X186460000Y-131200000D03*
X104634740Y-96533220D03*
X168680000Y-131200000D03*
X104634740Y-73673220D03*
D55*
X122770200Y-100828200D03*
D56*
X104634740Y-88913220D03*
X104634740Y-104153220D03*
X104634740Y-83833220D03*
X104634740Y-124473220D03*
X196620000Y-138800000D03*
X104634740Y-53353220D03*
D55*
X153250200Y-116931800D03*
D56*
X104634740Y-106693220D03*
X104634740Y-43193220D03*
D55*
X148170200Y-100828200D03*
D56*
X173760000Y-138800000D03*
D55*
X110070200Y-100828200D03*
D56*
X199160000Y-131200000D03*
D55*
X155790200Y-100828200D03*
D56*
X194080000Y-138800000D03*
X104634740Y-78753220D03*
D55*
X148170200Y-116931800D03*
D56*
X166140000Y-131200000D03*
D55*
X163410200Y-100828200D03*
D56*
X183920000Y-131200000D03*
D55*
X132930200Y-116931800D03*
X145630200Y-116931800D03*
X130390200Y-116931800D03*
X153250200Y-100828200D03*
D56*
X104634740Y-50813220D03*
X104634740Y-129553220D03*
D55*
X122770200Y-116931800D03*
X120230200Y-100828200D03*
X143090200Y-100828200D03*
X160870200Y-116931800D03*
X140550200Y-116931800D03*
X127850200Y-116931800D03*
X135470200Y-100828200D03*
D56*
X206780000Y-131200000D03*
X211860000Y-131200000D03*
D55*
X132930200Y-100828200D03*
D56*
X104634740Y-48273220D03*
D55*
X117690200Y-100828200D03*
D56*
X186460000Y-138800000D03*
D55*
X130390200Y-100828200D03*
X138010200Y-100828200D03*
X145630200Y-100828200D03*
D56*
X104634740Y-93993220D03*
X214400000Y-138800000D03*
X104634740Y-109233220D03*
D55*
X112610200Y-116931800D03*
D56*
X104634740Y-68593220D03*
D55*
X110070200Y-116931800D03*
D56*
X181380000Y-138800000D03*
X191540000Y-138800000D03*
X104634740Y-121933220D03*
D55*
X107530200Y-116931800D03*
X135470200Y-116931800D03*
X125310200Y-100828200D03*
X120230200Y-116931800D03*
D56*
X104634740Y-63513220D03*
X104634740Y-60973220D03*
D55*
X150710200Y-100828200D03*
D56*
X104634740Y-40653220D03*
X178840000Y-131200000D03*
D55*
X155790200Y-116931800D03*
D56*
X176300000Y-131200000D03*
X104634740Y-91453220D03*
X204240000Y-138800000D03*
X168680000Y-138800000D03*
D55*
X158330200Y-100828200D03*
D56*
X104634740Y-114313220D03*
D55*
X117690200Y-116931800D03*
D56*
X181380000Y-131200000D03*
X214400000Y-131200000D03*
X196620000Y-131200000D03*
X189000000Y-131200000D03*
D55*
X112610200Y-100828200D03*
D56*
X104634740Y-55893220D03*
X204240000Y-131200000D03*
X171220000Y-131200000D03*
X176300000Y-138800000D03*
X211860000Y-138800000D03*
X104634740Y-86373220D03*
X201700000Y-131200000D03*
X104634740Y-45733220D03*
X104634740Y-71133220D03*
X178840000Y-138800000D03*
X201700000Y-138800000D03*
D55*
X107530200Y-100828200D03*
D56*
X104634740Y-116853220D03*
X104634740Y-99073220D03*
D55*
X160870200Y-100828200D03*
D56*
X104634740Y-101613220D03*
D55*
X163410200Y-116931800D03*
D56*
X104634740Y-81293220D03*
X206780000Y-138800000D03*
X104634740Y-111773220D03*
X209320000Y-131200000D03*
X183920000Y-138800000D03*
D55*
X115150200Y-116931800D03*
X140550200Y-100828200D03*
D56*
X104634740Y-76213220D03*
D55*
X143090200Y-116931800D03*
D56*
X194080000Y-131200000D03*
X173760000Y-131200000D03*
D55*
X125310200Y-116931800D03*
X158330200Y-116931800D03*
D56*
X104634740Y-66053220D03*
D55*
X127850200Y-100828200D03*
%TD*%
D57*
%TO.N,*%
X144233200Y-99405800D02*
X144975000Y-100147600D01*
D58*
X176454740Y-119040000D02*
X177724740Y-117770000D01*
X198044740Y-101895000D02*
X203759740Y-101895000D01*
D57*
X136705000Y-100056400D02*
X136232200Y-99583600D01*
X108175000Y-100584000D02*
X108175000Y-104380000D01*
D58*
X144489740Y-79723220D02*
X143854740Y-79723220D01*
D57*
X106225000Y-100056400D02*
X105752200Y-99583600D01*
X120225000Y-113380000D02*
X120225000Y-116926600D01*
D59*
X121053000Y-65753220D02*
X122450000Y-65753220D01*
D58*
X177509740Y-54882020D02*
X177509740Y-54069220D01*
X176454740Y-113960000D02*
X177724740Y-112690000D01*
X163134740Y-71303220D02*
X163134740Y-79419820D01*
X178551140Y-55593220D02*
X181954740Y-55593220D01*
X178525740Y-53053220D02*
X181954740Y-53053220D01*
X198044740Y-109515000D02*
X203759740Y-109515000D01*
D59*
X141314740Y-45433220D02*
X142584740Y-46703220D01*
D58*
X147156740Y-75405220D02*
X147156740Y-77056220D01*
D57*
X154190000Y-125390000D02*
X155460000Y-126660000D01*
X161515000Y-100584000D02*
X161515000Y-104380000D01*
D59*
X179414740Y-47973220D02*
X176874740Y-50513220D01*
D60*
X220550000Y-90900000D02*
X220050000Y-91400000D01*
D57*
X123532200Y-92547800D02*
X124980000Y-91100000D01*
X127845000Y-116926600D02*
X127850200Y-116931800D01*
D59*
X108099000Y-73373220D02*
X108639000Y-73913220D01*
D58*
X177724740Y-122850000D02*
X180010740Y-122850000D01*
X198044740Y-105705000D02*
X202743740Y-105705000D01*
D57*
X150055000Y-113380000D02*
X150055000Y-117714000D01*
D58*
X202743740Y-113325000D02*
X203378740Y-112690000D01*
X160134740Y-58053220D02*
X160134740Y-51197620D01*
D57*
X112605000Y-100833400D02*
X112610200Y-100828200D01*
X117360000Y-94122600D02*
X116293200Y-95189400D01*
X146392200Y-99583600D02*
X146392200Y-92547800D01*
D58*
X177724740Y-107610000D02*
X180010740Y-107610000D01*
D61*
X209579740Y-57818220D02*
X208624740Y-56863220D01*
D58*
X144642140Y-70833220D02*
X141314740Y-70833220D01*
X153934740Y-67253220D02*
X146672740Y-67253220D01*
D57*
X132600000Y-93640000D02*
X132600000Y-94122600D01*
D58*
X180645740Y-113325000D02*
X185344740Y-113325000D01*
X156134740Y-75317220D02*
X155157740Y-76294220D01*
X141314740Y-55593220D02*
X146013740Y-55593220D01*
X180010740Y-98720000D02*
X180645740Y-99355000D01*
D57*
X150380000Y-94122600D02*
X149313200Y-95189400D01*
D58*
X146013740Y-55593220D02*
X149569740Y-59149220D01*
X177509740Y-54069220D02*
X178525740Y-53053220D01*
D57*
X107200000Y-93640000D02*
X107200000Y-94122600D01*
D58*
X147918740Y-71468220D02*
X145505740Y-73881220D01*
X175604740Y-49065420D02*
X175604740Y-47973220D01*
D57*
X115145000Y-104380000D02*
X115145000Y-100833400D01*
X159565000Y-104380000D02*
X159565000Y-100056400D01*
D58*
X144743740Y-78453220D02*
X141314740Y-78453220D01*
D57*
X115912200Y-92547800D02*
X117360000Y-91100000D01*
D58*
X161634740Y-58053220D02*
X161634740Y-51275220D01*
X173973940Y-62253220D02*
X179363940Y-56863220D01*
D57*
X163105400Y-98745400D02*
X163080000Y-98720000D01*
X106311000Y-123231000D02*
X107200000Y-124120000D01*
D58*
X148995440Y-68753220D02*
X146648740Y-71099920D01*
D59*
X107210000Y-60673220D02*
X111020000Y-60673220D01*
D58*
X152205740Y-59753220D02*
X153934740Y-59753220D01*
D57*
X151355000Y-100584000D02*
X151355000Y-104380000D01*
X157111000Y-118278000D02*
X157111000Y-123231000D01*
X134815000Y-100147600D02*
X134815000Y-104380000D01*
X128993200Y-99405800D02*
X129735000Y-100147600D01*
D58*
X210837080Y-37610020D02*
X210837080Y-39423580D01*
D57*
X131711000Y-118278000D02*
X131711000Y-123231000D01*
D58*
X161634740Y-78961220D02*
X161634740Y-86073220D01*
D57*
X110065000Y-104380000D02*
X110065000Y-100833400D01*
D58*
X177724740Y-115230000D02*
X180010740Y-115230000D01*
X177027140Y-85920820D02*
X176874740Y-86073220D01*
X198044740Y-119675000D02*
X203759740Y-119675000D01*
D57*
X111213200Y-99405800D02*
X111955000Y-100147600D01*
D59*
X120513000Y-81533220D02*
X121053000Y-80993220D01*
D57*
X127845000Y-104380000D02*
X127845000Y-100833400D01*
X150705000Y-104380000D02*
X150705000Y-100833400D01*
X158325000Y-100833400D02*
X158330200Y-100828200D01*
X125955000Y-117226800D02*
X124980000Y-118201800D01*
D58*
X203759740Y-91735000D02*
X204394740Y-91100000D01*
D60*
X111800000Y-130122500D02*
X111300000Y-129622500D01*
D58*
X203378740Y-89830000D02*
X205664740Y-89830000D01*
D59*
X118330000Y-70293220D02*
X120767000Y-70293220D01*
D58*
X123734740Y-41853220D02*
X123734740Y-47674900D01*
X198044740Y-108245000D02*
X202743740Y-108245000D01*
X167134740Y-56036820D02*
X169051540Y-54120020D01*
D57*
X157111000Y-123231000D02*
X158000000Y-124120000D01*
X154393200Y-95189400D02*
X154393200Y-99405800D01*
D60*
X220538750Y-126100000D02*
X220038750Y-126600000D01*
D58*
X147537740Y-61308220D02*
X149982740Y-63753220D01*
D57*
X134073200Y-95189400D02*
X134073200Y-99405800D01*
X156435000Y-100584000D02*
X156435000Y-104380000D01*
D60*
X225827500Y-103200000D02*
X220610000Y-103200000D01*
D58*
X165634740Y-58053220D02*
X165634740Y-55149220D01*
D57*
X144325000Y-104380000D02*
X144325000Y-100056400D01*
D58*
X168184740Y-68253220D02*
X173050140Y-68253220D01*
D57*
X155485400Y-98745400D02*
X155485400Y-99634400D01*
D58*
X176454740Y-108880000D02*
X177724740Y-107610000D01*
D57*
X125305000Y-100833400D02*
X125310200Y-100828200D01*
D60*
X152200000Y-135400000D02*
X152200000Y-130022500D01*
D57*
X119575000Y-100147600D02*
X119575000Y-104380000D01*
D60*
X124100000Y-130182500D02*
X124660000Y-129622500D01*
X220450000Y-99700000D02*
X220050000Y-100100000D01*
D57*
X113845000Y-100056400D02*
X113372200Y-99583600D01*
D59*
X224530000Y-78540000D02*
X227070000Y-78540000D01*
D58*
X178994740Y-103800000D02*
X180010740Y-103800000D01*
D57*
X128495000Y-100584000D02*
X128495000Y-104380000D01*
D58*
X149450740Y-65253220D02*
X148680740Y-64483220D01*
D59*
X108766000Y-77913220D02*
X111330000Y-77913220D01*
D58*
X198044740Y-122215000D02*
X203759740Y-122215000D01*
D57*
X140245400Y-98745400D02*
X140245400Y-99634400D01*
D58*
X170753340Y-54755020D02*
X177357340Y-48151020D01*
D57*
X126453200Y-95189400D02*
X126453200Y-99405800D01*
D58*
X177433540Y-77183220D02*
X179414740Y-77183220D01*
X180645740Y-122215000D02*
X185344740Y-122215000D01*
X162904740Y-51884820D02*
X162904740Y-47973220D01*
X207486820Y-42519840D02*
X207354740Y-42651920D01*
X157634740Y-58053220D02*
X157634740Y-54692020D01*
X198044740Y-95545000D02*
X202743740Y-95545000D01*
D61*
X224950000Y-59708220D02*
X224950000Y-57818220D01*
D58*
X180645740Y-90465000D02*
X185344740Y-90465000D01*
X160634740Y-70053220D02*
X160634740Y-78132420D01*
D57*
X145625000Y-100833400D02*
X145630200Y-100828200D01*
D61*
X225900000Y-68293220D02*
X225900000Y-62908220D01*
D58*
X151093740Y-58006220D02*
X151093740Y-59403220D01*
X203378740Y-94910000D02*
X205664740Y-94910000D01*
D59*
X184494740Y-45433220D02*
X187034740Y-45433220D01*
D58*
X203378740Y-92370000D02*
X205664740Y-92370000D01*
X164174740Y-81755220D02*
X164174740Y-86073220D01*
D60*
X131100000Y-130182500D02*
X131660000Y-129622500D01*
D58*
X170042140Y-53612020D02*
X174334740Y-49319420D01*
D57*
X151853200Y-95189400D02*
X151853200Y-99405800D01*
X125305000Y-113380000D02*
X125305000Y-116926600D01*
X148165000Y-100833400D02*
X148170200Y-100828200D01*
D58*
X144997740Y-53053220D02*
X145251740Y-53053220D01*
D57*
X109740000Y-93640000D02*
X109740000Y-94122600D01*
X110715000Y-100584000D02*
X110715000Y-104380000D01*
D58*
X164134740Y-78514820D02*
X167984740Y-82364820D01*
D57*
X112280000Y-94122600D02*
X111213200Y-95189400D01*
D60*
X220610000Y-103200000D02*
X220050000Y-102640000D01*
D58*
X148553740Y-71722220D02*
X146013740Y-74262220D01*
X171134340Y-78529420D02*
X175604740Y-82999820D01*
D57*
X127545400Y-98745400D02*
X127520000Y-98720000D01*
D58*
X170270740Y-80256620D02*
X171794740Y-81780620D01*
D59*
X187034740Y-45433220D02*
X190844740Y-45433220D01*
D57*
X117685000Y-113380000D02*
X117685000Y-116926600D01*
D58*
X168184740Y-67753220D02*
X173362940Y-67753220D01*
X147283740Y-71188820D02*
X147283740Y-71214220D01*
X180645740Y-100625000D02*
X185344740Y-100625000D01*
X178957540Y-54323220D02*
X179414740Y-54323220D01*
X160134740Y-77819620D02*
X157824740Y-80129620D01*
D57*
X138772200Y-99583600D02*
X138772200Y-92547800D01*
X149110000Y-125390000D02*
X150380000Y-126660000D01*
X160215000Y-117714000D02*
X159651000Y-118278000D01*
D59*
X107210000Y-73373220D02*
X108099000Y-73373220D01*
D58*
X177724740Y-94910000D02*
X180010740Y-94910000D01*
X153582940Y-75710020D02*
X146394740Y-82898220D01*
D57*
X111305000Y-113380000D02*
X111305000Y-117729000D01*
X148815000Y-117226800D02*
X147840000Y-118201800D01*
D58*
X168772140Y-53612020D02*
X170042140Y-53612020D01*
D59*
X135585000Y-35050000D02*
X137475000Y-35050000D01*
D58*
X153934740Y-66753220D02*
X146283740Y-66753220D01*
X203759740Y-127295000D02*
X204394740Y-126660000D01*
D57*
X115795000Y-100584000D02*
X115795000Y-104380000D01*
X158025400Y-98745400D02*
X158000000Y-98720000D01*
D58*
X165134740Y-72303220D02*
X165134740Y-77787620D01*
X150230140Y-50360820D02*
X148934740Y-49065420D01*
D60*
X225816250Y-129600000D02*
X220498750Y-129600000D01*
D57*
X118833200Y-99405800D02*
X119575000Y-100147600D01*
X152920000Y-94122600D02*
X151853200Y-95189400D01*
D59*
X210082700Y-85034360D02*
X208393600Y-85034360D01*
D57*
X159651000Y-123231000D02*
X160540000Y-124120000D01*
X129171000Y-118278000D02*
X129171000Y-123231000D01*
D58*
X165184740Y-60253220D02*
X171274940Y-60253220D01*
D57*
X105752200Y-92547800D02*
X107200000Y-91100000D01*
X137705400Y-98745400D02*
X137705400Y-99634400D01*
X111391000Y-118278000D02*
X111391000Y-123231000D01*
D58*
X180010740Y-108880000D02*
X180645740Y-109515000D01*
X177724740Y-105070000D02*
X180010740Y-105070000D01*
D57*
X159270000Y-125390000D02*
X160540000Y-126660000D01*
D58*
X159634740Y-77481420D02*
X156554740Y-80561420D01*
D57*
X123913200Y-95189400D02*
X123913200Y-99405800D01*
D60*
X225827500Y-94400000D02*
X220510000Y-94400000D01*
D57*
X123415000Y-100584000D02*
X123415000Y-104380000D01*
D58*
X203378740Y-97450000D02*
X205664740Y-97450000D01*
D57*
X148932200Y-99583600D02*
X148932200Y-92547800D01*
D58*
X202743740Y-118405000D02*
X203378740Y-117770000D01*
D57*
X126631000Y-118278000D02*
X126631000Y-123231000D01*
X106225000Y-113380000D02*
X106225000Y-117729000D01*
X116090000Y-125390000D02*
X117360000Y-126660000D01*
X127520000Y-93640000D02*
X127520000Y-94122600D01*
D60*
X225816250Y-126100000D02*
X220538750Y-126100000D01*
D57*
X108292200Y-92547800D02*
X109740000Y-91100000D01*
D59*
X180684740Y-84803220D02*
X181954740Y-86073220D01*
D60*
X220498750Y-129600000D02*
X220038750Y-129140000D01*
D57*
X156435000Y-100584000D02*
X155485400Y-99634400D01*
X108292200Y-99583600D02*
X108292200Y-92547800D01*
X137355000Y-100147600D02*
X137355000Y-104380000D01*
D58*
X150585740Y-59657220D02*
X151681740Y-60753220D01*
D57*
X123415000Y-117226800D02*
X122440000Y-118201800D01*
D58*
X169254740Y-82745820D02*
X169254740Y-86073220D01*
D57*
X143735000Y-100584000D02*
X143735000Y-104380000D01*
D58*
X149188740Y-72331820D02*
X149188740Y-72331820D01*
D57*
X151853200Y-99405800D02*
X152595000Y-100147600D01*
D58*
X151257940Y-71253220D02*
X149823740Y-72687420D01*
D61*
X210529740Y-68293220D02*
X210529740Y-62908220D01*
D58*
X198044740Y-98085000D02*
X202743740Y-98085000D01*
X163634740Y-79005420D02*
X166714740Y-82085420D01*
X178994740Y-96180000D02*
X180010740Y-96180000D01*
D57*
X139331000Y-123231000D02*
X140220000Y-124120000D01*
D58*
X145251740Y-53053220D02*
X150585740Y-58387220D01*
X202743740Y-115865000D02*
X203378740Y-115230000D01*
D57*
X154190000Y-118024000D02*
X154190000Y-125390000D01*
X152595000Y-100147600D02*
X152595000Y-104380000D01*
X106225000Y-104380000D02*
X106225000Y-100056400D01*
D59*
X219450000Y-81080000D02*
X221990000Y-81080000D01*
D57*
X119575000Y-117714000D02*
X119011000Y-118278000D01*
D59*
X181954740Y-88613220D02*
X141314740Y-88613220D01*
D58*
X167984740Y-82364820D02*
X167984740Y-83533220D01*
D57*
X132275000Y-100147600D02*
X132275000Y-104380000D01*
D58*
X157227840Y-49649620D02*
X157138940Y-49649620D01*
D59*
X108766000Y-70293220D02*
X111330000Y-70293220D01*
D57*
X150705000Y-113380000D02*
X150705000Y-116926600D01*
X145300000Y-94122600D02*
X144233200Y-95189400D01*
X114495000Y-100147600D02*
X114495000Y-104380000D01*
X162105000Y-117729000D02*
X161810000Y-118024000D01*
X119900000Y-94122600D02*
X118833200Y-95189400D01*
X113931000Y-123231000D02*
X114820000Y-124120000D01*
D60*
X207486820Y-37381420D02*
X207486820Y-42519840D01*
D57*
X126072200Y-92547800D02*
X127520000Y-91100000D01*
D58*
X177724740Y-99990000D02*
X180010740Y-99990000D01*
D57*
X128612200Y-92547800D02*
X130060000Y-91100000D01*
X139245000Y-104380000D02*
X139245000Y-100056400D01*
D59*
X118330000Y-66293220D02*
X120513000Y-66293220D01*
D57*
X154485000Y-104380000D02*
X154485000Y-100056400D01*
D58*
X198044740Y-126025000D02*
X202743740Y-126025000D01*
D57*
X131533200Y-99405800D02*
X132275000Y-100147600D01*
X153895000Y-113380000D02*
X153895000Y-117226800D01*
X145300000Y-93640000D02*
X145300000Y-94122600D01*
X159092200Y-99583600D02*
X159092200Y-92547800D01*
X126250000Y-125390000D02*
X127520000Y-126660000D01*
X136613200Y-95189400D02*
X136613200Y-99405800D01*
D59*
X222777960Y-39361140D02*
X221088860Y-39361140D01*
D58*
X198044740Y-94275000D02*
X203759740Y-94275000D01*
D57*
X139153200Y-95189400D02*
X139153200Y-99405800D01*
D58*
X155792740Y-77386420D02*
X154268740Y-77386420D01*
X151419740Y-61253220D02*
X150077740Y-59911220D01*
D57*
X146275000Y-100584000D02*
X146275000Y-104380000D01*
D58*
X180645740Y-94275000D02*
X185344740Y-94275000D01*
X203378740Y-105070000D02*
X205664740Y-105070000D01*
D57*
X143085000Y-100833400D02*
X143090200Y-100828200D01*
D58*
X177154140Y-74643220D02*
X179414740Y-74643220D01*
X160634740Y-50834020D02*
X159094740Y-49294020D01*
X164134740Y-54261620D02*
X167984740Y-50411620D01*
D57*
X129085000Y-113380000D02*
X129085000Y-117729000D01*
X137705400Y-98745400D02*
X137680000Y-98720000D01*
X144030000Y-125390000D02*
X145300000Y-126660000D01*
D58*
X203378740Y-122850000D02*
X205664740Y-122850000D01*
X180010740Y-91100000D02*
X180645740Y-91735000D01*
X202743740Y-108245000D02*
X203378740Y-107610000D01*
D57*
X137355000Y-117714000D02*
X136791000Y-118278000D01*
X119575000Y-113380000D02*
X119575000Y-117714000D01*
D58*
X177724740Y-112690000D02*
X180010740Y-112690000D01*
X180645740Y-110785000D02*
X185344740Y-110785000D01*
D57*
X115145000Y-100833400D02*
X115150200Y-100828200D01*
D58*
X143854740Y-61943220D02*
X147537740Y-61943220D01*
D60*
X134600000Y-135400000D02*
X134600000Y-130022500D01*
D57*
X140220000Y-94122600D02*
X139153200Y-95189400D01*
D58*
X180010740Y-110150000D02*
X180645740Y-110785000D01*
X156134740Y-55706620D02*
X151347740Y-50919620D01*
X178994740Y-129200000D02*
X180010740Y-129200000D01*
D57*
X160565400Y-98745400D02*
X160540000Y-98720000D01*
X117035000Y-113380000D02*
X117035000Y-117714000D01*
D60*
X220550000Y-108500000D02*
X220050000Y-109000000D01*
D61*
X209579740Y-59708220D02*
X209579740Y-57818220D01*
D57*
X139245000Y-100056400D02*
X138772200Y-99583600D01*
X147515000Y-100147600D02*
X147515000Y-104380000D01*
D58*
X180010740Y-115230000D02*
X180645740Y-115865000D01*
X164174740Y-51757820D02*
X164174740Y-45433220D01*
X198044740Y-129835000D02*
X203759740Y-129835000D01*
D60*
X225816250Y-120800000D02*
X220598750Y-120800000D01*
D57*
X123532200Y-99583600D02*
X123532200Y-92547800D01*
D58*
X144870740Y-75913220D02*
X141314740Y-75913220D01*
D57*
X159565000Y-100056400D02*
X159092200Y-99583600D01*
D58*
X169254740Y-50614820D02*
X169254740Y-45433220D01*
X168187940Y-51757820D02*
X169102340Y-51757820D01*
D57*
X158325000Y-113380000D02*
X158325000Y-116926600D01*
X108851000Y-123231000D02*
X109740000Y-124120000D01*
D58*
X177027140Y-83025220D02*
X177027140Y-85920820D01*
X180010740Y-106340000D02*
X180645740Y-106975000D01*
X152744740Y-80586820D02*
X152744740Y-83533220D01*
X146013740Y-74262220D02*
X146013740Y-76040220D01*
D57*
X115912200Y-99583600D02*
X115912200Y-92547800D01*
D58*
X175909540Y-74897220D02*
X176925540Y-75913220D01*
D57*
X138772200Y-92547800D02*
X140220000Y-91100000D01*
X141785000Y-104380000D02*
X141785000Y-100056400D01*
X118335000Y-117226800D02*
X117360000Y-118201800D01*
D58*
X150077740Y-59911220D02*
X150077740Y-58768220D01*
D57*
X136705000Y-104380000D02*
X136705000Y-100056400D01*
D61*
X217350000Y-57818220D02*
X216395000Y-56863220D01*
D58*
X178525740Y-60673220D02*
X181954740Y-60673220D01*
X166634740Y-58053220D02*
X166634740Y-55749420D01*
X155634740Y-56400420D02*
X151677940Y-52443620D01*
D57*
X117685000Y-100833400D02*
X117690200Y-100828200D01*
D58*
X159134740Y-69303220D02*
X159134740Y-77194020D01*
X169215140Y-54755020D02*
X170753340Y-54755020D01*
D60*
X157500000Y-135400000D02*
X157500000Y-130082500D01*
X157500000Y-130082500D02*
X157960000Y-129622500D01*
D58*
X180010740Y-102530000D02*
X180645740Y-103165000D01*
D57*
X139895000Y-100147600D02*
X139895000Y-104380000D01*
D58*
X173050140Y-68253220D02*
X176900140Y-72103220D01*
D57*
X130385000Y-100833400D02*
X130390200Y-100828200D01*
D58*
X198044740Y-124755000D02*
X203759740Y-124755000D01*
D57*
X137680000Y-93640000D02*
X137680000Y-94122600D01*
X157025000Y-100056400D02*
X156552200Y-99583600D01*
X164055000Y-100584000D02*
X163105400Y-99634400D01*
X149405000Y-117729000D02*
X149110000Y-118024000D01*
X106311000Y-118278000D02*
X106311000Y-123231000D01*
X118452200Y-99583600D02*
X118452200Y-92547800D01*
X164055000Y-117226800D02*
X163080000Y-118201800D01*
X122765000Y-113380000D02*
X122765000Y-116926600D01*
D58*
X198044740Y-128565000D02*
X202743740Y-128565000D01*
D57*
X136115000Y-117226800D02*
X135140000Y-118201800D01*
D58*
X205664740Y-99990000D02*
X206934740Y-101260000D01*
X198044740Y-117135000D02*
X203759740Y-117135000D01*
D59*
X143854740Y-47973220D02*
X146394740Y-50513220D01*
D58*
X181675340Y-81272620D02*
X181954740Y-80993220D01*
D59*
X222777960Y-36358860D02*
X221088860Y-36358860D01*
D57*
X111391000Y-123231000D02*
X112280000Y-124120000D01*
D58*
X170524740Y-50335420D02*
X170524740Y-47973220D01*
X167134740Y-76688820D02*
X168975340Y-78529420D01*
D59*
X135585000Y-33150000D02*
X137475000Y-33150000D01*
D58*
X113445200Y-44604040D02*
X113445200Y-47804440D01*
D57*
X155785000Y-116926600D02*
X155790200Y-116931800D01*
X132600000Y-94122600D02*
X131533200Y-95189400D01*
D58*
X180645740Y-124755000D02*
X185344740Y-124755000D01*
D57*
X162755000Y-113380000D02*
X162755000Y-117714000D01*
X141312200Y-92547800D02*
X142760000Y-91100000D01*
X114495000Y-113380000D02*
X114495000Y-117714000D01*
D58*
X176454740Y-98720000D02*
X177724740Y-97450000D01*
D60*
X194500000Y-31745000D02*
X194500000Y-35555000D01*
D58*
X118134040Y-43344200D02*
X117255200Y-44223040D01*
D57*
X150055000Y-100147600D02*
X150055000Y-104380000D01*
D58*
X148581040Y-68253220D02*
X146013740Y-70820520D01*
X172449940Y-69253220D02*
X176620740Y-73424020D01*
D57*
X154012200Y-99583600D02*
X154012200Y-92547800D01*
D58*
X165934740Y-64753220D02*
X176960340Y-64753220D01*
D57*
X155785000Y-100833400D02*
X155790200Y-100828200D01*
D58*
X144870740Y-51783220D02*
X151093740Y-58006220D01*
X147537740Y-60800220D02*
X147537740Y-61308220D01*
X165934740Y-64253220D02*
X176622140Y-64253220D01*
D57*
X131035000Y-100584000D02*
X131035000Y-104380000D01*
X158025400Y-98745400D02*
X158025400Y-99634400D01*
D58*
X156618240Y-50208420D02*
X156605540Y-50208420D01*
D59*
X118640000Y-58133220D02*
X122450000Y-58133220D01*
D58*
X144375440Y-73373220D02*
X141314740Y-73373220D01*
D59*
X130495000Y-33150000D02*
X129540000Y-32195000D01*
D58*
X147029740Y-58133220D02*
X148553740Y-59657220D01*
D57*
X119925400Y-98745400D02*
X119900000Y-98720000D01*
D58*
X180645740Y-119675000D02*
X185344740Y-119675000D01*
X203759740Y-124755000D02*
X204394740Y-124120000D01*
X155284740Y-48887620D02*
X155284740Y-47973220D01*
D57*
X133575000Y-113380000D02*
X133575000Y-117226800D01*
X152945400Y-98745400D02*
X152945400Y-99634400D01*
D58*
X176620740Y-74109820D02*
X177154140Y-74643220D01*
D59*
X107210000Y-73373220D02*
X108099000Y-73373220D01*
D58*
X146521740Y-56863220D02*
X149061740Y-59403220D01*
X171300340Y-71253220D02*
X169334740Y-71253220D01*
D57*
X141195000Y-113380000D02*
X141195000Y-117226800D01*
X161632200Y-92547800D02*
X163080000Y-91100000D01*
D58*
X175503140Y-68293220D02*
X181954740Y-68293220D01*
X156503940Y-79824820D02*
X156072140Y-79824820D01*
D57*
X148815000Y-100584000D02*
X147865400Y-99634400D01*
X127545400Y-98745400D02*
X127545400Y-99634400D01*
D59*
X219450000Y-83620000D02*
X221990000Y-83620000D01*
D57*
X106875000Y-117714000D02*
X106311000Y-118278000D01*
D58*
X213232300Y-39639480D02*
X214974740Y-41381920D01*
X113737300Y-43422940D02*
X112175200Y-44985040D01*
X178994740Y-124120000D02*
X180010740Y-124120000D01*
X156072140Y-79824820D02*
X155284740Y-80612220D01*
D57*
X128790000Y-125390000D02*
X130060000Y-126660000D01*
D58*
X179122640Y-79431120D02*
X178030440Y-79431120D01*
D57*
X124005000Y-100056400D02*
X123532200Y-99583600D01*
X116293200Y-95189400D02*
X116293200Y-99405800D01*
D58*
X165634740Y-73453220D02*
X165634740Y-77551020D01*
D59*
X121053000Y-80993220D02*
X122450000Y-80993220D01*
D58*
X205664740Y-110150000D02*
X206934740Y-111420000D01*
X153934740Y-69753220D02*
X149633740Y-69753220D01*
D59*
X118330000Y-81533220D02*
X120513000Y-81533220D01*
D58*
X149569740Y-60165220D02*
X151157740Y-61753220D01*
X180645740Y-129835000D02*
X185344740Y-129835000D01*
D57*
X133870000Y-125390000D02*
X135140000Y-126660000D01*
X149405000Y-104380000D02*
X149405000Y-100056400D01*
D58*
X149061740Y-59403220D02*
X149061740Y-60419220D01*
D59*
X221088860Y-36358860D02*
X220050000Y-35320000D01*
D58*
X202743740Y-98085000D02*
X203378740Y-97450000D01*
X198044740Y-91735000D02*
X203759740Y-91735000D01*
X146521740Y-74998820D02*
X146521740Y-76675220D01*
D57*
X107225400Y-98745400D02*
X107225400Y-99634400D01*
X113845000Y-117729000D02*
X113550000Y-118024000D01*
D58*
X150204740Y-48125620D02*
X150204740Y-47973220D01*
D57*
X129085000Y-117729000D02*
X128790000Y-118024000D01*
D58*
X114837120Y-43466120D02*
X114156400Y-44146840D01*
D59*
X224530000Y-76000000D02*
X227070000Y-76000000D01*
D58*
X159134740Y-58053220D02*
X159134740Y-52724920D01*
X166634740Y-73453220D02*
X166634740Y-77001620D01*
D57*
X140545000Y-104380000D02*
X140545000Y-100833400D01*
D59*
X214032400Y-37610020D02*
X214032400Y-39169580D01*
D57*
X118925000Y-104380000D02*
X118925000Y-100056400D01*
X142760000Y-94122600D02*
X141693200Y-95189400D01*
X153895000Y-100584000D02*
X153895000Y-104380000D01*
D61*
X211479740Y-64798220D02*
X212434740Y-65753220D01*
D59*
X120767000Y-85533220D02*
X121307000Y-86073220D01*
D57*
X149405000Y-100056400D02*
X148932200Y-99583600D01*
D58*
X176454740Y-124120000D02*
X177724740Y-122850000D01*
D57*
X122115000Y-113380000D02*
X122115000Y-117714000D01*
X134165000Y-117729000D02*
X133870000Y-118024000D01*
X155460000Y-93640000D02*
X155460000Y-94122600D01*
D58*
X167184740Y-67253220D02*
X173650340Y-67253220D01*
D57*
X120992200Y-99583600D02*
X120992200Y-92547800D01*
D61*
X219250000Y-57818220D02*
X220205000Y-56863220D01*
D58*
X149219340Y-69253220D02*
X147283740Y-71188820D01*
D59*
X138774740Y-86073220D02*
X141314740Y-86073220D01*
D61*
X217350000Y-59708220D02*
X217350000Y-57818220D01*
D58*
X178994740Y-113960000D02*
X180010740Y-113960000D01*
D57*
X153245000Y-100833400D02*
X153250200Y-100828200D01*
D58*
X171663940Y-70753220D02*
X174588740Y-73678020D01*
X161134740Y-70553220D02*
X161134740Y-78546820D01*
D57*
X118630000Y-118024000D02*
X118630000Y-125390000D01*
D58*
X122533320Y-45066320D02*
X122335200Y-45264440D01*
D57*
X112305400Y-98745400D02*
X112280000Y-98720000D01*
X123710000Y-118024000D02*
X123710000Y-125390000D01*
D58*
X202743740Y-126025000D02*
X203378740Y-125390000D01*
D57*
X107525000Y-116926600D02*
X107530200Y-116931800D01*
X122465400Y-98745400D02*
X122440000Y-98720000D01*
X126545000Y-100056400D02*
X126072200Y-99583600D01*
X114495000Y-117714000D02*
X113931000Y-118278000D01*
D58*
X151347740Y-50919620D02*
X149899940Y-50919620D01*
X180010740Y-127930000D02*
X180645740Y-128565000D01*
D57*
X141195000Y-100584000D02*
X141195000Y-104380000D01*
D59*
X120513000Y-66293220D02*
X121053000Y-65753220D01*
D58*
X155284740Y-80612220D02*
X155284740Y-83533220D01*
D59*
X120513000Y-73913220D02*
X121053000Y-73373220D01*
X108639000Y-81533220D02*
X111330000Y-81533220D01*
D57*
X136115000Y-100584000D02*
X135165400Y-99634400D01*
X159565000Y-113380000D02*
X159565000Y-117729000D01*
D59*
X108226000Y-86073220D02*
X108766000Y-85533220D01*
D57*
X140545000Y-116926600D02*
X140550200Y-116931800D01*
D58*
X118525200Y-44223040D02*
X118525200Y-47804440D01*
X205664740Y-107610000D02*
X206934740Y-108880000D01*
D57*
X161515000Y-117226800D02*
X160540000Y-118201800D01*
X119011000Y-118278000D02*
X119011000Y-123231000D01*
X109415000Y-117714000D02*
X108851000Y-118278000D01*
X146773200Y-95189400D02*
X146773200Y-99405800D01*
X159270000Y-118024000D02*
X159270000Y-125390000D01*
D58*
X198044740Y-100625000D02*
X202743740Y-100625000D01*
X177357340Y-48151020D02*
X177357340Y-45915820D01*
D57*
X122115000Y-117714000D02*
X121551000Y-118278000D01*
X119011000Y-123231000D02*
X119900000Y-124120000D01*
X146865000Y-100056400D02*
X146392200Y-99583600D01*
X136115000Y-100584000D02*
X136115000Y-104380000D01*
X113845000Y-113380000D02*
X113845000Y-117729000D01*
D58*
X203759740Y-99355000D02*
X204394740Y-98720000D01*
D57*
X140220000Y-93640000D02*
X140220000Y-94122600D01*
D58*
X159134740Y-52724920D02*
X156618240Y-50208420D01*
D57*
X120875000Y-117226800D02*
X119900000Y-118201800D01*
D58*
X153934740Y-68753220D02*
X148995440Y-68753220D01*
X158134740Y-54303020D02*
X152744740Y-48913020D01*
X202743740Y-123485000D02*
X203378740Y-122850000D01*
D57*
X156933200Y-99405800D02*
X157675000Y-100147600D01*
X155135000Y-117714000D02*
X154571000Y-118278000D01*
D58*
X121433500Y-42478060D02*
X121433500Y-43600740D01*
X167184740Y-66253220D02*
X174250540Y-66253220D01*
D59*
X121053000Y-73373220D02*
X122450000Y-73373220D01*
D57*
X111305000Y-117729000D02*
X111010000Y-118024000D01*
D58*
X119233860Y-42478060D02*
X119233860Y-43514380D01*
X150022740Y-70253220D02*
X148553740Y-71722220D01*
X153934740Y-70253220D02*
X150022740Y-70253220D01*
X149633740Y-69753220D02*
X147918740Y-71468220D01*
X164634740Y-54498220D02*
X167984740Y-51148220D01*
X155634740Y-75055220D02*
X154979940Y-75710020D01*
D60*
X220598750Y-120800000D02*
X220038750Y-120240000D01*
D58*
X147664740Y-82390220D02*
X147664740Y-83533220D01*
X156605540Y-50208420D02*
X155284740Y-48887620D01*
X170499340Y-79672420D02*
X173064740Y-82237820D01*
D57*
X135140000Y-94122600D02*
X134073200Y-95189400D01*
D58*
X211637180Y-39766480D02*
X209894740Y-41508920D01*
D57*
X113550000Y-118024000D02*
X113550000Y-125390000D01*
D58*
X160634740Y-58053220D02*
X160634740Y-50834020D01*
X198044740Y-123485000D02*
X202743740Y-123485000D01*
X198044740Y-104435000D02*
X203759740Y-104435000D01*
D57*
X162191000Y-123231000D02*
X163080000Y-124120000D01*
X140545000Y-100833400D02*
X140550200Y-100828200D01*
X117685000Y-104380000D02*
X117685000Y-100833400D01*
D60*
X189420000Y-31745000D02*
X189420000Y-35555000D01*
D58*
X145632740Y-46195220D02*
X146394740Y-45433220D01*
D57*
X121170000Y-125390000D02*
X122440000Y-126660000D01*
X149491000Y-118278000D02*
X149491000Y-123231000D01*
X125005400Y-98745400D02*
X125005400Y-99634400D01*
X162755000Y-117714000D02*
X162191000Y-118278000D01*
X131152200Y-99583600D02*
X131152200Y-92547800D01*
D58*
X156634740Y-58053220D02*
X156634740Y-55419220D01*
D57*
X107525000Y-100833400D02*
X107530200Y-100828200D01*
D59*
X107210000Y-78453220D02*
X108226000Y-78453220D01*
D58*
X159134740Y-77194020D02*
X156503940Y-79824820D01*
D57*
X131330000Y-118024000D02*
X131330000Y-125390000D01*
D61*
X218300000Y-68293220D02*
X218300000Y-62908220D01*
D57*
X132625400Y-98745400D02*
X132600000Y-98720000D01*
X147840000Y-94122600D02*
X146773200Y-95189400D01*
D59*
X210082700Y-71872080D02*
X208393600Y-71872080D01*
D58*
X176442940Y-70833220D02*
X181954740Y-70833220D01*
D57*
X148815000Y-113380000D02*
X148815000Y-117226800D01*
D58*
X177001740Y-53586620D02*
X178805140Y-51783220D01*
X120333680Y-42478060D02*
X120333680Y-43557560D01*
D57*
X153895000Y-100584000D02*
X152945400Y-99634400D01*
D60*
X134600000Y-130022500D02*
X134200000Y-129622500D01*
D58*
X148553740Y-60800220D02*
X150506740Y-62753220D01*
D60*
X220438750Y-117300000D02*
X220038750Y-117700000D01*
D58*
X203759740Y-119675000D02*
X204394740Y-119040000D01*
D57*
X146951000Y-118278000D02*
X146951000Y-123231000D01*
X125955000Y-100584000D02*
X125955000Y-104380000D01*
D58*
X169051540Y-54120020D02*
X170550140Y-54120020D01*
D59*
X224530000Y-83620000D02*
X227070000Y-83620000D01*
D58*
X167634740Y-76325220D02*
X169305540Y-77996020D01*
D57*
X138655000Y-100584000D02*
X137705400Y-99634400D01*
X113931000Y-118278000D02*
X113931000Y-123231000D01*
X126250000Y-118024000D02*
X126250000Y-125390000D01*
D58*
X141314740Y-60673220D02*
X147410740Y-60673220D01*
D57*
X163080000Y-93640000D02*
X163080000Y-94122600D01*
D58*
X180645740Y-91735000D02*
X185344740Y-91735000D01*
D57*
X106133200Y-95189400D02*
X106133200Y-99405800D01*
X146865000Y-104380000D02*
X146865000Y-100056400D01*
D59*
X215482740Y-40619920D02*
X217514740Y-40619920D01*
X181954740Y-45433220D02*
X180684740Y-46703220D01*
D57*
X155460000Y-94122600D02*
X154393200Y-95189400D01*
D58*
X159634740Y-70053220D02*
X159634740Y-77481420D01*
X203759740Y-112055000D02*
X204394740Y-111420000D01*
X168391140Y-52392820D02*
X169254740Y-52392820D01*
D57*
X112605000Y-116926600D02*
X112610200Y-116931800D01*
D58*
X176454740Y-129200000D02*
X177724740Y-127930000D01*
D57*
X143852200Y-92547800D02*
X145300000Y-91100000D01*
D58*
X175223740Y-73576420D02*
X175223740Y-74973420D01*
X177724740Y-110150000D02*
X180010740Y-110150000D01*
X177724740Y-92370000D02*
X180010740Y-92370000D01*
D57*
X149313200Y-99405800D02*
X150055000Y-100147600D01*
D60*
X197040000Y-38095000D02*
X197040000Y-41905000D01*
D58*
X149982740Y-63753220D02*
X153934740Y-63753220D01*
D57*
X154393200Y-99405800D02*
X155135000Y-100147600D01*
D58*
X172162540Y-69753220D02*
X175909540Y-73500220D01*
X154979940Y-75710020D02*
X153582940Y-75710020D01*
D57*
X156730000Y-118024000D02*
X156730000Y-125390000D01*
X136232200Y-92547800D02*
X137680000Y-91100000D01*
X131625000Y-117729000D02*
X131330000Y-118024000D01*
D59*
X113560000Y-53053220D02*
X116100000Y-53053220D01*
D58*
X171794740Y-81780620D02*
X171794740Y-86073220D01*
D57*
X121373200Y-99405800D02*
X122115000Y-100147600D01*
X124005000Y-117729000D02*
X123710000Y-118024000D01*
D60*
X127600000Y-130022500D02*
X127200000Y-129622500D01*
X194500000Y-38095000D02*
X194500000Y-41905000D01*
D57*
X163405000Y-100833400D02*
X163410200Y-100828200D01*
X146275000Y-117226800D02*
X145300000Y-118201800D01*
D58*
X203759740Y-114595000D02*
X204394740Y-113960000D01*
X169305540Y-77996020D02*
X171997940Y-77996020D01*
D57*
X161515000Y-100584000D02*
X160565400Y-99634400D01*
X122765000Y-104380000D02*
X122765000Y-100833400D01*
D58*
X165184740Y-63253220D02*
X175132940Y-63253220D01*
X198044740Y-118405000D02*
X202743740Y-118405000D01*
D57*
X139245000Y-113380000D02*
X139245000Y-117729000D01*
D59*
X113560000Y-58133220D02*
X116100000Y-58133220D01*
D57*
X133575000Y-100584000D02*
X132625400Y-99634400D01*
X108765000Y-100056400D02*
X108292200Y-99583600D01*
D58*
X180010740Y-116500000D02*
X180645740Y-117135000D01*
X163634740Y-58053220D02*
X163634740Y-53974220D01*
X158134740Y-76593820D02*
X156122940Y-78605620D01*
X145251740Y-53053220D02*
X145251740Y-53053220D01*
D57*
X152031000Y-123231000D02*
X152920000Y-124120000D01*
D61*
X217284000Y-62974220D02*
X217350000Y-62908220D01*
D57*
X154571000Y-123231000D02*
X155460000Y-124120000D01*
D58*
X178994740Y-106340000D02*
X180010740Y-106340000D01*
X158634740Y-53990220D02*
X154014740Y-49370220D01*
D57*
X116293200Y-99405800D02*
X117035000Y-100147600D01*
X107525000Y-113380000D02*
X107525000Y-116926600D01*
X143852200Y-99583600D02*
X143852200Y-92547800D01*
X116471000Y-118278000D02*
X116471000Y-123231000D01*
D58*
X146013740Y-76040220D02*
X144870740Y-77183220D01*
X205664740Y-97450000D02*
X206934740Y-98720000D01*
D57*
X159565000Y-117729000D02*
X159270000Y-118024000D01*
D58*
X154268740Y-77386420D02*
X150204740Y-81450420D01*
D57*
X130085400Y-98745400D02*
X130060000Y-98720000D01*
X105752200Y-99583600D02*
X105752200Y-92547800D01*
D58*
X151697740Y-71753220D02*
X147791740Y-75659220D01*
D59*
X132385000Y-33150000D02*
X130495000Y-33150000D01*
D57*
X151945000Y-104380000D02*
X151945000Y-100056400D01*
D58*
X162134740Y-52654820D02*
X162904740Y-51884820D01*
X156634740Y-69303220D02*
X156634740Y-75757020D01*
D57*
X125005400Y-98745400D02*
X124980000Y-98720000D01*
D58*
X203759740Y-101895000D02*
X204394740Y-101260000D01*
X163634740Y-72303220D02*
X163634740Y-79005420D01*
X166134740Y-55487420D02*
X168619740Y-53002420D01*
D57*
X131625000Y-113380000D02*
X131625000Y-117729000D01*
D58*
X205664740Y-112690000D02*
X206934740Y-113960000D01*
D57*
X131533200Y-95189400D02*
X131533200Y-99405800D01*
X127195000Y-117714000D02*
X126631000Y-118278000D01*
D59*
X138774740Y-86073220D02*
X138774740Y-45433220D01*
D58*
X176454740Y-93640000D02*
X177724740Y-92370000D01*
D57*
X109765400Y-98745400D02*
X109740000Y-98720000D01*
X128612200Y-99583600D02*
X128612200Y-92547800D01*
X121170000Y-118024000D02*
X121170000Y-125390000D01*
X142435000Y-113380000D02*
X142435000Y-117714000D01*
X127845000Y-100833400D02*
X127850200Y-100828200D01*
X132275000Y-117714000D02*
X131711000Y-118278000D01*
X126545000Y-104380000D02*
X126545000Y-100056400D01*
X121551000Y-123231000D02*
X122440000Y-124120000D01*
D58*
X157634740Y-54692020D02*
X151474740Y-48532020D01*
D57*
X129085000Y-104380000D02*
X129085000Y-100056400D01*
D58*
X151576340Y-50360820D02*
X150230140Y-50360820D01*
X166434740Y-65253220D02*
X178644740Y-65253220D01*
D57*
X146865000Y-113380000D02*
X146865000Y-117729000D01*
D58*
X165184740Y-62253220D02*
X173973940Y-62253220D01*
D57*
X134815000Y-117714000D02*
X134251000Y-118278000D01*
X125955000Y-100584000D02*
X125005400Y-99634400D01*
X135165400Y-98745400D02*
X135140000Y-98720000D01*
X151355000Y-113380000D02*
X151355000Y-117226800D01*
X135165400Y-98745400D02*
X135165400Y-99634400D01*
X136705000Y-113380000D02*
X136705000Y-117729000D01*
X136705000Y-117729000D02*
X136410000Y-118024000D01*
D58*
X161634740Y-70553220D02*
X161634740Y-78961220D01*
X165934740Y-63753220D02*
X175445740Y-63753220D01*
D57*
X113255000Y-100584000D02*
X112305400Y-99634400D01*
D58*
X163134740Y-58053220D02*
X163134740Y-53661420D01*
X174029940Y-75430620D02*
X178030440Y-79431120D01*
X180010740Y-129200000D02*
X180645740Y-129835000D01*
D61*
X225900000Y-59708220D02*
X225900000Y-54323220D01*
D57*
X136791000Y-123231000D02*
X137680000Y-124120000D01*
X146392200Y-92547800D02*
X147840000Y-91100000D01*
D58*
X180645740Y-118405000D02*
X185344740Y-118405000D01*
D57*
X111955000Y-117714000D02*
X111391000Y-118278000D01*
X164055000Y-113380000D02*
X164055000Y-117226800D01*
D58*
X178994740Y-116500000D02*
X180010740Y-116500000D01*
D57*
X162105000Y-113380000D02*
X162105000Y-117729000D01*
X137355000Y-113380000D02*
X137355000Y-117714000D01*
D58*
X203759740Y-109515000D02*
X204394740Y-108880000D01*
X151474740Y-81018620D02*
X151474740Y-86073220D01*
X144362740Y-69563220D02*
X143854740Y-69563220D01*
D57*
X106225000Y-117729000D02*
X105930000Y-118024000D01*
D58*
X180645740Y-99355000D02*
X185344740Y-99355000D01*
X156300740Y-79215220D02*
X155487940Y-79215220D01*
X167634740Y-73453220D02*
X167634740Y-76325220D01*
X153934740Y-67753220D02*
X147722140Y-67753220D01*
D57*
X138655000Y-100584000D02*
X138655000Y-104380000D01*
X128495000Y-117226800D02*
X127520000Y-118201800D01*
D58*
X180645740Y-128565000D02*
X185344740Y-128565000D01*
D57*
X156552200Y-92547800D02*
X158000000Y-91100000D01*
X118925000Y-113380000D02*
X118925000Y-117729000D01*
D58*
X198044740Y-112055000D02*
X203759740Y-112055000D01*
X165184740Y-61253220D02*
X172027540Y-61253220D01*
D60*
X225816250Y-117300000D02*
X220438750Y-117300000D01*
D58*
X144624740Y-66253220D02*
X143854740Y-67023220D01*
D57*
X158000000Y-94122600D02*
X156933200Y-95189400D01*
D58*
X155538740Y-76853020D02*
X154014740Y-76853020D01*
X160134740Y-70053220D02*
X160134740Y-77819620D01*
X168184740Y-69253220D02*
X172449940Y-69253220D01*
D57*
X147515000Y-113380000D02*
X147515000Y-117714000D01*
D58*
X180645740Y-126025000D02*
X185344740Y-126025000D01*
D57*
X110832200Y-92547800D02*
X112280000Y-91100000D01*
X138950000Y-125390000D02*
X140220000Y-126660000D01*
D59*
X121053000Y-73373220D02*
X122450000Y-73373220D01*
D61*
X209579740Y-62908220D02*
X209579740Y-64798220D01*
D58*
X205664740Y-102530000D02*
X206934740Y-103800000D01*
X203378740Y-125390000D02*
X205664740Y-125390000D01*
X150585740Y-58387220D02*
X150585740Y-59657220D01*
X147664740Y-48684420D02*
X147664740Y-47973220D01*
X179122640Y-79431120D02*
X179414740Y-79723220D01*
D60*
X217514740Y-37513500D02*
X217382660Y-37381420D01*
D58*
X158634740Y-76881220D02*
X156300740Y-79215220D01*
D57*
X118335000Y-113380000D02*
X118335000Y-117226800D01*
X135465000Y-100833400D02*
X135470200Y-100828200D01*
X162191000Y-118278000D02*
X162191000Y-123231000D01*
X108851000Y-118278000D02*
X108851000Y-123231000D01*
X144411000Y-118278000D02*
X144411000Y-123231000D01*
D59*
X113560000Y-55593220D02*
X116100000Y-55593220D01*
D57*
X116385000Y-100056400D02*
X115912200Y-99583600D01*
X111010000Y-118024000D02*
X111010000Y-125390000D01*
D59*
X135585000Y-34100000D02*
X140970000Y-34100000D01*
D58*
X205664740Y-115230000D02*
X206934740Y-116500000D01*
X210837080Y-39423580D02*
X209767740Y-40492920D01*
X209767740Y-40492920D02*
X208370740Y-40492920D01*
D57*
X150380000Y-93640000D02*
X150380000Y-94122600D01*
D59*
X107210000Y-80993220D02*
X108099000Y-80993220D01*
D57*
X117385400Y-98745400D02*
X117360000Y-98720000D01*
D58*
X176454740Y-103800000D02*
X177724740Y-102530000D01*
X174029940Y-73982820D02*
X174029940Y-75430620D01*
D60*
X220510000Y-112000000D02*
X220050000Y-111540000D01*
D57*
X149405000Y-113380000D02*
X149405000Y-117729000D01*
X134165000Y-104380000D02*
X134165000Y-100056400D01*
D58*
X147283740Y-71214220D02*
X143854740Y-74643220D01*
D57*
X121465000Y-104380000D02*
X121465000Y-100056400D01*
X127520000Y-94122600D02*
X126453200Y-95189400D01*
X124980000Y-94122600D02*
X123913200Y-95189400D01*
D59*
X120767000Y-70293220D02*
X121307000Y-70833220D01*
D57*
X162105000Y-104380000D02*
X162105000Y-100056400D01*
X145625000Y-113380000D02*
X145625000Y-116926600D01*
D58*
X180010740Y-93640000D02*
X180645740Y-94275000D01*
D57*
X129735000Y-117714000D02*
X129171000Y-118278000D01*
D58*
X176900140Y-72103220D02*
X179414740Y-72103220D01*
D60*
X225827500Y-112000000D02*
X220510000Y-112000000D01*
D58*
X156554740Y-49065420D02*
X156554740Y-45433220D01*
X155157740Y-76294220D02*
X153760740Y-76294220D01*
D59*
X118640000Y-55593220D02*
X122450000Y-55593220D01*
D57*
X163405000Y-104380000D02*
X163405000Y-100833400D01*
D60*
X115300000Y-130082500D02*
X115760000Y-129622500D01*
D58*
X176620740Y-73424020D02*
X176620740Y-74109820D01*
X205664740Y-120310000D02*
X206934740Y-121580000D01*
X168568940Y-79672420D02*
X170499340Y-79672420D01*
D59*
X137475000Y-35050000D02*
X138430000Y-36005000D01*
D57*
X111955000Y-113380000D02*
X111955000Y-117714000D01*
D58*
X180645740Y-106975000D02*
X185344740Y-106975000D01*
D57*
X123913200Y-99405800D02*
X124655000Y-100147600D01*
X162013200Y-95189400D02*
X162013200Y-99405800D01*
X118335000Y-100584000D02*
X118335000Y-104380000D01*
D58*
X180010740Y-119040000D02*
X180645740Y-119675000D01*
D57*
X144975000Y-117714000D02*
X144411000Y-118278000D01*
D60*
X191960000Y-38095000D02*
X191960000Y-41905000D01*
D62*
X202274740Y-44163220D02*
X202274740Y-45433220D01*
D57*
X128495000Y-113380000D02*
X128495000Y-117226800D01*
D58*
X155970540Y-77970620D02*
X154522740Y-77970620D01*
D57*
X117685000Y-116926600D02*
X117690200Y-116931800D01*
D58*
X146283740Y-66753220D02*
X144743740Y-68293220D01*
X207354740Y-41508920D02*
X207354740Y-42651920D01*
X113902400Y-44146840D02*
X113445200Y-44604040D01*
X180010740Y-125390000D02*
X180645740Y-126025000D01*
X117034220Y-43555020D02*
X115985200Y-44604040D01*
X150767340Y-70753220D02*
X149188740Y-72331820D01*
D61*
X226916000Y-62974220D02*
X226850000Y-62908220D01*
D57*
X151472200Y-92547800D02*
X152920000Y-91100000D01*
D58*
X203759740Y-94275000D02*
X204394740Y-93640000D01*
D57*
X117035000Y-117714000D02*
X116471000Y-118278000D01*
D58*
X151474740Y-48532020D02*
X151474740Y-45433220D01*
D57*
X113255000Y-113380000D02*
X113255000Y-117226800D01*
D59*
X184494740Y-45433220D02*
X184494740Y-86073220D01*
D57*
X121465000Y-100056400D02*
X120992200Y-99583600D01*
X131330000Y-125390000D02*
X132600000Y-126660000D01*
D58*
X144870740Y-77183220D02*
X143854740Y-77183220D01*
D57*
X136232200Y-99583600D02*
X136232200Y-92547800D01*
X141693200Y-95189400D02*
X141693200Y-99405800D01*
D58*
X198044740Y-96815000D02*
X203759740Y-96815000D01*
X149569740Y-59149220D02*
X149569740Y-60165220D01*
X172027540Y-61253220D02*
X178957540Y-54323220D01*
D57*
X163405000Y-116926600D02*
X163410200Y-116931800D01*
D59*
X108099000Y-73373220D02*
X108639000Y-73913220D01*
X121307000Y-78453220D02*
X122450000Y-78453220D01*
D58*
X150230140Y-52443620D02*
X145632740Y-47846220D01*
X180010740Y-101260000D02*
X180645740Y-101895000D01*
D61*
X224950000Y-57818220D02*
X223995000Y-56863220D01*
D57*
X157675000Y-100147600D02*
X157675000Y-104380000D01*
D58*
X162634740Y-53297820D02*
X164174740Y-51757820D01*
D57*
X115145000Y-116926600D02*
X115150200Y-116931800D01*
D58*
X177724740Y-127930000D02*
X180010740Y-127930000D01*
D57*
X163080000Y-94122600D02*
X162013200Y-95189400D01*
X112280000Y-93640000D02*
X112280000Y-94122600D01*
D60*
X225827500Y-90900000D02*
X220550000Y-90900000D01*
D57*
X110715000Y-100584000D02*
X109765400Y-99634400D01*
D58*
X154014740Y-49370220D02*
X154014740Y-45433220D01*
D57*
X138005000Y-113380000D02*
X138005000Y-116926600D01*
D58*
X180645740Y-114595000D02*
X185344740Y-114595000D01*
X167984740Y-50411620D02*
X167984740Y-47973220D01*
D57*
X114845400Y-98745400D02*
X114845400Y-99634400D01*
D58*
X147791740Y-77691220D02*
X144489740Y-80993220D01*
D57*
X145625000Y-116926600D02*
X145630200Y-116931800D01*
D58*
X198044740Y-110785000D02*
X202743740Y-110785000D01*
X175960340Y-69563220D02*
X179414740Y-69563220D01*
D57*
X144325000Y-100056400D02*
X143852200Y-99583600D01*
X143085000Y-113380000D02*
X143085000Y-116926600D01*
D59*
X108639000Y-66293220D02*
X111330000Y-66293220D01*
D60*
X143400000Y-135400000D02*
X143400000Y-130122500D01*
D57*
X115145000Y-113380000D02*
X115145000Y-116926600D01*
X135465000Y-104380000D02*
X135465000Y-100833400D01*
D59*
X219450000Y-76000000D02*
X221990000Y-76000000D01*
D57*
X163405000Y-113380000D02*
X163405000Y-116926600D01*
X132925000Y-116926600D02*
X132930200Y-116931800D01*
D58*
X169737340Y-53002420D02*
X173064740Y-49675020D01*
D57*
X126545000Y-113380000D02*
X126545000Y-117729000D01*
D58*
X153760740Y-76294220D02*
X147664740Y-82390220D01*
D57*
X119900000Y-93640000D02*
X119900000Y-94122600D01*
X153245000Y-113380000D02*
X153245000Y-116926600D01*
X158325000Y-104380000D02*
X158325000Y-100833400D01*
X111305000Y-104380000D02*
X111305000Y-100056400D01*
X124005000Y-104380000D02*
X124005000Y-100056400D01*
D58*
X156134740Y-58053220D02*
X156134740Y-55706620D01*
X176454740Y-116500000D02*
X177724740Y-115230000D01*
D57*
X108470000Y-118024000D02*
X108470000Y-125390000D01*
X129735000Y-113380000D02*
X129735000Y-117714000D01*
D58*
X180010740Y-112690000D02*
X180645740Y-113325000D01*
X180010740Y-113960000D02*
X180645740Y-114595000D01*
X157138940Y-49649620D02*
X156554740Y-49065420D01*
D59*
X118640000Y-53053220D02*
X122450000Y-53053220D01*
D58*
X198044740Y-115865000D02*
X202743740Y-115865000D01*
D57*
X109740000Y-94122600D02*
X108673200Y-95189400D01*
D59*
X217514740Y-40619920D02*
X217514740Y-42651920D01*
D58*
X169254740Y-52392820D02*
X171794740Y-49852820D01*
X167984740Y-51148220D02*
X168721340Y-51148220D01*
D57*
X130085400Y-98745400D02*
X130085400Y-99634400D01*
X142435000Y-100147600D02*
X142435000Y-104380000D01*
X139245000Y-117729000D02*
X138950000Y-118024000D01*
D58*
X159634740Y-52056520D02*
X157227840Y-49649620D01*
X153934740Y-68253220D02*
X148581040Y-68253220D01*
D59*
X142584740Y-84803220D02*
X141314740Y-86073220D01*
D58*
X144731040Y-72103220D02*
X143854740Y-72103220D01*
D57*
X155785000Y-104380000D02*
X155785000Y-100833400D01*
D58*
X146648740Y-71099920D02*
X144375440Y-73373220D01*
X198044740Y-103165000D02*
X202743740Y-103165000D01*
D57*
X152945400Y-98745400D02*
X152920000Y-98720000D01*
D58*
X175445740Y-63753220D02*
X178525740Y-60673220D01*
D57*
X146773200Y-99405800D02*
X147515000Y-100147600D01*
X113753200Y-99405800D02*
X114495000Y-100147600D01*
X114820000Y-94122600D02*
X113753200Y-95189400D01*
X122440000Y-93640000D02*
X122440000Y-94122600D01*
D58*
X180010740Y-122850000D02*
X180645740Y-123485000D01*
X146013740Y-70820520D02*
X144731040Y-72103220D01*
D61*
X224950000Y-64798220D02*
X223995000Y-65753220D01*
D58*
X166134740Y-58053220D02*
X166134740Y-55487420D01*
X115936940Y-43509300D02*
X114715200Y-44731040D01*
X143854740Y-56863220D02*
X146521740Y-56863220D01*
D57*
X107225400Y-98745400D02*
X107200000Y-98720000D01*
D59*
X210082700Y-74874360D02*
X208393600Y-74874360D01*
D62*
X143854740Y-32733220D02*
X181954740Y-32733220D01*
D57*
X136115000Y-113380000D02*
X136115000Y-117226800D01*
D59*
X113560000Y-60673220D02*
X116100000Y-60673220D01*
D58*
X145505740Y-69969620D02*
X145505740Y-69969620D01*
D57*
X150705000Y-116926600D02*
X150710200Y-116931800D01*
D60*
X108300000Y-135400000D02*
X108300000Y-130082500D01*
D57*
X150705000Y-100833400D02*
X150710200Y-100828200D01*
X122115000Y-100147600D02*
X122115000Y-104380000D01*
X155485400Y-98745400D02*
X155460000Y-98720000D01*
D58*
X144743740Y-68293220D02*
X141314740Y-68293220D01*
D59*
X210082700Y-82032080D02*
X208393600Y-82032080D01*
D58*
X173445740Y-74160620D02*
X173445740Y-75760820D01*
D60*
X124100000Y-135400000D02*
X124100000Y-130182500D01*
D58*
X147918740Y-71468220D02*
X147918740Y-71468220D01*
D57*
X148932200Y-92547800D02*
X150380000Y-91100000D01*
D58*
X198044740Y-127295000D02*
X203759740Y-127295000D01*
X178805140Y-51783220D02*
X179414740Y-51783220D01*
D57*
X124655000Y-117714000D02*
X124091000Y-118278000D01*
D59*
X208393600Y-85034360D02*
X207354740Y-86073220D01*
X141314740Y-86073220D02*
X141314740Y-88613220D01*
D57*
X127845000Y-113380000D02*
X127845000Y-116926600D01*
D58*
X171274940Y-60253220D02*
X177001740Y-54526420D01*
X167184740Y-66753220D02*
X173963140Y-66753220D01*
D57*
X161632200Y-99583600D02*
X161632200Y-92547800D01*
D58*
X154014740Y-80688420D02*
X154014740Y-86073220D01*
X141314740Y-50513220D02*
X142711740Y-50513220D01*
D57*
X144411000Y-123231000D02*
X145300000Y-124120000D01*
D58*
X157634740Y-76306420D02*
X155970540Y-77970620D01*
X151943740Y-60253220D02*
X153934740Y-60253220D01*
D57*
X115795000Y-100584000D02*
X114845400Y-99634400D01*
X106875000Y-113380000D02*
X106875000Y-117714000D01*
D58*
X146521740Y-76675220D02*
X144743740Y-78453220D01*
D57*
X138005000Y-104380000D02*
X138005000Y-100833400D01*
X162105000Y-100056400D02*
X161632200Y-99583600D01*
D58*
X148553740Y-59657220D02*
X148553740Y-60800220D01*
X158634740Y-58053220D02*
X158634740Y-53990220D01*
D57*
X141785000Y-113380000D02*
X141785000Y-117729000D01*
D58*
X180645740Y-109515000D02*
X185344740Y-109515000D01*
X151728740Y-57752220D02*
X151728740Y-59276220D01*
X151681740Y-60753220D02*
X153934740Y-60753220D01*
D59*
X181954740Y-86073220D02*
X184494740Y-86073220D01*
D57*
X120225000Y-100833400D02*
X120230200Y-100828200D01*
D58*
X152744740Y-48913020D02*
X152744740Y-47973220D01*
X150244740Y-63253220D02*
X153934740Y-63253220D01*
D57*
X130385000Y-113380000D02*
X130385000Y-116926600D01*
D58*
X173064740Y-49675020D02*
X173064740Y-47973220D01*
X176622140Y-64253220D02*
X178932140Y-61943220D01*
X154522740Y-77970620D02*
X151474740Y-81018620D01*
D59*
X141314740Y-42893220D02*
X181954740Y-42893220D01*
D57*
X118833200Y-95189400D02*
X118833200Y-99405800D01*
D58*
X180010740Y-120310000D02*
X180645740Y-120945000D01*
D60*
X148700000Y-130182500D02*
X149260000Y-129622500D01*
D58*
X180645740Y-93005000D02*
X185344740Y-93005000D01*
D57*
X141871000Y-123231000D02*
X142760000Y-124120000D01*
D58*
X171300340Y-71253220D02*
X174029940Y-73982820D01*
X170987540Y-59753220D02*
X176442940Y-54297820D01*
D57*
X122465400Y-98745400D02*
X122465400Y-99634400D01*
D58*
X166714740Y-82085420D02*
X166714740Y-86073220D01*
D57*
X136410000Y-118024000D02*
X136410000Y-125390000D01*
X143735000Y-117226800D02*
X142760000Y-118201800D01*
D59*
X108639000Y-73913220D02*
X111330000Y-73913220D01*
D58*
X157134740Y-76044420D02*
X155792740Y-77386420D01*
D57*
X106875000Y-100147600D02*
X106875000Y-104380000D01*
D58*
X153934740Y-69253220D02*
X149219340Y-69253220D01*
X178994740Y-108880000D02*
X180010740Y-108880000D01*
X175604740Y-82999820D02*
X175604740Y-83533220D01*
X166434740Y-65753220D02*
X181954740Y-65753220D01*
D57*
X111305000Y-100056400D02*
X110832200Y-99583600D01*
D58*
X180645740Y-117135000D02*
X185344740Y-117135000D01*
D57*
X106133200Y-99405800D02*
X106875000Y-100147600D01*
X120875000Y-100584000D02*
X120875000Y-104380000D01*
D59*
X222777960Y-37860000D02*
X220050000Y-37860000D01*
D58*
X156634740Y-55419220D02*
X151576340Y-50360820D01*
X177724740Y-89830000D02*
X180010740Y-89830000D01*
X178994740Y-111420000D02*
X180010740Y-111420000D01*
X203378740Y-115230000D02*
X205664740Y-115230000D01*
D57*
X161515000Y-113380000D02*
X161515000Y-117226800D01*
D58*
X117034220Y-42478060D02*
X117034220Y-43555020D01*
D57*
X132275000Y-113380000D02*
X132275000Y-117714000D01*
X125305000Y-104380000D02*
X125305000Y-100833400D01*
D58*
X149823740Y-64229220D02*
X153910740Y-64229220D01*
X153934740Y-66253220D02*
X144624740Y-66253220D01*
D57*
X141871000Y-118278000D02*
X141871000Y-123231000D01*
D58*
X164634740Y-72303220D02*
X164634740Y-78125820D01*
D57*
X120875000Y-100584000D02*
X119925400Y-99634400D01*
D61*
X209513740Y-62974220D02*
X209579740Y-62908220D01*
D58*
X163134740Y-79419820D02*
X165444740Y-81729820D01*
X147791740Y-75659220D02*
X147791740Y-77691220D01*
X162634740Y-80215220D02*
X164174740Y-81755220D01*
D57*
X116385000Y-104380000D02*
X116385000Y-100056400D01*
X110065000Y-100833400D02*
X110070200Y-100828200D01*
D58*
X203378740Y-127930000D02*
X205664740Y-127930000D01*
X203378740Y-99990000D02*
X205664740Y-99990000D01*
D57*
X159473200Y-95189400D02*
X159473200Y-99405800D01*
X112305400Y-98745400D02*
X112305400Y-99634400D01*
X141785000Y-117729000D02*
X141490000Y-118024000D01*
X155135000Y-113380000D02*
X155135000Y-117714000D01*
X152031000Y-118278000D02*
X152031000Y-123231000D01*
D58*
X205664740Y-105070000D02*
X206934740Y-106340000D01*
D61*
X217350000Y-64798220D02*
X216395000Y-65753220D01*
D57*
X144975000Y-100147600D02*
X144975000Y-104380000D01*
D58*
X151157740Y-61753220D02*
X153934740Y-61753220D01*
X176442940Y-52875420D02*
X178805140Y-50513220D01*
D57*
X123415000Y-113380000D02*
X123415000Y-117226800D01*
X144975000Y-113380000D02*
X144975000Y-117714000D01*
D58*
X180645740Y-95545000D02*
X185344740Y-95545000D01*
D57*
X138655000Y-117226800D02*
X137680000Y-118201800D01*
D58*
X175020540Y-67023220D02*
X179414740Y-67023220D01*
X177966940Y-78453220D02*
X181954740Y-78453220D01*
D59*
X219450000Y-73460000D02*
X221990000Y-73460000D01*
D58*
X165184740Y-60753220D02*
X171638540Y-60753220D01*
D60*
X139900000Y-135400000D02*
X139900000Y-130082500D01*
D57*
X130385000Y-116926600D02*
X130390200Y-116931800D01*
X141490000Y-125390000D02*
X142760000Y-126660000D01*
D58*
X147537740Y-61943220D02*
X149823740Y-64229220D01*
X160364740Y-79316820D02*
X160364740Y-83533220D01*
D59*
X113560000Y-63213220D02*
X116100000Y-63213220D01*
D57*
X142760000Y-93640000D02*
X142760000Y-94122600D01*
D59*
X121307000Y-70833220D02*
X122450000Y-70833220D01*
D57*
X128790000Y-118024000D02*
X128790000Y-125390000D01*
D58*
X176925540Y-75913220D02*
X181954740Y-75913220D01*
X173445740Y-75760820D02*
X178957540Y-81272620D01*
X202743740Y-105705000D02*
X203378740Y-105070000D01*
D57*
X144325000Y-113380000D02*
X144325000Y-117729000D01*
D58*
X165184740Y-62753220D02*
X174286740Y-62753220D01*
X174334740Y-49319420D02*
X174334740Y-45433220D01*
D57*
X121465000Y-113380000D02*
X121465000Y-117729000D01*
X105930000Y-118024000D02*
X105930000Y-125390000D01*
D59*
X132385000Y-34100000D02*
X127000000Y-34100000D01*
X107210000Y-58133220D02*
X111020000Y-58133220D01*
D57*
X113845000Y-104380000D02*
X113845000Y-100056400D01*
D58*
X165184740Y-59753220D02*
X170987540Y-59753220D01*
X147537740Y-59403220D02*
X148045740Y-59911220D01*
D57*
X136613200Y-99405800D02*
X137355000Y-100147600D01*
X131625000Y-100056400D02*
X131152200Y-99583600D01*
X160865000Y-104380000D02*
X160865000Y-100833400D01*
D58*
X173064740Y-82237820D02*
X173064740Y-83533220D01*
D57*
X157025000Y-104380000D02*
X157025000Y-100056400D01*
X141785000Y-100056400D02*
X141312200Y-99583600D01*
D58*
X150506740Y-62753220D02*
X153934740Y-62753220D01*
D59*
X108099000Y-65753220D02*
X108639000Y-66293220D01*
D57*
X116471000Y-123231000D02*
X117360000Y-124120000D01*
D59*
X207354740Y-73373220D02*
X210082700Y-73373220D01*
D61*
X224884000Y-62974220D02*
X224950000Y-62908220D01*
D57*
X149110000Y-118024000D02*
X149110000Y-125390000D01*
D58*
X203378740Y-102530000D02*
X205664740Y-102530000D01*
X170550140Y-54120020D02*
X175604740Y-49065420D01*
D57*
X143085000Y-116926600D02*
X143090200Y-116931800D01*
X146865000Y-117729000D02*
X146570000Y-118024000D01*
D58*
X202743740Y-120945000D02*
X203378740Y-120310000D01*
X168975340Y-78529420D02*
X171134340Y-78529420D01*
D57*
X144233200Y-95189400D02*
X144233200Y-99405800D01*
D61*
X219316000Y-62974220D02*
X219250000Y-62908220D01*
D57*
X160865000Y-113380000D02*
X160865000Y-116926600D01*
X131152200Y-92547800D02*
X132600000Y-91100000D01*
D59*
X146394740Y-80993220D02*
X143854740Y-83533220D01*
D58*
X143854740Y-51783220D02*
X144870740Y-51783220D01*
D57*
X146951000Y-123231000D02*
X147840000Y-124120000D01*
X156552200Y-99583600D02*
X156552200Y-92547800D01*
D61*
X211545740Y-62974220D02*
X211479740Y-62908220D01*
D57*
X151650000Y-125390000D02*
X152920000Y-126660000D01*
X151650000Y-118024000D02*
X151650000Y-125390000D01*
D58*
X177724740Y-97450000D02*
X180010740Y-97450000D01*
X165444740Y-51351420D02*
X165444740Y-47973220D01*
D57*
X158975000Y-117226800D02*
X158000000Y-118201800D01*
D58*
X171900540Y-70253220D02*
X175223740Y-73576420D01*
X171794740Y-49852820D02*
X171794740Y-45433220D01*
D60*
X199580000Y-38095000D02*
X199580000Y-41905000D01*
D57*
X113255000Y-117226800D02*
X112280000Y-118201800D01*
D58*
X160634740Y-78132420D02*
X159094740Y-79672420D01*
D57*
X143085000Y-104380000D02*
X143085000Y-100833400D01*
X160865000Y-116926600D02*
X160870200Y-116931800D01*
D58*
X165634740Y-55149220D02*
X168391140Y-52392820D01*
X180010740Y-126660000D02*
X180645740Y-127295000D01*
D57*
X154485000Y-100056400D02*
X154012200Y-99583600D01*
X121373200Y-95189400D02*
X121373200Y-99405800D01*
X159651000Y-118278000D02*
X159651000Y-123231000D01*
D58*
X172391140Y-61753220D02*
X178551140Y-55593220D01*
D60*
X225827500Y-99700000D02*
X220450000Y-99700000D01*
D58*
X203378740Y-120310000D02*
X205664740Y-120310000D01*
X113737300Y-42478060D02*
X113737300Y-43422940D01*
X149823740Y-72687420D02*
X147150390Y-75360770D01*
D57*
X142785400Y-98745400D02*
X142760000Y-98720000D01*
X124655000Y-113380000D02*
X124655000Y-117714000D01*
D58*
X149569740Y-64737220D02*
X153918740Y-64737220D01*
X176454740Y-96180000D02*
X177724740Y-94910000D01*
D57*
X148815000Y-100584000D02*
X148815000Y-104380000D01*
X158325000Y-116926600D02*
X158330200Y-116931800D01*
D58*
X178994740Y-119040000D02*
X180010740Y-119040000D01*
D57*
X133692200Y-99583600D02*
X133692200Y-92547800D01*
X127195000Y-100147600D02*
X127195000Y-104380000D01*
D58*
X146013740Y-70820520D02*
X146013740Y-70820520D01*
X165134740Y-77787620D02*
X170524740Y-83177620D01*
X149823740Y-72687420D02*
X149823740Y-72687420D01*
D57*
X138005000Y-100833400D02*
X138010200Y-100828200D01*
X138005000Y-116926600D02*
X138010200Y-116931800D01*
D61*
X219250000Y-62908220D02*
X219250000Y-64798220D01*
D57*
X139153200Y-99405800D02*
X139895000Y-100147600D01*
X154571000Y-118278000D02*
X154571000Y-123231000D01*
D61*
X217350000Y-62908220D02*
X217350000Y-64798220D01*
D57*
X148165000Y-116926600D02*
X148170200Y-116931800D01*
X142785400Y-98745400D02*
X142785400Y-99634400D01*
D58*
X180010740Y-103800000D02*
X180645740Y-104435000D01*
D57*
X156730000Y-125390000D02*
X158000000Y-126660000D01*
X160540000Y-94122600D02*
X159473200Y-95189400D01*
D58*
X118134040Y-42478060D02*
X118134040Y-43344200D01*
X203378740Y-117770000D02*
X205664740Y-117770000D01*
X202743740Y-93005000D02*
X203378740Y-92370000D01*
D57*
X128495000Y-100584000D02*
X127545400Y-99634400D01*
D58*
X115936940Y-42478060D02*
X115936940Y-43509300D01*
D59*
X221088860Y-39361140D02*
X220050000Y-40400000D01*
D57*
X147865400Y-98745400D02*
X147865400Y-99634400D01*
X157025000Y-113380000D02*
X157025000Y-117729000D01*
D58*
X165134740Y-54811020D02*
X168187940Y-51757820D01*
X156554740Y-80561420D02*
X156554740Y-86073220D01*
X161134740Y-78546820D02*
X160364740Y-79316820D01*
X157134740Y-69303220D02*
X157134740Y-76044420D01*
D57*
X137680000Y-94122600D02*
X136613200Y-95189400D01*
D58*
X178994740Y-121580000D02*
X180010740Y-121580000D01*
D61*
X219250000Y-64798220D02*
X220205000Y-65753220D01*
D58*
X178906740Y-58133220D02*
X181954740Y-58133220D01*
X148553740Y-71722220D02*
X148553740Y-71722220D01*
D60*
X207486820Y-42519840D02*
X207354740Y-42651920D01*
D58*
X169334740Y-70753220D02*
X171663940Y-70753220D01*
D59*
X198464740Y-45433220D02*
X202274740Y-45433220D01*
D57*
X122765000Y-100833400D02*
X122770200Y-100828200D01*
D60*
X152200000Y-130022500D02*
X151800000Y-129622500D01*
X161000000Y-135400000D02*
X161000000Y-130122500D01*
D58*
X145505740Y-69969620D02*
X144642140Y-70833220D01*
D59*
X118330000Y-85533220D02*
X120767000Y-85533220D01*
D58*
X114837120Y-42478060D02*
X114837120Y-43466120D01*
D60*
X220510000Y-94400000D02*
X220050000Y-93940000D01*
D58*
X177001740Y-54526420D02*
X177001740Y-53586620D01*
D57*
X151945000Y-113380000D02*
X151945000Y-117729000D01*
X152595000Y-117714000D02*
X152031000Y-118278000D01*
D58*
X180010740Y-124120000D02*
X180645740Y-124755000D01*
X117255200Y-44223040D02*
X117255200Y-45264440D01*
D57*
X114820000Y-93640000D02*
X114820000Y-94122600D01*
X125955000Y-113380000D02*
X125955000Y-117226800D01*
D58*
X157634740Y-69303220D02*
X157634740Y-76306420D01*
X162134740Y-58053220D02*
X162134740Y-52654820D01*
D57*
X160215000Y-113380000D02*
X160215000Y-117714000D01*
X134073200Y-99405800D02*
X134815000Y-100147600D01*
D58*
X180010740Y-117770000D02*
X180645740Y-118405000D01*
D60*
X217382660Y-37381420D02*
X217382660Y-33132000D01*
D62*
X203544740Y-42893220D02*
X202274740Y-44163220D01*
D57*
X133575000Y-117226800D02*
X132600000Y-118201800D01*
D58*
X180645740Y-115865000D02*
X185344740Y-115865000D01*
X149061740Y-60419220D02*
X150895740Y-62253220D01*
D57*
X156435000Y-117226800D02*
X155460000Y-118201800D01*
X117385400Y-98745400D02*
X117385400Y-99634400D01*
D59*
X132385000Y-35050000D02*
X130495000Y-35050000D01*
D57*
X142435000Y-117714000D02*
X141871000Y-118278000D01*
D58*
X174588740Y-75075020D02*
X177966940Y-78453220D01*
X176454740Y-101260000D02*
X177724740Y-99990000D01*
D57*
X122765000Y-116926600D02*
X122770200Y-116931800D01*
D59*
X208393600Y-71872080D02*
X207354740Y-70833220D01*
D58*
X156122940Y-78605620D02*
X154725940Y-78605620D01*
D57*
X108765000Y-117729000D02*
X108470000Y-118024000D01*
D58*
X166634740Y-77001620D02*
X168721340Y-79088220D01*
D59*
X181954740Y-42893220D02*
X181954740Y-45433220D01*
D58*
X180010740Y-96180000D02*
X180645740Y-96815000D01*
X174286740Y-62753220D02*
X178906740Y-58133220D01*
X202743740Y-95545000D02*
X203378740Y-94910000D01*
D60*
X199580000Y-31745000D02*
X199580000Y-35555000D01*
D58*
X146672740Y-67253220D02*
X144362740Y-69563220D01*
D60*
X115300000Y-135400000D02*
X115300000Y-130082500D01*
D58*
X158634740Y-69303220D02*
X158634740Y-76881220D01*
D57*
X112605000Y-104380000D02*
X112605000Y-100833400D01*
D58*
X146394740Y-82898220D02*
X146394740Y-86073220D01*
D57*
X120225000Y-104380000D02*
X120225000Y-100833400D01*
D58*
X180645740Y-123485000D02*
X185344740Y-123485000D01*
D57*
X150055000Y-117714000D02*
X149491000Y-118278000D01*
D58*
X198044740Y-93005000D02*
X202743740Y-93005000D01*
X147722140Y-67753220D02*
X145505740Y-69969620D01*
X161134740Y-58053220D02*
X161134740Y-48743220D01*
X165634740Y-77551020D02*
X168340340Y-80256620D01*
X180010740Y-107610000D02*
X180645740Y-108245000D01*
X165134740Y-58053220D02*
X165134740Y-54811020D01*
X180645740Y-98085000D02*
X185344740Y-98085000D01*
D57*
X111213200Y-95189400D02*
X111213200Y-99405800D01*
D58*
X171997940Y-77996020D02*
X177027140Y-83025220D01*
X123734740Y-47674900D02*
X123605200Y-47804440D01*
D59*
X118640000Y-60673220D02*
X122450000Y-60673220D01*
D58*
X120333680Y-43557560D02*
X119795200Y-44096040D01*
X176454740Y-106340000D02*
X177724740Y-105070000D01*
D57*
X124655000Y-100147600D02*
X124655000Y-104380000D01*
X132925000Y-113380000D02*
X132925000Y-116926600D01*
X161810000Y-118024000D02*
X161810000Y-125390000D01*
X113372200Y-99583600D02*
X113372200Y-92547800D01*
X151472200Y-99583600D02*
X151472200Y-92547800D01*
X129735000Y-100147600D02*
X129735000Y-104380000D01*
X141693200Y-99405800D02*
X142435000Y-100147600D01*
X141195000Y-117226800D02*
X140220000Y-118201800D01*
D58*
X149899940Y-50919620D02*
X147664740Y-48684420D01*
X168619740Y-53002420D02*
X169737340Y-53002420D01*
X176442940Y-54297820D02*
X176442940Y-52875420D01*
D57*
X111010000Y-125390000D02*
X112280000Y-126660000D01*
X121465000Y-117729000D02*
X121170000Y-118024000D01*
D58*
X112175200Y-44985040D02*
X112175200Y-45264440D01*
D57*
X133575000Y-100584000D02*
X133575000Y-104380000D01*
D58*
X142965740Y-50259220D02*
X144235740Y-50259220D01*
X155634740Y-69303220D02*
X155634740Y-75055220D01*
D57*
X160865000Y-100833400D02*
X160870200Y-100828200D01*
X147865400Y-98745400D02*
X147840000Y-98720000D01*
X140545000Y-113380000D02*
X140545000Y-116926600D01*
D58*
X157134740Y-55055620D02*
X150204740Y-48125620D01*
X169334740Y-71753220D02*
X171038340Y-71753220D01*
X180010740Y-121580000D02*
X180645740Y-122215000D01*
D57*
X119925400Y-98745400D02*
X119925400Y-99634400D01*
D58*
X146648740Y-71099920D02*
X146648740Y-71099920D01*
X148045740Y-61054220D02*
X150244740Y-63253220D01*
D59*
X181954740Y-45433220D02*
X184494740Y-45433220D01*
D58*
X166634740Y-55749420D02*
X168772140Y-53612020D01*
X157824740Y-48887620D02*
X157824740Y-47973220D01*
X154014740Y-76853020D02*
X148934740Y-81933020D01*
D60*
X161000000Y-130122500D02*
X160500000Y-129622500D01*
D57*
X110832200Y-99583600D02*
X110832200Y-92547800D01*
X136410000Y-125390000D02*
X137680000Y-126660000D01*
X111955000Y-100147600D02*
X111955000Y-104380000D01*
X120225000Y-116926600D02*
X120230200Y-116931800D01*
D61*
X211479740Y-59708220D02*
X211479740Y-57818220D01*
D58*
X180645740Y-108245000D02*
X185344740Y-108245000D01*
X180645740Y-96815000D02*
X185344740Y-96815000D01*
X205664740Y-125390000D02*
X206934740Y-126660000D01*
D57*
X123710000Y-125390000D02*
X124980000Y-126660000D01*
X145325400Y-98745400D02*
X145300000Y-98720000D01*
X144325000Y-117729000D02*
X144030000Y-118024000D01*
X143735000Y-100584000D02*
X142785400Y-99634400D01*
D60*
X118800000Y-135400000D02*
X118800000Y-130122500D01*
D57*
X158975000Y-100584000D02*
X158975000Y-104380000D01*
D58*
X180645740Y-101895000D02*
X185344740Y-101895000D01*
X198044740Y-106975000D02*
X203759740Y-106975000D01*
X115985200Y-44604040D02*
X115985200Y-47804440D01*
D57*
X153245000Y-116926600D02*
X153250200Y-116931800D01*
D58*
X160134740Y-51197620D02*
X157824740Y-48887620D01*
D57*
X134165000Y-113380000D02*
X134165000Y-117729000D01*
D59*
X108226000Y-78453220D02*
X108766000Y-77913220D01*
D57*
X160565400Y-98745400D02*
X160565400Y-99634400D01*
D58*
X144235740Y-50259220D02*
X151728740Y-57752220D01*
X161134740Y-48743220D02*
X160364740Y-47973220D01*
D57*
X150405400Y-98745400D02*
X150380000Y-98720000D01*
D58*
X178994740Y-93640000D02*
X180010740Y-93640000D01*
D57*
X131625000Y-104380000D02*
X131625000Y-100056400D01*
D58*
X159634740Y-58053220D02*
X159634740Y-52056520D01*
X114715200Y-44731040D02*
X114715200Y-45264440D01*
D57*
X131035000Y-113380000D02*
X131035000Y-117226800D01*
X121551000Y-118278000D02*
X121551000Y-123231000D01*
D58*
X205664740Y-92370000D02*
X206934740Y-93640000D01*
X202743740Y-110785000D02*
X203378740Y-110150000D01*
X166714740Y-50894220D02*
X166714740Y-45433220D01*
D57*
X159092200Y-92547800D02*
X160540000Y-91100000D01*
X120992200Y-92547800D02*
X122440000Y-91100000D01*
X132925000Y-104380000D02*
X132925000Y-100833400D01*
X134165000Y-100056400D02*
X133692200Y-99583600D01*
X146275000Y-100584000D02*
X145325400Y-99634400D01*
X126631000Y-123231000D02*
X127520000Y-124120000D01*
D58*
X170524740Y-83177620D02*
X170524740Y-83533220D01*
D57*
X110715000Y-117226800D02*
X109740000Y-118201800D01*
D61*
X209579740Y-64798220D02*
X208624740Y-65753220D01*
X226850000Y-57818220D02*
X227805000Y-56863220D01*
D58*
X205664740Y-89830000D02*
X206934740Y-91100000D01*
X164134740Y-58053220D02*
X164134740Y-54261620D01*
D60*
X148700000Y-135400000D02*
X148700000Y-130182500D01*
D57*
X113255000Y-100584000D02*
X113255000Y-104380000D01*
D60*
X111800000Y-135400000D02*
X111800000Y-130122500D01*
D57*
X107200000Y-94122600D02*
X106133200Y-95189400D01*
X108175000Y-113380000D02*
X108175000Y-117226800D01*
X159473200Y-99405800D02*
X160215000Y-100147600D01*
D58*
X167634740Y-58053220D02*
X167634740Y-56335420D01*
D57*
X141490000Y-118024000D02*
X141490000Y-125390000D01*
D58*
X203759740Y-122215000D02*
X204394740Y-121580000D01*
D57*
X154485000Y-113380000D02*
X154485000Y-117729000D01*
D58*
X178982940Y-59403220D02*
X179414740Y-59403220D01*
D57*
X145325400Y-98745400D02*
X145325400Y-99634400D01*
D60*
X197040000Y-31745000D02*
X197040000Y-35555000D01*
D57*
X139895000Y-113380000D02*
X139895000Y-117714000D01*
D58*
X198044740Y-113325000D02*
X202743740Y-113325000D01*
X178957540Y-81272620D02*
X181675340Y-81272620D01*
X202743740Y-100625000D02*
X203378740Y-99990000D01*
D57*
X118335000Y-100584000D02*
X117385400Y-99634400D01*
D58*
X176454740Y-111420000D02*
X177724740Y-110150000D01*
D57*
X109415000Y-100147600D02*
X109415000Y-104380000D01*
X155785000Y-113380000D02*
X155785000Y-116926600D01*
D58*
X162134740Y-71303220D02*
X162134740Y-82763220D01*
D61*
X226850000Y-64798220D02*
X227805000Y-65753220D01*
D59*
X107210000Y-65753220D02*
X108099000Y-65753220D01*
D58*
X148934740Y-81933020D02*
X148934740Y-86073220D01*
D57*
X152920000Y-93640000D02*
X152920000Y-94122600D01*
D58*
X179363940Y-56863220D02*
X179414740Y-56863220D01*
D57*
X118925000Y-117729000D02*
X118630000Y-118024000D01*
D58*
X180645740Y-120945000D02*
X185344740Y-120945000D01*
D59*
X118330000Y-77913220D02*
X120767000Y-77913220D01*
D58*
X203759740Y-106975000D02*
X204394740Y-106340000D01*
D59*
X107210000Y-53053220D02*
X111020000Y-53053220D01*
X107210000Y-55593220D02*
X111020000Y-55593220D01*
X118640000Y-63213220D02*
X122450000Y-63213220D01*
D58*
X174250540Y-66253220D02*
X175020540Y-67023220D01*
D59*
X107210000Y-63213220D02*
X111020000Y-63213220D01*
D58*
X150895740Y-62253220D02*
X153934740Y-62253220D01*
D60*
X189420000Y-38095000D02*
X189420000Y-41905000D01*
D57*
X164055000Y-100584000D02*
X164055000Y-104380000D01*
X107525000Y-104380000D02*
X107525000Y-100833400D01*
X108673200Y-95189400D02*
X108673200Y-99405800D01*
D58*
X145632740Y-54323220D02*
X143854740Y-54323220D01*
X173963140Y-66753220D02*
X175503140Y-68293220D01*
X148934740Y-49065420D02*
X148934740Y-45433220D01*
X173362940Y-67753220D02*
X176442940Y-70833220D01*
D57*
X151945000Y-100056400D02*
X151472200Y-99583600D01*
X108175000Y-100584000D02*
X107225400Y-99634400D01*
X118630000Y-125390000D02*
X119900000Y-126660000D01*
D58*
X202743740Y-90465000D02*
X203378740Y-89830000D01*
D57*
X122440000Y-94122600D02*
X121373200Y-95189400D01*
D58*
X208370740Y-40492920D02*
X207354740Y-41508920D01*
X180645740Y-112055000D02*
X185344740Y-112055000D01*
D57*
X156435000Y-113380000D02*
X156435000Y-117226800D01*
D58*
X168184740Y-68753220D02*
X172788140Y-68753220D01*
D57*
X108765000Y-104380000D02*
X108765000Y-100056400D01*
D59*
X219450000Y-78540000D02*
X221990000Y-78540000D01*
D58*
X153934740Y-70753220D02*
X150767340Y-70753220D01*
X178994740Y-101260000D02*
X180010740Y-101260000D01*
D57*
X153895000Y-117226800D02*
X152920000Y-118201800D01*
X109765400Y-98745400D02*
X109765400Y-99634400D01*
D58*
X169334740Y-69753220D02*
X172162540Y-69753220D01*
D57*
X130060000Y-94122600D02*
X128993200Y-95189400D01*
D58*
X180010740Y-94910000D02*
X180645740Y-95545000D01*
X174588740Y-73678020D02*
X174588740Y-75075020D01*
X153934740Y-65253220D02*
X149450740Y-65253220D01*
X202743740Y-103165000D02*
X203378740Y-102530000D01*
X180010740Y-89830000D02*
X180645740Y-90465000D01*
D57*
X129085000Y-100056400D02*
X128612200Y-99583600D01*
D58*
X150204740Y-81450420D02*
X150204740Y-83533220D01*
D61*
X219250000Y-59708220D02*
X219250000Y-57818220D01*
D60*
X139900000Y-130082500D02*
X140360000Y-129622500D01*
D58*
X165184740Y-61753220D02*
X172391140Y-61753220D01*
X178994740Y-91100000D02*
X180010740Y-91100000D01*
D57*
X124091000Y-123231000D02*
X124980000Y-124120000D01*
X134815000Y-113380000D02*
X134815000Y-117714000D01*
D61*
X210529740Y-59708220D02*
X210529740Y-54323220D01*
D57*
X108175000Y-117226800D02*
X107200000Y-118201800D01*
X149491000Y-123231000D02*
X150380000Y-124120000D01*
D59*
X176874740Y-80993220D02*
X179414740Y-83533220D01*
D58*
X198044740Y-120945000D02*
X202743740Y-120945000D01*
X205664740Y-122850000D02*
X206934740Y-124120000D01*
D57*
X149313200Y-95189400D02*
X149313200Y-99405800D01*
D58*
X178932140Y-61943220D02*
X179414740Y-61943220D01*
D57*
X116090000Y-118024000D02*
X116090000Y-125390000D01*
X130385000Y-104380000D02*
X130385000Y-100833400D01*
D58*
X148045740Y-63213220D02*
X149569740Y-64737220D01*
D59*
X137475000Y-33150000D02*
X138430000Y-32195000D01*
D57*
X118452200Y-92547800D02*
X119900000Y-91100000D01*
D58*
X166134740Y-73453220D02*
X166134740Y-77238220D01*
D59*
X130495000Y-35050000D02*
X129540000Y-36005000D01*
D58*
X177408140Y-73373220D02*
X181954740Y-73373220D01*
D57*
X128993200Y-95189400D02*
X128993200Y-99405800D01*
D58*
X198044740Y-99355000D02*
X203759740Y-99355000D01*
X147410740Y-60673220D02*
X147537740Y-60800220D01*
X169334740Y-70253220D02*
X171900540Y-70253220D01*
D57*
X158000000Y-93640000D02*
X158000000Y-94122600D01*
D58*
X178500340Y-63213220D02*
X181954740Y-63213220D01*
D57*
X126072200Y-99583600D02*
X126072200Y-92547800D01*
D58*
X173650340Y-67253220D02*
X175960340Y-69563220D01*
D61*
X211479740Y-57818220D02*
X212434740Y-56863220D01*
D58*
X203759740Y-117135000D02*
X204394740Y-116500000D01*
X159094740Y-79672420D02*
X159094740Y-86073220D01*
X121433500Y-43600740D02*
X121065200Y-43969040D01*
D57*
X140245400Y-98745400D02*
X140220000Y-98720000D01*
D58*
X145505740Y-73881220D02*
X145505740Y-75278220D01*
X180010740Y-105070000D02*
X180645740Y-105705000D01*
D57*
X131035000Y-100584000D02*
X130085400Y-99634400D01*
X110065000Y-116926600D02*
X110070200Y-116931800D01*
X138950000Y-118024000D02*
X138950000Y-125390000D01*
D58*
X142711740Y-50513220D02*
X142965740Y-50259220D01*
X176454740Y-126660000D02*
X177724740Y-125390000D01*
D57*
X135140000Y-93640000D02*
X135140000Y-94122600D01*
X131035000Y-117226800D02*
X130060000Y-118201800D01*
X141195000Y-100584000D02*
X140245400Y-99634400D01*
D58*
X151677940Y-52443620D02*
X150230140Y-52443620D01*
X177357340Y-45915820D02*
X176874740Y-45433220D01*
X175909540Y-73500220D02*
X175909540Y-74897220D01*
X214974740Y-41381920D02*
X214974740Y-42651920D01*
D57*
X141312200Y-99583600D02*
X141312200Y-92547800D01*
D58*
X165444740Y-81729820D02*
X165444740Y-83533220D01*
D57*
X147515000Y-117714000D02*
X146951000Y-118278000D01*
D61*
X218300000Y-59708220D02*
X218300000Y-54323220D01*
D58*
X158134740Y-69303220D02*
X158134740Y-76593820D01*
X155634740Y-58053220D02*
X155634740Y-56400420D01*
D57*
X115795000Y-113380000D02*
X115795000Y-117226800D01*
X145625000Y-104380000D02*
X145625000Y-100833400D01*
D58*
X141314740Y-63213220D02*
X148045740Y-63213220D01*
D57*
X143735000Y-113380000D02*
X143735000Y-117226800D01*
D61*
X211479740Y-62908220D02*
X211479740Y-64798220D01*
X226850000Y-62908220D02*
X226850000Y-64798220D01*
D57*
X126545000Y-117729000D02*
X126250000Y-118024000D01*
D58*
X203759740Y-129835000D02*
X204394740Y-129200000D01*
X180645740Y-127295000D02*
X185344740Y-127295000D01*
X158134740Y-58053220D02*
X158134740Y-54303020D01*
D59*
X107210000Y-86073220D02*
X108226000Y-86073220D01*
D57*
X116385000Y-113380000D02*
X116385000Y-117729000D01*
X133870000Y-118024000D02*
X133870000Y-125390000D01*
D58*
X172788140Y-68753220D02*
X177408140Y-73373220D01*
D57*
X108470000Y-125390000D02*
X109740000Y-126660000D01*
D58*
X203378740Y-107610000D02*
X205664740Y-107610000D01*
X168721340Y-79088220D02*
X170880340Y-79088220D01*
D59*
X108099000Y-80993220D02*
X108639000Y-81533220D01*
D57*
X162013200Y-99405800D02*
X162755000Y-100147600D01*
X162755000Y-100147600D02*
X162755000Y-104380000D01*
D58*
X147156740Y-77056220D02*
X144489740Y-79723220D01*
X154725940Y-78605620D02*
X152744740Y-80586820D01*
X164134740Y-72303220D02*
X164134740Y-78514820D01*
X198044740Y-114595000D02*
X203759740Y-114595000D01*
X163134740Y-53661420D02*
X165444740Y-51351420D01*
X177724740Y-120310000D02*
X180010740Y-120310000D01*
D57*
X131711000Y-123231000D02*
X132600000Y-124120000D01*
D59*
X120767000Y-77913220D02*
X121307000Y-78453220D01*
D58*
X180645740Y-103165000D02*
X185344740Y-103165000D01*
X114156400Y-44146840D02*
X113902400Y-44146840D01*
X212434740Y-37610020D02*
X212434740Y-42651920D01*
X180010740Y-97450000D02*
X180645740Y-98085000D01*
D57*
X158975000Y-100584000D02*
X158025400Y-99634400D01*
D58*
X170880340Y-79088220D02*
X174334740Y-82542620D01*
X203378740Y-110150000D02*
X205664740Y-110150000D01*
D57*
X117360000Y-93640000D02*
X117360000Y-94122600D01*
D58*
X178994740Y-126660000D02*
X180010740Y-126660000D01*
D57*
X138655000Y-113380000D02*
X138655000Y-117226800D01*
X109415000Y-113380000D02*
X109415000Y-117714000D01*
D59*
X208393600Y-82032080D02*
X207354740Y-80993220D01*
D58*
X145505740Y-75278220D02*
X144870740Y-75913220D01*
X211637180Y-37610020D02*
X211637180Y-39766480D01*
X148045740Y-59911220D02*
X148045740Y-61054220D01*
D57*
X124005000Y-113380000D02*
X124005000Y-117729000D01*
X157675000Y-117714000D02*
X157111000Y-118278000D01*
D59*
X108226000Y-70833220D02*
X108766000Y-70293220D01*
X118330000Y-73913220D02*
X120513000Y-73913220D01*
D57*
X115795000Y-117226800D02*
X114820000Y-118201800D01*
D59*
X141314740Y-42893220D02*
X141314740Y-45433220D01*
D57*
X154012200Y-92547800D02*
X155460000Y-91100000D01*
X160540000Y-93640000D02*
X160540000Y-94122600D01*
D58*
X155487940Y-79215220D02*
X154014740Y-80688420D01*
D57*
X146570000Y-125390000D02*
X147840000Y-126660000D01*
D58*
X153934740Y-61253220D02*
X151419740Y-61253220D01*
D59*
X214032400Y-39169580D02*
X215482740Y-40619920D01*
D58*
X122533320Y-42478060D02*
X122533320Y-45066320D01*
X156134740Y-69303220D02*
X156134740Y-75317220D01*
D60*
X127600000Y-135400000D02*
X127600000Y-130022500D01*
D57*
X134251000Y-123231000D02*
X135140000Y-124120000D01*
X129171000Y-123231000D02*
X130060000Y-124120000D01*
D58*
X151093740Y-59403220D02*
X151943740Y-60253220D01*
D57*
X155135000Y-100147600D02*
X155135000Y-104380000D01*
D58*
X177724740Y-102530000D02*
X180010740Y-102530000D01*
X180010740Y-92370000D02*
X180645740Y-93005000D01*
X121065200Y-43969040D02*
X121065200Y-47804440D01*
D59*
X224530000Y-81080000D02*
X227070000Y-81080000D01*
D58*
X178644740Y-65253220D02*
X179414740Y-64483220D01*
D62*
X207354740Y-42893220D02*
X203544740Y-42893220D01*
D58*
X141314740Y-53053220D02*
X144997740Y-53053220D01*
D57*
X157025000Y-117729000D02*
X156730000Y-118024000D01*
D58*
X153934740Y-71253220D02*
X151257940Y-71253220D01*
X174334740Y-82542620D02*
X174334740Y-86073220D01*
D60*
X108300000Y-130082500D02*
X108760000Y-129622500D01*
D58*
X153918740Y-64737220D02*
X153934740Y-64753220D01*
X171638540Y-60753220D02*
X177509740Y-54882020D01*
X203759740Y-104435000D02*
X204394740Y-103800000D01*
D57*
X146275000Y-113380000D02*
X146275000Y-117226800D01*
D60*
X131100000Y-135400000D02*
X131100000Y-130182500D01*
D58*
X209894740Y-41508920D02*
X209894740Y-42651920D01*
X153910740Y-64229220D02*
X153934740Y-64253220D01*
D57*
X135465000Y-113380000D02*
X135465000Y-116926600D01*
D58*
X169102340Y-51757820D02*
X170524740Y-50335420D01*
X162134740Y-82763220D02*
X162904740Y-83533220D01*
D57*
X161810000Y-125390000D02*
X163080000Y-126660000D01*
X157675000Y-113380000D02*
X157675000Y-117714000D01*
X151355000Y-100584000D02*
X150405400Y-99634400D01*
X127195000Y-113380000D02*
X127195000Y-117714000D01*
X113753200Y-95189400D02*
X113753200Y-99405800D01*
X108673200Y-99405800D02*
X109415000Y-100147600D01*
D58*
X175223740Y-74973420D02*
X177433540Y-77183220D01*
D57*
X123415000Y-100584000D02*
X122465400Y-99634400D01*
D58*
X119795200Y-44096040D02*
X119795200Y-45264440D01*
D57*
X105930000Y-125390000D02*
X107200000Y-126660000D01*
X135465000Y-116926600D02*
X135470200Y-116931800D01*
D58*
X168721340Y-51148220D02*
X169254740Y-50614820D01*
D60*
X191960000Y-31745000D02*
X191960000Y-35555000D01*
D57*
X124091000Y-118278000D02*
X124091000Y-123231000D01*
D58*
X180010740Y-111420000D02*
X180645740Y-112055000D01*
D60*
X207486820Y-33132000D02*
X207486820Y-37381420D01*
D59*
X224530000Y-73460000D02*
X227070000Y-73460000D01*
D57*
X125305000Y-116926600D02*
X125310200Y-116931800D01*
D58*
X213232300Y-37610020D02*
X213232300Y-39639480D01*
X177724740Y-117770000D02*
X180010740Y-117770000D01*
D59*
X107210000Y-70833220D02*
X108226000Y-70833220D01*
D58*
X205664740Y-117770000D02*
X206934740Y-119040000D01*
D57*
X110065000Y-113380000D02*
X110065000Y-116926600D01*
D58*
X141314740Y-65753220D02*
X153934740Y-65753220D01*
X141314740Y-58133220D02*
X147029740Y-58133220D01*
D57*
X158975000Y-113380000D02*
X158975000Y-117226800D01*
X147840000Y-93640000D02*
X147840000Y-94122600D01*
D58*
X171038340Y-71753220D02*
X173445740Y-74160620D01*
X145632740Y-47846220D02*
X145632740Y-46195220D01*
X203759740Y-96815000D02*
X204394740Y-96180000D01*
X168340340Y-80256620D02*
X170270740Y-80256620D01*
X157134740Y-58053220D02*
X157134740Y-55055620D01*
X163634740Y-53974220D02*
X166714740Y-50894220D01*
D61*
X226850000Y-59708220D02*
X226850000Y-57818220D01*
D58*
X205664740Y-94910000D02*
X206934740Y-96180000D01*
D57*
X113372200Y-92547800D02*
X114820000Y-91100000D01*
D58*
X180010740Y-99990000D02*
X180645740Y-100625000D01*
X167634740Y-56335420D02*
X169215140Y-54755020D01*
D57*
X163105400Y-98745400D02*
X163105400Y-99634400D01*
X114845400Y-98745400D02*
X114820000Y-98720000D01*
X154485000Y-117729000D02*
X154190000Y-118024000D01*
D58*
X164634740Y-78125820D02*
X169254740Y-82745820D01*
D57*
X124980000Y-93640000D02*
X124980000Y-94122600D01*
X132925000Y-100833400D02*
X132930200Y-100828200D01*
X136791000Y-118278000D02*
X136791000Y-123231000D01*
X139895000Y-117714000D02*
X139331000Y-118278000D01*
X116385000Y-117729000D02*
X116090000Y-118024000D01*
X148165000Y-104380000D02*
X148165000Y-100833400D01*
D58*
X175132940Y-63253220D02*
X178982940Y-59403220D01*
D59*
X108766000Y-85533220D02*
X111330000Y-85533220D01*
D58*
X177724740Y-125390000D02*
X180010740Y-125390000D01*
X202743740Y-128565000D02*
X203378740Y-127930000D01*
D57*
X118925000Y-100056400D02*
X118452200Y-99583600D01*
D58*
X149188740Y-72331820D02*
X146521740Y-74998820D01*
D57*
X139331000Y-118278000D02*
X139331000Y-123231000D01*
D58*
X144489740Y-80993220D02*
X141314740Y-80993220D01*
D59*
X210082700Y-83533220D02*
X207354740Y-83533220D01*
D58*
X143854740Y-59403220D02*
X147537740Y-59403220D01*
D59*
X208393600Y-74874360D02*
X207354740Y-75913220D01*
D57*
X130060000Y-93640000D02*
X130060000Y-94122600D01*
X160215000Y-100147600D02*
X160215000Y-104380000D01*
D58*
X150077740Y-58768220D02*
X145632740Y-54323220D01*
D57*
X144030000Y-118024000D02*
X144030000Y-125390000D01*
D58*
X178994740Y-98720000D02*
X180010740Y-98720000D01*
D57*
X112605000Y-113380000D02*
X112605000Y-116926600D01*
D59*
X193384740Y-45433220D02*
X195924740Y-45433220D01*
D57*
X117035000Y-100147600D02*
X117035000Y-104380000D01*
D58*
X203378740Y-112690000D02*
X205664740Y-112690000D01*
D57*
X148165000Y-113380000D02*
X148165000Y-116926600D01*
D58*
X162634740Y-71303220D02*
X162634740Y-80215220D01*
D57*
X156933200Y-95189400D02*
X156933200Y-99405800D01*
D60*
X143400000Y-130122500D02*
X142900000Y-129622500D01*
D57*
X151355000Y-117226800D02*
X150380000Y-118201800D01*
D58*
X180645740Y-105705000D02*
X185344740Y-105705000D01*
D59*
X121307000Y-86073220D02*
X122450000Y-86073220D01*
D58*
X119233860Y-43514380D02*
X118525200Y-44223040D01*
X157824740Y-80129620D02*
X157824740Y-83533220D01*
X159094740Y-49294020D02*
X159094740Y-45433220D01*
D57*
X113550000Y-125390000D02*
X114820000Y-126660000D01*
D59*
X181954740Y-86073220D02*
X181954740Y-88613220D01*
D58*
X151728740Y-59276220D02*
X152205740Y-59753220D01*
X198044740Y-90465000D02*
X202743740Y-90465000D01*
X153934740Y-71753220D02*
X151697740Y-71753220D01*
D57*
X151945000Y-117729000D02*
X151650000Y-118024000D01*
D58*
X176454740Y-121580000D02*
X177724740Y-120310000D01*
X164634740Y-58053220D02*
X164634740Y-54498220D01*
X176454740Y-91100000D02*
X177724740Y-89830000D01*
X205664740Y-127930000D02*
X206934740Y-129200000D01*
D57*
X132625400Y-98745400D02*
X132625400Y-99634400D01*
X110715000Y-113380000D02*
X110715000Y-117226800D01*
D58*
X161634740Y-51275220D02*
X161634740Y-45433220D01*
X178805140Y-50513220D02*
X181954740Y-50513220D01*
D60*
X118800000Y-130122500D02*
X118300000Y-129622500D01*
D57*
X150405400Y-98745400D02*
X150405400Y-99634400D01*
D58*
X167134740Y-58053220D02*
X167134740Y-56036820D01*
D59*
X120513000Y-73913220D02*
X121053000Y-73373220D01*
D60*
X225827500Y-108500000D02*
X220550000Y-108500000D01*
D58*
X166134740Y-77238220D02*
X168568940Y-79672420D01*
X176960340Y-64753220D02*
X178500340Y-63213220D01*
D61*
X224950000Y-62908220D02*
X224950000Y-64798220D01*
D57*
X126453200Y-99405800D02*
X127195000Y-100147600D01*
X108765000Y-113380000D02*
X108765000Y-117729000D01*
X133692200Y-92547800D02*
X135140000Y-91100000D01*
X153245000Y-104380000D02*
X153245000Y-100833400D01*
D58*
X180645740Y-104435000D02*
X185344740Y-104435000D01*
D57*
X146570000Y-118024000D02*
X146570000Y-125390000D01*
D58*
X162634740Y-58053220D02*
X162634740Y-53297820D01*
X156634740Y-75757020D02*
X155538740Y-76853020D01*
X148680740Y-64483220D02*
X143854740Y-64483220D01*
D57*
X152595000Y-113380000D02*
X152595000Y-117714000D01*
D58*
X167134740Y-73453220D02*
X167134740Y-76688820D01*
D59*
X138774740Y-45433220D02*
X141314740Y-45433220D01*
D57*
X134251000Y-118278000D02*
X134251000Y-123231000D01*
X120875000Y-113380000D02*
X120875000Y-117226800D01*
%TD*%
D63*
X227100000Y-30000000D02*
G75*
G02*
X230100000Y-33000000I0J-3000000D01*
G01*
X230100000Y-137000000D02*
X230100000Y-33000000D01*
X103100000Y-140000000D02*
X227100000Y-140000000D01*
X230100000Y-136999999D02*
G75*
G02*
X227100000Y-140000000I-3000000J-1D01*
G01*
X100100000Y-33000000D02*
X100100000Y-137000000D01*
X100100000Y-33000000D02*
G75*
G02*
X103100000Y-30000000I3000000J0D01*
G01*
X227100000Y-30000000D02*
X103100000Y-30000000D01*
X103100003Y-140000000D02*
G75*
G02*
X100100000Y-137000000I-3J3000000D01*
G01*
M02*
