%TF.GenerationSoftware,KiCad,Pcbnew,9.0.1*%
%TF.CreationDate,2025-05-07T00:22:52-04:00*%
%TF.ProjectId,smd-protoboard,736d642d-7072-46f7-946f-626f6172642e,rev?*%
%TF.SameCoordinates,Original*%
%TF.FileFunction,Copper,L1,Top*%
%TF.FilePolarity,Positive*%
%FSLAX46Y46*%
G04 Gerber Fmt 4.6, Leading zero omitted, Abs format (unit mm)*
G04 Created by KiCad (PCBNEW 9.0.1) date 2025-05-07 00:22:52*
%MOMM*%
%LPD*%
G01*
G04 APERTURE LIST*
G04 Aperture macros list*
%AMRoundRect*
0 Rectangle with rounded corners*
0 $1 Rounding radius*
0 $2 $3 $4 $5 $6 $7 $8 $9 X,Y pos of 4 corners*
0 Add a 4 corners polygon primitive as box body*
4,1,4,$2,$3,$4,$5,$6,$7,$8,$9,$2,$3,0*
0 Add four circle primitives for the rounded corners*
1,1,$1+$1,$2,$3*
1,1,$1+$1,$4,$5*
1,1,$1+$1,$6,$7*
1,1,$1+$1,$8,$9*
0 Add four rect primitives between the rounded corners*
20,1,$1+$1,$2,$3,$4,$5,0*
20,1,$1+$1,$4,$5,$6,$7,0*
20,1,$1+$1,$6,$7,$8,$9,0*
20,1,$1+$1,$8,$9,$2,$3,0*%
%AMRotRect*
0 Rectangle, with rotation*
0 The origin of the aperture is its center*
0 $1 length*
0 $2 width*
0 $3 Rotation angle, in degrees counterclockwise*
0 Add horizontal line*
21,1,$1,$2,0,0,$3*%
%AMOutline4P*
0 Free polygon, 4 corners , with rotation*
0 The origin of the aperture is its center*
0 number of corners: always 4*
0 $1 to $8 corner X, Y*
0 $9 Rotation angle, in degrees counterclockwise*
0 create outline with 4 corners*
4,1,4,$1,$2,$3,$4,$5,$6,$7,$8,$1,$2,$9*%
G04 Aperture macros list end*
%TA.AperFunction,ComponentPad*%
%ADD10R,1.700000X1.700000*%
%TD*%
%TA.AperFunction,ComponentPad*%
%ADD11C,2.060000*%
%TD*%
%TA.AperFunction,SMDPad,CuDef*%
%ADD12R,0.550000X2.500000*%
%TD*%
%TA.AperFunction,ComponentPad*%
%ADD13R,1.600000X1.600000*%
%TD*%
%TA.AperFunction,SMDPad,CuDef*%
%ADD14R,1.600000X1.600000*%
%TD*%
%TA.AperFunction,SMDPad,CuDef*%
%ADD15R,2.501900X1.000760*%
%TD*%
%TA.AperFunction,SMDPad,CuDef*%
%ADD16R,4.000500X1.998980*%
%TD*%
%TA.AperFunction,SMDPad,CuDef*%
%ADD17Outline4P,-1.000760X-0.374650X1.000760X-0.374650X0.500380X0.374650X-0.500380X0.374650X90.000000*%
%TD*%
%TA.AperFunction,ComponentPad*%
%ADD18RoundRect,0.250001X-0.949999X-0.949999X0.949999X-0.949999X0.949999X0.949999X-0.949999X0.949999X0*%
%TD*%
%TA.AperFunction,ComponentPad*%
%ADD19C,2.400000*%
%TD*%
%TA.AperFunction,ComponentPad*%
%ADD20O,1.300000X1.900000*%
%TD*%
%TA.AperFunction,SMDPad,CuDef*%
%ADD21R,0.350000X6.000000*%
%TD*%
%TA.AperFunction,ComponentPad*%
%ADD22O,1.400000X1.700000*%
%TD*%
%TA.AperFunction,ComponentPad*%
%ADD23R,1.800000X1.800000*%
%TD*%
%TA.AperFunction,SMDPad,CuDef*%
%ADD24R,4.000000X1.200000*%
%TD*%
%TA.AperFunction,ComponentPad*%
%ADD25O,1.900000X1.700000*%
%TD*%
%TA.AperFunction,ComponentPad*%
%ADD26C,1.700000*%
%TD*%
%TA.AperFunction,ComponentPad*%
%ADD27O,1.700000X1.700000*%
%TD*%
%TA.AperFunction,SMDPad,CuDef*%
%ADD28R,8.890000X0.650000*%
%TD*%
%TA.AperFunction,ComponentPad*%
%ADD29O,1.900000X1.400000*%
%TD*%
%TA.AperFunction,ComponentPad*%
%ADD30C,1.000000*%
%TD*%
%TA.AperFunction,ComponentPad*%
%ADD31O,1.399540X1.800000*%
%TD*%
%TA.AperFunction,SMDPad,CuDef*%
%ADD32R,0.698500X1.597660*%
%TD*%
%TA.AperFunction,SMDPad,CuDef*%
%ADD33R,1.198880X1.399540*%
%TD*%
%TA.AperFunction,SMDPad,CuDef*%
%ADD34R,1.597660X1.399540*%
%TD*%
%TA.AperFunction,SMDPad,CuDef*%
%ADD35R,1.198880X2.199640*%
%TD*%
%TA.AperFunction,ComponentPad*%
%ADD36O,1.700000X1.900000*%
%TD*%
%TA.AperFunction,SMDPad,CuDef*%
%ADD37R,2.500000X0.300000*%
%TD*%
%TA.AperFunction,SMDPad,CuDef*%
%ADD38R,0.300000X10.800000*%
%TD*%
%TA.AperFunction,SMDPad,CuDef*%
%ADD39R,0.300000X9.300000*%
%TD*%
%TA.AperFunction,SMDPad,CuDef*%
%ADD40R,0.300000X8.300000*%
%TD*%
%TA.AperFunction,SMDPad,CuDef*%
%ADD41R,0.300000X6.800000*%
%TD*%
%TA.AperFunction,SMDPad,CuDef*%
%ADD42R,0.300000X4.800000*%
%TD*%
%TA.AperFunction,SMDPad,CuDef*%
%ADD43R,0.300000X2.500000*%
%TD*%
%TA.AperFunction,SMDPad,CuDef*%
%ADD44R,4.800000X0.300000*%
%TD*%
%TA.AperFunction,SMDPad,CuDef*%
%ADD45R,6.800000X0.300000*%
%TD*%
%TA.AperFunction,SMDPad,CuDef*%
%ADD46R,8.300000X0.300000*%
%TD*%
%TA.AperFunction,SMDPad,CuDef*%
%ADD47R,9.300000X0.300000*%
%TD*%
%TA.AperFunction,SMDPad,CuDef*%
%ADD48R,10.800000X0.300000*%
%TD*%
%TA.AperFunction,SMDPad,CuDef*%
%ADD49RotRect,1.200000X1.400000X315.000000*%
%TD*%
%TA.AperFunction,SMDPad,CuDef*%
%ADD50RotRect,1.200000X1.400000X45.000000*%
%TD*%
%TA.AperFunction,SMDPad,CuDef*%
%ADD51R,0.500380X2.301240*%
%TD*%
%TA.AperFunction,SMDPad,CuDef*%
%ADD52R,1.998980X2.499360*%
%TD*%
%TA.AperFunction,SMDPad,CuDef*%
%ADD53R,2.500000X0.550000*%
%TD*%
%TA.AperFunction,SMDPad,CuDef*%
%ADD54R,1.000760X2.501900*%
%TD*%
%TA.AperFunction,SMDPad,CuDef*%
%ADD55R,1.998980X4.000500*%
%TD*%
%TA.AperFunction,SMDPad,CuDef*%
%ADD56Outline4P,-1.000760X-0.374650X1.000760X-0.374650X0.500380X0.374650X-0.500380X0.374650X180.000000*%
%TD*%
%TA.AperFunction,ViaPad*%
%ADD57C,0.600000*%
%TD*%
%TA.AperFunction,ViaPad*%
%ADD58C,1.524000*%
%TD*%
%TA.AperFunction,Conductor*%
%ADD59C,0.203200*%
%TD*%
%TA.AperFunction,Conductor*%
%ADD60C,0.254000*%
%TD*%
%TA.AperFunction,Conductor*%
%ADD61C,0.508000*%
%TD*%
%TA.AperFunction,Conductor*%
%ADD62C,0.355600*%
%TD*%
%TA.AperFunction,Conductor*%
%ADD63C,0.762000*%
%TD*%
%TA.AperFunction,Conductor*%
%ADD64C,1.016000*%
%TD*%
%TA.AperFunction,Profile*%
%ADD65C,0.254000*%
%TD*%
G04 APERTURE END LIST*
D10*
%TO.P,,1*%
%TO.N,N/C*%
X108625260Y-59660000D03*
%TO.P,,2*%
X111165260Y-59660000D03*
%TO.P,,3*%
X111165260Y-62200000D03*
%TO.P,,4*%
X108625260Y-62200000D03*
%TO.P,,5*%
X106085260Y-62200000D03*
%TO.P,,6*%
X106085260Y-59660000D03*
%TO.P,,7*%
X106085260Y-57120000D03*
%TO.P,,8*%
X108625260Y-57120000D03*
%TO.P,,9*%
X111165260Y-57120000D03*
%TO.P,,10*%
X113705260Y-57120000D03*
%TO.P,,11*%
X113705260Y-59660000D03*
%TO.P,,12*%
X113705260Y-62200000D03*
%TO.P,,13*%
X113705260Y-64740000D03*
%TO.P,,14*%
X111165260Y-64740000D03*
%TO.P,,15*%
X108625260Y-64740000D03*
%TO.P,,16*%
X106085260Y-64740000D03*
%TD*%
D11*
%TO.P,,1*%
%TO.N,N/C*%
X195660260Y-74900000D03*
D12*
X196615260Y-72055000D03*
D11*
%TO.P,,2*%
X197565260Y-77440000D03*
D12*
X197565260Y-72055000D03*
D11*
%TO.P,,3*%
X199470260Y-74900000D03*
D12*
X198515260Y-72055000D03*
%TO.P,,4*%
X198515260Y-68855000D03*
D11*
X199470260Y-66010000D03*
D12*
%TO.P,,5*%
X197565260Y-68855000D03*
D11*
X197565260Y-63470000D03*
D12*
%TO.P,,6*%
X196615260Y-68855000D03*
D11*
X195660260Y-66010000D03*
%TD*%
D13*
%TO.P,,1*%
%TO.N,N/C*%
X105340000Y-53310000D03*
D14*
X105340000Y-52040000D03*
%TO.P,,2*%
X105340000Y-49500000D03*
D13*
X105340000Y-48230000D03*
%TD*%
D10*
%TO.P,,1*%
%TO.N,N/C*%
X186620000Y-90140000D03*
D15*
X189347960Y-91178860D03*
D16*
%TO.P,,2*%
X193300200Y-92680000D03*
D17*
X190950700Y-92680000D03*
D15*
X189347960Y-92680000D03*
D10*
X186620000Y-92680000D03*
D15*
%TO.P,,3*%
X189347960Y-94181140D03*
D10*
X186620000Y-95220000D03*
%TD*%
%TO.P,,1*%
%TO.N,N/C*%
X202495000Y-133320000D03*
%TO.P,,2*%
X205035000Y-133320000D03*
%TO.P,,3*%
X205035000Y-135860000D03*
%TO.P,,4*%
X202495000Y-135860000D03*
%TO.P,,5*%
X199955000Y-135860000D03*
%TO.P,,6*%
X199955000Y-133320000D03*
%TO.P,,7*%
X199955000Y-130780000D03*
%TO.P,,8*%
X202495000Y-130780000D03*
%TO.P,,9*%
X205035000Y-130780000D03*
%TO.P,,10*%
X207575000Y-130780000D03*
%TO.P,,11*%
X207575000Y-133320000D03*
%TO.P,,12*%
X207575000Y-135860000D03*
%TO.P,,13*%
X207575000Y-138400000D03*
%TO.P,,14*%
X205035000Y-138400000D03*
%TO.P,,15*%
X202495000Y-138400000D03*
%TO.P,,16*%
X199955000Y-138400000D03*
%TD*%
%TO.P,,1*%
%TO.N,N/C*%
X168840000Y-79980000D03*
%TO.P,,2*%
X171380000Y-79980000D03*
%TO.P,,3*%
X171380000Y-82520000D03*
%TO.P,,4*%
X168840000Y-82520000D03*
%TO.P,,5*%
X166300000Y-82520000D03*
%TO.P,,6*%
X166300000Y-79980000D03*
%TO.P,,7*%
X166300000Y-77440000D03*
%TO.P,,8*%
X168840000Y-77440000D03*
%TO.P,,9*%
X171380000Y-77440000D03*
%TO.P,,10*%
X173920000Y-77440000D03*
%TO.P,,11*%
X173920000Y-79980000D03*
%TO.P,,12*%
X173920000Y-82520000D03*
%TO.P,,13*%
X173920000Y-85060000D03*
%TO.P,,14*%
X171380000Y-85060000D03*
%TO.P,,15*%
X168840000Y-85060000D03*
%TO.P,,16*%
X166300000Y-85060000D03*
%TD*%
D18*
%TO.P,REF\u002A\u002A,1*%
%TO.N,N/C*%
X137865260Y-144914280D03*
D19*
%TO.P,REF\u002A\u002A,2*%
X141365260Y-144914280D03*
%TD*%
D10*
%TO.P,,1*%
%TO.N,N/C*%
X202495000Y-102840000D03*
%TO.P,,2*%
X205035000Y-102840000D03*
%TO.P,,3*%
X205035000Y-105380000D03*
%TO.P,,4*%
X202495000Y-105380000D03*
%TO.P,,5*%
X199955000Y-105380000D03*
%TO.P,,6*%
X199955000Y-102840000D03*
%TO.P,,7*%
X199955000Y-100300000D03*
%TO.P,,8*%
X202495000Y-100300000D03*
%TO.P,,9*%
X205035000Y-100300000D03*
%TO.P,,10*%
X207575000Y-100300000D03*
%TO.P,,11*%
X207575000Y-102840000D03*
%TO.P,,12*%
X207575000Y-105380000D03*
%TO.P,,13*%
X207575000Y-107920000D03*
%TO.P,,14*%
X205035000Y-107920000D03*
%TO.P,,15*%
X202495000Y-107920000D03*
%TO.P,,16*%
X199955000Y-107920000D03*
%TD*%
%TO.P,,1*%
%TO.N,N/C*%
X145980000Y-44420000D03*
%TO.P,,2*%
X148520000Y-44420000D03*
%TO.P,,3*%
X148520000Y-46960000D03*
%TO.P,,4*%
X145980000Y-46960000D03*
%TO.P,,5*%
X143440000Y-46960000D03*
%TO.P,,6*%
X143440000Y-44420000D03*
%TO.P,,7*%
X143440000Y-41880000D03*
%TO.P,,8*%
X145980000Y-41880000D03*
%TO.P,,9*%
X148520000Y-41880000D03*
%TO.P,,10*%
X151060000Y-41880000D03*
%TO.P,,11*%
X151060000Y-44420000D03*
%TO.P,,12*%
X151060000Y-46960000D03*
%TO.P,,13*%
X151060000Y-49500000D03*
%TO.P,,14*%
X148520000Y-49500000D03*
%TO.P,,15*%
X145980000Y-49500000D03*
%TO.P,,16*%
X143440000Y-49500000D03*
%TD*%
D20*
%TO.P,,1*%
%TO.N,N/C*%
X140405000Y-135880000D03*
D21*
X139430000Y-122600000D03*
D20*
%TO.P,,2*%
X140405000Y-133340000D03*
D21*
X140080000Y-122600000D03*
D20*
%TO.P,,3*%
X140405000Y-130800000D03*
D21*
X140730000Y-122600000D03*
D20*
%TO.P,,4*%
X140405000Y-128260000D03*
D21*
X141380000Y-122600000D03*
%TO.P,,5*%
X141380000Y-113600000D03*
D22*
X140405000Y-107940000D03*
D21*
%TO.P,,6*%
X140730000Y-113600000D03*
D22*
X140405000Y-105400000D03*
D21*
%TO.P,,7*%
X140080000Y-113600000D03*
D22*
X140405000Y-102860000D03*
D21*
%TO.P,,8*%
X139430000Y-113600000D03*
D22*
X140405000Y-100320000D03*
%TD*%
D20*
%TO.P,,1*%
%TO.N,N/C*%
X92145000Y-135880000D03*
D21*
X91170000Y-122600000D03*
D20*
%TO.P,,2*%
X92145000Y-133340000D03*
D21*
X91820000Y-122600000D03*
D20*
%TO.P,,3*%
X92145000Y-130800000D03*
D21*
X92470000Y-122600000D03*
D20*
%TO.P,,4*%
X92145000Y-128260000D03*
D21*
X93120000Y-122600000D03*
%TO.P,,5*%
X93120000Y-113600000D03*
D22*
X92145000Y-107940000D03*
D21*
%TO.P,,6*%
X92470000Y-113600000D03*
D22*
X92145000Y-105400000D03*
D21*
%TO.P,,7*%
X91820000Y-113600000D03*
D22*
X92145000Y-102860000D03*
D21*
%TO.P,,8*%
X91170000Y-113600000D03*
D22*
X92145000Y-100320000D03*
%TD*%
D23*
%TO.P,,1*%
%TO.N,N/C*%
X86475260Y-82520000D03*
D24*
X90595260Y-83060000D03*
X97595260Y-83060000D03*
D23*
X101715260Y-82520000D03*
%TO.P,,2*%
X86475260Y-87600000D03*
D24*
X90595260Y-87060000D03*
X97595260Y-87060000D03*
D23*
X101715260Y-87600000D03*
%TD*%
D11*
%TO.P,,1*%
%TO.N,N/C*%
X187890000Y-74900000D03*
D12*
X188845000Y-72055000D03*
D11*
%TO.P,,2*%
X189795000Y-77440000D03*
D12*
X189795000Y-72055000D03*
D11*
%TO.P,,3*%
X191700000Y-74900000D03*
D12*
X190745000Y-72055000D03*
%TO.P,,4*%
X190745000Y-68855000D03*
D11*
X191700000Y-66010000D03*
D12*
%TO.P,,5*%
X189795000Y-68855000D03*
D11*
X189795000Y-63470000D03*
D12*
%TO.P,,6*%
X188845000Y-68855000D03*
D11*
X187890000Y-66010000D03*
%TD*%
D13*
%TO.P,,1*%
%TO.N,N/C*%
X86475260Y-69820000D03*
D14*
X90285260Y-69820000D03*
%TO.P,,2*%
X97905260Y-69820000D03*
D13*
X101715260Y-69820000D03*
D14*
%TO.P,,3*%
X92825260Y-69820000D03*
X95365260Y-69820000D03*
%TD*%
D20*
%TO.P,,1*%
%TO.N,N/C*%
X115005000Y-135880000D03*
D21*
X114030000Y-122600000D03*
D20*
%TO.P,,2*%
X115005000Y-133340000D03*
D21*
X114680000Y-122600000D03*
D20*
%TO.P,,3*%
X115005000Y-130800000D03*
D21*
X115330000Y-122600000D03*
D20*
%TO.P,,4*%
X115005000Y-128260000D03*
D21*
X115980000Y-122600000D03*
%TO.P,,5*%
X115980000Y-113600000D03*
D22*
X115005000Y-107940000D03*
D21*
%TO.P,,6*%
X115330000Y-113600000D03*
D22*
X115005000Y-105400000D03*
D21*
%TO.P,,7*%
X114680000Y-113600000D03*
D22*
X115005000Y-102860000D03*
D21*
%TO.P,,8*%
X114030000Y-113600000D03*
D22*
X115005000Y-100320000D03*
%TD*%
D10*
%TO.P,,1*%
%TO.N,N/C*%
X204165260Y-93366780D03*
X206705260Y-93366780D03*
D25*
%TO.P,,2*%
X199085260Y-93366780D03*
D26*
X201625260Y-93366780D03*
%TO.P,,3*%
X204165260Y-90826780D03*
D25*
X206705260Y-90826780D03*
%TO.P,,4*%
X199085260Y-90826780D03*
D26*
X201625260Y-90826780D03*
%TO.P,,5*%
X204165260Y-88286780D03*
D25*
X206705260Y-88286780D03*
%TO.P,,6*%
X199085260Y-88286780D03*
D26*
X201625260Y-88286780D03*
%TO.P,,7*%
X204165260Y-85746780D03*
D25*
X206705260Y-85746780D03*
%TO.P,,8*%
X199085260Y-85746780D03*
D26*
X201625260Y-85746780D03*
%TO.P,,9*%
X204165260Y-83206780D03*
D25*
X206705260Y-83206780D03*
%TO.P,,10*%
X199085260Y-83206780D03*
D26*
X201625260Y-83206780D03*
%TD*%
D10*
%TO.P,REF\u002A\u002A,1*%
%TO.N,N/C*%
X150865260Y-145546780D03*
D26*
%TO.P,REF\u002A\u002A,2*%
X150865260Y-143006780D03*
%TO.P,REF\u002A\u002A,3*%
X153405260Y-145546780D03*
%TO.P,REF\u002A\u002A,4*%
X153405260Y-143006780D03*
%TO.P,REF\u002A\u002A,5*%
X155945260Y-145546780D03*
%TO.P,REF\u002A\u002A,6*%
X155945260Y-143006780D03*
%TO.P,REF\u002A\u002A,7*%
X158485260Y-145546780D03*
%TO.P,REF\u002A\u002A,8*%
X158485260Y-143006780D03*
%TO.P,REF\u002A\u002A,9*%
X161025260Y-145546780D03*
%TO.P,REF\u002A\u002A,10*%
X161025260Y-143006780D03*
%TO.P,REF\u002A\u002A,11*%
X163565260Y-145546780D03*
%TO.P,REF\u002A\u002A,12*%
X163565260Y-143006780D03*
%TO.P,REF\u002A\u002A,13*%
X166105260Y-145546780D03*
%TO.P,REF\u002A\u002A,14*%
X166105260Y-143006780D03*
%TO.P,REF\u002A\u002A,15*%
X168645260Y-145546780D03*
%TO.P,REF\u002A\u002A,16*%
X168645260Y-143006780D03*
%TO.P,REF\u002A\u002A,17*%
X171185260Y-145546780D03*
%TO.P,REF\u002A\u002A,18*%
X171185260Y-143006780D03*
%TO.P,REF\u002A\u002A,19*%
X173725260Y-145546780D03*
%TO.P,REF\u002A\u002A,20*%
X173725260Y-143006780D03*
%TO.P,REF\u002A\u002A,21*%
X176265260Y-145546780D03*
%TO.P,REF\u002A\u002A,22*%
X176265260Y-143006780D03*
%TO.P,REF\u002A\u002A,23*%
X178805260Y-145546780D03*
%TO.P,REF\u002A\u002A,24*%
X178805260Y-143006780D03*
%TO.P,REF\u002A\u002A,25*%
X181345260Y-145546780D03*
%TO.P,REF\u002A\u002A,26*%
X181345260Y-143006780D03*
%TO.P,REF\u002A\u002A,27*%
X183885260Y-145546780D03*
%TO.P,REF\u002A\u002A,28*%
X183885260Y-143006780D03*
%TO.P,REF\u002A\u002A,29*%
X186425260Y-145546780D03*
%TO.P,REF\u002A\u002A,30*%
X186425260Y-143006780D03*
%TO.P,REF\u002A\u002A,31*%
X188965260Y-145546780D03*
%TO.P,REF\u002A\u002A,32*%
X188965260Y-143006780D03*
%TO.P,REF\u002A\u002A,33*%
X191505260Y-145546780D03*
%TO.P,REF\u002A\u002A,34*%
X191505260Y-143006780D03*
%TO.P,REF\u002A\u002A,35*%
X194045260Y-145546780D03*
%TO.P,REF\u002A\u002A,36*%
X194045260Y-143006780D03*
%TO.P,REF\u002A\u002A,37*%
X196585260Y-145546780D03*
%TO.P,REF\u002A\u002A,38*%
X196585260Y-143006780D03*
%TO.P,REF\u002A\u002A,39*%
X199125260Y-145546780D03*
%TO.P,REF\u002A\u002A,40*%
X199125260Y-143006780D03*
%TD*%
D10*
%TO.P,,1*%
%TO.N,N/C*%
X148520000Y-133320000D03*
%TO.P,,2*%
X151060000Y-133320000D03*
%TO.P,,3*%
X151060000Y-135860000D03*
%TO.P,,4*%
X148520000Y-135860000D03*
%TO.P,,5*%
X145980000Y-135860000D03*
%TO.P,,6*%
X145980000Y-133320000D03*
%TO.P,,7*%
X145980000Y-130780000D03*
%TO.P,,8*%
X148520000Y-130780000D03*
%TO.P,,9*%
X151060000Y-130780000D03*
%TO.P,,10*%
X153600000Y-130780000D03*
%TO.P,,11*%
X153600000Y-133320000D03*
%TO.P,,12*%
X153600000Y-135860000D03*
%TO.P,,13*%
X153600000Y-138400000D03*
%TO.P,,14*%
X151060000Y-138400000D03*
%TO.P,,15*%
X148520000Y-138400000D03*
%TO.P,,16*%
X145980000Y-138400000D03*
%TD*%
D18*
%TO.P,REF\u002A\u002A,1*%
%TO.N,N/C*%
X103365260Y-144914280D03*
D19*
%TO.P,REF\u002A\u002A,2*%
X106865260Y-144914280D03*
%TO.P,REF\u002A\u002A,3*%
X110365260Y-144914280D03*
%TO.P,REF\u002A\u002A,4*%
X113865260Y-144914280D03*
%TD*%
D20*
%TO.P,,1*%
%TO.N,N/C*%
X107385000Y-135880000D03*
D21*
X106410000Y-122600000D03*
D20*
%TO.P,,2*%
X107385000Y-133340000D03*
D21*
X107060000Y-122600000D03*
D20*
%TO.P,,3*%
X107385000Y-130800000D03*
D21*
X107710000Y-122600000D03*
D20*
%TO.P,,4*%
X107385000Y-128260000D03*
D21*
X108360000Y-122600000D03*
%TO.P,,5*%
X108360000Y-113600000D03*
D22*
X107385000Y-107940000D03*
D21*
%TO.P,,6*%
X107710000Y-113600000D03*
D22*
X107385000Y-105400000D03*
D21*
%TO.P,,7*%
X107060000Y-113600000D03*
D22*
X107385000Y-102860000D03*
D21*
%TO.P,,8*%
X106410000Y-113600000D03*
D22*
X107385000Y-100320000D03*
%TD*%
D10*
%TO.P,,1*%
%TO.N,N/C*%
X125660000Y-44420000D03*
%TO.P,,2*%
X128200000Y-44420000D03*
%TO.P,,3*%
X128200000Y-46960000D03*
%TO.P,,4*%
X125660000Y-46960000D03*
%TO.P,,5*%
X123120000Y-46960000D03*
%TO.P,,6*%
X123120000Y-44420000D03*
%TO.P,,7*%
X123120000Y-41880000D03*
%TO.P,,8*%
X125660000Y-41880000D03*
%TO.P,,9*%
X128200000Y-41880000D03*
%TO.P,,10*%
X130740000Y-41880000D03*
%TO.P,,11*%
X130740000Y-44420000D03*
%TO.P,,12*%
X130740000Y-46960000D03*
%TO.P,,13*%
X130740000Y-49500000D03*
%TO.P,,14*%
X128200000Y-49500000D03*
%TO.P,,15*%
X125660000Y-49500000D03*
%TO.P,,16*%
X123120000Y-49500000D03*
%TD*%
%TO.P,,1*%
%TO.N,N/C*%
X179000000Y-90140000D03*
%TO.P,,2*%
X181540000Y-90140000D03*
%TO.P,,3*%
X181540000Y-92680000D03*
%TO.P,,4*%
X179000000Y-92680000D03*
%TO.P,,5*%
X176460000Y-92680000D03*
%TO.P,,6*%
X176460000Y-90140000D03*
%TO.P,,7*%
X176460000Y-87600000D03*
%TO.P,,8*%
X179000000Y-87600000D03*
%TO.P,,9*%
X181540000Y-87600000D03*
%TO.P,,10*%
X184080000Y-87600000D03*
%TO.P,,11*%
X184080000Y-90140000D03*
%TO.P,,12*%
X184080000Y-92680000D03*
%TO.P,,13*%
X184080000Y-95220000D03*
%TO.P,,14*%
X181540000Y-95220000D03*
%TO.P,,15*%
X179000000Y-95220000D03*
%TO.P,,16*%
X176460000Y-95220000D03*
%TD*%
D23*
%TO.P,,1*%
%TO.N,N/C*%
X86475260Y-90140000D03*
D24*
X90595260Y-90680000D03*
X97595260Y-90680000D03*
D23*
X101715260Y-90140000D03*
%TO.P,,2*%
X86475260Y-95220000D03*
D24*
X90595260Y-94680000D03*
X97595260Y-94680000D03*
D23*
X101715260Y-95220000D03*
%TD*%
D27*
%TO.P,REF\u002A\u002A,1*%
%TO.N,N/C*%
X110925260Y-139136780D03*
X113465260Y-139136780D03*
%TD*%
D10*
%TO.P,REF\u002A\u002A,1*%
%TO.N,N/C*%
X81300000Y-49800000D03*
D26*
%TO.P,REF\u002A\u002A,2*%
X81300000Y-52340000D03*
%TO.P,REF\u002A\u002A,3*%
X81300000Y-54880000D03*
%TO.P,REF\u002A\u002A,4*%
X81300000Y-57420000D03*
%TO.P,REF\u002A\u002A,5*%
X81300000Y-59960000D03*
%TO.P,REF\u002A\u002A,6*%
X81300000Y-62500000D03*
%TO.P,REF\u002A\u002A,7*%
X81300000Y-65040000D03*
%TO.P,REF\u002A\u002A,8*%
X81300000Y-67580000D03*
%TO.P,REF\u002A\u002A,9*%
X81300000Y-70120000D03*
%TO.P,REF\u002A\u002A,10*%
X81300000Y-72660000D03*
%TO.P,REF\u002A\u002A,11*%
X81300000Y-75200000D03*
%TO.P,REF\u002A\u002A,12*%
X81300000Y-77740000D03*
%TO.P,REF\u002A\u002A,13*%
X81300000Y-80280000D03*
%TO.P,REF\u002A\u002A,14*%
X81300000Y-82820000D03*
%TO.P,REF\u002A\u002A,15*%
X81300000Y-85360000D03*
%TO.P,REF\u002A\u002A,16*%
X81300000Y-87900000D03*
%TO.P,REF\u002A\u002A,17*%
X81300000Y-90440000D03*
%TO.P,REF\u002A\u002A,18*%
X81300000Y-92980000D03*
%TO.P,REF\u002A\u002A,19*%
X81300000Y-95520000D03*
%TO.P,REF\u002A\u002A,20*%
X81300000Y-98060000D03*
%TO.P,REF\u002A\u002A,21*%
X81300000Y-100600000D03*
%TO.P,REF\u002A\u002A,22*%
X81300000Y-103140000D03*
%TO.P,REF\u002A\u002A,23*%
X81300000Y-105680000D03*
%TO.P,REF\u002A\u002A,24*%
X81300000Y-108220000D03*
%TO.P,REF\u002A\u002A,25*%
X81300000Y-110760000D03*
%TO.P,REF\u002A\u002A,26*%
X81300000Y-113300000D03*
%TO.P,REF\u002A\u002A,27*%
X81300000Y-115840000D03*
%TO.P,REF\u002A\u002A,28*%
X81300000Y-118380000D03*
%TO.P,REF\u002A\u002A,29*%
X81300000Y-120920000D03*
%TO.P,REF\u002A\u002A,30*%
X81300000Y-123460000D03*
%TO.P,REF\u002A\u002A,31*%
X81300000Y-126000000D03*
%TO.P,REF\u002A\u002A,32*%
X81300000Y-128540000D03*
%TO.P,REF\u002A\u002A,33*%
X81300000Y-131080000D03*
%TO.P,REF\u002A\u002A,34*%
X81300000Y-133620000D03*
%TO.P,REF\u002A\u002A,35*%
X81300000Y-136160000D03*
%TO.P,REF\u002A\u002A,36*%
X81300000Y-138700000D03*
%TD*%
D10*
%TO.P,,1*%
%TO.N,N/C*%
X168840000Y-69820000D03*
%TO.P,,2*%
X171380000Y-69820000D03*
%TO.P,,3*%
X171380000Y-72360000D03*
%TO.P,,4*%
X168840000Y-72360000D03*
%TO.P,,5*%
X166300000Y-72360000D03*
%TO.P,,6*%
X166300000Y-69820000D03*
%TO.P,,7*%
X166300000Y-67280000D03*
%TO.P,,8*%
X168840000Y-67280000D03*
%TO.P,,9*%
X171380000Y-67280000D03*
%TO.P,,10*%
X173920000Y-67280000D03*
%TO.P,,11*%
X173920000Y-69820000D03*
%TO.P,,12*%
X173920000Y-72360000D03*
%TO.P,,13*%
X173920000Y-74900000D03*
%TO.P,,14*%
X171380000Y-74900000D03*
%TO.P,,15*%
X168840000Y-74900000D03*
%TO.P,,16*%
X166300000Y-74900000D03*
%TD*%
D13*
%TO.P,,1*%
%TO.N,N/C*%
X156140000Y-135860000D03*
D28*
X165030000Y-135225000D03*
D29*
%TO.P,,2*%
X158680000Y-135860000D03*
D28*
X165030000Y-136495000D03*
%TO.P,,3*%
X177730000Y-136495000D03*
D29*
X184080000Y-135860000D03*
D28*
%TO.P,,4*%
X177730000Y-135225000D03*
D13*
X186620000Y-135860000D03*
%TD*%
D20*
%TO.P,,1*%
%TO.N,N/C*%
X120085000Y-135880000D03*
D21*
X119110000Y-122600000D03*
D20*
%TO.P,,2*%
X120085000Y-133340000D03*
D21*
X119760000Y-122600000D03*
D20*
%TO.P,,3*%
X120085000Y-130800000D03*
D21*
X120410000Y-122600000D03*
D20*
%TO.P,,4*%
X120085000Y-128260000D03*
D21*
X121060000Y-122600000D03*
%TO.P,,5*%
X121060000Y-113600000D03*
D22*
X120085000Y-107940000D03*
D21*
%TO.P,,6*%
X120410000Y-113600000D03*
D22*
X120085000Y-105400000D03*
D21*
%TO.P,,7*%
X119760000Y-113600000D03*
D22*
X120085000Y-102860000D03*
D21*
%TO.P,,8*%
X119110000Y-113600000D03*
D22*
X120085000Y-100320000D03*
%TD*%
D10*
%TO.P,,1*%
%TO.N,N/C*%
X108625260Y-90140000D03*
%TO.P,,2*%
X111165260Y-90140000D03*
%TO.P,,3*%
X111165260Y-92680000D03*
%TO.P,,4*%
X108625260Y-92680000D03*
%TO.P,,5*%
X106085260Y-92680000D03*
%TO.P,,6*%
X106085260Y-90140000D03*
%TO.P,,7*%
X106085260Y-87600000D03*
%TO.P,,8*%
X108625260Y-87600000D03*
%TO.P,,9*%
X111165260Y-87600000D03*
%TO.P,,10*%
X113705260Y-87600000D03*
%TO.P,,11*%
X113705260Y-90140000D03*
%TO.P,,12*%
X113705260Y-92680000D03*
%TO.P,,13*%
X113705260Y-95220000D03*
%TO.P,,14*%
X111165260Y-95220000D03*
%TO.P,,15*%
X108625260Y-95220000D03*
%TO.P,,16*%
X106085260Y-95220000D03*
%TD*%
D13*
%TO.P,,1*%
%TO.N,N/C*%
X156140000Y-138400000D03*
D28*
X165030000Y-137765000D03*
D29*
%TO.P,,2*%
X158680000Y-138400000D03*
D28*
X165030000Y-139035000D03*
%TO.P,,3*%
X177730000Y-139035000D03*
D29*
X184080000Y-138400000D03*
D28*
%TO.P,,4*%
X177730000Y-137765000D03*
D13*
X186620000Y-138400000D03*
%TD*%
D30*
%TO.P,,0*%
%TO.N,N/C*%
X91164800Y-41017600D03*
X99164800Y-41017600D03*
D31*
%TO.P,,1*%
X90404800Y-54427600D03*
D32*
X91966900Y-51641220D03*
D31*
%TO.P,,2*%
X91674800Y-56967600D03*
D32*
X93066720Y-51641220D03*
D31*
%TO.P,,3*%
X92944800Y-54427600D03*
D32*
X94166540Y-51641220D03*
D31*
%TO.P,,4*%
X94214800Y-56967600D03*
D32*
X95263820Y-51641220D03*
D31*
%TO.P,,5*%
X95484800Y-54427600D03*
D32*
X96363640Y-51641220D03*
D31*
%TO.P,,6*%
X96754800Y-56967600D03*
D32*
X97463460Y-51641220D03*
D31*
%TO.P,,7*%
X98024800Y-54427600D03*
D32*
X98563280Y-51641220D03*
D31*
%TO.P,,8*%
X99294800Y-56967600D03*
D32*
X99663100Y-51641220D03*
D31*
%TO.P,,9*%
X100564800Y-54427600D03*
D32*
X100762920Y-51641220D03*
D31*
%TO.P,,10*%
X101834800Y-56967600D03*
D33*
X101964340Y-51016380D03*
D34*
%TO.P,,11*%
X87366960Y-51016380D03*
D35*
%TO.P,,12*%
X101964340Y-41417720D03*
%TO.P,,13*%
X86465260Y-41417720D03*
%TD*%
D13*
%TO.P,,1*%
%TO.N,N/C*%
X166300000Y-54580000D03*
D14*
X170110000Y-54580000D03*
%TO.P,,2*%
X177730000Y-54580000D03*
D13*
X181540000Y-54580000D03*
D14*
%TO.P,,3*%
X172650000Y-54580000D03*
X175190000Y-54580000D03*
%TD*%
D13*
%TO.P,,1*%
%TO.N,N/C*%
X86475260Y-64740000D03*
D14*
X90285260Y-64740000D03*
%TO.P,,2*%
X97905260Y-64740000D03*
D13*
X101715260Y-64740000D03*
D14*
%TO.P,,3*%
X92825260Y-64740000D03*
X95365260Y-64740000D03*
%TD*%
D10*
%TO.P,,1*%
%TO.N,N/C*%
X135820000Y-44420000D03*
%TO.P,,2*%
X138360000Y-44420000D03*
%TO.P,,3*%
X138360000Y-46960000D03*
%TO.P,,4*%
X135820000Y-46960000D03*
%TO.P,,5*%
X133280000Y-46960000D03*
%TO.P,,6*%
X133280000Y-44420000D03*
%TO.P,,7*%
X133280000Y-41880000D03*
%TO.P,,8*%
X135820000Y-41880000D03*
%TO.P,,9*%
X138360000Y-41880000D03*
%TO.P,,10*%
X140900000Y-41880000D03*
%TO.P,,11*%
X140900000Y-44420000D03*
%TO.P,,12*%
X140900000Y-46960000D03*
%TO.P,,13*%
X140900000Y-49500000D03*
%TO.P,,14*%
X138360000Y-49500000D03*
%TO.P,,15*%
X135820000Y-49500000D03*
%TO.P,,16*%
X133280000Y-49500000D03*
%TD*%
%TO.P,,1*%
%TO.N,N/C*%
X168840000Y-90140000D03*
%TO.P,,2*%
X171380000Y-90140000D03*
%TO.P,,3*%
X171380000Y-92680000D03*
%TO.P,,4*%
X168840000Y-92680000D03*
%TO.P,,5*%
X166300000Y-92680000D03*
%TO.P,,6*%
X166300000Y-90140000D03*
%TO.P,,7*%
X166300000Y-87600000D03*
%TO.P,,8*%
X168840000Y-87600000D03*
%TO.P,,9*%
X171380000Y-87600000D03*
%TO.P,,10*%
X173920000Y-87600000D03*
%TO.P,,11*%
X173920000Y-90140000D03*
%TO.P,,12*%
X173920000Y-92680000D03*
%TO.P,,13*%
X173920000Y-95220000D03*
%TO.P,,14*%
X171380000Y-95220000D03*
%TO.P,,15*%
X168840000Y-95220000D03*
%TO.P,,16*%
X166300000Y-95220000D03*
%TD*%
%TO.P,,1*%
%TO.N,N/C*%
X170110000Y-48230000D03*
X170110000Y-52040000D03*
D36*
%TO.P,,2*%
X170110000Y-41880000D03*
D26*
X170110000Y-45690000D03*
%TO.P,,3*%
X172650000Y-48230000D03*
D36*
X172650000Y-52040000D03*
%TO.P,,4*%
X172650000Y-41880000D03*
D26*
X172650000Y-45690000D03*
%TO.P,,5*%
X175190000Y-48230000D03*
D36*
X175190000Y-52040000D03*
%TO.P,,6*%
X175190000Y-41880000D03*
D26*
X175190000Y-45690000D03*
%TO.P,,7*%
X177730000Y-48230000D03*
D36*
X177730000Y-52040000D03*
%TO.P,,8*%
X177730000Y-41880000D03*
D26*
X177730000Y-45690000D03*
%TO.P,,9*%
X180270000Y-48230000D03*
D36*
X180270000Y-52040000D03*
%TO.P,,10*%
X180270000Y-41880000D03*
D26*
X180270000Y-45690000D03*
%TD*%
D13*
%TO.P,,1*%
%TO.N,N/C*%
X156140000Y-100300000D03*
D28*
X165030000Y-99665000D03*
D29*
%TO.P,,2*%
X158680000Y-100300000D03*
D28*
X165030000Y-100935000D03*
%TO.P,,3*%
X177730000Y-100935000D03*
D29*
X184080000Y-100300000D03*
D28*
%TO.P,,4*%
X177730000Y-99665000D03*
D13*
X186620000Y-100300000D03*
%TD*%
D10*
%TO.P,,1*%
%TO.N,N/C*%
X202495000Y-123160000D03*
%TO.P,,2*%
X205035000Y-123160000D03*
%TO.P,,3*%
X205035000Y-125700000D03*
%TO.P,,4*%
X202495000Y-125700000D03*
%TO.P,,5*%
X199955000Y-125700000D03*
%TO.P,,6*%
X199955000Y-123160000D03*
%TO.P,,7*%
X199955000Y-120620000D03*
%TO.P,,8*%
X202495000Y-120620000D03*
%TO.P,,9*%
X205035000Y-120620000D03*
%TO.P,,10*%
X207575000Y-120620000D03*
%TO.P,,11*%
X207575000Y-123160000D03*
%TO.P,,12*%
X207575000Y-125700000D03*
%TO.P,,13*%
X207575000Y-128240000D03*
%TO.P,,14*%
X205035000Y-128240000D03*
%TO.P,,15*%
X202495000Y-128240000D03*
%TO.P,,16*%
X199955000Y-128240000D03*
%TD*%
%TO.P,,1*%
%TO.N,N/C*%
X201860000Y-54580000D03*
%TO.P,,2*%
X204400000Y-54580000D03*
%TO.P,,3*%
X204400000Y-57120000D03*
%TO.P,,4*%
X201860000Y-57120000D03*
%TO.P,,5*%
X199320000Y-57120000D03*
%TO.P,,6*%
X199320000Y-54580000D03*
%TO.P,,7*%
X199320000Y-52040000D03*
%TO.P,,8*%
X201860000Y-52040000D03*
%TO.P,,9*%
X204400000Y-52040000D03*
%TO.P,,10*%
X206940000Y-52040000D03*
%TO.P,,11*%
X206940000Y-54580000D03*
%TO.P,,12*%
X206940000Y-57120000D03*
%TO.P,,13*%
X206940000Y-59660000D03*
%TO.P,,14*%
X204400000Y-59660000D03*
%TO.P,,15*%
X201860000Y-59660000D03*
%TO.P,,16*%
X199320000Y-59660000D03*
%TD*%
%TO.P,,1*%
%TO.N,N/C*%
X179000000Y-69820000D03*
%TO.P,,2*%
X181540000Y-69820000D03*
%TO.P,,3*%
X181540000Y-72360000D03*
%TO.P,,4*%
X179000000Y-72360000D03*
%TO.P,,5*%
X176460000Y-72360000D03*
%TO.P,,6*%
X176460000Y-69820000D03*
%TO.P,,7*%
X176460000Y-67280000D03*
%TO.P,,8*%
X179000000Y-67280000D03*
%TO.P,,9*%
X181540000Y-67280000D03*
%TO.P,,10*%
X184080000Y-67280000D03*
%TO.P,,11*%
X184080000Y-69820000D03*
%TO.P,,12*%
X184080000Y-72360000D03*
%TO.P,,13*%
X184080000Y-74900000D03*
%TO.P,,14*%
X181540000Y-74900000D03*
%TO.P,,15*%
X179000000Y-74900000D03*
%TO.P,,16*%
X176460000Y-74900000D03*
%TD*%
D13*
%TO.P,,1*%
%TO.N,N/C*%
X156140000Y-110460000D03*
D28*
X165030000Y-109825000D03*
D29*
%TO.P,,2*%
X158680000Y-110460000D03*
D28*
X165030000Y-111095000D03*
%TO.P,,3*%
X177730000Y-111095000D03*
D29*
X184080000Y-110460000D03*
D28*
%TO.P,,4*%
X177730000Y-109825000D03*
D13*
X186620000Y-110460000D03*
%TD*%
D18*
%TO.P,REF\u002A\u002A,1*%
%TO.N,N/C*%
X119865260Y-144914280D03*
D19*
%TO.P,REF\u002A\u002A,2*%
X123365260Y-144914280D03*
%TD*%
D20*
%TO.P,,1*%
%TO.N,N/C*%
X122625000Y-135880000D03*
D21*
X121650000Y-122600000D03*
D20*
%TO.P,,2*%
X122625000Y-133340000D03*
D21*
X122300000Y-122600000D03*
D20*
%TO.P,,3*%
X122625000Y-130800000D03*
D21*
X122950000Y-122600000D03*
D20*
%TO.P,,4*%
X122625000Y-128260000D03*
D21*
X123600000Y-122600000D03*
%TO.P,,5*%
X123600000Y-113600000D03*
D22*
X122625000Y-107940000D03*
D21*
%TO.P,,6*%
X122950000Y-113600000D03*
D22*
X122625000Y-105400000D03*
D21*
%TO.P,,7*%
X122300000Y-113600000D03*
D22*
X122625000Y-102860000D03*
D21*
%TO.P,,8*%
X121650000Y-113600000D03*
D22*
X122625000Y-100320000D03*
%TD*%
D13*
%TO.P,,1*%
%TO.N,N/C*%
X156140000Y-133320000D03*
D28*
X165030000Y-132685000D03*
D29*
%TO.P,,2*%
X158680000Y-133320000D03*
D28*
X165030000Y-133955000D03*
%TO.P,,3*%
X177730000Y-133955000D03*
D29*
X184080000Y-133320000D03*
D28*
%TO.P,,4*%
X177730000Y-132685000D03*
D13*
X186620000Y-133320000D03*
%TD*%
D10*
%TO.P,,1*%
%TO.N,N/C*%
X148520000Y-113000000D03*
%TO.P,,2*%
X151060000Y-113000000D03*
%TO.P,,3*%
X151060000Y-115540000D03*
%TO.P,,4*%
X148520000Y-115540000D03*
%TO.P,,5*%
X145980000Y-115540000D03*
%TO.P,,6*%
X145980000Y-113000000D03*
%TO.P,,7*%
X145980000Y-110460000D03*
%TO.P,,8*%
X148520000Y-110460000D03*
%TO.P,,9*%
X151060000Y-110460000D03*
%TO.P,,10*%
X153600000Y-110460000D03*
%TO.P,,11*%
X153600000Y-113000000D03*
%TO.P,,12*%
X153600000Y-115540000D03*
%TO.P,,13*%
X153600000Y-118080000D03*
%TO.P,,14*%
X151060000Y-118080000D03*
%TO.P,,15*%
X148520000Y-118080000D03*
%TO.P,,16*%
X145980000Y-118080000D03*
%TD*%
D13*
%TO.P,,1*%
%TO.N,N/C*%
X156140000Y-105380000D03*
D28*
X165030000Y-104745000D03*
D29*
%TO.P,,2*%
X158680000Y-105380000D03*
D28*
X165030000Y-106015000D03*
%TO.P,,3*%
X177730000Y-106015000D03*
D29*
X184080000Y-105380000D03*
D28*
%TO.P,,4*%
X177730000Y-104745000D03*
D13*
X186620000Y-105380000D03*
%TD*%
D10*
%TO.P,,1*%
%TO.N,N/C*%
X192335000Y-113000000D03*
%TO.P,,2*%
X194875000Y-113000000D03*
%TO.P,,3*%
X194875000Y-115540000D03*
%TO.P,,4*%
X192335000Y-115540000D03*
%TO.P,,5*%
X189795000Y-115540000D03*
%TO.P,,6*%
X189795000Y-113000000D03*
%TO.P,,7*%
X189795000Y-110460000D03*
%TO.P,,8*%
X192335000Y-110460000D03*
%TO.P,,9*%
X194875000Y-110460000D03*
%TO.P,,10*%
X197415000Y-110460000D03*
%TO.P,,11*%
X197415000Y-113000000D03*
%TO.P,,12*%
X197415000Y-115540000D03*
%TO.P,,13*%
X197415000Y-118080000D03*
%TO.P,,14*%
X194875000Y-118080000D03*
%TO.P,,15*%
X192335000Y-118080000D03*
%TO.P,,16*%
X189795000Y-118080000D03*
%TD*%
%TO.P,,1*%
%TO.N,N/C*%
X202495000Y-113000000D03*
%TO.P,,2*%
X205035000Y-113000000D03*
%TO.P,,3*%
X205035000Y-115540000D03*
%TO.P,,4*%
X202495000Y-115540000D03*
%TO.P,,5*%
X199955000Y-115540000D03*
%TO.P,,6*%
X199955000Y-113000000D03*
%TO.P,,7*%
X199955000Y-110460000D03*
%TO.P,,8*%
X202495000Y-110460000D03*
%TO.P,,9*%
X205035000Y-110460000D03*
%TO.P,,10*%
X207575000Y-110460000D03*
%TO.P,,11*%
X207575000Y-113000000D03*
%TO.P,,12*%
X207575000Y-115540000D03*
%TO.P,,13*%
X207575000Y-118080000D03*
%TO.P,,14*%
X205035000Y-118080000D03*
%TO.P,,15*%
X202495000Y-118080000D03*
%TO.P,,16*%
X199955000Y-118080000D03*
%TD*%
D13*
%TO.P,,1*%
%TO.N,N/C*%
X86475260Y-67280000D03*
D14*
X90285260Y-67280000D03*
%TO.P,,2*%
X97905260Y-67280000D03*
D13*
X101715260Y-67280000D03*
D14*
%TO.P,,3*%
X92825260Y-67280000D03*
X95365260Y-67280000D03*
%TD*%
D20*
%TO.P,,1*%
%TO.N,N/C*%
X132785000Y-135880000D03*
D21*
X131810000Y-122600000D03*
D20*
%TO.P,,2*%
X132785000Y-133340000D03*
D21*
X132460000Y-122600000D03*
D20*
%TO.P,,3*%
X132785000Y-130800000D03*
D21*
X133110000Y-122600000D03*
D20*
%TO.P,,4*%
X132785000Y-128260000D03*
D21*
X133760000Y-122600000D03*
%TO.P,,5*%
X133760000Y-113600000D03*
D22*
X132785000Y-107940000D03*
D21*
%TO.P,,6*%
X133110000Y-113600000D03*
D22*
X132785000Y-105400000D03*
D21*
%TO.P,,7*%
X132460000Y-113600000D03*
D22*
X132785000Y-102860000D03*
D21*
%TO.P,,8*%
X131810000Y-113600000D03*
D22*
X132785000Y-100320000D03*
%TD*%
D10*
%TO.P,,1*%
%TO.N,N/C*%
X179000000Y-79980000D03*
%TO.P,,2*%
X181540000Y-79980000D03*
%TO.P,,3*%
X181540000Y-82520000D03*
%TO.P,,4*%
X179000000Y-82520000D03*
%TO.P,,5*%
X176460000Y-82520000D03*
%TO.P,,6*%
X176460000Y-79980000D03*
%TO.P,,7*%
X176460000Y-77440000D03*
%TO.P,,8*%
X179000000Y-77440000D03*
%TO.P,,9*%
X181540000Y-77440000D03*
%TO.P,,10*%
X184080000Y-77440000D03*
%TO.P,,11*%
X184080000Y-79980000D03*
%TO.P,,12*%
X184080000Y-82520000D03*
%TO.P,,13*%
X184080000Y-85060000D03*
%TO.P,,14*%
X181540000Y-85060000D03*
%TO.P,,15*%
X179000000Y-85060000D03*
%TO.P,,16*%
X176460000Y-85060000D03*
%TD*%
D20*
%TO.P,,1*%
%TO.N,N/C*%
X127705000Y-135880000D03*
D21*
X126730000Y-122600000D03*
D20*
%TO.P,,2*%
X127705000Y-133340000D03*
D21*
X127380000Y-122600000D03*
D20*
%TO.P,,3*%
X127705000Y-130800000D03*
D21*
X128030000Y-122600000D03*
D20*
%TO.P,,4*%
X127705000Y-128260000D03*
D21*
X128680000Y-122600000D03*
%TO.P,,5*%
X128680000Y-113600000D03*
D22*
X127705000Y-107940000D03*
D21*
%TO.P,,6*%
X128030000Y-113600000D03*
D22*
X127705000Y-105400000D03*
D21*
%TO.P,,7*%
X127380000Y-113600000D03*
D22*
X127705000Y-102860000D03*
D21*
%TO.P,,8*%
X126730000Y-113600000D03*
D22*
X127705000Y-100320000D03*
%TD*%
D13*
%TO.P,,1*%
%TO.N,N/C*%
X156140000Y-125700000D03*
D28*
X165030000Y-125065000D03*
D29*
%TO.P,,2*%
X158680000Y-125700000D03*
D28*
X165030000Y-126335000D03*
%TO.P,,3*%
X177730000Y-126335000D03*
D29*
X184080000Y-125700000D03*
D28*
%TO.P,,4*%
X177730000Y-125065000D03*
D13*
X186620000Y-125700000D03*
%TD*%
D10*
%TO.P,,1*%
%TO.N,N/C*%
X108625260Y-69820000D03*
%TO.P,,2*%
X111165260Y-69820000D03*
%TO.P,,3*%
X111165260Y-72360000D03*
%TO.P,,4*%
X108625260Y-72360000D03*
%TO.P,,5*%
X106085260Y-72360000D03*
%TO.P,,6*%
X106085260Y-69820000D03*
%TO.P,,7*%
X106085260Y-67280000D03*
%TO.P,,8*%
X108625260Y-67280000D03*
%TO.P,,9*%
X111165260Y-67280000D03*
%TO.P,,10*%
X113705260Y-67280000D03*
%TO.P,,11*%
X113705260Y-69820000D03*
%TO.P,,12*%
X113705260Y-72360000D03*
%TO.P,,13*%
X113705260Y-74900000D03*
%TO.P,,14*%
X111165260Y-74900000D03*
%TO.P,,15*%
X108625260Y-74900000D03*
%TO.P,,16*%
X106085260Y-74900000D03*
%TD*%
D20*
%TO.P,,1*%
%TO.N,N/C*%
X117545000Y-135880000D03*
D21*
X116570000Y-122600000D03*
D20*
%TO.P,,2*%
X117545000Y-133340000D03*
D21*
X117220000Y-122600000D03*
D20*
%TO.P,,3*%
X117545000Y-130800000D03*
D21*
X117870000Y-122600000D03*
D20*
%TO.P,,4*%
X117545000Y-128260000D03*
D21*
X118520000Y-122600000D03*
%TO.P,,5*%
X118520000Y-113600000D03*
D22*
X117545000Y-107940000D03*
D21*
%TO.P,,6*%
X117870000Y-113600000D03*
D22*
X117545000Y-105400000D03*
D21*
%TO.P,,7*%
X117220000Y-113600000D03*
D22*
X117545000Y-102860000D03*
D21*
%TO.P,,8*%
X116570000Y-113600000D03*
D22*
X117545000Y-100320000D03*
%TD*%
D13*
%TO.P,,1*%
%TO.N,N/C*%
X86475260Y-72360000D03*
D14*
X90285260Y-72360000D03*
%TO.P,,2*%
X97905260Y-72360000D03*
D13*
X101715260Y-72360000D03*
D14*
%TO.P,,3*%
X92825260Y-72360000D03*
X95365260Y-72360000D03*
%TD*%
D13*
%TO.P,,1*%
%TO.N,N/C*%
X156140000Y-123160000D03*
D28*
X165030000Y-122525000D03*
D29*
%TO.P,,2*%
X158680000Y-123160000D03*
D28*
X165030000Y-123795000D03*
%TO.P,,3*%
X177730000Y-123795000D03*
D29*
X184080000Y-123160000D03*
D28*
%TO.P,,4*%
X177730000Y-122525000D03*
D13*
X186620000Y-123160000D03*
%TD*%
D20*
%TO.P,,1*%
%TO.N,N/C*%
X99765000Y-135880000D03*
D21*
X98790000Y-122600000D03*
D20*
%TO.P,,2*%
X99765000Y-133340000D03*
D21*
X99440000Y-122600000D03*
D20*
%TO.P,,3*%
X99765000Y-130800000D03*
D21*
X100090000Y-122600000D03*
D20*
%TO.P,,4*%
X99765000Y-128260000D03*
D21*
X100740000Y-122600000D03*
%TO.P,,5*%
X100740000Y-113600000D03*
D22*
X99765000Y-107940000D03*
D21*
%TO.P,,6*%
X100090000Y-113600000D03*
D22*
X99765000Y-105400000D03*
D21*
%TO.P,,7*%
X99440000Y-113600000D03*
D22*
X99765000Y-102860000D03*
D21*
%TO.P,,8*%
X98790000Y-113600000D03*
D22*
X99765000Y-100320000D03*
%TD*%
D13*
%TO.P,,1*%
%TO.N,N/C*%
X156140000Y-113000000D03*
D28*
X165030000Y-112365000D03*
D29*
%TO.P,,2*%
X158680000Y-113000000D03*
D28*
X165030000Y-113635000D03*
%TO.P,,3*%
X177730000Y-113635000D03*
D29*
X184080000Y-113000000D03*
D28*
%TO.P,,4*%
X177730000Y-112365000D03*
D13*
X186620000Y-113000000D03*
%TD*%
D11*
%TO.P,,1*%
%TO.N,N/C*%
X203260260Y-74900000D03*
D12*
X204215260Y-72055000D03*
D11*
%TO.P,,2*%
X205165260Y-77440000D03*
D12*
X205165260Y-72055000D03*
D11*
%TO.P,,3*%
X207070260Y-74900000D03*
D12*
X206115260Y-72055000D03*
%TO.P,,4*%
X206115260Y-68855000D03*
D11*
X207070260Y-66010000D03*
D12*
%TO.P,,5*%
X205165260Y-68855000D03*
D11*
X205165260Y-63470000D03*
D12*
%TO.P,,6*%
X204215260Y-68855000D03*
D11*
X203260260Y-66010000D03*
%TD*%
D26*
%TO.P,,1*%
%TO.N,N/C*%
X120580000Y-59660000D03*
D37*
X133200000Y-68900000D03*
D26*
%TO.P,,2*%
X123120000Y-60930000D03*
D37*
X133200000Y-69400000D03*
D26*
%TO.P,,3*%
X120580000Y-62200000D03*
D37*
X133200000Y-69900000D03*
D26*
%TO.P,,4*%
X123120000Y-63470000D03*
D37*
X133200000Y-70400000D03*
D26*
%TO.P,,5*%
X120580000Y-64740000D03*
D37*
X133200000Y-70900000D03*
D26*
%TO.P,,6*%
X123120000Y-66010000D03*
D37*
X133200000Y-71400000D03*
D26*
%TO.P,,7*%
X120580000Y-67280000D03*
D37*
X133200000Y-71900000D03*
D26*
%TO.P,,8*%
X123120000Y-68550000D03*
D37*
X133200000Y-72400000D03*
D26*
%TO.P,,9*%
X120580000Y-69820000D03*
D37*
X133200000Y-72900000D03*
D26*
%TO.P,,10*%
X123120000Y-71090000D03*
D37*
X133200000Y-73400000D03*
D26*
%TO.P,,11*%
X120580000Y-72360000D03*
D37*
X133200000Y-73900000D03*
D26*
%TO.P,,12*%
X123120000Y-73630000D03*
D37*
X133200000Y-74400000D03*
D26*
%TO.P,,13*%
X120580000Y-74900000D03*
D37*
X133200000Y-74900000D03*
D26*
%TO.P,,14*%
X123120000Y-76170000D03*
D37*
X133200000Y-75400000D03*
D26*
%TO.P,,15*%
X120580000Y-77440000D03*
D37*
X133200000Y-75900000D03*
D26*
%TO.P,,16*%
X123120000Y-78710000D03*
D37*
X133200000Y-76400000D03*
D26*
%TO.P,,17*%
X120580000Y-79980000D03*
D37*
X133200000Y-76900000D03*
D26*
%TO.P,,18*%
X123120000Y-81250000D03*
D37*
X133200000Y-77400000D03*
D26*
%TO.P,,19*%
X120580000Y-82520000D03*
D37*
X133200000Y-77900000D03*
D26*
%TO.P,,20*%
X123120000Y-83790000D03*
D37*
X133200000Y-78400000D03*
D26*
%TO.P,,21*%
X120580000Y-85060000D03*
D37*
X133200000Y-78900000D03*
D26*
%TO.P,,22*%
X123120000Y-86330000D03*
D37*
X133200000Y-79400000D03*
D26*
%TO.P,,23*%
X120580000Y-87600000D03*
D37*
X133200000Y-79900000D03*
D26*
%TO.P,,24*%
X123120000Y-88870000D03*
D37*
X133200000Y-80400000D03*
D26*
%TO.P,,25*%
X120580000Y-90140000D03*
D37*
X133200000Y-80900000D03*
D26*
%TO.P,,26*%
X125660000Y-95220000D03*
D38*
X134900000Y-78450000D03*
D26*
%TO.P,,27*%
X126930000Y-92680000D03*
D38*
X135400000Y-78450000D03*
D26*
%TO.P,,28*%
X128200000Y-95220000D03*
D38*
X135900000Y-78450000D03*
D26*
%TO.P,,29*%
X129470000Y-92680000D03*
D38*
X136400000Y-78450000D03*
D26*
%TO.P,,30*%
X130740000Y-95220000D03*
D38*
X136900000Y-78450000D03*
D26*
%TO.P,,31*%
X132010000Y-92680000D03*
D38*
X137400000Y-78450000D03*
D26*
%TO.P,,32*%
X133280000Y-95220000D03*
D38*
X137900000Y-78450000D03*
D26*
%TO.P,,33*%
X134550000Y-92680000D03*
D38*
X138400000Y-78450000D03*
D26*
%TO.P,,34*%
X135820000Y-95220000D03*
D39*
X138900000Y-79200000D03*
D26*
%TO.P,,35*%
X137090000Y-92680000D03*
D39*
X139400000Y-79200000D03*
D26*
%TO.P,,36*%
X138360000Y-95220000D03*
D39*
X139900000Y-79200000D03*
D26*
%TO.P,,37*%
X139630000Y-92680000D03*
D40*
X140400000Y-79700000D03*
%TO.P,,38*%
X140900000Y-79700000D03*
D26*
X140900000Y-95220000D03*
D41*
%TO.P,,39*%
X141400000Y-80450000D03*
D26*
X142170000Y-92680000D03*
D41*
%TO.P,,40*%
X141900000Y-80450000D03*
D26*
X143440000Y-95220000D03*
D41*
%TO.P,,41*%
X142400000Y-80450000D03*
D26*
X144710000Y-92680000D03*
D42*
%TO.P,,42*%
X142900000Y-81450000D03*
D26*
X145980000Y-95220000D03*
D42*
%TO.P,,43*%
X143400000Y-81450000D03*
D26*
X147250000Y-92680000D03*
D42*
%TO.P,,44*%
X143900000Y-81450000D03*
D26*
X148520000Y-95220000D03*
D42*
%TO.P,,45*%
X144400000Y-81450000D03*
D26*
X149790000Y-92680000D03*
D43*
%TO.P,,46*%
X144900000Y-82600000D03*
D26*
X151060000Y-95220000D03*
D43*
%TO.P,,47*%
X145400000Y-82600000D03*
D26*
X152330000Y-92680000D03*
D43*
%TO.P,,48*%
X145900000Y-82600000D03*
D26*
X153600000Y-95220000D03*
D43*
%TO.P,,49*%
X146400000Y-82600000D03*
D26*
X154870000Y-92680000D03*
D43*
%TO.P,,50*%
X146900000Y-82600000D03*
D26*
X156140000Y-95220000D03*
D37*
%TO.P,,51*%
X148600000Y-80900000D03*
D26*
X161220000Y-90140000D03*
D37*
%TO.P,,52*%
X148600000Y-80400000D03*
D26*
X158680000Y-88870000D03*
D37*
%TO.P,,53*%
X148600000Y-79900000D03*
D26*
X161220000Y-87600000D03*
D37*
%TO.P,,54*%
X148600000Y-79400000D03*
D26*
X158680000Y-86330000D03*
D37*
%TO.P,,55*%
X148600000Y-78900000D03*
D26*
X161220000Y-85060000D03*
D44*
%TO.P,,56*%
X147450000Y-78400000D03*
D26*
X158680000Y-83790000D03*
D44*
%TO.P,,57*%
X147450000Y-77900000D03*
D26*
X161220000Y-82520000D03*
D44*
%TO.P,,58*%
X147450000Y-77400000D03*
D26*
X158680000Y-81250000D03*
D44*
%TO.P,,59*%
X147450000Y-76900000D03*
D26*
X161220000Y-79980000D03*
D45*
%TO.P,,60*%
X146450000Y-76400000D03*
D26*
X158680000Y-78710000D03*
D45*
%TO.P,,61*%
X146450000Y-75900000D03*
D26*
X161220000Y-77440000D03*
D45*
%TO.P,,62*%
X146450000Y-75400000D03*
D26*
X158680000Y-76170000D03*
D46*
%TO.P,,63*%
X145700000Y-74900000D03*
D26*
X161220000Y-74900000D03*
D46*
%TO.P,,64*%
X145700000Y-74400000D03*
D26*
X158680000Y-73630000D03*
D47*
%TO.P,,65*%
X145200000Y-73900000D03*
D26*
X161220000Y-72360000D03*
D47*
%TO.P,,66*%
X145200000Y-73400000D03*
D26*
X158680000Y-71090000D03*
D47*
%TO.P,,67*%
X145200000Y-72900000D03*
D26*
X161220000Y-69820000D03*
D48*
%TO.P,,68*%
X144450000Y-72400000D03*
D26*
X158680000Y-68550000D03*
D48*
%TO.P,,69*%
X144450000Y-71900000D03*
D26*
X161220000Y-67280000D03*
D48*
%TO.P,,70*%
X144450000Y-71400000D03*
D26*
X158680000Y-66010000D03*
D48*
%TO.P,,71*%
X144450000Y-70900000D03*
D26*
X161220000Y-64740000D03*
D48*
%TO.P,,72*%
X144450000Y-70400000D03*
D26*
X158680000Y-63470000D03*
D48*
%TO.P,,73*%
X144450000Y-69900000D03*
D26*
X161220000Y-62200000D03*
D48*
%TO.P,,74*%
X144450000Y-69400000D03*
D26*
X158680000Y-60930000D03*
D48*
%TO.P,,75*%
X144450000Y-68900000D03*
D26*
X161220000Y-59660000D03*
D43*
%TO.P,,76*%
X146900000Y-67200000D03*
D26*
X156140000Y-54580000D03*
D43*
%TO.P,,77*%
X146400000Y-67200000D03*
D26*
X154870000Y-57120000D03*
D43*
%TO.P,,78*%
X145900000Y-67200000D03*
D26*
X153600000Y-54580000D03*
D43*
%TO.P,,79*%
X145400000Y-67200000D03*
D26*
X152330000Y-57120000D03*
D43*
%TO.P,,80*%
X144900000Y-67200000D03*
D26*
X151060000Y-54580000D03*
D43*
%TO.P,,81*%
X144400000Y-67200000D03*
D26*
X149790000Y-57120000D03*
D43*
%TO.P,,82*%
X143900000Y-67200000D03*
D26*
X148520000Y-54580000D03*
D43*
%TO.P,,83*%
X143400000Y-67200000D03*
D26*
X147250000Y-57120000D03*
D43*
%TO.P,,84*%
X142900000Y-67200000D03*
D26*
X145980000Y-54580000D03*
D43*
%TO.P,,85*%
X142400000Y-67200000D03*
D26*
X144710000Y-57120000D03*
D43*
%TO.P,,86*%
X141900000Y-67200000D03*
D26*
X143440000Y-54580000D03*
D43*
%TO.P,,87*%
X141400000Y-67200000D03*
D26*
X142170000Y-57120000D03*
%TO.P,,88*%
X140900000Y-54580000D03*
D43*
X140900000Y-67200000D03*
D26*
%TO.P,,89*%
X139630000Y-57120000D03*
D43*
X140400000Y-67200000D03*
D26*
%TO.P,,90*%
X138360000Y-54580000D03*
D43*
X139900000Y-67200000D03*
D26*
%TO.P,,91*%
X137090000Y-57120000D03*
D43*
X139400000Y-67200000D03*
D26*
%TO.P,,92*%
X135820000Y-54580000D03*
D43*
X138900000Y-67200000D03*
D26*
%TO.P,,93*%
X134550000Y-57120000D03*
D43*
X138400000Y-67200000D03*
D26*
%TO.P,,94*%
X133280000Y-54580000D03*
D43*
X137900000Y-67200000D03*
D26*
%TO.P,,95*%
X132010000Y-57120000D03*
D43*
X137400000Y-67200000D03*
D26*
%TO.P,,96*%
X130740000Y-54580000D03*
D43*
X136900000Y-67200000D03*
D26*
%TO.P,,97*%
X129470000Y-57120000D03*
D43*
X136400000Y-67200000D03*
D26*
%TO.P,,98*%
X128200000Y-54580000D03*
D43*
X135900000Y-67200000D03*
D26*
%TO.P,,99*%
X126930000Y-57120000D03*
D43*
X135400000Y-67200000D03*
D26*
%TO.P,,100*%
X125660000Y-54580000D03*
D43*
X134900000Y-67200000D03*
D49*
%TO.P,,101*%
X123120000Y-57120000D03*
D26*
X124390000Y-58390000D03*
%TO.P,,102*%
X120580000Y-54580000D03*
D49*
X121850000Y-55850000D03*
D50*
%TO.P,,103*%
X123120000Y-92680000D03*
D26*
X124390000Y-91410000D03*
%TO.P,,104*%
X120580000Y-95220000D03*
D50*
X121850000Y-93950000D03*
D26*
%TO.P,,105*%
X157410000Y-91410000D03*
D49*
X158680000Y-92680000D03*
%TO.P,,106*%
X159950000Y-93950000D03*
D26*
X161220000Y-95220000D03*
%TO.P,,107*%
X157410000Y-58390000D03*
D50*
X158680000Y-57120000D03*
%TO.P,,108*%
X159950000Y-55850000D03*
D26*
X161220000Y-54580000D03*
%TO.P,,109*%
X125660000Y-59660000D03*
%TO.P,,110*%
X156140000Y-59660000D03*
%TO.P,,111*%
X125660000Y-90140000D03*
%TO.P,,112*%
X156140000Y-90140000D03*
D23*
%TO.P,,113*%
X161220000Y-52040000D03*
%TO.P,,114*%
X163760000Y-54580000D03*
%TO.P,,115*%
X120580000Y-52040000D03*
%TO.P,,116*%
X118040000Y-54580000D03*
%TO.P,,117*%
X163760000Y-95220000D03*
%TO.P,,118*%
X161220000Y-97760000D03*
%TO.P,,119*%
X120580000Y-97760000D03*
%TO.P,,120*%
X118040000Y-95220000D03*
%TD*%
D10*
%TO.P,,1*%
%TO.N,N/C*%
X148520000Y-102840000D03*
%TO.P,,2*%
X151060000Y-102840000D03*
%TO.P,,3*%
X151060000Y-105380000D03*
%TO.P,,4*%
X148520000Y-105380000D03*
%TO.P,,5*%
X145980000Y-105380000D03*
%TO.P,,6*%
X145980000Y-102840000D03*
%TO.P,,7*%
X145980000Y-100300000D03*
%TO.P,,8*%
X148520000Y-100300000D03*
%TO.P,,9*%
X151060000Y-100300000D03*
%TO.P,,10*%
X153600000Y-100300000D03*
%TO.P,,11*%
X153600000Y-102840000D03*
%TO.P,,12*%
X153600000Y-105380000D03*
%TO.P,,13*%
X153600000Y-107920000D03*
%TO.P,,14*%
X151060000Y-107920000D03*
%TO.P,,15*%
X148520000Y-107920000D03*
%TO.P,,16*%
X145980000Y-107920000D03*
%TD*%
%TO.P,,1*%
%TO.N,N/C*%
X192335000Y-133320000D03*
%TO.P,,2*%
X194875000Y-133320000D03*
%TO.P,,3*%
X194875000Y-135860000D03*
%TO.P,,4*%
X192335000Y-135860000D03*
%TO.P,,5*%
X189795000Y-135860000D03*
%TO.P,,6*%
X189795000Y-133320000D03*
%TO.P,,7*%
X189795000Y-130780000D03*
%TO.P,,8*%
X192335000Y-130780000D03*
%TO.P,,9*%
X194875000Y-130780000D03*
%TO.P,,10*%
X197415000Y-130780000D03*
%TO.P,,11*%
X197415000Y-133320000D03*
%TO.P,,12*%
X197415000Y-135860000D03*
%TO.P,,13*%
X197415000Y-138400000D03*
%TO.P,,14*%
X194875000Y-138400000D03*
%TO.P,,15*%
X192335000Y-138400000D03*
%TO.P,,16*%
X189795000Y-138400000D03*
%TD*%
%TO.P,,1*%
%TO.N,N/C*%
X156140000Y-44420000D03*
%TO.P,,2*%
X158680000Y-44420000D03*
%TO.P,,3*%
X158680000Y-46960000D03*
%TO.P,,4*%
X156140000Y-46960000D03*
%TO.P,,5*%
X153600000Y-46960000D03*
%TO.P,,6*%
X153600000Y-44420000D03*
%TO.P,,7*%
X153600000Y-41880000D03*
%TO.P,,8*%
X156140000Y-41880000D03*
%TO.P,,9*%
X158680000Y-41880000D03*
%TO.P,,10*%
X161220000Y-41880000D03*
%TO.P,,11*%
X161220000Y-44420000D03*
%TO.P,,12*%
X161220000Y-46960000D03*
%TO.P,,13*%
X161220000Y-49500000D03*
%TO.P,,14*%
X158680000Y-49500000D03*
%TO.P,,15*%
X156140000Y-49500000D03*
%TO.P,,16*%
X153600000Y-49500000D03*
%TD*%
D13*
%TO.P,,1*%
%TO.N,N/C*%
X107880000Y-48230000D03*
D14*
X107880000Y-49500000D03*
%TO.P,,2*%
X107880000Y-52040000D03*
D13*
X107880000Y-53310000D03*
%TD*%
D51*
%TO.P,>NAME,1*%
%TO.N,N/C*%
X193300200Y-47214000D03*
%TO.P,>NAME,2*%
X192500100Y-47214000D03*
%TO.P,>NAME,3*%
X191700000Y-47214000D03*
%TO.P,>NAME,4*%
X190899900Y-47214000D03*
%TO.P,>NAME,5*%
X190099800Y-47214000D03*
D52*
%TO.P,>NAME,6*%
X196150080Y-46500260D03*
%TO.P,>NAME,7*%
X196150080Y-41001160D03*
%TO.P,>NAME,8*%
X187249920Y-46500260D03*
%TO.P,>NAME,9*%
X187249920Y-41001160D03*
%TD*%
D27*
%TO.P,REF\u002A\u002A,1*%
%TO.N,N/C*%
X103925260Y-139136780D03*
X106465260Y-139136780D03*
%TD*%
D20*
%TO.P,,1*%
%TO.N,N/C*%
X97225000Y-135880000D03*
D21*
X96250000Y-122600000D03*
D20*
%TO.P,,2*%
X97225000Y-133340000D03*
D21*
X96900000Y-122600000D03*
D20*
%TO.P,,3*%
X97225000Y-130800000D03*
D21*
X97550000Y-122600000D03*
D20*
%TO.P,,4*%
X97225000Y-128260000D03*
D21*
X98200000Y-122600000D03*
%TO.P,,5*%
X98200000Y-113600000D03*
D22*
X97225000Y-107940000D03*
D21*
%TO.P,,6*%
X97550000Y-113600000D03*
D22*
X97225000Y-105400000D03*
D21*
%TO.P,,7*%
X96900000Y-113600000D03*
D22*
X97225000Y-102860000D03*
D21*
%TO.P,,8*%
X96250000Y-113600000D03*
D22*
X97225000Y-100320000D03*
%TD*%
D11*
%TO.P,,1*%
%TO.N,N/C*%
X108515000Y-41245000D03*
D53*
X111360000Y-42200000D03*
D11*
%TO.P,,2*%
X105975000Y-43150000D03*
D53*
X111360000Y-43150000D03*
D11*
%TO.P,,3*%
X108515000Y-45055000D03*
D53*
X111360000Y-44100000D03*
%TO.P,,4*%
X114560000Y-44100000D03*
D11*
X117405000Y-45055000D03*
D53*
%TO.P,,5*%
X114560000Y-43150000D03*
D11*
X119945000Y-43150000D03*
D53*
%TO.P,,6*%
X114560000Y-42200000D03*
D11*
X117405000Y-41245000D03*
%TD*%
D10*
%TO.P,,1*%
%TO.N,N/C*%
X199365260Y-49446780D03*
D54*
X200404120Y-46718820D03*
D55*
%TO.P,,2*%
X201905260Y-42766580D03*
D56*
X201905260Y-45116080D03*
D54*
X201905260Y-46718820D03*
D10*
X201905260Y-49446780D03*
D54*
%TO.P,,3*%
X203406400Y-46718820D03*
D10*
X204445260Y-49446780D03*
%TD*%
D20*
%TO.P,,1*%
%TO.N,N/C*%
X137865000Y-135880000D03*
D21*
X136890000Y-122600000D03*
D20*
%TO.P,,2*%
X137865000Y-133340000D03*
D21*
X137540000Y-122600000D03*
D20*
%TO.P,,3*%
X137865000Y-130800000D03*
D21*
X138190000Y-122600000D03*
D20*
%TO.P,,4*%
X137865000Y-128260000D03*
D21*
X138840000Y-122600000D03*
%TO.P,,5*%
X138840000Y-113600000D03*
D22*
X137865000Y-107940000D03*
D21*
%TO.P,,6*%
X138190000Y-113600000D03*
D22*
X137865000Y-105400000D03*
D21*
%TO.P,,7*%
X137540000Y-113600000D03*
D22*
X137865000Y-102860000D03*
D21*
%TO.P,,8*%
X136890000Y-113600000D03*
D22*
X137865000Y-100320000D03*
%TD*%
D27*
%TO.P,REF\u002A\u002A,1*%
%TO.N,N/C*%
X94825260Y-139136780D03*
X97365260Y-139136780D03*
%TD*%
D20*
%TO.P,,1*%
%TO.N,N/C*%
X104845000Y-135880000D03*
D21*
X103870000Y-122600000D03*
D20*
%TO.P,,2*%
X104845000Y-133340000D03*
D21*
X104520000Y-122600000D03*
D20*
%TO.P,,3*%
X104845000Y-130800000D03*
D21*
X105170000Y-122600000D03*
D20*
%TO.P,,4*%
X104845000Y-128260000D03*
D21*
X105820000Y-122600000D03*
%TO.P,,5*%
X105820000Y-113600000D03*
D22*
X104845000Y-107940000D03*
D21*
%TO.P,,6*%
X105170000Y-113600000D03*
D22*
X104845000Y-105400000D03*
D21*
%TO.P,,7*%
X104520000Y-113600000D03*
D22*
X104845000Y-102860000D03*
D21*
%TO.P,,8*%
X103870000Y-113600000D03*
D22*
X104845000Y-100320000D03*
%TD*%
D10*
%TO.P,,1*%
%TO.N,N/C*%
X108625260Y-79980000D03*
%TO.P,,2*%
X111165260Y-79980000D03*
%TO.P,,3*%
X111165260Y-82520000D03*
%TO.P,,4*%
X108625260Y-82520000D03*
%TO.P,,5*%
X106085260Y-82520000D03*
%TO.P,,6*%
X106085260Y-79980000D03*
%TO.P,,7*%
X106085260Y-77440000D03*
%TO.P,,8*%
X108625260Y-77440000D03*
%TO.P,,9*%
X111165260Y-77440000D03*
%TO.P,,10*%
X113705260Y-77440000D03*
%TO.P,,11*%
X113705260Y-79980000D03*
%TO.P,,12*%
X113705260Y-82520000D03*
%TO.P,,13*%
X113705260Y-85060000D03*
%TO.P,,14*%
X111165260Y-85060000D03*
%TO.P,,15*%
X108625260Y-85060000D03*
%TO.P,,16*%
X106085260Y-85060000D03*
%TD*%
D23*
%TO.P,,1*%
%TO.N,N/C*%
X86475260Y-74900000D03*
D24*
X90595260Y-75440000D03*
X97595260Y-75440000D03*
D23*
X101715260Y-74900000D03*
%TO.P,,2*%
X86475260Y-79980000D03*
D24*
X90595260Y-79440000D03*
X97595260Y-79440000D03*
D23*
X101715260Y-79980000D03*
%TD*%
D13*
%TO.P,,1*%
%TO.N,N/C*%
X110420000Y-53310000D03*
D14*
X110420000Y-52040000D03*
%TO.P,,2*%
X110420000Y-49500000D03*
D13*
X110420000Y-48230000D03*
%TD*%
D27*
%TO.P,REF\u002A\u002A,1*%
%TO.N,N/C*%
X138325260Y-139136780D03*
X140865260Y-139136780D03*
%TD*%
D20*
%TO.P,,1*%
%TO.N,N/C*%
X142945000Y-135880000D03*
D21*
X141970000Y-122600000D03*
D20*
%TO.P,,2*%
X142945000Y-133340000D03*
D21*
X142620000Y-122600000D03*
D20*
%TO.P,,3*%
X142945000Y-130800000D03*
D21*
X143270000Y-122600000D03*
D20*
%TO.P,,4*%
X142945000Y-128260000D03*
D21*
X143920000Y-122600000D03*
%TO.P,,5*%
X143920000Y-113600000D03*
D22*
X142945000Y-107940000D03*
D21*
%TO.P,,6*%
X143270000Y-113600000D03*
D22*
X142945000Y-105400000D03*
D21*
%TO.P,,7*%
X142620000Y-113600000D03*
D22*
X142945000Y-102860000D03*
D21*
%TO.P,,8*%
X141970000Y-113600000D03*
D22*
X142945000Y-100320000D03*
%TD*%
D10*
%TO.P,,1*%
%TO.N,N/C*%
X192335000Y-102840000D03*
%TO.P,,2*%
X194875000Y-102840000D03*
%TO.P,,3*%
X194875000Y-105380000D03*
%TO.P,,4*%
X192335000Y-105380000D03*
%TO.P,,5*%
X189795000Y-105380000D03*
%TO.P,,6*%
X189795000Y-102840000D03*
%TO.P,,7*%
X189795000Y-100300000D03*
%TO.P,,8*%
X192335000Y-100300000D03*
%TO.P,,9*%
X194875000Y-100300000D03*
%TO.P,,10*%
X197415000Y-100300000D03*
%TO.P,,11*%
X197415000Y-102840000D03*
%TO.P,,12*%
X197415000Y-105380000D03*
%TO.P,,13*%
X197415000Y-107920000D03*
%TO.P,,14*%
X194875000Y-107920000D03*
%TO.P,,15*%
X192335000Y-107920000D03*
%TO.P,,16*%
X189795000Y-107920000D03*
%TD*%
D18*
%TO.P,REF\u002A\u002A,1*%
%TO.N,N/C*%
X87365260Y-144914280D03*
D19*
%TO.P,REF\u002A\u002A,2*%
X90865260Y-144914280D03*
%TO.P,REF\u002A\u002A,3*%
X94365260Y-144914280D03*
%TO.P,REF\u002A\u002A,4*%
X97865260Y-144914280D03*
%TD*%
D20*
%TO.P,,1*%
%TO.N,N/C*%
X94685000Y-135880000D03*
D21*
X93710000Y-122600000D03*
D20*
%TO.P,,2*%
X94685000Y-133340000D03*
D21*
X94360000Y-122600000D03*
D20*
%TO.P,,3*%
X94685000Y-130800000D03*
D21*
X95010000Y-122600000D03*
D20*
%TO.P,,4*%
X94685000Y-128260000D03*
D21*
X95660000Y-122600000D03*
%TO.P,,5*%
X95660000Y-113600000D03*
D22*
X94685000Y-107940000D03*
D21*
%TO.P,,6*%
X95010000Y-113600000D03*
D22*
X94685000Y-105400000D03*
D21*
%TO.P,,7*%
X94360000Y-113600000D03*
D22*
X94685000Y-102860000D03*
D21*
%TO.P,,8*%
X93710000Y-113600000D03*
D22*
X94685000Y-100320000D03*
%TD*%
D13*
%TO.P,,1*%
%TO.N,N/C*%
X156140000Y-130780000D03*
D28*
X165030000Y-130145000D03*
D29*
%TO.P,,2*%
X158680000Y-130780000D03*
D28*
X165030000Y-131415000D03*
%TO.P,,3*%
X177730000Y-131415000D03*
D29*
X184080000Y-130780000D03*
D28*
%TO.P,,4*%
X177730000Y-130145000D03*
D13*
X186620000Y-130780000D03*
%TD*%
D10*
%TO.P,,1*%
%TO.N,N/C*%
X186620000Y-79980000D03*
D15*
X189347960Y-81018860D03*
D16*
%TO.P,,2*%
X193300200Y-82520000D03*
D17*
X190950700Y-82520000D03*
D15*
X189347960Y-82520000D03*
D10*
X186620000Y-82520000D03*
D15*
%TO.P,,3*%
X189347960Y-84021140D03*
D10*
X186620000Y-85060000D03*
%TD*%
D27*
%TO.P,REF\u002A\u002A,1*%
%TO.N,N/C*%
X129425260Y-139136780D03*
X131965260Y-139136780D03*
%TD*%
D13*
%TO.P,,1*%
%TO.N,N/C*%
X156140000Y-107920000D03*
D28*
X165030000Y-107285000D03*
D29*
%TO.P,,2*%
X158680000Y-107920000D03*
D28*
X165030000Y-108555000D03*
%TO.P,,3*%
X177730000Y-108555000D03*
D29*
X184080000Y-107920000D03*
D28*
%TO.P,,4*%
X177730000Y-107285000D03*
D13*
X186620000Y-107920000D03*
%TD*%
%TO.P,,1*%
%TO.N,N/C*%
X156140000Y-128240000D03*
D28*
X165030000Y-127605000D03*
D29*
%TO.P,,2*%
X158680000Y-128240000D03*
D28*
X165030000Y-128875000D03*
%TO.P,,3*%
X177730000Y-128875000D03*
D29*
X184080000Y-128240000D03*
D28*
%TO.P,,4*%
X177730000Y-127605000D03*
D13*
X186620000Y-128240000D03*
%TD*%
D27*
%TO.P,REF\u002A\u002A,1*%
%TO.N,N/C*%
X120325260Y-139136780D03*
X122865260Y-139136780D03*
%TD*%
D13*
%TO.P,,1*%
%TO.N,N/C*%
X156140000Y-118080000D03*
D28*
X165030000Y-117445000D03*
D29*
%TO.P,,2*%
X158680000Y-118080000D03*
D28*
X165030000Y-118715000D03*
%TO.P,,3*%
X177730000Y-118715000D03*
D29*
X184080000Y-118080000D03*
D28*
%TO.P,,4*%
X177730000Y-117445000D03*
D13*
X186620000Y-118080000D03*
%TD*%
D20*
%TO.P,,1*%
%TO.N,N/C*%
X109925000Y-135880000D03*
D21*
X108950000Y-122600000D03*
D20*
%TO.P,,2*%
X109925000Y-133340000D03*
D21*
X109600000Y-122600000D03*
D20*
%TO.P,,3*%
X109925000Y-130800000D03*
D21*
X110250000Y-122600000D03*
D20*
%TO.P,,4*%
X109925000Y-128260000D03*
D21*
X110900000Y-122600000D03*
%TO.P,,5*%
X110900000Y-113600000D03*
D22*
X109925000Y-107940000D03*
D21*
%TO.P,,6*%
X110250000Y-113600000D03*
D22*
X109925000Y-105400000D03*
D21*
%TO.P,,7*%
X109600000Y-113600000D03*
D22*
X109925000Y-102860000D03*
D21*
%TO.P,,8*%
X108950000Y-113600000D03*
D22*
X109925000Y-100320000D03*
%TD*%
D18*
%TO.P,REF\u002A\u002A,1*%
%TO.N,N/C*%
X128865260Y-144914280D03*
D19*
%TO.P,REF\u002A\u002A,2*%
X132365260Y-144914280D03*
%TD*%
D10*
%TO.P,,1*%
%TO.N,N/C*%
X191700000Y-54580000D03*
%TO.P,,2*%
X191700000Y-57120000D03*
%TO.P,,3*%
X189160000Y-57120000D03*
%TO.P,,4*%
X189160000Y-54580000D03*
%TO.P,,5*%
X189160000Y-52040000D03*
%TO.P,,6*%
X191700000Y-52040000D03*
%TO.P,,7*%
X194240000Y-52040000D03*
%TO.P,,8*%
X194240000Y-54580000D03*
%TO.P,,9*%
X194240000Y-57120000D03*
%TO.P,,10*%
X194240000Y-59660000D03*
%TO.P,,11*%
X191700000Y-59660000D03*
%TO.P,,12*%
X189160000Y-59660000D03*
%TO.P,,13*%
X186620000Y-59660000D03*
%TO.P,,14*%
X186620000Y-57120000D03*
%TO.P,,15*%
X186620000Y-54580000D03*
%TO.P,,16*%
X186620000Y-52040000D03*
%TO.P,,17*%
X196780000Y-52040000D03*
%TO.P,,18*%
X196780000Y-54580000D03*
%TO.P,,19*%
X196780000Y-57120000D03*
%TO.P,,20*%
X196780000Y-59660000D03*
%TD*%
D20*
%TO.P,,1*%
%TO.N,N/C*%
X89605000Y-135880000D03*
D21*
X88630000Y-122600000D03*
D20*
%TO.P,,2*%
X89605000Y-133340000D03*
D21*
X89280000Y-122600000D03*
D20*
%TO.P,,3*%
X89605000Y-130800000D03*
D21*
X89930000Y-122600000D03*
D20*
%TO.P,,4*%
X89605000Y-128260000D03*
D21*
X90580000Y-122600000D03*
%TO.P,,5*%
X90580000Y-113600000D03*
D22*
X89605000Y-107940000D03*
D21*
%TO.P,,6*%
X89930000Y-113600000D03*
D22*
X89605000Y-105400000D03*
D21*
%TO.P,,7*%
X89280000Y-113600000D03*
D22*
X89605000Y-102860000D03*
D21*
%TO.P,,8*%
X88630000Y-113600000D03*
D22*
X89605000Y-100320000D03*
%TD*%
D13*
%TO.P,,1*%
%TO.N,N/C*%
X156140000Y-102840000D03*
D28*
X165030000Y-102205000D03*
D29*
%TO.P,,2*%
X158680000Y-102840000D03*
D28*
X165030000Y-103475000D03*
%TO.P,,3*%
X177730000Y-103475000D03*
D29*
X184080000Y-102840000D03*
D28*
%TO.P,,4*%
X177730000Y-102205000D03*
D13*
X186620000Y-102840000D03*
%TD*%
D27*
%TO.P,REF\u002A\u002A,1*%
%TO.N,N/C*%
X87825260Y-139136780D03*
X90365260Y-139136780D03*
%TD*%
D20*
%TO.P,,1*%
%TO.N,N/C*%
X102305000Y-135880000D03*
D21*
X101330000Y-122600000D03*
D20*
%TO.P,,2*%
X102305000Y-133340000D03*
D21*
X101980000Y-122600000D03*
D20*
%TO.P,,3*%
X102305000Y-130800000D03*
D21*
X102630000Y-122600000D03*
D20*
%TO.P,,4*%
X102305000Y-128260000D03*
D21*
X103280000Y-122600000D03*
%TO.P,,5*%
X103280000Y-113600000D03*
D22*
X102305000Y-107940000D03*
D21*
%TO.P,,6*%
X102630000Y-113600000D03*
D22*
X102305000Y-105400000D03*
D21*
%TO.P,,7*%
X101980000Y-113600000D03*
D22*
X102305000Y-102860000D03*
D21*
%TO.P,,8*%
X101330000Y-113600000D03*
D22*
X102305000Y-100320000D03*
%TD*%
D13*
%TO.P,,1*%
%TO.N,N/C*%
X115500000Y-53310000D03*
D14*
X115500000Y-52040000D03*
%TO.P,,2*%
X115500000Y-49500000D03*
D13*
X115500000Y-48230000D03*
%TD*%
D10*
%TO.P,,1*%
%TO.N,N/C*%
X192335000Y-123160000D03*
%TO.P,,2*%
X194875000Y-123160000D03*
%TO.P,,3*%
X194875000Y-125700000D03*
%TO.P,,4*%
X192335000Y-125700000D03*
%TO.P,,5*%
X189795000Y-125700000D03*
%TO.P,,6*%
X189795000Y-123160000D03*
%TO.P,,7*%
X189795000Y-120620000D03*
%TO.P,,8*%
X192335000Y-120620000D03*
%TO.P,,9*%
X194875000Y-120620000D03*
%TO.P,,10*%
X197415000Y-120620000D03*
%TO.P,,11*%
X197415000Y-123160000D03*
%TO.P,,12*%
X197415000Y-125700000D03*
%TO.P,,13*%
X197415000Y-128240000D03*
%TO.P,,14*%
X194875000Y-128240000D03*
%TO.P,,15*%
X192335000Y-128240000D03*
%TO.P,,16*%
X189795000Y-128240000D03*
%TD*%
D20*
%TO.P,,1*%
%TO.N,N/C*%
X135325000Y-135880000D03*
D21*
X134350000Y-122600000D03*
D20*
%TO.P,,2*%
X135325000Y-133340000D03*
D21*
X135000000Y-122600000D03*
D20*
%TO.P,,3*%
X135325000Y-130800000D03*
D21*
X135650000Y-122600000D03*
D20*
%TO.P,,4*%
X135325000Y-128260000D03*
D21*
X136300000Y-122600000D03*
%TO.P,,5*%
X136300000Y-113600000D03*
D22*
X135325000Y-107940000D03*
D21*
%TO.P,,6*%
X135650000Y-113600000D03*
D22*
X135325000Y-105400000D03*
D21*
%TO.P,,7*%
X135000000Y-113600000D03*
D22*
X135325000Y-102860000D03*
D21*
%TO.P,,8*%
X134350000Y-113600000D03*
D22*
X135325000Y-100320000D03*
%TD*%
D20*
%TO.P,,1*%
%TO.N,N/C*%
X87065000Y-135880000D03*
D21*
X86090000Y-122600000D03*
D20*
%TO.P,,2*%
X87065000Y-133340000D03*
D21*
X86740000Y-122600000D03*
D20*
%TO.P,,3*%
X87065000Y-130800000D03*
D21*
X87390000Y-122600000D03*
D20*
%TO.P,,4*%
X87065000Y-128260000D03*
D21*
X88040000Y-122600000D03*
%TO.P,,5*%
X88040000Y-113600000D03*
D22*
X87065000Y-107940000D03*
D21*
%TO.P,,6*%
X87390000Y-113600000D03*
D22*
X87065000Y-105400000D03*
D21*
%TO.P,,7*%
X86740000Y-113600000D03*
D22*
X87065000Y-102860000D03*
D21*
%TO.P,,8*%
X86090000Y-113600000D03*
D22*
X87065000Y-100320000D03*
%TD*%
D20*
%TO.P,,1*%
%TO.N,N/C*%
X112465000Y-135880000D03*
D21*
X111490000Y-122600000D03*
D20*
%TO.P,,2*%
X112465000Y-133340000D03*
D21*
X112140000Y-122600000D03*
D20*
%TO.P,,3*%
X112465000Y-130800000D03*
D21*
X112790000Y-122600000D03*
D20*
%TO.P,,4*%
X112465000Y-128260000D03*
D21*
X113440000Y-122600000D03*
%TO.P,,5*%
X113440000Y-113600000D03*
D22*
X112465000Y-107940000D03*
D21*
%TO.P,,6*%
X112790000Y-113600000D03*
D22*
X112465000Y-105400000D03*
D21*
%TO.P,,7*%
X112140000Y-113600000D03*
D22*
X112465000Y-102860000D03*
D21*
%TO.P,,8*%
X111490000Y-113600000D03*
D22*
X112465000Y-100320000D03*
%TD*%
D20*
%TO.P,,1*%
%TO.N,N/C*%
X130245000Y-135880000D03*
D21*
X129270000Y-122600000D03*
D20*
%TO.P,,2*%
X130245000Y-133340000D03*
D21*
X129920000Y-122600000D03*
D20*
%TO.P,,3*%
X130245000Y-130800000D03*
D21*
X130570000Y-122600000D03*
D20*
%TO.P,,4*%
X130245000Y-128260000D03*
D21*
X131220000Y-122600000D03*
%TO.P,,5*%
X131220000Y-113600000D03*
D22*
X130245000Y-107940000D03*
D21*
%TO.P,,6*%
X130570000Y-113600000D03*
D22*
X130245000Y-105400000D03*
D21*
%TO.P,,7*%
X129920000Y-113600000D03*
D22*
X130245000Y-102860000D03*
D21*
%TO.P,,8*%
X129270000Y-113600000D03*
D22*
X130245000Y-100320000D03*
%TD*%
D13*
%TO.P,,1*%
%TO.N,N/C*%
X156140000Y-115540000D03*
D28*
X165030000Y-114905000D03*
D29*
%TO.P,,2*%
X158680000Y-115540000D03*
D28*
X165030000Y-116175000D03*
%TO.P,,3*%
X177730000Y-116175000D03*
D29*
X184080000Y-115540000D03*
D28*
%TO.P,,4*%
X177730000Y-114905000D03*
D13*
X186620000Y-115540000D03*
%TD*%
%TO.P,,1*%
%TO.N,N/C*%
X86475260Y-62200000D03*
D14*
X90285260Y-62200000D03*
%TO.P,,2*%
X97905260Y-62200000D03*
D13*
X101715260Y-62200000D03*
D14*
%TO.P,,3*%
X92825260Y-62200000D03*
X95365260Y-62200000D03*
%TD*%
D10*
%TO.P,,1*%
%TO.N,N/C*%
X168840000Y-59660000D03*
%TO.P,,2*%
X171380000Y-59660000D03*
%TO.P,,3*%
X171380000Y-62200000D03*
%TO.P,,4*%
X168840000Y-62200000D03*
%TO.P,,5*%
X166300000Y-62200000D03*
%TO.P,,6*%
X166300000Y-59660000D03*
%TO.P,,7*%
X166300000Y-57120000D03*
%TO.P,,8*%
X168840000Y-57120000D03*
%TO.P,,9*%
X171380000Y-57120000D03*
%TO.P,,10*%
X173920000Y-57120000D03*
%TO.P,,11*%
X173920000Y-59660000D03*
%TO.P,,12*%
X173920000Y-62200000D03*
%TO.P,,13*%
X173920000Y-64740000D03*
%TO.P,,14*%
X171380000Y-64740000D03*
%TO.P,,15*%
X168840000Y-64740000D03*
%TO.P,,16*%
X166300000Y-64740000D03*
%TD*%
D13*
%TO.P,,1*%
%TO.N,N/C*%
X156140000Y-120620000D03*
D28*
X165030000Y-119985000D03*
D29*
%TO.P,,2*%
X158680000Y-120620000D03*
D28*
X165030000Y-121255000D03*
%TO.P,,3*%
X177730000Y-121255000D03*
D29*
X184080000Y-120620000D03*
D28*
%TO.P,,4*%
X177730000Y-119985000D03*
D13*
X186620000Y-120620000D03*
%TD*%
%TO.P,,1*%
%TO.N,N/C*%
X112960000Y-53310000D03*
D14*
X112960000Y-52040000D03*
%TO.P,,2*%
X112960000Y-49500000D03*
D13*
X112960000Y-48230000D03*
%TD*%
D10*
%TO.P,,1*%
%TO.N,N/C*%
X179000000Y-59660000D03*
%TO.P,,2*%
X181540000Y-59660000D03*
%TO.P,,3*%
X181540000Y-62200000D03*
%TO.P,,4*%
X179000000Y-62200000D03*
%TO.P,,5*%
X176460000Y-62200000D03*
%TO.P,,6*%
X176460000Y-59660000D03*
%TO.P,,7*%
X176460000Y-57120000D03*
%TO.P,,8*%
X179000000Y-57120000D03*
%TO.P,,9*%
X181540000Y-57120000D03*
%TO.P,,10*%
X184080000Y-57120000D03*
%TO.P,,11*%
X184080000Y-59660000D03*
%TO.P,,12*%
X184080000Y-62200000D03*
%TO.P,,13*%
X184080000Y-64740000D03*
%TO.P,,14*%
X181540000Y-64740000D03*
%TO.P,,15*%
X179000000Y-64740000D03*
%TO.P,,16*%
X176460000Y-64740000D03*
%TD*%
%TO.P,,1*%
%TO.N,N/C*%
X148520000Y-123160000D03*
%TO.P,,2*%
X151060000Y-123160000D03*
%TO.P,,3*%
X151060000Y-125700000D03*
%TO.P,,4*%
X148520000Y-125700000D03*
%TO.P,,5*%
X145980000Y-125700000D03*
%TO.P,,6*%
X145980000Y-123160000D03*
%TO.P,,7*%
X145980000Y-120620000D03*
%TO.P,,8*%
X148520000Y-120620000D03*
%TO.P,,9*%
X151060000Y-120620000D03*
%TO.P,,10*%
X153600000Y-120620000D03*
%TO.P,,11*%
X153600000Y-123160000D03*
%TO.P,,12*%
X153600000Y-125700000D03*
%TO.P,,13*%
X153600000Y-128240000D03*
%TO.P,,14*%
X151060000Y-128240000D03*
%TO.P,,15*%
X148520000Y-128240000D03*
%TO.P,,16*%
X145980000Y-128240000D03*
%TD*%
D20*
%TO.P,,1*%
%TO.N,N/C*%
X125165000Y-135880000D03*
D21*
X124190000Y-122600000D03*
D20*
%TO.P,,2*%
X125165000Y-133340000D03*
D21*
X124840000Y-122600000D03*
D20*
%TO.P,,3*%
X125165000Y-130800000D03*
D21*
X125490000Y-122600000D03*
D20*
%TO.P,,4*%
X125165000Y-128260000D03*
D21*
X126140000Y-122600000D03*
%TO.P,,5*%
X126140000Y-113600000D03*
D22*
X125165000Y-107940000D03*
D21*
%TO.P,,6*%
X125490000Y-113600000D03*
D22*
X125165000Y-105400000D03*
D21*
%TO.P,,7*%
X124840000Y-113600000D03*
D22*
X125165000Y-102860000D03*
D21*
%TO.P,,8*%
X124190000Y-113600000D03*
D22*
X125165000Y-100320000D03*
%TD*%
D57*
%TO.N,*%
X130575200Y-126151800D03*
D58*
X83900000Y-128540000D03*
X155945260Y-148046780D03*
X183885260Y-148046780D03*
X176265260Y-140446780D03*
D57*
X95015200Y-110048200D03*
X117875200Y-126151800D03*
D58*
X83900000Y-136160000D03*
X150865260Y-148046780D03*
X194045260Y-148046780D03*
X173725260Y-148046780D03*
X83900000Y-67580000D03*
X171185260Y-140446780D03*
X83900000Y-105680000D03*
X153405260Y-140446780D03*
X83900000Y-82820000D03*
D57*
X102635200Y-110048200D03*
D58*
X83900000Y-98060000D03*
X83900000Y-113300000D03*
X83900000Y-92980000D03*
X83900000Y-133620000D03*
X181345260Y-148046780D03*
X83900000Y-62500000D03*
D57*
X133115200Y-126151800D03*
D58*
X83900000Y-115840000D03*
X83900000Y-52340000D03*
D57*
X128035200Y-110048200D03*
D58*
X158485260Y-148046780D03*
D57*
X89935200Y-110048200D03*
D58*
X183885260Y-140446780D03*
D57*
X135655200Y-110048200D03*
D58*
X178805260Y-148046780D03*
X83900000Y-87900000D03*
D57*
X128035200Y-126151800D03*
D58*
X150865260Y-140446780D03*
D57*
X143275200Y-110048200D03*
D58*
X168645260Y-140446780D03*
D57*
X112795200Y-126151800D03*
X125495200Y-126151800D03*
X110255200Y-126151800D03*
X133115200Y-110048200D03*
D58*
X83900000Y-59960000D03*
X83900000Y-138700000D03*
D57*
X102635200Y-126151800D03*
X100095200Y-110048200D03*
X122955200Y-110048200D03*
X140735200Y-126151800D03*
X120415200Y-126151800D03*
X107715200Y-126151800D03*
X115335200Y-110048200D03*
D58*
X191505260Y-140446780D03*
X196585260Y-140446780D03*
D57*
X112795200Y-110048200D03*
D58*
X83900000Y-57420000D03*
D57*
X97555200Y-110048200D03*
D58*
X171185260Y-148046780D03*
D57*
X110255200Y-110048200D03*
X117875200Y-110048200D03*
X125495200Y-110048200D03*
D58*
X83900000Y-103140000D03*
X199125260Y-148046780D03*
X83900000Y-118380000D03*
D57*
X92475200Y-126151800D03*
D58*
X83900000Y-77740000D03*
D57*
X89935200Y-126151800D03*
D58*
X166105260Y-148046780D03*
X176265260Y-148046780D03*
X83900000Y-131080000D03*
D57*
X87395200Y-126151800D03*
X115335200Y-126151800D03*
X105175200Y-110048200D03*
X100095200Y-126151800D03*
D58*
X83900000Y-72660000D03*
X83900000Y-70120000D03*
D57*
X130575200Y-110048200D03*
D58*
X83900000Y-49800000D03*
X163565260Y-140446780D03*
D57*
X135655200Y-126151800D03*
D58*
X161025260Y-140446780D03*
X83900000Y-100600000D03*
X188965260Y-148046780D03*
X153405260Y-148046780D03*
D57*
X138195200Y-110048200D03*
D58*
X83900000Y-123460000D03*
D57*
X97555200Y-126151800D03*
D58*
X166105260Y-140446780D03*
X199125260Y-140446780D03*
X181345260Y-140446780D03*
X173725260Y-140446780D03*
D57*
X92475200Y-110048200D03*
D58*
X83900000Y-65040000D03*
X188965260Y-140446780D03*
X155945260Y-140446780D03*
X161025260Y-148046780D03*
X196585260Y-148046780D03*
X83900000Y-95520000D03*
X186425260Y-140446780D03*
X83900000Y-54880000D03*
X83900000Y-80280000D03*
X163565260Y-148046780D03*
X186425260Y-148046780D03*
D57*
X87395200Y-110048200D03*
D58*
X83900000Y-126000000D03*
X83900000Y-108220000D03*
D57*
X140735200Y-110048200D03*
D58*
X83900000Y-110760000D03*
D57*
X143275200Y-126151800D03*
D58*
X83900000Y-90440000D03*
X191505260Y-148046780D03*
X83900000Y-120920000D03*
X194045260Y-140446780D03*
X168645260Y-148046780D03*
D57*
X95015200Y-126151800D03*
X120415200Y-110048200D03*
D58*
X83900000Y-85360000D03*
D57*
X122955200Y-126151800D03*
D58*
X178805260Y-140446780D03*
X158485260Y-140446780D03*
D57*
X105175200Y-126151800D03*
X138195200Y-126151800D03*
D58*
X83900000Y-75200000D03*
D57*
X107715200Y-110048200D03*
%TD*%
D59*
%TO.N,*%
X124098200Y-108625800D02*
X124840000Y-109367600D01*
D60*
X156140000Y-128240000D02*
X157410000Y-126970000D01*
X177730000Y-111095000D02*
X183445000Y-111095000D01*
D59*
X116570000Y-109276400D02*
X116097200Y-108803600D01*
X88040000Y-109804000D02*
X88040000Y-113600000D01*
D60*
X123755000Y-88870000D02*
X123120000Y-88870000D01*
D59*
X86090000Y-109276400D02*
X85617200Y-108803600D01*
X100090000Y-122600000D02*
X100090000Y-126146600D01*
D61*
X100318260Y-74900000D02*
X101715260Y-74900000D01*
D60*
X156775000Y-64028800D02*
X156775000Y-63216000D01*
X156140000Y-123160000D02*
X157410000Y-121890000D01*
X142400000Y-80450000D02*
X142400000Y-88566600D01*
X157816400Y-64740000D02*
X161220000Y-64740000D01*
X157791000Y-62200000D02*
X161220000Y-62200000D01*
X177730000Y-118715000D02*
X183445000Y-118715000D01*
D61*
X120580000Y-54580000D02*
X121850000Y-55850000D01*
D60*
X126422000Y-84552000D02*
X126422000Y-86203000D01*
D59*
X134055000Y-134610000D02*
X135325000Y-135880000D01*
X141380000Y-109804000D02*
X141380000Y-113600000D01*
D61*
X158680000Y-57120000D02*
X156140000Y-59660000D01*
D59*
X103397200Y-101767800D02*
X104845000Y-100320000D01*
X107710000Y-126146600D02*
X107715200Y-126151800D01*
D61*
X87364260Y-82520000D02*
X87904260Y-83060000D01*
D60*
X157410000Y-132050000D02*
X159696000Y-132050000D01*
X177730000Y-114905000D02*
X182429000Y-114905000D01*
D59*
X129920000Y-122600000D02*
X129920000Y-126934000D01*
D60*
X182429000Y-122525000D02*
X183064000Y-121890000D01*
X139400000Y-67200000D02*
X139400000Y-60344400D01*
D59*
X92470000Y-110053400D02*
X92475200Y-110048200D01*
X97225000Y-103342600D02*
X96158200Y-104409400D01*
X126257200Y-108803600D02*
X126257200Y-101767800D01*
D60*
X157410000Y-116810000D02*
X159696000Y-116810000D01*
D62*
X188845000Y-66965000D02*
X187890000Y-66010000D01*
D60*
X123907400Y-79980000D02*
X120580000Y-79980000D01*
X133200000Y-76400000D02*
X125938000Y-76400000D01*
D59*
X112465000Y-102860000D02*
X112465000Y-103342600D01*
D60*
X160331000Y-122525000D02*
X165030000Y-122525000D01*
X135400000Y-84464000D02*
X134423000Y-85441000D01*
X120580000Y-64740000D02*
X125279000Y-64740000D01*
X159696000Y-107920000D02*
X160331000Y-108555000D01*
D59*
X130245000Y-103342600D02*
X129178200Y-104409400D01*
D60*
X125279000Y-64740000D02*
X128835000Y-68296000D01*
X156775000Y-63216000D02*
X157791000Y-62200000D01*
D59*
X87065000Y-102860000D02*
X87065000Y-103342600D01*
D60*
X127184000Y-80615000D02*
X124771000Y-83028000D01*
X154870000Y-58212200D02*
X154870000Y-57120000D01*
D59*
X95010000Y-113600000D02*
X95010000Y-110053400D01*
X139430000Y-113600000D02*
X139430000Y-109276400D01*
D60*
X124009000Y-87600000D02*
X120580000Y-87600000D01*
D59*
X95777200Y-101767800D02*
X97225000Y-100320000D01*
D60*
X140900000Y-67200000D02*
X140900000Y-60422000D01*
X153239200Y-71400000D02*
X158629200Y-66010000D01*
D59*
X142970400Y-107965400D02*
X142945000Y-107940000D01*
X86176000Y-132451000D02*
X87065000Y-133340000D01*
D60*
X128260700Y-77900000D02*
X125914000Y-80246700D01*
D61*
X86475260Y-69820000D02*
X90285260Y-69820000D01*
D60*
X131471000Y-68900000D02*
X133200000Y-68900000D01*
D59*
X131220000Y-109804000D02*
X131220000Y-113600000D01*
X136976000Y-127498000D02*
X136976000Y-132451000D01*
X114680000Y-109367600D02*
X114680000Y-113600000D01*
X108858200Y-108625800D02*
X109600000Y-109367600D01*
D60*
X190102340Y-46756800D02*
X190102340Y-48570360D01*
D59*
X111576000Y-127498000D02*
X111576000Y-132451000D01*
D60*
X140900000Y-88108000D02*
X140900000Y-95220000D01*
D59*
X89930000Y-113600000D02*
X89930000Y-110053400D01*
D60*
X157410000Y-124430000D02*
X159696000Y-124430000D01*
X156292400Y-95067600D02*
X156140000Y-95220000D01*
X177730000Y-128875000D02*
X183445000Y-128875000D01*
D59*
X91078200Y-108625800D02*
X91820000Y-109367600D01*
D61*
X99778260Y-90680000D02*
X100318260Y-90140000D01*
D59*
X107710000Y-113600000D02*
X107710000Y-110053400D01*
X130570000Y-113600000D02*
X130570000Y-110053400D01*
X138190000Y-110053400D02*
X138195200Y-110048200D01*
X105820000Y-126446800D02*
X104845000Y-127421800D01*
D60*
X183445000Y-100935000D02*
X184080000Y-100300000D01*
D63*
X90865260Y-139636780D02*
X90365260Y-139136780D01*
D60*
X183064000Y-99030000D02*
X185350000Y-99030000D01*
D61*
X97595260Y-79440000D02*
X100032260Y-79440000D01*
D60*
X101964340Y-51016380D02*
X101964340Y-56838060D01*
X177730000Y-117445000D02*
X182429000Y-117445000D01*
X146400000Y-65183600D02*
X148316800Y-63266800D01*
D59*
X136976000Y-132451000D02*
X137865000Y-133340000D01*
X134258200Y-104409400D02*
X134258200Y-108625800D01*
D60*
X126803000Y-70455000D02*
X129248000Y-72900000D01*
D59*
X113938200Y-104409400D02*
X113938200Y-108625800D01*
X136300000Y-109804000D02*
X136300000Y-113600000D01*
D60*
X144900000Y-67200000D02*
X144900000Y-64296000D01*
D59*
X124190000Y-113600000D02*
X124190000Y-109276400D01*
D60*
X147450000Y-77400000D02*
X152315400Y-77400000D01*
D59*
X135350400Y-107965400D02*
X135350400Y-108854400D01*
D60*
X156140000Y-118080000D02*
X157410000Y-116810000D01*
D59*
X105170000Y-110053400D02*
X105175200Y-110048200D01*
D63*
X132365260Y-144914280D02*
X132365260Y-139536780D01*
D59*
X99440000Y-109367600D02*
X99440000Y-113600000D01*
D63*
X103365260Y-139696780D02*
X103925260Y-139136780D01*
D59*
X93710000Y-109276400D02*
X93237200Y-108803600D01*
D61*
X204165260Y-88286780D02*
X206705260Y-88286780D01*
D60*
X158680000Y-113000000D02*
X159696000Y-113000000D01*
D59*
X108360000Y-109804000D02*
X108360000Y-113600000D01*
D60*
X128716000Y-74400000D02*
X127946000Y-73630000D01*
D61*
X88031260Y-87060000D02*
X90595260Y-87060000D01*
D60*
X177730000Y-131415000D02*
X183445000Y-131415000D01*
D59*
X120110400Y-107965400D02*
X120110400Y-108854400D01*
D60*
X150018600Y-63901800D02*
X156622600Y-57297800D01*
D59*
X106318200Y-104409400D02*
X106318200Y-108625800D01*
D60*
X156698800Y-86330000D02*
X158680000Y-86330000D01*
X160331000Y-131415000D02*
X165030000Y-131415000D01*
X142170000Y-61031600D02*
X142170000Y-57120000D01*
X186752080Y-51666620D02*
X186620000Y-51798700D01*
X136900000Y-67200000D02*
X136900000Y-63838800D01*
X177730000Y-104745000D02*
X182429000Y-104745000D01*
D62*
X204215260Y-68855000D02*
X204215260Y-66965000D01*
D60*
X160331000Y-99665000D02*
X165030000Y-99665000D01*
X139900000Y-79200000D02*
X139900000Y-87279200D01*
D59*
X125490000Y-110053400D02*
X125495200Y-110048200D01*
D62*
X205165260Y-77440000D02*
X205165260Y-72055000D01*
D60*
X130359000Y-67153000D02*
X130359000Y-68550000D01*
X183064000Y-104110000D02*
X185350000Y-104110000D01*
D61*
X163760000Y-54580000D02*
X166300000Y-54580000D01*
D60*
X183064000Y-101570000D02*
X185350000Y-101570000D01*
X143440000Y-90902000D02*
X143440000Y-95220000D01*
D63*
X110365260Y-139696780D02*
X110925260Y-139136780D01*
D60*
X149307400Y-62758800D02*
X153600000Y-58466200D01*
D59*
X131718200Y-104409400D02*
X131718200Y-108625800D01*
X105170000Y-122600000D02*
X105170000Y-126146600D01*
X128030000Y-110053400D02*
X128035200Y-110048200D01*
D60*
X124263000Y-62200000D02*
X124517000Y-62200000D01*
D59*
X89605000Y-102860000D02*
X89605000Y-103342600D01*
X90580000Y-109804000D02*
X90580000Y-113600000D01*
D60*
X143400000Y-87661600D02*
X147250000Y-91511600D01*
D59*
X92145000Y-103342600D02*
X91078200Y-104409400D01*
D60*
X127819000Y-80869000D02*
X125279000Y-83409000D01*
X150399600Y-87676200D02*
X154870000Y-92146600D01*
D59*
X107410400Y-107965400D02*
X107385000Y-107940000D01*
D60*
X149536000Y-89403400D02*
X151060000Y-90927400D01*
D61*
X166300000Y-54580000D02*
X170110000Y-54580000D01*
D59*
X97550000Y-122600000D02*
X97550000Y-126146600D01*
D60*
X147450000Y-76900000D02*
X152628200Y-76900000D01*
X126549000Y-80335600D02*
X126549000Y-80361000D01*
X160331000Y-109825000D02*
X165030000Y-109825000D01*
X158222800Y-63470000D02*
X158680000Y-63470000D01*
X139400000Y-86966400D02*
X137090000Y-89276400D01*
D59*
X118637200Y-108803600D02*
X118637200Y-101767800D01*
X128975000Y-134610000D02*
X130245000Y-135880000D01*
X140080000Y-126934000D02*
X139516000Y-127498000D01*
D61*
X86475260Y-82520000D02*
X87364260Y-82520000D01*
D60*
X157410000Y-104110000D02*
X159696000Y-104110000D01*
X132848200Y-84856800D02*
X125660000Y-92045000D01*
D59*
X91170000Y-122600000D02*
X91170000Y-126949000D01*
X128680000Y-126446800D02*
X127705000Y-127421800D01*
D60*
X148037400Y-62758800D02*
X149307400Y-62758800D01*
D61*
X114560000Y-44100000D02*
X116450000Y-44100000D01*
D60*
X133200000Y-75900000D02*
X125549000Y-75900000D01*
X183445000Y-136495000D02*
X184080000Y-135860000D01*
D59*
X95660000Y-109804000D02*
X95660000Y-113600000D01*
X137890400Y-107965400D02*
X137865000Y-107940000D01*
D60*
X144400000Y-81450000D02*
X144400000Y-86934400D01*
X129495400Y-59507600D02*
X128200000Y-58212200D01*
D59*
X98698200Y-108625800D02*
X99440000Y-109367600D01*
X132785000Y-103342600D02*
X131718200Y-104409400D01*
D61*
X189347960Y-94181140D02*
X187658860Y-94181140D01*
D59*
X139516000Y-132451000D02*
X140405000Y-133340000D01*
X109036000Y-127498000D02*
X109036000Y-132451000D01*
D60*
X144450000Y-69400000D02*
X150540200Y-69400000D01*
D59*
X85617200Y-101767800D02*
X87065000Y-100320000D01*
X117570400Y-107965400D02*
X117570400Y-108854400D01*
X91256000Y-127498000D02*
X91256000Y-132451000D01*
D60*
X159696000Y-118080000D02*
X160331000Y-118715000D01*
X157410000Y-114270000D02*
X159696000Y-114270000D01*
D59*
X139135000Y-134610000D02*
X140405000Y-135880000D01*
D60*
X138900000Y-86628200D02*
X135820000Y-89708200D01*
D59*
X103778200Y-104409400D02*
X103778200Y-108625800D01*
X103280000Y-109804000D02*
X103280000Y-113600000D01*
D60*
X183064000Y-106650000D02*
X185350000Y-106650000D01*
D59*
X128797200Y-108803600D02*
X128797200Y-101767800D01*
D60*
X182429000Y-127605000D02*
X183064000Y-126970000D01*
D59*
X106496000Y-127498000D02*
X106496000Y-132451000D01*
X86090000Y-122600000D02*
X86090000Y-126949000D01*
X95955000Y-134610000D02*
X97225000Y-135880000D01*
X107385000Y-102860000D02*
X107385000Y-103342600D01*
X88157200Y-101767800D02*
X89605000Y-100320000D01*
D61*
X159950000Y-93950000D02*
X161220000Y-95220000D01*
D59*
X136300000Y-109804000D02*
X135350400Y-108854400D01*
X88157200Y-108803600D02*
X88157200Y-101767800D01*
X117220000Y-109367600D02*
X117220000Y-113600000D01*
D60*
X129851000Y-68804000D02*
X130947000Y-69900000D01*
D59*
X103280000Y-126446800D02*
X102305000Y-127421800D01*
D60*
X148520000Y-91892600D02*
X148520000Y-95220000D01*
D59*
X123600000Y-109804000D02*
X123600000Y-113600000D01*
D60*
X128454000Y-81478600D02*
X128454000Y-81478600D01*
D59*
X131718200Y-108625800D02*
X132460000Y-109367600D01*
D60*
X130523200Y-80400000D02*
X129089000Y-81834200D01*
D62*
X189795000Y-77440000D02*
X189795000Y-72055000D01*
D60*
X177730000Y-107285000D02*
X182429000Y-107285000D01*
X142900000Y-88152200D02*
X145980000Y-91232200D01*
X158680000Y-105380000D02*
X159696000Y-105380000D01*
D59*
X119196000Y-132451000D02*
X120085000Y-133340000D01*
D60*
X124517000Y-62200000D02*
X129851000Y-67534000D01*
X182429000Y-125065000D02*
X183064000Y-124430000D01*
D59*
X134055000Y-127244000D02*
X134055000Y-134610000D01*
X132460000Y-109367600D02*
X132460000Y-113600000D01*
X86090000Y-113600000D02*
X86090000Y-109276400D01*
D61*
X199085260Y-90826780D02*
X201625260Y-90826780D01*
D59*
X99440000Y-126934000D02*
X98876000Y-127498000D01*
D61*
X161220000Y-97760000D02*
X120580000Y-97760000D01*
D60*
X147250000Y-91511600D02*
X147250000Y-92680000D01*
D59*
X112140000Y-109367600D02*
X112140000Y-113600000D01*
D60*
X136493100Y-58796400D02*
X136404200Y-58796400D01*
D61*
X88031260Y-79440000D02*
X90595260Y-79440000D01*
D59*
X130570000Y-122600000D02*
X130570000Y-126146600D01*
X125165000Y-103342600D02*
X124098200Y-104409400D01*
X94360000Y-109367600D02*
X94360000Y-113600000D01*
X141970000Y-126949000D02*
X141675000Y-127244000D01*
X99765000Y-103342600D02*
X98698200Y-104409400D01*
X93796000Y-132451000D02*
X94685000Y-133340000D01*
D63*
X186752080Y-46528200D02*
X186752080Y-51666620D01*
D59*
X105937200Y-101767800D02*
X107385000Y-100320000D01*
D60*
X157410000Y-109190000D02*
X159696000Y-109190000D01*
D59*
X108477200Y-101767800D02*
X109925000Y-100320000D01*
X119110000Y-113600000D02*
X119110000Y-109276400D01*
D61*
X97595260Y-75440000D02*
X99778260Y-75440000D01*
D59*
X134350000Y-113600000D02*
X134350000Y-109276400D01*
D60*
X177730000Y-135225000D02*
X182429000Y-135225000D01*
D59*
X111398200Y-108625800D02*
X112140000Y-109367600D01*
X133760000Y-122600000D02*
X133760000Y-126446800D01*
X125165000Y-102860000D02*
X125165000Y-103342600D01*
X138957200Y-108803600D02*
X138957200Y-101767800D01*
X106115000Y-134610000D02*
X107385000Y-135880000D01*
X116478200Y-104409400D02*
X116478200Y-108625800D01*
D61*
X203406400Y-46718820D02*
X203406400Y-48407920D01*
D60*
X177730000Y-103475000D02*
X183445000Y-103475000D01*
D59*
X119018200Y-104409400D02*
X119018200Y-108625800D01*
D60*
X135058000Y-86533200D02*
X133534000Y-86533200D01*
X130685000Y-70400000D02*
X129343000Y-69058000D01*
D59*
X126140000Y-109804000D02*
X126140000Y-113600000D01*
D60*
X160331000Y-103475000D02*
X165030000Y-103475000D01*
X183064000Y-114270000D02*
X185350000Y-114270000D01*
D59*
X122950000Y-110053400D02*
X122955200Y-110048200D01*
D60*
X156419400Y-83790000D02*
X158680000Y-83790000D01*
X139900000Y-59980800D02*
X138360000Y-58440800D01*
X143400000Y-63408400D02*
X147250000Y-59558400D01*
D59*
X108950000Y-122600000D02*
X108950000Y-126949000D01*
X117570400Y-107965400D02*
X117545000Y-107940000D01*
X123895000Y-134610000D02*
X125165000Y-135880000D01*
D60*
X183064000Y-132050000D02*
X185350000Y-132050000D01*
X159696000Y-100300000D02*
X160331000Y-100935000D01*
X182429000Y-117445000D02*
X183064000Y-116810000D01*
D59*
X117220000Y-126934000D02*
X116656000Y-127498000D01*
X99440000Y-122600000D02*
X99440000Y-126934000D01*
D60*
X157410000Y-121890000D02*
X159696000Y-121890000D01*
X160331000Y-119985000D02*
X165030000Y-119985000D01*
D59*
X95010000Y-110053400D02*
X95015200Y-110048200D01*
D60*
X123120000Y-71090000D02*
X126803000Y-71090000D01*
D63*
X113865260Y-144914280D02*
X113865260Y-139536780D01*
D59*
X120085000Y-103342600D02*
X119018200Y-104409400D01*
D60*
X159696000Y-119350000D02*
X160331000Y-119985000D01*
X135400000Y-64853400D02*
X130613000Y-60066400D01*
X158680000Y-138400000D02*
X159696000Y-138400000D01*
D59*
X140430400Y-107965400D02*
X140405000Y-107940000D01*
X96900000Y-122600000D02*
X96900000Y-126934000D01*
D62*
X188845000Y-68855000D02*
X188845000Y-66965000D01*
D59*
X119110000Y-109276400D02*
X118637200Y-108803600D01*
X127380000Y-109367600D02*
X127380000Y-113600000D01*
D60*
X159696000Y-124430000D02*
X160331000Y-125065000D01*
X143440000Y-60904600D02*
X143440000Y-54580000D01*
X177730000Y-139035000D02*
X183445000Y-139035000D01*
D59*
X103397200Y-108803600D02*
X103397200Y-101767800D01*
D60*
X124136000Y-85060000D02*
X120580000Y-85060000D01*
D59*
X139430000Y-109276400D02*
X138957200Y-108803600D01*
D60*
X148520000Y-59761600D02*
X148520000Y-54580000D01*
X147453200Y-60904600D02*
X148367600Y-60904600D01*
D59*
X138190000Y-122600000D02*
X138190000Y-126146600D01*
X88716000Y-132451000D02*
X89605000Y-133340000D01*
D60*
X156292400Y-92172000D02*
X156292400Y-95067600D01*
X159696000Y-115540000D02*
X160331000Y-116175000D01*
X132010000Y-89733600D02*
X132010000Y-92680000D01*
X125279000Y-83409000D02*
X125279000Y-85187000D01*
D59*
X95777200Y-108803600D02*
X95777200Y-101767800D01*
D60*
X155174800Y-84044000D02*
X156190800Y-85060000D01*
D59*
X118637200Y-101767800D02*
X120085000Y-100320000D01*
X121650000Y-113600000D02*
X121650000Y-109276400D01*
X98200000Y-126446800D02*
X97225000Y-127421800D01*
D60*
X129343000Y-69058000D02*
X129343000Y-67915000D01*
D59*
X116570000Y-113600000D02*
X116570000Y-109276400D01*
D62*
X196615260Y-66965000D02*
X195660260Y-66010000D01*
D60*
X157791000Y-69820000D02*
X161220000Y-69820000D01*
X145900000Y-67200000D02*
X145900000Y-64896200D01*
X134900000Y-65547200D02*
X130943200Y-61590400D01*
D59*
X97550000Y-110053400D02*
X97555200Y-110048200D01*
D60*
X138400000Y-78450000D02*
X138400000Y-86340800D01*
X148480400Y-63901800D02*
X150018600Y-63901800D01*
D63*
X137865260Y-144914280D02*
X137865260Y-139596780D01*
X137865260Y-139596780D02*
X138325260Y-139136780D01*
D60*
X159696000Y-111730000D02*
X160331000Y-112365000D01*
D59*
X119760000Y-109367600D02*
X119760000Y-113600000D01*
D60*
X152315400Y-77400000D02*
X156165400Y-81250000D01*
D59*
X110250000Y-110053400D02*
X110255200Y-110048200D01*
D60*
X177730000Y-133955000D02*
X183445000Y-133955000D01*
D59*
X117545000Y-102860000D02*
X117545000Y-103342600D01*
X136890000Y-109276400D02*
X136417200Y-108803600D01*
X143920000Y-109804000D02*
X142970400Y-108854400D01*
X129270000Y-126949000D02*
X128975000Y-127244000D01*
X86176000Y-127498000D02*
X86176000Y-132451000D01*
X98317200Y-108803600D02*
X98317200Y-101767800D01*
X143920000Y-126446800D02*
X142945000Y-127421800D01*
X102630000Y-122600000D02*
X102630000Y-126146600D01*
D60*
X177730000Y-137765000D02*
X182429000Y-137765000D01*
D59*
X115980000Y-126446800D02*
X115005000Y-127421800D01*
D60*
X185350000Y-109190000D02*
X186620000Y-110460000D01*
X177730000Y-126335000D02*
X183445000Y-126335000D01*
D61*
X123120000Y-57120000D02*
X125660000Y-59660000D01*
D60*
X160940600Y-90419400D02*
X161220000Y-90140000D01*
D61*
X200404120Y-46718820D02*
X200404120Y-48407920D01*
D59*
X91256000Y-132451000D02*
X92145000Y-133340000D01*
D60*
X149790000Y-59482200D02*
X149790000Y-57120000D01*
X146400000Y-85835600D02*
X148240600Y-87676200D01*
D61*
X114560000Y-42200000D02*
X116450000Y-42200000D01*
D60*
X91674800Y-53767200D02*
X91674800Y-56967600D01*
D59*
X135650000Y-126146600D02*
X135655200Y-126151800D01*
X112465000Y-103342600D02*
X111398200Y-104409400D01*
D60*
X160331000Y-133955000D02*
X165030000Y-133955000D01*
D59*
X142620000Y-122600000D02*
X142620000Y-126934000D01*
X121177200Y-101767800D02*
X122625000Y-100320000D01*
X94360000Y-122600000D02*
X94360000Y-126934000D01*
D60*
X156140000Y-107920000D02*
X157410000Y-106650000D01*
D63*
X175190000Y-41880000D02*
X175190000Y-45690000D01*
D60*
X96363640Y-52507360D02*
X95484800Y-53386200D01*
D59*
X129920000Y-109367600D02*
X129920000Y-113600000D01*
D60*
X127846300Y-77400000D02*
X125279000Y-79967300D01*
X151715200Y-78400000D02*
X155886000Y-82570800D01*
D59*
X133877200Y-108803600D02*
X133877200Y-101767800D01*
D60*
X145200000Y-73900000D02*
X156225600Y-73900000D01*
D59*
X135650000Y-110053400D02*
X135655200Y-110048200D01*
D60*
X124136000Y-60930000D02*
X130359000Y-67153000D01*
X126803000Y-69947000D02*
X126803000Y-70455000D01*
X145200000Y-73400000D02*
X155887400Y-73400000D01*
D59*
X110900000Y-109804000D02*
X110900000Y-113600000D01*
X137890400Y-107965400D02*
X137890400Y-108854400D01*
D60*
X135883500Y-59355200D02*
X135870800Y-59355200D01*
D61*
X97905260Y-67280000D02*
X101715260Y-67280000D01*
D60*
X123640700Y-82520000D02*
X120580000Y-82520000D01*
D61*
X109470000Y-42200000D02*
X108515000Y-41245000D01*
D60*
X126295000Y-67280000D02*
X127819000Y-68804000D01*
D59*
X99790400Y-107965400D02*
X99765000Y-107940000D01*
D60*
X160331000Y-128875000D02*
X165030000Y-128875000D01*
X183445000Y-133955000D02*
X184080000Y-133320000D01*
X134550000Y-58034400D02*
X134550000Y-57120000D01*
D59*
X113440000Y-122600000D02*
X113440000Y-126446800D01*
X132810400Y-107965400D02*
X132810400Y-108854400D01*
D60*
X155886000Y-83256600D02*
X156419400Y-83790000D01*
D61*
X86475260Y-82520000D02*
X87364260Y-82520000D01*
D60*
X125787000Y-66010000D02*
X128327000Y-68550000D01*
X150565600Y-80400000D02*
X148600000Y-80400000D01*
D59*
X121060000Y-122600000D02*
X121060000Y-126446800D01*
X141497200Y-101767800D02*
X142945000Y-100320000D01*
D60*
X154768400Y-77440000D02*
X161220000Y-77440000D01*
X135769200Y-88971600D02*
X135337400Y-88971600D01*
D59*
X128680000Y-109804000D02*
X127730400Y-108854400D01*
X107410400Y-107965400D02*
X107410400Y-108854400D01*
D61*
X199085260Y-93366780D02*
X201625260Y-93366780D01*
D59*
X86740000Y-126934000D02*
X86176000Y-127498000D01*
D60*
X192497560Y-48786260D02*
X194240000Y-50528700D01*
X91966900Y-52586100D02*
X90404800Y-54148200D01*
X158680000Y-133320000D02*
X159696000Y-133320000D01*
X135337400Y-88971600D02*
X134550000Y-89759000D01*
D59*
X108655000Y-134610000D02*
X109925000Y-135880000D01*
D60*
X158387900Y-88577900D02*
X157295700Y-88577900D01*
D59*
X103870000Y-109276400D02*
X103397200Y-108803600D01*
X96158200Y-104409400D02*
X96158200Y-108625800D01*
D60*
X144900000Y-82600000D02*
X144900000Y-86697800D01*
D61*
X100318260Y-90140000D02*
X101715260Y-90140000D01*
D60*
X185350000Y-119350000D02*
X186620000Y-120620000D01*
X133200000Y-78900000D02*
X128899000Y-78900000D01*
D61*
X97595260Y-90680000D02*
X99778260Y-90680000D01*
D60*
X128835000Y-69312000D02*
X130423000Y-70900000D01*
X160331000Y-139035000D02*
X165030000Y-139035000D01*
D59*
X113735000Y-134610000D02*
X115005000Y-135880000D01*
X129270000Y-113600000D02*
X129270000Y-109276400D01*
D60*
X128327000Y-68550000D02*
X128327000Y-69566000D01*
D61*
X200404120Y-48407920D02*
X199365260Y-49446780D01*
D60*
X182429000Y-107285000D02*
X183064000Y-106650000D01*
X177730000Y-100935000D02*
X183445000Y-100935000D01*
X125787000Y-84145600D02*
X125787000Y-85822000D01*
D59*
X87090400Y-107965400D02*
X87090400Y-108854400D01*
X93710000Y-126949000D02*
X93415000Y-127244000D01*
D60*
X129470000Y-57272400D02*
X129470000Y-57120000D01*
D59*
X108950000Y-126949000D02*
X108655000Y-127244000D01*
D60*
X93066720Y-52629280D02*
X92386000Y-53310000D01*
D61*
X204165260Y-85746780D02*
X206705260Y-85746780D01*
D60*
X138400000Y-67200000D02*
X138400000Y-61871700D01*
X145900000Y-82600000D02*
X145900000Y-86148400D01*
D59*
X120410000Y-113600000D02*
X120410000Y-110053400D01*
D61*
X193297660Y-46756800D02*
X193297660Y-48316360D01*
D59*
X98790000Y-113600000D02*
X98790000Y-109276400D01*
X122625000Y-103342600D02*
X121558200Y-104409400D01*
X133760000Y-109804000D02*
X133760000Y-113600000D01*
D62*
X190745000Y-73945000D02*
X191700000Y-74900000D01*
D61*
X100032260Y-94680000D02*
X100572260Y-95220000D01*
D59*
X129270000Y-109276400D02*
X128797200Y-108803600D01*
D60*
X156140000Y-133320000D02*
X157410000Y-132050000D01*
D59*
X101980000Y-122600000D02*
X101980000Y-126934000D01*
X114030000Y-126949000D02*
X113735000Y-127244000D01*
X135325000Y-102860000D02*
X135325000Y-103342600D01*
D60*
X146450000Y-76400000D02*
X152915600Y-76400000D01*
D59*
X100857200Y-108803600D02*
X100857200Y-101767800D01*
D62*
X198515260Y-66965000D02*
X199470260Y-66010000D01*
D60*
X128484600Y-78400000D02*
X126549000Y-80335600D01*
D61*
X118040000Y-95220000D02*
X120580000Y-95220000D01*
D62*
X196615260Y-68855000D02*
X196615260Y-66965000D01*
D60*
X158680000Y-123160000D02*
X159696000Y-123160000D01*
D59*
X133110000Y-110053400D02*
X133115200Y-110048200D01*
D60*
X150929200Y-79900000D02*
X153854000Y-82824800D01*
X140400000Y-79700000D02*
X140400000Y-87693600D01*
D59*
X98495000Y-127244000D02*
X98495000Y-134610000D01*
D60*
X100762920Y-54229480D02*
X100564800Y-54427600D01*
D59*
X92170400Y-107965400D02*
X92145000Y-107940000D01*
X103575000Y-127244000D02*
X103575000Y-134610000D01*
D60*
X182429000Y-135225000D02*
X183064000Y-134590000D01*
D59*
X87390000Y-126146600D02*
X87395200Y-126151800D01*
X102330400Y-107965400D02*
X102305000Y-107940000D01*
X106410000Y-109276400D02*
X105937200Y-108803600D01*
X94360000Y-126934000D02*
X93796000Y-127498000D01*
D60*
X130613000Y-60066400D02*
X129165200Y-60066400D01*
X159696000Y-137130000D02*
X160331000Y-137765000D01*
D59*
X121060000Y-109804000D02*
X121060000Y-113600000D01*
D61*
X99778260Y-75440000D02*
X100318260Y-74900000D01*
D60*
X134550000Y-89759000D02*
X134550000Y-92680000D01*
D61*
X99778260Y-83060000D02*
X100318260Y-82520000D01*
X87904260Y-90680000D02*
X90595260Y-90680000D01*
D59*
X115980000Y-109804000D02*
X115030400Y-108854400D01*
X139430000Y-122600000D02*
X139430000Y-126949000D01*
D61*
X87491260Y-95220000D02*
X88031260Y-94680000D01*
D59*
X120410000Y-126146600D02*
X120415200Y-126151800D01*
D60*
X96754800Y-53386200D02*
X96754800Y-56967600D01*
X185350000Y-116810000D02*
X186620000Y-118080000D01*
D59*
X141380000Y-126446800D02*
X140405000Y-127421800D01*
X98876000Y-127498000D02*
X98876000Y-132451000D01*
X89280000Y-126934000D02*
X88716000Y-127498000D01*
X126638200Y-104409400D02*
X126638200Y-108625800D01*
X139135000Y-127244000D02*
X139135000Y-134610000D01*
D60*
X177730000Y-109825000D02*
X182429000Y-109825000D01*
X156622600Y-57297800D02*
X156622600Y-55062600D01*
D59*
X101980000Y-126934000D02*
X101416000Y-127498000D01*
X98876000Y-132451000D02*
X99765000Y-133340000D01*
X126730000Y-109276400D02*
X126257200Y-108803600D01*
X115980000Y-109804000D02*
X115980000Y-113600000D01*
X93710000Y-122600000D02*
X93710000Y-126949000D01*
D60*
X183445000Y-108555000D02*
X184080000Y-107920000D01*
D59*
X120085000Y-102860000D02*
X120085000Y-103342600D01*
D60*
X138400000Y-61871700D02*
X135883500Y-59355200D01*
D59*
X100740000Y-126446800D02*
X99765000Y-127421800D01*
D60*
X133200000Y-77900000D02*
X128260700Y-77900000D01*
X137400000Y-63449800D02*
X132010000Y-58059800D01*
X182429000Y-132685000D02*
X183064000Y-132050000D01*
D59*
X136798200Y-108625800D02*
X137540000Y-109367600D01*
X135000000Y-126934000D02*
X134436000Y-127498000D01*
D60*
X99663100Y-51641220D02*
X99663100Y-52763900D01*
X146450000Y-75400000D02*
X153515800Y-75400000D01*
D61*
X100318260Y-82520000D02*
X101715260Y-82520000D01*
D59*
X91170000Y-126949000D02*
X90875000Y-127244000D01*
D60*
X97463460Y-51641220D02*
X97463460Y-52677540D01*
X129288000Y-79400000D02*
X127819000Y-80869000D01*
X133200000Y-79400000D02*
X129288000Y-79400000D01*
X128899000Y-78900000D02*
X127184000Y-80615000D01*
X143900000Y-63645000D02*
X147250000Y-60295000D01*
X134900000Y-84202000D02*
X134245200Y-84856800D01*
X126930000Y-91537000D02*
X126930000Y-92680000D01*
X135870800Y-59355200D02*
X134550000Y-58034400D01*
X149764600Y-88819200D02*
X152330000Y-91384600D01*
D59*
X115005000Y-103342600D02*
X113938200Y-104409400D01*
D60*
X190902440Y-48913260D02*
X189160000Y-50655700D01*
D59*
X93415000Y-127244000D02*
X93415000Y-134610000D01*
D60*
X139900000Y-67200000D02*
X139900000Y-59980800D01*
X177730000Y-132685000D02*
X182429000Y-132685000D01*
X177730000Y-113635000D02*
X183445000Y-113635000D01*
D59*
X142056000Y-132451000D02*
X142945000Y-133340000D01*
X120410000Y-110053400D02*
X120415200Y-110048200D01*
X97550000Y-113600000D02*
X97550000Y-110053400D01*
D63*
X170110000Y-41880000D02*
X170110000Y-45690000D01*
D60*
X124898000Y-55342000D02*
X125660000Y-54580000D01*
D59*
X101035000Y-134610000D02*
X102305000Y-135880000D01*
X129356000Y-127498000D02*
X129356000Y-132451000D01*
X104870400Y-107965400D02*
X104870400Y-108854400D01*
X142620000Y-126934000D02*
X142056000Y-127498000D01*
X111017200Y-108803600D02*
X111017200Y-101767800D01*
D60*
X135900000Y-67200000D02*
X135900000Y-64566000D01*
D59*
X87390000Y-110053400D02*
X87395200Y-110048200D01*
D61*
X86475260Y-87600000D02*
X87491260Y-87600000D01*
D60*
X138400000Y-86340800D02*
X135769200Y-88971600D01*
D59*
X111195000Y-127244000D02*
X111195000Y-134610000D01*
D62*
X197565260Y-77440000D02*
X197565260Y-72055000D01*
D59*
X112490400Y-107965400D02*
X112465000Y-107940000D01*
X127705000Y-103342600D02*
X126638200Y-104409400D01*
D61*
X189347960Y-81018860D02*
X187658860Y-81018860D01*
D60*
X155708200Y-79980000D02*
X161220000Y-79980000D01*
D59*
X128680000Y-122600000D02*
X128680000Y-126446800D01*
D60*
X156267000Y-62733400D02*
X158070400Y-60930000D01*
X98563280Y-51641220D02*
X98563280Y-52720720D01*
D59*
X133760000Y-109804000D02*
X132810400Y-108854400D01*
D63*
X113865260Y-139536780D02*
X113465260Y-139136780D01*
D60*
X127819000Y-69947000D02*
X129772000Y-71900000D01*
X183445000Y-128875000D02*
X184080000Y-128240000D01*
D59*
X126816000Y-127498000D02*
X126816000Y-132451000D01*
X105820000Y-109804000D02*
X105820000Y-113600000D01*
D60*
X148316800Y-63266800D02*
X149815400Y-63266800D01*
D61*
X204165260Y-93366780D02*
X206705260Y-93366780D01*
D60*
X146900000Y-85472000D02*
X148570800Y-87142800D01*
D59*
X118520000Y-109804000D02*
X117570400Y-108854400D01*
X93796000Y-127498000D02*
X93796000Y-132451000D01*
X106115000Y-127244000D02*
X106115000Y-134610000D01*
D60*
X120580000Y-69820000D02*
X126676000Y-69820000D01*
D59*
X142945000Y-102860000D02*
X142945000Y-103342600D01*
D60*
X160331000Y-100935000D02*
X165030000Y-100935000D01*
D59*
X85998200Y-104409400D02*
X85998200Y-108625800D01*
X126730000Y-113600000D02*
X126730000Y-109276400D01*
D61*
X194748000Y-49766700D02*
X196780000Y-49766700D01*
X161220000Y-54580000D02*
X159950000Y-55850000D01*
D59*
X135325000Y-103342600D02*
X134258200Y-104409400D01*
D60*
X138900000Y-79200000D02*
X138900000Y-86628200D01*
X183445000Y-121255000D02*
X184080000Y-120620000D01*
X147656400Y-61539600D02*
X148520000Y-61539600D01*
D59*
X92470000Y-126146600D02*
X92475200Y-126151800D01*
D60*
X156140000Y-138400000D02*
X157410000Y-137130000D01*
D59*
X123717200Y-101767800D02*
X125165000Y-100320000D01*
D60*
X154489000Y-82723200D02*
X154489000Y-84120200D01*
X157410000Y-119350000D02*
X159696000Y-119350000D01*
X157410000Y-101570000D02*
X159696000Y-101570000D01*
D59*
X129178200Y-108625800D02*
X129920000Y-109367600D01*
D63*
X177730000Y-48230000D02*
X177730000Y-52040000D01*
D60*
X129248000Y-72900000D02*
X133200000Y-72900000D01*
D59*
X134258200Y-108625800D02*
X135000000Y-109367600D01*
D60*
X151427800Y-78900000D02*
X155174800Y-82647000D01*
X134245200Y-84856800D02*
X132848200Y-84856800D01*
D59*
X136595000Y-127244000D02*
X136595000Y-134610000D01*
X116097200Y-101767800D02*
X117545000Y-100320000D01*
X111490000Y-126949000D02*
X111195000Y-127244000D01*
D61*
X92825260Y-62200000D02*
X95365260Y-62200000D01*
D60*
X151060000Y-90927400D02*
X151060000Y-95220000D01*
D59*
X101238200Y-108625800D02*
X101980000Y-109367600D01*
X103870000Y-126949000D02*
X103575000Y-127244000D01*
D63*
X106865260Y-139536780D02*
X106465260Y-139136780D01*
X175190000Y-48230000D02*
X175190000Y-52040000D01*
D59*
X143270000Y-110053400D02*
X143275200Y-110048200D01*
X126140000Y-126446800D02*
X125165000Y-127421800D01*
D60*
X183445000Y-123795000D02*
X184080000Y-123160000D01*
X148570800Y-87142800D02*
X151263200Y-87142800D01*
D59*
X141380000Y-109804000D02*
X140430400Y-108854400D01*
X102630000Y-113600000D02*
X102630000Y-110053400D01*
D60*
X144450000Y-72400000D02*
X154398200Y-72400000D01*
X177730000Y-127605000D02*
X182429000Y-127605000D01*
D59*
X119110000Y-122600000D02*
X119110000Y-126949000D01*
D61*
X92825260Y-67280000D02*
X95365260Y-67280000D01*
D59*
X113440000Y-109804000D02*
X112490400Y-108854400D01*
X88630000Y-109276400D02*
X88157200Y-108803600D01*
D60*
X159696000Y-125700000D02*
X160331000Y-126335000D01*
X142900000Y-67200000D02*
X142900000Y-63121000D01*
X137400000Y-85740600D02*
X135388200Y-87752400D01*
X124517000Y-62200000D02*
X124517000Y-62200000D01*
D59*
X131896000Y-132451000D02*
X132785000Y-133340000D01*
D62*
X196549260Y-72121000D02*
X196615260Y-72055000D01*
D59*
X134436000Y-132451000D02*
X135325000Y-133340000D01*
D60*
X158680000Y-115540000D02*
X159696000Y-115540000D01*
X137900000Y-63137000D02*
X133280000Y-58517000D01*
D59*
X96158200Y-108625800D02*
X96900000Y-109367600D01*
X87390000Y-122600000D02*
X87390000Y-126146600D01*
X123717200Y-108803600D02*
X123717200Y-101767800D01*
X96336000Y-127498000D02*
X96336000Y-132451000D01*
D60*
X125279000Y-85187000D02*
X124136000Y-86330000D01*
X185350000Y-106650000D02*
X186620000Y-107920000D01*
D59*
X139430000Y-126949000D02*
X139135000Y-127244000D01*
D60*
X133534000Y-86533200D02*
X129470000Y-90597200D01*
D59*
X109950400Y-107965400D02*
X109925000Y-107940000D01*
X85617200Y-108803600D02*
X85617200Y-101767800D01*
D60*
X130963000Y-80900000D02*
X127057000Y-84806000D01*
D61*
X111360000Y-42200000D02*
X109470000Y-42200000D01*
D59*
X131810000Y-113600000D02*
X131810000Y-109276400D01*
D60*
X141400000Y-61801600D02*
X142170000Y-61031600D01*
X135900000Y-78450000D02*
X135900000Y-84903800D01*
D59*
X104870400Y-107965400D02*
X104845000Y-107940000D01*
D60*
X183445000Y-111095000D02*
X184080000Y-110460000D01*
X142900000Y-81450000D02*
X142900000Y-88152200D01*
X145400000Y-64634200D02*
X147885000Y-62149200D01*
D59*
X111490000Y-122600000D02*
X111490000Y-126949000D01*
D60*
X185350000Y-121890000D02*
X186620000Y-123160000D01*
D59*
X111398200Y-104409400D02*
X111398200Y-108625800D01*
X107060000Y-126934000D02*
X106496000Y-127498000D01*
D61*
X118040000Y-95220000D02*
X118040000Y-54580000D01*
D60*
X156140000Y-102840000D02*
X157410000Y-101570000D01*
D59*
X89630400Y-107965400D02*
X89605000Y-107940000D01*
X108477200Y-108803600D02*
X108477200Y-101767800D01*
X101035000Y-127244000D02*
X101035000Y-134610000D01*
X122300000Y-122600000D02*
X122300000Y-126934000D01*
X107710000Y-110053400D02*
X107715200Y-110048200D01*
X112140000Y-126934000D02*
X111576000Y-127498000D01*
X106410000Y-113600000D02*
X106410000Y-109276400D01*
X101416000Y-132451000D02*
X102305000Y-133340000D01*
D60*
X136900000Y-63838800D02*
X130740000Y-57678800D01*
D59*
X108950000Y-113600000D02*
X108950000Y-109276400D01*
D60*
X130841600Y-59507600D02*
X129495400Y-59507600D01*
X145700000Y-74400000D02*
X157910000Y-74400000D01*
D59*
X126730000Y-122600000D02*
X126730000Y-126949000D01*
D60*
X144450000Y-71400000D02*
X153239200Y-71400000D01*
D59*
X114680000Y-126934000D02*
X114116000Y-127498000D01*
X105820000Y-109804000D02*
X104870400Y-108854400D01*
X115030400Y-107965400D02*
X115005000Y-107940000D01*
X131220000Y-122600000D02*
X131220000Y-126446800D01*
X115030400Y-107965400D02*
X115030400Y-108854400D01*
X116570000Y-122600000D02*
X116570000Y-126949000D01*
X116570000Y-126949000D02*
X116275000Y-127244000D01*
D60*
X140900000Y-79700000D02*
X140900000Y-88108000D01*
X145200000Y-72900000D02*
X154711000Y-72900000D01*
D59*
X93120000Y-109804000D02*
X92170400Y-108854400D01*
D60*
X142400000Y-67200000D02*
X142400000Y-62808200D01*
X153295200Y-84577400D02*
X157295700Y-88577900D01*
X159696000Y-138400000D02*
X160331000Y-139035000D01*
D62*
X205165260Y-68855000D02*
X205165260Y-63470000D01*
D59*
X116656000Y-132451000D02*
X117545000Y-133340000D01*
X126257200Y-101767800D02*
X127705000Y-100320000D01*
D60*
X160331000Y-127605000D02*
X165030000Y-127605000D01*
D59*
X91820000Y-126934000D02*
X91256000Y-127498000D01*
X143920000Y-122600000D02*
X143920000Y-126446800D01*
D60*
X158680000Y-125700000D02*
X159696000Y-125700000D01*
D59*
X141970000Y-122600000D02*
X141970000Y-126949000D01*
X117220000Y-122600000D02*
X117220000Y-126934000D01*
D60*
X183445000Y-118715000D02*
X184080000Y-118080000D01*
X130740000Y-90165400D02*
X130740000Y-95220000D01*
X123628000Y-78710000D02*
X123120000Y-78710000D01*
D59*
X86090000Y-126949000D02*
X85795000Y-127244000D01*
D60*
X160331000Y-108555000D02*
X165030000Y-108555000D01*
X135566000Y-88362000D02*
X134753200Y-88362000D01*
X146900000Y-82600000D02*
X146900000Y-85472000D01*
X133200000Y-76900000D02*
X126987400Y-76900000D01*
D59*
X118520000Y-109804000D02*
X118520000Y-113600000D01*
X108360000Y-126446800D02*
X107385000Y-127421800D01*
D60*
X160331000Y-137765000D02*
X165030000Y-137765000D01*
D59*
X136417200Y-101767800D02*
X137865000Y-100320000D01*
X98790000Y-122600000D02*
X98790000Y-126949000D01*
D60*
X177730000Y-121255000D02*
X183445000Y-121255000D01*
X144450000Y-70400000D02*
X151292800Y-70400000D01*
X123890000Y-75400000D02*
X123120000Y-76170000D01*
D59*
X137865000Y-103342600D02*
X136798200Y-104409400D01*
D60*
X134804000Y-85999800D02*
X133280000Y-85999800D01*
X139400000Y-79200000D02*
X139400000Y-86966400D01*
X147450000Y-78400000D02*
X151715200Y-78400000D01*
D59*
X127380000Y-122600000D02*
X127380000Y-126934000D01*
D60*
X160331000Y-135225000D02*
X165030000Y-135225000D01*
D59*
X90697200Y-101767800D02*
X92145000Y-100320000D01*
X118815000Y-134610000D02*
X120085000Y-135880000D01*
D61*
X100318260Y-82520000D02*
X101715260Y-82520000D01*
D62*
X188845000Y-72055000D02*
X188845000Y-73945000D01*
D60*
X185350000Y-111730000D02*
X186620000Y-113000000D01*
X183064000Y-134590000D02*
X185350000Y-134590000D01*
X129851000Y-67534000D02*
X129851000Y-68804000D01*
X126930000Y-57831200D02*
X126930000Y-57120000D01*
X158387900Y-88577900D02*
X158680000Y-88870000D01*
D63*
X196780000Y-46660280D02*
X196647920Y-46528200D01*
D60*
X137900000Y-86028000D02*
X135566000Y-88362000D01*
D59*
X98200000Y-122600000D02*
X98200000Y-126446800D01*
X115330000Y-110053400D02*
X115335200Y-110048200D01*
X142056000Y-127498000D02*
X142056000Y-132451000D01*
X88716000Y-127498000D02*
X88716000Y-132451000D01*
X124276000Y-127498000D02*
X124276000Y-132451000D01*
D61*
X92825260Y-64740000D02*
X95365260Y-64740000D01*
D59*
X96250000Y-109276400D02*
X95777200Y-108803600D01*
X90875000Y-127244000D02*
X90875000Y-134610000D01*
D61*
X114560000Y-43150000D02*
X119945000Y-43150000D01*
D60*
X185350000Y-124430000D02*
X186620000Y-125700000D01*
X190102340Y-48570360D02*
X189033000Y-49639700D01*
X189033000Y-49639700D02*
X187636000Y-49639700D01*
D59*
X130245000Y-102860000D02*
X130245000Y-103342600D01*
D61*
X86475260Y-90140000D02*
X87364260Y-90140000D01*
D59*
X97250400Y-107965400D02*
X97225000Y-107940000D01*
D60*
X156140000Y-113000000D02*
X157410000Y-111730000D01*
X153295200Y-83129600D02*
X153295200Y-84577400D01*
D59*
X129270000Y-122600000D02*
X129270000Y-126949000D01*
X114030000Y-113600000D02*
X114030000Y-109276400D01*
D60*
X126549000Y-80361000D02*
X123120000Y-83790000D01*
D59*
X101330000Y-113600000D02*
X101330000Y-109276400D01*
X107385000Y-103342600D02*
X106318200Y-104409400D01*
X104845000Y-103342600D02*
X103778200Y-104409400D01*
D61*
X100032260Y-79440000D02*
X100572260Y-79980000D01*
D59*
X141970000Y-113600000D02*
X141970000Y-109276400D01*
X125490000Y-122600000D02*
X125490000Y-126146600D01*
D60*
X159696000Y-102840000D02*
X160331000Y-103475000D01*
D59*
X109600000Y-126934000D02*
X109036000Y-127498000D01*
D60*
X156165400Y-81250000D02*
X158680000Y-81250000D01*
X135820000Y-58212200D02*
X135820000Y-54580000D01*
X134423000Y-85441000D02*
X133026000Y-85441000D01*
D61*
X97905260Y-64740000D02*
X101715260Y-64740000D01*
D59*
X143270000Y-113600000D02*
X143270000Y-110053400D01*
D63*
X94365260Y-139596780D02*
X94825260Y-139136780D01*
D60*
X155886000Y-82570800D02*
X155886000Y-83256600D01*
X185350000Y-129510000D02*
X186620000Y-130780000D01*
X147834200Y-88819200D02*
X149764600Y-88819200D01*
D61*
X116450000Y-44100000D02*
X117405000Y-45055000D01*
D59*
X91820000Y-122600000D02*
X91820000Y-126934000D01*
D60*
X160331000Y-116175000D02*
X165030000Y-116175000D01*
D59*
X103778200Y-108625800D02*
X104520000Y-109367600D01*
X141878200Y-104409400D02*
X141878200Y-108625800D01*
X98200000Y-109804000D02*
X98200000Y-113600000D01*
D60*
X159696000Y-128240000D02*
X160331000Y-128875000D01*
D59*
X124840000Y-126934000D02*
X124276000Y-127498000D01*
D63*
X172650000Y-48230000D02*
X172650000Y-52040000D01*
D64*
X181540000Y-53310000D02*
X181540000Y-54580000D01*
D59*
X108360000Y-122600000D02*
X108360000Y-126446800D01*
D60*
X135235800Y-87117400D02*
X133788000Y-87117400D01*
D59*
X97550000Y-126146600D02*
X97555200Y-126151800D01*
D60*
X125549000Y-75900000D02*
X124009000Y-77440000D01*
X186620000Y-50655700D02*
X186620000Y-51798700D01*
X92132000Y-53310000D02*
X91674800Y-53767200D01*
X159696000Y-134590000D02*
X160331000Y-135225000D01*
X95263820Y-52718180D02*
X94214800Y-53767200D01*
X130032600Y-79900000D02*
X128454000Y-81478600D01*
D62*
X206181260Y-72121000D02*
X206115260Y-72055000D01*
D59*
X131337200Y-101767800D02*
X132785000Y-100320000D01*
D60*
X183445000Y-103475000D02*
X184080000Y-102840000D01*
D59*
X96900000Y-126934000D02*
X96336000Y-127498000D01*
D60*
X130740000Y-57678800D02*
X130740000Y-54580000D01*
D59*
X93120000Y-122600000D02*
X93120000Y-126446800D01*
D61*
X163760000Y-54580000D02*
X163760000Y-95220000D01*
D59*
X101330000Y-109276400D02*
X100857200Y-108803600D01*
X111195000Y-134610000D02*
X112465000Y-135880000D01*
D60*
X124136000Y-86330000D02*
X123120000Y-86330000D01*
D59*
X116097200Y-108803600D02*
X116097200Y-101767800D01*
X121558200Y-104409400D02*
X121558200Y-108625800D01*
D60*
X177730000Y-106015000D02*
X183445000Y-106015000D01*
X128835000Y-68296000D02*
X128835000Y-69312000D01*
X151292800Y-70400000D02*
X158222800Y-63470000D01*
D59*
X143270000Y-126146600D02*
X143275200Y-126151800D01*
D61*
X87364260Y-82520000D02*
X87904260Y-83060000D01*
X100572260Y-87600000D02*
X101715260Y-87600000D01*
D60*
X129495400Y-61590400D02*
X124898000Y-56993000D01*
X159696000Y-110460000D02*
X160331000Y-111095000D01*
D62*
X204215260Y-66965000D02*
X203260260Y-66010000D01*
D59*
X137540000Y-109367600D02*
X137540000Y-113600000D01*
D60*
X141900000Y-62444600D02*
X143440000Y-60904600D01*
D59*
X95010000Y-126146600D02*
X95015200Y-126151800D01*
D60*
X157410000Y-137130000D02*
X159696000Y-137130000D01*
D59*
X142945000Y-103342600D02*
X141878200Y-104409400D01*
X92145000Y-102860000D02*
X92145000Y-103342600D01*
X90580000Y-109804000D02*
X89630400Y-108854400D01*
D60*
X133280000Y-58517000D02*
X133280000Y-54580000D01*
D59*
X117870000Y-122600000D02*
X117870000Y-126146600D01*
D60*
X160331000Y-123795000D02*
X165030000Y-123795000D01*
X147250000Y-59558400D02*
X147250000Y-57120000D01*
D59*
X94710400Y-107965400D02*
X94710400Y-108854400D01*
D60*
X127057000Y-86838000D02*
X123755000Y-90140000D01*
D59*
X125490000Y-126146600D02*
X125495200Y-126151800D01*
D60*
X177730000Y-119985000D02*
X182429000Y-119985000D01*
X155225600Y-78710000D02*
X158680000Y-78710000D01*
D59*
X124190000Y-109276400D02*
X123717200Y-108803600D01*
X122950000Y-122600000D02*
X122950000Y-126146600D01*
D61*
X87904260Y-75440000D02*
X90595260Y-75440000D01*
D63*
X123365260Y-144914280D02*
X123365260Y-139636780D01*
D59*
X95010000Y-122600000D02*
X95010000Y-126146600D01*
X115330000Y-113600000D02*
X115330000Y-110053400D01*
D61*
X199085260Y-85746780D02*
X201625260Y-85746780D01*
D59*
X143270000Y-122600000D02*
X143270000Y-126146600D01*
X112790000Y-126146600D02*
X112795200Y-126151800D01*
D60*
X149002600Y-62149200D02*
X152330000Y-58821800D01*
D59*
X106410000Y-122600000D02*
X106410000Y-126949000D01*
D60*
X133026000Y-85441000D02*
X126930000Y-91537000D01*
D59*
X99765000Y-102860000D02*
X99765000Y-103342600D01*
X133110000Y-122600000D02*
X133110000Y-126146600D01*
X138190000Y-113600000D02*
X138190000Y-110053400D01*
X91170000Y-113600000D02*
X91170000Y-109276400D01*
X103870000Y-113600000D02*
X103870000Y-109276400D01*
D60*
X135400000Y-67200000D02*
X135400000Y-64853400D01*
X156140000Y-125700000D02*
X157410000Y-124430000D01*
D59*
X88335000Y-127244000D02*
X88335000Y-134610000D01*
X109600000Y-122600000D02*
X109600000Y-126934000D01*
D60*
X159696000Y-121890000D02*
X160331000Y-122525000D01*
X159696000Y-123160000D02*
X160331000Y-123795000D01*
X136404200Y-58796400D02*
X135820000Y-58212200D01*
D61*
X97905260Y-62200000D02*
X101715260Y-62200000D01*
D60*
X177730000Y-125065000D02*
X182429000Y-125065000D01*
D59*
X89605000Y-103342600D02*
X88538200Y-104409400D01*
D61*
X196780000Y-49766700D02*
X196780000Y-51798700D01*
D60*
X148520000Y-61539600D02*
X151060000Y-58999600D01*
X147250000Y-60295000D02*
X147986600Y-60295000D01*
D59*
X109950400Y-107965400D02*
X109950400Y-108854400D01*
X122300000Y-109367600D02*
X122300000Y-113600000D01*
X119110000Y-126949000D02*
X118815000Y-127244000D01*
D60*
X138900000Y-61203300D02*
X136493100Y-58796400D01*
X133200000Y-77400000D02*
X127846300Y-77400000D01*
D61*
X121850000Y-93950000D02*
X120580000Y-95220000D01*
D60*
X123996300Y-81250000D02*
X123120000Y-81250000D01*
D59*
X135650000Y-113600000D02*
X135650000Y-110053400D01*
D60*
X125914000Y-80246700D02*
X123640700Y-82520000D01*
X177730000Y-112365000D02*
X182429000Y-112365000D01*
D59*
X132810400Y-107965400D02*
X132785000Y-107940000D01*
D60*
X154711000Y-72900000D02*
X157791000Y-69820000D01*
D59*
X126638200Y-108625800D02*
X127380000Y-109367600D01*
X93618200Y-108625800D02*
X94360000Y-109367600D01*
X94685000Y-103342600D02*
X93618200Y-104409400D01*
X102305000Y-102860000D02*
X102305000Y-103342600D01*
D60*
X159696000Y-132050000D02*
X160331000Y-132685000D01*
X125279000Y-79967300D02*
X123996300Y-81250000D01*
D62*
X204215260Y-73945000D02*
X203260260Y-74900000D01*
D60*
X145400000Y-67200000D02*
X145400000Y-64634200D01*
X94166540Y-52672460D02*
X92944800Y-53894200D01*
X123120000Y-66010000D02*
X125787000Y-66010000D01*
D59*
X87090400Y-107965400D02*
X87065000Y-107940000D01*
D61*
X189347960Y-84021140D02*
X187658860Y-84021140D01*
D64*
X123120000Y-41880000D02*
X161220000Y-41880000D01*
D59*
X115980000Y-122600000D02*
X115980000Y-126446800D01*
D61*
X92825260Y-69820000D02*
X95365260Y-69820000D01*
D60*
X124771000Y-79116400D02*
X124771000Y-79116400D01*
D59*
X130570000Y-126146600D02*
X130575200Y-126151800D01*
D63*
X87365260Y-144914280D02*
X87365260Y-139596780D01*
D59*
X130570000Y-110053400D02*
X130575200Y-110048200D01*
X101980000Y-109367600D02*
X101980000Y-113600000D01*
X135350400Y-107965400D02*
X135325000Y-107940000D01*
D60*
X124009000Y-77440000D02*
X120580000Y-77440000D01*
D61*
X189347960Y-91178860D02*
X187658860Y-91178860D01*
D60*
X152711000Y-83307400D02*
X152711000Y-84907600D01*
D63*
X103365260Y-144914280D02*
X103365260Y-139696780D01*
D60*
X127184000Y-80615000D02*
X127184000Y-80615000D01*
D59*
X128797200Y-101767800D02*
X130245000Y-100320000D01*
D60*
X177730000Y-136495000D02*
X183445000Y-136495000D01*
X158070400Y-60930000D02*
X158680000Y-60930000D01*
D59*
X104520000Y-126934000D02*
X103956000Y-127498000D01*
D61*
X187658860Y-94181140D02*
X186620000Y-95220000D01*
X120580000Y-95220000D02*
X120580000Y-97760000D01*
D59*
X107710000Y-122600000D02*
X107710000Y-126146600D01*
D60*
X150540200Y-69400000D02*
X156267000Y-63673200D01*
X146450000Y-75900000D02*
X153228400Y-75900000D01*
D59*
X141497200Y-108803600D02*
X141497200Y-101767800D01*
D60*
X133280000Y-89835200D02*
X133280000Y-95220000D01*
X120580000Y-59660000D02*
X121977000Y-59660000D01*
D59*
X124276000Y-132451000D02*
X125165000Y-133340000D01*
D60*
X136900000Y-85453200D02*
X135235800Y-87117400D01*
X131209000Y-69400000D02*
X133200000Y-69400000D01*
D59*
X95660000Y-109804000D02*
X94710400Y-108854400D01*
X86740000Y-122600000D02*
X86740000Y-126934000D01*
D60*
X125787000Y-85822000D02*
X124009000Y-87600000D01*
D59*
X117870000Y-113600000D02*
X117870000Y-110053400D01*
X141970000Y-109276400D02*
X141497200Y-108803600D01*
D60*
X127819000Y-68804000D02*
X127819000Y-69947000D01*
X137900000Y-67200000D02*
X137900000Y-63137000D01*
D59*
X121650000Y-122600000D02*
X121650000Y-126949000D01*
D60*
X160331000Y-118715000D02*
X165030000Y-118715000D01*
X130994000Y-66899000D02*
X130994000Y-68423000D01*
X130947000Y-69900000D02*
X133200000Y-69900000D01*
D61*
X161220000Y-95220000D02*
X163760000Y-95220000D01*
D59*
X100090000Y-110053400D02*
X100095200Y-110048200D01*
D60*
X132010000Y-58059800D02*
X132010000Y-57120000D01*
X129510000Y-72400000D02*
X133200000Y-72400000D01*
D59*
X110250000Y-122600000D02*
X110250000Y-126146600D01*
D60*
X152330000Y-58821800D02*
X152330000Y-57120000D01*
X155887400Y-73400000D02*
X158197400Y-71090000D01*
X133788000Y-87117400D02*
X130740000Y-90165400D01*
D61*
X120580000Y-52040000D02*
X161220000Y-52040000D01*
D59*
X98698200Y-104409400D02*
X98698200Y-108625800D01*
D60*
X159696000Y-129510000D02*
X160331000Y-130145000D01*
D63*
X128865260Y-139696780D02*
X129425260Y-139136780D01*
D60*
X160331000Y-102205000D02*
X165030000Y-102205000D01*
D59*
X121736000Y-132451000D02*
X122625000Y-133340000D01*
D60*
X150565600Y-80400000D02*
X153295200Y-83129600D01*
X150252800Y-68900000D02*
X155708200Y-63444600D01*
D59*
X102330400Y-107965400D02*
X102330400Y-108854400D01*
D60*
X145980000Y-91232200D02*
X145980000Y-95220000D01*
D59*
X116275000Y-127244000D02*
X116275000Y-134610000D01*
X123600000Y-126446800D02*
X122625000Y-127421800D01*
D61*
X87904260Y-83060000D02*
X90595260Y-83060000D01*
D60*
X136400000Y-85191200D02*
X135058000Y-86533200D01*
D59*
X86740000Y-109367600D02*
X86740000Y-113600000D01*
D60*
X133200000Y-78400000D02*
X128484600Y-78400000D01*
X158680000Y-118080000D02*
X159696000Y-118080000D01*
X154870000Y-92146600D02*
X154870000Y-92680000D01*
X145700000Y-74900000D02*
X161220000Y-74900000D01*
D59*
X91170000Y-109276400D02*
X90697200Y-108803600D01*
D60*
X160331000Y-126335000D02*
X165030000Y-126335000D01*
D59*
X85998200Y-108625800D02*
X86740000Y-109367600D01*
X100740000Y-109804000D02*
X100740000Y-113600000D01*
D61*
X201905260Y-46718820D02*
X201905260Y-49446780D01*
D60*
X135900000Y-64566000D02*
X130841600Y-59507600D01*
X157410000Y-99030000D02*
X159696000Y-99030000D01*
X158680000Y-120620000D02*
X159696000Y-120620000D01*
X183064000Y-124430000D02*
X185350000Y-124430000D01*
D59*
X141380000Y-122600000D02*
X141380000Y-126446800D01*
D60*
X95263820Y-51641220D02*
X95263820Y-52718180D01*
D59*
X112140000Y-122600000D02*
X112140000Y-126934000D01*
X105170000Y-113600000D02*
X105170000Y-110053400D01*
D60*
X129089000Y-73376000D02*
X133176000Y-73376000D01*
X133200000Y-75400000D02*
X123890000Y-75400000D01*
D59*
X121736000Y-127498000D02*
X121736000Y-132451000D01*
D60*
X143900000Y-81450000D02*
X143900000Y-87272600D01*
D59*
X100740000Y-109804000D02*
X99790400Y-108854400D01*
D62*
X188779000Y-72121000D02*
X188845000Y-72055000D01*
D60*
X142400000Y-88566600D02*
X144710000Y-90876600D01*
X127057000Y-84806000D02*
X127057000Y-86838000D01*
X141900000Y-89362000D02*
X143440000Y-90902000D01*
D59*
X96250000Y-113600000D02*
X96250000Y-109276400D01*
D64*
X207575000Y-100300000D02*
X207575000Y-138400000D01*
D59*
X89930000Y-110053400D02*
X89935200Y-110048200D01*
D60*
X183064000Y-137130000D02*
X185350000Y-137130000D01*
X183064000Y-109190000D02*
X185350000Y-109190000D01*
D59*
X139338200Y-104409400D02*
X139338200Y-108625800D01*
X92170400Y-107965400D02*
X92170400Y-108854400D01*
X121650000Y-126949000D02*
X121355000Y-127244000D01*
X135000000Y-122600000D02*
X135000000Y-126934000D01*
X131896000Y-127498000D02*
X131896000Y-132451000D01*
D60*
X185350000Y-114270000D02*
X186620000Y-115540000D01*
D62*
X196615260Y-73945000D02*
X195660260Y-74900000D01*
D59*
X124840000Y-109367600D02*
X124840000Y-113600000D01*
D60*
X130423000Y-70900000D02*
X133200000Y-70900000D01*
X155708200Y-62022200D02*
X158070400Y-59660000D01*
D59*
X103280000Y-122600000D02*
X103280000Y-126446800D01*
X124840000Y-122600000D02*
X124840000Y-126934000D01*
D60*
X160331000Y-104745000D02*
X165030000Y-104745000D01*
D59*
X118520000Y-126446800D02*
X117545000Y-127421800D01*
D60*
X154285800Y-76170000D02*
X158680000Y-76170000D01*
X157232200Y-87600000D02*
X161220000Y-87600000D01*
D61*
X199085260Y-83206780D02*
X201625260Y-83206780D01*
D60*
X144450000Y-69900000D02*
X150903800Y-69900000D01*
D63*
X119865260Y-144914280D02*
X119865260Y-139596780D01*
D59*
X110250000Y-126146600D02*
X110255200Y-126151800D01*
X121355000Y-134610000D02*
X122625000Y-135880000D01*
D60*
X126803000Y-71090000D02*
X129089000Y-73376000D01*
X139630000Y-88463600D02*
X139630000Y-92680000D01*
D61*
X92825260Y-72360000D02*
X95365260Y-72360000D01*
D59*
X122625000Y-102860000D02*
X122625000Y-103342600D01*
D61*
X100572260Y-79980000D02*
X101715260Y-79980000D01*
D59*
X108655000Y-127244000D02*
X108655000Y-134610000D01*
D60*
X156190800Y-85060000D02*
X161220000Y-85060000D01*
X152711000Y-84907600D02*
X158222800Y-90419400D01*
X182429000Y-114905000D02*
X183064000Y-114270000D01*
D59*
X124190000Y-122600000D02*
X124190000Y-126949000D01*
D60*
X144450000Y-71900000D02*
X153552000Y-71900000D01*
X153600000Y-58466200D02*
X153600000Y-54580000D01*
D59*
X101330000Y-122600000D02*
X101330000Y-126949000D01*
X85795000Y-127244000D02*
X85795000Y-134610000D01*
D61*
X111360000Y-43150000D02*
X105975000Y-43150000D01*
X86475260Y-67280000D02*
X90285260Y-67280000D01*
D59*
X93710000Y-113600000D02*
X93710000Y-109276400D01*
D60*
X144450000Y-68900000D02*
X150252800Y-68900000D01*
X126803000Y-68550000D02*
X127311000Y-69058000D01*
D59*
X116478200Y-108625800D02*
X117220000Y-109367600D01*
X111490000Y-109276400D02*
X111017200Y-108803600D01*
X140730000Y-113600000D02*
X140730000Y-110053400D01*
D60*
X152330000Y-91384600D02*
X152330000Y-92680000D01*
D59*
X136890000Y-113600000D02*
X136890000Y-109276400D01*
X121650000Y-109276400D02*
X121177200Y-108803600D01*
D60*
X129772000Y-71900000D02*
X133200000Y-71900000D01*
D61*
X87364260Y-74900000D02*
X87904260Y-75440000D01*
D59*
X96336000Y-132451000D02*
X97225000Y-133340000D01*
D61*
X186620000Y-82520000D02*
X189347960Y-82520000D01*
D62*
X204149260Y-72121000D02*
X204215260Y-72055000D01*
D59*
X128975000Y-127244000D02*
X128975000Y-134610000D01*
D60*
X183064000Y-111730000D02*
X185350000Y-111730000D01*
X149815400Y-63266800D02*
X154870000Y-58212200D01*
D59*
X122950000Y-126146600D02*
X122955200Y-126151800D01*
X126730000Y-126949000D02*
X126435000Y-127244000D01*
D60*
X182429000Y-130145000D02*
X183064000Y-129510000D01*
X148240600Y-87676200D02*
X150399600Y-87676200D01*
D59*
X124098200Y-104409400D02*
X124098200Y-108625800D01*
D62*
X198581260Y-72121000D02*
X198515260Y-72055000D01*
D59*
X140730000Y-122600000D02*
X140730000Y-126146600D01*
X111017200Y-101767800D02*
X112465000Y-100320000D01*
D61*
X125660000Y-90140000D02*
X123120000Y-92680000D01*
D60*
X123120000Y-60930000D02*
X124136000Y-60930000D01*
D59*
X126816000Y-132451000D02*
X127705000Y-133340000D01*
X136417200Y-108803600D02*
X136417200Y-101767800D01*
D62*
X190811000Y-72121000D02*
X190745000Y-72055000D01*
D59*
X131515000Y-134610000D02*
X132785000Y-135880000D01*
X131515000Y-127244000D02*
X131515000Y-134610000D01*
D60*
X157410000Y-106650000D02*
X159696000Y-106650000D01*
X144710000Y-60498200D02*
X144710000Y-57120000D01*
D59*
X138840000Y-126446800D02*
X137865000Y-127421800D01*
D60*
X151165800Y-79400000D02*
X154489000Y-82723200D01*
X151060000Y-58999600D02*
X151060000Y-54580000D01*
D63*
X180270000Y-48230000D02*
X180270000Y-52040000D01*
D59*
X93120000Y-126446800D02*
X92145000Y-127421800D01*
D60*
X139900000Y-87279200D02*
X138360000Y-88819200D01*
D59*
X122950000Y-113600000D02*
X122950000Y-110053400D01*
X140730000Y-126146600D02*
X140735200Y-126151800D01*
D60*
X144900000Y-64296000D02*
X147656400Y-61539600D01*
X159696000Y-135860000D02*
X160331000Y-136495000D01*
D59*
X134350000Y-109276400D02*
X133877200Y-108803600D01*
X101238200Y-104409400D02*
X101238200Y-108625800D01*
X139516000Y-127498000D02*
X139516000Y-132451000D01*
D60*
X151656400Y-70900000D02*
X157816400Y-64740000D01*
X183064000Y-129510000D02*
X185350000Y-129510000D01*
X91966900Y-51641220D02*
X91966900Y-52586100D01*
X129089000Y-81834200D02*
X126415650Y-84507550D01*
D59*
X122650400Y-107965400D02*
X122625000Y-107940000D01*
X104520000Y-122600000D02*
X104520000Y-126934000D01*
D60*
X128835000Y-73884000D02*
X133184000Y-73884000D01*
X156140000Y-105380000D02*
X157410000Y-104110000D01*
D59*
X128680000Y-109804000D02*
X128680000Y-113600000D01*
X138190000Y-126146600D02*
X138195200Y-126151800D01*
D60*
X158680000Y-128240000D02*
X159696000Y-128240000D01*
D59*
X113557200Y-108803600D02*
X113557200Y-101767800D01*
X107060000Y-109367600D02*
X107060000Y-113600000D01*
D60*
X125279000Y-79967300D02*
X125279000Y-79967300D01*
X144400000Y-86934400D02*
X149790000Y-92324400D01*
X129089000Y-81834200D02*
X129089000Y-81834200D01*
D59*
X117870000Y-110053400D02*
X117875200Y-110048200D01*
X117870000Y-126146600D02*
X117875200Y-126151800D01*
D62*
X198515260Y-72055000D02*
X198515260Y-73945000D01*
D59*
X119018200Y-108625800D02*
X119760000Y-109367600D01*
X134436000Y-127498000D02*
X134436000Y-132451000D01*
D62*
X196615260Y-72055000D02*
X196615260Y-73945000D01*
D59*
X128030000Y-126146600D02*
X128035200Y-126151800D01*
X122650400Y-107965400D02*
X122650400Y-108854400D01*
D60*
X159696000Y-113000000D02*
X160331000Y-113635000D01*
D59*
X136595000Y-134610000D02*
X137865000Y-135880000D01*
X140405000Y-103342600D02*
X139338200Y-104409400D01*
D60*
X96363640Y-51641220D02*
X96363640Y-52507360D01*
X183064000Y-126970000D02*
X185350000Y-126970000D01*
X182429000Y-102205000D02*
X183064000Y-101570000D01*
D59*
X108360000Y-109804000D02*
X107410400Y-108854400D01*
D60*
X94166540Y-51641220D02*
X94166540Y-52672460D01*
D61*
X203406400Y-48407920D02*
X204445260Y-49446780D01*
D59*
X127730400Y-107965400D02*
X127730400Y-108854400D01*
X136890000Y-122600000D02*
X136890000Y-126949000D01*
D60*
X144400000Y-63957800D02*
X147453200Y-60904600D01*
X135820000Y-89708200D02*
X135820000Y-95220000D01*
X140400000Y-87693600D02*
X139630000Y-88463600D01*
X136400000Y-78450000D02*
X136400000Y-85191200D01*
D59*
X117545000Y-103342600D02*
X116478200Y-104409400D01*
D60*
X158680000Y-130780000D02*
X159696000Y-130780000D01*
D62*
X198515260Y-73945000D02*
X199470260Y-74900000D01*
D60*
X158172000Y-67280000D02*
X161220000Y-67280000D01*
X127819000Y-80869000D02*
X127819000Y-80869000D01*
D63*
X186752080Y-51666620D02*
X186620000Y-51798700D01*
D60*
X148600000Y-79900000D02*
X150929200Y-79900000D01*
D61*
X177730000Y-54580000D02*
X181540000Y-54580000D01*
D59*
X102630000Y-110053400D02*
X102635200Y-110048200D01*
D63*
X132365260Y-139536780D02*
X131965260Y-139136780D01*
X141365260Y-144914280D02*
X141365260Y-139636780D01*
D60*
X124771000Y-79116400D02*
X123907400Y-79980000D01*
D61*
X97595260Y-94680000D02*
X100032260Y-94680000D01*
D60*
X93066720Y-51641220D02*
X93066720Y-52629280D01*
X156267000Y-63673200D02*
X156267000Y-62733400D01*
D59*
X131810000Y-122600000D02*
X131810000Y-126949000D01*
X132460000Y-126934000D02*
X131896000Y-127498000D01*
D60*
X159696000Y-133320000D02*
X160331000Y-133955000D01*
X95484800Y-53386200D02*
X95484800Y-54427600D01*
D59*
X94685000Y-102860000D02*
X94685000Y-103342600D01*
X105820000Y-122600000D02*
X105820000Y-126446800D01*
D60*
X136900000Y-78450000D02*
X136900000Y-85453200D01*
X141400000Y-67200000D02*
X141400000Y-61801600D01*
D59*
X140080000Y-122600000D02*
X140080000Y-126934000D01*
X113938200Y-108625800D02*
X114680000Y-109367600D01*
D60*
X159696000Y-126970000D02*
X160331000Y-127605000D01*
D63*
X196647920Y-46528200D02*
X196647920Y-42278780D01*
D64*
X182810000Y-52040000D02*
X181540000Y-53310000D01*
D59*
X113440000Y-126446800D02*
X112465000Y-127421800D01*
D60*
X160331000Y-125065000D02*
X165030000Y-125065000D01*
X128327000Y-69566000D02*
X130161000Y-71400000D01*
D59*
X136300000Y-126446800D02*
X135325000Y-127421800D01*
X97250400Y-107965400D02*
X97250400Y-108854400D01*
D61*
X111360000Y-44100000D02*
X109470000Y-44100000D01*
D59*
X122300000Y-126934000D02*
X121736000Y-127498000D01*
D60*
X153854000Y-84221800D02*
X157232200Y-87600000D01*
X156140000Y-110460000D02*
X157410000Y-109190000D01*
D59*
X102630000Y-126146600D02*
X102635200Y-126151800D01*
D61*
X187658860Y-81018860D02*
X186620000Y-79980000D01*
D60*
X135388200Y-87752400D02*
X133991200Y-87752400D01*
D59*
X88630000Y-126949000D02*
X88335000Y-127244000D01*
D60*
X145900000Y-86148400D02*
X147986600Y-88235000D01*
D61*
X161220000Y-52040000D02*
X161220000Y-54580000D01*
D60*
X159696000Y-105380000D02*
X160331000Y-106015000D01*
X153552000Y-71900000D02*
X158172000Y-67280000D01*
X182429000Y-104745000D02*
X183064000Y-104110000D01*
D63*
X180270000Y-41880000D02*
X180270000Y-45690000D01*
D60*
X125938000Y-76400000D02*
X123628000Y-78710000D01*
D63*
X94365260Y-144914280D02*
X94365260Y-139596780D01*
D60*
X137900000Y-78450000D02*
X137900000Y-86028000D01*
D59*
X92470000Y-113600000D02*
X92470000Y-110053400D01*
D60*
X125660000Y-92045000D02*
X125660000Y-95220000D01*
D59*
X100090000Y-113600000D02*
X100090000Y-110053400D01*
D60*
X160331000Y-132685000D02*
X165030000Y-132685000D01*
D59*
X129920000Y-126934000D02*
X129356000Y-127498000D01*
D60*
X177730000Y-102205000D02*
X182429000Y-102205000D01*
X126987400Y-76900000D02*
X124771000Y-79116400D01*
X140400000Y-67200000D02*
X140400000Y-57890000D01*
X144900000Y-86697800D02*
X147605600Y-89403400D01*
X159696000Y-116810000D02*
X160331000Y-117445000D01*
X144400000Y-67200000D02*
X144400000Y-63957800D01*
X160331000Y-107285000D02*
X165030000Y-107285000D01*
D59*
X91078200Y-104409400D02*
X91078200Y-108625800D01*
D60*
X151263200Y-87142800D02*
X156292400Y-92172000D01*
X101964340Y-56838060D02*
X101834800Y-56967600D01*
D61*
X97905260Y-69820000D02*
X101715260Y-69820000D01*
D60*
X98563280Y-52720720D02*
X98024800Y-53259200D01*
X156140000Y-115540000D02*
X157410000Y-114270000D01*
D59*
X104520000Y-109367600D02*
X104520000Y-113600000D01*
X112790000Y-122600000D02*
X112790000Y-126146600D01*
X141675000Y-127244000D02*
X141675000Y-134610000D01*
X93237200Y-108803600D02*
X93237200Y-101767800D01*
X131337200Y-108803600D02*
X131337200Y-101767800D01*
X109600000Y-109367600D02*
X109600000Y-113600000D01*
X121558200Y-108625800D02*
X122300000Y-109367600D01*
X121060000Y-126446800D02*
X120085000Y-127421800D01*
D60*
X129165200Y-60066400D02*
X126930000Y-57831200D01*
X147885000Y-62149200D02*
X149002600Y-62149200D01*
X155708200Y-63444600D02*
X155708200Y-62022200D01*
D59*
X90875000Y-134610000D02*
X92145000Y-135880000D01*
X101330000Y-126949000D02*
X101035000Y-127244000D01*
D60*
X90404800Y-54148200D02*
X90404800Y-54427600D01*
D59*
X113440000Y-109804000D02*
X113440000Y-113600000D01*
D60*
X122231000Y-59406000D02*
X123501000Y-59406000D01*
X134900000Y-78450000D02*
X134900000Y-84202000D01*
D59*
X140730000Y-110053400D02*
X140735200Y-110048200D01*
X127730400Y-107965400D02*
X127705000Y-107940000D01*
X120410000Y-122600000D02*
X120410000Y-126146600D01*
D60*
X136400000Y-64202400D02*
X129470000Y-57272400D01*
X148600000Y-80900000D02*
X150303600Y-80900000D01*
X159696000Y-130780000D02*
X160331000Y-131415000D01*
D59*
X99790400Y-107965400D02*
X99790400Y-108854400D01*
D60*
X125914000Y-80246700D02*
X125914000Y-80246700D01*
X127311000Y-70201000D02*
X129510000Y-72400000D01*
D61*
X161220000Y-54580000D02*
X163760000Y-54580000D01*
D60*
X145900000Y-64896200D02*
X148037400Y-62758800D01*
X137090000Y-58034400D02*
X137090000Y-57120000D01*
X133280000Y-85999800D02*
X128200000Y-91079800D01*
D63*
X141365260Y-139636780D02*
X140865260Y-139136780D01*
D59*
X90697200Y-108803600D02*
X90697200Y-101767800D01*
X116275000Y-134610000D02*
X117545000Y-135880000D01*
X91820000Y-109367600D02*
X91820000Y-113600000D01*
X100090000Y-126146600D02*
X100095200Y-126151800D01*
D62*
X190745000Y-68855000D02*
X190745000Y-66965000D01*
D60*
X160331000Y-117445000D02*
X165030000Y-117445000D01*
X160331000Y-106015000D02*
X165030000Y-106015000D01*
X185350000Y-134590000D02*
X186620000Y-135860000D01*
D59*
X103575000Y-134610000D02*
X104845000Y-135880000D01*
X125190400Y-107965400D02*
X125165000Y-107940000D01*
X124190000Y-126949000D02*
X123895000Y-127244000D01*
X123600000Y-109804000D02*
X122650400Y-108854400D01*
D63*
X97865260Y-144914280D02*
X97865260Y-139636780D01*
D59*
X138840000Y-109804000D02*
X138840000Y-113600000D01*
D60*
X160331000Y-111095000D02*
X165030000Y-111095000D01*
X177730000Y-116175000D02*
X183445000Y-116175000D01*
X94214800Y-53767200D02*
X94214800Y-56967600D01*
D59*
X133110000Y-126146600D02*
X133115200Y-126151800D01*
D60*
X139400000Y-60344400D02*
X137090000Y-58034400D01*
D59*
X114030000Y-122600000D02*
X114030000Y-126949000D01*
D61*
X87491260Y-87600000D02*
X88031260Y-87060000D01*
D59*
X140430400Y-107965400D02*
X140430400Y-108854400D01*
D60*
X123501000Y-59406000D02*
X130994000Y-66899000D01*
X140400000Y-57890000D02*
X139630000Y-57120000D01*
D59*
X130270400Y-107965400D02*
X130245000Y-107940000D01*
D60*
X158680000Y-102840000D02*
X159696000Y-102840000D01*
D59*
X111490000Y-113600000D02*
X111490000Y-109276400D01*
D60*
X138900000Y-67200000D02*
X138900000Y-61203300D01*
X92944800Y-53894200D02*
X92944800Y-54427600D01*
D59*
X110900000Y-122600000D02*
X110900000Y-126446800D01*
X101416000Y-127498000D02*
X101416000Y-132451000D01*
D60*
X185350000Y-101570000D02*
X186620000Y-102840000D01*
X182429000Y-119985000D02*
X183064000Y-119350000D01*
X145980000Y-60041000D02*
X145980000Y-54580000D01*
D59*
X138957200Y-101767800D02*
X140405000Y-100320000D01*
X100857200Y-101767800D02*
X102305000Y-100320000D01*
X112790000Y-113600000D02*
X112790000Y-110053400D01*
X114030000Y-109276400D02*
X113557200Y-108803600D01*
X126140000Y-109804000D02*
X125190400Y-108854400D01*
X106496000Y-132451000D02*
X107385000Y-133340000D01*
D60*
X149790000Y-92324400D02*
X149790000Y-92680000D01*
D59*
X90580000Y-126446800D02*
X89605000Y-127421800D01*
D62*
X188845000Y-73945000D02*
X187890000Y-74900000D01*
X206115260Y-66965000D02*
X207070260Y-66010000D01*
D60*
X185350000Y-99030000D02*
X186620000Y-100300000D01*
X143400000Y-67200000D02*
X143400000Y-63408400D01*
D63*
X128865260Y-144914280D02*
X128865260Y-139696780D01*
D59*
X93120000Y-109804000D02*
X93120000Y-113600000D01*
D63*
X90865260Y-144914280D02*
X90865260Y-139636780D01*
D59*
X87065000Y-103342600D02*
X85998200Y-104409400D01*
X88040000Y-122600000D02*
X88040000Y-126446800D01*
X139338200Y-108625800D02*
X140080000Y-109367600D01*
D60*
X146900000Y-67200000D02*
X146900000Y-65482200D01*
D59*
X121355000Y-127244000D02*
X121355000Y-134610000D01*
D60*
X183445000Y-131415000D02*
X184080000Y-130780000D01*
D59*
X134350000Y-122600000D02*
X134350000Y-126949000D01*
D60*
X158248200Y-68550000D02*
X158680000Y-68550000D01*
D59*
X125190400Y-107965400D02*
X125190400Y-108854400D01*
D63*
X177730000Y-41880000D02*
X177730000Y-45690000D01*
D59*
X119760000Y-122600000D02*
X119760000Y-126934000D01*
D60*
X177730000Y-122525000D02*
X182429000Y-122525000D01*
X158222800Y-90419400D02*
X160940600Y-90419400D01*
X182429000Y-109825000D02*
X183064000Y-109190000D01*
D59*
X98200000Y-109804000D02*
X97250400Y-108854400D01*
D60*
X156140000Y-120620000D02*
X157410000Y-119350000D01*
D59*
X89280000Y-109367600D02*
X89280000Y-113600000D01*
X135650000Y-122600000D02*
X135650000Y-126146600D01*
D60*
X141400000Y-80450000D02*
X141400000Y-91910000D01*
D62*
X206115260Y-73945000D02*
X207070260Y-74900000D01*
D61*
X86475260Y-74900000D02*
X87364260Y-74900000D01*
D60*
X128200000Y-91079800D02*
X128200000Y-95220000D01*
D59*
X132785000Y-102860000D02*
X132785000Y-103342600D01*
D60*
X158629200Y-66010000D02*
X158680000Y-66010000D01*
D59*
X98790000Y-126949000D02*
X98495000Y-127244000D01*
D60*
X160331000Y-130145000D02*
X165030000Y-130145000D01*
D61*
X97595260Y-87060000D02*
X100032260Y-87060000D01*
D60*
X183445000Y-116175000D02*
X184080000Y-115540000D01*
D61*
X86475260Y-62200000D02*
X90285260Y-62200000D01*
X86475260Y-64740000D02*
X90285260Y-64740000D01*
X97905260Y-72360000D02*
X101715260Y-72360000D01*
D60*
X153515800Y-75400000D02*
X154285800Y-76170000D01*
D61*
X86475260Y-72360000D02*
X90285260Y-72360000D01*
D60*
X130161000Y-71400000D02*
X133200000Y-71400000D01*
D63*
X170110000Y-48230000D02*
X170110000Y-52040000D01*
D59*
X143920000Y-109804000D02*
X143920000Y-113600000D01*
X87390000Y-113600000D02*
X87390000Y-110053400D01*
X88538200Y-104409400D02*
X88538200Y-108625800D01*
D60*
X124898000Y-63470000D02*
X123120000Y-63470000D01*
X153228400Y-75900000D02*
X154768400Y-77440000D01*
X128200000Y-58212200D02*
X128200000Y-54580000D01*
X152628200Y-76900000D02*
X155708200Y-79980000D01*
D59*
X131810000Y-109276400D02*
X131337200Y-108803600D01*
X88040000Y-109804000D02*
X87090400Y-108854400D01*
X98495000Y-134610000D02*
X99765000Y-135880000D01*
D60*
X182429000Y-99665000D02*
X183064000Y-99030000D01*
D59*
X102305000Y-103342600D02*
X101238200Y-104409400D01*
D60*
X187636000Y-49639700D02*
X186620000Y-50655700D01*
X160331000Y-121255000D02*
X165030000Y-121255000D01*
D59*
X136300000Y-122600000D02*
X136300000Y-126446800D01*
D60*
X147450000Y-77900000D02*
X152053400Y-77900000D01*
D59*
X88630000Y-113600000D02*
X88630000Y-109276400D01*
D61*
X199085260Y-88286780D02*
X201625260Y-88286780D01*
D60*
X133200000Y-79900000D02*
X130032600Y-79900000D01*
X158680000Y-110460000D02*
X159696000Y-110460000D01*
D59*
X133760000Y-126446800D02*
X132785000Y-127421800D01*
X89630400Y-107965400D02*
X89630400Y-108854400D01*
D60*
X148600000Y-78900000D02*
X151427800Y-78900000D01*
D59*
X109925000Y-103342600D02*
X108858200Y-104409400D01*
D60*
X159696000Y-104110000D02*
X160331000Y-104745000D01*
X153854000Y-82824800D02*
X153854000Y-84221800D01*
X133200000Y-74400000D02*
X128716000Y-74400000D01*
X182429000Y-112365000D02*
X183064000Y-111730000D01*
X159696000Y-99030000D02*
X160331000Y-99665000D01*
D59*
X108950000Y-109276400D02*
X108477200Y-108803600D01*
D60*
X129470000Y-90597200D02*
X129470000Y-92680000D01*
D62*
X198515260Y-68855000D02*
X198515260Y-66965000D01*
D63*
X119865260Y-139596780D02*
X120325260Y-139136780D01*
D60*
X144450000Y-70900000D02*
X151656400Y-70900000D01*
X158680000Y-100300000D02*
X159696000Y-100300000D01*
D59*
X103956000Y-132451000D02*
X104845000Y-133340000D01*
X114680000Y-122600000D02*
X114680000Y-126934000D01*
D62*
X189795000Y-68855000D02*
X189795000Y-63470000D01*
D59*
X88040000Y-126446800D02*
X87065000Y-127421800D01*
X129356000Y-132451000D02*
X130245000Y-133340000D01*
D61*
X156140000Y-90140000D02*
X158680000Y-92680000D01*
D60*
X177730000Y-130145000D02*
X182429000Y-130145000D01*
X185350000Y-132050000D02*
X186620000Y-133320000D01*
D59*
X129178200Y-104409400D02*
X129178200Y-108625800D01*
D60*
X158197400Y-71090000D02*
X158680000Y-71090000D01*
D59*
X95955000Y-127244000D02*
X95955000Y-134610000D01*
X110250000Y-113600000D02*
X110250000Y-110053400D01*
D60*
X127311000Y-72360000D02*
X128835000Y-73884000D01*
D61*
X116450000Y-42200000D02*
X117405000Y-41245000D01*
D59*
X98317200Y-101767800D02*
X99765000Y-100320000D01*
D60*
X145400000Y-82600000D02*
X145400000Y-86385000D01*
D61*
X109470000Y-44100000D02*
X108515000Y-45055000D01*
D60*
X156673400Y-82520000D02*
X161220000Y-82520000D01*
D59*
X108858200Y-104409400D02*
X108858200Y-108625800D01*
D60*
X177730000Y-108555000D02*
X183445000Y-108555000D01*
X126676000Y-69820000D02*
X126803000Y-69947000D01*
X148600000Y-79400000D02*
X151165800Y-79400000D01*
D59*
X137865000Y-102860000D02*
X137865000Y-103342600D01*
D60*
X157765600Y-72360000D02*
X161220000Y-72360000D01*
D59*
X105937200Y-108803600D02*
X105937200Y-101767800D01*
D60*
X152915600Y-76400000D02*
X155225600Y-78710000D01*
D62*
X190745000Y-66965000D02*
X191700000Y-66010000D01*
D60*
X183445000Y-126335000D02*
X184080000Y-125700000D01*
X138360000Y-88819200D02*
X138360000Y-95220000D01*
X99663100Y-52763900D02*
X99294800Y-53132200D01*
D59*
X120110400Y-107965400D02*
X120085000Y-107940000D01*
D60*
X124771000Y-83028000D02*
X124771000Y-84425000D01*
X159696000Y-114270000D02*
X160331000Y-114905000D01*
D59*
X110900000Y-109804000D02*
X109950400Y-108854400D01*
X89930000Y-126146600D02*
X89935200Y-126151800D01*
X118815000Y-127244000D02*
X118815000Y-134610000D01*
D60*
X121977000Y-59660000D02*
X122231000Y-59406000D01*
X156140000Y-135860000D02*
X157410000Y-134590000D01*
D59*
X115005000Y-102860000D02*
X115005000Y-103342600D01*
X110900000Y-126446800D02*
X109925000Y-127421800D01*
X121060000Y-109804000D02*
X120110400Y-108854400D01*
D60*
X130943200Y-61590400D02*
X129495400Y-61590400D01*
X156622600Y-55062600D02*
X156140000Y-54580000D01*
X155174800Y-82647000D02*
X155174800Y-84044000D01*
X194240000Y-50528700D02*
X194240000Y-51798700D01*
D59*
X121177200Y-108803600D02*
X121177200Y-101767800D01*
D60*
X144710000Y-90876600D02*
X144710000Y-92680000D01*
D59*
X127380000Y-126934000D02*
X126816000Y-127498000D01*
D62*
X197565260Y-68855000D02*
X197565260Y-63470000D01*
D60*
X137400000Y-78450000D02*
X137400000Y-85740600D01*
X134900000Y-67200000D02*
X134900000Y-65547200D01*
D59*
X95660000Y-122600000D02*
X95660000Y-126446800D01*
X125490000Y-113600000D02*
X125490000Y-110053400D01*
D60*
X120580000Y-72360000D02*
X127311000Y-72360000D01*
D59*
X123600000Y-122600000D02*
X123600000Y-126446800D01*
D62*
X190745000Y-72055000D02*
X190745000Y-73945000D01*
X206115260Y-72055000D02*
X206115260Y-73945000D01*
D59*
X106410000Y-126949000D02*
X106115000Y-127244000D01*
D60*
X183445000Y-139035000D02*
X184080000Y-138400000D01*
X160331000Y-136495000D02*
X165030000Y-136495000D01*
X137400000Y-67200000D02*
X137400000Y-63449800D01*
D61*
X86475260Y-95220000D02*
X87491260Y-95220000D01*
D59*
X96250000Y-122600000D02*
X96250000Y-126949000D01*
X113735000Y-127244000D02*
X113735000Y-134610000D01*
D60*
X152053400Y-77900000D02*
X156673400Y-82520000D01*
D59*
X88335000Y-134610000D02*
X89605000Y-135880000D01*
D60*
X183064000Y-116810000D02*
X185350000Y-116810000D01*
X147986600Y-88235000D02*
X150145600Y-88235000D01*
D61*
X87364260Y-90140000D02*
X87904260Y-90680000D01*
D59*
X141878200Y-108625800D02*
X142620000Y-109367600D01*
X142620000Y-109367600D02*
X142620000Y-113600000D01*
D60*
X126422000Y-86203000D02*
X123755000Y-88870000D01*
X133991200Y-87752400D02*
X132010000Y-89733600D01*
X143400000Y-81450000D02*
X143400000Y-87661600D01*
X177730000Y-123795000D02*
X183445000Y-123795000D01*
X142400000Y-62808200D02*
X144710000Y-60498200D01*
X157410000Y-129510000D02*
X159696000Y-129510000D01*
D59*
X111576000Y-132451000D02*
X112465000Y-133340000D01*
D61*
X100032260Y-87060000D02*
X100572260Y-87600000D01*
D60*
X160331000Y-112365000D02*
X165030000Y-112365000D01*
X92386000Y-53310000D02*
X92132000Y-53310000D01*
X191700000Y-46756800D02*
X191700000Y-51798700D01*
X159696000Y-106650000D02*
X160331000Y-107285000D01*
D59*
X138840000Y-109804000D02*
X137890400Y-108854400D01*
D60*
X150145600Y-88235000D02*
X153600000Y-91689400D01*
X183064000Y-119350000D02*
X185350000Y-119350000D01*
D59*
X97225000Y-102860000D02*
X97225000Y-103342600D01*
D60*
X158680000Y-135860000D02*
X159696000Y-135860000D01*
D59*
X118520000Y-122600000D02*
X118520000Y-126446800D01*
X89280000Y-122600000D02*
X89280000Y-126934000D01*
D61*
X187658860Y-91178860D02*
X186620000Y-90140000D01*
D60*
X124771000Y-84425000D02*
X124136000Y-85060000D01*
X190902440Y-46756800D02*
X190902440Y-48913260D01*
X127311000Y-69058000D02*
X127311000Y-70201000D01*
D59*
X103870000Y-122600000D02*
X103870000Y-126949000D01*
X137540000Y-126934000D02*
X136976000Y-127498000D01*
D61*
X87491260Y-79980000D02*
X88031260Y-79440000D01*
X97595260Y-83060000D02*
X99778260Y-83060000D01*
D59*
X95660000Y-126446800D02*
X94685000Y-127421800D01*
D61*
X120580000Y-52040000D02*
X120580000Y-54580000D01*
D59*
X133877200Y-101767800D02*
X135325000Y-100320000D01*
X140405000Y-102860000D02*
X140405000Y-103342600D01*
D60*
X134753200Y-88362000D02*
X133280000Y-89835200D01*
D59*
X126435000Y-134610000D02*
X127705000Y-135880000D01*
D60*
X133200000Y-70400000D02*
X130685000Y-70400000D01*
D61*
X193297660Y-48316360D02*
X194748000Y-49766700D01*
D60*
X100762920Y-51641220D02*
X100762920Y-54229480D01*
X135400000Y-78450000D02*
X135400000Y-84464000D01*
D63*
X106865260Y-144914280D02*
X106865260Y-139536780D01*
D59*
X114116000Y-132451000D02*
X115005000Y-133340000D01*
X109036000Y-132451000D02*
X109925000Y-133340000D01*
D60*
X130359000Y-68550000D02*
X131209000Y-69400000D01*
D59*
X135000000Y-109367600D02*
X135000000Y-113600000D01*
D60*
X157410000Y-111730000D02*
X159696000Y-111730000D01*
X159696000Y-101570000D02*
X160331000Y-102205000D01*
X99294800Y-53132200D02*
X99294800Y-56967600D01*
D61*
X204165260Y-90826780D02*
X206705260Y-90826780D01*
D60*
X157910000Y-74400000D02*
X158680000Y-73630000D01*
D64*
X186620000Y-52040000D02*
X182810000Y-52040000D01*
D60*
X120580000Y-62200000D02*
X124263000Y-62200000D01*
D59*
X136890000Y-126949000D02*
X136595000Y-127244000D01*
D60*
X133200000Y-80400000D02*
X130523200Y-80400000D01*
X153600000Y-91689400D02*
X153600000Y-95220000D01*
D63*
X87365260Y-139596780D02*
X87825260Y-139136780D01*
D60*
X133184000Y-73884000D02*
X133200000Y-73900000D01*
X150903800Y-69900000D02*
X156775000Y-64028800D01*
X183445000Y-113635000D02*
X184080000Y-113000000D01*
D59*
X126140000Y-122600000D02*
X126140000Y-126446800D01*
D63*
X110365260Y-144914280D02*
X110365260Y-139696780D01*
D60*
X189160000Y-50655700D02*
X189160000Y-51798700D01*
X133176000Y-73376000D02*
X133200000Y-73400000D01*
D59*
X115330000Y-122600000D02*
X115330000Y-126146600D01*
D60*
X148367600Y-60904600D02*
X149790000Y-59482200D01*
X141400000Y-91910000D02*
X142170000Y-92680000D01*
D59*
X141675000Y-134610000D02*
X142945000Y-135880000D01*
X137540000Y-122600000D02*
X137540000Y-126934000D01*
X131220000Y-109804000D02*
X130270400Y-108854400D01*
X107060000Y-122600000D02*
X107060000Y-126934000D01*
X93618200Y-104409400D02*
X93618200Y-108625800D01*
X88538200Y-108625800D02*
X89280000Y-109367600D01*
D60*
X154489000Y-84120200D02*
X156698800Y-86330000D01*
D59*
X103280000Y-109804000D02*
X102330400Y-108854400D01*
D60*
X98024800Y-53259200D02*
X98024800Y-54427600D01*
D59*
X85795000Y-134610000D02*
X87065000Y-135880000D01*
X115330000Y-126146600D02*
X115335200Y-126151800D01*
D60*
X147986600Y-60295000D02*
X148520000Y-59761600D01*
D63*
X172650000Y-41880000D02*
X172650000Y-45690000D01*
D59*
X103956000Y-127498000D02*
X103956000Y-132451000D01*
D60*
X159696000Y-120620000D02*
X160331000Y-121255000D01*
D63*
X186752080Y-42278780D02*
X186752080Y-46528200D01*
D61*
X204165260Y-83206780D02*
X206705260Y-83206780D01*
D59*
X105170000Y-126146600D02*
X105175200Y-126151800D01*
D60*
X192497560Y-46756800D02*
X192497560Y-48786260D01*
X157410000Y-126970000D02*
X159696000Y-126970000D01*
D61*
X86475260Y-79980000D02*
X87491260Y-79980000D01*
D60*
X185350000Y-126970000D02*
X186620000Y-128240000D01*
D59*
X89930000Y-122600000D02*
X89930000Y-126146600D01*
D60*
X120580000Y-74900000D02*
X133200000Y-74900000D01*
X120580000Y-67280000D02*
X126295000Y-67280000D01*
D59*
X138840000Y-122600000D02*
X138840000Y-126446800D01*
X127705000Y-102860000D02*
X127705000Y-103342600D01*
D60*
X150303600Y-80900000D02*
X152711000Y-83307400D01*
X124898000Y-56993000D02*
X124898000Y-55342000D01*
X183445000Y-106015000D02*
X184080000Y-105380000D01*
X147605600Y-89403400D02*
X149536000Y-89403400D01*
X136400000Y-67200000D02*
X136400000Y-64202400D01*
X142900000Y-63121000D02*
X145980000Y-60041000D01*
D62*
X206115260Y-68855000D02*
X206115260Y-66965000D01*
D60*
X185350000Y-104110000D02*
X186620000Y-105380000D01*
D59*
X93237200Y-101767800D02*
X94685000Y-100320000D01*
D60*
X159696000Y-109190000D02*
X160331000Y-109825000D01*
X146900000Y-65482200D02*
X148480400Y-63901800D01*
D59*
X142970400Y-107965400D02*
X142970400Y-108854400D01*
X94710400Y-107965400D02*
X94685000Y-107940000D01*
X134350000Y-126949000D02*
X134055000Y-127244000D01*
D60*
X143900000Y-87272600D02*
X148520000Y-91892600D01*
D59*
X104845000Y-102860000D02*
X104845000Y-103342600D01*
X112790000Y-110053400D02*
X112795200Y-110048200D01*
X116656000Y-127498000D02*
X116656000Y-132451000D01*
X119760000Y-126934000D02*
X119196000Y-127498000D01*
X96250000Y-126949000D02*
X95955000Y-127244000D01*
X128030000Y-113600000D02*
X128030000Y-110053400D01*
D60*
X154398200Y-72400000D02*
X158248200Y-68550000D01*
D61*
X88031260Y-94680000D02*
X90595260Y-94680000D01*
D60*
X157410000Y-134590000D02*
X159696000Y-134590000D01*
X182429000Y-137765000D02*
X183064000Y-137130000D01*
D59*
X98790000Y-109276400D02*
X98317200Y-108803600D01*
D60*
X128454000Y-81478600D02*
X125787000Y-84145600D01*
D59*
X119196000Y-127498000D02*
X119196000Y-132451000D01*
D60*
X123755000Y-90140000D02*
X120580000Y-90140000D01*
D61*
X189347960Y-92680000D02*
X186620000Y-92680000D01*
D60*
X123120000Y-68550000D02*
X126803000Y-68550000D01*
D61*
X187658860Y-84021140D02*
X186620000Y-85060000D01*
D59*
X109925000Y-102860000D02*
X109925000Y-103342600D01*
X140080000Y-109367600D02*
X140080000Y-113600000D01*
D60*
X129343000Y-67915000D02*
X124898000Y-63470000D01*
D59*
X123895000Y-127244000D02*
X123895000Y-134610000D01*
D60*
X158680000Y-107920000D02*
X159696000Y-107920000D01*
D59*
X92470000Y-122600000D02*
X92470000Y-126146600D01*
D61*
X172650000Y-54580000D02*
X175190000Y-54580000D01*
D59*
X96900000Y-109367600D02*
X96900000Y-113600000D01*
D60*
X183064000Y-121890000D02*
X185350000Y-121890000D01*
D59*
X128030000Y-122600000D02*
X128030000Y-126146600D01*
D60*
X141900000Y-80450000D02*
X141900000Y-89362000D01*
D59*
X136798200Y-104409400D02*
X136798200Y-108625800D01*
D63*
X123365260Y-139636780D02*
X122865260Y-139136780D01*
D59*
X131220000Y-126446800D02*
X130245000Y-127421800D01*
D60*
X160331000Y-114905000D02*
X165030000Y-114905000D01*
D61*
X100572260Y-95220000D02*
X101715260Y-95220000D01*
D60*
X97463460Y-52677540D02*
X96754800Y-53386200D01*
X137090000Y-89276400D02*
X137090000Y-92680000D01*
X138360000Y-58440800D02*
X138360000Y-54580000D01*
D59*
X93415000Y-134610000D02*
X94685000Y-135880000D01*
D61*
X161220000Y-95220000D02*
X161220000Y-97760000D01*
D60*
X130994000Y-68423000D02*
X131471000Y-68900000D01*
X177730000Y-99665000D02*
X182429000Y-99665000D01*
X133200000Y-80900000D02*
X130963000Y-80900000D01*
D59*
X131810000Y-126949000D02*
X131515000Y-127244000D01*
D60*
X156140000Y-130780000D02*
X157410000Y-129510000D01*
X143900000Y-67200000D02*
X143900000Y-63645000D01*
X156140000Y-100300000D02*
X157410000Y-99030000D01*
X185350000Y-137130000D02*
X186620000Y-138400000D01*
D59*
X112490400Y-107965400D02*
X112490400Y-108854400D01*
X90580000Y-122600000D02*
X90580000Y-126446800D01*
D60*
X140900000Y-60422000D02*
X140900000Y-54580000D01*
X158070400Y-59660000D02*
X161220000Y-59660000D01*
D63*
X97865260Y-139636780D02*
X97365260Y-139136780D01*
D59*
X130270400Y-107965400D02*
X130270400Y-108854400D01*
D60*
X146400000Y-67200000D02*
X146400000Y-65183600D01*
D61*
X99778260Y-83060000D02*
X100318260Y-82520000D01*
D60*
X145400000Y-86385000D02*
X147834200Y-88819200D01*
X156225600Y-73900000D02*
X157765600Y-72360000D01*
D62*
X204215260Y-72055000D02*
X204215260Y-73945000D01*
D59*
X106318200Y-108625800D02*
X107060000Y-109367600D01*
X88630000Y-122600000D02*
X88630000Y-126949000D01*
X113557200Y-101767800D02*
X115005000Y-100320000D01*
X133110000Y-113600000D02*
X133110000Y-110053400D01*
D60*
X160331000Y-113635000D02*
X165030000Y-113635000D01*
D59*
X126435000Y-127244000D02*
X126435000Y-134610000D01*
D60*
X141900000Y-67200000D02*
X141900000Y-62444600D01*
X135900000Y-84903800D02*
X134804000Y-85999800D01*
X127946000Y-73630000D02*
X123120000Y-73630000D01*
D59*
X132460000Y-122600000D02*
X132460000Y-126934000D01*
D60*
X146400000Y-82600000D02*
X146400000Y-85835600D01*
D61*
X118040000Y-54580000D02*
X120580000Y-54580000D01*
D59*
X114116000Y-127498000D02*
X114116000Y-132451000D01*
X100740000Y-122600000D02*
X100740000Y-126446800D01*
%TD*%
D65*
X79365260Y-39146780D02*
X209365260Y-39146780D01*
X209365260Y-149146780D01*
X79365260Y-149146780D01*
X79365260Y-39146780D01*
M02*
