M48
; DRILL file {KiCad 9.0.1} date 2025-05-07T00:22:55-0400
; FORMAT={-:-/ absolute / inch / decimal}
; #@! TF.CreationDate,2025-05-07T00:22:55-04:00
; #@! TF.GenerationSoftware,Kicad,Pcbnew,9.0.1
; #@! TF.FileFunction,Plated,1,2,PTH
FMAT,2
INCH
; #@! TA.AperFunction,Plated,PTH,ViaDrill
T1C0.0118
; #@! TA.AperFunction,Plated,PTH,ViaDrill
T2C0.0360
; #@! TA.AperFunction,Plated,PTH,ComponentDrill
T3C0.0394
; #@! TA.AperFunction,Plated,PTH,ComponentDrill
T4C0.0472
%
G90
G05
T1
X3.4408Y-4.3326
X3.4408Y-4.9666
X3.5408Y-4.3326
X3.5408Y-4.9666
X3.6408Y-4.3326
X3.6408Y-4.9666
X3.7408Y-4.3326
X3.7408Y-4.9666
X3.8408Y-4.3326
X3.8408Y-4.9666
X3.9408Y-4.3326
X3.9408Y-4.9666
X4.0408Y-4.3326
X4.0408Y-4.9666
X4.1408Y-4.3326
X4.1408Y-4.9666
X4.2408Y-4.3326
X4.2408Y-4.9666
X4.3408Y-4.3326
X4.3408Y-4.9666
X4.4408Y-4.3326
X4.4408Y-4.9666
X4.5408Y-4.3326
X4.5408Y-4.9666
X4.6408Y-4.3326
X4.6408Y-4.9666
X4.7408Y-4.3326
X4.7408Y-4.9666
X4.8408Y-4.3326
X4.8408Y-4.9666
X4.9408Y-4.3326
X4.9408Y-4.9666
X5.0408Y-4.3326
X5.0408Y-4.9666
X5.1408Y-4.3326
X5.1408Y-4.9666
X5.2408Y-4.3326
X5.2408Y-4.9666
X5.3408Y-4.3326
X5.3408Y-4.9666
X5.4408Y-4.3326
X5.4408Y-4.9666
X5.5408Y-4.3326
X5.5408Y-4.9666
X5.6408Y-4.3326
X5.6408Y-4.9666
T2
X3.3031Y-1.9606
X3.3031Y-2.0606
X3.3031Y-2.1606
X3.3031Y-2.2606
X3.3031Y-2.3606
X3.3031Y-2.4606
X3.3031Y-2.5606
X3.3031Y-2.6606
X3.3031Y-2.7606
X3.3031Y-2.8606
X3.3031Y-2.9606
X3.3031Y-3.0606
X3.3031Y-3.1606
X3.3031Y-3.2606
X3.3031Y-3.3606
X3.3031Y-3.4606
X3.3031Y-3.5606
X3.3031Y-3.6606
X3.3031Y-3.7606
X3.3031Y-3.8606
X3.3031Y-3.9606
X3.3031Y-4.0606
X3.3031Y-4.1606
X3.3031Y-4.2606
X3.3031Y-4.3606
X3.3031Y-4.4606
X3.3031Y-4.5606
X3.3031Y-4.6606
X3.3031Y-4.7606
X3.3031Y-4.8606
X3.3031Y-4.9606
X3.3031Y-5.0606
X3.3031Y-5.1606
X3.3031Y-5.2606
X3.3031Y-5.3606
X3.3031Y-5.4606
X5.9396Y-5.5294
X5.9396Y-5.8286
X6.0396Y-5.5294
X6.0396Y-5.8286
X6.1396Y-5.5294
X6.1396Y-5.8286
X6.2396Y-5.5294
X6.2396Y-5.8286
X6.3396Y-5.5294
X6.3396Y-5.8286
X6.4396Y-5.5294
X6.4396Y-5.8286
X6.5396Y-5.5294
X6.5396Y-5.8286
X6.6396Y-5.5294
X6.6396Y-5.8286
X6.7396Y-5.5294
X6.7396Y-5.8286
X6.8396Y-5.5294
X6.8396Y-5.8286
X6.9396Y-5.5294
X6.9396Y-5.8286
X7.0396Y-5.5294
X7.0396Y-5.8286
X7.1396Y-5.5294
X7.1396Y-5.8286
X7.2396Y-5.5294
X7.2396Y-5.8286
X7.3396Y-5.5294
X7.3396Y-5.8286
X7.4396Y-5.5294
X7.4396Y-5.8286
X7.5396Y-5.5294
X7.5396Y-5.8286
X7.6396Y-5.5294
X7.6396Y-5.8286
X7.7396Y-5.5294
X7.7396Y-5.8286
X7.8396Y-5.5294
X7.8396Y-5.8286
T3
X3.2008Y-1.9606
X3.2008Y-2.0606
X3.2008Y-2.1606
X3.2008Y-2.2606
X3.2008Y-2.3606
X3.2008Y-2.4606
X3.2008Y-2.5606
X3.2008Y-2.6606
X3.2008Y-2.7606
X3.2008Y-2.8606
X3.2008Y-2.9606
X3.2008Y-3.0606
X3.2008Y-3.1606
X3.2008Y-3.2606
X3.2008Y-3.3606
X3.2008Y-3.4606
X3.2008Y-3.5606
X3.2008Y-3.6606
X3.2008Y-3.7606
X3.2008Y-3.8606
X3.2008Y-3.9606
X3.2008Y-4.0606
X3.2008Y-4.1606
X3.2008Y-4.2606
X3.2008Y-4.3606
X3.2008Y-4.4606
X3.2008Y-4.5606
X3.2008Y-4.6606
X3.2008Y-4.7606
X3.2008Y-4.8606
X3.2008Y-4.9606
X3.2008Y-5.0606
X3.2008Y-5.1606
X3.2008Y-5.2606
X3.2008Y-5.3606
X3.2008Y-5.4606
X3.4045Y-2.4488
X3.4045Y-2.5488
X3.4045Y-2.6488
X3.4045Y-2.7488
X3.4045Y-2.8488
X3.4045Y-2.9488
X3.4045Y-3.1488
X3.4045Y-3.2488
X3.4045Y-3.4488
X3.4045Y-3.5488
X3.4045Y-3.7488
X3.4278Y-3.9496
X3.4278Y-4.0496
X3.4278Y-4.1496
X3.4278Y-4.2496
X3.4278Y-5.0496
X3.4278Y-5.1496
X3.4278Y-5.2496
X3.4278Y-5.3496
X3.4577Y-5.4778
X3.5278Y-3.9496
X3.5278Y-4.0496
X3.5278Y-4.1496
X3.5278Y-4.2496
X3.5278Y-5.0496
X3.5278Y-5.1496
X3.5278Y-5.2496
X3.5278Y-5.3496
X3.5577Y-5.4778
X3.5592Y-2.1428
X3.5892Y-1.6149
X3.6092Y-2.2428
X3.6278Y-3.9496
X3.6278Y-4.0496
X3.6278Y-4.1496
X3.6278Y-4.2496
X3.6278Y-5.0496
X3.6278Y-5.1496
X3.6278Y-5.2496
X3.6278Y-5.3496
X3.6592Y-2.1428
X3.7092Y-2.2428
X3.7278Y-3.9496
X3.7278Y-4.0496
X3.7278Y-4.1496
X3.7278Y-4.2496
X3.7278Y-5.0496
X3.7278Y-5.1496
X3.7278Y-5.2496
X3.7278Y-5.3496
X3.7333Y-5.4778
X3.7592Y-2.1428
X3.8092Y-2.2428
X3.8278Y-3.9496
X3.8278Y-4.0496
X3.8278Y-4.1496
X3.8278Y-4.2496
X3.8278Y-5.0496
X3.8278Y-5.1496
X3.8278Y-5.2496
X3.8278Y-5.3496
X3.8333Y-5.4778
X3.8592Y-2.1428
X3.9041Y-1.6149
X3.9092Y-2.2428
X3.9278Y-3.9496
X3.9278Y-4.0496
X3.9278Y-4.1496
X3.9278Y-4.2496
X3.9278Y-5.0496
X3.9278Y-5.1496
X3.9278Y-5.2496
X3.9278Y-5.3496
X3.9592Y-2.1428
X4.0045Y-2.4488
X4.0045Y-2.5488
X4.0045Y-2.6488
X4.0045Y-2.7488
X4.0045Y-2.8488
X4.0045Y-2.9488
X4.0045Y-3.1488
X4.0045Y-3.2488
X4.0045Y-3.4488
X4.0045Y-3.5488
X4.0045Y-3.7488
X4.0092Y-2.2428
X4.0278Y-3.9496
X4.0278Y-4.0496
X4.0278Y-4.1496
X4.0278Y-4.2496
X4.0278Y-5.0496
X4.0278Y-5.1496
X4.0278Y-5.2496
X4.0278Y-5.3496
X4.0915Y-5.4778
X4.1278Y-3.9496
X4.1278Y-4.0496
X4.1278Y-4.1496
X4.1278Y-4.2496
X4.1278Y-5.0496
X4.1278Y-5.1496
X4.1278Y-5.2496
X4.1278Y-5.3496
X4.1472Y-1.8988
X4.1472Y-2.0988
X4.1722Y-1.6988
X4.1766Y-2.2488
X4.1766Y-2.3488
X4.1766Y-2.4488
X4.1766Y-2.5488
X4.1766Y-2.6488
X4.1766Y-2.7488
X4.1766Y-2.8488
X4.1766Y-2.9488
X4.1766Y-3.0488
X4.1766Y-3.1488
X4.1766Y-3.2488
X4.1766Y-3.3488
X4.1766Y-3.4488
X4.1766Y-3.5488
X4.1766Y-3.6488
X4.1766Y-3.7488
X4.1915Y-5.4778
X4.2278Y-3.9496
X4.2278Y-4.0496
X4.2278Y-4.1496
X4.2278Y-4.2496
X4.2278Y-5.0496
X4.2278Y-5.1496
X4.2278Y-5.2496
X4.2278Y-5.3496
X4.2472Y-1.8988
X4.2472Y-2.0988
X4.2722Y-1.6238
X4.2722Y-1.7738
X4.2766Y-2.2488
X4.2766Y-2.3488
X4.2766Y-2.4488
X4.2766Y-2.5488
X4.2766Y-2.6488
X4.2766Y-2.7488
X4.2766Y-2.8488
X4.2766Y-2.9488
X4.2766Y-3.0488
X4.2766Y-3.1488
X4.2766Y-3.2488
X4.2766Y-3.3488
X4.2766Y-3.4488
X4.2766Y-3.5488
X4.2766Y-3.6488
X4.2766Y-3.7488
X4.3278Y-3.9496
X4.3278Y-4.0496
X4.3278Y-4.1496
X4.3278Y-4.2496
X4.3278Y-5.0496
X4.3278Y-5.1496
X4.3278Y-5.2496
X4.3278Y-5.3496
X4.3472Y-1.8988
X4.3472Y-2.0988
X4.3671Y-5.4778
X4.3766Y-2.2488
X4.3766Y-2.3488
X4.3766Y-2.4488
X4.3766Y-2.5488
X4.3766Y-2.6488
X4.3766Y-2.7488
X4.3766Y-2.8488
X4.3766Y-2.9488
X4.3766Y-3.0488
X4.3766Y-3.1488
X4.3766Y-3.2488
X4.3766Y-3.3488
X4.3766Y-3.4488
X4.3766Y-3.5488
X4.3766Y-3.6488
X4.3766Y-3.7488
X4.4278Y-3.9496
X4.4278Y-4.0496
X4.4278Y-4.1496
X4.4278Y-4.2496
X4.4278Y-5.0496
X4.4278Y-5.1496
X4.4278Y-5.2496
X4.4278Y-5.3496
X4.4472Y-1.8988
X4.4472Y-2.0988
X4.4671Y-5.4778
X4.4766Y-2.2488
X4.4766Y-2.3488
X4.4766Y-2.4488
X4.4766Y-2.5488
X4.4766Y-2.6488
X4.4766Y-2.7488
X4.4766Y-2.8488
X4.4766Y-2.9488
X4.4766Y-3.0488
X4.4766Y-3.1488
X4.4766Y-3.2488
X4.4766Y-3.3488
X4.4766Y-3.4488
X4.4766Y-3.5488
X4.4766Y-3.6488
X4.4766Y-3.7488
X4.5278Y-3.9496
X4.5278Y-4.0496
X4.5278Y-4.1496
X4.5278Y-4.2496
X4.5278Y-5.0496
X4.5278Y-5.1496
X4.5278Y-5.2496
X4.5278Y-5.3496
X4.5472Y-1.8988
X4.5472Y-2.0988
X4.6222Y-1.6238
X4.6222Y-1.7738
X4.6278Y-3.9496
X4.6278Y-4.0496
X4.6278Y-4.1496
X4.6278Y-4.2496
X4.6278Y-5.0496
X4.6278Y-5.1496
X4.6278Y-5.2496
X4.6278Y-5.3496
X4.6472Y-2.1488
X4.6472Y-3.7488
X4.7222Y-1.6988
X4.7278Y-3.9496
X4.7278Y-4.0496
X4.7278Y-4.1496
X4.7278Y-4.2496
X4.7278Y-5.0496
X4.7278Y-5.1496
X4.7278Y-5.2496
X4.7278Y-5.3496
X4.7372Y-5.4778
X4.7472Y-2.0488
X4.7472Y-2.1488
X4.7472Y-2.3488
X4.7472Y-2.4488
X4.7472Y-2.5488
X4.7472Y-2.6488
X4.7472Y-2.7488
X4.7472Y-2.8488
X4.7472Y-2.9488
X4.7472Y-3.0488
X4.7472Y-3.1488
X4.7472Y-3.2488
X4.7472Y-3.3488
X4.7472Y-3.4488
X4.7472Y-3.5488
X4.7472Y-3.7488
X4.7472Y-3.8488
X4.8278Y-3.9496
X4.8278Y-4.0496
X4.8278Y-4.1496
X4.8278Y-4.2496
X4.8278Y-5.0496
X4.8278Y-5.1496
X4.8278Y-5.2496
X4.8278Y-5.3496
X4.8372Y-5.4778
X4.8472Y-1.6488
X4.8472Y-1.7488
X4.8472Y-1.8488
X4.8472Y-1.9488
X4.8472Y-2.3988
X4.8472Y-2.4988
X4.8472Y-2.5988
X4.8472Y-2.6988
X4.8472Y-2.7988
X4.8472Y-2.8988
X4.8472Y-2.9988
X4.8472Y-3.0988
X4.8472Y-3.1988
X4.8472Y-3.2988
X4.8472Y-3.3988
X4.8472Y-3.4988
X4.8972Y-2.2988
X4.8972Y-3.5988
X4.9278Y-3.9496
X4.9278Y-4.0496
X4.9278Y-4.1496
X4.9278Y-4.2496
X4.9278Y-5.0496
X4.9278Y-5.1496
X4.9278Y-5.2496
X4.9278Y-5.3496
X4.9472Y-1.6488
X4.9472Y-1.7488
X4.9472Y-1.8488
X4.9472Y-1.9488
X4.9472Y-2.1488
X4.9472Y-2.3488
X4.9472Y-3.5488
X4.9472Y-3.7488
X4.9972Y-2.2488
X4.9972Y-3.6488
X5.0278Y-3.9496
X5.0278Y-4.0496
X5.0278Y-4.1496
X5.0278Y-4.2496
X5.0278Y-5.0496
X5.0278Y-5.1496
X5.0278Y-5.2496
X5.0278Y-5.3496
X5.0472Y-1.6488
X5.0472Y-1.7488
X5.0472Y-1.8488
X5.0472Y-1.9488
X5.0472Y-2.1488
X5.0472Y-3.7488
X5.0955Y-5.4778
X5.0972Y-2.2488
X5.0972Y-3.6488
X5.1278Y-3.9496
X5.1278Y-4.0496
X5.1278Y-4.1496
X5.1278Y-4.2496
X5.1278Y-5.0496
X5.1278Y-5.1496
X5.1278Y-5.2496
X5.1278Y-5.3496
X5.1472Y-1.6488
X5.1472Y-1.7488
X5.1472Y-1.8488
X5.1472Y-1.9488
X5.1472Y-2.1488
X5.1472Y-3.7488
X5.1955Y-5.4778
X5.1972Y-2.2488
X5.1972Y-3.6488
X5.2278Y-3.9496
X5.2278Y-4.0496
X5.2278Y-4.1496
X5.2278Y-4.2496
X5.2278Y-5.0496
X5.2278Y-5.1496
X5.2278Y-5.2496
X5.2278Y-5.3496
X5.2472Y-1.6488
X5.2472Y-1.7488
X5.2472Y-1.8488
X5.2472Y-1.9488
X5.2472Y-2.1488
X5.2472Y-3.7488
X5.2972Y-2.2488
X5.2972Y-3.6488
X5.3278Y-3.9496
X5.3278Y-4.0496
X5.3278Y-4.1496
X5.3278Y-4.2496
X5.3278Y-5.0496
X5.3278Y-5.1496
X5.3278Y-5.2496
X5.3278Y-5.3496
X5.3472Y-1.6488
X5.3472Y-1.7488
X5.3472Y-1.8488
X5.3472Y-1.9488
X5.3472Y-2.1488
X5.3472Y-3.7488
X5.3972Y-2.2488
X5.3972Y-3.6488
X5.4278Y-3.9496
X5.4278Y-4.0496
X5.4278Y-4.1496
X5.4278Y-4.2496
X5.4278Y-5.0496
X5.4278Y-5.1496
X5.4278Y-5.2496
X5.4278Y-5.3496
X5.4459Y-5.4778
X5.4472Y-1.6488
X5.4472Y-1.7488
X5.4472Y-1.8488
X5.4472Y-1.9488
X5.4472Y-2.1488
X5.4472Y-3.7488
X5.4972Y-2.2488
X5.4972Y-3.6488
X5.5278Y-3.9496
X5.5278Y-4.0496
X5.5278Y-4.1496
X5.5278Y-4.2496
X5.5278Y-5.0496
X5.5278Y-5.1496
X5.5278Y-5.2496
X5.5278Y-5.3496
X5.5459Y-5.4778
X5.5472Y-1.6488
X5.5472Y-1.7488
X5.5472Y-1.8488
X5.5472Y-1.9488
X5.5472Y-2.1488
X5.5472Y-3.7488
X5.5972Y-2.2488
X5.5972Y-3.6488
X5.6278Y-3.9496
X5.6278Y-4.0496
X5.6278Y-4.1496
X5.6278Y-4.2496
X5.6278Y-5.0496
X5.6278Y-5.1496
X5.6278Y-5.2496
X5.6278Y-5.3496
X5.6472Y-1.6488
X5.6472Y-1.7488
X5.6472Y-1.8488
X5.6472Y-1.9488
X5.6472Y-2.1488
X5.6472Y-3.7488
X5.6972Y-2.2488
X5.6972Y-3.6488
X5.7472Y-1.6488
X5.7472Y-1.7488
X5.7472Y-1.8488
X5.7472Y-1.9488
X5.7472Y-2.1488
X5.7472Y-3.7488
X5.7472Y-3.9488
X5.7472Y-4.0488
X5.7472Y-4.1488
X5.7472Y-4.2488
X5.7472Y-4.3488
X5.7472Y-4.4488
X5.7472Y-4.5488
X5.7472Y-4.6488
X5.7472Y-4.7488
X5.7472Y-4.8488
X5.7472Y-4.9488
X5.7472Y-5.0488
X5.7472Y-5.1488
X5.7472Y-5.2488
X5.7472Y-5.3488
X5.7472Y-5.4488
X5.7972Y-2.2488
X5.7972Y-3.6488
X5.8472Y-1.6488
X5.8472Y-1.7488
X5.8472Y-1.8488
X5.8472Y-1.9488
X5.8472Y-2.1488
X5.8472Y-3.7488
X5.8472Y-3.9488
X5.8472Y-4.0488
X5.8472Y-4.1488
X5.8472Y-4.2488
X5.8472Y-4.3488
X5.8472Y-4.4488
X5.8472Y-4.5488
X5.8472Y-4.6488
X5.8472Y-4.7488
X5.8472Y-4.8488
X5.8472Y-4.9488
X5.8472Y-5.0488
X5.8472Y-5.1488
X5.8472Y-5.2488
X5.8472Y-5.3488
X5.8472Y-5.4488
X5.8972Y-2.2488
X5.8972Y-3.6488
X5.9396Y-5.6302
X5.9396Y-5.7302
X5.9472Y-1.6488
X5.9472Y-1.7488
X5.9472Y-1.8488
X5.9472Y-1.9488
X5.9472Y-2.1488
X5.9472Y-3.7488
X5.9472Y-3.9488
X5.9472Y-4.0488
X5.9472Y-4.1488
X5.9472Y-4.2488
X5.9472Y-4.3488
X5.9472Y-4.4488
X5.9472Y-4.5488
X5.9472Y-4.6488
X5.9472Y-4.7488
X5.9472Y-4.8488
X5.9472Y-4.9488
X5.9472Y-5.0488
X5.9472Y-5.1488
X5.9472Y-5.2488
X5.9472Y-5.3488
X5.9472Y-5.4488
X5.9972Y-2.2488
X5.9972Y-3.6488
X6.0396Y-5.6302
X6.0396Y-5.7302
X6.0472Y-1.6488
X6.0472Y-1.7488
X6.0472Y-1.8488
X6.0472Y-1.9488
X6.0472Y-2.1488
X6.0472Y-3.7488
X6.0472Y-3.9488
X6.0472Y-4.0488
X6.0472Y-4.1488
X6.0472Y-4.2488
X6.0472Y-4.3488
X6.0472Y-4.4488
X6.0472Y-4.5488
X6.0472Y-4.6488
X6.0472Y-4.7488
X6.0472Y-4.8488
X6.0472Y-4.9488
X6.0472Y-5.0488
X6.0472Y-5.1488
X6.0472Y-5.2488
X6.0472Y-5.3488
X6.0472Y-5.4488
X6.0972Y-2.2488
X6.0972Y-3.6488
X6.1396Y-5.6302
X6.1396Y-5.7302
X6.1472Y-1.6488
X6.1472Y-1.7488
X6.1472Y-1.8488
X6.1472Y-1.9488
X6.1472Y-2.1488
X6.1472Y-2.3488
X6.1472Y-3.5488
X6.1472Y-3.7488
X6.1472Y-3.9488
X6.1472Y-4.0488
X6.1472Y-4.1488
X6.1472Y-4.2488
X6.1472Y-4.3488
X6.1472Y-4.4488
X6.1472Y-4.5488
X6.1472Y-4.6488
X6.1472Y-4.7488
X6.1472Y-4.8488
X6.1472Y-4.9488
X6.1472Y-5.0488
X6.1472Y-5.1488
X6.1472Y-5.2488
X6.1472Y-5.3488
X6.1472Y-5.4488
X6.1972Y-2.2988
X6.1972Y-3.5988
X6.2396Y-5.6302
X6.2396Y-5.7302
X6.2472Y-1.6488
X6.2472Y-1.7488
X6.2472Y-1.8488
X6.2472Y-1.9488
X6.2472Y-2.3988
X6.2472Y-2.4988
X6.2472Y-2.5988
X6.2472Y-2.6988
X6.2472Y-2.7988
X6.2472Y-2.8988
X6.2472Y-2.9988
X6.2472Y-3.0988
X6.2472Y-3.1988
X6.2472Y-3.2988
X6.2472Y-3.3988
X6.2472Y-3.4988
X6.2472Y-3.9488
X6.2472Y-4.0488
X6.2472Y-4.1488
X6.2472Y-4.2488
X6.2472Y-4.3488
X6.2472Y-4.4488
X6.2472Y-4.5488
X6.2472Y-4.6488
X6.2472Y-4.7488
X6.2472Y-4.8488
X6.2472Y-4.9488
X6.2472Y-5.0488
X6.2472Y-5.1488
X6.2472Y-5.2488
X6.2472Y-5.3488
X6.2472Y-5.4488
X6.3396Y-5.6302
X6.3396Y-5.7302
X6.3472Y-1.6488
X6.3472Y-1.7488
X6.3472Y-1.8488
X6.3472Y-1.9488
X6.3472Y-2.0488
X6.3472Y-2.1488
X6.3472Y-2.3488
X6.3472Y-2.4488
X6.3472Y-2.5488
X6.3472Y-2.6488
X6.3472Y-2.7488
X6.3472Y-2.8488
X6.3472Y-2.9488
X6.3472Y-3.0488
X6.3472Y-3.1488
X6.3472Y-3.2488
X6.3472Y-3.3488
X6.3472Y-3.4488
X6.3472Y-3.5488
X6.3472Y-3.7488
X6.3472Y-3.8488
X6.4396Y-5.6302
X6.4396Y-5.7302
X6.4472Y-2.1488
X6.4472Y-3.7488
X6.5396Y-5.6302
X6.5396Y-5.7302
X6.5472Y-2.1488
X6.5472Y-2.2488
X6.5472Y-2.3488
X6.5472Y-2.4488
X6.5472Y-2.5488
X6.5472Y-2.6488
X6.5472Y-2.7488
X6.5472Y-2.8488
X6.5472Y-2.9488
X6.5472Y-3.0488
X6.5472Y-3.1488
X6.5472Y-3.2488
X6.5472Y-3.3488
X6.5472Y-3.4488
X6.5472Y-3.5488
X6.5472Y-3.6488
X6.5472Y-3.7488
X6.6396Y-5.6302
X6.6396Y-5.7302
X6.6472Y-2.2488
X6.6472Y-2.3488
X6.6472Y-2.4488
X6.6472Y-2.5488
X6.6472Y-2.6488
X6.6472Y-2.7488
X6.6472Y-2.8488
X6.6472Y-2.9488
X6.6472Y-3.0488
X6.6472Y-3.1488
X6.6472Y-3.2488
X6.6472Y-3.3488
X6.6472Y-3.4488
X6.6472Y-3.5488
X6.6472Y-3.6488
X6.6472Y-3.7488
X6.6972Y-1.6488
X6.6972Y-1.7988
X6.6972Y-1.8988
X6.6972Y-2.0488
X6.7396Y-5.6302
X6.7396Y-5.7302
X6.7472Y-2.2488
X6.7472Y-2.3488
X6.7472Y-2.4488
X6.7472Y-2.5488
X6.7472Y-2.6488
X6.7472Y-2.7488
X6.7472Y-2.8488
X6.7472Y-2.9488
X6.7472Y-3.0488
X6.7472Y-3.1488
X6.7472Y-3.2488
X6.7472Y-3.3488
X6.7472Y-3.4488
X6.7472Y-3.5488
X6.7472Y-3.6488
X6.7472Y-3.7488
X6.7972Y-1.6488
X6.7972Y-1.7988
X6.7972Y-1.8988
X6.7972Y-2.0488
X6.8396Y-5.6302
X6.8396Y-5.7302
X6.8472Y-2.2488
X6.8472Y-2.3488
X6.8472Y-2.4488
X6.8472Y-2.5488
X6.8472Y-2.6488
X6.8472Y-2.7488
X6.8472Y-2.8488
X6.8472Y-2.9488
X6.8472Y-3.0488
X6.8472Y-3.1488
X6.8472Y-3.2488
X6.8472Y-3.3488
X6.8472Y-3.4488
X6.8472Y-3.5488
X6.8472Y-3.6488
X6.8472Y-3.7488
X6.8972Y-1.6488
X6.8972Y-1.7988
X6.8972Y-1.8988
X6.8972Y-2.0488
X6.9396Y-5.6302
X6.9396Y-5.7302
X6.9472Y-2.2488
X6.9472Y-2.3488
X6.9472Y-2.4488
X6.9472Y-2.5488
X6.9472Y-2.6488
X6.9472Y-2.7488
X6.9472Y-2.8488
X6.9472Y-2.9488
X6.9472Y-3.0488
X6.9472Y-3.1488
X6.9472Y-3.2488
X6.9472Y-3.3488
X6.9472Y-3.4488
X6.9472Y-3.5488
X6.9472Y-3.6488
X6.9472Y-3.7488
X6.9972Y-1.6488
X6.9972Y-1.7988
X6.9972Y-1.8988
X6.9972Y-2.0488
X7.0396Y-5.6302
X7.0396Y-5.7302
X7.0472Y-2.2488
X7.0472Y-2.3488
X7.0472Y-2.4488
X7.0472Y-2.5488
X7.0472Y-2.6488
X7.0472Y-2.7488
X7.0472Y-2.8488
X7.0472Y-2.9488
X7.0472Y-3.0488
X7.0472Y-3.1488
X7.0472Y-3.2488
X7.0472Y-3.3488
X7.0472Y-3.4488
X7.0472Y-3.5488
X7.0472Y-3.6488
X7.0472Y-3.7488
X7.0972Y-1.6488
X7.0972Y-1.7988
X7.0972Y-1.8988
X7.0972Y-2.0488
X7.1396Y-5.6302
X7.1396Y-5.7302
X7.1472Y-2.1488
X7.1472Y-2.2488
X7.1472Y-2.3488
X7.1472Y-2.4488
X7.1472Y-2.5488
X7.1472Y-2.6488
X7.1472Y-2.7488
X7.1472Y-2.8488
X7.1472Y-2.9488
X7.1472Y-3.0488
X7.1472Y-3.1488
X7.1472Y-3.2488
X7.1472Y-3.3488
X7.1472Y-3.4488
X7.1472Y-3.5488
X7.1472Y-3.6488
X7.1472Y-3.7488
X7.2396Y-5.6302
X7.2396Y-5.7302
X7.2472Y-2.2488
X7.2472Y-2.3488
X7.2472Y-2.4488
X7.2472Y-2.5488
X7.2472Y-2.6488
X7.2472Y-2.7488
X7.2472Y-2.8488
X7.2472Y-2.9488
X7.2472Y-3.0488
X7.2472Y-3.1488
X7.2472Y-3.2488
X7.2472Y-3.3488
X7.2472Y-3.4488
X7.2472Y-3.5488
X7.2472Y-3.6488
X7.2472Y-3.7488
X7.2472Y-3.9488
X7.2472Y-4.0488
X7.2472Y-4.1488
X7.2472Y-4.2488
X7.2472Y-4.3488
X7.2472Y-4.4488
X7.2472Y-4.5488
X7.2472Y-4.6488
X7.2472Y-4.7488
X7.2472Y-4.8488
X7.2472Y-4.9488
X7.2472Y-5.0488
X7.2472Y-5.1488
X7.2472Y-5.2488
X7.2472Y-5.3488
X7.2472Y-5.4488
X7.3396Y-5.6302
X7.3396Y-5.7302
X7.3472Y-2.0488
X7.3472Y-2.1488
X7.3472Y-2.2488
X7.3472Y-2.3488
X7.3472Y-3.1488
X7.3472Y-3.2488
X7.3472Y-3.3488
X7.3472Y-3.5488
X7.3472Y-3.6488
X7.3472Y-3.7488
X7.3472Y-3.9488
X7.3472Y-4.0488
X7.3472Y-4.1488
X7.3472Y-4.2488
X7.3472Y-4.3488
X7.3472Y-4.4488
X7.3472Y-4.5488
X7.3472Y-4.6488
X7.3472Y-4.7488
X7.3472Y-4.8488
X7.3472Y-4.9488
X7.3472Y-5.0488
X7.3472Y-5.1488
X7.3472Y-5.2488
X7.3472Y-5.3488
X7.3472Y-5.4488
X7.3972Y-2.5988
X7.3972Y-2.9488
X7.4396Y-5.6302
X7.4396Y-5.7302
X7.4472Y-2.0488
X7.4472Y-2.1488
X7.4472Y-2.2488
X7.4472Y-2.3488
X7.4722Y-2.4988
X7.4722Y-3.0488
X7.4722Y-3.9488
X7.4722Y-4.0488
X7.4722Y-4.1488
X7.4722Y-4.2488
X7.4722Y-4.3488
X7.4722Y-4.4488
X7.4722Y-4.5488
X7.4722Y-4.6488
X7.4722Y-4.7488
X7.4722Y-4.8488
X7.4722Y-4.9488
X7.4722Y-5.0488
X7.4722Y-5.1488
X7.4722Y-5.2488
X7.4722Y-5.3488
X7.4722Y-5.4488
X7.5396Y-5.6302
X7.5396Y-5.7302
X7.5472Y-2.0488
X7.5472Y-2.1488
X7.5472Y-2.2488
X7.5472Y-2.3488
X7.5472Y-2.5988
X7.5472Y-2.9488
X7.5722Y-3.9488
X7.5722Y-4.0488
X7.5722Y-4.1488
X7.5722Y-4.2488
X7.5722Y-4.3488
X7.5722Y-4.4488
X7.5722Y-4.5488
X7.5722Y-4.6488
X7.5722Y-4.7488
X7.5722Y-4.8488
X7.5722Y-4.9488
X7.5722Y-5.0488
X7.5722Y-5.1488
X7.5722Y-5.2488
X7.5722Y-5.3488
X7.5722Y-5.4488
X7.6396Y-5.6302
X7.6396Y-5.7302
X7.6472Y-2.0488
X7.6472Y-2.1488
X7.6472Y-2.2488
X7.6472Y-2.3488
X7.6722Y-3.9488
X7.6722Y-4.0488
X7.6722Y-4.1488
X7.6722Y-4.2488
X7.6722Y-4.3488
X7.6722Y-4.4488
X7.6722Y-4.5488
X7.6722Y-4.6488
X7.6722Y-4.7488
X7.6722Y-4.8488
X7.6722Y-4.9488
X7.6722Y-5.0488
X7.6722Y-5.1488
X7.6722Y-5.2488
X7.6722Y-5.3488
X7.6722Y-5.4488
X7.7032Y-2.5988
X7.7032Y-2.9488
X7.7396Y-5.6302
X7.7396Y-5.7302
X7.7472Y-2.0488
X7.7472Y-2.1488
X7.7472Y-2.2488
X7.7472Y-2.3488
X7.7722Y-3.9488
X7.7722Y-4.0488
X7.7722Y-4.1488
X7.7722Y-4.2488
X7.7722Y-4.3488
X7.7722Y-4.4488
X7.7722Y-4.5488
X7.7722Y-4.6488
X7.7722Y-4.7488
X7.7722Y-4.8488
X7.7722Y-4.9488
X7.7722Y-5.0488
X7.7722Y-5.1488
X7.7722Y-5.2488
X7.7722Y-5.3488
X7.7722Y-5.4488
X7.7782Y-2.4988
X7.7782Y-3.0488
X7.838Y-3.2759
X7.838Y-3.3759
X7.838Y-3.4759
X7.838Y-3.5759
X7.838Y-3.6759
X7.8396Y-5.6302
X7.8396Y-5.7302
X7.8472Y-2.0488
X7.8472Y-2.1488
X7.8472Y-2.2488
X7.8472Y-2.3488
X7.849Y-1.9467
X7.8532Y-2.5988
X7.8532Y-2.9488
X7.8722Y-3.9488
X7.8722Y-4.0488
X7.8722Y-4.1488
X7.8722Y-4.2488
X7.8722Y-4.3488
X7.8722Y-4.4488
X7.8722Y-4.5488
X7.8722Y-4.6488
X7.8722Y-4.7488
X7.8722Y-4.8488
X7.8722Y-4.9488
X7.8722Y-5.0488
X7.8722Y-5.1488
X7.8722Y-5.2488
X7.8722Y-5.3488
X7.8722Y-5.4488
X7.938Y-3.2759
X7.938Y-3.3759
X7.938Y-3.4759
X7.938Y-3.5759
X7.938Y-3.6759
X7.9472Y-2.0488
X7.9472Y-2.1488
X7.9472Y-2.2488
X7.9472Y-2.3488
X7.949Y-1.9467
X7.9722Y-3.9488
X7.9722Y-4.0488
X7.9722Y-4.1488
X7.9722Y-4.2488
X7.9722Y-4.3488
X7.9722Y-4.4488
X7.9722Y-4.5488
X7.9722Y-4.6488
X7.9722Y-4.7488
X7.9722Y-4.8488
X7.9722Y-4.9488
X7.9722Y-5.0488
X7.9722Y-5.1488
X7.9722Y-5.2488
X7.9722Y-5.3488
X7.9722Y-5.4488
X8.0024Y-2.5988
X8.0024Y-2.9488
X8.038Y-3.2759
X8.038Y-3.3759
X8.038Y-3.4759
X8.038Y-3.5759
X8.038Y-3.6759
X8.0472Y-2.0488
X8.0472Y-2.1488
X8.0472Y-2.2488
X8.0472Y-2.3488
X8.049Y-1.9467
X8.0722Y-3.9488
X8.0722Y-4.0488
X8.0722Y-4.1488
X8.0722Y-4.2488
X8.0722Y-4.3488
X8.0722Y-4.4488
X8.0722Y-4.5488
X8.0722Y-4.6488
X8.0722Y-4.7488
X8.0722Y-4.8488
X8.0722Y-4.9488
X8.0722Y-5.0488
X8.0722Y-5.1488
X8.0722Y-5.2488
X8.0722Y-5.3488
X8.0722Y-5.4488
X8.0774Y-2.4988
X8.0774Y-3.0488
X8.138Y-3.2759
X8.138Y-3.3759
X8.138Y-3.4759
X8.138Y-3.5759
X8.138Y-3.6759
X8.1472Y-2.0488
X8.1472Y-2.1488
X8.1472Y-2.2488
X8.1472Y-2.3488
X8.1524Y-2.5988
X8.1524Y-2.9488
X8.1722Y-3.9488
X8.1722Y-4.0488
X8.1722Y-4.1488
X8.1722Y-4.2488
X8.1722Y-4.3488
X8.1722Y-4.4488
X8.1722Y-4.5488
X8.1722Y-4.6488
X8.1722Y-4.7488
X8.1722Y-4.8488
X8.1722Y-4.9488
X8.1722Y-5.0488
X8.1722Y-5.1488
X8.1722Y-5.2488
X8.1722Y-5.3488
X8.1722Y-5.4488
T4
X3.4396Y-5.7053
X3.5774Y-5.7053
X3.7152Y-5.7053
X3.853Y-5.7053
X4.0695Y-5.7053
X4.2073Y-5.7053
X4.3451Y-5.7053
X4.4829Y-5.7053
X4.7191Y-5.7053
X4.8569Y-5.7053
X5.0734Y-5.7053
X5.2112Y-5.7053
X5.4278Y-5.7053
X5.5656Y-5.7053
M30
