G04 #@! TF.GenerationSoftware,KiCad,Pcbnew,9.0.1*
G04 #@! TF.CreationDate,2025-05-07T17:07:09-04:00*
G04 #@! TF.ProjectId,matrix-protoboard_10x24,6d617472-6978-42d7-9072-6f746f626f61,rev?*
G04 #@! TF.SameCoordinates,Original*
G04 #@! TF.FileFunction,Legend,Top*
G04 #@! TF.FilePolarity,Positive*
%FSLAX46Y46*%
G04 Gerber Fmt 4.6, Leading zero omitted, Abs format (unit mm)*
G04 Created by KiCad (PCBNEW 9.0.1) date 2025-05-07 17:07:09*
%MOMM*%
%LPD*%
G01*
G04 APERTURE LIST*
%ADD10C,0.127000*%
%ADD11C,0.150000*%
G04 APERTURE END LIST*
D10*
X170150406Y-70166095D02*
X170150406Y-70117714D01*
X170150406Y-70117714D02*
X170174596Y-70069333D01*
X170174596Y-70069333D02*
X170198787Y-70045143D01*
X170198787Y-70045143D02*
X170247168Y-70020952D01*
X170247168Y-70020952D02*
X170343930Y-69996762D01*
X170343930Y-69996762D02*
X170464882Y-69996762D01*
X170464882Y-69996762D02*
X170561644Y-70020952D01*
X170561644Y-70020952D02*
X170610025Y-70045143D01*
X170610025Y-70045143D02*
X170634216Y-70069333D01*
X170634216Y-70069333D02*
X170658406Y-70117714D01*
X170658406Y-70117714D02*
X170658406Y-70166095D01*
X170658406Y-70166095D02*
X170634216Y-70214476D01*
X170634216Y-70214476D02*
X170610025Y-70238667D01*
X170610025Y-70238667D02*
X170561644Y-70262857D01*
X170561644Y-70262857D02*
X170464882Y-70287048D01*
X170464882Y-70287048D02*
X170343930Y-70287048D01*
X170343930Y-70287048D02*
X170247168Y-70262857D01*
X170247168Y-70262857D02*
X170198787Y-70238667D01*
X170198787Y-70238667D02*
X170174596Y-70214476D01*
X170174596Y-70214476D02*
X170150406Y-70166095D01*
X170198787Y-69803238D02*
X170174596Y-69779047D01*
X170174596Y-69779047D02*
X170150406Y-69730666D01*
X170150406Y-69730666D02*
X170150406Y-69609714D01*
X170150406Y-69609714D02*
X170174596Y-69561333D01*
X170174596Y-69561333D02*
X170198787Y-69537142D01*
X170198787Y-69537142D02*
X170247168Y-69512952D01*
X170247168Y-69512952D02*
X170295549Y-69512952D01*
X170295549Y-69512952D02*
X170368120Y-69537142D01*
X170368120Y-69537142D02*
X170658406Y-69827428D01*
X170658406Y-69827428D02*
X170658406Y-69512952D01*
X109749593Y-72173904D02*
X109749593Y-72222285D01*
X109749593Y-72222285D02*
X109725403Y-72270666D01*
X109725403Y-72270666D02*
X109701212Y-72294856D01*
X109701212Y-72294856D02*
X109652831Y-72319047D01*
X109652831Y-72319047D02*
X109556069Y-72343237D01*
X109556069Y-72343237D02*
X109435117Y-72343237D01*
X109435117Y-72343237D02*
X109338355Y-72319047D01*
X109338355Y-72319047D02*
X109289974Y-72294856D01*
X109289974Y-72294856D02*
X109265784Y-72270666D01*
X109265784Y-72270666D02*
X109241593Y-72222285D01*
X109241593Y-72222285D02*
X109241593Y-72173904D01*
X109241593Y-72173904D02*
X109265784Y-72125523D01*
X109265784Y-72125523D02*
X109289974Y-72101332D01*
X109289974Y-72101332D02*
X109338355Y-72077142D01*
X109338355Y-72077142D02*
X109435117Y-72052951D01*
X109435117Y-72052951D02*
X109556069Y-72052951D01*
X109556069Y-72052951D02*
X109652831Y-72077142D01*
X109652831Y-72077142D02*
X109701212Y-72101332D01*
X109701212Y-72101332D02*
X109725403Y-72125523D01*
X109725403Y-72125523D02*
X109749593Y-72173904D01*
X109749593Y-72512571D02*
X109749593Y-72827047D01*
X109749593Y-72827047D02*
X109556069Y-72657714D01*
X109556069Y-72657714D02*
X109556069Y-72730285D01*
X109556069Y-72730285D02*
X109531879Y-72778666D01*
X109531879Y-72778666D02*
X109507688Y-72802857D01*
X109507688Y-72802857D02*
X109459307Y-72827047D01*
X109459307Y-72827047D02*
X109338355Y-72827047D01*
X109338355Y-72827047D02*
X109289974Y-72802857D01*
X109289974Y-72802857D02*
X109265784Y-72778666D01*
X109265784Y-72778666D02*
X109241593Y-72730285D01*
X109241593Y-72730285D02*
X109241593Y-72585142D01*
X109241593Y-72585142D02*
X109265784Y-72536761D01*
X109265784Y-72536761D02*
X109289974Y-72512571D01*
D11*
X135878095Y-63242819D02*
X135878095Y-62242819D01*
X136449523Y-63242819D02*
X136020952Y-62671390D01*
X136449523Y-62242819D02*
X135878095Y-62814247D01*
X158714286Y-89166819D02*
X159285714Y-89166819D01*
X159000000Y-90166819D02*
X159000000Y-89166819D01*
X118098095Y-90166819D02*
X118098095Y-89166819D01*
X118098095Y-89166819D02*
X118336190Y-89166819D01*
X118336190Y-89166819D02*
X118479047Y-89214438D01*
X118479047Y-89214438D02*
X118574285Y-89309676D01*
X118574285Y-89309676D02*
X118621904Y-89404914D01*
X118621904Y-89404914D02*
X118669523Y-89595390D01*
X118669523Y-89595390D02*
X118669523Y-89738247D01*
X118669523Y-89738247D02*
X118621904Y-89928723D01*
X118621904Y-89928723D02*
X118574285Y-90023961D01*
X118574285Y-90023961D02*
X118479047Y-90119200D01*
X118479047Y-90119200D02*
X118336190Y-90166819D01*
X118336190Y-90166819D02*
X118098095Y-90166819D01*
D10*
X170150406Y-75246095D02*
X170150406Y-75197714D01*
X170150406Y-75197714D02*
X170174596Y-75149333D01*
X170174596Y-75149333D02*
X170198787Y-75125143D01*
X170198787Y-75125143D02*
X170247168Y-75100952D01*
X170247168Y-75100952D02*
X170343930Y-75076762D01*
X170343930Y-75076762D02*
X170464882Y-75076762D01*
X170464882Y-75076762D02*
X170561644Y-75100952D01*
X170561644Y-75100952D02*
X170610025Y-75125143D01*
X170610025Y-75125143D02*
X170634216Y-75149333D01*
X170634216Y-75149333D02*
X170658406Y-75197714D01*
X170658406Y-75197714D02*
X170658406Y-75246095D01*
X170658406Y-75246095D02*
X170634216Y-75294476D01*
X170634216Y-75294476D02*
X170610025Y-75318667D01*
X170610025Y-75318667D02*
X170561644Y-75342857D01*
X170561644Y-75342857D02*
X170464882Y-75367048D01*
X170464882Y-75367048D02*
X170343930Y-75367048D01*
X170343930Y-75367048D02*
X170247168Y-75342857D01*
X170247168Y-75342857D02*
X170198787Y-75318667D01*
X170198787Y-75318667D02*
X170174596Y-75294476D01*
X170174596Y-75294476D02*
X170150406Y-75246095D01*
X170319739Y-74641333D02*
X170658406Y-74641333D01*
X170126216Y-74762285D02*
X170489073Y-74883238D01*
X170489073Y-74883238D02*
X170489073Y-74568761D01*
D11*
X146204762Y-62242819D02*
X146395238Y-62242819D01*
X146395238Y-62242819D02*
X146490476Y-62290438D01*
X146490476Y-62290438D02*
X146585714Y-62385676D01*
X146585714Y-62385676D02*
X146633333Y-62576152D01*
X146633333Y-62576152D02*
X146633333Y-62909485D01*
X146633333Y-62909485D02*
X146585714Y-63099961D01*
X146585714Y-63099961D02*
X146490476Y-63195200D01*
X146490476Y-63195200D02*
X146395238Y-63242819D01*
X146395238Y-63242819D02*
X146204762Y-63242819D01*
X146204762Y-63242819D02*
X146109524Y-63195200D01*
X146109524Y-63195200D02*
X146014286Y-63099961D01*
X146014286Y-63099961D02*
X145966667Y-62909485D01*
X145966667Y-62909485D02*
X145966667Y-62576152D01*
X145966667Y-62576152D02*
X146014286Y-62385676D01*
X146014286Y-62385676D02*
X146109524Y-62290438D01*
X146109524Y-62290438D02*
X146204762Y-62242819D01*
X161254286Y-62242819D02*
X161254286Y-63052342D01*
X161254286Y-63052342D02*
X161301905Y-63147580D01*
X161301905Y-63147580D02*
X161349524Y-63195200D01*
X161349524Y-63195200D02*
X161444762Y-63242819D01*
X161444762Y-63242819D02*
X161635238Y-63242819D01*
X161635238Y-63242819D02*
X161730476Y-63195200D01*
X161730476Y-63195200D02*
X161778095Y-63147580D01*
X161778095Y-63147580D02*
X161825714Y-63052342D01*
X161825714Y-63052342D02*
X161825714Y-62242819D01*
X156174286Y-63195200D02*
X156317143Y-63242819D01*
X156317143Y-63242819D02*
X156555238Y-63242819D01*
X156555238Y-63242819D02*
X156650476Y-63195200D01*
X156650476Y-63195200D02*
X156698095Y-63147580D01*
X156698095Y-63147580D02*
X156745714Y-63052342D01*
X156745714Y-63052342D02*
X156745714Y-62957104D01*
X156745714Y-62957104D02*
X156698095Y-62861866D01*
X156698095Y-62861866D02*
X156650476Y-62814247D01*
X156650476Y-62814247D02*
X156555238Y-62766628D01*
X156555238Y-62766628D02*
X156364762Y-62719009D01*
X156364762Y-62719009D02*
X156269524Y-62671390D01*
X156269524Y-62671390D02*
X156221905Y-62623771D01*
X156221905Y-62623771D02*
X156174286Y-62528533D01*
X156174286Y-62528533D02*
X156174286Y-62433295D01*
X156174286Y-62433295D02*
X156221905Y-62338057D01*
X156221905Y-62338057D02*
X156269524Y-62290438D01*
X156269524Y-62290438D02*
X156364762Y-62242819D01*
X156364762Y-62242819D02*
X156602857Y-62242819D01*
X156602857Y-62242819D02*
X156745714Y-62290438D01*
X148578095Y-63242819D02*
X148578095Y-62242819D01*
X148578095Y-62242819D02*
X148959047Y-62242819D01*
X148959047Y-62242819D02*
X149054285Y-62290438D01*
X149054285Y-62290438D02*
X149101904Y-62338057D01*
X149101904Y-62338057D02*
X149149523Y-62433295D01*
X149149523Y-62433295D02*
X149149523Y-62576152D01*
X149149523Y-62576152D02*
X149101904Y-62671390D01*
X149101904Y-62671390D02*
X149054285Y-62719009D01*
X149054285Y-62719009D02*
X148959047Y-62766628D01*
X148959047Y-62766628D02*
X148578095Y-62766628D01*
D10*
X170150406Y-72706095D02*
X170150406Y-72657714D01*
X170150406Y-72657714D02*
X170174596Y-72609333D01*
X170174596Y-72609333D02*
X170198787Y-72585143D01*
X170198787Y-72585143D02*
X170247168Y-72560952D01*
X170247168Y-72560952D02*
X170343930Y-72536762D01*
X170343930Y-72536762D02*
X170464882Y-72536762D01*
X170464882Y-72536762D02*
X170561644Y-72560952D01*
X170561644Y-72560952D02*
X170610025Y-72585143D01*
X170610025Y-72585143D02*
X170634216Y-72609333D01*
X170634216Y-72609333D02*
X170658406Y-72657714D01*
X170658406Y-72657714D02*
X170658406Y-72706095D01*
X170658406Y-72706095D02*
X170634216Y-72754476D01*
X170634216Y-72754476D02*
X170610025Y-72778667D01*
X170610025Y-72778667D02*
X170561644Y-72802857D01*
X170561644Y-72802857D02*
X170464882Y-72827048D01*
X170464882Y-72827048D02*
X170343930Y-72827048D01*
X170343930Y-72827048D02*
X170247168Y-72802857D01*
X170247168Y-72802857D02*
X170198787Y-72778667D01*
X170198787Y-72778667D02*
X170174596Y-72754476D01*
X170174596Y-72754476D02*
X170150406Y-72706095D01*
X170150406Y-72367428D02*
X170150406Y-72052952D01*
X170150406Y-72052952D02*
X170343930Y-72222285D01*
X170343930Y-72222285D02*
X170343930Y-72149714D01*
X170343930Y-72149714D02*
X170368120Y-72101333D01*
X170368120Y-72101333D02*
X170392311Y-72077142D01*
X170392311Y-72077142D02*
X170440692Y-72052952D01*
X170440692Y-72052952D02*
X170561644Y-72052952D01*
X170561644Y-72052952D02*
X170610025Y-72077142D01*
X170610025Y-72077142D02*
X170634216Y-72101333D01*
X170634216Y-72101333D02*
X170658406Y-72149714D01*
X170658406Y-72149714D02*
X170658406Y-72294857D01*
X170658406Y-72294857D02*
X170634216Y-72343238D01*
X170634216Y-72343238D02*
X170610025Y-72367428D01*
D11*
X120685714Y-62719009D02*
X121019047Y-62719009D01*
X121161904Y-63242819D02*
X120685714Y-63242819D01*
X120685714Y-63242819D02*
X120685714Y-62242819D01*
X120685714Y-62242819D02*
X121161904Y-62242819D01*
X131060000Y-90166819D02*
X131060000Y-89166819D01*
X146204762Y-89166819D02*
X146395238Y-89166819D01*
X146395238Y-89166819D02*
X146490476Y-89214438D01*
X146490476Y-89214438D02*
X146585714Y-89309676D01*
X146585714Y-89309676D02*
X146633333Y-89500152D01*
X146633333Y-89500152D02*
X146633333Y-89833485D01*
X146633333Y-89833485D02*
X146585714Y-90023961D01*
X146585714Y-90023961D02*
X146490476Y-90119200D01*
X146490476Y-90119200D02*
X146395238Y-90166819D01*
X146395238Y-90166819D02*
X146204762Y-90166819D01*
X146204762Y-90166819D02*
X146109524Y-90119200D01*
X146109524Y-90119200D02*
X146014286Y-90023961D01*
X146014286Y-90023961D02*
X145966667Y-89833485D01*
X145966667Y-89833485D02*
X145966667Y-89500152D01*
X145966667Y-89500152D02*
X146014286Y-89309676D01*
X146014286Y-89309676D02*
X146109524Y-89214438D01*
X146109524Y-89214438D02*
X146204762Y-89166819D01*
X116129523Y-63147580D02*
X116081904Y-63195200D01*
X116081904Y-63195200D02*
X115939047Y-63242819D01*
X115939047Y-63242819D02*
X115843809Y-63242819D01*
X115843809Y-63242819D02*
X115700952Y-63195200D01*
X115700952Y-63195200D02*
X115605714Y-63099961D01*
X115605714Y-63099961D02*
X115558095Y-63004723D01*
X115558095Y-63004723D02*
X115510476Y-62814247D01*
X115510476Y-62814247D02*
X115510476Y-62671390D01*
X115510476Y-62671390D02*
X115558095Y-62480914D01*
X115558095Y-62480914D02*
X115605714Y-62385676D01*
X115605714Y-62385676D02*
X115700952Y-62290438D01*
X115700952Y-62290438D02*
X115843809Y-62242819D01*
X115843809Y-62242819D02*
X115939047Y-62242819D01*
X115939047Y-62242819D02*
X116081904Y-62290438D01*
X116081904Y-62290438D02*
X116129523Y-62338057D01*
X116129523Y-90071580D02*
X116081904Y-90119200D01*
X116081904Y-90119200D02*
X115939047Y-90166819D01*
X115939047Y-90166819D02*
X115843809Y-90166819D01*
X115843809Y-90166819D02*
X115700952Y-90119200D01*
X115700952Y-90119200D02*
X115605714Y-90023961D01*
X115605714Y-90023961D02*
X115558095Y-89928723D01*
X115558095Y-89928723D02*
X115510476Y-89738247D01*
X115510476Y-89738247D02*
X115510476Y-89595390D01*
X115510476Y-89595390D02*
X115558095Y-89404914D01*
X115558095Y-89404914D02*
X115605714Y-89309676D01*
X115605714Y-89309676D02*
X115700952Y-89214438D01*
X115700952Y-89214438D02*
X115843809Y-89166819D01*
X115843809Y-89166819D02*
X115939047Y-89166819D01*
X115939047Y-89166819D02*
X116081904Y-89214438D01*
X116081904Y-89214438D02*
X116129523Y-89262057D01*
X113351428Y-62719009D02*
X113494285Y-62766628D01*
X113494285Y-62766628D02*
X113541904Y-62814247D01*
X113541904Y-62814247D02*
X113589523Y-62909485D01*
X113589523Y-62909485D02*
X113589523Y-63052342D01*
X113589523Y-63052342D02*
X113541904Y-63147580D01*
X113541904Y-63147580D02*
X113494285Y-63195200D01*
X113494285Y-63195200D02*
X113399047Y-63242819D01*
X113399047Y-63242819D02*
X113018095Y-63242819D01*
X113018095Y-63242819D02*
X113018095Y-62242819D01*
X113018095Y-62242819D02*
X113351428Y-62242819D01*
X113351428Y-62242819D02*
X113446666Y-62290438D01*
X113446666Y-62290438D02*
X113494285Y-62338057D01*
X113494285Y-62338057D02*
X113541904Y-62433295D01*
X113541904Y-62433295D02*
X113541904Y-62528533D01*
X113541904Y-62528533D02*
X113494285Y-62623771D01*
X113494285Y-62623771D02*
X113446666Y-62671390D01*
X113446666Y-62671390D02*
X113351428Y-62719009D01*
X113351428Y-62719009D02*
X113018095Y-62719009D01*
X133742857Y-89166819D02*
X133742857Y-89881104D01*
X133742857Y-89881104D02*
X133695238Y-90023961D01*
X133695238Y-90023961D02*
X133600000Y-90119200D01*
X133600000Y-90119200D02*
X133457143Y-90166819D01*
X133457143Y-90166819D02*
X133361905Y-90166819D01*
X140886667Y-63242819D02*
X140886667Y-62242819D01*
X140886667Y-62242819D02*
X141220000Y-62957104D01*
X141220000Y-62957104D02*
X141553333Y-62242819D01*
X141553333Y-62242819D02*
X141553333Y-63242819D01*
X166191429Y-62242819D02*
X166429524Y-63242819D01*
X166429524Y-63242819D02*
X166620000Y-62528533D01*
X166620000Y-62528533D02*
X166810476Y-63242819D01*
X166810476Y-63242819D02*
X167048572Y-62242819D01*
X120685714Y-89643009D02*
X121019047Y-89643009D01*
X121161904Y-90166819D02*
X120685714Y-90166819D01*
X120685714Y-90166819D02*
X120685714Y-89166819D01*
X120685714Y-89166819D02*
X121161904Y-89166819D01*
D10*
X170150406Y-67626095D02*
X170150406Y-67577714D01*
X170150406Y-67577714D02*
X170174596Y-67529333D01*
X170174596Y-67529333D02*
X170198787Y-67505143D01*
X170198787Y-67505143D02*
X170247168Y-67480952D01*
X170247168Y-67480952D02*
X170343930Y-67456762D01*
X170343930Y-67456762D02*
X170464882Y-67456762D01*
X170464882Y-67456762D02*
X170561644Y-67480952D01*
X170561644Y-67480952D02*
X170610025Y-67505143D01*
X170610025Y-67505143D02*
X170634216Y-67529333D01*
X170634216Y-67529333D02*
X170658406Y-67577714D01*
X170658406Y-67577714D02*
X170658406Y-67626095D01*
X170658406Y-67626095D02*
X170634216Y-67674476D01*
X170634216Y-67674476D02*
X170610025Y-67698667D01*
X170610025Y-67698667D02*
X170561644Y-67722857D01*
X170561644Y-67722857D02*
X170464882Y-67747048D01*
X170464882Y-67747048D02*
X170343930Y-67747048D01*
X170343930Y-67747048D02*
X170247168Y-67722857D01*
X170247168Y-67722857D02*
X170198787Y-67698667D01*
X170198787Y-67698667D02*
X170174596Y-67674476D01*
X170174596Y-67674476D02*
X170150406Y-67626095D01*
X170658406Y-66972952D02*
X170658406Y-67263238D01*
X170658406Y-67118095D02*
X170150406Y-67118095D01*
X170150406Y-67118095D02*
X170222977Y-67166476D01*
X170222977Y-67166476D02*
X170271358Y-67214857D01*
X170271358Y-67214857D02*
X170295549Y-67263238D01*
D11*
X166191429Y-89166819D02*
X166429524Y-90166819D01*
X166429524Y-90166819D02*
X166620000Y-89452533D01*
X166620000Y-89452533D02*
X166810476Y-90166819D01*
X166810476Y-90166819D02*
X167048572Y-89166819D01*
X151760952Y-90262057D02*
X151665714Y-90214438D01*
X151665714Y-90214438D02*
X151570476Y-90119200D01*
X151570476Y-90119200D02*
X151427619Y-89976342D01*
X151427619Y-89976342D02*
X151332381Y-89928723D01*
X151332381Y-89928723D02*
X151237143Y-89928723D01*
X151284762Y-90166819D02*
X151189524Y-90119200D01*
X151189524Y-90119200D02*
X151094286Y-90023961D01*
X151094286Y-90023961D02*
X151046667Y-89833485D01*
X151046667Y-89833485D02*
X151046667Y-89500152D01*
X151046667Y-89500152D02*
X151094286Y-89309676D01*
X151094286Y-89309676D02*
X151189524Y-89214438D01*
X151189524Y-89214438D02*
X151284762Y-89166819D01*
X151284762Y-89166819D02*
X151475238Y-89166819D01*
X151475238Y-89166819D02*
X151570476Y-89214438D01*
X151570476Y-89214438D02*
X151665714Y-89309676D01*
X151665714Y-89309676D02*
X151713333Y-89500152D01*
X151713333Y-89500152D02*
X151713333Y-89833485D01*
X151713333Y-89833485D02*
X151665714Y-90023961D01*
X151665714Y-90023961D02*
X151570476Y-90119200D01*
X151570476Y-90119200D02*
X151475238Y-90166819D01*
X151475238Y-90166819D02*
X151284762Y-90166819D01*
X113351428Y-89643009D02*
X113494285Y-89690628D01*
X113494285Y-89690628D02*
X113541904Y-89738247D01*
X113541904Y-89738247D02*
X113589523Y-89833485D01*
X113589523Y-89833485D02*
X113589523Y-89976342D01*
X113589523Y-89976342D02*
X113541904Y-90071580D01*
X113541904Y-90071580D02*
X113494285Y-90119200D01*
X113494285Y-90119200D02*
X113399047Y-90166819D01*
X113399047Y-90166819D02*
X113018095Y-90166819D01*
X113018095Y-90166819D02*
X113018095Y-89166819D01*
X113018095Y-89166819D02*
X113351428Y-89166819D01*
X113351428Y-89166819D02*
X113446666Y-89214438D01*
X113446666Y-89214438D02*
X113494285Y-89262057D01*
X113494285Y-89262057D02*
X113541904Y-89357295D01*
X113541904Y-89357295D02*
X113541904Y-89452533D01*
X113541904Y-89452533D02*
X113494285Y-89547771D01*
X113494285Y-89547771D02*
X113446666Y-89595390D01*
X113446666Y-89595390D02*
X113351428Y-89643009D01*
X113351428Y-89643009D02*
X113018095Y-89643009D01*
X148578095Y-90166819D02*
X148578095Y-89166819D01*
X148578095Y-89166819D02*
X148959047Y-89166819D01*
X148959047Y-89166819D02*
X149054285Y-89214438D01*
X149054285Y-89214438D02*
X149101904Y-89262057D01*
X149101904Y-89262057D02*
X149149523Y-89357295D01*
X149149523Y-89357295D02*
X149149523Y-89500152D01*
X149149523Y-89500152D02*
X149101904Y-89595390D01*
X149101904Y-89595390D02*
X149054285Y-89643009D01*
X149054285Y-89643009D02*
X148959047Y-89690628D01*
X148959047Y-89690628D02*
X148578095Y-89690628D01*
D10*
X170150406Y-77786095D02*
X170150406Y-77737714D01*
X170150406Y-77737714D02*
X170174596Y-77689333D01*
X170174596Y-77689333D02*
X170198787Y-77665143D01*
X170198787Y-77665143D02*
X170247168Y-77640952D01*
X170247168Y-77640952D02*
X170343930Y-77616762D01*
X170343930Y-77616762D02*
X170464882Y-77616762D01*
X170464882Y-77616762D02*
X170561644Y-77640952D01*
X170561644Y-77640952D02*
X170610025Y-77665143D01*
X170610025Y-77665143D02*
X170634216Y-77689333D01*
X170634216Y-77689333D02*
X170658406Y-77737714D01*
X170658406Y-77737714D02*
X170658406Y-77786095D01*
X170658406Y-77786095D02*
X170634216Y-77834476D01*
X170634216Y-77834476D02*
X170610025Y-77858667D01*
X170610025Y-77858667D02*
X170561644Y-77882857D01*
X170561644Y-77882857D02*
X170464882Y-77907048D01*
X170464882Y-77907048D02*
X170343930Y-77907048D01*
X170343930Y-77907048D02*
X170247168Y-77882857D01*
X170247168Y-77882857D02*
X170198787Y-77858667D01*
X170198787Y-77858667D02*
X170174596Y-77834476D01*
X170174596Y-77834476D02*
X170150406Y-77786095D01*
X170150406Y-77157142D02*
X170150406Y-77399047D01*
X170150406Y-77399047D02*
X170392311Y-77423238D01*
X170392311Y-77423238D02*
X170368120Y-77399047D01*
X170368120Y-77399047D02*
X170343930Y-77350666D01*
X170343930Y-77350666D02*
X170343930Y-77229714D01*
X170343930Y-77229714D02*
X170368120Y-77181333D01*
X170368120Y-77181333D02*
X170392311Y-77157142D01*
X170392311Y-77157142D02*
X170440692Y-77132952D01*
X170440692Y-77132952D02*
X170561644Y-77132952D01*
X170561644Y-77132952D02*
X170610025Y-77157142D01*
X170610025Y-77157142D02*
X170634216Y-77181333D01*
X170634216Y-77181333D02*
X170658406Y-77229714D01*
X170658406Y-77229714D02*
X170658406Y-77350666D01*
X170658406Y-77350666D02*
X170634216Y-77399047D01*
X170634216Y-77399047D02*
X170610025Y-77423238D01*
D11*
X154229523Y-63242819D02*
X153896190Y-62766628D01*
X153658095Y-63242819D02*
X153658095Y-62242819D01*
X153658095Y-62242819D02*
X154039047Y-62242819D01*
X154039047Y-62242819D02*
X154134285Y-62290438D01*
X154134285Y-62290438D02*
X154181904Y-62338057D01*
X154181904Y-62338057D02*
X154229523Y-62433295D01*
X154229523Y-62433295D02*
X154229523Y-62576152D01*
X154229523Y-62576152D02*
X154181904Y-62671390D01*
X154181904Y-62671390D02*
X154134285Y-62719009D01*
X154134285Y-62719009D02*
X154039047Y-62766628D01*
X154039047Y-62766628D02*
X153658095Y-62766628D01*
X138989523Y-90166819D02*
X138513333Y-90166819D01*
X138513333Y-90166819D02*
X138513333Y-89166819D01*
X154229523Y-90166819D02*
X153896190Y-89690628D01*
X153658095Y-90166819D02*
X153658095Y-89166819D01*
X153658095Y-89166819D02*
X154039047Y-89166819D01*
X154039047Y-89166819D02*
X154134285Y-89214438D01*
X154134285Y-89214438D02*
X154181904Y-89262057D01*
X154181904Y-89262057D02*
X154229523Y-89357295D01*
X154229523Y-89357295D02*
X154229523Y-89500152D01*
X154229523Y-89500152D02*
X154181904Y-89595390D01*
X154181904Y-89595390D02*
X154134285Y-89643009D01*
X154134285Y-89643009D02*
X154039047Y-89690628D01*
X154039047Y-89690628D02*
X153658095Y-89690628D01*
X138989523Y-63242819D02*
X138513333Y-63242819D01*
X138513333Y-63242819D02*
X138513333Y-62242819D01*
D10*
X170150406Y-85406095D02*
X170150406Y-85357714D01*
X170150406Y-85357714D02*
X170174596Y-85309333D01*
X170174596Y-85309333D02*
X170198787Y-85285143D01*
X170198787Y-85285143D02*
X170247168Y-85260952D01*
X170247168Y-85260952D02*
X170343930Y-85236762D01*
X170343930Y-85236762D02*
X170464882Y-85236762D01*
X170464882Y-85236762D02*
X170561644Y-85260952D01*
X170561644Y-85260952D02*
X170610025Y-85285143D01*
X170610025Y-85285143D02*
X170634216Y-85309333D01*
X170634216Y-85309333D02*
X170658406Y-85357714D01*
X170658406Y-85357714D02*
X170658406Y-85406095D01*
X170658406Y-85406095D02*
X170634216Y-85454476D01*
X170634216Y-85454476D02*
X170610025Y-85478667D01*
X170610025Y-85478667D02*
X170561644Y-85502857D01*
X170561644Y-85502857D02*
X170464882Y-85527048D01*
X170464882Y-85527048D02*
X170343930Y-85527048D01*
X170343930Y-85527048D02*
X170247168Y-85502857D01*
X170247168Y-85502857D02*
X170198787Y-85478667D01*
X170198787Y-85478667D02*
X170174596Y-85454476D01*
X170174596Y-85454476D02*
X170150406Y-85406095D01*
X170368120Y-84946476D02*
X170343930Y-84994857D01*
X170343930Y-84994857D02*
X170319739Y-85019047D01*
X170319739Y-85019047D02*
X170271358Y-85043238D01*
X170271358Y-85043238D02*
X170247168Y-85043238D01*
X170247168Y-85043238D02*
X170198787Y-85019047D01*
X170198787Y-85019047D02*
X170174596Y-84994857D01*
X170174596Y-84994857D02*
X170150406Y-84946476D01*
X170150406Y-84946476D02*
X170150406Y-84849714D01*
X170150406Y-84849714D02*
X170174596Y-84801333D01*
X170174596Y-84801333D02*
X170198787Y-84777142D01*
X170198787Y-84777142D02*
X170247168Y-84752952D01*
X170247168Y-84752952D02*
X170271358Y-84752952D01*
X170271358Y-84752952D02*
X170319739Y-84777142D01*
X170319739Y-84777142D02*
X170343930Y-84801333D01*
X170343930Y-84801333D02*
X170368120Y-84849714D01*
X170368120Y-84849714D02*
X170368120Y-84946476D01*
X170368120Y-84946476D02*
X170392311Y-84994857D01*
X170392311Y-84994857D02*
X170416501Y-85019047D01*
X170416501Y-85019047D02*
X170464882Y-85043238D01*
X170464882Y-85043238D02*
X170561644Y-85043238D01*
X170561644Y-85043238D02*
X170610025Y-85019047D01*
X170610025Y-85019047D02*
X170634216Y-84994857D01*
X170634216Y-84994857D02*
X170658406Y-84946476D01*
X170658406Y-84946476D02*
X170658406Y-84849714D01*
X170658406Y-84849714D02*
X170634216Y-84801333D01*
X170634216Y-84801333D02*
X170610025Y-84777142D01*
X170610025Y-84777142D02*
X170561644Y-84752952D01*
X170561644Y-84752952D02*
X170464882Y-84752952D01*
X170464882Y-84752952D02*
X170416501Y-84777142D01*
X170416501Y-84777142D02*
X170392311Y-84801333D01*
X170392311Y-84801333D02*
X170368120Y-84849714D01*
X109749593Y-77253904D02*
X109749593Y-77302285D01*
X109749593Y-77302285D02*
X109725403Y-77350666D01*
X109725403Y-77350666D02*
X109701212Y-77374856D01*
X109701212Y-77374856D02*
X109652831Y-77399047D01*
X109652831Y-77399047D02*
X109556069Y-77423237D01*
X109556069Y-77423237D02*
X109435117Y-77423237D01*
X109435117Y-77423237D02*
X109338355Y-77399047D01*
X109338355Y-77399047D02*
X109289974Y-77374856D01*
X109289974Y-77374856D02*
X109265784Y-77350666D01*
X109265784Y-77350666D02*
X109241593Y-77302285D01*
X109241593Y-77302285D02*
X109241593Y-77253904D01*
X109241593Y-77253904D02*
X109265784Y-77205523D01*
X109265784Y-77205523D02*
X109289974Y-77181332D01*
X109289974Y-77181332D02*
X109338355Y-77157142D01*
X109338355Y-77157142D02*
X109435117Y-77132951D01*
X109435117Y-77132951D02*
X109556069Y-77132951D01*
X109556069Y-77132951D02*
X109652831Y-77157142D01*
X109652831Y-77157142D02*
X109701212Y-77181332D01*
X109701212Y-77181332D02*
X109725403Y-77205523D01*
X109725403Y-77205523D02*
X109749593Y-77253904D01*
X109749593Y-77882857D02*
X109749593Y-77640952D01*
X109749593Y-77640952D02*
X109507688Y-77616761D01*
X109507688Y-77616761D02*
X109531879Y-77640952D01*
X109531879Y-77640952D02*
X109556069Y-77689333D01*
X109556069Y-77689333D02*
X109556069Y-77810285D01*
X109556069Y-77810285D02*
X109531879Y-77858666D01*
X109531879Y-77858666D02*
X109507688Y-77882857D01*
X109507688Y-77882857D02*
X109459307Y-77907047D01*
X109459307Y-77907047D02*
X109338355Y-77907047D01*
X109338355Y-77907047D02*
X109289974Y-77882857D01*
X109289974Y-77882857D02*
X109265784Y-77858666D01*
X109265784Y-77858666D02*
X109241593Y-77810285D01*
X109241593Y-77810285D02*
X109241593Y-77689333D01*
X109241593Y-77689333D02*
X109265784Y-77640952D01*
X109265784Y-77640952D02*
X109289974Y-77616761D01*
D11*
X135878095Y-90166819D02*
X135878095Y-89166819D01*
X136449523Y-90166819D02*
X136020952Y-89595390D01*
X136449523Y-89166819D02*
X135878095Y-89738247D01*
D10*
X109749593Y-67093904D02*
X109749593Y-67142285D01*
X109749593Y-67142285D02*
X109725403Y-67190666D01*
X109725403Y-67190666D02*
X109701212Y-67214856D01*
X109701212Y-67214856D02*
X109652831Y-67239047D01*
X109652831Y-67239047D02*
X109556069Y-67263237D01*
X109556069Y-67263237D02*
X109435117Y-67263237D01*
X109435117Y-67263237D02*
X109338355Y-67239047D01*
X109338355Y-67239047D02*
X109289974Y-67214856D01*
X109289974Y-67214856D02*
X109265784Y-67190666D01*
X109265784Y-67190666D02*
X109241593Y-67142285D01*
X109241593Y-67142285D02*
X109241593Y-67093904D01*
X109241593Y-67093904D02*
X109265784Y-67045523D01*
X109265784Y-67045523D02*
X109289974Y-67021332D01*
X109289974Y-67021332D02*
X109338355Y-66997142D01*
X109338355Y-66997142D02*
X109435117Y-66972951D01*
X109435117Y-66972951D02*
X109556069Y-66972951D01*
X109556069Y-66972951D02*
X109652831Y-66997142D01*
X109652831Y-66997142D02*
X109701212Y-67021332D01*
X109701212Y-67021332D02*
X109725403Y-67045523D01*
X109725403Y-67045523D02*
X109749593Y-67093904D01*
X109241593Y-67747047D02*
X109241593Y-67456761D01*
X109241593Y-67601904D02*
X109749593Y-67601904D01*
X109749593Y-67601904D02*
X109677022Y-67553523D01*
X109677022Y-67553523D02*
X109628641Y-67505142D01*
X109628641Y-67505142D02*
X109604450Y-67456761D01*
X109749593Y-69633904D02*
X109749593Y-69682285D01*
X109749593Y-69682285D02*
X109725403Y-69730666D01*
X109725403Y-69730666D02*
X109701212Y-69754856D01*
X109701212Y-69754856D02*
X109652831Y-69779047D01*
X109652831Y-69779047D02*
X109556069Y-69803237D01*
X109556069Y-69803237D02*
X109435117Y-69803237D01*
X109435117Y-69803237D02*
X109338355Y-69779047D01*
X109338355Y-69779047D02*
X109289974Y-69754856D01*
X109289974Y-69754856D02*
X109265784Y-69730666D01*
X109265784Y-69730666D02*
X109241593Y-69682285D01*
X109241593Y-69682285D02*
X109241593Y-69633904D01*
X109241593Y-69633904D02*
X109265784Y-69585523D01*
X109265784Y-69585523D02*
X109289974Y-69561332D01*
X109289974Y-69561332D02*
X109338355Y-69537142D01*
X109338355Y-69537142D02*
X109435117Y-69512951D01*
X109435117Y-69512951D02*
X109556069Y-69512951D01*
X109556069Y-69512951D02*
X109652831Y-69537142D01*
X109652831Y-69537142D02*
X109701212Y-69561332D01*
X109701212Y-69561332D02*
X109725403Y-69585523D01*
X109725403Y-69585523D02*
X109749593Y-69633904D01*
X109701212Y-69996761D02*
X109725403Y-70020952D01*
X109725403Y-70020952D02*
X109749593Y-70069333D01*
X109749593Y-70069333D02*
X109749593Y-70190285D01*
X109749593Y-70190285D02*
X109725403Y-70238666D01*
X109725403Y-70238666D02*
X109701212Y-70262857D01*
X109701212Y-70262857D02*
X109652831Y-70287047D01*
X109652831Y-70287047D02*
X109604450Y-70287047D01*
X109604450Y-70287047D02*
X109531879Y-70262857D01*
X109531879Y-70262857D02*
X109241593Y-69972571D01*
X109241593Y-69972571D02*
X109241593Y-70287047D01*
X170150406Y-80326095D02*
X170150406Y-80277714D01*
X170150406Y-80277714D02*
X170174596Y-80229333D01*
X170174596Y-80229333D02*
X170198787Y-80205143D01*
X170198787Y-80205143D02*
X170247168Y-80180952D01*
X170247168Y-80180952D02*
X170343930Y-80156762D01*
X170343930Y-80156762D02*
X170464882Y-80156762D01*
X170464882Y-80156762D02*
X170561644Y-80180952D01*
X170561644Y-80180952D02*
X170610025Y-80205143D01*
X170610025Y-80205143D02*
X170634216Y-80229333D01*
X170634216Y-80229333D02*
X170658406Y-80277714D01*
X170658406Y-80277714D02*
X170658406Y-80326095D01*
X170658406Y-80326095D02*
X170634216Y-80374476D01*
X170634216Y-80374476D02*
X170610025Y-80398667D01*
X170610025Y-80398667D02*
X170561644Y-80422857D01*
X170561644Y-80422857D02*
X170464882Y-80447048D01*
X170464882Y-80447048D02*
X170343930Y-80447048D01*
X170343930Y-80447048D02*
X170247168Y-80422857D01*
X170247168Y-80422857D02*
X170198787Y-80398667D01*
X170198787Y-80398667D02*
X170174596Y-80374476D01*
X170174596Y-80374476D02*
X170150406Y-80326095D01*
X170150406Y-79721333D02*
X170150406Y-79818095D01*
X170150406Y-79818095D02*
X170174596Y-79866476D01*
X170174596Y-79866476D02*
X170198787Y-79890666D01*
X170198787Y-79890666D02*
X170271358Y-79939047D01*
X170271358Y-79939047D02*
X170368120Y-79963238D01*
X170368120Y-79963238D02*
X170561644Y-79963238D01*
X170561644Y-79963238D02*
X170610025Y-79939047D01*
X170610025Y-79939047D02*
X170634216Y-79914857D01*
X170634216Y-79914857D02*
X170658406Y-79866476D01*
X170658406Y-79866476D02*
X170658406Y-79769714D01*
X170658406Y-79769714D02*
X170634216Y-79721333D01*
X170634216Y-79721333D02*
X170610025Y-79697142D01*
X170610025Y-79697142D02*
X170561644Y-79672952D01*
X170561644Y-79672952D02*
X170440692Y-79672952D01*
X170440692Y-79672952D02*
X170392311Y-79697142D01*
X170392311Y-79697142D02*
X170368120Y-79721333D01*
X170368120Y-79721333D02*
X170343930Y-79769714D01*
X170343930Y-79769714D02*
X170343930Y-79866476D01*
X170343930Y-79866476D02*
X170368120Y-79914857D01*
X170368120Y-79914857D02*
X170392311Y-79939047D01*
X170392311Y-79939047D02*
X170440692Y-79963238D01*
X109749593Y-74713904D02*
X109749593Y-74762285D01*
X109749593Y-74762285D02*
X109725403Y-74810666D01*
X109725403Y-74810666D02*
X109701212Y-74834856D01*
X109701212Y-74834856D02*
X109652831Y-74859047D01*
X109652831Y-74859047D02*
X109556069Y-74883237D01*
X109556069Y-74883237D02*
X109435117Y-74883237D01*
X109435117Y-74883237D02*
X109338355Y-74859047D01*
X109338355Y-74859047D02*
X109289974Y-74834856D01*
X109289974Y-74834856D02*
X109265784Y-74810666D01*
X109265784Y-74810666D02*
X109241593Y-74762285D01*
X109241593Y-74762285D02*
X109241593Y-74713904D01*
X109241593Y-74713904D02*
X109265784Y-74665523D01*
X109265784Y-74665523D02*
X109289974Y-74641332D01*
X109289974Y-74641332D02*
X109338355Y-74617142D01*
X109338355Y-74617142D02*
X109435117Y-74592951D01*
X109435117Y-74592951D02*
X109556069Y-74592951D01*
X109556069Y-74592951D02*
X109652831Y-74617142D01*
X109652831Y-74617142D02*
X109701212Y-74641332D01*
X109701212Y-74641332D02*
X109725403Y-74665523D01*
X109725403Y-74665523D02*
X109749593Y-74713904D01*
X109580260Y-75318666D02*
X109241593Y-75318666D01*
X109773784Y-75197714D02*
X109410926Y-75076761D01*
X109410926Y-75076761D02*
X109410926Y-75391238D01*
D11*
X131060000Y-63242819D02*
X131060000Y-62242819D01*
X140886667Y-90166819D02*
X140886667Y-89166819D01*
X140886667Y-89166819D02*
X141220000Y-89881104D01*
X141220000Y-89881104D02*
X141553333Y-89166819D01*
X141553333Y-89166819D02*
X141553333Y-90166819D01*
X158714286Y-62242819D02*
X159285714Y-62242819D01*
X159000000Y-63242819D02*
X159000000Y-62242819D01*
X126241904Y-89214438D02*
X126146666Y-89166819D01*
X126146666Y-89166819D02*
X126003809Y-89166819D01*
X126003809Y-89166819D02*
X125860952Y-89214438D01*
X125860952Y-89214438D02*
X125765714Y-89309676D01*
X125765714Y-89309676D02*
X125718095Y-89404914D01*
X125718095Y-89404914D02*
X125670476Y-89595390D01*
X125670476Y-89595390D02*
X125670476Y-89738247D01*
X125670476Y-89738247D02*
X125718095Y-89928723D01*
X125718095Y-89928723D02*
X125765714Y-90023961D01*
X125765714Y-90023961D02*
X125860952Y-90119200D01*
X125860952Y-90119200D02*
X126003809Y-90166819D01*
X126003809Y-90166819D02*
X126099047Y-90166819D01*
X126099047Y-90166819D02*
X126241904Y-90119200D01*
X126241904Y-90119200D02*
X126289523Y-90071580D01*
X126289523Y-90071580D02*
X126289523Y-89738247D01*
X126289523Y-89738247D02*
X126099047Y-89738247D01*
X133742857Y-62242819D02*
X133742857Y-62957104D01*
X133742857Y-62957104D02*
X133695238Y-63099961D01*
X133695238Y-63099961D02*
X133600000Y-63195200D01*
X133600000Y-63195200D02*
X133457143Y-63242819D01*
X133457143Y-63242819D02*
X133361905Y-63242819D01*
X128234286Y-63242819D02*
X128234286Y-62242819D01*
X128234286Y-62719009D02*
X128805714Y-62719009D01*
X128805714Y-63242819D02*
X128805714Y-62242819D01*
D10*
X109749593Y-82333904D02*
X109749593Y-82382285D01*
X109749593Y-82382285D02*
X109725403Y-82430666D01*
X109725403Y-82430666D02*
X109701212Y-82454856D01*
X109701212Y-82454856D02*
X109652831Y-82479047D01*
X109652831Y-82479047D02*
X109556069Y-82503237D01*
X109556069Y-82503237D02*
X109435117Y-82503237D01*
X109435117Y-82503237D02*
X109338355Y-82479047D01*
X109338355Y-82479047D02*
X109289974Y-82454856D01*
X109289974Y-82454856D02*
X109265784Y-82430666D01*
X109265784Y-82430666D02*
X109241593Y-82382285D01*
X109241593Y-82382285D02*
X109241593Y-82333904D01*
X109241593Y-82333904D02*
X109265784Y-82285523D01*
X109265784Y-82285523D02*
X109289974Y-82261332D01*
X109289974Y-82261332D02*
X109338355Y-82237142D01*
X109338355Y-82237142D02*
X109435117Y-82212951D01*
X109435117Y-82212951D02*
X109556069Y-82212951D01*
X109556069Y-82212951D02*
X109652831Y-82237142D01*
X109652831Y-82237142D02*
X109701212Y-82261332D01*
X109701212Y-82261332D02*
X109725403Y-82285523D01*
X109725403Y-82285523D02*
X109749593Y-82333904D01*
X109749593Y-82672571D02*
X109749593Y-83011238D01*
X109749593Y-83011238D02*
X109241593Y-82793523D01*
X109749593Y-84873904D02*
X109749593Y-84922285D01*
X109749593Y-84922285D02*
X109725403Y-84970666D01*
X109725403Y-84970666D02*
X109701212Y-84994856D01*
X109701212Y-84994856D02*
X109652831Y-85019047D01*
X109652831Y-85019047D02*
X109556069Y-85043237D01*
X109556069Y-85043237D02*
X109435117Y-85043237D01*
X109435117Y-85043237D02*
X109338355Y-85019047D01*
X109338355Y-85019047D02*
X109289974Y-84994856D01*
X109289974Y-84994856D02*
X109265784Y-84970666D01*
X109265784Y-84970666D02*
X109241593Y-84922285D01*
X109241593Y-84922285D02*
X109241593Y-84873904D01*
X109241593Y-84873904D02*
X109265784Y-84825523D01*
X109265784Y-84825523D02*
X109289974Y-84801332D01*
X109289974Y-84801332D02*
X109338355Y-84777142D01*
X109338355Y-84777142D02*
X109435117Y-84752951D01*
X109435117Y-84752951D02*
X109556069Y-84752951D01*
X109556069Y-84752951D02*
X109652831Y-84777142D01*
X109652831Y-84777142D02*
X109701212Y-84801332D01*
X109701212Y-84801332D02*
X109725403Y-84825523D01*
X109725403Y-84825523D02*
X109749593Y-84873904D01*
X109531879Y-85333523D02*
X109556069Y-85285142D01*
X109556069Y-85285142D02*
X109580260Y-85260952D01*
X109580260Y-85260952D02*
X109628641Y-85236761D01*
X109628641Y-85236761D02*
X109652831Y-85236761D01*
X109652831Y-85236761D02*
X109701212Y-85260952D01*
X109701212Y-85260952D02*
X109725403Y-85285142D01*
X109725403Y-85285142D02*
X109749593Y-85333523D01*
X109749593Y-85333523D02*
X109749593Y-85430285D01*
X109749593Y-85430285D02*
X109725403Y-85478666D01*
X109725403Y-85478666D02*
X109701212Y-85502857D01*
X109701212Y-85502857D02*
X109652831Y-85527047D01*
X109652831Y-85527047D02*
X109628641Y-85527047D01*
X109628641Y-85527047D02*
X109580260Y-85502857D01*
X109580260Y-85502857D02*
X109556069Y-85478666D01*
X109556069Y-85478666D02*
X109531879Y-85430285D01*
X109531879Y-85430285D02*
X109531879Y-85333523D01*
X109531879Y-85333523D02*
X109507688Y-85285142D01*
X109507688Y-85285142D02*
X109483498Y-85260952D01*
X109483498Y-85260952D02*
X109435117Y-85236761D01*
X109435117Y-85236761D02*
X109338355Y-85236761D01*
X109338355Y-85236761D02*
X109289974Y-85260952D01*
X109289974Y-85260952D02*
X109265784Y-85285142D01*
X109265784Y-85285142D02*
X109241593Y-85333523D01*
X109241593Y-85333523D02*
X109241593Y-85430285D01*
X109241593Y-85430285D02*
X109265784Y-85478666D01*
X109265784Y-85478666D02*
X109289974Y-85502857D01*
X109289974Y-85502857D02*
X109338355Y-85527047D01*
X109338355Y-85527047D02*
X109435117Y-85527047D01*
X109435117Y-85527047D02*
X109483498Y-85502857D01*
X109483498Y-85502857D02*
X109507688Y-85478666D01*
X109507688Y-85478666D02*
X109531879Y-85430285D01*
D11*
X163746667Y-62242819D02*
X164080000Y-63242819D01*
X164080000Y-63242819D02*
X164413333Y-62242819D01*
X123582857Y-89643009D02*
X123249524Y-89643009D01*
X123249524Y-90166819D02*
X123249524Y-89166819D01*
X123249524Y-89166819D02*
X123725714Y-89166819D01*
X168826667Y-62242819D02*
X169493333Y-63242819D01*
X169493333Y-62242819D02*
X168826667Y-63242819D01*
X128234286Y-90166819D02*
X128234286Y-89166819D01*
X128234286Y-89643009D02*
X128805714Y-89643009D01*
X128805714Y-90166819D02*
X128805714Y-89166819D01*
X168826667Y-89166819D02*
X169493333Y-90166819D01*
X169493333Y-89166819D02*
X168826667Y-90166819D01*
X163746667Y-89166819D02*
X164080000Y-90166819D01*
X164080000Y-90166819D02*
X164413333Y-89166819D01*
X156174286Y-90119200D02*
X156317143Y-90166819D01*
X156317143Y-90166819D02*
X156555238Y-90166819D01*
X156555238Y-90166819D02*
X156650476Y-90119200D01*
X156650476Y-90119200D02*
X156698095Y-90071580D01*
X156698095Y-90071580D02*
X156745714Y-89976342D01*
X156745714Y-89976342D02*
X156745714Y-89881104D01*
X156745714Y-89881104D02*
X156698095Y-89785866D01*
X156698095Y-89785866D02*
X156650476Y-89738247D01*
X156650476Y-89738247D02*
X156555238Y-89690628D01*
X156555238Y-89690628D02*
X156364762Y-89643009D01*
X156364762Y-89643009D02*
X156269524Y-89595390D01*
X156269524Y-89595390D02*
X156221905Y-89547771D01*
X156221905Y-89547771D02*
X156174286Y-89452533D01*
X156174286Y-89452533D02*
X156174286Y-89357295D01*
X156174286Y-89357295D02*
X156221905Y-89262057D01*
X156221905Y-89262057D02*
X156269524Y-89214438D01*
X156269524Y-89214438D02*
X156364762Y-89166819D01*
X156364762Y-89166819D02*
X156602857Y-89166819D01*
X156602857Y-89166819D02*
X156745714Y-89214438D01*
X143474286Y-90166819D02*
X143474286Y-89166819D01*
X143474286Y-89166819D02*
X144045714Y-90166819D01*
X144045714Y-90166819D02*
X144045714Y-89166819D01*
X110501905Y-89881104D02*
X110978095Y-89881104D01*
X110406667Y-90166819D02*
X110740000Y-89166819D01*
X110740000Y-89166819D02*
X111073333Y-90166819D01*
D10*
X170150406Y-82866095D02*
X170150406Y-82817714D01*
X170150406Y-82817714D02*
X170174596Y-82769333D01*
X170174596Y-82769333D02*
X170198787Y-82745143D01*
X170198787Y-82745143D02*
X170247168Y-82720952D01*
X170247168Y-82720952D02*
X170343930Y-82696762D01*
X170343930Y-82696762D02*
X170464882Y-82696762D01*
X170464882Y-82696762D02*
X170561644Y-82720952D01*
X170561644Y-82720952D02*
X170610025Y-82745143D01*
X170610025Y-82745143D02*
X170634216Y-82769333D01*
X170634216Y-82769333D02*
X170658406Y-82817714D01*
X170658406Y-82817714D02*
X170658406Y-82866095D01*
X170658406Y-82866095D02*
X170634216Y-82914476D01*
X170634216Y-82914476D02*
X170610025Y-82938667D01*
X170610025Y-82938667D02*
X170561644Y-82962857D01*
X170561644Y-82962857D02*
X170464882Y-82987048D01*
X170464882Y-82987048D02*
X170343930Y-82987048D01*
X170343930Y-82987048D02*
X170247168Y-82962857D01*
X170247168Y-82962857D02*
X170198787Y-82938667D01*
X170198787Y-82938667D02*
X170174596Y-82914476D01*
X170174596Y-82914476D02*
X170150406Y-82866095D01*
X170150406Y-82527428D02*
X170150406Y-82188761D01*
X170150406Y-82188761D02*
X170658406Y-82406476D01*
D11*
X151760952Y-63338057D02*
X151665714Y-63290438D01*
X151665714Y-63290438D02*
X151570476Y-63195200D01*
X151570476Y-63195200D02*
X151427619Y-63052342D01*
X151427619Y-63052342D02*
X151332381Y-63004723D01*
X151332381Y-63004723D02*
X151237143Y-63004723D01*
X151284762Y-63242819D02*
X151189524Y-63195200D01*
X151189524Y-63195200D02*
X151094286Y-63099961D01*
X151094286Y-63099961D02*
X151046667Y-62909485D01*
X151046667Y-62909485D02*
X151046667Y-62576152D01*
X151046667Y-62576152D02*
X151094286Y-62385676D01*
X151094286Y-62385676D02*
X151189524Y-62290438D01*
X151189524Y-62290438D02*
X151284762Y-62242819D01*
X151284762Y-62242819D02*
X151475238Y-62242819D01*
X151475238Y-62242819D02*
X151570476Y-62290438D01*
X151570476Y-62290438D02*
X151665714Y-62385676D01*
X151665714Y-62385676D02*
X151713333Y-62576152D01*
X151713333Y-62576152D02*
X151713333Y-62909485D01*
X151713333Y-62909485D02*
X151665714Y-63099961D01*
X151665714Y-63099961D02*
X151570476Y-63195200D01*
X151570476Y-63195200D02*
X151475238Y-63242819D01*
X151475238Y-63242819D02*
X151284762Y-63242819D01*
X118098095Y-63242819D02*
X118098095Y-62242819D01*
X118098095Y-62242819D02*
X118336190Y-62242819D01*
X118336190Y-62242819D02*
X118479047Y-62290438D01*
X118479047Y-62290438D02*
X118574285Y-62385676D01*
X118574285Y-62385676D02*
X118621904Y-62480914D01*
X118621904Y-62480914D02*
X118669523Y-62671390D01*
X118669523Y-62671390D02*
X118669523Y-62814247D01*
X118669523Y-62814247D02*
X118621904Y-63004723D01*
X118621904Y-63004723D02*
X118574285Y-63099961D01*
X118574285Y-63099961D02*
X118479047Y-63195200D01*
X118479047Y-63195200D02*
X118336190Y-63242819D01*
X118336190Y-63242819D02*
X118098095Y-63242819D01*
D10*
X109749593Y-79793904D02*
X109749593Y-79842285D01*
X109749593Y-79842285D02*
X109725403Y-79890666D01*
X109725403Y-79890666D02*
X109701212Y-79914856D01*
X109701212Y-79914856D02*
X109652831Y-79939047D01*
X109652831Y-79939047D02*
X109556069Y-79963237D01*
X109556069Y-79963237D02*
X109435117Y-79963237D01*
X109435117Y-79963237D02*
X109338355Y-79939047D01*
X109338355Y-79939047D02*
X109289974Y-79914856D01*
X109289974Y-79914856D02*
X109265784Y-79890666D01*
X109265784Y-79890666D02*
X109241593Y-79842285D01*
X109241593Y-79842285D02*
X109241593Y-79793904D01*
X109241593Y-79793904D02*
X109265784Y-79745523D01*
X109265784Y-79745523D02*
X109289974Y-79721332D01*
X109289974Y-79721332D02*
X109338355Y-79697142D01*
X109338355Y-79697142D02*
X109435117Y-79672951D01*
X109435117Y-79672951D02*
X109556069Y-79672951D01*
X109556069Y-79672951D02*
X109652831Y-79697142D01*
X109652831Y-79697142D02*
X109701212Y-79721332D01*
X109701212Y-79721332D02*
X109725403Y-79745523D01*
X109725403Y-79745523D02*
X109749593Y-79793904D01*
X109749593Y-80398666D02*
X109749593Y-80301904D01*
X109749593Y-80301904D02*
X109725403Y-80253523D01*
X109725403Y-80253523D02*
X109701212Y-80229333D01*
X109701212Y-80229333D02*
X109628641Y-80180952D01*
X109628641Y-80180952D02*
X109531879Y-80156761D01*
X109531879Y-80156761D02*
X109338355Y-80156761D01*
X109338355Y-80156761D02*
X109289974Y-80180952D01*
X109289974Y-80180952D02*
X109265784Y-80205142D01*
X109265784Y-80205142D02*
X109241593Y-80253523D01*
X109241593Y-80253523D02*
X109241593Y-80350285D01*
X109241593Y-80350285D02*
X109265784Y-80398666D01*
X109265784Y-80398666D02*
X109289974Y-80422857D01*
X109289974Y-80422857D02*
X109338355Y-80447047D01*
X109338355Y-80447047D02*
X109459307Y-80447047D01*
X109459307Y-80447047D02*
X109507688Y-80422857D01*
X109507688Y-80422857D02*
X109531879Y-80398666D01*
X109531879Y-80398666D02*
X109556069Y-80350285D01*
X109556069Y-80350285D02*
X109556069Y-80253523D01*
X109556069Y-80253523D02*
X109531879Y-80205142D01*
X109531879Y-80205142D02*
X109507688Y-80180952D01*
X109507688Y-80180952D02*
X109459307Y-80156761D01*
D11*
X161254286Y-89166819D02*
X161254286Y-89976342D01*
X161254286Y-89976342D02*
X161301905Y-90071580D01*
X161301905Y-90071580D02*
X161349524Y-90119200D01*
X161349524Y-90119200D02*
X161444762Y-90166819D01*
X161444762Y-90166819D02*
X161635238Y-90166819D01*
X161635238Y-90166819D02*
X161730476Y-90119200D01*
X161730476Y-90119200D02*
X161778095Y-90071580D01*
X161778095Y-90071580D02*
X161825714Y-89976342D01*
X161825714Y-89976342D02*
X161825714Y-89166819D01*
X110501905Y-62957104D02*
X110978095Y-62957104D01*
X110406667Y-63242819D02*
X110740000Y-62242819D01*
X110740000Y-62242819D02*
X111073333Y-63242819D01*
X123582857Y-62719009D02*
X123249524Y-62719009D01*
X123249524Y-63242819D02*
X123249524Y-62242819D01*
X123249524Y-62242819D02*
X123725714Y-62242819D01*
X143474286Y-63242819D02*
X143474286Y-62242819D01*
X143474286Y-62242819D02*
X144045714Y-63242819D01*
X144045714Y-63242819D02*
X144045714Y-62242819D01*
X126241904Y-62290438D02*
X126146666Y-62242819D01*
X126146666Y-62242819D02*
X126003809Y-62242819D01*
X126003809Y-62242819D02*
X125860952Y-62290438D01*
X125860952Y-62290438D02*
X125765714Y-62385676D01*
X125765714Y-62385676D02*
X125718095Y-62480914D01*
X125718095Y-62480914D02*
X125670476Y-62671390D01*
X125670476Y-62671390D02*
X125670476Y-62814247D01*
X125670476Y-62814247D02*
X125718095Y-63004723D01*
X125718095Y-63004723D02*
X125765714Y-63099961D01*
X125765714Y-63099961D02*
X125860952Y-63195200D01*
X125860952Y-63195200D02*
X126003809Y-63242819D01*
X126003809Y-63242819D02*
X126099047Y-63242819D01*
X126099047Y-63242819D02*
X126241904Y-63195200D01*
X126241904Y-63195200D02*
X126289523Y-63147580D01*
X126289523Y-63147580D02*
X126289523Y-62814247D01*
X126289523Y-62814247D02*
X126099047Y-62814247D01*
%LPC*%
G36*
X107843479Y-87395919D02*
G01*
X108037488Y-87458957D01*
X108219248Y-87551568D01*
X108384282Y-87671472D01*
X108528528Y-87815718D01*
X108648432Y-87980752D01*
X108741043Y-88162512D01*
X108804081Y-88356521D01*
X108835993Y-88558003D01*
X108835993Y-88761997D01*
X108804081Y-88963479D01*
X108741043Y-89157488D01*
X108648432Y-89339248D01*
X108528528Y-89504282D01*
X108384282Y-89648528D01*
X108219248Y-89768432D01*
X108037488Y-89861043D01*
X107843479Y-89924081D01*
X107641997Y-89955993D01*
X107438003Y-89955993D01*
X107236521Y-89924081D01*
X107042512Y-89861043D01*
X106860752Y-89768432D01*
X106695718Y-89648528D01*
X106551472Y-89504282D01*
X106431568Y-89339248D01*
X106338957Y-89157488D01*
X106275919Y-88963479D01*
X106244007Y-88761997D01*
X106244007Y-88558003D01*
X106275919Y-88356521D01*
X106338957Y-88162512D01*
X106431568Y-87980752D01*
X106551472Y-87815718D01*
X106695718Y-87671472D01*
X106860752Y-87551568D01*
X107042512Y-87458957D01*
X107236521Y-87395919D01*
X107438003Y-87364007D01*
X107641997Y-87364007D01*
X107843479Y-87395919D01*
G37*
G36*
X172643479Y-87395919D02*
G01*
X172837488Y-87458957D01*
X173019248Y-87551568D01*
X173184282Y-87671472D01*
X173328528Y-87815718D01*
X173448432Y-87980752D01*
X173541043Y-88162512D01*
X173604081Y-88356521D01*
X173635993Y-88558003D01*
X173635993Y-88761997D01*
X173604081Y-88963479D01*
X173541043Y-89157488D01*
X173448432Y-89339248D01*
X173328528Y-89504282D01*
X173184282Y-89648528D01*
X173019248Y-89768432D01*
X172837488Y-89861043D01*
X172643479Y-89924081D01*
X172441997Y-89955993D01*
X172238003Y-89955993D01*
X172036521Y-89924081D01*
X171842512Y-89861043D01*
X171660752Y-89768432D01*
X171495718Y-89648528D01*
X171351472Y-89504282D01*
X171231568Y-89339248D01*
X171138957Y-89157488D01*
X171075919Y-88963479D01*
X171044007Y-88761997D01*
X171044007Y-88558003D01*
X171075919Y-88356521D01*
X171138957Y-88162512D01*
X171231568Y-87980752D01*
X171351472Y-87815718D01*
X171495718Y-87671472D01*
X171660752Y-87551568D01*
X171842512Y-87458957D01*
X172036521Y-87395919D01*
X172238003Y-87364007D01*
X172441997Y-87364007D01*
X172643479Y-87395919D01*
G37*
G36*
X167964487Y-63799201D02*
G01*
X167965656Y-63799392D01*
X167965835Y-63799509D01*
X167968455Y-63800107D01*
X167972344Y-63801718D01*
X168038846Y-63846154D01*
X168041520Y-63848828D01*
X168286968Y-64094276D01*
X168323722Y-64109500D01*
X168430735Y-64109500D01*
X168440000Y-64109500D01*
X168518455Y-64125107D01*
X168521932Y-64126547D01*
X168522112Y-64126581D01*
X168536379Y-64132301D01*
X168585603Y-64127169D01*
X168587305Y-64126031D01*
X168589046Y-64124291D01*
X168735743Y-64026271D01*
X168898744Y-63958754D01*
X169071785Y-63924334D01*
X169248215Y-63924334D01*
X169421256Y-63958754D01*
X169584257Y-64026271D01*
X169730954Y-64124291D01*
X169855709Y-64249046D01*
X169953729Y-64395743D01*
X170021246Y-64558744D01*
X170055666Y-64731785D01*
X170055666Y-64908215D01*
X170021246Y-65081256D01*
X169953729Y-65244257D01*
X169855709Y-65390954D01*
X169854418Y-65392244D01*
X169846831Y-65431580D01*
X169851852Y-65455380D01*
X169853282Y-65457656D01*
X169854893Y-65461545D01*
X169864609Y-65510390D01*
X169904995Y-65549853D01*
X169941455Y-65557107D01*
X169945344Y-65558718D01*
X169980413Y-65583602D01*
X170007267Y-65601101D01*
X170009554Y-65604279D01*
X170019749Y-65611514D01*
X170054163Y-65666284D01*
X170054810Y-65667183D01*
X170054851Y-65667379D01*
X170056282Y-65669656D01*
X170057893Y-65673545D01*
X170065100Y-65715957D01*
X170071713Y-65747299D01*
X170071083Y-65751161D01*
X170073178Y-65763489D01*
X170058795Y-65826502D01*
X170058607Y-65827656D01*
X170058491Y-65827833D01*
X170057893Y-65830455D01*
X170056282Y-65834344D01*
X170011846Y-65900846D01*
X169905036Y-66007656D01*
X169859113Y-66053579D01*
X169859113Y-66136421D01*
X170011846Y-66289154D01*
X170056282Y-66355656D01*
X170057893Y-66359545D01*
X170065100Y-66401954D01*
X170071713Y-66433299D01*
X170071083Y-66437161D01*
X170073178Y-66449489D01*
X170058795Y-66512502D01*
X170058607Y-66513656D01*
X170058491Y-66513833D01*
X170057893Y-66516455D01*
X170056282Y-66520344D01*
X170031385Y-66555430D01*
X170013898Y-66582267D01*
X170010721Y-66584552D01*
X170003486Y-66594749D01*
X169948715Y-66629163D01*
X169947817Y-66629810D01*
X169947620Y-66629851D01*
X169945344Y-66631282D01*
X169941455Y-66632893D01*
X169901649Y-66640811D01*
X169862334Y-66681044D01*
X169854893Y-66718455D01*
X169853448Y-66721941D01*
X169853434Y-66722020D01*
X169847707Y-66736229D01*
X169852801Y-66785560D01*
X169853964Y-66787301D01*
X169855709Y-66789046D01*
X169953729Y-66935743D01*
X170021246Y-67098744D01*
X170055666Y-67271785D01*
X170055666Y-67448215D01*
X170021246Y-67621256D01*
X169953729Y-67784257D01*
X169855709Y-67930954D01*
X169854418Y-67932244D01*
X169846831Y-67971580D01*
X169851852Y-67995380D01*
X169853282Y-67997656D01*
X169854893Y-68001545D01*
X169864609Y-68050390D01*
X169904995Y-68089853D01*
X169941455Y-68097107D01*
X169945344Y-68098718D01*
X169980413Y-68123602D01*
X170007267Y-68141101D01*
X170009554Y-68144279D01*
X170019749Y-68151514D01*
X170054163Y-68206284D01*
X170054810Y-68207183D01*
X170054851Y-68207379D01*
X170056282Y-68209656D01*
X170057893Y-68213545D01*
X170065100Y-68255957D01*
X170071713Y-68287299D01*
X170071083Y-68291161D01*
X170073178Y-68303489D01*
X170058795Y-68366502D01*
X170058607Y-68367656D01*
X170058491Y-68367833D01*
X170057893Y-68370455D01*
X170056282Y-68374344D01*
X170011846Y-68440846D01*
X169905036Y-68547656D01*
X169859113Y-68593579D01*
X169859113Y-68676421D01*
X170011846Y-68829154D01*
X170056282Y-68895656D01*
X170057893Y-68899545D01*
X170065100Y-68941954D01*
X170071713Y-68973299D01*
X170071083Y-68977161D01*
X170073178Y-68989489D01*
X170058795Y-69052502D01*
X170058607Y-69053656D01*
X170058491Y-69053833D01*
X170057893Y-69056455D01*
X170056282Y-69060344D01*
X170031385Y-69095430D01*
X170013898Y-69122267D01*
X170010721Y-69124552D01*
X170003486Y-69134749D01*
X169948715Y-69169163D01*
X169947817Y-69169810D01*
X169947620Y-69169851D01*
X169945344Y-69171282D01*
X169941455Y-69172893D01*
X169901649Y-69180811D01*
X169862334Y-69221044D01*
X169854893Y-69258455D01*
X169853448Y-69261941D01*
X169853434Y-69262020D01*
X169847707Y-69276229D01*
X169852801Y-69325560D01*
X169853964Y-69327301D01*
X169855709Y-69329046D01*
X169953729Y-69475743D01*
X170021246Y-69638744D01*
X170055666Y-69811785D01*
X170055666Y-69988215D01*
X170021246Y-70161256D01*
X169953729Y-70324257D01*
X169855709Y-70470954D01*
X169854418Y-70472244D01*
X169846831Y-70511580D01*
X169851852Y-70535380D01*
X169853282Y-70537656D01*
X169854893Y-70541545D01*
X169864609Y-70590390D01*
X169904995Y-70629853D01*
X169941455Y-70637107D01*
X169945344Y-70638718D01*
X169980413Y-70663602D01*
X170007267Y-70681101D01*
X170009554Y-70684279D01*
X170019749Y-70691514D01*
X170054163Y-70746284D01*
X170054810Y-70747183D01*
X170054851Y-70747379D01*
X170056282Y-70749656D01*
X170057893Y-70753545D01*
X170065100Y-70795957D01*
X170071713Y-70827299D01*
X170071083Y-70831161D01*
X170073178Y-70843489D01*
X170058795Y-70906502D01*
X170058607Y-70907656D01*
X170058491Y-70907833D01*
X170057893Y-70910455D01*
X170056282Y-70914344D01*
X170011846Y-70980846D01*
X169905036Y-71087656D01*
X169859113Y-71133579D01*
X169859113Y-71216421D01*
X170011846Y-71369154D01*
X170056282Y-71435656D01*
X170057893Y-71439545D01*
X170065100Y-71481954D01*
X170071713Y-71513299D01*
X170071083Y-71517161D01*
X170073178Y-71529489D01*
X170058795Y-71592502D01*
X170058607Y-71593656D01*
X170058491Y-71593833D01*
X170057893Y-71596455D01*
X170056282Y-71600344D01*
X170031385Y-71635430D01*
X170013898Y-71662267D01*
X170010721Y-71664552D01*
X170003486Y-71674749D01*
X169948715Y-71709163D01*
X169947817Y-71709810D01*
X169947620Y-71709851D01*
X169945344Y-71711282D01*
X169941455Y-71712893D01*
X169901649Y-71720811D01*
X169862334Y-71761044D01*
X169854893Y-71798455D01*
X169853448Y-71801941D01*
X169853434Y-71802020D01*
X169847707Y-71816229D01*
X169852801Y-71865560D01*
X169853964Y-71867301D01*
X169855709Y-71869046D01*
X169953729Y-72015743D01*
X170021246Y-72178744D01*
X170055666Y-72351785D01*
X170055666Y-72528215D01*
X170021246Y-72701256D01*
X169953729Y-72864257D01*
X169855709Y-73010954D01*
X169854418Y-73012244D01*
X169846831Y-73051580D01*
X169851852Y-73075380D01*
X169853282Y-73077656D01*
X169854893Y-73081545D01*
X169864609Y-73130390D01*
X169904995Y-73169853D01*
X169941455Y-73177107D01*
X169945344Y-73178718D01*
X169980413Y-73203602D01*
X170007267Y-73221101D01*
X170009554Y-73224279D01*
X170019749Y-73231514D01*
X170054163Y-73286284D01*
X170054810Y-73287183D01*
X170054851Y-73287379D01*
X170056282Y-73289656D01*
X170057893Y-73293545D01*
X170065100Y-73335957D01*
X170071713Y-73367299D01*
X170071083Y-73371161D01*
X170073178Y-73383489D01*
X170058795Y-73446502D01*
X170058607Y-73447656D01*
X170058491Y-73447833D01*
X170057893Y-73450455D01*
X170056282Y-73454344D01*
X170011846Y-73520846D01*
X169905036Y-73627656D01*
X169859113Y-73673579D01*
X169859113Y-73756421D01*
X170011846Y-73909154D01*
X170056282Y-73975656D01*
X170057893Y-73979545D01*
X170065100Y-74021954D01*
X170071713Y-74053299D01*
X170071083Y-74057161D01*
X170073178Y-74069489D01*
X170058795Y-74132502D01*
X170058607Y-74133656D01*
X170058491Y-74133833D01*
X170057893Y-74136455D01*
X170056282Y-74140344D01*
X170031385Y-74175430D01*
X170013898Y-74202267D01*
X170010721Y-74204552D01*
X170003486Y-74214749D01*
X169948715Y-74249163D01*
X169947817Y-74249810D01*
X169947620Y-74249851D01*
X169945344Y-74251282D01*
X169941455Y-74252893D01*
X169901649Y-74260811D01*
X169862334Y-74301044D01*
X169854893Y-74338455D01*
X169853448Y-74341941D01*
X169853434Y-74342020D01*
X169847707Y-74356229D01*
X169852801Y-74405560D01*
X169853964Y-74407301D01*
X169855709Y-74409046D01*
X169953729Y-74555743D01*
X170021246Y-74718744D01*
X170055666Y-74891785D01*
X170055666Y-75068215D01*
X170021246Y-75241256D01*
X169953729Y-75404257D01*
X169855709Y-75550954D01*
X169854418Y-75552244D01*
X169846831Y-75591580D01*
X169851852Y-75615380D01*
X169853282Y-75617656D01*
X169854893Y-75621545D01*
X169864609Y-75670390D01*
X169904995Y-75709853D01*
X169941455Y-75717107D01*
X169945344Y-75718718D01*
X169980413Y-75743602D01*
X170007267Y-75761101D01*
X170009554Y-75764279D01*
X170019749Y-75771514D01*
X170054163Y-75826284D01*
X170054810Y-75827183D01*
X170054851Y-75827379D01*
X170056282Y-75829656D01*
X170057893Y-75833545D01*
X170065100Y-75875957D01*
X170071713Y-75907299D01*
X170071083Y-75911161D01*
X170073178Y-75923489D01*
X170058795Y-75986502D01*
X170058607Y-75987656D01*
X170058491Y-75987833D01*
X170057893Y-75990455D01*
X170056282Y-75994344D01*
X170011846Y-76060846D01*
X169905036Y-76167656D01*
X169859113Y-76213579D01*
X169859113Y-76296421D01*
X170011846Y-76449154D01*
X170056282Y-76515656D01*
X170057893Y-76519545D01*
X170065100Y-76561954D01*
X170071713Y-76593299D01*
X170071083Y-76597161D01*
X170073178Y-76609489D01*
X170058795Y-76672502D01*
X170058607Y-76673656D01*
X170058491Y-76673833D01*
X170057893Y-76676455D01*
X170056282Y-76680344D01*
X170031385Y-76715430D01*
X170013898Y-76742267D01*
X170010721Y-76744552D01*
X170003486Y-76754749D01*
X169948715Y-76789163D01*
X169947817Y-76789810D01*
X169947620Y-76789851D01*
X169945344Y-76791282D01*
X169941455Y-76792893D01*
X169901649Y-76800811D01*
X169862334Y-76841044D01*
X169854893Y-76878455D01*
X169853448Y-76881941D01*
X169853434Y-76882020D01*
X169847707Y-76896229D01*
X169852801Y-76945560D01*
X169853964Y-76947301D01*
X169855709Y-76949046D01*
X169953729Y-77095743D01*
X170021246Y-77258744D01*
X170055666Y-77431785D01*
X170055666Y-77608215D01*
X170021246Y-77781256D01*
X169953729Y-77944257D01*
X169855709Y-78090954D01*
X169854418Y-78092244D01*
X169846831Y-78131580D01*
X169851852Y-78155380D01*
X169853282Y-78157656D01*
X169854893Y-78161545D01*
X169864609Y-78210390D01*
X169904995Y-78249853D01*
X169941455Y-78257107D01*
X169945344Y-78258718D01*
X169980413Y-78283602D01*
X170007267Y-78301101D01*
X170009554Y-78304279D01*
X170019749Y-78311514D01*
X170054163Y-78366284D01*
X170054810Y-78367183D01*
X170054851Y-78367379D01*
X170056282Y-78369656D01*
X170057893Y-78373545D01*
X170065100Y-78415957D01*
X170071713Y-78447299D01*
X170071083Y-78451161D01*
X170073178Y-78463489D01*
X170058795Y-78526502D01*
X170058607Y-78527656D01*
X170058491Y-78527833D01*
X170057893Y-78530455D01*
X170056282Y-78534344D01*
X170011846Y-78600846D01*
X169905036Y-78707656D01*
X169859113Y-78753579D01*
X169859113Y-78836421D01*
X170011846Y-78989154D01*
X170056282Y-79055656D01*
X170057893Y-79059545D01*
X170065100Y-79101954D01*
X170071713Y-79133299D01*
X170071083Y-79137161D01*
X170073178Y-79149489D01*
X170058795Y-79212502D01*
X170058607Y-79213656D01*
X170058491Y-79213833D01*
X170057893Y-79216455D01*
X170056282Y-79220344D01*
X170031385Y-79255430D01*
X170013898Y-79282267D01*
X170010721Y-79284552D01*
X170003486Y-79294749D01*
X169948715Y-79329163D01*
X169947817Y-79329810D01*
X169947620Y-79329851D01*
X169945344Y-79331282D01*
X169941455Y-79332893D01*
X169901649Y-79340811D01*
X169862334Y-79381044D01*
X169854893Y-79418455D01*
X169853448Y-79421941D01*
X169853434Y-79422020D01*
X169847707Y-79436229D01*
X169852801Y-79485560D01*
X169853964Y-79487301D01*
X169855709Y-79489046D01*
X169953729Y-79635743D01*
X170021246Y-79798744D01*
X170055666Y-79971785D01*
X170055666Y-80148215D01*
X170021246Y-80321256D01*
X169953729Y-80484257D01*
X169855709Y-80630954D01*
X169854418Y-80632244D01*
X169846831Y-80671580D01*
X169851852Y-80695380D01*
X169853282Y-80697656D01*
X169854893Y-80701545D01*
X169864609Y-80750390D01*
X169904995Y-80789853D01*
X169941455Y-80797107D01*
X169945344Y-80798718D01*
X169980413Y-80823602D01*
X170007267Y-80841101D01*
X170009554Y-80844279D01*
X170019749Y-80851514D01*
X170054163Y-80906284D01*
X170054810Y-80907183D01*
X170054851Y-80907379D01*
X170056282Y-80909656D01*
X170057893Y-80913545D01*
X170065100Y-80955957D01*
X170071713Y-80987299D01*
X170071083Y-80991161D01*
X170073178Y-81003489D01*
X170058795Y-81066502D01*
X170058607Y-81067656D01*
X170058491Y-81067833D01*
X170057893Y-81070455D01*
X170056282Y-81074344D01*
X170011846Y-81140846D01*
X169905036Y-81247656D01*
X169859113Y-81293579D01*
X169859113Y-81376421D01*
X170011846Y-81529154D01*
X170056282Y-81595656D01*
X170057893Y-81599545D01*
X170065100Y-81641954D01*
X170071713Y-81673299D01*
X170071083Y-81677161D01*
X170073178Y-81689489D01*
X170058795Y-81752502D01*
X170058607Y-81753656D01*
X170058491Y-81753833D01*
X170057893Y-81756455D01*
X170056282Y-81760344D01*
X170031385Y-81795430D01*
X170013898Y-81822267D01*
X170010721Y-81824552D01*
X170003486Y-81834749D01*
X169948715Y-81869163D01*
X169947817Y-81869810D01*
X169947620Y-81869851D01*
X169945344Y-81871282D01*
X169941455Y-81872893D01*
X169901649Y-81880811D01*
X169862334Y-81921044D01*
X169854893Y-81958455D01*
X169853448Y-81961941D01*
X169853434Y-81962020D01*
X169847707Y-81976229D01*
X169852801Y-82025560D01*
X169853964Y-82027301D01*
X169855709Y-82029046D01*
X169953729Y-82175743D01*
X170021246Y-82338744D01*
X170055666Y-82511785D01*
X170055666Y-82688215D01*
X170021246Y-82861256D01*
X169953729Y-83024257D01*
X169855709Y-83170954D01*
X169854418Y-83172244D01*
X169846831Y-83211580D01*
X169851852Y-83235380D01*
X169853282Y-83237656D01*
X169854893Y-83241545D01*
X169864609Y-83290390D01*
X169904995Y-83329853D01*
X169941455Y-83337107D01*
X169945344Y-83338718D01*
X169980413Y-83363602D01*
X170007267Y-83381101D01*
X170009554Y-83384279D01*
X170019749Y-83391514D01*
X170054163Y-83446284D01*
X170054810Y-83447183D01*
X170054851Y-83447379D01*
X170056282Y-83449656D01*
X170057893Y-83453545D01*
X170065100Y-83495957D01*
X170071713Y-83527299D01*
X170071083Y-83531161D01*
X170073178Y-83543489D01*
X170058795Y-83606502D01*
X170058607Y-83607656D01*
X170058491Y-83607833D01*
X170057893Y-83610455D01*
X170056282Y-83614344D01*
X170011846Y-83680846D01*
X169905036Y-83787656D01*
X169859113Y-83833579D01*
X169859113Y-83916421D01*
X170011846Y-84069154D01*
X170056282Y-84135656D01*
X170057893Y-84139545D01*
X170065100Y-84181954D01*
X170071713Y-84213299D01*
X170071083Y-84217161D01*
X170073178Y-84229489D01*
X170058795Y-84292502D01*
X170058607Y-84293656D01*
X170058491Y-84293833D01*
X170057893Y-84296455D01*
X170056282Y-84300344D01*
X170031385Y-84335430D01*
X170013898Y-84362267D01*
X170010721Y-84364552D01*
X170003486Y-84374749D01*
X169948715Y-84409163D01*
X169947817Y-84409810D01*
X169947620Y-84409851D01*
X169945344Y-84411282D01*
X169941455Y-84412893D01*
X169901649Y-84420811D01*
X169862334Y-84461044D01*
X169854893Y-84498455D01*
X169853448Y-84501941D01*
X169853434Y-84502020D01*
X169847707Y-84516229D01*
X169852801Y-84565560D01*
X169853964Y-84567301D01*
X169855709Y-84569046D01*
X169953729Y-84715743D01*
X170021246Y-84878744D01*
X170055666Y-85051785D01*
X170055666Y-85228215D01*
X170021246Y-85401256D01*
X169953729Y-85564257D01*
X169855709Y-85710954D01*
X169854418Y-85712244D01*
X169846831Y-85751580D01*
X169851852Y-85775380D01*
X169853282Y-85777656D01*
X169854893Y-85781545D01*
X169864609Y-85830390D01*
X169904995Y-85869853D01*
X169941455Y-85877107D01*
X169945344Y-85878718D01*
X169980413Y-85903602D01*
X170007267Y-85921101D01*
X170009554Y-85924279D01*
X170019749Y-85931514D01*
X170054163Y-85986284D01*
X170054810Y-85987183D01*
X170054851Y-85987379D01*
X170056282Y-85989656D01*
X170057893Y-85993545D01*
X170065100Y-86035957D01*
X170071713Y-86067299D01*
X170071083Y-86071161D01*
X170073178Y-86083489D01*
X170058795Y-86146502D01*
X170058607Y-86147656D01*
X170058491Y-86147833D01*
X170057893Y-86150455D01*
X170056282Y-86154344D01*
X170011846Y-86220846D01*
X169905036Y-86327656D01*
X169859113Y-86373579D01*
X169859113Y-86456421D01*
X170011846Y-86609154D01*
X170056282Y-86675656D01*
X170057893Y-86679545D01*
X170065100Y-86721954D01*
X170071713Y-86753299D01*
X170071083Y-86757161D01*
X170073178Y-86769489D01*
X170058795Y-86832502D01*
X170058607Y-86833656D01*
X170058491Y-86833833D01*
X170057893Y-86836455D01*
X170056282Y-86840344D01*
X170031385Y-86875430D01*
X170013898Y-86902267D01*
X170010721Y-86904552D01*
X170003486Y-86914749D01*
X169948715Y-86949163D01*
X169947817Y-86949810D01*
X169947620Y-86949851D01*
X169945344Y-86951282D01*
X169941455Y-86952893D01*
X169901649Y-86960811D01*
X169862334Y-87001044D01*
X169854893Y-87038455D01*
X169853448Y-87041941D01*
X169853434Y-87042020D01*
X169847707Y-87056229D01*
X169852801Y-87105560D01*
X169853964Y-87107301D01*
X169855709Y-87109046D01*
X169953729Y-87255743D01*
X170021246Y-87418744D01*
X170055666Y-87591785D01*
X170055666Y-87768215D01*
X170021246Y-87941256D01*
X169953729Y-88104257D01*
X169855709Y-88250954D01*
X169730954Y-88375709D01*
X169584257Y-88473729D01*
X169421256Y-88541246D01*
X169248215Y-88575666D01*
X169071785Y-88575666D01*
X168898744Y-88541246D01*
X168735743Y-88473729D01*
X168589046Y-88375709D01*
X168587756Y-88374419D01*
X168548419Y-88366831D01*
X168524619Y-88371851D01*
X168522344Y-88373282D01*
X168518455Y-88374893D01*
X168469606Y-88384610D01*
X168430145Y-88424995D01*
X168422893Y-88461455D01*
X168421282Y-88465344D01*
X168396386Y-88500428D01*
X168378898Y-88527267D01*
X168375721Y-88529552D01*
X168368486Y-88539749D01*
X168313707Y-88574168D01*
X168312816Y-88574810D01*
X168312621Y-88574851D01*
X168310344Y-88576282D01*
X168306455Y-88577893D01*
X168264036Y-88585101D01*
X168232700Y-88591713D01*
X168228838Y-88591083D01*
X168216511Y-88593178D01*
X168153499Y-88578795D01*
X168152343Y-88578607D01*
X168152165Y-88578491D01*
X168149545Y-88577893D01*
X168145656Y-88576282D01*
X168079154Y-88531846D01*
X167926421Y-88379113D01*
X167843579Y-88379113D01*
X167690846Y-88531846D01*
X167624344Y-88576282D01*
X167620455Y-88577893D01*
X167578040Y-88585100D01*
X167546700Y-88591713D01*
X167542838Y-88591083D01*
X167530511Y-88593178D01*
X167467499Y-88578795D01*
X167466343Y-88578607D01*
X167466165Y-88578491D01*
X167463545Y-88577893D01*
X167459656Y-88576282D01*
X167424580Y-88551393D01*
X167397732Y-88533898D01*
X167395445Y-88530719D01*
X167385251Y-88523486D01*
X167350845Y-88468729D01*
X167350188Y-88467816D01*
X167350145Y-88467616D01*
X167348718Y-88465344D01*
X167347107Y-88461455D01*
X167339188Y-88421649D01*
X167298954Y-88382334D01*
X167261545Y-88374893D01*
X167258065Y-88373451D01*
X167257944Y-88373429D01*
X167243709Y-88367703D01*
X167194421Y-88372813D01*
X167192700Y-88373962D01*
X167190954Y-88375709D01*
X167044257Y-88473729D01*
X166881256Y-88541246D01*
X166708215Y-88575666D01*
X166531785Y-88575666D01*
X166358744Y-88541246D01*
X166195743Y-88473729D01*
X166049046Y-88375709D01*
X166047756Y-88374419D01*
X166008419Y-88366831D01*
X165984619Y-88371851D01*
X165982344Y-88373282D01*
X165978455Y-88374893D01*
X165929606Y-88384610D01*
X165890145Y-88424995D01*
X165882893Y-88461455D01*
X165881282Y-88465344D01*
X165856386Y-88500428D01*
X165838898Y-88527267D01*
X165835721Y-88529552D01*
X165828486Y-88539749D01*
X165773707Y-88574168D01*
X165772816Y-88574810D01*
X165772621Y-88574851D01*
X165770344Y-88576282D01*
X165766455Y-88577893D01*
X165724036Y-88585101D01*
X165692700Y-88591713D01*
X165688838Y-88591083D01*
X165676511Y-88593178D01*
X165613499Y-88578795D01*
X165612343Y-88578607D01*
X165612165Y-88578491D01*
X165609545Y-88577893D01*
X165605656Y-88576282D01*
X165539154Y-88531846D01*
X165386421Y-88379113D01*
X165303579Y-88379113D01*
X165150846Y-88531846D01*
X165084344Y-88576282D01*
X165080455Y-88577893D01*
X165038040Y-88585100D01*
X165006700Y-88591713D01*
X165002838Y-88591083D01*
X164990511Y-88593178D01*
X164927499Y-88578795D01*
X164926343Y-88578607D01*
X164926165Y-88578491D01*
X164923545Y-88577893D01*
X164919656Y-88576282D01*
X164884580Y-88551393D01*
X164857732Y-88533898D01*
X164855445Y-88530719D01*
X164845251Y-88523486D01*
X164810845Y-88468729D01*
X164810188Y-88467816D01*
X164810145Y-88467616D01*
X164808718Y-88465344D01*
X164807107Y-88461455D01*
X164799188Y-88421649D01*
X164758954Y-88382334D01*
X164721545Y-88374893D01*
X164718065Y-88373451D01*
X164717944Y-88373429D01*
X164703709Y-88367703D01*
X164654421Y-88372813D01*
X164652700Y-88373962D01*
X164650954Y-88375709D01*
X164504257Y-88473729D01*
X164341256Y-88541246D01*
X164168215Y-88575666D01*
X163991785Y-88575666D01*
X163818744Y-88541246D01*
X163655743Y-88473729D01*
X163509046Y-88375709D01*
X163507756Y-88374419D01*
X163468419Y-88366831D01*
X163444619Y-88371851D01*
X163442344Y-88373282D01*
X163438455Y-88374893D01*
X163389606Y-88384610D01*
X163350145Y-88424995D01*
X163342893Y-88461455D01*
X163341282Y-88465344D01*
X163316386Y-88500428D01*
X163298898Y-88527267D01*
X163295721Y-88529552D01*
X163288486Y-88539749D01*
X163233707Y-88574168D01*
X163232816Y-88574810D01*
X163232621Y-88574851D01*
X163230344Y-88576282D01*
X163226455Y-88577893D01*
X163184036Y-88585101D01*
X163152700Y-88591713D01*
X163148838Y-88591083D01*
X163136511Y-88593178D01*
X163073499Y-88578795D01*
X163072343Y-88578607D01*
X163072165Y-88578491D01*
X163069545Y-88577893D01*
X163065656Y-88576282D01*
X162999154Y-88531846D01*
X162846421Y-88379113D01*
X162763579Y-88379113D01*
X162610846Y-88531846D01*
X162544344Y-88576282D01*
X162540455Y-88577893D01*
X162498040Y-88585100D01*
X162466700Y-88591713D01*
X162462838Y-88591083D01*
X162450511Y-88593178D01*
X162387499Y-88578795D01*
X162386343Y-88578607D01*
X162386165Y-88578491D01*
X162383545Y-88577893D01*
X162379656Y-88576282D01*
X162344580Y-88551393D01*
X162317732Y-88533898D01*
X162315445Y-88530719D01*
X162305251Y-88523486D01*
X162270845Y-88468729D01*
X162270188Y-88467816D01*
X162270145Y-88467616D01*
X162268718Y-88465344D01*
X162267107Y-88461455D01*
X162259188Y-88421649D01*
X162218954Y-88382334D01*
X162181545Y-88374893D01*
X162178065Y-88373451D01*
X162177944Y-88373429D01*
X162163709Y-88367703D01*
X162114421Y-88372813D01*
X162112700Y-88373962D01*
X162110954Y-88375709D01*
X161964257Y-88473729D01*
X161801256Y-88541246D01*
X161628215Y-88575666D01*
X161451785Y-88575666D01*
X161278744Y-88541246D01*
X161115743Y-88473729D01*
X160969046Y-88375709D01*
X160967756Y-88374419D01*
X160928419Y-88366831D01*
X160904619Y-88371851D01*
X160902344Y-88373282D01*
X160898455Y-88374893D01*
X160849606Y-88384610D01*
X160810145Y-88424995D01*
X160802893Y-88461455D01*
X160801282Y-88465344D01*
X160776386Y-88500428D01*
X160758898Y-88527267D01*
X160755721Y-88529552D01*
X160748486Y-88539749D01*
X160693707Y-88574168D01*
X160692816Y-88574810D01*
X160692621Y-88574851D01*
X160690344Y-88576282D01*
X160686455Y-88577893D01*
X160644036Y-88585101D01*
X160612700Y-88591713D01*
X160608838Y-88591083D01*
X160596511Y-88593178D01*
X160533499Y-88578795D01*
X160532343Y-88578607D01*
X160532165Y-88578491D01*
X160529545Y-88577893D01*
X160525656Y-88576282D01*
X160459154Y-88531846D01*
X160306421Y-88379113D01*
X160223579Y-88379113D01*
X160070846Y-88531846D01*
X160004344Y-88576282D01*
X160000455Y-88577893D01*
X159958040Y-88585100D01*
X159926700Y-88591713D01*
X159922838Y-88591083D01*
X159910511Y-88593178D01*
X159847499Y-88578795D01*
X159846343Y-88578607D01*
X159846165Y-88578491D01*
X159843545Y-88577893D01*
X159839656Y-88576282D01*
X159804580Y-88551393D01*
X159777732Y-88533898D01*
X159775445Y-88530719D01*
X159765251Y-88523486D01*
X159730845Y-88468729D01*
X159730188Y-88467816D01*
X159730145Y-88467616D01*
X159728718Y-88465344D01*
X159727107Y-88461455D01*
X159719188Y-88421649D01*
X159678954Y-88382334D01*
X159641545Y-88374893D01*
X159638065Y-88373451D01*
X159637944Y-88373429D01*
X159623709Y-88367703D01*
X159574421Y-88372813D01*
X159572700Y-88373962D01*
X159570954Y-88375709D01*
X159424257Y-88473729D01*
X159261256Y-88541246D01*
X159088215Y-88575666D01*
X158911785Y-88575666D01*
X158738744Y-88541246D01*
X158575743Y-88473729D01*
X158429046Y-88375709D01*
X158427756Y-88374419D01*
X158388419Y-88366831D01*
X158364619Y-88371851D01*
X158362344Y-88373282D01*
X158358455Y-88374893D01*
X158309606Y-88384610D01*
X158270145Y-88424995D01*
X158262893Y-88461455D01*
X158261282Y-88465344D01*
X158236386Y-88500428D01*
X158218898Y-88527267D01*
X158215721Y-88529552D01*
X158208486Y-88539749D01*
X158153707Y-88574168D01*
X158152816Y-88574810D01*
X158152621Y-88574851D01*
X158150344Y-88576282D01*
X158146455Y-88577893D01*
X158104036Y-88585101D01*
X158072700Y-88591713D01*
X158068838Y-88591083D01*
X158056511Y-88593178D01*
X157993499Y-88578795D01*
X157992343Y-88578607D01*
X157992165Y-88578491D01*
X157989545Y-88577893D01*
X157985656Y-88576282D01*
X157919154Y-88531846D01*
X157766421Y-88379113D01*
X157683579Y-88379113D01*
X157530846Y-88531846D01*
X157464344Y-88576282D01*
X157460455Y-88577893D01*
X157418040Y-88585100D01*
X157386700Y-88591713D01*
X157382838Y-88591083D01*
X157370511Y-88593178D01*
X157307499Y-88578795D01*
X157306343Y-88578607D01*
X157306165Y-88578491D01*
X157303545Y-88577893D01*
X157299656Y-88576282D01*
X157264580Y-88551393D01*
X157237732Y-88533898D01*
X157235445Y-88530719D01*
X157225251Y-88523486D01*
X157190845Y-88468729D01*
X157190188Y-88467816D01*
X157190145Y-88467616D01*
X157188718Y-88465344D01*
X157187107Y-88461455D01*
X157179188Y-88421649D01*
X157138954Y-88382334D01*
X157101545Y-88374893D01*
X157098065Y-88373451D01*
X157097944Y-88373429D01*
X157083709Y-88367703D01*
X157034421Y-88372813D01*
X157032700Y-88373962D01*
X157030954Y-88375709D01*
X156884257Y-88473729D01*
X156721256Y-88541246D01*
X156548215Y-88575666D01*
X156371785Y-88575666D01*
X156198744Y-88541246D01*
X156035743Y-88473729D01*
X155889046Y-88375709D01*
X155887756Y-88374419D01*
X155848419Y-88366831D01*
X155824619Y-88371851D01*
X155822344Y-88373282D01*
X155818455Y-88374893D01*
X155769606Y-88384610D01*
X155730145Y-88424995D01*
X155722893Y-88461455D01*
X155721282Y-88465344D01*
X155696386Y-88500428D01*
X155678898Y-88527267D01*
X155675721Y-88529552D01*
X155668486Y-88539749D01*
X155613707Y-88574168D01*
X155612816Y-88574810D01*
X155612621Y-88574851D01*
X155610344Y-88576282D01*
X155606455Y-88577893D01*
X155564036Y-88585101D01*
X155532700Y-88591713D01*
X155528838Y-88591083D01*
X155516511Y-88593178D01*
X155453499Y-88578795D01*
X155452343Y-88578607D01*
X155452165Y-88578491D01*
X155449545Y-88577893D01*
X155445656Y-88576282D01*
X155379154Y-88531846D01*
X155226421Y-88379113D01*
X155143579Y-88379113D01*
X154990846Y-88531846D01*
X154924344Y-88576282D01*
X154920455Y-88577893D01*
X154878040Y-88585100D01*
X154846700Y-88591713D01*
X154842838Y-88591083D01*
X154830511Y-88593178D01*
X154767499Y-88578795D01*
X154766343Y-88578607D01*
X154766165Y-88578491D01*
X154763545Y-88577893D01*
X154759656Y-88576282D01*
X154724580Y-88551393D01*
X154697732Y-88533898D01*
X154695445Y-88530719D01*
X154685251Y-88523486D01*
X154650845Y-88468729D01*
X154650188Y-88467816D01*
X154650145Y-88467616D01*
X154648718Y-88465344D01*
X154647107Y-88461455D01*
X154639188Y-88421649D01*
X154598954Y-88382334D01*
X154561545Y-88374893D01*
X154558065Y-88373451D01*
X154557944Y-88373429D01*
X154543709Y-88367703D01*
X154494421Y-88372813D01*
X154492700Y-88373962D01*
X154490954Y-88375709D01*
X154344257Y-88473729D01*
X154181256Y-88541246D01*
X154008215Y-88575666D01*
X153831785Y-88575666D01*
X153658744Y-88541246D01*
X153495743Y-88473729D01*
X153349046Y-88375709D01*
X153347756Y-88374419D01*
X153308419Y-88366831D01*
X153284619Y-88371851D01*
X153282344Y-88373282D01*
X153278455Y-88374893D01*
X153229606Y-88384610D01*
X153190145Y-88424995D01*
X153182893Y-88461455D01*
X153181282Y-88465344D01*
X153156386Y-88500428D01*
X153138898Y-88527267D01*
X153135721Y-88529552D01*
X153128486Y-88539749D01*
X153073707Y-88574168D01*
X153072816Y-88574810D01*
X153072621Y-88574851D01*
X153070344Y-88576282D01*
X153066455Y-88577893D01*
X153024036Y-88585101D01*
X152992700Y-88591713D01*
X152988838Y-88591083D01*
X152976511Y-88593178D01*
X152913499Y-88578795D01*
X152912343Y-88578607D01*
X152912165Y-88578491D01*
X152909545Y-88577893D01*
X152905656Y-88576282D01*
X152839154Y-88531846D01*
X152686421Y-88379113D01*
X152603579Y-88379113D01*
X152450846Y-88531846D01*
X152384344Y-88576282D01*
X152380455Y-88577893D01*
X152338040Y-88585100D01*
X152306700Y-88591713D01*
X152302838Y-88591083D01*
X152290511Y-88593178D01*
X152227499Y-88578795D01*
X152226343Y-88578607D01*
X152226165Y-88578491D01*
X152223545Y-88577893D01*
X152219656Y-88576282D01*
X152184580Y-88551393D01*
X152157732Y-88533898D01*
X152155445Y-88530719D01*
X152145251Y-88523486D01*
X152110845Y-88468729D01*
X152110188Y-88467816D01*
X152110145Y-88467616D01*
X152108718Y-88465344D01*
X152107107Y-88461455D01*
X152099188Y-88421649D01*
X152058954Y-88382334D01*
X152021545Y-88374893D01*
X152018065Y-88373451D01*
X152017944Y-88373429D01*
X152003709Y-88367703D01*
X151954421Y-88372813D01*
X151952700Y-88373962D01*
X151950954Y-88375709D01*
X151804257Y-88473729D01*
X151641256Y-88541246D01*
X151468215Y-88575666D01*
X151291785Y-88575666D01*
X151118744Y-88541246D01*
X150955743Y-88473729D01*
X150809046Y-88375709D01*
X150807756Y-88374419D01*
X150768419Y-88366831D01*
X150744619Y-88371851D01*
X150742344Y-88373282D01*
X150738455Y-88374893D01*
X150689606Y-88384610D01*
X150650145Y-88424995D01*
X150642893Y-88461455D01*
X150641282Y-88465344D01*
X150616386Y-88500428D01*
X150598898Y-88527267D01*
X150595721Y-88529552D01*
X150588486Y-88539749D01*
X150533707Y-88574168D01*
X150532816Y-88574810D01*
X150532621Y-88574851D01*
X150530344Y-88576282D01*
X150526455Y-88577893D01*
X150484036Y-88585101D01*
X150452700Y-88591713D01*
X150448838Y-88591083D01*
X150436511Y-88593178D01*
X150373499Y-88578795D01*
X150372343Y-88578607D01*
X150372165Y-88578491D01*
X150369545Y-88577893D01*
X150365656Y-88576282D01*
X150299154Y-88531846D01*
X150146421Y-88379113D01*
X150063579Y-88379113D01*
X149910846Y-88531846D01*
X149844344Y-88576282D01*
X149840455Y-88577893D01*
X149798040Y-88585100D01*
X149766700Y-88591713D01*
X149762838Y-88591083D01*
X149750511Y-88593178D01*
X149687499Y-88578795D01*
X149686343Y-88578607D01*
X149686165Y-88578491D01*
X149683545Y-88577893D01*
X149679656Y-88576282D01*
X149644580Y-88551393D01*
X149617732Y-88533898D01*
X149615445Y-88530719D01*
X149605251Y-88523486D01*
X149570845Y-88468729D01*
X149570188Y-88467816D01*
X149570145Y-88467616D01*
X149568718Y-88465344D01*
X149567107Y-88461455D01*
X149559188Y-88421649D01*
X149518954Y-88382334D01*
X149481545Y-88374893D01*
X149478065Y-88373451D01*
X149477944Y-88373429D01*
X149463709Y-88367703D01*
X149414421Y-88372813D01*
X149412700Y-88373962D01*
X149410954Y-88375709D01*
X149264257Y-88473729D01*
X149101256Y-88541246D01*
X148928215Y-88575666D01*
X148751785Y-88575666D01*
X148578744Y-88541246D01*
X148415743Y-88473729D01*
X148269046Y-88375709D01*
X148267756Y-88374419D01*
X148228419Y-88366831D01*
X148204619Y-88371851D01*
X148202344Y-88373282D01*
X148198455Y-88374893D01*
X148149606Y-88384610D01*
X148110145Y-88424995D01*
X148102893Y-88461455D01*
X148101282Y-88465344D01*
X148076386Y-88500428D01*
X148058898Y-88527267D01*
X148055721Y-88529552D01*
X148048486Y-88539749D01*
X147993707Y-88574168D01*
X147992816Y-88574810D01*
X147992621Y-88574851D01*
X147990344Y-88576282D01*
X147986455Y-88577893D01*
X147944036Y-88585101D01*
X147912700Y-88591713D01*
X147908838Y-88591083D01*
X147896511Y-88593178D01*
X147833499Y-88578795D01*
X147832343Y-88578607D01*
X147832165Y-88578491D01*
X147829545Y-88577893D01*
X147825656Y-88576282D01*
X147759154Y-88531846D01*
X147606421Y-88379113D01*
X147523579Y-88379113D01*
X147370846Y-88531846D01*
X147304344Y-88576282D01*
X147300455Y-88577893D01*
X147258040Y-88585100D01*
X147226700Y-88591713D01*
X147222838Y-88591083D01*
X147210511Y-88593178D01*
X147147499Y-88578795D01*
X147146343Y-88578607D01*
X147146165Y-88578491D01*
X147143545Y-88577893D01*
X147139656Y-88576282D01*
X147104580Y-88551393D01*
X147077732Y-88533898D01*
X147075445Y-88530719D01*
X147065251Y-88523486D01*
X147030845Y-88468729D01*
X147030188Y-88467816D01*
X147030145Y-88467616D01*
X147028718Y-88465344D01*
X147027107Y-88461455D01*
X147019188Y-88421649D01*
X146978954Y-88382334D01*
X146941545Y-88374893D01*
X146938065Y-88373451D01*
X146937944Y-88373429D01*
X146923709Y-88367703D01*
X146874421Y-88372813D01*
X146872700Y-88373962D01*
X146870954Y-88375709D01*
X146724257Y-88473729D01*
X146561256Y-88541246D01*
X146388215Y-88575666D01*
X146211785Y-88575666D01*
X146038744Y-88541246D01*
X145875743Y-88473729D01*
X145729046Y-88375709D01*
X145727756Y-88374419D01*
X145688419Y-88366831D01*
X145664619Y-88371851D01*
X145662344Y-88373282D01*
X145658455Y-88374893D01*
X145609606Y-88384610D01*
X145570145Y-88424995D01*
X145562893Y-88461455D01*
X145561282Y-88465344D01*
X145536386Y-88500428D01*
X145518898Y-88527267D01*
X145515721Y-88529552D01*
X145508486Y-88539749D01*
X145453707Y-88574168D01*
X145452816Y-88574810D01*
X145452621Y-88574851D01*
X145450344Y-88576282D01*
X145446455Y-88577893D01*
X145404036Y-88585101D01*
X145372700Y-88591713D01*
X145368838Y-88591083D01*
X145356511Y-88593178D01*
X145293499Y-88578795D01*
X145292343Y-88578607D01*
X145292165Y-88578491D01*
X145289545Y-88577893D01*
X145285656Y-88576282D01*
X145219154Y-88531846D01*
X145066421Y-88379113D01*
X144983579Y-88379113D01*
X144830846Y-88531846D01*
X144764344Y-88576282D01*
X144760455Y-88577893D01*
X144718040Y-88585100D01*
X144686700Y-88591713D01*
X144682838Y-88591083D01*
X144670511Y-88593178D01*
X144607499Y-88578795D01*
X144606343Y-88578607D01*
X144606165Y-88578491D01*
X144603545Y-88577893D01*
X144599656Y-88576282D01*
X144564580Y-88551393D01*
X144537732Y-88533898D01*
X144535445Y-88530719D01*
X144525251Y-88523486D01*
X144490845Y-88468729D01*
X144490188Y-88467816D01*
X144490145Y-88467616D01*
X144488718Y-88465344D01*
X144487107Y-88461455D01*
X144479188Y-88421649D01*
X144438954Y-88382334D01*
X144401545Y-88374893D01*
X144398065Y-88373451D01*
X144397944Y-88373429D01*
X144383709Y-88367703D01*
X144334421Y-88372813D01*
X144332700Y-88373962D01*
X144330954Y-88375709D01*
X144184257Y-88473729D01*
X144021256Y-88541246D01*
X143848215Y-88575666D01*
X143671785Y-88575666D01*
X143498744Y-88541246D01*
X143335743Y-88473729D01*
X143189046Y-88375709D01*
X143187756Y-88374419D01*
X143148419Y-88366831D01*
X143124619Y-88371851D01*
X143122344Y-88373282D01*
X143118455Y-88374893D01*
X143069606Y-88384610D01*
X143030145Y-88424995D01*
X143022893Y-88461455D01*
X143021282Y-88465344D01*
X142996386Y-88500428D01*
X142978898Y-88527267D01*
X142975721Y-88529552D01*
X142968486Y-88539749D01*
X142913707Y-88574168D01*
X142912816Y-88574810D01*
X142912621Y-88574851D01*
X142910344Y-88576282D01*
X142906455Y-88577893D01*
X142864036Y-88585101D01*
X142832700Y-88591713D01*
X142828838Y-88591083D01*
X142816511Y-88593178D01*
X142753499Y-88578795D01*
X142752343Y-88578607D01*
X142752165Y-88578491D01*
X142749545Y-88577893D01*
X142745656Y-88576282D01*
X142679154Y-88531846D01*
X142526421Y-88379113D01*
X142443579Y-88379113D01*
X142290846Y-88531846D01*
X142224344Y-88576282D01*
X142220455Y-88577893D01*
X142178040Y-88585100D01*
X142146700Y-88591713D01*
X142142838Y-88591083D01*
X142130511Y-88593178D01*
X142067499Y-88578795D01*
X142066343Y-88578607D01*
X142066165Y-88578491D01*
X142063545Y-88577893D01*
X142059656Y-88576282D01*
X142024580Y-88551393D01*
X141997732Y-88533898D01*
X141995445Y-88530719D01*
X141985251Y-88523486D01*
X141950845Y-88468729D01*
X141950188Y-88467816D01*
X141950145Y-88467616D01*
X141948718Y-88465344D01*
X141947107Y-88461455D01*
X141939188Y-88421649D01*
X141898954Y-88382334D01*
X141861545Y-88374893D01*
X141858065Y-88373451D01*
X141857944Y-88373429D01*
X141843709Y-88367703D01*
X141794421Y-88372813D01*
X141792700Y-88373962D01*
X141790954Y-88375709D01*
X141644257Y-88473729D01*
X141481256Y-88541246D01*
X141308215Y-88575666D01*
X141131785Y-88575666D01*
X140958744Y-88541246D01*
X140795743Y-88473729D01*
X140649046Y-88375709D01*
X140647756Y-88374419D01*
X140608419Y-88366831D01*
X140584619Y-88371851D01*
X140582344Y-88373282D01*
X140578455Y-88374893D01*
X140529606Y-88384610D01*
X140490145Y-88424995D01*
X140482893Y-88461455D01*
X140481282Y-88465344D01*
X140456386Y-88500428D01*
X140438898Y-88527267D01*
X140435721Y-88529552D01*
X140428486Y-88539749D01*
X140373707Y-88574168D01*
X140372816Y-88574810D01*
X140372621Y-88574851D01*
X140370344Y-88576282D01*
X140366455Y-88577893D01*
X140324036Y-88585101D01*
X140292700Y-88591713D01*
X140288838Y-88591083D01*
X140276511Y-88593178D01*
X140213499Y-88578795D01*
X140212343Y-88578607D01*
X140212165Y-88578491D01*
X140209545Y-88577893D01*
X140205656Y-88576282D01*
X140139154Y-88531846D01*
X139986421Y-88379113D01*
X139903579Y-88379113D01*
X139750846Y-88531846D01*
X139684344Y-88576282D01*
X139680455Y-88577893D01*
X139638040Y-88585100D01*
X139606700Y-88591713D01*
X139602838Y-88591083D01*
X139590511Y-88593178D01*
X139527499Y-88578795D01*
X139526343Y-88578607D01*
X139526165Y-88578491D01*
X139523545Y-88577893D01*
X139519656Y-88576282D01*
X139484580Y-88551393D01*
X139457732Y-88533898D01*
X139455445Y-88530719D01*
X139445251Y-88523486D01*
X139410845Y-88468729D01*
X139410188Y-88467816D01*
X139410145Y-88467616D01*
X139408718Y-88465344D01*
X139407107Y-88461455D01*
X139399188Y-88421649D01*
X139358954Y-88382334D01*
X139321545Y-88374893D01*
X139318065Y-88373451D01*
X139317944Y-88373429D01*
X139303709Y-88367703D01*
X139254421Y-88372813D01*
X139252700Y-88373962D01*
X139250954Y-88375709D01*
X139104257Y-88473729D01*
X138941256Y-88541246D01*
X138768215Y-88575666D01*
X138591785Y-88575666D01*
X138418744Y-88541246D01*
X138255743Y-88473729D01*
X138109046Y-88375709D01*
X138107756Y-88374419D01*
X138068419Y-88366831D01*
X138044619Y-88371851D01*
X138042344Y-88373282D01*
X138038455Y-88374893D01*
X137989606Y-88384610D01*
X137950145Y-88424995D01*
X137942893Y-88461455D01*
X137941282Y-88465344D01*
X137916386Y-88500428D01*
X137898898Y-88527267D01*
X137895721Y-88529552D01*
X137888486Y-88539749D01*
X137833707Y-88574168D01*
X137832816Y-88574810D01*
X137832621Y-88574851D01*
X137830344Y-88576282D01*
X137826455Y-88577893D01*
X137784036Y-88585101D01*
X137752700Y-88591713D01*
X137748838Y-88591083D01*
X137736511Y-88593178D01*
X137673499Y-88578795D01*
X137672343Y-88578607D01*
X137672165Y-88578491D01*
X137669545Y-88577893D01*
X137665656Y-88576282D01*
X137599154Y-88531846D01*
X137446421Y-88379113D01*
X137363579Y-88379113D01*
X137210846Y-88531846D01*
X137144344Y-88576282D01*
X137140455Y-88577893D01*
X137098040Y-88585100D01*
X137066700Y-88591713D01*
X137062838Y-88591083D01*
X137050511Y-88593178D01*
X136987499Y-88578795D01*
X136986343Y-88578607D01*
X136986165Y-88578491D01*
X136983545Y-88577893D01*
X136979656Y-88576282D01*
X136944580Y-88551393D01*
X136917732Y-88533898D01*
X136915445Y-88530719D01*
X136905251Y-88523486D01*
X136870845Y-88468729D01*
X136870188Y-88467816D01*
X136870145Y-88467616D01*
X136868718Y-88465344D01*
X136867107Y-88461455D01*
X136859188Y-88421649D01*
X136818954Y-88382334D01*
X136781545Y-88374893D01*
X136778065Y-88373451D01*
X136777944Y-88373429D01*
X136763709Y-88367703D01*
X136714421Y-88372813D01*
X136712700Y-88373962D01*
X136710954Y-88375709D01*
X136564257Y-88473729D01*
X136401256Y-88541246D01*
X136228215Y-88575666D01*
X136051785Y-88575666D01*
X135878744Y-88541246D01*
X135715743Y-88473729D01*
X135569046Y-88375709D01*
X135567756Y-88374419D01*
X135528419Y-88366831D01*
X135504619Y-88371851D01*
X135502344Y-88373282D01*
X135498455Y-88374893D01*
X135449606Y-88384610D01*
X135410145Y-88424995D01*
X135402893Y-88461455D01*
X135401282Y-88465344D01*
X135376386Y-88500428D01*
X135358898Y-88527267D01*
X135355721Y-88529552D01*
X135348486Y-88539749D01*
X135293707Y-88574168D01*
X135292816Y-88574810D01*
X135292621Y-88574851D01*
X135290344Y-88576282D01*
X135286455Y-88577893D01*
X135244036Y-88585101D01*
X135212700Y-88591713D01*
X135208838Y-88591083D01*
X135196511Y-88593178D01*
X135133499Y-88578795D01*
X135132343Y-88578607D01*
X135132165Y-88578491D01*
X135129545Y-88577893D01*
X135125656Y-88576282D01*
X135059154Y-88531846D01*
X134906421Y-88379113D01*
X134823579Y-88379113D01*
X134670846Y-88531846D01*
X134604344Y-88576282D01*
X134600455Y-88577893D01*
X134558040Y-88585100D01*
X134526700Y-88591713D01*
X134522838Y-88591083D01*
X134510511Y-88593178D01*
X134447499Y-88578795D01*
X134446343Y-88578607D01*
X134446165Y-88578491D01*
X134443545Y-88577893D01*
X134439656Y-88576282D01*
X134404580Y-88551393D01*
X134377732Y-88533898D01*
X134375445Y-88530719D01*
X134365251Y-88523486D01*
X134330845Y-88468729D01*
X134330188Y-88467816D01*
X134330145Y-88467616D01*
X134328718Y-88465344D01*
X134327107Y-88461455D01*
X134319188Y-88421649D01*
X134278954Y-88382334D01*
X134241545Y-88374893D01*
X134238065Y-88373451D01*
X134237944Y-88373429D01*
X134223709Y-88367703D01*
X134174421Y-88372813D01*
X134172700Y-88373962D01*
X134170954Y-88375709D01*
X134024257Y-88473729D01*
X133861256Y-88541246D01*
X133688215Y-88575666D01*
X133511785Y-88575666D01*
X133338744Y-88541246D01*
X133175743Y-88473729D01*
X133029046Y-88375709D01*
X133027756Y-88374419D01*
X132988419Y-88366831D01*
X132964619Y-88371851D01*
X132962344Y-88373282D01*
X132958455Y-88374893D01*
X132909606Y-88384610D01*
X132870145Y-88424995D01*
X132862893Y-88461455D01*
X132861282Y-88465344D01*
X132836386Y-88500428D01*
X132818898Y-88527267D01*
X132815721Y-88529552D01*
X132808486Y-88539749D01*
X132753707Y-88574168D01*
X132752816Y-88574810D01*
X132752621Y-88574851D01*
X132750344Y-88576282D01*
X132746455Y-88577893D01*
X132704036Y-88585101D01*
X132672700Y-88591713D01*
X132668838Y-88591083D01*
X132656511Y-88593178D01*
X132593499Y-88578795D01*
X132592343Y-88578607D01*
X132592165Y-88578491D01*
X132589545Y-88577893D01*
X132585656Y-88576282D01*
X132519154Y-88531846D01*
X132366421Y-88379113D01*
X132283579Y-88379113D01*
X132130846Y-88531846D01*
X132064344Y-88576282D01*
X132060455Y-88577893D01*
X132018040Y-88585100D01*
X131986700Y-88591713D01*
X131982838Y-88591083D01*
X131970511Y-88593178D01*
X131907499Y-88578795D01*
X131906343Y-88578607D01*
X131906165Y-88578491D01*
X131903545Y-88577893D01*
X131899656Y-88576282D01*
X131864580Y-88551393D01*
X131837732Y-88533898D01*
X131835445Y-88530719D01*
X131825251Y-88523486D01*
X131790845Y-88468729D01*
X131790188Y-88467816D01*
X131790145Y-88467616D01*
X131788718Y-88465344D01*
X131787107Y-88461455D01*
X131779188Y-88421649D01*
X131738954Y-88382334D01*
X131701545Y-88374893D01*
X131698065Y-88373451D01*
X131697944Y-88373429D01*
X131683709Y-88367703D01*
X131634421Y-88372813D01*
X131632700Y-88373962D01*
X131630954Y-88375709D01*
X131484257Y-88473729D01*
X131321256Y-88541246D01*
X131148215Y-88575666D01*
X130971785Y-88575666D01*
X130798744Y-88541246D01*
X130635743Y-88473729D01*
X130489046Y-88375709D01*
X130487756Y-88374419D01*
X130448419Y-88366831D01*
X130424619Y-88371851D01*
X130422344Y-88373282D01*
X130418455Y-88374893D01*
X130369606Y-88384610D01*
X130330145Y-88424995D01*
X130322893Y-88461455D01*
X130321282Y-88465344D01*
X130296386Y-88500428D01*
X130278898Y-88527267D01*
X130275721Y-88529552D01*
X130268486Y-88539749D01*
X130213707Y-88574168D01*
X130212816Y-88574810D01*
X130212621Y-88574851D01*
X130210344Y-88576282D01*
X130206455Y-88577893D01*
X130164036Y-88585101D01*
X130132700Y-88591713D01*
X130128838Y-88591083D01*
X130116511Y-88593178D01*
X130053499Y-88578795D01*
X130052343Y-88578607D01*
X130052165Y-88578491D01*
X130049545Y-88577893D01*
X130045656Y-88576282D01*
X129979154Y-88531846D01*
X129826421Y-88379113D01*
X129743579Y-88379113D01*
X129590846Y-88531846D01*
X129524344Y-88576282D01*
X129520455Y-88577893D01*
X129478040Y-88585100D01*
X129446700Y-88591713D01*
X129442838Y-88591083D01*
X129430511Y-88593178D01*
X129367499Y-88578795D01*
X129366343Y-88578607D01*
X129366165Y-88578491D01*
X129363545Y-88577893D01*
X129359656Y-88576282D01*
X129324580Y-88551393D01*
X129297732Y-88533898D01*
X129295445Y-88530719D01*
X129285251Y-88523486D01*
X129250845Y-88468729D01*
X129250188Y-88467816D01*
X129250145Y-88467616D01*
X129248718Y-88465344D01*
X129247107Y-88461455D01*
X129239188Y-88421649D01*
X129198954Y-88382334D01*
X129161545Y-88374893D01*
X129158065Y-88373451D01*
X129157944Y-88373429D01*
X129143709Y-88367703D01*
X129094421Y-88372813D01*
X129092700Y-88373962D01*
X129090954Y-88375709D01*
X128944257Y-88473729D01*
X128781256Y-88541246D01*
X128608215Y-88575666D01*
X128431785Y-88575666D01*
X128258744Y-88541246D01*
X128095743Y-88473729D01*
X127949046Y-88375709D01*
X127947756Y-88374419D01*
X127908419Y-88366831D01*
X127884619Y-88371851D01*
X127882344Y-88373282D01*
X127878455Y-88374893D01*
X127829606Y-88384610D01*
X127790145Y-88424995D01*
X127782893Y-88461455D01*
X127781282Y-88465344D01*
X127756386Y-88500428D01*
X127738898Y-88527267D01*
X127735721Y-88529552D01*
X127728486Y-88539749D01*
X127673707Y-88574168D01*
X127672816Y-88574810D01*
X127672621Y-88574851D01*
X127670344Y-88576282D01*
X127666455Y-88577893D01*
X127624036Y-88585101D01*
X127592700Y-88591713D01*
X127588838Y-88591083D01*
X127576511Y-88593178D01*
X127513499Y-88578795D01*
X127512343Y-88578607D01*
X127512165Y-88578491D01*
X127509545Y-88577893D01*
X127505656Y-88576282D01*
X127439154Y-88531846D01*
X127286421Y-88379113D01*
X127203579Y-88379113D01*
X127050846Y-88531846D01*
X126984344Y-88576282D01*
X126980455Y-88577893D01*
X126938040Y-88585100D01*
X126906700Y-88591713D01*
X126902838Y-88591083D01*
X126890511Y-88593178D01*
X126827499Y-88578795D01*
X126826343Y-88578607D01*
X126826165Y-88578491D01*
X126823545Y-88577893D01*
X126819656Y-88576282D01*
X126784580Y-88551393D01*
X126757732Y-88533898D01*
X126755445Y-88530719D01*
X126745251Y-88523486D01*
X126710845Y-88468729D01*
X126710188Y-88467816D01*
X126710145Y-88467616D01*
X126708718Y-88465344D01*
X126707107Y-88461455D01*
X126699188Y-88421649D01*
X126658954Y-88382334D01*
X126621545Y-88374893D01*
X126618065Y-88373451D01*
X126617944Y-88373429D01*
X126603709Y-88367703D01*
X126554421Y-88372813D01*
X126552700Y-88373962D01*
X126550954Y-88375709D01*
X126404257Y-88473729D01*
X126241256Y-88541246D01*
X126068215Y-88575666D01*
X125891785Y-88575666D01*
X125718744Y-88541246D01*
X125555743Y-88473729D01*
X125409046Y-88375709D01*
X125407756Y-88374419D01*
X125368419Y-88366831D01*
X125344619Y-88371851D01*
X125342344Y-88373282D01*
X125338455Y-88374893D01*
X125289606Y-88384610D01*
X125250145Y-88424995D01*
X125242893Y-88461455D01*
X125241282Y-88465344D01*
X125216386Y-88500428D01*
X125198898Y-88527267D01*
X125195721Y-88529552D01*
X125188486Y-88539749D01*
X125133707Y-88574168D01*
X125132816Y-88574810D01*
X125132621Y-88574851D01*
X125130344Y-88576282D01*
X125126455Y-88577893D01*
X125084036Y-88585101D01*
X125052700Y-88591713D01*
X125048838Y-88591083D01*
X125036511Y-88593178D01*
X124973499Y-88578795D01*
X124972343Y-88578607D01*
X124972165Y-88578491D01*
X124969545Y-88577893D01*
X124965656Y-88576282D01*
X124899154Y-88531846D01*
X124746421Y-88379113D01*
X124663579Y-88379113D01*
X124510846Y-88531846D01*
X124444344Y-88576282D01*
X124440455Y-88577893D01*
X124398040Y-88585100D01*
X124366700Y-88591713D01*
X124362838Y-88591083D01*
X124350511Y-88593178D01*
X124287499Y-88578795D01*
X124286343Y-88578607D01*
X124286165Y-88578491D01*
X124283545Y-88577893D01*
X124279656Y-88576282D01*
X124244580Y-88551393D01*
X124217732Y-88533898D01*
X124215445Y-88530719D01*
X124205251Y-88523486D01*
X124170845Y-88468729D01*
X124170188Y-88467816D01*
X124170145Y-88467616D01*
X124168718Y-88465344D01*
X124167107Y-88461455D01*
X124159188Y-88421649D01*
X124118954Y-88382334D01*
X124081545Y-88374893D01*
X124078065Y-88373451D01*
X124077944Y-88373429D01*
X124063709Y-88367703D01*
X124014421Y-88372813D01*
X124012700Y-88373962D01*
X124010954Y-88375709D01*
X123864257Y-88473729D01*
X123701256Y-88541246D01*
X123528215Y-88575666D01*
X123351785Y-88575666D01*
X123178744Y-88541246D01*
X123015743Y-88473729D01*
X122869046Y-88375709D01*
X122867756Y-88374419D01*
X122828419Y-88366831D01*
X122804619Y-88371851D01*
X122802344Y-88373282D01*
X122798455Y-88374893D01*
X122749606Y-88384610D01*
X122710145Y-88424995D01*
X122702893Y-88461455D01*
X122701282Y-88465344D01*
X122676386Y-88500428D01*
X122658898Y-88527267D01*
X122655721Y-88529552D01*
X122648486Y-88539749D01*
X122593707Y-88574168D01*
X122592816Y-88574810D01*
X122592621Y-88574851D01*
X122590344Y-88576282D01*
X122586455Y-88577893D01*
X122544036Y-88585101D01*
X122512700Y-88591713D01*
X122508838Y-88591083D01*
X122496511Y-88593178D01*
X122433499Y-88578795D01*
X122432343Y-88578607D01*
X122432165Y-88578491D01*
X122429545Y-88577893D01*
X122425656Y-88576282D01*
X122359154Y-88531846D01*
X122206421Y-88379113D01*
X122123579Y-88379113D01*
X121970846Y-88531846D01*
X121904344Y-88576282D01*
X121900455Y-88577893D01*
X121858040Y-88585100D01*
X121826700Y-88591713D01*
X121822838Y-88591083D01*
X121810511Y-88593178D01*
X121747499Y-88578795D01*
X121746343Y-88578607D01*
X121746165Y-88578491D01*
X121743545Y-88577893D01*
X121739656Y-88576282D01*
X121704580Y-88551393D01*
X121677732Y-88533898D01*
X121675445Y-88530719D01*
X121665251Y-88523486D01*
X121630845Y-88468729D01*
X121630188Y-88467816D01*
X121630145Y-88467616D01*
X121628718Y-88465344D01*
X121627107Y-88461455D01*
X121619188Y-88421649D01*
X121578954Y-88382334D01*
X121541545Y-88374893D01*
X121538065Y-88373451D01*
X121537944Y-88373429D01*
X121523709Y-88367703D01*
X121474421Y-88372813D01*
X121472700Y-88373962D01*
X121470954Y-88375709D01*
X121324257Y-88473729D01*
X121161256Y-88541246D01*
X120988215Y-88575666D01*
X120811785Y-88575666D01*
X120638744Y-88541246D01*
X120475743Y-88473729D01*
X120329046Y-88375709D01*
X120327756Y-88374419D01*
X120288419Y-88366831D01*
X120264619Y-88371851D01*
X120262344Y-88373282D01*
X120258455Y-88374893D01*
X120209606Y-88384610D01*
X120170145Y-88424995D01*
X120162893Y-88461455D01*
X120161282Y-88465344D01*
X120136386Y-88500428D01*
X120118898Y-88527267D01*
X120115721Y-88529552D01*
X120108486Y-88539749D01*
X120053707Y-88574168D01*
X120052816Y-88574810D01*
X120052621Y-88574851D01*
X120050344Y-88576282D01*
X120046455Y-88577893D01*
X120004036Y-88585101D01*
X119972700Y-88591713D01*
X119968838Y-88591083D01*
X119956511Y-88593178D01*
X119893499Y-88578795D01*
X119892343Y-88578607D01*
X119892165Y-88578491D01*
X119889545Y-88577893D01*
X119885656Y-88576282D01*
X119819154Y-88531846D01*
X119666421Y-88379113D01*
X119583579Y-88379113D01*
X119430846Y-88531846D01*
X119364344Y-88576282D01*
X119360455Y-88577893D01*
X119318040Y-88585100D01*
X119286700Y-88591713D01*
X119282838Y-88591083D01*
X119270511Y-88593178D01*
X119207499Y-88578795D01*
X119206343Y-88578607D01*
X119206165Y-88578491D01*
X119203545Y-88577893D01*
X119199656Y-88576282D01*
X119164580Y-88551393D01*
X119137732Y-88533898D01*
X119135445Y-88530719D01*
X119125251Y-88523486D01*
X119090845Y-88468729D01*
X119090188Y-88467816D01*
X119090145Y-88467616D01*
X119088718Y-88465344D01*
X119087107Y-88461455D01*
X119079188Y-88421649D01*
X119038954Y-88382334D01*
X119001545Y-88374893D01*
X118998065Y-88373451D01*
X118997944Y-88373429D01*
X118983709Y-88367703D01*
X118934421Y-88372813D01*
X118932700Y-88373962D01*
X118930954Y-88375709D01*
X118784257Y-88473729D01*
X118621256Y-88541246D01*
X118448215Y-88575666D01*
X118271785Y-88575666D01*
X118098744Y-88541246D01*
X117935743Y-88473729D01*
X117789046Y-88375709D01*
X117787756Y-88374419D01*
X117748419Y-88366831D01*
X117724619Y-88371851D01*
X117722344Y-88373282D01*
X117718455Y-88374893D01*
X117669606Y-88384610D01*
X117630145Y-88424995D01*
X117622893Y-88461455D01*
X117621282Y-88465344D01*
X117596386Y-88500428D01*
X117578898Y-88527267D01*
X117575721Y-88529552D01*
X117568486Y-88539749D01*
X117513707Y-88574168D01*
X117512816Y-88574810D01*
X117512621Y-88574851D01*
X117510344Y-88576282D01*
X117506455Y-88577893D01*
X117464036Y-88585101D01*
X117432700Y-88591713D01*
X117428838Y-88591083D01*
X117416511Y-88593178D01*
X117353499Y-88578795D01*
X117352343Y-88578607D01*
X117352165Y-88578491D01*
X117349545Y-88577893D01*
X117345656Y-88576282D01*
X117279154Y-88531846D01*
X117126421Y-88379113D01*
X117043579Y-88379113D01*
X116890846Y-88531846D01*
X116824344Y-88576282D01*
X116820455Y-88577893D01*
X116778040Y-88585100D01*
X116746700Y-88591713D01*
X116742838Y-88591083D01*
X116730511Y-88593178D01*
X116667499Y-88578795D01*
X116666343Y-88578607D01*
X116666165Y-88578491D01*
X116663545Y-88577893D01*
X116659656Y-88576282D01*
X116624580Y-88551393D01*
X116597732Y-88533898D01*
X116595445Y-88530719D01*
X116585251Y-88523486D01*
X116550845Y-88468729D01*
X116550188Y-88467816D01*
X116550145Y-88467616D01*
X116548718Y-88465344D01*
X116547107Y-88461455D01*
X116539188Y-88421649D01*
X116498954Y-88382334D01*
X116461545Y-88374893D01*
X116458065Y-88373451D01*
X116457944Y-88373429D01*
X116443709Y-88367703D01*
X116394421Y-88372813D01*
X116392700Y-88373962D01*
X116390954Y-88375709D01*
X116244257Y-88473729D01*
X116081256Y-88541246D01*
X115908215Y-88575666D01*
X115731785Y-88575666D01*
X115558744Y-88541246D01*
X115395743Y-88473729D01*
X115249046Y-88375709D01*
X115247756Y-88374419D01*
X115208419Y-88366831D01*
X115184619Y-88371851D01*
X115182344Y-88373282D01*
X115178455Y-88374893D01*
X115129606Y-88384610D01*
X115090145Y-88424995D01*
X115082893Y-88461455D01*
X115081282Y-88465344D01*
X115056386Y-88500428D01*
X115038898Y-88527267D01*
X115035721Y-88529552D01*
X115028486Y-88539749D01*
X114973707Y-88574168D01*
X114972816Y-88574810D01*
X114972621Y-88574851D01*
X114970344Y-88576282D01*
X114966455Y-88577893D01*
X114924036Y-88585101D01*
X114892700Y-88591713D01*
X114888838Y-88591083D01*
X114876511Y-88593178D01*
X114813499Y-88578795D01*
X114812343Y-88578607D01*
X114812165Y-88578491D01*
X114809545Y-88577893D01*
X114805656Y-88576282D01*
X114739154Y-88531846D01*
X114586421Y-88379113D01*
X114503579Y-88379113D01*
X114350846Y-88531846D01*
X114284344Y-88576282D01*
X114280455Y-88577893D01*
X114238040Y-88585100D01*
X114206700Y-88591713D01*
X114202838Y-88591083D01*
X114190511Y-88593178D01*
X114127499Y-88578795D01*
X114126343Y-88578607D01*
X114126165Y-88578491D01*
X114123545Y-88577893D01*
X114119656Y-88576282D01*
X114084580Y-88551393D01*
X114057732Y-88533898D01*
X114055445Y-88530719D01*
X114045251Y-88523486D01*
X114010845Y-88468729D01*
X114010188Y-88467816D01*
X114010145Y-88467616D01*
X114008718Y-88465344D01*
X114007107Y-88461455D01*
X113999188Y-88421649D01*
X113958954Y-88382334D01*
X113921545Y-88374893D01*
X113918065Y-88373451D01*
X113917944Y-88373429D01*
X113903709Y-88367703D01*
X113854421Y-88372813D01*
X113852700Y-88373962D01*
X113850954Y-88375709D01*
X113704257Y-88473729D01*
X113541256Y-88541246D01*
X113368215Y-88575666D01*
X113191785Y-88575666D01*
X113018744Y-88541246D01*
X112855743Y-88473729D01*
X112709046Y-88375709D01*
X112707756Y-88374419D01*
X112668419Y-88366831D01*
X112644619Y-88371851D01*
X112642344Y-88373282D01*
X112638455Y-88374893D01*
X112589606Y-88384610D01*
X112550145Y-88424995D01*
X112542893Y-88461455D01*
X112541282Y-88465344D01*
X112516386Y-88500428D01*
X112498898Y-88527267D01*
X112495721Y-88529552D01*
X112488486Y-88539749D01*
X112433707Y-88574168D01*
X112432816Y-88574810D01*
X112432621Y-88574851D01*
X112430344Y-88576282D01*
X112426455Y-88577893D01*
X112384036Y-88585101D01*
X112352700Y-88591713D01*
X112348838Y-88591083D01*
X112336511Y-88593178D01*
X112273499Y-88578795D01*
X112272343Y-88578607D01*
X112272165Y-88578491D01*
X112269545Y-88577893D01*
X112265656Y-88576282D01*
X112199154Y-88531846D01*
X112046421Y-88379113D01*
X111963579Y-88379113D01*
X111810846Y-88531846D01*
X111744344Y-88576282D01*
X111740455Y-88577893D01*
X111698040Y-88585100D01*
X111666700Y-88591713D01*
X111662838Y-88591083D01*
X111650511Y-88593178D01*
X111587499Y-88578795D01*
X111586343Y-88578607D01*
X111586165Y-88578491D01*
X111583545Y-88577893D01*
X111579656Y-88576282D01*
X111544580Y-88551393D01*
X111517732Y-88533898D01*
X111515445Y-88530719D01*
X111505251Y-88523486D01*
X111470845Y-88468729D01*
X111470188Y-88467816D01*
X111470145Y-88467616D01*
X111468718Y-88465344D01*
X111467107Y-88461455D01*
X111459188Y-88421649D01*
X111418954Y-88382334D01*
X111381545Y-88374893D01*
X111378065Y-88373451D01*
X111377944Y-88373429D01*
X111363709Y-88367703D01*
X111314421Y-88372813D01*
X111312700Y-88373962D01*
X111310954Y-88375709D01*
X111164257Y-88473729D01*
X111001256Y-88541246D01*
X110828215Y-88575666D01*
X110651785Y-88575666D01*
X110478744Y-88541246D01*
X110315743Y-88473729D01*
X110169046Y-88375709D01*
X110044291Y-88250954D01*
X109946271Y-88104257D01*
X109878754Y-87941256D01*
X109844334Y-87768215D01*
X109844334Y-87591785D01*
X109878754Y-87418744D01*
X109946271Y-87255743D01*
X110044291Y-87109046D01*
X110045579Y-87107757D01*
X110053168Y-87068420D01*
X110048146Y-87044617D01*
X110046718Y-87042344D01*
X110045107Y-87038455D01*
X110029500Y-86960000D01*
X110029500Y-86843722D01*
X110014276Y-86806968D01*
X109772706Y-86565398D01*
X109766154Y-86558846D01*
X109721718Y-86492344D01*
X109720107Y-86488455D01*
X109712903Y-86446064D01*
X109706286Y-86414700D01*
X109706916Y-86410835D01*
X109704822Y-86398511D01*
X109719200Y-86335514D01*
X109719392Y-86334343D01*
X109719509Y-86334162D01*
X109720107Y-86331545D01*
X109721718Y-86327656D01*
X109766154Y-86261154D01*
X109768826Y-86258481D01*
X109768828Y-86258479D01*
X110014276Y-86013032D01*
X110029500Y-85976278D01*
X110029500Y-85869264D01*
X110029500Y-85860000D01*
X110045107Y-85781545D01*
X110046546Y-85778070D01*
X110046588Y-85777847D01*
X110052304Y-85763559D01*
X110047158Y-85714379D01*
X110046034Y-85712697D01*
X110044291Y-85710954D01*
X109946271Y-85564257D01*
X109878754Y-85401256D01*
X109844334Y-85228215D01*
X109844334Y-85051785D01*
X109878754Y-84878744D01*
X109946271Y-84715743D01*
X110044291Y-84569046D01*
X110045579Y-84567757D01*
X110053168Y-84528420D01*
X110048146Y-84504617D01*
X110046718Y-84502344D01*
X110045107Y-84498455D01*
X110029500Y-84420000D01*
X110029500Y-84303722D01*
X110014276Y-84266968D01*
X109772706Y-84025398D01*
X109766154Y-84018846D01*
X109721718Y-83952344D01*
X109720107Y-83948455D01*
X109712903Y-83906064D01*
X109706286Y-83874700D01*
X109706916Y-83870835D01*
X109704822Y-83858511D01*
X109719200Y-83795514D01*
X109719392Y-83794343D01*
X109719509Y-83794162D01*
X109720107Y-83791545D01*
X109721718Y-83787656D01*
X109766154Y-83721154D01*
X109768826Y-83718481D01*
X109768828Y-83718479D01*
X110014276Y-83473032D01*
X110029500Y-83436278D01*
X110029500Y-83329264D01*
X110029500Y-83320000D01*
X110045107Y-83241545D01*
X110046546Y-83238070D01*
X110046588Y-83237847D01*
X110052304Y-83223559D01*
X110047158Y-83174379D01*
X110046034Y-83172697D01*
X110044291Y-83170954D01*
X109946271Y-83024257D01*
X109878754Y-82861256D01*
X109844334Y-82688215D01*
X109844334Y-82511785D01*
X109878754Y-82338744D01*
X109946271Y-82175743D01*
X110044291Y-82029046D01*
X110045579Y-82027757D01*
X110053168Y-81988420D01*
X110048146Y-81964617D01*
X110046718Y-81962344D01*
X110045107Y-81958455D01*
X110029500Y-81880000D01*
X110029500Y-81763722D01*
X110014276Y-81726968D01*
X109772706Y-81485398D01*
X109766154Y-81478846D01*
X109721718Y-81412344D01*
X109720107Y-81408455D01*
X109712903Y-81366064D01*
X109706286Y-81334700D01*
X109706916Y-81330835D01*
X109704822Y-81318511D01*
X109719200Y-81255514D01*
X109719392Y-81254343D01*
X109719509Y-81254162D01*
X109720107Y-81251545D01*
X109721718Y-81247656D01*
X109766154Y-81181154D01*
X109768826Y-81178481D01*
X109768828Y-81178479D01*
X110014276Y-80933032D01*
X110029500Y-80896278D01*
X110029500Y-80789264D01*
X110029500Y-80780000D01*
X110045107Y-80701545D01*
X110046546Y-80698070D01*
X110046588Y-80697847D01*
X110052304Y-80683559D01*
X110047158Y-80634379D01*
X110046034Y-80632697D01*
X110044291Y-80630954D01*
X109946271Y-80484257D01*
X109878754Y-80321256D01*
X109844334Y-80148215D01*
X109844334Y-79971785D01*
X109878754Y-79798744D01*
X109946271Y-79635743D01*
X110044291Y-79489046D01*
X110045579Y-79487757D01*
X110053168Y-79448420D01*
X110048146Y-79424617D01*
X110046718Y-79422344D01*
X110045107Y-79418455D01*
X110029500Y-79340000D01*
X110029500Y-79223722D01*
X110014276Y-79186968D01*
X109772706Y-78945398D01*
X109766154Y-78938846D01*
X109721718Y-78872344D01*
X109720107Y-78868455D01*
X109712903Y-78826064D01*
X109706286Y-78794700D01*
X109706916Y-78790835D01*
X109704822Y-78778511D01*
X109719200Y-78715514D01*
X109719392Y-78714343D01*
X109719509Y-78714162D01*
X109720107Y-78711545D01*
X109721718Y-78707656D01*
X109766154Y-78641154D01*
X109768826Y-78638481D01*
X109768828Y-78638479D01*
X110014276Y-78393032D01*
X110029500Y-78356278D01*
X110029500Y-78249264D01*
X110029500Y-78240000D01*
X110045107Y-78161545D01*
X110046546Y-78158070D01*
X110046588Y-78157847D01*
X110052304Y-78143559D01*
X110047158Y-78094379D01*
X110046034Y-78092697D01*
X110044291Y-78090954D01*
X109946271Y-77944257D01*
X109878754Y-77781256D01*
X109844334Y-77608215D01*
X109844334Y-77431785D01*
X109878754Y-77258744D01*
X109946271Y-77095743D01*
X110044291Y-76949046D01*
X110045579Y-76947757D01*
X110053168Y-76908420D01*
X110048146Y-76884617D01*
X110046718Y-76882344D01*
X110045107Y-76878455D01*
X110029500Y-76800000D01*
X110029500Y-76683722D01*
X110014276Y-76646968D01*
X109772706Y-76405398D01*
X109766154Y-76398846D01*
X109721718Y-76332344D01*
X109720107Y-76328455D01*
X109712903Y-76286064D01*
X109706286Y-76254700D01*
X109706916Y-76250835D01*
X109704822Y-76238511D01*
X109719200Y-76175514D01*
X109719392Y-76174343D01*
X109719509Y-76174162D01*
X109720107Y-76171545D01*
X109721718Y-76167656D01*
X109766154Y-76101154D01*
X109768826Y-76098481D01*
X109768828Y-76098479D01*
X110014276Y-75853032D01*
X110029500Y-75816278D01*
X110029500Y-75709264D01*
X110029500Y-75700000D01*
X110045107Y-75621545D01*
X110046546Y-75618070D01*
X110046588Y-75617847D01*
X110052304Y-75603559D01*
X110047158Y-75554379D01*
X110046034Y-75552697D01*
X110044291Y-75550954D01*
X109946271Y-75404257D01*
X109878754Y-75241256D01*
X109844334Y-75068215D01*
X109844334Y-74891785D01*
X109878754Y-74718744D01*
X109946271Y-74555743D01*
X110044291Y-74409046D01*
X110045579Y-74407757D01*
X110053168Y-74368420D01*
X110048146Y-74344617D01*
X110046718Y-74342344D01*
X110045107Y-74338455D01*
X110029500Y-74260000D01*
X110029500Y-74143722D01*
X110014276Y-74106968D01*
X109772706Y-73865398D01*
X109766154Y-73858846D01*
X109721718Y-73792344D01*
X109720107Y-73788455D01*
X109712903Y-73746064D01*
X109706286Y-73714700D01*
X109706916Y-73710835D01*
X109704822Y-73698511D01*
X109719200Y-73635514D01*
X109719392Y-73634343D01*
X109719509Y-73634162D01*
X109720107Y-73631545D01*
X109721718Y-73627656D01*
X109766154Y-73561154D01*
X109768826Y-73558481D01*
X109768828Y-73558479D01*
X110014276Y-73313032D01*
X110029500Y-73276278D01*
X110029500Y-73169264D01*
X110029500Y-73160000D01*
X110045107Y-73081545D01*
X110046546Y-73078070D01*
X110046588Y-73077847D01*
X110052304Y-73063559D01*
X110047158Y-73014379D01*
X110046034Y-73012697D01*
X110044291Y-73010954D01*
X109946271Y-72864257D01*
X109878754Y-72701256D01*
X109844334Y-72528215D01*
X109844334Y-72351785D01*
X109878754Y-72178744D01*
X109946271Y-72015743D01*
X110044291Y-71869046D01*
X110045579Y-71867757D01*
X110053168Y-71828420D01*
X110048146Y-71804617D01*
X110046718Y-71802344D01*
X110045107Y-71798455D01*
X110029500Y-71720000D01*
X110029500Y-71603722D01*
X110014276Y-71566968D01*
X109772706Y-71325398D01*
X109766154Y-71318846D01*
X109721718Y-71252344D01*
X109720107Y-71248455D01*
X109712903Y-71206064D01*
X109706286Y-71174700D01*
X109706916Y-71170835D01*
X109704822Y-71158511D01*
X109719200Y-71095514D01*
X109719392Y-71094343D01*
X109719509Y-71094162D01*
X109720107Y-71091545D01*
X109721718Y-71087656D01*
X109766154Y-71021154D01*
X109768826Y-71018481D01*
X109768828Y-71018479D01*
X110014276Y-70773032D01*
X110029500Y-70736278D01*
X110029500Y-70629264D01*
X110029500Y-70620000D01*
X110045107Y-70541545D01*
X110046546Y-70538070D01*
X110046588Y-70537847D01*
X110052304Y-70523559D01*
X110047158Y-70474379D01*
X110046034Y-70472697D01*
X110044291Y-70470954D01*
X109946271Y-70324257D01*
X109878754Y-70161256D01*
X109844334Y-69988215D01*
X109844334Y-69811785D01*
X109878754Y-69638744D01*
X109946271Y-69475743D01*
X110044291Y-69329046D01*
X110045579Y-69327757D01*
X110053168Y-69288420D01*
X110048146Y-69264617D01*
X110046718Y-69262344D01*
X110045107Y-69258455D01*
X110029500Y-69180000D01*
X110029500Y-69063722D01*
X110014276Y-69026968D01*
X109772706Y-68785398D01*
X109766154Y-68778846D01*
X109721718Y-68712344D01*
X109720107Y-68708455D01*
X109712903Y-68666064D01*
X109706286Y-68634700D01*
X109706916Y-68630835D01*
X109704822Y-68618511D01*
X109719200Y-68555514D01*
X109719392Y-68554343D01*
X109719509Y-68554162D01*
X109720107Y-68551545D01*
X109721718Y-68547656D01*
X109766154Y-68481154D01*
X109768826Y-68478481D01*
X109768828Y-68478479D01*
X110014276Y-68233032D01*
X110029500Y-68196278D01*
X110029500Y-68089264D01*
X110029500Y-68080000D01*
X110045107Y-68001545D01*
X110046546Y-67998070D01*
X110046588Y-67997847D01*
X110052304Y-67983559D01*
X110047158Y-67934379D01*
X110046034Y-67932697D01*
X110044291Y-67930954D01*
X109946271Y-67784257D01*
X109878754Y-67621256D01*
X109844334Y-67448215D01*
X109844334Y-67271785D01*
X109878754Y-67098744D01*
X109946271Y-66935743D01*
X110044291Y-66789046D01*
X110045579Y-66787757D01*
X110053168Y-66748420D01*
X110048146Y-66724617D01*
X110046718Y-66722344D01*
X110045107Y-66718455D01*
X110029500Y-66640000D01*
X110029500Y-66523722D01*
X110014276Y-66486968D01*
X109772706Y-66245398D01*
X109766154Y-66238846D01*
X109721718Y-66172344D01*
X109720107Y-66168455D01*
X109712903Y-66126064D01*
X109706286Y-66094700D01*
X109706916Y-66090835D01*
X109704822Y-66078511D01*
X109719200Y-66015514D01*
X109719392Y-66014343D01*
X109719509Y-66014162D01*
X109720107Y-66011545D01*
X109721718Y-66007656D01*
X109766154Y-65941154D01*
X109768826Y-65938481D01*
X109768828Y-65938479D01*
X110014276Y-65693032D01*
X110029500Y-65656278D01*
X110029500Y-65549264D01*
X110029500Y-65540000D01*
X110045107Y-65461545D01*
X110046546Y-65458070D01*
X110046588Y-65457847D01*
X110052304Y-65443559D01*
X110047158Y-65394379D01*
X110046034Y-65392697D01*
X110044291Y-65390954D01*
X109946271Y-65244257D01*
X109878754Y-65081256D01*
X109844334Y-64908215D01*
X109844334Y-64731785D01*
X109878754Y-64558744D01*
X109946271Y-64395743D01*
X110044291Y-64249046D01*
X110169046Y-64124291D01*
X110315743Y-64026271D01*
X110478744Y-63958754D01*
X110651785Y-63924334D01*
X110828215Y-63924334D01*
X111001256Y-63958754D01*
X111164257Y-64026271D01*
X111310954Y-64124291D01*
X111312242Y-64125579D01*
X111351579Y-64133168D01*
X111375383Y-64128146D01*
X111377656Y-64126718D01*
X111381545Y-64125107D01*
X111460000Y-64109500D01*
X111576278Y-64109500D01*
X111613032Y-64094276D01*
X111854601Y-63852706D01*
X111854604Y-63852703D01*
X111861154Y-63846154D01*
X111927656Y-63801718D01*
X111931545Y-63800107D01*
X111973930Y-63792904D01*
X112005299Y-63786286D01*
X112009164Y-63786916D01*
X112021489Y-63784822D01*
X112084487Y-63799201D01*
X112085656Y-63799392D01*
X112085835Y-63799509D01*
X112088455Y-63800107D01*
X112092344Y-63801718D01*
X112158846Y-63846154D01*
X112161520Y-63848828D01*
X112406968Y-64094276D01*
X112443722Y-64109500D01*
X112550735Y-64109500D01*
X112560000Y-64109500D01*
X112638455Y-64125107D01*
X112641932Y-64126547D01*
X112642112Y-64126581D01*
X112656379Y-64132301D01*
X112705603Y-64127169D01*
X112707305Y-64126031D01*
X112709046Y-64124291D01*
X112855743Y-64026271D01*
X113018744Y-63958754D01*
X113191785Y-63924334D01*
X113368215Y-63924334D01*
X113541256Y-63958754D01*
X113704257Y-64026271D01*
X113850954Y-64124291D01*
X113852242Y-64125579D01*
X113891579Y-64133168D01*
X113915383Y-64128146D01*
X113917656Y-64126718D01*
X113921545Y-64125107D01*
X114000000Y-64109500D01*
X114116278Y-64109500D01*
X114153032Y-64094276D01*
X114394601Y-63852706D01*
X114394604Y-63852703D01*
X114401154Y-63846154D01*
X114467656Y-63801718D01*
X114471545Y-63800107D01*
X114513930Y-63792904D01*
X114545299Y-63786286D01*
X114549164Y-63786916D01*
X114561489Y-63784822D01*
X114624487Y-63799201D01*
X114625656Y-63799392D01*
X114625835Y-63799509D01*
X114628455Y-63800107D01*
X114632344Y-63801718D01*
X114698846Y-63846154D01*
X114701520Y-63848828D01*
X114946968Y-64094276D01*
X114983722Y-64109500D01*
X115090735Y-64109500D01*
X115100000Y-64109500D01*
X115178455Y-64125107D01*
X115181932Y-64126547D01*
X115182112Y-64126581D01*
X115196379Y-64132301D01*
X115245603Y-64127169D01*
X115247305Y-64126031D01*
X115249046Y-64124291D01*
X115395743Y-64026271D01*
X115558744Y-63958754D01*
X115731785Y-63924334D01*
X115908215Y-63924334D01*
X116081256Y-63958754D01*
X116244257Y-64026271D01*
X116390954Y-64124291D01*
X116392242Y-64125579D01*
X116431579Y-64133168D01*
X116455383Y-64128146D01*
X116457656Y-64126718D01*
X116461545Y-64125107D01*
X116540000Y-64109500D01*
X116656278Y-64109500D01*
X116693032Y-64094276D01*
X116934601Y-63852706D01*
X116934604Y-63852703D01*
X116941154Y-63846154D01*
X117007656Y-63801718D01*
X117011545Y-63800107D01*
X117053930Y-63792904D01*
X117085299Y-63786286D01*
X117089164Y-63786916D01*
X117101489Y-63784822D01*
X117164487Y-63799201D01*
X117165656Y-63799392D01*
X117165835Y-63799509D01*
X117168455Y-63800107D01*
X117172344Y-63801718D01*
X117238846Y-63846154D01*
X117241520Y-63848828D01*
X117486968Y-64094276D01*
X117523722Y-64109500D01*
X117630735Y-64109500D01*
X117640000Y-64109500D01*
X117718455Y-64125107D01*
X117721932Y-64126547D01*
X117722112Y-64126581D01*
X117736379Y-64132301D01*
X117785603Y-64127169D01*
X117787305Y-64126031D01*
X117789046Y-64124291D01*
X117935743Y-64026271D01*
X118098744Y-63958754D01*
X118271785Y-63924334D01*
X118448215Y-63924334D01*
X118621256Y-63958754D01*
X118784257Y-64026271D01*
X118930954Y-64124291D01*
X118932242Y-64125579D01*
X118971579Y-64133168D01*
X118995383Y-64128146D01*
X118997656Y-64126718D01*
X119001545Y-64125107D01*
X119080000Y-64109500D01*
X119196278Y-64109500D01*
X119233032Y-64094276D01*
X119474601Y-63852706D01*
X119474604Y-63852703D01*
X119481154Y-63846154D01*
X119547656Y-63801718D01*
X119551545Y-63800107D01*
X119593930Y-63792904D01*
X119625299Y-63786286D01*
X119629164Y-63786916D01*
X119641489Y-63784822D01*
X119704487Y-63799201D01*
X119705656Y-63799392D01*
X119705835Y-63799509D01*
X119708455Y-63800107D01*
X119712344Y-63801718D01*
X119778846Y-63846154D01*
X119781520Y-63848828D01*
X120026968Y-64094276D01*
X120063722Y-64109500D01*
X120170735Y-64109500D01*
X120180000Y-64109500D01*
X120258455Y-64125107D01*
X120261932Y-64126547D01*
X120262112Y-64126581D01*
X120276379Y-64132301D01*
X120325603Y-64127169D01*
X120327305Y-64126031D01*
X120329046Y-64124291D01*
X120475743Y-64026271D01*
X120638744Y-63958754D01*
X120811785Y-63924334D01*
X120988215Y-63924334D01*
X121161256Y-63958754D01*
X121324257Y-64026271D01*
X121470954Y-64124291D01*
X121472242Y-64125579D01*
X121511579Y-64133168D01*
X121535383Y-64128146D01*
X121537656Y-64126718D01*
X121541545Y-64125107D01*
X121620000Y-64109500D01*
X121736278Y-64109500D01*
X121773032Y-64094276D01*
X122014601Y-63852706D01*
X122014604Y-63852703D01*
X122021154Y-63846154D01*
X122087656Y-63801718D01*
X122091545Y-63800107D01*
X122133930Y-63792904D01*
X122165299Y-63786286D01*
X122169164Y-63786916D01*
X122181489Y-63784822D01*
X122244487Y-63799201D01*
X122245656Y-63799392D01*
X122245835Y-63799509D01*
X122248455Y-63800107D01*
X122252344Y-63801718D01*
X122318846Y-63846154D01*
X122321520Y-63848828D01*
X122566968Y-64094276D01*
X122603722Y-64109500D01*
X122710735Y-64109500D01*
X122720000Y-64109500D01*
X122798455Y-64125107D01*
X122801932Y-64126547D01*
X122802112Y-64126581D01*
X122816379Y-64132301D01*
X122865603Y-64127169D01*
X122867305Y-64126031D01*
X122869046Y-64124291D01*
X123015743Y-64026271D01*
X123178744Y-63958754D01*
X123351785Y-63924334D01*
X123528215Y-63924334D01*
X123701256Y-63958754D01*
X123864257Y-64026271D01*
X124010954Y-64124291D01*
X124012242Y-64125579D01*
X124051579Y-64133168D01*
X124075383Y-64128146D01*
X124077656Y-64126718D01*
X124081545Y-64125107D01*
X124160000Y-64109500D01*
X124276278Y-64109500D01*
X124313032Y-64094276D01*
X124554601Y-63852706D01*
X124554604Y-63852703D01*
X124561154Y-63846154D01*
X124627656Y-63801718D01*
X124631545Y-63800107D01*
X124673930Y-63792904D01*
X124705299Y-63786286D01*
X124709164Y-63786916D01*
X124721489Y-63784822D01*
X124784487Y-63799201D01*
X124785656Y-63799392D01*
X124785835Y-63799509D01*
X124788455Y-63800107D01*
X124792344Y-63801718D01*
X124858846Y-63846154D01*
X124861520Y-63848828D01*
X125106968Y-64094276D01*
X125143722Y-64109500D01*
X125250735Y-64109500D01*
X125260000Y-64109500D01*
X125338455Y-64125107D01*
X125341932Y-64126547D01*
X125342112Y-64126581D01*
X125356379Y-64132301D01*
X125405603Y-64127169D01*
X125407305Y-64126031D01*
X125409046Y-64124291D01*
X125555743Y-64026271D01*
X125718744Y-63958754D01*
X125891785Y-63924334D01*
X126068215Y-63924334D01*
X126241256Y-63958754D01*
X126404257Y-64026271D01*
X126550954Y-64124291D01*
X126552242Y-64125579D01*
X126591579Y-64133168D01*
X126615383Y-64128146D01*
X126617656Y-64126718D01*
X126621545Y-64125107D01*
X126700000Y-64109500D01*
X126816278Y-64109500D01*
X126853032Y-64094276D01*
X127094601Y-63852706D01*
X127094604Y-63852703D01*
X127101154Y-63846154D01*
X127167656Y-63801718D01*
X127171545Y-63800107D01*
X127213930Y-63792904D01*
X127245299Y-63786286D01*
X127249164Y-63786916D01*
X127261489Y-63784822D01*
X127324487Y-63799201D01*
X127325656Y-63799392D01*
X127325835Y-63799509D01*
X127328455Y-63800107D01*
X127332344Y-63801718D01*
X127398846Y-63846154D01*
X127401520Y-63848828D01*
X127646968Y-64094276D01*
X127683722Y-64109500D01*
X127790735Y-64109500D01*
X127800000Y-64109500D01*
X127878455Y-64125107D01*
X127881932Y-64126547D01*
X127882112Y-64126581D01*
X127896379Y-64132301D01*
X127945603Y-64127169D01*
X127947305Y-64126031D01*
X127949046Y-64124291D01*
X128095743Y-64026271D01*
X128258744Y-63958754D01*
X128431785Y-63924334D01*
X128608215Y-63924334D01*
X128781256Y-63958754D01*
X128944257Y-64026271D01*
X129090954Y-64124291D01*
X129092242Y-64125579D01*
X129131579Y-64133168D01*
X129155383Y-64128146D01*
X129157656Y-64126718D01*
X129161545Y-64125107D01*
X129240000Y-64109500D01*
X129356278Y-64109500D01*
X129393032Y-64094276D01*
X129634601Y-63852706D01*
X129634604Y-63852703D01*
X129641154Y-63846154D01*
X129707656Y-63801718D01*
X129711545Y-63800107D01*
X129753930Y-63792904D01*
X129785299Y-63786286D01*
X129789164Y-63786916D01*
X129801489Y-63784822D01*
X129864487Y-63799201D01*
X129865656Y-63799392D01*
X129865835Y-63799509D01*
X129868455Y-63800107D01*
X129872344Y-63801718D01*
X129938846Y-63846154D01*
X129941520Y-63848828D01*
X130186968Y-64094276D01*
X130223722Y-64109500D01*
X130330735Y-64109500D01*
X130340000Y-64109500D01*
X130418455Y-64125107D01*
X130421932Y-64126547D01*
X130422112Y-64126581D01*
X130436379Y-64132301D01*
X130485603Y-64127169D01*
X130487305Y-64126031D01*
X130489046Y-64124291D01*
X130635743Y-64026271D01*
X130798744Y-63958754D01*
X130971785Y-63924334D01*
X131148215Y-63924334D01*
X131321256Y-63958754D01*
X131484257Y-64026271D01*
X131630954Y-64124291D01*
X131632242Y-64125579D01*
X131671579Y-64133168D01*
X131695383Y-64128146D01*
X131697656Y-64126718D01*
X131701545Y-64125107D01*
X131780000Y-64109500D01*
X131896278Y-64109500D01*
X131933032Y-64094276D01*
X132174601Y-63852706D01*
X132174604Y-63852703D01*
X132181154Y-63846154D01*
X132247656Y-63801718D01*
X132251545Y-63800107D01*
X132293930Y-63792904D01*
X132325299Y-63786286D01*
X132329164Y-63786916D01*
X132341489Y-63784822D01*
X132404487Y-63799201D01*
X132405656Y-63799392D01*
X132405835Y-63799509D01*
X132408455Y-63800107D01*
X132412344Y-63801718D01*
X132478846Y-63846154D01*
X132481520Y-63848828D01*
X132726968Y-64094276D01*
X132763722Y-64109500D01*
X132870735Y-64109500D01*
X132880000Y-64109500D01*
X132958455Y-64125107D01*
X132961932Y-64126547D01*
X132962112Y-64126581D01*
X132976379Y-64132301D01*
X133025603Y-64127169D01*
X133027305Y-64126031D01*
X133029046Y-64124291D01*
X133175743Y-64026271D01*
X133338744Y-63958754D01*
X133511785Y-63924334D01*
X133688215Y-63924334D01*
X133861256Y-63958754D01*
X134024257Y-64026271D01*
X134170954Y-64124291D01*
X134172242Y-64125579D01*
X134211579Y-64133168D01*
X134235383Y-64128146D01*
X134237656Y-64126718D01*
X134241545Y-64125107D01*
X134320000Y-64109500D01*
X134436278Y-64109500D01*
X134473032Y-64094276D01*
X134714601Y-63852706D01*
X134714604Y-63852703D01*
X134721154Y-63846154D01*
X134787656Y-63801718D01*
X134791545Y-63800107D01*
X134833930Y-63792904D01*
X134865299Y-63786286D01*
X134869164Y-63786916D01*
X134881489Y-63784822D01*
X134944487Y-63799201D01*
X134945656Y-63799392D01*
X134945835Y-63799509D01*
X134948455Y-63800107D01*
X134952344Y-63801718D01*
X135018846Y-63846154D01*
X135021520Y-63848828D01*
X135266968Y-64094276D01*
X135303722Y-64109500D01*
X135410735Y-64109500D01*
X135420000Y-64109500D01*
X135498455Y-64125107D01*
X135501932Y-64126547D01*
X135502112Y-64126581D01*
X135516379Y-64132301D01*
X135565603Y-64127169D01*
X135567305Y-64126031D01*
X135569046Y-64124291D01*
X135715743Y-64026271D01*
X135878744Y-63958754D01*
X136051785Y-63924334D01*
X136228215Y-63924334D01*
X136401256Y-63958754D01*
X136564257Y-64026271D01*
X136710954Y-64124291D01*
X136712242Y-64125579D01*
X136751579Y-64133168D01*
X136775383Y-64128146D01*
X136777656Y-64126718D01*
X136781545Y-64125107D01*
X136860000Y-64109500D01*
X136976278Y-64109500D01*
X137013032Y-64094276D01*
X137254601Y-63852706D01*
X137254604Y-63852703D01*
X137261154Y-63846154D01*
X137327656Y-63801718D01*
X137331545Y-63800107D01*
X137373930Y-63792904D01*
X137405299Y-63786286D01*
X137409164Y-63786916D01*
X137421489Y-63784822D01*
X137484487Y-63799201D01*
X137485656Y-63799392D01*
X137485835Y-63799509D01*
X137488455Y-63800107D01*
X137492344Y-63801718D01*
X137558846Y-63846154D01*
X137561520Y-63848828D01*
X137806968Y-64094276D01*
X137843722Y-64109500D01*
X137950735Y-64109500D01*
X137960000Y-64109500D01*
X138038455Y-64125107D01*
X138041932Y-64126547D01*
X138042112Y-64126581D01*
X138056379Y-64132301D01*
X138105603Y-64127169D01*
X138107305Y-64126031D01*
X138109046Y-64124291D01*
X138255743Y-64026271D01*
X138418744Y-63958754D01*
X138591785Y-63924334D01*
X138768215Y-63924334D01*
X138941256Y-63958754D01*
X139104257Y-64026271D01*
X139250954Y-64124291D01*
X139252242Y-64125579D01*
X139291579Y-64133168D01*
X139315383Y-64128146D01*
X139317656Y-64126718D01*
X139321545Y-64125107D01*
X139400000Y-64109500D01*
X139516278Y-64109500D01*
X139553032Y-64094276D01*
X139794601Y-63852706D01*
X139794604Y-63852703D01*
X139801154Y-63846154D01*
X139867656Y-63801718D01*
X139871545Y-63800107D01*
X139913930Y-63792904D01*
X139945299Y-63786286D01*
X139949164Y-63786916D01*
X139961489Y-63784822D01*
X140024487Y-63799201D01*
X140025656Y-63799392D01*
X140025835Y-63799509D01*
X140028455Y-63800107D01*
X140032344Y-63801718D01*
X140098846Y-63846154D01*
X140101520Y-63848828D01*
X140346968Y-64094276D01*
X140383722Y-64109500D01*
X140490735Y-64109500D01*
X140500000Y-64109500D01*
X140578455Y-64125107D01*
X140581932Y-64126547D01*
X140582112Y-64126581D01*
X140596379Y-64132301D01*
X140645603Y-64127169D01*
X140647305Y-64126031D01*
X140649046Y-64124291D01*
X140795743Y-64026271D01*
X140958744Y-63958754D01*
X141131785Y-63924334D01*
X141308215Y-63924334D01*
X141481256Y-63958754D01*
X141644257Y-64026271D01*
X141790954Y-64124291D01*
X141792242Y-64125579D01*
X141831579Y-64133168D01*
X141855383Y-64128146D01*
X141857656Y-64126718D01*
X141861545Y-64125107D01*
X141940000Y-64109500D01*
X142056278Y-64109500D01*
X142093032Y-64094276D01*
X142334601Y-63852706D01*
X142334604Y-63852703D01*
X142341154Y-63846154D01*
X142407656Y-63801718D01*
X142411545Y-63800107D01*
X142453930Y-63792904D01*
X142485299Y-63786286D01*
X142489164Y-63786916D01*
X142501489Y-63784822D01*
X142564487Y-63799201D01*
X142565656Y-63799392D01*
X142565835Y-63799509D01*
X142568455Y-63800107D01*
X142572344Y-63801718D01*
X142638846Y-63846154D01*
X142641520Y-63848828D01*
X142886968Y-64094276D01*
X142923722Y-64109500D01*
X143030735Y-64109500D01*
X143040000Y-64109500D01*
X143118455Y-64125107D01*
X143121932Y-64126547D01*
X143122112Y-64126581D01*
X143136379Y-64132301D01*
X143185603Y-64127169D01*
X143187305Y-64126031D01*
X143189046Y-64124291D01*
X143335743Y-64026271D01*
X143498744Y-63958754D01*
X143671785Y-63924334D01*
X143848215Y-63924334D01*
X144021256Y-63958754D01*
X144184257Y-64026271D01*
X144330954Y-64124291D01*
X144332242Y-64125579D01*
X144371579Y-64133168D01*
X144395383Y-64128146D01*
X144397656Y-64126718D01*
X144401545Y-64125107D01*
X144480000Y-64109500D01*
X144596278Y-64109500D01*
X144633032Y-64094276D01*
X144874601Y-63852706D01*
X144874604Y-63852703D01*
X144881154Y-63846154D01*
X144947656Y-63801718D01*
X144951545Y-63800107D01*
X144993930Y-63792904D01*
X145025299Y-63786286D01*
X145029164Y-63786916D01*
X145041489Y-63784822D01*
X145104487Y-63799201D01*
X145105656Y-63799392D01*
X145105835Y-63799509D01*
X145108455Y-63800107D01*
X145112344Y-63801718D01*
X145178846Y-63846154D01*
X145181520Y-63848828D01*
X145426968Y-64094276D01*
X145463722Y-64109500D01*
X145570735Y-64109500D01*
X145580000Y-64109500D01*
X145658455Y-64125107D01*
X145661932Y-64126547D01*
X145662112Y-64126581D01*
X145676379Y-64132301D01*
X145725603Y-64127169D01*
X145727305Y-64126031D01*
X145729046Y-64124291D01*
X145875743Y-64026271D01*
X146038744Y-63958754D01*
X146211785Y-63924334D01*
X146388215Y-63924334D01*
X146561256Y-63958754D01*
X146724257Y-64026271D01*
X146870954Y-64124291D01*
X146872242Y-64125579D01*
X146911579Y-64133168D01*
X146935383Y-64128146D01*
X146937656Y-64126718D01*
X146941545Y-64125107D01*
X147020000Y-64109500D01*
X147136278Y-64109500D01*
X147173032Y-64094276D01*
X147414601Y-63852706D01*
X147414604Y-63852703D01*
X147421154Y-63846154D01*
X147487656Y-63801718D01*
X147491545Y-63800107D01*
X147533930Y-63792904D01*
X147565299Y-63786286D01*
X147569164Y-63786916D01*
X147581489Y-63784822D01*
X147644487Y-63799201D01*
X147645656Y-63799392D01*
X147645835Y-63799509D01*
X147648455Y-63800107D01*
X147652344Y-63801718D01*
X147718846Y-63846154D01*
X147721520Y-63848828D01*
X147966968Y-64094276D01*
X148003722Y-64109500D01*
X148110735Y-64109500D01*
X148120000Y-64109500D01*
X148198455Y-64125107D01*
X148201932Y-64126547D01*
X148202112Y-64126581D01*
X148216379Y-64132301D01*
X148265603Y-64127169D01*
X148267305Y-64126031D01*
X148269046Y-64124291D01*
X148415743Y-64026271D01*
X148578744Y-63958754D01*
X148751785Y-63924334D01*
X148928215Y-63924334D01*
X149101256Y-63958754D01*
X149264257Y-64026271D01*
X149410954Y-64124291D01*
X149412242Y-64125579D01*
X149451579Y-64133168D01*
X149475383Y-64128146D01*
X149477656Y-64126718D01*
X149481545Y-64125107D01*
X149560000Y-64109500D01*
X149676278Y-64109500D01*
X149713032Y-64094276D01*
X149954601Y-63852706D01*
X149954604Y-63852703D01*
X149961154Y-63846154D01*
X150027656Y-63801718D01*
X150031545Y-63800107D01*
X150073930Y-63792904D01*
X150105299Y-63786286D01*
X150109164Y-63786916D01*
X150121489Y-63784822D01*
X150184487Y-63799201D01*
X150185656Y-63799392D01*
X150185835Y-63799509D01*
X150188455Y-63800107D01*
X150192344Y-63801718D01*
X150258846Y-63846154D01*
X150261520Y-63848828D01*
X150506968Y-64094276D01*
X150543722Y-64109500D01*
X150650735Y-64109500D01*
X150660000Y-64109500D01*
X150738455Y-64125107D01*
X150741932Y-64126547D01*
X150742112Y-64126581D01*
X150756379Y-64132301D01*
X150805603Y-64127169D01*
X150807305Y-64126031D01*
X150809046Y-64124291D01*
X150955743Y-64026271D01*
X151118744Y-63958754D01*
X151291785Y-63924334D01*
X151468215Y-63924334D01*
X151641256Y-63958754D01*
X151804257Y-64026271D01*
X151950954Y-64124291D01*
X151952242Y-64125579D01*
X151991579Y-64133168D01*
X152015383Y-64128146D01*
X152017656Y-64126718D01*
X152021545Y-64125107D01*
X152100000Y-64109500D01*
X152216278Y-64109500D01*
X152253032Y-64094276D01*
X152494601Y-63852706D01*
X152494604Y-63852703D01*
X152501154Y-63846154D01*
X152567656Y-63801718D01*
X152571545Y-63800107D01*
X152613930Y-63792904D01*
X152645299Y-63786286D01*
X152649164Y-63786916D01*
X152661489Y-63784822D01*
X152724487Y-63799201D01*
X152725656Y-63799392D01*
X152725835Y-63799509D01*
X152728455Y-63800107D01*
X152732344Y-63801718D01*
X152798846Y-63846154D01*
X152801520Y-63848828D01*
X153046968Y-64094276D01*
X153083722Y-64109500D01*
X153190735Y-64109500D01*
X153200000Y-64109500D01*
X153278455Y-64125107D01*
X153281932Y-64126547D01*
X153282112Y-64126581D01*
X153296379Y-64132301D01*
X153345603Y-64127169D01*
X153347305Y-64126031D01*
X153349046Y-64124291D01*
X153495743Y-64026271D01*
X153658744Y-63958754D01*
X153831785Y-63924334D01*
X154008215Y-63924334D01*
X154181256Y-63958754D01*
X154344257Y-64026271D01*
X154490954Y-64124291D01*
X154492242Y-64125579D01*
X154531579Y-64133168D01*
X154555383Y-64128146D01*
X154557656Y-64126718D01*
X154561545Y-64125107D01*
X154640000Y-64109500D01*
X154756278Y-64109500D01*
X154793032Y-64094276D01*
X155034601Y-63852706D01*
X155034604Y-63852703D01*
X155041154Y-63846154D01*
X155107656Y-63801718D01*
X155111545Y-63800107D01*
X155153930Y-63792904D01*
X155185299Y-63786286D01*
X155189164Y-63786916D01*
X155201489Y-63784822D01*
X155264487Y-63799201D01*
X155265656Y-63799392D01*
X155265835Y-63799509D01*
X155268455Y-63800107D01*
X155272344Y-63801718D01*
X155338846Y-63846154D01*
X155341520Y-63848828D01*
X155586968Y-64094276D01*
X155623722Y-64109500D01*
X155730735Y-64109500D01*
X155740000Y-64109500D01*
X155818455Y-64125107D01*
X155821932Y-64126547D01*
X155822112Y-64126581D01*
X155836379Y-64132301D01*
X155885603Y-64127169D01*
X155887305Y-64126031D01*
X155889046Y-64124291D01*
X156035743Y-64026271D01*
X156198744Y-63958754D01*
X156371785Y-63924334D01*
X156548215Y-63924334D01*
X156721256Y-63958754D01*
X156884257Y-64026271D01*
X157030954Y-64124291D01*
X157032242Y-64125579D01*
X157071579Y-64133168D01*
X157095383Y-64128146D01*
X157097656Y-64126718D01*
X157101545Y-64125107D01*
X157180000Y-64109500D01*
X157296278Y-64109500D01*
X157333032Y-64094276D01*
X157574601Y-63852706D01*
X157574604Y-63852703D01*
X157581154Y-63846154D01*
X157647656Y-63801718D01*
X157651545Y-63800107D01*
X157693930Y-63792904D01*
X157725299Y-63786286D01*
X157729164Y-63786916D01*
X157741489Y-63784822D01*
X157804487Y-63799201D01*
X157805656Y-63799392D01*
X157805835Y-63799509D01*
X157808455Y-63800107D01*
X157812344Y-63801718D01*
X157878846Y-63846154D01*
X157881520Y-63848828D01*
X158126968Y-64094276D01*
X158163722Y-64109500D01*
X158270735Y-64109500D01*
X158280000Y-64109500D01*
X158358455Y-64125107D01*
X158361932Y-64126547D01*
X158362112Y-64126581D01*
X158376379Y-64132301D01*
X158425603Y-64127169D01*
X158427305Y-64126031D01*
X158429046Y-64124291D01*
X158575743Y-64026271D01*
X158738744Y-63958754D01*
X158911785Y-63924334D01*
X159088215Y-63924334D01*
X159261256Y-63958754D01*
X159424257Y-64026271D01*
X159570954Y-64124291D01*
X159572242Y-64125579D01*
X159611579Y-64133168D01*
X159635383Y-64128146D01*
X159637656Y-64126718D01*
X159641545Y-64125107D01*
X159720000Y-64109500D01*
X159836278Y-64109500D01*
X159873032Y-64094276D01*
X160114601Y-63852706D01*
X160114604Y-63852703D01*
X160121154Y-63846154D01*
X160187656Y-63801718D01*
X160191545Y-63800107D01*
X160233930Y-63792904D01*
X160265299Y-63786286D01*
X160269164Y-63786916D01*
X160281489Y-63784822D01*
X160344487Y-63799201D01*
X160345656Y-63799392D01*
X160345835Y-63799509D01*
X160348455Y-63800107D01*
X160352344Y-63801718D01*
X160418846Y-63846154D01*
X160421520Y-63848828D01*
X160666968Y-64094276D01*
X160703722Y-64109500D01*
X160810735Y-64109500D01*
X160820000Y-64109500D01*
X160898455Y-64125107D01*
X160901932Y-64126547D01*
X160902112Y-64126581D01*
X160916379Y-64132301D01*
X160965603Y-64127169D01*
X160967305Y-64126031D01*
X160969046Y-64124291D01*
X161115743Y-64026271D01*
X161278744Y-63958754D01*
X161451785Y-63924334D01*
X161628215Y-63924334D01*
X161801256Y-63958754D01*
X161964257Y-64026271D01*
X162110954Y-64124291D01*
X162112242Y-64125579D01*
X162151579Y-64133168D01*
X162175383Y-64128146D01*
X162177656Y-64126718D01*
X162181545Y-64125107D01*
X162260000Y-64109500D01*
X162376278Y-64109500D01*
X162413032Y-64094276D01*
X162654601Y-63852706D01*
X162654604Y-63852703D01*
X162661154Y-63846154D01*
X162727656Y-63801718D01*
X162731545Y-63800107D01*
X162773930Y-63792904D01*
X162805299Y-63786286D01*
X162809164Y-63786916D01*
X162821489Y-63784822D01*
X162884487Y-63799201D01*
X162885656Y-63799392D01*
X162885835Y-63799509D01*
X162888455Y-63800107D01*
X162892344Y-63801718D01*
X162958846Y-63846154D01*
X162961520Y-63848828D01*
X163206968Y-64094276D01*
X163243722Y-64109500D01*
X163350735Y-64109500D01*
X163360000Y-64109500D01*
X163438455Y-64125107D01*
X163441932Y-64126547D01*
X163442112Y-64126581D01*
X163456379Y-64132301D01*
X163505603Y-64127169D01*
X163507305Y-64126031D01*
X163509046Y-64124291D01*
X163655743Y-64026271D01*
X163818744Y-63958754D01*
X163991785Y-63924334D01*
X164168215Y-63924334D01*
X164341256Y-63958754D01*
X164504257Y-64026271D01*
X164650954Y-64124291D01*
X164652242Y-64125579D01*
X164691579Y-64133168D01*
X164715383Y-64128146D01*
X164717656Y-64126718D01*
X164721545Y-64125107D01*
X164800000Y-64109500D01*
X164916278Y-64109500D01*
X164953032Y-64094276D01*
X165194601Y-63852706D01*
X165194604Y-63852703D01*
X165201154Y-63846154D01*
X165267656Y-63801718D01*
X165271545Y-63800107D01*
X165313930Y-63792904D01*
X165345299Y-63786286D01*
X165349164Y-63786916D01*
X165361489Y-63784822D01*
X165424487Y-63799201D01*
X165425656Y-63799392D01*
X165425835Y-63799509D01*
X165428455Y-63800107D01*
X165432344Y-63801718D01*
X165498846Y-63846154D01*
X165501520Y-63848828D01*
X165746968Y-64094276D01*
X165783722Y-64109500D01*
X165890735Y-64109500D01*
X165900000Y-64109500D01*
X165978455Y-64125107D01*
X165981932Y-64126547D01*
X165982112Y-64126581D01*
X165996379Y-64132301D01*
X166045603Y-64127169D01*
X166047305Y-64126031D01*
X166049046Y-64124291D01*
X166195743Y-64026271D01*
X166358744Y-63958754D01*
X166531785Y-63924334D01*
X166708215Y-63924334D01*
X166881256Y-63958754D01*
X167044257Y-64026271D01*
X167190954Y-64124291D01*
X167192242Y-64125579D01*
X167231579Y-64133168D01*
X167255383Y-64128146D01*
X167257656Y-64126718D01*
X167261545Y-64125107D01*
X167340000Y-64109500D01*
X167456278Y-64109500D01*
X167493032Y-64094276D01*
X167734601Y-63852706D01*
X167734604Y-63852703D01*
X167741154Y-63846154D01*
X167807656Y-63801718D01*
X167811545Y-63800107D01*
X167853930Y-63792904D01*
X167885299Y-63786286D01*
X167889164Y-63786916D01*
X167901489Y-63784822D01*
X167964487Y-63799201D01*
G37*
G36*
X108296292Y-84182632D02*
G01*
X108481254Y-84219423D01*
X108655484Y-84291592D01*
X108812286Y-84396364D01*
X108945636Y-84529714D01*
X109050408Y-84686516D01*
X109122577Y-84860746D01*
X109159368Y-85045708D01*
X109159368Y-85234292D01*
X109122577Y-85419254D01*
X109050408Y-85593484D01*
X108945636Y-85750286D01*
X108812286Y-85883636D01*
X108655484Y-85988408D01*
X108481254Y-86060577D01*
X108296292Y-86097368D01*
X108202000Y-86102000D01*
X108199536Y-86102000D01*
X106680464Y-86102000D01*
X106678000Y-86102000D01*
X106583708Y-86097368D01*
X106398746Y-86060577D01*
X106224516Y-85988408D01*
X106067714Y-85883636D01*
X105934364Y-85750286D01*
X105829592Y-85593484D01*
X105757423Y-85419254D01*
X105720632Y-85234292D01*
X105720632Y-85045708D01*
X105757423Y-84860746D01*
X105829592Y-84686516D01*
X105934364Y-84529714D01*
X106067714Y-84396364D01*
X106224516Y-84291592D01*
X106398746Y-84219423D01*
X106583708Y-84182632D01*
X106678000Y-84178000D01*
X108202000Y-84178000D01*
X108296292Y-84182632D01*
G37*
G36*
X173318292Y-84182632D02*
G01*
X173503254Y-84219423D01*
X173677484Y-84291592D01*
X173834286Y-84396364D01*
X173967636Y-84529714D01*
X174072408Y-84686516D01*
X174144577Y-84860746D01*
X174181368Y-85045708D01*
X174181368Y-85234292D01*
X174144577Y-85419254D01*
X174072408Y-85593484D01*
X173967636Y-85750286D01*
X173834286Y-85883636D01*
X173677484Y-85988408D01*
X173503254Y-86060577D01*
X173318292Y-86097368D01*
X173224000Y-86102000D01*
X173221536Y-86102000D01*
X171702464Y-86102000D01*
X171700000Y-86102000D01*
X171605708Y-86097368D01*
X171420746Y-86060577D01*
X171246516Y-85988408D01*
X171089714Y-85883636D01*
X170956364Y-85750286D01*
X170851592Y-85593484D01*
X170779423Y-85419254D01*
X170742632Y-85234292D01*
X170742632Y-85045708D01*
X170779423Y-84860746D01*
X170851592Y-84686516D01*
X170956364Y-84529714D01*
X171089714Y-84396364D01*
X171246516Y-84291592D01*
X171420746Y-84219423D01*
X171605708Y-84182632D01*
X171700000Y-84178000D01*
X173224000Y-84178000D01*
X173318292Y-84182632D01*
G37*
G36*
X108296292Y-81642632D02*
G01*
X108481254Y-81679423D01*
X108655484Y-81751592D01*
X108812286Y-81856364D01*
X108945636Y-81989714D01*
X109050408Y-82146516D01*
X109122577Y-82320746D01*
X109159368Y-82505708D01*
X109159368Y-82694292D01*
X109122577Y-82879254D01*
X109050408Y-83053484D01*
X108945636Y-83210286D01*
X108812286Y-83343636D01*
X108655484Y-83448408D01*
X108481254Y-83520577D01*
X108296292Y-83557368D01*
X108202000Y-83562000D01*
X108199536Y-83562000D01*
X106680464Y-83562000D01*
X106678000Y-83562000D01*
X106583708Y-83557368D01*
X106398746Y-83520577D01*
X106224516Y-83448408D01*
X106067714Y-83343636D01*
X105934364Y-83210286D01*
X105829592Y-83053484D01*
X105757423Y-82879254D01*
X105720632Y-82694292D01*
X105720632Y-82505708D01*
X105757423Y-82320746D01*
X105829592Y-82146516D01*
X105934364Y-81989714D01*
X106067714Y-81856364D01*
X106224516Y-81751592D01*
X106398746Y-81679423D01*
X106583708Y-81642632D01*
X106678000Y-81638000D01*
X108202000Y-81638000D01*
X108296292Y-81642632D01*
G37*
G36*
X173318292Y-81642632D02*
G01*
X173503254Y-81679423D01*
X173677484Y-81751592D01*
X173834286Y-81856364D01*
X173967636Y-81989714D01*
X174072408Y-82146516D01*
X174144577Y-82320746D01*
X174181368Y-82505708D01*
X174181368Y-82694292D01*
X174144577Y-82879254D01*
X174072408Y-83053484D01*
X173967636Y-83210286D01*
X173834286Y-83343636D01*
X173677484Y-83448408D01*
X173503254Y-83520577D01*
X173318292Y-83557368D01*
X173224000Y-83562000D01*
X173221536Y-83562000D01*
X171702464Y-83562000D01*
X171700000Y-83562000D01*
X171605708Y-83557368D01*
X171420746Y-83520577D01*
X171246516Y-83448408D01*
X171089714Y-83343636D01*
X170956364Y-83210286D01*
X170851592Y-83053484D01*
X170779423Y-82879254D01*
X170742632Y-82694292D01*
X170742632Y-82505708D01*
X170779423Y-82320746D01*
X170851592Y-82146516D01*
X170956364Y-81989714D01*
X171089714Y-81856364D01*
X171246516Y-81751592D01*
X171420746Y-81679423D01*
X171605708Y-81642632D01*
X171700000Y-81638000D01*
X173224000Y-81638000D01*
X173318292Y-81642632D01*
G37*
G36*
X108296292Y-79102632D02*
G01*
X108481254Y-79139423D01*
X108655484Y-79211592D01*
X108812286Y-79316364D01*
X108945636Y-79449714D01*
X109050408Y-79606516D01*
X109122577Y-79780746D01*
X109159368Y-79965708D01*
X109159368Y-80154292D01*
X109122577Y-80339254D01*
X109050408Y-80513484D01*
X108945636Y-80670286D01*
X108812286Y-80803636D01*
X108655484Y-80908408D01*
X108481254Y-80980577D01*
X108296292Y-81017368D01*
X108202000Y-81022000D01*
X108199536Y-81022000D01*
X106680464Y-81022000D01*
X106678000Y-81022000D01*
X106583708Y-81017368D01*
X106398746Y-80980577D01*
X106224516Y-80908408D01*
X106067714Y-80803636D01*
X105934364Y-80670286D01*
X105829592Y-80513484D01*
X105757423Y-80339254D01*
X105720632Y-80154292D01*
X105720632Y-79965708D01*
X105757423Y-79780746D01*
X105829592Y-79606516D01*
X105934364Y-79449714D01*
X106067714Y-79316364D01*
X106224516Y-79211592D01*
X106398746Y-79139423D01*
X106583708Y-79102632D01*
X106678000Y-79098000D01*
X108202000Y-79098000D01*
X108296292Y-79102632D01*
G37*
G36*
X173318292Y-79102632D02*
G01*
X173503254Y-79139423D01*
X173677484Y-79211592D01*
X173834286Y-79316364D01*
X173967636Y-79449714D01*
X174072408Y-79606516D01*
X174144577Y-79780746D01*
X174181368Y-79965708D01*
X174181368Y-80154292D01*
X174144577Y-80339254D01*
X174072408Y-80513484D01*
X173967636Y-80670286D01*
X173834286Y-80803636D01*
X173677484Y-80908408D01*
X173503254Y-80980577D01*
X173318292Y-81017368D01*
X173224000Y-81022000D01*
X173221536Y-81022000D01*
X171702464Y-81022000D01*
X171700000Y-81022000D01*
X171605708Y-81017368D01*
X171420746Y-80980577D01*
X171246516Y-80908408D01*
X171089714Y-80803636D01*
X170956364Y-80670286D01*
X170851592Y-80513484D01*
X170779423Y-80339254D01*
X170742632Y-80154292D01*
X170742632Y-79965708D01*
X170779423Y-79780746D01*
X170851592Y-79606516D01*
X170956364Y-79449714D01*
X171089714Y-79316364D01*
X171246516Y-79211592D01*
X171420746Y-79139423D01*
X171605708Y-79102632D01*
X171700000Y-79098000D01*
X173224000Y-79098000D01*
X173318292Y-79102632D01*
G37*
G36*
X108296292Y-76562632D02*
G01*
X108481254Y-76599423D01*
X108655484Y-76671592D01*
X108812286Y-76776364D01*
X108945636Y-76909714D01*
X109050408Y-77066516D01*
X109122577Y-77240746D01*
X109159368Y-77425708D01*
X109159368Y-77614292D01*
X109122577Y-77799254D01*
X109050408Y-77973484D01*
X108945636Y-78130286D01*
X108812286Y-78263636D01*
X108655484Y-78368408D01*
X108481254Y-78440577D01*
X108296292Y-78477368D01*
X108202000Y-78482000D01*
X108199536Y-78482000D01*
X106680464Y-78482000D01*
X106678000Y-78482000D01*
X106583708Y-78477368D01*
X106398746Y-78440577D01*
X106224516Y-78368408D01*
X106067714Y-78263636D01*
X105934364Y-78130286D01*
X105829592Y-77973484D01*
X105757423Y-77799254D01*
X105720632Y-77614292D01*
X105720632Y-77425708D01*
X105757423Y-77240746D01*
X105829592Y-77066516D01*
X105934364Y-76909714D01*
X106067714Y-76776364D01*
X106224516Y-76671592D01*
X106398746Y-76599423D01*
X106583708Y-76562632D01*
X106678000Y-76558000D01*
X108202000Y-76558000D01*
X108296292Y-76562632D01*
G37*
G36*
X173318292Y-76562632D02*
G01*
X173503254Y-76599423D01*
X173677484Y-76671592D01*
X173834286Y-76776364D01*
X173967636Y-76909714D01*
X174072408Y-77066516D01*
X174144577Y-77240746D01*
X174181368Y-77425708D01*
X174181368Y-77614292D01*
X174144577Y-77799254D01*
X174072408Y-77973484D01*
X173967636Y-78130286D01*
X173834286Y-78263636D01*
X173677484Y-78368408D01*
X173503254Y-78440577D01*
X173318292Y-78477368D01*
X173224000Y-78482000D01*
X173221536Y-78482000D01*
X171702464Y-78482000D01*
X171700000Y-78482000D01*
X171605708Y-78477368D01*
X171420746Y-78440577D01*
X171246516Y-78368408D01*
X171089714Y-78263636D01*
X170956364Y-78130286D01*
X170851592Y-77973484D01*
X170779423Y-77799254D01*
X170742632Y-77614292D01*
X170742632Y-77425708D01*
X170779423Y-77240746D01*
X170851592Y-77066516D01*
X170956364Y-76909714D01*
X171089714Y-76776364D01*
X171246516Y-76671592D01*
X171420746Y-76599423D01*
X171605708Y-76562632D01*
X171700000Y-76558000D01*
X173224000Y-76558000D01*
X173318292Y-76562632D01*
G37*
G36*
X108296292Y-74022632D02*
G01*
X108481254Y-74059423D01*
X108655484Y-74131592D01*
X108812286Y-74236364D01*
X108945636Y-74369714D01*
X109050408Y-74526516D01*
X109122577Y-74700746D01*
X109159368Y-74885708D01*
X109159368Y-75074292D01*
X109122577Y-75259254D01*
X109050408Y-75433484D01*
X108945636Y-75590286D01*
X108812286Y-75723636D01*
X108655484Y-75828408D01*
X108481254Y-75900577D01*
X108296292Y-75937368D01*
X108202000Y-75942000D01*
X108199536Y-75942000D01*
X106680464Y-75942000D01*
X106678000Y-75942000D01*
X106583708Y-75937368D01*
X106398746Y-75900577D01*
X106224516Y-75828408D01*
X106067714Y-75723636D01*
X105934364Y-75590286D01*
X105829592Y-75433484D01*
X105757423Y-75259254D01*
X105720632Y-75074292D01*
X105720632Y-74885708D01*
X105757423Y-74700746D01*
X105829592Y-74526516D01*
X105934364Y-74369714D01*
X106067714Y-74236364D01*
X106224516Y-74131592D01*
X106398746Y-74059423D01*
X106583708Y-74022632D01*
X106678000Y-74018000D01*
X108202000Y-74018000D01*
X108296292Y-74022632D01*
G37*
G36*
X173318292Y-74022632D02*
G01*
X173503254Y-74059423D01*
X173677484Y-74131592D01*
X173834286Y-74236364D01*
X173967636Y-74369714D01*
X174072408Y-74526516D01*
X174144577Y-74700746D01*
X174181368Y-74885708D01*
X174181368Y-75074292D01*
X174144577Y-75259254D01*
X174072408Y-75433484D01*
X173967636Y-75590286D01*
X173834286Y-75723636D01*
X173677484Y-75828408D01*
X173503254Y-75900577D01*
X173318292Y-75937368D01*
X173224000Y-75942000D01*
X173221536Y-75942000D01*
X171702464Y-75942000D01*
X171700000Y-75942000D01*
X171605708Y-75937368D01*
X171420746Y-75900577D01*
X171246516Y-75828408D01*
X171089714Y-75723636D01*
X170956364Y-75590286D01*
X170851592Y-75433484D01*
X170779423Y-75259254D01*
X170742632Y-75074292D01*
X170742632Y-74885708D01*
X170779423Y-74700746D01*
X170851592Y-74526516D01*
X170956364Y-74369714D01*
X171089714Y-74236364D01*
X171246516Y-74131592D01*
X171420746Y-74059423D01*
X171605708Y-74022632D01*
X171700000Y-74018000D01*
X173224000Y-74018000D01*
X173318292Y-74022632D01*
G37*
G36*
X108296292Y-71482632D02*
G01*
X108481254Y-71519423D01*
X108655484Y-71591592D01*
X108812286Y-71696364D01*
X108945636Y-71829714D01*
X109050408Y-71986516D01*
X109122577Y-72160746D01*
X109159368Y-72345708D01*
X109159368Y-72534292D01*
X109122577Y-72719254D01*
X109050408Y-72893484D01*
X108945636Y-73050286D01*
X108812286Y-73183636D01*
X108655484Y-73288408D01*
X108481254Y-73360577D01*
X108296292Y-73397368D01*
X108202000Y-73402000D01*
X108199536Y-73402000D01*
X106680464Y-73402000D01*
X106678000Y-73402000D01*
X106583708Y-73397368D01*
X106398746Y-73360577D01*
X106224516Y-73288408D01*
X106067714Y-73183636D01*
X105934364Y-73050286D01*
X105829592Y-72893484D01*
X105757423Y-72719254D01*
X105720632Y-72534292D01*
X105720632Y-72345708D01*
X105757423Y-72160746D01*
X105829592Y-71986516D01*
X105934364Y-71829714D01*
X106067714Y-71696364D01*
X106224516Y-71591592D01*
X106398746Y-71519423D01*
X106583708Y-71482632D01*
X106678000Y-71478000D01*
X108202000Y-71478000D01*
X108296292Y-71482632D01*
G37*
G36*
X173318292Y-71482632D02*
G01*
X173503254Y-71519423D01*
X173677484Y-71591592D01*
X173834286Y-71696364D01*
X173967636Y-71829714D01*
X174072408Y-71986516D01*
X174144577Y-72160746D01*
X174181368Y-72345708D01*
X174181368Y-72534292D01*
X174144577Y-72719254D01*
X174072408Y-72893484D01*
X173967636Y-73050286D01*
X173834286Y-73183636D01*
X173677484Y-73288408D01*
X173503254Y-73360577D01*
X173318292Y-73397368D01*
X173224000Y-73402000D01*
X173221536Y-73402000D01*
X171702464Y-73402000D01*
X171700000Y-73402000D01*
X171605708Y-73397368D01*
X171420746Y-73360577D01*
X171246516Y-73288408D01*
X171089714Y-73183636D01*
X170956364Y-73050286D01*
X170851592Y-72893484D01*
X170779423Y-72719254D01*
X170742632Y-72534292D01*
X170742632Y-72345708D01*
X170779423Y-72160746D01*
X170851592Y-71986516D01*
X170956364Y-71829714D01*
X171089714Y-71696364D01*
X171246516Y-71591592D01*
X171420746Y-71519423D01*
X171605708Y-71482632D01*
X171700000Y-71478000D01*
X173224000Y-71478000D01*
X173318292Y-71482632D01*
G37*
G36*
X108296292Y-68942632D02*
G01*
X108481254Y-68979423D01*
X108655484Y-69051592D01*
X108812286Y-69156364D01*
X108945636Y-69289714D01*
X109050408Y-69446516D01*
X109122577Y-69620746D01*
X109159368Y-69805708D01*
X109159368Y-69994292D01*
X109122577Y-70179254D01*
X109050408Y-70353484D01*
X108945636Y-70510286D01*
X108812286Y-70643636D01*
X108655484Y-70748408D01*
X108481254Y-70820577D01*
X108296292Y-70857368D01*
X108202000Y-70862000D01*
X108199536Y-70862000D01*
X106680464Y-70862000D01*
X106678000Y-70862000D01*
X106583708Y-70857368D01*
X106398746Y-70820577D01*
X106224516Y-70748408D01*
X106067714Y-70643636D01*
X105934364Y-70510286D01*
X105829592Y-70353484D01*
X105757423Y-70179254D01*
X105720632Y-69994292D01*
X105720632Y-69805708D01*
X105757423Y-69620746D01*
X105829592Y-69446516D01*
X105934364Y-69289714D01*
X106067714Y-69156364D01*
X106224516Y-69051592D01*
X106398746Y-68979423D01*
X106583708Y-68942632D01*
X106678000Y-68938000D01*
X108202000Y-68938000D01*
X108296292Y-68942632D01*
G37*
G36*
X173318292Y-68942632D02*
G01*
X173503254Y-68979423D01*
X173677484Y-69051592D01*
X173834286Y-69156364D01*
X173967636Y-69289714D01*
X174072408Y-69446516D01*
X174144577Y-69620746D01*
X174181368Y-69805708D01*
X174181368Y-69994292D01*
X174144577Y-70179254D01*
X174072408Y-70353484D01*
X173967636Y-70510286D01*
X173834286Y-70643636D01*
X173677484Y-70748408D01*
X173503254Y-70820577D01*
X173318292Y-70857368D01*
X173224000Y-70862000D01*
X173221536Y-70862000D01*
X171702464Y-70862000D01*
X171700000Y-70862000D01*
X171605708Y-70857368D01*
X171420746Y-70820577D01*
X171246516Y-70748408D01*
X171089714Y-70643636D01*
X170956364Y-70510286D01*
X170851592Y-70353484D01*
X170779423Y-70179254D01*
X170742632Y-69994292D01*
X170742632Y-69805708D01*
X170779423Y-69620746D01*
X170851592Y-69446516D01*
X170956364Y-69289714D01*
X171089714Y-69156364D01*
X171246516Y-69051592D01*
X171420746Y-68979423D01*
X171605708Y-68942632D01*
X171700000Y-68938000D01*
X173224000Y-68938000D01*
X173318292Y-68942632D01*
G37*
G36*
X108296292Y-66402632D02*
G01*
X108481254Y-66439423D01*
X108655484Y-66511592D01*
X108812286Y-66616364D01*
X108945636Y-66749714D01*
X109050408Y-66906516D01*
X109122577Y-67080746D01*
X109159368Y-67265708D01*
X109159368Y-67454292D01*
X109122577Y-67639254D01*
X109050408Y-67813484D01*
X108945636Y-67970286D01*
X108812286Y-68103636D01*
X108655484Y-68208408D01*
X108481254Y-68280577D01*
X108296292Y-68317368D01*
X108202000Y-68322000D01*
X108199536Y-68322000D01*
X106680464Y-68322000D01*
X106678000Y-68322000D01*
X106583708Y-68317368D01*
X106398746Y-68280577D01*
X106224516Y-68208408D01*
X106067714Y-68103636D01*
X105934364Y-67970286D01*
X105829592Y-67813484D01*
X105757423Y-67639254D01*
X105720632Y-67454292D01*
X105720632Y-67265708D01*
X105757423Y-67080746D01*
X105829592Y-66906516D01*
X105934364Y-66749714D01*
X106067714Y-66616364D01*
X106224516Y-66511592D01*
X106398746Y-66439423D01*
X106583708Y-66402632D01*
X106678000Y-66398000D01*
X108202000Y-66398000D01*
X108296292Y-66402632D01*
G37*
G36*
X173318292Y-66402632D02*
G01*
X173503254Y-66439423D01*
X173677484Y-66511592D01*
X173834286Y-66616364D01*
X173967636Y-66749714D01*
X174072408Y-66906516D01*
X174144577Y-67080746D01*
X174181368Y-67265708D01*
X174181368Y-67454292D01*
X174144577Y-67639254D01*
X174072408Y-67813484D01*
X173967636Y-67970286D01*
X173834286Y-68103636D01*
X173677484Y-68208408D01*
X173503254Y-68280577D01*
X173318292Y-68317368D01*
X173224000Y-68322000D01*
X173221536Y-68322000D01*
X171702464Y-68322000D01*
X171700000Y-68322000D01*
X171605708Y-68317368D01*
X171420746Y-68280577D01*
X171246516Y-68208408D01*
X171089714Y-68103636D01*
X170956364Y-67970286D01*
X170851592Y-67813484D01*
X170779423Y-67639254D01*
X170742632Y-67454292D01*
X170742632Y-67265708D01*
X170779423Y-67080746D01*
X170851592Y-66906516D01*
X170956364Y-66749714D01*
X171089714Y-66616364D01*
X171246516Y-66511592D01*
X171420746Y-66439423D01*
X171605708Y-66402632D01*
X171700000Y-66398000D01*
X173224000Y-66398000D01*
X173318292Y-66402632D01*
G37*
G36*
X107843479Y-62595919D02*
G01*
X108037488Y-62658957D01*
X108219248Y-62751568D01*
X108384282Y-62871472D01*
X108528528Y-63015718D01*
X108648432Y-63180752D01*
X108741043Y-63362512D01*
X108804081Y-63556521D01*
X108835993Y-63758003D01*
X108835993Y-63961997D01*
X108804081Y-64163479D01*
X108741043Y-64357488D01*
X108648432Y-64539248D01*
X108528528Y-64704282D01*
X108384282Y-64848528D01*
X108219248Y-64968432D01*
X108037488Y-65061043D01*
X107843479Y-65124081D01*
X107641997Y-65155993D01*
X107438003Y-65155993D01*
X107236521Y-65124081D01*
X107042512Y-65061043D01*
X106860752Y-64968432D01*
X106695718Y-64848528D01*
X106551472Y-64704282D01*
X106431568Y-64539248D01*
X106338957Y-64357488D01*
X106275919Y-64163479D01*
X106244007Y-63961997D01*
X106244007Y-63758003D01*
X106275919Y-63556521D01*
X106338957Y-63362512D01*
X106431568Y-63180752D01*
X106551472Y-63015718D01*
X106695718Y-62871472D01*
X106860752Y-62751568D01*
X107042512Y-62658957D01*
X107236521Y-62595919D01*
X107438003Y-62564007D01*
X107641997Y-62564007D01*
X107843479Y-62595919D01*
G37*
G36*
X172643479Y-62595919D02*
G01*
X172837488Y-62658957D01*
X173019248Y-62751568D01*
X173184282Y-62871472D01*
X173328528Y-63015718D01*
X173448432Y-63180752D01*
X173541043Y-63362512D01*
X173604081Y-63556521D01*
X173635993Y-63758003D01*
X173635993Y-63961997D01*
X173604081Y-64163479D01*
X173541043Y-64357488D01*
X173448432Y-64539248D01*
X173328528Y-64704282D01*
X173184282Y-64848528D01*
X173019248Y-64968432D01*
X172837488Y-65061043D01*
X172643479Y-65124081D01*
X172441997Y-65155993D01*
X172238003Y-65155993D01*
X172036521Y-65124081D01*
X171842512Y-65061043D01*
X171660752Y-64968432D01*
X171495718Y-64848528D01*
X171351472Y-64704282D01*
X171231568Y-64539248D01*
X171138957Y-64357488D01*
X171075919Y-64163479D01*
X171044007Y-63961997D01*
X171044007Y-63758003D01*
X171075919Y-63556521D01*
X171138957Y-63362512D01*
X171231568Y-63180752D01*
X171351472Y-63015718D01*
X171495718Y-62871472D01*
X171660752Y-62751568D01*
X171842512Y-62658957D01*
X172036521Y-62595919D01*
X172238003Y-62564007D01*
X172441997Y-62564007D01*
X172643479Y-62595919D01*
G37*
%LPD*%
M02*
