M48
; DRILL file {KiCad 9.0.1} date 2025-05-07T17:07:12-0400
; FORMAT={-:-/ absolute / inch / decimal}
; #@! TF.CreationDate,2025-05-07T17:07:12-04:00
; #@! TF.GenerationSoftware,Kicad,Pcbnew,9.0.1
; #@! TF.FileFunction,Plated,1,2,PTH
FMAT,2
INCH
; #@! TA.AperFunction,Plated,PTH,ComponentDrill
T1C0.0315
%
G90
G05
T1
X4.3598Y-2.552
X4.3598Y-2.652
X4.3598Y-2.752
X4.3598Y-2.852
X4.3598Y-2.952
X4.3598Y-3.052
X4.3598Y-3.152
X4.3598Y-3.252
X4.3598Y-3.352
X4.3598Y-3.452
X4.4598Y-2.552
X4.4598Y-2.652
X4.4598Y-2.752
X4.4598Y-2.852
X4.4598Y-2.952
X4.4598Y-3.052
X4.4598Y-3.152
X4.4598Y-3.252
X4.4598Y-3.352
X4.4598Y-3.452
X4.5598Y-2.552
X4.5598Y-2.652
X4.5598Y-2.752
X4.5598Y-2.852
X4.5598Y-2.952
X4.5598Y-3.052
X4.5598Y-3.152
X4.5598Y-3.252
X4.5598Y-3.352
X4.5598Y-3.452
X4.6598Y-2.552
X4.6598Y-2.652
X4.6598Y-2.752
X4.6598Y-2.852
X4.6598Y-2.952
X4.6598Y-3.052
X4.6598Y-3.152
X4.6598Y-3.252
X4.6598Y-3.352
X4.6598Y-3.452
X4.7598Y-2.552
X4.7598Y-2.652
X4.7598Y-2.752
X4.7598Y-2.852
X4.7598Y-2.952
X4.7598Y-3.052
X4.7598Y-3.152
X4.7598Y-3.252
X4.7598Y-3.352
X4.7598Y-3.452
X4.8598Y-2.552
X4.8598Y-2.652
X4.8598Y-2.752
X4.8598Y-2.852
X4.8598Y-2.952
X4.8598Y-3.052
X4.8598Y-3.152
X4.8598Y-3.252
X4.8598Y-3.352
X4.8598Y-3.452
X4.9598Y-2.552
X4.9598Y-2.652
X4.9598Y-2.752
X4.9598Y-2.852
X4.9598Y-2.952
X4.9598Y-3.052
X4.9598Y-3.152
X4.9598Y-3.252
X4.9598Y-3.352
X4.9598Y-3.452
X5.0598Y-2.552
X5.0598Y-2.652
X5.0598Y-2.752
X5.0598Y-2.852
X5.0598Y-2.952
X5.0598Y-3.052
X5.0598Y-3.152
X5.0598Y-3.252
X5.0598Y-3.352
X5.0598Y-3.452
X5.1598Y-2.552
X5.1598Y-2.652
X5.1598Y-2.752
X5.1598Y-2.852
X5.1598Y-2.952
X5.1598Y-3.052
X5.1598Y-3.152
X5.1598Y-3.252
X5.1598Y-3.352
X5.1598Y-3.452
X5.2598Y-2.552
X5.2598Y-2.652
X5.2598Y-2.752
X5.2598Y-2.852
X5.2598Y-2.952
X5.2598Y-3.052
X5.2598Y-3.152
X5.2598Y-3.252
X5.2598Y-3.352
X5.2598Y-3.452
X5.3598Y-2.552
X5.3598Y-2.652
X5.3598Y-2.752
X5.3598Y-2.852
X5.3598Y-2.952
X5.3598Y-3.052
X5.3598Y-3.152
X5.3598Y-3.252
X5.3598Y-3.352
X5.3598Y-3.452
X5.4598Y-2.552
X5.4598Y-2.652
X5.4598Y-2.752
X5.4598Y-2.852
X5.4598Y-2.952
X5.4598Y-3.052
X5.4598Y-3.152
X5.4598Y-3.252
X5.4598Y-3.352
X5.4598Y-3.452
X5.5598Y-2.552
X5.5598Y-2.652
X5.5598Y-2.752
X5.5598Y-2.852
X5.5598Y-2.952
X5.5598Y-3.052
X5.5598Y-3.152
X5.5598Y-3.252
X5.5598Y-3.352
X5.5598Y-3.452
X5.6598Y-2.552
X5.6598Y-2.652
X5.6598Y-2.752
X5.6598Y-2.852
X5.6598Y-2.952
X5.6598Y-3.052
X5.6598Y-3.152
X5.6598Y-3.252
X5.6598Y-3.352
X5.6598Y-3.452
X5.7598Y-2.552
X5.7598Y-2.652
X5.7598Y-2.752
X5.7598Y-2.852
X5.7598Y-2.952
X5.7598Y-3.052
X5.7598Y-3.152
X5.7598Y-3.252
X5.7598Y-3.352
X5.7598Y-3.452
X5.8598Y-2.552
X5.8598Y-2.652
X5.8598Y-2.752
X5.8598Y-2.852
X5.8598Y-2.952
X5.8598Y-3.052
X5.8598Y-3.152
X5.8598Y-3.252
X5.8598Y-3.352
X5.8598Y-3.452
X5.9598Y-2.552
X5.9598Y-2.652
X5.9598Y-2.752
X5.9598Y-2.852
X5.9598Y-2.952
X5.9598Y-3.052
X5.9598Y-3.152
X5.9598Y-3.252
X5.9598Y-3.352
X5.9598Y-3.452
X6.0598Y-2.552
X6.0598Y-2.652
X6.0598Y-2.752
X6.0598Y-2.852
X6.0598Y-2.952
X6.0598Y-3.052
X6.0598Y-3.152
X6.0598Y-3.252
X6.0598Y-3.352
X6.0598Y-3.452
X6.1598Y-2.552
X6.1598Y-2.652
X6.1598Y-2.752
X6.1598Y-2.852
X6.1598Y-2.952
X6.1598Y-3.052
X6.1598Y-3.152
X6.1598Y-3.252
X6.1598Y-3.352
X6.1598Y-3.452
X6.2598Y-2.552
X6.2598Y-2.652
X6.2598Y-2.752
X6.2598Y-2.852
X6.2598Y-2.952
X6.2598Y-3.052
X6.2598Y-3.152
X6.2598Y-3.252
X6.2598Y-3.352
X6.2598Y-3.452
X6.3598Y-2.552
X6.3598Y-2.652
X6.3598Y-2.752
X6.3598Y-2.852
X6.3598Y-2.952
X6.3598Y-3.052
X6.3598Y-3.152
X6.3598Y-3.252
X6.3598Y-3.352
X6.3598Y-3.452
X6.4598Y-2.552
X6.4598Y-2.652
X6.4598Y-2.752
X6.4598Y-2.852
X6.4598Y-2.952
X6.4598Y-3.052
X6.4598Y-3.152
X6.4598Y-3.252
X6.4598Y-3.352
X6.4598Y-3.452
X6.5598Y-2.552
X6.5598Y-2.652
X6.5598Y-2.752
X6.5598Y-2.852
X6.5598Y-2.952
X6.5598Y-3.052
X6.5598Y-3.152
X6.5598Y-3.252
X6.5598Y-3.352
X6.5598Y-3.452
X6.6598Y-2.552
X6.6598Y-2.652
X6.6598Y-2.752
X6.6598Y-2.852
X6.6598Y-2.952
X6.6598Y-3.052
X6.6598Y-3.152
X6.6598Y-3.252
X6.6598Y-3.352
X6.6598Y-3.452
M30
