G04 #@! TF.GenerationSoftware,KiCad,Pcbnew,9.0.1*
G04 #@! TF.CreationDate,2025-05-07T17:07:08-04:00*
G04 #@! TF.ProjectId,matrix-protoboard_10x24,6d617472-6978-42d7-9072-6f746f626f61,rev?*
G04 #@! TF.SameCoordinates,Original*
G04 #@! TF.FileFunction,Copper,L1,Top*
G04 #@! TF.FilePolarity,Positive*
%FSLAX46Y46*%
G04 Gerber Fmt 4.6, Leading zero omitted, Abs format (unit mm)*
G04 Created by KiCad (PCBNEW 9.0.1) date 2025-05-07 17:07:08*
%MOMM*%
%LPD*%
G01*
G04 APERTURE LIST*
G04 Aperture macros list*
%AMFreePoly0*
4,1,38,0.000354,0.765354,0.325208,0.440500,0.550000,0.440500,0.550354,0.440354,0.550500,0.440000,0.550354,0.439646,0.350500,0.239792,0.350500,-0.359792,0.550354,-0.559646,0.550500,-0.560000,0.550354,-0.560354,0.550000,-0.560500,0.338500,-0.560500,0.338500,-0.763000,0.338354,-0.763354,0.338000,-0.763500,0.337646,-0.763354,-0.000208,-0.425500,-0.009792,-0.425500,-0.347646,-0.763354,
-0.348000,-0.763500,-0.348354,-0.763354,-0.348500,-0.763000,-0.348500,-0.560500,-0.550000,-0.560500,-0.550354,-0.560354,-0.550500,-0.560000,-0.550354,-0.559646,-0.350500,-0.359792,-0.350500,0.239792,-0.550354,0.439646,-0.550500,0.440000,-0.550354,0.440354,-0.550000,0.440500,-0.325208,0.440500,-0.000354,0.765354,0.000000,0.765500,0.000354,0.765354,0.000354,0.765354,$1*%
%AMFreePoly1*
4,1,28,0.060354,0.560354,0.357208,0.263500,0.583000,0.263500,0.583354,0.263354,0.583500,0.263000,0.583354,0.262646,0.235708,-0.085000,0.582354,-0.431646,0.582500,-0.432000,0.582354,-0.432354,0.582000,-0.432500,0.407500,-0.432500,0.407500,-0.607000,0.407354,-0.607354,0.407000,-0.607500,0.406646,-0.607354,0.060000,-0.260708,-0.287646,-0.608354,-0.288000,-0.608500,-0.288354,-0.608354,
-0.288500,-0.608000,-0.288500,-0.382208,-0.585354,-0.085354,-0.585500,-0.085000,-0.585354,-0.084646,0.059646,0.560354,0.060000,0.560500,0.060354,0.560354,0.060354,0.560354,$1*%
G04 Aperture macros list end*
G04 #@! TA.AperFunction,ComponentPad*
%ADD10C,1.400000*%
G04 #@! TD*
G04 #@! TA.AperFunction,SMDPad,CuDef*
%ADD11FreePoly0,90.000000*%
G04 #@! TD*
G04 #@! TA.AperFunction,SMDPad,CuDef*
%ADD12FreePoly1,0.000000*%
G04 #@! TD*
G04 #@! TA.AperFunction,SMDPad,CuDef*
%ADD13FreePoly0,0.000000*%
G04 #@! TD*
G04 #@! TA.AperFunction,SMDPad,CuDef*
%ADD14O,3.048000X1.524000*%
G04 #@! TD*
G04 APERTURE END LIST*
D10*
X146300000Y-72440000D03*
X164080000Y-67360000D03*
X115820000Y-80060000D03*
X143760000Y-74980000D03*
D11*
X128460000Y-81330000D03*
D12*
X162750000Y-66005000D03*
X167830000Y-78705000D03*
D10*
X146300000Y-77520000D03*
D12*
X111950000Y-81245000D03*
D10*
X159000000Y-77520000D03*
D12*
X142430000Y-81245000D03*
D11*
X138620000Y-76250000D03*
D12*
X122110000Y-83785000D03*
D11*
X128460000Y-71170000D03*
X110680000Y-66090000D03*
D10*
X133600000Y-74980000D03*
D13*
X155190000Y-82540000D03*
D11*
X138620000Y-66090000D03*
D12*
X119570000Y-73625000D03*
D10*
X115820000Y-64820000D03*
X128520000Y-72440000D03*
D13*
X127250000Y-64760000D03*
D11*
X125920000Y-71170000D03*
D10*
X136140000Y-67360000D03*
X156460000Y-82600000D03*
X138680000Y-80060000D03*
D12*
X147510000Y-78705000D03*
X160210000Y-86325000D03*
X134810000Y-81245000D03*
D11*
X146240000Y-78790000D03*
D13*
X114550000Y-64760000D03*
X142490000Y-80000000D03*
D11*
X125920000Y-83870000D03*
D13*
X150110000Y-85080000D03*
D12*
X139890000Y-66005000D03*
D13*
X160270000Y-77460000D03*
D11*
X161480000Y-66090000D03*
D14*
X172462000Y-69900000D03*
D10*
X125980000Y-82600000D03*
D13*
X137410000Y-80000000D03*
D11*
X110680000Y-73710000D03*
D13*
X157730000Y-69840000D03*
D11*
X125920000Y-78790000D03*
X141160000Y-71170000D03*
X158940000Y-78790000D03*
D10*
X136140000Y-64820000D03*
D12*
X160210000Y-68545000D03*
X124650000Y-83785000D03*
D13*
X134870000Y-69840000D03*
D11*
X136080000Y-73710000D03*
X120840000Y-78790000D03*
X151320000Y-86410000D03*
D10*
X156460000Y-80060000D03*
D13*
X157730000Y-67300000D03*
D11*
X128460000Y-83870000D03*
D13*
X137410000Y-64760000D03*
D12*
X144970000Y-86325000D03*
D11*
X141160000Y-73710000D03*
D13*
X139950000Y-74920000D03*
D10*
X118360000Y-87680000D03*
D11*
X123380000Y-73710000D03*
D12*
X147510000Y-68545000D03*
D14*
X107440000Y-67360000D03*
D13*
X160270000Y-69840000D03*
D11*
X125920000Y-81330000D03*
D10*
X110740000Y-87680000D03*
D11*
X153860000Y-71170000D03*
D10*
X118360000Y-67360000D03*
X148840000Y-67360000D03*
X161540000Y-85140000D03*
D11*
X148780000Y-66090000D03*
D10*
X141220000Y-77520000D03*
X110740000Y-67360000D03*
D11*
X158940000Y-81330000D03*
D12*
X114490000Y-66005000D03*
D13*
X150110000Y-74920000D03*
D10*
X131060000Y-87680000D03*
D13*
X167890000Y-74920000D03*
X150110000Y-72380000D03*
D10*
X118360000Y-74980000D03*
D12*
X124650000Y-73625000D03*
D13*
X124710000Y-67300000D03*
X112010000Y-67300000D03*
D11*
X153860000Y-66090000D03*
X118300000Y-71170000D03*
D10*
X138680000Y-64820000D03*
D11*
X138620000Y-86410000D03*
D10*
X166620000Y-85140000D03*
D11*
X158940000Y-83870000D03*
X125920000Y-73710000D03*
D13*
X145030000Y-69840000D03*
D11*
X131000000Y-71170000D03*
D10*
X113280000Y-87680000D03*
D13*
X152650000Y-87620000D03*
D10*
X133600000Y-80060000D03*
D13*
X119630000Y-82540000D03*
D11*
X123380000Y-66090000D03*
D12*
X137350000Y-73625000D03*
D10*
X123440000Y-80060000D03*
D13*
X162810000Y-82540000D03*
D11*
X110680000Y-78790000D03*
D13*
X129790000Y-72380000D03*
D10*
X161540000Y-64820000D03*
D12*
X122110000Y-73625000D03*
X114490000Y-76165000D03*
X129730000Y-76165000D03*
X142430000Y-66005000D03*
D10*
X110740000Y-82600000D03*
D13*
X167890000Y-77460000D03*
D10*
X153920000Y-72440000D03*
D12*
X122110000Y-78705000D03*
X117030000Y-76165000D03*
X139890000Y-71085000D03*
X160210000Y-76165000D03*
D13*
X165350000Y-82540000D03*
D12*
X144970000Y-71085000D03*
D13*
X152650000Y-72380000D03*
D10*
X136140000Y-69900000D03*
D11*
X113220000Y-78790000D03*
D12*
X111950000Y-73625000D03*
X111950000Y-71085000D03*
D13*
X139950000Y-85080000D03*
D10*
X133600000Y-64820000D03*
D11*
X169100000Y-86410000D03*
X143700000Y-86410000D03*
D12*
X162750000Y-76165000D03*
D13*
X160270000Y-82540000D03*
D11*
X158940000Y-86410000D03*
D14*
X172462000Y-74980000D03*
D13*
X145030000Y-80000000D03*
D10*
X156460000Y-67360000D03*
D12*
X165290000Y-73625000D03*
D10*
X141220000Y-82600000D03*
D13*
X147570000Y-72380000D03*
D10*
X156460000Y-77520000D03*
D13*
X150110000Y-67300000D03*
D11*
X131000000Y-76250000D03*
X115760000Y-81330000D03*
D13*
X119630000Y-72380000D03*
D11*
X123380000Y-71170000D03*
D12*
X114490000Y-68545000D03*
D11*
X120840000Y-86410000D03*
D10*
X143760000Y-69900000D03*
X161540000Y-77520000D03*
D13*
X124710000Y-82540000D03*
D10*
X166620000Y-72440000D03*
D12*
X134810000Y-68545000D03*
X165290000Y-71085000D03*
D10*
X151380000Y-74980000D03*
D11*
X164020000Y-76250000D03*
D12*
X157670000Y-73625000D03*
D10*
X113280000Y-82600000D03*
D13*
X134870000Y-74920000D03*
D11*
X138620000Y-81330000D03*
X115760000Y-86410000D03*
X120840000Y-66090000D03*
D13*
X127250000Y-80000000D03*
D10*
X131060000Y-69900000D03*
D11*
X161480000Y-76250000D03*
D10*
X143760000Y-80060000D03*
X118360000Y-69900000D03*
D13*
X142490000Y-85080000D03*
D11*
X110680000Y-83870000D03*
D13*
X160270000Y-85080000D03*
D10*
X166620000Y-82600000D03*
D13*
X114550000Y-74920000D03*
D12*
X127190000Y-83785000D03*
D13*
X132330000Y-64760000D03*
X112010000Y-80000000D03*
X150110000Y-87620000D03*
D11*
X141160000Y-68630000D03*
D10*
X156460000Y-74980000D03*
D11*
X166560000Y-83870000D03*
D12*
X155130000Y-73625000D03*
D14*
X107440000Y-85140000D03*
D10*
X123440000Y-64820000D03*
D11*
X166560000Y-86410000D03*
D10*
X169160000Y-74980000D03*
X166620000Y-87680000D03*
D13*
X145030000Y-85080000D03*
D10*
X143760000Y-64820000D03*
D12*
X150050000Y-73625000D03*
D10*
X125980000Y-77520000D03*
D12*
X129730000Y-83785000D03*
D11*
X141160000Y-76250000D03*
D13*
X124710000Y-72380000D03*
X157730000Y-85080000D03*
X137410000Y-85080000D03*
D12*
X127190000Y-81245000D03*
D11*
X169100000Y-68630000D03*
D13*
X167890000Y-64760000D03*
D10*
X153920000Y-85140000D03*
D12*
X127190000Y-66005000D03*
D11*
X169100000Y-66090000D03*
D12*
X167830000Y-81245000D03*
D10*
X118360000Y-77520000D03*
X164080000Y-82600000D03*
D11*
X120840000Y-81330000D03*
D13*
X122170000Y-67300000D03*
D10*
X123440000Y-85140000D03*
D11*
X151320000Y-71170000D03*
D10*
X125980000Y-85140000D03*
D11*
X131000000Y-66090000D03*
D13*
X117090000Y-82540000D03*
D11*
X113220000Y-68630000D03*
D10*
X153920000Y-69900000D03*
X161540000Y-67360000D03*
D12*
X155130000Y-68545000D03*
D11*
X113220000Y-76250000D03*
D12*
X152590000Y-68545000D03*
D10*
X141220000Y-64820000D03*
D11*
X151320000Y-66090000D03*
D13*
X160270000Y-72380000D03*
D10*
X143760000Y-72440000D03*
X133600000Y-72440000D03*
D11*
X141160000Y-83870000D03*
D13*
X155190000Y-69840000D03*
D11*
X110680000Y-81330000D03*
D12*
X114490000Y-86325000D03*
D11*
X120840000Y-68630000D03*
D10*
X151380000Y-87680000D03*
X131060000Y-85140000D03*
D13*
X152650000Y-82540000D03*
D10*
X115820000Y-69900000D03*
D13*
X112010000Y-87620000D03*
D10*
X118360000Y-64820000D03*
X115820000Y-87680000D03*
X141220000Y-69900000D03*
X153920000Y-82600000D03*
X128520000Y-82600000D03*
D12*
X165290000Y-86325000D03*
X111950000Y-83785000D03*
X129730000Y-71085000D03*
X139890000Y-73625000D03*
D11*
X123380000Y-68630000D03*
X148780000Y-86410000D03*
X151320000Y-73710000D03*
D12*
X155130000Y-78705000D03*
D10*
X153920000Y-77520000D03*
D13*
X129790000Y-85080000D03*
X134870000Y-87620000D03*
D11*
X164020000Y-73710000D03*
D12*
X162750000Y-86325000D03*
D13*
X147570000Y-87620000D03*
D11*
X164020000Y-66090000D03*
D13*
X129790000Y-74920000D03*
D12*
X150050000Y-83785000D03*
D11*
X113220000Y-73710000D03*
X164020000Y-68630000D03*
X131000000Y-68630000D03*
D12*
X152590000Y-66005000D03*
D13*
X155190000Y-85080000D03*
D10*
X146300000Y-82600000D03*
X141220000Y-80060000D03*
D12*
X150050000Y-81245000D03*
X142430000Y-73625000D03*
D13*
X145030000Y-87620000D03*
X122170000Y-80000000D03*
D10*
X113280000Y-67360000D03*
D12*
X165290000Y-78705000D03*
D11*
X166560000Y-76250000D03*
D10*
X164080000Y-72440000D03*
D11*
X158940000Y-71170000D03*
D10*
X151380000Y-77520000D03*
D12*
X147510000Y-86325000D03*
X117030000Y-66005000D03*
X137350000Y-66005000D03*
D10*
X136140000Y-82600000D03*
D12*
X139890000Y-76165000D03*
D13*
X142490000Y-72380000D03*
D11*
X151320000Y-68630000D03*
D14*
X172462000Y-77520000D03*
D13*
X117090000Y-74920000D03*
D12*
X152590000Y-83785000D03*
D11*
X143700000Y-66090000D03*
D10*
X151380000Y-82600000D03*
D13*
X124710000Y-85080000D03*
D12*
X157670000Y-66005000D03*
D11*
X153860000Y-83870000D03*
D10*
X136140000Y-74980000D03*
X133600000Y-69900000D03*
D13*
X145030000Y-74920000D03*
D12*
X132270000Y-81245000D03*
D10*
X161540000Y-74980000D03*
D11*
X138620000Y-71170000D03*
D13*
X139950000Y-72380000D03*
D10*
X120900000Y-72440000D03*
D12*
X142430000Y-83785000D03*
D10*
X166620000Y-69900000D03*
D11*
X164020000Y-86410000D03*
X123380000Y-86410000D03*
X136080000Y-68630000D03*
X148780000Y-71170000D03*
D13*
X127250000Y-67300000D03*
D10*
X148840000Y-74980000D03*
D11*
X120840000Y-83870000D03*
D10*
X166620000Y-64820000D03*
D12*
X124650000Y-81245000D03*
D11*
X131000000Y-83870000D03*
D12*
X155130000Y-76165000D03*
X137350000Y-86325000D03*
D10*
X164080000Y-80060000D03*
D11*
X166560000Y-66090000D03*
D12*
X114490000Y-78705000D03*
D10*
X161540000Y-80060000D03*
X136140000Y-77520000D03*
D13*
X147570000Y-82540000D03*
X165350000Y-77460000D03*
X114550000Y-72380000D03*
X142490000Y-69840000D03*
X152650000Y-74920000D03*
D12*
X162750000Y-81245000D03*
X132270000Y-76165000D03*
X139890000Y-68545000D03*
X165290000Y-76165000D03*
D13*
X165350000Y-85080000D03*
D11*
X120840000Y-73710000D03*
D13*
X127250000Y-77460000D03*
D12*
X122110000Y-71085000D03*
X111950000Y-68545000D03*
D10*
X169160000Y-77520000D03*
D11*
X143700000Y-73710000D03*
D12*
X157670000Y-83785000D03*
D10*
X169160000Y-80060000D03*
D13*
X139950000Y-82540000D03*
D12*
X134810000Y-73625000D03*
X132270000Y-66005000D03*
X119570000Y-76165000D03*
D10*
X146300000Y-74980000D03*
D11*
X136080000Y-83870000D03*
D12*
X127190000Y-76165000D03*
D13*
X117090000Y-64760000D03*
D11*
X118300000Y-86410000D03*
D10*
X136140000Y-87680000D03*
D12*
X132270000Y-71085000D03*
D11*
X143700000Y-78790000D03*
D13*
X160270000Y-87620000D03*
X167890000Y-82540000D03*
D11*
X151320000Y-81330000D03*
D12*
X150050000Y-71085000D03*
D13*
X162810000Y-85080000D03*
D11*
X128460000Y-76250000D03*
D13*
X157730000Y-77460000D03*
X119630000Y-67300000D03*
D12*
X155130000Y-86325000D03*
D11*
X151320000Y-83870000D03*
D12*
X162750000Y-68545000D03*
D10*
X148840000Y-85140000D03*
D11*
X133540000Y-73710000D03*
D12*
X127190000Y-86325000D03*
D11*
X128460000Y-78790000D03*
D12*
X111950000Y-76165000D03*
X150050000Y-86325000D03*
D10*
X159000000Y-74980000D03*
D13*
X114550000Y-80000000D03*
D12*
X167830000Y-83785000D03*
X111950000Y-86325000D03*
D13*
X165350000Y-87620000D03*
D12*
X167830000Y-76165000D03*
D11*
X141160000Y-81330000D03*
D13*
X137410000Y-74920000D03*
D11*
X164020000Y-83870000D03*
D10*
X123440000Y-72440000D03*
D13*
X132330000Y-74920000D03*
D11*
X151320000Y-76250000D03*
D13*
X117090000Y-77460000D03*
X119630000Y-74920000D03*
D11*
X128460000Y-66090000D03*
D12*
X167830000Y-86325000D03*
D11*
X115760000Y-68630000D03*
D10*
X115820000Y-85140000D03*
D13*
X112010000Y-69840000D03*
X157730000Y-72380000D03*
D12*
X147510000Y-73625000D03*
D10*
X120900000Y-87680000D03*
D12*
X165290000Y-66005000D03*
D11*
X118300000Y-83870000D03*
D13*
X152650000Y-80000000D03*
X152650000Y-85080000D03*
D11*
X125920000Y-68630000D03*
D12*
X167830000Y-71085000D03*
D11*
X128460000Y-73710000D03*
X115760000Y-76250000D03*
D10*
X120900000Y-69900000D03*
X110740000Y-77520000D03*
D12*
X160210000Y-73625000D03*
X152590000Y-86325000D03*
D10*
X161540000Y-82600000D03*
D12*
X147510000Y-76165000D03*
D13*
X114550000Y-67300000D03*
D11*
X136080000Y-78790000D03*
D13*
X114550000Y-69840000D03*
D12*
X160210000Y-83785000D03*
X157670000Y-86325000D03*
D10*
X153920000Y-67360000D03*
D12*
X134810000Y-86325000D03*
D11*
X133540000Y-68630000D03*
X156400000Y-68630000D03*
D10*
X131060000Y-80060000D03*
D11*
X115760000Y-73710000D03*
D12*
X137350000Y-83785000D03*
D13*
X122170000Y-74920000D03*
X119630000Y-64760000D03*
D10*
X136140000Y-72440000D03*
X146300000Y-85140000D03*
D12*
X150050000Y-66005000D03*
D11*
X166560000Y-71170000D03*
D12*
X114490000Y-71085000D03*
D10*
X123440000Y-82600000D03*
D12*
X132270000Y-73625000D03*
D13*
X127250000Y-74920000D03*
X157730000Y-74920000D03*
D11*
X113220000Y-86410000D03*
D10*
X156460000Y-72440000D03*
X138680000Y-85140000D03*
D12*
X155130000Y-81245000D03*
D13*
X127250000Y-87620000D03*
X117090000Y-80000000D03*
D10*
X169160000Y-69900000D03*
X146300000Y-87680000D03*
X131060000Y-67360000D03*
D14*
X107440000Y-80060000D03*
D10*
X120900000Y-85140000D03*
X110740000Y-74980000D03*
D11*
X148780000Y-76250000D03*
D10*
X120900000Y-82600000D03*
D13*
X147570000Y-77460000D03*
D11*
X158940000Y-76250000D03*
X120840000Y-76250000D03*
D13*
X162810000Y-67300000D03*
X142490000Y-67300000D03*
D12*
X155130000Y-66005000D03*
X137350000Y-71085000D03*
D13*
X114550000Y-87620000D03*
X145030000Y-82540000D03*
D10*
X161540000Y-87680000D03*
D12*
X152590000Y-76165000D03*
D10*
X110740000Y-64820000D03*
X131060000Y-74980000D03*
D14*
X172462000Y-67360000D03*
D11*
X169100000Y-76250000D03*
D12*
X144970000Y-76165000D03*
D11*
X169100000Y-83870000D03*
D10*
X136140000Y-80060000D03*
X146300000Y-64820000D03*
D12*
X119570000Y-68545000D03*
D13*
X155190000Y-67300000D03*
D12*
X124650000Y-78705000D03*
D13*
X132330000Y-67300000D03*
D10*
X133600000Y-82600000D03*
D13*
X155190000Y-80000000D03*
D10*
X164080000Y-85140000D03*
D11*
X131000000Y-86410000D03*
D10*
X143760000Y-87680000D03*
D13*
X134870000Y-67300000D03*
D11*
X115760000Y-83870000D03*
D13*
X124710000Y-80000000D03*
X132330000Y-80000000D03*
D12*
X122110000Y-86325000D03*
D10*
X133600000Y-77520000D03*
D12*
X129730000Y-81245000D03*
D10*
X118360000Y-85140000D03*
X113280000Y-77520000D03*
D13*
X145030000Y-67300000D03*
D10*
X148840000Y-72440000D03*
D12*
X122110000Y-81245000D03*
D13*
X150110000Y-64760000D03*
D10*
X166620000Y-77520000D03*
D11*
X133540000Y-81330000D03*
D10*
X125980000Y-69900000D03*
D13*
X142490000Y-64760000D03*
X145030000Y-64760000D03*
X112010000Y-72380000D03*
X155190000Y-64760000D03*
D12*
X167830000Y-68545000D03*
D10*
X138680000Y-67360000D03*
D13*
X132330000Y-77460000D03*
D10*
X153920000Y-80060000D03*
X138680000Y-87680000D03*
D13*
X119630000Y-80000000D03*
D12*
X160210000Y-71085000D03*
D10*
X148840000Y-80060000D03*
D12*
X144970000Y-68545000D03*
D11*
X131000000Y-73710000D03*
D10*
X113280000Y-74980000D03*
D11*
X146240000Y-73710000D03*
D13*
X139950000Y-69840000D03*
X150110000Y-82540000D03*
D12*
X139890000Y-86325000D03*
X132270000Y-83785000D03*
D11*
X166560000Y-78790000D03*
D10*
X141220000Y-72440000D03*
D13*
X152650000Y-77460000D03*
X165350000Y-80000000D03*
X157730000Y-82540000D03*
D10*
X123440000Y-69900000D03*
D13*
X127250000Y-85080000D03*
X124710000Y-74920000D03*
D11*
X156400000Y-73710000D03*
D13*
X114550000Y-77460000D03*
X162810000Y-77460000D03*
X162810000Y-87620000D03*
D11*
X148780000Y-81330000D03*
D12*
X124650000Y-76165000D03*
D11*
X110680000Y-68630000D03*
D13*
X142490000Y-74920000D03*
X150110000Y-77460000D03*
D10*
X153920000Y-87680000D03*
D12*
X122110000Y-76165000D03*
X152590000Y-71085000D03*
D13*
X157730000Y-80000000D03*
X134870000Y-82540000D03*
X139950000Y-77460000D03*
X142490000Y-87620000D03*
D12*
X155130000Y-71085000D03*
D10*
X115820000Y-74980000D03*
D11*
X143700000Y-83870000D03*
X166560000Y-81330000D03*
D12*
X142430000Y-68545000D03*
X124650000Y-66005000D03*
X119570000Y-83785000D03*
D11*
X143700000Y-81330000D03*
D12*
X150050000Y-68545000D03*
D13*
X134870000Y-80000000D03*
X165350000Y-72380000D03*
D11*
X136080000Y-76250000D03*
D14*
X172462000Y-72440000D03*
D11*
X133540000Y-83870000D03*
X136080000Y-71170000D03*
D13*
X147570000Y-67300000D03*
D10*
X141220000Y-87680000D03*
D13*
X129790000Y-67300000D03*
D12*
X137350000Y-76165000D03*
D10*
X161540000Y-69900000D03*
D12*
X122110000Y-66005000D03*
D10*
X143760000Y-85140000D03*
D13*
X142490000Y-82540000D03*
D10*
X161540000Y-72440000D03*
D13*
X167890000Y-87620000D03*
D12*
X157670000Y-68545000D03*
X124650000Y-68545000D03*
D14*
X107440000Y-77520000D03*
D13*
X165350000Y-74920000D03*
D11*
X156400000Y-81330000D03*
X133540000Y-76250000D03*
X164020000Y-71170000D03*
X156400000Y-78790000D03*
D13*
X147570000Y-85080000D03*
D12*
X137350000Y-78705000D03*
D11*
X113220000Y-71170000D03*
X146240000Y-83870000D03*
D10*
X156460000Y-87680000D03*
D11*
X161480000Y-68630000D03*
X141160000Y-86410000D03*
D10*
X118360000Y-80060000D03*
D11*
X138620000Y-68630000D03*
D12*
X160210000Y-78705000D03*
X139890000Y-83785000D03*
X134810000Y-66005000D03*
X117030000Y-68545000D03*
D13*
X165350000Y-64760000D03*
X134870000Y-77460000D03*
D12*
X127190000Y-68545000D03*
X147510000Y-66005000D03*
D11*
X153860000Y-68630000D03*
D10*
X143760000Y-82600000D03*
X128520000Y-67360000D03*
D12*
X157670000Y-71085000D03*
D10*
X169160000Y-85140000D03*
X169160000Y-87680000D03*
D13*
X147570000Y-74920000D03*
D11*
X146240000Y-81330000D03*
D10*
X120900000Y-80060000D03*
D13*
X132330000Y-72380000D03*
D10*
X118360000Y-72440000D03*
D12*
X144970000Y-73625000D03*
D13*
X122170000Y-72380000D03*
X134870000Y-64760000D03*
D10*
X159000000Y-80060000D03*
D11*
X136080000Y-86410000D03*
X153860000Y-86410000D03*
D12*
X165290000Y-68545000D03*
D10*
X153920000Y-74980000D03*
D13*
X147570000Y-80000000D03*
D10*
X166620000Y-80060000D03*
D13*
X112010000Y-82540000D03*
X134870000Y-85080000D03*
X117090000Y-67300000D03*
D14*
X172462000Y-85140000D03*
D10*
X110740000Y-69900000D03*
X113280000Y-72440000D03*
D11*
X118300000Y-66090000D03*
D13*
X134870000Y-72380000D03*
D12*
X165290000Y-81245000D03*
D10*
X153920000Y-64820000D03*
D11*
X136080000Y-81330000D03*
X113220000Y-83870000D03*
X115760000Y-66090000D03*
D13*
X155190000Y-72380000D03*
D11*
X169100000Y-73710000D03*
D13*
X129790000Y-77460000D03*
D10*
X169160000Y-64820000D03*
D13*
X167890000Y-80000000D03*
X129790000Y-64760000D03*
D12*
X124650000Y-71085000D03*
D11*
X115760000Y-78790000D03*
X151320000Y-78790000D03*
D13*
X114550000Y-82540000D03*
D11*
X156400000Y-66090000D03*
X133540000Y-71170000D03*
D13*
X119630000Y-69840000D03*
D12*
X162750000Y-71085000D03*
D13*
X112010000Y-85080000D03*
X139950000Y-80000000D03*
D12*
X147510000Y-83785000D03*
D10*
X110740000Y-85140000D03*
D11*
X158940000Y-73710000D03*
D13*
X112010000Y-64760000D03*
D10*
X164080000Y-77520000D03*
D13*
X147570000Y-69840000D03*
D14*
X107440000Y-69900000D03*
D11*
X131000000Y-78790000D03*
D10*
X128520000Y-87680000D03*
D13*
X117090000Y-85080000D03*
D12*
X117030000Y-78705000D03*
D10*
X131060000Y-64820000D03*
X148840000Y-69900000D03*
D11*
X143700000Y-76250000D03*
D10*
X128520000Y-80060000D03*
D12*
X139890000Y-81245000D03*
D11*
X161480000Y-86410000D03*
D13*
X114550000Y-85080000D03*
D12*
X111950000Y-66005000D03*
D13*
X157730000Y-64760000D03*
D12*
X114490000Y-83785000D03*
D11*
X133540000Y-78790000D03*
D10*
X128520000Y-69900000D03*
D11*
X158940000Y-66090000D03*
D12*
X137350000Y-81245000D03*
D11*
X146240000Y-76250000D03*
X138620000Y-83870000D03*
X138620000Y-78790000D03*
X136080000Y-66090000D03*
D12*
X162750000Y-78705000D03*
D13*
X162810000Y-72380000D03*
D11*
X169100000Y-71170000D03*
D10*
X125980000Y-74980000D03*
D13*
X122170000Y-69840000D03*
D10*
X166620000Y-74980000D03*
X110740000Y-72440000D03*
D11*
X120840000Y-71170000D03*
D13*
X112010000Y-77460000D03*
D12*
X119570000Y-86325000D03*
D10*
X115820000Y-67360000D03*
X164080000Y-69900000D03*
D13*
X122170000Y-87620000D03*
D11*
X113220000Y-66090000D03*
D13*
X150110000Y-80000000D03*
X129790000Y-69840000D03*
D10*
X141220000Y-74980000D03*
D11*
X110680000Y-76250000D03*
D12*
X162750000Y-83785000D03*
D11*
X164020000Y-78790000D03*
D10*
X156460000Y-85140000D03*
D13*
X129790000Y-80000000D03*
D10*
X159000000Y-72440000D03*
X146300000Y-69900000D03*
X125980000Y-67360000D03*
D13*
X137410000Y-67300000D03*
D12*
X134810000Y-83785000D03*
D13*
X127250000Y-72380000D03*
D10*
X151380000Y-72440000D03*
D11*
X118300000Y-76250000D03*
D12*
X160210000Y-81245000D03*
D13*
X162810000Y-69840000D03*
D12*
X119570000Y-71085000D03*
D10*
X120900000Y-64820000D03*
D12*
X129730000Y-73625000D03*
D11*
X158940000Y-68630000D03*
D10*
X113280000Y-80060000D03*
D12*
X157670000Y-76165000D03*
D13*
X124710000Y-77460000D03*
D10*
X136140000Y-85140000D03*
D11*
X131000000Y-81330000D03*
D10*
X156460000Y-64820000D03*
D13*
X117090000Y-72380000D03*
D12*
X142430000Y-86325000D03*
D11*
X143700000Y-68630000D03*
D10*
X151380000Y-67360000D03*
D11*
X125920000Y-86410000D03*
X125920000Y-76250000D03*
X161480000Y-81330000D03*
X128460000Y-68630000D03*
D12*
X129730000Y-78705000D03*
D10*
X151380000Y-80060000D03*
D13*
X132330000Y-69840000D03*
D12*
X150050000Y-76165000D03*
D10*
X164080000Y-87680000D03*
X110740000Y-80060000D03*
X131060000Y-77520000D03*
D13*
X167890000Y-72380000D03*
D10*
X138680000Y-77520000D03*
D13*
X167890000Y-69840000D03*
D12*
X111950000Y-78705000D03*
D10*
X118360000Y-82600000D03*
D13*
X145030000Y-77460000D03*
D11*
X118300000Y-73710000D03*
D12*
X165290000Y-83785000D03*
X134810000Y-78705000D03*
D11*
X153860000Y-76250000D03*
D12*
X117030000Y-73625000D03*
D13*
X160270000Y-64760000D03*
D11*
X118300000Y-68630000D03*
X146240000Y-71170000D03*
D14*
X172462000Y-82600000D03*
D13*
X132330000Y-82540000D03*
D11*
X125920000Y-66090000D03*
D12*
X157670000Y-81245000D03*
D13*
X139950000Y-87620000D03*
X152650000Y-69840000D03*
D10*
X138680000Y-69900000D03*
D12*
X147510000Y-71085000D03*
D13*
X122170000Y-77460000D03*
D12*
X114490000Y-81245000D03*
X129730000Y-66005000D03*
D13*
X137410000Y-77460000D03*
D11*
X128460000Y-86410000D03*
D13*
X117090000Y-87620000D03*
D10*
X159000000Y-87680000D03*
D12*
X155130000Y-83785000D03*
D11*
X115760000Y-71170000D03*
D10*
X159000000Y-85140000D03*
X125980000Y-80060000D03*
D11*
X133540000Y-86410000D03*
D10*
X146300000Y-67360000D03*
D11*
X146240000Y-68630000D03*
D10*
X115820000Y-72440000D03*
X146300000Y-80060000D03*
X169160000Y-67360000D03*
D12*
X127190000Y-73625000D03*
D10*
X166620000Y-67360000D03*
D11*
X146240000Y-66090000D03*
D10*
X148840000Y-64820000D03*
D12*
X142430000Y-78705000D03*
D10*
X159000000Y-69900000D03*
D13*
X137410000Y-82540000D03*
D12*
X144970000Y-83785000D03*
D11*
X153860000Y-81330000D03*
D13*
X165350000Y-69840000D03*
X152650000Y-67300000D03*
X122170000Y-82540000D03*
D10*
X128520000Y-77520000D03*
D12*
X124650000Y-86325000D03*
D11*
X169100000Y-81330000D03*
D12*
X139890000Y-78705000D03*
D13*
X139950000Y-64760000D03*
D12*
X119570000Y-81245000D03*
X160210000Y-66005000D03*
D13*
X165350000Y-67300000D03*
D10*
X115820000Y-77520000D03*
X120900000Y-74980000D03*
D13*
X155190000Y-77460000D03*
D11*
X148780000Y-68630000D03*
D10*
X133600000Y-67360000D03*
D12*
X150050000Y-78705000D03*
X147510000Y-81245000D03*
D13*
X167890000Y-67300000D03*
D12*
X157670000Y-78705000D03*
D13*
X152650000Y-64760000D03*
D10*
X156460000Y-69900000D03*
X125980000Y-64820000D03*
D13*
X122170000Y-85080000D03*
D10*
X159000000Y-64820000D03*
D11*
X156400000Y-83870000D03*
D13*
X160270000Y-67300000D03*
D11*
X110680000Y-71170000D03*
D10*
X131060000Y-72440000D03*
D11*
X141160000Y-78790000D03*
X153860000Y-73710000D03*
D10*
X143760000Y-77520000D03*
D12*
X117030000Y-83785000D03*
D10*
X128520000Y-74980000D03*
X159000000Y-67360000D03*
X143760000Y-67360000D03*
D11*
X156400000Y-71170000D03*
D10*
X138680000Y-82600000D03*
D12*
X122110000Y-68545000D03*
D10*
X115820000Y-82600000D03*
X164080000Y-74980000D03*
D12*
X117030000Y-86325000D03*
D11*
X156400000Y-76250000D03*
X169100000Y-78790000D03*
X110680000Y-86410000D03*
D14*
X107440000Y-72440000D03*
D13*
X112010000Y-74920000D03*
D10*
X120900000Y-67360000D03*
X113280000Y-64820000D03*
D12*
X134810000Y-71085000D03*
D11*
X113220000Y-81330000D03*
X166560000Y-68630000D03*
D13*
X124710000Y-69840000D03*
D10*
X148840000Y-87680000D03*
D11*
X156400000Y-86410000D03*
D10*
X159000000Y-82600000D03*
D13*
X137410000Y-87620000D03*
X160270000Y-74920000D03*
X142490000Y-77460000D03*
D12*
X119570000Y-66005000D03*
D13*
X162810000Y-64760000D03*
D10*
X148840000Y-82600000D03*
X125980000Y-87680000D03*
D11*
X161480000Y-71170000D03*
D12*
X132270000Y-68545000D03*
X142430000Y-71085000D03*
D10*
X123440000Y-87680000D03*
D11*
X148780000Y-83870000D03*
X161480000Y-78790000D03*
D10*
X113280000Y-85140000D03*
X125980000Y-72440000D03*
D12*
X114490000Y-73625000D03*
D10*
X169160000Y-82600000D03*
X123440000Y-67360000D03*
D11*
X118300000Y-81330000D03*
D14*
X107440000Y-74980000D03*
D10*
X141220000Y-85140000D03*
D13*
X157730000Y-87620000D03*
D10*
X128520000Y-85140000D03*
D11*
X166560000Y-73710000D03*
D13*
X150110000Y-69840000D03*
D12*
X144970000Y-66005000D03*
D10*
X113280000Y-69900000D03*
D11*
X161480000Y-73710000D03*
D13*
X129790000Y-87620000D03*
X129790000Y-82540000D03*
D11*
X118300000Y-78790000D03*
D12*
X152590000Y-81245000D03*
D10*
X151380000Y-64820000D03*
X131060000Y-82600000D03*
X123440000Y-74980000D03*
D13*
X124710000Y-64760000D03*
D10*
X120900000Y-77520000D03*
X148840000Y-77520000D03*
D12*
X144970000Y-78705000D03*
D13*
X155190000Y-74920000D03*
D14*
X172462000Y-80060000D03*
D13*
X145030000Y-72380000D03*
D12*
X129730000Y-68545000D03*
D10*
X164080000Y-64820000D03*
X151380000Y-69900000D03*
D12*
X134810000Y-76165000D03*
D10*
X138680000Y-72440000D03*
X169160000Y-72440000D03*
D11*
X123380000Y-76250000D03*
D13*
X155190000Y-87620000D03*
D11*
X148780000Y-78790000D03*
D13*
X127250000Y-82540000D03*
D12*
X152590000Y-73625000D03*
D13*
X117090000Y-69840000D03*
D11*
X123380000Y-81330000D03*
D13*
X160270000Y-80000000D03*
D12*
X129730000Y-86325000D03*
D10*
X151380000Y-85140000D03*
D12*
X132270000Y-78705000D03*
D13*
X137410000Y-72380000D03*
D11*
X148780000Y-73710000D03*
D10*
X128520000Y-64820000D03*
D11*
X153860000Y-78790000D03*
X123380000Y-78790000D03*
X138620000Y-73710000D03*
D12*
X127190000Y-71085000D03*
D11*
X141160000Y-66090000D03*
D13*
X139950000Y-67300000D03*
D12*
X117030000Y-71085000D03*
D11*
X146240000Y-86410000D03*
D13*
X124710000Y-87620000D03*
X132330000Y-87620000D03*
D11*
X123380000Y-83870000D03*
D10*
X133600000Y-85140000D03*
X141220000Y-67360000D03*
D13*
X132330000Y-85080000D03*
D14*
X107440000Y-82600000D03*
D13*
X137410000Y-69840000D03*
D11*
X164020000Y-81330000D03*
X133540000Y-66090000D03*
D13*
X162810000Y-74920000D03*
X147570000Y-64760000D03*
X122170000Y-64760000D03*
X119630000Y-77460000D03*
X119630000Y-87620000D03*
D11*
X143700000Y-71170000D03*
D12*
X127190000Y-78705000D03*
X162750000Y-73625000D03*
D10*
X123440000Y-77520000D03*
D12*
X117030000Y-81245000D03*
X167830000Y-66005000D03*
D13*
X127250000Y-69840000D03*
D10*
X138680000Y-74980000D03*
D13*
X162810000Y-80000000D03*
D12*
X142430000Y-76165000D03*
X167830000Y-73625000D03*
X152590000Y-78705000D03*
D10*
X133600000Y-87680000D03*
D12*
X119570000Y-78705000D03*
X144970000Y-81245000D03*
X137350000Y-68545000D03*
D13*
X119630000Y-85080000D03*
D11*
X161480000Y-83870000D03*
D13*
X167890000Y-85080000D03*
D12*
X132270000Y-86325000D03*
M02*
