G04 #@! TF.GenerationSoftware,KiCad,Pcbnew,9.0.1*
G04 #@! TF.CreationDate,2025-05-06T23:41:27-04:00*
G04 #@! TF.ProjectId,AltbierProto,416c7462-6965-4725-9072-6f746f2e6b69,rev?*
G04 #@! TF.SameCoordinates,Original*
G04 #@! TF.FileFunction,Paste,Top*
G04 #@! TF.FilePolarity,Positive*
%FSLAX46Y46*%
G04 Gerber Fmt 4.6, Leading zero omitted, Abs format (unit mm)*
G04 Created by KiCad (PCBNEW 9.0.1) date 2025-05-06 23:41:27*
%MOMM*%
%LPD*%
G01*
G04 APERTURE LIST*
G04 Aperture macros list*
%AMRoundRect*
0 Rectangle with rounded corners*
0 $1 Rounding radius*
0 $2 $3 $4 $5 $6 $7 $8 $9 X,Y pos of 4 corners*
0 Add a 4 corners polygon primitive as box body*
4,1,4,$2,$3,$4,$5,$6,$7,$8,$9,$2,$3,0*
0 Add four circle primitives for the rounded corners*
1,1,$1+$1,$2,$3*
1,1,$1+$1,$4,$5*
1,1,$1+$1,$6,$7*
1,1,$1+$1,$8,$9*
0 Add four rect primitives between the rounded corners*
20,1,$1+$1,$2,$3,$4,$5,0*
20,1,$1+$1,$4,$5,$6,$7,0*
20,1,$1+$1,$6,$7,$8,$9,0*
20,1,$1+$1,$8,$9,$2,$3,0*%
G04 Aperture macros list end*
%ADD10RoundRect,0.150000X-0.825000X-0.150000X0.825000X-0.150000X0.825000X0.150000X-0.825000X0.150000X0*%
%ADD11RoundRect,0.100000X-0.637500X-0.100000X0.637500X-0.100000X0.637500X0.100000X-0.637500X0.100000X0*%
%ADD12R,0.400000X1.800000*%
%ADD13R,1.350000X1.500000*%
%ADD14R,1.500000X1.400000*%
%ADD15R,1.100000X1.000000*%
%ADD16RoundRect,0.250001X-0.462499X-0.624999X0.462499X-0.624999X0.462499X0.624999X-0.462499X0.624999X0*%
%ADD17RoundRect,0.250000X-0.325000X-0.450000X0.325000X-0.450000X0.325000X0.450000X-0.325000X0.450000X0*%
%ADD18RoundRect,0.237500X-0.287500X-0.237500X0.287500X-0.237500X0.287500X0.237500X-0.287500X0.237500X0*%
G04 APERTURE END LIST*
D10*
X138645000Y-59815000D03*
X138645000Y-61085000D03*
X138645000Y-62355000D03*
X138645000Y-63625000D03*
X138645000Y-64895000D03*
X138645000Y-66165000D03*
X138645000Y-67435000D03*
X138645000Y-68705000D03*
X143595000Y-68705000D03*
X143595000Y-67435000D03*
X143595000Y-66165000D03*
X143595000Y-64895000D03*
X143595000Y-63625000D03*
X143595000Y-62355000D03*
X143595000Y-61085000D03*
X143595000Y-59815000D03*
D11*
X138307500Y-84135000D03*
X138307500Y-84785000D03*
X138307500Y-85435000D03*
X138307500Y-86085000D03*
X138307500Y-86735000D03*
X138307500Y-87385000D03*
X138307500Y-88035000D03*
X138307500Y-88685000D03*
X138307500Y-89335000D03*
X138307500Y-89985000D03*
X144032500Y-89985000D03*
X144032500Y-89335000D03*
X144032500Y-88685000D03*
X144032500Y-88035000D03*
X144032500Y-87385000D03*
X144032500Y-86735000D03*
X144032500Y-86085000D03*
X144032500Y-85435000D03*
X144032500Y-84785000D03*
X144032500Y-84135000D03*
D12*
X139820000Y-126440000D03*
X140470000Y-126440000D03*
X141120000Y-126440000D03*
X141770000Y-126440000D03*
X142420000Y-126440000D03*
D13*
X137045000Y-129310000D03*
D14*
X137870000Y-126640000D03*
D15*
X139620000Y-130490000D03*
X142620000Y-130490000D03*
D14*
X144370000Y-126640000D03*
D13*
X145195000Y-129310000D03*
D16*
X116822500Y-123900000D03*
X119797500Y-123900000D03*
D17*
X162975000Y-128960000D03*
X165025000Y-128960000D03*
D16*
X116822500Y-126430000D03*
X119797500Y-126430000D03*
X116822500Y-128970000D03*
X119797500Y-128970000D03*
D18*
X152965000Y-121330000D03*
X154715000Y-121330000D03*
D17*
X162975000Y-126420000D03*
X165025000Y-126420000D03*
X162975000Y-123880000D03*
X165025000Y-123880000D03*
D18*
X152965000Y-118790000D03*
X154715000Y-118790000D03*
X127535000Y-118840000D03*
X129285000Y-118840000D03*
X127535000Y-121380000D03*
X129285000Y-121380000D03*
X127535000Y-116300000D03*
X129285000Y-116300000D03*
X152965000Y-116250000D03*
X154715000Y-116250000D03*
D16*
X126982500Y-123900000D03*
X129957500Y-123900000D03*
X126982500Y-128970000D03*
X129957500Y-128970000D03*
X126982500Y-126430000D03*
X129957500Y-126430000D03*
D17*
X152815000Y-128970000D03*
X154865000Y-128970000D03*
X152815000Y-126430000D03*
X154865000Y-126430000D03*
X152815000Y-123890000D03*
X154865000Y-123890000D03*
M02*
