G04 #@! TF.GenerationSoftware,KiCad,Pcbnew,9.0.1*
G04 #@! TF.CreationDate,2025-05-06T23:41:27-04:00*
G04 #@! TF.ProjectId,AltbierProto,416c7462-6965-4725-9072-6f746f2e6b69,rev?*
G04 #@! TF.SameCoordinates,Original*
G04 #@! TF.FileFunction,Copper,L1,Top*
G04 #@! TF.FilePolarity,Positive*
%FSLAX46Y46*%
G04 Gerber Fmt 4.6, Leading zero omitted, Abs format (unit mm)*
G04 Created by KiCad (PCBNEW 9.0.1) date 2025-05-06 23:41:27*
%MOMM*%
%LPD*%
G01*
G04 APERTURE LIST*
G04 Aperture macros list*
%AMRoundRect*
0 Rectangle with rounded corners*
0 $1 Rounding radius*
0 $2 $3 $4 $5 $6 $7 $8 $9 X,Y pos of 4 corners*
0 Add a 4 corners polygon primitive as box body*
4,1,4,$2,$3,$4,$5,$6,$7,$8,$9,$2,$3,0*
0 Add four circle primitives for the rounded corners*
1,1,$1+$1,$2,$3*
1,1,$1+$1,$4,$5*
1,1,$1+$1,$6,$7*
1,1,$1+$1,$8,$9*
0 Add four rect primitives between the rounded corners*
20,1,$1+$1,$2,$3,$4,$5,0*
20,1,$1+$1,$4,$5,$6,$7,0*
20,1,$1+$1,$6,$7,$8,$9,0*
20,1,$1+$1,$8,$9,$2,$3,0*%
G04 Aperture macros list end*
G04 #@! TA.AperFunction,ComponentPad*
%ADD10O,1.700000X1.700000*%
G04 #@! TD*
G04 #@! TA.AperFunction,SMDPad,CuDef*
%ADD11RoundRect,0.150000X-0.825000X-0.150000X0.825000X-0.150000X0.825000X0.150000X-0.825000X0.150000X0*%
G04 #@! TD*
G04 #@! TA.AperFunction,SMDPad,CuDef*
%ADD12RoundRect,0.100000X-0.637500X-0.100000X0.637500X-0.100000X0.637500X0.100000X-0.637500X0.100000X0*%
G04 #@! TD*
G04 #@! TA.AperFunction,ComponentPad*
%ADD13R,1.700000X1.700000*%
G04 #@! TD*
G04 #@! TA.AperFunction,ComponentPad*
%ADD14C,1.700000*%
G04 #@! TD*
G04 #@! TA.AperFunction,SMDPad,CuDef*
%ADD15R,0.400000X1.800000*%
G04 #@! TD*
G04 #@! TA.AperFunction,SMDPad,CuDef*
%ADD16R,1.350000X1.500000*%
G04 #@! TD*
G04 #@! TA.AperFunction,SMDPad,CuDef*
%ADD17R,1.500000X1.400000*%
G04 #@! TD*
G04 #@! TA.AperFunction,SMDPad,CuDef*
%ADD18R,1.100000X1.000000*%
G04 #@! TD*
G04 #@! TA.AperFunction,SMDPad,CuDef*
%ADD19RoundRect,0.250001X-0.462499X-0.624999X0.462499X-0.624999X0.462499X0.624999X-0.462499X0.624999X0*%
G04 #@! TD*
G04 #@! TA.AperFunction,SMDPad,CuDef*
%ADD20RoundRect,0.250000X-0.325000X-0.450000X0.325000X-0.450000X0.325000X0.450000X-0.325000X0.450000X0*%
G04 #@! TD*
G04 #@! TA.AperFunction,SMDPad,CuDef*
%ADD21RoundRect,0.237500X-0.287500X-0.237500X0.287500X-0.237500X0.287500X0.237500X-0.287500X0.237500X0*%
G04 #@! TD*
G04 #@! TA.AperFunction,Conductor*
%ADD22C,1.000000*%
G04 #@! TD*
G04 #@! TA.AperFunction,Conductor*
%ADD23C,0.250000*%
G04 #@! TD*
G04 #@! TA.AperFunction,Conductor*
%ADD24C,0.400000*%
G04 #@! TD*
G04 APERTURE END LIST*
D10*
X124590000Y-55295000D03*
X127130000Y-55295000D03*
X129670000Y-55295000D03*
X132210000Y-55295000D03*
X134750000Y-55295000D03*
X147450000Y-55295000D03*
X149990000Y-55295000D03*
X152530000Y-55295000D03*
X155070000Y-55295000D03*
X157610000Y-55295000D03*
X124590000Y-57835000D03*
X127130000Y-57835000D03*
X129670000Y-57835000D03*
X132210000Y-57835000D03*
X134750000Y-57835000D03*
X147450000Y-57835000D03*
X149990000Y-57835000D03*
X152530000Y-57835000D03*
X155070000Y-57835000D03*
X157610000Y-57835000D03*
X124590000Y-62915000D03*
X127130000Y-62915000D03*
X129670000Y-62915000D03*
X132210000Y-62915000D03*
X134750000Y-62915000D03*
X147450000Y-62915000D03*
X149990000Y-62915000D03*
X152530000Y-62915000D03*
X155070000Y-62915000D03*
X157610000Y-62915000D03*
X124590000Y-60375000D03*
X127130000Y-60375000D03*
X129670000Y-60375000D03*
X132210000Y-60375000D03*
X134750000Y-60375000D03*
X147450000Y-60375000D03*
X149990000Y-60375000D03*
X152530000Y-60375000D03*
X155070000Y-60375000D03*
X157610000Y-60375000D03*
X124590000Y-70535000D03*
X127130000Y-70535000D03*
X129670000Y-70535000D03*
X132210000Y-70535000D03*
X134750000Y-70535000D03*
X147450000Y-70535000D03*
X149990000Y-70535000D03*
X152530000Y-70535000D03*
X155070000Y-70535000D03*
X157610000Y-70535000D03*
X124590000Y-73075000D03*
X127130000Y-73075000D03*
X129670000Y-73075000D03*
X132210000Y-73075000D03*
X134750000Y-73075000D03*
X147450000Y-73075000D03*
X149990000Y-73075000D03*
X152530000Y-73075000D03*
X155070000Y-73075000D03*
X157610000Y-73075000D03*
X124590000Y-67995000D03*
X127130000Y-67995000D03*
X129670000Y-67995000D03*
X132210000Y-67995000D03*
X134750000Y-67995000D03*
X147450000Y-67995000D03*
X149990000Y-67995000D03*
X152530000Y-67995000D03*
X155070000Y-67995000D03*
X157610000Y-67995000D03*
X124590000Y-65455000D03*
X127130000Y-65455000D03*
X129670000Y-65455000D03*
X132210000Y-65455000D03*
X134750000Y-65455000D03*
X147450000Y-65455000D03*
X149990000Y-65455000D03*
X152530000Y-65455000D03*
X155070000Y-65455000D03*
X157610000Y-65455000D03*
X124590000Y-80695000D03*
X127130000Y-80695000D03*
X129670000Y-80695000D03*
X132210000Y-80695000D03*
X134750000Y-80695000D03*
X147450000Y-80695000D03*
X149990000Y-80695000D03*
X152530000Y-80695000D03*
X155070000Y-80695000D03*
X157610000Y-80695000D03*
X124590000Y-83235000D03*
X127130000Y-83235000D03*
X129670000Y-83235000D03*
X132210000Y-83235000D03*
X134750000Y-83235000D03*
X147450000Y-83235000D03*
X149990000Y-83235000D03*
X152530000Y-83235000D03*
X155070000Y-83235000D03*
X157610000Y-83235000D03*
X124590000Y-78155000D03*
X127130000Y-78155000D03*
X129670000Y-78155000D03*
X132210000Y-78155000D03*
X134750000Y-78155000D03*
X147450000Y-78155000D03*
X149990000Y-78155000D03*
X152530000Y-78155000D03*
X155070000Y-78155000D03*
X157610000Y-78155000D03*
X124590000Y-88315000D03*
X127130000Y-88315000D03*
X129670000Y-88315000D03*
X132210000Y-88315000D03*
X134750000Y-88315000D03*
X147450000Y-88315000D03*
X149990000Y-88315000D03*
X152530000Y-88315000D03*
X155070000Y-88315000D03*
X157610000Y-88315000D03*
X124590000Y-90855000D03*
X127130000Y-90855000D03*
X129670000Y-90855000D03*
X132210000Y-90855000D03*
X134750000Y-90855000D03*
X147450000Y-90855000D03*
X149990000Y-90855000D03*
X152530000Y-90855000D03*
X155070000Y-90855000D03*
X157610000Y-90855000D03*
X124590000Y-93395000D03*
X127130000Y-93395000D03*
X129670000Y-93395000D03*
X132210000Y-93395000D03*
X134750000Y-93395000D03*
X147450000Y-93395000D03*
X149990000Y-93395000D03*
X152530000Y-93395000D03*
X155070000Y-93395000D03*
X157610000Y-93395000D03*
X124590000Y-85775000D03*
X127130000Y-85775000D03*
X129670000Y-85775000D03*
X132210000Y-85775000D03*
X134750000Y-85775000D03*
X147450000Y-85775000D03*
X149990000Y-85775000D03*
X152530000Y-85775000D03*
X155070000Y-85775000D03*
X157610000Y-85775000D03*
X124590000Y-75615000D03*
X127130000Y-75615000D03*
X129670000Y-75615000D03*
X132210000Y-75615000D03*
X134750000Y-75615000D03*
X147450000Y-75615000D03*
X149990000Y-75615000D03*
X152530000Y-75615000D03*
X155070000Y-75615000D03*
X157610000Y-75615000D03*
X124590000Y-101015000D03*
X127130000Y-101015000D03*
X129670000Y-101015000D03*
X132210000Y-101015000D03*
X134750000Y-101015000D03*
X147450000Y-101015000D03*
X149990000Y-101015000D03*
X152530000Y-101015000D03*
X155070000Y-101015000D03*
X157610000Y-101015000D03*
X124590000Y-103555000D03*
X127130000Y-103555000D03*
X129670000Y-103555000D03*
X132210000Y-103555000D03*
X134750000Y-103555000D03*
X147450000Y-103555000D03*
X149990000Y-103555000D03*
X152530000Y-103555000D03*
X155070000Y-103555000D03*
X157610000Y-103555000D03*
X124590000Y-98475000D03*
X127130000Y-98475000D03*
X129670000Y-98475000D03*
X132210000Y-98475000D03*
X134750000Y-98475000D03*
X147450000Y-98475000D03*
X149990000Y-98475000D03*
X152530000Y-98475000D03*
X155070000Y-98475000D03*
X157610000Y-98475000D03*
X124590000Y-108635000D03*
X127130000Y-108635000D03*
X129670000Y-108635000D03*
X132210000Y-108635000D03*
X134750000Y-108635000D03*
X147450000Y-108635000D03*
X149990000Y-108635000D03*
X152530000Y-108635000D03*
X155070000Y-108635000D03*
X157610000Y-108635000D03*
X124590000Y-111175000D03*
X127130000Y-111175000D03*
X129670000Y-111175000D03*
X132210000Y-111175000D03*
X134750000Y-111175000D03*
X147450000Y-111175000D03*
X149990000Y-111175000D03*
X152530000Y-111175000D03*
X155070000Y-111175000D03*
X157610000Y-111175000D03*
X124590000Y-113715000D03*
X127130000Y-113715000D03*
X129670000Y-113715000D03*
X132210000Y-113715000D03*
X134750000Y-113715000D03*
X147450000Y-113715000D03*
X149990000Y-113715000D03*
X152530000Y-113715000D03*
X155070000Y-113715000D03*
X157610000Y-113715000D03*
X124590000Y-106095000D03*
X127130000Y-106095000D03*
X129670000Y-106095000D03*
X132210000Y-106095000D03*
X134750000Y-106095000D03*
X147450000Y-106095000D03*
X149990000Y-106095000D03*
X152530000Y-106095000D03*
X155070000Y-106095000D03*
X157610000Y-106095000D03*
X124590000Y-95935000D03*
X127130000Y-95935000D03*
X129670000Y-95935000D03*
X132210000Y-95935000D03*
X134750000Y-95935000D03*
X147450000Y-95935000D03*
X149990000Y-95935000D03*
X152530000Y-95935000D03*
X155070000Y-95935000D03*
X157610000Y-95935000D03*
D11*
X138645000Y-59815000D03*
X138645000Y-61085000D03*
X138645000Y-62355000D03*
X138645000Y-63625000D03*
X138645000Y-64895000D03*
X138645000Y-66165000D03*
X138645000Y-67435000D03*
X138645000Y-68705000D03*
X143595000Y-68705000D03*
X143595000Y-67435000D03*
X143595000Y-66165000D03*
X143595000Y-64895000D03*
X143595000Y-63625000D03*
X143595000Y-62355000D03*
X143595000Y-61085000D03*
X143595000Y-59815000D03*
D12*
X138307500Y-84135000D03*
X138307500Y-84785000D03*
X138307500Y-85435000D03*
X138307500Y-86085000D03*
X138307500Y-86735000D03*
X138307500Y-87385000D03*
X138307500Y-88035000D03*
X138307500Y-88685000D03*
X138307500Y-89335000D03*
X138307500Y-89985000D03*
X144032500Y-89985000D03*
X144032500Y-89335000D03*
X144032500Y-88685000D03*
X144032500Y-88035000D03*
X144032500Y-87385000D03*
X144032500Y-86735000D03*
X144032500Y-86085000D03*
X144032500Y-85435000D03*
X144032500Y-84785000D03*
X144032500Y-84135000D03*
D10*
X160180000Y-55300000D03*
X162720000Y-55300000D03*
X165260000Y-55300000D03*
X167800000Y-55300000D03*
X160180000Y-57840000D03*
X162720000Y-57840000D03*
X165260000Y-57840000D03*
X167800000Y-57840000D03*
X160180000Y-60380000D03*
X162720000Y-60380000D03*
X165260000Y-60380000D03*
X167800000Y-60380000D03*
X160180000Y-62920000D03*
X162720000Y-62920000D03*
X165260000Y-62920000D03*
X167800000Y-62920000D03*
X160190000Y-75620000D03*
X162730000Y-75620000D03*
X165270000Y-75620000D03*
X167810000Y-75620000D03*
X160190000Y-78160000D03*
X162730000Y-78160000D03*
X165270000Y-78160000D03*
X167810000Y-78160000D03*
X160190000Y-83240000D03*
X162730000Y-83240000D03*
X165270000Y-83240000D03*
X167810000Y-83240000D03*
X160190000Y-80700000D03*
X162730000Y-80700000D03*
X165270000Y-80700000D03*
X167810000Y-80700000D03*
X160190000Y-85780000D03*
X162730000Y-85780000D03*
X165270000Y-85780000D03*
X167810000Y-85780000D03*
X160200000Y-98480000D03*
X162740000Y-98480000D03*
X165280000Y-98480000D03*
X167820000Y-98480000D03*
X160200000Y-95940000D03*
X162740000Y-95940000D03*
X165280000Y-95940000D03*
X167820000Y-95940000D03*
X160190000Y-88320000D03*
X162730000Y-88320000D03*
X165270000Y-88320000D03*
X167810000Y-88320000D03*
X160190000Y-93400000D03*
X162730000Y-93400000D03*
X165270000Y-93400000D03*
X167810000Y-93400000D03*
X160200000Y-103560000D03*
X162740000Y-103560000D03*
X165280000Y-103560000D03*
X167820000Y-103560000D03*
X160190000Y-90860000D03*
X162730000Y-90860000D03*
X165270000Y-90860000D03*
X167810000Y-90860000D03*
X160200000Y-101020000D03*
X162740000Y-101020000D03*
X165280000Y-101020000D03*
X167820000Y-101020000D03*
X160200000Y-108640000D03*
X162740000Y-108640000D03*
X165280000Y-108640000D03*
X167820000Y-108640000D03*
X160200000Y-111180000D03*
X162740000Y-111180000D03*
X165280000Y-111180000D03*
X167820000Y-111180000D03*
X160200000Y-106100000D03*
X162740000Y-106100000D03*
X165280000Y-106100000D03*
X167820000Y-106100000D03*
X160200000Y-113720000D03*
X162740000Y-113720000D03*
X165280000Y-113720000D03*
X167820000Y-113720000D03*
X160190000Y-121340000D03*
X162730000Y-121340000D03*
X165270000Y-121340000D03*
X167810000Y-121340000D03*
X160190000Y-118800000D03*
X162730000Y-118800000D03*
X165270000Y-118800000D03*
X167810000Y-118800000D03*
X160190000Y-116260000D03*
X162730000Y-116260000D03*
X165270000Y-116260000D03*
X167810000Y-116260000D03*
X114440000Y-55330000D03*
X116980000Y-55330000D03*
X119520000Y-55330000D03*
X122060000Y-55330000D03*
X114450000Y-68030000D03*
X116990000Y-68030000D03*
X119530000Y-68030000D03*
X122070000Y-68030000D03*
X114450000Y-65490000D03*
X116990000Y-65490000D03*
X119530000Y-65490000D03*
X122070000Y-65490000D03*
X114440000Y-57870000D03*
X116980000Y-57870000D03*
X119520000Y-57870000D03*
X122060000Y-57870000D03*
X114440000Y-62950000D03*
X116980000Y-62950000D03*
X119520000Y-62950000D03*
X122060000Y-62950000D03*
X114450000Y-73110000D03*
X116990000Y-73110000D03*
X119530000Y-73110000D03*
X122070000Y-73110000D03*
X114440000Y-60410000D03*
X116980000Y-60410000D03*
X119520000Y-60410000D03*
X122060000Y-60410000D03*
X114450000Y-70570000D03*
X116990000Y-70570000D03*
X119530000Y-70570000D03*
X122070000Y-70570000D03*
X114450000Y-118830000D03*
X116990000Y-118830000D03*
X119530000Y-118830000D03*
X122070000Y-118830000D03*
X114460000Y-113750000D03*
X117000000Y-113750000D03*
X119540000Y-113750000D03*
X122080000Y-113750000D03*
X114450000Y-121370000D03*
X116990000Y-121370000D03*
X119530000Y-121370000D03*
X122070000Y-121370000D03*
X114450000Y-116290000D03*
X116990000Y-116290000D03*
X119530000Y-116290000D03*
X122070000Y-116290000D03*
X114460000Y-106130000D03*
X117000000Y-106130000D03*
X119540000Y-106130000D03*
X122080000Y-106130000D03*
X114450000Y-78190000D03*
X116990000Y-78190000D03*
X119530000Y-78190000D03*
X122070000Y-78190000D03*
X114460000Y-108670000D03*
X117000000Y-108670000D03*
X119540000Y-108670000D03*
X122080000Y-108670000D03*
X114450000Y-80730000D03*
X116990000Y-80730000D03*
X119530000Y-80730000D03*
X122070000Y-80730000D03*
X114450000Y-75650000D03*
X116990000Y-75650000D03*
X119530000Y-75650000D03*
X122070000Y-75650000D03*
X114460000Y-95970000D03*
X117000000Y-95970000D03*
X119540000Y-95970000D03*
X122080000Y-95970000D03*
X114460000Y-98510000D03*
X117000000Y-98510000D03*
X119540000Y-98510000D03*
X122080000Y-98510000D03*
X114450000Y-88350000D03*
X116990000Y-88350000D03*
X119530000Y-88350000D03*
X122070000Y-88350000D03*
X114450000Y-85810000D03*
X116990000Y-85810000D03*
X119530000Y-85810000D03*
X122070000Y-85810000D03*
X114450000Y-93430000D03*
X116990000Y-93430000D03*
X119530000Y-93430000D03*
X122070000Y-93430000D03*
X114460000Y-103590000D03*
X117000000Y-103590000D03*
X119540000Y-103590000D03*
X122080000Y-103590000D03*
X114450000Y-83270000D03*
X116990000Y-83270000D03*
X119530000Y-83270000D03*
X122070000Y-83270000D03*
X114450000Y-90890000D03*
X116990000Y-90890000D03*
X119530000Y-90890000D03*
X122070000Y-90890000D03*
X114460000Y-101050000D03*
X117000000Y-101050000D03*
X119540000Y-101050000D03*
X122080000Y-101050000D03*
X114460000Y-111210000D03*
X117000000Y-111210000D03*
X119540000Y-111210000D03*
X122080000Y-111210000D03*
X108460000Y-55320000D03*
X111000000Y-55320000D03*
X108460000Y-57860000D03*
X111000000Y-57860000D03*
X108460000Y-60400000D03*
X111000000Y-60400000D03*
X108460000Y-62940000D03*
X111000000Y-62940000D03*
X108460000Y-65480000D03*
X111000000Y-65480000D03*
X108460000Y-68020000D03*
X111000000Y-68020000D03*
X108460000Y-70560000D03*
X111000000Y-70560000D03*
X108460000Y-73100000D03*
X111000000Y-73100000D03*
X108460000Y-75640000D03*
X111000000Y-75640000D03*
X108460000Y-78180000D03*
X111000000Y-78180000D03*
X108460000Y-80720000D03*
X111000000Y-80720000D03*
X108460000Y-83260000D03*
X111000000Y-83260000D03*
X108460000Y-85800000D03*
X111000000Y-85800000D03*
X108460000Y-88340000D03*
X111000000Y-88340000D03*
X108460000Y-90880000D03*
X111000000Y-90880000D03*
X108460000Y-93420000D03*
X111000000Y-93420000D03*
X108460000Y-95960000D03*
X111000000Y-95960000D03*
X108460000Y-98500000D03*
X111000000Y-98500000D03*
X108460000Y-101040000D03*
X111000000Y-101040000D03*
X108460000Y-103580000D03*
X111000000Y-103580000D03*
X108460000Y-106120000D03*
X111000000Y-106120000D03*
X108460000Y-108660000D03*
X111000000Y-108660000D03*
X108460000Y-111200000D03*
X111000000Y-111200000D03*
X108460000Y-113740000D03*
X111000000Y-113740000D03*
X108460000Y-116280000D03*
X111000000Y-116280000D03*
X108460000Y-118820000D03*
X111000000Y-118820000D03*
X108460000Y-121360000D03*
X111000000Y-121360000D03*
X108460000Y-123900000D03*
X111000000Y-123900000D03*
X108460000Y-126440000D03*
X111000000Y-126440000D03*
X108460000Y-128980000D03*
X111000000Y-128980000D03*
X171240000Y-55320000D03*
X173780000Y-55320000D03*
X171240000Y-57860000D03*
X173780000Y-57860000D03*
X171240000Y-60400000D03*
X173780000Y-60400000D03*
X171240000Y-62940000D03*
X173780000Y-62940000D03*
X171240000Y-65480000D03*
X173780000Y-65480000D03*
X171240000Y-68020000D03*
X173780000Y-68020000D03*
X171240000Y-70560000D03*
X173780000Y-70560000D03*
X171240000Y-73100000D03*
X173780000Y-73100000D03*
X171240000Y-75640000D03*
X173780000Y-75640000D03*
X171240000Y-78180000D03*
X173780000Y-78180000D03*
X171240000Y-80720000D03*
X173780000Y-80720000D03*
X171240000Y-83260000D03*
X173780000Y-83260000D03*
X171240000Y-85800000D03*
X173780000Y-85800000D03*
X171240000Y-88340000D03*
X173780000Y-88340000D03*
X171240000Y-90880000D03*
X173780000Y-90880000D03*
X171240000Y-93420000D03*
X173780000Y-93420000D03*
X171240000Y-95960000D03*
X173780000Y-95960000D03*
X171240000Y-98500000D03*
X173780000Y-98500000D03*
X171240000Y-101040000D03*
X173780000Y-101040000D03*
X171240000Y-103580000D03*
X173780000Y-103580000D03*
X171240000Y-106120000D03*
X173780000Y-106120000D03*
X171240000Y-108660000D03*
X173780000Y-108660000D03*
X171240000Y-111200000D03*
X173780000Y-111200000D03*
X171240000Y-113740000D03*
X173780000Y-113740000D03*
X171240000Y-116280000D03*
X173780000Y-116280000D03*
X171240000Y-118820000D03*
X173780000Y-118820000D03*
X171240000Y-121360000D03*
X173780000Y-121360000D03*
X171240000Y-123900000D03*
X173780000Y-123900000D03*
X171240000Y-126440000D03*
X173780000Y-126440000D03*
X171240000Y-128980000D03*
X173780000Y-128980000D03*
D13*
X142190000Y-55320000D03*
D14*
X139650000Y-55320000D03*
X138580000Y-123870000D03*
D15*
X139820000Y-126440000D03*
D14*
X139850000Y-121330000D03*
D15*
X140470000Y-126440000D03*
D14*
X141120000Y-123870000D03*
D15*
X141120000Y-126440000D03*
X141770000Y-126440000D03*
D14*
X142390000Y-121330000D03*
D15*
X142420000Y-126440000D03*
D14*
X143660000Y-123870000D03*
D16*
X137045000Y-129310000D03*
D17*
X137870000Y-126640000D03*
D18*
X139620000Y-130490000D03*
X142620000Y-130490000D03*
D17*
X144370000Y-126640000D03*
D16*
X145195000Y-129310000D03*
D14*
X114450000Y-123900000D03*
D19*
X116822500Y-123900000D03*
X119797500Y-123900000D03*
D14*
X122070000Y-123900000D03*
X160200000Y-128960000D03*
D20*
X162975000Y-128960000D03*
X165025000Y-128960000D03*
D14*
X167820000Y-128960000D03*
X114450000Y-126430000D03*
D19*
X116822500Y-126430000D03*
X119797500Y-126430000D03*
D14*
X122070000Y-126430000D03*
X114450000Y-128970000D03*
D19*
X116822500Y-128970000D03*
X119797500Y-128970000D03*
D14*
X122070000Y-128970000D03*
X150040000Y-121330000D03*
D21*
X152965000Y-121330000D03*
X154715000Y-121330000D03*
D14*
X157660000Y-121330000D03*
X160200000Y-126420000D03*
D20*
X162975000Y-126420000D03*
X165025000Y-126420000D03*
D14*
X167820000Y-126420000D03*
X160200000Y-123880000D03*
D20*
X162975000Y-123880000D03*
X165025000Y-123880000D03*
D14*
X167820000Y-123880000D03*
X150040000Y-118790000D03*
D21*
X152965000Y-118790000D03*
X154715000Y-118790000D03*
D14*
X157660000Y-118790000D03*
X124610000Y-118840000D03*
D21*
X127535000Y-118840000D03*
X129285000Y-118840000D03*
D14*
X132230000Y-118840000D03*
X124610000Y-121380000D03*
D21*
X127535000Y-121380000D03*
X129285000Y-121380000D03*
D14*
X132230000Y-121380000D03*
X124610000Y-116300000D03*
D21*
X127535000Y-116300000D03*
X129285000Y-116300000D03*
D14*
X132230000Y-116300000D03*
X150040000Y-116250000D03*
D21*
X152965000Y-116250000D03*
X154715000Y-116250000D03*
D14*
X157660000Y-116250000D03*
X124610000Y-123900000D03*
D19*
X126982500Y-123900000D03*
X129957500Y-123900000D03*
D14*
X132230000Y-123900000D03*
X124610000Y-128970000D03*
D19*
X126982500Y-128970000D03*
X129957500Y-128970000D03*
D14*
X132230000Y-128970000D03*
X124610000Y-126430000D03*
D19*
X126982500Y-126430000D03*
X129957500Y-126430000D03*
D14*
X132230000Y-126430000D03*
X150040000Y-128970000D03*
D20*
X152815000Y-128970000D03*
X154865000Y-128970000D03*
D14*
X157660000Y-128970000D03*
X150040000Y-126430000D03*
D20*
X152815000Y-126430000D03*
X154865000Y-126430000D03*
D14*
X157660000Y-126430000D03*
X150040000Y-123890000D03*
D20*
X152815000Y-123890000D03*
X154865000Y-123890000D03*
D14*
X157660000Y-123890000D03*
D10*
X160190000Y-73080000D03*
X162730000Y-73080000D03*
X165270000Y-73080000D03*
X167810000Y-73080000D03*
X160190000Y-68000000D03*
X162730000Y-68000000D03*
X165270000Y-68000000D03*
X167810000Y-68000000D03*
X160190000Y-65460000D03*
X162730000Y-65460000D03*
X165270000Y-65460000D03*
X167810000Y-65460000D03*
X160190000Y-70540000D03*
X162730000Y-70540000D03*
X165270000Y-70540000D03*
X167810000Y-70540000D03*
D22*
X124590000Y-57835000D02*
X134750000Y-57835000D01*
X147450000Y-57835000D02*
X157610000Y-57835000D01*
X147450000Y-62915000D02*
X157610000Y-62915000D01*
X124590000Y-62915000D02*
X134750000Y-62915000D01*
X124590000Y-60375000D02*
X134750000Y-60375000D01*
X147450000Y-60375000D02*
X157610000Y-60375000D01*
X124590000Y-70535000D02*
X134750000Y-70535000D01*
X147450000Y-70535000D02*
X157610000Y-70535000D01*
X147450000Y-67995000D02*
X157610000Y-67995000D01*
X147450000Y-73075000D02*
X157610000Y-73075000D01*
X124590000Y-73075000D02*
X134750000Y-73075000D01*
X124590000Y-67995000D02*
X134750000Y-67995000D01*
X124590000Y-65455000D02*
X134750000Y-65455000D01*
X147450000Y-65455000D02*
X157610000Y-65455000D01*
X124590000Y-80695000D02*
X134750000Y-80695000D01*
X147450000Y-80695000D02*
X157610000Y-80695000D01*
X147450000Y-78155000D02*
X157610000Y-78155000D01*
X147450000Y-83235000D02*
X157610000Y-83235000D01*
X124590000Y-83235000D02*
X134750000Y-83235000D01*
X124590000Y-78155000D02*
X134750000Y-78155000D01*
X147450000Y-85775000D02*
X157610000Y-85775000D01*
X124590000Y-85775000D02*
X134750000Y-85775000D01*
X124590000Y-88315000D02*
X134750000Y-88315000D01*
X124590000Y-93395000D02*
X134750000Y-93395000D01*
X124590000Y-90855000D02*
X134750000Y-90855000D01*
X147450000Y-90855000D02*
X157610000Y-90855000D01*
X147450000Y-88315000D02*
X157610000Y-88315000D01*
X147450000Y-93395000D02*
X157610000Y-93395000D01*
X124590000Y-75615000D02*
X134750000Y-75615000D01*
X147450000Y-75615000D02*
X157610000Y-75615000D01*
X124590000Y-101015000D02*
X134750000Y-101015000D01*
X147450000Y-101015000D02*
X157610000Y-101015000D01*
X147450000Y-98475000D02*
X157610000Y-98475000D01*
X147450000Y-103555000D02*
X157610000Y-103555000D01*
X124590000Y-103555000D02*
X134750000Y-103555000D01*
X124590000Y-98475000D02*
X134750000Y-98475000D01*
X147450000Y-106095000D02*
X157610000Y-106095000D01*
X124590000Y-106095000D02*
X134750000Y-106095000D01*
X124590000Y-108635000D02*
X134750000Y-108635000D01*
X124590000Y-113715000D02*
X134750000Y-113715000D01*
X124590000Y-111175000D02*
X134750000Y-111175000D01*
X147450000Y-111175000D02*
X157610000Y-111175000D01*
X147450000Y-108635000D02*
X157610000Y-108635000D01*
X147450000Y-113715000D02*
X157610000Y-113715000D01*
X124590000Y-95935000D02*
X134750000Y-95935000D01*
X147450000Y-95935000D02*
X157610000Y-95935000D01*
X165270000Y-68000000D02*
X167810000Y-68000000D01*
X165270000Y-73080000D02*
X167810000Y-73080000D01*
X160190000Y-70540000D02*
X162730000Y-70540000D01*
X160190000Y-65460000D02*
X162730000Y-65460000D01*
X165270000Y-70540000D02*
X167810000Y-70540000D01*
X165270000Y-65460000D02*
X167810000Y-65460000D01*
X160190000Y-73080000D02*
X162730000Y-73080000D01*
X160190000Y-68000000D02*
X162730000Y-68000000D01*
X165270000Y-88320000D02*
X167810000Y-88320000D01*
X165270000Y-93400000D02*
X167810000Y-93400000D01*
X160190000Y-90860000D02*
X162730000Y-90860000D01*
X165280000Y-103560000D02*
X167820000Y-103560000D01*
X160190000Y-85780000D02*
X162730000Y-85780000D01*
X165280000Y-98480000D02*
X167820000Y-98480000D01*
X160200000Y-95940000D02*
X162740000Y-95940000D01*
X165280000Y-101020000D02*
X167820000Y-101020000D01*
X160200000Y-98480000D02*
X162740000Y-98480000D01*
X160200000Y-103560000D02*
X162740000Y-103560000D01*
X165280000Y-95940000D02*
X167820000Y-95940000D01*
X160200000Y-101020000D02*
X162740000Y-101020000D01*
X165270000Y-90860000D02*
X167810000Y-90860000D01*
X165270000Y-85780000D02*
X167810000Y-85780000D01*
X160190000Y-93400000D02*
X162730000Y-93400000D01*
X160190000Y-88320000D02*
X162730000Y-88320000D01*
X165280000Y-113720000D02*
X167820000Y-113720000D01*
X165280000Y-108640000D02*
X167820000Y-108640000D01*
X160200000Y-113720000D02*
X162740000Y-113720000D01*
X165280000Y-111180000D02*
X167820000Y-111180000D01*
X160200000Y-106100000D02*
X162740000Y-106100000D01*
X165280000Y-106100000D02*
X167820000Y-106100000D01*
X160200000Y-111180000D02*
X162740000Y-111180000D01*
X160200000Y-108640000D02*
X162740000Y-108640000D01*
X165270000Y-116260000D02*
X167810000Y-116260000D01*
X160190000Y-118800000D02*
X162730000Y-118800000D01*
X165270000Y-118800000D02*
X167810000Y-118800000D01*
X160190000Y-116260000D02*
X162730000Y-116260000D01*
X160190000Y-121340000D02*
X162730000Y-121340000D01*
X165270000Y-121340000D02*
X167810000Y-121340000D01*
X119520000Y-57870000D02*
X122060000Y-57870000D01*
X119520000Y-62950000D02*
X122060000Y-62950000D01*
X114440000Y-60410000D02*
X116980000Y-60410000D01*
X119530000Y-73110000D02*
X122070000Y-73110000D01*
X114440000Y-55330000D02*
X116980000Y-55330000D01*
X119530000Y-68030000D02*
X122070000Y-68030000D01*
X114450000Y-65490000D02*
X116990000Y-65490000D01*
X119530000Y-70570000D02*
X122070000Y-70570000D01*
X114450000Y-68030000D02*
X116990000Y-68030000D01*
X114450000Y-73110000D02*
X116990000Y-73110000D01*
X119530000Y-65490000D02*
X122070000Y-65490000D01*
X114450000Y-70570000D02*
X116990000Y-70570000D01*
X119520000Y-60410000D02*
X122060000Y-60410000D01*
X119520000Y-55330000D02*
X122060000Y-55330000D01*
X114440000Y-62950000D02*
X116980000Y-62950000D01*
X114440000Y-57870000D02*
X116980000Y-57870000D01*
X119530000Y-121370000D02*
X122070000Y-121370000D01*
X119530000Y-116290000D02*
X122070000Y-116290000D01*
X114450000Y-118830000D02*
X116990000Y-118830000D01*
X119530000Y-118830000D02*
X122070000Y-118830000D01*
X114450000Y-116290000D02*
X116990000Y-116290000D01*
X114450000Y-121370000D02*
X116990000Y-121370000D01*
X119530000Y-83270000D02*
X122070000Y-83270000D01*
X119530000Y-88350000D02*
X122070000Y-88350000D01*
X119530000Y-78190000D02*
X122070000Y-78190000D01*
X114460000Y-95970000D02*
X117000000Y-95970000D01*
X119540000Y-108670000D02*
X122080000Y-108670000D01*
X119540000Y-101050000D02*
X122080000Y-101050000D01*
X114460000Y-98510000D02*
X117000000Y-98510000D01*
X114460000Y-113750000D02*
X117000000Y-113750000D01*
X114460000Y-103590000D02*
X117000000Y-103590000D01*
X119540000Y-95970000D02*
X122080000Y-95970000D01*
X114450000Y-83270000D02*
X116990000Y-83270000D01*
X119530000Y-93430000D02*
X122070000Y-93430000D01*
X119530000Y-80730000D02*
X122070000Y-80730000D01*
X114450000Y-75650000D02*
X116990000Y-75650000D01*
X114450000Y-90890000D02*
X116990000Y-90890000D01*
X119540000Y-103590000D02*
X122080000Y-103590000D01*
X114450000Y-85810000D02*
X116990000Y-85810000D01*
X119540000Y-98510000D02*
X122080000Y-98510000D01*
X119530000Y-75650000D02*
X122070000Y-75650000D01*
X114450000Y-80730000D02*
X116990000Y-80730000D01*
X114450000Y-78190000D02*
X116990000Y-78190000D01*
X114450000Y-93430000D02*
X116990000Y-93430000D01*
X114460000Y-101050000D02*
X117000000Y-101050000D01*
X114450000Y-88350000D02*
X116990000Y-88350000D01*
X119540000Y-113750000D02*
X122080000Y-113750000D01*
X114460000Y-111210000D02*
X117000000Y-111210000D01*
X119530000Y-85810000D02*
X122070000Y-85810000D01*
X119530000Y-90890000D02*
X122070000Y-90890000D01*
X119540000Y-111210000D02*
X122080000Y-111210000D01*
X114460000Y-106130000D02*
X117000000Y-106130000D01*
X119540000Y-106130000D02*
X122080000Y-106130000D01*
X114460000Y-108670000D02*
X117000000Y-108670000D01*
X157660000Y-126430000D02*
X154865000Y-126430000D01*
X150040000Y-128970000D02*
X152815000Y-128970000D01*
X150040000Y-123890000D02*
X152815000Y-123890000D01*
X157660000Y-128970000D02*
X154865000Y-128970000D01*
X157660000Y-123890000D02*
X154865000Y-123890000D01*
X150040000Y-126430000D02*
X152815000Y-126430000D01*
D23*
X137245000Y-89335000D02*
X138220000Y-89335000D01*
D24*
X138420000Y-58965000D02*
X138420000Y-59815000D01*
D23*
X135952081Y-75615000D02*
X138220000Y-77882919D01*
D22*
X160180000Y-62920000D02*
X162720000Y-62920000D01*
D23*
X136170000Y-84655000D02*
X136170000Y-85760000D01*
D24*
X147450000Y-73075000D02*
X143820000Y-69445000D01*
D23*
X141770000Y-126440000D02*
X141770000Y-125150000D01*
D24*
X145470000Y-62355000D02*
X147450000Y-60375000D01*
X143820000Y-62355000D02*
X145470000Y-62355000D01*
D22*
X114450000Y-128970000D02*
X116822500Y-128970000D01*
D23*
X138150000Y-130490000D02*
X137045000Y-129385000D01*
D24*
X134750000Y-55295000D02*
X138420000Y-58965000D01*
D22*
X165270000Y-83240000D02*
X167810000Y-83240000D01*
D23*
X140470000Y-125110000D02*
X139850000Y-124490000D01*
D22*
X111717919Y-53400000D02*
X137730000Y-53400000D01*
D24*
X147450000Y-67995000D02*
X145620000Y-66165000D01*
D22*
X167820000Y-123880000D02*
X165025000Y-123880000D01*
D23*
X137045000Y-129310000D02*
X137045000Y-127465000D01*
X147450000Y-75615000D02*
X146247919Y-75615000D01*
D24*
X134750000Y-65455000D02*
X136205000Y-65455000D01*
D22*
X160200000Y-128960000D02*
X162975000Y-128960000D01*
D23*
X138220000Y-77882919D02*
X138220000Y-83685000D01*
D22*
X160190000Y-78160000D02*
X162730000Y-78160000D01*
D23*
X142620000Y-130490000D02*
X141820000Y-130490000D01*
D24*
X144970000Y-66165000D02*
X143820000Y-66165000D01*
D23*
X134750000Y-90855000D02*
X135475000Y-90855000D01*
X146490000Y-86735000D02*
X147450000Y-85775000D01*
X134750000Y-98475000D02*
X138220000Y-95005000D01*
X138220000Y-86735000D02*
X135710000Y-86735000D01*
D24*
X147450000Y-57835000D02*
X146600001Y-58684999D01*
D23*
X136980000Y-89600000D02*
X137245000Y-89335000D01*
X147450000Y-80695000D02*
X145730000Y-82415000D01*
X137045000Y-129385000D02*
X137045000Y-129310000D01*
D22*
X137730000Y-53400000D02*
X139650000Y-55320000D01*
X122070000Y-126430000D02*
X119797500Y-126430000D01*
D23*
X145700000Y-88920000D02*
X145465000Y-88685000D01*
X141120000Y-125290000D02*
X141120000Y-123870000D01*
X145270000Y-79132919D02*
X145270000Y-84610000D01*
X147450000Y-93395000D02*
X146247919Y-93395000D01*
X145270000Y-94957081D02*
X145270000Y-89500000D01*
D24*
X134750000Y-73075000D02*
X138420000Y-69405000D01*
D23*
X138220000Y-95005000D02*
X138220000Y-89985000D01*
D22*
X132230000Y-126430000D02*
X129957500Y-126430000D01*
D23*
X136765000Y-88685000D02*
X138220000Y-88685000D01*
X145505000Y-86085000D02*
X144120000Y-86085000D01*
X136695000Y-85435000D02*
X138220000Y-85435000D01*
X145700000Y-92847081D02*
X145700000Y-88920000D01*
X135952081Y-78155000D02*
X136960000Y-79162919D01*
X147450000Y-78155000D02*
X146247919Y-78155000D01*
X146120000Y-84565000D02*
X146120000Y-85470000D01*
X142420000Y-126440000D02*
X142420000Y-125110000D01*
D24*
X147450000Y-55295000D02*
X143820000Y-58925000D01*
D23*
X135952081Y-93395000D02*
X136570000Y-92777081D01*
X145270000Y-89500000D02*
X145105000Y-89335000D01*
D24*
X136730000Y-62355000D02*
X134750000Y-60375000D01*
D23*
X141120000Y-126440000D02*
X141120000Y-125290000D01*
D24*
X137085000Y-61085000D02*
X138420000Y-61085000D01*
D22*
X132230000Y-123900000D02*
X129957500Y-123900000D01*
D23*
X145730000Y-82415000D02*
X145730000Y-85210000D01*
D24*
X147450000Y-65455000D02*
X146095000Y-65455000D01*
X145620000Y-66165000D02*
X144970000Y-66165000D01*
D22*
X171240000Y-55320000D02*
X171240000Y-54117919D01*
D23*
X145270000Y-84610000D02*
X145095000Y-84785000D01*
D22*
X157660000Y-116250000D02*
X154715000Y-116250000D01*
D23*
X137045000Y-127465000D02*
X137870000Y-126640000D01*
X135475000Y-90855000D02*
X136150000Y-90180000D01*
X144120000Y-77742919D02*
X144120000Y-83685000D01*
X146247919Y-78155000D02*
X145270000Y-79132919D01*
X146247919Y-95935000D02*
X145270000Y-94957081D01*
X142390000Y-124530000D02*
X142390000Y-121330000D01*
X147450000Y-90855000D02*
X146725000Y-90855000D01*
X145095000Y-84785000D02*
X144120000Y-84785000D01*
X136560000Y-85300000D02*
X136695000Y-85435000D01*
D22*
X111000000Y-55320000D02*
X111000000Y-128980000D01*
D23*
X135680000Y-87385000D02*
X134750000Y-88315000D01*
D24*
X134750000Y-67995000D02*
X136580000Y-66165000D01*
D22*
X124610000Y-123900000D02*
X126982500Y-123900000D01*
D24*
X134750000Y-57835000D02*
X136560000Y-59645000D01*
X135460000Y-63625000D02*
X134750000Y-62915000D01*
X146740000Y-63625000D02*
X147450000Y-62915000D01*
D23*
X141770000Y-125150000D02*
X142390000Y-124530000D01*
X145730000Y-85210000D02*
X145505000Y-85435000D01*
X136570000Y-88880000D02*
X136765000Y-88685000D01*
D24*
X136340000Y-68945000D02*
X136340000Y-68150000D01*
X146595001Y-58684999D02*
X145890000Y-59390000D01*
D22*
X150040000Y-116250000D02*
X152965000Y-116250000D01*
D23*
X135710000Y-86735000D02*
X134750000Y-85775000D01*
D24*
X145890000Y-59390000D02*
X145890000Y-60450000D01*
D22*
X132230000Y-128970000D02*
X129957500Y-128970000D01*
X165270000Y-80700000D02*
X167810000Y-80700000D01*
D23*
X142420000Y-126440000D02*
X144170000Y-126440000D01*
X146247919Y-93395000D02*
X145700000Y-92847081D01*
D22*
X124610000Y-121380000D02*
X127535000Y-121380000D01*
X160190000Y-80700000D02*
X162730000Y-80700000D01*
D24*
X136560000Y-59675000D02*
X136590000Y-59705000D01*
D23*
X145455000Y-88035000D02*
X144120000Y-88035000D01*
X146520000Y-87385000D02*
X147450000Y-88315000D01*
X146247919Y-75615000D02*
X144120000Y-77742919D01*
X134750000Y-93395000D02*
X135952081Y-93395000D01*
X144120000Y-95145000D02*
X144120000Y-89985000D01*
X142420000Y-125110000D02*
X143660000Y-123870000D01*
D24*
X138420000Y-63625000D02*
X135460000Y-63625000D01*
X145255000Y-61085000D02*
X143820000Y-61085000D01*
D23*
X137115000Y-84785000D02*
X138220000Y-84785000D01*
D22*
X114450000Y-126430000D02*
X116822500Y-126430000D01*
D23*
X136960000Y-79162919D02*
X136960000Y-84630000D01*
D24*
X138420000Y-69405000D02*
X138420000Y-68705000D01*
D23*
X144170000Y-126440000D02*
X144370000Y-126640000D01*
D24*
X137055000Y-67435000D02*
X138420000Y-67435000D01*
X146600001Y-58684999D02*
X146595001Y-58684999D01*
X143820000Y-58925000D02*
X143820000Y-59815000D01*
X145295000Y-67435000D02*
X143820000Y-67435000D01*
X138420000Y-62355000D02*
X136730000Y-62355000D01*
D22*
X171240000Y-55320000D02*
X171240000Y-128980000D01*
D24*
X136205000Y-65455000D02*
X136765000Y-64895000D01*
D22*
X124610000Y-128970000D02*
X126982500Y-128970000D01*
D23*
X136170000Y-85760000D02*
X136495000Y-86085000D01*
X134750000Y-78155000D02*
X135952081Y-78155000D01*
D24*
X136765000Y-64895000D02*
X138420000Y-64895000D01*
D23*
X145505000Y-85435000D02*
X144120000Y-85435000D01*
D22*
X124610000Y-116300000D02*
X127535000Y-116300000D01*
X132230000Y-118840000D02*
X129285000Y-118840000D01*
D24*
X134750000Y-70535000D02*
X136340000Y-68945000D01*
D22*
X111000000Y-54117919D02*
X111717919Y-53400000D01*
D24*
X145890000Y-60450000D02*
X145255000Y-61085000D01*
D23*
X146120000Y-85470000D02*
X145505000Y-86085000D01*
D22*
X165270000Y-75620000D02*
X167810000Y-75620000D01*
X132230000Y-116300000D02*
X129285000Y-116300000D01*
D23*
X145195000Y-129310000D02*
X145195000Y-129385000D01*
D24*
X146095000Y-65455000D02*
X145535000Y-64895000D01*
D23*
X147450000Y-95935000D02*
X146247919Y-95935000D01*
D22*
X124610000Y-118840000D02*
X127535000Y-118840000D01*
X160190000Y-83240000D02*
X162730000Y-83240000D01*
X165270000Y-78160000D02*
X167810000Y-78160000D01*
X157660000Y-121330000D02*
X154715000Y-121330000D01*
X170612081Y-53490000D02*
X141480000Y-53490000D01*
D23*
X134750000Y-83235000D02*
X136170000Y-84655000D01*
D24*
X136580000Y-66165000D02*
X138420000Y-66165000D01*
D22*
X165260000Y-62920000D02*
X167800000Y-62920000D01*
D23*
X138220000Y-83685000D02*
X138220000Y-84135000D01*
X134750000Y-75615000D02*
X135952081Y-75615000D01*
X144120000Y-87385000D02*
X146520000Y-87385000D01*
D22*
X160180000Y-60380000D02*
X162720000Y-60380000D01*
X160200000Y-126420000D02*
X162975000Y-126420000D01*
X132230000Y-121380000D02*
X129285000Y-121380000D01*
X124610000Y-126430000D02*
X126982500Y-126430000D01*
D23*
X145105000Y-89335000D02*
X144120000Y-89335000D01*
D22*
X122070000Y-123900000D02*
X119797500Y-123900000D01*
D23*
X147450000Y-83235000D02*
X146120000Y-84565000D01*
D22*
X160200000Y-123880000D02*
X162975000Y-123880000D01*
X171240000Y-54117919D02*
X170612081Y-53490000D01*
X165260000Y-57840000D02*
X167800000Y-57840000D01*
D23*
X136825000Y-88035000D02*
X138220000Y-88035000D01*
X146130000Y-90260000D02*
X146130000Y-88710000D01*
X138220000Y-87385000D02*
X135680000Y-87385000D01*
D22*
X122070000Y-128970000D02*
X119797500Y-128970000D01*
D23*
X139850000Y-124490000D02*
X139850000Y-121330000D01*
X144120000Y-86735000D02*
X146490000Y-86735000D01*
X134750000Y-80695000D02*
X136560000Y-82505000D01*
X136560000Y-82505000D02*
X136560000Y-85300000D01*
X136960000Y-84630000D02*
X137115000Y-84785000D01*
D22*
X160180000Y-57840000D02*
X162720000Y-57840000D01*
D23*
X145195000Y-129385000D02*
X144090000Y-130490000D01*
D24*
X145535000Y-64895000D02*
X143820000Y-64895000D01*
D23*
X136980000Y-93705000D02*
X136980000Y-89600000D01*
D22*
X160190000Y-75620000D02*
X162730000Y-75620000D01*
D23*
X136570000Y-92777081D02*
X136570000Y-88880000D01*
D22*
X111000000Y-55320000D02*
X111000000Y-54117919D01*
D24*
X145760000Y-68845000D02*
X145760000Y-67900000D01*
X136590000Y-60590000D02*
X137085000Y-61085000D01*
D22*
X167820000Y-128960000D02*
X165025000Y-128960000D01*
D23*
X145195000Y-127415000D02*
X145195000Y-129310000D01*
X136150000Y-88710000D02*
X136825000Y-88035000D01*
X139820000Y-125110000D02*
X138580000Y-123870000D01*
X141820000Y-130490000D02*
X139620000Y-130490000D01*
D22*
X150040000Y-121330000D02*
X152965000Y-121330000D01*
X160180000Y-55300000D02*
X162720000Y-55300000D01*
X141480000Y-53490000D02*
X139650000Y-55320000D01*
X165260000Y-60380000D02*
X167800000Y-60380000D01*
D23*
X140470000Y-126440000D02*
X140470000Y-125110000D01*
D22*
X150040000Y-118790000D02*
X152965000Y-118790000D01*
D24*
X147450000Y-70535000D02*
X145760000Y-68845000D01*
D23*
X136150000Y-90180000D02*
X136150000Y-88710000D01*
X147450000Y-98475000D02*
X144120000Y-95145000D01*
D22*
X124590000Y-55295000D02*
X134750000Y-55295000D01*
X147450000Y-55295000D02*
X157610000Y-55295000D01*
X165260000Y-55300000D02*
X167800000Y-55300000D01*
D23*
X144090000Y-130490000D02*
X142620000Y-130490000D01*
X144420000Y-126640000D02*
X145195000Y-127415000D01*
X134750000Y-95935000D02*
X136980000Y-93705000D01*
X145465000Y-88685000D02*
X144120000Y-88685000D01*
X144120000Y-83685000D02*
X144120000Y-84135000D01*
D24*
X145760000Y-67900000D02*
X145295000Y-67435000D01*
X143820000Y-63625000D02*
X146740000Y-63625000D01*
D23*
X139620000Y-130490000D02*
X138150000Y-130490000D01*
D24*
X136590000Y-59705000D02*
X136590000Y-60590000D01*
D23*
X146130000Y-88710000D02*
X145455000Y-88035000D01*
D24*
X143820000Y-69445000D02*
X143820000Y-68705000D01*
D23*
X136495000Y-86085000D02*
X138220000Y-86085000D01*
D22*
X157660000Y-118790000D02*
X154715000Y-118790000D01*
D24*
X136560000Y-59645000D02*
X136560000Y-59675000D01*
X136340000Y-68150000D02*
X137055000Y-67435000D01*
D23*
X144370000Y-126640000D02*
X144420000Y-126640000D01*
D22*
X114450000Y-123900000D02*
X116822500Y-123900000D01*
D23*
X139820000Y-126440000D02*
X139820000Y-125110000D01*
X146725000Y-90855000D02*
X146130000Y-90260000D01*
D22*
X167820000Y-126420000D02*
X165025000Y-126420000D01*
M02*
