G04 #@! TF.GenerationSoftware,KiCad,Pcbnew,9.0.1*
G04 #@! TF.CreationDate,2026-01-25T18:36:50-05:00*
G04 #@! TF.ProjectId,project-board-altbier,70726f6a-6563-4742-9d62-6f6172642d61,rev?*
G04 #@! TF.SameCoordinates,Original*
G04 #@! TF.FileFunction,Legend,Bot*
G04 #@! TF.FilePolarity,Positive*
%FSLAX46Y46*%
G04 Gerber Fmt 4.6, Leading zero omitted, Abs format (unit mm)*
G04 Created by KiCad (PCBNEW 9.0.1) date 2026-01-25 18:36:50*
%MOMM*%
%LPD*%
G01*
G04 APERTURE LIST*
%ADD10C,0.280000*%
%ADD11C,0.058988*%
G04 APERTURE END LIST*
D10*
X138915881Y-72724286D02*
X138915881Y-73438572D01*
X139344452Y-72581429D02*
X137844452Y-73081429D01*
X137844452Y-73081429D02*
X139344452Y-73581429D01*
X139344452Y-74295714D02*
X139273024Y-74152857D01*
X139273024Y-74152857D02*
X139130166Y-74081428D01*
X139130166Y-74081428D02*
X137844452Y-74081428D01*
X138344452Y-74652857D02*
X138344452Y-75224285D01*
X137844452Y-74867142D02*
X139130166Y-74867142D01*
X139130166Y-74867142D02*
X139273024Y-74938571D01*
X139273024Y-74938571D02*
X139344452Y-75081428D01*
X139344452Y-75081428D02*
X139344452Y-75224285D01*
X139344452Y-75724285D02*
X137844452Y-75724285D01*
X138415881Y-75724285D02*
X138344452Y-75867143D01*
X138344452Y-75867143D02*
X138344452Y-76152857D01*
X138344452Y-76152857D02*
X138415881Y-76295714D01*
X138415881Y-76295714D02*
X138487309Y-76367143D01*
X138487309Y-76367143D02*
X138630166Y-76438571D01*
X138630166Y-76438571D02*
X139058738Y-76438571D01*
X139058738Y-76438571D02*
X139201595Y-76367143D01*
X139201595Y-76367143D02*
X139273024Y-76295714D01*
X139273024Y-76295714D02*
X139344452Y-76152857D01*
X139344452Y-76152857D02*
X139344452Y-75867143D01*
X139344452Y-75867143D02*
X139273024Y-75724285D01*
X139344452Y-77081428D02*
X138344452Y-77081428D01*
X137844452Y-77081428D02*
X137915881Y-77010000D01*
X137915881Y-77010000D02*
X137987309Y-77081428D01*
X137987309Y-77081428D02*
X137915881Y-77152857D01*
X137915881Y-77152857D02*
X137844452Y-77081428D01*
X137844452Y-77081428D02*
X137987309Y-77081428D01*
X139273024Y-78367143D02*
X139344452Y-78224286D01*
X139344452Y-78224286D02*
X139344452Y-77938572D01*
X139344452Y-77938572D02*
X139273024Y-77795714D01*
X139273024Y-77795714D02*
X139130166Y-77724286D01*
X139130166Y-77724286D02*
X138558738Y-77724286D01*
X138558738Y-77724286D02*
X138415881Y-77795714D01*
X138415881Y-77795714D02*
X138344452Y-77938572D01*
X138344452Y-77938572D02*
X138344452Y-78224286D01*
X138344452Y-78224286D02*
X138415881Y-78367143D01*
X138415881Y-78367143D02*
X138558738Y-78438572D01*
X138558738Y-78438572D02*
X138701595Y-78438572D01*
X138701595Y-78438572D02*
X138844452Y-77724286D01*
X139344452Y-79081428D02*
X138344452Y-79081428D01*
X138630166Y-79081428D02*
X138487309Y-79152857D01*
X138487309Y-79152857D02*
X138415881Y-79224286D01*
X138415881Y-79224286D02*
X138344452Y-79367143D01*
X138344452Y-79367143D02*
X138344452Y-79510000D01*
X137844452Y-80081428D02*
X138130166Y-79938571D01*
X139273024Y-80652857D02*
X139344452Y-80795714D01*
X139344452Y-80795714D02*
X139344452Y-81081428D01*
X139344452Y-81081428D02*
X139273024Y-81224285D01*
X139273024Y-81224285D02*
X139130166Y-81295714D01*
X139130166Y-81295714D02*
X139058738Y-81295714D01*
X139058738Y-81295714D02*
X138915881Y-81224285D01*
X138915881Y-81224285D02*
X138844452Y-81081428D01*
X138844452Y-81081428D02*
X138844452Y-80867143D01*
X138844452Y-80867143D02*
X138773024Y-80724285D01*
X138773024Y-80724285D02*
X138630166Y-80652857D01*
X138630166Y-80652857D02*
X138558738Y-80652857D01*
X138558738Y-80652857D02*
X138415881Y-80724285D01*
X138415881Y-80724285D02*
X138344452Y-80867143D01*
X138344452Y-80867143D02*
X138344452Y-81081428D01*
X138344452Y-81081428D02*
X138415881Y-81224285D01*
X141759368Y-71545714D02*
X140259368Y-71545714D01*
X140259368Y-71545714D02*
X140259368Y-72117143D01*
X140259368Y-72117143D02*
X140330797Y-72260000D01*
X140330797Y-72260000D02*
X140402225Y-72331429D01*
X140402225Y-72331429D02*
X140545082Y-72402857D01*
X140545082Y-72402857D02*
X140759368Y-72402857D01*
X140759368Y-72402857D02*
X140902225Y-72331429D01*
X140902225Y-72331429D02*
X140973654Y-72260000D01*
X140973654Y-72260000D02*
X141045082Y-72117143D01*
X141045082Y-72117143D02*
X141045082Y-71545714D01*
X141759368Y-73045714D02*
X140759368Y-73045714D01*
X141045082Y-73045714D02*
X140902225Y-73117143D01*
X140902225Y-73117143D02*
X140830797Y-73188572D01*
X140830797Y-73188572D02*
X140759368Y-73331429D01*
X140759368Y-73331429D02*
X140759368Y-73474286D01*
X141759368Y-74188571D02*
X141687940Y-74045714D01*
X141687940Y-74045714D02*
X141616511Y-73974285D01*
X141616511Y-73974285D02*
X141473654Y-73902857D01*
X141473654Y-73902857D02*
X141045082Y-73902857D01*
X141045082Y-73902857D02*
X140902225Y-73974285D01*
X140902225Y-73974285D02*
X140830797Y-74045714D01*
X140830797Y-74045714D02*
X140759368Y-74188571D01*
X140759368Y-74188571D02*
X140759368Y-74402857D01*
X140759368Y-74402857D02*
X140830797Y-74545714D01*
X140830797Y-74545714D02*
X140902225Y-74617143D01*
X140902225Y-74617143D02*
X141045082Y-74688571D01*
X141045082Y-74688571D02*
X141473654Y-74688571D01*
X141473654Y-74688571D02*
X141616511Y-74617143D01*
X141616511Y-74617143D02*
X141687940Y-74545714D01*
X141687940Y-74545714D02*
X141759368Y-74402857D01*
X141759368Y-74402857D02*
X141759368Y-74188571D01*
X140759368Y-75117143D02*
X140759368Y-75688571D01*
X140259368Y-75331428D02*
X141545082Y-75331428D01*
X141545082Y-75331428D02*
X141687940Y-75402857D01*
X141687940Y-75402857D02*
X141759368Y-75545714D01*
X141759368Y-75545714D02*
X141759368Y-75688571D01*
X141759368Y-76402857D02*
X141687940Y-76260000D01*
X141687940Y-76260000D02*
X141616511Y-76188571D01*
X141616511Y-76188571D02*
X141473654Y-76117143D01*
X141473654Y-76117143D02*
X141045082Y-76117143D01*
X141045082Y-76117143D02*
X140902225Y-76188571D01*
X140902225Y-76188571D02*
X140830797Y-76260000D01*
X140830797Y-76260000D02*
X140759368Y-76402857D01*
X140759368Y-76402857D02*
X140759368Y-76617143D01*
X140759368Y-76617143D02*
X140830797Y-76760000D01*
X140830797Y-76760000D02*
X140902225Y-76831429D01*
X140902225Y-76831429D02*
X141045082Y-76902857D01*
X141045082Y-76902857D02*
X141473654Y-76902857D01*
X141473654Y-76902857D02*
X141616511Y-76831429D01*
X141616511Y-76831429D02*
X141687940Y-76760000D01*
X141687940Y-76760000D02*
X141759368Y-76617143D01*
X141759368Y-76617143D02*
X141759368Y-76402857D01*
X141759368Y-78688571D02*
X140259368Y-78688571D01*
X140259368Y-78688571D02*
X140259368Y-79260000D01*
X140259368Y-79260000D02*
X140330797Y-79402857D01*
X140330797Y-79402857D02*
X140402225Y-79474286D01*
X140402225Y-79474286D02*
X140545082Y-79545714D01*
X140545082Y-79545714D02*
X140759368Y-79545714D01*
X140759368Y-79545714D02*
X140902225Y-79474286D01*
X140902225Y-79474286D02*
X140973654Y-79402857D01*
X140973654Y-79402857D02*
X141045082Y-79260000D01*
X141045082Y-79260000D02*
X141045082Y-78688571D01*
X141616511Y-81045714D02*
X141687940Y-80974286D01*
X141687940Y-80974286D02*
X141759368Y-80760000D01*
X141759368Y-80760000D02*
X141759368Y-80617143D01*
X141759368Y-80617143D02*
X141687940Y-80402857D01*
X141687940Y-80402857D02*
X141545082Y-80260000D01*
X141545082Y-80260000D02*
X141402225Y-80188571D01*
X141402225Y-80188571D02*
X141116511Y-80117143D01*
X141116511Y-80117143D02*
X140902225Y-80117143D01*
X140902225Y-80117143D02*
X140616511Y-80188571D01*
X140616511Y-80188571D02*
X140473654Y-80260000D01*
X140473654Y-80260000D02*
X140330797Y-80402857D01*
X140330797Y-80402857D02*
X140259368Y-80617143D01*
X140259368Y-80617143D02*
X140259368Y-80760000D01*
X140259368Y-80760000D02*
X140330797Y-80974286D01*
X140330797Y-80974286D02*
X140402225Y-81045714D01*
X140973654Y-82188571D02*
X141045082Y-82402857D01*
X141045082Y-82402857D02*
X141116511Y-82474286D01*
X141116511Y-82474286D02*
X141259368Y-82545714D01*
X141259368Y-82545714D02*
X141473654Y-82545714D01*
X141473654Y-82545714D02*
X141616511Y-82474286D01*
X141616511Y-82474286D02*
X141687940Y-82402857D01*
X141687940Y-82402857D02*
X141759368Y-82260000D01*
X141759368Y-82260000D02*
X141759368Y-81688571D01*
X141759368Y-81688571D02*
X140259368Y-81688571D01*
X140259368Y-81688571D02*
X140259368Y-82188571D01*
X140259368Y-82188571D02*
X140330797Y-82331429D01*
X140330797Y-82331429D02*
X140402225Y-82402857D01*
X140402225Y-82402857D02*
X140545082Y-82474286D01*
X140545082Y-82474286D02*
X140687940Y-82474286D01*
X140687940Y-82474286D02*
X140830797Y-82402857D01*
X140830797Y-82402857D02*
X140902225Y-82331429D01*
X140902225Y-82331429D02*
X140973654Y-82188571D01*
X140973654Y-82188571D02*
X140973654Y-81688571D01*
X144174284Y-74260000D02*
X143459998Y-73760000D01*
X144174284Y-73402857D02*
X142674284Y-73402857D01*
X142674284Y-73402857D02*
X142674284Y-73974286D01*
X142674284Y-73974286D02*
X142745713Y-74117143D01*
X142745713Y-74117143D02*
X142817141Y-74188572D01*
X142817141Y-74188572D02*
X142959998Y-74260000D01*
X142959998Y-74260000D02*
X143174284Y-74260000D01*
X143174284Y-74260000D02*
X143317141Y-74188572D01*
X143317141Y-74188572D02*
X143388570Y-74117143D01*
X143388570Y-74117143D02*
X143459998Y-73974286D01*
X143459998Y-73974286D02*
X143459998Y-73402857D01*
X144102856Y-75474286D02*
X144174284Y-75331429D01*
X144174284Y-75331429D02*
X144174284Y-75045715D01*
X144174284Y-75045715D02*
X144102856Y-74902857D01*
X144102856Y-74902857D02*
X143959998Y-74831429D01*
X143959998Y-74831429D02*
X143388570Y-74831429D01*
X143388570Y-74831429D02*
X143245713Y-74902857D01*
X143245713Y-74902857D02*
X143174284Y-75045715D01*
X143174284Y-75045715D02*
X143174284Y-75331429D01*
X143174284Y-75331429D02*
X143245713Y-75474286D01*
X143245713Y-75474286D02*
X143388570Y-75545715D01*
X143388570Y-75545715D02*
X143531427Y-75545715D01*
X143531427Y-75545715D02*
X143674284Y-74831429D01*
X143174284Y-76045714D02*
X144174284Y-76402857D01*
X144174284Y-76402857D02*
X143174284Y-76760000D01*
X142674284Y-78760000D02*
X142674284Y-78902857D01*
X142674284Y-78902857D02*
X142745713Y-79045714D01*
X142745713Y-79045714D02*
X142817141Y-79117143D01*
X142817141Y-79117143D02*
X142959998Y-79188571D01*
X142959998Y-79188571D02*
X143245713Y-79260000D01*
X143245713Y-79260000D02*
X143602856Y-79260000D01*
X143602856Y-79260000D02*
X143888570Y-79188571D01*
X143888570Y-79188571D02*
X144031427Y-79117143D01*
X144031427Y-79117143D02*
X144102856Y-79045714D01*
X144102856Y-79045714D02*
X144174284Y-78902857D01*
X144174284Y-78902857D02*
X144174284Y-78760000D01*
X144174284Y-78760000D02*
X144102856Y-78617143D01*
X144102856Y-78617143D02*
X144031427Y-78545714D01*
X144031427Y-78545714D02*
X143888570Y-78474285D01*
X143888570Y-78474285D02*
X143602856Y-78402857D01*
X143602856Y-78402857D02*
X143245713Y-78402857D01*
X143245713Y-78402857D02*
X142959998Y-78474285D01*
X142959998Y-78474285D02*
X142817141Y-78545714D01*
X142817141Y-78545714D02*
X142745713Y-78617143D01*
X142745713Y-78617143D02*
X142674284Y-78760000D01*
X142817141Y-79831428D02*
X142745713Y-79902856D01*
X142745713Y-79902856D02*
X142674284Y-80045714D01*
X142674284Y-80045714D02*
X142674284Y-80402856D01*
X142674284Y-80402856D02*
X142745713Y-80545714D01*
X142745713Y-80545714D02*
X142817141Y-80617142D01*
X142817141Y-80617142D02*
X142959998Y-80688571D01*
X142959998Y-80688571D02*
X143102856Y-80688571D01*
X143102856Y-80688571D02*
X143317141Y-80617142D01*
X143317141Y-80617142D02*
X144174284Y-79759999D01*
X144174284Y-79759999D02*
X144174284Y-80688571D01*
D11*
X141743372Y-100001155D02*
X141745626Y-100001211D01*
X141747873Y-100001378D01*
X141750109Y-100001652D01*
X141752331Y-100002032D01*
X141754536Y-100002514D01*
X141756720Y-100003096D01*
X141758880Y-100003775D01*
X141761013Y-100004547D01*
X141765182Y-100006364D01*
X141769201Y-100008524D01*
X141773042Y-100011005D01*
X141776679Y-100013785D01*
X141780084Y-100016843D01*
X141783231Y-100020156D01*
X141786092Y-100023702D01*
X141787406Y-100025555D01*
X141788640Y-100027459D01*
X141789788Y-100029409D01*
X141790848Y-100031405D01*
X141791816Y-100033442D01*
X141792690Y-100035518D01*
X141793464Y-100037630D01*
X141794137Y-100039776D01*
X141794705Y-100041953D01*
X141795164Y-100044157D01*
X141971185Y-100990034D01*
X141971641Y-100992256D01*
X141972201Y-100994484D01*
X141973617Y-100998943D01*
X141975407Y-101003383D01*
X141977545Y-101007775D01*
X141980005Y-101012090D01*
X141982761Y-101016299D01*
X141985788Y-101020373D01*
X141989059Y-101024283D01*
X141992548Y-101028001D01*
X141996230Y-101031496D01*
X142000079Y-101034741D01*
X142004068Y-101037706D01*
X142008172Y-101040362D01*
X142012364Y-101042681D01*
X142016620Y-101044634D01*
X142018763Y-101045463D01*
X142020912Y-101046191D01*
X142758559Y-101341486D01*
X142762755Y-101343314D01*
X142767199Y-101344838D01*
X142771852Y-101346063D01*
X142776675Y-101346990D01*
X142781631Y-101347622D01*
X142786681Y-101347962D01*
X142791787Y-101348012D01*
X142796909Y-101347776D01*
X142802010Y-101347255D01*
X142807051Y-101346453D01*
X142811994Y-101345373D01*
X142816800Y-101344016D01*
X142821431Y-101342386D01*
X142825848Y-101340485D01*
X142830013Y-101338316D01*
X142833887Y-101335882D01*
X143616838Y-100798617D01*
X143618726Y-100797393D01*
X143620670Y-100796264D01*
X143622667Y-100795230D01*
X143624711Y-100794291D01*
X143626799Y-100793446D01*
X143628927Y-100792695D01*
X143633282Y-100791472D01*
X143637742Y-100790620D01*
X143642274Y-100790136D01*
X143646842Y-100790015D01*
X143651412Y-100790256D01*
X143655950Y-100790855D01*
X143660420Y-100791809D01*
X143664789Y-100793114D01*
X143669023Y-100794769D01*
X143673085Y-100796768D01*
X143675042Y-100797897D01*
X143676943Y-100799111D01*
X143678785Y-100800409D01*
X143680562Y-100801793D01*
X143682271Y-100803260D01*
X143683907Y-100804811D01*
X144389583Y-101510604D01*
X144391129Y-101512235D01*
X144392591Y-101513938D01*
X144393969Y-101515710D01*
X144395264Y-101517546D01*
X144396474Y-101519441D01*
X144397599Y-101521393D01*
X144398638Y-101523396D01*
X144399592Y-101525446D01*
X144400460Y-101527539D01*
X144401242Y-101529670D01*
X144402544Y-101534031D01*
X144403496Y-101538494D01*
X144404094Y-101543025D01*
X144404335Y-101547590D01*
X144404217Y-101552155D01*
X144403735Y-101556685D01*
X144403357Y-101558927D01*
X144402888Y-101561146D01*
X144402326Y-101563340D01*
X144401671Y-101565504D01*
X144400923Y-101567633D01*
X144400082Y-101569724D01*
X144399147Y-101571772D01*
X144398117Y-101573772D01*
X144396993Y-101575721D01*
X144395774Y-101577614D01*
X143867889Y-102346702D01*
X143865492Y-102350569D01*
X143863388Y-102354712D01*
X143861580Y-102359093D01*
X143860068Y-102363673D01*
X143858853Y-102368416D01*
X143857936Y-102373283D01*
X143857317Y-102378237D01*
X143856998Y-102383238D01*
X143856980Y-102388250D01*
X143857263Y-102393234D01*
X143857849Y-102398153D01*
X143858738Y-102402969D01*
X143859931Y-102407643D01*
X143861430Y-102412137D01*
X143863234Y-102416415D01*
X143865346Y-102420437D01*
X144046440Y-102759619D01*
X144047410Y-102761642D01*
X144048263Y-102763682D01*
X144048999Y-102765737D01*
X144049621Y-102767801D01*
X144050130Y-102769873D01*
X144050527Y-102771948D01*
X144050813Y-102774022D01*
X144050990Y-102776093D01*
X144051059Y-102778156D01*
X144051021Y-102780209D01*
X144050878Y-102782246D01*
X144050631Y-102784266D01*
X144050282Y-102786264D01*
X144049831Y-102788236D01*
X144049280Y-102790180D01*
X144048630Y-102792092D01*
X144047883Y-102793967D01*
X144047040Y-102795803D01*
X144046103Y-102797596D01*
X144045072Y-102799342D01*
X144043949Y-102801038D01*
X144042736Y-102802681D01*
X144041433Y-102804266D01*
X144040043Y-102805790D01*
X144038565Y-102807249D01*
X144037003Y-102808641D01*
X144035356Y-102809961D01*
X144033627Y-102811206D01*
X144031817Y-102812372D01*
X144029927Y-102813455D01*
X144027958Y-102814453D01*
X144025911Y-102815362D01*
X142336078Y-103514726D01*
X142333976Y-103515541D01*
X142331842Y-103516248D01*
X142329680Y-103516849D01*
X142327494Y-103517345D01*
X142325288Y-103517739D01*
X142323066Y-103518030D01*
X142318592Y-103518313D01*
X142314102Y-103518204D01*
X142309629Y-103517714D01*
X142305205Y-103516853D01*
X142300862Y-103515633D01*
X142296632Y-103514064D01*
X142292549Y-103512157D01*
X142288642Y-103509921D01*
X142284946Y-103507368D01*
X142281492Y-103504509D01*
X142279865Y-103502968D01*
X142278311Y-103501354D01*
X142276834Y-103499669D01*
X142275437Y-103497913D01*
X142274125Y-103496090D01*
X142272901Y-103494198D01*
X142220933Y-103409315D01*
X142217042Y-103403188D01*
X142212601Y-103396655D01*
X142207706Y-103389836D01*
X142202455Y-103382850D01*
X142196944Y-103375818D01*
X142191270Y-103368858D01*
X142185529Y-103362091D01*
X142179818Y-103355635D01*
X142141356Y-103299453D01*
X142099596Y-103245833D01*
X142054683Y-103194922D01*
X142006762Y-103146866D01*
X141955979Y-103101811D01*
X141902480Y-103059906D01*
X141846411Y-103021295D01*
X141787916Y-102986126D01*
X141727141Y-102954545D01*
X141695944Y-102940146D01*
X141664232Y-102926700D01*
X141632022Y-102914223D01*
X141599334Y-102902736D01*
X141566184Y-102892255D01*
X141532592Y-102882800D01*
X141498576Y-102874389D01*
X141464154Y-102867039D01*
X141429343Y-102860770D01*
X141394162Y-102855600D01*
X141358630Y-102851547D01*
X141322764Y-102848629D01*
X141286583Y-102846865D01*
X141250105Y-102846273D01*
X141193307Y-102847709D01*
X141137254Y-102851972D01*
X141082016Y-102858991D01*
X141027662Y-102868698D01*
X140974263Y-102881024D01*
X140921886Y-102895898D01*
X140870602Y-102913252D01*
X140820480Y-102933016D01*
X140771589Y-102955120D01*
X140723998Y-102979496D01*
X140677777Y-103006074D01*
X140632996Y-103034784D01*
X140589723Y-103065558D01*
X140548027Y-103098325D01*
X140507979Y-103133017D01*
X140469648Y-103169564D01*
X140433102Y-103207897D01*
X140398412Y-103247946D01*
X140365646Y-103289642D01*
X140334874Y-103332916D01*
X140306166Y-103377698D01*
X140279590Y-103423919D01*
X140255216Y-103471509D01*
X140233113Y-103520399D01*
X140213351Y-103570521D01*
X140195999Y-103621803D01*
X140181126Y-103674177D01*
X140168801Y-103727574D01*
X140159095Y-103781925D01*
X140152076Y-103837159D01*
X140147814Y-103893207D01*
X140146378Y-103950001D01*
X140147814Y-104006794D01*
X140152076Y-104062842D01*
X140159095Y-104118076D01*
X140168802Y-104172425D01*
X140181126Y-104225820D01*
X140195999Y-104278193D01*
X140213351Y-104329474D01*
X140233113Y-104379593D01*
X140255216Y-104428481D01*
X140279590Y-104476069D01*
X140306166Y-104522287D01*
X140334875Y-104567067D01*
X140365646Y-104610338D01*
X140398412Y-104652031D01*
X140433103Y-104692078D01*
X140469648Y-104730408D01*
X140507980Y-104766952D01*
X140548028Y-104801641D01*
X140589723Y-104834406D01*
X140632996Y-104865177D01*
X140677778Y-104893885D01*
X140723999Y-104920460D01*
X140771589Y-104944834D01*
X140820480Y-104966936D01*
X140870603Y-104986698D01*
X140921887Y-105004050D01*
X140974263Y-105018923D01*
X141027663Y-105031247D01*
X141082016Y-105040953D01*
X141137254Y-105047972D01*
X141193307Y-105052234D01*
X141250105Y-105053670D01*
X141322764Y-105051314D01*
X141394162Y-105044345D01*
X141464154Y-105032909D01*
X141532592Y-105017151D01*
X141599334Y-104997219D01*
X141664232Y-104973258D01*
X141727141Y-104945416D01*
X141787916Y-104913839D01*
X141846411Y-104878672D01*
X141902480Y-104840063D01*
X141955979Y-104798157D01*
X142006762Y-104753101D01*
X142054683Y-104705042D01*
X142099596Y-104654126D01*
X142141356Y-104600499D01*
X142179818Y-104544307D01*
X142185528Y-104537887D01*
X142191269Y-104531143D01*
X142196943Y-104524197D01*
X142202455Y-104517172D01*
X142207706Y-104510191D01*
X142212601Y-104503378D01*
X142217042Y-104496855D01*
X142220933Y-104490745D01*
X142272901Y-104405861D01*
X142274125Y-104403980D01*
X142275437Y-104402166D01*
X142276834Y-104400419D01*
X142278311Y-104398741D01*
X142279865Y-104397134D01*
X142281491Y-104395599D01*
X142283186Y-104394137D01*
X142284945Y-104392749D01*
X142286765Y-104391437D01*
X142288642Y-104390202D01*
X142290571Y-104389046D01*
X142292548Y-104387970D01*
X142294570Y-104386975D01*
X142296632Y-104386063D01*
X142298730Y-104385235D01*
X142300861Y-104384492D01*
X142303020Y-104383837D01*
X142305204Y-104383269D01*
X142307408Y-104382790D01*
X142309628Y-104382403D01*
X142311860Y-104382108D01*
X142314101Y-104381906D01*
X142316346Y-104381799D01*
X142318591Y-104381788D01*
X142320832Y-104381876D01*
X142323066Y-104382062D01*
X142325288Y-104382348D01*
X142327493Y-104382736D01*
X142329679Y-104383228D01*
X142331842Y-104383823D01*
X142333976Y-104384525D01*
X142336078Y-104385334D01*
X144025972Y-105084639D01*
X144028018Y-105085547D01*
X144029987Y-105086545D01*
X144031877Y-105087628D01*
X144033687Y-105088793D01*
X144035415Y-105090037D01*
X144037060Y-105091355D01*
X144038621Y-105092745D01*
X144040096Y-105094203D01*
X144041485Y-105095725D01*
X144042786Y-105097309D01*
X144043997Y-105098949D01*
X144045118Y-105100643D01*
X144046147Y-105102388D01*
X144047082Y-105104179D01*
X144047923Y-105106013D01*
X144048668Y-105107887D01*
X144049316Y-105109798D01*
X144049866Y-105111740D01*
X144050316Y-105113712D01*
X144050665Y-105115709D01*
X144050911Y-105117729D01*
X144051054Y-105119767D01*
X144051092Y-105121819D01*
X144051024Y-105123883D01*
X144050848Y-105125955D01*
X144050564Y-105128032D01*
X144050169Y-105130109D01*
X144049663Y-105132183D01*
X144049045Y-105134251D01*
X144048312Y-105136309D01*
X144047464Y-105138354D01*
X144046500Y-105140382D01*
X143865407Y-105479564D01*
X143863291Y-105483596D01*
X143861483Y-105487881D01*
X143859980Y-105492381D01*
X143858782Y-105497058D01*
X143857889Y-105501875D01*
X143857300Y-105506793D01*
X143857013Y-105511776D01*
X143857029Y-105516786D01*
X143857346Y-105521784D01*
X143857964Y-105526734D01*
X143858882Y-105531597D01*
X143860100Y-105536337D01*
X143861616Y-105540914D01*
X143863430Y-105545292D01*
X143865541Y-105549433D01*
X143867949Y-105553299D01*
X144395834Y-106322447D01*
X144397053Y-106324334D01*
X144398177Y-106326279D01*
X144399206Y-106328275D01*
X144400141Y-106330319D01*
X144400982Y-106332407D01*
X144401729Y-106334534D01*
X144402946Y-106338888D01*
X144403794Y-106343347D01*
X144404275Y-106347876D01*
X144404394Y-106352441D01*
X144404153Y-106357006D01*
X144403556Y-106361537D01*
X144402604Y-106366000D01*
X144401303Y-106370359D01*
X144399653Y-106374581D01*
X144397660Y-106378630D01*
X144396535Y-106380580D01*
X144395325Y-106382473D01*
X144394030Y-106384305D01*
X144392652Y-106386073D01*
X144391189Y-106387772D01*
X144389643Y-106389397D01*
X143683967Y-107095192D01*
X143682331Y-107096748D01*
X143680622Y-107098220D01*
X143678845Y-107099608D01*
X143677004Y-107100911D01*
X143675102Y-107102129D01*
X143673146Y-107103262D01*
X143671138Y-107104308D01*
X143669083Y-107105268D01*
X143666985Y-107106141D01*
X143664850Y-107106927D01*
X143660480Y-107108236D01*
X143656010Y-107109192D01*
X143651472Y-107109792D01*
X143646902Y-107110032D01*
X143642334Y-107109909D01*
X143637802Y-107109421D01*
X143635561Y-107109038D01*
X143633342Y-107108563D01*
X143631149Y-107107995D01*
X143628986Y-107107334D01*
X143626859Y-107106579D01*
X143624771Y-107105730D01*
X143622727Y-107104786D01*
X143620730Y-107103747D01*
X143618786Y-107102613D01*
X143616898Y-107101384D01*
X142833947Y-106564061D01*
X142830073Y-106561647D01*
X142825908Y-106559494D01*
X142821491Y-106557606D01*
X142816860Y-106555985D01*
X142812054Y-106554636D01*
X142807111Y-106553559D01*
X142802070Y-106552760D01*
X142796969Y-106552240D01*
X142791847Y-106552003D01*
X142786742Y-106552052D01*
X142781692Y-106552390D01*
X142776736Y-106553020D01*
X142771912Y-106553944D01*
X142767259Y-106555166D01*
X142762816Y-106556690D01*
X142758620Y-106558517D01*
X142020973Y-106853810D01*
X142018823Y-106854542D01*
X142016680Y-106855375D01*
X142012425Y-106857330D01*
X142008232Y-106859647D01*
X142004128Y-106862300D01*
X142000139Y-106865258D01*
X141996291Y-106868494D01*
X141992609Y-106871979D01*
X141989120Y-106875686D01*
X141985849Y-106879585D01*
X141982822Y-106883649D01*
X141980066Y-106887850D01*
X141977606Y-106892159D01*
X141975468Y-106896547D01*
X141973678Y-106900987D01*
X141972922Y-106903218D01*
X141972262Y-106905451D01*
X141971703Y-106907682D01*
X141971246Y-106909909D01*
X141795226Y-107855784D01*
X141794767Y-107857984D01*
X141794199Y-107860156D01*
X141793526Y-107862298D01*
X141792751Y-107864407D01*
X141791878Y-107866480D01*
X141790910Y-107868515D01*
X141789850Y-107870508D01*
X141788701Y-107872458D01*
X141787468Y-107874361D01*
X141786153Y-107876214D01*
X141784760Y-107878014D01*
X141783292Y-107879760D01*
X141781753Y-107881447D01*
X141780146Y-107883074D01*
X141778474Y-107884637D01*
X141776740Y-107886134D01*
X141774949Y-107887561D01*
X141773103Y-107888917D01*
X141771207Y-107890198D01*
X141769262Y-107891401D01*
X141767273Y-107892525D01*
X141765243Y-107893565D01*
X141763176Y-107894519D01*
X141761074Y-107895385D01*
X141758941Y-107896159D01*
X141756781Y-107896839D01*
X141754597Y-107897423D01*
X141752392Y-107897906D01*
X141750170Y-107898287D01*
X141747934Y-107898562D01*
X141745687Y-107898729D01*
X141743434Y-107898786D01*
X140745412Y-107898904D01*
X140743153Y-107898853D01*
X140740903Y-107898691D01*
X140738664Y-107898421D01*
X140736441Y-107898046D01*
X140734236Y-107897568D01*
X140732052Y-107896990D01*
X140729893Y-107896315D01*
X140727762Y-107895546D01*
X140725663Y-107894685D01*
X140723598Y-107893736D01*
X140719586Y-107891582D01*
X140715751Y-107889106D01*
X140712120Y-107886331D01*
X140708720Y-107883279D01*
X140705576Y-107879972D01*
X140702714Y-107876432D01*
X140700161Y-107872682D01*
X140699009Y-107870735D01*
X140697943Y-107868743D01*
X140696968Y-107866710D01*
X140696086Y-107864638D01*
X140695302Y-107862531D01*
X140694617Y-107860390D01*
X140694035Y-107858218D01*
X140693561Y-107856019D01*
X140693561Y-107856020D01*
X140513234Y-106886312D01*
X140512200Y-106881866D01*
X140510776Y-106877398D01*
X140508986Y-106872936D01*
X140506855Y-106868509D01*
X140504408Y-106864148D01*
X140501671Y-106859882D01*
X140498669Y-106855740D01*
X140495427Y-106851752D01*
X140491969Y-106847947D01*
X140488322Y-106844355D01*
X140484510Y-106841005D01*
X140480559Y-106837927D01*
X140476493Y-106835149D01*
X140472338Y-106832702D01*
X140468118Y-106830615D01*
X140463860Y-106828918D01*
X139770395Y-106531676D01*
X139766244Y-106529751D01*
X139761844Y-106528134D01*
X139757234Y-106526821D01*
X139752451Y-106525810D01*
X139747534Y-106525100D01*
X139742520Y-106524687D01*
X139737448Y-106524569D01*
X139732355Y-106524744D01*
X139727280Y-106525209D01*
X139722259Y-106525963D01*
X139717332Y-106527002D01*
X139712536Y-106528324D01*
X139707909Y-106529928D01*
X139703489Y-106531809D01*
X139699314Y-106533967D01*
X139695422Y-106536399D01*
X138871947Y-107101387D01*
X138870059Y-107102606D01*
X138868115Y-107103731D01*
X138866119Y-107104761D01*
X138864076Y-107105698D01*
X138861989Y-107106541D01*
X138859863Y-107107292D01*
X138855512Y-107108514D01*
X138851056Y-107109369D01*
X138846529Y-107109857D01*
X138841966Y-107109982D01*
X138837401Y-107109747D01*
X138832869Y-107109154D01*
X138828404Y-107108205D01*
X138824040Y-107106904D01*
X138819811Y-107105252D01*
X138815752Y-107103253D01*
X138813797Y-107102124D01*
X138811897Y-107100908D01*
X138810057Y-107099608D01*
X138808280Y-107098222D01*
X138806572Y-107096751D01*
X138804936Y-107095195D01*
X138099261Y-106389520D01*
X138097705Y-106387884D01*
X138096232Y-106386176D01*
X138094845Y-106384400D01*
X138093541Y-106382561D01*
X138092324Y-106380663D01*
X138091191Y-106378709D01*
X138090145Y-106376705D01*
X138089185Y-106374654D01*
X138088312Y-106372561D01*
X138087526Y-106370429D01*
X138086217Y-106366070D01*
X138085261Y-106361610D01*
X138084661Y-106357084D01*
X138084421Y-106352525D01*
X138084544Y-106347968D01*
X138085032Y-106343446D01*
X138085414Y-106341210D01*
X138085889Y-106338995D01*
X138086457Y-106336806D01*
X138087118Y-106334647D01*
X138087873Y-106332523D01*
X138088722Y-106330438D01*
X138089665Y-106328395D01*
X138090704Y-106326400D01*
X138091837Y-106324457D01*
X138093067Y-106322570D01*
X138668084Y-105484642D01*
X138670508Y-105480766D01*
X138672666Y-105476597D01*
X138674556Y-105472175D01*
X138676175Y-105467537D01*
X138677521Y-105462724D01*
X138678590Y-105457774D01*
X138679381Y-105452726D01*
X138679890Y-105447619D01*
X138680116Y-105442491D01*
X138680054Y-105437383D01*
X138679703Y-105432333D01*
X138679060Y-105427379D01*
X138678122Y-105422561D01*
X138676887Y-105417919D01*
X138675351Y-105413489D01*
X138673513Y-105409313D01*
X138398333Y-104737083D01*
X138397573Y-104734945D01*
X138396711Y-104732814D01*
X138395751Y-104730692D01*
X138394697Y-104728584D01*
X138392319Y-104724418D01*
X138389607Y-104720341D01*
X138386590Y-104716378D01*
X138383297Y-104712555D01*
X138379756Y-104708897D01*
X138375998Y-104705429D01*
X138372052Y-104702175D01*
X138367945Y-104699162D01*
X138363708Y-104696414D01*
X138359370Y-104693956D01*
X138354960Y-104691814D01*
X138350506Y-104690013D01*
X138346039Y-104688578D01*
X138343809Y-104688005D01*
X138341586Y-104687533D01*
X137338609Y-104500835D01*
X137336405Y-104500371D01*
X137334228Y-104499799D01*
X137332082Y-104499123D01*
X137329970Y-104498346D01*
X137327894Y-104497471D01*
X137325857Y-104496502D01*
X137323861Y-104495442D01*
X137321911Y-104494294D01*
X137320007Y-104493062D01*
X137318154Y-104491749D01*
X137316353Y-104490358D01*
X137314608Y-104488893D01*
X137312921Y-104487357D01*
X137311295Y-104485753D01*
X137309733Y-104484085D01*
X137308237Y-104482356D01*
X137306811Y-104480569D01*
X137305457Y-104478728D01*
X137304178Y-104476835D01*
X137302976Y-104474895D01*
X137301854Y-104472911D01*
X137300816Y-104470885D01*
X137299863Y-104468822D01*
X137298999Y-104466724D01*
X137298227Y-104464595D01*
X137297548Y-104462438D01*
X137296966Y-104460257D01*
X137296484Y-104458055D01*
X137296104Y-104455835D01*
X137295830Y-104453600D01*
X137295663Y-104451355D01*
X137295607Y-104449101D01*
X137295607Y-103451020D01*
X137295663Y-103448772D01*
X137295830Y-103446532D01*
X137296104Y-103444302D01*
X137296484Y-103442086D01*
X137296966Y-103439888D01*
X137297548Y-103437711D01*
X137298227Y-103435557D01*
X137298999Y-103433432D01*
X137299863Y-103431337D01*
X137300816Y-103429276D01*
X137302976Y-103425271D01*
X137305457Y-103421442D01*
X137308237Y-103417817D01*
X137311295Y-103414422D01*
X137314608Y-103411284D01*
X137318154Y-103408430D01*
X137320007Y-103407117D01*
X137321911Y-103405886D01*
X137323861Y-103404739D01*
X137325857Y-103403679D01*
X137327894Y-103402710D01*
X137329970Y-103401835D01*
X137332082Y-103401059D01*
X137334228Y-103400383D01*
X137336405Y-103399811D01*
X137338609Y-103399347D01*
X138341585Y-103212708D01*
X138346038Y-103211664D01*
X138350505Y-103210230D01*
X138354959Y-103208432D01*
X138359369Y-103206293D01*
X138363707Y-103203839D01*
X138367944Y-103201094D01*
X138372050Y-103198085D01*
X138375997Y-103194834D01*
X138379755Y-103191368D01*
X138383295Y-103187711D01*
X138386589Y-103183888D01*
X138389606Y-103179924D01*
X138392318Y-103175845D01*
X138394696Y-103171673D01*
X138396710Y-103167436D01*
X138398332Y-103163157D01*
X138673511Y-102490868D01*
X138675350Y-102486681D01*
X138676886Y-102482243D01*
X138678121Y-102477593D01*
X138679059Y-102472769D01*
X138679702Y-102467811D01*
X138680053Y-102462757D01*
X138680115Y-102457647D01*
X138679890Y-102452519D01*
X138679380Y-102447412D01*
X138678589Y-102442366D01*
X138677520Y-102437420D01*
X138676174Y-102432611D01*
X138674555Y-102427980D01*
X138672665Y-102423565D01*
X138670507Y-102419406D01*
X138668083Y-102415540D01*
X138093066Y-101577672D01*
X138091836Y-101575779D01*
X138090702Y-101573830D01*
X138089664Y-101571829D01*
X138088720Y-101569782D01*
X138087871Y-101567691D01*
X138087116Y-101565562D01*
X138085887Y-101561204D01*
X138085031Y-101556743D01*
X138084542Y-101552213D01*
X138084420Y-101547648D01*
X138084660Y-101543083D01*
X138085260Y-101538551D01*
X138086216Y-101534088D01*
X138087525Y-101529728D01*
X138089184Y-101525504D01*
X138091190Y-101521451D01*
X138092323Y-101519499D01*
X138093541Y-101517604D01*
X138094844Y-101515768D01*
X138096232Y-101513996D01*
X138097704Y-101512293D01*
X138099260Y-101510662D01*
X138804935Y-100804927D01*
X138806571Y-100803376D01*
X138808279Y-100801908D01*
X138810056Y-100800524D01*
X138811896Y-100799224D01*
X138813796Y-100798009D01*
X138815751Y-100796879D01*
X138817757Y-100795835D01*
X138819810Y-100794876D01*
X138821906Y-100794004D01*
X138824039Y-100793218D01*
X138828403Y-100791909D01*
X138832869Y-100790951D01*
X138837401Y-100790350D01*
X138841965Y-100790107D01*
X138846528Y-100790226D01*
X138851055Y-100790710D01*
X138853294Y-100791091D01*
X138855511Y-100791564D01*
X138857702Y-100792130D01*
X138859863Y-100792790D01*
X138861988Y-100793543D01*
X138864075Y-100794391D01*
X138866119Y-100795334D01*
X138868114Y-100796372D01*
X138870058Y-100797505D01*
X138871946Y-100798734D01*
X139695420Y-101363783D01*
X139699313Y-101366192D01*
X139703488Y-101368331D01*
X139707908Y-101370196D01*
X139712536Y-101371786D01*
X139717332Y-101373098D01*
X139722259Y-101374128D01*
X139727279Y-101374876D01*
X139732355Y-101375337D01*
X139737447Y-101375511D01*
X139742520Y-101375393D01*
X139747533Y-101374983D01*
X139752450Y-101374276D01*
X139757233Y-101373272D01*
X139761843Y-101371966D01*
X139766242Y-101370357D01*
X139770394Y-101368442D01*
X140463859Y-101071143D01*
X140465991Y-101070350D01*
X140468117Y-101069456D01*
X140472336Y-101067379D01*
X140476491Y-101064942D01*
X140480557Y-101062174D01*
X140484509Y-101059104D01*
X140488321Y-101055761D01*
X140491968Y-101052174D01*
X140495425Y-101048372D01*
X140498668Y-101044386D01*
X140501670Y-101040243D01*
X140504407Y-101035974D01*
X140506853Y-101031607D01*
X140508984Y-101027171D01*
X140510775Y-101022696D01*
X140512199Y-101018212D01*
X140512766Y-101015975D01*
X140513232Y-101013746D01*
X140693559Y-100044098D01*
X140694034Y-100041888D01*
X140694615Y-100039707D01*
X140695300Y-100037558D01*
X140696085Y-100035442D01*
X140696966Y-100033363D01*
X140697941Y-100031324D01*
X140699007Y-100029327D01*
X140700159Y-100027375D01*
X140701395Y-100025471D01*
X140702711Y-100023617D01*
X140704104Y-100021816D01*
X140705571Y-100020071D01*
X140707109Y-100018385D01*
X140708713Y-100016760D01*
X140710382Y-100015199D01*
X140712111Y-100013704D01*
X140713898Y-100012280D01*
X140715739Y-100010927D01*
X140717631Y-100009649D01*
X140719570Y-100008449D01*
X140721553Y-100007330D01*
X140723578Y-100006293D01*
X140725640Y-100005342D01*
X140727736Y-100004480D01*
X140729864Y-100003709D01*
X140732019Y-100003032D01*
X140734199Y-100002452D01*
X140736400Y-100001971D01*
X140738619Y-100001592D01*
X140740853Y-100001318D01*
X140743098Y-100001152D01*
X140745351Y-100001096D01*
X141743372Y-100001155D01*
G36*
X141743372Y-100001155D02*
G01*
X141745626Y-100001211D01*
X141747873Y-100001378D01*
X141750109Y-100001652D01*
X141752331Y-100002032D01*
X141754536Y-100002514D01*
X141756720Y-100003096D01*
X141758880Y-100003775D01*
X141761013Y-100004547D01*
X141765182Y-100006364D01*
X141769201Y-100008524D01*
X141773042Y-100011005D01*
X141776679Y-100013785D01*
X141780084Y-100016843D01*
X141783231Y-100020156D01*
X141786092Y-100023702D01*
X141787406Y-100025555D01*
X141788640Y-100027459D01*
X141789788Y-100029409D01*
X141790848Y-100031405D01*
X141791816Y-100033442D01*
X141792690Y-100035518D01*
X141793464Y-100037630D01*
X141794137Y-100039776D01*
X141794705Y-100041953D01*
X141795164Y-100044157D01*
X141971185Y-100990034D01*
X141971641Y-100992256D01*
X141972201Y-100994484D01*
X141973617Y-100998943D01*
X141975407Y-101003383D01*
X141977545Y-101007775D01*
X141980005Y-101012090D01*
X141982761Y-101016299D01*
X141985788Y-101020373D01*
X141989059Y-101024283D01*
X141992548Y-101028001D01*
X141996230Y-101031496D01*
X142000079Y-101034741D01*
X142004068Y-101037706D01*
X142008172Y-101040362D01*
X142012364Y-101042681D01*
X142016620Y-101044634D01*
X142018763Y-101045463D01*
X142020912Y-101046191D01*
X142758559Y-101341486D01*
X142762755Y-101343314D01*
X142767199Y-101344838D01*
X142771852Y-101346063D01*
X142776675Y-101346990D01*
X142781631Y-101347622D01*
X142786681Y-101347962D01*
X142791787Y-101348012D01*
X142796909Y-101347776D01*
X142802010Y-101347255D01*
X142807051Y-101346453D01*
X142811994Y-101345373D01*
X142816800Y-101344016D01*
X142821431Y-101342386D01*
X142825848Y-101340485D01*
X142830013Y-101338316D01*
X142833887Y-101335882D01*
X143616838Y-100798617D01*
X143618726Y-100797393D01*
X143620670Y-100796264D01*
X143622667Y-100795230D01*
X143624711Y-100794291D01*
X143626799Y-100793446D01*
X143628927Y-100792695D01*
X143633282Y-100791472D01*
X143637742Y-100790620D01*
X143642274Y-100790136D01*
X143646842Y-100790015D01*
X143651412Y-100790256D01*
X143655950Y-100790855D01*
X143660420Y-100791809D01*
X143664789Y-100793114D01*
X143669023Y-100794769D01*
X143673085Y-100796768D01*
X143675042Y-100797897D01*
X143676943Y-100799111D01*
X143678785Y-100800409D01*
X143680562Y-100801793D01*
X143682271Y-100803260D01*
X143683907Y-100804811D01*
X144389583Y-101510604D01*
X144391129Y-101512235D01*
X144392591Y-101513938D01*
X144393969Y-101515710D01*
X144395264Y-101517546D01*
X144396474Y-101519441D01*
X144397599Y-101521393D01*
X144398638Y-101523396D01*
X144399592Y-101525446D01*
X144400460Y-101527539D01*
X144401242Y-101529670D01*
X144402544Y-101534031D01*
X144403496Y-101538494D01*
X144404094Y-101543025D01*
X144404335Y-101547590D01*
X144404217Y-101552155D01*
X144403735Y-101556685D01*
X144403357Y-101558927D01*
X144402888Y-101561146D01*
X144402326Y-101563340D01*
X144401671Y-101565504D01*
X144400923Y-101567633D01*
X144400082Y-101569724D01*
X144399147Y-101571772D01*
X144398117Y-101573772D01*
X144396993Y-101575721D01*
X144395774Y-101577614D01*
X143867889Y-102346702D01*
X143865492Y-102350569D01*
X143863388Y-102354712D01*
X143861580Y-102359093D01*
X143860068Y-102363673D01*
X143858853Y-102368416D01*
X143857936Y-102373283D01*
X143857317Y-102378237D01*
X143856998Y-102383238D01*
X143856980Y-102388250D01*
X143857263Y-102393234D01*
X143857849Y-102398153D01*
X143858738Y-102402969D01*
X143859931Y-102407643D01*
X143861430Y-102412137D01*
X143863234Y-102416415D01*
X143865346Y-102420437D01*
X144046440Y-102759619D01*
X144047410Y-102761642D01*
X144048263Y-102763682D01*
X144048999Y-102765737D01*
X144049621Y-102767801D01*
X144050130Y-102769873D01*
X144050527Y-102771948D01*
X144050813Y-102774022D01*
X144050990Y-102776093D01*
X144051059Y-102778156D01*
X144051021Y-102780209D01*
X144050878Y-102782246D01*
X144050631Y-102784266D01*
X144050282Y-102786264D01*
X144049831Y-102788236D01*
X144049280Y-102790180D01*
X144048630Y-102792092D01*
X144047883Y-102793967D01*
X144047040Y-102795803D01*
X144046103Y-102797596D01*
X144045072Y-102799342D01*
X144043949Y-102801038D01*
X144042736Y-102802681D01*
X144041433Y-102804266D01*
X144040043Y-102805790D01*
X144038565Y-102807249D01*
X144037003Y-102808641D01*
X144035356Y-102809961D01*
X144033627Y-102811206D01*
X144031817Y-102812372D01*
X144029927Y-102813455D01*
X144027958Y-102814453D01*
X144025911Y-102815362D01*
X142336078Y-103514726D01*
X142333976Y-103515541D01*
X142331842Y-103516248D01*
X142329680Y-103516849D01*
X142327494Y-103517345D01*
X142325288Y-103517739D01*
X142323066Y-103518030D01*
X142318592Y-103518313D01*
X142314102Y-103518204D01*
X142309629Y-103517714D01*
X142305205Y-103516853D01*
X142300862Y-103515633D01*
X142296632Y-103514064D01*
X142292549Y-103512157D01*
X142288642Y-103509921D01*
X142284946Y-103507368D01*
X142281492Y-103504509D01*
X142279865Y-103502968D01*
X142278311Y-103501354D01*
X142276834Y-103499669D01*
X142275437Y-103497913D01*
X142274125Y-103496090D01*
X142272901Y-103494198D01*
X142220933Y-103409315D01*
X142217042Y-103403188D01*
X142212601Y-103396655D01*
X142207706Y-103389836D01*
X142202455Y-103382850D01*
X142196944Y-103375818D01*
X142191270Y-103368858D01*
X142185529Y-103362091D01*
X142179818Y-103355635D01*
X142141356Y-103299453D01*
X142099596Y-103245833D01*
X142054683Y-103194922D01*
X142006762Y-103146866D01*
X141955979Y-103101811D01*
X141902480Y-103059906D01*
X141846411Y-103021295D01*
X141787916Y-102986126D01*
X141727141Y-102954545D01*
X141695944Y-102940146D01*
X141664232Y-102926700D01*
X141632022Y-102914223D01*
X141599334Y-102902736D01*
X141566184Y-102892255D01*
X141532592Y-102882800D01*
X141498576Y-102874389D01*
X141464154Y-102867039D01*
X141429343Y-102860770D01*
X141394162Y-102855600D01*
X141358630Y-102851547D01*
X141322764Y-102848629D01*
X141286583Y-102846865D01*
X141250105Y-102846273D01*
X141193307Y-102847709D01*
X141137254Y-102851972D01*
X141082016Y-102858991D01*
X141027662Y-102868698D01*
X140974263Y-102881024D01*
X140921886Y-102895898D01*
X140870602Y-102913252D01*
X140820480Y-102933016D01*
X140771589Y-102955120D01*
X140723998Y-102979496D01*
X140677777Y-103006074D01*
X140632996Y-103034784D01*
X140589723Y-103065558D01*
X140548027Y-103098325D01*
X140507979Y-103133017D01*
X140469648Y-103169564D01*
X140433102Y-103207897D01*
X140398412Y-103247946D01*
X140365646Y-103289642D01*
X140334874Y-103332916D01*
X140306166Y-103377698D01*
X140279590Y-103423919D01*
X140255216Y-103471509D01*
X140233113Y-103520399D01*
X140213351Y-103570521D01*
X140195999Y-103621803D01*
X140181126Y-103674177D01*
X140168801Y-103727574D01*
X140159095Y-103781925D01*
X140152076Y-103837159D01*
X140147814Y-103893207D01*
X140146378Y-103950001D01*
X140147814Y-104006794D01*
X140152076Y-104062842D01*
X140159095Y-104118076D01*
X140168802Y-104172425D01*
X140181126Y-104225820D01*
X140195999Y-104278193D01*
X140213351Y-104329474D01*
X140233113Y-104379593D01*
X140255216Y-104428481D01*
X140279590Y-104476069D01*
X140306166Y-104522287D01*
X140334875Y-104567067D01*
X140365646Y-104610338D01*
X140398412Y-104652031D01*
X140433103Y-104692078D01*
X140469648Y-104730408D01*
X140507980Y-104766952D01*
X140548028Y-104801641D01*
X140589723Y-104834406D01*
X140632996Y-104865177D01*
X140677778Y-104893885D01*
X140723999Y-104920460D01*
X140771589Y-104944834D01*
X140820480Y-104966936D01*
X140870603Y-104986698D01*
X140921887Y-105004050D01*
X140974263Y-105018923D01*
X141027663Y-105031247D01*
X141082016Y-105040953D01*
X141137254Y-105047972D01*
X141193307Y-105052234D01*
X141250105Y-105053670D01*
X141322764Y-105051314D01*
X141394162Y-105044345D01*
X141464154Y-105032909D01*
X141532592Y-105017151D01*
X141599334Y-104997219D01*
X141664232Y-104973258D01*
X141727141Y-104945416D01*
X141787916Y-104913839D01*
X141846411Y-104878672D01*
X141902480Y-104840063D01*
X141955979Y-104798157D01*
X142006762Y-104753101D01*
X142054683Y-104705042D01*
X142099596Y-104654126D01*
X142141356Y-104600499D01*
X142179818Y-104544307D01*
X142185528Y-104537887D01*
X142191269Y-104531143D01*
X142196943Y-104524197D01*
X142202455Y-104517172D01*
X142207706Y-104510191D01*
X142212601Y-104503378D01*
X142217042Y-104496855D01*
X142220933Y-104490745D01*
X142272901Y-104405861D01*
X142274125Y-104403980D01*
X142275437Y-104402166D01*
X142276834Y-104400419D01*
X142278311Y-104398741D01*
X142279865Y-104397134D01*
X142281491Y-104395599D01*
X142283186Y-104394137D01*
X142284945Y-104392749D01*
X142286765Y-104391437D01*
X142288642Y-104390202D01*
X142290571Y-104389046D01*
X142292548Y-104387970D01*
X142294570Y-104386975D01*
X142296632Y-104386063D01*
X142298730Y-104385235D01*
X142300861Y-104384492D01*
X142303020Y-104383837D01*
X142305204Y-104383269D01*
X142307408Y-104382790D01*
X142309628Y-104382403D01*
X142311860Y-104382108D01*
X142314101Y-104381906D01*
X142316346Y-104381799D01*
X142318591Y-104381788D01*
X142320832Y-104381876D01*
X142323066Y-104382062D01*
X142325288Y-104382348D01*
X142327493Y-104382736D01*
X142329679Y-104383228D01*
X142331842Y-104383823D01*
X142333976Y-104384525D01*
X142336078Y-104385334D01*
X144025972Y-105084639D01*
X144028018Y-105085547D01*
X144029987Y-105086545D01*
X144031877Y-105087628D01*
X144033687Y-105088793D01*
X144035415Y-105090037D01*
X144037060Y-105091355D01*
X144038621Y-105092745D01*
X144040096Y-105094203D01*
X144041485Y-105095725D01*
X144042786Y-105097309D01*
X144043997Y-105098949D01*
X144045118Y-105100643D01*
X144046147Y-105102388D01*
X144047082Y-105104179D01*
X144047923Y-105106013D01*
X144048668Y-105107887D01*
X144049316Y-105109798D01*
X144049866Y-105111740D01*
X144050316Y-105113712D01*
X144050665Y-105115709D01*
X144050911Y-105117729D01*
X144051054Y-105119767D01*
X144051092Y-105121819D01*
X144051024Y-105123883D01*
X144050848Y-105125955D01*
X144050564Y-105128032D01*
X144050169Y-105130109D01*
X144049663Y-105132183D01*
X144049045Y-105134251D01*
X144048312Y-105136309D01*
X144047464Y-105138354D01*
X144046500Y-105140382D01*
X143865407Y-105479564D01*
X143863291Y-105483596D01*
X143861483Y-105487881D01*
X143859980Y-105492381D01*
X143858782Y-105497058D01*
X143857889Y-105501875D01*
X143857300Y-105506793D01*
X143857013Y-105511776D01*
X143857029Y-105516786D01*
X143857346Y-105521784D01*
X143857964Y-105526734D01*
X143858882Y-105531597D01*
X143860100Y-105536337D01*
X143861616Y-105540914D01*
X143863430Y-105545292D01*
X143865541Y-105549433D01*
X143867949Y-105553299D01*
X144395834Y-106322447D01*
X144397053Y-106324334D01*
X144398177Y-106326279D01*
X144399206Y-106328275D01*
X144400141Y-106330319D01*
X144400982Y-106332407D01*
X144401729Y-106334534D01*
X144402946Y-106338888D01*
X144403794Y-106343347D01*
X144404275Y-106347876D01*
X144404394Y-106352441D01*
X144404153Y-106357006D01*
X144403556Y-106361537D01*
X144402604Y-106366000D01*
X144401303Y-106370359D01*
X144399653Y-106374581D01*
X144397660Y-106378630D01*
X144396535Y-106380580D01*
X144395325Y-106382473D01*
X144394030Y-106384305D01*
X144392652Y-106386073D01*
X144391189Y-106387772D01*
X144389643Y-106389397D01*
X143683967Y-107095192D01*
X143682331Y-107096748D01*
X143680622Y-107098220D01*
X143678845Y-107099608D01*
X143677004Y-107100911D01*
X143675102Y-107102129D01*
X143673146Y-107103262D01*
X143671138Y-107104308D01*
X143669083Y-107105268D01*
X143666985Y-107106141D01*
X143664850Y-107106927D01*
X143660480Y-107108236D01*
X143656010Y-107109192D01*
X143651472Y-107109792D01*
X143646902Y-107110032D01*
X143642334Y-107109909D01*
X143637802Y-107109421D01*
X143635561Y-107109038D01*
X143633342Y-107108563D01*
X143631149Y-107107995D01*
X143628986Y-107107334D01*
X143626859Y-107106579D01*
X143624771Y-107105730D01*
X143622727Y-107104786D01*
X143620730Y-107103747D01*
X143618786Y-107102613D01*
X143616898Y-107101384D01*
X142833947Y-106564061D01*
X142830073Y-106561647D01*
X142825908Y-106559494D01*
X142821491Y-106557606D01*
X142816860Y-106555985D01*
X142812054Y-106554636D01*
X142807111Y-106553559D01*
X142802070Y-106552760D01*
X142796969Y-106552240D01*
X142791847Y-106552003D01*
X142786742Y-106552052D01*
X142781692Y-106552390D01*
X142776736Y-106553020D01*
X142771912Y-106553944D01*
X142767259Y-106555166D01*
X142762816Y-106556690D01*
X142758620Y-106558517D01*
X142020973Y-106853810D01*
X142018823Y-106854542D01*
X142016680Y-106855375D01*
X142012425Y-106857330D01*
X142008232Y-106859647D01*
X142004128Y-106862300D01*
X142000139Y-106865258D01*
X141996291Y-106868494D01*
X141992609Y-106871979D01*
X141989120Y-106875686D01*
X141985849Y-106879585D01*
X141982822Y-106883649D01*
X141980066Y-106887850D01*
X141977606Y-106892159D01*
X141975468Y-106896547D01*
X141973678Y-106900987D01*
X141972922Y-106903218D01*
X141972262Y-106905451D01*
X141971703Y-106907682D01*
X141971246Y-106909909D01*
X141795226Y-107855784D01*
X141794767Y-107857984D01*
X141794199Y-107860156D01*
X141793526Y-107862298D01*
X141792751Y-107864407D01*
X141791878Y-107866480D01*
X141790910Y-107868515D01*
X141789850Y-107870508D01*
X141788701Y-107872458D01*
X141787468Y-107874361D01*
X141786153Y-107876214D01*
X141784760Y-107878014D01*
X141783292Y-107879760D01*
X141781753Y-107881447D01*
X141780146Y-107883074D01*
X141778474Y-107884637D01*
X141776740Y-107886134D01*
X141774949Y-107887561D01*
X141773103Y-107888917D01*
X141771207Y-107890198D01*
X141769262Y-107891401D01*
X141767273Y-107892525D01*
X141765243Y-107893565D01*
X141763176Y-107894519D01*
X141761074Y-107895385D01*
X141758941Y-107896159D01*
X141756781Y-107896839D01*
X141754597Y-107897423D01*
X141752392Y-107897906D01*
X141750170Y-107898287D01*
X141747934Y-107898562D01*
X141745687Y-107898729D01*
X141743434Y-107898786D01*
X140745412Y-107898904D01*
X140743153Y-107898853D01*
X140740903Y-107898691D01*
X140738664Y-107898421D01*
X140736441Y-107898046D01*
X140734236Y-107897568D01*
X140732052Y-107896990D01*
X140729893Y-107896315D01*
X140727762Y-107895546D01*
X140725663Y-107894685D01*
X140723598Y-107893736D01*
X140719586Y-107891582D01*
X140715751Y-107889106D01*
X140712120Y-107886331D01*
X140708720Y-107883279D01*
X140705576Y-107879972D01*
X140702714Y-107876432D01*
X140700161Y-107872682D01*
X140699009Y-107870735D01*
X140697943Y-107868743D01*
X140696968Y-107866710D01*
X140696086Y-107864638D01*
X140695302Y-107862531D01*
X140694617Y-107860390D01*
X140694035Y-107858218D01*
X140693561Y-107856019D01*
X140693561Y-107856020D01*
X140513234Y-106886312D01*
X140512200Y-106881866D01*
X140510776Y-106877398D01*
X140508986Y-106872936D01*
X140506855Y-106868509D01*
X140504408Y-106864148D01*
X140501671Y-106859882D01*
X140498669Y-106855740D01*
X140495427Y-106851752D01*
X140491969Y-106847947D01*
X140488322Y-106844355D01*
X140484510Y-106841005D01*
X140480559Y-106837927D01*
X140476493Y-106835149D01*
X140472338Y-106832702D01*
X140468118Y-106830615D01*
X140463860Y-106828918D01*
X139770395Y-106531676D01*
X139766244Y-106529751D01*
X139761844Y-106528134D01*
X139757234Y-106526821D01*
X139752451Y-106525810D01*
X139747534Y-106525100D01*
X139742520Y-106524687D01*
X139737448Y-106524569D01*
X139732355Y-106524744D01*
X139727280Y-106525209D01*
X139722259Y-106525963D01*
X139717332Y-106527002D01*
X139712536Y-106528324D01*
X139707909Y-106529928D01*
X139703489Y-106531809D01*
X139699314Y-106533967D01*
X139695422Y-106536399D01*
X138871947Y-107101387D01*
X138870059Y-107102606D01*
X138868115Y-107103731D01*
X138866119Y-107104761D01*
X138864076Y-107105698D01*
X138861989Y-107106541D01*
X138859863Y-107107292D01*
X138855512Y-107108514D01*
X138851056Y-107109369D01*
X138846529Y-107109857D01*
X138841966Y-107109982D01*
X138837401Y-107109747D01*
X138832869Y-107109154D01*
X138828404Y-107108205D01*
X138824040Y-107106904D01*
X138819811Y-107105252D01*
X138815752Y-107103253D01*
X138813797Y-107102124D01*
X138811897Y-107100908D01*
X138810057Y-107099608D01*
X138808280Y-107098222D01*
X138806572Y-107096751D01*
X138804936Y-107095195D01*
X138099261Y-106389520D01*
X138097705Y-106387884D01*
X138096232Y-106386176D01*
X138094845Y-106384400D01*
X138093541Y-106382561D01*
X138092324Y-106380663D01*
X138091191Y-106378709D01*
X138090145Y-106376705D01*
X138089185Y-106374654D01*
X138088312Y-106372561D01*
X138087526Y-106370429D01*
X138086217Y-106366070D01*
X138085261Y-106361610D01*
X138084661Y-106357084D01*
X138084421Y-106352525D01*
X138084544Y-106347968D01*
X138085032Y-106343446D01*
X138085414Y-106341210D01*
X138085889Y-106338995D01*
X138086457Y-106336806D01*
X138087118Y-106334647D01*
X138087873Y-106332523D01*
X138088722Y-106330438D01*
X138089665Y-106328395D01*
X138090704Y-106326400D01*
X138091837Y-106324457D01*
X138093067Y-106322570D01*
X138668084Y-105484642D01*
X138670508Y-105480766D01*
X138672666Y-105476597D01*
X138674556Y-105472175D01*
X138676175Y-105467537D01*
X138677521Y-105462724D01*
X138678590Y-105457774D01*
X138679381Y-105452726D01*
X138679890Y-105447619D01*
X138680116Y-105442491D01*
X138680054Y-105437383D01*
X138679703Y-105432333D01*
X138679060Y-105427379D01*
X138678122Y-105422561D01*
X138676887Y-105417919D01*
X138675351Y-105413489D01*
X138673513Y-105409313D01*
X138398333Y-104737083D01*
X138397573Y-104734945D01*
X138396711Y-104732814D01*
X138395751Y-104730692D01*
X138394697Y-104728584D01*
X138392319Y-104724418D01*
X138389607Y-104720341D01*
X138386590Y-104716378D01*
X138383297Y-104712555D01*
X138379756Y-104708897D01*
X138375998Y-104705429D01*
X138372052Y-104702175D01*
X138367945Y-104699162D01*
X138363708Y-104696414D01*
X138359370Y-104693956D01*
X138354960Y-104691814D01*
X138350506Y-104690013D01*
X138346039Y-104688578D01*
X138343809Y-104688005D01*
X138341586Y-104687533D01*
X137338609Y-104500835D01*
X137336405Y-104500371D01*
X137334228Y-104499799D01*
X137332082Y-104499123D01*
X137329970Y-104498346D01*
X137327894Y-104497471D01*
X137325857Y-104496502D01*
X137323861Y-104495442D01*
X137321911Y-104494294D01*
X137320007Y-104493062D01*
X137318154Y-104491749D01*
X137316353Y-104490358D01*
X137314608Y-104488893D01*
X137312921Y-104487357D01*
X137311295Y-104485753D01*
X137309733Y-104484085D01*
X137308237Y-104482356D01*
X137306811Y-104480569D01*
X137305457Y-104478728D01*
X137304178Y-104476835D01*
X137302976Y-104474895D01*
X137301854Y-104472911D01*
X137300816Y-104470885D01*
X137299863Y-104468822D01*
X137298999Y-104466724D01*
X137298227Y-104464595D01*
X137297548Y-104462438D01*
X137296966Y-104460257D01*
X137296484Y-104458055D01*
X137296104Y-104455835D01*
X137295830Y-104453600D01*
X137295663Y-104451355D01*
X137295607Y-104449101D01*
X137295607Y-103451020D01*
X137295663Y-103448772D01*
X137295830Y-103446532D01*
X137296104Y-103444302D01*
X137296484Y-103442086D01*
X137296966Y-103439888D01*
X137297548Y-103437711D01*
X137298227Y-103435557D01*
X137298999Y-103433432D01*
X137299863Y-103431337D01*
X137300816Y-103429276D01*
X137302976Y-103425271D01*
X137305457Y-103421442D01*
X137308237Y-103417817D01*
X137311295Y-103414422D01*
X137314608Y-103411284D01*
X137318154Y-103408430D01*
X137320007Y-103407117D01*
X137321911Y-103405886D01*
X137323861Y-103404739D01*
X137325857Y-103403679D01*
X137327894Y-103402710D01*
X137329970Y-103401835D01*
X137332082Y-103401059D01*
X137334228Y-103400383D01*
X137336405Y-103399811D01*
X137338609Y-103399347D01*
X138341585Y-103212708D01*
X138346038Y-103211664D01*
X138350505Y-103210230D01*
X138354959Y-103208432D01*
X138359369Y-103206293D01*
X138363707Y-103203839D01*
X138367944Y-103201094D01*
X138372050Y-103198085D01*
X138375997Y-103194834D01*
X138379755Y-103191368D01*
X138383295Y-103187711D01*
X138386589Y-103183888D01*
X138389606Y-103179924D01*
X138392318Y-103175845D01*
X138394696Y-103171673D01*
X138396710Y-103167436D01*
X138398332Y-103163157D01*
X138673511Y-102490868D01*
X138675350Y-102486681D01*
X138676886Y-102482243D01*
X138678121Y-102477593D01*
X138679059Y-102472769D01*
X138679702Y-102467811D01*
X138680053Y-102462757D01*
X138680115Y-102457647D01*
X138679890Y-102452519D01*
X138679380Y-102447412D01*
X138678589Y-102442366D01*
X138677520Y-102437420D01*
X138676174Y-102432611D01*
X138674555Y-102427980D01*
X138672665Y-102423565D01*
X138670507Y-102419406D01*
X138668083Y-102415540D01*
X138093066Y-101577672D01*
X138091836Y-101575779D01*
X138090702Y-101573830D01*
X138089664Y-101571829D01*
X138088720Y-101569782D01*
X138087871Y-101567691D01*
X138087116Y-101565562D01*
X138085887Y-101561204D01*
X138085031Y-101556743D01*
X138084542Y-101552213D01*
X138084420Y-101547648D01*
X138084660Y-101543083D01*
X138085260Y-101538551D01*
X138086216Y-101534088D01*
X138087525Y-101529728D01*
X138089184Y-101525504D01*
X138091190Y-101521451D01*
X138092323Y-101519499D01*
X138093541Y-101517604D01*
X138094844Y-101515768D01*
X138096232Y-101513996D01*
X138097704Y-101512293D01*
X138099260Y-101510662D01*
X138804935Y-100804927D01*
X138806571Y-100803376D01*
X138808279Y-100801908D01*
X138810056Y-100800524D01*
X138811896Y-100799224D01*
X138813796Y-100798009D01*
X138815751Y-100796879D01*
X138817757Y-100795835D01*
X138819810Y-100794876D01*
X138821906Y-100794004D01*
X138824039Y-100793218D01*
X138828403Y-100791909D01*
X138832869Y-100790951D01*
X138837401Y-100790350D01*
X138841965Y-100790107D01*
X138846528Y-100790226D01*
X138851055Y-100790710D01*
X138853294Y-100791091D01*
X138855511Y-100791564D01*
X138857702Y-100792130D01*
X138859863Y-100792790D01*
X138861988Y-100793543D01*
X138864075Y-100794391D01*
X138866119Y-100795334D01*
X138868114Y-100796372D01*
X138870058Y-100797505D01*
X138871946Y-100798734D01*
X139695420Y-101363783D01*
X139699313Y-101366192D01*
X139703488Y-101368331D01*
X139707908Y-101370196D01*
X139712536Y-101371786D01*
X139717332Y-101373098D01*
X139722259Y-101374128D01*
X139727279Y-101374876D01*
X139732355Y-101375337D01*
X139737447Y-101375511D01*
X139742520Y-101375393D01*
X139747533Y-101374983D01*
X139752450Y-101374276D01*
X139757233Y-101373272D01*
X139761843Y-101371966D01*
X139766242Y-101370357D01*
X139770394Y-101368442D01*
X140463859Y-101071143D01*
X140465991Y-101070350D01*
X140468117Y-101069456D01*
X140472336Y-101067379D01*
X140476491Y-101064942D01*
X140480557Y-101062174D01*
X140484509Y-101059104D01*
X140488321Y-101055761D01*
X140491968Y-101052174D01*
X140495425Y-101048372D01*
X140498668Y-101044386D01*
X140501670Y-101040243D01*
X140504407Y-101035974D01*
X140506853Y-101031607D01*
X140508984Y-101027171D01*
X140510775Y-101022696D01*
X140512199Y-101018212D01*
X140512766Y-101015975D01*
X140513232Y-101013746D01*
X140693559Y-100044098D01*
X140694034Y-100041888D01*
X140694615Y-100039707D01*
X140695300Y-100037558D01*
X140696085Y-100035442D01*
X140696966Y-100033363D01*
X140697941Y-100031324D01*
X140699007Y-100029327D01*
X140700159Y-100027375D01*
X140701395Y-100025471D01*
X140702711Y-100023617D01*
X140704104Y-100021816D01*
X140705571Y-100020071D01*
X140707109Y-100018385D01*
X140708713Y-100016760D01*
X140710382Y-100015199D01*
X140712111Y-100013704D01*
X140713898Y-100012280D01*
X140715739Y-100010927D01*
X140717631Y-100009649D01*
X140719570Y-100008449D01*
X140721553Y-100007330D01*
X140723578Y-100006293D01*
X140725640Y-100005342D01*
X140727736Y-100004480D01*
X140729864Y-100003709D01*
X140732019Y-100003032D01*
X140734199Y-100002452D01*
X140736400Y-100001971D01*
X140738619Y-100001592D01*
X140740853Y-100001318D01*
X140743098Y-100001152D01*
X140745351Y-100001096D01*
X141743372Y-100001155D01*
G37*
M02*
