G04 #@! TF.GenerationSoftware,KiCad,Pcbnew,9.0.1*
G04 #@! TF.CreationDate,2025-05-07T17:11:04-04:00*
G04 #@! TF.ProjectId,matrix-protoboard_14x20,6d617472-6978-42d7-9072-6f746f626f61,rev?*
G04 #@! TF.SameCoordinates,Original*
G04 #@! TF.FileFunction,Soldermask,Top*
G04 #@! TF.FilePolarity,Negative*
%FSLAX46Y46*%
G04 Gerber Fmt 4.6, Leading zero omitted, Abs format (unit mm)*
G04 Created by KiCad (PCBNEW 9.0.1) date 2025-05-07 17:11:04*
%MOMM*%
%LPD*%
G01*
G04 APERTURE LIST*
G04 APERTURE END LIST*
G36*
X136651479Y-105525919D02*
G01*
X136845488Y-105588957D01*
X137027248Y-105681568D01*
X137192282Y-105801472D01*
X137336528Y-105945718D01*
X137456432Y-106110752D01*
X137549043Y-106292512D01*
X137612081Y-106486521D01*
X137643993Y-106688003D01*
X137643993Y-106891997D01*
X137612081Y-107093479D01*
X137549043Y-107287488D01*
X137456432Y-107469248D01*
X137336528Y-107634282D01*
X137192282Y-107778528D01*
X137027248Y-107898432D01*
X136845488Y-107991043D01*
X136651479Y-108054081D01*
X136449997Y-108085993D01*
X136246003Y-108085993D01*
X136044521Y-108054081D01*
X135850512Y-107991043D01*
X135668752Y-107898432D01*
X135503718Y-107778528D01*
X135359472Y-107634282D01*
X135239568Y-107469248D01*
X135146957Y-107287488D01*
X135083919Y-107093479D01*
X135052007Y-106891997D01*
X135052007Y-106688003D01*
X135083919Y-106486521D01*
X135146957Y-106292512D01*
X135239568Y-106110752D01*
X135359472Y-105945718D01*
X135503718Y-105801472D01*
X135668752Y-105681568D01*
X135850512Y-105588957D01*
X136044521Y-105525919D01*
X136246003Y-105494007D01*
X136449997Y-105494007D01*
X136651479Y-105525919D01*
G37*
G36*
X191451479Y-105525919D02*
G01*
X191645488Y-105588957D01*
X191827248Y-105681568D01*
X191992282Y-105801472D01*
X192136528Y-105945718D01*
X192256432Y-106110752D01*
X192349043Y-106292512D01*
X192412081Y-106486521D01*
X192443993Y-106688003D01*
X192443993Y-106891997D01*
X192412081Y-107093479D01*
X192349043Y-107287488D01*
X192256432Y-107469248D01*
X192136528Y-107634282D01*
X191992282Y-107778528D01*
X191827248Y-107898432D01*
X191645488Y-107991043D01*
X191451479Y-108054081D01*
X191249997Y-108085993D01*
X191046003Y-108085993D01*
X190844521Y-108054081D01*
X190650512Y-107991043D01*
X190468752Y-107898432D01*
X190303718Y-107778528D01*
X190159472Y-107634282D01*
X190039568Y-107469248D01*
X189946957Y-107287488D01*
X189883919Y-107093479D01*
X189852007Y-106891997D01*
X189852007Y-106688003D01*
X189883919Y-106486521D01*
X189946957Y-106292512D01*
X190039568Y-106110752D01*
X190159472Y-105945718D01*
X190303718Y-105801472D01*
X190468752Y-105681568D01*
X190650512Y-105588957D01*
X190844521Y-105525919D01*
X191046003Y-105494007D01*
X191249997Y-105494007D01*
X191451479Y-105525919D01*
G37*
G36*
X186754487Y-71859201D02*
G01*
X186755656Y-71859392D01*
X186755835Y-71859509D01*
X186758455Y-71860107D01*
X186762344Y-71861718D01*
X186828846Y-71906154D01*
X186831520Y-71908828D01*
X187076968Y-72154276D01*
X187113722Y-72169500D01*
X187220735Y-72169500D01*
X187230000Y-72169500D01*
X187308455Y-72185107D01*
X187311932Y-72186547D01*
X187312112Y-72186581D01*
X187326379Y-72192301D01*
X187375603Y-72187169D01*
X187377305Y-72186031D01*
X187379046Y-72184291D01*
X187525743Y-72086271D01*
X187688744Y-72018754D01*
X187861785Y-71984334D01*
X188038215Y-71984334D01*
X188211256Y-72018754D01*
X188374257Y-72086271D01*
X188520954Y-72184291D01*
X188645709Y-72309046D01*
X188743729Y-72455743D01*
X188811246Y-72618744D01*
X188845666Y-72791785D01*
X188845666Y-72968215D01*
X188811246Y-73141256D01*
X188743729Y-73304257D01*
X188645709Y-73450954D01*
X188644418Y-73452244D01*
X188636831Y-73491580D01*
X188641852Y-73515380D01*
X188643282Y-73517656D01*
X188644893Y-73521545D01*
X188654609Y-73570390D01*
X188694995Y-73609853D01*
X188731455Y-73617107D01*
X188735344Y-73618718D01*
X188770413Y-73643602D01*
X188797267Y-73661101D01*
X188799554Y-73664279D01*
X188809749Y-73671514D01*
X188844163Y-73726284D01*
X188844810Y-73727183D01*
X188844851Y-73727379D01*
X188846282Y-73729656D01*
X188847893Y-73733545D01*
X188855100Y-73775957D01*
X188861713Y-73807299D01*
X188861083Y-73811161D01*
X188863178Y-73823489D01*
X188848795Y-73886502D01*
X188848607Y-73887656D01*
X188848491Y-73887833D01*
X188847893Y-73890455D01*
X188846282Y-73894344D01*
X188801846Y-73960846D01*
X188695036Y-74067656D01*
X188649113Y-74113579D01*
X188649113Y-74196421D01*
X188801846Y-74349154D01*
X188846282Y-74415656D01*
X188847893Y-74419545D01*
X188855100Y-74461954D01*
X188861713Y-74493299D01*
X188861083Y-74497161D01*
X188863178Y-74509489D01*
X188848795Y-74572502D01*
X188848607Y-74573656D01*
X188848491Y-74573833D01*
X188847893Y-74576455D01*
X188846282Y-74580344D01*
X188821385Y-74615430D01*
X188803898Y-74642267D01*
X188800721Y-74644552D01*
X188793486Y-74654749D01*
X188738715Y-74689163D01*
X188737817Y-74689810D01*
X188737620Y-74689851D01*
X188735344Y-74691282D01*
X188731455Y-74692893D01*
X188691649Y-74700811D01*
X188652334Y-74741044D01*
X188644893Y-74778455D01*
X188643448Y-74781941D01*
X188643434Y-74782020D01*
X188637707Y-74796229D01*
X188642801Y-74845560D01*
X188643964Y-74847301D01*
X188645709Y-74849046D01*
X188743729Y-74995743D01*
X188811246Y-75158744D01*
X188845666Y-75331785D01*
X188845666Y-75508215D01*
X188811246Y-75681256D01*
X188743729Y-75844257D01*
X188645709Y-75990954D01*
X188644418Y-75992244D01*
X188636831Y-76031580D01*
X188641852Y-76055380D01*
X188643282Y-76057656D01*
X188644893Y-76061545D01*
X188654609Y-76110390D01*
X188694995Y-76149853D01*
X188731455Y-76157107D01*
X188735344Y-76158718D01*
X188770413Y-76183602D01*
X188797267Y-76201101D01*
X188799554Y-76204279D01*
X188809749Y-76211514D01*
X188844163Y-76266284D01*
X188844810Y-76267183D01*
X188844851Y-76267379D01*
X188846282Y-76269656D01*
X188847893Y-76273545D01*
X188855100Y-76315957D01*
X188861713Y-76347299D01*
X188861083Y-76351161D01*
X188863178Y-76363489D01*
X188848795Y-76426502D01*
X188848607Y-76427656D01*
X188848491Y-76427833D01*
X188847893Y-76430455D01*
X188846282Y-76434344D01*
X188801846Y-76500846D01*
X188695036Y-76607656D01*
X188649113Y-76653579D01*
X188649113Y-76736421D01*
X188801846Y-76889154D01*
X188846282Y-76955656D01*
X188847893Y-76959545D01*
X188855100Y-77001954D01*
X188861713Y-77033299D01*
X188861083Y-77037161D01*
X188863178Y-77049489D01*
X188848795Y-77112502D01*
X188848607Y-77113656D01*
X188848491Y-77113833D01*
X188847893Y-77116455D01*
X188846282Y-77120344D01*
X188821385Y-77155430D01*
X188803898Y-77182267D01*
X188800721Y-77184552D01*
X188793486Y-77194749D01*
X188738715Y-77229163D01*
X188737817Y-77229810D01*
X188737620Y-77229851D01*
X188735344Y-77231282D01*
X188731455Y-77232893D01*
X188691649Y-77240811D01*
X188652334Y-77281044D01*
X188644893Y-77318455D01*
X188643448Y-77321941D01*
X188643434Y-77322020D01*
X188637707Y-77336229D01*
X188642801Y-77385560D01*
X188643964Y-77387301D01*
X188645709Y-77389046D01*
X188743729Y-77535743D01*
X188811246Y-77698744D01*
X188845666Y-77871785D01*
X188845666Y-78048215D01*
X188811246Y-78221256D01*
X188743729Y-78384257D01*
X188645709Y-78530954D01*
X188644418Y-78532244D01*
X188636831Y-78571580D01*
X188641852Y-78595380D01*
X188643282Y-78597656D01*
X188644893Y-78601545D01*
X188654609Y-78650390D01*
X188694995Y-78689853D01*
X188731455Y-78697107D01*
X188735344Y-78698718D01*
X188770413Y-78723602D01*
X188797267Y-78741101D01*
X188799554Y-78744279D01*
X188809749Y-78751514D01*
X188844163Y-78806284D01*
X188844810Y-78807183D01*
X188844851Y-78807379D01*
X188846282Y-78809656D01*
X188847893Y-78813545D01*
X188855100Y-78855957D01*
X188861713Y-78887299D01*
X188861083Y-78891161D01*
X188863178Y-78903489D01*
X188848795Y-78966502D01*
X188848607Y-78967656D01*
X188848491Y-78967833D01*
X188847893Y-78970455D01*
X188846282Y-78974344D01*
X188801846Y-79040846D01*
X188695036Y-79147656D01*
X188649113Y-79193579D01*
X188649113Y-79276421D01*
X188801846Y-79429154D01*
X188846282Y-79495656D01*
X188847893Y-79499545D01*
X188855100Y-79541954D01*
X188861713Y-79573299D01*
X188861083Y-79577161D01*
X188863178Y-79589489D01*
X188848795Y-79652502D01*
X188848607Y-79653656D01*
X188848491Y-79653833D01*
X188847893Y-79656455D01*
X188846282Y-79660344D01*
X188821385Y-79695430D01*
X188803898Y-79722267D01*
X188800721Y-79724552D01*
X188793486Y-79734749D01*
X188738715Y-79769163D01*
X188737817Y-79769810D01*
X188737620Y-79769851D01*
X188735344Y-79771282D01*
X188731455Y-79772893D01*
X188691649Y-79780811D01*
X188652334Y-79821044D01*
X188644893Y-79858455D01*
X188643448Y-79861941D01*
X188643434Y-79862020D01*
X188637707Y-79876229D01*
X188642801Y-79925560D01*
X188643964Y-79927301D01*
X188645709Y-79929046D01*
X188743729Y-80075743D01*
X188811246Y-80238744D01*
X188845666Y-80411785D01*
X188845666Y-80588215D01*
X188811246Y-80761256D01*
X188743729Y-80924257D01*
X188645709Y-81070954D01*
X188644418Y-81072244D01*
X188636831Y-81111580D01*
X188641852Y-81135380D01*
X188643282Y-81137656D01*
X188644893Y-81141545D01*
X188654609Y-81190390D01*
X188694995Y-81229853D01*
X188731455Y-81237107D01*
X188735344Y-81238718D01*
X188770413Y-81263602D01*
X188797267Y-81281101D01*
X188799554Y-81284279D01*
X188809749Y-81291514D01*
X188844163Y-81346284D01*
X188844810Y-81347183D01*
X188844851Y-81347379D01*
X188846282Y-81349656D01*
X188847893Y-81353545D01*
X188855100Y-81395957D01*
X188861713Y-81427299D01*
X188861083Y-81431161D01*
X188863178Y-81443489D01*
X188848795Y-81506502D01*
X188848607Y-81507656D01*
X188848491Y-81507833D01*
X188847893Y-81510455D01*
X188846282Y-81514344D01*
X188801846Y-81580846D01*
X188695036Y-81687656D01*
X188649113Y-81733579D01*
X188649113Y-81816421D01*
X188801846Y-81969154D01*
X188846282Y-82035656D01*
X188847893Y-82039545D01*
X188855100Y-82081954D01*
X188861713Y-82113299D01*
X188861083Y-82117161D01*
X188863178Y-82129489D01*
X188848795Y-82192502D01*
X188848607Y-82193656D01*
X188848491Y-82193833D01*
X188847893Y-82196455D01*
X188846282Y-82200344D01*
X188821385Y-82235430D01*
X188803898Y-82262267D01*
X188800721Y-82264552D01*
X188793486Y-82274749D01*
X188738715Y-82309163D01*
X188737817Y-82309810D01*
X188737620Y-82309851D01*
X188735344Y-82311282D01*
X188731455Y-82312893D01*
X188691649Y-82320811D01*
X188652334Y-82361044D01*
X188644893Y-82398455D01*
X188643448Y-82401941D01*
X188643434Y-82402020D01*
X188637707Y-82416229D01*
X188642801Y-82465560D01*
X188643964Y-82467301D01*
X188645709Y-82469046D01*
X188743729Y-82615743D01*
X188811246Y-82778744D01*
X188845666Y-82951785D01*
X188845666Y-83128215D01*
X188811246Y-83301256D01*
X188743729Y-83464257D01*
X188645709Y-83610954D01*
X188644418Y-83612244D01*
X188636831Y-83651580D01*
X188641852Y-83675380D01*
X188643282Y-83677656D01*
X188644893Y-83681545D01*
X188654609Y-83730390D01*
X188694995Y-83769853D01*
X188731455Y-83777107D01*
X188735344Y-83778718D01*
X188770413Y-83803602D01*
X188797267Y-83821101D01*
X188799554Y-83824279D01*
X188809749Y-83831514D01*
X188844163Y-83886284D01*
X188844810Y-83887183D01*
X188844851Y-83887379D01*
X188846282Y-83889656D01*
X188847893Y-83893545D01*
X188855100Y-83935957D01*
X188861713Y-83967299D01*
X188861083Y-83971161D01*
X188863178Y-83983489D01*
X188848795Y-84046502D01*
X188848607Y-84047656D01*
X188848491Y-84047833D01*
X188847893Y-84050455D01*
X188846282Y-84054344D01*
X188801846Y-84120846D01*
X188695036Y-84227656D01*
X188649113Y-84273579D01*
X188649113Y-84356421D01*
X188801846Y-84509154D01*
X188846282Y-84575656D01*
X188847893Y-84579545D01*
X188855100Y-84621954D01*
X188861713Y-84653299D01*
X188861083Y-84657161D01*
X188863178Y-84669489D01*
X188848795Y-84732502D01*
X188848607Y-84733656D01*
X188848491Y-84733833D01*
X188847893Y-84736455D01*
X188846282Y-84740344D01*
X188821385Y-84775430D01*
X188803898Y-84802267D01*
X188800721Y-84804552D01*
X188793486Y-84814749D01*
X188738715Y-84849163D01*
X188737817Y-84849810D01*
X188737620Y-84849851D01*
X188735344Y-84851282D01*
X188731455Y-84852893D01*
X188691649Y-84860811D01*
X188652334Y-84901044D01*
X188644893Y-84938455D01*
X188643448Y-84941941D01*
X188643434Y-84942020D01*
X188637707Y-84956229D01*
X188642801Y-85005560D01*
X188643964Y-85007301D01*
X188645709Y-85009046D01*
X188743729Y-85155743D01*
X188811246Y-85318744D01*
X188845666Y-85491785D01*
X188845666Y-85668215D01*
X188811246Y-85841256D01*
X188743729Y-86004257D01*
X188645709Y-86150954D01*
X188644418Y-86152244D01*
X188636831Y-86191580D01*
X188641852Y-86215380D01*
X188643282Y-86217656D01*
X188644893Y-86221545D01*
X188654609Y-86270390D01*
X188694995Y-86309853D01*
X188731455Y-86317107D01*
X188735344Y-86318718D01*
X188770413Y-86343602D01*
X188797267Y-86361101D01*
X188799554Y-86364279D01*
X188809749Y-86371514D01*
X188844163Y-86426284D01*
X188844810Y-86427183D01*
X188844851Y-86427379D01*
X188846282Y-86429656D01*
X188847893Y-86433545D01*
X188855100Y-86475957D01*
X188861713Y-86507299D01*
X188861083Y-86511161D01*
X188863178Y-86523489D01*
X188848795Y-86586502D01*
X188848607Y-86587656D01*
X188848491Y-86587833D01*
X188847893Y-86590455D01*
X188846282Y-86594344D01*
X188801846Y-86660846D01*
X188695036Y-86767656D01*
X188649113Y-86813579D01*
X188649113Y-86896421D01*
X188801846Y-87049154D01*
X188846282Y-87115656D01*
X188847893Y-87119545D01*
X188855100Y-87161954D01*
X188861713Y-87193299D01*
X188861083Y-87197161D01*
X188863178Y-87209489D01*
X188848795Y-87272502D01*
X188848607Y-87273656D01*
X188848491Y-87273833D01*
X188847893Y-87276455D01*
X188846282Y-87280344D01*
X188821385Y-87315430D01*
X188803898Y-87342267D01*
X188800721Y-87344552D01*
X188793486Y-87354749D01*
X188738715Y-87389163D01*
X188737817Y-87389810D01*
X188737620Y-87389851D01*
X188735344Y-87391282D01*
X188731455Y-87392893D01*
X188691649Y-87400811D01*
X188652334Y-87441044D01*
X188644893Y-87478455D01*
X188643448Y-87481941D01*
X188643434Y-87482020D01*
X188637707Y-87496229D01*
X188642801Y-87545560D01*
X188643964Y-87547301D01*
X188645709Y-87549046D01*
X188743729Y-87695743D01*
X188811246Y-87858744D01*
X188845666Y-88031785D01*
X188845666Y-88208215D01*
X188811246Y-88381256D01*
X188743729Y-88544257D01*
X188645709Y-88690954D01*
X188644418Y-88692244D01*
X188636831Y-88731580D01*
X188641852Y-88755380D01*
X188643282Y-88757656D01*
X188644893Y-88761545D01*
X188654609Y-88810390D01*
X188694995Y-88849853D01*
X188731455Y-88857107D01*
X188735344Y-88858718D01*
X188770413Y-88883602D01*
X188797267Y-88901101D01*
X188799554Y-88904279D01*
X188809749Y-88911514D01*
X188844163Y-88966284D01*
X188844810Y-88967183D01*
X188844851Y-88967379D01*
X188846282Y-88969656D01*
X188847893Y-88973545D01*
X188855100Y-89015957D01*
X188861713Y-89047299D01*
X188861083Y-89051161D01*
X188863178Y-89063489D01*
X188848795Y-89126502D01*
X188848607Y-89127656D01*
X188848491Y-89127833D01*
X188847893Y-89130455D01*
X188846282Y-89134344D01*
X188801846Y-89200846D01*
X188695036Y-89307656D01*
X188649113Y-89353579D01*
X188649113Y-89436421D01*
X188801846Y-89589154D01*
X188846282Y-89655656D01*
X188847893Y-89659545D01*
X188855100Y-89701954D01*
X188861713Y-89733299D01*
X188861083Y-89737161D01*
X188863178Y-89749489D01*
X188848795Y-89812502D01*
X188848607Y-89813656D01*
X188848491Y-89813833D01*
X188847893Y-89816455D01*
X188846282Y-89820344D01*
X188821385Y-89855430D01*
X188803898Y-89882267D01*
X188800721Y-89884552D01*
X188793486Y-89894749D01*
X188738715Y-89929163D01*
X188737817Y-89929810D01*
X188737620Y-89929851D01*
X188735344Y-89931282D01*
X188731455Y-89932893D01*
X188691649Y-89940811D01*
X188652334Y-89981044D01*
X188644893Y-90018455D01*
X188643448Y-90021941D01*
X188643434Y-90022020D01*
X188637707Y-90036229D01*
X188642801Y-90085560D01*
X188643964Y-90087301D01*
X188645709Y-90089046D01*
X188743729Y-90235743D01*
X188811246Y-90398744D01*
X188845666Y-90571785D01*
X188845666Y-90748215D01*
X188811246Y-90921256D01*
X188743729Y-91084257D01*
X188645709Y-91230954D01*
X188644418Y-91232244D01*
X188636831Y-91271580D01*
X188641852Y-91295380D01*
X188643282Y-91297656D01*
X188644893Y-91301545D01*
X188654609Y-91350390D01*
X188694995Y-91389853D01*
X188731455Y-91397107D01*
X188735344Y-91398718D01*
X188770413Y-91423602D01*
X188797267Y-91441101D01*
X188799554Y-91444279D01*
X188809749Y-91451514D01*
X188844163Y-91506284D01*
X188844810Y-91507183D01*
X188844851Y-91507379D01*
X188846282Y-91509656D01*
X188847893Y-91513545D01*
X188855100Y-91555957D01*
X188861713Y-91587299D01*
X188861083Y-91591161D01*
X188863178Y-91603489D01*
X188848795Y-91666502D01*
X188848607Y-91667656D01*
X188848491Y-91667833D01*
X188847893Y-91670455D01*
X188846282Y-91674344D01*
X188801846Y-91740846D01*
X188695036Y-91847656D01*
X188649113Y-91893579D01*
X188649113Y-91976421D01*
X188801846Y-92129154D01*
X188846282Y-92195656D01*
X188847893Y-92199545D01*
X188855100Y-92241954D01*
X188861713Y-92273299D01*
X188861083Y-92277161D01*
X188863178Y-92289489D01*
X188848795Y-92352502D01*
X188848607Y-92353656D01*
X188848491Y-92353833D01*
X188847893Y-92356455D01*
X188846282Y-92360344D01*
X188821385Y-92395430D01*
X188803898Y-92422267D01*
X188800721Y-92424552D01*
X188793486Y-92434749D01*
X188738715Y-92469163D01*
X188737817Y-92469810D01*
X188737620Y-92469851D01*
X188735344Y-92471282D01*
X188731455Y-92472893D01*
X188691649Y-92480811D01*
X188652334Y-92521044D01*
X188644893Y-92558455D01*
X188643448Y-92561941D01*
X188643434Y-92562020D01*
X188637707Y-92576229D01*
X188642801Y-92625560D01*
X188643964Y-92627301D01*
X188645709Y-92629046D01*
X188743729Y-92775743D01*
X188811246Y-92938744D01*
X188845666Y-93111785D01*
X188845666Y-93288215D01*
X188811246Y-93461256D01*
X188743729Y-93624257D01*
X188645709Y-93770954D01*
X188644418Y-93772244D01*
X188636831Y-93811580D01*
X188641852Y-93835380D01*
X188643282Y-93837656D01*
X188644893Y-93841545D01*
X188654609Y-93890390D01*
X188694995Y-93929853D01*
X188731455Y-93937107D01*
X188735344Y-93938718D01*
X188770413Y-93963602D01*
X188797267Y-93981101D01*
X188799554Y-93984279D01*
X188809749Y-93991514D01*
X188844163Y-94046284D01*
X188844810Y-94047183D01*
X188844851Y-94047379D01*
X188846282Y-94049656D01*
X188847893Y-94053545D01*
X188855100Y-94095957D01*
X188861713Y-94127299D01*
X188861083Y-94131161D01*
X188863178Y-94143489D01*
X188848795Y-94206502D01*
X188848607Y-94207656D01*
X188848491Y-94207833D01*
X188847893Y-94210455D01*
X188846282Y-94214344D01*
X188801846Y-94280846D01*
X188695036Y-94387656D01*
X188649113Y-94433579D01*
X188649113Y-94516421D01*
X188801846Y-94669154D01*
X188846282Y-94735656D01*
X188847893Y-94739545D01*
X188855100Y-94781954D01*
X188861713Y-94813299D01*
X188861083Y-94817161D01*
X188863178Y-94829489D01*
X188848795Y-94892502D01*
X188848607Y-94893656D01*
X188848491Y-94893833D01*
X188847893Y-94896455D01*
X188846282Y-94900344D01*
X188821385Y-94935430D01*
X188803898Y-94962267D01*
X188800721Y-94964552D01*
X188793486Y-94974749D01*
X188738715Y-95009163D01*
X188737817Y-95009810D01*
X188737620Y-95009851D01*
X188735344Y-95011282D01*
X188731455Y-95012893D01*
X188691649Y-95020811D01*
X188652334Y-95061044D01*
X188644893Y-95098455D01*
X188643448Y-95101941D01*
X188643434Y-95102020D01*
X188637707Y-95116229D01*
X188642801Y-95165560D01*
X188643964Y-95167301D01*
X188645709Y-95169046D01*
X188743729Y-95315743D01*
X188811246Y-95478744D01*
X188845666Y-95651785D01*
X188845666Y-95828215D01*
X188811246Y-96001256D01*
X188743729Y-96164257D01*
X188645709Y-96310954D01*
X188644418Y-96312244D01*
X188636831Y-96351580D01*
X188641852Y-96375380D01*
X188643282Y-96377656D01*
X188644893Y-96381545D01*
X188654609Y-96430390D01*
X188694995Y-96469853D01*
X188731455Y-96477107D01*
X188735344Y-96478718D01*
X188770413Y-96503602D01*
X188797267Y-96521101D01*
X188799554Y-96524279D01*
X188809749Y-96531514D01*
X188844163Y-96586284D01*
X188844810Y-96587183D01*
X188844851Y-96587379D01*
X188846282Y-96589656D01*
X188847893Y-96593545D01*
X188855100Y-96635957D01*
X188861713Y-96667299D01*
X188861083Y-96671161D01*
X188863178Y-96683489D01*
X188848795Y-96746502D01*
X188848607Y-96747656D01*
X188848491Y-96747833D01*
X188847893Y-96750455D01*
X188846282Y-96754344D01*
X188801846Y-96820846D01*
X188695036Y-96927656D01*
X188649113Y-96973579D01*
X188649113Y-97056421D01*
X188801846Y-97209154D01*
X188846282Y-97275656D01*
X188847893Y-97279545D01*
X188855100Y-97321954D01*
X188861713Y-97353299D01*
X188861083Y-97357161D01*
X188863178Y-97369489D01*
X188848795Y-97432502D01*
X188848607Y-97433656D01*
X188848491Y-97433833D01*
X188847893Y-97436455D01*
X188846282Y-97440344D01*
X188821385Y-97475430D01*
X188803898Y-97502267D01*
X188800721Y-97504552D01*
X188793486Y-97514749D01*
X188738715Y-97549163D01*
X188737817Y-97549810D01*
X188737620Y-97549851D01*
X188735344Y-97551282D01*
X188731455Y-97552893D01*
X188691649Y-97560811D01*
X188652334Y-97601044D01*
X188644893Y-97638455D01*
X188643448Y-97641941D01*
X188643434Y-97642020D01*
X188637707Y-97656229D01*
X188642801Y-97705560D01*
X188643964Y-97707301D01*
X188645709Y-97709046D01*
X188743729Y-97855743D01*
X188811246Y-98018744D01*
X188845666Y-98191785D01*
X188845666Y-98368215D01*
X188811246Y-98541256D01*
X188743729Y-98704257D01*
X188645709Y-98850954D01*
X188644418Y-98852244D01*
X188636831Y-98891580D01*
X188641852Y-98915380D01*
X188643282Y-98917656D01*
X188644893Y-98921545D01*
X188654609Y-98970390D01*
X188694995Y-99009853D01*
X188731455Y-99017107D01*
X188735344Y-99018718D01*
X188770413Y-99043602D01*
X188797267Y-99061101D01*
X188799554Y-99064279D01*
X188809749Y-99071514D01*
X188844163Y-99126284D01*
X188844810Y-99127183D01*
X188844851Y-99127379D01*
X188846282Y-99129656D01*
X188847893Y-99133545D01*
X188855100Y-99175957D01*
X188861713Y-99207299D01*
X188861083Y-99211161D01*
X188863178Y-99223489D01*
X188848795Y-99286502D01*
X188848607Y-99287656D01*
X188848491Y-99287833D01*
X188847893Y-99290455D01*
X188846282Y-99294344D01*
X188801846Y-99360846D01*
X188695036Y-99467656D01*
X188649113Y-99513579D01*
X188649113Y-99596421D01*
X188801846Y-99749154D01*
X188846282Y-99815656D01*
X188847893Y-99819545D01*
X188855100Y-99861954D01*
X188861713Y-99893299D01*
X188861083Y-99897161D01*
X188863178Y-99909489D01*
X188848795Y-99972502D01*
X188848607Y-99973656D01*
X188848491Y-99973833D01*
X188847893Y-99976455D01*
X188846282Y-99980344D01*
X188821385Y-100015430D01*
X188803898Y-100042267D01*
X188800721Y-100044552D01*
X188793486Y-100054749D01*
X188738715Y-100089163D01*
X188737817Y-100089810D01*
X188737620Y-100089851D01*
X188735344Y-100091282D01*
X188731455Y-100092893D01*
X188691649Y-100100811D01*
X188652334Y-100141044D01*
X188644893Y-100178455D01*
X188643448Y-100181941D01*
X188643434Y-100182020D01*
X188637707Y-100196229D01*
X188642801Y-100245560D01*
X188643964Y-100247301D01*
X188645709Y-100249046D01*
X188743729Y-100395743D01*
X188811246Y-100558744D01*
X188845666Y-100731785D01*
X188845666Y-100908215D01*
X188811246Y-101081256D01*
X188743729Y-101244257D01*
X188645709Y-101390954D01*
X188644418Y-101392244D01*
X188636831Y-101431580D01*
X188641852Y-101455380D01*
X188643282Y-101457656D01*
X188644893Y-101461545D01*
X188654609Y-101510390D01*
X188694995Y-101549853D01*
X188731455Y-101557107D01*
X188735344Y-101558718D01*
X188770413Y-101583602D01*
X188797267Y-101601101D01*
X188799554Y-101604279D01*
X188809749Y-101611514D01*
X188844163Y-101666284D01*
X188844810Y-101667183D01*
X188844851Y-101667379D01*
X188846282Y-101669656D01*
X188847893Y-101673545D01*
X188855100Y-101715957D01*
X188861713Y-101747299D01*
X188861083Y-101751161D01*
X188863178Y-101763489D01*
X188848795Y-101826502D01*
X188848607Y-101827656D01*
X188848491Y-101827833D01*
X188847893Y-101830455D01*
X188846282Y-101834344D01*
X188801846Y-101900846D01*
X188695036Y-102007656D01*
X188649113Y-102053579D01*
X188649113Y-102136421D01*
X188801846Y-102289154D01*
X188846282Y-102355656D01*
X188847893Y-102359545D01*
X188855100Y-102401954D01*
X188861713Y-102433299D01*
X188861083Y-102437161D01*
X188863178Y-102449489D01*
X188848795Y-102512502D01*
X188848607Y-102513656D01*
X188848491Y-102513833D01*
X188847893Y-102516455D01*
X188846282Y-102520344D01*
X188821385Y-102555430D01*
X188803898Y-102582267D01*
X188800721Y-102584552D01*
X188793486Y-102594749D01*
X188738715Y-102629163D01*
X188737817Y-102629810D01*
X188737620Y-102629851D01*
X188735344Y-102631282D01*
X188731455Y-102632893D01*
X188691649Y-102640811D01*
X188652334Y-102681044D01*
X188644893Y-102718455D01*
X188643448Y-102721941D01*
X188643434Y-102722020D01*
X188637707Y-102736229D01*
X188642801Y-102785560D01*
X188643964Y-102787301D01*
X188645709Y-102789046D01*
X188743729Y-102935743D01*
X188811246Y-103098744D01*
X188845666Y-103271785D01*
X188845666Y-103448215D01*
X188811246Y-103621256D01*
X188743729Y-103784257D01*
X188645709Y-103930954D01*
X188644418Y-103932244D01*
X188636831Y-103971580D01*
X188641852Y-103995380D01*
X188643282Y-103997656D01*
X188644893Y-104001545D01*
X188654609Y-104050390D01*
X188694995Y-104089853D01*
X188731455Y-104097107D01*
X188735344Y-104098718D01*
X188770413Y-104123602D01*
X188797267Y-104141101D01*
X188799554Y-104144279D01*
X188809749Y-104151514D01*
X188844163Y-104206284D01*
X188844810Y-104207183D01*
X188844851Y-104207379D01*
X188846282Y-104209656D01*
X188847893Y-104213545D01*
X188855100Y-104255957D01*
X188861713Y-104287299D01*
X188861083Y-104291161D01*
X188863178Y-104303489D01*
X188848795Y-104366502D01*
X188848607Y-104367656D01*
X188848491Y-104367833D01*
X188847893Y-104370455D01*
X188846282Y-104374344D01*
X188801846Y-104440846D01*
X188695036Y-104547656D01*
X188649113Y-104593579D01*
X188649113Y-104676421D01*
X188801846Y-104829154D01*
X188846282Y-104895656D01*
X188847893Y-104899545D01*
X188855100Y-104941954D01*
X188861713Y-104973299D01*
X188861083Y-104977161D01*
X188863178Y-104989489D01*
X188848795Y-105052502D01*
X188848607Y-105053656D01*
X188848491Y-105053833D01*
X188847893Y-105056455D01*
X188846282Y-105060344D01*
X188821385Y-105095430D01*
X188803898Y-105122267D01*
X188800721Y-105124552D01*
X188793486Y-105134749D01*
X188738715Y-105169163D01*
X188737817Y-105169810D01*
X188737620Y-105169851D01*
X188735344Y-105171282D01*
X188731455Y-105172893D01*
X188691649Y-105180811D01*
X188652334Y-105221044D01*
X188644893Y-105258455D01*
X188643448Y-105261941D01*
X188643434Y-105262020D01*
X188637707Y-105276229D01*
X188642801Y-105325560D01*
X188643964Y-105327301D01*
X188645709Y-105329046D01*
X188743729Y-105475743D01*
X188811246Y-105638744D01*
X188845666Y-105811785D01*
X188845666Y-105988215D01*
X188811246Y-106161256D01*
X188743729Y-106324257D01*
X188645709Y-106470954D01*
X188520954Y-106595709D01*
X188374257Y-106693729D01*
X188211256Y-106761246D01*
X188038215Y-106795666D01*
X187861785Y-106795666D01*
X187688744Y-106761246D01*
X187525743Y-106693729D01*
X187379046Y-106595709D01*
X187377756Y-106594419D01*
X187338419Y-106586831D01*
X187314619Y-106591851D01*
X187312344Y-106593282D01*
X187308455Y-106594893D01*
X187259606Y-106604610D01*
X187220145Y-106644995D01*
X187212893Y-106681455D01*
X187211282Y-106685344D01*
X187186386Y-106720428D01*
X187168898Y-106747267D01*
X187165721Y-106749552D01*
X187158486Y-106759749D01*
X187103707Y-106794168D01*
X187102816Y-106794810D01*
X187102621Y-106794851D01*
X187100344Y-106796282D01*
X187096455Y-106797893D01*
X187054036Y-106805101D01*
X187022700Y-106811713D01*
X187018838Y-106811083D01*
X187006511Y-106813178D01*
X186943499Y-106798795D01*
X186942343Y-106798607D01*
X186942165Y-106798491D01*
X186939545Y-106797893D01*
X186935656Y-106796282D01*
X186869154Y-106751846D01*
X186716421Y-106599113D01*
X186633579Y-106599113D01*
X186480846Y-106751846D01*
X186414344Y-106796282D01*
X186410455Y-106797893D01*
X186368040Y-106805100D01*
X186336700Y-106811713D01*
X186332838Y-106811083D01*
X186320511Y-106813178D01*
X186257499Y-106798795D01*
X186256343Y-106798607D01*
X186256165Y-106798491D01*
X186253545Y-106797893D01*
X186249656Y-106796282D01*
X186214580Y-106771393D01*
X186187732Y-106753898D01*
X186185445Y-106750719D01*
X186175251Y-106743486D01*
X186140845Y-106688729D01*
X186140188Y-106687816D01*
X186140145Y-106687616D01*
X186138718Y-106685344D01*
X186137107Y-106681455D01*
X186129188Y-106641649D01*
X186088954Y-106602334D01*
X186051545Y-106594893D01*
X186048065Y-106593451D01*
X186047944Y-106593429D01*
X186033709Y-106587703D01*
X185984421Y-106592813D01*
X185982700Y-106593962D01*
X185980954Y-106595709D01*
X185834257Y-106693729D01*
X185671256Y-106761246D01*
X185498215Y-106795666D01*
X185321785Y-106795666D01*
X185148744Y-106761246D01*
X184985743Y-106693729D01*
X184839046Y-106595709D01*
X184837756Y-106594419D01*
X184798419Y-106586831D01*
X184774619Y-106591851D01*
X184772344Y-106593282D01*
X184768455Y-106594893D01*
X184719606Y-106604610D01*
X184680145Y-106644995D01*
X184672893Y-106681455D01*
X184671282Y-106685344D01*
X184646386Y-106720428D01*
X184628898Y-106747267D01*
X184625721Y-106749552D01*
X184618486Y-106759749D01*
X184563707Y-106794168D01*
X184562816Y-106794810D01*
X184562621Y-106794851D01*
X184560344Y-106796282D01*
X184556455Y-106797893D01*
X184514036Y-106805101D01*
X184482700Y-106811713D01*
X184478838Y-106811083D01*
X184466511Y-106813178D01*
X184403499Y-106798795D01*
X184402343Y-106798607D01*
X184402165Y-106798491D01*
X184399545Y-106797893D01*
X184395656Y-106796282D01*
X184329154Y-106751846D01*
X184176421Y-106599113D01*
X184093579Y-106599113D01*
X183940846Y-106751846D01*
X183874344Y-106796282D01*
X183870455Y-106797893D01*
X183828040Y-106805100D01*
X183796700Y-106811713D01*
X183792838Y-106811083D01*
X183780511Y-106813178D01*
X183717499Y-106798795D01*
X183716343Y-106798607D01*
X183716165Y-106798491D01*
X183713545Y-106797893D01*
X183709656Y-106796282D01*
X183674580Y-106771393D01*
X183647732Y-106753898D01*
X183645445Y-106750719D01*
X183635251Y-106743486D01*
X183600845Y-106688729D01*
X183600188Y-106687816D01*
X183600145Y-106687616D01*
X183598718Y-106685344D01*
X183597107Y-106681455D01*
X183589188Y-106641649D01*
X183548954Y-106602334D01*
X183511545Y-106594893D01*
X183508065Y-106593451D01*
X183507944Y-106593429D01*
X183493709Y-106587703D01*
X183444421Y-106592813D01*
X183442700Y-106593962D01*
X183440954Y-106595709D01*
X183294257Y-106693729D01*
X183131256Y-106761246D01*
X182958215Y-106795666D01*
X182781785Y-106795666D01*
X182608744Y-106761246D01*
X182445743Y-106693729D01*
X182299046Y-106595709D01*
X182297756Y-106594419D01*
X182258419Y-106586831D01*
X182234619Y-106591851D01*
X182232344Y-106593282D01*
X182228455Y-106594893D01*
X182179606Y-106604610D01*
X182140145Y-106644995D01*
X182132893Y-106681455D01*
X182131282Y-106685344D01*
X182106386Y-106720428D01*
X182088898Y-106747267D01*
X182085721Y-106749552D01*
X182078486Y-106759749D01*
X182023707Y-106794168D01*
X182022816Y-106794810D01*
X182022621Y-106794851D01*
X182020344Y-106796282D01*
X182016455Y-106797893D01*
X181974036Y-106805101D01*
X181942700Y-106811713D01*
X181938838Y-106811083D01*
X181926511Y-106813178D01*
X181863499Y-106798795D01*
X181862343Y-106798607D01*
X181862165Y-106798491D01*
X181859545Y-106797893D01*
X181855656Y-106796282D01*
X181789154Y-106751846D01*
X181636421Y-106599113D01*
X181553579Y-106599113D01*
X181400846Y-106751846D01*
X181334344Y-106796282D01*
X181330455Y-106797893D01*
X181288040Y-106805100D01*
X181256700Y-106811713D01*
X181252838Y-106811083D01*
X181240511Y-106813178D01*
X181177499Y-106798795D01*
X181176343Y-106798607D01*
X181176165Y-106798491D01*
X181173545Y-106797893D01*
X181169656Y-106796282D01*
X181134580Y-106771393D01*
X181107732Y-106753898D01*
X181105445Y-106750719D01*
X181095251Y-106743486D01*
X181060845Y-106688729D01*
X181060188Y-106687816D01*
X181060145Y-106687616D01*
X181058718Y-106685344D01*
X181057107Y-106681455D01*
X181049188Y-106641649D01*
X181008954Y-106602334D01*
X180971545Y-106594893D01*
X180968065Y-106593451D01*
X180967944Y-106593429D01*
X180953709Y-106587703D01*
X180904421Y-106592813D01*
X180902700Y-106593962D01*
X180900954Y-106595709D01*
X180754257Y-106693729D01*
X180591256Y-106761246D01*
X180418215Y-106795666D01*
X180241785Y-106795666D01*
X180068744Y-106761246D01*
X179905743Y-106693729D01*
X179759046Y-106595709D01*
X179757756Y-106594419D01*
X179718419Y-106586831D01*
X179694619Y-106591851D01*
X179692344Y-106593282D01*
X179688455Y-106594893D01*
X179639606Y-106604610D01*
X179600145Y-106644995D01*
X179592893Y-106681455D01*
X179591282Y-106685344D01*
X179566386Y-106720428D01*
X179548898Y-106747267D01*
X179545721Y-106749552D01*
X179538486Y-106759749D01*
X179483707Y-106794168D01*
X179482816Y-106794810D01*
X179482621Y-106794851D01*
X179480344Y-106796282D01*
X179476455Y-106797893D01*
X179434036Y-106805101D01*
X179402700Y-106811713D01*
X179398838Y-106811083D01*
X179386511Y-106813178D01*
X179323499Y-106798795D01*
X179322343Y-106798607D01*
X179322165Y-106798491D01*
X179319545Y-106797893D01*
X179315656Y-106796282D01*
X179249154Y-106751846D01*
X179096421Y-106599113D01*
X179013579Y-106599113D01*
X178860846Y-106751846D01*
X178794344Y-106796282D01*
X178790455Y-106797893D01*
X178748040Y-106805100D01*
X178716700Y-106811713D01*
X178712838Y-106811083D01*
X178700511Y-106813178D01*
X178637499Y-106798795D01*
X178636343Y-106798607D01*
X178636165Y-106798491D01*
X178633545Y-106797893D01*
X178629656Y-106796282D01*
X178594580Y-106771393D01*
X178567732Y-106753898D01*
X178565445Y-106750719D01*
X178555251Y-106743486D01*
X178520845Y-106688729D01*
X178520188Y-106687816D01*
X178520145Y-106687616D01*
X178518718Y-106685344D01*
X178517107Y-106681455D01*
X178509188Y-106641649D01*
X178468954Y-106602334D01*
X178431545Y-106594893D01*
X178428065Y-106593451D01*
X178427944Y-106593429D01*
X178413709Y-106587703D01*
X178364421Y-106592813D01*
X178362700Y-106593962D01*
X178360954Y-106595709D01*
X178214257Y-106693729D01*
X178051256Y-106761246D01*
X177878215Y-106795666D01*
X177701785Y-106795666D01*
X177528744Y-106761246D01*
X177365743Y-106693729D01*
X177219046Y-106595709D01*
X177217756Y-106594419D01*
X177178419Y-106586831D01*
X177154619Y-106591851D01*
X177152344Y-106593282D01*
X177148455Y-106594893D01*
X177099606Y-106604610D01*
X177060145Y-106644995D01*
X177052893Y-106681455D01*
X177051282Y-106685344D01*
X177026386Y-106720428D01*
X177008898Y-106747267D01*
X177005721Y-106749552D01*
X176998486Y-106759749D01*
X176943707Y-106794168D01*
X176942816Y-106794810D01*
X176942621Y-106794851D01*
X176940344Y-106796282D01*
X176936455Y-106797893D01*
X176894036Y-106805101D01*
X176862700Y-106811713D01*
X176858838Y-106811083D01*
X176846511Y-106813178D01*
X176783499Y-106798795D01*
X176782343Y-106798607D01*
X176782165Y-106798491D01*
X176779545Y-106797893D01*
X176775656Y-106796282D01*
X176709154Y-106751846D01*
X176556421Y-106599113D01*
X176473579Y-106599113D01*
X176320846Y-106751846D01*
X176254344Y-106796282D01*
X176250455Y-106797893D01*
X176208040Y-106805100D01*
X176176700Y-106811713D01*
X176172838Y-106811083D01*
X176160511Y-106813178D01*
X176097499Y-106798795D01*
X176096343Y-106798607D01*
X176096165Y-106798491D01*
X176093545Y-106797893D01*
X176089656Y-106796282D01*
X176054580Y-106771393D01*
X176027732Y-106753898D01*
X176025445Y-106750719D01*
X176015251Y-106743486D01*
X175980845Y-106688729D01*
X175980188Y-106687816D01*
X175980145Y-106687616D01*
X175978718Y-106685344D01*
X175977107Y-106681455D01*
X175969188Y-106641649D01*
X175928954Y-106602334D01*
X175891545Y-106594893D01*
X175888065Y-106593451D01*
X175887944Y-106593429D01*
X175873709Y-106587703D01*
X175824421Y-106592813D01*
X175822700Y-106593962D01*
X175820954Y-106595709D01*
X175674257Y-106693729D01*
X175511256Y-106761246D01*
X175338215Y-106795666D01*
X175161785Y-106795666D01*
X174988744Y-106761246D01*
X174825743Y-106693729D01*
X174679046Y-106595709D01*
X174677756Y-106594419D01*
X174638419Y-106586831D01*
X174614619Y-106591851D01*
X174612344Y-106593282D01*
X174608455Y-106594893D01*
X174559606Y-106604610D01*
X174520145Y-106644995D01*
X174512893Y-106681455D01*
X174511282Y-106685344D01*
X174486386Y-106720428D01*
X174468898Y-106747267D01*
X174465721Y-106749552D01*
X174458486Y-106759749D01*
X174403707Y-106794168D01*
X174402816Y-106794810D01*
X174402621Y-106794851D01*
X174400344Y-106796282D01*
X174396455Y-106797893D01*
X174354036Y-106805101D01*
X174322700Y-106811713D01*
X174318838Y-106811083D01*
X174306511Y-106813178D01*
X174243499Y-106798795D01*
X174242343Y-106798607D01*
X174242165Y-106798491D01*
X174239545Y-106797893D01*
X174235656Y-106796282D01*
X174169154Y-106751846D01*
X174016421Y-106599113D01*
X173933579Y-106599113D01*
X173780846Y-106751846D01*
X173714344Y-106796282D01*
X173710455Y-106797893D01*
X173668040Y-106805100D01*
X173636700Y-106811713D01*
X173632838Y-106811083D01*
X173620511Y-106813178D01*
X173557499Y-106798795D01*
X173556343Y-106798607D01*
X173556165Y-106798491D01*
X173553545Y-106797893D01*
X173549656Y-106796282D01*
X173514580Y-106771393D01*
X173487732Y-106753898D01*
X173485445Y-106750719D01*
X173475251Y-106743486D01*
X173440845Y-106688729D01*
X173440188Y-106687816D01*
X173440145Y-106687616D01*
X173438718Y-106685344D01*
X173437107Y-106681455D01*
X173429188Y-106641649D01*
X173388954Y-106602334D01*
X173351545Y-106594893D01*
X173348065Y-106593451D01*
X173347944Y-106593429D01*
X173333709Y-106587703D01*
X173284421Y-106592813D01*
X173282700Y-106593962D01*
X173280954Y-106595709D01*
X173134257Y-106693729D01*
X172971256Y-106761246D01*
X172798215Y-106795666D01*
X172621785Y-106795666D01*
X172448744Y-106761246D01*
X172285743Y-106693729D01*
X172139046Y-106595709D01*
X172137756Y-106594419D01*
X172098419Y-106586831D01*
X172074619Y-106591851D01*
X172072344Y-106593282D01*
X172068455Y-106594893D01*
X172019606Y-106604610D01*
X171980145Y-106644995D01*
X171972893Y-106681455D01*
X171971282Y-106685344D01*
X171946386Y-106720428D01*
X171928898Y-106747267D01*
X171925721Y-106749552D01*
X171918486Y-106759749D01*
X171863707Y-106794168D01*
X171862816Y-106794810D01*
X171862621Y-106794851D01*
X171860344Y-106796282D01*
X171856455Y-106797893D01*
X171814036Y-106805101D01*
X171782700Y-106811713D01*
X171778838Y-106811083D01*
X171766511Y-106813178D01*
X171703499Y-106798795D01*
X171702343Y-106798607D01*
X171702165Y-106798491D01*
X171699545Y-106797893D01*
X171695656Y-106796282D01*
X171629154Y-106751846D01*
X171476421Y-106599113D01*
X171393579Y-106599113D01*
X171240846Y-106751846D01*
X171174344Y-106796282D01*
X171170455Y-106797893D01*
X171128040Y-106805100D01*
X171096700Y-106811713D01*
X171092838Y-106811083D01*
X171080511Y-106813178D01*
X171017499Y-106798795D01*
X171016343Y-106798607D01*
X171016165Y-106798491D01*
X171013545Y-106797893D01*
X171009656Y-106796282D01*
X170974580Y-106771393D01*
X170947732Y-106753898D01*
X170945445Y-106750719D01*
X170935251Y-106743486D01*
X170900845Y-106688729D01*
X170900188Y-106687816D01*
X170900145Y-106687616D01*
X170898718Y-106685344D01*
X170897107Y-106681455D01*
X170889188Y-106641649D01*
X170848954Y-106602334D01*
X170811545Y-106594893D01*
X170808065Y-106593451D01*
X170807944Y-106593429D01*
X170793709Y-106587703D01*
X170744421Y-106592813D01*
X170742700Y-106593962D01*
X170740954Y-106595709D01*
X170594257Y-106693729D01*
X170431256Y-106761246D01*
X170258215Y-106795666D01*
X170081785Y-106795666D01*
X169908744Y-106761246D01*
X169745743Y-106693729D01*
X169599046Y-106595709D01*
X169597756Y-106594419D01*
X169558419Y-106586831D01*
X169534619Y-106591851D01*
X169532344Y-106593282D01*
X169528455Y-106594893D01*
X169479606Y-106604610D01*
X169440145Y-106644995D01*
X169432893Y-106681455D01*
X169431282Y-106685344D01*
X169406386Y-106720428D01*
X169388898Y-106747267D01*
X169385721Y-106749552D01*
X169378486Y-106759749D01*
X169323707Y-106794168D01*
X169322816Y-106794810D01*
X169322621Y-106794851D01*
X169320344Y-106796282D01*
X169316455Y-106797893D01*
X169274036Y-106805101D01*
X169242700Y-106811713D01*
X169238838Y-106811083D01*
X169226511Y-106813178D01*
X169163499Y-106798795D01*
X169162343Y-106798607D01*
X169162165Y-106798491D01*
X169159545Y-106797893D01*
X169155656Y-106796282D01*
X169089154Y-106751846D01*
X168936421Y-106599113D01*
X168853579Y-106599113D01*
X168700846Y-106751846D01*
X168634344Y-106796282D01*
X168630455Y-106797893D01*
X168588040Y-106805100D01*
X168556700Y-106811713D01*
X168552838Y-106811083D01*
X168540511Y-106813178D01*
X168477499Y-106798795D01*
X168476343Y-106798607D01*
X168476165Y-106798491D01*
X168473545Y-106797893D01*
X168469656Y-106796282D01*
X168434580Y-106771393D01*
X168407732Y-106753898D01*
X168405445Y-106750719D01*
X168395251Y-106743486D01*
X168360845Y-106688729D01*
X168360188Y-106687816D01*
X168360145Y-106687616D01*
X168358718Y-106685344D01*
X168357107Y-106681455D01*
X168349188Y-106641649D01*
X168308954Y-106602334D01*
X168271545Y-106594893D01*
X168268065Y-106593451D01*
X168267944Y-106593429D01*
X168253709Y-106587703D01*
X168204421Y-106592813D01*
X168202700Y-106593962D01*
X168200954Y-106595709D01*
X168054257Y-106693729D01*
X167891256Y-106761246D01*
X167718215Y-106795666D01*
X167541785Y-106795666D01*
X167368744Y-106761246D01*
X167205743Y-106693729D01*
X167059046Y-106595709D01*
X167057756Y-106594419D01*
X167018419Y-106586831D01*
X166994619Y-106591851D01*
X166992344Y-106593282D01*
X166988455Y-106594893D01*
X166939606Y-106604610D01*
X166900145Y-106644995D01*
X166892893Y-106681455D01*
X166891282Y-106685344D01*
X166866386Y-106720428D01*
X166848898Y-106747267D01*
X166845721Y-106749552D01*
X166838486Y-106759749D01*
X166783707Y-106794168D01*
X166782816Y-106794810D01*
X166782621Y-106794851D01*
X166780344Y-106796282D01*
X166776455Y-106797893D01*
X166734036Y-106805101D01*
X166702700Y-106811713D01*
X166698838Y-106811083D01*
X166686511Y-106813178D01*
X166623499Y-106798795D01*
X166622343Y-106798607D01*
X166622165Y-106798491D01*
X166619545Y-106797893D01*
X166615656Y-106796282D01*
X166549154Y-106751846D01*
X166396421Y-106599113D01*
X166313579Y-106599113D01*
X166160846Y-106751846D01*
X166094344Y-106796282D01*
X166090455Y-106797893D01*
X166048040Y-106805100D01*
X166016700Y-106811713D01*
X166012838Y-106811083D01*
X166000511Y-106813178D01*
X165937499Y-106798795D01*
X165936343Y-106798607D01*
X165936165Y-106798491D01*
X165933545Y-106797893D01*
X165929656Y-106796282D01*
X165894580Y-106771393D01*
X165867732Y-106753898D01*
X165865445Y-106750719D01*
X165855251Y-106743486D01*
X165820845Y-106688729D01*
X165820188Y-106687816D01*
X165820145Y-106687616D01*
X165818718Y-106685344D01*
X165817107Y-106681455D01*
X165809188Y-106641649D01*
X165768954Y-106602334D01*
X165731545Y-106594893D01*
X165728065Y-106593451D01*
X165727944Y-106593429D01*
X165713709Y-106587703D01*
X165664421Y-106592813D01*
X165662700Y-106593962D01*
X165660954Y-106595709D01*
X165514257Y-106693729D01*
X165351256Y-106761246D01*
X165178215Y-106795666D01*
X165001785Y-106795666D01*
X164828744Y-106761246D01*
X164665743Y-106693729D01*
X164519046Y-106595709D01*
X164517756Y-106594419D01*
X164478419Y-106586831D01*
X164454619Y-106591851D01*
X164452344Y-106593282D01*
X164448455Y-106594893D01*
X164399606Y-106604610D01*
X164360145Y-106644995D01*
X164352893Y-106681455D01*
X164351282Y-106685344D01*
X164326386Y-106720428D01*
X164308898Y-106747267D01*
X164305721Y-106749552D01*
X164298486Y-106759749D01*
X164243707Y-106794168D01*
X164242816Y-106794810D01*
X164242621Y-106794851D01*
X164240344Y-106796282D01*
X164236455Y-106797893D01*
X164194036Y-106805101D01*
X164162700Y-106811713D01*
X164158838Y-106811083D01*
X164146511Y-106813178D01*
X164083499Y-106798795D01*
X164082343Y-106798607D01*
X164082165Y-106798491D01*
X164079545Y-106797893D01*
X164075656Y-106796282D01*
X164009154Y-106751846D01*
X163856421Y-106599113D01*
X163773579Y-106599113D01*
X163620846Y-106751846D01*
X163554344Y-106796282D01*
X163550455Y-106797893D01*
X163508040Y-106805100D01*
X163476700Y-106811713D01*
X163472838Y-106811083D01*
X163460511Y-106813178D01*
X163397499Y-106798795D01*
X163396343Y-106798607D01*
X163396165Y-106798491D01*
X163393545Y-106797893D01*
X163389656Y-106796282D01*
X163354580Y-106771393D01*
X163327732Y-106753898D01*
X163325445Y-106750719D01*
X163315251Y-106743486D01*
X163280845Y-106688729D01*
X163280188Y-106687816D01*
X163280145Y-106687616D01*
X163278718Y-106685344D01*
X163277107Y-106681455D01*
X163269188Y-106641649D01*
X163228954Y-106602334D01*
X163191545Y-106594893D01*
X163188065Y-106593451D01*
X163187944Y-106593429D01*
X163173709Y-106587703D01*
X163124421Y-106592813D01*
X163122700Y-106593962D01*
X163120954Y-106595709D01*
X162974257Y-106693729D01*
X162811256Y-106761246D01*
X162638215Y-106795666D01*
X162461785Y-106795666D01*
X162288744Y-106761246D01*
X162125743Y-106693729D01*
X161979046Y-106595709D01*
X161977756Y-106594419D01*
X161938419Y-106586831D01*
X161914619Y-106591851D01*
X161912344Y-106593282D01*
X161908455Y-106594893D01*
X161859606Y-106604610D01*
X161820145Y-106644995D01*
X161812893Y-106681455D01*
X161811282Y-106685344D01*
X161786386Y-106720428D01*
X161768898Y-106747267D01*
X161765721Y-106749552D01*
X161758486Y-106759749D01*
X161703707Y-106794168D01*
X161702816Y-106794810D01*
X161702621Y-106794851D01*
X161700344Y-106796282D01*
X161696455Y-106797893D01*
X161654036Y-106805101D01*
X161622700Y-106811713D01*
X161618838Y-106811083D01*
X161606511Y-106813178D01*
X161543499Y-106798795D01*
X161542343Y-106798607D01*
X161542165Y-106798491D01*
X161539545Y-106797893D01*
X161535656Y-106796282D01*
X161469154Y-106751846D01*
X161316421Y-106599113D01*
X161233579Y-106599113D01*
X161080846Y-106751846D01*
X161014344Y-106796282D01*
X161010455Y-106797893D01*
X160968040Y-106805100D01*
X160936700Y-106811713D01*
X160932838Y-106811083D01*
X160920511Y-106813178D01*
X160857499Y-106798795D01*
X160856343Y-106798607D01*
X160856165Y-106798491D01*
X160853545Y-106797893D01*
X160849656Y-106796282D01*
X160814580Y-106771393D01*
X160787732Y-106753898D01*
X160785445Y-106750719D01*
X160775251Y-106743486D01*
X160740845Y-106688729D01*
X160740188Y-106687816D01*
X160740145Y-106687616D01*
X160738718Y-106685344D01*
X160737107Y-106681455D01*
X160729188Y-106641649D01*
X160688954Y-106602334D01*
X160651545Y-106594893D01*
X160648065Y-106593451D01*
X160647944Y-106593429D01*
X160633709Y-106587703D01*
X160584421Y-106592813D01*
X160582700Y-106593962D01*
X160580954Y-106595709D01*
X160434257Y-106693729D01*
X160271256Y-106761246D01*
X160098215Y-106795666D01*
X159921785Y-106795666D01*
X159748744Y-106761246D01*
X159585743Y-106693729D01*
X159439046Y-106595709D01*
X159437756Y-106594419D01*
X159398419Y-106586831D01*
X159374619Y-106591851D01*
X159372344Y-106593282D01*
X159368455Y-106594893D01*
X159319606Y-106604610D01*
X159280145Y-106644995D01*
X159272893Y-106681455D01*
X159271282Y-106685344D01*
X159246386Y-106720428D01*
X159228898Y-106747267D01*
X159225721Y-106749552D01*
X159218486Y-106759749D01*
X159163707Y-106794168D01*
X159162816Y-106794810D01*
X159162621Y-106794851D01*
X159160344Y-106796282D01*
X159156455Y-106797893D01*
X159114036Y-106805101D01*
X159082700Y-106811713D01*
X159078838Y-106811083D01*
X159066511Y-106813178D01*
X159003499Y-106798795D01*
X159002343Y-106798607D01*
X159002165Y-106798491D01*
X158999545Y-106797893D01*
X158995656Y-106796282D01*
X158929154Y-106751846D01*
X158776421Y-106599113D01*
X158693579Y-106599113D01*
X158540846Y-106751846D01*
X158474344Y-106796282D01*
X158470455Y-106797893D01*
X158428040Y-106805100D01*
X158396700Y-106811713D01*
X158392838Y-106811083D01*
X158380511Y-106813178D01*
X158317499Y-106798795D01*
X158316343Y-106798607D01*
X158316165Y-106798491D01*
X158313545Y-106797893D01*
X158309656Y-106796282D01*
X158274580Y-106771393D01*
X158247732Y-106753898D01*
X158245445Y-106750719D01*
X158235251Y-106743486D01*
X158200845Y-106688729D01*
X158200188Y-106687816D01*
X158200145Y-106687616D01*
X158198718Y-106685344D01*
X158197107Y-106681455D01*
X158189188Y-106641649D01*
X158148954Y-106602334D01*
X158111545Y-106594893D01*
X158108065Y-106593451D01*
X158107944Y-106593429D01*
X158093709Y-106587703D01*
X158044421Y-106592813D01*
X158042700Y-106593962D01*
X158040954Y-106595709D01*
X157894257Y-106693729D01*
X157731256Y-106761246D01*
X157558215Y-106795666D01*
X157381785Y-106795666D01*
X157208744Y-106761246D01*
X157045743Y-106693729D01*
X156899046Y-106595709D01*
X156897756Y-106594419D01*
X156858419Y-106586831D01*
X156834619Y-106591851D01*
X156832344Y-106593282D01*
X156828455Y-106594893D01*
X156779606Y-106604610D01*
X156740145Y-106644995D01*
X156732893Y-106681455D01*
X156731282Y-106685344D01*
X156706386Y-106720428D01*
X156688898Y-106747267D01*
X156685721Y-106749552D01*
X156678486Y-106759749D01*
X156623707Y-106794168D01*
X156622816Y-106794810D01*
X156622621Y-106794851D01*
X156620344Y-106796282D01*
X156616455Y-106797893D01*
X156574036Y-106805101D01*
X156542700Y-106811713D01*
X156538838Y-106811083D01*
X156526511Y-106813178D01*
X156463499Y-106798795D01*
X156462343Y-106798607D01*
X156462165Y-106798491D01*
X156459545Y-106797893D01*
X156455656Y-106796282D01*
X156389154Y-106751846D01*
X156236421Y-106599113D01*
X156153579Y-106599113D01*
X156000846Y-106751846D01*
X155934344Y-106796282D01*
X155930455Y-106797893D01*
X155888040Y-106805100D01*
X155856700Y-106811713D01*
X155852838Y-106811083D01*
X155840511Y-106813178D01*
X155777499Y-106798795D01*
X155776343Y-106798607D01*
X155776165Y-106798491D01*
X155773545Y-106797893D01*
X155769656Y-106796282D01*
X155734580Y-106771393D01*
X155707732Y-106753898D01*
X155705445Y-106750719D01*
X155695251Y-106743486D01*
X155660845Y-106688729D01*
X155660188Y-106687816D01*
X155660145Y-106687616D01*
X155658718Y-106685344D01*
X155657107Y-106681455D01*
X155649188Y-106641649D01*
X155608954Y-106602334D01*
X155571545Y-106594893D01*
X155568065Y-106593451D01*
X155567944Y-106593429D01*
X155553709Y-106587703D01*
X155504421Y-106592813D01*
X155502700Y-106593962D01*
X155500954Y-106595709D01*
X155354257Y-106693729D01*
X155191256Y-106761246D01*
X155018215Y-106795666D01*
X154841785Y-106795666D01*
X154668744Y-106761246D01*
X154505743Y-106693729D01*
X154359046Y-106595709D01*
X154357756Y-106594419D01*
X154318419Y-106586831D01*
X154294619Y-106591851D01*
X154292344Y-106593282D01*
X154288455Y-106594893D01*
X154239606Y-106604610D01*
X154200145Y-106644995D01*
X154192893Y-106681455D01*
X154191282Y-106685344D01*
X154166386Y-106720428D01*
X154148898Y-106747267D01*
X154145721Y-106749552D01*
X154138486Y-106759749D01*
X154083707Y-106794168D01*
X154082816Y-106794810D01*
X154082621Y-106794851D01*
X154080344Y-106796282D01*
X154076455Y-106797893D01*
X154034036Y-106805101D01*
X154002700Y-106811713D01*
X153998838Y-106811083D01*
X153986511Y-106813178D01*
X153923499Y-106798795D01*
X153922343Y-106798607D01*
X153922165Y-106798491D01*
X153919545Y-106797893D01*
X153915656Y-106796282D01*
X153849154Y-106751846D01*
X153696421Y-106599113D01*
X153613579Y-106599113D01*
X153460846Y-106751846D01*
X153394344Y-106796282D01*
X153390455Y-106797893D01*
X153348040Y-106805100D01*
X153316700Y-106811713D01*
X153312838Y-106811083D01*
X153300511Y-106813178D01*
X153237499Y-106798795D01*
X153236343Y-106798607D01*
X153236165Y-106798491D01*
X153233545Y-106797893D01*
X153229656Y-106796282D01*
X153194580Y-106771393D01*
X153167732Y-106753898D01*
X153165445Y-106750719D01*
X153155251Y-106743486D01*
X153120845Y-106688729D01*
X153120188Y-106687816D01*
X153120145Y-106687616D01*
X153118718Y-106685344D01*
X153117107Y-106681455D01*
X153109188Y-106641649D01*
X153068954Y-106602334D01*
X153031545Y-106594893D01*
X153028065Y-106593451D01*
X153027944Y-106593429D01*
X153013709Y-106587703D01*
X152964421Y-106592813D01*
X152962700Y-106593962D01*
X152960954Y-106595709D01*
X152814257Y-106693729D01*
X152651256Y-106761246D01*
X152478215Y-106795666D01*
X152301785Y-106795666D01*
X152128744Y-106761246D01*
X151965743Y-106693729D01*
X151819046Y-106595709D01*
X151817756Y-106594419D01*
X151778419Y-106586831D01*
X151754619Y-106591851D01*
X151752344Y-106593282D01*
X151748455Y-106594893D01*
X151699606Y-106604610D01*
X151660145Y-106644995D01*
X151652893Y-106681455D01*
X151651282Y-106685344D01*
X151626386Y-106720428D01*
X151608898Y-106747267D01*
X151605721Y-106749552D01*
X151598486Y-106759749D01*
X151543707Y-106794168D01*
X151542816Y-106794810D01*
X151542621Y-106794851D01*
X151540344Y-106796282D01*
X151536455Y-106797893D01*
X151494036Y-106805101D01*
X151462700Y-106811713D01*
X151458838Y-106811083D01*
X151446511Y-106813178D01*
X151383499Y-106798795D01*
X151382343Y-106798607D01*
X151382165Y-106798491D01*
X151379545Y-106797893D01*
X151375656Y-106796282D01*
X151309154Y-106751846D01*
X151156421Y-106599113D01*
X151073579Y-106599113D01*
X150920846Y-106751846D01*
X150854344Y-106796282D01*
X150850455Y-106797893D01*
X150808040Y-106805100D01*
X150776700Y-106811713D01*
X150772838Y-106811083D01*
X150760511Y-106813178D01*
X150697499Y-106798795D01*
X150696343Y-106798607D01*
X150696165Y-106798491D01*
X150693545Y-106797893D01*
X150689656Y-106796282D01*
X150654580Y-106771393D01*
X150627732Y-106753898D01*
X150625445Y-106750719D01*
X150615251Y-106743486D01*
X150580845Y-106688729D01*
X150580188Y-106687816D01*
X150580145Y-106687616D01*
X150578718Y-106685344D01*
X150577107Y-106681455D01*
X150569188Y-106641649D01*
X150528954Y-106602334D01*
X150491545Y-106594893D01*
X150488065Y-106593451D01*
X150487944Y-106593429D01*
X150473709Y-106587703D01*
X150424421Y-106592813D01*
X150422700Y-106593962D01*
X150420954Y-106595709D01*
X150274257Y-106693729D01*
X150111256Y-106761246D01*
X149938215Y-106795666D01*
X149761785Y-106795666D01*
X149588744Y-106761246D01*
X149425743Y-106693729D01*
X149279046Y-106595709D01*
X149277756Y-106594419D01*
X149238419Y-106586831D01*
X149214619Y-106591851D01*
X149212344Y-106593282D01*
X149208455Y-106594893D01*
X149159606Y-106604610D01*
X149120145Y-106644995D01*
X149112893Y-106681455D01*
X149111282Y-106685344D01*
X149086386Y-106720428D01*
X149068898Y-106747267D01*
X149065721Y-106749552D01*
X149058486Y-106759749D01*
X149003707Y-106794168D01*
X149002816Y-106794810D01*
X149002621Y-106794851D01*
X149000344Y-106796282D01*
X148996455Y-106797893D01*
X148954036Y-106805101D01*
X148922700Y-106811713D01*
X148918838Y-106811083D01*
X148906511Y-106813178D01*
X148843499Y-106798795D01*
X148842343Y-106798607D01*
X148842165Y-106798491D01*
X148839545Y-106797893D01*
X148835656Y-106796282D01*
X148769154Y-106751846D01*
X148616421Y-106599113D01*
X148533579Y-106599113D01*
X148380846Y-106751846D01*
X148314344Y-106796282D01*
X148310455Y-106797893D01*
X148268040Y-106805100D01*
X148236700Y-106811713D01*
X148232838Y-106811083D01*
X148220511Y-106813178D01*
X148157499Y-106798795D01*
X148156343Y-106798607D01*
X148156165Y-106798491D01*
X148153545Y-106797893D01*
X148149656Y-106796282D01*
X148114580Y-106771393D01*
X148087732Y-106753898D01*
X148085445Y-106750719D01*
X148075251Y-106743486D01*
X148040845Y-106688729D01*
X148040188Y-106687816D01*
X148040145Y-106687616D01*
X148038718Y-106685344D01*
X148037107Y-106681455D01*
X148029188Y-106641649D01*
X147988954Y-106602334D01*
X147951545Y-106594893D01*
X147948065Y-106593451D01*
X147947944Y-106593429D01*
X147933709Y-106587703D01*
X147884421Y-106592813D01*
X147882700Y-106593962D01*
X147880954Y-106595709D01*
X147734257Y-106693729D01*
X147571256Y-106761246D01*
X147398215Y-106795666D01*
X147221785Y-106795666D01*
X147048744Y-106761246D01*
X146885743Y-106693729D01*
X146739046Y-106595709D01*
X146737756Y-106594419D01*
X146698419Y-106586831D01*
X146674619Y-106591851D01*
X146672344Y-106593282D01*
X146668455Y-106594893D01*
X146619606Y-106604610D01*
X146580145Y-106644995D01*
X146572893Y-106681455D01*
X146571282Y-106685344D01*
X146546386Y-106720428D01*
X146528898Y-106747267D01*
X146525721Y-106749552D01*
X146518486Y-106759749D01*
X146463707Y-106794168D01*
X146462816Y-106794810D01*
X146462621Y-106794851D01*
X146460344Y-106796282D01*
X146456455Y-106797893D01*
X146414036Y-106805101D01*
X146382700Y-106811713D01*
X146378838Y-106811083D01*
X146366511Y-106813178D01*
X146303499Y-106798795D01*
X146302343Y-106798607D01*
X146302165Y-106798491D01*
X146299545Y-106797893D01*
X146295656Y-106796282D01*
X146229154Y-106751846D01*
X146076421Y-106599113D01*
X145993579Y-106599113D01*
X145840846Y-106751846D01*
X145774344Y-106796282D01*
X145770455Y-106797893D01*
X145728040Y-106805100D01*
X145696700Y-106811713D01*
X145692838Y-106811083D01*
X145680511Y-106813178D01*
X145617499Y-106798795D01*
X145616343Y-106798607D01*
X145616165Y-106798491D01*
X145613545Y-106797893D01*
X145609656Y-106796282D01*
X145574580Y-106771393D01*
X145547732Y-106753898D01*
X145545445Y-106750719D01*
X145535251Y-106743486D01*
X145500845Y-106688729D01*
X145500188Y-106687816D01*
X145500145Y-106687616D01*
X145498718Y-106685344D01*
X145497107Y-106681455D01*
X145489188Y-106641649D01*
X145448954Y-106602334D01*
X145411545Y-106594893D01*
X145408065Y-106593451D01*
X145407944Y-106593429D01*
X145393709Y-106587703D01*
X145344421Y-106592813D01*
X145342700Y-106593962D01*
X145340954Y-106595709D01*
X145194257Y-106693729D01*
X145031256Y-106761246D01*
X144858215Y-106795666D01*
X144681785Y-106795666D01*
X144508744Y-106761246D01*
X144345743Y-106693729D01*
X144199046Y-106595709D01*
X144197756Y-106594419D01*
X144158419Y-106586831D01*
X144134619Y-106591851D01*
X144132344Y-106593282D01*
X144128455Y-106594893D01*
X144079606Y-106604610D01*
X144040145Y-106644995D01*
X144032893Y-106681455D01*
X144031282Y-106685344D01*
X144006386Y-106720428D01*
X143988898Y-106747267D01*
X143985721Y-106749552D01*
X143978486Y-106759749D01*
X143923707Y-106794168D01*
X143922816Y-106794810D01*
X143922621Y-106794851D01*
X143920344Y-106796282D01*
X143916455Y-106797893D01*
X143874036Y-106805101D01*
X143842700Y-106811713D01*
X143838838Y-106811083D01*
X143826511Y-106813178D01*
X143763499Y-106798795D01*
X143762343Y-106798607D01*
X143762165Y-106798491D01*
X143759545Y-106797893D01*
X143755656Y-106796282D01*
X143689154Y-106751846D01*
X143536421Y-106599113D01*
X143453579Y-106599113D01*
X143300846Y-106751846D01*
X143234344Y-106796282D01*
X143230455Y-106797893D01*
X143188040Y-106805100D01*
X143156700Y-106811713D01*
X143152838Y-106811083D01*
X143140511Y-106813178D01*
X143077499Y-106798795D01*
X143076343Y-106798607D01*
X143076165Y-106798491D01*
X143073545Y-106797893D01*
X143069656Y-106796282D01*
X143034580Y-106771393D01*
X143007732Y-106753898D01*
X143005445Y-106750719D01*
X142995251Y-106743486D01*
X142960845Y-106688729D01*
X142960188Y-106687816D01*
X142960145Y-106687616D01*
X142958718Y-106685344D01*
X142957107Y-106681455D01*
X142949188Y-106641649D01*
X142908954Y-106602334D01*
X142871545Y-106594893D01*
X142868065Y-106593451D01*
X142867944Y-106593429D01*
X142853709Y-106587703D01*
X142804421Y-106592813D01*
X142802700Y-106593962D01*
X142800954Y-106595709D01*
X142654257Y-106693729D01*
X142491256Y-106761246D01*
X142318215Y-106795666D01*
X142141785Y-106795666D01*
X141968744Y-106761246D01*
X141805743Y-106693729D01*
X141659046Y-106595709D01*
X141657756Y-106594419D01*
X141618419Y-106586831D01*
X141594619Y-106591851D01*
X141592344Y-106593282D01*
X141588455Y-106594893D01*
X141539606Y-106604610D01*
X141500145Y-106644995D01*
X141492893Y-106681455D01*
X141491282Y-106685344D01*
X141466386Y-106720428D01*
X141448898Y-106747267D01*
X141445721Y-106749552D01*
X141438486Y-106759749D01*
X141383707Y-106794168D01*
X141382816Y-106794810D01*
X141382621Y-106794851D01*
X141380344Y-106796282D01*
X141376455Y-106797893D01*
X141334036Y-106805101D01*
X141302700Y-106811713D01*
X141298838Y-106811083D01*
X141286511Y-106813178D01*
X141223499Y-106798795D01*
X141222343Y-106798607D01*
X141222165Y-106798491D01*
X141219545Y-106797893D01*
X141215656Y-106796282D01*
X141149154Y-106751846D01*
X140996421Y-106599113D01*
X140913579Y-106599113D01*
X140760846Y-106751846D01*
X140694344Y-106796282D01*
X140690455Y-106797893D01*
X140648040Y-106805100D01*
X140616700Y-106811713D01*
X140612838Y-106811083D01*
X140600511Y-106813178D01*
X140537499Y-106798795D01*
X140536343Y-106798607D01*
X140536165Y-106798491D01*
X140533545Y-106797893D01*
X140529656Y-106796282D01*
X140494580Y-106771393D01*
X140467732Y-106753898D01*
X140465445Y-106750719D01*
X140455251Y-106743486D01*
X140420845Y-106688729D01*
X140420188Y-106687816D01*
X140420145Y-106687616D01*
X140418718Y-106685344D01*
X140417107Y-106681455D01*
X140409188Y-106641649D01*
X140368954Y-106602334D01*
X140331545Y-106594893D01*
X140328065Y-106593451D01*
X140327944Y-106593429D01*
X140313709Y-106587703D01*
X140264421Y-106592813D01*
X140262700Y-106593962D01*
X140260954Y-106595709D01*
X140114257Y-106693729D01*
X139951256Y-106761246D01*
X139778215Y-106795666D01*
X139601785Y-106795666D01*
X139428744Y-106761246D01*
X139265743Y-106693729D01*
X139119046Y-106595709D01*
X138994291Y-106470954D01*
X138896271Y-106324257D01*
X138828754Y-106161256D01*
X138794334Y-105988215D01*
X138794334Y-105811785D01*
X138828754Y-105638744D01*
X138896271Y-105475743D01*
X138994291Y-105329046D01*
X138995579Y-105327757D01*
X139003168Y-105288420D01*
X138998146Y-105264617D01*
X138996718Y-105262344D01*
X138995107Y-105258455D01*
X138979500Y-105180000D01*
X138979500Y-105063722D01*
X138964276Y-105026968D01*
X138722706Y-104785398D01*
X138716154Y-104778846D01*
X138671718Y-104712344D01*
X138670107Y-104708455D01*
X138662903Y-104666064D01*
X138656286Y-104634700D01*
X138656916Y-104630835D01*
X138654822Y-104618511D01*
X138669200Y-104555514D01*
X138669392Y-104554343D01*
X138669509Y-104554162D01*
X138670107Y-104551545D01*
X138671718Y-104547656D01*
X138716154Y-104481154D01*
X138718826Y-104478481D01*
X138718828Y-104478479D01*
X138964276Y-104233032D01*
X138979500Y-104196278D01*
X138979500Y-104089264D01*
X138979500Y-104080000D01*
X138995107Y-104001545D01*
X138996546Y-103998070D01*
X138996588Y-103997847D01*
X139002304Y-103983559D01*
X138997158Y-103934379D01*
X138996034Y-103932697D01*
X138994291Y-103930954D01*
X138896271Y-103784257D01*
X138828754Y-103621256D01*
X138794334Y-103448215D01*
X138794334Y-103271785D01*
X138828754Y-103098744D01*
X138896271Y-102935743D01*
X138994291Y-102789046D01*
X138995579Y-102787757D01*
X139003168Y-102748420D01*
X138998146Y-102724617D01*
X138996718Y-102722344D01*
X138995107Y-102718455D01*
X138979500Y-102640000D01*
X138979500Y-102523722D01*
X138964276Y-102486968D01*
X138722706Y-102245398D01*
X138716154Y-102238846D01*
X138671718Y-102172344D01*
X138670107Y-102168455D01*
X138662903Y-102126064D01*
X138656286Y-102094700D01*
X138656916Y-102090835D01*
X138654822Y-102078511D01*
X138669200Y-102015514D01*
X138669392Y-102014343D01*
X138669509Y-102014162D01*
X138670107Y-102011545D01*
X138671718Y-102007656D01*
X138716154Y-101941154D01*
X138718826Y-101938481D01*
X138718828Y-101938479D01*
X138964276Y-101693032D01*
X138979500Y-101656278D01*
X138979500Y-101549264D01*
X138979500Y-101540000D01*
X138995107Y-101461545D01*
X138996546Y-101458070D01*
X138996588Y-101457847D01*
X139002304Y-101443559D01*
X138997158Y-101394379D01*
X138996034Y-101392697D01*
X138994291Y-101390954D01*
X138896271Y-101244257D01*
X138828754Y-101081256D01*
X138794334Y-100908215D01*
X138794334Y-100731785D01*
X138828754Y-100558744D01*
X138896271Y-100395743D01*
X138994291Y-100249046D01*
X138995579Y-100247757D01*
X139003168Y-100208420D01*
X138998146Y-100184617D01*
X138996718Y-100182344D01*
X138995107Y-100178455D01*
X138979500Y-100100000D01*
X138979500Y-99983722D01*
X138964276Y-99946968D01*
X138722706Y-99705398D01*
X138716154Y-99698846D01*
X138671718Y-99632344D01*
X138670107Y-99628455D01*
X138662903Y-99586064D01*
X138656286Y-99554700D01*
X138656916Y-99550835D01*
X138654822Y-99538511D01*
X138669200Y-99475514D01*
X138669392Y-99474343D01*
X138669509Y-99474162D01*
X138670107Y-99471545D01*
X138671718Y-99467656D01*
X138716154Y-99401154D01*
X138718826Y-99398481D01*
X138718828Y-99398479D01*
X138964276Y-99153032D01*
X138979500Y-99116278D01*
X138979500Y-99009264D01*
X138979500Y-99000000D01*
X138995107Y-98921545D01*
X138996546Y-98918070D01*
X138996588Y-98917847D01*
X139002304Y-98903559D01*
X138997158Y-98854379D01*
X138996034Y-98852697D01*
X138994291Y-98850954D01*
X138896271Y-98704257D01*
X138828754Y-98541256D01*
X138794334Y-98368215D01*
X138794334Y-98191785D01*
X138828754Y-98018744D01*
X138896271Y-97855743D01*
X138994291Y-97709046D01*
X138995579Y-97707757D01*
X139003168Y-97668420D01*
X138998146Y-97644617D01*
X138996718Y-97642344D01*
X138995107Y-97638455D01*
X138979500Y-97560000D01*
X138979500Y-97443722D01*
X138964276Y-97406968D01*
X138722706Y-97165398D01*
X138716154Y-97158846D01*
X138671718Y-97092344D01*
X138670107Y-97088455D01*
X138662903Y-97046064D01*
X138656286Y-97014700D01*
X138656916Y-97010835D01*
X138654822Y-96998511D01*
X138669200Y-96935514D01*
X138669392Y-96934343D01*
X138669509Y-96934162D01*
X138670107Y-96931545D01*
X138671718Y-96927656D01*
X138716154Y-96861154D01*
X138718826Y-96858481D01*
X138718828Y-96858479D01*
X138964276Y-96613032D01*
X138979500Y-96576278D01*
X138979500Y-96469264D01*
X138979500Y-96460000D01*
X138995107Y-96381545D01*
X138996546Y-96378070D01*
X138996588Y-96377847D01*
X139002304Y-96363559D01*
X138997158Y-96314379D01*
X138996034Y-96312697D01*
X138994291Y-96310954D01*
X138896271Y-96164257D01*
X138828754Y-96001256D01*
X138794334Y-95828215D01*
X138794334Y-95651785D01*
X138828754Y-95478744D01*
X138896271Y-95315743D01*
X138994291Y-95169046D01*
X138995579Y-95167757D01*
X139003168Y-95128420D01*
X138998146Y-95104617D01*
X138996718Y-95102344D01*
X138995107Y-95098455D01*
X138979500Y-95020000D01*
X138979500Y-94903722D01*
X138964276Y-94866968D01*
X138722706Y-94625398D01*
X138716154Y-94618846D01*
X138671718Y-94552344D01*
X138670107Y-94548455D01*
X138662903Y-94506064D01*
X138656286Y-94474700D01*
X138656916Y-94470835D01*
X138654822Y-94458511D01*
X138669200Y-94395514D01*
X138669392Y-94394343D01*
X138669509Y-94394162D01*
X138670107Y-94391545D01*
X138671718Y-94387656D01*
X138716154Y-94321154D01*
X138718826Y-94318481D01*
X138718828Y-94318479D01*
X138964276Y-94073032D01*
X138979500Y-94036278D01*
X138979500Y-93929264D01*
X138979500Y-93920000D01*
X138995107Y-93841545D01*
X138996546Y-93838070D01*
X138996588Y-93837847D01*
X139002304Y-93823559D01*
X138997158Y-93774379D01*
X138996034Y-93772697D01*
X138994291Y-93770954D01*
X138896271Y-93624257D01*
X138828754Y-93461256D01*
X138794334Y-93288215D01*
X138794334Y-93111785D01*
X138828754Y-92938744D01*
X138896271Y-92775743D01*
X138994291Y-92629046D01*
X138995579Y-92627757D01*
X139003168Y-92588420D01*
X138998146Y-92564617D01*
X138996718Y-92562344D01*
X138995107Y-92558455D01*
X138979500Y-92480000D01*
X138979500Y-92363722D01*
X138964276Y-92326968D01*
X138722706Y-92085398D01*
X138716154Y-92078846D01*
X138671718Y-92012344D01*
X138670107Y-92008455D01*
X138662903Y-91966064D01*
X138656286Y-91934700D01*
X138656916Y-91930835D01*
X138654822Y-91918511D01*
X138669200Y-91855514D01*
X138669392Y-91854343D01*
X138669509Y-91854162D01*
X138670107Y-91851545D01*
X138671718Y-91847656D01*
X138716154Y-91781154D01*
X138718826Y-91778481D01*
X138718828Y-91778479D01*
X138964276Y-91533032D01*
X138979500Y-91496278D01*
X138979500Y-91389264D01*
X138979500Y-91380000D01*
X138995107Y-91301545D01*
X138996546Y-91298070D01*
X138996588Y-91297847D01*
X139002304Y-91283559D01*
X138997158Y-91234379D01*
X138996034Y-91232697D01*
X138994291Y-91230954D01*
X138896271Y-91084257D01*
X138828754Y-90921256D01*
X138794334Y-90748215D01*
X138794334Y-90571785D01*
X138828754Y-90398744D01*
X138896271Y-90235743D01*
X138994291Y-90089046D01*
X138995579Y-90087757D01*
X139003168Y-90048420D01*
X138998146Y-90024617D01*
X138996718Y-90022344D01*
X138995107Y-90018455D01*
X138979500Y-89940000D01*
X138979500Y-89823722D01*
X138964276Y-89786968D01*
X138722706Y-89545398D01*
X138716154Y-89538846D01*
X138671718Y-89472344D01*
X138670107Y-89468455D01*
X138662903Y-89426064D01*
X138656286Y-89394700D01*
X138656916Y-89390835D01*
X138654822Y-89378511D01*
X138669200Y-89315514D01*
X138669392Y-89314343D01*
X138669509Y-89314162D01*
X138670107Y-89311545D01*
X138671718Y-89307656D01*
X138716154Y-89241154D01*
X138718826Y-89238481D01*
X138718828Y-89238479D01*
X138964276Y-88993032D01*
X138979500Y-88956278D01*
X138979500Y-88849264D01*
X138979500Y-88840000D01*
X138995107Y-88761545D01*
X138996546Y-88758070D01*
X138996588Y-88757847D01*
X139002304Y-88743559D01*
X138997158Y-88694379D01*
X138996034Y-88692697D01*
X138994291Y-88690954D01*
X138896271Y-88544257D01*
X138828754Y-88381256D01*
X138794334Y-88208215D01*
X138794334Y-88031785D01*
X138828754Y-87858744D01*
X138896271Y-87695743D01*
X138994291Y-87549046D01*
X138995579Y-87547757D01*
X139003168Y-87508420D01*
X138998146Y-87484617D01*
X138996718Y-87482344D01*
X138995107Y-87478455D01*
X138979500Y-87400000D01*
X138979500Y-87283722D01*
X138964276Y-87246968D01*
X138722706Y-87005398D01*
X138716154Y-86998846D01*
X138671718Y-86932344D01*
X138670107Y-86928455D01*
X138662903Y-86886064D01*
X138656286Y-86854700D01*
X138656916Y-86850835D01*
X138654822Y-86838511D01*
X138669200Y-86775514D01*
X138669392Y-86774343D01*
X138669509Y-86774162D01*
X138670107Y-86771545D01*
X138671718Y-86767656D01*
X138716154Y-86701154D01*
X138718826Y-86698481D01*
X138718828Y-86698479D01*
X138964276Y-86453032D01*
X138979500Y-86416278D01*
X138979500Y-86309264D01*
X138979500Y-86300000D01*
X138995107Y-86221545D01*
X138996546Y-86218070D01*
X138996588Y-86217847D01*
X139002304Y-86203559D01*
X138997158Y-86154379D01*
X138996034Y-86152697D01*
X138994291Y-86150954D01*
X138896271Y-86004257D01*
X138828754Y-85841256D01*
X138794334Y-85668215D01*
X138794334Y-85491785D01*
X138828754Y-85318744D01*
X138896271Y-85155743D01*
X138994291Y-85009046D01*
X138995579Y-85007757D01*
X139003168Y-84968420D01*
X138998146Y-84944617D01*
X138996718Y-84942344D01*
X138995107Y-84938455D01*
X138979500Y-84860000D01*
X138979500Y-84743722D01*
X138964276Y-84706968D01*
X138722706Y-84465398D01*
X138716154Y-84458846D01*
X138671718Y-84392344D01*
X138670107Y-84388455D01*
X138662903Y-84346064D01*
X138656286Y-84314700D01*
X138656916Y-84310835D01*
X138654822Y-84298511D01*
X138669200Y-84235514D01*
X138669392Y-84234343D01*
X138669509Y-84234162D01*
X138670107Y-84231545D01*
X138671718Y-84227656D01*
X138716154Y-84161154D01*
X138718826Y-84158481D01*
X138718828Y-84158479D01*
X138964276Y-83913032D01*
X138979500Y-83876278D01*
X138979500Y-83769264D01*
X138979500Y-83760000D01*
X138995107Y-83681545D01*
X138996546Y-83678070D01*
X138996588Y-83677847D01*
X139002304Y-83663559D01*
X138997158Y-83614379D01*
X138996034Y-83612697D01*
X138994291Y-83610954D01*
X138896271Y-83464257D01*
X138828754Y-83301256D01*
X138794334Y-83128215D01*
X138794334Y-82951785D01*
X138828754Y-82778744D01*
X138896271Y-82615743D01*
X138994291Y-82469046D01*
X138995579Y-82467757D01*
X139003168Y-82428420D01*
X138998146Y-82404617D01*
X138996718Y-82402344D01*
X138995107Y-82398455D01*
X138979500Y-82320000D01*
X138979500Y-82203722D01*
X138964276Y-82166968D01*
X138722706Y-81925398D01*
X138716154Y-81918846D01*
X138671718Y-81852344D01*
X138670107Y-81848455D01*
X138662903Y-81806064D01*
X138656286Y-81774700D01*
X138656916Y-81770835D01*
X138654822Y-81758511D01*
X138669200Y-81695514D01*
X138669392Y-81694343D01*
X138669509Y-81694162D01*
X138670107Y-81691545D01*
X138671718Y-81687656D01*
X138716154Y-81621154D01*
X138718826Y-81618481D01*
X138718828Y-81618479D01*
X138964276Y-81373032D01*
X138979500Y-81336278D01*
X138979500Y-81229264D01*
X138979500Y-81220000D01*
X138995107Y-81141545D01*
X138996546Y-81138070D01*
X138996588Y-81137847D01*
X139002304Y-81123559D01*
X138997158Y-81074379D01*
X138996034Y-81072697D01*
X138994291Y-81070954D01*
X138896271Y-80924257D01*
X138828754Y-80761256D01*
X138794334Y-80588215D01*
X138794334Y-80411785D01*
X138828754Y-80238744D01*
X138896271Y-80075743D01*
X138994291Y-79929046D01*
X138995579Y-79927757D01*
X139003168Y-79888420D01*
X138998146Y-79864617D01*
X138996718Y-79862344D01*
X138995107Y-79858455D01*
X138979500Y-79780000D01*
X138979500Y-79663722D01*
X138964276Y-79626968D01*
X138722706Y-79385398D01*
X138716154Y-79378846D01*
X138671718Y-79312344D01*
X138670107Y-79308455D01*
X138662903Y-79266064D01*
X138656286Y-79234700D01*
X138656916Y-79230835D01*
X138654822Y-79218511D01*
X138669200Y-79155514D01*
X138669392Y-79154343D01*
X138669509Y-79154162D01*
X138670107Y-79151545D01*
X138671718Y-79147656D01*
X138716154Y-79081154D01*
X138718826Y-79078481D01*
X138718828Y-79078479D01*
X138964276Y-78833032D01*
X138979500Y-78796278D01*
X138979500Y-78689264D01*
X138979500Y-78680000D01*
X138995107Y-78601545D01*
X138996546Y-78598070D01*
X138996588Y-78597847D01*
X139002304Y-78583559D01*
X138997158Y-78534379D01*
X138996034Y-78532697D01*
X138994291Y-78530954D01*
X138896271Y-78384257D01*
X138828754Y-78221256D01*
X138794334Y-78048215D01*
X138794334Y-77871785D01*
X138828754Y-77698744D01*
X138896271Y-77535743D01*
X138994291Y-77389046D01*
X138995579Y-77387757D01*
X139003168Y-77348420D01*
X138998146Y-77324617D01*
X138996718Y-77322344D01*
X138995107Y-77318455D01*
X138979500Y-77240000D01*
X138979500Y-77123722D01*
X138964276Y-77086968D01*
X138722706Y-76845398D01*
X138716154Y-76838846D01*
X138671718Y-76772344D01*
X138670107Y-76768455D01*
X138662903Y-76726064D01*
X138656286Y-76694700D01*
X138656916Y-76690835D01*
X138654822Y-76678511D01*
X138669200Y-76615514D01*
X138669392Y-76614343D01*
X138669509Y-76614162D01*
X138670107Y-76611545D01*
X138671718Y-76607656D01*
X138716154Y-76541154D01*
X138718826Y-76538481D01*
X138718828Y-76538479D01*
X138964276Y-76293032D01*
X138979500Y-76256278D01*
X138979500Y-76149264D01*
X138979500Y-76140000D01*
X138995107Y-76061545D01*
X138996546Y-76058070D01*
X138996588Y-76057847D01*
X139002304Y-76043559D01*
X138997158Y-75994379D01*
X138996034Y-75992697D01*
X138994291Y-75990954D01*
X138896271Y-75844257D01*
X138828754Y-75681256D01*
X138794334Y-75508215D01*
X138794334Y-75331785D01*
X138828754Y-75158744D01*
X138896271Y-74995743D01*
X138994291Y-74849046D01*
X138995579Y-74847757D01*
X139003168Y-74808420D01*
X138998146Y-74784617D01*
X138996718Y-74782344D01*
X138995107Y-74778455D01*
X138979500Y-74700000D01*
X138979500Y-74583722D01*
X138964276Y-74546968D01*
X138722706Y-74305398D01*
X138716154Y-74298846D01*
X138671718Y-74232344D01*
X138670107Y-74228455D01*
X138662903Y-74186064D01*
X138656286Y-74154700D01*
X138656916Y-74150835D01*
X138654822Y-74138511D01*
X138669200Y-74075514D01*
X138669392Y-74074343D01*
X138669509Y-74074162D01*
X138670107Y-74071545D01*
X138671718Y-74067656D01*
X138716154Y-74001154D01*
X138718826Y-73998481D01*
X138718828Y-73998479D01*
X138964276Y-73753032D01*
X138979500Y-73716278D01*
X138979500Y-73609264D01*
X138979500Y-73600000D01*
X138995107Y-73521545D01*
X138996546Y-73518070D01*
X138996588Y-73517847D01*
X139002304Y-73503559D01*
X138997158Y-73454379D01*
X138996034Y-73452697D01*
X138994291Y-73450954D01*
X138896271Y-73304257D01*
X138828754Y-73141256D01*
X138794334Y-72968215D01*
X138794334Y-72791785D01*
X138828754Y-72618744D01*
X138896271Y-72455743D01*
X138994291Y-72309046D01*
X139119046Y-72184291D01*
X139265743Y-72086271D01*
X139428744Y-72018754D01*
X139601785Y-71984334D01*
X139778215Y-71984334D01*
X139951256Y-72018754D01*
X140114257Y-72086271D01*
X140260954Y-72184291D01*
X140262242Y-72185579D01*
X140301579Y-72193168D01*
X140325383Y-72188146D01*
X140327656Y-72186718D01*
X140331545Y-72185107D01*
X140410000Y-72169500D01*
X140526278Y-72169500D01*
X140563032Y-72154276D01*
X140804601Y-71912706D01*
X140804604Y-71912703D01*
X140811154Y-71906154D01*
X140877656Y-71861718D01*
X140881545Y-71860107D01*
X140923930Y-71852904D01*
X140955299Y-71846286D01*
X140959164Y-71846916D01*
X140971489Y-71844822D01*
X141034487Y-71859201D01*
X141035656Y-71859392D01*
X141035835Y-71859509D01*
X141038455Y-71860107D01*
X141042344Y-71861718D01*
X141108846Y-71906154D01*
X141111520Y-71908828D01*
X141356968Y-72154276D01*
X141393722Y-72169500D01*
X141500735Y-72169500D01*
X141510000Y-72169500D01*
X141588455Y-72185107D01*
X141591932Y-72186547D01*
X141592112Y-72186581D01*
X141606379Y-72192301D01*
X141655603Y-72187169D01*
X141657305Y-72186031D01*
X141659046Y-72184291D01*
X141805743Y-72086271D01*
X141968744Y-72018754D01*
X142141785Y-71984334D01*
X142318215Y-71984334D01*
X142491256Y-72018754D01*
X142654257Y-72086271D01*
X142800954Y-72184291D01*
X142802242Y-72185579D01*
X142841579Y-72193168D01*
X142865383Y-72188146D01*
X142867656Y-72186718D01*
X142871545Y-72185107D01*
X142950000Y-72169500D01*
X143066278Y-72169500D01*
X143103032Y-72154276D01*
X143344601Y-71912706D01*
X143344604Y-71912703D01*
X143351154Y-71906154D01*
X143417656Y-71861718D01*
X143421545Y-71860107D01*
X143463930Y-71852904D01*
X143495299Y-71846286D01*
X143499164Y-71846916D01*
X143511489Y-71844822D01*
X143574487Y-71859201D01*
X143575656Y-71859392D01*
X143575835Y-71859509D01*
X143578455Y-71860107D01*
X143582344Y-71861718D01*
X143648846Y-71906154D01*
X143651520Y-71908828D01*
X143896968Y-72154276D01*
X143933722Y-72169500D01*
X144040735Y-72169500D01*
X144050000Y-72169500D01*
X144128455Y-72185107D01*
X144131932Y-72186547D01*
X144132112Y-72186581D01*
X144146379Y-72192301D01*
X144195603Y-72187169D01*
X144197305Y-72186031D01*
X144199046Y-72184291D01*
X144345743Y-72086271D01*
X144508744Y-72018754D01*
X144681785Y-71984334D01*
X144858215Y-71984334D01*
X145031256Y-72018754D01*
X145194257Y-72086271D01*
X145340954Y-72184291D01*
X145342242Y-72185579D01*
X145381579Y-72193168D01*
X145405383Y-72188146D01*
X145407656Y-72186718D01*
X145411545Y-72185107D01*
X145490000Y-72169500D01*
X145606278Y-72169500D01*
X145643032Y-72154276D01*
X145884601Y-71912706D01*
X145884604Y-71912703D01*
X145891154Y-71906154D01*
X145957656Y-71861718D01*
X145961545Y-71860107D01*
X146003930Y-71852904D01*
X146035299Y-71846286D01*
X146039164Y-71846916D01*
X146051489Y-71844822D01*
X146114487Y-71859201D01*
X146115656Y-71859392D01*
X146115835Y-71859509D01*
X146118455Y-71860107D01*
X146122344Y-71861718D01*
X146188846Y-71906154D01*
X146191520Y-71908828D01*
X146436968Y-72154276D01*
X146473722Y-72169500D01*
X146580735Y-72169500D01*
X146590000Y-72169500D01*
X146668455Y-72185107D01*
X146671932Y-72186547D01*
X146672112Y-72186581D01*
X146686379Y-72192301D01*
X146735603Y-72187169D01*
X146737305Y-72186031D01*
X146739046Y-72184291D01*
X146885743Y-72086271D01*
X147048744Y-72018754D01*
X147221785Y-71984334D01*
X147398215Y-71984334D01*
X147571256Y-72018754D01*
X147734257Y-72086271D01*
X147880954Y-72184291D01*
X147882242Y-72185579D01*
X147921579Y-72193168D01*
X147945383Y-72188146D01*
X147947656Y-72186718D01*
X147951545Y-72185107D01*
X148030000Y-72169500D01*
X148146278Y-72169500D01*
X148183032Y-72154276D01*
X148424601Y-71912706D01*
X148424604Y-71912703D01*
X148431154Y-71906154D01*
X148497656Y-71861718D01*
X148501545Y-71860107D01*
X148543930Y-71852904D01*
X148575299Y-71846286D01*
X148579164Y-71846916D01*
X148591489Y-71844822D01*
X148654487Y-71859201D01*
X148655656Y-71859392D01*
X148655835Y-71859509D01*
X148658455Y-71860107D01*
X148662344Y-71861718D01*
X148728846Y-71906154D01*
X148731520Y-71908828D01*
X148976968Y-72154276D01*
X149013722Y-72169500D01*
X149120735Y-72169500D01*
X149130000Y-72169500D01*
X149208455Y-72185107D01*
X149211932Y-72186547D01*
X149212112Y-72186581D01*
X149226379Y-72192301D01*
X149275603Y-72187169D01*
X149277305Y-72186031D01*
X149279046Y-72184291D01*
X149425743Y-72086271D01*
X149588744Y-72018754D01*
X149761785Y-71984334D01*
X149938215Y-71984334D01*
X150111256Y-72018754D01*
X150274257Y-72086271D01*
X150420954Y-72184291D01*
X150422242Y-72185579D01*
X150461579Y-72193168D01*
X150485383Y-72188146D01*
X150487656Y-72186718D01*
X150491545Y-72185107D01*
X150570000Y-72169500D01*
X150686278Y-72169500D01*
X150723032Y-72154276D01*
X150964601Y-71912706D01*
X150964604Y-71912703D01*
X150971154Y-71906154D01*
X151037656Y-71861718D01*
X151041545Y-71860107D01*
X151083930Y-71852904D01*
X151115299Y-71846286D01*
X151119164Y-71846916D01*
X151131489Y-71844822D01*
X151194487Y-71859201D01*
X151195656Y-71859392D01*
X151195835Y-71859509D01*
X151198455Y-71860107D01*
X151202344Y-71861718D01*
X151268846Y-71906154D01*
X151271520Y-71908828D01*
X151516968Y-72154276D01*
X151553722Y-72169500D01*
X151660735Y-72169500D01*
X151670000Y-72169500D01*
X151748455Y-72185107D01*
X151751932Y-72186547D01*
X151752112Y-72186581D01*
X151766379Y-72192301D01*
X151815603Y-72187169D01*
X151817305Y-72186031D01*
X151819046Y-72184291D01*
X151965743Y-72086271D01*
X152128744Y-72018754D01*
X152301785Y-71984334D01*
X152478215Y-71984334D01*
X152651256Y-72018754D01*
X152814257Y-72086271D01*
X152960954Y-72184291D01*
X152962242Y-72185579D01*
X153001579Y-72193168D01*
X153025383Y-72188146D01*
X153027656Y-72186718D01*
X153031545Y-72185107D01*
X153110000Y-72169500D01*
X153226278Y-72169500D01*
X153263032Y-72154276D01*
X153504601Y-71912706D01*
X153504604Y-71912703D01*
X153511154Y-71906154D01*
X153577656Y-71861718D01*
X153581545Y-71860107D01*
X153623930Y-71852904D01*
X153655299Y-71846286D01*
X153659164Y-71846916D01*
X153671489Y-71844822D01*
X153734487Y-71859201D01*
X153735656Y-71859392D01*
X153735835Y-71859509D01*
X153738455Y-71860107D01*
X153742344Y-71861718D01*
X153808846Y-71906154D01*
X153811520Y-71908828D01*
X154056968Y-72154276D01*
X154093722Y-72169500D01*
X154200735Y-72169500D01*
X154210000Y-72169500D01*
X154288455Y-72185107D01*
X154291932Y-72186547D01*
X154292112Y-72186581D01*
X154306379Y-72192301D01*
X154355603Y-72187169D01*
X154357305Y-72186031D01*
X154359046Y-72184291D01*
X154505743Y-72086271D01*
X154668744Y-72018754D01*
X154841785Y-71984334D01*
X155018215Y-71984334D01*
X155191256Y-72018754D01*
X155354257Y-72086271D01*
X155500954Y-72184291D01*
X155502242Y-72185579D01*
X155541579Y-72193168D01*
X155565383Y-72188146D01*
X155567656Y-72186718D01*
X155571545Y-72185107D01*
X155650000Y-72169500D01*
X155766278Y-72169500D01*
X155803032Y-72154276D01*
X156044601Y-71912706D01*
X156044604Y-71912703D01*
X156051154Y-71906154D01*
X156117656Y-71861718D01*
X156121545Y-71860107D01*
X156163930Y-71852904D01*
X156195299Y-71846286D01*
X156199164Y-71846916D01*
X156211489Y-71844822D01*
X156274487Y-71859201D01*
X156275656Y-71859392D01*
X156275835Y-71859509D01*
X156278455Y-71860107D01*
X156282344Y-71861718D01*
X156348846Y-71906154D01*
X156351520Y-71908828D01*
X156596968Y-72154276D01*
X156633722Y-72169500D01*
X156740735Y-72169500D01*
X156750000Y-72169500D01*
X156828455Y-72185107D01*
X156831932Y-72186547D01*
X156832112Y-72186581D01*
X156846379Y-72192301D01*
X156895603Y-72187169D01*
X156897305Y-72186031D01*
X156899046Y-72184291D01*
X157045743Y-72086271D01*
X157208744Y-72018754D01*
X157381785Y-71984334D01*
X157558215Y-71984334D01*
X157731256Y-72018754D01*
X157894257Y-72086271D01*
X158040954Y-72184291D01*
X158042242Y-72185579D01*
X158081579Y-72193168D01*
X158105383Y-72188146D01*
X158107656Y-72186718D01*
X158111545Y-72185107D01*
X158190000Y-72169500D01*
X158306278Y-72169500D01*
X158343032Y-72154276D01*
X158584601Y-71912706D01*
X158584604Y-71912703D01*
X158591154Y-71906154D01*
X158657656Y-71861718D01*
X158661545Y-71860107D01*
X158703930Y-71852904D01*
X158735299Y-71846286D01*
X158739164Y-71846916D01*
X158751489Y-71844822D01*
X158814487Y-71859201D01*
X158815656Y-71859392D01*
X158815835Y-71859509D01*
X158818455Y-71860107D01*
X158822344Y-71861718D01*
X158888846Y-71906154D01*
X158891520Y-71908828D01*
X159136968Y-72154276D01*
X159173722Y-72169500D01*
X159280735Y-72169500D01*
X159290000Y-72169500D01*
X159368455Y-72185107D01*
X159371932Y-72186547D01*
X159372112Y-72186581D01*
X159386379Y-72192301D01*
X159435603Y-72187169D01*
X159437305Y-72186031D01*
X159439046Y-72184291D01*
X159585743Y-72086271D01*
X159748744Y-72018754D01*
X159921785Y-71984334D01*
X160098215Y-71984334D01*
X160271256Y-72018754D01*
X160434257Y-72086271D01*
X160580954Y-72184291D01*
X160582242Y-72185579D01*
X160621579Y-72193168D01*
X160645383Y-72188146D01*
X160647656Y-72186718D01*
X160651545Y-72185107D01*
X160730000Y-72169500D01*
X160846278Y-72169500D01*
X160883032Y-72154276D01*
X161124601Y-71912706D01*
X161124604Y-71912703D01*
X161131154Y-71906154D01*
X161197656Y-71861718D01*
X161201545Y-71860107D01*
X161243930Y-71852904D01*
X161275299Y-71846286D01*
X161279164Y-71846916D01*
X161291489Y-71844822D01*
X161354487Y-71859201D01*
X161355656Y-71859392D01*
X161355835Y-71859509D01*
X161358455Y-71860107D01*
X161362344Y-71861718D01*
X161428846Y-71906154D01*
X161431520Y-71908828D01*
X161676968Y-72154276D01*
X161713722Y-72169500D01*
X161820735Y-72169500D01*
X161830000Y-72169500D01*
X161908455Y-72185107D01*
X161911932Y-72186547D01*
X161912112Y-72186581D01*
X161926379Y-72192301D01*
X161975603Y-72187169D01*
X161977305Y-72186031D01*
X161979046Y-72184291D01*
X162125743Y-72086271D01*
X162288744Y-72018754D01*
X162461785Y-71984334D01*
X162638215Y-71984334D01*
X162811256Y-72018754D01*
X162974257Y-72086271D01*
X163120954Y-72184291D01*
X163122242Y-72185579D01*
X163161579Y-72193168D01*
X163185383Y-72188146D01*
X163187656Y-72186718D01*
X163191545Y-72185107D01*
X163270000Y-72169500D01*
X163386278Y-72169500D01*
X163423032Y-72154276D01*
X163664601Y-71912706D01*
X163664604Y-71912703D01*
X163671154Y-71906154D01*
X163737656Y-71861718D01*
X163741545Y-71860107D01*
X163783930Y-71852904D01*
X163815299Y-71846286D01*
X163819164Y-71846916D01*
X163831489Y-71844822D01*
X163894487Y-71859201D01*
X163895656Y-71859392D01*
X163895835Y-71859509D01*
X163898455Y-71860107D01*
X163902344Y-71861718D01*
X163968846Y-71906154D01*
X163971520Y-71908828D01*
X164216968Y-72154276D01*
X164253722Y-72169500D01*
X164360735Y-72169500D01*
X164370000Y-72169500D01*
X164448455Y-72185107D01*
X164451932Y-72186547D01*
X164452112Y-72186581D01*
X164466379Y-72192301D01*
X164515603Y-72187169D01*
X164517305Y-72186031D01*
X164519046Y-72184291D01*
X164665743Y-72086271D01*
X164828744Y-72018754D01*
X165001785Y-71984334D01*
X165178215Y-71984334D01*
X165351256Y-72018754D01*
X165514257Y-72086271D01*
X165660954Y-72184291D01*
X165662242Y-72185579D01*
X165701579Y-72193168D01*
X165725383Y-72188146D01*
X165727656Y-72186718D01*
X165731545Y-72185107D01*
X165810000Y-72169500D01*
X165926278Y-72169500D01*
X165963032Y-72154276D01*
X166204601Y-71912706D01*
X166204604Y-71912703D01*
X166211154Y-71906154D01*
X166277656Y-71861718D01*
X166281545Y-71860107D01*
X166323930Y-71852904D01*
X166355299Y-71846286D01*
X166359164Y-71846916D01*
X166371489Y-71844822D01*
X166434487Y-71859201D01*
X166435656Y-71859392D01*
X166435835Y-71859509D01*
X166438455Y-71860107D01*
X166442344Y-71861718D01*
X166508846Y-71906154D01*
X166511520Y-71908828D01*
X166756968Y-72154276D01*
X166793722Y-72169500D01*
X166900735Y-72169500D01*
X166910000Y-72169500D01*
X166988455Y-72185107D01*
X166991932Y-72186547D01*
X166992112Y-72186581D01*
X167006379Y-72192301D01*
X167055603Y-72187169D01*
X167057305Y-72186031D01*
X167059046Y-72184291D01*
X167205743Y-72086271D01*
X167368744Y-72018754D01*
X167541785Y-71984334D01*
X167718215Y-71984334D01*
X167891256Y-72018754D01*
X168054257Y-72086271D01*
X168200954Y-72184291D01*
X168202242Y-72185579D01*
X168241579Y-72193168D01*
X168265383Y-72188146D01*
X168267656Y-72186718D01*
X168271545Y-72185107D01*
X168350000Y-72169500D01*
X168466278Y-72169500D01*
X168503032Y-72154276D01*
X168744601Y-71912706D01*
X168744604Y-71912703D01*
X168751154Y-71906154D01*
X168817656Y-71861718D01*
X168821545Y-71860107D01*
X168863930Y-71852904D01*
X168895299Y-71846286D01*
X168899164Y-71846916D01*
X168911489Y-71844822D01*
X168974487Y-71859201D01*
X168975656Y-71859392D01*
X168975835Y-71859509D01*
X168978455Y-71860107D01*
X168982344Y-71861718D01*
X169048846Y-71906154D01*
X169051520Y-71908828D01*
X169296968Y-72154276D01*
X169333722Y-72169500D01*
X169440735Y-72169500D01*
X169450000Y-72169500D01*
X169528455Y-72185107D01*
X169531932Y-72186547D01*
X169532112Y-72186581D01*
X169546379Y-72192301D01*
X169595603Y-72187169D01*
X169597305Y-72186031D01*
X169599046Y-72184291D01*
X169745743Y-72086271D01*
X169908744Y-72018754D01*
X170081785Y-71984334D01*
X170258215Y-71984334D01*
X170431256Y-72018754D01*
X170594257Y-72086271D01*
X170740954Y-72184291D01*
X170742242Y-72185579D01*
X170781579Y-72193168D01*
X170805383Y-72188146D01*
X170807656Y-72186718D01*
X170811545Y-72185107D01*
X170890000Y-72169500D01*
X171006278Y-72169500D01*
X171043032Y-72154276D01*
X171284601Y-71912706D01*
X171284604Y-71912703D01*
X171291154Y-71906154D01*
X171357656Y-71861718D01*
X171361545Y-71860107D01*
X171403930Y-71852904D01*
X171435299Y-71846286D01*
X171439164Y-71846916D01*
X171451489Y-71844822D01*
X171514487Y-71859201D01*
X171515656Y-71859392D01*
X171515835Y-71859509D01*
X171518455Y-71860107D01*
X171522344Y-71861718D01*
X171588846Y-71906154D01*
X171591520Y-71908828D01*
X171836968Y-72154276D01*
X171873722Y-72169500D01*
X171980735Y-72169500D01*
X171990000Y-72169500D01*
X172068455Y-72185107D01*
X172071932Y-72186547D01*
X172072112Y-72186581D01*
X172086379Y-72192301D01*
X172135603Y-72187169D01*
X172137305Y-72186031D01*
X172139046Y-72184291D01*
X172285743Y-72086271D01*
X172448744Y-72018754D01*
X172621785Y-71984334D01*
X172798215Y-71984334D01*
X172971256Y-72018754D01*
X173134257Y-72086271D01*
X173280954Y-72184291D01*
X173282242Y-72185579D01*
X173321579Y-72193168D01*
X173345383Y-72188146D01*
X173347656Y-72186718D01*
X173351545Y-72185107D01*
X173430000Y-72169500D01*
X173546278Y-72169500D01*
X173583032Y-72154276D01*
X173824601Y-71912706D01*
X173824604Y-71912703D01*
X173831154Y-71906154D01*
X173897656Y-71861718D01*
X173901545Y-71860107D01*
X173943930Y-71852904D01*
X173975299Y-71846286D01*
X173979164Y-71846916D01*
X173991489Y-71844822D01*
X174054487Y-71859201D01*
X174055656Y-71859392D01*
X174055835Y-71859509D01*
X174058455Y-71860107D01*
X174062344Y-71861718D01*
X174128846Y-71906154D01*
X174131520Y-71908828D01*
X174376968Y-72154276D01*
X174413722Y-72169500D01*
X174520735Y-72169500D01*
X174530000Y-72169500D01*
X174608455Y-72185107D01*
X174611932Y-72186547D01*
X174612112Y-72186581D01*
X174626379Y-72192301D01*
X174675603Y-72187169D01*
X174677305Y-72186031D01*
X174679046Y-72184291D01*
X174825743Y-72086271D01*
X174988744Y-72018754D01*
X175161785Y-71984334D01*
X175338215Y-71984334D01*
X175511256Y-72018754D01*
X175674257Y-72086271D01*
X175820954Y-72184291D01*
X175822242Y-72185579D01*
X175861579Y-72193168D01*
X175885383Y-72188146D01*
X175887656Y-72186718D01*
X175891545Y-72185107D01*
X175970000Y-72169500D01*
X176086278Y-72169500D01*
X176123032Y-72154276D01*
X176364601Y-71912706D01*
X176364604Y-71912703D01*
X176371154Y-71906154D01*
X176437656Y-71861718D01*
X176441545Y-71860107D01*
X176483930Y-71852904D01*
X176515299Y-71846286D01*
X176519164Y-71846916D01*
X176531489Y-71844822D01*
X176594487Y-71859201D01*
X176595656Y-71859392D01*
X176595835Y-71859509D01*
X176598455Y-71860107D01*
X176602344Y-71861718D01*
X176668846Y-71906154D01*
X176671520Y-71908828D01*
X176916968Y-72154276D01*
X176953722Y-72169500D01*
X177060735Y-72169500D01*
X177070000Y-72169500D01*
X177148455Y-72185107D01*
X177151932Y-72186547D01*
X177152112Y-72186581D01*
X177166379Y-72192301D01*
X177215603Y-72187169D01*
X177217305Y-72186031D01*
X177219046Y-72184291D01*
X177365743Y-72086271D01*
X177528744Y-72018754D01*
X177701785Y-71984334D01*
X177878215Y-71984334D01*
X178051256Y-72018754D01*
X178214257Y-72086271D01*
X178360954Y-72184291D01*
X178362242Y-72185579D01*
X178401579Y-72193168D01*
X178425383Y-72188146D01*
X178427656Y-72186718D01*
X178431545Y-72185107D01*
X178510000Y-72169500D01*
X178626278Y-72169500D01*
X178663032Y-72154276D01*
X178904601Y-71912706D01*
X178904604Y-71912703D01*
X178911154Y-71906154D01*
X178977656Y-71861718D01*
X178981545Y-71860107D01*
X179023930Y-71852904D01*
X179055299Y-71846286D01*
X179059164Y-71846916D01*
X179071489Y-71844822D01*
X179134487Y-71859201D01*
X179135656Y-71859392D01*
X179135835Y-71859509D01*
X179138455Y-71860107D01*
X179142344Y-71861718D01*
X179208846Y-71906154D01*
X179211520Y-71908828D01*
X179456968Y-72154276D01*
X179493722Y-72169500D01*
X179600735Y-72169500D01*
X179610000Y-72169500D01*
X179688455Y-72185107D01*
X179691932Y-72186547D01*
X179692112Y-72186581D01*
X179706379Y-72192301D01*
X179755603Y-72187169D01*
X179757305Y-72186031D01*
X179759046Y-72184291D01*
X179905743Y-72086271D01*
X180068744Y-72018754D01*
X180241785Y-71984334D01*
X180418215Y-71984334D01*
X180591256Y-72018754D01*
X180754257Y-72086271D01*
X180900954Y-72184291D01*
X180902242Y-72185579D01*
X180941579Y-72193168D01*
X180965383Y-72188146D01*
X180967656Y-72186718D01*
X180971545Y-72185107D01*
X181050000Y-72169500D01*
X181166278Y-72169500D01*
X181203032Y-72154276D01*
X181444601Y-71912706D01*
X181444604Y-71912703D01*
X181451154Y-71906154D01*
X181517656Y-71861718D01*
X181521545Y-71860107D01*
X181563930Y-71852904D01*
X181595299Y-71846286D01*
X181599164Y-71846916D01*
X181611489Y-71844822D01*
X181674487Y-71859201D01*
X181675656Y-71859392D01*
X181675835Y-71859509D01*
X181678455Y-71860107D01*
X181682344Y-71861718D01*
X181748846Y-71906154D01*
X181751520Y-71908828D01*
X181996968Y-72154276D01*
X182033722Y-72169500D01*
X182140735Y-72169500D01*
X182150000Y-72169500D01*
X182228455Y-72185107D01*
X182231932Y-72186547D01*
X182232112Y-72186581D01*
X182246379Y-72192301D01*
X182295603Y-72187169D01*
X182297305Y-72186031D01*
X182299046Y-72184291D01*
X182445743Y-72086271D01*
X182608744Y-72018754D01*
X182781785Y-71984334D01*
X182958215Y-71984334D01*
X183131256Y-72018754D01*
X183294257Y-72086271D01*
X183440954Y-72184291D01*
X183442242Y-72185579D01*
X183481579Y-72193168D01*
X183505383Y-72188146D01*
X183507656Y-72186718D01*
X183511545Y-72185107D01*
X183590000Y-72169500D01*
X183706278Y-72169500D01*
X183743032Y-72154276D01*
X183984601Y-71912706D01*
X183984604Y-71912703D01*
X183991154Y-71906154D01*
X184057656Y-71861718D01*
X184061545Y-71860107D01*
X184103930Y-71852904D01*
X184135299Y-71846286D01*
X184139164Y-71846916D01*
X184151489Y-71844822D01*
X184214487Y-71859201D01*
X184215656Y-71859392D01*
X184215835Y-71859509D01*
X184218455Y-71860107D01*
X184222344Y-71861718D01*
X184288846Y-71906154D01*
X184291520Y-71908828D01*
X184536968Y-72154276D01*
X184573722Y-72169500D01*
X184680735Y-72169500D01*
X184690000Y-72169500D01*
X184768455Y-72185107D01*
X184771932Y-72186547D01*
X184772112Y-72186581D01*
X184786379Y-72192301D01*
X184835603Y-72187169D01*
X184837305Y-72186031D01*
X184839046Y-72184291D01*
X184985743Y-72086271D01*
X185148744Y-72018754D01*
X185321785Y-71984334D01*
X185498215Y-71984334D01*
X185671256Y-72018754D01*
X185834257Y-72086271D01*
X185980954Y-72184291D01*
X185982242Y-72185579D01*
X186021579Y-72193168D01*
X186045383Y-72188146D01*
X186047656Y-72186718D01*
X186051545Y-72185107D01*
X186130000Y-72169500D01*
X186246278Y-72169500D01*
X186283032Y-72154276D01*
X186524601Y-71912706D01*
X186524604Y-71912703D01*
X186531154Y-71906154D01*
X186597656Y-71861718D01*
X186601545Y-71860107D01*
X186643930Y-71852904D01*
X186675299Y-71846286D01*
X186679164Y-71846916D01*
X186691489Y-71844822D01*
X186754487Y-71859201D01*
G37*
G36*
X137242292Y-102402632D02*
G01*
X137427254Y-102439423D01*
X137601484Y-102511592D01*
X137758286Y-102616364D01*
X137891636Y-102749714D01*
X137996408Y-102906516D01*
X138068577Y-103080746D01*
X138105368Y-103265708D01*
X138105368Y-103454292D01*
X138068577Y-103639254D01*
X137996408Y-103813484D01*
X137891636Y-103970286D01*
X137758286Y-104103636D01*
X137601484Y-104208408D01*
X137427254Y-104280577D01*
X137242292Y-104317368D01*
X137148000Y-104322000D01*
X137145536Y-104322000D01*
X135626464Y-104322000D01*
X135624000Y-104322000D01*
X135529708Y-104317368D01*
X135344746Y-104280577D01*
X135170516Y-104208408D01*
X135013714Y-104103636D01*
X134880364Y-103970286D01*
X134775592Y-103813484D01*
X134703423Y-103639254D01*
X134666632Y-103454292D01*
X134666632Y-103265708D01*
X134703423Y-103080746D01*
X134775592Y-102906516D01*
X134880364Y-102749714D01*
X135013714Y-102616364D01*
X135170516Y-102511592D01*
X135344746Y-102439423D01*
X135529708Y-102402632D01*
X135624000Y-102398000D01*
X137148000Y-102398000D01*
X137242292Y-102402632D01*
G37*
G36*
X192106292Y-102402632D02*
G01*
X192291254Y-102439423D01*
X192465484Y-102511592D01*
X192622286Y-102616364D01*
X192755636Y-102749714D01*
X192860408Y-102906516D01*
X192932577Y-103080746D01*
X192969368Y-103265708D01*
X192969368Y-103454292D01*
X192932577Y-103639254D01*
X192860408Y-103813484D01*
X192755636Y-103970286D01*
X192622286Y-104103636D01*
X192465484Y-104208408D01*
X192291254Y-104280577D01*
X192106292Y-104317368D01*
X192012000Y-104322000D01*
X192009536Y-104322000D01*
X190490464Y-104322000D01*
X190488000Y-104322000D01*
X190393708Y-104317368D01*
X190208746Y-104280577D01*
X190034516Y-104208408D01*
X189877714Y-104103636D01*
X189744364Y-103970286D01*
X189639592Y-103813484D01*
X189567423Y-103639254D01*
X189530632Y-103454292D01*
X189530632Y-103265708D01*
X189567423Y-103080746D01*
X189639592Y-102906516D01*
X189744364Y-102749714D01*
X189877714Y-102616364D01*
X190034516Y-102511592D01*
X190208746Y-102439423D01*
X190393708Y-102402632D01*
X190488000Y-102398000D01*
X192012000Y-102398000D01*
X192106292Y-102402632D01*
G37*
G36*
X137242292Y-99862632D02*
G01*
X137427254Y-99899423D01*
X137601484Y-99971592D01*
X137758286Y-100076364D01*
X137891636Y-100209714D01*
X137996408Y-100366516D01*
X138068577Y-100540746D01*
X138105368Y-100725708D01*
X138105368Y-100914292D01*
X138068577Y-101099254D01*
X137996408Y-101273484D01*
X137891636Y-101430286D01*
X137758286Y-101563636D01*
X137601484Y-101668408D01*
X137427254Y-101740577D01*
X137242292Y-101777368D01*
X137148000Y-101782000D01*
X137145536Y-101782000D01*
X135626464Y-101782000D01*
X135624000Y-101782000D01*
X135529708Y-101777368D01*
X135344746Y-101740577D01*
X135170516Y-101668408D01*
X135013714Y-101563636D01*
X134880364Y-101430286D01*
X134775592Y-101273484D01*
X134703423Y-101099254D01*
X134666632Y-100914292D01*
X134666632Y-100725708D01*
X134703423Y-100540746D01*
X134775592Y-100366516D01*
X134880364Y-100209714D01*
X135013714Y-100076364D01*
X135170516Y-99971592D01*
X135344746Y-99899423D01*
X135529708Y-99862632D01*
X135624000Y-99858000D01*
X137148000Y-99858000D01*
X137242292Y-99862632D01*
G37*
G36*
X192106292Y-99862632D02*
G01*
X192291254Y-99899423D01*
X192465484Y-99971592D01*
X192622286Y-100076364D01*
X192755636Y-100209714D01*
X192860408Y-100366516D01*
X192932577Y-100540746D01*
X192969368Y-100725708D01*
X192969368Y-100914292D01*
X192932577Y-101099254D01*
X192860408Y-101273484D01*
X192755636Y-101430286D01*
X192622286Y-101563636D01*
X192465484Y-101668408D01*
X192291254Y-101740577D01*
X192106292Y-101777368D01*
X192012000Y-101782000D01*
X192009536Y-101782000D01*
X190490464Y-101782000D01*
X190488000Y-101782000D01*
X190393708Y-101777368D01*
X190208746Y-101740577D01*
X190034516Y-101668408D01*
X189877714Y-101563636D01*
X189744364Y-101430286D01*
X189639592Y-101273484D01*
X189567423Y-101099254D01*
X189530632Y-100914292D01*
X189530632Y-100725708D01*
X189567423Y-100540746D01*
X189639592Y-100366516D01*
X189744364Y-100209714D01*
X189877714Y-100076364D01*
X190034516Y-99971592D01*
X190208746Y-99899423D01*
X190393708Y-99862632D01*
X190488000Y-99858000D01*
X192012000Y-99858000D01*
X192106292Y-99862632D01*
G37*
G36*
X137242292Y-97322632D02*
G01*
X137427254Y-97359423D01*
X137601484Y-97431592D01*
X137758286Y-97536364D01*
X137891636Y-97669714D01*
X137996408Y-97826516D01*
X138068577Y-98000746D01*
X138105368Y-98185708D01*
X138105368Y-98374292D01*
X138068577Y-98559254D01*
X137996408Y-98733484D01*
X137891636Y-98890286D01*
X137758286Y-99023636D01*
X137601484Y-99128408D01*
X137427254Y-99200577D01*
X137242292Y-99237368D01*
X137148000Y-99242000D01*
X137145536Y-99242000D01*
X135626464Y-99242000D01*
X135624000Y-99242000D01*
X135529708Y-99237368D01*
X135344746Y-99200577D01*
X135170516Y-99128408D01*
X135013714Y-99023636D01*
X134880364Y-98890286D01*
X134775592Y-98733484D01*
X134703423Y-98559254D01*
X134666632Y-98374292D01*
X134666632Y-98185708D01*
X134703423Y-98000746D01*
X134775592Y-97826516D01*
X134880364Y-97669714D01*
X135013714Y-97536364D01*
X135170516Y-97431592D01*
X135344746Y-97359423D01*
X135529708Y-97322632D01*
X135624000Y-97318000D01*
X137148000Y-97318000D01*
X137242292Y-97322632D01*
G37*
G36*
X192106292Y-97322632D02*
G01*
X192291254Y-97359423D01*
X192465484Y-97431592D01*
X192622286Y-97536364D01*
X192755636Y-97669714D01*
X192860408Y-97826516D01*
X192932577Y-98000746D01*
X192969368Y-98185708D01*
X192969368Y-98374292D01*
X192932577Y-98559254D01*
X192860408Y-98733484D01*
X192755636Y-98890286D01*
X192622286Y-99023636D01*
X192465484Y-99128408D01*
X192291254Y-99200577D01*
X192106292Y-99237368D01*
X192012000Y-99242000D01*
X192009536Y-99242000D01*
X190490464Y-99242000D01*
X190488000Y-99242000D01*
X190393708Y-99237368D01*
X190208746Y-99200577D01*
X190034516Y-99128408D01*
X189877714Y-99023636D01*
X189744364Y-98890286D01*
X189639592Y-98733484D01*
X189567423Y-98559254D01*
X189530632Y-98374292D01*
X189530632Y-98185708D01*
X189567423Y-98000746D01*
X189639592Y-97826516D01*
X189744364Y-97669714D01*
X189877714Y-97536364D01*
X190034516Y-97431592D01*
X190208746Y-97359423D01*
X190393708Y-97322632D01*
X190488000Y-97318000D01*
X192012000Y-97318000D01*
X192106292Y-97322632D01*
G37*
G36*
X137242292Y-94782632D02*
G01*
X137427254Y-94819423D01*
X137601484Y-94891592D01*
X137758286Y-94996364D01*
X137891636Y-95129714D01*
X137996408Y-95286516D01*
X138068577Y-95460746D01*
X138105368Y-95645708D01*
X138105368Y-95834292D01*
X138068577Y-96019254D01*
X137996408Y-96193484D01*
X137891636Y-96350286D01*
X137758286Y-96483636D01*
X137601484Y-96588408D01*
X137427254Y-96660577D01*
X137242292Y-96697368D01*
X137148000Y-96702000D01*
X137145536Y-96702000D01*
X135626464Y-96702000D01*
X135624000Y-96702000D01*
X135529708Y-96697368D01*
X135344746Y-96660577D01*
X135170516Y-96588408D01*
X135013714Y-96483636D01*
X134880364Y-96350286D01*
X134775592Y-96193484D01*
X134703423Y-96019254D01*
X134666632Y-95834292D01*
X134666632Y-95645708D01*
X134703423Y-95460746D01*
X134775592Y-95286516D01*
X134880364Y-95129714D01*
X135013714Y-94996364D01*
X135170516Y-94891592D01*
X135344746Y-94819423D01*
X135529708Y-94782632D01*
X135624000Y-94778000D01*
X137148000Y-94778000D01*
X137242292Y-94782632D01*
G37*
G36*
X192106292Y-94782632D02*
G01*
X192291254Y-94819423D01*
X192465484Y-94891592D01*
X192622286Y-94996364D01*
X192755636Y-95129714D01*
X192860408Y-95286516D01*
X192932577Y-95460746D01*
X192969368Y-95645708D01*
X192969368Y-95834292D01*
X192932577Y-96019254D01*
X192860408Y-96193484D01*
X192755636Y-96350286D01*
X192622286Y-96483636D01*
X192465484Y-96588408D01*
X192291254Y-96660577D01*
X192106292Y-96697368D01*
X192012000Y-96702000D01*
X192009536Y-96702000D01*
X190490464Y-96702000D01*
X190488000Y-96702000D01*
X190393708Y-96697368D01*
X190208746Y-96660577D01*
X190034516Y-96588408D01*
X189877714Y-96483636D01*
X189744364Y-96350286D01*
X189639592Y-96193484D01*
X189567423Y-96019254D01*
X189530632Y-95834292D01*
X189530632Y-95645708D01*
X189567423Y-95460746D01*
X189639592Y-95286516D01*
X189744364Y-95129714D01*
X189877714Y-94996364D01*
X190034516Y-94891592D01*
X190208746Y-94819423D01*
X190393708Y-94782632D01*
X190488000Y-94778000D01*
X192012000Y-94778000D01*
X192106292Y-94782632D01*
G37*
G36*
X137242292Y-92242632D02*
G01*
X137427254Y-92279423D01*
X137601484Y-92351592D01*
X137758286Y-92456364D01*
X137891636Y-92589714D01*
X137996408Y-92746516D01*
X138068577Y-92920746D01*
X138105368Y-93105708D01*
X138105368Y-93294292D01*
X138068577Y-93479254D01*
X137996408Y-93653484D01*
X137891636Y-93810286D01*
X137758286Y-93943636D01*
X137601484Y-94048408D01*
X137427254Y-94120577D01*
X137242292Y-94157368D01*
X137148000Y-94162000D01*
X137145536Y-94162000D01*
X135626464Y-94162000D01*
X135624000Y-94162000D01*
X135529708Y-94157368D01*
X135344746Y-94120577D01*
X135170516Y-94048408D01*
X135013714Y-93943636D01*
X134880364Y-93810286D01*
X134775592Y-93653484D01*
X134703423Y-93479254D01*
X134666632Y-93294292D01*
X134666632Y-93105708D01*
X134703423Y-92920746D01*
X134775592Y-92746516D01*
X134880364Y-92589714D01*
X135013714Y-92456364D01*
X135170516Y-92351592D01*
X135344746Y-92279423D01*
X135529708Y-92242632D01*
X135624000Y-92238000D01*
X137148000Y-92238000D01*
X137242292Y-92242632D01*
G37*
G36*
X192106292Y-92242632D02*
G01*
X192291254Y-92279423D01*
X192465484Y-92351592D01*
X192622286Y-92456364D01*
X192755636Y-92589714D01*
X192860408Y-92746516D01*
X192932577Y-92920746D01*
X192969368Y-93105708D01*
X192969368Y-93294292D01*
X192932577Y-93479254D01*
X192860408Y-93653484D01*
X192755636Y-93810286D01*
X192622286Y-93943636D01*
X192465484Y-94048408D01*
X192291254Y-94120577D01*
X192106292Y-94157368D01*
X192012000Y-94162000D01*
X192009536Y-94162000D01*
X190490464Y-94162000D01*
X190488000Y-94162000D01*
X190393708Y-94157368D01*
X190208746Y-94120577D01*
X190034516Y-94048408D01*
X189877714Y-93943636D01*
X189744364Y-93810286D01*
X189639592Y-93653484D01*
X189567423Y-93479254D01*
X189530632Y-93294292D01*
X189530632Y-93105708D01*
X189567423Y-92920746D01*
X189639592Y-92746516D01*
X189744364Y-92589714D01*
X189877714Y-92456364D01*
X190034516Y-92351592D01*
X190208746Y-92279423D01*
X190393708Y-92242632D01*
X190488000Y-92238000D01*
X192012000Y-92238000D01*
X192106292Y-92242632D01*
G37*
G36*
X137242292Y-89702632D02*
G01*
X137427254Y-89739423D01*
X137601484Y-89811592D01*
X137758286Y-89916364D01*
X137891636Y-90049714D01*
X137996408Y-90206516D01*
X138068577Y-90380746D01*
X138105368Y-90565708D01*
X138105368Y-90754292D01*
X138068577Y-90939254D01*
X137996408Y-91113484D01*
X137891636Y-91270286D01*
X137758286Y-91403636D01*
X137601484Y-91508408D01*
X137427254Y-91580577D01*
X137242292Y-91617368D01*
X137148000Y-91622000D01*
X137145536Y-91622000D01*
X135626464Y-91622000D01*
X135624000Y-91622000D01*
X135529708Y-91617368D01*
X135344746Y-91580577D01*
X135170516Y-91508408D01*
X135013714Y-91403636D01*
X134880364Y-91270286D01*
X134775592Y-91113484D01*
X134703423Y-90939254D01*
X134666632Y-90754292D01*
X134666632Y-90565708D01*
X134703423Y-90380746D01*
X134775592Y-90206516D01*
X134880364Y-90049714D01*
X135013714Y-89916364D01*
X135170516Y-89811592D01*
X135344746Y-89739423D01*
X135529708Y-89702632D01*
X135624000Y-89698000D01*
X137148000Y-89698000D01*
X137242292Y-89702632D01*
G37*
G36*
X192106292Y-89702632D02*
G01*
X192291254Y-89739423D01*
X192465484Y-89811592D01*
X192622286Y-89916364D01*
X192755636Y-90049714D01*
X192860408Y-90206516D01*
X192932577Y-90380746D01*
X192969368Y-90565708D01*
X192969368Y-90754292D01*
X192932577Y-90939254D01*
X192860408Y-91113484D01*
X192755636Y-91270286D01*
X192622286Y-91403636D01*
X192465484Y-91508408D01*
X192291254Y-91580577D01*
X192106292Y-91617368D01*
X192012000Y-91622000D01*
X192009536Y-91622000D01*
X190490464Y-91622000D01*
X190488000Y-91622000D01*
X190393708Y-91617368D01*
X190208746Y-91580577D01*
X190034516Y-91508408D01*
X189877714Y-91403636D01*
X189744364Y-91270286D01*
X189639592Y-91113484D01*
X189567423Y-90939254D01*
X189530632Y-90754292D01*
X189530632Y-90565708D01*
X189567423Y-90380746D01*
X189639592Y-90206516D01*
X189744364Y-90049714D01*
X189877714Y-89916364D01*
X190034516Y-89811592D01*
X190208746Y-89739423D01*
X190393708Y-89702632D01*
X190488000Y-89698000D01*
X192012000Y-89698000D01*
X192106292Y-89702632D01*
G37*
G36*
X137242292Y-87162632D02*
G01*
X137427254Y-87199423D01*
X137601484Y-87271592D01*
X137758286Y-87376364D01*
X137891636Y-87509714D01*
X137996408Y-87666516D01*
X138068577Y-87840746D01*
X138105368Y-88025708D01*
X138105368Y-88214292D01*
X138068577Y-88399254D01*
X137996408Y-88573484D01*
X137891636Y-88730286D01*
X137758286Y-88863636D01*
X137601484Y-88968408D01*
X137427254Y-89040577D01*
X137242292Y-89077368D01*
X137148000Y-89082000D01*
X137145536Y-89082000D01*
X135626464Y-89082000D01*
X135624000Y-89082000D01*
X135529708Y-89077368D01*
X135344746Y-89040577D01*
X135170516Y-88968408D01*
X135013714Y-88863636D01*
X134880364Y-88730286D01*
X134775592Y-88573484D01*
X134703423Y-88399254D01*
X134666632Y-88214292D01*
X134666632Y-88025708D01*
X134703423Y-87840746D01*
X134775592Y-87666516D01*
X134880364Y-87509714D01*
X135013714Y-87376364D01*
X135170516Y-87271592D01*
X135344746Y-87199423D01*
X135529708Y-87162632D01*
X135624000Y-87158000D01*
X137148000Y-87158000D01*
X137242292Y-87162632D01*
G37*
G36*
X192106292Y-87162632D02*
G01*
X192291254Y-87199423D01*
X192465484Y-87271592D01*
X192622286Y-87376364D01*
X192755636Y-87509714D01*
X192860408Y-87666516D01*
X192932577Y-87840746D01*
X192969368Y-88025708D01*
X192969368Y-88214292D01*
X192932577Y-88399254D01*
X192860408Y-88573484D01*
X192755636Y-88730286D01*
X192622286Y-88863636D01*
X192465484Y-88968408D01*
X192291254Y-89040577D01*
X192106292Y-89077368D01*
X192012000Y-89082000D01*
X192009536Y-89082000D01*
X190490464Y-89082000D01*
X190488000Y-89082000D01*
X190393708Y-89077368D01*
X190208746Y-89040577D01*
X190034516Y-88968408D01*
X189877714Y-88863636D01*
X189744364Y-88730286D01*
X189639592Y-88573484D01*
X189567423Y-88399254D01*
X189530632Y-88214292D01*
X189530632Y-88025708D01*
X189567423Y-87840746D01*
X189639592Y-87666516D01*
X189744364Y-87509714D01*
X189877714Y-87376364D01*
X190034516Y-87271592D01*
X190208746Y-87199423D01*
X190393708Y-87162632D01*
X190488000Y-87158000D01*
X192012000Y-87158000D01*
X192106292Y-87162632D01*
G37*
G36*
X137242292Y-84622632D02*
G01*
X137427254Y-84659423D01*
X137601484Y-84731592D01*
X137758286Y-84836364D01*
X137891636Y-84969714D01*
X137996408Y-85126516D01*
X138068577Y-85300746D01*
X138105368Y-85485708D01*
X138105368Y-85674292D01*
X138068577Y-85859254D01*
X137996408Y-86033484D01*
X137891636Y-86190286D01*
X137758286Y-86323636D01*
X137601484Y-86428408D01*
X137427254Y-86500577D01*
X137242292Y-86537368D01*
X137148000Y-86542000D01*
X137145536Y-86542000D01*
X135626464Y-86542000D01*
X135624000Y-86542000D01*
X135529708Y-86537368D01*
X135344746Y-86500577D01*
X135170516Y-86428408D01*
X135013714Y-86323636D01*
X134880364Y-86190286D01*
X134775592Y-86033484D01*
X134703423Y-85859254D01*
X134666632Y-85674292D01*
X134666632Y-85485708D01*
X134703423Y-85300746D01*
X134775592Y-85126516D01*
X134880364Y-84969714D01*
X135013714Y-84836364D01*
X135170516Y-84731592D01*
X135344746Y-84659423D01*
X135529708Y-84622632D01*
X135624000Y-84618000D01*
X137148000Y-84618000D01*
X137242292Y-84622632D01*
G37*
G36*
X192106292Y-84622632D02*
G01*
X192291254Y-84659423D01*
X192465484Y-84731592D01*
X192622286Y-84836364D01*
X192755636Y-84969714D01*
X192860408Y-85126516D01*
X192932577Y-85300746D01*
X192969368Y-85485708D01*
X192969368Y-85674292D01*
X192932577Y-85859254D01*
X192860408Y-86033484D01*
X192755636Y-86190286D01*
X192622286Y-86323636D01*
X192465484Y-86428408D01*
X192291254Y-86500577D01*
X192106292Y-86537368D01*
X192012000Y-86542000D01*
X192009536Y-86542000D01*
X190490464Y-86542000D01*
X190488000Y-86542000D01*
X190393708Y-86537368D01*
X190208746Y-86500577D01*
X190034516Y-86428408D01*
X189877714Y-86323636D01*
X189744364Y-86190286D01*
X189639592Y-86033484D01*
X189567423Y-85859254D01*
X189530632Y-85674292D01*
X189530632Y-85485708D01*
X189567423Y-85300746D01*
X189639592Y-85126516D01*
X189744364Y-84969714D01*
X189877714Y-84836364D01*
X190034516Y-84731592D01*
X190208746Y-84659423D01*
X190393708Y-84622632D01*
X190488000Y-84618000D01*
X192012000Y-84618000D01*
X192106292Y-84622632D01*
G37*
G36*
X137242292Y-82082632D02*
G01*
X137427254Y-82119423D01*
X137601484Y-82191592D01*
X137758286Y-82296364D01*
X137891636Y-82429714D01*
X137996408Y-82586516D01*
X138068577Y-82760746D01*
X138105368Y-82945708D01*
X138105368Y-83134292D01*
X138068577Y-83319254D01*
X137996408Y-83493484D01*
X137891636Y-83650286D01*
X137758286Y-83783636D01*
X137601484Y-83888408D01*
X137427254Y-83960577D01*
X137242292Y-83997368D01*
X137148000Y-84002000D01*
X137145536Y-84002000D01*
X135626464Y-84002000D01*
X135624000Y-84002000D01*
X135529708Y-83997368D01*
X135344746Y-83960577D01*
X135170516Y-83888408D01*
X135013714Y-83783636D01*
X134880364Y-83650286D01*
X134775592Y-83493484D01*
X134703423Y-83319254D01*
X134666632Y-83134292D01*
X134666632Y-82945708D01*
X134703423Y-82760746D01*
X134775592Y-82586516D01*
X134880364Y-82429714D01*
X135013714Y-82296364D01*
X135170516Y-82191592D01*
X135344746Y-82119423D01*
X135529708Y-82082632D01*
X135624000Y-82078000D01*
X137148000Y-82078000D01*
X137242292Y-82082632D01*
G37*
G36*
X192106292Y-82082632D02*
G01*
X192291254Y-82119423D01*
X192465484Y-82191592D01*
X192622286Y-82296364D01*
X192755636Y-82429714D01*
X192860408Y-82586516D01*
X192932577Y-82760746D01*
X192969368Y-82945708D01*
X192969368Y-83134292D01*
X192932577Y-83319254D01*
X192860408Y-83493484D01*
X192755636Y-83650286D01*
X192622286Y-83783636D01*
X192465484Y-83888408D01*
X192291254Y-83960577D01*
X192106292Y-83997368D01*
X192012000Y-84002000D01*
X192009536Y-84002000D01*
X190490464Y-84002000D01*
X190488000Y-84002000D01*
X190393708Y-83997368D01*
X190208746Y-83960577D01*
X190034516Y-83888408D01*
X189877714Y-83783636D01*
X189744364Y-83650286D01*
X189639592Y-83493484D01*
X189567423Y-83319254D01*
X189530632Y-83134292D01*
X189530632Y-82945708D01*
X189567423Y-82760746D01*
X189639592Y-82586516D01*
X189744364Y-82429714D01*
X189877714Y-82296364D01*
X190034516Y-82191592D01*
X190208746Y-82119423D01*
X190393708Y-82082632D01*
X190488000Y-82078000D01*
X192012000Y-82078000D01*
X192106292Y-82082632D01*
G37*
G36*
X137242292Y-79542632D02*
G01*
X137427254Y-79579423D01*
X137601484Y-79651592D01*
X137758286Y-79756364D01*
X137891636Y-79889714D01*
X137996408Y-80046516D01*
X138068577Y-80220746D01*
X138105368Y-80405708D01*
X138105368Y-80594292D01*
X138068577Y-80779254D01*
X137996408Y-80953484D01*
X137891636Y-81110286D01*
X137758286Y-81243636D01*
X137601484Y-81348408D01*
X137427254Y-81420577D01*
X137242292Y-81457368D01*
X137148000Y-81462000D01*
X137145536Y-81462000D01*
X135626464Y-81462000D01*
X135624000Y-81462000D01*
X135529708Y-81457368D01*
X135344746Y-81420577D01*
X135170516Y-81348408D01*
X135013714Y-81243636D01*
X134880364Y-81110286D01*
X134775592Y-80953484D01*
X134703423Y-80779254D01*
X134666632Y-80594292D01*
X134666632Y-80405708D01*
X134703423Y-80220746D01*
X134775592Y-80046516D01*
X134880364Y-79889714D01*
X135013714Y-79756364D01*
X135170516Y-79651592D01*
X135344746Y-79579423D01*
X135529708Y-79542632D01*
X135624000Y-79538000D01*
X137148000Y-79538000D01*
X137242292Y-79542632D01*
G37*
G36*
X192106292Y-79542632D02*
G01*
X192291254Y-79579423D01*
X192465484Y-79651592D01*
X192622286Y-79756364D01*
X192755636Y-79889714D01*
X192860408Y-80046516D01*
X192932577Y-80220746D01*
X192969368Y-80405708D01*
X192969368Y-80594292D01*
X192932577Y-80779254D01*
X192860408Y-80953484D01*
X192755636Y-81110286D01*
X192622286Y-81243636D01*
X192465484Y-81348408D01*
X192291254Y-81420577D01*
X192106292Y-81457368D01*
X192012000Y-81462000D01*
X192009536Y-81462000D01*
X190490464Y-81462000D01*
X190488000Y-81462000D01*
X190393708Y-81457368D01*
X190208746Y-81420577D01*
X190034516Y-81348408D01*
X189877714Y-81243636D01*
X189744364Y-81110286D01*
X189639592Y-80953484D01*
X189567423Y-80779254D01*
X189530632Y-80594292D01*
X189530632Y-80405708D01*
X189567423Y-80220746D01*
X189639592Y-80046516D01*
X189744364Y-79889714D01*
X189877714Y-79756364D01*
X190034516Y-79651592D01*
X190208746Y-79579423D01*
X190393708Y-79542632D01*
X190488000Y-79538000D01*
X192012000Y-79538000D01*
X192106292Y-79542632D01*
G37*
G36*
X137242292Y-77002632D02*
G01*
X137427254Y-77039423D01*
X137601484Y-77111592D01*
X137758286Y-77216364D01*
X137891636Y-77349714D01*
X137996408Y-77506516D01*
X138068577Y-77680746D01*
X138105368Y-77865708D01*
X138105368Y-78054292D01*
X138068577Y-78239254D01*
X137996408Y-78413484D01*
X137891636Y-78570286D01*
X137758286Y-78703636D01*
X137601484Y-78808408D01*
X137427254Y-78880577D01*
X137242292Y-78917368D01*
X137148000Y-78922000D01*
X137145536Y-78922000D01*
X135626464Y-78922000D01*
X135624000Y-78922000D01*
X135529708Y-78917368D01*
X135344746Y-78880577D01*
X135170516Y-78808408D01*
X135013714Y-78703636D01*
X134880364Y-78570286D01*
X134775592Y-78413484D01*
X134703423Y-78239254D01*
X134666632Y-78054292D01*
X134666632Y-77865708D01*
X134703423Y-77680746D01*
X134775592Y-77506516D01*
X134880364Y-77349714D01*
X135013714Y-77216364D01*
X135170516Y-77111592D01*
X135344746Y-77039423D01*
X135529708Y-77002632D01*
X135624000Y-76998000D01*
X137148000Y-76998000D01*
X137242292Y-77002632D01*
G37*
G36*
X192106292Y-77002632D02*
G01*
X192291254Y-77039423D01*
X192465484Y-77111592D01*
X192622286Y-77216364D01*
X192755636Y-77349714D01*
X192860408Y-77506516D01*
X192932577Y-77680746D01*
X192969368Y-77865708D01*
X192969368Y-78054292D01*
X192932577Y-78239254D01*
X192860408Y-78413484D01*
X192755636Y-78570286D01*
X192622286Y-78703636D01*
X192465484Y-78808408D01*
X192291254Y-78880577D01*
X192106292Y-78917368D01*
X192012000Y-78922000D01*
X192009536Y-78922000D01*
X190490464Y-78922000D01*
X190488000Y-78922000D01*
X190393708Y-78917368D01*
X190208746Y-78880577D01*
X190034516Y-78808408D01*
X189877714Y-78703636D01*
X189744364Y-78570286D01*
X189639592Y-78413484D01*
X189567423Y-78239254D01*
X189530632Y-78054292D01*
X189530632Y-77865708D01*
X189567423Y-77680746D01*
X189639592Y-77506516D01*
X189744364Y-77349714D01*
X189877714Y-77216364D01*
X190034516Y-77111592D01*
X190208746Y-77039423D01*
X190393708Y-77002632D01*
X190488000Y-76998000D01*
X192012000Y-76998000D01*
X192106292Y-77002632D01*
G37*
G36*
X137242292Y-74462632D02*
G01*
X137427254Y-74499423D01*
X137601484Y-74571592D01*
X137758286Y-74676364D01*
X137891636Y-74809714D01*
X137996408Y-74966516D01*
X138068577Y-75140746D01*
X138105368Y-75325708D01*
X138105368Y-75514292D01*
X138068577Y-75699254D01*
X137996408Y-75873484D01*
X137891636Y-76030286D01*
X137758286Y-76163636D01*
X137601484Y-76268408D01*
X137427254Y-76340577D01*
X137242292Y-76377368D01*
X137148000Y-76382000D01*
X137145536Y-76382000D01*
X135626464Y-76382000D01*
X135624000Y-76382000D01*
X135529708Y-76377368D01*
X135344746Y-76340577D01*
X135170516Y-76268408D01*
X135013714Y-76163636D01*
X134880364Y-76030286D01*
X134775592Y-75873484D01*
X134703423Y-75699254D01*
X134666632Y-75514292D01*
X134666632Y-75325708D01*
X134703423Y-75140746D01*
X134775592Y-74966516D01*
X134880364Y-74809714D01*
X135013714Y-74676364D01*
X135170516Y-74571592D01*
X135344746Y-74499423D01*
X135529708Y-74462632D01*
X135624000Y-74458000D01*
X137148000Y-74458000D01*
X137242292Y-74462632D01*
G37*
G36*
X192106292Y-74462632D02*
G01*
X192291254Y-74499423D01*
X192465484Y-74571592D01*
X192622286Y-74676364D01*
X192755636Y-74809714D01*
X192860408Y-74966516D01*
X192932577Y-75140746D01*
X192969368Y-75325708D01*
X192969368Y-75514292D01*
X192932577Y-75699254D01*
X192860408Y-75873484D01*
X192755636Y-76030286D01*
X192622286Y-76163636D01*
X192465484Y-76268408D01*
X192291254Y-76340577D01*
X192106292Y-76377368D01*
X192012000Y-76382000D01*
X192009536Y-76382000D01*
X190490464Y-76382000D01*
X190488000Y-76382000D01*
X190393708Y-76377368D01*
X190208746Y-76340577D01*
X190034516Y-76268408D01*
X189877714Y-76163636D01*
X189744364Y-76030286D01*
X189639592Y-75873484D01*
X189567423Y-75699254D01*
X189530632Y-75514292D01*
X189530632Y-75325708D01*
X189567423Y-75140746D01*
X189639592Y-74966516D01*
X189744364Y-74809714D01*
X189877714Y-74676364D01*
X190034516Y-74571592D01*
X190208746Y-74499423D01*
X190393708Y-74462632D01*
X190488000Y-74458000D01*
X192012000Y-74458000D01*
X192106292Y-74462632D01*
G37*
G36*
X136651479Y-70725919D02*
G01*
X136845488Y-70788957D01*
X137027248Y-70881568D01*
X137192282Y-71001472D01*
X137336528Y-71145718D01*
X137456432Y-71310752D01*
X137549043Y-71492512D01*
X137612081Y-71686521D01*
X137643993Y-71888003D01*
X137643993Y-72091997D01*
X137612081Y-72293479D01*
X137549043Y-72487488D01*
X137456432Y-72669248D01*
X137336528Y-72834282D01*
X137192282Y-72978528D01*
X137027248Y-73098432D01*
X136845488Y-73191043D01*
X136651479Y-73254081D01*
X136449997Y-73285993D01*
X136246003Y-73285993D01*
X136044521Y-73254081D01*
X135850512Y-73191043D01*
X135668752Y-73098432D01*
X135503718Y-72978528D01*
X135359472Y-72834282D01*
X135239568Y-72669248D01*
X135146957Y-72487488D01*
X135083919Y-72293479D01*
X135052007Y-72091997D01*
X135052007Y-71888003D01*
X135083919Y-71686521D01*
X135146957Y-71492512D01*
X135239568Y-71310752D01*
X135359472Y-71145718D01*
X135503718Y-71001472D01*
X135668752Y-70881568D01*
X135850512Y-70788957D01*
X136044521Y-70725919D01*
X136246003Y-70694007D01*
X136449997Y-70694007D01*
X136651479Y-70725919D01*
G37*
G36*
X191451479Y-70725919D02*
G01*
X191645488Y-70788957D01*
X191827248Y-70881568D01*
X191992282Y-71001472D01*
X192136528Y-71145718D01*
X192256432Y-71310752D01*
X192349043Y-71492512D01*
X192412081Y-71686521D01*
X192443993Y-71888003D01*
X192443993Y-72091997D01*
X192412081Y-72293479D01*
X192349043Y-72487488D01*
X192256432Y-72669248D01*
X192136528Y-72834282D01*
X191992282Y-72978528D01*
X191827248Y-73098432D01*
X191645488Y-73191043D01*
X191451479Y-73254081D01*
X191249997Y-73285993D01*
X191046003Y-73285993D01*
X190844521Y-73254081D01*
X190650512Y-73191043D01*
X190468752Y-73098432D01*
X190303718Y-72978528D01*
X190159472Y-72834282D01*
X190039568Y-72669248D01*
X189946957Y-72487488D01*
X189883919Y-72293479D01*
X189852007Y-72091997D01*
X189852007Y-71888003D01*
X189883919Y-71686521D01*
X189946957Y-71492512D01*
X190039568Y-71310752D01*
X190159472Y-71145718D01*
X190303718Y-71001472D01*
X190468752Y-70881568D01*
X190650512Y-70788957D01*
X190844521Y-70725919D01*
X191046003Y-70694007D01*
X191249997Y-70694007D01*
X191451479Y-70725919D01*
G37*
M02*
