G04 #@! TF.GenerationSoftware,KiCad,Pcbnew,9.0.1*
G04 #@! TF.CreationDate,2025-05-07T17:11:04-04:00*
G04 #@! TF.ProjectId,matrix-protoboard_14x20,6d617472-6978-42d7-9072-6f746f626f61,rev?*
G04 #@! TF.SameCoordinates,Original*
G04 #@! TF.FileFunction,Copper,L1,Top*
G04 #@! TF.FilePolarity,Positive*
%FSLAX46Y46*%
G04 Gerber Fmt 4.6, Leading zero omitted, Abs format (unit mm)*
G04 Created by KiCad (PCBNEW 9.0.1) date 2025-05-07 17:11:04*
%MOMM*%
%LPD*%
G01*
G04 APERTURE LIST*
G04 Aperture macros list*
%AMFreePoly0*
4,1,38,0.000354,0.765354,0.325208,0.440500,0.550000,0.440500,0.550354,0.440354,0.550500,0.440000,0.550354,0.439646,0.350500,0.239792,0.350500,-0.359792,0.550354,-0.559646,0.550500,-0.560000,0.550354,-0.560354,0.550000,-0.560500,0.338500,-0.560500,0.338500,-0.763000,0.338354,-0.763354,0.338000,-0.763500,0.337646,-0.763354,-0.000208,-0.425500,-0.009792,-0.425500,-0.347646,-0.763354,
-0.348000,-0.763500,-0.348354,-0.763354,-0.348500,-0.763000,-0.348500,-0.560500,-0.550000,-0.560500,-0.550354,-0.560354,-0.550500,-0.560000,-0.550354,-0.559646,-0.350500,-0.359792,-0.350500,0.239792,-0.550354,0.439646,-0.550500,0.440000,-0.550354,0.440354,-0.550000,0.440500,-0.325208,0.440500,-0.000354,0.765354,0.000000,0.765500,0.000354,0.765354,0.000354,0.765354,$1*%
%AMFreePoly1*
4,1,28,0.060354,0.560354,0.357208,0.263500,0.583000,0.263500,0.583354,0.263354,0.583500,0.263000,0.583354,0.262646,0.235708,-0.085000,0.582354,-0.431646,0.582500,-0.432000,0.582354,-0.432354,0.582000,-0.432500,0.407500,-0.432500,0.407500,-0.607000,0.407354,-0.607354,0.407000,-0.607500,0.406646,-0.607354,0.060000,-0.260708,-0.287646,-0.608354,-0.288000,-0.608500,-0.288354,-0.608354,
-0.288500,-0.608000,-0.288500,-0.382208,-0.585354,-0.085354,-0.585500,-0.085000,-0.585354,-0.084646,0.059646,0.560354,0.060000,0.560500,0.060354,0.560354,0.060354,0.560354,$1*%
G04 Aperture macros list end*
G04 #@! TA.AperFunction,ComponentPad*
%ADD10C,1.400000*%
G04 #@! TD*
G04 #@! TA.AperFunction,SMDPad,CuDef*
%ADD11FreePoly0,90.000000*%
G04 #@! TD*
G04 #@! TA.AperFunction,SMDPad,CuDef*
%ADD12FreePoly1,0.000000*%
G04 #@! TD*
G04 #@! TA.AperFunction,SMDPad,CuDef*
%ADD13FreePoly0,0.000000*%
G04 #@! TD*
G04 #@! TA.AperFunction,SMDPad,CuDef*
%ADD14O,3.048000X1.524000*%
G04 #@! TD*
G04 APERTURE END LIST*
D10*
X157470000Y-85580000D03*
X157470000Y-75420000D03*
D11*
X152330000Y-86850000D03*
D10*
X152390000Y-90660000D03*
X162550000Y-88120000D03*
D12*
X184080000Y-94385000D03*
X156140000Y-74065000D03*
D10*
X175250000Y-90660000D03*
D12*
X145980000Y-91845000D03*
D10*
X139690000Y-93200000D03*
D11*
X175190000Y-81770000D03*
D13*
X158740000Y-85520000D03*
X166360000Y-90600000D03*
D11*
X182810000Y-99550000D03*
X157410000Y-102090000D03*
D10*
X175250000Y-83040000D03*
D12*
X168840000Y-94385000D03*
D11*
X157410000Y-81770000D03*
X149790000Y-91930000D03*
D10*
X139690000Y-88120000D03*
X149850000Y-93200000D03*
D13*
X158740000Y-77900000D03*
D12*
X158680000Y-86765000D03*
D13*
X151120000Y-77900000D03*
D10*
X147310000Y-95740000D03*
D13*
X140960000Y-82980000D03*
X171440000Y-90600000D03*
X171440000Y-80440000D03*
X184140000Y-88060000D03*
D10*
X172710000Y-77960000D03*
D13*
X153660000Y-85520000D03*
X143500000Y-93140000D03*
X168900000Y-95680000D03*
D12*
X151060000Y-86765000D03*
D11*
X180270000Y-94470000D03*
X142170000Y-76690000D03*
D13*
X171440000Y-77900000D03*
X156200000Y-93140000D03*
D12*
X140900000Y-76605000D03*
D11*
X165030000Y-104630000D03*
D13*
X176520000Y-93140000D03*
D11*
X154870000Y-94470000D03*
X170110000Y-104630000D03*
X157410000Y-99550000D03*
X175190000Y-102090000D03*
X170110000Y-84310000D03*
D10*
X139690000Y-85580000D03*
X170170000Y-98280000D03*
D11*
X185350000Y-84310000D03*
D10*
X149850000Y-105900000D03*
D13*
X143500000Y-100760000D03*
D10*
X160010000Y-100820000D03*
D11*
X175190000Y-84310000D03*
X187890000Y-89390000D03*
D10*
X147310000Y-72880000D03*
D11*
X152330000Y-102090000D03*
D10*
X170170000Y-80500000D03*
D13*
X181600000Y-103300000D03*
X179060000Y-88060000D03*
D10*
X139690000Y-98280000D03*
X170170000Y-75420000D03*
D13*
X176520000Y-80440000D03*
D11*
X185350000Y-74150000D03*
D10*
X157470000Y-90660000D03*
D11*
X142170000Y-81770000D03*
D12*
X181540000Y-91845000D03*
D11*
X187890000Y-102090000D03*
X175190000Y-99550000D03*
X159950000Y-86850000D03*
X170110000Y-102090000D03*
X180270000Y-74150000D03*
D12*
X156140000Y-84225000D03*
D13*
X168900000Y-88060000D03*
D10*
X142230000Y-75420000D03*
D13*
X158740000Y-100760000D03*
D12*
X148520000Y-76605000D03*
D14*
X136386000Y-77960000D03*
D10*
X177790000Y-98280000D03*
D13*
X166360000Y-80440000D03*
D11*
X142170000Y-79230000D03*
D10*
X182870000Y-93200000D03*
D11*
X144710000Y-91930000D03*
D12*
X168840000Y-89305000D03*
D11*
X144710000Y-76690000D03*
D12*
X179000000Y-91845000D03*
D11*
X144710000Y-97010000D03*
D10*
X152390000Y-80500000D03*
D12*
X171380000Y-81685000D03*
D10*
X167630000Y-90660000D03*
D12*
X151060000Y-104545000D03*
X161220000Y-84225000D03*
D10*
X170170000Y-85580000D03*
D11*
X167570000Y-97010000D03*
X182810000Y-91930000D03*
D12*
X151060000Y-79145000D03*
X168840000Y-74065000D03*
X158680000Y-89305000D03*
D10*
X149850000Y-103360000D03*
D13*
X156200000Y-88060000D03*
D10*
X154930000Y-95740000D03*
X149850000Y-95740000D03*
D11*
X172650000Y-91930000D03*
D14*
X136386000Y-85580000D03*
D12*
X186620000Y-99465000D03*
D13*
X176520000Y-95680000D03*
D12*
X173920000Y-86765000D03*
D10*
X160010000Y-93200000D03*
D11*
X147250000Y-76690000D03*
D12*
X181540000Y-96925000D03*
X145980000Y-99465000D03*
D11*
X167570000Y-94470000D03*
D10*
X144770000Y-93200000D03*
X172710000Y-88120000D03*
X170170000Y-88120000D03*
D12*
X171380000Y-84225000D03*
X176460000Y-86765000D03*
D11*
X177730000Y-89390000D03*
D10*
X160010000Y-103360000D03*
D11*
X144710000Y-84310000D03*
D10*
X172710000Y-90660000D03*
X142230000Y-83040000D03*
D11*
X159950000Y-104630000D03*
X172650000Y-84310000D03*
D10*
X165090000Y-80500000D03*
D12*
X156140000Y-89305000D03*
D11*
X170110000Y-91930000D03*
D10*
X162550000Y-105900000D03*
D11*
X165030000Y-81770000D03*
X147250000Y-89390000D03*
X139630000Y-74150000D03*
D12*
X179000000Y-104545000D03*
D13*
X181600000Y-80440000D03*
D11*
X154870000Y-84310000D03*
D10*
X167630000Y-95740000D03*
D14*
X191250000Y-80500000D03*
D13*
X173980000Y-100760000D03*
D12*
X181540000Y-79145000D03*
X166300000Y-96925000D03*
X161220000Y-74065000D03*
D11*
X149790000Y-94470000D03*
D13*
X166360000Y-100760000D03*
D10*
X172710000Y-100820000D03*
X185410000Y-75420000D03*
D11*
X175190000Y-94470000D03*
D13*
X181600000Y-85520000D03*
D11*
X159950000Y-94470000D03*
D10*
X177790000Y-103360000D03*
D11*
X162490000Y-94470000D03*
D13*
X148580000Y-103300000D03*
D14*
X136386000Y-95740000D03*
D11*
X144710000Y-74150000D03*
D12*
X168840000Y-96925000D03*
D11*
X139630000Y-91930000D03*
X159950000Y-79230000D03*
D10*
X157470000Y-95740000D03*
X185410000Y-100820000D03*
D13*
X153660000Y-90600000D03*
D12*
X156140000Y-94385000D03*
D11*
X177730000Y-81770000D03*
X172650000Y-99550000D03*
D10*
X182870000Y-90660000D03*
X167630000Y-103360000D03*
D11*
X182810000Y-102090000D03*
D13*
X156200000Y-85520000D03*
D12*
X148520000Y-74065000D03*
D13*
X153660000Y-100760000D03*
X143500000Y-72820000D03*
X163820000Y-82980000D03*
D11*
X165030000Y-94470000D03*
D12*
X186620000Y-86765000D03*
D14*
X191250000Y-98280000D03*
D13*
X151120000Y-95680000D03*
D10*
X167630000Y-98280000D03*
X180330000Y-90660000D03*
X167630000Y-93200000D03*
X162550000Y-77960000D03*
D11*
X157410000Y-89390000D03*
X152330000Y-99550000D03*
D10*
X180330000Y-72880000D03*
X139690000Y-75420000D03*
D12*
X151060000Y-102005000D03*
X140900000Y-96925000D03*
D11*
X154870000Y-86850000D03*
D12*
X145980000Y-74065000D03*
D13*
X158740000Y-82980000D03*
D10*
X172710000Y-85580000D03*
D11*
X177730000Y-86850000D03*
X144710000Y-94470000D03*
D10*
X157470000Y-100820000D03*
D13*
X173980000Y-72820000D03*
X179060000Y-98220000D03*
D11*
X167570000Y-104630000D03*
D10*
X182870000Y-100820000D03*
D11*
X185350000Y-89390000D03*
D12*
X186620000Y-91845000D03*
D13*
X186680000Y-77900000D03*
D14*
X136386000Y-80500000D03*
D10*
X149850000Y-90660000D03*
D13*
X143500000Y-75360000D03*
D10*
X152390000Y-77960000D03*
D11*
X159950000Y-84310000D03*
D10*
X152390000Y-98280000D03*
X144770000Y-88120000D03*
D14*
X136386000Y-103360000D03*
D10*
X170170000Y-95740000D03*
D12*
X181540000Y-81685000D03*
D10*
X165090000Y-88120000D03*
D13*
X156200000Y-90600000D03*
D10*
X170170000Y-103360000D03*
D12*
X163760000Y-79145000D03*
D11*
X154870000Y-79230000D03*
X175190000Y-86850000D03*
D13*
X176520000Y-88060000D03*
D11*
X149790000Y-74150000D03*
D13*
X161280000Y-77900000D03*
D10*
X160010000Y-83040000D03*
D13*
X148580000Y-80440000D03*
X140960000Y-105840000D03*
D10*
X142230000Y-100820000D03*
X142230000Y-88120000D03*
D11*
X139630000Y-97010000D03*
D10*
X154930000Y-98280000D03*
D13*
X146040000Y-85520000D03*
D11*
X167570000Y-102090000D03*
D13*
X148580000Y-77900000D03*
D12*
X176460000Y-84225000D03*
D13*
X173980000Y-75360000D03*
X156200000Y-95680000D03*
D10*
X180330000Y-98280000D03*
D12*
X173920000Y-91845000D03*
D10*
X152390000Y-93200000D03*
D13*
X166360000Y-85520000D03*
D10*
X144770000Y-75420000D03*
D13*
X140960000Y-93140000D03*
D12*
X181540000Y-89305000D03*
D13*
X186680000Y-93140000D03*
X181600000Y-98220000D03*
D11*
X144710000Y-89390000D03*
X167570000Y-81770000D03*
X154870000Y-97010000D03*
X142170000Y-102090000D03*
D10*
X147310000Y-93200000D03*
D12*
X168840000Y-81685000D03*
X161220000Y-94385000D03*
D10*
X172710000Y-93200000D03*
D13*
X181600000Y-105840000D03*
D11*
X152330000Y-74150000D03*
D10*
X182870000Y-85580000D03*
X160010000Y-80500000D03*
D13*
X179060000Y-82980000D03*
D12*
X161220000Y-81685000D03*
D10*
X177790000Y-72880000D03*
D14*
X191250000Y-75420000D03*
D13*
X171440000Y-98220000D03*
D11*
X154870000Y-104630000D03*
D10*
X152390000Y-103360000D03*
X142230000Y-93200000D03*
D12*
X153600000Y-74065000D03*
D10*
X154930000Y-72880000D03*
D11*
X172650000Y-89390000D03*
D13*
X166360000Y-98220000D03*
X151120000Y-72820000D03*
D12*
X179000000Y-74065000D03*
X171380000Y-99465000D03*
D13*
X184140000Y-85520000D03*
D10*
X177790000Y-95740000D03*
X147310000Y-80500000D03*
D11*
X152330000Y-81770000D03*
D12*
X140900000Y-81685000D03*
D11*
X162490000Y-86850000D03*
D10*
X185410000Y-105900000D03*
X162550000Y-100820000D03*
D12*
X163760000Y-84225000D03*
D10*
X157470000Y-105900000D03*
D11*
X185350000Y-81770000D03*
D10*
X187950000Y-105900000D03*
D11*
X159950000Y-74150000D03*
D12*
X145980000Y-84225000D03*
D10*
X180330000Y-88120000D03*
X149850000Y-72880000D03*
X180330000Y-95740000D03*
X172710000Y-95740000D03*
X154930000Y-88120000D03*
D11*
X154870000Y-99550000D03*
D10*
X177790000Y-105900000D03*
D11*
X172650000Y-81770000D03*
D12*
X179000000Y-94385000D03*
D13*
X156200000Y-80440000D03*
D11*
X187890000Y-97010000D03*
X144710000Y-102090000D03*
D13*
X181600000Y-93140000D03*
D11*
X152330000Y-104630000D03*
D13*
X166360000Y-93140000D03*
D10*
X142230000Y-85580000D03*
D13*
X143500000Y-85520000D03*
X163820000Y-93140000D03*
D14*
X191250000Y-103360000D03*
D13*
X148580000Y-82980000D03*
D11*
X187890000Y-99550000D03*
D13*
X158740000Y-88060000D03*
D12*
X179000000Y-86765000D03*
D13*
X173980000Y-82980000D03*
D12*
X145980000Y-79145000D03*
X181540000Y-84225000D03*
D11*
X177730000Y-76690000D03*
D10*
X149850000Y-88120000D03*
D13*
X179060000Y-90600000D03*
X140960000Y-95680000D03*
X158740000Y-75360000D03*
D12*
X153600000Y-84225000D03*
D13*
X166360000Y-88060000D03*
X161280000Y-85520000D03*
D11*
X165030000Y-74150000D03*
D13*
X168900000Y-77900000D03*
D12*
X161220000Y-96925000D03*
D11*
X165030000Y-102090000D03*
D13*
X186680000Y-105840000D03*
D10*
X187950000Y-103360000D03*
D13*
X148580000Y-93140000D03*
D11*
X162490000Y-102090000D03*
D13*
X146040000Y-105840000D03*
D12*
X173920000Y-102005000D03*
D13*
X176520000Y-82980000D03*
D11*
X170110000Y-74150000D03*
D13*
X163820000Y-88060000D03*
D11*
X180270000Y-76690000D03*
D10*
X142230000Y-98280000D03*
D14*
X136386000Y-75420000D03*
D13*
X173980000Y-77900000D03*
D10*
X182870000Y-103360000D03*
X172710000Y-80500000D03*
X175250000Y-77960000D03*
X172710000Y-98280000D03*
X187950000Y-77960000D03*
D13*
X163820000Y-72820000D03*
X140960000Y-98220000D03*
X151120000Y-88060000D03*
X158740000Y-95680000D03*
D10*
X182870000Y-72880000D03*
X172710000Y-83040000D03*
D13*
X173980000Y-93140000D03*
D11*
X187890000Y-91930000D03*
D13*
X161280000Y-105840000D03*
D12*
X186620000Y-102005000D03*
D10*
X162550000Y-103360000D03*
D11*
X147250000Y-84310000D03*
D13*
X146040000Y-75360000D03*
D11*
X147250000Y-97010000D03*
D12*
X181540000Y-86765000D03*
D14*
X191250000Y-77960000D03*
D12*
X145980000Y-81685000D03*
D11*
X139630000Y-104630000D03*
D10*
X139690000Y-95740000D03*
X187950000Y-75420000D03*
D13*
X158740000Y-93140000D03*
D10*
X139690000Y-100820000D03*
X185410000Y-98280000D03*
D13*
X179060000Y-103300000D03*
D11*
X187890000Y-94470000D03*
D13*
X161280000Y-95680000D03*
X166360000Y-95680000D03*
D14*
X191250000Y-83040000D03*
D10*
X177790000Y-88120000D03*
D12*
X186620000Y-74065000D03*
D11*
X185350000Y-99550000D03*
D13*
X186680000Y-98220000D03*
D12*
X184080000Y-86765000D03*
D14*
X136386000Y-93200000D03*
D12*
X168840000Y-79145000D03*
D11*
X182810000Y-81770000D03*
D10*
X139690000Y-90660000D03*
D13*
X168900000Y-105840000D03*
D10*
X144770000Y-83040000D03*
X147310000Y-77960000D03*
X147310000Y-83040000D03*
D13*
X161280000Y-72820000D03*
D11*
X147250000Y-74150000D03*
D12*
X143440000Y-74065000D03*
D13*
X148580000Y-90600000D03*
D11*
X175190000Y-104630000D03*
X157410000Y-79230000D03*
D10*
X180330000Y-93200000D03*
D11*
X149790000Y-79230000D03*
D10*
X149850000Y-85580000D03*
X144770000Y-72880000D03*
X160010000Y-105900000D03*
D12*
X156140000Y-79145000D03*
D13*
X153660000Y-75360000D03*
D12*
X153600000Y-94385000D03*
D10*
X177790000Y-93200000D03*
D11*
X149790000Y-86850000D03*
X147250000Y-94470000D03*
X162490000Y-76690000D03*
D10*
X149850000Y-83040000D03*
D12*
X143440000Y-104545000D03*
D13*
X173980000Y-98220000D03*
D10*
X180330000Y-75420000D03*
D12*
X161220000Y-102005000D03*
D13*
X156200000Y-103300000D03*
D12*
X148520000Y-84225000D03*
X140900000Y-102005000D03*
D13*
X184140000Y-90600000D03*
D12*
X148520000Y-86765000D03*
X145980000Y-102005000D03*
D13*
X146040000Y-82980000D03*
D10*
X160010000Y-72880000D03*
X142230000Y-103360000D03*
D13*
X173980000Y-80440000D03*
D11*
X147250000Y-91930000D03*
X180270000Y-84310000D03*
D10*
X185410000Y-85580000D03*
D11*
X187890000Y-79230000D03*
X180270000Y-97010000D03*
D12*
X158680000Y-99465000D03*
X179000000Y-84225000D03*
D13*
X156200000Y-72820000D03*
D10*
X180330000Y-103360000D03*
D11*
X182810000Y-86850000D03*
X154870000Y-91930000D03*
X144710000Y-99550000D03*
X167570000Y-89390000D03*
D13*
X140960000Y-90600000D03*
D12*
X168840000Y-86765000D03*
D10*
X167630000Y-75420000D03*
D12*
X171380000Y-91845000D03*
D10*
X172710000Y-105900000D03*
X182870000Y-98280000D03*
D11*
X165030000Y-91930000D03*
D13*
X148580000Y-85520000D03*
D12*
X166300000Y-76605000D03*
X143440000Y-76605000D03*
D11*
X147250000Y-86850000D03*
D12*
X181540000Y-104545000D03*
X184080000Y-79145000D03*
X166300000Y-99465000D03*
D10*
X175250000Y-100820000D03*
D13*
X168900000Y-75360000D03*
D12*
X161220000Y-76605000D03*
X143440000Y-84225000D03*
X176460000Y-76605000D03*
D11*
X187890000Y-84310000D03*
D13*
X171440000Y-88060000D03*
D12*
X171380000Y-74065000D03*
D11*
X180270000Y-81770000D03*
D10*
X144770000Y-95740000D03*
D12*
X158680000Y-84225000D03*
D13*
X153660000Y-82980000D03*
D11*
X177730000Y-104630000D03*
D10*
X142230000Y-95740000D03*
D12*
X161220000Y-89305000D03*
X148520000Y-81685000D03*
D10*
X157470000Y-83040000D03*
D13*
X179060000Y-93140000D03*
D10*
X144770000Y-103360000D03*
D13*
X173980000Y-105840000D03*
X171440000Y-100760000D03*
D11*
X177730000Y-91930000D03*
D13*
X158740000Y-103300000D03*
D12*
X176460000Y-104545000D03*
D11*
X172650000Y-74150000D03*
D10*
X172710000Y-103360000D03*
X154930000Y-90660000D03*
D13*
X163820000Y-103300000D03*
D14*
X136386000Y-98280000D03*
D10*
X165090000Y-98280000D03*
D13*
X148580000Y-75360000D03*
D12*
X140900000Y-89305000D03*
D10*
X160010000Y-85580000D03*
D12*
X184080000Y-81685000D03*
D11*
X154870000Y-81770000D03*
D12*
X176460000Y-74065000D03*
D13*
X158740000Y-98220000D03*
D12*
X143440000Y-86765000D03*
D13*
X166360000Y-105840000D03*
D12*
X151060000Y-94385000D03*
D11*
X157410000Y-104630000D03*
D13*
X156200000Y-82980000D03*
D11*
X180270000Y-104630000D03*
X175190000Y-79230000D03*
D10*
X162550000Y-98280000D03*
D13*
X151120000Y-100760000D03*
X181600000Y-95680000D03*
D11*
X147250000Y-99550000D03*
X177730000Y-97010000D03*
D13*
X166360000Y-72820000D03*
D12*
X148520000Y-104545000D03*
X166300000Y-94385000D03*
D10*
X139690000Y-72880000D03*
D11*
X170110000Y-79230000D03*
D12*
X176460000Y-89305000D03*
X143440000Y-102005000D03*
X148520000Y-79145000D03*
D11*
X139630000Y-84310000D03*
X172650000Y-102090000D03*
D13*
X146040000Y-72820000D03*
D10*
X162550000Y-90660000D03*
D11*
X144710000Y-86850000D03*
D12*
X151060000Y-91845000D03*
D11*
X172650000Y-97010000D03*
D12*
X161220000Y-79145000D03*
D11*
X144710000Y-104630000D03*
D12*
X173920000Y-84225000D03*
D10*
X144770000Y-100820000D03*
X187950000Y-95740000D03*
D11*
X180270000Y-99550000D03*
X185350000Y-104630000D03*
D10*
X187950000Y-85580000D03*
D13*
X148580000Y-100760000D03*
D12*
X156140000Y-99465000D03*
X179000000Y-79145000D03*
D13*
X176520000Y-90600000D03*
D12*
X168840000Y-84225000D03*
D13*
X181600000Y-88060000D03*
D12*
X156140000Y-102005000D03*
X148520000Y-99465000D03*
X176460000Y-79145000D03*
D11*
X187890000Y-104630000D03*
D14*
X191250000Y-90660000D03*
D13*
X148580000Y-95680000D03*
D11*
X165030000Y-79230000D03*
D10*
X175250000Y-85580000D03*
D12*
X163760000Y-102005000D03*
D13*
X171440000Y-82980000D03*
D12*
X163760000Y-89305000D03*
D10*
X144770000Y-80500000D03*
D12*
X143440000Y-99465000D03*
D11*
X170110000Y-81770000D03*
D10*
X139690000Y-80500000D03*
D12*
X173920000Y-94385000D03*
X158680000Y-96925000D03*
D10*
X147310000Y-88120000D03*
X142230000Y-72880000D03*
D11*
X175190000Y-74150000D03*
D13*
X181600000Y-72820000D03*
D12*
X163760000Y-76605000D03*
D10*
X175250000Y-75420000D03*
D13*
X146040000Y-100760000D03*
D11*
X152330000Y-76690000D03*
X162490000Y-84310000D03*
D10*
X147310000Y-105900000D03*
D11*
X177730000Y-94470000D03*
D10*
X152390000Y-100820000D03*
X154930000Y-100820000D03*
D11*
X182810000Y-74150000D03*
D10*
X147310000Y-103360000D03*
X175250000Y-93200000D03*
D13*
X181600000Y-75360000D03*
D10*
X180330000Y-100820000D03*
D13*
X166360000Y-77900000D03*
D11*
X165030000Y-86850000D03*
D12*
X156140000Y-81685000D03*
D10*
X144770000Y-98280000D03*
X167630000Y-85580000D03*
D13*
X163820000Y-90600000D03*
D11*
X142170000Y-97010000D03*
X175190000Y-76690000D03*
D12*
X181540000Y-102005000D03*
D11*
X180270000Y-89390000D03*
D14*
X191250000Y-93200000D03*
X191250000Y-100820000D03*
D13*
X163820000Y-85520000D03*
D12*
X153600000Y-99465000D03*
D13*
X186680000Y-80440000D03*
D10*
X157470000Y-80500000D03*
X165090000Y-83040000D03*
X170170000Y-105900000D03*
D13*
X140960000Y-77900000D03*
X166360000Y-103300000D03*
D11*
X154870000Y-89390000D03*
D13*
X143500000Y-95680000D03*
X163820000Y-98220000D03*
D10*
X162550000Y-83040000D03*
D11*
X157410000Y-76690000D03*
X142170000Y-89390000D03*
X182810000Y-104630000D03*
D10*
X154930000Y-105900000D03*
X175250000Y-98280000D03*
D13*
X156200000Y-98220000D03*
D11*
X187890000Y-86850000D03*
D10*
X152390000Y-85580000D03*
D13*
X186680000Y-88060000D03*
D10*
X152390000Y-105900000D03*
D13*
X179060000Y-85520000D03*
D12*
X171380000Y-94385000D03*
X173920000Y-99465000D03*
D11*
X159950000Y-81770000D03*
X139630000Y-76690000D03*
D12*
X145980000Y-96925000D03*
D10*
X187950000Y-93200000D03*
D12*
X186620000Y-104545000D03*
X171380000Y-76605000D03*
D10*
X154930000Y-83040000D03*
X180330000Y-80500000D03*
D13*
X161280000Y-93140000D03*
D12*
X161220000Y-99465000D03*
D10*
X162550000Y-72880000D03*
D11*
X162490000Y-74150000D03*
D13*
X181600000Y-90600000D03*
D10*
X170170000Y-72880000D03*
D11*
X159950000Y-99550000D03*
D10*
X157470000Y-98280000D03*
X187950000Y-83040000D03*
D12*
X163760000Y-94385000D03*
D11*
X187890000Y-81770000D03*
X162490000Y-104630000D03*
D13*
X146040000Y-98220000D03*
D11*
X172650000Y-104630000D03*
D12*
X186620000Y-81685000D03*
D11*
X175190000Y-97010000D03*
X147250000Y-102090000D03*
D13*
X184140000Y-75360000D03*
X143500000Y-77900000D03*
D10*
X180330000Y-83040000D03*
D11*
X167570000Y-84310000D03*
D12*
X171380000Y-79145000D03*
X166300000Y-91845000D03*
X179000000Y-76605000D03*
X184080000Y-102005000D03*
D13*
X156200000Y-105840000D03*
X186680000Y-100760000D03*
D11*
X157410000Y-91930000D03*
D12*
X179000000Y-99465000D03*
X168840000Y-99465000D03*
D11*
X172650000Y-86850000D03*
D13*
X151120000Y-90600000D03*
X168900000Y-100760000D03*
D12*
X158680000Y-94385000D03*
X168840000Y-91845000D03*
X179000000Y-102005000D03*
D10*
X170170000Y-90660000D03*
D13*
X153660000Y-105840000D03*
D12*
X173920000Y-81685000D03*
X186620000Y-96925000D03*
D10*
X144770000Y-85580000D03*
D12*
X179000000Y-96925000D03*
D10*
X157470000Y-88120000D03*
D13*
X153660000Y-77900000D03*
X143500000Y-103300000D03*
D12*
X173920000Y-79145000D03*
D11*
X177730000Y-84310000D03*
D12*
X171380000Y-104545000D03*
D13*
X143500000Y-98220000D03*
D12*
X173920000Y-76605000D03*
X156140000Y-104545000D03*
D11*
X139630000Y-99550000D03*
D10*
X157470000Y-103360000D03*
X177790000Y-90660000D03*
X167630000Y-100820000D03*
D11*
X142170000Y-86850000D03*
D13*
X151120000Y-75360000D03*
X143500000Y-88060000D03*
D11*
X172650000Y-94470000D03*
D13*
X186680000Y-90600000D03*
D11*
X139630000Y-89390000D03*
D13*
X140960000Y-85520000D03*
D12*
X179000000Y-89305000D03*
D10*
X167630000Y-77960000D03*
D13*
X148580000Y-98220000D03*
D12*
X140900000Y-99465000D03*
D11*
X152330000Y-84310000D03*
D12*
X166300000Y-79145000D03*
X163760000Y-99465000D03*
D13*
X179060000Y-100760000D03*
X140960000Y-80440000D03*
D10*
X182870000Y-88120000D03*
X175250000Y-72880000D03*
D13*
X176520000Y-75360000D03*
D11*
X182810000Y-94470000D03*
X154870000Y-76690000D03*
D13*
X173980000Y-103300000D03*
X179060000Y-80440000D03*
D11*
X152330000Y-79230000D03*
X167570000Y-76690000D03*
D12*
X153600000Y-86765000D03*
X158680000Y-79145000D03*
D11*
X149790000Y-84310000D03*
D10*
X144770000Y-105900000D03*
X147310000Y-75420000D03*
D13*
X151120000Y-85520000D03*
D12*
X168840000Y-102005000D03*
D13*
X179060000Y-77900000D03*
D11*
X147250000Y-79230000D03*
X172650000Y-76690000D03*
D10*
X170170000Y-77960000D03*
D12*
X168840000Y-104545000D03*
D14*
X136386000Y-90660000D03*
D12*
X166300000Y-104545000D03*
D13*
X184140000Y-98220000D03*
D11*
X157410000Y-86850000D03*
X154870000Y-102090000D03*
D10*
X162550000Y-75420000D03*
X142230000Y-80500000D03*
D12*
X153600000Y-96925000D03*
D13*
X153660000Y-88060000D03*
X186680000Y-75360000D03*
D12*
X156140000Y-91845000D03*
X163760000Y-86765000D03*
X179000000Y-81685000D03*
D11*
X177730000Y-99550000D03*
D12*
X181540000Y-99465000D03*
X176460000Y-94385000D03*
X186620000Y-84225000D03*
D11*
X152330000Y-97010000D03*
X165030000Y-99550000D03*
D12*
X158680000Y-104545000D03*
D14*
X191250000Y-95740000D03*
D10*
X162550000Y-85580000D03*
D12*
X140900000Y-91845000D03*
D13*
X179060000Y-95680000D03*
D10*
X185410000Y-95740000D03*
D13*
X168900000Y-85520000D03*
D10*
X152390000Y-95740000D03*
D13*
X148580000Y-105840000D03*
D12*
X153600000Y-81685000D03*
D11*
X182810000Y-89390000D03*
X182810000Y-97010000D03*
X147250000Y-104630000D03*
D12*
X151060000Y-99465000D03*
D13*
X158740000Y-90600000D03*
D11*
X165030000Y-97010000D03*
D13*
X161280000Y-80440000D03*
D12*
X145980000Y-89305000D03*
D10*
X187950000Y-72880000D03*
D11*
X142170000Y-104630000D03*
X162490000Y-99550000D03*
D12*
X158680000Y-76605000D03*
D10*
X165090000Y-90660000D03*
D11*
X170110000Y-94470000D03*
D12*
X181540000Y-74065000D03*
D13*
X146040000Y-103300000D03*
D12*
X148520000Y-102005000D03*
D13*
X153660000Y-72820000D03*
D12*
X145980000Y-86765000D03*
X140900000Y-104545000D03*
D13*
X163820000Y-100760000D03*
X186680000Y-95680000D03*
D10*
X165090000Y-85580000D03*
D13*
X143500000Y-80440000D03*
D12*
X186620000Y-79145000D03*
D13*
X181600000Y-77900000D03*
D12*
X161220000Y-104545000D03*
D14*
X191250000Y-85580000D03*
D13*
X146040000Y-95680000D03*
X166360000Y-82980000D03*
X151120000Y-105840000D03*
X156200000Y-100760000D03*
X140960000Y-75360000D03*
D12*
X151060000Y-74065000D03*
X176460000Y-96925000D03*
D13*
X143500000Y-105840000D03*
D12*
X153600000Y-91845000D03*
D10*
X147310000Y-90660000D03*
D11*
X185350000Y-76690000D03*
X185350000Y-94470000D03*
D13*
X173980000Y-85520000D03*
D12*
X151060000Y-76605000D03*
D10*
X175250000Y-95740000D03*
X152390000Y-83040000D03*
D13*
X146040000Y-88060000D03*
X171440000Y-93140000D03*
X176520000Y-72820000D03*
D12*
X140900000Y-86765000D03*
D10*
X185410000Y-103360000D03*
D11*
X162490000Y-89390000D03*
D12*
X140900000Y-84225000D03*
D13*
X153660000Y-93140000D03*
D10*
X154930000Y-103360000D03*
D11*
X185350000Y-91930000D03*
D10*
X182870000Y-105900000D03*
D12*
X163760000Y-74065000D03*
D10*
X187950000Y-98280000D03*
D11*
X170110000Y-76690000D03*
D12*
X143440000Y-89305000D03*
D13*
X179060000Y-75360000D03*
X181600000Y-82980000D03*
D12*
X173920000Y-74065000D03*
D13*
X143500000Y-82980000D03*
D12*
X151060000Y-84225000D03*
D13*
X171440000Y-75360000D03*
D12*
X166300000Y-81685000D03*
D13*
X146040000Y-80440000D03*
X151120000Y-93140000D03*
D11*
X152330000Y-94470000D03*
D13*
X179060000Y-72820000D03*
D11*
X170110000Y-97010000D03*
D13*
X163820000Y-95680000D03*
D11*
X157410000Y-94470000D03*
D13*
X168900000Y-82980000D03*
X186680000Y-85520000D03*
X176520000Y-105840000D03*
D12*
X186620000Y-76605000D03*
D13*
X153660000Y-98220000D03*
D12*
X158680000Y-102005000D03*
D13*
X186680000Y-72820000D03*
X168900000Y-103300000D03*
D10*
X177790000Y-85580000D03*
D11*
X182810000Y-79230000D03*
D10*
X152390000Y-72880000D03*
X139690000Y-105900000D03*
D13*
X166360000Y-75360000D03*
D10*
X154930000Y-77960000D03*
D12*
X158680000Y-91845000D03*
D11*
X172650000Y-79230000D03*
D13*
X168900000Y-80440000D03*
D11*
X144710000Y-81770000D03*
X162490000Y-91930000D03*
X165030000Y-84310000D03*
D13*
X168900000Y-72820000D03*
D10*
X147310000Y-98280000D03*
D11*
X185350000Y-86850000D03*
D12*
X161220000Y-91845000D03*
D11*
X142170000Y-94470000D03*
D10*
X187950000Y-100820000D03*
D13*
X158740000Y-72820000D03*
D11*
X167570000Y-91930000D03*
X182810000Y-84310000D03*
D10*
X172710000Y-75420000D03*
D11*
X182810000Y-76690000D03*
D13*
X171440000Y-72820000D03*
D10*
X187950000Y-80500000D03*
D12*
X153600000Y-89305000D03*
X158680000Y-74065000D03*
X143440000Y-79145000D03*
D10*
X165090000Y-75420000D03*
D11*
X149790000Y-99550000D03*
D10*
X177790000Y-75420000D03*
D13*
X161280000Y-103300000D03*
D12*
X166300000Y-89305000D03*
X173920000Y-104545000D03*
D11*
X170110000Y-86850000D03*
D10*
X162550000Y-93200000D03*
X180330000Y-85580000D03*
D13*
X176520000Y-77900000D03*
D14*
X136386000Y-83040000D03*
D12*
X148520000Y-89305000D03*
D10*
X139690000Y-77960000D03*
X160010000Y-88120000D03*
D13*
X176520000Y-103300000D03*
D12*
X184080000Y-89305000D03*
D13*
X173980000Y-90600000D03*
D10*
X165090000Y-105900000D03*
D12*
X176460000Y-81685000D03*
D11*
X149790000Y-81770000D03*
D12*
X171380000Y-89305000D03*
X184080000Y-91845000D03*
D11*
X139630000Y-102090000D03*
D13*
X146040000Y-77900000D03*
D11*
X180270000Y-79230000D03*
D13*
X161280000Y-82980000D03*
D12*
X151060000Y-81685000D03*
D13*
X140960000Y-103300000D03*
D11*
X157410000Y-74150000D03*
D13*
X176520000Y-98220000D03*
D11*
X142170000Y-84310000D03*
D13*
X184140000Y-100760000D03*
D11*
X152330000Y-89390000D03*
D10*
X187950000Y-88120000D03*
D13*
X181600000Y-100760000D03*
D10*
X185410000Y-90660000D03*
D13*
X168900000Y-93140000D03*
D10*
X165090000Y-72880000D03*
X160010000Y-90660000D03*
X182870000Y-75420000D03*
D13*
X146040000Y-93140000D03*
D11*
X177730000Y-74150000D03*
X159950000Y-89390000D03*
D10*
X167630000Y-72880000D03*
D12*
X184080000Y-104545000D03*
D10*
X182870000Y-83040000D03*
X160010000Y-98280000D03*
D12*
X145980000Y-76605000D03*
D11*
X180270000Y-86850000D03*
D13*
X148580000Y-72820000D03*
D11*
X149790000Y-89390000D03*
X149790000Y-104630000D03*
D13*
X161280000Y-90600000D03*
D12*
X156140000Y-96925000D03*
D10*
X175250000Y-88120000D03*
D12*
X143440000Y-96925000D03*
D13*
X184140000Y-103300000D03*
D12*
X143440000Y-94385000D03*
D11*
X175190000Y-91930000D03*
D13*
X151120000Y-103300000D03*
D10*
X165090000Y-95740000D03*
D13*
X151120000Y-98220000D03*
D12*
X145980000Y-104545000D03*
X186620000Y-94385000D03*
D11*
X159950000Y-76690000D03*
D12*
X186620000Y-89305000D03*
D10*
X175250000Y-80500000D03*
X162550000Y-80500000D03*
D11*
X167570000Y-99550000D03*
X152330000Y-91930000D03*
D13*
X140960000Y-100760000D03*
D12*
X161220000Y-86765000D03*
D10*
X157470000Y-72880000D03*
D11*
X149790000Y-102090000D03*
X162490000Y-79230000D03*
D10*
X170170000Y-100820000D03*
D12*
X143440000Y-81685000D03*
D13*
X179060000Y-105840000D03*
D11*
X167570000Y-74150000D03*
D13*
X140960000Y-88060000D03*
D12*
X153600000Y-76605000D03*
D13*
X171440000Y-85520000D03*
X184140000Y-93140000D03*
D10*
X185410000Y-77960000D03*
D12*
X140900000Y-79145000D03*
D13*
X184140000Y-80440000D03*
X173980000Y-88060000D03*
D12*
X163760000Y-96925000D03*
D11*
X162490000Y-97010000D03*
X187890000Y-74150000D03*
D10*
X182870000Y-80500000D03*
D11*
X144710000Y-79230000D03*
D10*
X142230000Y-105900000D03*
X165090000Y-103360000D03*
D13*
X171440000Y-105840000D03*
D10*
X167630000Y-83040000D03*
X165090000Y-93200000D03*
D13*
X143500000Y-90600000D03*
D10*
X167630000Y-88120000D03*
D12*
X166300000Y-102005000D03*
D13*
X176520000Y-100760000D03*
X148580000Y-88060000D03*
X161280000Y-75360000D03*
D12*
X153600000Y-79145000D03*
D13*
X161280000Y-100760000D03*
X171440000Y-95680000D03*
D10*
X175250000Y-103360000D03*
X154930000Y-75420000D03*
D11*
X139630000Y-81770000D03*
D10*
X170170000Y-83040000D03*
D11*
X170110000Y-99550000D03*
D12*
X184080000Y-76605000D03*
X166300000Y-74065000D03*
X184080000Y-84225000D03*
D14*
X191250000Y-88120000D03*
D12*
X168840000Y-76605000D03*
X176460000Y-91845000D03*
D13*
X186680000Y-82980000D03*
X163820000Y-105840000D03*
D12*
X166300000Y-86765000D03*
D13*
X156200000Y-75360000D03*
D11*
X185350000Y-79230000D03*
D14*
X136386000Y-88120000D03*
D12*
X153600000Y-104545000D03*
D11*
X162490000Y-81770000D03*
X187890000Y-76690000D03*
D12*
X176460000Y-99465000D03*
X148520000Y-94385000D03*
D10*
X157470000Y-77960000D03*
D13*
X186680000Y-103300000D03*
D12*
X171380000Y-86765000D03*
D11*
X154870000Y-74150000D03*
D12*
X171380000Y-96925000D03*
D11*
X185350000Y-97010000D03*
D10*
X185410000Y-80500000D03*
D12*
X181540000Y-76605000D03*
D11*
X149790000Y-76690000D03*
D12*
X173920000Y-96925000D03*
D13*
X158740000Y-105840000D03*
D10*
X154930000Y-80500000D03*
D13*
X146040000Y-90600000D03*
D10*
X177790000Y-80500000D03*
D12*
X151060000Y-89305000D03*
D10*
X185410000Y-93200000D03*
X149850000Y-80500000D03*
X152390000Y-88120000D03*
X160010000Y-95740000D03*
X144770000Y-77960000D03*
X165090000Y-77960000D03*
X180330000Y-105900000D03*
X149850000Y-100820000D03*
X139690000Y-83040000D03*
X187950000Y-90660000D03*
X172710000Y-72880000D03*
D12*
X163760000Y-104545000D03*
D11*
X165030000Y-76690000D03*
D12*
X148520000Y-96925000D03*
D11*
X147250000Y-81770000D03*
X142170000Y-74150000D03*
X167570000Y-79230000D03*
D13*
X161280000Y-88060000D03*
D11*
X165030000Y-89390000D03*
D10*
X144770000Y-90660000D03*
X149850000Y-75420000D03*
X157470000Y-93200000D03*
D13*
X184140000Y-82980000D03*
D11*
X177730000Y-102090000D03*
D13*
X173980000Y-95680000D03*
X184140000Y-77900000D03*
D10*
X149850000Y-77960000D03*
X177790000Y-77960000D03*
D12*
X140900000Y-94385000D03*
D11*
X139630000Y-94470000D03*
D12*
X153600000Y-102005000D03*
D11*
X157410000Y-97010000D03*
D10*
X162550000Y-95740000D03*
D11*
X185350000Y-102090000D03*
D13*
X184140000Y-105840000D03*
D10*
X185410000Y-88120000D03*
X182870000Y-95740000D03*
X142230000Y-77960000D03*
X154930000Y-85580000D03*
X160010000Y-75420000D03*
X185410000Y-83040000D03*
X182870000Y-77960000D03*
X152390000Y-75420000D03*
X177790000Y-100820000D03*
D11*
X170110000Y-89390000D03*
D12*
X166300000Y-84225000D03*
D13*
X153660000Y-95680000D03*
X163820000Y-77900000D03*
D12*
X163760000Y-81685000D03*
D13*
X168900000Y-98220000D03*
D12*
X158680000Y-81685000D03*
X173920000Y-89305000D03*
D10*
X180330000Y-77960000D03*
D12*
X163760000Y-91845000D03*
D11*
X159950000Y-97010000D03*
D12*
X156140000Y-86765000D03*
D13*
X156200000Y-77900000D03*
D11*
X139630000Y-86850000D03*
D10*
X149850000Y-98280000D03*
D12*
X145980000Y-94385000D03*
D13*
X168900000Y-90600000D03*
D12*
X181540000Y-94385000D03*
D13*
X184140000Y-72820000D03*
X153660000Y-103300000D03*
D11*
X167570000Y-86850000D03*
D10*
X175250000Y-105900000D03*
D14*
X136386000Y-100820000D03*
D10*
X167630000Y-105900000D03*
D11*
X159950000Y-91930000D03*
D13*
X151120000Y-80440000D03*
D11*
X180270000Y-102090000D03*
X139630000Y-79230000D03*
D13*
X158740000Y-80440000D03*
D10*
X165090000Y-100820000D03*
D11*
X142170000Y-99550000D03*
D13*
X184140000Y-95680000D03*
D12*
X140900000Y-74065000D03*
D13*
X163820000Y-80440000D03*
D12*
X184080000Y-96925000D03*
D10*
X139690000Y-103360000D03*
X185410000Y-72880000D03*
D12*
X148520000Y-91845000D03*
X184080000Y-99465000D03*
D13*
X161280000Y-98220000D03*
X153660000Y-80440000D03*
X171440000Y-103300000D03*
D11*
X142170000Y-91930000D03*
D10*
X177790000Y-83040000D03*
D12*
X143440000Y-91845000D03*
D10*
X170170000Y-93200000D03*
D12*
X156140000Y-76605000D03*
D10*
X154930000Y-93200000D03*
D12*
X176460000Y-102005000D03*
D11*
X157410000Y-84310000D03*
D10*
X147310000Y-100820000D03*
D11*
X159950000Y-102090000D03*
D12*
X171380000Y-102005000D03*
D13*
X176520000Y-85520000D03*
D11*
X180270000Y-91930000D03*
D10*
X142230000Y-90660000D03*
X147310000Y-85580000D03*
D13*
X140960000Y-72820000D03*
D11*
X175190000Y-89390000D03*
X177730000Y-79230000D03*
D10*
X167630000Y-80500000D03*
D12*
X151060000Y-96925000D03*
D13*
X151120000Y-82980000D03*
X163820000Y-75360000D03*
D11*
X149790000Y-97010000D03*
D12*
X184080000Y-74065000D03*
D10*
X160010000Y-77960000D03*
M02*
