M48
; DRILL file {KiCad 9.0.1} date 2025-05-07T17:11:07-0400
; FORMAT={-:-/ absolute / inch / decimal}
; #@! TF.CreationDate,2025-05-07T17:11:07-04:00
; #@! TF.GenerationSoftware,Kicad,Pcbnew,9.0.1
; #@! TF.FileFunction,Plated,1,2,PTH
FMAT,2
INCH
; #@! TA.AperFunction,Plated,PTH,ComponentDrill
T1C0.0315
%
G90
G05
T1
X5.4996Y-2.8693
X5.4996Y-2.9693
X5.4996Y-3.0693
X5.4996Y-3.1693
X5.4996Y-3.2693
X5.4996Y-3.3693
X5.4996Y-3.4693
X5.4996Y-3.5693
X5.4996Y-3.6693
X5.4996Y-3.7693
X5.4996Y-3.8693
X5.4996Y-3.9693
X5.4996Y-4.0693
X5.4996Y-4.1693
X5.5996Y-2.8693
X5.5996Y-2.9693
X5.5996Y-3.0693
X5.5996Y-3.1693
X5.5996Y-3.2693
X5.5996Y-3.3693
X5.5996Y-3.4693
X5.5996Y-3.5693
X5.5996Y-3.6693
X5.5996Y-3.7693
X5.5996Y-3.8693
X5.5996Y-3.9693
X5.5996Y-4.0693
X5.5996Y-4.1693
X5.6996Y-2.8693
X5.6996Y-2.9693
X5.6996Y-3.0693
X5.6996Y-3.1693
X5.6996Y-3.2693
X5.6996Y-3.3693
X5.6996Y-3.4693
X5.6996Y-3.5693
X5.6996Y-3.6693
X5.6996Y-3.7693
X5.6996Y-3.8693
X5.6996Y-3.9693
X5.6996Y-4.0693
X5.6996Y-4.1693
X5.7996Y-2.8693
X5.7996Y-2.9693
X5.7996Y-3.0693
X5.7996Y-3.1693
X5.7996Y-3.2693
X5.7996Y-3.3693
X5.7996Y-3.4693
X5.7996Y-3.5693
X5.7996Y-3.6693
X5.7996Y-3.7693
X5.7996Y-3.8693
X5.7996Y-3.9693
X5.7996Y-4.0693
X5.7996Y-4.1693
X5.8996Y-2.8693
X5.8996Y-2.9693
X5.8996Y-3.0693
X5.8996Y-3.1693
X5.8996Y-3.2693
X5.8996Y-3.3693
X5.8996Y-3.4693
X5.8996Y-3.5693
X5.8996Y-3.6693
X5.8996Y-3.7693
X5.8996Y-3.8693
X5.8996Y-3.9693
X5.8996Y-4.0693
X5.8996Y-4.1693
X5.9996Y-2.8693
X5.9996Y-2.9693
X5.9996Y-3.0693
X5.9996Y-3.1693
X5.9996Y-3.2693
X5.9996Y-3.3693
X5.9996Y-3.4693
X5.9996Y-3.5693
X5.9996Y-3.6693
X5.9996Y-3.7693
X5.9996Y-3.8693
X5.9996Y-3.9693
X5.9996Y-4.0693
X5.9996Y-4.1693
X6.0996Y-2.8693
X6.0996Y-2.9693
X6.0996Y-3.0693
X6.0996Y-3.1693
X6.0996Y-3.2693
X6.0996Y-3.3693
X6.0996Y-3.4693
X6.0996Y-3.5693
X6.0996Y-3.6693
X6.0996Y-3.7693
X6.0996Y-3.8693
X6.0996Y-3.9693
X6.0996Y-4.0693
X6.0996Y-4.1693
X6.1996Y-2.8693
X6.1996Y-2.9693
X6.1996Y-3.0693
X6.1996Y-3.1693
X6.1996Y-3.2693
X6.1996Y-3.3693
X6.1996Y-3.4693
X6.1996Y-3.5693
X6.1996Y-3.6693
X6.1996Y-3.7693
X6.1996Y-3.8693
X6.1996Y-3.9693
X6.1996Y-4.0693
X6.1996Y-4.1693
X6.2996Y-2.8693
X6.2996Y-2.9693
X6.2996Y-3.0693
X6.2996Y-3.1693
X6.2996Y-3.2693
X6.2996Y-3.3693
X6.2996Y-3.4693
X6.2996Y-3.5693
X6.2996Y-3.6693
X6.2996Y-3.7693
X6.2996Y-3.8693
X6.2996Y-3.9693
X6.2996Y-4.0693
X6.2996Y-4.1693
X6.3996Y-2.8693
X6.3996Y-2.9693
X6.3996Y-3.0693
X6.3996Y-3.1693
X6.3996Y-3.2693
X6.3996Y-3.3693
X6.3996Y-3.4693
X6.3996Y-3.5693
X6.3996Y-3.6693
X6.3996Y-3.7693
X6.3996Y-3.8693
X6.3996Y-3.9693
X6.3996Y-4.0693
X6.3996Y-4.1693
X6.4996Y-2.8693
X6.4996Y-2.9693
X6.4996Y-3.0693
X6.4996Y-3.1693
X6.4996Y-3.2693
X6.4996Y-3.3693
X6.4996Y-3.4693
X6.4996Y-3.5693
X6.4996Y-3.6693
X6.4996Y-3.7693
X6.4996Y-3.8693
X6.4996Y-3.9693
X6.4996Y-4.0693
X6.4996Y-4.1693
X6.5996Y-2.8693
X6.5996Y-2.9693
X6.5996Y-3.0693
X6.5996Y-3.1693
X6.5996Y-3.2693
X6.5996Y-3.3693
X6.5996Y-3.4693
X6.5996Y-3.5693
X6.5996Y-3.6693
X6.5996Y-3.7693
X6.5996Y-3.8693
X6.5996Y-3.9693
X6.5996Y-4.0693
X6.5996Y-4.1693
X6.6996Y-2.8693
X6.6996Y-2.9693
X6.6996Y-3.0693
X6.6996Y-3.1693
X6.6996Y-3.2693
X6.6996Y-3.3693
X6.6996Y-3.4693
X6.6996Y-3.5693
X6.6996Y-3.6693
X6.6996Y-3.7693
X6.6996Y-3.8693
X6.6996Y-3.9693
X6.6996Y-4.0693
X6.6996Y-4.1693
X6.7996Y-2.8693
X6.7996Y-2.9693
X6.7996Y-3.0693
X6.7996Y-3.1693
X6.7996Y-3.2693
X6.7996Y-3.3693
X6.7996Y-3.4693
X6.7996Y-3.5693
X6.7996Y-3.6693
X6.7996Y-3.7693
X6.7996Y-3.8693
X6.7996Y-3.9693
X6.7996Y-4.0693
X6.7996Y-4.1693
X6.8996Y-2.8693
X6.8996Y-2.9693
X6.8996Y-3.0693
X6.8996Y-3.1693
X6.8996Y-3.2693
X6.8996Y-3.3693
X6.8996Y-3.4693
X6.8996Y-3.5693
X6.8996Y-3.6693
X6.8996Y-3.7693
X6.8996Y-3.8693
X6.8996Y-3.9693
X6.8996Y-4.0693
X6.8996Y-4.1693
X6.9996Y-2.8693
X6.9996Y-2.9693
X6.9996Y-3.0693
X6.9996Y-3.1693
X6.9996Y-3.2693
X6.9996Y-3.3693
X6.9996Y-3.4693
X6.9996Y-3.5693
X6.9996Y-3.6693
X6.9996Y-3.7693
X6.9996Y-3.8693
X6.9996Y-3.9693
X6.9996Y-4.0693
X6.9996Y-4.1693
X7.0996Y-2.8693
X7.0996Y-2.9693
X7.0996Y-3.0693
X7.0996Y-3.1693
X7.0996Y-3.2693
X7.0996Y-3.3693
X7.0996Y-3.4693
X7.0996Y-3.5693
X7.0996Y-3.6693
X7.0996Y-3.7693
X7.0996Y-3.8693
X7.0996Y-3.9693
X7.0996Y-4.0693
X7.0996Y-4.1693
X7.1996Y-2.8693
X7.1996Y-2.9693
X7.1996Y-3.0693
X7.1996Y-3.1693
X7.1996Y-3.2693
X7.1996Y-3.3693
X7.1996Y-3.4693
X7.1996Y-3.5693
X7.1996Y-3.6693
X7.1996Y-3.7693
X7.1996Y-3.8693
X7.1996Y-3.9693
X7.1996Y-4.0693
X7.1996Y-4.1693
X7.2996Y-2.8693
X7.2996Y-2.9693
X7.2996Y-3.0693
X7.2996Y-3.1693
X7.2996Y-3.2693
X7.2996Y-3.3693
X7.2996Y-3.4693
X7.2996Y-3.5693
X7.2996Y-3.6693
X7.2996Y-3.7693
X7.2996Y-3.8693
X7.2996Y-3.9693
X7.2996Y-4.0693
X7.2996Y-4.1693
X7.3996Y-2.8693
X7.3996Y-2.9693
X7.3996Y-3.0693
X7.3996Y-3.1693
X7.3996Y-3.2693
X7.3996Y-3.3693
X7.3996Y-3.4693
X7.3996Y-3.5693
X7.3996Y-3.6693
X7.3996Y-3.7693
X7.3996Y-3.8693
X7.3996Y-3.9693
X7.3996Y-4.0693
X7.3996Y-4.1693
M30
