M48
; DRILL file {KiCad 9.0.1} date 2025-05-06T23:50:31-0400
; FORMAT={-:-/ absolute / inch / decimal}
; #@! TF.CreationDate,2025-05-06T23:50:31-04:00
; #@! TF.GenerationSoftware,Kicad,Pcbnew,9.0.1
; #@! TF.FileFunction,Plated,1,2,PTH
FMAT,2
INCH
; #@! TA.AperFunction,Plated,PTH,ViaDrill
T1C0.0360
%
G90
G05
T1
X4.2862Y-2.9626
X4.2862Y-3.0626
X4.2862Y-3.1626
X4.2862Y-3.2626
X4.2862Y-3.3626
X4.2862Y-3.4626
X4.2862Y-3.5626
X4.2862Y-3.6626
X4.2862Y-3.7626
X4.2862Y-3.8626
X4.2862Y-3.9626
X4.2862Y-4.0626
X4.2862Y-4.1626
X4.2862Y-4.2626
X4.2862Y-4.3626
X4.2862Y-4.4626
X4.2862Y-4.5626
X4.2862Y-4.6626
X4.3862Y-2.9626
X4.3862Y-3.0626
X4.3862Y-3.1626
X4.3862Y-3.2626
X4.3862Y-3.3626
X4.3862Y-3.4626
X4.3862Y-3.5626
X4.3862Y-3.6626
X4.3862Y-3.7626
X4.3862Y-3.8626
X4.3862Y-3.9626
X4.3862Y-4.0626
X4.3862Y-4.1626
X4.3862Y-4.2626
X4.3862Y-4.3626
X4.3862Y-4.4626
X4.3862Y-4.5626
X4.3862Y-4.6626
X4.4862Y-2.9626
X4.4862Y-3.0626
X4.4862Y-3.1626
X4.4862Y-3.2626
X4.4862Y-3.3626
X4.4862Y-3.4626
X4.4862Y-3.5626
X4.4862Y-3.6626
X4.4862Y-3.7626
X4.4862Y-3.8626
X4.4862Y-3.9626
X4.4862Y-4.0626
X4.4862Y-4.1626
X4.4862Y-4.2626
X4.4862Y-4.3626
X4.4862Y-4.4626
X4.4862Y-4.5626
X4.4862Y-4.6626
X4.5862Y-2.9626
X4.5862Y-3.0626
X4.5862Y-3.1626
X4.5862Y-3.2626
X4.5862Y-3.3626
X4.5862Y-3.4626
X4.5862Y-3.5626
X4.5862Y-3.6626
X4.5862Y-3.7626
X4.5862Y-3.8626
X4.5862Y-3.9626
X4.5862Y-4.0626
X4.5862Y-4.1626
X4.5862Y-4.2626
X4.5862Y-4.3626
X4.5862Y-4.4626
X4.5862Y-4.5626
X4.5862Y-4.6626
X4.6862Y-2.9626
X4.6862Y-3.0626
X4.6862Y-3.1626
X4.6862Y-3.2626
X4.6862Y-3.3626
X4.6862Y-3.4626
X4.6862Y-3.5626
X4.6862Y-3.6626
X4.6862Y-3.7626
X4.6862Y-3.8626
X4.6862Y-3.9626
X4.6862Y-4.0626
X4.6862Y-4.1626
X4.6862Y-4.2626
X4.6862Y-4.3626
X4.6862Y-4.4626
X4.6862Y-4.5626
X4.6862Y-4.6626
X4.7862Y-2.9626
X4.7862Y-3.0626
X4.7862Y-3.1626
X4.7862Y-3.2626
X4.7862Y-3.3626
X4.7862Y-3.4626
X4.7862Y-3.5626
X4.7862Y-3.6626
X4.7862Y-3.7626
X4.7862Y-3.8626
X4.7862Y-3.9626
X4.7862Y-4.0626
X4.7862Y-4.1626
X4.7862Y-4.2626
X4.7862Y-4.3626
X4.7862Y-4.4626
X4.7862Y-4.5626
X4.7862Y-4.6626
X4.8862Y-2.9626
X4.8862Y-3.0626
X4.8862Y-3.1626
X4.8862Y-3.2626
X4.8862Y-3.3626
X4.8862Y-3.4626
X4.8862Y-3.5626
X4.8862Y-3.6626
X4.8862Y-3.7626
X4.8862Y-3.8626
X4.8862Y-3.9626
X4.8862Y-4.0626
X4.8862Y-4.1626
X4.8862Y-4.2626
X4.8862Y-4.3626
X4.8862Y-4.4626
X4.8862Y-4.5626
X4.8862Y-4.6626
X4.9862Y-2.9626
X4.9862Y-3.0626
X4.9862Y-3.1626
X4.9862Y-3.2626
X4.9862Y-3.3626
X4.9862Y-3.4626
X4.9862Y-3.5626
X4.9862Y-3.6626
X4.9862Y-3.7626
X4.9862Y-3.8626
X4.9862Y-3.9626
X4.9862Y-4.0626
X4.9862Y-4.1626
X4.9862Y-4.2626
X4.9862Y-4.3626
X4.9862Y-4.4626
X4.9862Y-4.5626
X4.9862Y-4.6626
X5.0862Y-2.9626
X5.0862Y-3.0626
X5.0862Y-3.1626
X5.0862Y-3.2626
X5.0862Y-3.3626
X5.0862Y-3.4626
X5.0862Y-3.5626
X5.0862Y-3.6626
X5.0862Y-3.7626
X5.0862Y-3.8626
X5.0862Y-3.9626
X5.0862Y-4.0626
X5.0862Y-4.1626
X5.0862Y-4.2626
X5.0862Y-4.3626
X5.0862Y-4.4626
X5.0862Y-4.5626
X5.0862Y-4.6626
X5.1862Y-2.9626
X5.1862Y-3.0626
X5.1862Y-3.1626
X5.1862Y-3.2626
X5.1862Y-3.3626
X5.1862Y-3.4626
X5.1862Y-3.5626
X5.1862Y-3.6626
X5.1862Y-3.7626
X5.1862Y-3.8626
X5.1862Y-3.9626
X5.1862Y-4.0626
X5.1862Y-4.1626
X5.1862Y-4.2626
X5.1862Y-4.3626
X5.1862Y-4.4626
X5.1862Y-4.5626
X5.1862Y-4.6626
X5.2862Y-2.9626
X5.2862Y-3.0626
X5.2862Y-3.1626
X5.2862Y-3.2626
X5.2862Y-3.3626
X5.2862Y-3.4626
X5.2862Y-3.5626
X5.2862Y-3.6626
X5.2862Y-3.7626
X5.2862Y-3.8626
X5.2862Y-3.9626
X5.2862Y-4.0626
X5.2862Y-4.1626
X5.2862Y-4.2626
X5.2862Y-4.3626
X5.2862Y-4.4626
X5.2862Y-4.5626
X5.2862Y-4.6626
X5.3862Y-2.9626
X5.3862Y-3.0626
X5.3862Y-3.1626
X5.3862Y-3.2626
X5.3862Y-3.3626
X5.3862Y-3.4626
X5.3862Y-3.5626
X5.3862Y-3.6626
X5.3862Y-3.7626
X5.3862Y-3.8626
X5.3862Y-3.9626
X5.3862Y-4.0626
X5.3862Y-4.1626
X5.3862Y-4.2626
X5.3862Y-4.3626
X5.3862Y-4.4626
X5.3862Y-4.5626
X5.3862Y-4.6626
X5.4862Y-2.9626
X5.4862Y-3.0626
X5.4862Y-3.1626
X5.4862Y-3.2626
X5.4862Y-3.3626
X5.4862Y-3.4626
X5.4862Y-3.5626
X5.4862Y-3.6626
X5.4862Y-3.7626
X5.4862Y-3.8626
X5.4862Y-3.9626
X5.4862Y-4.0626
X5.4862Y-4.1626
X5.4862Y-4.2626
X5.4862Y-4.3626
X5.4862Y-4.4626
X5.4862Y-4.5626
X5.4862Y-4.6626
X5.5862Y-2.9626
X5.5862Y-3.0626
X5.5862Y-3.1626
X5.5862Y-3.2626
X5.5862Y-3.3626
X5.5862Y-3.4626
X5.5862Y-3.5626
X5.5862Y-3.6626
X5.5862Y-3.7626
X5.5862Y-3.8626
X5.5862Y-3.9626
X5.5862Y-4.0626
X5.5862Y-4.1626
X5.5862Y-4.2626
X5.5862Y-4.3626
X5.5862Y-4.4626
X5.5862Y-4.5626
X5.5862Y-4.6626
X5.6862Y-2.9626
X5.6862Y-3.0626
X5.6862Y-3.1626
X5.6862Y-3.2626
X5.6862Y-3.3626
X5.6862Y-3.4626
X5.6862Y-3.5626
X5.6862Y-3.6626
X5.6862Y-3.7626
X5.6862Y-3.8626
X5.6862Y-3.9626
X5.6862Y-4.0626
X5.6862Y-4.1626
X5.6862Y-4.2626
X5.6862Y-4.3626
X5.6862Y-4.4626
X5.6862Y-4.5626
X5.6862Y-4.6626
X5.7862Y-2.9626
X5.7862Y-3.0626
X5.7862Y-3.1626
X5.7862Y-3.2626
X5.7862Y-3.3626
X5.7862Y-3.4626
X5.7862Y-3.5626
X5.7862Y-3.6626
X5.7862Y-3.7626
X5.7862Y-3.8626
X5.7862Y-3.9626
X5.7862Y-4.0626
X5.7862Y-4.1626
X5.7862Y-4.2626
X5.7862Y-4.3626
X5.7862Y-4.4626
X5.7862Y-4.5626
X5.7862Y-4.6626
X5.8862Y-2.9626
X5.8862Y-3.0626
X5.8862Y-3.1626
X5.8862Y-3.2626
X5.8862Y-3.3626
X5.8862Y-3.4626
X5.8862Y-3.5626
X5.8862Y-3.6626
X5.8862Y-3.7626
X5.8862Y-3.8626
X5.8862Y-3.9626
X5.8862Y-4.0626
X5.8862Y-4.1626
X5.8862Y-4.2626
X5.8862Y-4.3626
X5.8862Y-4.4626
X5.8862Y-4.5626
X5.8862Y-4.6626
X5.9862Y-2.9626
X5.9862Y-3.0626
X5.9862Y-3.1626
X5.9862Y-3.2626
X5.9862Y-3.3626
X5.9862Y-3.4626
X5.9862Y-3.5626
X5.9862Y-3.6626
X5.9862Y-3.7626
X5.9862Y-3.8626
X5.9862Y-3.9626
X5.9862Y-4.0626
X5.9862Y-4.1626
X5.9862Y-4.2626
X5.9862Y-4.3626
X5.9862Y-4.4626
X5.9862Y-4.5626
X5.9862Y-4.6626
X6.0862Y-2.9626
X6.0862Y-3.0626
X6.0862Y-3.1626
X6.0862Y-3.2626
X6.0862Y-3.3626
X6.0862Y-3.4626
X6.0862Y-3.5626
X6.0862Y-3.6626
X6.0862Y-3.7626
X6.0862Y-3.8626
X6.0862Y-3.9626
X6.0862Y-4.0626
X6.0862Y-4.1626
X6.0862Y-4.2626
X6.0862Y-4.3626
X6.0862Y-4.4626
X6.0862Y-4.5626
X6.0862Y-4.6626
X6.1862Y-2.9626
X6.1862Y-3.0626
X6.1862Y-3.1626
X6.1862Y-3.2626
X6.1862Y-3.3626
X6.1862Y-3.4626
X6.1862Y-3.5626
X6.1862Y-3.6626
X6.1862Y-3.7626
X6.1862Y-3.8626
X6.1862Y-3.9626
X6.1862Y-4.0626
X6.1862Y-4.1626
X6.1862Y-4.2626
X6.1862Y-4.3626
X6.1862Y-4.4626
X6.1862Y-4.5626
X6.1862Y-4.6626
X6.2862Y-2.9626
X6.2862Y-3.0626
X6.2862Y-3.1626
X6.2862Y-3.2626
X6.2862Y-3.3626
X6.2862Y-3.4626
X6.2862Y-3.5626
X6.2862Y-3.6626
X6.2862Y-3.7626
X6.2862Y-3.8626
X6.2862Y-3.9626
X6.2862Y-4.0626
X6.2862Y-4.1626
X6.2862Y-4.2626
X6.2862Y-4.3626
X6.2862Y-4.4626
X6.2862Y-4.5626
X6.2862Y-4.6626
X6.3862Y-2.9626
X6.3862Y-3.0626
X6.3862Y-3.1626
X6.3862Y-3.2626
X6.3862Y-3.3626
X6.3862Y-3.4626
X6.3862Y-3.5626
X6.3862Y-3.6626
X6.3862Y-3.7626
X6.3862Y-3.8626
X6.3862Y-3.9626
X6.3862Y-4.0626
X6.3862Y-4.1626
X6.3862Y-4.2626
X6.3862Y-4.3626
X6.3862Y-4.4626
X6.3862Y-4.5626
X6.3862Y-4.6626
X6.4862Y-2.9626
X6.4862Y-3.0626
X6.4862Y-3.1626
X6.4862Y-3.2626
X6.4862Y-3.3626
X6.4862Y-3.4626
X6.4862Y-3.5626
X6.4862Y-3.6626
X6.4862Y-3.7626
X6.4862Y-3.8626
X6.4862Y-3.9626
X6.4862Y-4.0626
X6.4862Y-4.1626
X6.4862Y-4.2626
X6.4862Y-4.3626
X6.4862Y-4.4626
X6.4862Y-4.5626
X6.4862Y-4.6626
X6.5862Y-2.9626
X6.5862Y-3.0626
X6.5862Y-3.1626
X6.5862Y-3.2626
X6.5862Y-3.3626
X6.5862Y-3.4626
X6.5862Y-3.5626
X6.5862Y-3.6626
X6.5862Y-3.7626
X6.5862Y-3.8626
X6.5862Y-3.9626
X6.5862Y-4.0626
X6.5862Y-4.1626
X6.5862Y-4.2626
X6.5862Y-4.3626
X6.5862Y-4.4626
X6.5862Y-4.5626
X6.5862Y-4.6626
M30
