%TF.GenerationSoftware,KiCad,Pcbnew,9.0.1*%
%TF.CreationDate,2025-05-06T23:50:29-04:00*%
%TF.ProjectId,classic-protoboard_18x24,636c6173-7369-4632-9d70-726f746f626f,rev?*%
%TF.SameCoordinates,Original*%
%TF.FileFunction,Legend,Bot*%
%TF.FilePolarity,Positive*%
%FSLAX46Y46*%
G04 Gerber Fmt 4.6, Leading zero omitted, Abs format (unit mm)*
G04 Created by KiCad (PCBNEW 9.0.1) date 2025-05-06 23:50:29*
%MOMM*%
%LPD*%
G01*
G04 APERTURE LIST*
%ADD10C,0.200000*%
%ADD11C,0.150000*%
%ADD12C,0.127000*%
%ADD13C,0.156250*%
%ADD14C,2.300000*%
%ADD15O,3.148000X1.624000*%
%ADD16C,1.624000*%
G04 APERTURE END LIST*
D10*
X151015713Y-92113504D02*
X151101427Y-92151600D01*
X151101427Y-92151600D02*
X151358570Y-92189695D01*
X151358570Y-92189695D02*
X151529998Y-92189695D01*
X151529998Y-92189695D02*
X151787141Y-92151600D01*
X151787141Y-92151600D02*
X151958570Y-92075409D01*
X151958570Y-92075409D02*
X152044284Y-91999219D01*
X152044284Y-91999219D02*
X152129998Y-91846838D01*
X152129998Y-91846838D02*
X152129998Y-91732552D01*
X152129998Y-91732552D02*
X152044284Y-91580171D01*
X152044284Y-91580171D02*
X151958570Y-91503980D01*
X151958570Y-91503980D02*
X151787141Y-91427790D01*
X151787141Y-91427790D02*
X151529998Y-91389695D01*
X151529998Y-91389695D02*
X151358570Y-91389695D01*
X151358570Y-91389695D02*
X151101427Y-91427790D01*
X151101427Y-91427790D02*
X151015713Y-91465885D01*
X149987141Y-92189695D02*
X150158570Y-92151600D01*
X150158570Y-92151600D02*
X150244284Y-92075409D01*
X150244284Y-92075409D02*
X150244284Y-91389695D01*
X148529999Y-92189695D02*
X148529999Y-91770647D01*
X148529999Y-91770647D02*
X148615713Y-91694457D01*
X148615713Y-91694457D02*
X148787141Y-91656361D01*
X148787141Y-91656361D02*
X149129999Y-91656361D01*
X149129999Y-91656361D02*
X149301427Y-91694457D01*
X148529999Y-92151600D02*
X148701427Y-92189695D01*
X148701427Y-92189695D02*
X149129999Y-92189695D01*
X149129999Y-92189695D02*
X149301427Y-92151600D01*
X149301427Y-92151600D02*
X149387141Y-92075409D01*
X149387141Y-92075409D02*
X149387141Y-91999219D01*
X149387141Y-91999219D02*
X149301427Y-91923028D01*
X149301427Y-91923028D02*
X149129999Y-91884933D01*
X149129999Y-91884933D02*
X148701427Y-91884933D01*
X148701427Y-91884933D02*
X148529999Y-91846838D01*
X147758570Y-92151600D02*
X147587142Y-92189695D01*
X147587142Y-92189695D02*
X147244285Y-92189695D01*
X147244285Y-92189695D02*
X147072856Y-92151600D01*
X147072856Y-92151600D02*
X146987142Y-92075409D01*
X146987142Y-92075409D02*
X146987142Y-92037314D01*
X146987142Y-92037314D02*
X147072856Y-91961123D01*
X147072856Y-91961123D02*
X147244285Y-91923028D01*
X147244285Y-91923028D02*
X147501428Y-91923028D01*
X147501428Y-91923028D02*
X147672856Y-91884933D01*
X147672856Y-91884933D02*
X147758570Y-91808742D01*
X147758570Y-91808742D02*
X147758570Y-91770647D01*
X147758570Y-91770647D02*
X147672856Y-91694457D01*
X147672856Y-91694457D02*
X147501428Y-91656361D01*
X147501428Y-91656361D02*
X147244285Y-91656361D01*
X147244285Y-91656361D02*
X147072856Y-91694457D01*
X146301427Y-92151600D02*
X146129999Y-92189695D01*
X146129999Y-92189695D02*
X145787142Y-92189695D01*
X145787142Y-92189695D02*
X145615713Y-92151600D01*
X145615713Y-92151600D02*
X145529999Y-92075409D01*
X145529999Y-92075409D02*
X145529999Y-92037314D01*
X145529999Y-92037314D02*
X145615713Y-91961123D01*
X145615713Y-91961123D02*
X145787142Y-91923028D01*
X145787142Y-91923028D02*
X146044285Y-91923028D01*
X146044285Y-91923028D02*
X146215713Y-91884933D01*
X146215713Y-91884933D02*
X146301427Y-91808742D01*
X146301427Y-91808742D02*
X146301427Y-91770647D01*
X146301427Y-91770647D02*
X146215713Y-91694457D01*
X146215713Y-91694457D02*
X146044285Y-91656361D01*
X146044285Y-91656361D02*
X145787142Y-91656361D01*
X145787142Y-91656361D02*
X145615713Y-91694457D01*
X144758570Y-92189695D02*
X144758570Y-91656361D01*
X144758570Y-91389695D02*
X144844284Y-91427790D01*
X144844284Y-91427790D02*
X144758570Y-91465885D01*
X144758570Y-91465885D02*
X144672856Y-91427790D01*
X144672856Y-91427790D02*
X144758570Y-91389695D01*
X144758570Y-91389695D02*
X144758570Y-91465885D01*
X143129999Y-92151600D02*
X143301427Y-92189695D01*
X143301427Y-92189695D02*
X143644284Y-92189695D01*
X143644284Y-92189695D02*
X143815713Y-92151600D01*
X143815713Y-92151600D02*
X143901427Y-92113504D01*
X143901427Y-92113504D02*
X143987141Y-92037314D01*
X143987141Y-92037314D02*
X143987141Y-91808742D01*
X143987141Y-91808742D02*
X143901427Y-91732552D01*
X143901427Y-91732552D02*
X143815713Y-91694457D01*
X143815713Y-91694457D02*
X143644284Y-91656361D01*
X143644284Y-91656361D02*
X143301427Y-91656361D01*
X143301427Y-91656361D02*
X143129999Y-91694457D01*
X140987141Y-92189695D02*
X140987141Y-91389695D01*
X140987141Y-91389695D02*
X140301427Y-91389695D01*
X140301427Y-91389695D02*
X140129998Y-91427790D01*
X140129998Y-91427790D02*
X140044284Y-91465885D01*
X140044284Y-91465885D02*
X139958570Y-91542076D01*
X139958570Y-91542076D02*
X139958570Y-91656361D01*
X139958570Y-91656361D02*
X140044284Y-91732552D01*
X140044284Y-91732552D02*
X140129998Y-91770647D01*
X140129998Y-91770647D02*
X140301427Y-91808742D01*
X140301427Y-91808742D02*
X140987141Y-91808742D01*
X139187141Y-92189695D02*
X139187141Y-91656361D01*
X139187141Y-91808742D02*
X139101427Y-91732552D01*
X139101427Y-91732552D02*
X139015713Y-91694457D01*
X139015713Y-91694457D02*
X138844284Y-91656361D01*
X138844284Y-91656361D02*
X138672855Y-91656361D01*
X137815712Y-92189695D02*
X137987141Y-92151600D01*
X137987141Y-92151600D02*
X138072855Y-92113504D01*
X138072855Y-92113504D02*
X138158569Y-92037314D01*
X138158569Y-92037314D02*
X138158569Y-91808742D01*
X138158569Y-91808742D02*
X138072855Y-91732552D01*
X138072855Y-91732552D02*
X137987141Y-91694457D01*
X137987141Y-91694457D02*
X137815712Y-91656361D01*
X137815712Y-91656361D02*
X137558569Y-91656361D01*
X137558569Y-91656361D02*
X137387141Y-91694457D01*
X137387141Y-91694457D02*
X137301427Y-91732552D01*
X137301427Y-91732552D02*
X137215712Y-91808742D01*
X137215712Y-91808742D02*
X137215712Y-92037314D01*
X137215712Y-92037314D02*
X137301427Y-92113504D01*
X137301427Y-92113504D02*
X137387141Y-92151600D01*
X137387141Y-92151600D02*
X137558569Y-92189695D01*
X137558569Y-92189695D02*
X137815712Y-92189695D01*
X136701427Y-91656361D02*
X136015713Y-91656361D01*
X136444284Y-91389695D02*
X136444284Y-92075409D01*
X136444284Y-92075409D02*
X136358570Y-92151600D01*
X136358570Y-92151600D02*
X136187141Y-92189695D01*
X136187141Y-92189695D02*
X136015713Y-92189695D01*
X135158570Y-92189695D02*
X135329999Y-92151600D01*
X135329999Y-92151600D02*
X135415713Y-92113504D01*
X135415713Y-92113504D02*
X135501427Y-92037314D01*
X135501427Y-92037314D02*
X135501427Y-91808742D01*
X135501427Y-91808742D02*
X135415713Y-91732552D01*
X135415713Y-91732552D02*
X135329999Y-91694457D01*
X135329999Y-91694457D02*
X135158570Y-91656361D01*
X135158570Y-91656361D02*
X134901427Y-91656361D01*
X134901427Y-91656361D02*
X134729999Y-91694457D01*
X134729999Y-91694457D02*
X134644285Y-91732552D01*
X134644285Y-91732552D02*
X134558570Y-91808742D01*
X134558570Y-91808742D02*
X134558570Y-92037314D01*
X134558570Y-92037314D02*
X134644285Y-92113504D01*
X134644285Y-92113504D02*
X134729999Y-92151600D01*
X134729999Y-92151600D02*
X134901427Y-92189695D01*
X134901427Y-92189695D02*
X135158570Y-92189695D01*
X133787142Y-92189695D02*
X133787142Y-91389695D01*
X133787142Y-91694457D02*
X133615714Y-91656361D01*
X133615714Y-91656361D02*
X133272856Y-91656361D01*
X133272856Y-91656361D02*
X133101428Y-91694457D01*
X133101428Y-91694457D02*
X133015714Y-91732552D01*
X133015714Y-91732552D02*
X132929999Y-91808742D01*
X132929999Y-91808742D02*
X132929999Y-92037314D01*
X132929999Y-92037314D02*
X133015714Y-92113504D01*
X133015714Y-92113504D02*
X133101428Y-92151600D01*
X133101428Y-92151600D02*
X133272856Y-92189695D01*
X133272856Y-92189695D02*
X133615714Y-92189695D01*
X133615714Y-92189695D02*
X133787142Y-92151600D01*
X131901428Y-92189695D02*
X132072857Y-92151600D01*
X132072857Y-92151600D02*
X132158571Y-92113504D01*
X132158571Y-92113504D02*
X132244285Y-92037314D01*
X132244285Y-92037314D02*
X132244285Y-91808742D01*
X132244285Y-91808742D02*
X132158571Y-91732552D01*
X132158571Y-91732552D02*
X132072857Y-91694457D01*
X132072857Y-91694457D02*
X131901428Y-91656361D01*
X131901428Y-91656361D02*
X131644285Y-91656361D01*
X131644285Y-91656361D02*
X131472857Y-91694457D01*
X131472857Y-91694457D02*
X131387143Y-91732552D01*
X131387143Y-91732552D02*
X131301428Y-91808742D01*
X131301428Y-91808742D02*
X131301428Y-92037314D01*
X131301428Y-92037314D02*
X131387143Y-92113504D01*
X131387143Y-92113504D02*
X131472857Y-92151600D01*
X131472857Y-92151600D02*
X131644285Y-92189695D01*
X131644285Y-92189695D02*
X131901428Y-92189695D01*
X129758572Y-92189695D02*
X129758572Y-91770647D01*
X129758572Y-91770647D02*
X129844286Y-91694457D01*
X129844286Y-91694457D02*
X130015714Y-91656361D01*
X130015714Y-91656361D02*
X130358572Y-91656361D01*
X130358572Y-91656361D02*
X130530000Y-91694457D01*
X129758572Y-92151600D02*
X129930000Y-92189695D01*
X129930000Y-92189695D02*
X130358572Y-92189695D01*
X130358572Y-92189695D02*
X130530000Y-92151600D01*
X130530000Y-92151600D02*
X130615714Y-92075409D01*
X130615714Y-92075409D02*
X130615714Y-91999219D01*
X130615714Y-91999219D02*
X130530000Y-91923028D01*
X130530000Y-91923028D02*
X130358572Y-91884933D01*
X130358572Y-91884933D02*
X129930000Y-91884933D01*
X129930000Y-91884933D02*
X129758572Y-91846838D01*
X128901429Y-92189695D02*
X128901429Y-91656361D01*
X128901429Y-91808742D02*
X128815715Y-91732552D01*
X128815715Y-91732552D02*
X128730001Y-91694457D01*
X128730001Y-91694457D02*
X128558572Y-91656361D01*
X128558572Y-91656361D02*
X128387143Y-91656361D01*
X127015715Y-92189695D02*
X127015715Y-91389695D01*
X127015715Y-92151600D02*
X127187143Y-92189695D01*
X127187143Y-92189695D02*
X127530000Y-92189695D01*
X127530000Y-92189695D02*
X127701429Y-92151600D01*
X127701429Y-92151600D02*
X127787143Y-92113504D01*
X127787143Y-92113504D02*
X127872857Y-92037314D01*
X127872857Y-92037314D02*
X127872857Y-91808742D01*
X127872857Y-91808742D02*
X127787143Y-91732552D01*
X127787143Y-91732552D02*
X127701429Y-91694457D01*
X127701429Y-91694457D02*
X127530000Y-91656361D01*
X127530000Y-91656361D02*
X127187143Y-91656361D01*
X127187143Y-91656361D02*
X127015715Y-91694457D01*
D11*
X116751904Y-121159819D02*
X116751904Y-120159819D01*
X116751904Y-120159819D02*
X116513809Y-120159819D01*
X116513809Y-120159819D02*
X116370952Y-120207438D01*
X116370952Y-120207438D02*
X116275714Y-120302676D01*
X116275714Y-120302676D02*
X116228095Y-120397914D01*
X116228095Y-120397914D02*
X116180476Y-120588390D01*
X116180476Y-120588390D02*
X116180476Y-120731247D01*
X116180476Y-120731247D02*
X116228095Y-120921723D01*
X116228095Y-120921723D02*
X116275714Y-121016961D01*
X116275714Y-121016961D02*
X116370952Y-121112200D01*
X116370952Y-121112200D02*
X116513809Y-121159819D01*
X116513809Y-121159819D02*
X116751904Y-121159819D01*
D12*
X168275406Y-102940904D02*
X168275406Y-102989285D01*
X168275406Y-102989285D02*
X168299596Y-103037666D01*
X168299596Y-103037666D02*
X168323787Y-103061856D01*
X168323787Y-103061856D02*
X168372168Y-103086047D01*
X168372168Y-103086047D02*
X168468930Y-103110237D01*
X168468930Y-103110237D02*
X168589882Y-103110237D01*
X168589882Y-103110237D02*
X168686644Y-103086047D01*
X168686644Y-103086047D02*
X168735025Y-103061856D01*
X168735025Y-103061856D02*
X168759216Y-103037666D01*
X168759216Y-103037666D02*
X168783406Y-102989285D01*
X168783406Y-102989285D02*
X168783406Y-102940904D01*
X168783406Y-102940904D02*
X168759216Y-102892523D01*
X168759216Y-102892523D02*
X168735025Y-102868332D01*
X168735025Y-102868332D02*
X168686644Y-102844142D01*
X168686644Y-102844142D02*
X168589882Y-102819951D01*
X168589882Y-102819951D02*
X168468930Y-102819951D01*
X168468930Y-102819951D02*
X168372168Y-102844142D01*
X168372168Y-102844142D02*
X168323787Y-102868332D01*
X168323787Y-102868332D02*
X168299596Y-102892523D01*
X168299596Y-102892523D02*
X168275406Y-102940904D01*
X168275406Y-103545666D02*
X168275406Y-103448904D01*
X168275406Y-103448904D02*
X168299596Y-103400523D01*
X168299596Y-103400523D02*
X168323787Y-103376333D01*
X168323787Y-103376333D02*
X168396358Y-103327952D01*
X168396358Y-103327952D02*
X168493120Y-103303761D01*
X168493120Y-103303761D02*
X168686644Y-103303761D01*
X168686644Y-103303761D02*
X168735025Y-103327952D01*
X168735025Y-103327952D02*
X168759216Y-103352142D01*
X168759216Y-103352142D02*
X168783406Y-103400523D01*
X168783406Y-103400523D02*
X168783406Y-103497285D01*
X168783406Y-103497285D02*
X168759216Y-103545666D01*
X168759216Y-103545666D02*
X168735025Y-103569857D01*
X168735025Y-103569857D02*
X168686644Y-103594047D01*
X168686644Y-103594047D02*
X168565692Y-103594047D01*
X168565692Y-103594047D02*
X168517311Y-103569857D01*
X168517311Y-103569857D02*
X168493120Y-103545666D01*
X168493120Y-103545666D02*
X168468930Y-103497285D01*
X168468930Y-103497285D02*
X168468930Y-103400523D01*
X168468930Y-103400523D02*
X168493120Y-103352142D01*
X168493120Y-103352142D02*
X168517311Y-103327952D01*
X168517311Y-103327952D02*
X168565692Y-103303761D01*
X107376593Y-116001762D02*
X107376593Y-116292048D01*
X107376593Y-116146905D02*
X107884593Y-116146905D01*
X107884593Y-116146905D02*
X107812022Y-116195286D01*
X107812022Y-116195286D02*
X107763641Y-116243667D01*
X107763641Y-116243667D02*
X107739450Y-116292048D01*
X107884593Y-115566333D02*
X107884593Y-115663095D01*
X107884593Y-115663095D02*
X107860403Y-115711476D01*
X107860403Y-115711476D02*
X107836212Y-115735666D01*
X107836212Y-115735666D02*
X107763641Y-115784047D01*
X107763641Y-115784047D02*
X107666879Y-115808238D01*
X107666879Y-115808238D02*
X107473355Y-115808238D01*
X107473355Y-115808238D02*
X107424974Y-115784047D01*
X107424974Y-115784047D02*
X107400784Y-115759857D01*
X107400784Y-115759857D02*
X107376593Y-115711476D01*
X107376593Y-115711476D02*
X107376593Y-115614714D01*
X107376593Y-115614714D02*
X107400784Y-115566333D01*
X107400784Y-115566333D02*
X107424974Y-115542142D01*
X107424974Y-115542142D02*
X107473355Y-115517952D01*
X107473355Y-115517952D02*
X107594307Y-115517952D01*
X107594307Y-115517952D02*
X107642688Y-115542142D01*
X107642688Y-115542142D02*
X107666879Y-115566333D01*
X107666879Y-115566333D02*
X107691069Y-115614714D01*
X107691069Y-115614714D02*
X107691069Y-115711476D01*
X107691069Y-115711476D02*
X107666879Y-115759857D01*
X107666879Y-115759857D02*
X107642688Y-115784047D01*
X107642688Y-115784047D02*
X107594307Y-115808238D01*
X168783406Y-82790237D02*
X168783406Y-82499951D01*
X168783406Y-82645094D02*
X168275406Y-82645094D01*
X168275406Y-82645094D02*
X168347977Y-82596713D01*
X168347977Y-82596713D02*
X168396358Y-82548332D01*
X168396358Y-82548332D02*
X168420549Y-82499951D01*
X168444739Y-83225666D02*
X168783406Y-83225666D01*
X168251216Y-83104714D02*
X168614073Y-82983761D01*
X168614073Y-82983761D02*
X168614073Y-83298238D01*
D13*
X148037142Y-117515779D02*
X148108570Y-117553875D01*
X148108570Y-117553875D02*
X148322856Y-117591970D01*
X148322856Y-117591970D02*
X148465713Y-117591970D01*
X148465713Y-117591970D02*
X148679999Y-117553875D01*
X148679999Y-117553875D02*
X148822856Y-117477684D01*
X148822856Y-117477684D02*
X148894285Y-117401494D01*
X148894285Y-117401494D02*
X148965713Y-117249113D01*
X148965713Y-117249113D02*
X148965713Y-117134827D01*
X148965713Y-117134827D02*
X148894285Y-116982446D01*
X148894285Y-116982446D02*
X148822856Y-116906255D01*
X148822856Y-116906255D02*
X148679999Y-116830065D01*
X148679999Y-116830065D02*
X148465713Y-116791970D01*
X148465713Y-116791970D02*
X148322856Y-116791970D01*
X148322856Y-116791970D02*
X148108570Y-116830065D01*
X148108570Y-116830065D02*
X148037142Y-116868160D01*
X147394285Y-117515779D02*
X147322856Y-117553875D01*
X147322856Y-117553875D02*
X147394285Y-117591970D01*
X147394285Y-117591970D02*
X147465713Y-117553875D01*
X147465713Y-117553875D02*
X147394285Y-117515779D01*
X147394285Y-117515779D02*
X147394285Y-117591970D01*
X146179999Y-117172922D02*
X145965713Y-117211017D01*
X145965713Y-117211017D02*
X145894284Y-117249113D01*
X145894284Y-117249113D02*
X145822856Y-117325303D01*
X145822856Y-117325303D02*
X145822856Y-117439589D01*
X145822856Y-117439589D02*
X145894284Y-117515779D01*
X145894284Y-117515779D02*
X145965713Y-117553875D01*
X145965713Y-117553875D02*
X146108570Y-117591970D01*
X146108570Y-117591970D02*
X146679999Y-117591970D01*
X146679999Y-117591970D02*
X146679999Y-116791970D01*
X146679999Y-116791970D02*
X146179999Y-116791970D01*
X146179999Y-116791970D02*
X146037142Y-116830065D01*
X146037142Y-116830065D02*
X145965713Y-116868160D01*
X145965713Y-116868160D02*
X145894284Y-116944351D01*
X145894284Y-116944351D02*
X145894284Y-117020541D01*
X145894284Y-117020541D02*
X145965713Y-117096732D01*
X145965713Y-117096732D02*
X146037142Y-117134827D01*
X146037142Y-117134827D02*
X146179999Y-117172922D01*
X146179999Y-117172922D02*
X146679999Y-117172922D01*
X145179999Y-117591970D02*
X145179999Y-117058636D01*
X145179999Y-117211017D02*
X145108570Y-117134827D01*
X145108570Y-117134827D02*
X145037142Y-117096732D01*
X145037142Y-117096732D02*
X144894284Y-117058636D01*
X144894284Y-117058636D02*
X144751427Y-117058636D01*
X144037142Y-117591970D02*
X144179999Y-117553875D01*
X144179999Y-117553875D02*
X144251428Y-117515779D01*
X144251428Y-117515779D02*
X144322856Y-117439589D01*
X144322856Y-117439589D02*
X144322856Y-117211017D01*
X144322856Y-117211017D02*
X144251428Y-117134827D01*
X144251428Y-117134827D02*
X144179999Y-117096732D01*
X144179999Y-117096732D02*
X144037142Y-117058636D01*
X144037142Y-117058636D02*
X143822856Y-117058636D01*
X143822856Y-117058636D02*
X143679999Y-117096732D01*
X143679999Y-117096732D02*
X143608571Y-117134827D01*
X143608571Y-117134827D02*
X143537142Y-117211017D01*
X143537142Y-117211017D02*
X143537142Y-117439589D01*
X143537142Y-117439589D02*
X143608571Y-117515779D01*
X143608571Y-117515779D02*
X143679999Y-117553875D01*
X143679999Y-117553875D02*
X143822856Y-117591970D01*
X143822856Y-117591970D02*
X144037142Y-117591970D01*
X142679999Y-117591970D02*
X142822856Y-117553875D01*
X142822856Y-117553875D02*
X142894285Y-117515779D01*
X142894285Y-117515779D02*
X142965713Y-117439589D01*
X142965713Y-117439589D02*
X142965713Y-117211017D01*
X142965713Y-117211017D02*
X142894285Y-117134827D01*
X142894285Y-117134827D02*
X142822856Y-117096732D01*
X142822856Y-117096732D02*
X142679999Y-117058636D01*
X142679999Y-117058636D02*
X142465713Y-117058636D01*
X142465713Y-117058636D02*
X142322856Y-117096732D01*
X142322856Y-117096732D02*
X142251428Y-117134827D01*
X142251428Y-117134827D02*
X142179999Y-117211017D01*
X142179999Y-117211017D02*
X142179999Y-117439589D01*
X142179999Y-117439589D02*
X142251428Y-117515779D01*
X142251428Y-117515779D02*
X142322856Y-117553875D01*
X142322856Y-117553875D02*
X142465713Y-117591970D01*
X142465713Y-117591970D02*
X142679999Y-117591970D01*
X141537142Y-117591970D02*
X141537142Y-116791970D01*
X141394285Y-117287208D02*
X140965713Y-117591970D01*
X140965713Y-117058636D02*
X141537142Y-117363398D01*
X140394284Y-117553875D02*
X140251427Y-117591970D01*
X140251427Y-117591970D02*
X139965713Y-117591970D01*
X139965713Y-117591970D02*
X139822856Y-117553875D01*
X139822856Y-117553875D02*
X139751427Y-117477684D01*
X139751427Y-117477684D02*
X139751427Y-117439589D01*
X139751427Y-117439589D02*
X139822856Y-117363398D01*
X139822856Y-117363398D02*
X139965713Y-117325303D01*
X139965713Y-117325303D02*
X140179999Y-117325303D01*
X140179999Y-117325303D02*
X140322856Y-117287208D01*
X140322856Y-117287208D02*
X140394284Y-117211017D01*
X140394284Y-117211017D02*
X140394284Y-117172922D01*
X140394284Y-117172922D02*
X140322856Y-117096732D01*
X140322856Y-117096732D02*
X140179999Y-117058636D01*
X140179999Y-117058636D02*
X139965713Y-117058636D01*
X139965713Y-117058636D02*
X139822856Y-117096732D01*
X138037141Y-116868160D02*
X137965713Y-116830065D01*
X137965713Y-116830065D02*
X137822856Y-116791970D01*
X137822856Y-116791970D02*
X137465713Y-116791970D01*
X137465713Y-116791970D02*
X137322856Y-116830065D01*
X137322856Y-116830065D02*
X137251427Y-116868160D01*
X137251427Y-116868160D02*
X137179998Y-116944351D01*
X137179998Y-116944351D02*
X137179998Y-117020541D01*
X137179998Y-117020541D02*
X137251427Y-117134827D01*
X137251427Y-117134827D02*
X138108570Y-117591970D01*
X138108570Y-117591970D02*
X137179998Y-117591970D01*
X136251427Y-116791970D02*
X136108570Y-116791970D01*
X136108570Y-116791970D02*
X135965713Y-116830065D01*
X135965713Y-116830065D02*
X135894285Y-116868160D01*
X135894285Y-116868160D02*
X135822856Y-116944351D01*
X135822856Y-116944351D02*
X135751427Y-117096732D01*
X135751427Y-117096732D02*
X135751427Y-117287208D01*
X135751427Y-117287208D02*
X135822856Y-117439589D01*
X135822856Y-117439589D02*
X135894285Y-117515779D01*
X135894285Y-117515779D02*
X135965713Y-117553875D01*
X135965713Y-117553875D02*
X136108570Y-117591970D01*
X136108570Y-117591970D02*
X136251427Y-117591970D01*
X136251427Y-117591970D02*
X136394285Y-117553875D01*
X136394285Y-117553875D02*
X136465713Y-117515779D01*
X136465713Y-117515779D02*
X136537142Y-117439589D01*
X136537142Y-117439589D02*
X136608570Y-117287208D01*
X136608570Y-117287208D02*
X136608570Y-117096732D01*
X136608570Y-117096732D02*
X136537142Y-116944351D01*
X136537142Y-116944351D02*
X136465713Y-116868160D01*
X136465713Y-116868160D02*
X136394285Y-116830065D01*
X136394285Y-116830065D02*
X136251427Y-116791970D01*
X135179999Y-116868160D02*
X135108571Y-116830065D01*
X135108571Y-116830065D02*
X134965714Y-116791970D01*
X134965714Y-116791970D02*
X134608571Y-116791970D01*
X134608571Y-116791970D02*
X134465714Y-116830065D01*
X134465714Y-116830065D02*
X134394285Y-116868160D01*
X134394285Y-116868160D02*
X134322856Y-116944351D01*
X134322856Y-116944351D02*
X134322856Y-117020541D01*
X134322856Y-117020541D02*
X134394285Y-117134827D01*
X134394285Y-117134827D02*
X135251428Y-117591970D01*
X135251428Y-117591970D02*
X134322856Y-117591970D01*
X132965714Y-116791970D02*
X133680000Y-116791970D01*
X133680000Y-116791970D02*
X133751428Y-117172922D01*
X133751428Y-117172922D02*
X133680000Y-117134827D01*
X133680000Y-117134827D02*
X133537143Y-117096732D01*
X133537143Y-117096732D02*
X133180000Y-117096732D01*
X133180000Y-117096732D02*
X133037143Y-117134827D01*
X133037143Y-117134827D02*
X132965714Y-117172922D01*
X132965714Y-117172922D02*
X132894285Y-117249113D01*
X132894285Y-117249113D02*
X132894285Y-117439589D01*
X132894285Y-117439589D02*
X132965714Y-117515779D01*
X132965714Y-117515779D02*
X133037143Y-117553875D01*
X133037143Y-117553875D02*
X133180000Y-117591970D01*
X133180000Y-117591970D02*
X133537143Y-117591970D01*
X133537143Y-117591970D02*
X133680000Y-117553875D01*
X133680000Y-117553875D02*
X133751428Y-117515779D01*
D12*
X168783406Y-92950237D02*
X168783406Y-92659951D01*
X168783406Y-92805094D02*
X168275406Y-92805094D01*
X168275406Y-92805094D02*
X168347977Y-92756713D01*
X168347977Y-92756713D02*
X168396358Y-92708332D01*
X168396358Y-92708332D02*
X168420549Y-92659951D01*
X168275406Y-93264714D02*
X168275406Y-93313095D01*
X168275406Y-93313095D02*
X168299596Y-93361476D01*
X168299596Y-93361476D02*
X168323787Y-93385666D01*
X168323787Y-93385666D02*
X168372168Y-93409857D01*
X168372168Y-93409857D02*
X168468930Y-93434047D01*
X168468930Y-93434047D02*
X168589882Y-93434047D01*
X168589882Y-93434047D02*
X168686644Y-93409857D01*
X168686644Y-93409857D02*
X168735025Y-93385666D01*
X168735025Y-93385666D02*
X168759216Y-93361476D01*
X168759216Y-93361476D02*
X168783406Y-93313095D01*
X168783406Y-93313095D02*
X168783406Y-93264714D01*
X168783406Y-93264714D02*
X168759216Y-93216333D01*
X168759216Y-93216333D02*
X168735025Y-93192142D01*
X168735025Y-93192142D02*
X168686644Y-93167952D01*
X168686644Y-93167952D02*
X168589882Y-93143761D01*
X168589882Y-93143761D02*
X168468930Y-93143761D01*
X168468930Y-93143761D02*
X168372168Y-93167952D01*
X168372168Y-93167952D02*
X168323787Y-93192142D01*
X168323787Y-93192142D02*
X168299596Y-93216333D01*
X168299596Y-93216333D02*
X168275406Y-93264714D01*
D11*
X162543332Y-120159819D02*
X162209999Y-121159819D01*
X162209999Y-121159819D02*
X161876666Y-120159819D01*
X119244285Y-73241009D02*
X118910952Y-73241009D01*
X118768095Y-73764819D02*
X119244285Y-73764819D01*
X119244285Y-73764819D02*
X119244285Y-72764819D01*
X119244285Y-72764819D02*
X118768095Y-72764819D01*
X167623332Y-120159819D02*
X166956666Y-121159819D01*
X166956666Y-120159819D02*
X167623332Y-121159819D01*
X157415713Y-72764819D02*
X156844285Y-72764819D01*
X157129999Y-73764819D02*
X157129999Y-72764819D01*
X121427142Y-120636009D02*
X121760475Y-120636009D01*
X121760475Y-121159819D02*
X121760475Y-120159819D01*
X121760475Y-120159819D02*
X121284285Y-120159819D01*
D12*
X168783406Y-85330237D02*
X168783406Y-85039951D01*
X168783406Y-85185094D02*
X168275406Y-85185094D01*
X168275406Y-85185094D02*
X168347977Y-85136713D01*
X168347977Y-85136713D02*
X168396358Y-85088332D01*
X168396358Y-85088332D02*
X168420549Y-85039951D01*
X168275406Y-85499571D02*
X168275406Y-85814047D01*
X168275406Y-85814047D02*
X168468930Y-85644714D01*
X168468930Y-85644714D02*
X168468930Y-85717285D01*
X168468930Y-85717285D02*
X168493120Y-85765666D01*
X168493120Y-85765666D02*
X168517311Y-85789857D01*
X168517311Y-85789857D02*
X168565692Y-85814047D01*
X168565692Y-85814047D02*
X168686644Y-85814047D01*
X168686644Y-85814047D02*
X168735025Y-85789857D01*
X168735025Y-85789857D02*
X168759216Y-85765666D01*
X168759216Y-85765666D02*
X168783406Y-85717285D01*
X168783406Y-85717285D02*
X168783406Y-85572142D01*
X168783406Y-85572142D02*
X168759216Y-85523761D01*
X168759216Y-85523761D02*
X168735025Y-85499571D01*
D11*
X111333571Y-120636009D02*
X111190714Y-120683628D01*
X111190714Y-120683628D02*
X111143095Y-120731247D01*
X111143095Y-120731247D02*
X111095476Y-120826485D01*
X111095476Y-120826485D02*
X111095476Y-120969342D01*
X111095476Y-120969342D02*
X111143095Y-121064580D01*
X111143095Y-121064580D02*
X111190714Y-121112200D01*
X111190714Y-121112200D02*
X111285952Y-121159819D01*
X111285952Y-121159819D02*
X111666904Y-121159819D01*
X111666904Y-121159819D02*
X111666904Y-120159819D01*
X111666904Y-120159819D02*
X111333571Y-120159819D01*
X111333571Y-120159819D02*
X111238333Y-120207438D01*
X111238333Y-120207438D02*
X111190714Y-120255057D01*
X111190714Y-120255057D02*
X111143095Y-120350295D01*
X111143095Y-120350295D02*
X111143095Y-120445533D01*
X111143095Y-120445533D02*
X111190714Y-120540771D01*
X111190714Y-120540771D02*
X111238333Y-120588390D01*
X111238333Y-120588390D02*
X111333571Y-120636009D01*
X111333571Y-120636009D02*
X111666904Y-120636009D01*
X113695476Y-121064580D02*
X113743095Y-121112200D01*
X113743095Y-121112200D02*
X113885952Y-121159819D01*
X113885952Y-121159819D02*
X113981190Y-121159819D01*
X113981190Y-121159819D02*
X114124047Y-121112200D01*
X114124047Y-121112200D02*
X114219285Y-121016961D01*
X114219285Y-121016961D02*
X114266904Y-120921723D01*
X114266904Y-120921723D02*
X114314523Y-120731247D01*
X114314523Y-120731247D02*
X114314523Y-120588390D01*
X114314523Y-120588390D02*
X114266904Y-120397914D01*
X114266904Y-120397914D02*
X114219285Y-120302676D01*
X114219285Y-120302676D02*
X114124047Y-120207438D01*
X114124047Y-120207438D02*
X113981190Y-120159819D01*
X113981190Y-120159819D02*
X113885952Y-120159819D01*
X113885952Y-120159819D02*
X113743095Y-120207438D01*
X113743095Y-120207438D02*
X113695476Y-120255057D01*
X129189999Y-73764819D02*
X129189999Y-72764819D01*
D12*
X168275406Y-100400904D02*
X168275406Y-100449285D01*
X168275406Y-100449285D02*
X168299596Y-100497666D01*
X168299596Y-100497666D02*
X168323787Y-100521856D01*
X168323787Y-100521856D02*
X168372168Y-100546047D01*
X168372168Y-100546047D02*
X168468930Y-100570237D01*
X168468930Y-100570237D02*
X168589882Y-100570237D01*
X168589882Y-100570237D02*
X168686644Y-100546047D01*
X168686644Y-100546047D02*
X168735025Y-100521856D01*
X168735025Y-100521856D02*
X168759216Y-100497666D01*
X168759216Y-100497666D02*
X168783406Y-100449285D01*
X168783406Y-100449285D02*
X168783406Y-100400904D01*
X168783406Y-100400904D02*
X168759216Y-100352523D01*
X168759216Y-100352523D02*
X168735025Y-100328332D01*
X168735025Y-100328332D02*
X168686644Y-100304142D01*
X168686644Y-100304142D02*
X168589882Y-100279951D01*
X168589882Y-100279951D02*
X168468930Y-100279951D01*
X168468930Y-100279951D02*
X168372168Y-100304142D01*
X168372168Y-100304142D02*
X168323787Y-100328332D01*
X168323787Y-100328332D02*
X168299596Y-100352523D01*
X168299596Y-100352523D02*
X168275406Y-100400904D01*
X168275406Y-100739571D02*
X168275406Y-101078238D01*
X168275406Y-101078238D02*
X168783406Y-100860523D01*
D10*
X150601427Y-101565885D02*
X150515713Y-101527790D01*
X150515713Y-101527790D02*
X150344285Y-101489695D01*
X150344285Y-101489695D02*
X149915713Y-101489695D01*
X149915713Y-101489695D02*
X149744285Y-101527790D01*
X149744285Y-101527790D02*
X149658570Y-101565885D01*
X149658570Y-101565885D02*
X149572856Y-101642076D01*
X149572856Y-101642076D02*
X149572856Y-101718266D01*
X149572856Y-101718266D02*
X149658570Y-101832552D01*
X149658570Y-101832552D02*
X150687142Y-102289695D01*
X150687142Y-102289695D02*
X149572856Y-102289695D01*
X148029999Y-101756361D02*
X148029999Y-102289695D01*
X148458570Y-101451600D02*
X148887141Y-102023028D01*
X148887141Y-102023028D02*
X147772856Y-102023028D01*
X147258570Y-102289695D02*
X146315713Y-101756361D01*
X147258570Y-101756361D02*
X146315713Y-102289695D01*
X144687141Y-102289695D02*
X145715712Y-102289695D01*
X145201427Y-102289695D02*
X145201427Y-101489695D01*
X145201427Y-101489695D02*
X145372855Y-101603980D01*
X145372855Y-101603980D02*
X145544284Y-101680171D01*
X145544284Y-101680171D02*
X145715712Y-101718266D01*
X143658569Y-101832552D02*
X143829998Y-101794457D01*
X143829998Y-101794457D02*
X143915712Y-101756361D01*
X143915712Y-101756361D02*
X144001426Y-101680171D01*
X144001426Y-101680171D02*
X144001426Y-101642076D01*
X144001426Y-101642076D02*
X143915712Y-101565885D01*
X143915712Y-101565885D02*
X143829998Y-101527790D01*
X143829998Y-101527790D02*
X143658569Y-101489695D01*
X143658569Y-101489695D02*
X143315712Y-101489695D01*
X143315712Y-101489695D02*
X143144284Y-101527790D01*
X143144284Y-101527790D02*
X143058569Y-101565885D01*
X143058569Y-101565885D02*
X142972855Y-101642076D01*
X142972855Y-101642076D02*
X142972855Y-101680171D01*
X142972855Y-101680171D02*
X143058569Y-101756361D01*
X143058569Y-101756361D02*
X143144284Y-101794457D01*
X143144284Y-101794457D02*
X143315712Y-101832552D01*
X143315712Y-101832552D02*
X143658569Y-101832552D01*
X143658569Y-101832552D02*
X143829998Y-101870647D01*
X143829998Y-101870647D02*
X143915712Y-101908742D01*
X143915712Y-101908742D02*
X144001426Y-101984933D01*
X144001426Y-101984933D02*
X144001426Y-102137314D01*
X144001426Y-102137314D02*
X143915712Y-102213504D01*
X143915712Y-102213504D02*
X143829998Y-102251600D01*
X143829998Y-102251600D02*
X143658569Y-102289695D01*
X143658569Y-102289695D02*
X143315712Y-102289695D01*
X143315712Y-102289695D02*
X143144284Y-102251600D01*
X143144284Y-102251600D02*
X143058569Y-102213504D01*
X143058569Y-102213504D02*
X142972855Y-102137314D01*
X142972855Y-102137314D02*
X142972855Y-101984933D01*
X142972855Y-101984933D02*
X143058569Y-101908742D01*
X143058569Y-101908742D02*
X143144284Y-101870647D01*
X143144284Y-101870647D02*
X143315712Y-101832552D01*
X141087140Y-101756361D02*
X140401426Y-101756361D01*
X140829997Y-101489695D02*
X140829997Y-102175409D01*
X140829997Y-102175409D02*
X140744283Y-102251600D01*
X140744283Y-102251600D02*
X140572854Y-102289695D01*
X140572854Y-102289695D02*
X140401426Y-102289695D01*
X139801426Y-102289695D02*
X139801426Y-101489695D01*
X139029998Y-102289695D02*
X139029998Y-101870647D01*
X139029998Y-101870647D02*
X139115712Y-101794457D01*
X139115712Y-101794457D02*
X139287140Y-101756361D01*
X139287140Y-101756361D02*
X139544283Y-101756361D01*
X139544283Y-101756361D02*
X139715712Y-101794457D01*
X139715712Y-101794457D02*
X139801426Y-101832552D01*
X138172855Y-102289695D02*
X138172855Y-101756361D01*
X138172855Y-101908742D02*
X138087141Y-101832552D01*
X138087141Y-101832552D02*
X138001427Y-101794457D01*
X138001427Y-101794457D02*
X137829998Y-101756361D01*
X137829998Y-101756361D02*
X137658569Y-101756361D01*
X136287141Y-101756361D02*
X136287141Y-102289695D01*
X137058569Y-101756361D02*
X137058569Y-102175409D01*
X137058569Y-102175409D02*
X136972855Y-102251600D01*
X136972855Y-102251600D02*
X136801426Y-102289695D01*
X136801426Y-102289695D02*
X136544283Y-102289695D01*
X136544283Y-102289695D02*
X136372855Y-102251600D01*
X136372855Y-102251600D02*
X136287141Y-102213504D01*
X135429998Y-102289695D02*
X135429998Y-101489695D01*
X134658570Y-102289695D02*
X134658570Y-101870647D01*
X134658570Y-101870647D02*
X134744284Y-101794457D01*
X134744284Y-101794457D02*
X134915712Y-101756361D01*
X134915712Y-101756361D02*
X135172855Y-101756361D01*
X135172855Y-101756361D02*
X135344284Y-101794457D01*
X135344284Y-101794457D02*
X135429998Y-101832552D01*
X133544284Y-102289695D02*
X133715713Y-102251600D01*
X133715713Y-102251600D02*
X133801427Y-102213504D01*
X133801427Y-102213504D02*
X133887141Y-102137314D01*
X133887141Y-102137314D02*
X133887141Y-101908742D01*
X133887141Y-101908742D02*
X133801427Y-101832552D01*
X133801427Y-101832552D02*
X133715713Y-101794457D01*
X133715713Y-101794457D02*
X133544284Y-101756361D01*
X133544284Y-101756361D02*
X133287141Y-101756361D01*
X133287141Y-101756361D02*
X133115713Y-101794457D01*
X133115713Y-101794457D02*
X133029999Y-101832552D01*
X133029999Y-101832552D02*
X132944284Y-101908742D01*
X132944284Y-101908742D02*
X132944284Y-102137314D01*
X132944284Y-102137314D02*
X133029999Y-102213504D01*
X133029999Y-102213504D02*
X133115713Y-102251600D01*
X133115713Y-102251600D02*
X133287141Y-102289695D01*
X133287141Y-102289695D02*
X133544284Y-102289695D01*
X131915713Y-102289695D02*
X132087142Y-102251600D01*
X132087142Y-102251600D02*
X132172856Y-102175409D01*
X132172856Y-102175409D02*
X132172856Y-101489695D01*
X130544285Y-102251600D02*
X130715713Y-102289695D01*
X130715713Y-102289695D02*
X131058571Y-102289695D01*
X131058571Y-102289695D02*
X131229999Y-102251600D01*
X131229999Y-102251600D02*
X131315713Y-102175409D01*
X131315713Y-102175409D02*
X131315713Y-101870647D01*
X131315713Y-101870647D02*
X131229999Y-101794457D01*
X131229999Y-101794457D02*
X131058571Y-101756361D01*
X131058571Y-101756361D02*
X130715713Y-101756361D01*
X130715713Y-101756361D02*
X130544285Y-101794457D01*
X130544285Y-101794457D02*
X130458571Y-101870647D01*
X130458571Y-101870647D02*
X130458571Y-101946838D01*
X130458571Y-101946838D02*
X131315713Y-102023028D01*
D11*
X109108094Y-73479104D02*
X108631904Y-73479104D01*
X109203332Y-73764819D02*
X108869999Y-72764819D01*
X108869999Y-72764819D02*
X108536666Y-73764819D01*
X139683332Y-73764819D02*
X139683332Y-72764819D01*
X139683332Y-72764819D02*
X139349999Y-73479104D01*
X139349999Y-73479104D02*
X139016666Y-72764819D01*
X139016666Y-72764819D02*
X139016666Y-73764819D01*
X113640476Y-73669580D02*
X113688095Y-73717200D01*
X113688095Y-73717200D02*
X113830952Y-73764819D01*
X113830952Y-73764819D02*
X113926190Y-73764819D01*
X113926190Y-73764819D02*
X114069047Y-73717200D01*
X114069047Y-73717200D02*
X114164285Y-73621961D01*
X114164285Y-73621961D02*
X114211904Y-73526723D01*
X114211904Y-73526723D02*
X114259523Y-73336247D01*
X114259523Y-73336247D02*
X114259523Y-73193390D01*
X114259523Y-73193390D02*
X114211904Y-73002914D01*
X114211904Y-73002914D02*
X114164285Y-72907676D01*
X114164285Y-72907676D02*
X114069047Y-72812438D01*
X114069047Y-72812438D02*
X113926190Y-72764819D01*
X113926190Y-72764819D02*
X113830952Y-72764819D01*
X113830952Y-72764819D02*
X113688095Y-72812438D01*
X113688095Y-72812438D02*
X113640476Y-72860057D01*
X147241904Y-121159819D02*
X147241904Y-120159819D01*
X147241904Y-120159819D02*
X146860952Y-120159819D01*
X146860952Y-120159819D02*
X146765714Y-120207438D01*
X146765714Y-120207438D02*
X146718095Y-120255057D01*
X146718095Y-120255057D02*
X146670476Y-120350295D01*
X146670476Y-120350295D02*
X146670476Y-120493152D01*
X146670476Y-120493152D02*
X146718095Y-120588390D01*
X146718095Y-120588390D02*
X146765714Y-120636009D01*
X146765714Y-120636009D02*
X146860952Y-120683628D01*
X146860952Y-120683628D02*
X147241904Y-120683628D01*
D12*
X107884593Y-93311095D02*
X107884593Y-93262714D01*
X107884593Y-93262714D02*
X107860403Y-93214333D01*
X107860403Y-93214333D02*
X107836212Y-93190143D01*
X107836212Y-93190143D02*
X107787831Y-93165952D01*
X107787831Y-93165952D02*
X107691069Y-93141762D01*
X107691069Y-93141762D02*
X107570117Y-93141762D01*
X107570117Y-93141762D02*
X107473355Y-93165952D01*
X107473355Y-93165952D02*
X107424974Y-93190143D01*
X107424974Y-93190143D02*
X107400784Y-93214333D01*
X107400784Y-93214333D02*
X107376593Y-93262714D01*
X107376593Y-93262714D02*
X107376593Y-93311095D01*
X107376593Y-93311095D02*
X107400784Y-93359476D01*
X107400784Y-93359476D02*
X107424974Y-93383667D01*
X107424974Y-93383667D02*
X107473355Y-93407857D01*
X107473355Y-93407857D02*
X107570117Y-93432048D01*
X107570117Y-93432048D02*
X107691069Y-93432048D01*
X107691069Y-93432048D02*
X107787831Y-93407857D01*
X107787831Y-93407857D02*
X107836212Y-93383667D01*
X107836212Y-93383667D02*
X107860403Y-93359476D01*
X107860403Y-93359476D02*
X107884593Y-93311095D01*
X107884593Y-92972428D02*
X107884593Y-92633761D01*
X107884593Y-92633761D02*
X107376593Y-92851476D01*
D11*
X154875713Y-73717200D02*
X154732856Y-73764819D01*
X154732856Y-73764819D02*
X154494761Y-73764819D01*
X154494761Y-73764819D02*
X154399523Y-73717200D01*
X154399523Y-73717200D02*
X154351904Y-73669580D01*
X154351904Y-73669580D02*
X154304285Y-73574342D01*
X154304285Y-73574342D02*
X154304285Y-73479104D01*
X154304285Y-73479104D02*
X154351904Y-73383866D01*
X154351904Y-73383866D02*
X154399523Y-73336247D01*
X154399523Y-73336247D02*
X154494761Y-73288628D01*
X154494761Y-73288628D02*
X154685237Y-73241009D01*
X154685237Y-73241009D02*
X154780475Y-73193390D01*
X154780475Y-73193390D02*
X154828094Y-73145771D01*
X154828094Y-73145771D02*
X154875713Y-73050533D01*
X154875713Y-73050533D02*
X154875713Y-72955295D01*
X154875713Y-72955295D02*
X154828094Y-72860057D01*
X154828094Y-72860057D02*
X154780475Y-72812438D01*
X154780475Y-72812438D02*
X154685237Y-72764819D01*
X154685237Y-72764819D02*
X154447142Y-72764819D01*
X154447142Y-72764819D02*
X154304285Y-72812438D01*
D12*
X107884593Y-83151095D02*
X107884593Y-83102714D01*
X107884593Y-83102714D02*
X107860403Y-83054333D01*
X107860403Y-83054333D02*
X107836212Y-83030143D01*
X107836212Y-83030143D02*
X107787831Y-83005952D01*
X107787831Y-83005952D02*
X107691069Y-82981762D01*
X107691069Y-82981762D02*
X107570117Y-82981762D01*
X107570117Y-82981762D02*
X107473355Y-83005952D01*
X107473355Y-83005952D02*
X107424974Y-83030143D01*
X107424974Y-83030143D02*
X107400784Y-83054333D01*
X107400784Y-83054333D02*
X107376593Y-83102714D01*
X107376593Y-83102714D02*
X107376593Y-83151095D01*
X107376593Y-83151095D02*
X107400784Y-83199476D01*
X107400784Y-83199476D02*
X107424974Y-83223667D01*
X107424974Y-83223667D02*
X107473355Y-83247857D01*
X107473355Y-83247857D02*
X107570117Y-83272048D01*
X107570117Y-83272048D02*
X107691069Y-83272048D01*
X107691069Y-83272048D02*
X107787831Y-83247857D01*
X107787831Y-83247857D02*
X107836212Y-83223667D01*
X107836212Y-83223667D02*
X107860403Y-83199476D01*
X107860403Y-83199476D02*
X107884593Y-83151095D01*
X107884593Y-82812428D02*
X107884593Y-82497952D01*
X107884593Y-82497952D02*
X107691069Y-82667285D01*
X107691069Y-82667285D02*
X107691069Y-82594714D01*
X107691069Y-82594714D02*
X107666879Y-82546333D01*
X107666879Y-82546333D02*
X107642688Y-82522142D01*
X107642688Y-82522142D02*
X107594307Y-82497952D01*
X107594307Y-82497952D02*
X107473355Y-82497952D01*
X107473355Y-82497952D02*
X107424974Y-82522142D01*
X107424974Y-82522142D02*
X107400784Y-82546333D01*
X107400784Y-82546333D02*
X107376593Y-82594714D01*
X107376593Y-82594714D02*
X107376593Y-82739857D01*
X107376593Y-82739857D02*
X107400784Y-82788238D01*
X107400784Y-82788238D02*
X107424974Y-82812428D01*
D11*
X123848095Y-72812438D02*
X123943333Y-72764819D01*
X123943333Y-72764819D02*
X124086190Y-72764819D01*
X124086190Y-72764819D02*
X124229047Y-72812438D01*
X124229047Y-72812438D02*
X124324285Y-72907676D01*
X124324285Y-72907676D02*
X124371904Y-73002914D01*
X124371904Y-73002914D02*
X124419523Y-73193390D01*
X124419523Y-73193390D02*
X124419523Y-73336247D01*
X124419523Y-73336247D02*
X124371904Y-73526723D01*
X124371904Y-73526723D02*
X124324285Y-73621961D01*
X124324285Y-73621961D02*
X124229047Y-73717200D01*
X124229047Y-73717200D02*
X124086190Y-73764819D01*
X124086190Y-73764819D02*
X123990952Y-73764819D01*
X123990952Y-73764819D02*
X123848095Y-73717200D01*
X123848095Y-73717200D02*
X123800476Y-73669580D01*
X123800476Y-73669580D02*
X123800476Y-73336247D01*
X123800476Y-73336247D02*
X123990952Y-73336247D01*
X134566904Y-121159819D02*
X134566904Y-120159819D01*
X133995476Y-121159819D02*
X134424047Y-120588390D01*
X133995476Y-120159819D02*
X134566904Y-120731247D01*
D12*
X168275406Y-113100904D02*
X168275406Y-113149285D01*
X168275406Y-113149285D02*
X168299596Y-113197666D01*
X168299596Y-113197666D02*
X168323787Y-113221856D01*
X168323787Y-113221856D02*
X168372168Y-113246047D01*
X168372168Y-113246047D02*
X168468930Y-113270237D01*
X168468930Y-113270237D02*
X168589882Y-113270237D01*
X168589882Y-113270237D02*
X168686644Y-113246047D01*
X168686644Y-113246047D02*
X168735025Y-113221856D01*
X168735025Y-113221856D02*
X168759216Y-113197666D01*
X168759216Y-113197666D02*
X168783406Y-113149285D01*
X168783406Y-113149285D02*
X168783406Y-113100904D01*
X168783406Y-113100904D02*
X168759216Y-113052523D01*
X168759216Y-113052523D02*
X168735025Y-113028332D01*
X168735025Y-113028332D02*
X168686644Y-113004142D01*
X168686644Y-113004142D02*
X168589882Y-112979951D01*
X168589882Y-112979951D02*
X168468930Y-112979951D01*
X168468930Y-112979951D02*
X168372168Y-113004142D01*
X168372168Y-113004142D02*
X168323787Y-113028332D01*
X168323787Y-113028332D02*
X168299596Y-113052523D01*
X168299596Y-113052523D02*
X168275406Y-113100904D01*
X168323787Y-113463761D02*
X168299596Y-113487952D01*
X168299596Y-113487952D02*
X168275406Y-113536333D01*
X168275406Y-113536333D02*
X168275406Y-113657285D01*
X168275406Y-113657285D02*
X168299596Y-113705666D01*
X168299596Y-113705666D02*
X168323787Y-113729857D01*
X168323787Y-113729857D02*
X168372168Y-113754047D01*
X168372168Y-113754047D02*
X168420549Y-113754047D01*
X168420549Y-113754047D02*
X168493120Y-113729857D01*
X168493120Y-113729857D02*
X168783406Y-113439571D01*
X168783406Y-113439571D02*
X168783406Y-113754047D01*
D11*
X167623332Y-72764819D02*
X166956666Y-73764819D01*
X166956666Y-72764819D02*
X167623332Y-73764819D01*
D12*
X168275406Y-110560904D02*
X168275406Y-110609285D01*
X168275406Y-110609285D02*
X168299596Y-110657666D01*
X168299596Y-110657666D02*
X168323787Y-110681856D01*
X168323787Y-110681856D02*
X168372168Y-110706047D01*
X168372168Y-110706047D02*
X168468930Y-110730237D01*
X168468930Y-110730237D02*
X168589882Y-110730237D01*
X168589882Y-110730237D02*
X168686644Y-110706047D01*
X168686644Y-110706047D02*
X168735025Y-110681856D01*
X168735025Y-110681856D02*
X168759216Y-110657666D01*
X168759216Y-110657666D02*
X168783406Y-110609285D01*
X168783406Y-110609285D02*
X168783406Y-110560904D01*
X168783406Y-110560904D02*
X168759216Y-110512523D01*
X168759216Y-110512523D02*
X168735025Y-110488332D01*
X168735025Y-110488332D02*
X168686644Y-110464142D01*
X168686644Y-110464142D02*
X168589882Y-110439951D01*
X168589882Y-110439951D02*
X168468930Y-110439951D01*
X168468930Y-110439951D02*
X168372168Y-110464142D01*
X168372168Y-110464142D02*
X168323787Y-110488332D01*
X168323787Y-110488332D02*
X168299596Y-110512523D01*
X168299596Y-110512523D02*
X168275406Y-110560904D01*
X168275406Y-110899571D02*
X168275406Y-111214047D01*
X168275406Y-111214047D02*
X168468930Y-111044714D01*
X168468930Y-111044714D02*
X168468930Y-111117285D01*
X168468930Y-111117285D02*
X168493120Y-111165666D01*
X168493120Y-111165666D02*
X168517311Y-111189857D01*
X168517311Y-111189857D02*
X168565692Y-111214047D01*
X168565692Y-111214047D02*
X168686644Y-111214047D01*
X168686644Y-111214047D02*
X168735025Y-111189857D01*
X168735025Y-111189857D02*
X168759216Y-111165666D01*
X168759216Y-111165666D02*
X168783406Y-111117285D01*
X168783406Y-111117285D02*
X168783406Y-110972142D01*
X168783406Y-110972142D02*
X168759216Y-110923761D01*
X168759216Y-110923761D02*
X168735025Y-110899571D01*
D11*
X151745476Y-121184819D02*
X152078809Y-120708628D01*
X152316904Y-121184819D02*
X152316904Y-120184819D01*
X152316904Y-120184819D02*
X151935952Y-120184819D01*
X151935952Y-120184819D02*
X151840714Y-120232438D01*
X151840714Y-120232438D02*
X151793095Y-120280057D01*
X151793095Y-120280057D02*
X151745476Y-120375295D01*
X151745476Y-120375295D02*
X151745476Y-120518152D01*
X151745476Y-120518152D02*
X151793095Y-120613390D01*
X151793095Y-120613390D02*
X151840714Y-120661009D01*
X151840714Y-120661009D02*
X151935952Y-120708628D01*
X151935952Y-120708628D02*
X152316904Y-120708628D01*
D12*
X107376593Y-100761762D02*
X107376593Y-101052048D01*
X107376593Y-100906905D02*
X107884593Y-100906905D01*
X107884593Y-100906905D02*
X107812022Y-100955286D01*
X107812022Y-100955286D02*
X107763641Y-101003667D01*
X107763641Y-101003667D02*
X107739450Y-101052048D01*
X107884593Y-100447285D02*
X107884593Y-100398904D01*
X107884593Y-100398904D02*
X107860403Y-100350523D01*
X107860403Y-100350523D02*
X107836212Y-100326333D01*
X107836212Y-100326333D02*
X107787831Y-100302142D01*
X107787831Y-100302142D02*
X107691069Y-100277952D01*
X107691069Y-100277952D02*
X107570117Y-100277952D01*
X107570117Y-100277952D02*
X107473355Y-100302142D01*
X107473355Y-100302142D02*
X107424974Y-100326333D01*
X107424974Y-100326333D02*
X107400784Y-100350523D01*
X107400784Y-100350523D02*
X107376593Y-100398904D01*
X107376593Y-100398904D02*
X107376593Y-100447285D01*
X107376593Y-100447285D02*
X107400784Y-100495666D01*
X107400784Y-100495666D02*
X107424974Y-100519857D01*
X107424974Y-100519857D02*
X107473355Y-100544047D01*
X107473355Y-100544047D02*
X107570117Y-100568238D01*
X107570117Y-100568238D02*
X107691069Y-100568238D01*
X107691069Y-100568238D02*
X107787831Y-100544047D01*
X107787831Y-100544047D02*
X107836212Y-100519857D01*
X107836212Y-100519857D02*
X107860403Y-100495666D01*
X107860403Y-100495666D02*
X107884593Y-100447285D01*
X168275406Y-108020904D02*
X168275406Y-108069285D01*
X168275406Y-108069285D02*
X168299596Y-108117666D01*
X168299596Y-108117666D02*
X168323787Y-108141856D01*
X168323787Y-108141856D02*
X168372168Y-108166047D01*
X168372168Y-108166047D02*
X168468930Y-108190237D01*
X168468930Y-108190237D02*
X168589882Y-108190237D01*
X168589882Y-108190237D02*
X168686644Y-108166047D01*
X168686644Y-108166047D02*
X168735025Y-108141856D01*
X168735025Y-108141856D02*
X168759216Y-108117666D01*
X168759216Y-108117666D02*
X168783406Y-108069285D01*
X168783406Y-108069285D02*
X168783406Y-108020904D01*
X168783406Y-108020904D02*
X168759216Y-107972523D01*
X168759216Y-107972523D02*
X168735025Y-107948332D01*
X168735025Y-107948332D02*
X168686644Y-107924142D01*
X168686644Y-107924142D02*
X168589882Y-107899951D01*
X168589882Y-107899951D02*
X168468930Y-107899951D01*
X168468930Y-107899951D02*
X168372168Y-107924142D01*
X168372168Y-107924142D02*
X168323787Y-107948332D01*
X168323787Y-107948332D02*
X168299596Y-107972523D01*
X168299596Y-107972523D02*
X168275406Y-108020904D01*
X168444739Y-108625666D02*
X168783406Y-108625666D01*
X168251216Y-108504714D02*
X168614073Y-108383761D01*
X168614073Y-108383761D02*
X168614073Y-108698238D01*
D11*
X149129047Y-121280057D02*
X149224285Y-121232438D01*
X149224285Y-121232438D02*
X149319523Y-121137200D01*
X149319523Y-121137200D02*
X149462380Y-120994342D01*
X149462380Y-120994342D02*
X149557618Y-120946723D01*
X149557618Y-120946723D02*
X149652856Y-120946723D01*
X149605237Y-121184819D02*
X149700475Y-121137200D01*
X149700475Y-121137200D02*
X149795713Y-121041961D01*
X149795713Y-121041961D02*
X149843332Y-120851485D01*
X149843332Y-120851485D02*
X149843332Y-120518152D01*
X149843332Y-120518152D02*
X149795713Y-120327676D01*
X149795713Y-120327676D02*
X149700475Y-120232438D01*
X149700475Y-120232438D02*
X149605237Y-120184819D01*
X149605237Y-120184819D02*
X149414761Y-120184819D01*
X149414761Y-120184819D02*
X149319523Y-120232438D01*
X149319523Y-120232438D02*
X149224285Y-120327676D01*
X149224285Y-120327676D02*
X149176666Y-120518152D01*
X149176666Y-120518152D02*
X149176666Y-120851485D01*
X149176666Y-120851485D02*
X149224285Y-121041961D01*
X149224285Y-121041961D02*
X149319523Y-121137200D01*
X149319523Y-121137200D02*
X149414761Y-121184819D01*
X149414761Y-121184819D02*
X149605237Y-121184819D01*
X149129047Y-73860057D02*
X149224285Y-73812438D01*
X149224285Y-73812438D02*
X149319523Y-73717200D01*
X149319523Y-73717200D02*
X149462380Y-73574342D01*
X149462380Y-73574342D02*
X149557618Y-73526723D01*
X149557618Y-73526723D02*
X149652856Y-73526723D01*
X149605237Y-73764819D02*
X149700475Y-73717200D01*
X149700475Y-73717200D02*
X149795713Y-73621961D01*
X149795713Y-73621961D02*
X149843332Y-73431485D01*
X149843332Y-73431485D02*
X149843332Y-73098152D01*
X149843332Y-73098152D02*
X149795713Y-72907676D01*
X149795713Y-72907676D02*
X149700475Y-72812438D01*
X149700475Y-72812438D02*
X149605237Y-72764819D01*
X149605237Y-72764819D02*
X149414761Y-72764819D01*
X149414761Y-72764819D02*
X149319523Y-72812438D01*
X149319523Y-72812438D02*
X149224285Y-72907676D01*
X149224285Y-72907676D02*
X149176666Y-73098152D01*
X149176666Y-73098152D02*
X149176666Y-73431485D01*
X149176666Y-73431485D02*
X149224285Y-73621961D01*
X149224285Y-73621961D02*
X149319523Y-73717200D01*
X149319523Y-73717200D02*
X149414761Y-73764819D01*
X149414761Y-73764819D02*
X149605237Y-73764819D01*
X142175713Y-73764819D02*
X142175713Y-72764819D01*
X142175713Y-72764819D02*
X141604285Y-73764819D01*
X141604285Y-73764819D02*
X141604285Y-72764819D01*
D12*
X168783406Y-87870237D02*
X168783406Y-87579951D01*
X168783406Y-87725094D02*
X168275406Y-87725094D01*
X168275406Y-87725094D02*
X168347977Y-87676713D01*
X168347977Y-87676713D02*
X168396358Y-87628332D01*
X168396358Y-87628332D02*
X168420549Y-87579951D01*
X168323787Y-88063761D02*
X168299596Y-88087952D01*
X168299596Y-88087952D02*
X168275406Y-88136333D01*
X168275406Y-88136333D02*
X168275406Y-88257285D01*
X168275406Y-88257285D02*
X168299596Y-88305666D01*
X168299596Y-88305666D02*
X168323787Y-88329857D01*
X168323787Y-88329857D02*
X168372168Y-88354047D01*
X168372168Y-88354047D02*
X168420549Y-88354047D01*
X168420549Y-88354047D02*
X168493120Y-88329857D01*
X168493120Y-88329857D02*
X168783406Y-88039571D01*
X168783406Y-88039571D02*
X168783406Y-88354047D01*
D11*
X159955713Y-120159819D02*
X159955713Y-120969342D01*
X159955713Y-120969342D02*
X159908094Y-121064580D01*
X159908094Y-121064580D02*
X159860475Y-121112200D01*
X159860475Y-121112200D02*
X159765237Y-121159819D01*
X159765237Y-121159819D02*
X159574761Y-121159819D01*
X159574761Y-121159819D02*
X159479523Y-121112200D01*
X159479523Y-121112200D02*
X159431904Y-121064580D01*
X159431904Y-121064580D02*
X159384285Y-120969342D01*
X159384285Y-120969342D02*
X159384285Y-120159819D01*
D12*
X168275406Y-95320904D02*
X168275406Y-95369285D01*
X168275406Y-95369285D02*
X168299596Y-95417666D01*
X168299596Y-95417666D02*
X168323787Y-95441856D01*
X168323787Y-95441856D02*
X168372168Y-95466047D01*
X168372168Y-95466047D02*
X168468930Y-95490237D01*
X168468930Y-95490237D02*
X168589882Y-95490237D01*
X168589882Y-95490237D02*
X168686644Y-95466047D01*
X168686644Y-95466047D02*
X168735025Y-95441856D01*
X168735025Y-95441856D02*
X168759216Y-95417666D01*
X168759216Y-95417666D02*
X168783406Y-95369285D01*
X168783406Y-95369285D02*
X168783406Y-95320904D01*
X168783406Y-95320904D02*
X168759216Y-95272523D01*
X168759216Y-95272523D02*
X168735025Y-95248332D01*
X168735025Y-95248332D02*
X168686644Y-95224142D01*
X168686644Y-95224142D02*
X168589882Y-95199951D01*
X168589882Y-95199951D02*
X168468930Y-95199951D01*
X168468930Y-95199951D02*
X168372168Y-95224142D01*
X168372168Y-95224142D02*
X168323787Y-95248332D01*
X168323787Y-95248332D02*
X168299596Y-95272523D01*
X168299596Y-95272523D02*
X168275406Y-95320904D01*
X168783406Y-95732142D02*
X168783406Y-95828904D01*
X168783406Y-95828904D02*
X168759216Y-95877285D01*
X168759216Y-95877285D02*
X168735025Y-95901476D01*
X168735025Y-95901476D02*
X168662454Y-95949857D01*
X168662454Y-95949857D02*
X168565692Y-95974047D01*
X168565692Y-95974047D02*
X168372168Y-95974047D01*
X168372168Y-95974047D02*
X168323787Y-95949857D01*
X168323787Y-95949857D02*
X168299596Y-95925666D01*
X168299596Y-95925666D02*
X168275406Y-95877285D01*
X168275406Y-95877285D02*
X168275406Y-95780523D01*
X168275406Y-95780523D02*
X168299596Y-95732142D01*
X168299596Y-95732142D02*
X168323787Y-95707952D01*
X168323787Y-95707952D02*
X168372168Y-95683761D01*
X168372168Y-95683761D02*
X168493120Y-95683761D01*
X168493120Y-95683761D02*
X168541501Y-95707952D01*
X168541501Y-95707952D02*
X168565692Y-95732142D01*
X168565692Y-95732142D02*
X168589882Y-95780523D01*
X168589882Y-95780523D02*
X168589882Y-95877285D01*
X168589882Y-95877285D02*
X168565692Y-95925666D01*
X168565692Y-95925666D02*
X168541501Y-95949857D01*
X168541501Y-95949857D02*
X168493120Y-95974047D01*
X107376593Y-113461762D02*
X107376593Y-113752048D01*
X107376593Y-113606905D02*
X107884593Y-113606905D01*
X107884593Y-113606905D02*
X107812022Y-113655286D01*
X107812022Y-113655286D02*
X107763641Y-113703667D01*
X107763641Y-113703667D02*
X107739450Y-113752048D01*
X107884593Y-113002142D02*
X107884593Y-113244047D01*
X107884593Y-113244047D02*
X107642688Y-113268238D01*
X107642688Y-113268238D02*
X107666879Y-113244047D01*
X107666879Y-113244047D02*
X107691069Y-113195666D01*
X107691069Y-113195666D02*
X107691069Y-113074714D01*
X107691069Y-113074714D02*
X107666879Y-113026333D01*
X107666879Y-113026333D02*
X107642688Y-113002142D01*
X107642688Y-113002142D02*
X107594307Y-112977952D01*
X107594307Y-112977952D02*
X107473355Y-112977952D01*
X107473355Y-112977952D02*
X107424974Y-113002142D01*
X107424974Y-113002142D02*
X107400784Y-113026333D01*
X107400784Y-113026333D02*
X107376593Y-113074714D01*
X107376593Y-113074714D02*
X107376593Y-113195666D01*
X107376593Y-113195666D02*
X107400784Y-113244047D01*
X107400784Y-113244047D02*
X107424974Y-113268238D01*
X168783406Y-90410237D02*
X168783406Y-90119951D01*
X168783406Y-90265094D02*
X168275406Y-90265094D01*
X168275406Y-90265094D02*
X168347977Y-90216713D01*
X168347977Y-90216713D02*
X168396358Y-90168332D01*
X168396358Y-90168332D02*
X168420549Y-90119951D01*
X168783406Y-90894047D02*
X168783406Y-90603761D01*
X168783406Y-90748904D02*
X168275406Y-90748904D01*
X168275406Y-90748904D02*
X168347977Y-90700523D01*
X168347977Y-90700523D02*
X168396358Y-90652142D01*
X168396358Y-90652142D02*
X168420549Y-90603761D01*
D11*
X129189999Y-121159819D02*
X129189999Y-120159819D01*
X131587142Y-120184819D02*
X131587142Y-120899104D01*
X131587142Y-120899104D02*
X131634761Y-121041961D01*
X131634761Y-121041961D02*
X131729999Y-121137200D01*
X131729999Y-121137200D02*
X131872856Y-121184819D01*
X131872856Y-121184819D02*
X131968094Y-121184819D01*
X162543332Y-72764819D02*
X162209999Y-73764819D01*
X162209999Y-73764819D02*
X161876666Y-72764819D01*
X119244285Y-120636009D02*
X118910952Y-120636009D01*
X118768095Y-121159819D02*
X119244285Y-121159819D01*
X119244285Y-121159819D02*
X119244285Y-120159819D01*
X119244285Y-120159819D02*
X118768095Y-120159819D01*
D12*
X168783406Y-80250237D02*
X168783406Y-79959951D01*
X168783406Y-80105094D02*
X168275406Y-80105094D01*
X168275406Y-80105094D02*
X168347977Y-80056713D01*
X168347977Y-80056713D02*
X168396358Y-80008332D01*
X168396358Y-80008332D02*
X168420549Y-79959951D01*
X168275406Y-80709857D02*
X168275406Y-80467952D01*
X168275406Y-80467952D02*
X168517311Y-80443761D01*
X168517311Y-80443761D02*
X168493120Y-80467952D01*
X168493120Y-80467952D02*
X168468930Y-80516333D01*
X168468930Y-80516333D02*
X168468930Y-80637285D01*
X168468930Y-80637285D02*
X168493120Y-80685666D01*
X168493120Y-80685666D02*
X168517311Y-80709857D01*
X168517311Y-80709857D02*
X168565692Y-80734047D01*
X168565692Y-80734047D02*
X168686644Y-80734047D01*
X168686644Y-80734047D02*
X168735025Y-80709857D01*
X168735025Y-80709857D02*
X168759216Y-80685666D01*
X168759216Y-80685666D02*
X168783406Y-80637285D01*
X168783406Y-80637285D02*
X168783406Y-80516333D01*
X168783406Y-80516333D02*
X168759216Y-80467952D01*
X168759216Y-80467952D02*
X168735025Y-80443761D01*
X107884593Y-85691095D02*
X107884593Y-85642714D01*
X107884593Y-85642714D02*
X107860403Y-85594333D01*
X107860403Y-85594333D02*
X107836212Y-85570143D01*
X107836212Y-85570143D02*
X107787831Y-85545952D01*
X107787831Y-85545952D02*
X107691069Y-85521762D01*
X107691069Y-85521762D02*
X107570117Y-85521762D01*
X107570117Y-85521762D02*
X107473355Y-85545952D01*
X107473355Y-85545952D02*
X107424974Y-85570143D01*
X107424974Y-85570143D02*
X107400784Y-85594333D01*
X107400784Y-85594333D02*
X107376593Y-85642714D01*
X107376593Y-85642714D02*
X107376593Y-85691095D01*
X107376593Y-85691095D02*
X107400784Y-85739476D01*
X107400784Y-85739476D02*
X107424974Y-85763667D01*
X107424974Y-85763667D02*
X107473355Y-85787857D01*
X107473355Y-85787857D02*
X107570117Y-85812048D01*
X107570117Y-85812048D02*
X107691069Y-85812048D01*
X107691069Y-85812048D02*
X107787831Y-85787857D01*
X107787831Y-85787857D02*
X107836212Y-85763667D01*
X107836212Y-85763667D02*
X107860403Y-85739476D01*
X107860403Y-85739476D02*
X107884593Y-85691095D01*
X107715260Y-85086333D02*
X107376593Y-85086333D01*
X107908784Y-85207285D02*
X107545926Y-85328238D01*
X107545926Y-85328238D02*
X107545926Y-85013761D01*
D10*
X150601429Y-96489695D02*
X149401429Y-96489695D01*
X149401429Y-96489695D02*
X150172857Y-97289695D01*
X148372857Y-96489695D02*
X148201428Y-96489695D01*
X148201428Y-96489695D02*
X148030000Y-96527790D01*
X148030000Y-96527790D02*
X147944286Y-96565885D01*
X147944286Y-96565885D02*
X147858571Y-96642076D01*
X147858571Y-96642076D02*
X147772857Y-96794457D01*
X147772857Y-96794457D02*
X147772857Y-96984933D01*
X147772857Y-96984933D02*
X147858571Y-97137314D01*
X147858571Y-97137314D02*
X147944286Y-97213504D01*
X147944286Y-97213504D02*
X148030000Y-97251600D01*
X148030000Y-97251600D02*
X148201428Y-97289695D01*
X148201428Y-97289695D02*
X148372857Y-97289695D01*
X148372857Y-97289695D02*
X148544286Y-97251600D01*
X148544286Y-97251600D02*
X148630000Y-97213504D01*
X148630000Y-97213504D02*
X148715714Y-97137314D01*
X148715714Y-97137314D02*
X148801428Y-96984933D01*
X148801428Y-96984933D02*
X148801428Y-96794457D01*
X148801428Y-96794457D02*
X148715714Y-96642076D01*
X148715714Y-96642076D02*
X148630000Y-96565885D01*
X148630000Y-96565885D02*
X148544286Y-96527790D01*
X148544286Y-96527790D02*
X148372857Y-96489695D01*
X147001428Y-97289695D02*
X147001428Y-96756361D01*
X147001428Y-96832552D02*
X146915714Y-96794457D01*
X146915714Y-96794457D02*
X146744285Y-96756361D01*
X146744285Y-96756361D02*
X146487142Y-96756361D01*
X146487142Y-96756361D02*
X146315714Y-96794457D01*
X146315714Y-96794457D02*
X146230000Y-96870647D01*
X146230000Y-96870647D02*
X146230000Y-97289695D01*
X146230000Y-96870647D02*
X146144285Y-96794457D01*
X146144285Y-96794457D02*
X145972857Y-96756361D01*
X145972857Y-96756361D02*
X145715714Y-96756361D01*
X145715714Y-96756361D02*
X145544285Y-96794457D01*
X145544285Y-96794457D02*
X145458571Y-96870647D01*
X145458571Y-96870647D02*
X145458571Y-97289695D01*
X144601428Y-97289695D02*
X144601428Y-96756361D01*
X144601428Y-96832552D02*
X144515714Y-96794457D01*
X144515714Y-96794457D02*
X144344285Y-96756361D01*
X144344285Y-96756361D02*
X144087142Y-96756361D01*
X144087142Y-96756361D02*
X143915714Y-96794457D01*
X143915714Y-96794457D02*
X143830000Y-96870647D01*
X143830000Y-96870647D02*
X143830000Y-97289695D01*
X143830000Y-96870647D02*
X143744285Y-96794457D01*
X143744285Y-96794457D02*
X143572857Y-96756361D01*
X143572857Y-96756361D02*
X143315714Y-96756361D01*
X143315714Y-96756361D02*
X143144285Y-96794457D01*
X143144285Y-96794457D02*
X143058571Y-96870647D01*
X143058571Y-96870647D02*
X143058571Y-97289695D01*
X141001428Y-97289695D02*
X140058571Y-96756361D01*
X141001428Y-96756361D02*
X140058571Y-97289695D01*
X137144284Y-96489695D02*
X138001427Y-96489695D01*
X138001427Y-96489695D02*
X138087141Y-96870647D01*
X138087141Y-96870647D02*
X138001427Y-96832552D01*
X138001427Y-96832552D02*
X137829999Y-96794457D01*
X137829999Y-96794457D02*
X137401427Y-96794457D01*
X137401427Y-96794457D02*
X137229999Y-96832552D01*
X137229999Y-96832552D02*
X137144284Y-96870647D01*
X137144284Y-96870647D02*
X137058570Y-96946838D01*
X137058570Y-96946838D02*
X137058570Y-97137314D01*
X137058570Y-97137314D02*
X137144284Y-97213504D01*
X137144284Y-97213504D02*
X137229999Y-97251600D01*
X137229999Y-97251600D02*
X137401427Y-97289695D01*
X137401427Y-97289695D02*
X137829999Y-97289695D01*
X137829999Y-97289695D02*
X138001427Y-97251600D01*
X138001427Y-97251600D02*
X138087141Y-97213504D01*
X135944284Y-96489695D02*
X135772855Y-96489695D01*
X135772855Y-96489695D02*
X135601427Y-96527790D01*
X135601427Y-96527790D02*
X135515713Y-96565885D01*
X135515713Y-96565885D02*
X135429998Y-96642076D01*
X135429998Y-96642076D02*
X135344284Y-96794457D01*
X135344284Y-96794457D02*
X135344284Y-96984933D01*
X135344284Y-96984933D02*
X135429998Y-97137314D01*
X135429998Y-97137314D02*
X135515713Y-97213504D01*
X135515713Y-97213504D02*
X135601427Y-97251600D01*
X135601427Y-97251600D02*
X135772855Y-97289695D01*
X135772855Y-97289695D02*
X135944284Y-97289695D01*
X135944284Y-97289695D02*
X136115713Y-97251600D01*
X136115713Y-97251600D02*
X136201427Y-97213504D01*
X136201427Y-97213504D02*
X136287141Y-97137314D01*
X136287141Y-97137314D02*
X136372855Y-96984933D01*
X136372855Y-96984933D02*
X136372855Y-96794457D01*
X136372855Y-96794457D02*
X136287141Y-96642076D01*
X136287141Y-96642076D02*
X136201427Y-96565885D01*
X136201427Y-96565885D02*
X136115713Y-96527790D01*
X136115713Y-96527790D02*
X135944284Y-96489695D01*
X134572855Y-97289695D02*
X134572855Y-96756361D01*
X134572855Y-96832552D02*
X134487141Y-96794457D01*
X134487141Y-96794457D02*
X134315712Y-96756361D01*
X134315712Y-96756361D02*
X134058569Y-96756361D01*
X134058569Y-96756361D02*
X133887141Y-96794457D01*
X133887141Y-96794457D02*
X133801427Y-96870647D01*
X133801427Y-96870647D02*
X133801427Y-97289695D01*
X133801427Y-96870647D02*
X133715712Y-96794457D01*
X133715712Y-96794457D02*
X133544284Y-96756361D01*
X133544284Y-96756361D02*
X133287141Y-96756361D01*
X133287141Y-96756361D02*
X133115712Y-96794457D01*
X133115712Y-96794457D02*
X133029998Y-96870647D01*
X133029998Y-96870647D02*
X133029998Y-97289695D01*
X132172855Y-97289695D02*
X132172855Y-96756361D01*
X132172855Y-96832552D02*
X132087141Y-96794457D01*
X132087141Y-96794457D02*
X131915712Y-96756361D01*
X131915712Y-96756361D02*
X131658569Y-96756361D01*
X131658569Y-96756361D02*
X131487141Y-96794457D01*
X131487141Y-96794457D02*
X131401427Y-96870647D01*
X131401427Y-96870647D02*
X131401427Y-97289695D01*
X131401427Y-96870647D02*
X131315712Y-96794457D01*
X131315712Y-96794457D02*
X131144284Y-96756361D01*
X131144284Y-96756361D02*
X130887141Y-96756361D01*
X130887141Y-96756361D02*
X130715712Y-96794457D01*
X130715712Y-96794457D02*
X130629998Y-96870647D01*
X130629998Y-96870647D02*
X130629998Y-97289695D01*
D11*
X165178570Y-72764819D02*
X164940475Y-73764819D01*
X164940475Y-73764819D02*
X164749999Y-73050533D01*
X164749999Y-73050533D02*
X164559523Y-73764819D01*
X164559523Y-73764819D02*
X164321428Y-72764819D01*
X144525237Y-120159819D02*
X144334761Y-120159819D01*
X144334761Y-120159819D02*
X144239523Y-120207438D01*
X144239523Y-120207438D02*
X144144285Y-120302676D01*
X144144285Y-120302676D02*
X144096666Y-120493152D01*
X144096666Y-120493152D02*
X144096666Y-120826485D01*
X144096666Y-120826485D02*
X144144285Y-121016961D01*
X144144285Y-121016961D02*
X144239523Y-121112200D01*
X144239523Y-121112200D02*
X144334761Y-121159819D01*
X144334761Y-121159819D02*
X144525237Y-121159819D01*
X144525237Y-121159819D02*
X144620475Y-121112200D01*
X144620475Y-121112200D02*
X144715713Y-121016961D01*
X144715713Y-121016961D02*
X144763332Y-120826485D01*
X144763332Y-120826485D02*
X144763332Y-120493152D01*
X144763332Y-120493152D02*
X144715713Y-120302676D01*
X144715713Y-120302676D02*
X144620475Y-120207438D01*
X144620475Y-120207438D02*
X144525237Y-120159819D01*
X121427142Y-73241009D02*
X121760475Y-73241009D01*
X121760475Y-73764819D02*
X121760475Y-72764819D01*
X121760475Y-72764819D02*
X121284285Y-72764819D01*
D12*
X107884593Y-80611095D02*
X107884593Y-80562714D01*
X107884593Y-80562714D02*
X107860403Y-80514333D01*
X107860403Y-80514333D02*
X107836212Y-80490143D01*
X107836212Y-80490143D02*
X107787831Y-80465952D01*
X107787831Y-80465952D02*
X107691069Y-80441762D01*
X107691069Y-80441762D02*
X107570117Y-80441762D01*
X107570117Y-80441762D02*
X107473355Y-80465952D01*
X107473355Y-80465952D02*
X107424974Y-80490143D01*
X107424974Y-80490143D02*
X107400784Y-80514333D01*
X107400784Y-80514333D02*
X107376593Y-80562714D01*
X107376593Y-80562714D02*
X107376593Y-80611095D01*
X107376593Y-80611095D02*
X107400784Y-80659476D01*
X107400784Y-80659476D02*
X107424974Y-80683667D01*
X107424974Y-80683667D02*
X107473355Y-80707857D01*
X107473355Y-80707857D02*
X107570117Y-80732048D01*
X107570117Y-80732048D02*
X107691069Y-80732048D01*
X107691069Y-80732048D02*
X107787831Y-80707857D01*
X107787831Y-80707857D02*
X107836212Y-80683667D01*
X107836212Y-80683667D02*
X107860403Y-80659476D01*
X107860403Y-80659476D02*
X107884593Y-80611095D01*
X107836212Y-80248238D02*
X107860403Y-80224047D01*
X107860403Y-80224047D02*
X107884593Y-80175666D01*
X107884593Y-80175666D02*
X107884593Y-80054714D01*
X107884593Y-80054714D02*
X107860403Y-80006333D01*
X107860403Y-80006333D02*
X107836212Y-79982142D01*
X107836212Y-79982142D02*
X107787831Y-79957952D01*
X107787831Y-79957952D02*
X107739450Y-79957952D01*
X107739450Y-79957952D02*
X107666879Y-79982142D01*
X107666879Y-79982142D02*
X107376593Y-80272428D01*
X107376593Y-80272428D02*
X107376593Y-79957952D01*
D11*
X116751904Y-73764819D02*
X116751904Y-72764819D01*
X116751904Y-72764819D02*
X116513809Y-72764819D01*
X116513809Y-72764819D02*
X116370952Y-72812438D01*
X116370952Y-72812438D02*
X116275714Y-72907676D01*
X116275714Y-72907676D02*
X116228095Y-73002914D01*
X116228095Y-73002914D02*
X116180476Y-73193390D01*
X116180476Y-73193390D02*
X116180476Y-73336247D01*
X116180476Y-73336247D02*
X116228095Y-73526723D01*
X116228095Y-73526723D02*
X116275714Y-73621961D01*
X116275714Y-73621961D02*
X116370952Y-73717200D01*
X116370952Y-73717200D02*
X116513809Y-73764819D01*
X116513809Y-73764819D02*
X116751904Y-73764819D01*
X136520476Y-121159819D02*
X136996666Y-121159819D01*
X136996666Y-121159819D02*
X136996666Y-120159819D01*
D12*
X107884593Y-88231095D02*
X107884593Y-88182714D01*
X107884593Y-88182714D02*
X107860403Y-88134333D01*
X107860403Y-88134333D02*
X107836212Y-88110143D01*
X107836212Y-88110143D02*
X107787831Y-88085952D01*
X107787831Y-88085952D02*
X107691069Y-88061762D01*
X107691069Y-88061762D02*
X107570117Y-88061762D01*
X107570117Y-88061762D02*
X107473355Y-88085952D01*
X107473355Y-88085952D02*
X107424974Y-88110143D01*
X107424974Y-88110143D02*
X107400784Y-88134333D01*
X107400784Y-88134333D02*
X107376593Y-88182714D01*
X107376593Y-88182714D02*
X107376593Y-88231095D01*
X107376593Y-88231095D02*
X107400784Y-88279476D01*
X107400784Y-88279476D02*
X107424974Y-88303667D01*
X107424974Y-88303667D02*
X107473355Y-88327857D01*
X107473355Y-88327857D02*
X107570117Y-88352048D01*
X107570117Y-88352048D02*
X107691069Y-88352048D01*
X107691069Y-88352048D02*
X107787831Y-88327857D01*
X107787831Y-88327857D02*
X107836212Y-88303667D01*
X107836212Y-88303667D02*
X107860403Y-88279476D01*
X107860403Y-88279476D02*
X107884593Y-88231095D01*
X107884593Y-87602142D02*
X107884593Y-87844047D01*
X107884593Y-87844047D02*
X107642688Y-87868238D01*
X107642688Y-87868238D02*
X107666879Y-87844047D01*
X107666879Y-87844047D02*
X107691069Y-87795666D01*
X107691069Y-87795666D02*
X107691069Y-87674714D01*
X107691069Y-87674714D02*
X107666879Y-87626333D01*
X107666879Y-87626333D02*
X107642688Y-87602142D01*
X107642688Y-87602142D02*
X107594307Y-87577952D01*
X107594307Y-87577952D02*
X107473355Y-87577952D01*
X107473355Y-87577952D02*
X107424974Y-87602142D01*
X107424974Y-87602142D02*
X107400784Y-87626333D01*
X107400784Y-87626333D02*
X107376593Y-87674714D01*
X107376593Y-87674714D02*
X107376593Y-87795666D01*
X107376593Y-87795666D02*
X107400784Y-87844047D01*
X107400784Y-87844047D02*
X107424974Y-87868238D01*
X107376593Y-103301762D02*
X107376593Y-103592048D01*
X107376593Y-103446905D02*
X107884593Y-103446905D01*
X107884593Y-103446905D02*
X107812022Y-103495286D01*
X107812022Y-103495286D02*
X107763641Y-103543667D01*
X107763641Y-103543667D02*
X107739450Y-103592048D01*
X107376593Y-102817952D02*
X107376593Y-103108238D01*
X107376593Y-102963095D02*
X107884593Y-102963095D01*
X107884593Y-102963095D02*
X107812022Y-103011476D01*
X107812022Y-103011476D02*
X107763641Y-103059857D01*
X107763641Y-103059857D02*
X107739450Y-103108238D01*
X107376593Y-108381762D02*
X107376593Y-108672048D01*
X107376593Y-108526905D02*
X107884593Y-108526905D01*
X107884593Y-108526905D02*
X107812022Y-108575286D01*
X107812022Y-108575286D02*
X107763641Y-108623667D01*
X107763641Y-108623667D02*
X107739450Y-108672048D01*
X107884593Y-108212428D02*
X107884593Y-107897952D01*
X107884593Y-107897952D02*
X107691069Y-108067285D01*
X107691069Y-108067285D02*
X107691069Y-107994714D01*
X107691069Y-107994714D02*
X107666879Y-107946333D01*
X107666879Y-107946333D02*
X107642688Y-107922142D01*
X107642688Y-107922142D02*
X107594307Y-107897952D01*
X107594307Y-107897952D02*
X107473355Y-107897952D01*
X107473355Y-107897952D02*
X107424974Y-107922142D01*
X107424974Y-107922142D02*
X107400784Y-107946333D01*
X107400784Y-107946333D02*
X107376593Y-107994714D01*
X107376593Y-107994714D02*
X107376593Y-108139857D01*
X107376593Y-108139857D02*
X107400784Y-108188238D01*
X107400784Y-108188238D02*
X107424974Y-108212428D01*
X168275406Y-97860904D02*
X168275406Y-97909285D01*
X168275406Y-97909285D02*
X168299596Y-97957666D01*
X168299596Y-97957666D02*
X168323787Y-97981856D01*
X168323787Y-97981856D02*
X168372168Y-98006047D01*
X168372168Y-98006047D02*
X168468930Y-98030237D01*
X168468930Y-98030237D02*
X168589882Y-98030237D01*
X168589882Y-98030237D02*
X168686644Y-98006047D01*
X168686644Y-98006047D02*
X168735025Y-97981856D01*
X168735025Y-97981856D02*
X168759216Y-97957666D01*
X168759216Y-97957666D02*
X168783406Y-97909285D01*
X168783406Y-97909285D02*
X168783406Y-97860904D01*
X168783406Y-97860904D02*
X168759216Y-97812523D01*
X168759216Y-97812523D02*
X168735025Y-97788332D01*
X168735025Y-97788332D02*
X168686644Y-97764142D01*
X168686644Y-97764142D02*
X168589882Y-97739951D01*
X168589882Y-97739951D02*
X168468930Y-97739951D01*
X168468930Y-97739951D02*
X168372168Y-97764142D01*
X168372168Y-97764142D02*
X168323787Y-97788332D01*
X168323787Y-97788332D02*
X168299596Y-97812523D01*
X168299596Y-97812523D02*
X168275406Y-97860904D01*
X168493120Y-98320523D02*
X168468930Y-98272142D01*
X168468930Y-98272142D02*
X168444739Y-98247952D01*
X168444739Y-98247952D02*
X168396358Y-98223761D01*
X168396358Y-98223761D02*
X168372168Y-98223761D01*
X168372168Y-98223761D02*
X168323787Y-98247952D01*
X168323787Y-98247952D02*
X168299596Y-98272142D01*
X168299596Y-98272142D02*
X168275406Y-98320523D01*
X168275406Y-98320523D02*
X168275406Y-98417285D01*
X168275406Y-98417285D02*
X168299596Y-98465666D01*
X168299596Y-98465666D02*
X168323787Y-98489857D01*
X168323787Y-98489857D02*
X168372168Y-98514047D01*
X168372168Y-98514047D02*
X168396358Y-98514047D01*
X168396358Y-98514047D02*
X168444739Y-98489857D01*
X168444739Y-98489857D02*
X168468930Y-98465666D01*
X168468930Y-98465666D02*
X168493120Y-98417285D01*
X168493120Y-98417285D02*
X168493120Y-98320523D01*
X168493120Y-98320523D02*
X168517311Y-98272142D01*
X168517311Y-98272142D02*
X168541501Y-98247952D01*
X168541501Y-98247952D02*
X168589882Y-98223761D01*
X168589882Y-98223761D02*
X168686644Y-98223761D01*
X168686644Y-98223761D02*
X168735025Y-98247952D01*
X168735025Y-98247952D02*
X168759216Y-98272142D01*
X168759216Y-98272142D02*
X168783406Y-98320523D01*
X168783406Y-98320523D02*
X168783406Y-98417285D01*
X168783406Y-98417285D02*
X168759216Y-98465666D01*
X168759216Y-98465666D02*
X168735025Y-98489857D01*
X168735025Y-98489857D02*
X168686644Y-98514047D01*
X168686644Y-98514047D02*
X168589882Y-98514047D01*
X168589882Y-98514047D02*
X168541501Y-98489857D01*
X168541501Y-98489857D02*
X168517311Y-98465666D01*
X168517311Y-98465666D02*
X168493120Y-98417285D01*
D11*
X126935713Y-73764819D02*
X126935713Y-72764819D01*
X126935713Y-73241009D02*
X126364285Y-73241009D01*
X126364285Y-73764819D02*
X126364285Y-72764819D01*
X123868095Y-120232438D02*
X123963333Y-120184819D01*
X123963333Y-120184819D02*
X124106190Y-120184819D01*
X124106190Y-120184819D02*
X124249047Y-120232438D01*
X124249047Y-120232438D02*
X124344285Y-120327676D01*
X124344285Y-120327676D02*
X124391904Y-120422914D01*
X124391904Y-120422914D02*
X124439523Y-120613390D01*
X124439523Y-120613390D02*
X124439523Y-120756247D01*
X124439523Y-120756247D02*
X124391904Y-120946723D01*
X124391904Y-120946723D02*
X124344285Y-121041961D01*
X124344285Y-121041961D02*
X124249047Y-121137200D01*
X124249047Y-121137200D02*
X124106190Y-121184819D01*
X124106190Y-121184819D02*
X124010952Y-121184819D01*
X124010952Y-121184819D02*
X123868095Y-121137200D01*
X123868095Y-121137200D02*
X123820476Y-121089580D01*
X123820476Y-121089580D02*
X123820476Y-120756247D01*
X123820476Y-120756247D02*
X124010952Y-120756247D01*
X165178570Y-120159819D02*
X164940475Y-121159819D01*
X164940475Y-121159819D02*
X164749999Y-120445533D01*
X164749999Y-120445533D02*
X164559523Y-121159819D01*
X164559523Y-121159819D02*
X164321428Y-120159819D01*
D12*
X107376593Y-105841762D02*
X107376593Y-106132048D01*
X107376593Y-105986905D02*
X107884593Y-105986905D01*
X107884593Y-105986905D02*
X107812022Y-106035286D01*
X107812022Y-106035286D02*
X107763641Y-106083667D01*
X107763641Y-106083667D02*
X107739450Y-106132048D01*
X107836212Y-105648238D02*
X107860403Y-105624047D01*
X107860403Y-105624047D02*
X107884593Y-105575666D01*
X107884593Y-105575666D02*
X107884593Y-105454714D01*
X107884593Y-105454714D02*
X107860403Y-105406333D01*
X107860403Y-105406333D02*
X107836212Y-105382142D01*
X107836212Y-105382142D02*
X107787831Y-105357952D01*
X107787831Y-105357952D02*
X107739450Y-105357952D01*
X107739450Y-105357952D02*
X107666879Y-105382142D01*
X107666879Y-105382142D02*
X107376593Y-105672428D01*
X107376593Y-105672428D02*
X107376593Y-105357952D01*
D11*
X109118094Y-120899104D02*
X108641904Y-120899104D01*
X109213332Y-121184819D02*
X108879999Y-120184819D01*
X108879999Y-120184819D02*
X108546666Y-121184819D01*
X126935713Y-121159819D02*
X126935713Y-120159819D01*
X126935713Y-120636009D02*
X126364285Y-120636009D01*
X126364285Y-121159819D02*
X126364285Y-120159819D01*
X131587142Y-72764819D02*
X131587142Y-73479104D01*
X131587142Y-73479104D02*
X131634761Y-73621961D01*
X131634761Y-73621961D02*
X131729999Y-73717200D01*
X131729999Y-73717200D02*
X131872856Y-73764819D01*
X131872856Y-73764819D02*
X131968094Y-73764819D01*
D10*
X149615714Y-107389695D02*
X149615714Y-106589695D01*
X149615714Y-106589695D02*
X148930000Y-106589695D01*
X148930000Y-106589695D02*
X148758571Y-106627790D01*
X148758571Y-106627790D02*
X148672857Y-106665885D01*
X148672857Y-106665885D02*
X148587143Y-106742076D01*
X148587143Y-106742076D02*
X148587143Y-106856361D01*
X148587143Y-106856361D02*
X148672857Y-106932552D01*
X148672857Y-106932552D02*
X148758571Y-106970647D01*
X148758571Y-106970647D02*
X148930000Y-107008742D01*
X148930000Y-107008742D02*
X149615714Y-107008742D01*
X147815714Y-107389695D02*
X147815714Y-106856361D01*
X147815714Y-106589695D02*
X147901428Y-106627790D01*
X147901428Y-106627790D02*
X147815714Y-106665885D01*
X147815714Y-106665885D02*
X147730000Y-106627790D01*
X147730000Y-106627790D02*
X147815714Y-106589695D01*
X147815714Y-106589695D02*
X147815714Y-106665885D01*
X147215714Y-106856361D02*
X146530000Y-106856361D01*
X146958571Y-106589695D02*
X146958571Y-107275409D01*
X146958571Y-107275409D02*
X146872857Y-107351600D01*
X146872857Y-107351600D02*
X146701428Y-107389695D01*
X146701428Y-107389695D02*
X146530000Y-107389695D01*
X145158572Y-107351600D02*
X145330000Y-107389695D01*
X145330000Y-107389695D02*
X145672857Y-107389695D01*
X145672857Y-107389695D02*
X145844286Y-107351600D01*
X145844286Y-107351600D02*
X145930000Y-107313504D01*
X145930000Y-107313504D02*
X146015714Y-107237314D01*
X146015714Y-107237314D02*
X146015714Y-107008742D01*
X146015714Y-107008742D02*
X145930000Y-106932552D01*
X145930000Y-106932552D02*
X145844286Y-106894457D01*
X145844286Y-106894457D02*
X145672857Y-106856361D01*
X145672857Y-106856361D02*
X145330000Y-106856361D01*
X145330000Y-106856361D02*
X145158572Y-106894457D01*
X144387143Y-107389695D02*
X144387143Y-106589695D01*
X143615715Y-107389695D02*
X143615715Y-106970647D01*
X143615715Y-106970647D02*
X143701429Y-106894457D01*
X143701429Y-106894457D02*
X143872857Y-106856361D01*
X143872857Y-106856361D02*
X144130000Y-106856361D01*
X144130000Y-106856361D02*
X144301429Y-106894457D01*
X144301429Y-106894457D02*
X144387143Y-106932552D01*
X141472857Y-106665885D02*
X141387143Y-106627790D01*
X141387143Y-106627790D02*
X141215715Y-106589695D01*
X141215715Y-106589695D02*
X140787143Y-106589695D01*
X140787143Y-106589695D02*
X140615715Y-106627790D01*
X140615715Y-106627790D02*
X140530000Y-106665885D01*
X140530000Y-106665885D02*
X140444286Y-106742076D01*
X140444286Y-106742076D02*
X140444286Y-106818266D01*
X140444286Y-106818266D02*
X140530000Y-106932552D01*
X140530000Y-106932552D02*
X141558572Y-107389695D01*
X141558572Y-107389695D02*
X140444286Y-107389695D01*
X139672857Y-107313504D02*
X139587143Y-107351600D01*
X139587143Y-107351600D02*
X139672857Y-107389695D01*
X139672857Y-107389695D02*
X139758571Y-107351600D01*
X139758571Y-107351600D02*
X139672857Y-107313504D01*
X139672857Y-107313504D02*
X139672857Y-107389695D01*
X137958571Y-106589695D02*
X138815714Y-106589695D01*
X138815714Y-106589695D02*
X138901428Y-106970647D01*
X138901428Y-106970647D02*
X138815714Y-106932552D01*
X138815714Y-106932552D02*
X138644286Y-106894457D01*
X138644286Y-106894457D02*
X138215714Y-106894457D01*
X138215714Y-106894457D02*
X138044286Y-106932552D01*
X138044286Y-106932552D02*
X137958571Y-106970647D01*
X137958571Y-106970647D02*
X137872857Y-107046838D01*
X137872857Y-107046838D02*
X137872857Y-107237314D01*
X137872857Y-107237314D02*
X137958571Y-107313504D01*
X137958571Y-107313504D02*
X138044286Y-107351600D01*
X138044286Y-107351600D02*
X138215714Y-107389695D01*
X138215714Y-107389695D02*
X138644286Y-107389695D01*
X138644286Y-107389695D02*
X138815714Y-107351600D01*
X138815714Y-107351600D02*
X138901428Y-107313504D01*
X136330000Y-106856361D02*
X136330000Y-107389695D01*
X136758571Y-106551600D02*
X137187142Y-107123028D01*
X137187142Y-107123028D02*
X136072857Y-107123028D01*
X135387142Y-107389695D02*
X135387142Y-106856361D01*
X135387142Y-106932552D02*
X135301428Y-106894457D01*
X135301428Y-106894457D02*
X135129999Y-106856361D01*
X135129999Y-106856361D02*
X134872856Y-106856361D01*
X134872856Y-106856361D02*
X134701428Y-106894457D01*
X134701428Y-106894457D02*
X134615714Y-106970647D01*
X134615714Y-106970647D02*
X134615714Y-107389695D01*
X134615714Y-106970647D02*
X134529999Y-106894457D01*
X134529999Y-106894457D02*
X134358571Y-106856361D01*
X134358571Y-106856361D02*
X134101428Y-106856361D01*
X134101428Y-106856361D02*
X133929999Y-106894457D01*
X133929999Y-106894457D02*
X133844285Y-106970647D01*
X133844285Y-106970647D02*
X133844285Y-107389695D01*
X132987142Y-107389695D02*
X132987142Y-106856361D01*
X132987142Y-106932552D02*
X132901428Y-106894457D01*
X132901428Y-106894457D02*
X132729999Y-106856361D01*
X132729999Y-106856361D02*
X132472856Y-106856361D01*
X132472856Y-106856361D02*
X132301428Y-106894457D01*
X132301428Y-106894457D02*
X132215714Y-106970647D01*
X132215714Y-106970647D02*
X132215714Y-107389695D01*
X132215714Y-106970647D02*
X132129999Y-106894457D01*
X132129999Y-106894457D02*
X131958571Y-106856361D01*
X131958571Y-106856361D02*
X131701428Y-106856361D01*
X131701428Y-106856361D02*
X131529999Y-106894457D01*
X131529999Y-106894457D02*
X131444285Y-106970647D01*
X131444285Y-106970647D02*
X131444285Y-107389695D01*
D12*
X107884593Y-98391095D02*
X107884593Y-98342714D01*
X107884593Y-98342714D02*
X107860403Y-98294333D01*
X107860403Y-98294333D02*
X107836212Y-98270143D01*
X107836212Y-98270143D02*
X107787831Y-98245952D01*
X107787831Y-98245952D02*
X107691069Y-98221762D01*
X107691069Y-98221762D02*
X107570117Y-98221762D01*
X107570117Y-98221762D02*
X107473355Y-98245952D01*
X107473355Y-98245952D02*
X107424974Y-98270143D01*
X107424974Y-98270143D02*
X107400784Y-98294333D01*
X107400784Y-98294333D02*
X107376593Y-98342714D01*
X107376593Y-98342714D02*
X107376593Y-98391095D01*
X107376593Y-98391095D02*
X107400784Y-98439476D01*
X107400784Y-98439476D02*
X107424974Y-98463667D01*
X107424974Y-98463667D02*
X107473355Y-98487857D01*
X107473355Y-98487857D02*
X107570117Y-98512048D01*
X107570117Y-98512048D02*
X107691069Y-98512048D01*
X107691069Y-98512048D02*
X107787831Y-98487857D01*
X107787831Y-98487857D02*
X107836212Y-98463667D01*
X107836212Y-98463667D02*
X107860403Y-98439476D01*
X107860403Y-98439476D02*
X107884593Y-98391095D01*
X107376593Y-97979857D02*
X107376593Y-97883095D01*
X107376593Y-97883095D02*
X107400784Y-97834714D01*
X107400784Y-97834714D02*
X107424974Y-97810523D01*
X107424974Y-97810523D02*
X107497545Y-97762142D01*
X107497545Y-97762142D02*
X107594307Y-97737952D01*
X107594307Y-97737952D02*
X107787831Y-97737952D01*
X107787831Y-97737952D02*
X107836212Y-97762142D01*
X107836212Y-97762142D02*
X107860403Y-97786333D01*
X107860403Y-97786333D02*
X107884593Y-97834714D01*
X107884593Y-97834714D02*
X107884593Y-97931476D01*
X107884593Y-97931476D02*
X107860403Y-97979857D01*
X107860403Y-97979857D02*
X107836212Y-98004047D01*
X107836212Y-98004047D02*
X107787831Y-98028238D01*
X107787831Y-98028238D02*
X107666879Y-98028238D01*
X107666879Y-98028238D02*
X107618498Y-98004047D01*
X107618498Y-98004047D02*
X107594307Y-97979857D01*
X107594307Y-97979857D02*
X107570117Y-97931476D01*
X107570117Y-97931476D02*
X107570117Y-97834714D01*
X107570117Y-97834714D02*
X107594307Y-97786333D01*
X107594307Y-97786333D02*
X107618498Y-97762142D01*
X107618498Y-97762142D02*
X107666879Y-97737952D01*
X107884593Y-90771095D02*
X107884593Y-90722714D01*
X107884593Y-90722714D02*
X107860403Y-90674333D01*
X107860403Y-90674333D02*
X107836212Y-90650143D01*
X107836212Y-90650143D02*
X107787831Y-90625952D01*
X107787831Y-90625952D02*
X107691069Y-90601762D01*
X107691069Y-90601762D02*
X107570117Y-90601762D01*
X107570117Y-90601762D02*
X107473355Y-90625952D01*
X107473355Y-90625952D02*
X107424974Y-90650143D01*
X107424974Y-90650143D02*
X107400784Y-90674333D01*
X107400784Y-90674333D02*
X107376593Y-90722714D01*
X107376593Y-90722714D02*
X107376593Y-90771095D01*
X107376593Y-90771095D02*
X107400784Y-90819476D01*
X107400784Y-90819476D02*
X107424974Y-90843667D01*
X107424974Y-90843667D02*
X107473355Y-90867857D01*
X107473355Y-90867857D02*
X107570117Y-90892048D01*
X107570117Y-90892048D02*
X107691069Y-90892048D01*
X107691069Y-90892048D02*
X107787831Y-90867857D01*
X107787831Y-90867857D02*
X107836212Y-90843667D01*
X107836212Y-90843667D02*
X107860403Y-90819476D01*
X107860403Y-90819476D02*
X107884593Y-90771095D01*
X107884593Y-90166333D02*
X107884593Y-90263095D01*
X107884593Y-90263095D02*
X107860403Y-90311476D01*
X107860403Y-90311476D02*
X107836212Y-90335666D01*
X107836212Y-90335666D02*
X107763641Y-90384047D01*
X107763641Y-90384047D02*
X107666879Y-90408238D01*
X107666879Y-90408238D02*
X107473355Y-90408238D01*
X107473355Y-90408238D02*
X107424974Y-90384047D01*
X107424974Y-90384047D02*
X107400784Y-90359857D01*
X107400784Y-90359857D02*
X107376593Y-90311476D01*
X107376593Y-90311476D02*
X107376593Y-90214714D01*
X107376593Y-90214714D02*
X107400784Y-90166333D01*
X107400784Y-90166333D02*
X107424974Y-90142142D01*
X107424974Y-90142142D02*
X107473355Y-90117952D01*
X107473355Y-90117952D02*
X107594307Y-90117952D01*
X107594307Y-90117952D02*
X107642688Y-90142142D01*
X107642688Y-90142142D02*
X107666879Y-90166333D01*
X107666879Y-90166333D02*
X107691069Y-90214714D01*
X107691069Y-90214714D02*
X107691069Y-90311476D01*
X107691069Y-90311476D02*
X107666879Y-90359857D01*
X107666879Y-90359857D02*
X107642688Y-90384047D01*
X107642688Y-90384047D02*
X107594307Y-90408238D01*
D11*
X144525237Y-72764819D02*
X144334761Y-72764819D01*
X144334761Y-72764819D02*
X144239523Y-72812438D01*
X144239523Y-72812438D02*
X144144285Y-72907676D01*
X144144285Y-72907676D02*
X144096666Y-73098152D01*
X144096666Y-73098152D02*
X144096666Y-73431485D01*
X144096666Y-73431485D02*
X144144285Y-73621961D01*
X144144285Y-73621961D02*
X144239523Y-73717200D01*
X144239523Y-73717200D02*
X144334761Y-73764819D01*
X144334761Y-73764819D02*
X144525237Y-73764819D01*
X144525237Y-73764819D02*
X144620475Y-73717200D01*
X144620475Y-73717200D02*
X144715713Y-73621961D01*
X144715713Y-73621961D02*
X144763332Y-73431485D01*
X144763332Y-73431485D02*
X144763332Y-73098152D01*
X144763332Y-73098152D02*
X144715713Y-72907676D01*
X144715713Y-72907676D02*
X144620475Y-72812438D01*
X144620475Y-72812438D02*
X144525237Y-72764819D01*
X111338571Y-73241009D02*
X111195714Y-73288628D01*
X111195714Y-73288628D02*
X111148095Y-73336247D01*
X111148095Y-73336247D02*
X111100476Y-73431485D01*
X111100476Y-73431485D02*
X111100476Y-73574342D01*
X111100476Y-73574342D02*
X111148095Y-73669580D01*
X111148095Y-73669580D02*
X111195714Y-73717200D01*
X111195714Y-73717200D02*
X111290952Y-73764819D01*
X111290952Y-73764819D02*
X111671904Y-73764819D01*
X111671904Y-73764819D02*
X111671904Y-72764819D01*
X111671904Y-72764819D02*
X111338571Y-72764819D01*
X111338571Y-72764819D02*
X111243333Y-72812438D01*
X111243333Y-72812438D02*
X111195714Y-72860057D01*
X111195714Y-72860057D02*
X111148095Y-72955295D01*
X111148095Y-72955295D02*
X111148095Y-73050533D01*
X111148095Y-73050533D02*
X111195714Y-73145771D01*
X111195714Y-73145771D02*
X111243333Y-73193390D01*
X111243333Y-73193390D02*
X111338571Y-73241009D01*
X111338571Y-73241009D02*
X111671904Y-73241009D01*
D12*
X107884593Y-78071095D02*
X107884593Y-78022714D01*
X107884593Y-78022714D02*
X107860403Y-77974333D01*
X107860403Y-77974333D02*
X107836212Y-77950143D01*
X107836212Y-77950143D02*
X107787831Y-77925952D01*
X107787831Y-77925952D02*
X107691069Y-77901762D01*
X107691069Y-77901762D02*
X107570117Y-77901762D01*
X107570117Y-77901762D02*
X107473355Y-77925952D01*
X107473355Y-77925952D02*
X107424974Y-77950143D01*
X107424974Y-77950143D02*
X107400784Y-77974333D01*
X107400784Y-77974333D02*
X107376593Y-78022714D01*
X107376593Y-78022714D02*
X107376593Y-78071095D01*
X107376593Y-78071095D02*
X107400784Y-78119476D01*
X107400784Y-78119476D02*
X107424974Y-78143667D01*
X107424974Y-78143667D02*
X107473355Y-78167857D01*
X107473355Y-78167857D02*
X107570117Y-78192048D01*
X107570117Y-78192048D02*
X107691069Y-78192048D01*
X107691069Y-78192048D02*
X107787831Y-78167857D01*
X107787831Y-78167857D02*
X107836212Y-78143667D01*
X107836212Y-78143667D02*
X107860403Y-78119476D01*
X107860403Y-78119476D02*
X107884593Y-78071095D01*
X107376593Y-77417952D02*
X107376593Y-77708238D01*
X107376593Y-77563095D02*
X107884593Y-77563095D01*
X107884593Y-77563095D02*
X107812022Y-77611476D01*
X107812022Y-77611476D02*
X107763641Y-77659857D01*
X107763641Y-77659857D02*
X107739450Y-77708238D01*
D11*
X154875713Y-121112200D02*
X154732856Y-121159819D01*
X154732856Y-121159819D02*
X154494761Y-121159819D01*
X154494761Y-121159819D02*
X154399523Y-121112200D01*
X154399523Y-121112200D02*
X154351904Y-121064580D01*
X154351904Y-121064580D02*
X154304285Y-120969342D01*
X154304285Y-120969342D02*
X154304285Y-120874104D01*
X154304285Y-120874104D02*
X154351904Y-120778866D01*
X154351904Y-120778866D02*
X154399523Y-120731247D01*
X154399523Y-120731247D02*
X154494761Y-120683628D01*
X154494761Y-120683628D02*
X154685237Y-120636009D01*
X154685237Y-120636009D02*
X154780475Y-120588390D01*
X154780475Y-120588390D02*
X154828094Y-120540771D01*
X154828094Y-120540771D02*
X154875713Y-120445533D01*
X154875713Y-120445533D02*
X154875713Y-120350295D01*
X154875713Y-120350295D02*
X154828094Y-120255057D01*
X154828094Y-120255057D02*
X154780475Y-120207438D01*
X154780475Y-120207438D02*
X154685237Y-120159819D01*
X154685237Y-120159819D02*
X154447142Y-120159819D01*
X154447142Y-120159819D02*
X154304285Y-120207438D01*
D12*
X107884593Y-95851095D02*
X107884593Y-95802714D01*
X107884593Y-95802714D02*
X107860403Y-95754333D01*
X107860403Y-95754333D02*
X107836212Y-95730143D01*
X107836212Y-95730143D02*
X107787831Y-95705952D01*
X107787831Y-95705952D02*
X107691069Y-95681762D01*
X107691069Y-95681762D02*
X107570117Y-95681762D01*
X107570117Y-95681762D02*
X107473355Y-95705952D01*
X107473355Y-95705952D02*
X107424974Y-95730143D01*
X107424974Y-95730143D02*
X107400784Y-95754333D01*
X107400784Y-95754333D02*
X107376593Y-95802714D01*
X107376593Y-95802714D02*
X107376593Y-95851095D01*
X107376593Y-95851095D02*
X107400784Y-95899476D01*
X107400784Y-95899476D02*
X107424974Y-95923667D01*
X107424974Y-95923667D02*
X107473355Y-95947857D01*
X107473355Y-95947857D02*
X107570117Y-95972048D01*
X107570117Y-95972048D02*
X107691069Y-95972048D01*
X107691069Y-95972048D02*
X107787831Y-95947857D01*
X107787831Y-95947857D02*
X107836212Y-95923667D01*
X107836212Y-95923667D02*
X107860403Y-95899476D01*
X107860403Y-95899476D02*
X107884593Y-95851095D01*
X107666879Y-95391476D02*
X107691069Y-95439857D01*
X107691069Y-95439857D02*
X107715260Y-95464047D01*
X107715260Y-95464047D02*
X107763641Y-95488238D01*
X107763641Y-95488238D02*
X107787831Y-95488238D01*
X107787831Y-95488238D02*
X107836212Y-95464047D01*
X107836212Y-95464047D02*
X107860403Y-95439857D01*
X107860403Y-95439857D02*
X107884593Y-95391476D01*
X107884593Y-95391476D02*
X107884593Y-95294714D01*
X107884593Y-95294714D02*
X107860403Y-95246333D01*
X107860403Y-95246333D02*
X107836212Y-95222142D01*
X107836212Y-95222142D02*
X107787831Y-95197952D01*
X107787831Y-95197952D02*
X107763641Y-95197952D01*
X107763641Y-95197952D02*
X107715260Y-95222142D01*
X107715260Y-95222142D02*
X107691069Y-95246333D01*
X107691069Y-95246333D02*
X107666879Y-95294714D01*
X107666879Y-95294714D02*
X107666879Y-95391476D01*
X107666879Y-95391476D02*
X107642688Y-95439857D01*
X107642688Y-95439857D02*
X107618498Y-95464047D01*
X107618498Y-95464047D02*
X107570117Y-95488238D01*
X107570117Y-95488238D02*
X107473355Y-95488238D01*
X107473355Y-95488238D02*
X107424974Y-95464047D01*
X107424974Y-95464047D02*
X107400784Y-95439857D01*
X107400784Y-95439857D02*
X107376593Y-95391476D01*
X107376593Y-95391476D02*
X107376593Y-95294714D01*
X107376593Y-95294714D02*
X107400784Y-95246333D01*
X107400784Y-95246333D02*
X107424974Y-95222142D01*
X107424974Y-95222142D02*
X107473355Y-95197952D01*
X107473355Y-95197952D02*
X107570117Y-95197952D01*
X107570117Y-95197952D02*
X107618498Y-95222142D01*
X107618498Y-95222142D02*
X107642688Y-95246333D01*
X107642688Y-95246333D02*
X107666879Y-95294714D01*
D11*
X134531904Y-73764819D02*
X134531904Y-72764819D01*
X133960476Y-73764819D02*
X134389047Y-73193390D01*
X133960476Y-72764819D02*
X134531904Y-73336247D01*
X159955713Y-72764819D02*
X159955713Y-73574342D01*
X159955713Y-73574342D02*
X159908094Y-73669580D01*
X159908094Y-73669580D02*
X159860475Y-73717200D01*
X159860475Y-73717200D02*
X159765237Y-73764819D01*
X159765237Y-73764819D02*
X159574761Y-73764819D01*
X159574761Y-73764819D02*
X159479523Y-73717200D01*
X159479523Y-73717200D02*
X159431904Y-73669580D01*
X159431904Y-73669580D02*
X159384285Y-73574342D01*
X159384285Y-73574342D02*
X159384285Y-72764819D01*
X157415713Y-120159819D02*
X156844285Y-120159819D01*
X157129999Y-121159819D02*
X157129999Y-120159819D01*
X139683332Y-121159819D02*
X139683332Y-120159819D01*
X139683332Y-120159819D02*
X139349999Y-120874104D01*
X139349999Y-120874104D02*
X139016666Y-120159819D01*
X139016666Y-120159819D02*
X139016666Y-121159819D01*
D12*
X168275406Y-105480904D02*
X168275406Y-105529285D01*
X168275406Y-105529285D02*
X168299596Y-105577666D01*
X168299596Y-105577666D02*
X168323787Y-105601856D01*
X168323787Y-105601856D02*
X168372168Y-105626047D01*
X168372168Y-105626047D02*
X168468930Y-105650237D01*
X168468930Y-105650237D02*
X168589882Y-105650237D01*
X168589882Y-105650237D02*
X168686644Y-105626047D01*
X168686644Y-105626047D02*
X168735025Y-105601856D01*
X168735025Y-105601856D02*
X168759216Y-105577666D01*
X168759216Y-105577666D02*
X168783406Y-105529285D01*
X168783406Y-105529285D02*
X168783406Y-105480904D01*
X168783406Y-105480904D02*
X168759216Y-105432523D01*
X168759216Y-105432523D02*
X168735025Y-105408332D01*
X168735025Y-105408332D02*
X168686644Y-105384142D01*
X168686644Y-105384142D02*
X168589882Y-105359951D01*
X168589882Y-105359951D02*
X168468930Y-105359951D01*
X168468930Y-105359951D02*
X168372168Y-105384142D01*
X168372168Y-105384142D02*
X168323787Y-105408332D01*
X168323787Y-105408332D02*
X168299596Y-105432523D01*
X168299596Y-105432523D02*
X168275406Y-105480904D01*
X168275406Y-106109857D02*
X168275406Y-105867952D01*
X168275406Y-105867952D02*
X168517311Y-105843761D01*
X168517311Y-105843761D02*
X168493120Y-105867952D01*
X168493120Y-105867952D02*
X168468930Y-105916333D01*
X168468930Y-105916333D02*
X168468930Y-106037285D01*
X168468930Y-106037285D02*
X168493120Y-106085666D01*
X168493120Y-106085666D02*
X168517311Y-106109857D01*
X168517311Y-106109857D02*
X168565692Y-106134047D01*
X168565692Y-106134047D02*
X168686644Y-106134047D01*
X168686644Y-106134047D02*
X168735025Y-106109857D01*
X168735025Y-106109857D02*
X168759216Y-106085666D01*
X168759216Y-106085666D02*
X168783406Y-106037285D01*
X168783406Y-106037285D02*
X168783406Y-105916333D01*
X168783406Y-105916333D02*
X168759216Y-105867952D01*
X168759216Y-105867952D02*
X168735025Y-105843761D01*
X168783406Y-77710237D02*
X168783406Y-77419951D01*
X168783406Y-77565094D02*
X168275406Y-77565094D01*
X168275406Y-77565094D02*
X168347977Y-77516713D01*
X168347977Y-77516713D02*
X168396358Y-77468332D01*
X168396358Y-77468332D02*
X168420549Y-77419951D01*
X168275406Y-78145666D02*
X168275406Y-78048904D01*
X168275406Y-78048904D02*
X168299596Y-78000523D01*
X168299596Y-78000523D02*
X168323787Y-77976333D01*
X168323787Y-77976333D02*
X168396358Y-77927952D01*
X168396358Y-77927952D02*
X168493120Y-77903761D01*
X168493120Y-77903761D02*
X168686644Y-77903761D01*
X168686644Y-77903761D02*
X168735025Y-77927952D01*
X168735025Y-77927952D02*
X168759216Y-77952142D01*
X168759216Y-77952142D02*
X168783406Y-78000523D01*
X168783406Y-78000523D02*
X168783406Y-78097285D01*
X168783406Y-78097285D02*
X168759216Y-78145666D01*
X168759216Y-78145666D02*
X168735025Y-78169857D01*
X168735025Y-78169857D02*
X168686644Y-78194047D01*
X168686644Y-78194047D02*
X168565692Y-78194047D01*
X168565692Y-78194047D02*
X168517311Y-78169857D01*
X168517311Y-78169857D02*
X168493120Y-78145666D01*
X168493120Y-78145666D02*
X168468930Y-78097285D01*
X168468930Y-78097285D02*
X168468930Y-78000523D01*
X168468930Y-78000523D02*
X168493120Y-77952142D01*
X168493120Y-77952142D02*
X168517311Y-77927952D01*
X168517311Y-77927952D02*
X168565692Y-77903761D01*
D11*
X142165713Y-121159819D02*
X142165713Y-120159819D01*
X142165713Y-120159819D02*
X141594285Y-121159819D01*
X141594285Y-121159819D02*
X141594285Y-120159819D01*
D12*
X107376593Y-110921762D02*
X107376593Y-111212048D01*
X107376593Y-111066905D02*
X107884593Y-111066905D01*
X107884593Y-111066905D02*
X107812022Y-111115286D01*
X107812022Y-111115286D02*
X107763641Y-111163667D01*
X107763641Y-111163667D02*
X107739450Y-111212048D01*
X107715260Y-110486333D02*
X107376593Y-110486333D01*
X107908784Y-110607285D02*
X107545926Y-110728238D01*
X107545926Y-110728238D02*
X107545926Y-110413761D01*
D11*
X136500476Y-73764819D02*
X136976666Y-73764819D01*
X136976666Y-73764819D02*
X136976666Y-72764819D01*
X151740476Y-73764819D02*
X152073809Y-73288628D01*
X152311904Y-73764819D02*
X152311904Y-72764819D01*
X152311904Y-72764819D02*
X151930952Y-72764819D01*
X151930952Y-72764819D02*
X151835714Y-72812438D01*
X151835714Y-72812438D02*
X151788095Y-72860057D01*
X151788095Y-72860057D02*
X151740476Y-72955295D01*
X151740476Y-72955295D02*
X151740476Y-73098152D01*
X151740476Y-73098152D02*
X151788095Y-73193390D01*
X151788095Y-73193390D02*
X151835714Y-73241009D01*
X151835714Y-73241009D02*
X151930952Y-73288628D01*
X151930952Y-73288628D02*
X152311904Y-73288628D01*
X147231904Y-73764819D02*
X147231904Y-72764819D01*
X147231904Y-72764819D02*
X146850952Y-72764819D01*
X146850952Y-72764819D02*
X146755714Y-72812438D01*
X146755714Y-72812438D02*
X146708095Y-72860057D01*
X146708095Y-72860057D02*
X146660476Y-72955295D01*
X146660476Y-72955295D02*
X146660476Y-73098152D01*
X146660476Y-73098152D02*
X146708095Y-73193390D01*
X146708095Y-73193390D02*
X146755714Y-73241009D01*
X146755714Y-73241009D02*
X146850952Y-73288628D01*
X146850952Y-73288628D02*
X147231904Y-73288628D01*
D12*
X168275406Y-115640904D02*
X168275406Y-115689285D01*
X168275406Y-115689285D02*
X168299596Y-115737666D01*
X168299596Y-115737666D02*
X168323787Y-115761856D01*
X168323787Y-115761856D02*
X168372168Y-115786047D01*
X168372168Y-115786047D02*
X168468930Y-115810237D01*
X168468930Y-115810237D02*
X168589882Y-115810237D01*
X168589882Y-115810237D02*
X168686644Y-115786047D01*
X168686644Y-115786047D02*
X168735025Y-115761856D01*
X168735025Y-115761856D02*
X168759216Y-115737666D01*
X168759216Y-115737666D02*
X168783406Y-115689285D01*
X168783406Y-115689285D02*
X168783406Y-115640904D01*
X168783406Y-115640904D02*
X168759216Y-115592523D01*
X168759216Y-115592523D02*
X168735025Y-115568332D01*
X168735025Y-115568332D02*
X168686644Y-115544142D01*
X168686644Y-115544142D02*
X168589882Y-115519951D01*
X168589882Y-115519951D02*
X168468930Y-115519951D01*
X168468930Y-115519951D02*
X168372168Y-115544142D01*
X168372168Y-115544142D02*
X168323787Y-115568332D01*
X168323787Y-115568332D02*
X168299596Y-115592523D01*
X168299596Y-115592523D02*
X168275406Y-115640904D01*
X168783406Y-116294047D02*
X168783406Y-116003761D01*
X168783406Y-116148904D02*
X168275406Y-116148904D01*
X168275406Y-116148904D02*
X168347977Y-116100523D01*
X168347977Y-116100523D02*
X168396358Y-116052142D01*
X168396358Y-116052142D02*
X168420549Y-116003761D01*
%LPC*%
D14*
%TO.C,REF\u002A\u002A*%
X170450000Y-74440000D03*
%TD*%
%TO.C,REF\u002A\u002A*%
X105650000Y-74440000D03*
%TD*%
%TO.C,REF\u002A\u002A*%
X105650000Y-119240000D03*
%TD*%
%TO.C,REF\u002A\u002A*%
X170450000Y-119240000D03*
%TD*%
D15*
%TO.C,REF\u002A\u002A*%
X170590000Y-77790000D03*
%TD*%
%TO.C,REF\u002A\u002A*%
X105570000Y-98110000D03*
%TD*%
%TO.C,REF\u002A\u002A*%
X105570000Y-87950000D03*
%TD*%
%TO.C,REF\u002A\u002A*%
X170590000Y-87950000D03*
%TD*%
%TO.C,REF\u002A\u002A*%
X105570000Y-113350000D03*
%TD*%
%TO.C,REF\u002A\u002A*%
X105570000Y-110810000D03*
%TD*%
%TO.C,REF\u002A\u002A*%
X170590000Y-93030000D03*
%TD*%
%TO.C,REF\u002A\u002A*%
X105570000Y-115890000D03*
%TD*%
%TO.C,REF\u002A\u002A*%
X105570000Y-108270000D03*
%TD*%
%TO.C,REF\u002A\u002A*%
X170590000Y-95570000D03*
%TD*%
%TO.C,REF\u002A\u002A*%
X105570000Y-93030000D03*
%TD*%
%TO.C,REF\u002A\u002A*%
X170590000Y-85410000D03*
%TD*%
%TO.C,REF\u002A\u002A*%
X170590000Y-82870000D03*
%TD*%
%TO.C,REF\u002A\u002A*%
X170590000Y-103190000D03*
%TD*%
%TO.C,REF\u002A\u002A*%
X105570000Y-77790000D03*
%TD*%
%TO.C,REF\u002A\u002A*%
X105570000Y-95570000D03*
%TD*%
%TO.C,REF\u002A\u002A*%
X105570000Y-82870000D03*
%TD*%
%TO.C,REF\u002A\u002A*%
X105570000Y-103190000D03*
%TD*%
%TO.C,REF\u002A\u002A*%
X105570000Y-80330000D03*
%TD*%
%TO.C,REF\u002A\u002A*%
X170590000Y-98110000D03*
%TD*%
%TO.C,REF\u002A\u002A*%
X170590000Y-90490000D03*
%TD*%
%TO.C,REF\u002A\u002A*%
X170590000Y-108270000D03*
%TD*%
%TO.C,REF\u002A\u002A*%
X105570000Y-85410000D03*
%TD*%
%TO.C,REF\u002A\u002A*%
X170590000Y-113350000D03*
%TD*%
%TO.C,REF\u002A\u002A*%
X170590000Y-80330000D03*
%TD*%
%TO.C,REF\u002A\u002A*%
X170590000Y-105730000D03*
%TD*%
%TO.C,REF\u002A\u002A*%
X105570000Y-100650000D03*
%TD*%
%TO.C,REF\u002A\u002A*%
X105570000Y-105730000D03*
%TD*%
%TO.C,REF\u002A\u002A*%
X170590000Y-115890000D03*
%TD*%
%TO.C,REF\u002A\u002A*%
X105570000Y-90490000D03*
%TD*%
%TO.C,REF\u002A\u002A*%
X170590000Y-110810000D03*
%TD*%
%TO.C,REF\u002A\u002A*%
X170590000Y-100650000D03*
%TD*%
D16*
X119030000Y-82870000D03*
X134270000Y-98110000D03*
X136810000Y-98110000D03*
X131730000Y-85410000D03*
X134270000Y-85410000D03*
X121570000Y-95570000D03*
X124110000Y-95570000D03*
X144430000Y-93030000D03*
X154590000Y-98110000D03*
X157130000Y-98110000D03*
X129190000Y-95570000D03*
X131730000Y-95570000D03*
X141890000Y-95570000D03*
X136810000Y-82870000D03*
X154590000Y-82870000D03*
X131730000Y-103190000D03*
X113950000Y-103190000D03*
X119030000Y-93030000D03*
X129190000Y-93030000D03*
X136810000Y-90490000D03*
X144430000Y-100650000D03*
X139350000Y-95570000D03*
X157130000Y-90490000D03*
X121570000Y-85410000D03*
X157130000Y-80330000D03*
X152050000Y-75250000D03*
X124110000Y-77790000D03*
X119030000Y-77790000D03*
X116490000Y-75250000D03*
X141890000Y-103190000D03*
X146970000Y-95570000D03*
X126650000Y-108270000D03*
X129190000Y-77790000D03*
X119030000Y-100650000D03*
X149510000Y-108270000D03*
X121570000Y-77790000D03*
X113950000Y-90490000D03*
X154590000Y-93030000D03*
X108870000Y-87950000D03*
X126650000Y-90490000D03*
X139350000Y-90490000D03*
X108870000Y-90490000D03*
X124110000Y-80330000D03*
X119030000Y-108270000D03*
X129190000Y-98110000D03*
X144430000Y-98110000D03*
X134270000Y-100650000D03*
X144430000Y-108270000D03*
X144430000Y-75250000D03*
X131730000Y-75250000D03*
X154590000Y-90490000D03*
X134270000Y-77790000D03*
X124110000Y-103190000D03*
X149510000Y-82870000D03*
X149510000Y-103190000D03*
X108870000Y-95570000D03*
X131730000Y-105730000D03*
X108870000Y-100650000D03*
X149510000Y-87950000D03*
X157130000Y-100650000D03*
X152050000Y-103190000D03*
X152050000Y-87950000D03*
X119030000Y-98110000D03*
X129190000Y-87950000D03*
X131730000Y-93030000D03*
X126650000Y-93030000D03*
X131730000Y-87950000D03*
X108870000Y-93030000D03*
X149510000Y-93030000D03*
X116490000Y-87950000D03*
X113950000Y-95570000D03*
X149510000Y-75250000D03*
X139350000Y-80330000D03*
X113950000Y-80330000D03*
X139350000Y-77790000D03*
X146970000Y-80330000D03*
X108870000Y-105730000D03*
X124110000Y-85410000D03*
X139350000Y-75250000D03*
X126650000Y-105730000D03*
X149510000Y-105730000D03*
X136810000Y-85410000D03*
X121570000Y-100650000D03*
X144430000Y-85410000D03*
X126650000Y-98110000D03*
X141890000Y-82870000D03*
X141890000Y-77790000D03*
X111410000Y-100650000D03*
X126650000Y-82870000D03*
X124110000Y-87950000D03*
X108870000Y-77790000D03*
X144430000Y-80330000D03*
X154590000Y-77790000D03*
X146970000Y-77790000D03*
X131730000Y-77790000D03*
X113950000Y-82870000D03*
X152050000Y-90490000D03*
X141890000Y-93030000D03*
X119030000Y-90490000D03*
X129190000Y-90490000D03*
X124110000Y-105730000D03*
X113950000Y-85410000D03*
X144430000Y-90490000D03*
X139350000Y-108270000D03*
X152050000Y-85410000D03*
X144430000Y-95570000D03*
X111410000Y-98110000D03*
X116490000Y-77790000D03*
X141890000Y-80330000D03*
X113950000Y-77790000D03*
X141890000Y-108270000D03*
X116490000Y-82870000D03*
X157130000Y-95570000D03*
X113950000Y-100650000D03*
X129190000Y-82870000D03*
X113950000Y-105730000D03*
X139350000Y-82870000D03*
X154590000Y-75250000D03*
X139350000Y-98110000D03*
X152050000Y-100650000D03*
X157130000Y-82870000D03*
X136810000Y-87950000D03*
X108870000Y-103190000D03*
X141890000Y-105730000D03*
X126650000Y-100650000D03*
X152050000Y-108270000D03*
X134270000Y-108270000D03*
X119030000Y-105730000D03*
X124110000Y-82870000D03*
X136810000Y-105730000D03*
X157130000Y-108270000D03*
X141890000Y-87950000D03*
X157130000Y-75250000D03*
X129190000Y-85410000D03*
X121570000Y-90490000D03*
X119030000Y-80330000D03*
X121570000Y-82870000D03*
X139350000Y-100650000D03*
X134270000Y-93030000D03*
X116490000Y-98110000D03*
X146970000Y-93030000D03*
X152050000Y-77790000D03*
X146970000Y-90490000D03*
X154590000Y-80330000D03*
X159670000Y-98110000D03*
X162210000Y-98110000D03*
X164750000Y-98110000D03*
X167290000Y-98110000D03*
X159670000Y-90490000D03*
X162210000Y-90490000D03*
X164750000Y-90490000D03*
X167290000Y-90490000D03*
X159670000Y-80330000D03*
X162210000Y-80330000D03*
X164750000Y-80330000D03*
X167290000Y-80330000D03*
X159670000Y-93030000D03*
X162210000Y-93030000D03*
X164750000Y-93030000D03*
X167290000Y-93030000D03*
X159670000Y-85410000D03*
X162210000Y-85410000D03*
X164750000Y-85410000D03*
X167290000Y-85410000D03*
X159670000Y-100650000D03*
X162210000Y-100650000D03*
X164750000Y-100650000D03*
X167290000Y-100650000D03*
X159670000Y-77790000D03*
X162210000Y-77790000D03*
X164750000Y-77790000D03*
X167290000Y-77790000D03*
X159670000Y-103190000D03*
X162210000Y-103190000D03*
X164750000Y-103190000D03*
X167290000Y-103190000D03*
X159670000Y-105730000D03*
X162210000Y-105730000D03*
X164750000Y-105730000D03*
X167290000Y-105730000D03*
X159670000Y-95570000D03*
X162210000Y-95570000D03*
X164750000Y-95570000D03*
X167290000Y-95570000D03*
X159670000Y-82870000D03*
X162210000Y-82870000D03*
X164750000Y-82870000D03*
X167290000Y-82870000D03*
X159670000Y-108270000D03*
X162210000Y-108270000D03*
X164750000Y-108270000D03*
X167290000Y-108270000D03*
X159670000Y-75250000D03*
X162210000Y-75250000D03*
X164750000Y-75250000D03*
X167290000Y-75250000D03*
X159670000Y-87950000D03*
X162210000Y-87950000D03*
X164750000Y-87950000D03*
X167290000Y-87950000D03*
X116490000Y-110810000D03*
X131730000Y-110810000D03*
X134270000Y-110810000D03*
X113950000Y-110810000D03*
X159670000Y-113350000D03*
X162210000Y-113350000D03*
X141890000Y-110810000D03*
X144430000Y-110810000D03*
X154590000Y-113350000D03*
X126650000Y-110810000D03*
X146970000Y-110810000D03*
X149510000Y-110810000D03*
X136810000Y-110810000D03*
X121570000Y-113350000D03*
X126650000Y-115890000D03*
X129190000Y-110810000D03*
X146970000Y-115890000D03*
X149510000Y-115890000D03*
X144430000Y-113350000D03*
X116490000Y-115890000D03*
X119030000Y-115890000D03*
X124110000Y-115890000D03*
X144430000Y-115890000D03*
X113950000Y-115890000D03*
X124110000Y-110810000D03*
X124110000Y-113350000D03*
X131730000Y-113350000D03*
X134270000Y-113350000D03*
X119030000Y-110810000D03*
X152050000Y-110810000D03*
X154590000Y-110810000D03*
X108870000Y-115890000D03*
X157130000Y-110810000D03*
X108870000Y-113350000D03*
X157130000Y-113350000D03*
X126650000Y-113350000D03*
X129190000Y-113350000D03*
X146970000Y-113350000D03*
X149510000Y-113350000D03*
X152050000Y-113350000D03*
X136810000Y-115890000D03*
X139350000Y-115890000D03*
X154590000Y-115890000D03*
X141890000Y-115890000D03*
X121570000Y-115890000D03*
X111410000Y-113350000D03*
X113950000Y-113350000D03*
X108870000Y-110810000D03*
X111410000Y-110810000D03*
X141890000Y-113350000D03*
X152050000Y-115890000D03*
X111410000Y-115890000D03*
X131730000Y-115890000D03*
X134270000Y-115890000D03*
X116490000Y-113350000D03*
X119030000Y-113350000D03*
X136810000Y-113350000D03*
X139350000Y-113350000D03*
X157130000Y-115890000D03*
X139350000Y-110810000D03*
X121570000Y-110810000D03*
X129190000Y-115890000D03*
X162210000Y-110810000D03*
X164750000Y-110810000D03*
X159670000Y-115890000D03*
X164750000Y-113350000D03*
X167290000Y-113350000D03*
X159670000Y-110810000D03*
X162210000Y-115890000D03*
X164750000Y-115890000D03*
X167290000Y-115890000D03*
X167290000Y-110810000D03*
X139350000Y-118430000D03*
X154590000Y-118430000D03*
X136810000Y-118430000D03*
X129190000Y-118430000D03*
X159670000Y-118430000D03*
X162210000Y-118430000D03*
X164750000Y-118430000D03*
X167290000Y-118430000D03*
X149510000Y-118430000D03*
X126650000Y-118430000D03*
X141890000Y-118430000D03*
X121570000Y-118430000D03*
X152050000Y-118430000D03*
X111410000Y-118430000D03*
X131730000Y-118430000D03*
X134270000Y-118430000D03*
X157130000Y-118430000D03*
X113950000Y-118430000D03*
X124110000Y-118430000D03*
X144430000Y-118430000D03*
X108870000Y-118430000D03*
X146970000Y-118430000D03*
X116490000Y-118430000D03*
X119030000Y-118430000D03*
X111410000Y-93030000D03*
X144430000Y-82870000D03*
X121570000Y-105730000D03*
X146970000Y-85410000D03*
X152050000Y-105730000D03*
X139350000Y-103190000D03*
X119030000Y-75250000D03*
X134270000Y-87950000D03*
X157130000Y-87950000D03*
X134270000Y-95570000D03*
X154590000Y-87950000D03*
X111410000Y-103190000D03*
X146970000Y-108270000D03*
X126650000Y-80330000D03*
X146970000Y-103190000D03*
X111410000Y-108270000D03*
X141890000Y-85410000D03*
X144430000Y-77790000D03*
X157130000Y-105730000D03*
X124110000Y-93030000D03*
X121570000Y-98110000D03*
X152050000Y-95570000D03*
X136810000Y-75250000D03*
X121570000Y-80330000D03*
X124110000Y-100650000D03*
X154590000Y-100650000D03*
X111410000Y-95570000D03*
X126650000Y-77790000D03*
X146970000Y-105730000D03*
X149510000Y-95570000D03*
X116490000Y-105730000D03*
X149510000Y-100650000D03*
X144430000Y-105730000D03*
X136810000Y-100650000D03*
X141890000Y-98110000D03*
X134270000Y-103190000D03*
X119030000Y-95570000D03*
X113950000Y-87950000D03*
X154590000Y-103190000D03*
X126650000Y-75250000D03*
X119030000Y-87950000D03*
X149510000Y-98110000D03*
X111410000Y-85410000D03*
X134270000Y-82870000D03*
X139350000Y-85410000D03*
X134270000Y-80330000D03*
X154590000Y-108270000D03*
X111410000Y-77790000D03*
X124110000Y-90490000D03*
X116490000Y-95570000D03*
X129190000Y-103190000D03*
X134270000Y-75250000D03*
X149510000Y-90490000D03*
X157130000Y-77790000D03*
X136810000Y-80330000D03*
X131730000Y-80330000D03*
X131730000Y-90490000D03*
X108870000Y-85410000D03*
X131730000Y-100650000D03*
X108870000Y-80330000D03*
X131730000Y-82870000D03*
X111410000Y-82870000D03*
X121570000Y-75250000D03*
X108870000Y-98110000D03*
X126650000Y-87950000D03*
X152050000Y-82870000D03*
X124110000Y-75250000D03*
X144430000Y-103190000D03*
X134270000Y-105730000D03*
X129190000Y-108270000D03*
X126650000Y-85410000D03*
X157130000Y-103190000D03*
X113950000Y-108270000D03*
X146970000Y-98110000D03*
X116490000Y-103190000D03*
X139350000Y-93030000D03*
X116490000Y-100650000D03*
X131730000Y-108270000D03*
X146970000Y-75250000D03*
X154590000Y-105730000D03*
X157130000Y-85410000D03*
X136810000Y-95570000D03*
X129190000Y-100650000D03*
X126650000Y-95570000D03*
X131730000Y-98110000D03*
X144430000Y-87950000D03*
X139350000Y-105730000D03*
X121570000Y-108270000D03*
X129190000Y-105730000D03*
X152050000Y-80330000D03*
X136810000Y-77790000D03*
X111410000Y-87950000D03*
X116490000Y-93030000D03*
X121570000Y-87950000D03*
X113950000Y-98110000D03*
X111410000Y-75250000D03*
X116490000Y-85410000D03*
X121570000Y-93030000D03*
X146970000Y-100650000D03*
X113950000Y-93030000D03*
X116490000Y-90490000D03*
X141890000Y-75250000D03*
X129190000Y-75250000D03*
X154590000Y-95570000D03*
X119030000Y-85410000D03*
X116490000Y-108270000D03*
X134270000Y-90490000D03*
X108870000Y-82870000D03*
X141890000Y-100650000D03*
X154590000Y-85410000D03*
X157130000Y-93030000D03*
X136810000Y-103190000D03*
X121570000Y-103190000D03*
X111410000Y-90490000D03*
X146970000Y-82870000D03*
X152050000Y-93030000D03*
X139350000Y-87950000D03*
X108870000Y-108270000D03*
X149510000Y-85410000D03*
X149510000Y-80330000D03*
X119030000Y-103190000D03*
X116490000Y-80330000D03*
X136810000Y-93030000D03*
X152050000Y-98110000D03*
X113950000Y-75250000D03*
X126650000Y-103190000D03*
X124110000Y-108270000D03*
X111410000Y-80330000D03*
X129190000Y-80330000D03*
X124110000Y-98110000D03*
X149510000Y-77790000D03*
X146970000Y-87950000D03*
X141890000Y-90490000D03*
X108870000Y-75250000D03*
X136810000Y-108270000D03*
X111410000Y-105730000D03*
%LPD*%
M02*
