%TF.GenerationSoftware,KiCad,Pcbnew,9.0.1*%
%TF.CreationDate,2025-05-06T23:50:29-04:00*%
%TF.ProjectId,classic-protoboard_18x24,636c6173-7369-4632-9d70-726f746f626f,rev?*%
%TF.SameCoordinates,Original*%
%TF.FileFunction,Profile,NP*%
%FSLAX46Y46*%
G04 Gerber Fmt 4.6, Leading zero omitted, Abs format (unit mm)*
G04 Created by KiCad (PCBNEW 9.0.1) date 2025-05-06 23:50:29*
%MOMM*%
%LPD*%
G01*
G04 APERTURE LIST*
%TA.AperFunction,Profile*%
%ADD10C,0.254000*%
%TD*%
%ADD11C,0.150000*%
G04 APERTURE END LIST*
D10*
X103050000Y-71840000D02*
X173050000Y-71840000D01*
X173050000Y-121840000D01*
X103050000Y-121840000D01*
X103050000Y-71840000D01*
D11*
X137240476Y-62544819D02*
X137907142Y-62544819D01*
X137907142Y-62544819D02*
X137478571Y-63544819D01*
X138478571Y-62544819D02*
X138573809Y-62544819D01*
X138573809Y-62544819D02*
X138669047Y-62592438D01*
X138669047Y-62592438D02*
X138716666Y-62640057D01*
X138716666Y-62640057D02*
X138764285Y-62735295D01*
X138764285Y-62735295D02*
X138811904Y-62925771D01*
X138811904Y-62925771D02*
X138811904Y-63163866D01*
X138811904Y-63163866D02*
X138764285Y-63354342D01*
X138764285Y-63354342D02*
X138716666Y-63449580D01*
X138716666Y-63449580D02*
X138669047Y-63497200D01*
X138669047Y-63497200D02*
X138573809Y-63544819D01*
X138573809Y-63544819D02*
X138478571Y-63544819D01*
X138478571Y-63544819D02*
X138383333Y-63497200D01*
X138383333Y-63497200D02*
X138335714Y-63449580D01*
X138335714Y-63449580D02*
X138288095Y-63354342D01*
X138288095Y-63354342D02*
X138240476Y-63163866D01*
X138240476Y-63163866D02*
X138240476Y-62925771D01*
X138240476Y-62925771D02*
X138288095Y-62735295D01*
X138288095Y-62735295D02*
X138335714Y-62640057D01*
X138335714Y-62640057D02*
X138383333Y-62592438D01*
X138383333Y-62592438D02*
X138478571Y-62544819D01*
D10*
X173050000Y-71340000D02*
X173050000Y-63653580D01*
X103050000Y-63653580D02*
X103050000Y-71340000D01*
X173050000Y-64240000D02*
X103050000Y-64240000D01*
X173050000Y-64240000D02*
X171923496Y-64826421D01*
X173050000Y-64240000D02*
X171923496Y-63653579D01*
X103050000Y-64240000D02*
X104176504Y-63653579D01*
X103050000Y-64240000D02*
X104176504Y-64826421D01*
D11*
X177954819Y-97078095D02*
X177954819Y-97554285D01*
X177954819Y-97554285D02*
X178431009Y-97601904D01*
X178431009Y-97601904D02*
X178383390Y-97554285D01*
X178383390Y-97554285D02*
X178335771Y-97459047D01*
X178335771Y-97459047D02*
X178335771Y-97220952D01*
X178335771Y-97220952D02*
X178383390Y-97125714D01*
X178383390Y-97125714D02*
X178431009Y-97078095D01*
X178431009Y-97078095D02*
X178526247Y-97030476D01*
X178526247Y-97030476D02*
X178764342Y-97030476D01*
X178764342Y-97030476D02*
X178859580Y-97078095D01*
X178859580Y-97078095D02*
X178907200Y-97125714D01*
X178907200Y-97125714D02*
X178954819Y-97220952D01*
X178954819Y-97220952D02*
X178954819Y-97459047D01*
X178954819Y-97459047D02*
X178907200Y-97554285D01*
X178907200Y-97554285D02*
X178859580Y-97601904D01*
X177954819Y-96411428D02*
X177954819Y-96316190D01*
X177954819Y-96316190D02*
X178002438Y-96220952D01*
X178002438Y-96220952D02*
X178050057Y-96173333D01*
X178050057Y-96173333D02*
X178145295Y-96125714D01*
X178145295Y-96125714D02*
X178335771Y-96078095D01*
X178335771Y-96078095D02*
X178573866Y-96078095D01*
X178573866Y-96078095D02*
X178764342Y-96125714D01*
X178764342Y-96125714D02*
X178859580Y-96173333D01*
X178859580Y-96173333D02*
X178907200Y-96220952D01*
X178907200Y-96220952D02*
X178954819Y-96316190D01*
X178954819Y-96316190D02*
X178954819Y-96411428D01*
X178954819Y-96411428D02*
X178907200Y-96506666D01*
X178907200Y-96506666D02*
X178859580Y-96554285D01*
X178859580Y-96554285D02*
X178764342Y-96601904D01*
X178764342Y-96601904D02*
X178573866Y-96649523D01*
X178573866Y-96649523D02*
X178335771Y-96649523D01*
X178335771Y-96649523D02*
X178145295Y-96601904D01*
X178145295Y-96601904D02*
X178050057Y-96554285D01*
X178050057Y-96554285D02*
X178002438Y-96506666D01*
X178002438Y-96506666D02*
X177954819Y-96411428D01*
D10*
X173550000Y-121840000D02*
X180236420Y-121840000D01*
X180236420Y-71840000D02*
X173550000Y-71840000D01*
X179650000Y-121840000D02*
X179650000Y-71840000D01*
X179650000Y-121840000D02*
X179063579Y-120713496D01*
X179650000Y-121840000D02*
X180236421Y-120713496D01*
X179650000Y-71840000D02*
X180236421Y-72966504D01*
X179650000Y-71840000D02*
X179063579Y-72966504D01*
M02*
