%TF.GenerationSoftware,KiCad,Pcbnew,9.0.1*%
%TF.CreationDate,2026-01-25T18:39:50-05:00*%
%TF.ProjectId,project-board-grid-smt,70726f6a-6563-4742-9d62-6f6172642d67,rev?*%
%TF.SameCoordinates,Original*%
%TF.FileFunction,Copper,L2,Bot*%
%TF.FilePolarity,Positive*%
%FSLAX46Y46*%
G04 Gerber Fmt 4.6, Leading zero omitted, Abs format (unit mm)*
G04 Created by KiCad (PCBNEW 9.0.1) date 2026-01-25 18:39:50*
%MOMM*%
%LPD*%
G01*
G04 APERTURE LIST*
G04 Aperture macros list*
%AMRotRect*
0 Rectangle, with rotation*
0 The origin of the aperture is its center*
0 $1 length*
0 $2 width*
0 $3 Rotation angle, in degrees counterclockwise*
0 Add horizontal line*
21,1,$1,$2,0,0,$3*%
G04 Aperture macros list end*
%TA.AperFunction,ComponentPad*%
%ADD10R,1.998980X1.998980*%
%TD*%
%TA.AperFunction,ComponentPad*%
%ADD11C,3.000000*%
%TD*%
%TA.AperFunction,SMDPad,CuDef*%
%ADD12R,1.000760X1.000760*%
%TD*%
%TA.AperFunction,SMDPad,CuDef*%
%ADD13RotRect,0.500000X1.600000X135.000000*%
%TD*%
%TA.AperFunction,SMDPad,CuDef*%
%ADD14RotRect,0.500000X11.200000X45.000000*%
%TD*%
%TA.AperFunction,SMDPad,CuDef*%
%ADD15RotRect,0.500000X10.400000X45.000000*%
%TD*%
%TA.AperFunction,SMDPad,CuDef*%
%ADD16RotRect,0.500000X9.600000X45.000000*%
%TD*%
%TA.AperFunction,SMDPad,CuDef*%
%ADD17RotRect,0.500000X8.800000X45.000000*%
%TD*%
%TA.AperFunction,SMDPad,CuDef*%
%ADD18RotRect,0.500000X8.000000X45.000000*%
%TD*%
%TA.AperFunction,SMDPad,CuDef*%
%ADD19RotRect,0.500000X7.200000X45.000000*%
%TD*%
%TA.AperFunction,SMDPad,CuDef*%
%ADD20RotRect,0.500000X6.400000X45.000000*%
%TD*%
%TA.AperFunction,SMDPad,CuDef*%
%ADD21RotRect,0.500000X5.600000X45.000000*%
%TD*%
%TA.AperFunction,SMDPad,CuDef*%
%ADD22RotRect,0.500000X4.800000X45.000000*%
%TD*%
%TA.AperFunction,SMDPad,CuDef*%
%ADD23RotRect,0.500000X4.000000X45.000000*%
%TD*%
%TA.AperFunction,SMDPad,CuDef*%
%ADD24RotRect,0.500000X3.200000X45.000000*%
%TD*%
%TA.AperFunction,SMDPad,CuDef*%
%ADD25RotRect,0.500000X2.400000X45.000000*%
%TD*%
%TA.AperFunction,SMDPad,CuDef*%
%ADD26RotRect,0.500000X1.600000X45.000000*%
%TD*%
%TA.AperFunction,SMDPad,CuDef*%
%ADD27RotRect,0.500000X2.400000X135.000000*%
%TD*%
%TA.AperFunction,SMDPad,CuDef*%
%ADD28RotRect,0.500000X3.200000X135.000000*%
%TD*%
%TA.AperFunction,SMDPad,CuDef*%
%ADD29RotRect,0.500000X4.000000X135.000000*%
%TD*%
%TA.AperFunction,SMDPad,CuDef*%
%ADD30RotRect,0.500000X4.800000X135.000000*%
%TD*%
%TA.AperFunction,SMDPad,CuDef*%
%ADD31RotRect,0.500000X5.600000X135.000000*%
%TD*%
%TA.AperFunction,SMDPad,CuDef*%
%ADD32RotRect,0.500000X6.400000X135.000000*%
%TD*%
%TA.AperFunction,SMDPad,CuDef*%
%ADD33RotRect,0.500000X7.200000X135.000000*%
%TD*%
%TA.AperFunction,SMDPad,CuDef*%
%ADD34RotRect,0.500000X8.000000X135.000000*%
%TD*%
%TA.AperFunction,SMDPad,CuDef*%
%ADD35RotRect,0.500000X8.800000X135.000000*%
%TD*%
%TA.AperFunction,SMDPad,CuDef*%
%ADD36RotRect,0.500000X9.600000X135.000000*%
%TD*%
%TA.AperFunction,SMDPad,CuDef*%
%ADD37RotRect,0.500000X10.400000X135.000000*%
%TD*%
%TA.AperFunction,SMDPad,CuDef*%
%ADD38RotRect,0.500000X11.200000X135.000000*%
%TD*%
%TA.AperFunction,SMDPad,CuDef*%
%ADD39RotRect,0.500000X1.600000X225.000000*%
%TD*%
%TA.AperFunction,Conductor*%
%ADD40C,0.304800*%
%TD*%
%TA.AperFunction,Profile*%
%ADD41C,0.381000*%
%TD*%
G04 APERTURE END LIST*
D10*
%TO.P,P45,1*%
%TO.N,N-000001127*%
X182691320Y-48328680D03*
%TD*%
%TO.P,P44,1*%
%TO.N,N-000001128*%
X185231320Y-48328680D03*
%TD*%
%TO.P,P43,1*%
%TO.N,N-000001129*%
X187771320Y-48328680D03*
%TD*%
%TO.P,P42,1*%
%TO.N,N-000001172*%
X190311320Y-48328680D03*
%TD*%
%TO.P,P41,1*%
%TO.N,N-000001173*%
X192851320Y-48328680D03*
%TD*%
%TO.P,P40,1*%
%TO.N,N-000001171*%
X195391320Y-48328680D03*
%TD*%
%TO.P,P39,1*%
%TO.N,N-000001170*%
X177611320Y-48328680D03*
%TD*%
%TO.P,P38,1*%
%TO.N,N-000001166*%
X180151320Y-48328680D03*
%TD*%
%TO.P,P37,1*%
%TO.N,N-000001174*%
X172531320Y-48328680D03*
%TD*%
%TO.P,P36,1*%
%TO.N,N-000001176*%
X175071320Y-48328680D03*
%TD*%
%TO.P,P17,1*%
%TO.N,N-000001177*%
X169991320Y-48328680D03*
%TD*%
%TO.P,P16,1*%
%TO.N,N-000001167*%
X167451320Y-48328680D03*
%TD*%
%TO.P,P8,1*%
%TO.N,N-000001139*%
X164911320Y-48328680D03*
%TD*%
%TO.P,P2,1*%
%TO.N,N-000001168*%
X162371320Y-48328680D03*
%TD*%
%TO.P,P1,1*%
%TO.N,N-000001169*%
X159831320Y-48328680D03*
%TD*%
D11*
%TO.P,H4,1*%
%TO.N,N-000001647*%
X199201320Y-47058680D03*
%TD*%
%TO.P,H3,1*%
%TO.N,N-000001650*%
X156021320Y-47058680D03*
%TD*%
%TO.P,H2,1*%
%TO.N,N-000001649*%
X199201320Y-91508680D03*
%TD*%
%TO.P,H1,1*%
%TO.N,N-000001648*%
X156021320Y-91508680D03*
%TD*%
D10*
%TO.P,P34,1*%
%TO.N,N-000001275*%
X192851320Y-91508680D03*
%TD*%
%TO.P,P33,1*%
%TO.N,N-000001276*%
X190311320Y-91508680D03*
%TD*%
%TO.P,P3,1*%
%TO.N,N-000001271*%
X169991320Y-91508680D03*
%TD*%
%TO.P,P4,1*%
%TO.N,N-000001272*%
X167451320Y-91508680D03*
%TD*%
%TO.P,P5,1*%
%TO.N,N-000001268*%
X164911320Y-91508680D03*
%TD*%
%TO.P,P6,1*%
%TO.N,N-000001269*%
X162371320Y-91508680D03*
%TD*%
%TO.P,P7,1*%
%TO.N,N-000001260*%
X159831320Y-91508680D03*
%TD*%
%TO.P,P9,1*%
%TO.N,N-000001261*%
X172531320Y-91508680D03*
%TD*%
%TO.P,P10,1*%
%TO.N,N-000001262*%
X175071320Y-91508680D03*
%TD*%
%TO.P,P11,1*%
%TO.N,N-000001264*%
X177611320Y-91508680D03*
%TD*%
%TO.P,P12,1*%
%TO.N,N-000001263*%
X180151320Y-91508680D03*
%TD*%
%TO.P,P13,1*%
%TO.N,N-000001267*%
X182691320Y-91508680D03*
%TD*%
%TO.P,P14,1*%
%TO.N,N-000001266*%
X187771320Y-91508680D03*
%TD*%
%TO.P,P15,1*%
%TO.N,N-000001265*%
X185231320Y-91508680D03*
%TD*%
%TO.P,P18,1*%
%TO.N,N-000001277*%
X195391320Y-45788680D03*
%TD*%
%TO.P,P19,1*%
%TO.N,N-000001279*%
X192851320Y-45788680D03*
%TD*%
%TO.P,P20,1*%
%TO.N,N-000001278*%
X190311320Y-45788680D03*
%TD*%
%TO.P,P21,1*%
%TO.N,N-000001282*%
X187771320Y-45788680D03*
%TD*%
%TO.P,P22,1*%
%TO.N,N-000001273*%
X185231320Y-45788680D03*
%TD*%
%TO.P,P23,1*%
%TO.N,N-000001280*%
X182691320Y-45788680D03*
%TD*%
%TO.P,P24,1*%
%TO.N,N-000001281*%
X180151320Y-45788680D03*
%TD*%
%TO.P,P25,1*%
%TO.N,N-000001270*%
X177611320Y-45788680D03*
%TD*%
%TO.P,P26,1*%
%TO.N,N-000001289*%
X175071320Y-45788680D03*
%TD*%
%TO.P,P27,1*%
%TO.N,N-000001287*%
X172531320Y-45788680D03*
%TD*%
%TO.P,P28,1*%
%TO.N,N-000001288*%
X169991320Y-45788680D03*
%TD*%
%TO.P,P29,1*%
%TO.N,N-000001283*%
X167451320Y-45788680D03*
%TD*%
%TO.P,P30,1*%
%TO.N,N-000001284*%
X164911320Y-45788680D03*
%TD*%
%TO.P,P31,1*%
%TO.N,N-000001286*%
X162371320Y-45788680D03*
%TD*%
%TO.P,P32,1*%
%TO.N,N-000001285*%
X159831320Y-45788680D03*
%TD*%
%TO.P,P35,1*%
%TO.N,N-000001274*%
X195391320Y-91508680D03*
%TD*%
D12*
%TO.P,U1644,1*%
%TO.N,N-00000849*%
X154751320Y-82618680D03*
%TD*%
%TO.P,U1643,1*%
%TO.N,N-00000848*%
X154751320Y-81348680D03*
%TD*%
%TO.P,U1642,1*%
%TO.N,N-00000648*%
X154751320Y-87698680D03*
%TD*%
%TO.P,U1641,1*%
%TO.N,N-00000647*%
X154751320Y-88968680D03*
%TD*%
%TO.P,U1640,1*%
%TO.N,N-00000646*%
X154751320Y-80078680D03*
%TD*%
%TO.P,U1639,1*%
%TO.N,N-00000645*%
X164911320Y-80078680D03*
%TD*%
%TO.P,U1638,1*%
%TO.N,N-00000644*%
X163641320Y-78808680D03*
%TD*%
%TO.P,U1637,1*%
%TO.N,N-00000651*%
X161101320Y-78808680D03*
%TD*%
%TO.P,U1636,1*%
%TO.N,N-00000650*%
X162371320Y-78808680D03*
%TD*%
%TO.P,U1635,1*%
%TO.N,N-00000600*%
X159831320Y-78808680D03*
%TD*%
%TO.P,U1634,1*%
%TO.N,N-00000599*%
X158561320Y-78808680D03*
%TD*%
%TO.P,U1633,1*%
%TO.N,N-00000598*%
X157291320Y-78808680D03*
%TD*%
%TO.P,U1632,1*%
%TO.N,N-00000597*%
X159831320Y-77538680D03*
%TD*%
%TO.P,U1631,1*%
%TO.N,N-00000596*%
X158561320Y-77538680D03*
%TD*%
%TO.P,U1630,1*%
%TO.N,N-00000715*%
X161101320Y-77538680D03*
%TD*%
%TO.P,U1629,1*%
%TO.N,N-00000704*%
X162371320Y-77538680D03*
%TD*%
%TO.P,U1628,1*%
%TO.N,N-00000740*%
X156021320Y-78808680D03*
%TD*%
%TO.P,U1627,1*%
%TO.N,N-00000739*%
X157291320Y-77538680D03*
%TD*%
%TO.P,U1626,1*%
%TO.N,N-00000738*%
X154751320Y-78808680D03*
%TD*%
%TO.P,U1625,1*%
%TO.N,N-00000737*%
X156021320Y-77538680D03*
%TD*%
%TO.P,U1624,1*%
%TO.N,N-00000736*%
X158561320Y-76268680D03*
%TD*%
%TO.P,U1623,1*%
%TO.N,N-00000735*%
X159831320Y-76268680D03*
%TD*%
%TO.P,U1622,1*%
%TO.N,N-00000734*%
X157291320Y-76268680D03*
%TD*%
%TO.P,U1621,1*%
%TO.N,N-00000733*%
X154751320Y-77538680D03*
%TD*%
%TO.P,U1620,1*%
%TO.N,N-00000723*%
X156021320Y-76268680D03*
%TD*%
%TO.P,U1619,1*%
%TO.N,N-000001092*%
X161101320Y-76268680D03*
%TD*%
%TO.P,U1618,1*%
%TO.N,N-000001091*%
X164911320Y-78808680D03*
%TD*%
%TO.P,U1617,1*%
%TO.N,N-000001078*%
X163641320Y-77538680D03*
%TD*%
%TO.P,U1616,1*%
%TO.N,N-000001077*%
X162371320Y-76268680D03*
%TD*%
%TO.P,U1615,1*%
%TO.N,N-000001076*%
X164911320Y-77538680D03*
%TD*%
%TO.P,U1614,1*%
%TO.N,N-000001075*%
X163641320Y-76268680D03*
%TD*%
%TO.P,U1613,1*%
%TO.N,N-000001084*%
X164911320Y-76268680D03*
%TD*%
%TO.P,U1612,1*%
%TO.N,N-000001044*%
X166181320Y-81348680D03*
%TD*%
%TO.P,U1611,1*%
%TO.N,N-000001043*%
X163641320Y-74998680D03*
%TD*%
%TO.P,U1610,1*%
%TO.N,N-000001068*%
X164911320Y-74998680D03*
%TD*%
%TO.P,U1609,1*%
%TO.N,N-000001067*%
X162371320Y-74998680D03*
%TD*%
%TO.P,U1608,1*%
%TO.N,N-000001066*%
X161101320Y-74998680D03*
%TD*%
%TO.P,U1607,1*%
%TO.N,N-000001056*%
X159831320Y-74998680D03*
%TD*%
%TO.P,U1606,1*%
%TO.N,N-000001064*%
X158561320Y-74998680D03*
%TD*%
%TO.P,U1605,1*%
%TO.N,N-00000847*%
X157291320Y-74998680D03*
%TD*%
%TO.P,U1604,1*%
%TO.N,N-00000846*%
X154751320Y-76268680D03*
%TD*%
%TO.P,U1603,1*%
%TO.N,N-00000643*%
X156021320Y-74998680D03*
%TD*%
%TO.P,U1602,1*%
%TO.N,N-00000642*%
X163641320Y-73728680D03*
%TD*%
%TO.P,U1601,1*%
%TO.N,N-00000641*%
X162371320Y-73728680D03*
%TD*%
%TO.P,U1600,1*%
%TO.N,N-00000630*%
X164911320Y-73728680D03*
%TD*%
%TO.P,U1599,1*%
%TO.N,N-00000639*%
X159831320Y-73728680D03*
%TD*%
%TO.P,U1598,1*%
%TO.N,N-00000621*%
X161101320Y-73728680D03*
%TD*%
%TO.P,U1597,1*%
%TO.N,N-00000611*%
X158561320Y-73728680D03*
%TD*%
%TO.P,U1596,1*%
%TO.N,N-00000595*%
X157291320Y-73728680D03*
%TD*%
%TO.P,U1595,1*%
%TO.N,N-00000594*%
X163641320Y-72458680D03*
%TD*%
%TO.P,U1594,1*%
%TO.N,N-00000603*%
X162371320Y-72458680D03*
%TD*%
%TO.P,U1593,1*%
%TO.N,N-00000629*%
X164911320Y-72458680D03*
%TD*%
%TO.P,U1592,1*%
%TO.N,N-00000628*%
X161101320Y-72458680D03*
%TD*%
%TO.P,U1591,1*%
%TO.N,N-00000713*%
X159831320Y-72458680D03*
%TD*%
%TO.P,U1590,1*%
%TO.N,N-00000712*%
X158561320Y-72458680D03*
%TD*%
%TO.P,U1589,1*%
%TO.N,N-00000731*%
X156021320Y-73728680D03*
%TD*%
%TO.P,U1588,1*%
%TO.N,N-00000730*%
X157291320Y-72458680D03*
%TD*%
%TO.P,U1587,1*%
%TO.N,N-00000729*%
X156021320Y-72458680D03*
%TD*%
%TO.P,U1586,1*%
%TO.N,N-00000728*%
X154751320Y-74998680D03*
%TD*%
%TO.P,U1585,1*%
%TO.N,N-00000727*%
X154751320Y-73728680D03*
%TD*%
%TO.P,U1584,1*%
%TO.N,N-00000726*%
X154751320Y-72458680D03*
%TD*%
%TO.P,U1583,1*%
%TO.N,N-00000725*%
X156021320Y-71188680D03*
%TD*%
%TO.P,U1582,1*%
%TO.N,N-00000724*%
X157291320Y-71188680D03*
%TD*%
%TO.P,U1581,1*%
%TO.N,N-00000695*%
X154751320Y-71188680D03*
%TD*%
%TO.P,U1580,1*%
%TO.N,N-000001090*%
X158561320Y-71188680D03*
%TD*%
%TO.P,U1579,1*%
%TO.N,N-000001089*%
X159831320Y-71188680D03*
%TD*%
%TO.P,U1578,1*%
%TO.N,N-000001110*%
X161101320Y-71188680D03*
%TD*%
%TO.P,U1577,1*%
%TO.N,N-000001109*%
X162371320Y-71188680D03*
%TD*%
%TO.P,U1576,1*%
%TO.N,N-000001108*%
X163641320Y-71188680D03*
%TD*%
%TO.P,U1575,1*%
%TO.N,N-000001107*%
X164911320Y-71188680D03*
%TD*%
%TO.P,U1574,1*%
%TO.N,N-000001106*%
X154751320Y-69918680D03*
%TD*%
%TO.P,U1573,1*%
%TO.N,N-000001042*%
X156021320Y-69918680D03*
%TD*%
%TO.P,U1572,1*%
%TO.N,N-000001041*%
X157291320Y-69918680D03*
%TD*%
%TO.P,U1571,1*%
%TO.N,N-000001063*%
X158561320Y-69918680D03*
%TD*%
%TO.P,U1570,1*%
%TO.N,N-000001062*%
X159831320Y-69918680D03*
%TD*%
%TO.P,U1569,1*%
%TO.N,N-000001061*%
X161101320Y-69918680D03*
%TD*%
%TO.P,U1568,1*%
%TO.N,N-000001060*%
X162371320Y-69918680D03*
%TD*%
%TO.P,U1567,1*%
%TO.N,N-000001059*%
X163641320Y-69918680D03*
%TD*%
%TO.P,U1566,1*%
%TO.N,N-00000845*%
X164911320Y-69918680D03*
%TD*%
%TO.P,U1565,1*%
%TO.N,N-00000844*%
X154751320Y-68648680D03*
%TD*%
%TO.P,U1564,1*%
%TO.N,N-00000638*%
X156021320Y-68648680D03*
%TD*%
%TO.P,U1563,1*%
%TO.N,N-00000637*%
X157291320Y-68648680D03*
%TD*%
%TO.P,U1562,1*%
%TO.N,N-00000636*%
X158561320Y-68648680D03*
%TD*%
%TO.P,U1561,1*%
%TO.N,N-00000635*%
X159831320Y-68648680D03*
%TD*%
%TO.P,U1560,1*%
%TO.N,N-00000634*%
X161101320Y-68648680D03*
%TD*%
%TO.P,U1559,1*%
%TO.N,N-00000610*%
X162371320Y-68648680D03*
%TD*%
%TO.P,U1558,1*%
%TO.N,N-00000609*%
X163641320Y-68648680D03*
%TD*%
%TO.P,U1557,1*%
%TO.N,N-00000627*%
X164911320Y-68648680D03*
%TD*%
%TO.P,U1556,1*%
%TO.N,N-00000626*%
X166181320Y-69918680D03*
%TD*%
%TO.P,U1555,1*%
%TO.N,N-00000625*%
X154751320Y-67378680D03*
%TD*%
%TO.P,U1554,1*%
%TO.N,N-00000624*%
X156021320Y-67378680D03*
%TD*%
%TO.P,U1553,1*%
%TO.N,N-00000623*%
X157291320Y-67378680D03*
%TD*%
%TO.P,U1552,1*%
%TO.N,N-00000711*%
X158561320Y-67378680D03*
%TD*%
%TO.P,U1551,1*%
%TO.N,N-00000710*%
X159831320Y-67378680D03*
%TD*%
%TO.P,U1550,1*%
%TO.N,N-00000685*%
X161101320Y-67378680D03*
%TD*%
%TO.P,U1549,1*%
%TO.N,N-00000684*%
X162371320Y-67378680D03*
%TD*%
%TO.P,U1548,1*%
%TO.N,N-00000683*%
X163641320Y-67378680D03*
%TD*%
%TO.P,U1547,1*%
%TO.N,N-00000682*%
X164911320Y-67378680D03*
%TD*%
%TO.P,U1546,1*%
%TO.N,N-00000681*%
X154751320Y-66108680D03*
%TD*%
%TO.P,U1545,1*%
%TO.N,N-00000680*%
X156021320Y-64838680D03*
%TD*%
%TO.P,U1544,1*%
%TO.N,N-00000679*%
X157291320Y-66108680D03*
%TD*%
%TO.P,U1543,1*%
%TO.N,N-00000678*%
X158561320Y-66108680D03*
%TD*%
%TO.P,U1542,1*%
%TO.N,N-00000667*%
X159831320Y-66108680D03*
%TD*%
%TO.P,U1541,1*%
%TO.N,N-000001088*%
X161101320Y-66108680D03*
%TD*%
%TO.P,U1540,1*%
%TO.N,N-000001087*%
X162371320Y-66108680D03*
%TD*%
%TO.P,U1539,1*%
%TO.N,N-000001105*%
X163641320Y-66108680D03*
%TD*%
%TO.P,U1538,1*%
%TO.N,N-000001104*%
X164911320Y-66108680D03*
%TD*%
%TO.P,U1537,1*%
%TO.N,N-000001103*%
X161101320Y-64838680D03*
%TD*%
%TO.P,U1536,1*%
%TO.N,N-000001093*%
X158561320Y-64838680D03*
%TD*%
%TO.P,U1535,1*%
%TO.N,N-000001101*%
X159831320Y-64838680D03*
%TD*%
%TO.P,U1534,1*%
%TO.N,N-000001040*%
X163641320Y-64838680D03*
%TD*%
%TO.P,U1533,1*%
%TO.N,N-000001039*%
X164911320Y-64838680D03*
%TD*%
%TO.P,U1532,1*%
%TO.N,N-000001058*%
X162371320Y-64838680D03*
%TD*%
%TO.P,U1531,1*%
%TO.N,N-000001057*%
X157291320Y-64838680D03*
%TD*%
%TO.P,U1530,1*%
%TO.N,N-000001102*%
X156021320Y-66108680D03*
%TD*%
%TO.P,U1529,1*%
%TO.N,N-000001165*%
X154751320Y-64838680D03*
%TD*%
%TO.P,U1528,1*%
%TO.N,N-000001164*%
X156021320Y-63568680D03*
%TD*%
%TO.P,U1527,1*%
%TO.N,N-00000834*%
X157291320Y-63568680D03*
%TD*%
%TO.P,U1526,1*%
%TO.N,N-00000842*%
X154751320Y-63568680D03*
%TD*%
%TO.P,U1525,1*%
%TO.N,N-00000633*%
X158561320Y-63568680D03*
%TD*%
%TO.P,U1524,1*%
%TO.N,N-00000632*%
X161101320Y-63568680D03*
%TD*%
%TO.P,U1523,1*%
%TO.N,N-00000631*%
X163641320Y-63568680D03*
%TD*%
%TO.P,U1522,1*%
%TO.N,N-00000640*%
X161101320Y-62298680D03*
%TD*%
%TO.P,U1521,1*%
%TO.N,N-00000666*%
X163641320Y-62298680D03*
%TD*%
%TO.P,U1520,1*%
%TO.N,N-00000608*%
X162371320Y-62298680D03*
%TD*%
%TO.P,U1519,1*%
%TO.N,N-00000607*%
X162371320Y-63568680D03*
%TD*%
%TO.P,U1518,1*%
%TO.N,N-00000622*%
X164911320Y-63568680D03*
%TD*%
%TO.P,U1517,1*%
%TO.N,N-00000612*%
X158561320Y-62298680D03*
%TD*%
%TO.P,U1516,1*%
%TO.N,N-00000620*%
X159831320Y-63568680D03*
%TD*%
%TO.P,U1515,1*%
%TO.N,N-00000619*%
X159831320Y-62298680D03*
%TD*%
%TO.P,U1514,1*%
%TO.N,N-00000618*%
X164911320Y-62298680D03*
%TD*%
%TO.P,U1513,1*%
%TO.N,N-00000709*%
X163641320Y-61028680D03*
%TD*%
%TO.P,U1512,1*%
%TO.N,N-00000708*%
X159831320Y-61028680D03*
%TD*%
%TO.P,U1511,1*%
%TO.N,N-00000676*%
X158561320Y-61028680D03*
%TD*%
%TO.P,U1510,1*%
%TO.N,N-00000675*%
X161101320Y-61028680D03*
%TD*%
%TO.P,U1509,1*%
%TO.N,N-00000674*%
X162371320Y-61028680D03*
%TD*%
%TO.P,U1508,1*%
%TO.N,N-00000673*%
X164911320Y-61028680D03*
%TD*%
%TO.P,U1507,1*%
%TO.N,N-00000672*%
X157291320Y-62298680D03*
%TD*%
%TO.P,U1506,1*%
%TO.N,N-00000671*%
X156021320Y-62298680D03*
%TD*%
%TO.P,U1505,1*%
%TO.N,N-00000670*%
X157291320Y-61028680D03*
%TD*%
%TO.P,U1504,1*%
%TO.N,N-00000669*%
X161101320Y-59758680D03*
%TD*%
%TO.P,U1503,1*%
%TO.N,N-00000668*%
X159831320Y-59758680D03*
%TD*%
%TO.P,U1502,1*%
%TO.N,N-000001086*%
X162371320Y-59758680D03*
%TD*%
%TO.P,U1501,1*%
%TO.N,N-000001085*%
X163641320Y-59758680D03*
%TD*%
%TO.P,U1500,1*%
%TO.N,N-000001100*%
X158561320Y-59758680D03*
%TD*%
%TO.P,U1499,1*%
%TO.N,N-000001099*%
X157291320Y-59758680D03*
%TD*%
%TO.P,U1498,1*%
%TO.N,N-000001098*%
X156021320Y-61028680D03*
%TD*%
%TO.P,U1497,1*%
%TO.N,N-000001097*%
X156021320Y-59758680D03*
%TD*%
%TO.P,U1496,1*%
%TO.N,N-000001096*%
X159831320Y-58488680D03*
%TD*%
%TO.P,U1495,1*%
%TO.N,N-000001038*%
X161101320Y-58488680D03*
%TD*%
%TO.P,U1494,1*%
%TO.N,N-000001047*%
X162371320Y-58488680D03*
%TD*%
%TO.P,U1493,1*%
%TO.N,N-000001163*%
X156021320Y-58488680D03*
%TD*%
%TO.P,U1492,1*%
%TO.N,N-000001162*%
X157291320Y-58488680D03*
%TD*%
%TO.P,U1491,1*%
%TO.N,N-000001161*%
X158561320Y-58488680D03*
%TD*%
%TO.P,U1490,1*%
%TO.N,N-000001160*%
X154751320Y-62298680D03*
%TD*%
%TO.P,U1489,1*%
%TO.N,N-000001159*%
X154751320Y-61028680D03*
%TD*%
%TO.P,U1488,1*%
%TO.N,N-00000841*%
X154751320Y-59758680D03*
%TD*%
%TO.P,U1487,1*%
%TO.N,N-00000840*%
X154751320Y-58488680D03*
%TD*%
%TO.P,U1486,1*%
%TO.N,N-00000665*%
X161101320Y-57218680D03*
%TD*%
%TO.P,U1485,1*%
%TO.N,N-00000664*%
X159831320Y-57218680D03*
%TD*%
%TO.P,U1484,1*%
%TO.N,N-00000663*%
X157291320Y-57218680D03*
%TD*%
%TO.P,U1483,1*%
%TO.N,N-00000662*%
X158561320Y-57218680D03*
%TD*%
%TO.P,U1482,1*%
%TO.N,N-00000661*%
X156021320Y-57218680D03*
%TD*%
%TO.P,U1481,1*%
%TO.N,N-00000606*%
X154751320Y-57218680D03*
%TD*%
%TO.P,U1471,1*%
%TO.N,N-00000677*%
X163641320Y-58488680D03*
%TD*%
%TO.P,U1470,1*%
%TO.N,N-00000703*%
X162371320Y-57218680D03*
%TD*%
%TO.P,U1467,1*%
%TO.N,N-00000702*%
X163641320Y-57218680D03*
%TD*%
%TO.P,U1462,1*%
%TO.N,N-000001074*%
X164911320Y-59758680D03*
%TD*%
%TO.P,U1461,1*%
%TO.N,N-000001095*%
X164911320Y-58488680D03*
%TD*%
%TO.P,U1460,1*%
%TO.N,N-000001094*%
X164911320Y-57218680D03*
%TD*%
%TO.P,U1457,1*%
%TO.N,N-000001065*%
X159831320Y-55948680D03*
%TD*%
%TO.P,U1456,1*%
%TO.N,N-000001073*%
X161101320Y-55948680D03*
%TD*%
%TO.P,U1455,1*%
%TO.N,N-000001072*%
X162371320Y-55948680D03*
%TD*%
%TO.P,U1453,1*%
%TO.N,N-000001158*%
X163641320Y-55948680D03*
%TD*%
%TO.P,U1452,1*%
%TO.N,N-000001148*%
X164911320Y-55948680D03*
%TD*%
%TO.P,U1451,1*%
%TO.N,N-000001156*%
X158561320Y-55948680D03*
%TD*%
%TO.P,U1450,1*%
%TO.N,N-000001155*%
X157291320Y-55948680D03*
%TD*%
%TO.P,U1449,1*%
%TO.N,N-00000839*%
X156021320Y-55948680D03*
%TD*%
%TO.P,U1448,1*%
%TO.N,N-00000838*%
X154751320Y-55948680D03*
%TD*%
%TO.P,U1447,1*%
%TO.N,N-00000660*%
X154751320Y-54678680D03*
%TD*%
%TO.P,U1446,1*%
%TO.N,N-00000659*%
X157291320Y-54678680D03*
%TD*%
%TO.P,U1445,1*%
%TO.N,N-00000649*%
X156021320Y-54678680D03*
%TD*%
%TO.P,U1444,1*%
%TO.N,N-00000657*%
X158561320Y-54678680D03*
%TD*%
%TO.P,U1443,1*%
%TO.N,N-00000656*%
X159831320Y-54678680D03*
%TD*%
%TO.P,U1442,1*%
%TO.N,N-00000605*%
X161101320Y-54678680D03*
%TD*%
%TO.P,U1441,1*%
%TO.N,N-00000604*%
X162371320Y-54678680D03*
%TD*%
%TO.P,U1440,1*%
%TO.N,N-00000617*%
X163641320Y-54678680D03*
%TD*%
%TO.P,U1439,1*%
%TO.N,N-00000616*%
X164911320Y-54678680D03*
%TD*%
%TO.P,U1438,1*%
%TO.N,N-00000615*%
X166181320Y-54678680D03*
%TD*%
%TO.P,U1437,1*%
%TO.N,N-00000614*%
X166181320Y-55948680D03*
%TD*%
%TO.P,U1436,1*%
%TO.N,N-00000613*%
X167451320Y-55948680D03*
%TD*%
%TO.P,U1435,1*%
%TO.N,N-00000707*%
X167451320Y-54678680D03*
%TD*%
%TO.P,U1430,1*%
%TO.N,N-00000701*%
X168721320Y-55948680D03*
%TD*%
%TO.P,U1427,1*%
%TO.N,N-00000700*%
X166181320Y-57218680D03*
%TD*%
%TO.P,U1426,1*%
%TO.N,N-00000699*%
X167451320Y-57218680D03*
%TD*%
%TO.P,U1425,1*%
%TO.N,N-00000698*%
X168721320Y-57218680D03*
%TD*%
%TO.P,U1424,1*%
%TO.N,N-000001083*%
X162371320Y-53408680D03*
%TD*%
%TO.P,U1423,1*%
%TO.N,N-000001082*%
X161101320Y-53408680D03*
%TD*%
%TO.P,U1422,1*%
%TO.N,N-000001055*%
X164911320Y-53408680D03*
%TD*%
%TO.P,U1421,1*%
%TO.N,N-000001054*%
X166181320Y-53408680D03*
%TD*%
%TO.P,U1420,1*%
%TO.N,N-000001053*%
X163641320Y-53408680D03*
%TD*%
%TO.P,U1419,1*%
%TO.N,N-000001052*%
X159831320Y-53408680D03*
%TD*%
%TO.P,U1418,1*%
%TO.N,N-000001051*%
X157291320Y-53408680D03*
%TD*%
%TO.P,U1417,1*%
%TO.N,N-000001071*%
X158561320Y-53408680D03*
%TD*%
%TO.P,U1416,1*%
%TO.N,N-000001070*%
X167451320Y-53408680D03*
%TD*%
%TO.P,U1414,1*%
%TO.N,N-000001154*%
X169991320Y-57218680D03*
%TD*%
%TO.P,U1412,1*%
%TO.N,N-000001153*%
X169991320Y-55948680D03*
%TD*%
%TO.P,U1411,1*%
%TO.N,N-000001152*%
X169991320Y-54678680D03*
%TD*%
%TO.P,U1410,1*%
%TO.N,N-00000837*%
X168721320Y-54678680D03*
%TD*%
%TO.P,U1409,1*%
%TO.N,N-00000836*%
X171261320Y-55948680D03*
%TD*%
%TO.P,U1406,1*%
%TO.N,N-00000655*%
X171261320Y-57218680D03*
%TD*%
%TO.P,U1403,1*%
%TO.N,N-00000593*%
X172531320Y-55948680D03*
%TD*%
%TO.P,U1402,1*%
%TO.N,N-00000602*%
X171261320Y-54678680D03*
%TD*%
%TO.P,U1401,1*%
%TO.N,N-00000658*%
X169991320Y-53408680D03*
%TD*%
%TO.P,U1400,1*%
%TO.N,N-00000722*%
X168721320Y-53408680D03*
%TD*%
%TO.P,U1399,1*%
%TO.N,N-00000721*%
X172531320Y-53408680D03*
%TD*%
%TO.P,U1398,1*%
%TO.N,N-00000720*%
X171261320Y-53408680D03*
%TD*%
%TO.P,U1397,1*%
%TO.N,N-00000719*%
X172531320Y-54678680D03*
%TD*%
%TO.P,U1396,1*%
%TO.N,N-00000706*%
X173801320Y-55948680D03*
%TD*%
%TO.P,U1394,1*%
%TO.N,N-00000697*%
X173801320Y-54678680D03*
%TD*%
%TO.P,U1391,1*%
%TO.N,N-00000696*%
X172531320Y-57218680D03*
%TD*%
%TO.P,U1390,1*%
%TO.N,N-00000686*%
X173801320Y-57218680D03*
%TD*%
%TO.P,U1388,1*%
%TO.N,N-00000694*%
X175071320Y-55948680D03*
%TD*%
%TO.P,U1387,1*%
%TO.N,N-00000693*%
X173801320Y-53408680D03*
%TD*%
%TO.P,U1386,1*%
%TO.N,N-00000692*%
X175071320Y-54678680D03*
%TD*%
%TO.P,U1385,1*%
%TO.N,N-000001081*%
X176341320Y-55948680D03*
%TD*%
%TO.P,U1384,1*%
%TO.N,N-000001080*%
X176341320Y-54678680D03*
%TD*%
%TO.P,U1380,1*%
%TO.N,N-000001050*%
X177611320Y-55948680D03*
%TD*%
%TO.P,U1379,1*%
%TO.N,N-000001049*%
X177611320Y-54678680D03*
%TD*%
%TO.P,U1376,1*%
%TO.N,N-000001151*%
X178881320Y-55948680D03*
%TD*%
%TO.P,U1375,1*%
%TO.N,N-000001150*%
X178881320Y-54678680D03*
%TD*%
%TO.P,U1374,1*%
%TO.N,N-000001149*%
X178881320Y-53408680D03*
%TD*%
%TO.P,U1373,1*%
%TO.N,N-000001157*%
X177611320Y-53408680D03*
%TD*%
%TO.P,U1372,1*%
%TO.N,N-000001183*%
X176341320Y-53408680D03*
%TD*%
%TO.P,U1371,1*%
%TO.N,N-00000835*%
X175071320Y-53408680D03*
%TD*%
%TO.P,U1370,1*%
%TO.N,N-00000732*%
X175071320Y-57218680D03*
%TD*%
%TO.P,U1369,1*%
%TO.N,N-00000654*%
X176341320Y-57218680D03*
%TD*%
%TO.P,U1368,1*%
%TO.N,N-00000653*%
X180151320Y-55948680D03*
%TD*%
%TO.P,U1367,1*%
%TO.N,N-00000652*%
X180151320Y-54678680D03*
%TD*%
%TO.P,U1364,1*%
%TO.N,N-00000601*%
X177611320Y-57218680D03*
%TD*%
%TO.P,U1362,1*%
%TO.N,N-00000718*%
X178881320Y-57218680D03*
%TD*%
%TO.P,U1361,1*%
%TO.N,N-00000717*%
X180151320Y-57218680D03*
%TD*%
%TO.P,U1358,1*%
%TO.N,N-00000716*%
X181421320Y-57218680D03*
%TD*%
%TO.P,U1357,1*%
%TO.N,N-00000705*%
X181421320Y-55948680D03*
%TD*%
%TO.P,U1356,1*%
%TO.N,N-00000714*%
X181421320Y-54678680D03*
%TD*%
%TO.P,U1355,1*%
%TO.N,N-00000691*%
X180151320Y-53408680D03*
%TD*%
%TO.P,U1354,1*%
%TO.N,N-00000690*%
X181421320Y-53408680D03*
%TD*%
%TO.P,U1353,1*%
%TO.N,N-00000689*%
X182691320Y-54678680D03*
%TD*%
%TO.P,U1352,1*%
%TO.N,N-00000688*%
X182691320Y-55948680D03*
%TD*%
%TO.P,U1349,1*%
%TO.N,N-00000687*%
X182691320Y-57218680D03*
%TD*%
%TO.P,U1348,1*%
%TO.N,N-00000880*%
X183961320Y-57218680D03*
%TD*%
%TO.P,U1345,1*%
%TO.N,N-000001079*%
X177611320Y-58488680D03*
%TD*%
%TO.P,U1344,1*%
%TO.N,N-000001048*%
X166181320Y-58488680D03*
%TD*%
%TO.P,U1343,1*%
%TO.N,N-000001037*%
X183961320Y-55948680D03*
%TD*%
%TO.P,U1342,1*%
%TO.N,N-000001046*%
X183961320Y-54678680D03*
%TD*%
%TO.P,U1341,1*%
%TO.N,N-000001045*%
X185231320Y-57218680D03*
%TD*%
%TO.P,U1338,1*%
%TO.N,N-000001069*%
X185231320Y-55948680D03*
%TD*%
%TO.P,U1337,1*%
%TO.N,N-000001182*%
X185231320Y-54678680D03*
%TD*%
%TO.P,U1336,1*%
%TO.N,N-000001181*%
X156021320Y-53408680D03*
%TD*%
%TO.P,U1335,1*%
%TO.N,N-000001180*%
X154751320Y-53408680D03*
%TD*%
%TO.P,U1334,1*%
%TO.N,N-000001179*%
X182691320Y-53408680D03*
%TD*%
%TO.P,U1333,1*%
%TO.N,N-000001178*%
X183961320Y-53408680D03*
%TD*%
%TO.P,U1332,1*%
%TO.N,N-000001142*%
X178881320Y-85158680D03*
%TD*%
%TO.P,U1331,1*%
%TO.N,N-000001141*%
X180151320Y-85158680D03*
%TD*%
%TO.P,U1330,1*%
%TO.N,N-00000938*%
X178881320Y-83888680D03*
%TD*%
%TO.P,U1329,1*%
%TO.N,N-00000937*%
X180151320Y-83888680D03*
%TD*%
%TO.P,U1326,1*%
%TO.N,N-00000926*%
X181421320Y-88968680D03*
%TD*%
%TO.P,U1325,1*%
%TO.N,N-000001018*%
X181421320Y-87698680D03*
%TD*%
%TO.P,U1324,1*%
%TO.N,N-000001017*%
X181421320Y-86428680D03*
%TD*%
%TO.P,U1323,1*%
%TO.N,N-000001035*%
X181421320Y-85158680D03*
%TD*%
%TO.P,U1322,1*%
%TO.N,N-000001034*%
X181421320Y-83888680D03*
%TD*%
%TO.P,U1320,1*%
%TO.N,N-000001033*%
X178881320Y-82618680D03*
%TD*%
%TO.P,U1319,1*%
%TO.N,N-000001032*%
X180151320Y-82618680D03*
%TD*%
%TO.P,U1318,1*%
%TO.N,N-00000205*%
X181421320Y-82618680D03*
%TD*%
%TO.P,U1317,1*%
%TO.N,N-00000213*%
X182691320Y-88968680D03*
%TD*%
%TO.P,U1316,1*%
%TO.N,N-00000157*%
X182691320Y-87698680D03*
%TD*%
%TO.P,U1315,1*%
%TO.N,N-00000156*%
X182691320Y-86428680D03*
%TD*%
%TO.P,U1314,1*%
%TO.N,N-00000155*%
X182691320Y-85158680D03*
%TD*%
%TO.P,U1313,1*%
%TO.N,N-00000154*%
X182691320Y-83888680D03*
%TD*%
%TO.P,U1311,1*%
%TO.N,N-00000153*%
X182691320Y-82618680D03*
%TD*%
%TO.P,U1310,1*%
%TO.N,N-00000152*%
X183961320Y-88968680D03*
%TD*%
%TO.P,U1309,1*%
%TO.N,N-00000151*%
X183961320Y-87698680D03*
%TD*%
%TO.P,U1308,1*%
%TO.N,N-00000150*%
X183961320Y-86428680D03*
%TD*%
%TO.P,U1307,1*%
%TO.N,N-000001140*%
X183961320Y-85158680D03*
%TD*%
%TO.P,U1306,1*%
%TO.N,N-000001130*%
X183961320Y-83888680D03*
%TD*%
%TO.P,U1304,1*%
%TO.N,N-00000935*%
X183961320Y-82618680D03*
%TD*%
%TO.P,U1303,1*%
%TO.N,N-00000934*%
X185231320Y-88968680D03*
%TD*%
%TO.P,U1302,1*%
%TO.N,N-00000933*%
X185231320Y-87698680D03*
%TD*%
%TO.P,U1301,1*%
%TO.N,N-00000932*%
X185231320Y-86428680D03*
%TD*%
%TO.P,U1300,1*%
%TO.N,N-000001016*%
X185231320Y-85158680D03*
%TD*%
%TO.P,U1299,1*%
%TO.N,N-000001015*%
X185231320Y-83888680D03*
%TD*%
%TO.P,U1297,1*%
%TO.N,N-000001031*%
X185231320Y-82618680D03*
%TD*%
%TO.P,U1296,1*%
%TO.N,N-000001030*%
X186501320Y-88968680D03*
%TD*%
%TO.P,U1295,1*%
%TO.N,N-000001029*%
X186501320Y-87698680D03*
%TD*%
%TO.P,U1294,1*%
%TO.N,N-000001019*%
X186501320Y-86428680D03*
%TD*%
%TO.P,U1293,1*%
%TO.N,N-00000212*%
X186501320Y-85158680D03*
%TD*%
%TO.P,U1292,1*%
%TO.N,N-00000211*%
X186501320Y-83888680D03*
%TD*%
%TO.P,U1291,1*%
%TO.N,N-00000159*%
X200471320Y-88968680D03*
%TD*%
%TO.P,U1290,1*%
%TO.N,N-00000185*%
X186501320Y-82618680D03*
%TD*%
%TO.P,U1289,1*%
%TO.N,N-00000184*%
X187771320Y-88968680D03*
%TD*%
%TO.P,U1288,1*%
%TO.N,N-00000183*%
X187771320Y-87698680D03*
%TD*%
%TO.P,U1287,1*%
%TO.N,N-00000182*%
X187771320Y-86428680D03*
%TD*%
%TO.P,U1286,1*%
%TO.N,N-00000181*%
X187771320Y-85158680D03*
%TD*%
%TO.P,U1285,1*%
%TO.N,N-00000180*%
X187771320Y-83888680D03*
%TD*%
%TO.P,U1284,1*%
%TO.N,N-00000179*%
X200471320Y-87698680D03*
%TD*%
%TO.P,U1283,1*%
%TO.N,N-00000178*%
X189041320Y-88968680D03*
%TD*%
%TO.P,U1282,1*%
%TO.N,N-000001138*%
X189041320Y-87698680D03*
%TD*%
%TO.P,U1281,1*%
%TO.N,N-000001137*%
X189041320Y-86428680D03*
%TD*%
%TO.P,U1280,1*%
%TO.N,N-00000931*%
X189041320Y-85158680D03*
%TD*%
%TO.P,U1279,1*%
%TO.N,N-00000930*%
X189041320Y-83888680D03*
%TD*%
%TO.P,U1278,1*%
%TO.N,N-00000929*%
X187771320Y-82618680D03*
%TD*%
%TO.P,U1277,1*%
%TO.N,N-00000928*%
X200471320Y-83888680D03*
%TD*%
%TO.P,U1276,1*%
%TO.N,N-00000927*%
X189041320Y-82618680D03*
%TD*%
%TO.P,U1275,1*%
%TO.N,N-000001014*%
X190311320Y-88968680D03*
%TD*%
%TO.P,U1274,1*%
%TO.N,N-000001013*%
X190311320Y-87698680D03*
%TD*%
%TO.P,U1273,1*%
%TO.N,N-000001027*%
X190311320Y-86428680D03*
%TD*%
%TO.P,U1272,1*%
%TO.N,N-000001026*%
X190311320Y-85158680D03*
%TD*%
%TO.P,U1271,1*%
%TO.N,N-000001025*%
X190311320Y-83888680D03*
%TD*%
%TO.P,U1270,1*%
%TO.N,N-000001024*%
X200471320Y-80078680D03*
%TD*%
%TO.P,U1269,1*%
%TO.N,N-000001023*%
X191581320Y-88968680D03*
%TD*%
%TO.P,U1268,1*%
%TO.N,N-00000210*%
X191581320Y-87698680D03*
%TD*%
%TO.P,U1267,1*%
%TO.N,N-00000209*%
X191581320Y-86428680D03*
%TD*%
%TO.P,U1266,1*%
%TO.N,N-00000168*%
X191581320Y-85158680D03*
%TD*%
%TO.P,U1265,1*%
%TO.N,N-00000176*%
X191581320Y-83888680D03*
%TD*%
%TO.P,U1264,1*%
%TO.N,N-00000175*%
X200471320Y-76268680D03*
%TD*%
%TO.P,U1263,1*%
%TO.N,N-00000174*%
X192851320Y-88968680D03*
%TD*%
%TO.P,U1262,1*%
%TO.N,N-00000173*%
X192851320Y-87698680D03*
%TD*%
%TO.P,U1261,1*%
%TO.N,N-00000172*%
X192851320Y-86428680D03*
%TD*%
%TO.P,U1260,1*%
%TO.N,N-00000171*%
X192851320Y-85158680D03*
%TD*%
%TO.P,U1259,1*%
%TO.N,N-00000170*%
X192851320Y-83888680D03*
%TD*%
%TO.P,U1258,1*%
%TO.N,N-00000169*%
X194121320Y-87698680D03*
%TD*%
%TO.P,U1257,1*%
%TO.N,N-000001136*%
X194121320Y-86428680D03*
%TD*%
%TO.P,U1256,1*%
%TO.N,N-000001135*%
X194121320Y-85158680D03*
%TD*%
%TO.P,U1255,1*%
%TO.N,N-00000936*%
X194121320Y-88968680D03*
%TD*%
%TO.P,U1254,1*%
%TO.N,N-00000962*%
X195391320Y-88968680D03*
%TD*%
%TO.P,U1253,1*%
%TO.N,N-00000961*%
X190311320Y-82618680D03*
%TD*%
%TO.P,U1252,1*%
%TO.N,N-00000960*%
X200471320Y-72458680D03*
%TD*%
%TO.P,U1251,1*%
%TO.N,N-00000959*%
X194121320Y-83888680D03*
%TD*%
%TO.P,U1250,1*%
%TO.N,N-000001012*%
X177611320Y-81348680D03*
%TD*%
%TO.P,U1249,1*%
%TO.N,N-000001011*%
X195391320Y-87698680D03*
%TD*%
%TO.P,U1248,1*%
%TO.N,N-000001022*%
X200471320Y-68648680D03*
%TD*%
%TO.P,U1247,1*%
%TO.N,N-000001021*%
X191581320Y-82618680D03*
%TD*%
%TO.P,U1246,1*%
%TO.N,N-000001020*%
X192851320Y-82618680D03*
%TD*%
%TO.P,U1245,1*%
%TO.N,N-00000991*%
X194121320Y-82618680D03*
%TD*%
%TO.P,U1244,1*%
%TO.N,N-00000981*%
X195391320Y-86428680D03*
%TD*%
%TO.P,U1243,1*%
%TO.N,N-00000208*%
X195391320Y-85158680D03*
%TD*%
%TO.P,U1242,1*%
%TO.N,N-00000207*%
X195391320Y-83888680D03*
%TD*%
%TO.P,U1241,1*%
%TO.N,N-00000214*%
X200471320Y-64838680D03*
%TD*%
%TO.P,U1240,1*%
%TO.N,N-00000278*%
X195391320Y-82618680D03*
%TD*%
%TO.P,U1239,1*%
%TO.N,N-00000277*%
X196661320Y-88968680D03*
%TD*%
%TO.P,U1238,1*%
%TO.N,N-00000276*%
X196661320Y-87698680D03*
%TD*%
%TO.P,U1237,1*%
%TO.N,N-00000275*%
X196661320Y-86428680D03*
%TD*%
%TO.P,U1236,1*%
%TO.N,N-00000274*%
X196661320Y-85158680D03*
%TD*%
%TO.P,U1235,1*%
%TO.N,N-00000273*%
X196661320Y-83888680D03*
%TD*%
%TO.P,U1234,1*%
%TO.N,N-00000272*%
X200471320Y-61028680D03*
%TD*%
%TO.P,U1233,1*%
%TO.N,N-00000271*%
X196661320Y-82618680D03*
%TD*%
%TO.P,U1232,1*%
%TO.N,N-000001134*%
X192851320Y-81348680D03*
%TD*%
%TO.P,U1231,1*%
%TO.N,N-000001133*%
X191581320Y-81348680D03*
%TD*%
%TO.P,U1230,1*%
%TO.N,N-00000958*%
X194121320Y-81348680D03*
%TD*%
%TO.P,U1229,1*%
%TO.N,N-00000957*%
X195391320Y-81348680D03*
%TD*%
%TO.P,U1228,1*%
%TO.N,N-00000956*%
X197931320Y-88968680D03*
%TD*%
%TO.P,U1227,1*%
%TO.N,N-00000955*%
X197931320Y-87698680D03*
%TD*%
%TO.P,U1226,1*%
%TO.N,N-00000945*%
X197931320Y-86428680D03*
%TD*%
%TO.P,U1225,1*%
%TO.N,N-000001000*%
X197931320Y-85158680D03*
%TD*%
%TO.P,U1224,1*%
%TO.N,N-000001009*%
X197931320Y-83888680D03*
%TD*%
%TO.P,U1223,1*%
%TO.N,N-00000980*%
X200471320Y-57218680D03*
%TD*%
%TO.P,U1222,1*%
%TO.N,N-00000979*%
X196661320Y-81348680D03*
%TD*%
%TO.P,U1221,1*%
%TO.N,N-00000978*%
X191581320Y-80078680D03*
%TD*%
%TO.P,U1220,1*%
%TO.N,N-00000977*%
X192851320Y-80078680D03*
%TD*%
%TO.P,U1219,1*%
%TO.N,N-00000976*%
X194121320Y-80078680D03*
%TD*%
%TO.P,U1218,1*%
%TO.N,N-00000206*%
X195391320Y-80078680D03*
%TD*%
%TO.P,U1217,1*%
%TO.N,N-00000177*%
X196661320Y-80078680D03*
%TD*%
%TO.P,U1216,1*%
%TO.N,N-00000260*%
X190311320Y-81348680D03*
%TD*%
%TO.P,U1215,1*%
%TO.N,N-00000269*%
X189041320Y-81348680D03*
%TD*%
%TO.P,U1214,1*%
%TO.N,N-00000268*%
X190311320Y-80078680D03*
%TD*%
%TO.P,U1213,1*%
%TO.N,N-00000267*%
X191581320Y-78808680D03*
%TD*%
%TO.P,U1212,1*%
%TO.N,N-00000266*%
X190311320Y-78808680D03*
%TD*%
%TO.P,U1211,1*%
%TO.N,N-00000265*%
X192851320Y-78808680D03*
%TD*%
%TO.P,U1210,1*%
%TO.N,N-00000264*%
X194121320Y-78808680D03*
%TD*%
%TO.P,U1209,1*%
%TO.N,N-00000263*%
X195391320Y-78808680D03*
%TD*%
%TO.P,U1208,1*%
%TO.N,N-00000262*%
X190311320Y-77538680D03*
%TD*%
%TO.P,U1207,1*%
%TO.N,N-000001132*%
X191581320Y-77538680D03*
%TD*%
%TO.P,U1206,1*%
%TO.N,N-000001131*%
X192851320Y-77538680D03*
%TD*%
%TO.P,U1205,1*%
%TO.N,N-00000953*%
X196661320Y-78808680D03*
%TD*%
%TO.P,U1204,1*%
%TO.N,N-00000952*%
X197931320Y-82618680D03*
%TD*%
%TO.P,U1203,1*%
%TO.N,N-00000951*%
X197931320Y-81348680D03*
%TD*%
%TO.P,U1202,1*%
%TO.N,N-00000950*%
X197931320Y-80078680D03*
%TD*%
%TO.P,U1201,1*%
%TO.N,N-00000949*%
X197931320Y-78808680D03*
%TD*%
%TO.P,U1200,1*%
%TO.N,N-000001008*%
X199201320Y-88968680D03*
%TD*%
%TO.P,U1199,1*%
%TO.N,N-000001007*%
X199201320Y-86428680D03*
%TD*%
%TO.P,U1198,1*%
%TO.N,N-00000975*%
X199201320Y-87698680D03*
%TD*%
%TO.P,U1197,1*%
%TO.N,N-00000974*%
X199201320Y-85158680D03*
%TD*%
%TO.P,U1196,1*%
%TO.N,N-00000963*%
X199201320Y-83888680D03*
%TD*%
%TO.P,U1195,1*%
%TO.N,N-00000972*%
X200471320Y-53408680D03*
%TD*%
%TO.P,U1194,1*%
%TO.N,N-00000971*%
X199201320Y-82618680D03*
%TD*%
%TO.P,U1193,1*%
%TO.N,N-00000167*%
X199201320Y-81348680D03*
%TD*%
%TO.P,U1192,1*%
%TO.N,N-00000166*%
X199201320Y-80078680D03*
%TD*%
%TO.P,U1191,1*%
%TO.N,N-00000261*%
X199201320Y-78808680D03*
%TD*%
%TO.P,U1190,1*%
%TO.N,N-00000270*%
X194121320Y-77538680D03*
%TD*%
%TO.P,U1189,1*%
%TO.N,N-00000296*%
X192851320Y-76268680D03*
%TD*%
%TO.P,U1188,1*%
%TO.N,N-00000295*%
X197931320Y-77538680D03*
%TD*%
%TO.P,U1187,1*%
%TO.N,N-00000294*%
X197931320Y-76268680D03*
%TD*%
%TO.P,U1186,1*%
%TO.N,N-00000293*%
X199201320Y-77538680D03*
%TD*%
%TO.P,U1185,1*%
%TO.N,N-00000292*%
X199201320Y-76268680D03*
%TD*%
%TO.P,U1184,1*%
%TO.N,N-00000291*%
X190311320Y-74998680D03*
%TD*%
%TO.P,U1183,1*%
%TO.N,N-00000290*%
X191581320Y-76268680D03*
%TD*%
%TO.P,U1182,1*%
%TO.N,N-000001028*%
X192851320Y-74998680D03*
%TD*%
%TO.P,U1181,1*%
%TO.N,N-00000944*%
X194121320Y-74998680D03*
%TD*%
%TO.P,U1180,1*%
%TO.N,N-00000948*%
X190311320Y-76268680D03*
%TD*%
%TO.P,U1179,1*%
%TO.N,N-00000947*%
X196661320Y-74998680D03*
%TD*%
%TO.P,U1178,1*%
%TO.N,N-00000946*%
X197931320Y-74998680D03*
%TD*%
%TO.P,U1177,1*%
%TO.N,N-00000917*%
X199201320Y-74998680D03*
%TD*%
%TO.P,U1176,1*%
%TO.N,N-00000907*%
X194121320Y-76268680D03*
%TD*%
%TO.P,U1175,1*%
%TO.N,N-000001006*%
X195391320Y-77538680D03*
%TD*%
%TO.P,U1174,1*%
%TO.N,N-000001005*%
X195391320Y-76268680D03*
%TD*%
%TO.P,U1173,1*%
%TO.N,N-00000970*%
X196661320Y-77538680D03*
%TD*%
%TO.P,U1172,1*%
%TO.N,N-00000969*%
X196661320Y-76268680D03*
%TD*%
%TO.P,U1171,1*%
%TO.N,N-00000968*%
X191581320Y-74998680D03*
%TD*%
%TO.P,U1170,1*%
%TO.N,N-00000967*%
X195391320Y-74998680D03*
%TD*%
%TO.P,U1169,1*%
%TO.N,N-00000966*%
X197931320Y-73728680D03*
%TD*%
%TO.P,U1168,1*%
%TO.N,N-00000165*%
X196661320Y-73728680D03*
%TD*%
%TO.P,U1167,1*%
%TO.N,N-00000164*%
X195391320Y-73728680D03*
%TD*%
%TO.P,U1166,1*%
%TO.N,N-00000289*%
X194121320Y-73728680D03*
%TD*%
%TO.P,U1165,1*%
%TO.N,N-00000279*%
X192851320Y-73728680D03*
%TD*%
%TO.P,U1164,1*%
%TO.N,N-00000287*%
X191581320Y-73728680D03*
%TD*%
%TO.P,U1163,1*%
%TO.N,N-00000286*%
X190311320Y-73728680D03*
%TD*%
%TO.P,U1162,1*%
%TO.N,N-00000285*%
X191581320Y-72458680D03*
%TD*%
%TO.P,U1161,1*%
%TO.N,N-00000284*%
X190311320Y-72458680D03*
%TD*%
%TO.P,U1160,1*%
%TO.N,N-00000283*%
X192851320Y-72458680D03*
%TD*%
%TO.P,U1159,1*%
%TO.N,N-00000282*%
X194121320Y-72458680D03*
%TD*%
%TO.P,U1158,1*%
%TO.N,N-00000281*%
X195391320Y-72458680D03*
%TD*%
%TO.P,U1157,1*%
%TO.N,N-00000943*%
X196661320Y-72458680D03*
%TD*%
%TO.P,U1156,1*%
%TO.N,N-00000942*%
X197931320Y-72458680D03*
%TD*%
%TO.P,U1155,1*%
%TO.N,N-00000906*%
X199201320Y-73728680D03*
%TD*%
%TO.P,U1154,1*%
%TO.N,N-00000905*%
X199201320Y-72458680D03*
%TD*%
%TO.P,U1153,1*%
%TO.N,N-00000904*%
X191581320Y-71188680D03*
%TD*%
%TO.P,U1152,1*%
%TO.N,N-00000903*%
X192851320Y-71188680D03*
%TD*%
%TO.P,U1151,1*%
%TO.N,N-00000902*%
X194121320Y-71188680D03*
%TD*%
%TO.P,U1150,1*%
%TO.N,N-000001004*%
X195391320Y-71188680D03*
%TD*%
%TO.P,U1149,1*%
%TO.N,N-000001003*%
X196661320Y-71188680D03*
%TD*%
%TO.P,U1148,1*%
%TO.N,N-00000965*%
X197931320Y-71188680D03*
%TD*%
%TO.P,U1147,1*%
%TO.N,N-00000964*%
X199201320Y-71188680D03*
%TD*%
%TO.P,U1146,1*%
%TO.N,N-00000973*%
X190311320Y-71188680D03*
%TD*%
%TO.P,U1145,1*%
%TO.N,N-00000999*%
X190311320Y-69918680D03*
%TD*%
%TO.P,U1144,1*%
%TO.N,N-00000998*%
X192851320Y-69918680D03*
%TD*%
%TO.P,U1143,1*%
%TO.N,N-00000163*%
X191581320Y-69918680D03*
%TD*%
%TO.P,U1142,1*%
%TO.N,N-00000162*%
X194121320Y-69918680D03*
%TD*%
%TO.P,U1141,1*%
%TO.N,N-00000280*%
X195391320Y-69918680D03*
%TD*%
%TO.P,U1140,1*%
%TO.N,N-00000251*%
X196661320Y-69918680D03*
%TD*%
%TO.P,U1139,1*%
%TO.N,N-00000241*%
X197931320Y-69918680D03*
%TD*%
%TO.P,U1138,1*%
%TO.N,N-00000240*%
X192851320Y-68648680D03*
%TD*%
%TO.P,U1137,1*%
%TO.N,N-00000239*%
X194121320Y-68648680D03*
%TD*%
%TO.P,U1136,1*%
%TO.N,N-00000238*%
X191581320Y-68648680D03*
%TD*%
%TO.P,U1135,1*%
%TO.N,N-00000237*%
X196661320Y-68648680D03*
%TD*%
%TO.P,U1134,1*%
%TO.N,N-00000236*%
X191581320Y-67378680D03*
%TD*%
%TO.P,U1133,1*%
%TO.N,N-00000235*%
X192851320Y-67378680D03*
%TD*%
%TO.P,U1132,1*%
%TO.N,N-00000941*%
X195391320Y-68648680D03*
%TD*%
%TO.P,U1131,1*%
%TO.N,N-00000940*%
X194121320Y-67378680D03*
%TD*%
%TO.P,U1130,1*%
%TO.N,N-00000901*%
X195391320Y-67378680D03*
%TD*%
%TO.P,U1129,1*%
%TO.N,N-00000900*%
X197931320Y-68648680D03*
%TD*%
%TO.P,U1128,1*%
%TO.N,N-00000889*%
X196661320Y-67378680D03*
%TD*%
%TO.P,U1127,1*%
%TO.N,N-00000898*%
X197931320Y-67378680D03*
%TD*%
%TO.P,U1126,1*%
%TO.N,N-00000897*%
X199201320Y-69918680D03*
%TD*%
%TO.P,U1125,1*%
%TO.N,N-000001002*%
X199201320Y-68648680D03*
%TD*%
%TO.P,U1124,1*%
%TO.N,N-000001001*%
X199201320Y-67378680D03*
%TD*%
%TO.P,U1123,1*%
%TO.N,N-00000997*%
X191581320Y-66108680D03*
%TD*%
%TO.P,U1122,1*%
%TO.N,N-00000996*%
X192851320Y-66108680D03*
%TD*%
%TO.P,U1121,1*%
%TO.N,N-00000995*%
X194121320Y-66108680D03*
%TD*%
%TO.P,U1120,1*%
%TO.N,N-00000994*%
X195391320Y-66108680D03*
%TD*%
%TO.P,U1119,1*%
%TO.N,N-00000993*%
X196661320Y-66108680D03*
%TD*%
%TO.P,U1118,1*%
%TO.N,N-00000161*%
X197931320Y-66108680D03*
%TD*%
%TO.P,U1117,1*%
%TO.N,N-00000160*%
X199201320Y-66108680D03*
%TD*%
%TO.P,U1116,1*%
%TO.N,N-00000234*%
X191581320Y-64838680D03*
%TD*%
%TO.P,U1115,1*%
%TO.N,N-00000223*%
X194121320Y-64838680D03*
%TD*%
%TO.P,U1114,1*%
%TO.N,N-00000232*%
X192851320Y-64838680D03*
%TD*%
%TO.P,U1113,1*%
%TO.N,N-00000231*%
X195391320Y-64838680D03*
%TD*%
%TO.P,U1112,1*%
%TO.N,N-00000230*%
X196661320Y-64838680D03*
%TD*%
%TO.P,U1111,1*%
%TO.N,N-00000229*%
X197931320Y-64838680D03*
%TD*%
%TO.P,U1110,1*%
%TO.N,N-00000228*%
X199201320Y-64838680D03*
%TD*%
%TO.P,U1108,1*%
%TO.N,N-00000227*%
X186501320Y-57218680D03*
%TD*%
%TO.P,U1106,1*%
%TO.N,N-00000939*%
X200471320Y-86428680D03*
%TD*%
%TO.P,U1105,1*%
%TO.N,N-00000896*%
X187771320Y-57218680D03*
%TD*%
%TO.P,U1104,1*%
%TO.N,N-00000895*%
X200471320Y-85158680D03*
%TD*%
%TO.P,U1103,1*%
%TO.N,N-00000894*%
X187771320Y-55948680D03*
%TD*%
%TO.P,U1102,1*%
%TO.N,N-00000893*%
X186501320Y-55948680D03*
%TD*%
%TO.P,U1101,1*%
%TO.N,N-00000892*%
X186501320Y-54678680D03*
%TD*%
%TO.P,U1100,1*%
%TO.N,N-000001010*%
X187771320Y-54678680D03*
%TD*%
%TO.P,U1099,1*%
%TO.N,N-000001036*%
X185231320Y-53408680D03*
%TD*%
%TO.P,U1098,1*%
%TO.N,N-00000992*%
X186501320Y-53408680D03*
%TD*%
%TO.P,U1097,1*%
%TO.N,N-00000982*%
X187771320Y-53408680D03*
%TD*%
%TO.P,U1096,1*%
%TO.N,N-00000990*%
X191581320Y-63568680D03*
%TD*%
%TO.P,U1095,1*%
%TO.N,N-00000989*%
X192851320Y-63568680D03*
%TD*%
%TO.P,U1094,1*%
%TO.N,N-00000988*%
X194121320Y-63568680D03*
%TD*%
%TO.P,U1093,1*%
%TO.N,N-00000149*%
X195391320Y-63568680D03*
%TD*%
%TO.P,U1092,1*%
%TO.N,N-00000158*%
X196661320Y-63568680D03*
%TD*%
%TO.P,U1091,1*%
%TO.N,N-00000226*%
X197931320Y-63568680D03*
%TD*%
%TO.P,U1090,1*%
%TO.N,N-00000225*%
X199201320Y-63568680D03*
%TD*%
%TO.P,U1089,1*%
%TO.N,N-00000224*%
X191581320Y-62298680D03*
%TD*%
%TO.P,U1088,1*%
%TO.N,N-00000233*%
X192851320Y-62298680D03*
%TD*%
%TO.P,U1087,1*%
%TO.N,N-00000259*%
X194121320Y-62298680D03*
%TD*%
%TO.P,U1086,1*%
%TO.N,N-00000258*%
X195391320Y-62298680D03*
%TD*%
%TO.P,U1085,1*%
%TO.N,N-00000257*%
X196661320Y-62298680D03*
%TD*%
%TO.P,U1084,1*%
%TO.N,N-00000256*%
X197931320Y-62298680D03*
%TD*%
%TO.P,U1083,1*%
%TO.N,N-00000255*%
X199201320Y-62298680D03*
%TD*%
%TO.P,U1082,1*%
%TO.N,N-000001126*%
X194121320Y-61028680D03*
%TD*%
%TO.P,U1081,1*%
%TO.N,N-000001125*%
X195391320Y-61028680D03*
%TD*%
%TO.P,U1080,1*%
%TO.N,N-000001120*%
X196661320Y-61028680D03*
%TD*%
%TO.P,U1079,1*%
%TO.N,N-000001119*%
X192851320Y-61028680D03*
%TD*%
%TO.P,U1078,1*%
%TO.N,N-000001118*%
X197931320Y-61028680D03*
%TD*%
%TO.P,U1077,1*%
%TO.N,N-000001117*%
X191581320Y-61028680D03*
%TD*%
%TO.P,U1076,1*%
%TO.N,N-000001116*%
X199201320Y-61028680D03*
%TD*%
%TO.P,U1075,1*%
%TO.N,N-00000891*%
X191581320Y-59758680D03*
%TD*%
%TO.P,U1074,1*%
%TO.N,N-00000890*%
X192851320Y-59758680D03*
%TD*%
%TO.P,U1073,1*%
%TO.N,N-00000922*%
X194121320Y-59758680D03*
%TD*%
%TO.P,U1072,1*%
%TO.N,N-00000921*%
X195391320Y-59758680D03*
%TD*%
%TO.P,U1071,1*%
%TO.N,N-00000920*%
X196661320Y-58488680D03*
%TD*%
%TO.P,U1070,1*%
%TO.N,N-00000919*%
X197931320Y-59758680D03*
%TD*%
%TO.P,U1069,1*%
%TO.N,N-00000918*%
X199201320Y-59758680D03*
%TD*%
%TO.P,U1068,1*%
%TO.N,N-00000987*%
X191581320Y-58488680D03*
%TD*%
%TO.P,U1067,1*%
%TO.N,N-00000986*%
X192851320Y-58488680D03*
%TD*%
%TO.P,U1066,1*%
%TO.N,N-00000204*%
X194121320Y-58488680D03*
%TD*%
%TO.P,U1065,1*%
%TO.N,N-00000203*%
X195391320Y-58488680D03*
%TD*%
%TO.P,U1064,1*%
%TO.N,N-00000202*%
X196661320Y-59758680D03*
%TD*%
%TO.P,U1063,1*%
%TO.N,N-00000201*%
X197931320Y-58488680D03*
%TD*%
%TO.P,U1062,1*%
%TO.N,N-00000200*%
X199201320Y-58488680D03*
%TD*%
%TO.P,U1061,1*%
%TO.N,N-00000199*%
X189041320Y-57218680D03*
%TD*%
%TO.P,U1060,1*%
%TO.N,N-00000198*%
X200471320Y-82618680D03*
%TD*%
%TO.P,U1059,1*%
%TO.N,N-00000197*%
X200471320Y-81348680D03*
%TD*%
%TO.P,U1058,1*%
%TO.N,N-00000186*%
X190311320Y-57218680D03*
%TD*%
%TO.P,U1057,1*%
%TO.N,N-000001124*%
X200471320Y-78808680D03*
%TD*%
%TO.P,U1056,1*%
%TO.N,N-000001123*%
X200471320Y-77538680D03*
%TD*%
%TO.P,U1055,1*%
%TO.N,N-000001115*%
X192851320Y-57218680D03*
%TD*%
%TO.P,U1054,1*%
%TO.N,N-000001114*%
X194121320Y-57218680D03*
%TD*%
%TO.P,U1053,1*%
%TO.N,N-000001113*%
X195391320Y-57218680D03*
%TD*%
%TO.P,U1052,1*%
%TO.N,N-000001112*%
X196661320Y-57218680D03*
%TD*%
%TO.P,U1051,1*%
%TO.N,N-000001121*%
X197931320Y-57218680D03*
%TD*%
%TO.P,U1050,1*%
%TO.N,N-00000899*%
X199201320Y-57218680D03*
%TD*%
%TO.P,U1049,1*%
%TO.N,N-00000925*%
X200471320Y-74998680D03*
%TD*%
%TO.P,U1048,1*%
%TO.N,N-00000908*%
X200471320Y-71188680D03*
%TD*%
%TO.P,U1047,1*%
%TO.N,N-00000916*%
X200471320Y-67378680D03*
%TD*%
%TO.P,U1046,1*%
%TO.N,N-00000915*%
X200471320Y-63568680D03*
%TD*%
%TO.P,U1045,1*%
%TO.N,N-00000914*%
X200471320Y-59758680D03*
%TD*%
%TO.P,U1044,1*%
%TO.N,N-00000913*%
X200471320Y-55948680D03*
%TD*%
%TO.P,U1043,1*%
%TO.N,N-00000985*%
X200471320Y-73728680D03*
%TD*%
%TO.P,U1042,1*%
%TO.N,N-00000984*%
X200471320Y-69918680D03*
%TD*%
%TO.P,U1041,1*%
%TO.N,N-00000195*%
X200471320Y-66108680D03*
%TD*%
%TO.P,U1040,1*%
%TO.N,N-00000194*%
X200471320Y-62298680D03*
%TD*%
%TO.P,U1039,1*%
%TO.N,N-00000193*%
X189041320Y-55948680D03*
%TD*%
%TO.P,U1038,1*%
%TO.N,N-00000192*%
X200471320Y-54678680D03*
%TD*%
%TO.P,U1037,1*%
%TO.N,N-00000191*%
X200471320Y-52138680D03*
%TD*%
%TO.P,U1036,1*%
%TO.N,N-00000190*%
X200471320Y-50868680D03*
%TD*%
%TO.P,U1035,1*%
%TO.N,N-00000189*%
X200471320Y-58488680D03*
%TD*%
%TO.P,U1034,1*%
%TO.N,N-00000188*%
X192851320Y-55948680D03*
%TD*%
%TO.P,U1033,1*%
%TO.N,N-00000187*%
X194121320Y-55948680D03*
%TD*%
%TO.P,U1032,1*%
%TO.N,N-000001122*%
X195391320Y-55948680D03*
%TD*%
%TO.P,U1031,1*%
%TO.N,N-000001111*%
X189041320Y-54678680D03*
%TD*%
%TO.P,U1030,1*%
%TO.N,N-000001147*%
X197931320Y-55948680D03*
%TD*%
%TO.P,U1029,1*%
%TO.N,N-000001146*%
X199201320Y-55948680D03*
%TD*%
%TO.P,U1028,1*%
%TO.N,N-000001145*%
X191581320Y-54678680D03*
%TD*%
%TO.P,U1027,1*%
%TO.N,N-000001144*%
X192851320Y-54678680D03*
%TD*%
%TO.P,U1026,1*%
%TO.N,N-000001143*%
X194121320Y-54678680D03*
%TD*%
%TO.P,U1025,1*%
%TO.N,N-00000924*%
X195391320Y-54678680D03*
%TD*%
%TO.P,U1024,1*%
%TO.N,N-00000923*%
X196661320Y-54678680D03*
%TD*%
%TO.P,U1023,1*%
%TO.N,N-00000912*%
X197931320Y-54678680D03*
%TD*%
%TO.P,U1022,1*%
%TO.N,N-00000911*%
X199201320Y-54678680D03*
%TD*%
%TO.P,U1021,1*%
%TO.N,N-00000910*%
X191581320Y-53408680D03*
%TD*%
%TO.P,U1020,1*%
%TO.N,N-00000909*%
X192851320Y-53408680D03*
%TD*%
%TO.P,U1019,1*%
%TO.N,N-00000954*%
X194121320Y-53408680D03*
%TD*%
%TO.P,U1018,1*%
%TO.N,N-00000983*%
X196661320Y-55948680D03*
%TD*%
%TO.P,U1017,1*%
%TO.N,N-00000584*%
X189041320Y-53408680D03*
%TD*%
%TO.P,U1016,1*%
%TO.N,N-00000196*%
X190311320Y-55948680D03*
%TD*%
%TO.P,U1015,1*%
%TO.N,N-00000222*%
X190311320Y-54678680D03*
%TD*%
%TO.P,U1014,1*%
%TO.N,N-00000221*%
X190311320Y-53408680D03*
%TD*%
%TO.P,U1013,1*%
%TO.N,N-00000220*%
X191581320Y-57218680D03*
%TD*%
%TO.P,U1012,1*%
%TO.N,N-00000219*%
X191581320Y-55948680D03*
%TD*%
%TO.P,U1011,1*%
%TO.N,N-00000218*%
X195391320Y-53408680D03*
%TD*%
%TO.P,U1010,1*%
%TO.N,N-00000217*%
X196661320Y-53408680D03*
%TD*%
%TO.P,U1009,1*%
%TO.N,N-00000216*%
X197931320Y-53408680D03*
%TD*%
%TO.P,U1008,1*%
%TO.N,N-00000215*%
X199201320Y-53408680D03*
%TD*%
%TO.P,U1007,1*%
%TO.N,N-0000038*%
X190311320Y-64838680D03*
%TD*%
%TO.P,U1006,1*%
%TO.N,N-0000046*%
X190311320Y-63568680D03*
%TD*%
%TO.P,U1005,1*%
%TO.N,N-0000044*%
X190311320Y-62298680D03*
%TD*%
%TO.P,U1004,1*%
%TO.N,N-0000042*%
X190311320Y-61028680D03*
%TD*%
%TO.P,U1003,1*%
%TO.N,N-0000040*%
X190311320Y-59758680D03*
%TD*%
%TO.P,U1002,1*%
%TO.N,N-0000048*%
X190311320Y-58488680D03*
%TD*%
%TO.P,U1000,1*%
%TO.N,N-0000073*%
X189041320Y-58488680D03*
%TD*%
%TO.P,U999,1*%
%TO.N,N-0000071*%
X190311320Y-66108680D03*
%TD*%
%TO.P,U998,1*%
%TO.N,N-0000069*%
X189041320Y-69918680D03*
%TD*%
%TO.P,U996,1*%
%TO.N,N-00000254*%
X190311320Y-67378680D03*
%TD*%
%TO.P,U995,1*%
%TO.N,N-00000252*%
X190311320Y-68648680D03*
%TD*%
%TO.P,U953,1*%
%TO.N,N-0000058*%
X192851320Y-50868680D03*
%TD*%
%TO.P,U952,1*%
%TO.N,N-0000016*%
X191581320Y-50868680D03*
%TD*%
%TO.P,U951,1*%
%TO.N,N-000001*%
X194121320Y-50868680D03*
%TD*%
%TO.P,U950,1*%
%TO.N,N-000006*%
X195391320Y-50868680D03*
%TD*%
%TO.P,U949,1*%
%TO.N,N-0000011*%
X196661320Y-50868680D03*
%TD*%
%TO.P,U948,1*%
%TO.N,N-0000033*%
X197931320Y-50868680D03*
%TD*%
%TO.P,U947,1*%
%TO.N,N-0000028*%
X199201320Y-50868680D03*
%TD*%
%TO.P,U946,1*%
%TO.N,N-0000023*%
X194121320Y-52138680D03*
%TD*%
%TO.P,U945,1*%
%TO.N,N-00000129*%
X195391320Y-52138680D03*
%TD*%
%TO.P,U944,1*%
%TO.N,N-00000246*%
X197931320Y-52138680D03*
%TD*%
%TO.P,U943,1*%
%TO.N,N-0000056*%
X196661320Y-52138680D03*
%TD*%
%TO.P,U935,1*%
%TO.N,N-0000032*%
X192851320Y-52138680D03*
%TD*%
%TO.P,U934,1*%
%TO.N,N-0000027*%
X191581320Y-52138680D03*
%TD*%
%TO.P,U933,1*%
%TO.N,N-0000022*%
X199201320Y-52138680D03*
%TD*%
%TO.P,U900,1*%
%TO.N,N-00000360*%
X190311320Y-52138680D03*
%TD*%
%TO.P,U899,1*%
%TO.N,N-00000358*%
X190311320Y-50868680D03*
%TD*%
%TO.P,U885,1*%
%TO.N,N-00000413*%
X189041320Y-50868680D03*
%TD*%
%TO.P,U884,1*%
%TO.N,N-00000439*%
X189041320Y-52138680D03*
%TD*%
%TO.P,U875,1*%
%TO.N,N-00000298*%
X187771320Y-52138680D03*
%TD*%
%TO.P,U874,1*%
%TO.N,N-00000316*%
X187771320Y-50868680D03*
%TD*%
%TO.P,U862,1*%
%TO.N,N-00000307*%
X186501320Y-50868680D03*
%TD*%
%TO.P,U861,1*%
%TO.N,N-00000324*%
X186501320Y-52138680D03*
%TD*%
%TO.P,U851,1*%
%TO.N,N-00000141*%
X185231320Y-52138680D03*
%TD*%
%TO.P,U849,1*%
%TO.N,N-00000333*%
X185231320Y-50868680D03*
%TD*%
%TO.P,U837,1*%
%TO.N,N-00000306*%
X183961320Y-50868680D03*
%TD*%
%TO.P,U836,1*%
%TO.N,N-00000332*%
X183961320Y-52138680D03*
%TD*%
%TO.P,U826,1*%
%TO.N,N-00000147*%
X182691320Y-50868680D03*
%TD*%
%TO.P,U825,1*%
%TO.N,N-00000131*%
X182691320Y-52138680D03*
%TD*%
%TO.P,U809,1*%
%TO.N,N-00000401*%
X181421320Y-50868680D03*
%TD*%
%TO.P,U808,1*%
%TO.N,N-000001551*%
X181421320Y-52138680D03*
%TD*%
%TO.P,U791,1*%
%TO.N,N-00000387*%
X180151320Y-50868680D03*
%TD*%
%TO.P,U790,1*%
%TO.N,N-00000376*%
X180151320Y-52138680D03*
%TD*%
%TO.P,U788,1*%
%TO.N,N-000001550*%
X178881320Y-52138680D03*
%TD*%
%TO.P,U787,1*%
%TO.N,N-00000116*%
X178881320Y-50868680D03*
%TD*%
%TO.P,U774,1*%
%TO.N,N-00000419*%
X177611320Y-50868680D03*
%TD*%
%TO.P,U773,1*%
%TO.N,N-00000444*%
X176341320Y-50868680D03*
%TD*%
%TO.P,U771,1*%
%TO.N,N-00000386*%
X176341320Y-52138680D03*
%TD*%
%TO.P,U770,1*%
%TO.N,N-00000375*%
X177611320Y-52138680D03*
%TD*%
%TO.P,U760,1*%
%TO.N,N-00000102*%
X173801320Y-50868680D03*
%TD*%
%TO.P,U759,1*%
%TO.N,N-00000288*%
X175071320Y-52138680D03*
%TD*%
%TO.P,U758,1*%
%TO.N,N-00000482*%
X173801320Y-52138680D03*
%TD*%
%TO.P,U745,1*%
%TO.N,N-00000136*%
X172531320Y-50868680D03*
%TD*%
%TO.P,U744,1*%
%TO.N,N-00000133*%
X172531320Y-52138680D03*
%TD*%
%TO.P,U678,1*%
%TO.N,N-00000395*%
X164911320Y-50868680D03*
%TD*%
%TO.P,U677,1*%
%TO.N,N-000001545*%
X163641320Y-50868680D03*
%TD*%
%TO.P,U676,1*%
%TO.N,N-0000092*%
X169991320Y-50868680D03*
%TD*%
%TO.P,U675,1*%
%TO.N,N-0000084*%
X168721320Y-50868680D03*
%TD*%
%TO.P,U674,1*%
%TO.N,N-0000076*%
X164911320Y-52138680D03*
%TD*%
%TO.P,U670,1*%
%TO.N,N-00000488*%
X168721320Y-52138680D03*
%TD*%
%TO.P,U665,1*%
%TO.N,N-00000484*%
X169991320Y-52138680D03*
%TD*%
%TO.P,U664,1*%
%TO.N,N-00000483*%
X175071320Y-50868680D03*
%TD*%
%TO.P,U657,1*%
%TO.N,N-00000554*%
X171261320Y-50868680D03*
%TD*%
%TO.P,U655,1*%
%TO.N,N-00000517*%
X171261320Y-52138680D03*
%TD*%
%TO.P,U652,1*%
%TO.N,N-00000561*%
X166181320Y-50868680D03*
%TD*%
%TO.P,U649,1*%
%TO.N,N-00000347*%
X167451320Y-50868680D03*
%TD*%
%TO.P,U647,1*%
%TO.N,N-00000458*%
X167451320Y-52138680D03*
%TD*%
%TO.P,U646,1*%
%TO.N,N-00000464*%
X166181320Y-52138680D03*
%TD*%
%TO.P,U636,1*%
%TO.N,N-00000551*%
X163641320Y-52138680D03*
%TD*%
%TO.P,U627,1*%
%TO.N,N-00000514*%
X162371320Y-50868680D03*
%TD*%
%TO.P,U626,1*%
%TO.N,N-00000445*%
X162371320Y-52138680D03*
%TD*%
%TO.P,U589,1*%
%TO.N,N-00000589*%
X159831320Y-50868680D03*
%TD*%
%TO.P,U588,1*%
%TO.N,N-00000519*%
X161101320Y-50868680D03*
%TD*%
%TO.P,U587,1*%
%TO.N,N-00000545*%
X157291320Y-50868680D03*
%TD*%
%TO.P,U586,1*%
%TO.N,N-00000341*%
X158561320Y-50868680D03*
%TD*%
%TO.P,U585,1*%
%TO.N,N-00000509*%
X161101320Y-52138680D03*
%TD*%
%TO.P,U584,1*%
%TO.N,N-00000450*%
X158561320Y-52138680D03*
%TD*%
%TO.P,U583,1*%
%TO.N,N-00000465*%
X159831320Y-52138680D03*
%TD*%
%TO.P,U578,1*%
%TO.N,N-00000508*%
X156021320Y-50868680D03*
%TD*%
%TO.P,U577,1*%
%TO.N,N-00000449*%
X156021320Y-52138680D03*
%TD*%
%TO.P,U576,1*%
%TO.N,N-00000510*%
X157291320Y-52138680D03*
%TD*%
%TO.P,U559,1*%
%TO.N,N-00000542*%
X154751320Y-50868680D03*
%TD*%
%TO.P,U558,1*%
%TO.N,N-00000338*%
X154751320Y-52138680D03*
%TD*%
D13*
%TO.P,TQFP1,1*%
%TO.N,N-000001200*%
X176338528Y-79676754D03*
%TO.P,TQFP1,2*%
%TO.N,N-000001201*%
X175772842Y-79111068D03*
%TO.P,TQFP1,3*%
%TO.N,N-000001202*%
X175207157Y-78545383D03*
%TO.P,TQFP1,4*%
%TO.N,N-000001203*%
X174641472Y-77979697D03*
%TO.P,TQFP1,5*%
%TO.N,N-000001204*%
X174075786Y-77414012D03*
%TO.P,TQFP1,6*%
%TO.N,N-000001197*%
X173510101Y-76848326D03*
%TO.P,TQFP1,7*%
%TO.N,N-000001206*%
X172944415Y-76282641D03*
%TO.P,TQFP1,8*%
%TO.N,N-000001207*%
X172378730Y-75716956D03*
%TO.P,TQFP1,9*%
%TO.N,N-000001208*%
X171813044Y-75151270D03*
%TO.P,TQFP1,10*%
%TO.N,N-000001209*%
X171247359Y-74585585D03*
%TO.P,TQFP1,11*%
%TO.N,N-000001241*%
X170681674Y-74019899D03*
%TO.P,TQFP1,12*%
%TO.N,N-000001246*%
X170115988Y-73454214D03*
%TO.P,TQFP1,13*%
%TO.N,N-000001252*%
X169550303Y-72888528D03*
%TO.P,TQFP1,14*%
%TO.N,N-000001223*%
X168984617Y-72322843D03*
%TO.P,TQFP1,15*%
%TO.N,N-000001229*%
X168418932Y-71757158D03*
%TO.P,TQFP1,16*%
%TO.N,N-000001258*%
X167853246Y-71191472D03*
D14*
%TO.P,TQFP1,17*%
%TO.N,N-000001238*%
X171247359Y-72040000D03*
%TO.P,TQFP1,18*%
%TO.N,N-000001184*%
X171813044Y-71474315D03*
%TO.P,TQFP1,19*%
%TO.N,N-000001185*%
X172378730Y-70908629D03*
%TO.P,TQFP1,20*%
%TO.N,N-000001210*%
X172944415Y-70342944D03*
D15*
%TO.P,TQFP1,21*%
%TO.N,N-000001242*%
X173227258Y-69494416D03*
D16*
%TO.P,TQFP1,22*%
%TO.N,N-000001247*%
X173510101Y-68645888D03*
D17*
%TO.P,TQFP1,23*%
%TO.N,N-000001253*%
X173792943Y-67797360D03*
D18*
%TO.P,TQFP1,24*%
%TO.N,N-000001224*%
X174075786Y-66948832D03*
D19*
%TO.P,TQFP1,25*%
%TO.N,N-000001230*%
X174358629Y-66100303D03*
D20*
%TO.P,TQFP1,26*%
%TO.N,N-000001234*%
X174641472Y-65251775D03*
D21*
%TO.P,TQFP1,27*%
%TO.N,N-000001239*%
X174924314Y-64403247D03*
D22*
%TO.P,TQFP1,28*%
%TO.N,N-000001190*%
X175207157Y-63554719D03*
D23*
%TO.P,TQFP1,29*%
%TO.N,N-000001191*%
X175490000Y-62706191D03*
D24*
%TO.P,TQFP1,30*%
%TO.N,N-000001211*%
X175772842Y-61857663D03*
D25*
%TO.P,TQFP1,31*%
%TO.N,N-000001243*%
X176055685Y-61009135D03*
D26*
%TO.P,TQFP1,32*%
%TO.N,N-000001240*%
X176338528Y-60160606D03*
D13*
%TO.P,TQFP1,33*%
%TO.N,N-000001254*%
X178884112Y-60160606D03*
D27*
%TO.P,TQFP1,34*%
%TO.N,N-000001225*%
X179166955Y-61009135D03*
D28*
%TO.P,TQFP1,35*%
%TO.N,N-000001231*%
X179449798Y-61857663D03*
D29*
%TO.P,TQFP1,36*%
%TO.N,N-000001235*%
X179732640Y-62706191D03*
D30*
%TO.P,TQFP1,37*%
%TO.N,N-000001194*%
X180015483Y-63554719D03*
D31*
%TO.P,TQFP1,38*%
%TO.N,N-000001195*%
X180298326Y-64403247D03*
D32*
%TO.P,TQFP1,39*%
%TO.N,N-000001196*%
X180581168Y-65251775D03*
D33*
%TO.P,TQFP1,40*%
%TO.N,N-000001212*%
X180864011Y-66100303D03*
D34*
%TO.P,TQFP1,41*%
%TO.N,N-000001244*%
X181146854Y-66948832D03*
D35*
%TO.P,TQFP1,42*%
%TO.N,N-000001249*%
X181429697Y-67797360D03*
D36*
%TO.P,TQFP1,43*%
%TO.N,N-000001255*%
X181712539Y-68645888D03*
D37*
%TO.P,TQFP1,44*%
%TO.N,N-000001226*%
X181995382Y-69494416D03*
D38*
%TO.P,TQFP1,45*%
%TO.N,N-000001222*%
X182278225Y-70342944D03*
%TO.P,TQFP1,46*%
%TO.N,N-000001236*%
X182843910Y-70908629D03*
%TO.P,TQFP1,47*%
%TO.N,N-000001192*%
X183409596Y-71474315D03*
%TO.P,TQFP1,48*%
%TO.N,N-000001193*%
X183975281Y-72040000D03*
D39*
%TO.P,TQFP1,49*%
%TO.N,N-000001186*%
X187369394Y-71191472D03*
%TO.P,TQFP1,50*%
%TO.N,N-000001213*%
X186803708Y-71757158D03*
%TO.P,TQFP1,51*%
%TO.N,N-000001245*%
X186238023Y-72322843D03*
%TO.P,TQFP1,52*%
%TO.N,N-000001250*%
X185672337Y-72888528D03*
%TO.P,TQFP1,53*%
%TO.N,N-000001256*%
X185106652Y-73454214D03*
%TO.P,TQFP1,54*%
%TO.N,N-000001227*%
X184540966Y-74019899D03*
%TO.P,TQFP1,55*%
%TO.N,N-000001233*%
X183975281Y-74585585D03*
%TO.P,TQFP1,56*%
%TO.N,N-000001237*%
X183409596Y-75151270D03*
%TO.P,TQFP1,57*%
%TO.N,N-000001187*%
X182843910Y-75716956D03*
%TO.P,TQFP1,58*%
%TO.N,N-000001188*%
X182278225Y-76282641D03*
%TO.P,TQFP1,59*%
%TO.N,N-000001189*%
X181712539Y-76848326D03*
%TO.P,TQFP1,60*%
%TO.N,N-000001248*%
X181146854Y-77414012D03*
%TO.P,TQFP1,61*%
%TO.N,N-000001257*%
X180581168Y-77979697D03*
%TO.P,TQFP1,62*%
%TO.N,N-000001251*%
X180015483Y-78545383D03*
%TO.P,TQFP1,63*%
%TO.N,N-000001232*%
X179449798Y-79111068D03*
%TO.P,TQFP1,64*%
%TO.N,N-000001228*%
X178884112Y-79676754D03*
%TD*%
D12*
%TO.P,PT64,1*%
%TO.N,N-000001228*%
X178881320Y-81348680D03*
%TD*%
%TO.P,PT63,1*%
%TO.N,N-000001232*%
X180151320Y-81348680D03*
%TD*%
%TO.P,PT62,1*%
%TO.N,N-000001251*%
X181421320Y-81348680D03*
%TD*%
%TO.P,PT61,1*%
%TO.N,N-000001257*%
X182691320Y-81348680D03*
%TD*%
%TO.P,PT60,1*%
%TO.N,N-000001248*%
X183961320Y-81348680D03*
%TD*%
%TO.P,PT59,1*%
%TO.N,N-000001189*%
X185231320Y-81348680D03*
%TD*%
%TO.P,PT58,1*%
%TO.N,N-000001188*%
X186501320Y-81348680D03*
%TD*%
%TO.P,PT57,1*%
%TO.N,N-000001187*%
X187771320Y-81348680D03*
%TD*%
%TO.P,PT56,1*%
%TO.N,N-000001237*%
X189041320Y-80078680D03*
%TD*%
%TO.P,PT55,1*%
%TO.N,N-000001233*%
X189041320Y-78808680D03*
%TD*%
%TO.P,PT54,1*%
%TO.N,N-000001227*%
X189041320Y-77538680D03*
%TD*%
%TO.P,PT53,1*%
%TO.N,N-000001256*%
X189041320Y-76268680D03*
%TD*%
%TO.P,PT52,1*%
%TO.N,N-000001250*%
X189041320Y-74998680D03*
%TD*%
%TO.P,PT51,1*%
%TO.N,N-000001245*%
X189041320Y-73728680D03*
%TD*%
%TO.P,PT50,1*%
%TO.N,N-000001213*%
X189041320Y-72458680D03*
%TD*%
%TO.P,PT49,1*%
%TO.N,N-000001186*%
X189041320Y-71188680D03*
%TD*%
%TO.P,PT48,1*%
%TO.N,N-000001193*%
X189041320Y-68648680D03*
%TD*%
%TO.P,PT47,1*%
%TO.N,N-000001192*%
X189041320Y-67378680D03*
%TD*%
%TO.P,PT46,1*%
%TO.N,N-000001236*%
X189041320Y-66108680D03*
%TD*%
%TO.P,PT45,1*%
%TO.N,N-000001222*%
X189041320Y-64838680D03*
%TD*%
%TO.P,PT44,1*%
%TO.N,N-000001226*%
X189041320Y-63568680D03*
%TD*%
%TO.P,PT43,1*%
%TO.N,N-000001255*%
X189041320Y-62298680D03*
%TD*%
%TO.P,PT42,1*%
%TO.N,N-000001249*%
X189041320Y-61028680D03*
%TD*%
%TO.P,PT41,1*%
%TO.N,N-000001244*%
X189041320Y-59758680D03*
%TD*%
%TO.P,PT40,1*%
%TO.N,N-000001212*%
X187771320Y-58488680D03*
%TD*%
%TO.P,PT39,1*%
%TO.N,N-000001196*%
X186501320Y-58488680D03*
%TD*%
%TO.P,PT38,1*%
%TO.N,N-000001195*%
X185231320Y-58488680D03*
%TD*%
%TO.P,PT37,1*%
%TO.N,N-000001194*%
X183961320Y-58488680D03*
%TD*%
%TO.P,PT36,1*%
%TO.N,N-000001235*%
X182691320Y-58488680D03*
%TD*%
%TO.P,PT35,1*%
%TO.N,N-000001231*%
X181421320Y-58488680D03*
%TD*%
%TO.P,PT34,1*%
%TO.N,N-000001225*%
X180151320Y-58488680D03*
%TD*%
%TO.P,PT33,1*%
%TO.N,N-000001254*%
X178881320Y-58488680D03*
%TD*%
%TO.P,PT32,1*%
%TO.N,N-000001240*%
X176341320Y-58488680D03*
%TD*%
%TO.P,PT31,1*%
%TO.N,N-000001243*%
X175071320Y-58488680D03*
%TD*%
%TO.P,PT30,1*%
%TO.N,N-000001211*%
X173801320Y-58488680D03*
%TD*%
%TO.P,PT29,1*%
%TO.N,N-000001191*%
X172531320Y-58488680D03*
%TD*%
%TO.P,PT28,1*%
%TO.N,N-000001190*%
X171261320Y-58488680D03*
%TD*%
%TO.P,PT27,1*%
%TO.N,N-000001239*%
X169991320Y-58488680D03*
%TD*%
%TO.P,PT26,1*%
%TO.N,N-000001234*%
X168721320Y-58488680D03*
%TD*%
%TO.P,PT25,1*%
%TO.N,N-000001230*%
X167451320Y-58488680D03*
%TD*%
%TO.P,PT24,1*%
%TO.N,N-000001224*%
X166181320Y-59758680D03*
%TD*%
%TO.P,PT23,1*%
%TO.N,N-000001253*%
X166181320Y-61028680D03*
%TD*%
%TO.P,PT22,1*%
%TO.N,N-000001247*%
X166181320Y-62298680D03*
%TD*%
%TO.P,PT21,1*%
%TO.N,N-000001242*%
X166181320Y-63568680D03*
%TD*%
%TO.P,PT20,1*%
%TO.N,N-000001210*%
X166181320Y-64838680D03*
%TD*%
%TO.P,PT19,1*%
%TO.N,N-000001185*%
X166181320Y-66108680D03*
%TD*%
%TO.P,PT18,1*%
%TO.N,N-000001184*%
X166181320Y-67378680D03*
%TD*%
%TO.P,PT17,1*%
%TO.N,N-000001238*%
X166181320Y-68648680D03*
%TD*%
%TO.P,PT16,1*%
%TO.N,N-000001258*%
X166181320Y-71188680D03*
%TD*%
%TO.P,PT15,1*%
%TO.N,N-000001229*%
X166181320Y-72458680D03*
%TD*%
%TO.P,PT14,1*%
%TO.N,N-000001223*%
X166181320Y-73728680D03*
%TD*%
%TO.P,PT13,1*%
%TO.N,N-000001252*%
X166181320Y-74998680D03*
%TD*%
%TO.P,PT12,1*%
%TO.N,N-000001246*%
X166181320Y-76268680D03*
%TD*%
%TO.P,PT11,1*%
%TO.N,N-000001241*%
X166181320Y-77538680D03*
%TD*%
%TO.P,PT10,1*%
%TO.N,N-000001209*%
X166181320Y-78808680D03*
%TD*%
%TO.P,PT9,1*%
%TO.N,N-000001208*%
X166181320Y-80078680D03*
%TD*%
%TO.P,PT8,1*%
%TO.N,N-000001207*%
X167451320Y-81348680D03*
%TD*%
%TO.P,PT7,1*%
%TO.N,N-000001206*%
X168721320Y-81348680D03*
%TD*%
%TO.P,PT6,1*%
%TO.N,N-000001197*%
X169991320Y-81348680D03*
%TD*%
%TO.P,PT5,1*%
%TO.N,N-000001204*%
X171261320Y-81348680D03*
%TD*%
%TO.P,PT4,1*%
%TO.N,N-000001203*%
X172531320Y-81348680D03*
%TD*%
%TO.P,PT3,1*%
%TO.N,N-000001202*%
X173801320Y-81348680D03*
%TD*%
%TO.P,PT2,1*%
%TO.N,N-000001201*%
X175071320Y-81348680D03*
%TD*%
%TO.P,PT1,1*%
%TO.N,N-000001200*%
X176341320Y-81348680D03*
%TD*%
%TO.P,U1646,1*%
%TO.N,N-00000850*%
X154751320Y-83888680D03*
%TD*%
%TO.P,U1647,1*%
%TO.N,N-00000851*%
X154751320Y-85158680D03*
%TD*%
%TO.P,U1648,1*%
%TO.N,N-00000825*%
X154751320Y-86428680D03*
%TD*%
%TO.P,U1649,1*%
%TO.N,N-00000816*%
X156021320Y-88968680D03*
%TD*%
%TO.P,U1650,1*%
%TO.N,N-00000817*%
X156021320Y-87698680D03*
%TD*%
%TO.P,U1651,1*%
%TO.N,N-00000818*%
X156021320Y-86428680D03*
%TD*%
%TO.P,U1652,1*%
%TO.N,N-00000819*%
X156021320Y-85158680D03*
%TD*%
%TO.P,U1653,1*%
%TO.N,N-00000820*%
X156021320Y-83888680D03*
%TD*%
%TO.P,U1655,1*%
%TO.N,N-00000821*%
X156021320Y-82618680D03*
%TD*%
%TO.P,U1656,1*%
%TO.N,N-00000822*%
X156021320Y-80078680D03*
%TD*%
%TO.P,U1657,1*%
%TO.N,N-00000823*%
X157291320Y-80078680D03*
%TD*%
%TO.P,U1658,1*%
%TO.N,N-00000824*%
X156021320Y-81348680D03*
%TD*%
%TO.P,U1659,1*%
%TO.N,N-00000815*%
X161101320Y-80078680D03*
%TD*%
%TO.P,U1660,1*%
%TO.N,N-00000826*%
X159831320Y-80078680D03*
%TD*%
%TO.P,U1661,1*%
%TO.N,N-00000827*%
X158561320Y-80078680D03*
%TD*%
%TO.P,U1662,1*%
%TO.N,N-00000828*%
X164911320Y-81348680D03*
%TD*%
%TO.P,U1663,1*%
%TO.N,N-00000829*%
X163641320Y-80078680D03*
%TD*%
%TO.P,U1664,1*%
%TO.N,N-00000830*%
X162371320Y-80078680D03*
%TD*%
%TO.P,U1665,1*%
%TO.N,N-00000831*%
X158561320Y-81348680D03*
%TD*%
%TO.P,U1666,1*%
%TO.N,N-00000832*%
X157291320Y-81348680D03*
%TD*%
%TO.P,U1667,1*%
%TO.N,N-00000833*%
X157291320Y-82618680D03*
%TD*%
%TO.P,U1668,1*%
%TO.N,N-00000843*%
X159831320Y-81348680D03*
%TD*%
%TO.P,U1669,1*%
%TO.N,N-00000872*%
X158561320Y-82618680D03*
%TD*%
%TO.P,U1671,1*%
%TO.N,N-00000873*%
X161101320Y-81348680D03*
%TD*%
%TO.P,U1672,1*%
%TO.N,N-00000874*%
X159831320Y-82618680D03*
%TD*%
%TO.P,U1674,1*%
%TO.N,N-00000875*%
X157291320Y-83888680D03*
%TD*%
%TO.P,U1675,1*%
%TO.N,N-00000876*%
X163641320Y-81348680D03*
%TD*%
%TO.P,U1676,1*%
%TO.N,N-00000877*%
X162371320Y-81348680D03*
%TD*%
%TO.P,U1677,1*%
%TO.N,N-00000878*%
X161101320Y-82618680D03*
%TD*%
%TO.P,U1679,1*%
%TO.N,N-00000879*%
X158561320Y-83888680D03*
%TD*%
%TO.P,U1680,1*%
%TO.N,N-00000766*%
X157291320Y-85158680D03*
%TD*%
%TO.P,U1681,1*%
%TO.N,N-00000767*%
X157291320Y-86428680D03*
%TD*%
%TO.P,U1682,1*%
%TO.N,N-00000768*%
X157291320Y-87698680D03*
%TD*%
%TO.P,U1683,1*%
%TO.N,N-00000760*%
X157291320Y-88968680D03*
%TD*%
%TO.P,U1684,1*%
%TO.N,N-00000770*%
X162371320Y-82618680D03*
%TD*%
%TO.P,U1685,1*%
%TO.N,N-00000771*%
X163641320Y-82618680D03*
%TD*%
%TO.P,U1686,1*%
%TO.N,N-00000772*%
X178881320Y-86428680D03*
%TD*%
%TO.P,U1687,1*%
%TO.N,N-00000773*%
X180151320Y-86428680D03*
%TD*%
%TO.P,U1688,1*%
%TO.N,N-00000774*%
X180151320Y-88968680D03*
%TD*%
%TO.P,U1689,1*%
%TO.N,N-00000775*%
X180151320Y-87698680D03*
%TD*%
%TO.P,U1690,1*%
%TO.N,N-00000776*%
X178881320Y-88968680D03*
%TD*%
%TO.P,U1691,1*%
%TO.N,N-00000777*%
X178881320Y-87698680D03*
%TD*%
%TO.P,U1692,1*%
%TO.N,N-00000751*%
X177611320Y-82618680D03*
%TD*%
%TO.P,U1693,1*%
%TO.N,N-00000742*%
X176341320Y-82618680D03*
%TD*%
%TO.P,U1694,1*%
%TO.N,N-00000743*%
X158561320Y-85158680D03*
%TD*%
%TO.P,U1695,1*%
%TO.N,N-00000744*%
X159831320Y-83888680D03*
%TD*%
%TO.P,U1698,1*%
%TO.N,N-00000745*%
X158561320Y-88968680D03*
%TD*%
%TO.P,U1699,1*%
%TO.N,N-00000746*%
X158561320Y-87698680D03*
%TD*%
%TO.P,U1700,1*%
%TO.N,N-00000747*%
X158561320Y-86428680D03*
%TD*%
%TO.P,U1701,1*%
%TO.N,N-00000748*%
X159831320Y-85158680D03*
%TD*%
%TO.P,U1702,1*%
%TO.N,N-00000749*%
X159831320Y-86428680D03*
%TD*%
%TO.P,U1703,1*%
%TO.N,N-00000750*%
X159831320Y-87698680D03*
%TD*%
%TO.P,U1704,1*%
%TO.N,N-00000741*%
X159831320Y-88968680D03*
%TD*%
%TO.P,U1705,1*%
%TO.N,N-00000752*%
X161101320Y-88968680D03*
%TD*%
%TO.P,U1706,1*%
%TO.N,N-00000753*%
X164911320Y-88968680D03*
%TD*%
%TO.P,U1707,1*%
%TO.N,N-00000754*%
X163641320Y-88968680D03*
%TD*%
%TO.P,U1708,1*%
%TO.N,N-00000755*%
X162371320Y-88968680D03*
%TD*%
%TO.P,U1709,1*%
%TO.N,N-00000756*%
X161101320Y-87698680D03*
%TD*%
%TO.P,U1710,1*%
%TO.N,N-00000757*%
X161101320Y-86428680D03*
%TD*%
%TO.P,U1711,1*%
%TO.N,N-00000758*%
X161101320Y-85158680D03*
%TD*%
%TO.P,U1712,1*%
%TO.N,N-00000759*%
X161101320Y-83888680D03*
%TD*%
%TO.P,U1713,1*%
%TO.N,N-00000769*%
X162371320Y-83888680D03*
%TD*%
%TO.P,U1714,1*%
%TO.N,N-00000798*%
X162371320Y-87698680D03*
%TD*%
%TO.P,U1715,1*%
%TO.N,N-00000871*%
X162371320Y-86428680D03*
%TD*%
%TO.P,U1716,1*%
%TO.N,N-00000881*%
X162371320Y-85158680D03*
%TD*%
%TO.P,U1717,1*%
%TO.N,N-00000882*%
X163641320Y-87698680D03*
%TD*%
%TO.P,U1718,1*%
%TO.N,N-00000883*%
X163641320Y-86428680D03*
%TD*%
%TO.P,U1719,1*%
%TO.N,N-00000884*%
X164911320Y-82618680D03*
%TD*%
%TO.P,U1721,1*%
%TO.N,N-00000885*%
X166181320Y-82618680D03*
%TD*%
%TO.P,U1723,1*%
%TO.N,N-00000886*%
X163641320Y-85158680D03*
%TD*%
%TO.P,U1724,1*%
%TO.N,N-00000887*%
X163641320Y-83888680D03*
%TD*%
%TO.P,U1725,1*%
%TO.N,N-00000888*%
X164911320Y-87698680D03*
%TD*%
%TO.P,U1726,1*%
%TO.N,N-00000862*%
X164911320Y-86428680D03*
%TD*%
%TO.P,U1727,1*%
%TO.N,N-00000853*%
X164911320Y-85158680D03*
%TD*%
%TO.P,U1728,1*%
%TO.N,N-00000854*%
X164911320Y-83888680D03*
%TD*%
%TO.P,U1729,1*%
%TO.N,N-00000855*%
X167451320Y-82618680D03*
%TD*%
%TO.P,U1731,1*%
%TO.N,N-00000856*%
X177611320Y-88968680D03*
%TD*%
%TO.P,U1732,1*%
%TO.N,N-00000857*%
X166181320Y-88968680D03*
%TD*%
%TO.P,U1733,1*%
%TO.N,N-00000858*%
X167451320Y-88968680D03*
%TD*%
%TO.P,U1734,1*%
%TO.N,N-00000859*%
X168721320Y-88968680D03*
%TD*%
%TO.P,U1735,1*%
%TO.N,N-00000860*%
X169991320Y-88968680D03*
%TD*%
%TO.P,U1736,1*%
%TO.N,N-00000861*%
X171261320Y-88968680D03*
%TD*%
%TO.P,U1737,1*%
%TO.N,N-00000852*%
X177611320Y-87698680D03*
%TD*%
%TO.P,U1738,1*%
%TO.N,N-00000863*%
X177611320Y-83888680D03*
%TD*%
%TO.P,U1739,1*%
%TO.N,N-00000864*%
X176341320Y-85158680D03*
%TD*%
%TO.P,U1740,1*%
%TO.N,N-00000865*%
X177611320Y-85158680D03*
%TD*%
%TO.P,U1741,1*%
%TO.N,N-00000866*%
X177611320Y-86428680D03*
%TD*%
%TO.P,U1743,1*%
%TO.N,N-00000867*%
X176341320Y-83888680D03*
%TD*%
%TO.P,U1744,1*%
%TO.N,N-00000868*%
X176341320Y-87698680D03*
%TD*%
%TO.P,U1745,1*%
%TO.N,N-00000869*%
X176341320Y-86428680D03*
%TD*%
%TO.P,U1746,1*%
%TO.N,N-00000870*%
X176341320Y-88968680D03*
%TD*%
%TO.P,U1747,1*%
%TO.N,N-00000806*%
X175071320Y-82618680D03*
%TD*%
%TO.P,U1748,1*%
%TO.N,N-00000761*%
X173801320Y-82618680D03*
%TD*%
%TO.P,U1749,1*%
%TO.N,N-00000762*%
X172531320Y-82618680D03*
%TD*%
%TO.P,U1750,1*%
%TO.N,N-00000763*%
X171261320Y-82618680D03*
%TD*%
%TO.P,U1751,1*%
%TO.N,N-00000764*%
X169991320Y-82618680D03*
%TD*%
%TO.P,U1752,1*%
%TO.N,N-00000765*%
X168721320Y-82618680D03*
%TD*%
%TO.P,U1754,1*%
%TO.N,N-00000797*%
X175071320Y-86428680D03*
%TD*%
%TO.P,U1756,1*%
%TO.N,N-00000807*%
X175071320Y-83888680D03*
%TD*%
%TO.P,U1757,1*%
%TO.N,N-00000808*%
X175071320Y-85158680D03*
%TD*%
%TO.P,U1758,1*%
%TO.N,N-00000809*%
X175071320Y-87698680D03*
%TD*%
%TO.P,U1759,1*%
%TO.N,N-00000810*%
X175071320Y-88968680D03*
%TD*%
%TO.P,U1760,1*%
%TO.N,N-00000811*%
X173801320Y-88968680D03*
%TD*%
%TO.P,U1761,1*%
%TO.N,N-00000812*%
X173801320Y-87698680D03*
%TD*%
%TO.P,U1762,1*%
%TO.N,N-00000813*%
X173801320Y-85158680D03*
%TD*%
%TO.P,U1763,1*%
%TO.N,N-00000814*%
X173801320Y-86428680D03*
%TD*%
%TO.P,U1765,1*%
%TO.N,N-00000788*%
X173801320Y-83888680D03*
%TD*%
%TO.P,U1767,1*%
%TO.N,N-00000779*%
X172531320Y-83888680D03*
%TD*%
%TO.P,U1772,1*%
%TO.N,N-00000780*%
X166181320Y-83888680D03*
%TD*%
%TO.P,U1773,1*%
%TO.N,N-00000781*%
X166181320Y-85158680D03*
%TD*%
%TO.P,U1774,1*%
%TO.N,N-00000782*%
X166181320Y-87698680D03*
%TD*%
%TO.P,U1775,1*%
%TO.N,N-00000783*%
X166181320Y-86428680D03*
%TD*%
%TO.P,U1776,1*%
%TO.N,N-00000784*%
X167451320Y-83888680D03*
%TD*%
%TO.P,U1777,1*%
%TO.N,N-00000785*%
X167451320Y-85158680D03*
%TD*%
%TO.P,U1778,1*%
%TO.N,N-00000786*%
X167451320Y-86428680D03*
%TD*%
%TO.P,U1779,1*%
%TO.N,N-00000787*%
X167451320Y-87698680D03*
%TD*%
%TO.P,U1780,1*%
%TO.N,N-00000778*%
X168721320Y-83888680D03*
%TD*%
%TO.P,U1781,1*%
%TO.N,N-00000789*%
X169991320Y-83888680D03*
%TD*%
%TO.P,U1782,1*%
%TO.N,N-00000790*%
X171261320Y-83888680D03*
%TD*%
%TO.P,U1783,1*%
%TO.N,N-00000791*%
X168721320Y-85158680D03*
%TD*%
%TO.P,U1784,1*%
%TO.N,N-00000792*%
X168721320Y-86428680D03*
%TD*%
%TO.P,U1785,1*%
%TO.N,N-00000793*%
X168721320Y-87698680D03*
%TD*%
%TO.P,U1786,1*%
%TO.N,N-00000794*%
X169991320Y-85158680D03*
%TD*%
%TO.P,U1787,1*%
%TO.N,N-00000795*%
X172531320Y-85158680D03*
%TD*%
%TO.P,U1788,1*%
%TO.N,N-00000796*%
X171261320Y-85158680D03*
%TD*%
%TO.P,U1789,1*%
%TO.N,N-00000799*%
X172531320Y-86428680D03*
%TD*%
%TO.P,U1790,1*%
%TO.N,N-00000800*%
X169991320Y-86428680D03*
%TD*%
%TO.P,U1791,1*%
%TO.N,N-00000801*%
X171261320Y-86428680D03*
%TD*%
%TO.P,U1792,1*%
%TO.N,N-00000802*%
X169991320Y-87698680D03*
%TD*%
%TO.P,U1793,1*%
%TO.N,N-00000803*%
X171261320Y-87698680D03*
%TD*%
%TO.P,U1794,1*%
%TO.N,N-00000804*%
X172531320Y-87698680D03*
%TD*%
%TO.P,U1795,1*%
%TO.N,N-00000805*%
X172531320Y-88968680D03*
%TD*%
D40*
%TO.N,N-000001184*%
X167717409Y-67378680D02*
X171813044Y-71474315D01*
X166181320Y-67378680D02*
X167717409Y-67378680D01*
%TO.N,N-000001185*%
X167578781Y-66108680D02*
X172378730Y-70908629D01*
X166181320Y-66108680D02*
X167578781Y-66108680D01*
%TO.N,N-000001186*%
X187372186Y-71188680D02*
X187369394Y-71191472D01*
X189041320Y-71188680D02*
X187372186Y-71188680D01*
%TO.N,N-000001187*%
X187771320Y-80644366D02*
X182843910Y-75716956D01*
X187771320Y-81348680D02*
X187771320Y-80644366D01*
%TO.N,N-000001188*%
X186501320Y-80505736D02*
X182278225Y-76282641D01*
X186501320Y-81348680D02*
X186501320Y-80505736D01*
%TO.N,N-000001189*%
X185231320Y-80367107D02*
X181712539Y-76848326D01*
X185231320Y-81348680D02*
X185231320Y-80367107D01*
%TO.N,N-000001190*%
X171261320Y-59608882D02*
X175207157Y-63554719D01*
X171261320Y-58488680D02*
X171261320Y-59608882D01*
%TO.N,N-000001191*%
X172531320Y-59747511D02*
X175490000Y-62706191D01*
X172531320Y-58488680D02*
X172531320Y-59747511D01*
%TO.N,N-000001192*%
X187505231Y-67378680D02*
X183409596Y-71474315D01*
X189041320Y-67378680D02*
X187505231Y-67378680D01*
%TO.N,N-000001193*%
X187366601Y-68648680D02*
X183975281Y-72040000D01*
X189041320Y-68648680D02*
X187366601Y-68648680D01*
%TO.N,N-000001194*%
X183961320Y-59608882D02*
X180015483Y-63554719D01*
X183961320Y-58488680D02*
X183961320Y-59608882D01*
%TO.N,N-000001195*%
X185231320Y-59470253D02*
X180298326Y-64403247D01*
X185231320Y-58488680D02*
X185231320Y-59470253D01*
%TO.N,N-000001196*%
X186501320Y-59331623D02*
X180581168Y-65251775D01*
X186501320Y-58488680D02*
X186501320Y-59331623D01*
%TO.N,N-000001197*%
X169991320Y-80367107D02*
X173510101Y-76848326D01*
X169991320Y-81348680D02*
X169991320Y-80367107D01*
%TO.N,N-000001200*%
X176341320Y-79679546D02*
X176338528Y-79676754D01*
X176341320Y-81348680D02*
X176341320Y-79679546D01*
%TO.N,N-000001201*%
X175071320Y-79812590D02*
X175772842Y-79111068D01*
X175071320Y-81348680D02*
X175071320Y-79812590D01*
%TO.N,N-000001202*%
X173801320Y-79951220D02*
X175207157Y-78545383D01*
X173801320Y-81348680D02*
X173801320Y-79951220D01*
%TO.N,N-000001203*%
X172531320Y-80089849D02*
X174641472Y-77979697D01*
X172531320Y-81348680D02*
X172531320Y-80089849D01*
%TO.N,N-000001204*%
X171261320Y-80228478D02*
X174075786Y-77414012D01*
X171261320Y-81348680D02*
X171261320Y-80228478D01*
%TO.N,N-000001206*%
X168721320Y-80505736D02*
X172944415Y-76282641D01*
X168721320Y-81348680D02*
X168721320Y-80505736D01*
%TO.N,N-000001207*%
X167451320Y-80644366D02*
X172378730Y-75716956D01*
X167451320Y-81348680D02*
X167451320Y-80644366D01*
%TO.N,N-000001208*%
X166885634Y-80078680D02*
X171813044Y-75151270D01*
X166181320Y-80078680D02*
X166885634Y-80078680D01*
%TO.N,N-000001209*%
X167024264Y-78808680D02*
X171247359Y-74585585D01*
X166181320Y-78808680D02*
X167024264Y-78808680D01*
%TO.N,N-000001210*%
X167440151Y-64838680D02*
X172944415Y-70342944D01*
X166181320Y-64838680D02*
X167440151Y-64838680D01*
%TO.N,N-000001211*%
X173801320Y-59886141D02*
X175772842Y-61857663D01*
X173801320Y-58488680D02*
X173801320Y-59886141D01*
%TO.N,N-000001212*%
X187771320Y-59192994D02*
X180864011Y-66100303D01*
X187771320Y-58488680D02*
X187771320Y-59192994D01*
%TO.N,N-000001213*%
X187505230Y-72458680D02*
X186803708Y-71757158D01*
X189041320Y-72458680D02*
X187505230Y-72458680D01*
%TO.N,N-000001222*%
X187782489Y-64838680D02*
X182278225Y-70342944D01*
X189041320Y-64838680D02*
X187782489Y-64838680D01*
%TO.N,N-000001223*%
X167578780Y-73728680D02*
X168984617Y-72322843D01*
X166181320Y-73728680D02*
X167578780Y-73728680D01*
%TO.N,N-000001224*%
X166885634Y-59758680D02*
X174075786Y-66948832D01*
X166181320Y-59758680D02*
X166885634Y-59758680D01*
%TO.N,N-000001225*%
X180151320Y-60024770D02*
X179166955Y-61009135D01*
X180151320Y-58488680D02*
X180151320Y-60024770D01*
%TO.N,N-000001226*%
X187921118Y-63568680D02*
X181995382Y-69494416D01*
X189041320Y-63568680D02*
X187921118Y-63568680D01*
%TO.N,N-000001227*%
X188059747Y-77538680D02*
X184540966Y-74019899D01*
X189041320Y-77538680D02*
X188059747Y-77538680D01*
%TO.N,N-000001228*%
X178881320Y-79679546D02*
X178884112Y-79676754D01*
X178881320Y-81348680D02*
X178881320Y-79679546D01*
%TO.N,N-000001229*%
X167717410Y-72458680D02*
X168418932Y-71757158D01*
X166181320Y-72458680D02*
X167717410Y-72458680D01*
%TO.N,N-000001230*%
X167451320Y-59192994D02*
X174358629Y-66100303D01*
X167451320Y-58488680D02*
X167451320Y-59192994D01*
%TO.N,N-000001231*%
X181421320Y-59886141D02*
X179449798Y-61857663D01*
X181421320Y-58488680D02*
X181421320Y-59886141D01*
%TO.N,N-000001232*%
X180151320Y-79812590D02*
X179449798Y-79111068D01*
X180151320Y-81348680D02*
X180151320Y-79812590D01*
%TO.N,N-000001233*%
X188198376Y-78808680D02*
X183975281Y-74585585D01*
X189041320Y-78808680D02*
X188198376Y-78808680D01*
%TO.N,N-000001234*%
X168721320Y-59331623D02*
X174641472Y-65251775D01*
X168721320Y-58488680D02*
X168721320Y-59331623D01*
%TO.N,N-000001235*%
X182691320Y-59747511D02*
X179732640Y-62706191D01*
X182691320Y-58488680D02*
X182691320Y-59747511D01*
%TO.N,N-000001236*%
X187643859Y-66108680D02*
X182843910Y-70908629D01*
X189041320Y-66108680D02*
X187643859Y-66108680D01*
%TO.N,N-000001237*%
X188337006Y-80078680D02*
X183409596Y-75151270D01*
X189041320Y-80078680D02*
X188337006Y-80078680D01*
%TO.N,N-000001238*%
X167856039Y-68648680D02*
X171247359Y-72040000D01*
X166181320Y-68648680D02*
X167856039Y-68648680D01*
%TO.N,N-000001239*%
X169991320Y-59470253D02*
X174924314Y-64403247D01*
X169991320Y-58488680D02*
X169991320Y-59470253D01*
%TO.N,N-000001240*%
X176341320Y-60157814D02*
X176338528Y-60160606D01*
X176341320Y-58488680D02*
X176341320Y-60157814D01*
%TO.N,N-000001241*%
X167162893Y-77538680D02*
X170681674Y-74019899D01*
X166181320Y-77538680D02*
X167162893Y-77538680D01*
%TO.N,N-000001242*%
X167301522Y-63568680D02*
X173227258Y-69494416D01*
X166181320Y-63568680D02*
X167301522Y-63568680D01*
%TO.N,N-000001243*%
X175071320Y-60024770D02*
X176055685Y-61009135D01*
X175071320Y-58488680D02*
X175071320Y-60024770D01*
%TO.N,N-000001244*%
X188337006Y-59758680D02*
X181146854Y-66948832D01*
X189041320Y-59758680D02*
X188337006Y-59758680D01*
%TO.N,N-000001245*%
X187643860Y-73728680D02*
X186238023Y-72322843D01*
X189041320Y-73728680D02*
X187643860Y-73728680D01*
%TO.N,N-000001246*%
X167301522Y-76268680D02*
X170115988Y-73454214D01*
X166181320Y-76268680D02*
X167301522Y-76268680D01*
%TO.N,N-000001247*%
X167162893Y-62298680D02*
X173510101Y-68645888D01*
X166181320Y-62298680D02*
X167162893Y-62298680D01*
%TO.N,N-000001248*%
X183961320Y-80228478D02*
X181146854Y-77414012D01*
X183961320Y-81348680D02*
X183961320Y-80228478D01*
%TO.N,N-000001249*%
X188198377Y-61028680D02*
X181429697Y-67797360D01*
X189041320Y-61028680D02*
X188198377Y-61028680D01*
%TO.N,N-000001250*%
X187782489Y-74998680D02*
X185672337Y-72888528D01*
X189041320Y-74998680D02*
X187782489Y-74998680D01*
%TO.N,N-000001251*%
X181421320Y-79951220D02*
X180015483Y-78545383D01*
X181421320Y-81348680D02*
X181421320Y-79951220D01*
%TO.N,N-000001252*%
X167440151Y-74998680D02*
X169550303Y-72888528D01*
X166181320Y-74998680D02*
X167440151Y-74998680D01*
%TO.N,N-000001253*%
X167024263Y-61028680D02*
X173792943Y-67797360D01*
X166181320Y-61028680D02*
X167024263Y-61028680D01*
%TO.N,N-000001254*%
X178881320Y-60157814D02*
X178884112Y-60160606D01*
X178881320Y-58488680D02*
X178881320Y-60157814D01*
%TO.N,N-000001255*%
X188059747Y-62298680D02*
X181712539Y-68645888D01*
X189041320Y-62298680D02*
X188059747Y-62298680D01*
%TO.N,N-000001256*%
X187921118Y-76268680D02*
X185106652Y-73454214D01*
X189041320Y-76268680D02*
X187921118Y-76268680D01*
%TO.N,N-000001257*%
X182691320Y-80089849D02*
X180581168Y-77979697D01*
X182691320Y-81348680D02*
X182691320Y-80089849D01*
%TO.N,N-000001258*%
X167850454Y-71188680D02*
X167853246Y-71191472D01*
X166181320Y-71188680D02*
X167850454Y-71188680D01*
%TD*%
D41*
X152621320Y-90828680D02*
X152621320Y-46828680D01*
X202621320Y-90828680D02*
G75*
G02*
X199621320Y-93828720I-3000020J-20D01*
G01*
X155621320Y-93828680D02*
G75*
G02*
X152621320Y-90828680I-20J2999980D01*
G01*
X199621320Y-43828680D02*
G75*
G02*
X202621320Y-46828680I-20J-3000020D01*
G01*
X155621320Y-43828680D02*
X199621320Y-43828680D01*
X199621320Y-93828680D02*
X155621320Y-93828680D01*
X202621320Y-46828680D02*
X202621320Y-90828680D01*
X152621320Y-46828680D02*
G75*
G02*
X155621320Y-43828720I2999980J-20D01*
G01*
M02*
