M48
; DRILL file {KiCad 9.0.1} date 2026-01-25T18:39:53-0500
; FORMAT={-:-/ absolute / inch / decimal}
; #@! TF.CreationDate,2026-01-25T18:39:53-05:00
; #@! TF.GenerationSoftware,Kicad,Pcbnew,9.0.1
; #@! TF.FileFunction,Plated,1,2,PTH
FMAT,2
INCH
; #@! TA.AperFunction,Plated,PTH,ComponentDrill
T1C0.0354
; #@! TA.AperFunction,Plated,PTH,ComponentDrill
T2C0.0787
%
G90
G05
T1
X6.2926Y-1.8027
X6.2926Y-1.9027
X6.2926Y-3.6027
X6.3926Y-1.8027
X6.3926Y-1.9027
X6.3926Y-3.6027
X6.4926Y-1.8027
X6.4926Y-1.9027
X6.4926Y-3.6027
X6.5926Y-1.8027
X6.5926Y-1.9027
X6.5926Y-3.6027
X6.6926Y-1.8027
X6.6926Y-1.9027
X6.6926Y-3.6027
X6.7926Y-1.8027
X6.7926Y-1.9027
X6.7926Y-3.6027
X6.8926Y-1.8027
X6.8926Y-1.9027
X6.8926Y-3.6027
X6.9926Y-1.8027
X6.9926Y-1.9027
X6.9926Y-3.6027
X7.0926Y-1.8027
X7.0926Y-1.9027
X7.0926Y-3.6027
X7.1926Y-1.8027
X7.1926Y-1.9027
X7.1926Y-3.6027
X7.2926Y-1.8027
X7.2926Y-1.9027
X7.2926Y-3.6027
X7.3926Y-1.8027
X7.3926Y-1.9027
X7.3926Y-3.6027
X7.4926Y-1.8027
X7.4926Y-1.9027
X7.4926Y-3.6027
X7.5926Y-1.8027
X7.5926Y-1.9027
X7.5926Y-3.6027
X7.6926Y-1.8027
X7.6926Y-1.9027
X7.6926Y-3.6027
T2
X6.1426Y-1.8527
X6.1426Y-3.6027
X7.8426Y-1.8527
X7.8426Y-3.6027
M30
