%TF.GenerationSoftware,KiCad,Pcbnew,9.0.1*%
%TF.CreationDate,2026-01-25T18:39:51-05:00*%
%TF.ProjectId,project-board-grid-smt,70726f6a-6563-4742-9d62-6f6172642d67,rev?*%
%TF.SameCoordinates,Original*%
%TF.FileFunction,Soldermask,Top*%
%TF.FilePolarity,Negative*%
%FSLAX46Y46*%
G04 Gerber Fmt 4.6, Leading zero omitted, Abs format (unit mm)*
G04 Created by KiCad (PCBNEW 9.0.1) date 2026-01-25 18:39:51*
%MOMM*%
%LPD*%
G01*
G04 APERTURE LIST*
G04 Aperture macros list*
%AMRoundRect*
0 Rectangle with rounded corners*
0 $1 Rounding radius*
0 $2 $3 $4 $5 $6 $7 $8 $9 X,Y pos of 4 corners*
0 Add a 4 corners polygon primitive as box body*
4,1,4,$2,$3,$4,$5,$6,$7,$8,$9,$2,$3,0*
0 Add four circle primitives for the rounded corners*
1,1,$1+$1,$2,$3*
1,1,$1+$1,$4,$5*
1,1,$1+$1,$6,$7*
1,1,$1+$1,$8,$9*
0 Add four rect primitives between the rounded corners*
20,1,$1+$1,$2,$3,$4,$5,0*
20,1,$1+$1,$4,$5,$6,$7,0*
20,1,$1+$1,$6,$7,$8,$9,0*
20,1,$1+$1,$8,$9,$2,$3,0*%
G04 Aperture macros list end*
%ADD10RoundRect,0.254000X-0.999490X-0.999490X0.999490X-0.999490X0.999490X0.999490X-0.999490X0.999490X0*%
%ADD11RoundRect,0.254000X-0.500380X-0.500380X0.500380X-0.500380X0.500380X0.500380X-0.500380X0.500380X0*%
%ADD12C,3.508000*%
%ADD13RoundRect,0.254000X-0.342900X-1.800000X0.342900X-1.800000X0.342900X1.800000X-0.342900X1.800000X0*%
%ADD14RoundRect,0.254000X-0.289560X-0.599440X0.289560X-0.599440X0.289560X0.599440X-0.289560X0.599440X0*%
%TA.AperFunction,Profile*%
%ADD15C,0.381000*%
%TD*%
G04 APERTURE END LIST*
D10*
%TO.C,P45*%
X182691320Y-48328680D03*
%TD*%
%TO.C,P44*%
X185231320Y-48328680D03*
%TD*%
%TO.C,P43*%
X187771320Y-48328680D03*
%TD*%
%TO.C,P42*%
X190311320Y-48328680D03*
%TD*%
%TO.C,P41*%
X192851320Y-48328680D03*
%TD*%
%TO.C,P40*%
X195391320Y-48328680D03*
%TD*%
%TO.C,P39*%
X177611320Y-48328680D03*
%TD*%
%TO.C,P38*%
X180151320Y-48328680D03*
%TD*%
%TO.C,P37*%
X172531320Y-48328680D03*
%TD*%
%TO.C,P36*%
X175071320Y-48328680D03*
%TD*%
%TO.C,P17*%
X169991320Y-48328680D03*
%TD*%
%TO.C,P16*%
X167451320Y-48328680D03*
%TD*%
%TO.C,P8*%
X164911320Y-48328680D03*
%TD*%
%TO.C,P2*%
X162371320Y-48328680D03*
%TD*%
%TO.C,P1*%
X159831320Y-48328680D03*
%TD*%
D11*
%TO.C,U997*%
X197931320Y-62298680D03*
%TD*%
%TO.C,U994*%
X199201320Y-62298680D03*
%TD*%
%TO.C,U993*%
X199201320Y-61028680D03*
%TD*%
%TO.C,U992*%
X197931320Y-61028680D03*
%TD*%
%TO.C,U991*%
X196661320Y-62298680D03*
%TD*%
%TO.C,U990*%
X196661320Y-61028680D03*
%TD*%
%TO.C,U989*%
X199201320Y-59758680D03*
%TD*%
%TO.C,U988*%
X199201320Y-58488680D03*
%TD*%
%TO.C,U987*%
X197931320Y-59758680D03*
%TD*%
%TO.C,U986*%
X197931320Y-58488680D03*
%TD*%
%TO.C,U985*%
X196661320Y-59758680D03*
%TD*%
%TO.C,U984*%
X196661320Y-58488680D03*
%TD*%
%TO.C,U983*%
X199201320Y-57218680D03*
%TD*%
%TO.C,U982*%
X197931320Y-57218680D03*
%TD*%
%TO.C,U981*%
X196661320Y-57218680D03*
%TD*%
%TO.C,U980*%
X195391320Y-58488680D03*
%TD*%
%TO.C,U979*%
X195391320Y-57218680D03*
%TD*%
%TO.C,U978*%
X200471320Y-55948680D03*
%TD*%
%TO.C,U977*%
X200471320Y-52138680D03*
%TD*%
%TO.C,U976*%
X200471320Y-59758680D03*
%TD*%
%TO.C,U975*%
X195391320Y-59758680D03*
%TD*%
%TO.C,U974*%
X195391320Y-61028680D03*
%TD*%
%TO.C,U973*%
X195391320Y-62298680D03*
%TD*%
%TO.C,U972*%
X194121320Y-62298680D03*
%TD*%
%TO.C,U971*%
X194121320Y-61028680D03*
%TD*%
%TO.C,U970*%
X194121320Y-59758680D03*
%TD*%
%TO.C,U969*%
X194121320Y-58488680D03*
%TD*%
%TO.C,U968*%
X194121320Y-57218680D03*
%TD*%
%TO.C,U967*%
X192851320Y-59758680D03*
%TD*%
%TO.C,U966*%
X192851320Y-58488680D03*
%TD*%
%TO.C,U965*%
X192851320Y-57218680D03*
%TD*%
%TO.C,U964*%
X200471320Y-63568680D03*
%TD*%
%TO.C,U963*%
X200471320Y-67378680D03*
%TD*%
%TO.C,U962*%
X200471320Y-71188680D03*
%TD*%
%TO.C,U961*%
X192851320Y-61028680D03*
%TD*%
%TO.C,U960*%
X192851320Y-62298680D03*
%TD*%
%TO.C,U959*%
X191581320Y-62298680D03*
%TD*%
%TO.C,U958*%
X191581320Y-61028680D03*
%TD*%
%TO.C,U957*%
X191581320Y-59758680D03*
%TD*%
%TO.C,U956*%
X190311320Y-58488680D03*
%TD*%
%TO.C,U955*%
X191581320Y-57218680D03*
%TD*%
%TO.C,U954*%
X200471320Y-74998680D03*
%TD*%
%TO.C,U942*%
X192851320Y-63568680D03*
%TD*%
%TO.C,U941*%
X194121320Y-63568680D03*
%TD*%
%TO.C,U940*%
X195391320Y-63568680D03*
%TD*%
%TO.C,U939*%
X196661320Y-63568680D03*
%TD*%
%TO.C,U938*%
X197931320Y-63568680D03*
%TD*%
%TO.C,U937*%
X199201320Y-63568680D03*
%TD*%
%TO.C,U936*%
X191581320Y-63568680D03*
%TD*%
%TO.C,U932*%
X200471320Y-66108680D03*
%TD*%
%TO.C,U931*%
X200471320Y-69918680D03*
%TD*%
%TO.C,U930*%
X200471320Y-58488680D03*
%TD*%
%TO.C,U929*%
X200471320Y-62298680D03*
%TD*%
%TO.C,U928*%
X200471320Y-54678680D03*
%TD*%
%TO.C,U927*%
X200471320Y-50868680D03*
%TD*%
%TO.C,U926*%
X200471320Y-73728680D03*
%TD*%
%TO.C,U925*%
X194121320Y-55948680D03*
%TD*%
%TO.C,U924*%
X192851320Y-55948680D03*
%TD*%
%TO.C,U923*%
X191581320Y-55948680D03*
%TD*%
%TO.C,U922*%
X195391320Y-55948680D03*
%TD*%
%TO.C,U921*%
X196661320Y-55948680D03*
%TD*%
%TO.C,U920*%
X197931320Y-55948680D03*
%TD*%
%TO.C,U919*%
X199201320Y-55948680D03*
%TD*%
%TO.C,U918*%
X192851320Y-54678680D03*
%TD*%
%TO.C,U917*%
X191581320Y-54678680D03*
%TD*%
%TO.C,U916*%
X194121320Y-54678680D03*
%TD*%
%TO.C,U915*%
X195391320Y-54678680D03*
%TD*%
%TO.C,U914*%
X196661320Y-54678680D03*
%TD*%
%TO.C,U913*%
X197931320Y-54678680D03*
%TD*%
%TO.C,U912*%
X199201320Y-54678680D03*
%TD*%
%TO.C,U911*%
X197931320Y-53408680D03*
%TD*%
%TO.C,U910*%
X199201320Y-53408680D03*
%TD*%
%TO.C,U909*%
X196661320Y-53408680D03*
%TD*%
%TO.C,U908*%
X195391320Y-53408680D03*
%TD*%
%TO.C,U907*%
X194121320Y-53408680D03*
%TD*%
%TO.C,U906*%
X192851320Y-53408680D03*
%TD*%
%TO.C,U905*%
X191581320Y-53408680D03*
%TD*%
%TO.C,U904*%
X190311320Y-54678680D03*
%TD*%
%TO.C,U903*%
X190311320Y-53408680D03*
%TD*%
%TO.C,U902*%
X190311320Y-55948680D03*
%TD*%
%TO.C,U901*%
X200471320Y-77538680D03*
%TD*%
%TO.C,U898*%
X200471320Y-78808680D03*
%TD*%
%TO.C,U897*%
X190311320Y-57218680D03*
%TD*%
%TO.C,U896*%
X191581320Y-58488680D03*
%TD*%
%TO.C,U895*%
X190311320Y-59758680D03*
%TD*%
%TO.C,U894*%
X190311320Y-61028680D03*
%TD*%
%TO.C,U893*%
X190311320Y-62298680D03*
%TD*%
%TO.C,U892*%
X190311320Y-63568680D03*
%TD*%
%TO.C,U891*%
X189041320Y-61028680D03*
%TD*%
%TO.C,U890*%
X189041320Y-62298680D03*
%TD*%
%TO.C,U889*%
X189041320Y-58488680D03*
%TD*%
%TO.C,U888*%
X189041320Y-59758680D03*
%TD*%
%TO.C,U887*%
X189041320Y-57218680D03*
%TD*%
%TO.C,U886*%
X200471320Y-82618680D03*
%TD*%
%TO.C,U883*%
X200471320Y-81348680D03*
%TD*%
%TO.C,U882*%
X189041320Y-55948680D03*
%TD*%
%TO.C,U881*%
X189041320Y-54678680D03*
%TD*%
%TO.C,U880*%
X189041320Y-53408680D03*
%TD*%
%TO.C,U879*%
X187771320Y-53408680D03*
%TD*%
%TO.C,U878*%
X187771320Y-54678680D03*
%TD*%
%TO.C,U877*%
X187771320Y-55948680D03*
%TD*%
%TO.C,U876*%
X200471320Y-85158680D03*
%TD*%
%TO.C,U873*%
X200471320Y-86428680D03*
%TD*%
%TO.C,U872*%
X187771320Y-58488680D03*
%TD*%
%TO.C,U871*%
X187771320Y-57218680D03*
%TD*%
%TO.C,U870*%
X187771320Y-59758680D03*
%TD*%
%TO.C,U869*%
X187771320Y-61028680D03*
%TD*%
%TO.C,U868*%
X187771320Y-62298680D03*
%TD*%
%TO.C,U867*%
X186501320Y-62298680D03*
%TD*%
%TO.C,U866*%
X186501320Y-61028680D03*
%TD*%
%TO.C,U865*%
X186501320Y-59758680D03*
%TD*%
%TO.C,U864*%
X186501320Y-57218680D03*
%TD*%
%TO.C,U860*%
X186501320Y-58488680D03*
%TD*%
%TO.C,U859*%
X186501320Y-55948680D03*
%TD*%
%TO.C,U857*%
X186501320Y-54678680D03*
%TD*%
%TO.C,U856*%
X186501320Y-53408680D03*
%TD*%
%TO.C,U855*%
X185231320Y-54678680D03*
%TD*%
%TO.C,U854*%
X185231320Y-53408680D03*
%TD*%
%TO.C,U853*%
X185231320Y-55948680D03*
%TD*%
%TO.C,U848*%
X185231320Y-57218680D03*
%TD*%
%TO.C,U847*%
X185231320Y-58488680D03*
%TD*%
%TO.C,U846*%
X185231320Y-59758680D03*
%TD*%
%TO.C,U845*%
X185231320Y-62298680D03*
%TD*%
%TO.C,U844*%
X183961320Y-62298680D03*
%TD*%
%TO.C,U843*%
X183961320Y-61028680D03*
%TD*%
%TO.C,U842*%
X185231320Y-61028680D03*
%TD*%
%TO.C,U841*%
X183961320Y-59758680D03*
%TD*%
%TO.C,U840*%
X183961320Y-58488680D03*
%TD*%
%TO.C,U839*%
X183961320Y-57218680D03*
%TD*%
%TO.C,U834*%
X183961320Y-55948680D03*
%TD*%
%TO.C,U833*%
X183961320Y-54678680D03*
%TD*%
%TO.C,U832*%
X183961320Y-53408680D03*
%TD*%
%TO.C,U831*%
X182691320Y-61028680D03*
%TD*%
%TO.C,U830*%
X182691320Y-59758680D03*
%TD*%
%TO.C,U829*%
X182691320Y-58488680D03*
%TD*%
%TO.C,U828*%
X182691320Y-57218680D03*
%TD*%
%TO.C,U823*%
X182691320Y-55948680D03*
%TD*%
%TO.C,U822*%
X182691320Y-54678680D03*
%TD*%
%TO.C,U821*%
X182691320Y-53408680D03*
%TD*%
%TO.C,U820*%
X182691320Y-62298680D03*
%TD*%
%TO.C,U819*%
X189041320Y-63568680D03*
%TD*%
%TO.C,U818*%
X187771320Y-63568680D03*
%TD*%
%TO.C,U817*%
X186501320Y-63568680D03*
%TD*%
%TO.C,U816*%
X185231320Y-63568680D03*
%TD*%
%TO.C,U815*%
X183961320Y-63568680D03*
%TD*%
%TO.C,U814*%
X182691320Y-63568680D03*
%TD*%
%TO.C,U813*%
X181421320Y-58488680D03*
%TD*%
%TO.C,U812*%
X181421320Y-59758680D03*
%TD*%
%TO.C,U811*%
X181421320Y-57218680D03*
%TD*%
%TO.C,U806*%
X181421320Y-55948680D03*
%TD*%
%TO.C,U805*%
X181421320Y-54678680D03*
%TD*%
%TO.C,U804*%
X181421320Y-53408680D03*
%TD*%
%TO.C,U803*%
X181421320Y-61028680D03*
%TD*%
%TO.C,U802*%
X181421320Y-62298680D03*
%TD*%
%TO.C,U801*%
X181421320Y-63568680D03*
%TD*%
%TO.C,U800*%
X180151320Y-61028680D03*
%TD*%
%TO.C,U799*%
X180151320Y-59758680D03*
%TD*%
%TO.C,U798*%
X180151320Y-58488680D03*
%TD*%
%TO.C,U797*%
X180151320Y-57218680D03*
%TD*%
%TO.C,U796*%
X178881320Y-57218680D03*
%TD*%
%TO.C,U795*%
X178881320Y-58488680D03*
%TD*%
%TO.C,U794*%
X178881320Y-59758680D03*
%TD*%
%TO.C,U786*%
X180151320Y-55948680D03*
%TD*%
%TO.C,U785*%
X178881320Y-55948680D03*
%TD*%
%TO.C,U783*%
X180151320Y-54678680D03*
%TD*%
%TO.C,U782*%
X178881320Y-54678680D03*
%TD*%
%TO.C,U781*%
X178881320Y-61028680D03*
%TD*%
%TO.C,U780*%
X177611320Y-59758680D03*
%TD*%
%TO.C,U779*%
X177611320Y-58488680D03*
%TD*%
%TO.C,U778*%
X177611320Y-57218680D03*
%TD*%
%TO.C,U777*%
X176341320Y-57218680D03*
%TD*%
%TO.C,U769*%
X176341320Y-58488680D03*
%TD*%
%TO.C,U768*%
X177611320Y-61028680D03*
%TD*%
%TO.C,U767*%
X176341320Y-59758680D03*
%TD*%
%TO.C,U766*%
X175071320Y-59758680D03*
%TD*%
%TO.C,U765*%
X175071320Y-58488680D03*
%TD*%
%TO.C,U764*%
X175071320Y-57218680D03*
%TD*%
%TO.C,U763*%
X173801320Y-57218680D03*
%TD*%
%TO.C,U755*%
X176341320Y-55948680D03*
%TD*%
%TO.C,U754*%
X177611320Y-55948680D03*
%TD*%
%TO.C,U753*%
X175071320Y-55948680D03*
%TD*%
%TO.C,U752*%
X173801320Y-55948680D03*
%TD*%
%TO.C,U750*%
X173801320Y-59758680D03*
%TD*%
%TO.C,U749*%
X172531320Y-59758680D03*
%TD*%
%TO.C,U748*%
X172531320Y-58488680D03*
%TD*%
%TO.C,U747*%
X172531320Y-57218680D03*
%TD*%
%TO.C,U742*%
X172531320Y-55948680D03*
%TD*%
%TO.C,U741*%
X171261320Y-57218680D03*
%TD*%
%TO.C,U740*%
X171261320Y-58488680D03*
%TD*%
%TO.C,U739*%
X169991320Y-58488680D03*
%TD*%
%TO.C,U735*%
X168721320Y-57218680D03*
%TD*%
%TO.C,U734*%
X168721320Y-58488680D03*
%TD*%
%TO.C,U731*%
X167451320Y-57218680D03*
%TD*%
%TO.C,U730*%
X166181320Y-58488680D03*
%TD*%
%TO.C,U729*%
X164911320Y-57218680D03*
%TD*%
%TO.C,U727*%
X164911320Y-58488680D03*
%TD*%
%TO.C,U726*%
X163641320Y-58488680D03*
%TD*%
%TO.C,U725*%
X171261320Y-59758680D03*
%TD*%
%TO.C,U724*%
X169991320Y-59758680D03*
%TD*%
%TO.C,U723*%
X168721320Y-59758680D03*
%TD*%
%TO.C,U722*%
X167451320Y-59758680D03*
%TD*%
%TO.C,U721*%
X166181320Y-59758680D03*
%TD*%
%TO.C,U720*%
X164911320Y-59758680D03*
%TD*%
%TO.C,U719*%
X171261320Y-61028680D03*
%TD*%
%TO.C,U718*%
X168721320Y-61028680D03*
%TD*%
%TO.C,U717*%
X167451320Y-61028680D03*
%TD*%
%TO.C,U716*%
X163641320Y-61028680D03*
%TD*%
%TO.C,U715*%
X164911320Y-61028680D03*
%TD*%
%TO.C,U714*%
X164911320Y-62298680D03*
%TD*%
%TO.C,U713*%
X166181320Y-62298680D03*
%TD*%
%TO.C,U712*%
X167451320Y-62298680D03*
%TD*%
%TO.C,U711*%
X168721320Y-62298680D03*
%TD*%
%TO.C,U710*%
X169991320Y-62298680D03*
%TD*%
%TO.C,U709*%
X171261320Y-62298680D03*
%TD*%
%TO.C,U708*%
X175071320Y-61028680D03*
%TD*%
%TO.C,U707*%
X172531320Y-61028680D03*
%TD*%
%TO.C,U706*%
X173801320Y-62298680D03*
%TD*%
%TO.C,U705*%
X175071320Y-62298680D03*
%TD*%
%TO.C,U704*%
X176341320Y-62298680D03*
%TD*%
%TO.C,U703*%
X176341320Y-61028680D03*
%TD*%
%TO.C,U702*%
X177611320Y-62298680D03*
%TD*%
%TO.C,U701*%
X178881320Y-62298680D03*
%TD*%
%TO.C,U700*%
X180151320Y-62298680D03*
%TD*%
%TO.C,U699*%
X163641320Y-62298680D03*
%TD*%
%TO.C,U698*%
X166181320Y-63568680D03*
%TD*%
%TO.C,U697*%
X167451320Y-63568680D03*
%TD*%
%TO.C,U696*%
X168721320Y-63568680D03*
%TD*%
%TO.C,U695*%
X169991320Y-63568680D03*
%TD*%
%TO.C,U694*%
X171261320Y-63568680D03*
%TD*%
%TO.C,U693*%
X172531320Y-63568680D03*
%TD*%
%TO.C,U692*%
X173801320Y-63568680D03*
%TD*%
%TO.C,U691*%
X175071320Y-63568680D03*
%TD*%
%TO.C,U690*%
X176341320Y-63568680D03*
%TD*%
%TO.C,U689*%
X177611320Y-63568680D03*
%TD*%
%TO.C,U688*%
X178881320Y-63568680D03*
%TD*%
%TO.C,U687*%
X180151320Y-63568680D03*
%TD*%
%TO.C,U686*%
X164911320Y-63568680D03*
%TD*%
%TO.C,U685*%
X163641320Y-59758680D03*
%TD*%
%TO.C,U684*%
X169991320Y-55948680D03*
%TD*%
%TO.C,U683*%
X168721320Y-55948680D03*
%TD*%
%TO.C,U682*%
X163641320Y-57218680D03*
%TD*%
%TO.C,U681*%
X163641320Y-63568680D03*
%TD*%
%TO.C,U680*%
X171261320Y-55948680D03*
%TD*%
%TO.C,U679*%
X167451320Y-55948680D03*
%TD*%
%TO.C,U671*%
X166181320Y-55948680D03*
%TD*%
%TO.C,U668*%
X169991320Y-54678680D03*
%TD*%
%TO.C,U667*%
X171261320Y-54678680D03*
%TD*%
%TO.C,U666*%
X167451320Y-54678680D03*
%TD*%
%TO.C,U663*%
X173801320Y-61028680D03*
%TD*%
%TO.C,U662*%
X172531320Y-62298680D03*
%TD*%
%TO.C,U661*%
X169991320Y-61028680D03*
%TD*%
%TO.C,U660*%
X166181320Y-61028680D03*
%TD*%
%TO.C,U659*%
X173801320Y-58488680D03*
%TD*%
%TO.C,U658*%
X169991320Y-57218680D03*
%TD*%
%TO.C,U651*%
X167451320Y-58488680D03*
%TD*%
%TO.C,U650*%
X166181320Y-57218680D03*
%TD*%
%TO.C,U645*%
X168721320Y-54678680D03*
%TD*%
%TO.C,U644*%
X172531320Y-54678680D03*
%TD*%
%TO.C,U643*%
X173801320Y-54678680D03*
%TD*%
%TO.C,U642*%
X176341320Y-54678680D03*
%TD*%
%TO.C,U641*%
X175071320Y-54678680D03*
%TD*%
%TO.C,U640*%
X177611320Y-54678680D03*
%TD*%
%TO.C,U639*%
X177611320Y-53408680D03*
%TD*%
%TO.C,U638*%
X178881320Y-53408680D03*
%TD*%
%TO.C,U637*%
X180151320Y-53408680D03*
%TD*%
%TO.C,U634*%
X164911320Y-55948680D03*
%TD*%
%TO.C,U633*%
X162371320Y-62298680D03*
%TD*%
%TO.C,U632*%
X162371320Y-61028680D03*
%TD*%
%TO.C,U631*%
X162371320Y-59758680D03*
%TD*%
%TO.C,U630*%
X162371320Y-58488680D03*
%TD*%
%TO.C,U629*%
X162371320Y-57218680D03*
%TD*%
%TO.C,U625*%
X161101320Y-59758680D03*
%TD*%
%TO.C,U624*%
X161101320Y-61028680D03*
%TD*%
%TO.C,U623*%
X161101320Y-62298680D03*
%TD*%
%TO.C,U622*%
X161101320Y-63568680D03*
%TD*%
%TO.C,U621*%
X162371320Y-63568680D03*
%TD*%
%TO.C,U620*%
X159831320Y-61028680D03*
%TD*%
%TO.C,U619*%
X159831320Y-59758680D03*
%TD*%
%TO.C,U618*%
X159831320Y-62298680D03*
%TD*%
%TO.C,U617*%
X159831320Y-63568680D03*
%TD*%
%TO.C,U616*%
X158561320Y-62298680D03*
%TD*%
%TO.C,U615*%
X158561320Y-63568680D03*
%TD*%
%TO.C,U614*%
X161101320Y-58488680D03*
%TD*%
%TO.C,U613*%
X159831320Y-58488680D03*
%TD*%
%TO.C,U612*%
X158561320Y-61028680D03*
%TD*%
%TO.C,U611*%
X158561320Y-59758680D03*
%TD*%
%TO.C,U610*%
X158561320Y-58488680D03*
%TD*%
%TO.C,U609*%
X157291320Y-63568680D03*
%TD*%
%TO.C,U608*%
X157291320Y-61028680D03*
%TD*%
%TO.C,U607*%
X157291320Y-59758680D03*
%TD*%
%TO.C,U606*%
X157291320Y-58488680D03*
%TD*%
%TO.C,U605*%
X156021320Y-62298680D03*
%TD*%
%TO.C,U604*%
X157291320Y-62298680D03*
%TD*%
%TO.C,U603*%
X156021320Y-59758680D03*
%TD*%
%TO.C,U602*%
X156021320Y-61028680D03*
%TD*%
%TO.C,U601*%
X156021320Y-63568680D03*
%TD*%
%TO.C,U600*%
X156021320Y-58488680D03*
%TD*%
%TO.C,U599*%
X161101320Y-57218680D03*
%TD*%
%TO.C,U598*%
X158561320Y-57218680D03*
%TD*%
%TO.C,U597*%
X159831320Y-57218680D03*
%TD*%
%TO.C,U596*%
X157291320Y-57218680D03*
%TD*%
%TO.C,U595*%
X156021320Y-57218680D03*
%TD*%
%TO.C,U573*%
X163641320Y-55948680D03*
%TD*%
%TO.C,U572*%
X162371320Y-55948680D03*
%TD*%
%TO.C,U571*%
X161101320Y-55948680D03*
%TD*%
%TO.C,U570*%
X159831320Y-55948680D03*
%TD*%
%TO.C,U569*%
X158561320Y-55948680D03*
%TD*%
%TO.C,U568*%
X157291320Y-55948680D03*
%TD*%
%TO.C,U567*%
X154751320Y-62298680D03*
%TD*%
%TO.C,U566*%
X154751320Y-59758680D03*
%TD*%
%TO.C,U565*%
X154751320Y-61028680D03*
%TD*%
%TO.C,U564*%
X154751320Y-63568680D03*
%TD*%
%TO.C,U563*%
X156021320Y-55948680D03*
%TD*%
%TO.C,U562*%
X154751320Y-58488680D03*
%TD*%
%TO.C,U561*%
X154751320Y-57218680D03*
%TD*%
%TO.C,U556*%
X154751320Y-55948680D03*
%TD*%
%TO.C,U555*%
X154751320Y-54678680D03*
%TD*%
%TO.C,U554*%
X157291320Y-54678680D03*
%TD*%
%TO.C,U553*%
X156021320Y-54678680D03*
%TD*%
%TO.C,U552*%
X158561320Y-54678680D03*
%TD*%
%TO.C,U551*%
X159831320Y-54678680D03*
%TD*%
%TO.C,U550*%
X161101320Y-54678680D03*
%TD*%
%TO.C,U549*%
X162371320Y-54678680D03*
%TD*%
%TO.C,U548*%
X163641320Y-54678680D03*
%TD*%
%TO.C,U547*%
X164911320Y-54678680D03*
%TD*%
%TO.C,U546*%
X166181320Y-54678680D03*
%TD*%
%TO.C,U545*%
X176341320Y-53408680D03*
%TD*%
%TO.C,U544*%
X175071320Y-53408680D03*
%TD*%
%TO.C,U543*%
X173801320Y-53408680D03*
%TD*%
%TO.C,U542*%
X172531320Y-53408680D03*
%TD*%
%TO.C,U541*%
X171261320Y-53408680D03*
%TD*%
%TO.C,U540*%
X169991320Y-53408680D03*
%TD*%
%TO.C,U539*%
X168721320Y-53408680D03*
%TD*%
%TO.C,U538*%
X167451320Y-53408680D03*
%TD*%
%TO.C,U537*%
X166181320Y-53408680D03*
%TD*%
%TO.C,U536*%
X164911320Y-53408680D03*
%TD*%
%TO.C,U535*%
X163641320Y-53408680D03*
%TD*%
%TO.C,U534*%
X162371320Y-53408680D03*
%TD*%
%TO.C,U533*%
X161101320Y-53408680D03*
%TD*%
%TO.C,U532*%
X159831320Y-53408680D03*
%TD*%
%TO.C,U531*%
X158561320Y-53408680D03*
%TD*%
%TO.C,U530*%
X157291320Y-53408680D03*
%TD*%
%TO.C,U529*%
X156021320Y-53408680D03*
%TD*%
%TO.C,U528*%
X154751320Y-53408680D03*
%TD*%
%TO.C,U527*%
X186501320Y-86428680D03*
%TD*%
%TO.C,U526*%
X189041320Y-86428680D03*
%TD*%
%TO.C,U525*%
X187771320Y-85158680D03*
%TD*%
%TO.C,U524*%
X187771320Y-86428680D03*
%TD*%
%TO.C,U523*%
X189041320Y-85158680D03*
%TD*%
%TO.C,U522*%
X187771320Y-83888680D03*
%TD*%
%TO.C,U521*%
X189041320Y-83888680D03*
%TD*%
%TO.C,U520*%
X186501320Y-83888680D03*
%TD*%
%TO.C,U519*%
X190311320Y-85158680D03*
%TD*%
%TO.C,U518*%
X190311320Y-86428680D03*
%TD*%
%TO.C,U517*%
X190311320Y-83888680D03*
%TD*%
%TO.C,U516*%
X200471320Y-83888680D03*
%TD*%
%TO.C,U515*%
X200471320Y-87698680D03*
%TD*%
%TO.C,U514*%
X200471320Y-88968680D03*
%TD*%
%TO.C,U513*%
X185231320Y-83888680D03*
%TD*%
%TO.C,U512*%
X185231320Y-85158680D03*
%TD*%
%TO.C,U511*%
X186501320Y-85158680D03*
%TD*%
%TO.C,U509*%
X183961320Y-85158680D03*
%TD*%
%TO.C,U508*%
X183961320Y-86428680D03*
%TD*%
%TO.C,U507*%
X185231320Y-86428680D03*
%TD*%
%TO.C,U506*%
X183961320Y-83888680D03*
%TD*%
%TO.C,U505*%
X182691320Y-83888680D03*
%TD*%
%TO.C,U504*%
X182691320Y-85158680D03*
%TD*%
%TO.C,U503*%
X182691320Y-86428680D03*
%TD*%
%TO.C,U502*%
X200471320Y-80078680D03*
%TD*%
%TO.C,U501*%
X197931320Y-81348680D03*
%TD*%
%TO.C,U500*%
X190311320Y-82618680D03*
%TD*%
%TO.C,U499*%
X189041320Y-82618680D03*
%TD*%
%TO.C,U498*%
X186501320Y-82618680D03*
%TD*%
%TO.C,U497*%
X187771320Y-82618680D03*
%TD*%
%TO.C,U496*%
X185231320Y-82618680D03*
%TD*%
%TO.C,U494*%
X183961320Y-82618680D03*
%TD*%
%TO.C,U492*%
X182691320Y-82618680D03*
%TD*%
%TO.C,U491*%
X185231320Y-81348680D03*
%TD*%
%TO.C,U490*%
X183961320Y-81348680D03*
%TD*%
%TO.C,U489*%
X182691320Y-81348680D03*
%TD*%
%TO.C,U488*%
X197931320Y-78808680D03*
%TD*%
%TO.C,U487*%
X187771320Y-81348680D03*
%TD*%
%TO.C,U486*%
X186501320Y-81348680D03*
%TD*%
%TO.C,U485*%
X189041320Y-81348680D03*
%TD*%
%TO.C,U484*%
X190311320Y-81348680D03*
%TD*%
%TO.C,U483*%
X185231320Y-80078680D03*
%TD*%
%TO.C,U482*%
X183961320Y-80078680D03*
%TD*%
%TO.C,U481*%
X186501320Y-80078680D03*
%TD*%
%TO.C,U480*%
X187771320Y-80078680D03*
%TD*%
%TO.C,U479*%
X189041320Y-80078680D03*
%TD*%
%TO.C,U478*%
X190311320Y-80078680D03*
%TD*%
%TO.C,U477*%
X187771320Y-78808680D03*
%TD*%
%TO.C,U476*%
X190311320Y-78808680D03*
%TD*%
%TO.C,U475*%
X189041320Y-78808680D03*
%TD*%
%TO.C,U474*%
X186501320Y-78808680D03*
%TD*%
%TO.C,U473*%
X185231320Y-78808680D03*
%TD*%
%TO.C,U472*%
X182691320Y-80078680D03*
%TD*%
%TO.C,U471*%
X183961320Y-78808680D03*
%TD*%
%TO.C,U470*%
X181421320Y-85158680D03*
%TD*%
%TO.C,U469*%
X181421320Y-83888680D03*
%TD*%
%TO.C,U467*%
X181421320Y-82618680D03*
%TD*%
%TO.C,U466*%
X181421320Y-81348680D03*
%TD*%
%TO.C,U465*%
X180151320Y-83888680D03*
%TD*%
%TO.C,U463*%
X180151320Y-82618680D03*
%TD*%
%TO.C,U462*%
X180151320Y-81348680D03*
%TD*%
%TO.C,U461*%
X178881320Y-81348680D03*
%TD*%
%TO.C,U460*%
X181421320Y-80078680D03*
%TD*%
%TO.C,U459*%
X182691320Y-78808680D03*
%TD*%
%TO.C,U458*%
X185231320Y-77538680D03*
%TD*%
%TO.C,U457*%
X186501320Y-77538680D03*
%TD*%
%TO.C,U456*%
X187771320Y-77538680D03*
%TD*%
%TO.C,U455*%
X183961320Y-77538680D03*
%TD*%
%TO.C,U454*%
X180151320Y-80078680D03*
%TD*%
%TO.C,U453*%
X181421320Y-78808680D03*
%TD*%
%TO.C,U452*%
X182691320Y-77538680D03*
%TD*%
%TO.C,U451*%
X181421320Y-77538680D03*
%TD*%
%TO.C,U450*%
X180151320Y-78808680D03*
%TD*%
%TO.C,U449*%
X180151320Y-77538680D03*
%TD*%
%TO.C,U448*%
X178881320Y-80078680D03*
%TD*%
%TO.C,U447*%
X178881320Y-78808680D03*
%TD*%
%TO.C,U446*%
X178881320Y-77538680D03*
%TD*%
%TO.C,U445*%
X181421320Y-76268680D03*
%TD*%
%TO.C,U444*%
X178881320Y-76268680D03*
%TD*%
%TO.C,U443*%
X180151320Y-76268680D03*
%TD*%
%TO.C,U442*%
X182691320Y-76268680D03*
%TD*%
%TO.C,U441*%
X183961320Y-76268680D03*
%TD*%
%TO.C,U440*%
X185231320Y-76268680D03*
%TD*%
%TO.C,U439*%
X186501320Y-76268680D03*
%TD*%
%TO.C,U438*%
X187771320Y-76268680D03*
%TD*%
%TO.C,U437*%
X189041320Y-77538680D03*
%TD*%
%TO.C,U436*%
X189041320Y-76268680D03*
%TD*%
%TO.C,U435*%
X190311320Y-77538680D03*
%TD*%
%TO.C,U434*%
X190311320Y-76268680D03*
%TD*%
%TO.C,U433*%
X191581320Y-85158680D03*
%TD*%
%TO.C,U432*%
X191581320Y-86428680D03*
%TD*%
%TO.C,U431*%
X192851320Y-85158680D03*
%TD*%
%TO.C,U430*%
X192851320Y-86428680D03*
%TD*%
%TO.C,U429*%
X191581320Y-83888680D03*
%TD*%
%TO.C,U428*%
X192851320Y-83888680D03*
%TD*%
%TO.C,U427*%
X194121320Y-86428680D03*
%TD*%
%TO.C,U426*%
X194121320Y-85158680D03*
%TD*%
%TO.C,U425*%
X195391320Y-86428680D03*
%TD*%
%TO.C,U424*%
X195391320Y-85158680D03*
%TD*%
%TO.C,U423*%
X200471320Y-72458680D03*
%TD*%
%TO.C,U422*%
X200471320Y-76268680D03*
%TD*%
%TO.C,U421*%
X191581320Y-82618680D03*
%TD*%
%TO.C,U420*%
X192851320Y-82618680D03*
%TD*%
%TO.C,U419*%
X191581320Y-76268680D03*
%TD*%
%TO.C,U418*%
X191581320Y-77538680D03*
%TD*%
%TO.C,U417*%
X191581320Y-81348680D03*
%TD*%
%TO.C,U416*%
X199201320Y-80078680D03*
%TD*%
%TO.C,U415*%
X191581320Y-80078680D03*
%TD*%
%TO.C,U414*%
X192851320Y-80078680D03*
%TD*%
%TO.C,U413*%
X191581320Y-78808680D03*
%TD*%
%TO.C,U412*%
X192851320Y-78808680D03*
%TD*%
%TO.C,U411*%
X192851320Y-77538680D03*
%TD*%
%TO.C,U410*%
X192851320Y-76268680D03*
%TD*%
%TO.C,U409*%
X194121320Y-83888680D03*
%TD*%
%TO.C,U408*%
X195391320Y-83888680D03*
%TD*%
%TO.C,U407*%
X196661320Y-86428680D03*
%TD*%
%TO.C,U406*%
X197931320Y-86428680D03*
%TD*%
%TO.C,U405*%
X196661320Y-85158680D03*
%TD*%
%TO.C,U404*%
X197931320Y-85158680D03*
%TD*%
%TO.C,U403*%
X196661320Y-83888680D03*
%TD*%
%TO.C,U402*%
X197931320Y-83888680D03*
%TD*%
%TO.C,U401*%
X200471320Y-61028680D03*
%TD*%
%TO.C,U400*%
X200471320Y-64838680D03*
%TD*%
%TO.C,U399*%
X200471320Y-68648680D03*
%TD*%
%TO.C,U398*%
X195391320Y-82618680D03*
%TD*%
%TO.C,U397*%
X194121320Y-82618680D03*
%TD*%
%TO.C,U396*%
X195391320Y-81348680D03*
%TD*%
%TO.C,U395*%
X194121320Y-81348680D03*
%TD*%
%TO.C,U394*%
X194121320Y-80078680D03*
%TD*%
%TO.C,U393*%
X194121320Y-78808680D03*
%TD*%
%TO.C,U392*%
X195391320Y-80078680D03*
%TD*%
%TO.C,U391*%
X195391320Y-78808680D03*
%TD*%
%TO.C,U390*%
X200471320Y-57218680D03*
%TD*%
%TO.C,U389*%
X196661320Y-80078680D03*
%TD*%
%TO.C,U388*%
X196661320Y-78808680D03*
%TD*%
%TO.C,U387*%
X196661320Y-82618680D03*
%TD*%
%TO.C,U386*%
X196661320Y-81348680D03*
%TD*%
%TO.C,U385*%
X197931320Y-82618680D03*
%TD*%
%TO.C,U384*%
X197931320Y-80078680D03*
%TD*%
%TO.C,U383*%
X199201320Y-85158680D03*
%TD*%
%TO.C,U382*%
X199201320Y-83888680D03*
%TD*%
%TO.C,U381*%
X200471320Y-53408680D03*
%TD*%
%TO.C,U380*%
X199201320Y-82618680D03*
%TD*%
%TO.C,U379*%
X199201320Y-81348680D03*
%TD*%
%TO.C,U378*%
X192851320Y-81348680D03*
%TD*%
%TO.C,U377*%
X199201320Y-78808680D03*
%TD*%
%TO.C,U376*%
X194121320Y-77538680D03*
%TD*%
%TO.C,U375*%
X194121320Y-76268680D03*
%TD*%
%TO.C,U374*%
X195391320Y-77538680D03*
%TD*%
%TO.C,U373*%
X195391320Y-76268680D03*
%TD*%
%TO.C,U372*%
X196661320Y-77538680D03*
%TD*%
%TO.C,U371*%
X196661320Y-76268680D03*
%TD*%
%TO.C,U370*%
X197931320Y-77538680D03*
%TD*%
%TO.C,U369*%
X197931320Y-76268680D03*
%TD*%
%TO.C,U368*%
X199201320Y-77538680D03*
%TD*%
%TO.C,U367*%
X199201320Y-76268680D03*
%TD*%
%TO.C,U366*%
X199201320Y-86428680D03*
%TD*%
%TO.C,U365*%
X181421320Y-86428680D03*
%TD*%
%TO.C,U364*%
X178881320Y-82618680D03*
%TD*%
%TO.C,U362*%
X180151320Y-85158680D03*
%TD*%
%TO.C,U361*%
X178881320Y-83888680D03*
%TD*%
%TO.C,U360*%
X180151320Y-86428680D03*
%TD*%
%TO.C,U359*%
X178881320Y-85158680D03*
%TD*%
%TO.C,U358*%
X178881320Y-86428680D03*
%TD*%
%TO.C,U357*%
X177611320Y-76268680D03*
%TD*%
%TO.C,U356*%
X176341320Y-76268680D03*
%TD*%
%TO.C,U355*%
X177611320Y-77538680D03*
%TD*%
%TO.C,U354*%
X176341320Y-77538680D03*
%TD*%
%TO.C,U353*%
X177611320Y-78808680D03*
%TD*%
%TO.C,U352*%
X176341320Y-78808680D03*
%TD*%
%TO.C,U351*%
X177611320Y-80078680D03*
%TD*%
%TO.C,U350*%
X176341320Y-80078680D03*
%TD*%
%TO.C,U349*%
X177611320Y-81348680D03*
%TD*%
%TO.C,U348*%
X176341320Y-81348680D03*
%TD*%
%TO.C,U347*%
X177611320Y-82618680D03*
%TD*%
%TO.C,U346*%
X175071320Y-82618680D03*
%TD*%
%TO.C,U343*%
X177611320Y-83888680D03*
%TD*%
%TO.C,U342*%
X176341320Y-83888680D03*
%TD*%
%TO.C,U341*%
X177611320Y-85158680D03*
%TD*%
%TO.C,U340*%
X176341320Y-85158680D03*
%TD*%
%TO.C,U339*%
X177611320Y-86428680D03*
%TD*%
%TO.C,U338*%
X176341320Y-86428680D03*
%TD*%
%TO.C,U337*%
X175071320Y-76268680D03*
%TD*%
%TO.C,U336*%
X175071320Y-77538680D03*
%TD*%
%TO.C,U335*%
X175071320Y-78808680D03*
%TD*%
%TO.C,U334*%
X175071320Y-80078680D03*
%TD*%
%TO.C,U333*%
X166181320Y-80078680D03*
%TD*%
%TO.C,U332*%
X175071320Y-81348680D03*
%TD*%
%TO.C,U331*%
X176341320Y-82618680D03*
%TD*%
%TO.C,U329*%
X175071320Y-83888680D03*
%TD*%
%TO.C,U328*%
X175071320Y-86428680D03*
%TD*%
%TO.C,U327*%
X175071320Y-85158680D03*
%TD*%
%TO.C,U326*%
X173801320Y-76268680D03*
%TD*%
%TO.C,U325*%
X173801320Y-77538680D03*
%TD*%
%TO.C,U324*%
X173801320Y-78808680D03*
%TD*%
%TO.C,U323*%
X173801320Y-80078680D03*
%TD*%
%TO.C,U322*%
X173801320Y-81348680D03*
%TD*%
%TO.C,U321*%
X173801320Y-82618680D03*
%TD*%
%TO.C,U319*%
X173801320Y-83888680D03*
%TD*%
%TO.C,U318*%
X173801320Y-85158680D03*
%TD*%
%TO.C,U317*%
X173801320Y-86428680D03*
%TD*%
%TO.C,U316*%
X172531320Y-86428680D03*
%TD*%
%TO.C,U315*%
X172531320Y-85158680D03*
%TD*%
%TO.C,U314*%
X172531320Y-83888680D03*
%TD*%
%TO.C,U312*%
X172531320Y-82618680D03*
%TD*%
%TO.C,U311*%
X172531320Y-81348680D03*
%TD*%
%TO.C,U310*%
X172531320Y-80078680D03*
%TD*%
%TO.C,U309*%
X172531320Y-78808680D03*
%TD*%
%TO.C,U308*%
X172531320Y-77538680D03*
%TD*%
%TO.C,U307*%
X172531320Y-76268680D03*
%TD*%
%TO.C,U306*%
X171261320Y-76268680D03*
%TD*%
%TO.C,U305*%
X171261320Y-77538680D03*
%TD*%
%TO.C,U304*%
X171261320Y-78808680D03*
%TD*%
%TO.C,U303*%
X171261320Y-80078680D03*
%TD*%
%TO.C,U302*%
X171261320Y-81348680D03*
%TD*%
%TO.C,U301*%
X171261320Y-82618680D03*
%TD*%
%TO.C,U299*%
X171261320Y-83888680D03*
%TD*%
%TO.C,U298*%
X171261320Y-85158680D03*
%TD*%
%TO.C,U297*%
X171261320Y-86428680D03*
%TD*%
%TO.C,U296*%
X169991320Y-86428680D03*
%TD*%
%TO.C,U295*%
X169991320Y-85158680D03*
%TD*%
%TO.C,U294*%
X169991320Y-83888680D03*
%TD*%
%TO.C,U292*%
X169991320Y-82618680D03*
%TD*%
%TO.C,U291*%
X169991320Y-81348680D03*
%TD*%
%TO.C,U290*%
X169991320Y-80078680D03*
%TD*%
%TO.C,U289*%
X169991320Y-78808680D03*
%TD*%
%TO.C,U288*%
X169991320Y-77538680D03*
%TD*%
%TO.C,U287*%
X169991320Y-76268680D03*
%TD*%
%TO.C,U286*%
X168721320Y-78808680D03*
%TD*%
%TO.C,U285*%
X168721320Y-77538680D03*
%TD*%
%TO.C,U284*%
X168721320Y-76268680D03*
%TD*%
%TO.C,U283*%
X168721320Y-80078680D03*
%TD*%
%TO.C,U282*%
X168721320Y-81348680D03*
%TD*%
%TO.C,U281*%
X168721320Y-82618680D03*
%TD*%
%TO.C,U279*%
X168721320Y-83888680D03*
%TD*%
%TO.C,U278*%
X168721320Y-85158680D03*
%TD*%
%TO.C,U277*%
X168721320Y-86428680D03*
%TD*%
%TO.C,U276*%
X167451320Y-78808680D03*
%TD*%
%TO.C,U275*%
X167451320Y-77538680D03*
%TD*%
%TO.C,U274*%
X167451320Y-76268680D03*
%TD*%
%TO.C,U273*%
X167451320Y-83888680D03*
%TD*%
%TO.C,U271*%
X167451320Y-82618680D03*
%TD*%
%TO.C,U270*%
X167451320Y-81348680D03*
%TD*%
%TO.C,U269*%
X167451320Y-85158680D03*
%TD*%
%TO.C,U268*%
X167451320Y-86428680D03*
%TD*%
%TO.C,U267*%
X164911320Y-86428680D03*
%TD*%
%TO.C,U266*%
X166181320Y-86428680D03*
%TD*%
%TO.C,U265*%
X164911320Y-85158680D03*
%TD*%
%TO.C,U264*%
X166181320Y-85158680D03*
%TD*%
%TO.C,U263*%
X164911320Y-83888680D03*
%TD*%
%TO.C,U262*%
X166181320Y-83888680D03*
%TD*%
%TO.C,U259*%
X166181320Y-82618680D03*
%TD*%
%TO.C,U258*%
X164911320Y-82618680D03*
%TD*%
%TO.C,U257*%
X163641320Y-86428680D03*
%TD*%
%TO.C,U256*%
X163641320Y-85158680D03*
%TD*%
%TO.C,U255*%
X163641320Y-83888680D03*
%TD*%
%TO.C,U253*%
X166181320Y-78808680D03*
%TD*%
%TO.C,U252*%
X166181320Y-77538680D03*
%TD*%
%TO.C,U251*%
X166181320Y-76268680D03*
%TD*%
%TO.C,U250*%
X164911320Y-76268680D03*
%TD*%
%TO.C,U249*%
X163641320Y-78808680D03*
%TD*%
%TO.C,U248*%
X163641320Y-77538680D03*
%TD*%
%TO.C,U247*%
X163641320Y-76268680D03*
%TD*%
%TO.C,U246*%
X163641320Y-81348680D03*
%TD*%
%TO.C,U245*%
X162371320Y-80078680D03*
%TD*%
%TO.C,U244*%
X162371320Y-81348680D03*
%TD*%
%TO.C,U243*%
X162371320Y-82618680D03*
%TD*%
%TO.C,U242*%
X161101320Y-82618680D03*
%TD*%
%TO.C,U241*%
X161101320Y-83888680D03*
%TD*%
%TO.C,U240*%
X163641320Y-80078680D03*
%TD*%
%TO.C,U239*%
X163641320Y-82618680D03*
%TD*%
%TO.C,U238*%
X161101320Y-80078680D03*
%TD*%
%TO.C,U237*%
X161101320Y-78808680D03*
%TD*%
%TO.C,U236*%
X161101320Y-77538680D03*
%TD*%
%TO.C,U235*%
X161101320Y-76268680D03*
%TD*%
%TO.C,U234*%
X162371320Y-76268680D03*
%TD*%
%TO.C,U233*%
X164911320Y-78808680D03*
%TD*%
%TO.C,U232*%
X164911320Y-80078680D03*
%TD*%
%TO.C,U231*%
X161101320Y-81348680D03*
%TD*%
%TO.C,U230*%
X162371320Y-78808680D03*
%TD*%
%TO.C,U229*%
X164911320Y-77538680D03*
%TD*%
%TO.C,U228*%
X162371320Y-77538680D03*
%TD*%
%TO.C,U227*%
X166181320Y-81348680D03*
%TD*%
%TO.C,U226*%
X164911320Y-81348680D03*
%TD*%
%TO.C,U225*%
X167451320Y-80078680D03*
%TD*%
%TO.C,U223*%
X162371320Y-85158680D03*
%TD*%
%TO.C,U222*%
X162371320Y-83888680D03*
%TD*%
%TO.C,U220*%
X161101320Y-85158680D03*
%TD*%
%TO.C,U219*%
X162371320Y-86428680D03*
%TD*%
%TO.C,U218*%
X161101320Y-86428680D03*
%TD*%
%TO.C,U217*%
X159831320Y-86428680D03*
%TD*%
%TO.C,U216*%
X159831320Y-85158680D03*
%TD*%
%TO.C,U215*%
X159831320Y-83888680D03*
%TD*%
%TO.C,U213*%
X159831320Y-82618680D03*
%TD*%
%TO.C,U212*%
X159831320Y-81348680D03*
%TD*%
%TO.C,U211*%
X159831320Y-80078680D03*
%TD*%
%TO.C,U210*%
X159831320Y-78808680D03*
%TD*%
%TO.C,U209*%
X159831320Y-77538680D03*
%TD*%
%TO.C,U208*%
X159831320Y-76268680D03*
%TD*%
%TO.C,U207*%
X158561320Y-82618680D03*
%TD*%
%TO.C,U206*%
X158561320Y-81348680D03*
%TD*%
%TO.C,U204*%
X158561320Y-83888680D03*
%TD*%
%TO.C,U203*%
X158561320Y-85158680D03*
%TD*%
%TO.C,U202*%
X158561320Y-86428680D03*
%TD*%
%TO.C,U201*%
X158561320Y-80078680D03*
%TD*%
%TO.C,U200*%
X158561320Y-78808680D03*
%TD*%
%TO.C,U199*%
X157291320Y-80078680D03*
%TD*%
%TO.C,U198*%
X157291320Y-78808680D03*
%TD*%
%TO.C,U197*%
X157291320Y-81348680D03*
%TD*%
%TO.C,U196*%
X157291320Y-82618680D03*
%TD*%
%TO.C,U194*%
X157291320Y-83888680D03*
%TD*%
%TO.C,U193*%
X157291320Y-85158680D03*
%TD*%
%TO.C,U192*%
X157291320Y-86428680D03*
%TD*%
%TO.C,U191*%
X156021320Y-86428680D03*
%TD*%
%TO.C,U190*%
X156021320Y-85158680D03*
%TD*%
%TO.C,U189*%
X156021320Y-83888680D03*
%TD*%
%TO.C,U187*%
X156021320Y-82618680D03*
%TD*%
%TO.C,U186*%
X156021320Y-81348680D03*
%TD*%
%TO.C,U185*%
X156021320Y-80078680D03*
%TD*%
%TO.C,U184*%
X156021320Y-78808680D03*
%TD*%
%TO.C,U183*%
X154751320Y-86428680D03*
%TD*%
%TO.C,U182*%
X154751320Y-85158680D03*
%TD*%
%TO.C,U181*%
X154751320Y-83888680D03*
%TD*%
%TO.C,U179*%
X154751320Y-82618680D03*
%TD*%
%TO.C,U178*%
X154751320Y-81348680D03*
%TD*%
%TO.C,U177*%
X154751320Y-80078680D03*
%TD*%
%TO.C,U176*%
X154751320Y-78808680D03*
%TD*%
%TO.C,U175*%
X158561320Y-77538680D03*
%TD*%
%TO.C,U174*%
X158561320Y-76268680D03*
%TD*%
%TO.C,U173*%
X157291320Y-77538680D03*
%TD*%
%TO.C,U172*%
X156021320Y-77538680D03*
%TD*%
%TO.C,U171*%
X157291320Y-76268680D03*
%TD*%
%TO.C,U170*%
X156021320Y-76268680D03*
%TD*%
%TO.C,U169*%
X154751320Y-77538680D03*
%TD*%
D12*
%TO.C,H4*%
X199201320Y-47058680D03*
%TD*%
%TO.C,H3*%
X156021320Y-47058680D03*
%TD*%
%TO.C,H2*%
X199201320Y-91508680D03*
%TD*%
%TO.C,H1*%
X156021320Y-91508680D03*
%TD*%
D13*
%TO.C,U23*%
X196661320Y-73728680D03*
X197931320Y-73728680D03*
X199201320Y-73728680D03*
X199201320Y-66108680D03*
X197931320Y-66108680D03*
X196661320Y-66108680D03*
%TD*%
%TO.C,U5*%
X162371320Y-73728680D03*
X163641320Y-73728680D03*
X164911320Y-73728680D03*
X164911320Y-66108680D03*
X163641320Y-66108680D03*
X162371320Y-66108680D03*
%TD*%
%TO.C,U21*%
X192851320Y-73728680D03*
X194121320Y-73728680D03*
X195391320Y-73728680D03*
X195391320Y-66108680D03*
X194121320Y-66108680D03*
X192851320Y-66108680D03*
%TD*%
%TO.C,U19*%
X189041320Y-73728680D03*
X190311320Y-73728680D03*
X191581320Y-73728680D03*
X191581320Y-66108680D03*
X190311320Y-66108680D03*
X189041320Y-66108680D03*
%TD*%
%TO.C,U7*%
X166181320Y-73728680D03*
X167451320Y-73728680D03*
X168721320Y-73728680D03*
X168721320Y-66108680D03*
X167451320Y-66108680D03*
X166181320Y-66108680D03*
%TD*%
%TO.C,U17*%
X185231320Y-73728680D03*
X186501320Y-73728680D03*
X187771320Y-73728680D03*
X187771320Y-66108680D03*
X186501320Y-66108680D03*
X185231320Y-66108680D03*
%TD*%
%TO.C,U15*%
X181421320Y-73728680D03*
X182691320Y-73728680D03*
X183961320Y-73728680D03*
X183961320Y-66108680D03*
X182691320Y-66108680D03*
X181421320Y-66108680D03*
%TD*%
%TO.C,U3*%
X158561320Y-73728680D03*
X159831320Y-73728680D03*
X161101320Y-73728680D03*
X161101320Y-66108680D03*
X159831320Y-66108680D03*
X158561320Y-66108680D03*
%TD*%
%TO.C,U13*%
X177611320Y-73728680D03*
X178881320Y-73728680D03*
X180151320Y-73728680D03*
X180151320Y-66108680D03*
X178881320Y-66108680D03*
X177611320Y-66108680D03*
%TD*%
%TO.C,U9*%
X169991320Y-73728680D03*
X171261320Y-73728680D03*
X172531320Y-73728680D03*
X172531320Y-66108680D03*
X171261320Y-66108680D03*
X169991320Y-66108680D03*
%TD*%
%TO.C,U11*%
X173801320Y-73728680D03*
X175071320Y-73728680D03*
X176341320Y-73728680D03*
X176341320Y-66108680D03*
X175071320Y-66108680D03*
X173801320Y-66108680D03*
%TD*%
%TO.C,U1*%
X154751320Y-73728680D03*
X156021320Y-73728680D03*
X157291320Y-73728680D03*
X157291320Y-66108680D03*
X156021320Y-66108680D03*
X154751320Y-66108680D03*
%TD*%
D11*
%TO.C,U58*%
X176341320Y-87698680D03*
%TD*%
%TO.C,U50*%
X168721320Y-87698680D03*
%TD*%
%TO.C,U52*%
X157291320Y-87698680D03*
%TD*%
%TO.C,U53*%
X158561320Y-87698680D03*
%TD*%
%TO.C,U54*%
X180151320Y-87698680D03*
%TD*%
%TO.C,U55*%
X181421320Y-87698680D03*
%TD*%
%TO.C,U56*%
X182691320Y-87698680D03*
%TD*%
%TO.C,U57*%
X183961320Y-87698680D03*
%TD*%
%TO.C,U49*%
X185231320Y-87698680D03*
%TD*%
%TO.C,U59*%
X186501320Y-87698680D03*
%TD*%
%TO.C,U60*%
X190311320Y-87698680D03*
%TD*%
%TO.C,U61*%
X159831320Y-87698680D03*
%TD*%
%TO.C,U62*%
X162371320Y-87698680D03*
%TD*%
%TO.C,U63*%
X163641320Y-87698680D03*
%TD*%
%TO.C,U64*%
X164911320Y-87698680D03*
%TD*%
%TO.C,U65*%
X166181320Y-87698680D03*
%TD*%
%TO.C,U40*%
X167451320Y-87698680D03*
%TD*%
%TO.C,U32*%
X169991320Y-87698680D03*
%TD*%
%TO.C,U33*%
X171261320Y-87698680D03*
%TD*%
%TO.C,U34*%
X172531320Y-87698680D03*
%TD*%
%TO.C,U35*%
X173801320Y-87698680D03*
%TD*%
%TO.C,U36*%
X175071320Y-87698680D03*
%TD*%
%TO.C,U37*%
X191581320Y-87698680D03*
%TD*%
%TO.C,U38*%
X194121320Y-87698680D03*
%TD*%
%TO.C,U39*%
X195391320Y-87698680D03*
%TD*%
%TO.C,U31*%
X197931320Y-87698680D03*
%TD*%
%TO.C,U41*%
X199201320Y-87698680D03*
%TD*%
%TO.C,U42*%
X196661320Y-87698680D03*
%TD*%
%TO.C,U43*%
X192851320Y-87698680D03*
%TD*%
%TO.C,U44*%
X189041320Y-87698680D03*
%TD*%
%TO.C,U45*%
X187771320Y-87698680D03*
%TD*%
%TO.C,U46*%
X178881320Y-87698680D03*
%TD*%
%TO.C,U47*%
X177611320Y-87698680D03*
%TD*%
%TO.C,U48*%
X161101320Y-87698680D03*
%TD*%
%TO.C,U74*%
X156021320Y-88968680D03*
%TD*%
%TO.C,U83*%
X157291320Y-88968680D03*
%TD*%
%TO.C,U81*%
X159831320Y-88968680D03*
%TD*%
%TO.C,U80*%
X161101320Y-88968680D03*
%TD*%
%TO.C,U79*%
X162371320Y-88968680D03*
%TD*%
%TO.C,U78*%
X163641320Y-88968680D03*
%TD*%
%TO.C,U77*%
X164911320Y-88968680D03*
%TD*%
%TO.C,U76*%
X172531320Y-88968680D03*
%TD*%
%TO.C,U75*%
X173801320Y-88968680D03*
%TD*%
%TO.C,U82*%
X175071320Y-88968680D03*
%TD*%
%TO.C,U73*%
X176341320Y-88968680D03*
%TD*%
%TO.C,U72*%
X177611320Y-88968680D03*
%TD*%
%TO.C,U71*%
X178881320Y-88968680D03*
%TD*%
%TO.C,U70*%
X181421320Y-88968680D03*
%TD*%
%TO.C,U69*%
X182691320Y-88968680D03*
%TD*%
%TO.C,U68*%
X183961320Y-88968680D03*
%TD*%
%TO.C,U67*%
X185231320Y-88968680D03*
%TD*%
%TO.C,U66*%
X186501320Y-88968680D03*
%TD*%
%TO.C,U92*%
X187771320Y-88968680D03*
%TD*%
%TO.C,U100*%
X189041320Y-88968680D03*
%TD*%
%TO.C,U99*%
X190311320Y-88968680D03*
%TD*%
%TO.C,U98*%
X191581320Y-88968680D03*
%TD*%
%TO.C,U97*%
X194121320Y-88968680D03*
%TD*%
%TO.C,U96*%
X195391320Y-88968680D03*
%TD*%
%TO.C,U95*%
X154751320Y-88968680D03*
%TD*%
%TO.C,U94*%
X199201320Y-88968680D03*
%TD*%
%TO.C,U93*%
X197931320Y-88968680D03*
%TD*%
%TO.C,U101*%
X196661320Y-88968680D03*
%TD*%
%TO.C,U91*%
X192851320Y-88968680D03*
%TD*%
%TO.C,U90*%
X180151320Y-88968680D03*
%TD*%
%TO.C,U89*%
X171261320Y-88968680D03*
%TD*%
%TO.C,U88*%
X169991320Y-88968680D03*
%TD*%
%TO.C,U87*%
X168721320Y-88968680D03*
%TD*%
%TO.C,U86*%
X167451320Y-88968680D03*
%TD*%
%TO.C,U85*%
X166181320Y-88968680D03*
%TD*%
%TO.C,U84*%
X158561320Y-88968680D03*
%TD*%
%TO.C,U141*%
X154751320Y-50868680D03*
%TD*%
%TO.C,U150*%
X156021320Y-50868680D03*
%TD*%
%TO.C,U149*%
X157291320Y-50868680D03*
%TD*%
%TO.C,U148*%
X158561320Y-50868680D03*
%TD*%
%TO.C,U147*%
X159831320Y-50868680D03*
%TD*%
%TO.C,U146*%
X161101320Y-50868680D03*
%TD*%
%TO.C,U145*%
X162371320Y-50868680D03*
%TD*%
%TO.C,U144*%
X163641320Y-50868680D03*
%TD*%
%TO.C,U143*%
X166181320Y-50868680D03*
%TD*%
%TO.C,U142*%
X164911320Y-50868680D03*
%TD*%
%TO.C,U151*%
X167451320Y-50868680D03*
%TD*%
%TO.C,U140*%
X168721320Y-50868680D03*
%TD*%
%TO.C,U139*%
X169991320Y-50868680D03*
%TD*%
%TO.C,U138*%
X171261320Y-50868680D03*
%TD*%
%TO.C,U137*%
X172531320Y-50868680D03*
%TD*%
%TO.C,U136*%
X173801320Y-50868680D03*
%TD*%
%TO.C,U135*%
X175071320Y-50868680D03*
%TD*%
%TO.C,U134*%
X176341320Y-50868680D03*
%TD*%
%TO.C,U133*%
X177611320Y-50868680D03*
%TD*%
%TO.C,U160*%
X178881320Y-50868680D03*
%TD*%
%TO.C,U168*%
X180151320Y-50868680D03*
%TD*%
%TO.C,U167*%
X181421320Y-50868680D03*
%TD*%
%TO.C,U166*%
X182691320Y-50868680D03*
%TD*%
%TO.C,U165*%
X183961320Y-50868680D03*
%TD*%
%TO.C,U164*%
X185231320Y-50868680D03*
%TD*%
%TO.C,U163*%
X186501320Y-50868680D03*
%TD*%
%TO.C,U162*%
X187771320Y-50868680D03*
%TD*%
%TO.C,U161*%
X189041320Y-50868680D03*
%TD*%
%TO.C,U132*%
X168721320Y-52138680D03*
%TD*%
%TO.C,U159*%
X190311320Y-50868680D03*
%TD*%
%TO.C,U158*%
X191581320Y-50868680D03*
%TD*%
%TO.C,U157*%
X192851320Y-50868680D03*
%TD*%
%TO.C,U156*%
X194121320Y-50868680D03*
%TD*%
%TO.C,U155*%
X195391320Y-50868680D03*
%TD*%
%TO.C,U154*%
X196661320Y-50868680D03*
%TD*%
%TO.C,U153*%
X197931320Y-50868680D03*
%TD*%
%TO.C,U152*%
X199201320Y-50868680D03*
%TD*%
%TO.C,U105*%
X181421320Y-52138680D03*
%TD*%
%TO.C,U113*%
X182691320Y-52138680D03*
%TD*%
%TO.C,U112*%
X185231320Y-52138680D03*
%TD*%
%TO.C,U111*%
X189041320Y-52138680D03*
%TD*%
%TO.C,U110*%
X190311320Y-52138680D03*
%TD*%
%TO.C,U109*%
X191581320Y-52138680D03*
%TD*%
%TO.C,U108*%
X192851320Y-52138680D03*
%TD*%
%TO.C,U107*%
X196661320Y-52138680D03*
%TD*%
%TO.C,U106*%
X199201320Y-52138680D03*
%TD*%
%TO.C,U114*%
X167451320Y-52138680D03*
%TD*%
%TO.C,U104*%
X197931320Y-52138680D03*
%TD*%
%TO.C,U103*%
X195391320Y-52138680D03*
%TD*%
%TO.C,U102*%
X194121320Y-52138680D03*
%TD*%
%TO.C,U29*%
X187771320Y-52138680D03*
%TD*%
%TO.C,U28*%
X186501320Y-52138680D03*
%TD*%
%TO.C,U27*%
X183961320Y-52138680D03*
%TD*%
%TO.C,U26*%
X180151320Y-52138680D03*
%TD*%
%TO.C,U25*%
X178881320Y-52138680D03*
%TD*%
%TO.C,U123*%
X177611320Y-52138680D03*
%TD*%
%TO.C,U131*%
X176341320Y-52138680D03*
%TD*%
%TO.C,U130*%
X175071320Y-52138680D03*
%TD*%
%TO.C,U129*%
X173801320Y-52138680D03*
%TD*%
%TO.C,U128*%
X172531320Y-52138680D03*
%TD*%
%TO.C,U127*%
X171261320Y-52138680D03*
%TD*%
%TO.C,U126*%
X169991320Y-52138680D03*
%TD*%
%TO.C,U125*%
X166181320Y-52138680D03*
%TD*%
%TO.C,U124*%
X164911320Y-52138680D03*
%TD*%
%TO.C,U122*%
X163641320Y-52138680D03*
%TD*%
%TO.C,U121*%
X162371320Y-52138680D03*
%TD*%
%TO.C,U120*%
X161101320Y-52138680D03*
%TD*%
%TO.C,U119*%
X159831320Y-52138680D03*
%TD*%
%TO.C,U118*%
X158561320Y-52138680D03*
%TD*%
%TO.C,U117*%
X157291320Y-52138680D03*
%TD*%
%TO.C,U116*%
X154751320Y-52138680D03*
%TD*%
%TO.C,U115*%
X156021320Y-52138680D03*
%TD*%
%TO.C,U1001*%
X154751320Y-76268680D03*
%TD*%
%TO.C,U30*%
X154751320Y-87698680D03*
%TD*%
%TO.C,U51*%
X156021320Y-87698680D03*
%TD*%
D10*
%TO.C,P34*%
X192851320Y-91508680D03*
%TD*%
%TO.C,P33*%
X190311320Y-91508680D03*
%TD*%
%TO.C,P3*%
X169991320Y-91508680D03*
%TD*%
%TO.C,P4*%
X167451320Y-91508680D03*
%TD*%
%TO.C,P5*%
X164911320Y-91508680D03*
%TD*%
%TO.C,P6*%
X162371320Y-91508680D03*
%TD*%
%TO.C,P7*%
X159831320Y-91508680D03*
%TD*%
%TO.C,P9*%
X172531320Y-91508680D03*
%TD*%
%TO.C,P10*%
X175071320Y-91508680D03*
%TD*%
%TO.C,P11*%
X177611320Y-91508680D03*
%TD*%
%TO.C,P12*%
X180151320Y-91508680D03*
%TD*%
%TO.C,P13*%
X182691320Y-91508680D03*
%TD*%
%TO.C,P14*%
X187771320Y-91508680D03*
%TD*%
%TO.C,P15*%
X185231320Y-91508680D03*
%TD*%
%TO.C,P18*%
X195391320Y-45788680D03*
%TD*%
%TO.C,P19*%
X192851320Y-45788680D03*
%TD*%
%TO.C,P20*%
X190311320Y-45788680D03*
%TD*%
%TO.C,P21*%
X187771320Y-45788680D03*
%TD*%
%TO.C,P22*%
X185231320Y-45788680D03*
%TD*%
%TO.C,P23*%
X182691320Y-45788680D03*
%TD*%
%TO.C,P24*%
X180151320Y-45788680D03*
%TD*%
%TO.C,P25*%
X177611320Y-45788680D03*
%TD*%
%TO.C,P26*%
X175071320Y-45788680D03*
%TD*%
%TO.C,P27*%
X172531320Y-45788680D03*
%TD*%
%TO.C,P28*%
X169991320Y-45788680D03*
%TD*%
%TO.C,P29*%
X167451320Y-45788680D03*
%TD*%
%TO.C,P30*%
X164911320Y-45788680D03*
%TD*%
%TO.C,P31*%
X162371320Y-45788680D03*
%TD*%
%TO.C,P32*%
X159831320Y-45788680D03*
%TD*%
D14*
%TO.C,U4*%
X158881360Y-71018500D03*
X159831320Y-71018500D03*
X160781280Y-71018500D03*
X160781280Y-68818860D03*
X159831320Y-68818860D03*
X158881360Y-68818860D03*
%TD*%
%TO.C,U6*%
X162691360Y-71018500D03*
X163641320Y-71018500D03*
X164591280Y-71018500D03*
X164591280Y-68818860D03*
X163641320Y-68818860D03*
X162691360Y-68818860D03*
%TD*%
%TO.C,U8*%
X166501360Y-71018500D03*
X167451320Y-71018500D03*
X168401280Y-71018500D03*
X168401280Y-68818860D03*
X167451320Y-68818860D03*
X166501360Y-68818860D03*
%TD*%
%TO.C,U10*%
X170311360Y-71018500D03*
X171261320Y-71018500D03*
X172211280Y-71018500D03*
X172211280Y-68818860D03*
X171261320Y-68818860D03*
X170311360Y-68818860D03*
%TD*%
%TO.C,U12*%
X174121360Y-71018500D03*
X175071320Y-71018500D03*
X176021280Y-71018500D03*
X176021280Y-68818860D03*
X175071320Y-68818860D03*
X174121360Y-68818860D03*
%TD*%
%TO.C,U16*%
X181741360Y-71018500D03*
X182691320Y-71018500D03*
X183641280Y-71018500D03*
X183641280Y-68818860D03*
X182691320Y-68818860D03*
X181741360Y-68818860D03*
%TD*%
%TO.C,U18*%
X185551360Y-71018500D03*
X186501320Y-71018500D03*
X187451280Y-71018500D03*
X187451280Y-68818860D03*
X186501320Y-68818860D03*
X185551360Y-68818860D03*
%TD*%
%TO.C,U20*%
X189361360Y-71018500D03*
X190311320Y-71018500D03*
X191261280Y-71018500D03*
X191261280Y-68818860D03*
X190311320Y-68818860D03*
X189361360Y-68818860D03*
%TD*%
%TO.C,U22*%
X193171360Y-71018500D03*
X194121320Y-71018500D03*
X195071280Y-71018500D03*
X195071280Y-68818860D03*
X194121320Y-68818860D03*
X193171360Y-68818860D03*
%TD*%
%TO.C,U24*%
X196981360Y-71018500D03*
X197931320Y-71018500D03*
X198881280Y-71018500D03*
X198881280Y-68818860D03*
X197931320Y-68818860D03*
X196981360Y-68818860D03*
%TD*%
%TO.C,U14*%
X177931360Y-71018500D03*
X178881320Y-71018500D03*
X179831280Y-71018500D03*
X179831280Y-68818860D03*
X178881320Y-68818860D03*
X177931360Y-68818860D03*
%TD*%
%TO.C,U2*%
X155071360Y-71018500D03*
X156021320Y-71018500D03*
X156971280Y-71018500D03*
X156971280Y-68818860D03*
X156021320Y-68818860D03*
X155071360Y-68818860D03*
%TD*%
D10*
%TO.C,P35*%
X195391320Y-91508680D03*
%TD*%
D15*
X152621320Y-90828680D02*
X152621320Y-46828680D01*
X202621320Y-90828680D02*
G75*
G02*
X199621320Y-93828720I-3000020J-20D01*
G01*
X155621320Y-93828680D02*
G75*
G02*
X152621320Y-90828680I-20J2999980D01*
G01*
X199621320Y-43828680D02*
G75*
G02*
X202621320Y-46828680I-20J-3000020D01*
G01*
X155621320Y-43828680D02*
X199621320Y-43828680D01*
X199621320Y-93828680D02*
X155621320Y-93828680D01*
X202621320Y-46828680D02*
X202621320Y-90828680D01*
X152621320Y-46828680D02*
G75*
G02*
X155621320Y-43828720I2999980J-20D01*
G01*
M02*
