G04 #@! TF.GenerationSoftware,KiCad,Pcbnew,9.0.1*
G04 #@! TF.CreationDate,2025-05-07T17:16:49-04:00*
G04 #@! TF.ProjectId,matrix-protoboard_18x24,6d617472-6978-42d7-9072-6f746f626f61,rev?*
G04 #@! TF.SameCoordinates,Original*
G04 #@! TF.FileFunction,Soldermask,Top*
G04 #@! TF.FilePolarity,Negative*
%FSLAX46Y46*%
G04 Gerber Fmt 4.6, Leading zero omitted, Abs format (unit mm)*
G04 Created by KiCad (PCBNEW 9.0.1) date 2025-05-07 17:16:49*
%MOMM*%
%LPD*%
G01*
G04 APERTURE LIST*
G04 Aperture macros list*
%AMFreePoly0*
4,1,77,0.076255,0.950392,0.076609,0.950246,0.141775,0.906775,0.408050,0.640500,0.550000,0.640500,0.626255,0.625392,0.626609,0.625246,0.699279,0.573850,0.735246,0.516609,0.735392,0.516255,0.750168,0.428482,0.735392,0.363745,0.735246,0.363391,0.691775,0.298225,0.550500,0.156950,0.550500,-0.276950,0.691775,-0.418225,0.735246,-0.483391,0.735392,-0.483745,0.750168,-0.571518,
0.735392,-0.636255,0.735246,-0.636609,0.683850,-0.709279,0.626609,-0.745246,0.626255,-0.745392,0.550000,-0.760500,0.538500,-0.760500,0.538500,-0.763000,0.523392,-0.839255,0.523246,-0.839609,0.471850,-0.912279,0.414609,-0.948246,0.414255,-0.948392,0.326482,-0.963168,0.261745,-0.948392,0.261391,-0.948246,0.196225,-0.904775,-0.005000,-0.703550,-0.206225,-0.904775,-0.271391,-0.948246,
-0.271745,-0.948392,-0.359518,-0.963168,-0.424255,-0.948392,-0.424609,-0.948246,-0.497279,-0.896850,-0.533246,-0.839609,-0.533392,-0.839255,-0.548500,-0.763000,-0.548500,-0.760500,-0.550000,-0.760500,-0.626255,-0.745392,-0.626609,-0.745246,-0.699279,-0.693850,-0.735246,-0.636609,-0.735392,-0.636255,-0.750168,-0.548482,-0.735392,-0.483745,-0.735246,-0.483391,-0.691775,-0.418225,-0.550500,-0.276950,
-0.550500,0.156950,-0.691775,0.298225,-0.735246,0.363391,-0.735392,0.363745,-0.750168,0.451518,-0.735392,0.516255,-0.735246,0.516609,-0.683850,0.589279,-0.626609,0.625246,-0.626255,0.625392,-0.550000,0.640500,-0.408050,0.640500,-0.141775,0.906775,-0.076609,0.950246,-0.076255,0.950392,0.011518,0.965168,0.076255,0.950392,0.076255,0.950392,$1*%
%AMFreePoly1*
4,1,58,0.136255,0.745392,0.136609,0.745246,0.201775,0.701775,0.440050,0.463500,0.583000,0.463500,0.659255,0.448392,0.659609,0.448246,0.732279,0.396850,0.768246,0.339609,0.768392,0.339255,0.783168,0.251482,0.768392,0.186745,0.768246,0.186391,0.724775,0.121225,0.518550,-0.085000,0.723775,-0.290225,0.767246,-0.355391,0.767392,-0.355745,0.782168,-0.443518,0.767392,-0.508255,
0.767246,-0.508609,0.715850,-0.581279,0.658609,-0.617246,0.658255,-0.617392,0.603283,-0.628283,0.592392,-0.683255,0.592246,-0.683609,0.540850,-0.756279,0.483609,-0.792246,0.483255,-0.792392,0.395482,-0.807168,0.330745,-0.792392,0.330391,-0.792246,0.265225,-0.748775,0.060000,-0.543550,-0.146225,-0.749775,-0.211391,-0.793246,-0.211745,-0.793392,-0.299518,-0.808168,-0.364255,-0.793392,
-0.364609,-0.793246,-0.437279,-0.741850,-0.473246,-0.684609,-0.473392,-0.684255,-0.488500,-0.608000,-0.488500,-0.465050,-0.726775,-0.226775,-0.770246,-0.161609,-0.770392,-0.161255,-0.785168,-0.073482,-0.770392,-0.008745,-0.770246,-0.008391,-0.726775,0.056775,-0.081775,0.701775,-0.016609,0.745246,-0.016255,0.745392,0.071518,0.760168,0.136255,0.745392,0.136255,0.745392,$1*%
G04 Aperture macros list end*
%ADD10FreePoly0,90.000000*%
%ADD11O,3.448000X1.924000*%
%ADD12FreePoly1,0.000000*%
%ADD13FreePoly0,0.000000*%
%ADD14C,1.800000*%
%ADD15C,2.600000*%
G04 APERTURE END LIST*
D10*
X106520000Y-87720000D03*
D11*
X145442000Y-99140000D03*
D12*
X87470000Y-95255000D03*
X110330000Y-102875000D03*
D13*
X125630000Y-86390000D03*
D14*
X111660000Y-83910000D03*
D10*
X142080000Y-105500000D03*
D13*
X110390000Y-78770000D03*
X115470000Y-106710000D03*
X105310000Y-96550000D03*
D12*
X125570000Y-72395000D03*
D14*
X121820000Y-96610000D03*
D13*
X87530000Y-99090000D03*
X84990000Y-96550000D03*
X112930000Y-83850000D03*
D14*
X91340000Y-71210000D03*
D12*
X128110000Y-100335000D03*
D14*
X106580000Y-81370000D03*
D13*
X92610000Y-106710000D03*
D14*
X98960000Y-83910000D03*
D12*
X123030000Y-87635000D03*
D10*
X86200000Y-69940000D03*
X131920000Y-97880000D03*
D13*
X118010000Y-71150000D03*
D14*
X116740000Y-81370000D03*
D13*
X135790000Y-78770000D03*
X87530000Y-109250000D03*
D14*
X96420000Y-83910000D03*
D12*
X97630000Y-77475000D03*
D10*
X134460000Y-87720000D03*
D13*
X120550000Y-111790000D03*
D10*
X101440000Y-108040000D03*
D13*
X95150000Y-101630000D03*
D14*
X134520000Y-94070000D03*
X111660000Y-86450000D03*
D10*
X86200000Y-75020000D03*
X91280000Y-69940000D03*
D12*
X120490000Y-82555000D03*
D13*
X123090000Y-81310000D03*
X115470000Y-109250000D03*
D10*
X114140000Y-102960000D03*
D13*
X92610000Y-83850000D03*
D14*
X137060000Y-88990000D03*
D13*
X105310000Y-94010000D03*
X87530000Y-73690000D03*
X102770000Y-78770000D03*
D14*
X83720000Y-96610000D03*
D10*
X131920000Y-75020000D03*
D13*
X97690000Y-76230000D03*
D10*
X129380000Y-97880000D03*
D12*
X90010000Y-100335000D03*
D14*
X98960000Y-86450000D03*
D13*
X110390000Y-104170000D03*
D10*
X139540000Y-69940000D03*
D12*
X140810000Y-110495000D03*
D13*
X112930000Y-73690000D03*
X87530000Y-83850000D03*
D10*
X93820000Y-69940000D03*
D12*
X117950000Y-77475000D03*
D10*
X96360000Y-90260000D03*
D14*
X121820000Y-78830000D03*
D13*
X123090000Y-83850000D03*
X120550000Y-94010000D03*
D14*
X91340000Y-78830000D03*
D13*
X135790000Y-109250000D03*
D14*
X106580000Y-86450000D03*
D12*
X105250000Y-85095000D03*
D13*
X118010000Y-76230000D03*
D10*
X126840000Y-90260000D03*
D14*
X124360000Y-86450000D03*
X131980000Y-101690000D03*
D13*
X112930000Y-88930000D03*
X84990000Y-86390000D03*
D12*
X110330000Y-80015000D03*
D13*
X84990000Y-94010000D03*
D14*
X116740000Y-111850000D03*
X139600000Y-96610000D03*
X93880000Y-83910000D03*
D12*
X130650000Y-95255000D03*
D10*
X106520000Y-108040000D03*
D13*
X135790000Y-81310000D03*
D12*
X105250000Y-90175000D03*
X125570000Y-74935000D03*
D13*
X135790000Y-73690000D03*
D12*
X135730000Y-100335000D03*
D10*
X124300000Y-100420000D03*
X139540000Y-72480000D03*
D14*
X126900000Y-96610000D03*
X93880000Y-86450000D03*
D13*
X90070000Y-81310000D03*
D12*
X138270000Y-92715000D03*
D13*
X118010000Y-81310000D03*
D14*
X124360000Y-83910000D03*
X137060000Y-73750000D03*
D13*
X128170000Y-111790000D03*
D14*
X101500000Y-104230000D03*
D10*
X124300000Y-82640000D03*
D14*
X134520000Y-96610000D03*
D13*
X84990000Y-99090000D03*
X120550000Y-104170000D03*
D10*
X111600000Y-80100000D03*
D13*
X140870000Y-101630000D03*
D12*
X138270000Y-105415000D03*
D14*
X106580000Y-73750000D03*
D13*
X115470000Y-111790000D03*
D12*
X120490000Y-90175000D03*
D13*
X107850000Y-111790000D03*
D10*
X126840000Y-110580000D03*
D13*
X115470000Y-71150000D03*
D12*
X105250000Y-105415000D03*
D13*
X90070000Y-83850000D03*
X140870000Y-99090000D03*
D14*
X96420000Y-109310000D03*
D10*
X93820000Y-75020000D03*
X121760000Y-80100000D03*
X129380000Y-77560000D03*
D14*
X93880000Y-68670000D03*
X111660000Y-109310000D03*
D11*
X80418000Y-96600000D03*
D13*
X97690000Y-73690000D03*
D10*
X116680000Y-105500000D03*
D12*
X135730000Y-74935000D03*
D10*
X131920000Y-80100000D03*
D14*
X119280000Y-99150000D03*
D12*
X102710000Y-95255000D03*
D13*
X110390000Y-91470000D03*
D14*
X86260000Y-96610000D03*
D10*
X129380000Y-87720000D03*
D13*
X125630000Y-99090000D03*
X130710000Y-111790000D03*
D12*
X105250000Y-100335000D03*
D14*
X124360000Y-71210000D03*
D15*
X80500000Y-67850000D03*
D10*
X83660000Y-110580000D03*
X106520000Y-105500000D03*
X137000000Y-77560000D03*
D14*
X83720000Y-104230000D03*
X137060000Y-68670000D03*
D13*
X135790000Y-83850000D03*
D12*
X100170000Y-107955000D03*
D14*
X88800000Y-71210000D03*
X93880000Y-88990000D03*
D12*
X115410000Y-74935000D03*
D13*
X128170000Y-81310000D03*
D10*
X131920000Y-95340000D03*
D14*
X96420000Y-73750000D03*
D11*
X145442000Y-86440000D03*
D10*
X91280000Y-72480000D03*
D14*
X126900000Y-109310000D03*
X142140000Y-73750000D03*
D12*
X115410000Y-80015000D03*
D10*
X142080000Y-97880000D03*
X111600000Y-87720000D03*
D14*
X106580000Y-94070000D03*
D11*
X80418000Y-76280000D03*
D13*
X118010000Y-109250000D03*
D10*
X86200000Y-92800000D03*
D12*
X87470000Y-102875000D03*
D10*
X86200000Y-72480000D03*
X134460000Y-92800000D03*
D13*
X140870000Y-106710000D03*
X102770000Y-109250000D03*
X115470000Y-86390000D03*
D12*
X133190000Y-80015000D03*
D10*
X91280000Y-82640000D03*
D12*
X84930000Y-97795000D03*
D10*
X93820000Y-82640000D03*
D12*
X128110000Y-87635000D03*
D13*
X105310000Y-71150000D03*
D12*
X135730000Y-72395000D03*
D10*
X106520000Y-100420000D03*
D14*
X106580000Y-99150000D03*
X139600000Y-106770000D03*
X131980000Y-99150000D03*
D12*
X112870000Y-77475000D03*
D10*
X116680000Y-82640000D03*
D13*
X97690000Y-111790000D03*
X125630000Y-91470000D03*
D10*
X88740000Y-87720000D03*
D14*
X139600000Y-99150000D03*
D10*
X121760000Y-87720000D03*
D13*
X118010000Y-94010000D03*
D14*
X114200000Y-81370000D03*
D13*
X133250000Y-96550000D03*
D10*
X124300000Y-87720000D03*
D13*
X123090000Y-71150000D03*
D14*
X93880000Y-71210000D03*
D13*
X133250000Y-91470000D03*
X115470000Y-99090000D03*
D12*
X102710000Y-107955000D03*
D14*
X116740000Y-109310000D03*
D12*
X92550000Y-102875000D03*
D10*
X111600000Y-102960000D03*
D13*
X140870000Y-78770000D03*
D14*
X91340000Y-99150000D03*
D13*
X120550000Y-71150000D03*
D14*
X129440000Y-99150000D03*
X104040000Y-71210000D03*
X109120000Y-81370000D03*
D13*
X100230000Y-78770000D03*
D10*
X137000000Y-90260000D03*
D14*
X83720000Y-83910000D03*
D13*
X110390000Y-83850000D03*
D12*
X140810000Y-87635000D03*
D14*
X104040000Y-73750000D03*
D12*
X112870000Y-82555000D03*
X90010000Y-69855000D03*
D13*
X133250000Y-99090000D03*
D12*
X112870000Y-80015000D03*
D14*
X114200000Y-91530000D03*
D12*
X140810000Y-69855000D03*
D13*
X128170000Y-73690000D03*
D11*
X145442000Y-101680000D03*
D12*
X117950000Y-100335000D03*
D13*
X84990000Y-83850000D03*
D14*
X109120000Y-104230000D03*
X114200000Y-73750000D03*
X91340000Y-96610000D03*
D13*
X92610000Y-91470000D03*
X123090000Y-91470000D03*
D14*
X142140000Y-94070000D03*
D13*
X130710000Y-71150000D03*
D14*
X104040000Y-111850000D03*
D10*
X109060000Y-87720000D03*
D15*
X80500000Y-112650000D03*
D14*
X98960000Y-106770000D03*
D10*
X124300000Y-108040000D03*
D13*
X123090000Y-109250000D03*
D14*
X96420000Y-68670000D03*
D13*
X95150000Y-96550000D03*
X115470000Y-78770000D03*
D12*
X92550000Y-97795000D03*
D10*
X101440000Y-95340000D03*
D13*
X138330000Y-106710000D03*
X87530000Y-94010000D03*
D10*
X119220000Y-75020000D03*
D14*
X137060000Y-104230000D03*
X142140000Y-88990000D03*
X91340000Y-106770000D03*
X131980000Y-71210000D03*
D13*
X92610000Y-86390000D03*
X130710000Y-76230000D03*
D14*
X134520000Y-81370000D03*
D10*
X93820000Y-105500000D03*
X91280000Y-75020000D03*
D12*
X138270000Y-72395000D03*
D14*
X111660000Y-104230000D03*
D10*
X103980000Y-80100000D03*
D14*
X111660000Y-81370000D03*
D10*
X103980000Y-100420000D03*
D13*
X102770000Y-73690000D03*
D10*
X142080000Y-85180000D03*
X101440000Y-82640000D03*
X116680000Y-110580000D03*
X109060000Y-92800000D03*
D13*
X95150000Y-99090000D03*
D12*
X107790000Y-69855000D03*
X140810000Y-74935000D03*
X105250000Y-102875000D03*
D10*
X93820000Y-97880000D03*
D13*
X120550000Y-78770000D03*
D12*
X135730000Y-107955000D03*
X120490000Y-107955000D03*
D14*
X106580000Y-68670000D03*
D10*
X86200000Y-80100000D03*
D13*
X115470000Y-68610000D03*
D10*
X119220000Y-97880000D03*
D12*
X130650000Y-100335000D03*
D14*
X121820000Y-106770000D03*
D13*
X130710000Y-106710000D03*
D11*
X145442000Y-73740000D03*
D13*
X130710000Y-81310000D03*
D14*
X104040000Y-106770000D03*
D13*
X107850000Y-73690000D03*
D14*
X142140000Y-104230000D03*
D13*
X100230000Y-109250000D03*
D10*
X124300000Y-75020000D03*
X88740000Y-100420000D03*
X126840000Y-80100000D03*
X91280000Y-102960000D03*
D13*
X105310000Y-73690000D03*
D12*
X125570000Y-85095000D03*
X133190000Y-69855000D03*
X84930000Y-95255000D03*
D13*
X87530000Y-71150000D03*
X135790000Y-111790000D03*
X118010000Y-78770000D03*
D14*
X121820000Y-111850000D03*
X101500000Y-111850000D03*
D13*
X84990000Y-81310000D03*
D10*
X98900000Y-82640000D03*
D11*
X80418000Y-101680000D03*
D10*
X114140000Y-72480000D03*
X116680000Y-80100000D03*
X121760000Y-100420000D03*
D12*
X112870000Y-110495000D03*
D14*
X116740000Y-99150000D03*
X124360000Y-73750000D03*
D10*
X114140000Y-75020000D03*
D13*
X128170000Y-86390000D03*
D14*
X98960000Y-68670000D03*
D13*
X135790000Y-101630000D03*
D12*
X102710000Y-87635000D03*
D13*
X118010000Y-96550000D03*
X84990000Y-88930000D03*
D14*
X111660000Y-96610000D03*
D13*
X112930000Y-78770000D03*
X115470000Y-83850000D03*
D12*
X123030000Y-97795000D03*
X102710000Y-80015000D03*
D13*
X97690000Y-68610000D03*
D14*
X98960000Y-71210000D03*
X142140000Y-86450000D03*
D13*
X138330000Y-71150000D03*
X130710000Y-94010000D03*
X112930000Y-86390000D03*
D10*
X98900000Y-87720000D03*
D13*
X105310000Y-68610000D03*
D10*
X114140000Y-69940000D03*
D12*
X117950000Y-95255000D03*
D13*
X92610000Y-76230000D03*
D14*
X139600000Y-91530000D03*
D13*
X92610000Y-73690000D03*
D10*
X119220000Y-85180000D03*
D14*
X98960000Y-91530000D03*
D10*
X98900000Y-75020000D03*
D12*
X100170000Y-80015000D03*
D13*
X133250000Y-71150000D03*
D12*
X84930000Y-102875000D03*
D10*
X121760000Y-108040000D03*
D12*
X130650000Y-110495000D03*
X84930000Y-69855000D03*
X100170000Y-92715000D03*
D14*
X114200000Y-106770000D03*
X116740000Y-83910000D03*
D13*
X92610000Y-71150000D03*
X112930000Y-91470000D03*
X107850000Y-109250000D03*
D14*
X96420000Y-111850000D03*
D13*
X118010000Y-104170000D03*
D12*
X123030000Y-72395000D03*
X97630000Y-105415000D03*
D13*
X110390000Y-73690000D03*
D14*
X98960000Y-94070000D03*
X91340000Y-91530000D03*
D13*
X125630000Y-109250000D03*
X97690000Y-96550000D03*
X105310000Y-76230000D03*
D14*
X106580000Y-111850000D03*
D13*
X95150000Y-109250000D03*
D10*
X96360000Y-77560000D03*
X126840000Y-72480000D03*
X129380000Y-80100000D03*
X91280000Y-100420000D03*
X93820000Y-95340000D03*
D14*
X119280000Y-86450000D03*
D10*
X103980000Y-77560000D03*
D12*
X125570000Y-97795000D03*
D11*
X80418000Y-71200000D03*
D13*
X138330000Y-88930000D03*
X107850000Y-76230000D03*
D12*
X123030000Y-77475000D03*
D14*
X124360000Y-111850000D03*
X111660000Y-94070000D03*
X137060000Y-94070000D03*
D12*
X100170000Y-110495000D03*
D14*
X109120000Y-101690000D03*
D13*
X100230000Y-86390000D03*
D10*
X124300000Y-102960000D03*
D14*
X129440000Y-83910000D03*
D10*
X134460000Y-100420000D03*
X88740000Y-75020000D03*
D14*
X111660000Y-99150000D03*
D13*
X92610000Y-81310000D03*
X107850000Y-94010000D03*
D14*
X119280000Y-104230000D03*
D12*
X117950000Y-87635000D03*
D14*
X121820000Y-71210000D03*
D10*
X91280000Y-97880000D03*
X98900000Y-105500000D03*
D12*
X87470000Y-110495000D03*
D11*
X80418000Y-81360000D03*
D14*
X86260000Y-83910000D03*
D12*
X133190000Y-82555000D03*
D14*
X137060000Y-86450000D03*
X126900000Y-101690000D03*
X86260000Y-71210000D03*
D12*
X135730000Y-102875000D03*
X117950000Y-82555000D03*
X117950000Y-80015000D03*
D14*
X88800000Y-68670000D03*
D13*
X90070000Y-88930000D03*
X130710000Y-91470000D03*
D14*
X91340000Y-111850000D03*
X88800000Y-73750000D03*
D10*
X86200000Y-95340000D03*
D14*
X109120000Y-78830000D03*
D10*
X96360000Y-92800000D03*
D13*
X140870000Y-104170000D03*
D11*
X145442000Y-104220000D03*
D12*
X110330000Y-100335000D03*
X100170000Y-95255000D03*
D10*
X101440000Y-87720000D03*
X91280000Y-87720000D03*
D12*
X135730000Y-97795000D03*
D14*
X139600000Y-86450000D03*
D13*
X140870000Y-88930000D03*
X135790000Y-94010000D03*
D10*
X129380000Y-72480000D03*
D14*
X104040000Y-68670000D03*
X131980000Y-104230000D03*
D13*
X140870000Y-86390000D03*
X100230000Y-88930000D03*
D10*
X93820000Y-77560000D03*
D14*
X137060000Y-106770000D03*
X83720000Y-73750000D03*
X88800000Y-109310000D03*
D13*
X115470000Y-104170000D03*
D10*
X93820000Y-108040000D03*
D12*
X133190000Y-95255000D03*
D10*
X134460000Y-105500000D03*
D13*
X133250000Y-104170000D03*
D10*
X134460000Y-97880000D03*
D12*
X95090000Y-69855000D03*
D13*
X135790000Y-91470000D03*
D10*
X137000000Y-75020000D03*
D12*
X115410000Y-110495000D03*
X115410000Y-102875000D03*
D14*
X121820000Y-109310000D03*
D13*
X135790000Y-99090000D03*
D10*
X93820000Y-92800000D03*
D12*
X133190000Y-92715000D03*
X130650000Y-105415000D03*
D13*
X123090000Y-73690000D03*
D12*
X110330000Y-82555000D03*
X107790000Y-77475000D03*
D13*
X97690000Y-109250000D03*
D10*
X103980000Y-85180000D03*
X134460000Y-77560000D03*
D13*
X140870000Y-76230000D03*
D12*
X90010000Y-105415000D03*
D14*
X114200000Y-71210000D03*
D10*
X88740000Y-77560000D03*
X106520000Y-90260000D03*
D13*
X90070000Y-104170000D03*
D14*
X142140000Y-68670000D03*
D10*
X131920000Y-69940000D03*
D14*
X119280000Y-68670000D03*
D13*
X140870000Y-109250000D03*
X105310000Y-111790000D03*
X92610000Y-94010000D03*
D12*
X120490000Y-74935000D03*
X130650000Y-74935000D03*
D14*
X88800000Y-94070000D03*
X104040000Y-76290000D03*
D12*
X112870000Y-74935000D03*
D14*
X131980000Y-106770000D03*
D13*
X115470000Y-91470000D03*
D10*
X88740000Y-108040000D03*
X106520000Y-102960000D03*
D13*
X135790000Y-88930000D03*
D10*
X109060000Y-90260000D03*
X139540000Y-82640000D03*
D12*
X130650000Y-87635000D03*
X130650000Y-72395000D03*
D11*
X80418000Y-88980000D03*
D10*
X124300000Y-97880000D03*
X96360000Y-108040000D03*
D12*
X125570000Y-105415000D03*
X138270000Y-107955000D03*
X92550000Y-105415000D03*
D10*
X93820000Y-110580000D03*
D13*
X133250000Y-101630000D03*
D12*
X102710000Y-85095000D03*
X100170000Y-97795000D03*
X115410000Y-72395000D03*
D14*
X134520000Y-83910000D03*
D10*
X126840000Y-85180000D03*
D14*
X109120000Y-91530000D03*
D13*
X118010000Y-91470000D03*
D14*
X137060000Y-71210000D03*
D12*
X87470000Y-92715000D03*
D11*
X80418000Y-86440000D03*
D14*
X121820000Y-83910000D03*
D10*
X114140000Y-100420000D03*
D14*
X83720000Y-71210000D03*
D12*
X97630000Y-97795000D03*
D11*
X145442000Y-91520000D03*
D12*
X92550000Y-107955000D03*
D14*
X142140000Y-91530000D03*
X109120000Y-106770000D03*
X96420000Y-94070000D03*
D12*
X120490000Y-100335000D03*
X100170000Y-85095000D03*
X87470000Y-72395000D03*
D14*
X126900000Y-99150000D03*
X116740000Y-73750000D03*
D10*
X86200000Y-100420000D03*
D13*
X125630000Y-68610000D03*
D14*
X86260000Y-101690000D03*
D13*
X97690000Y-83850000D03*
D10*
X101440000Y-105500000D03*
D13*
X120550000Y-91470000D03*
D14*
X124360000Y-104230000D03*
D13*
X118010000Y-73690000D03*
D10*
X106520000Y-75020000D03*
D13*
X107850000Y-96550000D03*
D12*
X97630000Y-72395000D03*
D14*
X98960000Y-109310000D03*
D10*
X142080000Y-108040000D03*
D14*
X134520000Y-101690000D03*
X131980000Y-94070000D03*
D13*
X120550000Y-109250000D03*
D11*
X80418000Y-83900000D03*
D13*
X97690000Y-86390000D03*
D10*
X101440000Y-85180000D03*
D12*
X123030000Y-100335000D03*
X107790000Y-87635000D03*
D10*
X131920000Y-102960000D03*
D14*
X121820000Y-94070000D03*
D10*
X131920000Y-110580000D03*
X96360000Y-82640000D03*
D14*
X83720000Y-111850000D03*
D10*
X134460000Y-72480000D03*
D14*
X142140000Y-96610000D03*
X121820000Y-73750000D03*
X142140000Y-78830000D03*
D13*
X102770000Y-94010000D03*
D10*
X103980000Y-90260000D03*
D12*
X95090000Y-77475000D03*
D13*
X140870000Y-96550000D03*
X112930000Y-99090000D03*
D14*
X126900000Y-76290000D03*
D12*
X100170000Y-74935000D03*
D13*
X100230000Y-73690000D03*
D12*
X112870000Y-95255000D03*
D14*
X139600000Y-104230000D03*
D12*
X102710000Y-110495000D03*
D10*
X96360000Y-85180000D03*
D12*
X100170000Y-72395000D03*
D13*
X135790000Y-68610000D03*
D12*
X140810000Y-102875000D03*
X95090000Y-107955000D03*
X135730000Y-82555000D03*
D14*
X142140000Y-101690000D03*
D12*
X133190000Y-102875000D03*
D13*
X118010000Y-99090000D03*
D14*
X101500000Y-99150000D03*
D13*
X100230000Y-101630000D03*
D12*
X117950000Y-92715000D03*
X95090000Y-102875000D03*
D14*
X126900000Y-86450000D03*
D13*
X97690000Y-71150000D03*
D14*
X88800000Y-78830000D03*
D10*
X142080000Y-100420000D03*
X137000000Y-110580000D03*
X119220000Y-80100000D03*
X114140000Y-105500000D03*
D14*
X134520000Y-106770000D03*
D12*
X92550000Y-85095000D03*
X87470000Y-74935000D03*
D13*
X133250000Y-81310000D03*
D12*
X100170000Y-90175000D03*
X130650000Y-77475000D03*
D13*
X138330000Y-94010000D03*
D14*
X114200000Y-88990000D03*
D13*
X130710000Y-101630000D03*
D14*
X93880000Y-94070000D03*
D12*
X117950000Y-105415000D03*
D10*
X98900000Y-110580000D03*
D14*
X104040000Y-104230000D03*
D10*
X91280000Y-85180000D03*
D14*
X88800000Y-83910000D03*
D13*
X95150000Y-78770000D03*
D12*
X140810000Y-95255000D03*
D14*
X93880000Y-104230000D03*
D12*
X140810000Y-80015000D03*
D13*
X123090000Y-94010000D03*
D10*
X137000000Y-108040000D03*
D13*
X95150000Y-71150000D03*
D14*
X96420000Y-88990000D03*
X83720000Y-81370000D03*
D12*
X110330000Y-69855000D03*
X133190000Y-107955000D03*
X117950000Y-90175000D03*
X92550000Y-74935000D03*
D14*
X126900000Y-81370000D03*
D10*
X114140000Y-108040000D03*
X109060000Y-75020000D03*
D13*
X92610000Y-68610000D03*
X133250000Y-111790000D03*
D12*
X95090000Y-87635000D03*
D13*
X105310000Y-91470000D03*
X112930000Y-76230000D03*
D12*
X125570000Y-102875000D03*
X117950000Y-74935000D03*
D10*
X121760000Y-90260000D03*
X124300000Y-72480000D03*
X103980000Y-69940000D03*
X96360000Y-95340000D03*
D13*
X90070000Y-111790000D03*
D12*
X128110000Y-107955000D03*
X90010000Y-110495000D03*
D13*
X100230000Y-68610000D03*
D14*
X134520000Y-111850000D03*
D10*
X137000000Y-97880000D03*
D13*
X138330000Y-68610000D03*
D12*
X102710000Y-97795000D03*
D14*
X91340000Y-76290000D03*
X88800000Y-86450000D03*
D12*
X135730000Y-77475000D03*
D13*
X84990000Y-68610000D03*
D14*
X91340000Y-101690000D03*
D10*
X88740000Y-80100000D03*
D13*
X102770000Y-88930000D03*
D12*
X138270000Y-74935000D03*
D13*
X138330000Y-86390000D03*
D10*
X114140000Y-77560000D03*
D14*
X139600000Y-81370000D03*
D10*
X119220000Y-82640000D03*
X101440000Y-69940000D03*
X96360000Y-87720000D03*
D11*
X145442000Y-88980000D03*
D10*
X129380000Y-92800000D03*
X83660000Y-92800000D03*
D12*
X110330000Y-107955000D03*
D14*
X137060000Y-91530000D03*
D13*
X133250000Y-83850000D03*
X102770000Y-96550000D03*
D14*
X109120000Y-88990000D03*
X131980000Y-88990000D03*
X134520000Y-99150000D03*
D13*
X133250000Y-106710000D03*
D14*
X116740000Y-104230000D03*
D12*
X84930000Y-77475000D03*
D13*
X128170000Y-83850000D03*
D10*
X86200000Y-85180000D03*
D12*
X97630000Y-92715000D03*
D13*
X102770000Y-81310000D03*
D10*
X96360000Y-110580000D03*
D13*
X90070000Y-96550000D03*
D14*
X124360000Y-99150000D03*
X83720000Y-94070000D03*
D13*
X97690000Y-91470000D03*
X92610000Y-101630000D03*
X135790000Y-106710000D03*
X97690000Y-101630000D03*
D12*
X128110000Y-110495000D03*
D10*
X137000000Y-102960000D03*
D14*
X86260000Y-78830000D03*
X114200000Y-86450000D03*
D12*
X90010000Y-102875000D03*
D10*
X142080000Y-95340000D03*
D14*
X86260000Y-73750000D03*
X114200000Y-94070000D03*
D11*
X145442000Y-76280000D03*
D10*
X91280000Y-92800000D03*
D12*
X110330000Y-87635000D03*
D11*
X145442000Y-106760000D03*
D10*
X121760000Y-77560000D03*
D14*
X86260000Y-104230000D03*
D10*
X98900000Y-95340000D03*
D13*
X123090000Y-78770000D03*
D14*
X124360000Y-109310000D03*
X119280000Y-111850000D03*
D12*
X84930000Y-82555000D03*
D14*
X106580000Y-78830000D03*
X134520000Y-86450000D03*
D10*
X134460000Y-82640000D03*
D12*
X117950000Y-85095000D03*
D10*
X109060000Y-80100000D03*
X109060000Y-102960000D03*
D12*
X107790000Y-82555000D03*
D14*
X86260000Y-86450000D03*
D10*
X83660000Y-82640000D03*
D13*
X138330000Y-81310000D03*
X128170000Y-106710000D03*
D14*
X121820000Y-76290000D03*
D10*
X134460000Y-75020000D03*
X131920000Y-108040000D03*
D14*
X104040000Y-99150000D03*
D13*
X125630000Y-78770000D03*
D14*
X101500000Y-78830000D03*
D12*
X100170000Y-69855000D03*
D11*
X80418000Y-99140000D03*
D12*
X87470000Y-82555000D03*
D14*
X139600000Y-71210000D03*
D10*
X98900000Y-85180000D03*
X116680000Y-100420000D03*
X86200000Y-82640000D03*
D12*
X120490000Y-102875000D03*
X128110000Y-72395000D03*
X120490000Y-110495000D03*
D14*
X86260000Y-109310000D03*
D12*
X110330000Y-74935000D03*
D13*
X110390000Y-86390000D03*
D12*
X105250000Y-97795000D03*
D14*
X126900000Y-78830000D03*
X104040000Y-88990000D03*
X111660000Y-76290000D03*
D10*
X126840000Y-92800000D03*
D13*
X125630000Y-71150000D03*
D12*
X112870000Y-102875000D03*
X138270000Y-95255000D03*
D14*
X101500000Y-106770000D03*
D13*
X133250000Y-86390000D03*
X100230000Y-76230000D03*
D10*
X126840000Y-75020000D03*
D12*
X128110000Y-74935000D03*
X115410000Y-105415000D03*
D13*
X112930000Y-96550000D03*
D14*
X106580000Y-76290000D03*
D12*
X110330000Y-97795000D03*
D10*
X111600000Y-69940000D03*
D14*
X109120000Y-111850000D03*
D12*
X102710000Y-90175000D03*
D14*
X83720000Y-91530000D03*
D12*
X135730000Y-92715000D03*
D14*
X111660000Y-106770000D03*
X91340000Y-88990000D03*
X96420000Y-99150000D03*
D12*
X90010000Y-77475000D03*
D13*
X100230000Y-99090000D03*
D14*
X129440000Y-109310000D03*
X93880000Y-109310000D03*
D12*
X140810000Y-97795000D03*
D14*
X114200000Y-83910000D03*
X93880000Y-91530000D03*
D13*
X140870000Y-68610000D03*
D14*
X111660000Y-68670000D03*
D10*
X137000000Y-92800000D03*
D13*
X115470000Y-101630000D03*
D14*
X137060000Y-99150000D03*
D12*
X138270000Y-80015000D03*
D13*
X100230000Y-83850000D03*
X130710000Y-88930000D03*
X105310000Y-78770000D03*
X87530000Y-78770000D03*
D12*
X123030000Y-90175000D03*
D10*
X126840000Y-105500000D03*
X134460000Y-90260000D03*
D14*
X86260000Y-94070000D03*
D10*
X116680000Y-69940000D03*
D12*
X105250000Y-77475000D03*
D14*
X109120000Y-109310000D03*
X86260000Y-99150000D03*
D11*
X145442000Y-109300000D03*
D13*
X90070000Y-78770000D03*
D10*
X98900000Y-69940000D03*
D14*
X104040000Y-86450000D03*
X116740000Y-78830000D03*
D11*
X145442000Y-94060000D03*
D10*
X131920000Y-85180000D03*
X134460000Y-102960000D03*
D12*
X120490000Y-80015000D03*
X125570000Y-82555000D03*
D13*
X95150000Y-104170000D03*
D14*
X129440000Y-101690000D03*
D12*
X120490000Y-92715000D03*
D14*
X111660000Y-88990000D03*
X137060000Y-76290000D03*
D13*
X140870000Y-73690000D03*
D12*
X100170000Y-82555000D03*
D13*
X87530000Y-91470000D03*
D12*
X105250000Y-110495000D03*
D13*
X133250000Y-109250000D03*
D10*
X88740000Y-110580000D03*
X116680000Y-72480000D03*
D14*
X124360000Y-96610000D03*
D10*
X124300000Y-105500000D03*
D12*
X138270000Y-110495000D03*
D14*
X109120000Y-71210000D03*
X111660000Y-71210000D03*
D13*
X115470000Y-81310000D03*
D10*
X116680000Y-95340000D03*
X139540000Y-92800000D03*
D14*
X111660000Y-91530000D03*
X101500000Y-81370000D03*
D13*
X90070000Y-68610000D03*
D12*
X87470000Y-100335000D03*
X123030000Y-95255000D03*
D14*
X142140000Y-71210000D03*
D12*
X128110000Y-77475000D03*
D13*
X115470000Y-73690000D03*
D10*
X119220000Y-105500000D03*
D13*
X90070000Y-86390000D03*
D10*
X101440000Y-75020000D03*
D13*
X107850000Y-99090000D03*
D12*
X90010000Y-97795000D03*
X84930000Y-107955000D03*
X112870000Y-92715000D03*
D13*
X120550000Y-73690000D03*
D10*
X101440000Y-77560000D03*
D12*
X100170000Y-77475000D03*
D10*
X88740000Y-90260000D03*
D14*
X137060000Y-101690000D03*
D10*
X124300000Y-90260000D03*
D13*
X97690000Y-88930000D03*
D14*
X93880000Y-81370000D03*
D10*
X98900000Y-100420000D03*
D13*
X112930000Y-111790000D03*
X130710000Y-109250000D03*
D10*
X116680000Y-75020000D03*
D13*
X107850000Y-71150000D03*
D14*
X114200000Y-111850000D03*
D12*
X90010000Y-72395000D03*
X95090000Y-90175000D03*
D10*
X86200000Y-90260000D03*
D12*
X128110000Y-90175000D03*
D14*
X131980000Y-73750000D03*
D13*
X130710000Y-83850000D03*
X112930000Y-94010000D03*
D10*
X121760000Y-75020000D03*
D12*
X128110000Y-95255000D03*
D13*
X120550000Y-86390000D03*
D10*
X116680000Y-85180000D03*
D12*
X92550000Y-69855000D03*
D10*
X109060000Y-72480000D03*
X114140000Y-92800000D03*
D13*
X87530000Y-106710000D03*
D10*
X114140000Y-90260000D03*
X119220000Y-90260000D03*
X86200000Y-110580000D03*
D13*
X115470000Y-88930000D03*
D12*
X95090000Y-74935000D03*
D10*
X129380000Y-105500000D03*
D12*
X97630000Y-110495000D03*
D13*
X110390000Y-96550000D03*
X135790000Y-86390000D03*
D14*
X137060000Y-78830000D03*
D13*
X125630000Y-76230000D03*
D10*
X129380000Y-85180000D03*
X103980000Y-75020000D03*
D13*
X120550000Y-99090000D03*
D10*
X121760000Y-97880000D03*
D13*
X130710000Y-99090000D03*
D12*
X92550000Y-82555000D03*
X138270000Y-77475000D03*
D14*
X119280000Y-88990000D03*
D12*
X84930000Y-74935000D03*
D13*
X135790000Y-71150000D03*
D10*
X106520000Y-92800000D03*
D12*
X138270000Y-100335000D03*
D10*
X121760000Y-105500000D03*
X139540000Y-87720000D03*
D12*
X130650000Y-107955000D03*
D10*
X83660000Y-102960000D03*
X119220000Y-102960000D03*
D12*
X90010000Y-92715000D03*
X95090000Y-72395000D03*
D14*
X109120000Y-68670000D03*
D12*
X125570000Y-110495000D03*
D13*
X115470000Y-76230000D03*
D14*
X119280000Y-73750000D03*
D13*
X128170000Y-88930000D03*
D12*
X97630000Y-95255000D03*
X87470000Y-90175000D03*
D14*
X131980000Y-86450000D03*
D10*
X83660000Y-87720000D03*
D12*
X115410000Y-82555000D03*
D14*
X131980000Y-76290000D03*
D10*
X139540000Y-102960000D03*
D13*
X110390000Y-111790000D03*
X110390000Y-71150000D03*
D14*
X96420000Y-76290000D03*
D12*
X130650000Y-97795000D03*
D13*
X107850000Y-83850000D03*
D12*
X90010000Y-82555000D03*
D14*
X106580000Y-106770000D03*
X134520000Y-109310000D03*
D13*
X125630000Y-101630000D03*
D10*
X119220000Y-77560000D03*
X124300000Y-95340000D03*
X131920000Y-87720000D03*
X91280000Y-110580000D03*
X103980000Y-95340000D03*
D13*
X105310000Y-83850000D03*
D10*
X93820000Y-100420000D03*
D13*
X105310000Y-86390000D03*
D12*
X110330000Y-90175000D03*
D14*
X101500000Y-101690000D03*
X101500000Y-73750000D03*
D13*
X112930000Y-68610000D03*
X138330000Y-104170000D03*
D12*
X140810000Y-72395000D03*
X115410000Y-100335000D03*
D13*
X105310000Y-101630000D03*
X97690000Y-99090000D03*
D12*
X102710000Y-105415000D03*
D14*
X109120000Y-73750000D03*
D13*
X128170000Y-104170000D03*
D14*
X86260000Y-111850000D03*
D10*
X109060000Y-105500000D03*
D12*
X107790000Y-100335000D03*
X115410000Y-69855000D03*
X133190000Y-87635000D03*
D10*
X83660000Y-90260000D03*
X91280000Y-105500000D03*
D12*
X95090000Y-85095000D03*
D10*
X119220000Y-95340000D03*
D14*
X109120000Y-83910000D03*
X91340000Y-83910000D03*
D13*
X110390000Y-81310000D03*
D14*
X88800000Y-99150000D03*
D12*
X112870000Y-105415000D03*
D10*
X114140000Y-85180000D03*
D14*
X131980000Y-91530000D03*
D10*
X96360000Y-100420000D03*
D12*
X107790000Y-92715000D03*
D14*
X121820000Y-91530000D03*
D12*
X135730000Y-90175000D03*
D13*
X107850000Y-88930000D03*
D10*
X119220000Y-92800000D03*
D14*
X83720000Y-68670000D03*
D12*
X105250000Y-72395000D03*
D10*
X139540000Y-80100000D03*
X101440000Y-100420000D03*
X116680000Y-77560000D03*
X88740000Y-102960000D03*
D14*
X101500000Y-83910000D03*
D13*
X84990000Y-71150000D03*
D10*
X109060000Y-82640000D03*
D14*
X134520000Y-71210000D03*
D12*
X87470000Y-105415000D03*
D14*
X111660000Y-111850000D03*
D13*
X100230000Y-96550000D03*
D12*
X128110000Y-102875000D03*
D13*
X125630000Y-88930000D03*
D10*
X126840000Y-77560000D03*
D14*
X134520000Y-104230000D03*
D10*
X124300000Y-80100000D03*
D14*
X114200000Y-78830000D03*
D10*
X139540000Y-105500000D03*
D14*
X83720000Y-88990000D03*
X106580000Y-109310000D03*
D12*
X90010000Y-85095000D03*
D13*
X118010000Y-106710000D03*
D14*
X93880000Y-78830000D03*
D12*
X135730000Y-80015000D03*
X120490000Y-77475000D03*
X138270000Y-97795000D03*
D13*
X123090000Y-104170000D03*
D14*
X126900000Y-104230000D03*
D10*
X98900000Y-97880000D03*
X83660000Y-100420000D03*
D15*
X145300000Y-112650000D03*
D10*
X98900000Y-108040000D03*
D14*
X139600000Y-76290000D03*
D10*
X139540000Y-97880000D03*
X88740000Y-82640000D03*
X83660000Y-97880000D03*
D13*
X138330000Y-83850000D03*
X120550000Y-106710000D03*
D12*
X138270000Y-85095000D03*
D13*
X90070000Y-99090000D03*
D12*
X138270000Y-69855000D03*
D14*
X116740000Y-94070000D03*
D12*
X102710000Y-102875000D03*
D14*
X129440000Y-71210000D03*
D12*
X90010000Y-107955000D03*
D13*
X130710000Y-78770000D03*
D10*
X129380000Y-100420000D03*
D14*
X91340000Y-73750000D03*
D10*
X114140000Y-97880000D03*
D12*
X97630000Y-90175000D03*
D14*
X137060000Y-96610000D03*
D13*
X120550000Y-96550000D03*
X130710000Y-68610000D03*
D14*
X91340000Y-94070000D03*
D12*
X120490000Y-69855000D03*
D10*
X96360000Y-102960000D03*
D13*
X123090000Y-68610000D03*
X92610000Y-104170000D03*
D14*
X116740000Y-86450000D03*
X109120000Y-86450000D03*
X96420000Y-78830000D03*
D10*
X86200000Y-102960000D03*
D13*
X140870000Y-81310000D03*
D10*
X124300000Y-85180000D03*
D13*
X105310000Y-104170000D03*
X84990000Y-101630000D03*
X84990000Y-111790000D03*
D11*
X80418000Y-104220000D03*
D10*
X88740000Y-97880000D03*
D12*
X120490000Y-87635000D03*
D13*
X84990000Y-91470000D03*
D10*
X131920000Y-77560000D03*
D12*
X92550000Y-77475000D03*
D14*
X116740000Y-68670000D03*
D13*
X95150000Y-76230000D03*
D12*
X112870000Y-85095000D03*
D14*
X106580000Y-88990000D03*
D12*
X105250000Y-80015000D03*
D13*
X95150000Y-73690000D03*
D12*
X123030000Y-69855000D03*
D13*
X130710000Y-73690000D03*
D14*
X142140000Y-76290000D03*
X129440000Y-91530000D03*
D10*
X121760000Y-72480000D03*
X121760000Y-69940000D03*
D12*
X128110000Y-80015000D03*
X105250000Y-92715000D03*
X123030000Y-80015000D03*
D10*
X111600000Y-110580000D03*
X134460000Y-110580000D03*
D13*
X120550000Y-68610000D03*
X105310000Y-99090000D03*
D10*
X126840000Y-87720000D03*
D13*
X140870000Y-111790000D03*
D12*
X140810000Y-77475000D03*
D13*
X95150000Y-86390000D03*
D14*
X121820000Y-68670000D03*
D10*
X116680000Y-90260000D03*
X139540000Y-100420000D03*
D14*
X142140000Y-111850000D03*
X101500000Y-94070000D03*
D13*
X87530000Y-68610000D03*
D12*
X117950000Y-102875000D03*
D13*
X107850000Y-101630000D03*
D12*
X115410000Y-92715000D03*
D10*
X114140000Y-110580000D03*
D14*
X124360000Y-94070000D03*
D12*
X97630000Y-85095000D03*
D14*
X126900000Y-106770000D03*
D10*
X116680000Y-92800000D03*
X114140000Y-82640000D03*
D12*
X107790000Y-102875000D03*
D13*
X115470000Y-96550000D03*
D10*
X91280000Y-108040000D03*
D13*
X100230000Y-106710000D03*
D10*
X96360000Y-72480000D03*
D14*
X116740000Y-76290000D03*
D12*
X84930000Y-100335000D03*
D13*
X102770000Y-99090000D03*
X95150000Y-91470000D03*
D10*
X111600000Y-92800000D03*
D14*
X83720000Y-101690000D03*
D10*
X88740000Y-69940000D03*
D12*
X140810000Y-100335000D03*
D10*
X119220000Y-110580000D03*
X124300000Y-77560000D03*
X139540000Y-90260000D03*
D12*
X112870000Y-100335000D03*
D14*
X126900000Y-71210000D03*
D12*
X92550000Y-92715000D03*
D13*
X87530000Y-101630000D03*
D10*
X91280000Y-90260000D03*
D12*
X115410000Y-90175000D03*
D10*
X106520000Y-80100000D03*
D14*
X129440000Y-73750000D03*
D13*
X125630000Y-94010000D03*
D10*
X111600000Y-90260000D03*
D13*
X123090000Y-99090000D03*
D14*
X106580000Y-96610000D03*
D12*
X105250000Y-69855000D03*
D11*
X145442000Y-83900000D03*
D14*
X124360000Y-78830000D03*
D12*
X115410000Y-77475000D03*
D10*
X126840000Y-69940000D03*
X137000000Y-82640000D03*
D14*
X139600000Y-73750000D03*
D13*
X140870000Y-91470000D03*
X115470000Y-94010000D03*
D12*
X84930000Y-80015000D03*
D10*
X126840000Y-102960000D03*
X111600000Y-97880000D03*
X116680000Y-102960000D03*
D13*
X125630000Y-83850000D03*
D10*
X134460000Y-85180000D03*
D14*
X129440000Y-96610000D03*
D12*
X125570000Y-69855000D03*
X123030000Y-82555000D03*
D10*
X103980000Y-97880000D03*
D13*
X128170000Y-109250000D03*
D10*
X131920000Y-105500000D03*
X109060000Y-97880000D03*
D14*
X93880000Y-96610000D03*
D13*
X105310000Y-109250000D03*
D10*
X86200000Y-77560000D03*
D13*
X138330000Y-91470000D03*
D14*
X96420000Y-96610000D03*
D10*
X134460000Y-80100000D03*
D12*
X87470000Y-107955000D03*
D10*
X91280000Y-80100000D03*
D12*
X97630000Y-74935000D03*
X110330000Y-110495000D03*
D10*
X137000000Y-87720000D03*
D13*
X100230000Y-91470000D03*
D10*
X139540000Y-95340000D03*
D14*
X116740000Y-96610000D03*
D10*
X111600000Y-108040000D03*
D12*
X87470000Y-77475000D03*
X112870000Y-69855000D03*
D14*
X98960000Y-96610000D03*
D10*
X88740000Y-92800000D03*
D14*
X86260000Y-88990000D03*
D12*
X115410000Y-97795000D03*
D14*
X131980000Y-111850000D03*
D10*
X119220000Y-100420000D03*
D14*
X96420000Y-104230000D03*
X88800000Y-88990000D03*
D13*
X95150000Y-106710000D03*
D12*
X92550000Y-110495000D03*
D14*
X129440000Y-68670000D03*
D12*
X102710000Y-100335000D03*
D10*
X83660000Y-108040000D03*
D13*
X87530000Y-104170000D03*
D14*
X98960000Y-81370000D03*
D13*
X84990000Y-78770000D03*
X112930000Y-101630000D03*
D10*
X83660000Y-75020000D03*
D12*
X138270000Y-102875000D03*
D13*
X92610000Y-109250000D03*
D12*
X95090000Y-105415000D03*
X120490000Y-72395000D03*
D13*
X120550000Y-101630000D03*
D12*
X135730000Y-87635000D03*
D13*
X110390000Y-106710000D03*
D12*
X95090000Y-92715000D03*
D10*
X131920000Y-82640000D03*
D14*
X104040000Y-96610000D03*
D12*
X110330000Y-92715000D03*
D14*
X139600000Y-94070000D03*
D13*
X107850000Y-68610000D03*
X140870000Y-94010000D03*
D14*
X129440000Y-88990000D03*
D10*
X98900000Y-72480000D03*
D13*
X110390000Y-99090000D03*
D10*
X106520000Y-77560000D03*
D14*
X129440000Y-104230000D03*
D12*
X140810000Y-82555000D03*
D14*
X119280000Y-71210000D03*
D13*
X87530000Y-81310000D03*
D10*
X124300000Y-69940000D03*
X142080000Y-82640000D03*
X103980000Y-105500000D03*
D14*
X86260000Y-91530000D03*
D11*
X145442000Y-96600000D03*
D14*
X109120000Y-96610000D03*
D11*
X80418000Y-94060000D03*
D14*
X101500000Y-76290000D03*
D12*
X125570000Y-95255000D03*
D14*
X83720000Y-78830000D03*
X129440000Y-106770000D03*
X104040000Y-91530000D03*
D10*
X96360000Y-80100000D03*
D12*
X92550000Y-80015000D03*
X130650000Y-85095000D03*
X84930000Y-87635000D03*
X125570000Y-100335000D03*
D10*
X109060000Y-95340000D03*
D13*
X97690000Y-94010000D03*
D14*
X88800000Y-91530000D03*
X83720000Y-109310000D03*
D10*
X88740000Y-95340000D03*
D14*
X129440000Y-86450000D03*
X93880000Y-101690000D03*
D11*
X80418000Y-91520000D03*
D13*
X133250000Y-76230000D03*
D12*
X87470000Y-80015000D03*
D10*
X142080000Y-87720000D03*
X139540000Y-108040000D03*
D12*
X138270000Y-87635000D03*
X107790000Y-74935000D03*
D15*
X145300000Y-67850000D03*
D14*
X98960000Y-99150000D03*
D13*
X125630000Y-81310000D03*
D10*
X114140000Y-95340000D03*
D14*
X98960000Y-78830000D03*
D10*
X93820000Y-87720000D03*
D12*
X123030000Y-74935000D03*
D14*
X119280000Y-78830000D03*
X131980000Y-81370000D03*
D10*
X109060000Y-100420000D03*
D14*
X126900000Y-94070000D03*
D13*
X130710000Y-104170000D03*
D12*
X87470000Y-97795000D03*
D10*
X119220000Y-72480000D03*
D13*
X102770000Y-111790000D03*
X107850000Y-86390000D03*
D14*
X142140000Y-106770000D03*
D12*
X140810000Y-85095000D03*
D10*
X137000000Y-72480000D03*
X103980000Y-110580000D03*
D12*
X130650000Y-90175000D03*
X123030000Y-85095000D03*
X107790000Y-80015000D03*
D13*
X135790000Y-76230000D03*
D14*
X131980000Y-78830000D03*
D10*
X101440000Y-97880000D03*
D12*
X123030000Y-92715000D03*
D10*
X93820000Y-72480000D03*
D13*
X92610000Y-78770000D03*
D14*
X116740000Y-106770000D03*
D12*
X92550000Y-87635000D03*
X133190000Y-85095000D03*
D14*
X121820000Y-86450000D03*
X119280000Y-109310000D03*
D13*
X125630000Y-96550000D03*
D10*
X137000000Y-80100000D03*
D13*
X112930000Y-104170000D03*
D12*
X130650000Y-82555000D03*
D10*
X106520000Y-97880000D03*
D14*
X139600000Y-111850000D03*
X88800000Y-96610000D03*
X86260000Y-68670000D03*
D10*
X131920000Y-90260000D03*
D13*
X87530000Y-76230000D03*
D12*
X128110000Y-69855000D03*
D10*
X98900000Y-80100000D03*
D13*
X90070000Y-109250000D03*
D12*
X102710000Y-82555000D03*
D14*
X98960000Y-111850000D03*
X121820000Y-99150000D03*
D11*
X145442000Y-71200000D03*
D14*
X134520000Y-73750000D03*
X131980000Y-83910000D03*
D13*
X105310000Y-88930000D03*
D10*
X83660000Y-77560000D03*
D12*
X84930000Y-110495000D03*
D14*
X129440000Y-111850000D03*
X96420000Y-91530000D03*
X93880000Y-99150000D03*
X88800000Y-76290000D03*
D12*
X120490000Y-105415000D03*
D14*
X114200000Y-68670000D03*
D12*
X95090000Y-95255000D03*
D13*
X140870000Y-71150000D03*
D14*
X134520000Y-91530000D03*
D13*
X125630000Y-111790000D03*
D14*
X104040000Y-83910000D03*
X134520000Y-88990000D03*
D12*
X128110000Y-85095000D03*
D14*
X101500000Y-109310000D03*
D13*
X123090000Y-76230000D03*
D12*
X117950000Y-110495000D03*
D13*
X138330000Y-101630000D03*
D12*
X90010000Y-80015000D03*
D13*
X112930000Y-106710000D03*
D10*
X83660000Y-80100000D03*
D12*
X107790000Y-97795000D03*
D13*
X84990000Y-109250000D03*
X128170000Y-94010000D03*
X110390000Y-101630000D03*
D14*
X116740000Y-88990000D03*
D12*
X125570000Y-92715000D03*
X140810000Y-105415000D03*
D10*
X124300000Y-92800000D03*
D13*
X102770000Y-91470000D03*
X128170000Y-96550000D03*
D10*
X119220000Y-69940000D03*
D13*
X128170000Y-99090000D03*
D12*
X128110000Y-105415000D03*
D10*
X142080000Y-77560000D03*
D13*
X118010000Y-88930000D03*
D14*
X114200000Y-101690000D03*
X86260000Y-76290000D03*
D13*
X125630000Y-104170000D03*
D12*
X125570000Y-107955000D03*
D14*
X129440000Y-94070000D03*
D10*
X93820000Y-90260000D03*
D12*
X92550000Y-90175000D03*
D10*
X139540000Y-75020000D03*
D12*
X130650000Y-80015000D03*
D14*
X101500000Y-88990000D03*
D12*
X133190000Y-100335000D03*
D14*
X139600000Y-83910000D03*
D12*
X105250000Y-82555000D03*
D14*
X124360000Y-91530000D03*
X126900000Y-68670000D03*
D12*
X90010000Y-95255000D03*
X87470000Y-87635000D03*
D14*
X126900000Y-88990000D03*
D13*
X87530000Y-86390000D03*
D14*
X131980000Y-68670000D03*
D10*
X109060000Y-85180000D03*
D13*
X123090000Y-111790000D03*
D10*
X106520000Y-69940000D03*
D14*
X109120000Y-94070000D03*
D12*
X110330000Y-72395000D03*
X123030000Y-107955000D03*
X90010000Y-74935000D03*
D14*
X131980000Y-109310000D03*
D10*
X124300000Y-110580000D03*
D12*
X107790000Y-107955000D03*
X135730000Y-105415000D03*
D13*
X123090000Y-101630000D03*
D10*
X121760000Y-85180000D03*
X142080000Y-75020000D03*
X111600000Y-75020000D03*
X86200000Y-108040000D03*
D14*
X124360000Y-88990000D03*
D13*
X125630000Y-73690000D03*
X123090000Y-86390000D03*
D14*
X106580000Y-71210000D03*
X93880000Y-106770000D03*
D13*
X105310000Y-106710000D03*
D14*
X104040000Y-101690000D03*
D13*
X118010000Y-111790000D03*
D14*
X106580000Y-104230000D03*
D10*
X103980000Y-72480000D03*
X111600000Y-77560000D03*
D12*
X97630000Y-80015000D03*
D14*
X126900000Y-91530000D03*
D11*
X145442000Y-78820000D03*
D14*
X129440000Y-81370000D03*
X119280000Y-76290000D03*
D12*
X92550000Y-100335000D03*
D13*
X120550000Y-81310000D03*
D10*
X116680000Y-108040000D03*
D14*
X96420000Y-71210000D03*
D13*
X110390000Y-68610000D03*
X100230000Y-81310000D03*
D14*
X83720000Y-86450000D03*
D13*
X107850000Y-91470000D03*
D10*
X86200000Y-97880000D03*
D13*
X130710000Y-96550000D03*
D14*
X124360000Y-101690000D03*
X139600000Y-78830000D03*
D10*
X121760000Y-102960000D03*
D12*
X133190000Y-72395000D03*
D10*
X139540000Y-85180000D03*
D13*
X133250000Y-94010000D03*
D11*
X145442000Y-81360000D03*
D13*
X135790000Y-104170000D03*
D12*
X112870000Y-90175000D03*
D10*
X111600000Y-85180000D03*
D12*
X92550000Y-95255000D03*
D14*
X139600000Y-68670000D03*
X137060000Y-111850000D03*
D12*
X112870000Y-72395000D03*
D14*
X116740000Y-71210000D03*
X88800000Y-111850000D03*
X131980000Y-96610000D03*
D13*
X133250000Y-68610000D03*
D10*
X139540000Y-110580000D03*
D14*
X121820000Y-88990000D03*
X88800000Y-106770000D03*
D13*
X110390000Y-109250000D03*
D14*
X106580000Y-91530000D03*
D10*
X103980000Y-102960000D03*
D12*
X117950000Y-97795000D03*
D10*
X142080000Y-92800000D03*
X121760000Y-92800000D03*
X98900000Y-102960000D03*
X121760000Y-95340000D03*
X126840000Y-97880000D03*
X121760000Y-82640000D03*
D12*
X107790000Y-85095000D03*
D10*
X93820000Y-80100000D03*
X142080000Y-90260000D03*
D13*
X112930000Y-71150000D03*
X100230000Y-71150000D03*
D14*
X98960000Y-104230000D03*
D13*
X112930000Y-109250000D03*
D14*
X124360000Y-76290000D03*
D13*
X90070000Y-91470000D03*
D10*
X114140000Y-80100000D03*
D13*
X138330000Y-73690000D03*
D12*
X92550000Y-72395000D03*
D10*
X109060000Y-108040000D03*
X126840000Y-95340000D03*
X88740000Y-105500000D03*
D14*
X121820000Y-101690000D03*
X142140000Y-99150000D03*
D13*
X118010000Y-86390000D03*
D12*
X125570000Y-80015000D03*
D10*
X129380000Y-95340000D03*
D13*
X125630000Y-106710000D03*
D12*
X110330000Y-85095000D03*
D14*
X126900000Y-83910000D03*
D13*
X140870000Y-83850000D03*
D10*
X111600000Y-95340000D03*
D13*
X110390000Y-94010000D03*
D12*
X100170000Y-102875000D03*
D13*
X87530000Y-88930000D03*
D14*
X111660000Y-101690000D03*
D10*
X137000000Y-69940000D03*
X111600000Y-105500000D03*
X111600000Y-72480000D03*
X96360000Y-97880000D03*
D13*
X128170000Y-68610000D03*
D10*
X109060000Y-110580000D03*
D13*
X138330000Y-76230000D03*
D14*
X93880000Y-76290000D03*
D10*
X131920000Y-92800000D03*
D14*
X126900000Y-73750000D03*
X104040000Y-109310000D03*
X114200000Y-109310000D03*
X126900000Y-111850000D03*
D12*
X115410000Y-85095000D03*
D14*
X114200000Y-104230000D03*
X134520000Y-76290000D03*
D12*
X112870000Y-87635000D03*
D13*
X138330000Y-96550000D03*
D12*
X107790000Y-90175000D03*
X107790000Y-95255000D03*
D14*
X119280000Y-94070000D03*
D12*
X117950000Y-72395000D03*
D10*
X83660000Y-105500000D03*
D13*
X100230000Y-94010000D03*
D12*
X140810000Y-90175000D03*
X84930000Y-92715000D03*
D13*
X90070000Y-106710000D03*
D14*
X114200000Y-99150000D03*
X139600000Y-88990000D03*
D10*
X106520000Y-95340000D03*
X103980000Y-87720000D03*
D13*
X107850000Y-78770000D03*
D12*
X102710000Y-77475000D03*
D10*
X96360000Y-75020000D03*
D13*
X133250000Y-78770000D03*
D14*
X106580000Y-83910000D03*
D12*
X97630000Y-82555000D03*
D10*
X142080000Y-102960000D03*
D14*
X134520000Y-68670000D03*
X116740000Y-91530000D03*
D10*
X106520000Y-110580000D03*
D13*
X118010000Y-101630000D03*
X110390000Y-88930000D03*
D14*
X83720000Y-99150000D03*
D10*
X88740000Y-72480000D03*
D14*
X98960000Y-76290000D03*
D10*
X129380000Y-90260000D03*
X88740000Y-85180000D03*
D14*
X91340000Y-68670000D03*
D10*
X101440000Y-72480000D03*
D12*
X107790000Y-110495000D03*
D11*
X80418000Y-73740000D03*
D10*
X98900000Y-77560000D03*
X106520000Y-85180000D03*
D13*
X128170000Y-91470000D03*
D12*
X115410000Y-87635000D03*
X135730000Y-69855000D03*
D14*
X119280000Y-106770000D03*
D12*
X138270000Y-82555000D03*
X125570000Y-87635000D03*
D14*
X116740000Y-101690000D03*
D12*
X100170000Y-105415000D03*
D13*
X105310000Y-81310000D03*
D14*
X114200000Y-76290000D03*
D10*
X116680000Y-87720000D03*
D13*
X120550000Y-76230000D03*
D14*
X96420000Y-106770000D03*
D12*
X128110000Y-82555000D03*
D11*
X80418000Y-78820000D03*
D10*
X103980000Y-92800000D03*
D12*
X97630000Y-87635000D03*
D10*
X101440000Y-80100000D03*
D12*
X110330000Y-77475000D03*
D13*
X87530000Y-96550000D03*
X97690000Y-106710000D03*
D14*
X101500000Y-71210000D03*
D10*
X103980000Y-82640000D03*
D14*
X93880000Y-73750000D03*
D10*
X131920000Y-72480000D03*
X129380000Y-69940000D03*
D13*
X128170000Y-76230000D03*
D14*
X101500000Y-86450000D03*
D13*
X95150000Y-111790000D03*
X102770000Y-71150000D03*
D10*
X134460000Y-95340000D03*
D14*
X101500000Y-91530000D03*
D12*
X90010000Y-87635000D03*
X84930000Y-90175000D03*
X123030000Y-105415000D03*
D13*
X90070000Y-101630000D03*
D14*
X91340000Y-86450000D03*
D13*
X97690000Y-81310000D03*
X102770000Y-86390000D03*
X100230000Y-104170000D03*
D12*
X107790000Y-72395000D03*
D13*
X84990000Y-104170000D03*
X138330000Y-109250000D03*
D12*
X95090000Y-100335000D03*
D13*
X92610000Y-111790000D03*
D14*
X88800000Y-101690000D03*
D12*
X87470000Y-85095000D03*
D14*
X124360000Y-68670000D03*
X121820000Y-81370000D03*
D12*
X110330000Y-105415000D03*
X135730000Y-110495000D03*
X112870000Y-97795000D03*
D14*
X96420000Y-81370000D03*
D12*
X120490000Y-95255000D03*
D13*
X84990000Y-76230000D03*
D10*
X129380000Y-102960000D03*
D12*
X135730000Y-85095000D03*
X135730000Y-95255000D03*
D14*
X137060000Y-109310000D03*
X98960000Y-73750000D03*
X88800000Y-104230000D03*
X142140000Y-81370000D03*
D12*
X105250000Y-87635000D03*
D10*
X96360000Y-105500000D03*
X121760000Y-110580000D03*
X137000000Y-85180000D03*
D12*
X138270000Y-90175000D03*
D14*
X101500000Y-68670000D03*
X121820000Y-104230000D03*
D10*
X126840000Y-108040000D03*
D12*
X102710000Y-69855000D03*
D14*
X98960000Y-88990000D03*
D10*
X126840000Y-100420000D03*
D14*
X129440000Y-78830000D03*
D13*
X102770000Y-101630000D03*
D10*
X103980000Y-108040000D03*
D12*
X112870000Y-107955000D03*
X84930000Y-72395000D03*
D13*
X87530000Y-111790000D03*
D12*
X100170000Y-100335000D03*
D14*
X137060000Y-83910000D03*
D12*
X125570000Y-77475000D03*
D10*
X119220000Y-87720000D03*
D12*
X128110000Y-92715000D03*
D14*
X93880000Y-111850000D03*
X96420000Y-101690000D03*
D10*
X111600000Y-100420000D03*
D14*
X88800000Y-81370000D03*
D12*
X90010000Y-90175000D03*
D10*
X101440000Y-92800000D03*
D13*
X118010000Y-83850000D03*
X100230000Y-111790000D03*
D10*
X96360000Y-69940000D03*
D13*
X107850000Y-81310000D03*
D12*
X95090000Y-97795000D03*
X117950000Y-107955000D03*
D13*
X90070000Y-76230000D03*
X92610000Y-88930000D03*
D10*
X93820000Y-102960000D03*
X83660000Y-95340000D03*
D13*
X84990000Y-73690000D03*
X102770000Y-83850000D03*
D14*
X124360000Y-106770000D03*
D12*
X117950000Y-69855000D03*
D13*
X92610000Y-96550000D03*
D14*
X86260000Y-106770000D03*
D12*
X97630000Y-100335000D03*
D10*
X129380000Y-82640000D03*
D13*
X102770000Y-68610000D03*
D12*
X84930000Y-105415000D03*
D14*
X83720000Y-76290000D03*
D10*
X137000000Y-105500000D03*
D14*
X86260000Y-81370000D03*
D10*
X109060000Y-77560000D03*
D12*
X140810000Y-92715000D03*
D10*
X91280000Y-77560000D03*
D12*
X110330000Y-95255000D03*
D14*
X119280000Y-91530000D03*
X98960000Y-101690000D03*
X114200000Y-96610000D03*
D12*
X105250000Y-74935000D03*
D13*
X95150000Y-94010000D03*
D10*
X142080000Y-72480000D03*
D12*
X140810000Y-107955000D03*
X115410000Y-107955000D03*
X123030000Y-102875000D03*
X95090000Y-80015000D03*
X107790000Y-105415000D03*
D13*
X123090000Y-106710000D03*
X90070000Y-71150000D03*
D10*
X142080000Y-69940000D03*
D13*
X110390000Y-76230000D03*
D14*
X142140000Y-109310000D03*
D12*
X102710000Y-74935000D03*
D13*
X95150000Y-88930000D03*
D14*
X119280000Y-101690000D03*
X142140000Y-83910000D03*
X104040000Y-78830000D03*
D12*
X133190000Y-97795000D03*
D13*
X133250000Y-88930000D03*
D14*
X111660000Y-73750000D03*
D10*
X98900000Y-92800000D03*
D14*
X119280000Y-83910000D03*
D10*
X106520000Y-72480000D03*
D14*
X91340000Y-81370000D03*
X83720000Y-106770000D03*
X129440000Y-76290000D03*
D10*
X137000000Y-100420000D03*
D12*
X120490000Y-85095000D03*
X97630000Y-69855000D03*
D14*
X91340000Y-109310000D03*
D12*
X97630000Y-107955000D03*
X133190000Y-74935000D03*
D10*
X101440000Y-102960000D03*
D13*
X138330000Y-78770000D03*
D11*
X80418000Y-106760000D03*
D10*
X83660000Y-69940000D03*
D12*
X95090000Y-110495000D03*
D13*
X112930000Y-81310000D03*
D10*
X139540000Y-77560000D03*
D14*
X124360000Y-81370000D03*
D13*
X123090000Y-96550000D03*
D12*
X87470000Y-69855000D03*
D13*
X118010000Y-68610000D03*
D14*
X134520000Y-78830000D03*
D12*
X130650000Y-102875000D03*
D10*
X134460000Y-69940000D03*
X101440000Y-90260000D03*
D13*
X90070000Y-94010000D03*
D10*
X126840000Y-82640000D03*
D12*
X102710000Y-92715000D03*
D13*
X90070000Y-73690000D03*
D14*
X119280000Y-96610000D03*
X139600000Y-109310000D03*
D13*
X84990000Y-106710000D03*
D10*
X129380000Y-75020000D03*
D13*
X102770000Y-76230000D03*
D10*
X109060000Y-69940000D03*
D12*
X125570000Y-90175000D03*
D13*
X107850000Y-106710000D03*
D14*
X139600000Y-101690000D03*
X96420000Y-86450000D03*
D13*
X120550000Y-83850000D03*
X128170000Y-71150000D03*
X128170000Y-78770000D03*
X107850000Y-104170000D03*
D10*
X83660000Y-72480000D03*
D12*
X84930000Y-85095000D03*
D13*
X97690000Y-104170000D03*
D12*
X100170000Y-87635000D03*
X105250000Y-107955000D03*
D10*
X116680000Y-97880000D03*
D14*
X106580000Y-101690000D03*
D10*
X142080000Y-80100000D03*
D13*
X123090000Y-88930000D03*
D10*
X129380000Y-110580000D03*
X86200000Y-105500000D03*
D13*
X102770000Y-104170000D03*
D14*
X109120000Y-99150000D03*
D12*
X130650000Y-92715000D03*
D10*
X119220000Y-108040000D03*
D13*
X120550000Y-88930000D03*
D14*
X104040000Y-81370000D03*
D13*
X138330000Y-111790000D03*
D10*
X106520000Y-82640000D03*
D12*
X130650000Y-69855000D03*
D13*
X135790000Y-96550000D03*
X95150000Y-81310000D03*
D12*
X120490000Y-97795000D03*
D10*
X86200000Y-87720000D03*
X98900000Y-90260000D03*
D12*
X105250000Y-95255000D03*
X115410000Y-95255000D03*
X95090000Y-82555000D03*
X133190000Y-110495000D03*
D14*
X119280000Y-81370000D03*
D12*
X133190000Y-90175000D03*
D14*
X104040000Y-94070000D03*
X111660000Y-78830000D03*
D13*
X133250000Y-73690000D03*
D10*
X142080000Y-110580000D03*
X83660000Y-85180000D03*
D12*
X97630000Y-102875000D03*
X133190000Y-77475000D03*
D13*
X92610000Y-99090000D03*
D12*
X102710000Y-72395000D03*
X123030000Y-110495000D03*
D13*
X95150000Y-83850000D03*
D14*
X101500000Y-96610000D03*
D13*
X95150000Y-68610000D03*
D14*
X137060000Y-81370000D03*
D10*
X114140000Y-87720000D03*
D13*
X97690000Y-78770000D03*
D10*
X111600000Y-82640000D03*
D13*
X130710000Y-86390000D03*
D14*
X109120000Y-76290000D03*
D11*
X80418000Y-109300000D03*
D13*
X102770000Y-106710000D03*
D10*
X93820000Y-85180000D03*
X134460000Y-108040000D03*
X137000000Y-95340000D03*
X91280000Y-95340000D03*
D14*
X91340000Y-104230000D03*
D10*
X131920000Y-100420000D03*
D13*
X138330000Y-99090000D03*
X128170000Y-101630000D03*
D12*
X128110000Y-97795000D03*
D10*
X129380000Y-108040000D03*
D12*
X133190000Y-105415000D03*
D10*
X101440000Y-110580000D03*
M02*
