M48
; DRILL file {KiCad 9.0.1} date 2025-05-07T17:16:51-0400
; FORMAT={-:-/ absolute / inch / decimal}
; #@! TF.CreationDate,2025-05-07T17:16:51-04:00
; #@! TF.GenerationSoftware,Kicad,Pcbnew,9.0.1
; #@! TF.FileFunction,Plated,1,2,PTH
FMAT,2
INCH
; #@! TA.AperFunction,Plated,PTH,ComponentDrill
T1C0.0315
%
G90
G05
T1
X3.2961Y-2.7035
X3.2961Y-2.8035
X3.2961Y-2.9035
X3.2961Y-3.0035
X3.2961Y-3.1035
X3.2961Y-3.2035
X3.2961Y-3.3035
X3.2961Y-3.4035
X3.2961Y-3.5035
X3.2961Y-3.6035
X3.2961Y-3.7035
X3.2961Y-3.8035
X3.2961Y-3.9035
X3.2961Y-4.0035
X3.2961Y-4.1035
X3.2961Y-4.2035
X3.2961Y-4.3035
X3.2961Y-4.4035
X3.3961Y-2.7035
X3.3961Y-2.8035
X3.3961Y-2.9035
X3.3961Y-3.0035
X3.3961Y-3.1035
X3.3961Y-3.2035
X3.3961Y-3.3035
X3.3961Y-3.4035
X3.3961Y-3.5035
X3.3961Y-3.6035
X3.3961Y-3.7035
X3.3961Y-3.8035
X3.3961Y-3.9035
X3.3961Y-4.0035
X3.3961Y-4.1035
X3.3961Y-4.2035
X3.3961Y-4.3035
X3.3961Y-4.4035
X3.4961Y-2.7035
X3.4961Y-2.8035
X3.4961Y-2.9035
X3.4961Y-3.0035
X3.4961Y-3.1035
X3.4961Y-3.2035
X3.4961Y-3.3035
X3.4961Y-3.4035
X3.4961Y-3.5035
X3.4961Y-3.6035
X3.4961Y-3.7035
X3.4961Y-3.8035
X3.4961Y-3.9035
X3.4961Y-4.0035
X3.4961Y-4.1035
X3.4961Y-4.2035
X3.4961Y-4.3035
X3.4961Y-4.4035
X3.5961Y-2.7035
X3.5961Y-2.8035
X3.5961Y-2.9035
X3.5961Y-3.0035
X3.5961Y-3.1035
X3.5961Y-3.2035
X3.5961Y-3.3035
X3.5961Y-3.4035
X3.5961Y-3.5035
X3.5961Y-3.6035
X3.5961Y-3.7035
X3.5961Y-3.8035
X3.5961Y-3.9035
X3.5961Y-4.0035
X3.5961Y-4.1035
X3.5961Y-4.2035
X3.5961Y-4.3035
X3.5961Y-4.4035
X3.6961Y-2.7035
X3.6961Y-2.8035
X3.6961Y-2.9035
X3.6961Y-3.0035
X3.6961Y-3.1035
X3.6961Y-3.2035
X3.6961Y-3.3035
X3.6961Y-3.4035
X3.6961Y-3.5035
X3.6961Y-3.6035
X3.6961Y-3.7035
X3.6961Y-3.8035
X3.6961Y-3.9035
X3.6961Y-4.0035
X3.6961Y-4.1035
X3.6961Y-4.2035
X3.6961Y-4.3035
X3.6961Y-4.4035
X3.7961Y-2.7035
X3.7961Y-2.8035
X3.7961Y-2.9035
X3.7961Y-3.0035
X3.7961Y-3.1035
X3.7961Y-3.2035
X3.7961Y-3.3035
X3.7961Y-3.4035
X3.7961Y-3.5035
X3.7961Y-3.6035
X3.7961Y-3.7035
X3.7961Y-3.8035
X3.7961Y-3.9035
X3.7961Y-4.0035
X3.7961Y-4.1035
X3.7961Y-4.2035
X3.7961Y-4.3035
X3.7961Y-4.4035
X3.8961Y-2.7035
X3.8961Y-2.8035
X3.8961Y-2.9035
X3.8961Y-3.0035
X3.8961Y-3.1035
X3.8961Y-3.2035
X3.8961Y-3.3035
X3.8961Y-3.4035
X3.8961Y-3.5035
X3.8961Y-3.6035
X3.8961Y-3.7035
X3.8961Y-3.8035
X3.8961Y-3.9035
X3.8961Y-4.0035
X3.8961Y-4.1035
X3.8961Y-4.2035
X3.8961Y-4.3035
X3.8961Y-4.4035
X3.9961Y-2.7035
X3.9961Y-2.8035
X3.9961Y-2.9035
X3.9961Y-3.0035
X3.9961Y-3.1035
X3.9961Y-3.2035
X3.9961Y-3.3035
X3.9961Y-3.4035
X3.9961Y-3.5035
X3.9961Y-3.6035
X3.9961Y-3.7035
X3.9961Y-3.8035
X3.9961Y-3.9035
X3.9961Y-4.0035
X3.9961Y-4.1035
X3.9961Y-4.2035
X3.9961Y-4.3035
X3.9961Y-4.4035
X4.0961Y-2.7035
X4.0961Y-2.8035
X4.0961Y-2.9035
X4.0961Y-3.0035
X4.0961Y-3.1035
X4.0961Y-3.2035
X4.0961Y-3.3035
X4.0961Y-3.4035
X4.0961Y-3.5035
X4.0961Y-3.6035
X4.0961Y-3.7035
X4.0961Y-3.8035
X4.0961Y-3.9035
X4.0961Y-4.0035
X4.0961Y-4.1035
X4.0961Y-4.2035
X4.0961Y-4.3035
X4.0961Y-4.4035
X4.1961Y-2.7035
X4.1961Y-2.8035
X4.1961Y-2.9035
X4.1961Y-3.0035
X4.1961Y-3.1035
X4.1961Y-3.2035
X4.1961Y-3.3035
X4.1961Y-3.4035
X4.1961Y-3.5035
X4.1961Y-3.6035
X4.1961Y-3.7035
X4.1961Y-3.8035
X4.1961Y-3.9035
X4.1961Y-4.0035
X4.1961Y-4.1035
X4.1961Y-4.2035
X4.1961Y-4.3035
X4.1961Y-4.4035
X4.2961Y-2.7035
X4.2961Y-2.8035
X4.2961Y-2.9035
X4.2961Y-3.0035
X4.2961Y-3.1035
X4.2961Y-3.2035
X4.2961Y-3.3035
X4.2961Y-3.4035
X4.2961Y-3.5035
X4.2961Y-3.6035
X4.2961Y-3.7035
X4.2961Y-3.8035
X4.2961Y-3.9035
X4.2961Y-4.0035
X4.2961Y-4.1035
X4.2961Y-4.2035
X4.2961Y-4.3035
X4.2961Y-4.4035
X4.3961Y-2.7035
X4.3961Y-2.8035
X4.3961Y-2.9035
X4.3961Y-3.0035
X4.3961Y-3.1035
X4.3961Y-3.2035
X4.3961Y-3.3035
X4.3961Y-3.4035
X4.3961Y-3.5035
X4.3961Y-3.6035
X4.3961Y-3.7035
X4.3961Y-3.8035
X4.3961Y-3.9035
X4.3961Y-4.0035
X4.3961Y-4.1035
X4.3961Y-4.2035
X4.3961Y-4.3035
X4.3961Y-4.4035
X4.4961Y-2.7035
X4.4961Y-2.8035
X4.4961Y-2.9035
X4.4961Y-3.0035
X4.4961Y-3.1035
X4.4961Y-3.2035
X4.4961Y-3.3035
X4.4961Y-3.4035
X4.4961Y-3.5035
X4.4961Y-3.6035
X4.4961Y-3.7035
X4.4961Y-3.8035
X4.4961Y-3.9035
X4.4961Y-4.0035
X4.4961Y-4.1035
X4.4961Y-4.2035
X4.4961Y-4.3035
X4.4961Y-4.4035
X4.5961Y-2.7035
X4.5961Y-2.8035
X4.5961Y-2.9035
X4.5961Y-3.0035
X4.5961Y-3.1035
X4.5961Y-3.2035
X4.5961Y-3.3035
X4.5961Y-3.4035
X4.5961Y-3.5035
X4.5961Y-3.6035
X4.5961Y-3.7035
X4.5961Y-3.8035
X4.5961Y-3.9035
X4.5961Y-4.0035
X4.5961Y-4.1035
X4.5961Y-4.2035
X4.5961Y-4.3035
X4.5961Y-4.4035
X4.6961Y-2.7035
X4.6961Y-2.8035
X4.6961Y-2.9035
X4.6961Y-3.0035
X4.6961Y-3.1035
X4.6961Y-3.2035
X4.6961Y-3.3035
X4.6961Y-3.4035
X4.6961Y-3.5035
X4.6961Y-3.6035
X4.6961Y-3.7035
X4.6961Y-3.8035
X4.6961Y-3.9035
X4.6961Y-4.0035
X4.6961Y-4.1035
X4.6961Y-4.2035
X4.6961Y-4.3035
X4.6961Y-4.4035
X4.7961Y-2.7035
X4.7961Y-2.8035
X4.7961Y-2.9035
X4.7961Y-3.0035
X4.7961Y-3.1035
X4.7961Y-3.2035
X4.7961Y-3.3035
X4.7961Y-3.4035
X4.7961Y-3.5035
X4.7961Y-3.6035
X4.7961Y-3.7035
X4.7961Y-3.8035
X4.7961Y-3.9035
X4.7961Y-4.0035
X4.7961Y-4.1035
X4.7961Y-4.2035
X4.7961Y-4.3035
X4.7961Y-4.4035
X4.8961Y-2.7035
X4.8961Y-2.8035
X4.8961Y-2.9035
X4.8961Y-3.0035
X4.8961Y-3.1035
X4.8961Y-3.2035
X4.8961Y-3.3035
X4.8961Y-3.4035
X4.8961Y-3.5035
X4.8961Y-3.6035
X4.8961Y-3.7035
X4.8961Y-3.8035
X4.8961Y-3.9035
X4.8961Y-4.0035
X4.8961Y-4.1035
X4.8961Y-4.2035
X4.8961Y-4.3035
X4.8961Y-4.4035
X4.9961Y-2.7035
X4.9961Y-2.8035
X4.9961Y-2.9035
X4.9961Y-3.0035
X4.9961Y-3.1035
X4.9961Y-3.2035
X4.9961Y-3.3035
X4.9961Y-3.4035
X4.9961Y-3.5035
X4.9961Y-3.6035
X4.9961Y-3.7035
X4.9961Y-3.8035
X4.9961Y-3.9035
X4.9961Y-4.0035
X4.9961Y-4.1035
X4.9961Y-4.2035
X4.9961Y-4.3035
X4.9961Y-4.4035
X5.0961Y-2.7035
X5.0961Y-2.8035
X5.0961Y-2.9035
X5.0961Y-3.0035
X5.0961Y-3.1035
X5.0961Y-3.2035
X5.0961Y-3.3035
X5.0961Y-3.4035
X5.0961Y-3.5035
X5.0961Y-3.6035
X5.0961Y-3.7035
X5.0961Y-3.8035
X5.0961Y-3.9035
X5.0961Y-4.0035
X5.0961Y-4.1035
X5.0961Y-4.2035
X5.0961Y-4.3035
X5.0961Y-4.4035
X5.1961Y-2.7035
X5.1961Y-2.8035
X5.1961Y-2.9035
X5.1961Y-3.0035
X5.1961Y-3.1035
X5.1961Y-3.2035
X5.1961Y-3.3035
X5.1961Y-3.4035
X5.1961Y-3.5035
X5.1961Y-3.6035
X5.1961Y-3.7035
X5.1961Y-3.8035
X5.1961Y-3.9035
X5.1961Y-4.0035
X5.1961Y-4.1035
X5.1961Y-4.2035
X5.1961Y-4.3035
X5.1961Y-4.4035
X5.2961Y-2.7035
X5.2961Y-2.8035
X5.2961Y-2.9035
X5.2961Y-3.0035
X5.2961Y-3.1035
X5.2961Y-3.2035
X5.2961Y-3.3035
X5.2961Y-3.4035
X5.2961Y-3.5035
X5.2961Y-3.6035
X5.2961Y-3.7035
X5.2961Y-3.8035
X5.2961Y-3.9035
X5.2961Y-4.0035
X5.2961Y-4.1035
X5.2961Y-4.2035
X5.2961Y-4.3035
X5.2961Y-4.4035
X5.3961Y-2.7035
X5.3961Y-2.8035
X5.3961Y-2.9035
X5.3961Y-3.0035
X5.3961Y-3.1035
X5.3961Y-3.2035
X5.3961Y-3.3035
X5.3961Y-3.4035
X5.3961Y-3.5035
X5.3961Y-3.6035
X5.3961Y-3.7035
X5.3961Y-3.8035
X5.3961Y-3.9035
X5.3961Y-4.0035
X5.3961Y-4.1035
X5.3961Y-4.2035
X5.3961Y-4.3035
X5.3961Y-4.4035
X5.4961Y-2.7035
X5.4961Y-2.8035
X5.4961Y-2.9035
X5.4961Y-3.0035
X5.4961Y-3.1035
X5.4961Y-3.2035
X5.4961Y-3.3035
X5.4961Y-3.4035
X5.4961Y-3.5035
X5.4961Y-3.6035
X5.4961Y-3.7035
X5.4961Y-3.8035
X5.4961Y-3.9035
X5.4961Y-4.0035
X5.4961Y-4.1035
X5.4961Y-4.2035
X5.4961Y-4.3035
X5.4961Y-4.4035
X5.5961Y-2.7035
X5.5961Y-2.8035
X5.5961Y-2.9035
X5.5961Y-3.0035
X5.5961Y-3.1035
X5.5961Y-3.2035
X5.5961Y-3.3035
X5.5961Y-3.4035
X5.5961Y-3.5035
X5.5961Y-3.6035
X5.5961Y-3.7035
X5.5961Y-3.8035
X5.5961Y-3.9035
X5.5961Y-4.0035
X5.5961Y-4.1035
X5.5961Y-4.2035
X5.5961Y-4.3035
X5.5961Y-4.4035
M30
