G04 #@! TF.GenerationSoftware,KiCad,Pcbnew,9.0.1*
G04 #@! TF.CreationDate,2025-05-07T17:16:48-04:00*
G04 #@! TF.ProjectId,matrix-protoboard_18x24,6d617472-6978-42d7-9072-6f746f626f61,rev?*
G04 #@! TF.SameCoordinates,Original*
G04 #@! TF.FileFunction,Legend,Top*
G04 #@! TF.FilePolarity,Positive*
%FSLAX46Y46*%
G04 Gerber Fmt 4.6, Leading zero omitted, Abs format (unit mm)*
G04 Created by KiCad (PCBNEW 9.0.1) date 2025-05-07 17:16:48*
%MOMM*%
%LPD*%
G01*
G04 APERTURE LIST*
G04 Aperture macros list*
%AMFreePoly0*
4,1,77,0.076255,0.950392,0.076609,0.950246,0.141775,0.906775,0.408050,0.640500,0.550000,0.640500,0.626255,0.625392,0.626609,0.625246,0.699279,0.573850,0.735246,0.516609,0.735392,0.516255,0.750168,0.428482,0.735392,0.363745,0.735246,0.363391,0.691775,0.298225,0.550500,0.156950,0.550500,-0.276950,0.691775,-0.418225,0.735246,-0.483391,0.735392,-0.483745,0.750168,-0.571518,
0.735392,-0.636255,0.735246,-0.636609,0.683850,-0.709279,0.626609,-0.745246,0.626255,-0.745392,0.550000,-0.760500,0.538500,-0.760500,0.538500,-0.763000,0.523392,-0.839255,0.523246,-0.839609,0.471850,-0.912279,0.414609,-0.948246,0.414255,-0.948392,0.326482,-0.963168,0.261745,-0.948392,0.261391,-0.948246,0.196225,-0.904775,-0.005000,-0.703550,-0.206225,-0.904775,-0.271391,-0.948246,
-0.271745,-0.948392,-0.359518,-0.963168,-0.424255,-0.948392,-0.424609,-0.948246,-0.497279,-0.896850,-0.533246,-0.839609,-0.533392,-0.839255,-0.548500,-0.763000,-0.548500,-0.760500,-0.550000,-0.760500,-0.626255,-0.745392,-0.626609,-0.745246,-0.699279,-0.693850,-0.735246,-0.636609,-0.735392,-0.636255,-0.750168,-0.548482,-0.735392,-0.483745,-0.735246,-0.483391,-0.691775,-0.418225,-0.550500,-0.276950,
-0.550500,0.156950,-0.691775,0.298225,-0.735246,0.363391,-0.735392,0.363745,-0.750168,0.451518,-0.735392,0.516255,-0.735246,0.516609,-0.683850,0.589279,-0.626609,0.625246,-0.626255,0.625392,-0.550000,0.640500,-0.408050,0.640500,-0.141775,0.906775,-0.076609,0.950246,-0.076255,0.950392,0.011518,0.965168,0.076255,0.950392,0.076255,0.950392,$1*%
%AMFreePoly1*
4,1,58,0.136255,0.745392,0.136609,0.745246,0.201775,0.701775,0.440050,0.463500,0.583000,0.463500,0.659255,0.448392,0.659609,0.448246,0.732279,0.396850,0.768246,0.339609,0.768392,0.339255,0.783168,0.251482,0.768392,0.186745,0.768246,0.186391,0.724775,0.121225,0.518550,-0.085000,0.723775,-0.290225,0.767246,-0.355391,0.767392,-0.355745,0.782168,-0.443518,0.767392,-0.508255,
0.767246,-0.508609,0.715850,-0.581279,0.658609,-0.617246,0.658255,-0.617392,0.603283,-0.628283,0.592392,-0.683255,0.592246,-0.683609,0.540850,-0.756279,0.483609,-0.792246,0.483255,-0.792392,0.395482,-0.807168,0.330745,-0.792392,0.330391,-0.792246,0.265225,-0.748775,0.060000,-0.543550,-0.146225,-0.749775,-0.211391,-0.793246,-0.211745,-0.793392,-0.299518,-0.808168,-0.364255,-0.793392,
-0.364609,-0.793246,-0.437279,-0.741850,-0.473246,-0.684609,-0.473392,-0.684255,-0.488500,-0.608000,-0.488500,-0.465050,-0.726775,-0.226775,-0.770246,-0.161609,-0.770392,-0.161255,-0.785168,-0.073482,-0.770392,-0.008745,-0.770246,-0.008391,-0.726775,0.056775,-0.081775,0.701775,-0.016609,0.745246,-0.016255,0.745392,0.071518,0.760168,0.136255,0.745392,0.136255,0.745392,$1*%
G04 Aperture macros list end*
%ADD10C,0.127000*%
%ADD11C,0.150000*%
%ADD12FreePoly0,90.000000*%
%ADD13O,3.448000X1.924000*%
%ADD14FreePoly1,0.000000*%
%ADD15FreePoly0,0.000000*%
%ADD16C,1.800000*%
%ADD17C,2.600000*%
G04 APERTURE END LIST*
D10*
X143633406Y-104331762D02*
X143633406Y-104622048D01*
X143633406Y-104476905D02*
X143125406Y-104476905D01*
X143125406Y-104476905D02*
X143197977Y-104525286D01*
X143197977Y-104525286D02*
X143246358Y-104573667D01*
X143246358Y-104573667D02*
X143270549Y-104622048D01*
X143294739Y-103896333D02*
X143633406Y-103896333D01*
X143101216Y-104017285D02*
X143464073Y-104138238D01*
X143464073Y-104138238D02*
X143464073Y-103823761D01*
X82724593Y-70936904D02*
X82724593Y-70985285D01*
X82724593Y-70985285D02*
X82700403Y-71033666D01*
X82700403Y-71033666D02*
X82676212Y-71057856D01*
X82676212Y-71057856D02*
X82627831Y-71082047D01*
X82627831Y-71082047D02*
X82531069Y-71106237D01*
X82531069Y-71106237D02*
X82410117Y-71106237D01*
X82410117Y-71106237D02*
X82313355Y-71082047D01*
X82313355Y-71082047D02*
X82264974Y-71057856D01*
X82264974Y-71057856D02*
X82240784Y-71033666D01*
X82240784Y-71033666D02*
X82216593Y-70985285D01*
X82216593Y-70985285D02*
X82216593Y-70936904D01*
X82216593Y-70936904D02*
X82240784Y-70888523D01*
X82240784Y-70888523D02*
X82264974Y-70864332D01*
X82264974Y-70864332D02*
X82313355Y-70840142D01*
X82313355Y-70840142D02*
X82410117Y-70815951D01*
X82410117Y-70815951D02*
X82531069Y-70815951D01*
X82531069Y-70815951D02*
X82627831Y-70840142D01*
X82627831Y-70840142D02*
X82676212Y-70864332D01*
X82676212Y-70864332D02*
X82700403Y-70888523D01*
X82700403Y-70888523D02*
X82724593Y-70936904D01*
X82216593Y-71590047D02*
X82216593Y-71299761D01*
X82216593Y-71444904D02*
X82724593Y-71444904D01*
X82724593Y-71444904D02*
X82652022Y-71396523D01*
X82652022Y-71396523D02*
X82603641Y-71348142D01*
X82603641Y-71348142D02*
X82579450Y-71299761D01*
D11*
X131694286Y-113580819D02*
X132265714Y-113580819D01*
X131980000Y-114580819D02*
X131980000Y-113580819D01*
X104040000Y-67169819D02*
X104040000Y-66169819D01*
D10*
X82724593Y-88716904D02*
X82724593Y-88765285D01*
X82724593Y-88765285D02*
X82700403Y-88813666D01*
X82700403Y-88813666D02*
X82676212Y-88837856D01*
X82676212Y-88837856D02*
X82627831Y-88862047D01*
X82627831Y-88862047D02*
X82531069Y-88886237D01*
X82531069Y-88886237D02*
X82410117Y-88886237D01*
X82410117Y-88886237D02*
X82313355Y-88862047D01*
X82313355Y-88862047D02*
X82264974Y-88837856D01*
X82264974Y-88837856D02*
X82240784Y-88813666D01*
X82240784Y-88813666D02*
X82216593Y-88765285D01*
X82216593Y-88765285D02*
X82216593Y-88716904D01*
X82216593Y-88716904D02*
X82240784Y-88668523D01*
X82240784Y-88668523D02*
X82264974Y-88644332D01*
X82264974Y-88644332D02*
X82313355Y-88620142D01*
X82313355Y-88620142D02*
X82410117Y-88595951D01*
X82410117Y-88595951D02*
X82531069Y-88595951D01*
X82531069Y-88595951D02*
X82627831Y-88620142D01*
X82627831Y-88620142D02*
X82676212Y-88644332D01*
X82676212Y-88644332D02*
X82700403Y-88668523D01*
X82700403Y-88668523D02*
X82724593Y-88716904D01*
X82506879Y-89176523D02*
X82531069Y-89128142D01*
X82531069Y-89128142D02*
X82555260Y-89103952D01*
X82555260Y-89103952D02*
X82603641Y-89079761D01*
X82603641Y-89079761D02*
X82627831Y-89079761D01*
X82627831Y-89079761D02*
X82676212Y-89103952D01*
X82676212Y-89103952D02*
X82700403Y-89128142D01*
X82700403Y-89128142D02*
X82724593Y-89176523D01*
X82724593Y-89176523D02*
X82724593Y-89273285D01*
X82724593Y-89273285D02*
X82700403Y-89321666D01*
X82700403Y-89321666D02*
X82676212Y-89345857D01*
X82676212Y-89345857D02*
X82627831Y-89370047D01*
X82627831Y-89370047D02*
X82603641Y-89370047D01*
X82603641Y-89370047D02*
X82555260Y-89345857D01*
X82555260Y-89345857D02*
X82531069Y-89321666D01*
X82531069Y-89321666D02*
X82506879Y-89273285D01*
X82506879Y-89273285D02*
X82506879Y-89176523D01*
X82506879Y-89176523D02*
X82482688Y-89128142D01*
X82482688Y-89128142D02*
X82458498Y-89103952D01*
X82458498Y-89103952D02*
X82410117Y-89079761D01*
X82410117Y-89079761D02*
X82313355Y-89079761D01*
X82313355Y-89079761D02*
X82264974Y-89103952D01*
X82264974Y-89103952D02*
X82240784Y-89128142D01*
X82240784Y-89128142D02*
X82216593Y-89176523D01*
X82216593Y-89176523D02*
X82216593Y-89273285D01*
X82216593Y-89273285D02*
X82240784Y-89321666D01*
X82240784Y-89321666D02*
X82264974Y-89345857D01*
X82264974Y-89345857D02*
X82313355Y-89370047D01*
X82313355Y-89370047D02*
X82410117Y-89370047D01*
X82410117Y-89370047D02*
X82458498Y-89345857D01*
X82458498Y-89345857D02*
X82482688Y-89321666D01*
X82482688Y-89321666D02*
X82506879Y-89273285D01*
X143633406Y-109411762D02*
X143633406Y-109702048D01*
X143633406Y-109556905D02*
X143125406Y-109556905D01*
X143125406Y-109556905D02*
X143197977Y-109605286D01*
X143197977Y-109605286D02*
X143246358Y-109653667D01*
X143246358Y-109653667D02*
X143270549Y-109702048D01*
X143125406Y-108976333D02*
X143125406Y-109073095D01*
X143125406Y-109073095D02*
X143149596Y-109121476D01*
X143149596Y-109121476D02*
X143173787Y-109145666D01*
X143173787Y-109145666D02*
X143246358Y-109194047D01*
X143246358Y-109194047D02*
X143343120Y-109218238D01*
X143343120Y-109218238D02*
X143536644Y-109218238D01*
X143536644Y-109218238D02*
X143585025Y-109194047D01*
X143585025Y-109194047D02*
X143609216Y-109169857D01*
X143609216Y-109169857D02*
X143633406Y-109121476D01*
X143633406Y-109121476D02*
X143633406Y-109024714D01*
X143633406Y-109024714D02*
X143609216Y-108976333D01*
X143609216Y-108976333D02*
X143585025Y-108952142D01*
X143585025Y-108952142D02*
X143536644Y-108927952D01*
X143536644Y-108927952D02*
X143415692Y-108927952D01*
X143415692Y-108927952D02*
X143367311Y-108952142D01*
X143367311Y-108952142D02*
X143343120Y-108976333D01*
X143343120Y-108976333D02*
X143318930Y-109024714D01*
X143318930Y-109024714D02*
X143318930Y-109121476D01*
X143318930Y-109121476D02*
X143343120Y-109169857D01*
X143343120Y-109169857D02*
X143367311Y-109194047D01*
X143367311Y-109194047D02*
X143415692Y-109218238D01*
D11*
X124740952Y-114676057D02*
X124645714Y-114628438D01*
X124645714Y-114628438D02*
X124550476Y-114533200D01*
X124550476Y-114533200D02*
X124407619Y-114390342D01*
X124407619Y-114390342D02*
X124312381Y-114342723D01*
X124312381Y-114342723D02*
X124217143Y-114342723D01*
X124264762Y-114580819D02*
X124169524Y-114533200D01*
X124169524Y-114533200D02*
X124074286Y-114437961D01*
X124074286Y-114437961D02*
X124026667Y-114247485D01*
X124026667Y-114247485D02*
X124026667Y-113914152D01*
X124026667Y-113914152D02*
X124074286Y-113723676D01*
X124074286Y-113723676D02*
X124169524Y-113628438D01*
X124169524Y-113628438D02*
X124264762Y-113580819D01*
X124264762Y-113580819D02*
X124455238Y-113580819D01*
X124455238Y-113580819D02*
X124550476Y-113628438D01*
X124550476Y-113628438D02*
X124645714Y-113723676D01*
X124645714Y-113723676D02*
X124693333Y-113914152D01*
X124693333Y-113914152D02*
X124693333Y-114247485D01*
X124693333Y-114247485D02*
X124645714Y-114437961D01*
X124645714Y-114437961D02*
X124550476Y-114533200D01*
X124550476Y-114533200D02*
X124455238Y-114580819D01*
X124455238Y-114580819D02*
X124264762Y-114580819D01*
X136726667Y-113580819D02*
X137060000Y-114580819D01*
X137060000Y-114580819D02*
X137393333Y-113580819D01*
X91078095Y-114580819D02*
X91078095Y-113580819D01*
X91078095Y-113580819D02*
X91316190Y-113580819D01*
X91316190Y-113580819D02*
X91459047Y-113628438D01*
X91459047Y-113628438D02*
X91554285Y-113723676D01*
X91554285Y-113723676D02*
X91601904Y-113818914D01*
X91601904Y-113818914D02*
X91649523Y-114009390D01*
X91649523Y-114009390D02*
X91649523Y-114152247D01*
X91649523Y-114152247D02*
X91601904Y-114342723D01*
X91601904Y-114342723D02*
X91554285Y-114437961D01*
X91554285Y-114437961D02*
X91459047Y-114533200D01*
X91459047Y-114533200D02*
X91316190Y-114580819D01*
X91316190Y-114580819D02*
X91078095Y-114580819D01*
X96562857Y-114057009D02*
X96229524Y-114057009D01*
X96229524Y-114580819D02*
X96229524Y-113580819D01*
X96229524Y-113580819D02*
X96705714Y-113580819D01*
D10*
X143633406Y-101791762D02*
X143633406Y-102082048D01*
X143633406Y-101936905D02*
X143125406Y-101936905D01*
X143125406Y-101936905D02*
X143197977Y-101985286D01*
X143197977Y-101985286D02*
X143246358Y-102033667D01*
X143246358Y-102033667D02*
X143270549Y-102082048D01*
X143125406Y-101622428D02*
X143125406Y-101307952D01*
X143125406Y-101307952D02*
X143318930Y-101477285D01*
X143318930Y-101477285D02*
X143318930Y-101404714D01*
X143318930Y-101404714D02*
X143343120Y-101356333D01*
X143343120Y-101356333D02*
X143367311Y-101332142D01*
X143367311Y-101332142D02*
X143415692Y-101307952D01*
X143415692Y-101307952D02*
X143536644Y-101307952D01*
X143536644Y-101307952D02*
X143585025Y-101332142D01*
X143585025Y-101332142D02*
X143609216Y-101356333D01*
X143609216Y-101356333D02*
X143633406Y-101404714D01*
X143633406Y-101404714D02*
X143633406Y-101549857D01*
X143633406Y-101549857D02*
X143609216Y-101598238D01*
X143609216Y-101598238D02*
X143585025Y-101622428D01*
X143125406Y-84181095D02*
X143125406Y-84132714D01*
X143125406Y-84132714D02*
X143149596Y-84084333D01*
X143149596Y-84084333D02*
X143173787Y-84060143D01*
X143173787Y-84060143D02*
X143222168Y-84035952D01*
X143222168Y-84035952D02*
X143318930Y-84011762D01*
X143318930Y-84011762D02*
X143439882Y-84011762D01*
X143439882Y-84011762D02*
X143536644Y-84035952D01*
X143536644Y-84035952D02*
X143585025Y-84060143D01*
X143585025Y-84060143D02*
X143609216Y-84084333D01*
X143609216Y-84084333D02*
X143633406Y-84132714D01*
X143633406Y-84132714D02*
X143633406Y-84181095D01*
X143633406Y-84181095D02*
X143609216Y-84229476D01*
X143609216Y-84229476D02*
X143585025Y-84253667D01*
X143585025Y-84253667D02*
X143536644Y-84277857D01*
X143536644Y-84277857D02*
X143439882Y-84302048D01*
X143439882Y-84302048D02*
X143318930Y-84302048D01*
X143318930Y-84302048D02*
X143222168Y-84277857D01*
X143222168Y-84277857D02*
X143173787Y-84253667D01*
X143173787Y-84253667D02*
X143149596Y-84229476D01*
X143149596Y-84229476D02*
X143125406Y-84181095D01*
X143125406Y-83576333D02*
X143125406Y-83673095D01*
X143125406Y-83673095D02*
X143149596Y-83721476D01*
X143149596Y-83721476D02*
X143173787Y-83745666D01*
X143173787Y-83745666D02*
X143246358Y-83794047D01*
X143246358Y-83794047D02*
X143343120Y-83818238D01*
X143343120Y-83818238D02*
X143536644Y-83818238D01*
X143536644Y-83818238D02*
X143585025Y-83794047D01*
X143585025Y-83794047D02*
X143609216Y-83769857D01*
X143609216Y-83769857D02*
X143633406Y-83721476D01*
X143633406Y-83721476D02*
X143633406Y-83624714D01*
X143633406Y-83624714D02*
X143609216Y-83576333D01*
X143609216Y-83576333D02*
X143585025Y-83552142D01*
X143585025Y-83552142D02*
X143536644Y-83527952D01*
X143536644Y-83527952D02*
X143415692Y-83527952D01*
X143415692Y-83527952D02*
X143367311Y-83552142D01*
X143367311Y-83552142D02*
X143343120Y-83576333D01*
X143343120Y-83576333D02*
X143318930Y-83624714D01*
X143318930Y-83624714D02*
X143318930Y-83721476D01*
X143318930Y-83721476D02*
X143343120Y-83769857D01*
X143343120Y-83769857D02*
X143367311Y-83794047D01*
X143367311Y-83794047D02*
X143415692Y-83818238D01*
D11*
X93640714Y-66646009D02*
X93974047Y-66646009D01*
X94116904Y-67169819D02*
X93640714Y-67169819D01*
X93640714Y-67169819D02*
X93640714Y-66169819D01*
X93640714Y-66169819D02*
X94116904Y-66169819D01*
X127209523Y-114580819D02*
X126876190Y-114104628D01*
X126638095Y-114580819D02*
X126638095Y-113580819D01*
X126638095Y-113580819D02*
X127019047Y-113580819D01*
X127019047Y-113580819D02*
X127114285Y-113628438D01*
X127114285Y-113628438D02*
X127161904Y-113676057D01*
X127161904Y-113676057D02*
X127209523Y-113771295D01*
X127209523Y-113771295D02*
X127209523Y-113914152D01*
X127209523Y-113914152D02*
X127161904Y-114009390D01*
X127161904Y-114009390D02*
X127114285Y-114057009D01*
X127114285Y-114057009D02*
X127019047Y-114104628D01*
X127019047Y-114104628D02*
X126638095Y-114104628D01*
D10*
X82216593Y-101586237D02*
X82216593Y-101295951D01*
X82216593Y-101441094D02*
X82724593Y-101441094D01*
X82724593Y-101441094D02*
X82652022Y-101392713D01*
X82652022Y-101392713D02*
X82603641Y-101344332D01*
X82603641Y-101344332D02*
X82579450Y-101295951D01*
X82724593Y-101755571D02*
X82724593Y-102070047D01*
X82724593Y-102070047D02*
X82531069Y-101900714D01*
X82531069Y-101900714D02*
X82531069Y-101973285D01*
X82531069Y-101973285D02*
X82506879Y-102021666D01*
X82506879Y-102021666D02*
X82482688Y-102045857D01*
X82482688Y-102045857D02*
X82434307Y-102070047D01*
X82434307Y-102070047D02*
X82313355Y-102070047D01*
X82313355Y-102070047D02*
X82264974Y-102045857D01*
X82264974Y-102045857D02*
X82240784Y-102021666D01*
X82240784Y-102021666D02*
X82216593Y-101973285D01*
X82216593Y-101973285D02*
X82216593Y-101828142D01*
X82216593Y-101828142D02*
X82240784Y-101779761D01*
X82240784Y-101779761D02*
X82264974Y-101755571D01*
X143633406Y-99251762D02*
X143633406Y-99542048D01*
X143633406Y-99396905D02*
X143125406Y-99396905D01*
X143125406Y-99396905D02*
X143197977Y-99445286D01*
X143197977Y-99445286D02*
X143246358Y-99493667D01*
X143246358Y-99493667D02*
X143270549Y-99542048D01*
X143173787Y-99058238D02*
X143149596Y-99034047D01*
X143149596Y-99034047D02*
X143125406Y-98985666D01*
X143125406Y-98985666D02*
X143125406Y-98864714D01*
X143125406Y-98864714D02*
X143149596Y-98816333D01*
X143149596Y-98816333D02*
X143173787Y-98792142D01*
X143173787Y-98792142D02*
X143222168Y-98767952D01*
X143222168Y-98767952D02*
X143270549Y-98767952D01*
X143270549Y-98767952D02*
X143343120Y-98792142D01*
X143343120Y-98792142D02*
X143633406Y-99082428D01*
X143633406Y-99082428D02*
X143633406Y-98767952D01*
D11*
X124735952Y-67265057D02*
X124640714Y-67217438D01*
X124640714Y-67217438D02*
X124545476Y-67122200D01*
X124545476Y-67122200D02*
X124402619Y-66979342D01*
X124402619Y-66979342D02*
X124307381Y-66931723D01*
X124307381Y-66931723D02*
X124212143Y-66931723D01*
X124259762Y-67169819D02*
X124164524Y-67122200D01*
X124164524Y-67122200D02*
X124069286Y-67026961D01*
X124069286Y-67026961D02*
X124021667Y-66836485D01*
X124021667Y-66836485D02*
X124021667Y-66503152D01*
X124021667Y-66503152D02*
X124069286Y-66312676D01*
X124069286Y-66312676D02*
X124164524Y-66217438D01*
X124164524Y-66217438D02*
X124259762Y-66169819D01*
X124259762Y-66169819D02*
X124450238Y-66169819D01*
X124450238Y-66169819D02*
X124545476Y-66217438D01*
X124545476Y-66217438D02*
X124640714Y-66312676D01*
X124640714Y-66312676D02*
X124688333Y-66503152D01*
X124688333Y-66503152D02*
X124688333Y-66836485D01*
X124688333Y-66836485D02*
X124640714Y-67026961D01*
X124640714Y-67026961D02*
X124545476Y-67122200D01*
X124545476Y-67122200D02*
X124450238Y-67169819D01*
X124450238Y-67169819D02*
X124259762Y-67169819D01*
D10*
X143125406Y-71481095D02*
X143125406Y-71432714D01*
X143125406Y-71432714D02*
X143149596Y-71384333D01*
X143149596Y-71384333D02*
X143173787Y-71360143D01*
X143173787Y-71360143D02*
X143222168Y-71335952D01*
X143222168Y-71335952D02*
X143318930Y-71311762D01*
X143318930Y-71311762D02*
X143439882Y-71311762D01*
X143439882Y-71311762D02*
X143536644Y-71335952D01*
X143536644Y-71335952D02*
X143585025Y-71360143D01*
X143585025Y-71360143D02*
X143609216Y-71384333D01*
X143609216Y-71384333D02*
X143633406Y-71432714D01*
X143633406Y-71432714D02*
X143633406Y-71481095D01*
X143633406Y-71481095D02*
X143609216Y-71529476D01*
X143609216Y-71529476D02*
X143585025Y-71553667D01*
X143585025Y-71553667D02*
X143536644Y-71577857D01*
X143536644Y-71577857D02*
X143439882Y-71602048D01*
X143439882Y-71602048D02*
X143318930Y-71602048D01*
X143318930Y-71602048D02*
X143222168Y-71577857D01*
X143222168Y-71577857D02*
X143173787Y-71553667D01*
X143173787Y-71553667D02*
X143149596Y-71529476D01*
X143149596Y-71529476D02*
X143125406Y-71481095D01*
X143633406Y-70827952D02*
X143633406Y-71118238D01*
X143633406Y-70973095D02*
X143125406Y-70973095D01*
X143125406Y-70973095D02*
X143197977Y-71021476D01*
X143197977Y-71021476D02*
X143246358Y-71069857D01*
X143246358Y-71069857D02*
X143270549Y-71118238D01*
D11*
X129154286Y-114533200D02*
X129297143Y-114580819D01*
X129297143Y-114580819D02*
X129535238Y-114580819D01*
X129535238Y-114580819D02*
X129630476Y-114533200D01*
X129630476Y-114533200D02*
X129678095Y-114485580D01*
X129678095Y-114485580D02*
X129725714Y-114390342D01*
X129725714Y-114390342D02*
X129725714Y-114295104D01*
X129725714Y-114295104D02*
X129678095Y-114199866D01*
X129678095Y-114199866D02*
X129630476Y-114152247D01*
X129630476Y-114152247D02*
X129535238Y-114104628D01*
X129535238Y-114104628D02*
X129344762Y-114057009D01*
X129344762Y-114057009D02*
X129249524Y-114009390D01*
X129249524Y-114009390D02*
X129201905Y-113961771D01*
X129201905Y-113961771D02*
X129154286Y-113866533D01*
X129154286Y-113866533D02*
X129154286Y-113771295D01*
X129154286Y-113771295D02*
X129201905Y-113676057D01*
X129201905Y-113676057D02*
X129249524Y-113628438D01*
X129249524Y-113628438D02*
X129344762Y-113580819D01*
X129344762Y-113580819D02*
X129582857Y-113580819D01*
X129582857Y-113580819D02*
X129725714Y-113628438D01*
D10*
X143125406Y-86721095D02*
X143125406Y-86672714D01*
X143125406Y-86672714D02*
X143149596Y-86624333D01*
X143149596Y-86624333D02*
X143173787Y-86600143D01*
X143173787Y-86600143D02*
X143222168Y-86575952D01*
X143222168Y-86575952D02*
X143318930Y-86551762D01*
X143318930Y-86551762D02*
X143439882Y-86551762D01*
X143439882Y-86551762D02*
X143536644Y-86575952D01*
X143536644Y-86575952D02*
X143585025Y-86600143D01*
X143585025Y-86600143D02*
X143609216Y-86624333D01*
X143609216Y-86624333D02*
X143633406Y-86672714D01*
X143633406Y-86672714D02*
X143633406Y-86721095D01*
X143633406Y-86721095D02*
X143609216Y-86769476D01*
X143609216Y-86769476D02*
X143585025Y-86793667D01*
X143585025Y-86793667D02*
X143536644Y-86817857D01*
X143536644Y-86817857D02*
X143439882Y-86842048D01*
X143439882Y-86842048D02*
X143318930Y-86842048D01*
X143318930Y-86842048D02*
X143222168Y-86817857D01*
X143222168Y-86817857D02*
X143173787Y-86793667D01*
X143173787Y-86793667D02*
X143149596Y-86769476D01*
X143149596Y-86769476D02*
X143125406Y-86721095D01*
X143125406Y-86382428D02*
X143125406Y-86043761D01*
X143125406Y-86043761D02*
X143633406Y-86261476D01*
D11*
X99216904Y-66217438D02*
X99121666Y-66169819D01*
X99121666Y-66169819D02*
X98978809Y-66169819D01*
X98978809Y-66169819D02*
X98835952Y-66217438D01*
X98835952Y-66217438D02*
X98740714Y-66312676D01*
X98740714Y-66312676D02*
X98693095Y-66407914D01*
X98693095Y-66407914D02*
X98645476Y-66598390D01*
X98645476Y-66598390D02*
X98645476Y-66741247D01*
X98645476Y-66741247D02*
X98693095Y-66931723D01*
X98693095Y-66931723D02*
X98740714Y-67026961D01*
X98740714Y-67026961D02*
X98835952Y-67122200D01*
X98835952Y-67122200D02*
X98978809Y-67169819D01*
X98978809Y-67169819D02*
X99074047Y-67169819D01*
X99074047Y-67169819D02*
X99216904Y-67122200D01*
X99216904Y-67122200D02*
X99264523Y-67074580D01*
X99264523Y-67074580D02*
X99264523Y-66741247D01*
X99264523Y-66741247D02*
X99074047Y-66741247D01*
X116454286Y-67169819D02*
X116454286Y-66169819D01*
X116454286Y-66169819D02*
X117025714Y-67169819D01*
X117025714Y-67169819D02*
X117025714Y-66169819D01*
X141806667Y-113580819D02*
X142473333Y-114580819D01*
X142473333Y-113580819D02*
X141806667Y-114580819D01*
X113866667Y-114580819D02*
X113866667Y-113580819D01*
X113866667Y-113580819D02*
X114200000Y-114295104D01*
X114200000Y-114295104D02*
X114533333Y-113580819D01*
X114533333Y-113580819D02*
X114533333Y-114580819D01*
X129144286Y-67122200D02*
X129287143Y-67169819D01*
X129287143Y-67169819D02*
X129525238Y-67169819D01*
X129525238Y-67169819D02*
X129620476Y-67122200D01*
X129620476Y-67122200D02*
X129668095Y-67074580D01*
X129668095Y-67074580D02*
X129715714Y-66979342D01*
X129715714Y-66979342D02*
X129715714Y-66884104D01*
X129715714Y-66884104D02*
X129668095Y-66788866D01*
X129668095Y-66788866D02*
X129620476Y-66741247D01*
X129620476Y-66741247D02*
X129525238Y-66693628D01*
X129525238Y-66693628D02*
X129334762Y-66646009D01*
X129334762Y-66646009D02*
X129239524Y-66598390D01*
X129239524Y-66598390D02*
X129191905Y-66550771D01*
X129191905Y-66550771D02*
X129144286Y-66455533D01*
X129144286Y-66455533D02*
X129144286Y-66360295D01*
X129144286Y-66360295D02*
X129191905Y-66265057D01*
X129191905Y-66265057D02*
X129239524Y-66217438D01*
X129239524Y-66217438D02*
X129334762Y-66169819D01*
X129334762Y-66169819D02*
X129572857Y-66169819D01*
X129572857Y-66169819D02*
X129715714Y-66217438D01*
D10*
X143125406Y-81641095D02*
X143125406Y-81592714D01*
X143125406Y-81592714D02*
X143149596Y-81544333D01*
X143149596Y-81544333D02*
X143173787Y-81520143D01*
X143173787Y-81520143D02*
X143222168Y-81495952D01*
X143222168Y-81495952D02*
X143318930Y-81471762D01*
X143318930Y-81471762D02*
X143439882Y-81471762D01*
X143439882Y-81471762D02*
X143536644Y-81495952D01*
X143536644Y-81495952D02*
X143585025Y-81520143D01*
X143585025Y-81520143D02*
X143609216Y-81544333D01*
X143609216Y-81544333D02*
X143633406Y-81592714D01*
X143633406Y-81592714D02*
X143633406Y-81641095D01*
X143633406Y-81641095D02*
X143609216Y-81689476D01*
X143609216Y-81689476D02*
X143585025Y-81713667D01*
X143585025Y-81713667D02*
X143536644Y-81737857D01*
X143536644Y-81737857D02*
X143439882Y-81762048D01*
X143439882Y-81762048D02*
X143318930Y-81762048D01*
X143318930Y-81762048D02*
X143222168Y-81737857D01*
X143222168Y-81737857D02*
X143173787Y-81713667D01*
X143173787Y-81713667D02*
X143149596Y-81689476D01*
X143149596Y-81689476D02*
X143125406Y-81641095D01*
X143125406Y-81012142D02*
X143125406Y-81254047D01*
X143125406Y-81254047D02*
X143367311Y-81278238D01*
X143367311Y-81278238D02*
X143343120Y-81254047D01*
X143343120Y-81254047D02*
X143318930Y-81205666D01*
X143318930Y-81205666D02*
X143318930Y-81084714D01*
X143318930Y-81084714D02*
X143343120Y-81036333D01*
X143343120Y-81036333D02*
X143367311Y-81012142D01*
X143367311Y-81012142D02*
X143415692Y-80987952D01*
X143415692Y-80987952D02*
X143536644Y-80987952D01*
X143536644Y-80987952D02*
X143585025Y-81012142D01*
X143585025Y-81012142D02*
X143609216Y-81036333D01*
X143609216Y-81036333D02*
X143633406Y-81084714D01*
X143633406Y-81084714D02*
X143633406Y-81205666D01*
X143633406Y-81205666D02*
X143609216Y-81254047D01*
X143609216Y-81254047D02*
X143585025Y-81278238D01*
X143125406Y-79101095D02*
X143125406Y-79052714D01*
X143125406Y-79052714D02*
X143149596Y-79004333D01*
X143149596Y-79004333D02*
X143173787Y-78980143D01*
X143173787Y-78980143D02*
X143222168Y-78955952D01*
X143222168Y-78955952D02*
X143318930Y-78931762D01*
X143318930Y-78931762D02*
X143439882Y-78931762D01*
X143439882Y-78931762D02*
X143536644Y-78955952D01*
X143536644Y-78955952D02*
X143585025Y-78980143D01*
X143585025Y-78980143D02*
X143609216Y-79004333D01*
X143609216Y-79004333D02*
X143633406Y-79052714D01*
X143633406Y-79052714D02*
X143633406Y-79101095D01*
X143633406Y-79101095D02*
X143609216Y-79149476D01*
X143609216Y-79149476D02*
X143585025Y-79173667D01*
X143585025Y-79173667D02*
X143536644Y-79197857D01*
X143536644Y-79197857D02*
X143439882Y-79222048D01*
X143439882Y-79222048D02*
X143318930Y-79222048D01*
X143318930Y-79222048D02*
X143222168Y-79197857D01*
X143222168Y-79197857D02*
X143173787Y-79173667D01*
X143173787Y-79173667D02*
X143149596Y-79149476D01*
X143149596Y-79149476D02*
X143125406Y-79101095D01*
X143294739Y-78496333D02*
X143633406Y-78496333D01*
X143101216Y-78617285D02*
X143464073Y-78738238D01*
X143464073Y-78738238D02*
X143464073Y-78423761D01*
D11*
X121558095Y-114580819D02*
X121558095Y-113580819D01*
X121558095Y-113580819D02*
X121939047Y-113580819D01*
X121939047Y-113580819D02*
X122034285Y-113628438D01*
X122034285Y-113628438D02*
X122081904Y-113676057D01*
X122081904Y-113676057D02*
X122129523Y-113771295D01*
X122129523Y-113771295D02*
X122129523Y-113914152D01*
X122129523Y-113914152D02*
X122081904Y-114009390D01*
X122081904Y-114009390D02*
X122034285Y-114057009D01*
X122034285Y-114057009D02*
X121939047Y-114104628D01*
X121939047Y-114104628D02*
X121558095Y-114104628D01*
D10*
X82216593Y-109206237D02*
X82216593Y-108915951D01*
X82216593Y-109061094D02*
X82724593Y-109061094D01*
X82724593Y-109061094D02*
X82652022Y-109012713D01*
X82652022Y-109012713D02*
X82603641Y-108964332D01*
X82603641Y-108964332D02*
X82579450Y-108915951D01*
X82724593Y-109641666D02*
X82724593Y-109544904D01*
X82724593Y-109544904D02*
X82700403Y-109496523D01*
X82700403Y-109496523D02*
X82676212Y-109472333D01*
X82676212Y-109472333D02*
X82603641Y-109423952D01*
X82603641Y-109423952D02*
X82506879Y-109399761D01*
X82506879Y-109399761D02*
X82313355Y-109399761D01*
X82313355Y-109399761D02*
X82264974Y-109423952D01*
X82264974Y-109423952D02*
X82240784Y-109448142D01*
X82240784Y-109448142D02*
X82216593Y-109496523D01*
X82216593Y-109496523D02*
X82216593Y-109593285D01*
X82216593Y-109593285D02*
X82240784Y-109641666D01*
X82240784Y-109641666D02*
X82264974Y-109665857D01*
X82264974Y-109665857D02*
X82313355Y-109690047D01*
X82313355Y-109690047D02*
X82434307Y-109690047D01*
X82434307Y-109690047D02*
X82482688Y-109665857D01*
X82482688Y-109665857D02*
X82506879Y-109641666D01*
X82506879Y-109641666D02*
X82531069Y-109593285D01*
X82531069Y-109593285D02*
X82531069Y-109496523D01*
X82531069Y-109496523D02*
X82506879Y-109448142D01*
X82506879Y-109448142D02*
X82482688Y-109423952D01*
X82482688Y-109423952D02*
X82434307Y-109399761D01*
D11*
X106722857Y-113580819D02*
X106722857Y-114295104D01*
X106722857Y-114295104D02*
X106675238Y-114437961D01*
X106675238Y-114437961D02*
X106580000Y-114533200D01*
X106580000Y-114533200D02*
X106437143Y-114580819D01*
X106437143Y-114580819D02*
X106341905Y-114580819D01*
X121568095Y-67169819D02*
X121568095Y-66169819D01*
X121568095Y-66169819D02*
X121949047Y-66169819D01*
X121949047Y-66169819D02*
X122044285Y-66217438D01*
X122044285Y-66217438D02*
X122091904Y-66265057D01*
X122091904Y-66265057D02*
X122139523Y-66360295D01*
X122139523Y-66360295D02*
X122139523Y-66503152D01*
X122139523Y-66503152D02*
X122091904Y-66598390D01*
X122091904Y-66598390D02*
X122044285Y-66646009D01*
X122044285Y-66646009D02*
X121949047Y-66693628D01*
X121949047Y-66693628D02*
X121568095Y-66693628D01*
D10*
X143633406Y-96711762D02*
X143633406Y-97002048D01*
X143633406Y-96856905D02*
X143125406Y-96856905D01*
X143125406Y-96856905D02*
X143197977Y-96905286D01*
X143197977Y-96905286D02*
X143246358Y-96953667D01*
X143246358Y-96953667D02*
X143270549Y-97002048D01*
X143633406Y-96227952D02*
X143633406Y-96518238D01*
X143633406Y-96373095D02*
X143125406Y-96373095D01*
X143125406Y-96373095D02*
X143197977Y-96421476D01*
X143197977Y-96421476D02*
X143246358Y-96469857D01*
X143246358Y-96469857D02*
X143270549Y-96518238D01*
X143633406Y-106871762D02*
X143633406Y-107162048D01*
X143633406Y-107016905D02*
X143125406Y-107016905D01*
X143125406Y-107016905D02*
X143197977Y-107065286D01*
X143197977Y-107065286D02*
X143246358Y-107113667D01*
X143246358Y-107113667D02*
X143270549Y-107162048D01*
X143125406Y-106412142D02*
X143125406Y-106654047D01*
X143125406Y-106654047D02*
X143367311Y-106678238D01*
X143367311Y-106678238D02*
X143343120Y-106654047D01*
X143343120Y-106654047D02*
X143318930Y-106605666D01*
X143318930Y-106605666D02*
X143318930Y-106484714D01*
X143318930Y-106484714D02*
X143343120Y-106436333D01*
X143343120Y-106436333D02*
X143367311Y-106412142D01*
X143367311Y-106412142D02*
X143415692Y-106387952D01*
X143415692Y-106387952D02*
X143536644Y-106387952D01*
X143536644Y-106387952D02*
X143585025Y-106412142D01*
X143585025Y-106412142D02*
X143609216Y-106436333D01*
X143609216Y-106436333D02*
X143633406Y-106484714D01*
X143633406Y-106484714D02*
X143633406Y-106605666D01*
X143633406Y-106605666D02*
X143609216Y-106654047D01*
X143609216Y-106654047D02*
X143585025Y-106678238D01*
X82724593Y-86176904D02*
X82724593Y-86225285D01*
X82724593Y-86225285D02*
X82700403Y-86273666D01*
X82700403Y-86273666D02*
X82676212Y-86297856D01*
X82676212Y-86297856D02*
X82627831Y-86322047D01*
X82627831Y-86322047D02*
X82531069Y-86346237D01*
X82531069Y-86346237D02*
X82410117Y-86346237D01*
X82410117Y-86346237D02*
X82313355Y-86322047D01*
X82313355Y-86322047D02*
X82264974Y-86297856D01*
X82264974Y-86297856D02*
X82240784Y-86273666D01*
X82240784Y-86273666D02*
X82216593Y-86225285D01*
X82216593Y-86225285D02*
X82216593Y-86176904D01*
X82216593Y-86176904D02*
X82240784Y-86128523D01*
X82240784Y-86128523D02*
X82264974Y-86104332D01*
X82264974Y-86104332D02*
X82313355Y-86080142D01*
X82313355Y-86080142D02*
X82410117Y-86055951D01*
X82410117Y-86055951D02*
X82531069Y-86055951D01*
X82531069Y-86055951D02*
X82627831Y-86080142D01*
X82627831Y-86080142D02*
X82676212Y-86104332D01*
X82676212Y-86104332D02*
X82700403Y-86128523D01*
X82700403Y-86128523D02*
X82724593Y-86176904D01*
X82724593Y-86515571D02*
X82724593Y-86854238D01*
X82724593Y-86854238D02*
X82216593Y-86636523D01*
X82216593Y-104126237D02*
X82216593Y-103835951D01*
X82216593Y-103981094D02*
X82724593Y-103981094D01*
X82724593Y-103981094D02*
X82652022Y-103932713D01*
X82652022Y-103932713D02*
X82603641Y-103884332D01*
X82603641Y-103884332D02*
X82579450Y-103835951D01*
X82555260Y-104561666D02*
X82216593Y-104561666D01*
X82748784Y-104440714D02*
X82385926Y-104319761D01*
X82385926Y-104319761D02*
X82385926Y-104634238D01*
D11*
X136726667Y-66169819D02*
X137060000Y-67169819D01*
X137060000Y-67169819D02*
X137393333Y-66169819D01*
X96562857Y-66646009D02*
X96229524Y-66646009D01*
X96229524Y-67169819D02*
X96229524Y-66169819D01*
X96229524Y-66169819D02*
X96705714Y-66169819D01*
X101214286Y-114580819D02*
X101214286Y-113580819D01*
X101214286Y-114057009D02*
X101785714Y-114057009D01*
X101785714Y-114580819D02*
X101785714Y-113580819D01*
X139171429Y-66169819D02*
X139409524Y-67169819D01*
X139409524Y-67169819D02*
X139600000Y-66455533D01*
X139600000Y-66455533D02*
X139790476Y-67169819D01*
X139790476Y-67169819D02*
X140028572Y-66169819D01*
X111969523Y-114580819D02*
X111493333Y-114580819D01*
X111493333Y-114580819D02*
X111493333Y-113580819D01*
D10*
X82216593Y-99046237D02*
X82216593Y-98755951D01*
X82216593Y-98901094D02*
X82724593Y-98901094D01*
X82724593Y-98901094D02*
X82652022Y-98852713D01*
X82652022Y-98852713D02*
X82603641Y-98804332D01*
X82603641Y-98804332D02*
X82579450Y-98755951D01*
X82676212Y-99239761D02*
X82700403Y-99263952D01*
X82700403Y-99263952D02*
X82724593Y-99312333D01*
X82724593Y-99312333D02*
X82724593Y-99433285D01*
X82724593Y-99433285D02*
X82700403Y-99481666D01*
X82700403Y-99481666D02*
X82676212Y-99505857D01*
X82676212Y-99505857D02*
X82627831Y-99530047D01*
X82627831Y-99530047D02*
X82579450Y-99530047D01*
X82579450Y-99530047D02*
X82506879Y-99505857D01*
X82506879Y-99505857D02*
X82216593Y-99215571D01*
X82216593Y-99215571D02*
X82216593Y-99530047D01*
X82216593Y-93966237D02*
X82216593Y-93675951D01*
X82216593Y-93821094D02*
X82724593Y-93821094D01*
X82724593Y-93821094D02*
X82652022Y-93772713D01*
X82652022Y-93772713D02*
X82603641Y-93724332D01*
X82603641Y-93724332D02*
X82579450Y-93675951D01*
X82724593Y-94280714D02*
X82724593Y-94329095D01*
X82724593Y-94329095D02*
X82700403Y-94377476D01*
X82700403Y-94377476D02*
X82676212Y-94401666D01*
X82676212Y-94401666D02*
X82627831Y-94425857D01*
X82627831Y-94425857D02*
X82531069Y-94450047D01*
X82531069Y-94450047D02*
X82410117Y-94450047D01*
X82410117Y-94450047D02*
X82313355Y-94425857D01*
X82313355Y-94425857D02*
X82264974Y-94401666D01*
X82264974Y-94401666D02*
X82240784Y-94377476D01*
X82240784Y-94377476D02*
X82216593Y-94329095D01*
X82216593Y-94329095D02*
X82216593Y-94280714D01*
X82216593Y-94280714D02*
X82240784Y-94232333D01*
X82240784Y-94232333D02*
X82264974Y-94208142D01*
X82264974Y-94208142D02*
X82313355Y-94183952D01*
X82313355Y-94183952D02*
X82410117Y-94159761D01*
X82410117Y-94159761D02*
X82531069Y-94159761D01*
X82531069Y-94159761D02*
X82627831Y-94183952D01*
X82627831Y-94183952D02*
X82676212Y-94208142D01*
X82676212Y-94208142D02*
X82700403Y-94232333D01*
X82700403Y-94232333D02*
X82724593Y-94280714D01*
X82724593Y-78556904D02*
X82724593Y-78605285D01*
X82724593Y-78605285D02*
X82700403Y-78653666D01*
X82700403Y-78653666D02*
X82676212Y-78677856D01*
X82676212Y-78677856D02*
X82627831Y-78702047D01*
X82627831Y-78702047D02*
X82531069Y-78726237D01*
X82531069Y-78726237D02*
X82410117Y-78726237D01*
X82410117Y-78726237D02*
X82313355Y-78702047D01*
X82313355Y-78702047D02*
X82264974Y-78677856D01*
X82264974Y-78677856D02*
X82240784Y-78653666D01*
X82240784Y-78653666D02*
X82216593Y-78605285D01*
X82216593Y-78605285D02*
X82216593Y-78556904D01*
X82216593Y-78556904D02*
X82240784Y-78508523D01*
X82240784Y-78508523D02*
X82264974Y-78484332D01*
X82264974Y-78484332D02*
X82313355Y-78460142D01*
X82313355Y-78460142D02*
X82410117Y-78435951D01*
X82410117Y-78435951D02*
X82531069Y-78435951D01*
X82531069Y-78435951D02*
X82627831Y-78460142D01*
X82627831Y-78460142D02*
X82676212Y-78484332D01*
X82676212Y-78484332D02*
X82700403Y-78508523D01*
X82700403Y-78508523D02*
X82724593Y-78556904D01*
X82555260Y-79161666D02*
X82216593Y-79161666D01*
X82748784Y-79040714D02*
X82385926Y-78919761D01*
X82385926Y-78919761D02*
X82385926Y-79234238D01*
D11*
X99221904Y-113628438D02*
X99126666Y-113580819D01*
X99126666Y-113580819D02*
X98983809Y-113580819D01*
X98983809Y-113580819D02*
X98840952Y-113628438D01*
X98840952Y-113628438D02*
X98745714Y-113723676D01*
X98745714Y-113723676D02*
X98698095Y-113818914D01*
X98698095Y-113818914D02*
X98650476Y-114009390D01*
X98650476Y-114009390D02*
X98650476Y-114152247D01*
X98650476Y-114152247D02*
X98698095Y-114342723D01*
X98698095Y-114342723D02*
X98745714Y-114437961D01*
X98745714Y-114437961D02*
X98840952Y-114533200D01*
X98840952Y-114533200D02*
X98983809Y-114580819D01*
X98983809Y-114580819D02*
X99079047Y-114580819D01*
X99079047Y-114580819D02*
X99221904Y-114533200D01*
X99221904Y-114533200D02*
X99269523Y-114485580D01*
X99269523Y-114485580D02*
X99269523Y-114152247D01*
X99269523Y-114152247D02*
X99079047Y-114152247D01*
X113871667Y-67169819D02*
X113871667Y-66169819D01*
X113871667Y-66169819D02*
X114205000Y-66884104D01*
X114205000Y-66884104D02*
X114538333Y-66169819D01*
X114538333Y-66169819D02*
X114538333Y-67169819D01*
D10*
X82724593Y-76016904D02*
X82724593Y-76065285D01*
X82724593Y-76065285D02*
X82700403Y-76113666D01*
X82700403Y-76113666D02*
X82676212Y-76137856D01*
X82676212Y-76137856D02*
X82627831Y-76162047D01*
X82627831Y-76162047D02*
X82531069Y-76186237D01*
X82531069Y-76186237D02*
X82410117Y-76186237D01*
X82410117Y-76186237D02*
X82313355Y-76162047D01*
X82313355Y-76162047D02*
X82264974Y-76137856D01*
X82264974Y-76137856D02*
X82240784Y-76113666D01*
X82240784Y-76113666D02*
X82216593Y-76065285D01*
X82216593Y-76065285D02*
X82216593Y-76016904D01*
X82216593Y-76016904D02*
X82240784Y-75968523D01*
X82240784Y-75968523D02*
X82264974Y-75944332D01*
X82264974Y-75944332D02*
X82313355Y-75920142D01*
X82313355Y-75920142D02*
X82410117Y-75895951D01*
X82410117Y-75895951D02*
X82531069Y-75895951D01*
X82531069Y-75895951D02*
X82627831Y-75920142D01*
X82627831Y-75920142D02*
X82676212Y-75944332D01*
X82676212Y-75944332D02*
X82700403Y-75968523D01*
X82700403Y-75968523D02*
X82724593Y-76016904D01*
X82724593Y-76355571D02*
X82724593Y-76670047D01*
X82724593Y-76670047D02*
X82531069Y-76500714D01*
X82531069Y-76500714D02*
X82531069Y-76573285D01*
X82531069Y-76573285D02*
X82506879Y-76621666D01*
X82506879Y-76621666D02*
X82482688Y-76645857D01*
X82482688Y-76645857D02*
X82434307Y-76670047D01*
X82434307Y-76670047D02*
X82313355Y-76670047D01*
X82313355Y-76670047D02*
X82264974Y-76645857D01*
X82264974Y-76645857D02*
X82240784Y-76621666D01*
X82240784Y-76621666D02*
X82216593Y-76573285D01*
X82216593Y-76573285D02*
X82216593Y-76428142D01*
X82216593Y-76428142D02*
X82240784Y-76379761D01*
X82240784Y-76379761D02*
X82264974Y-76355571D01*
X82724593Y-91256904D02*
X82724593Y-91305285D01*
X82724593Y-91305285D02*
X82700403Y-91353666D01*
X82700403Y-91353666D02*
X82676212Y-91377856D01*
X82676212Y-91377856D02*
X82627831Y-91402047D01*
X82627831Y-91402047D02*
X82531069Y-91426237D01*
X82531069Y-91426237D02*
X82410117Y-91426237D01*
X82410117Y-91426237D02*
X82313355Y-91402047D01*
X82313355Y-91402047D02*
X82264974Y-91377856D01*
X82264974Y-91377856D02*
X82240784Y-91353666D01*
X82240784Y-91353666D02*
X82216593Y-91305285D01*
X82216593Y-91305285D02*
X82216593Y-91256904D01*
X82216593Y-91256904D02*
X82240784Y-91208523D01*
X82240784Y-91208523D02*
X82264974Y-91184332D01*
X82264974Y-91184332D02*
X82313355Y-91160142D01*
X82313355Y-91160142D02*
X82410117Y-91135951D01*
X82410117Y-91135951D02*
X82531069Y-91135951D01*
X82531069Y-91135951D02*
X82627831Y-91160142D01*
X82627831Y-91160142D02*
X82676212Y-91184332D01*
X82676212Y-91184332D02*
X82700403Y-91208523D01*
X82700403Y-91208523D02*
X82724593Y-91256904D01*
X82216593Y-91668142D02*
X82216593Y-91764904D01*
X82216593Y-91764904D02*
X82240784Y-91813285D01*
X82240784Y-91813285D02*
X82264974Y-91837476D01*
X82264974Y-91837476D02*
X82337545Y-91885857D01*
X82337545Y-91885857D02*
X82434307Y-91910047D01*
X82434307Y-91910047D02*
X82627831Y-91910047D01*
X82627831Y-91910047D02*
X82676212Y-91885857D01*
X82676212Y-91885857D02*
X82700403Y-91861666D01*
X82700403Y-91861666D02*
X82724593Y-91813285D01*
X82724593Y-91813285D02*
X82724593Y-91716523D01*
X82724593Y-91716523D02*
X82700403Y-91668142D01*
X82700403Y-91668142D02*
X82676212Y-91643952D01*
X82676212Y-91643952D02*
X82627831Y-91619761D01*
X82627831Y-91619761D02*
X82506879Y-91619761D01*
X82506879Y-91619761D02*
X82458498Y-91643952D01*
X82458498Y-91643952D02*
X82434307Y-91668142D01*
X82434307Y-91668142D02*
X82410117Y-91716523D01*
X82410117Y-91716523D02*
X82410117Y-91813285D01*
X82410117Y-91813285D02*
X82434307Y-91861666D01*
X82434307Y-91861666D02*
X82458498Y-91885857D01*
X82458498Y-91885857D02*
X82506879Y-91910047D01*
D11*
X93665714Y-114057009D02*
X93999047Y-114057009D01*
X94141904Y-114580819D02*
X93665714Y-114580819D01*
X93665714Y-114580819D02*
X93665714Y-113580819D01*
X93665714Y-113580819D02*
X94141904Y-113580819D01*
X119184762Y-113580819D02*
X119375238Y-113580819D01*
X119375238Y-113580819D02*
X119470476Y-113628438D01*
X119470476Y-113628438D02*
X119565714Y-113723676D01*
X119565714Y-113723676D02*
X119613333Y-113914152D01*
X119613333Y-113914152D02*
X119613333Y-114247485D01*
X119613333Y-114247485D02*
X119565714Y-114437961D01*
X119565714Y-114437961D02*
X119470476Y-114533200D01*
X119470476Y-114533200D02*
X119375238Y-114580819D01*
X119375238Y-114580819D02*
X119184762Y-114580819D01*
X119184762Y-114580819D02*
X119089524Y-114533200D01*
X119089524Y-114533200D02*
X118994286Y-114437961D01*
X118994286Y-114437961D02*
X118946667Y-114247485D01*
X118946667Y-114247485D02*
X118946667Y-113914152D01*
X118946667Y-113914152D02*
X118994286Y-113723676D01*
X118994286Y-113723676D02*
X119089524Y-113628438D01*
X119089524Y-113628438D02*
X119184762Y-113580819D01*
X134234286Y-113580819D02*
X134234286Y-114390342D01*
X134234286Y-114390342D02*
X134281905Y-114485580D01*
X134281905Y-114485580D02*
X134329524Y-114533200D01*
X134329524Y-114533200D02*
X134424762Y-114580819D01*
X134424762Y-114580819D02*
X134615238Y-114580819D01*
X134615238Y-114580819D02*
X134710476Y-114533200D01*
X134710476Y-114533200D02*
X134758095Y-114485580D01*
X134758095Y-114485580D02*
X134805714Y-114390342D01*
X134805714Y-114390342D02*
X134805714Y-113580819D01*
X108858095Y-114580819D02*
X108858095Y-113580819D01*
X109429523Y-114580819D02*
X109000952Y-114009390D01*
X109429523Y-113580819D02*
X108858095Y-114152247D01*
X83481905Y-114295104D02*
X83958095Y-114295104D01*
X83386667Y-114580819D02*
X83720000Y-113580819D01*
X83720000Y-113580819D02*
X84053333Y-114580819D01*
D10*
X82724593Y-81096904D02*
X82724593Y-81145285D01*
X82724593Y-81145285D02*
X82700403Y-81193666D01*
X82700403Y-81193666D02*
X82676212Y-81217856D01*
X82676212Y-81217856D02*
X82627831Y-81242047D01*
X82627831Y-81242047D02*
X82531069Y-81266237D01*
X82531069Y-81266237D02*
X82410117Y-81266237D01*
X82410117Y-81266237D02*
X82313355Y-81242047D01*
X82313355Y-81242047D02*
X82264974Y-81217856D01*
X82264974Y-81217856D02*
X82240784Y-81193666D01*
X82240784Y-81193666D02*
X82216593Y-81145285D01*
X82216593Y-81145285D02*
X82216593Y-81096904D01*
X82216593Y-81096904D02*
X82240784Y-81048523D01*
X82240784Y-81048523D02*
X82264974Y-81024332D01*
X82264974Y-81024332D02*
X82313355Y-81000142D01*
X82313355Y-81000142D02*
X82410117Y-80975951D01*
X82410117Y-80975951D02*
X82531069Y-80975951D01*
X82531069Y-80975951D02*
X82627831Y-81000142D01*
X82627831Y-81000142D02*
X82676212Y-81024332D01*
X82676212Y-81024332D02*
X82700403Y-81048523D01*
X82700403Y-81048523D02*
X82724593Y-81096904D01*
X82724593Y-81725857D02*
X82724593Y-81483952D01*
X82724593Y-81483952D02*
X82482688Y-81459761D01*
X82482688Y-81459761D02*
X82506879Y-81483952D01*
X82506879Y-81483952D02*
X82531069Y-81532333D01*
X82531069Y-81532333D02*
X82531069Y-81653285D01*
X82531069Y-81653285D02*
X82506879Y-81701666D01*
X82506879Y-81701666D02*
X82482688Y-81725857D01*
X82482688Y-81725857D02*
X82434307Y-81750047D01*
X82434307Y-81750047D02*
X82313355Y-81750047D01*
X82313355Y-81750047D02*
X82264974Y-81725857D01*
X82264974Y-81725857D02*
X82240784Y-81701666D01*
X82240784Y-81701666D02*
X82216593Y-81653285D01*
X82216593Y-81653285D02*
X82216593Y-81532333D01*
X82216593Y-81532333D02*
X82240784Y-81483952D01*
X82240784Y-81483952D02*
X82264974Y-81459761D01*
D11*
X86331428Y-66651009D02*
X86474285Y-66698628D01*
X86474285Y-66698628D02*
X86521904Y-66746247D01*
X86521904Y-66746247D02*
X86569523Y-66841485D01*
X86569523Y-66841485D02*
X86569523Y-66984342D01*
X86569523Y-66984342D02*
X86521904Y-67079580D01*
X86521904Y-67079580D02*
X86474285Y-67127200D01*
X86474285Y-67127200D02*
X86379047Y-67174819D01*
X86379047Y-67174819D02*
X85998095Y-67174819D01*
X85998095Y-67174819D02*
X85998095Y-66174819D01*
X85998095Y-66174819D02*
X86331428Y-66174819D01*
X86331428Y-66174819D02*
X86426666Y-66222438D01*
X86426666Y-66222438D02*
X86474285Y-66270057D01*
X86474285Y-66270057D02*
X86521904Y-66365295D01*
X86521904Y-66365295D02*
X86521904Y-66460533D01*
X86521904Y-66460533D02*
X86474285Y-66555771D01*
X86474285Y-66555771D02*
X86426666Y-66603390D01*
X86426666Y-66603390D02*
X86331428Y-66651009D01*
X86331428Y-66651009D02*
X85998095Y-66651009D01*
X127189523Y-67194819D02*
X126856190Y-66718628D01*
X126618095Y-67194819D02*
X126618095Y-66194819D01*
X126618095Y-66194819D02*
X126999047Y-66194819D01*
X126999047Y-66194819D02*
X127094285Y-66242438D01*
X127094285Y-66242438D02*
X127141904Y-66290057D01*
X127141904Y-66290057D02*
X127189523Y-66385295D01*
X127189523Y-66385295D02*
X127189523Y-66528152D01*
X127189523Y-66528152D02*
X127141904Y-66623390D01*
X127141904Y-66623390D02*
X127094285Y-66671009D01*
X127094285Y-66671009D02*
X126999047Y-66718628D01*
X126999047Y-66718628D02*
X126618095Y-66718628D01*
X89089523Y-67069580D02*
X89041904Y-67117200D01*
X89041904Y-67117200D02*
X88899047Y-67164819D01*
X88899047Y-67164819D02*
X88803809Y-67164819D01*
X88803809Y-67164819D02*
X88660952Y-67117200D01*
X88660952Y-67117200D02*
X88565714Y-67021961D01*
X88565714Y-67021961D02*
X88518095Y-66926723D01*
X88518095Y-66926723D02*
X88470476Y-66736247D01*
X88470476Y-66736247D02*
X88470476Y-66593390D01*
X88470476Y-66593390D02*
X88518095Y-66402914D01*
X88518095Y-66402914D02*
X88565714Y-66307676D01*
X88565714Y-66307676D02*
X88660952Y-66212438D01*
X88660952Y-66212438D02*
X88803809Y-66164819D01*
X88803809Y-66164819D02*
X88899047Y-66164819D01*
X88899047Y-66164819D02*
X89041904Y-66212438D01*
X89041904Y-66212438D02*
X89089523Y-66260057D01*
X119184762Y-66169819D02*
X119375238Y-66169819D01*
X119375238Y-66169819D02*
X119470476Y-66217438D01*
X119470476Y-66217438D02*
X119565714Y-66312676D01*
X119565714Y-66312676D02*
X119613333Y-66503152D01*
X119613333Y-66503152D02*
X119613333Y-66836485D01*
X119613333Y-66836485D02*
X119565714Y-67026961D01*
X119565714Y-67026961D02*
X119470476Y-67122200D01*
X119470476Y-67122200D02*
X119375238Y-67169819D01*
X119375238Y-67169819D02*
X119184762Y-67169819D01*
X119184762Y-67169819D02*
X119089524Y-67122200D01*
X119089524Y-67122200D02*
X118994286Y-67026961D01*
X118994286Y-67026961D02*
X118946667Y-66836485D01*
X118946667Y-66836485D02*
X118946667Y-66503152D01*
X118946667Y-66503152D02*
X118994286Y-66312676D01*
X118994286Y-66312676D02*
X119089524Y-66217438D01*
X119089524Y-66217438D02*
X119184762Y-66169819D01*
X91093095Y-67194819D02*
X91093095Y-66194819D01*
X91093095Y-66194819D02*
X91331190Y-66194819D01*
X91331190Y-66194819D02*
X91474047Y-66242438D01*
X91474047Y-66242438D02*
X91569285Y-66337676D01*
X91569285Y-66337676D02*
X91616904Y-66432914D01*
X91616904Y-66432914D02*
X91664523Y-66623390D01*
X91664523Y-66623390D02*
X91664523Y-66766247D01*
X91664523Y-66766247D02*
X91616904Y-66956723D01*
X91616904Y-66956723D02*
X91569285Y-67051961D01*
X91569285Y-67051961D02*
X91474047Y-67147200D01*
X91474047Y-67147200D02*
X91331190Y-67194819D01*
X91331190Y-67194819D02*
X91093095Y-67194819D01*
X83481905Y-66884104D02*
X83958095Y-66884104D01*
X83386667Y-67169819D02*
X83720000Y-66169819D01*
X83720000Y-66169819D02*
X84053333Y-67169819D01*
D10*
X143125406Y-74021095D02*
X143125406Y-73972714D01*
X143125406Y-73972714D02*
X143149596Y-73924333D01*
X143149596Y-73924333D02*
X143173787Y-73900143D01*
X143173787Y-73900143D02*
X143222168Y-73875952D01*
X143222168Y-73875952D02*
X143318930Y-73851762D01*
X143318930Y-73851762D02*
X143439882Y-73851762D01*
X143439882Y-73851762D02*
X143536644Y-73875952D01*
X143536644Y-73875952D02*
X143585025Y-73900143D01*
X143585025Y-73900143D02*
X143609216Y-73924333D01*
X143609216Y-73924333D02*
X143633406Y-73972714D01*
X143633406Y-73972714D02*
X143633406Y-74021095D01*
X143633406Y-74021095D02*
X143609216Y-74069476D01*
X143609216Y-74069476D02*
X143585025Y-74093667D01*
X143585025Y-74093667D02*
X143536644Y-74117857D01*
X143536644Y-74117857D02*
X143439882Y-74142048D01*
X143439882Y-74142048D02*
X143318930Y-74142048D01*
X143318930Y-74142048D02*
X143222168Y-74117857D01*
X143222168Y-74117857D02*
X143173787Y-74093667D01*
X143173787Y-74093667D02*
X143149596Y-74069476D01*
X143149596Y-74069476D02*
X143125406Y-74021095D01*
X143173787Y-73658238D02*
X143149596Y-73634047D01*
X143149596Y-73634047D02*
X143125406Y-73585666D01*
X143125406Y-73585666D02*
X143125406Y-73464714D01*
X143125406Y-73464714D02*
X143149596Y-73416333D01*
X143149596Y-73416333D02*
X143173787Y-73392142D01*
X143173787Y-73392142D02*
X143222168Y-73367952D01*
X143222168Y-73367952D02*
X143270549Y-73367952D01*
X143270549Y-73367952D02*
X143343120Y-73392142D01*
X143343120Y-73392142D02*
X143633406Y-73682428D01*
X143633406Y-73682428D02*
X143633406Y-73367952D01*
X82724593Y-83636904D02*
X82724593Y-83685285D01*
X82724593Y-83685285D02*
X82700403Y-83733666D01*
X82700403Y-83733666D02*
X82676212Y-83757856D01*
X82676212Y-83757856D02*
X82627831Y-83782047D01*
X82627831Y-83782047D02*
X82531069Y-83806237D01*
X82531069Y-83806237D02*
X82410117Y-83806237D01*
X82410117Y-83806237D02*
X82313355Y-83782047D01*
X82313355Y-83782047D02*
X82264974Y-83757856D01*
X82264974Y-83757856D02*
X82240784Y-83733666D01*
X82240784Y-83733666D02*
X82216593Y-83685285D01*
X82216593Y-83685285D02*
X82216593Y-83636904D01*
X82216593Y-83636904D02*
X82240784Y-83588523D01*
X82240784Y-83588523D02*
X82264974Y-83564332D01*
X82264974Y-83564332D02*
X82313355Y-83540142D01*
X82313355Y-83540142D02*
X82410117Y-83515951D01*
X82410117Y-83515951D02*
X82531069Y-83515951D01*
X82531069Y-83515951D02*
X82627831Y-83540142D01*
X82627831Y-83540142D02*
X82676212Y-83564332D01*
X82676212Y-83564332D02*
X82700403Y-83588523D01*
X82700403Y-83588523D02*
X82724593Y-83636904D01*
X82724593Y-84241666D02*
X82724593Y-84144904D01*
X82724593Y-84144904D02*
X82700403Y-84096523D01*
X82700403Y-84096523D02*
X82676212Y-84072333D01*
X82676212Y-84072333D02*
X82603641Y-84023952D01*
X82603641Y-84023952D02*
X82506879Y-83999761D01*
X82506879Y-83999761D02*
X82313355Y-83999761D01*
X82313355Y-83999761D02*
X82264974Y-84023952D01*
X82264974Y-84023952D02*
X82240784Y-84048142D01*
X82240784Y-84048142D02*
X82216593Y-84096523D01*
X82216593Y-84096523D02*
X82216593Y-84193285D01*
X82216593Y-84193285D02*
X82240784Y-84241666D01*
X82240784Y-84241666D02*
X82264974Y-84265857D01*
X82264974Y-84265857D02*
X82313355Y-84290047D01*
X82313355Y-84290047D02*
X82434307Y-84290047D01*
X82434307Y-84290047D02*
X82482688Y-84265857D01*
X82482688Y-84265857D02*
X82506879Y-84241666D01*
X82506879Y-84241666D02*
X82531069Y-84193285D01*
X82531069Y-84193285D02*
X82531069Y-84096523D01*
X82531069Y-84096523D02*
X82506879Y-84048142D01*
X82506879Y-84048142D02*
X82482688Y-84023952D01*
X82482688Y-84023952D02*
X82434307Y-83999761D01*
D11*
X86331428Y-114057009D02*
X86474285Y-114104628D01*
X86474285Y-114104628D02*
X86521904Y-114152247D01*
X86521904Y-114152247D02*
X86569523Y-114247485D01*
X86569523Y-114247485D02*
X86569523Y-114390342D01*
X86569523Y-114390342D02*
X86521904Y-114485580D01*
X86521904Y-114485580D02*
X86474285Y-114533200D01*
X86474285Y-114533200D02*
X86379047Y-114580819D01*
X86379047Y-114580819D02*
X85998095Y-114580819D01*
X85998095Y-114580819D02*
X85998095Y-113580819D01*
X85998095Y-113580819D02*
X86331428Y-113580819D01*
X86331428Y-113580819D02*
X86426666Y-113628438D01*
X86426666Y-113628438D02*
X86474285Y-113676057D01*
X86474285Y-113676057D02*
X86521904Y-113771295D01*
X86521904Y-113771295D02*
X86521904Y-113866533D01*
X86521904Y-113866533D02*
X86474285Y-113961771D01*
X86474285Y-113961771D02*
X86426666Y-114009390D01*
X86426666Y-114009390D02*
X86331428Y-114057009D01*
X86331428Y-114057009D02*
X85998095Y-114057009D01*
X89109523Y-114485580D02*
X89061904Y-114533200D01*
X89061904Y-114533200D02*
X88919047Y-114580819D01*
X88919047Y-114580819D02*
X88823809Y-114580819D01*
X88823809Y-114580819D02*
X88680952Y-114533200D01*
X88680952Y-114533200D02*
X88585714Y-114437961D01*
X88585714Y-114437961D02*
X88538095Y-114342723D01*
X88538095Y-114342723D02*
X88490476Y-114152247D01*
X88490476Y-114152247D02*
X88490476Y-114009390D01*
X88490476Y-114009390D02*
X88538095Y-113818914D01*
X88538095Y-113818914D02*
X88585714Y-113723676D01*
X88585714Y-113723676D02*
X88680952Y-113628438D01*
X88680952Y-113628438D02*
X88823809Y-113580819D01*
X88823809Y-113580819D02*
X88919047Y-113580819D01*
X88919047Y-113580819D02*
X89061904Y-113628438D01*
X89061904Y-113628438D02*
X89109523Y-113676057D01*
X106722857Y-66169819D02*
X106722857Y-66884104D01*
X106722857Y-66884104D02*
X106675238Y-67026961D01*
X106675238Y-67026961D02*
X106580000Y-67122200D01*
X106580000Y-67122200D02*
X106437143Y-67169819D01*
X106437143Y-67169819D02*
X106341905Y-67169819D01*
X101219286Y-67169819D02*
X101219286Y-66169819D01*
X101219286Y-66646009D02*
X101790714Y-66646009D01*
X101790714Y-67169819D02*
X101790714Y-66169819D01*
X104040000Y-114580819D02*
X104040000Y-113580819D01*
D10*
X143125406Y-76561095D02*
X143125406Y-76512714D01*
X143125406Y-76512714D02*
X143149596Y-76464333D01*
X143149596Y-76464333D02*
X143173787Y-76440143D01*
X143173787Y-76440143D02*
X143222168Y-76415952D01*
X143222168Y-76415952D02*
X143318930Y-76391762D01*
X143318930Y-76391762D02*
X143439882Y-76391762D01*
X143439882Y-76391762D02*
X143536644Y-76415952D01*
X143536644Y-76415952D02*
X143585025Y-76440143D01*
X143585025Y-76440143D02*
X143609216Y-76464333D01*
X143609216Y-76464333D02*
X143633406Y-76512714D01*
X143633406Y-76512714D02*
X143633406Y-76561095D01*
X143633406Y-76561095D02*
X143609216Y-76609476D01*
X143609216Y-76609476D02*
X143585025Y-76633667D01*
X143585025Y-76633667D02*
X143536644Y-76657857D01*
X143536644Y-76657857D02*
X143439882Y-76682048D01*
X143439882Y-76682048D02*
X143318930Y-76682048D01*
X143318930Y-76682048D02*
X143222168Y-76657857D01*
X143222168Y-76657857D02*
X143173787Y-76633667D01*
X143173787Y-76633667D02*
X143149596Y-76609476D01*
X143149596Y-76609476D02*
X143125406Y-76561095D01*
X143125406Y-76222428D02*
X143125406Y-75907952D01*
X143125406Y-75907952D02*
X143318930Y-76077285D01*
X143318930Y-76077285D02*
X143318930Y-76004714D01*
X143318930Y-76004714D02*
X143343120Y-75956333D01*
X143343120Y-75956333D02*
X143367311Y-75932142D01*
X143367311Y-75932142D02*
X143415692Y-75907952D01*
X143415692Y-75907952D02*
X143536644Y-75907952D01*
X143536644Y-75907952D02*
X143585025Y-75932142D01*
X143585025Y-75932142D02*
X143609216Y-75956333D01*
X143609216Y-75956333D02*
X143633406Y-76004714D01*
X143633406Y-76004714D02*
X143633406Y-76149857D01*
X143633406Y-76149857D02*
X143609216Y-76198238D01*
X143609216Y-76198238D02*
X143585025Y-76222428D01*
X143633406Y-94171762D02*
X143633406Y-94462048D01*
X143633406Y-94316905D02*
X143125406Y-94316905D01*
X143125406Y-94316905D02*
X143197977Y-94365286D01*
X143197977Y-94365286D02*
X143246358Y-94413667D01*
X143246358Y-94413667D02*
X143270549Y-94462048D01*
X143125406Y-93857285D02*
X143125406Y-93808904D01*
X143125406Y-93808904D02*
X143149596Y-93760523D01*
X143149596Y-93760523D02*
X143173787Y-93736333D01*
X143173787Y-93736333D02*
X143222168Y-93712142D01*
X143222168Y-93712142D02*
X143318930Y-93687952D01*
X143318930Y-93687952D02*
X143439882Y-93687952D01*
X143439882Y-93687952D02*
X143536644Y-93712142D01*
X143536644Y-93712142D02*
X143585025Y-93736333D01*
X143585025Y-93736333D02*
X143609216Y-93760523D01*
X143609216Y-93760523D02*
X143633406Y-93808904D01*
X143633406Y-93808904D02*
X143633406Y-93857285D01*
X143633406Y-93857285D02*
X143609216Y-93905666D01*
X143609216Y-93905666D02*
X143585025Y-93929857D01*
X143585025Y-93929857D02*
X143536644Y-93954047D01*
X143536644Y-93954047D02*
X143439882Y-93978238D01*
X143439882Y-93978238D02*
X143318930Y-93978238D01*
X143318930Y-93978238D02*
X143222168Y-93954047D01*
X143222168Y-93954047D02*
X143173787Y-93929857D01*
X143173787Y-93929857D02*
X143149596Y-93905666D01*
X143149596Y-93905666D02*
X143125406Y-93857285D01*
D11*
X141806667Y-66169819D02*
X142473333Y-67169819D01*
X142473333Y-66169819D02*
X141806667Y-67169819D01*
X131694286Y-66169819D02*
X132265714Y-66169819D01*
X131980000Y-67169819D02*
X131980000Y-66169819D01*
D10*
X143125406Y-91801095D02*
X143125406Y-91752714D01*
X143125406Y-91752714D02*
X143149596Y-91704333D01*
X143149596Y-91704333D02*
X143173787Y-91680143D01*
X143173787Y-91680143D02*
X143222168Y-91655952D01*
X143222168Y-91655952D02*
X143318930Y-91631762D01*
X143318930Y-91631762D02*
X143439882Y-91631762D01*
X143439882Y-91631762D02*
X143536644Y-91655952D01*
X143536644Y-91655952D02*
X143585025Y-91680143D01*
X143585025Y-91680143D02*
X143609216Y-91704333D01*
X143609216Y-91704333D02*
X143633406Y-91752714D01*
X143633406Y-91752714D02*
X143633406Y-91801095D01*
X143633406Y-91801095D02*
X143609216Y-91849476D01*
X143609216Y-91849476D02*
X143585025Y-91873667D01*
X143585025Y-91873667D02*
X143536644Y-91897857D01*
X143536644Y-91897857D02*
X143439882Y-91922048D01*
X143439882Y-91922048D02*
X143318930Y-91922048D01*
X143318930Y-91922048D02*
X143222168Y-91897857D01*
X143222168Y-91897857D02*
X143173787Y-91873667D01*
X143173787Y-91873667D02*
X143149596Y-91849476D01*
X143149596Y-91849476D02*
X143125406Y-91801095D01*
X143633406Y-91389857D02*
X143633406Y-91293095D01*
X143633406Y-91293095D02*
X143609216Y-91244714D01*
X143609216Y-91244714D02*
X143585025Y-91220523D01*
X143585025Y-91220523D02*
X143512454Y-91172142D01*
X143512454Y-91172142D02*
X143415692Y-91147952D01*
X143415692Y-91147952D02*
X143222168Y-91147952D01*
X143222168Y-91147952D02*
X143173787Y-91172142D01*
X143173787Y-91172142D02*
X143149596Y-91196333D01*
X143149596Y-91196333D02*
X143125406Y-91244714D01*
X143125406Y-91244714D02*
X143125406Y-91341476D01*
X143125406Y-91341476D02*
X143149596Y-91389857D01*
X143149596Y-91389857D02*
X143173787Y-91414047D01*
X143173787Y-91414047D02*
X143222168Y-91438238D01*
X143222168Y-91438238D02*
X143343120Y-91438238D01*
X143343120Y-91438238D02*
X143391501Y-91414047D01*
X143391501Y-91414047D02*
X143415692Y-91389857D01*
X143415692Y-91389857D02*
X143439882Y-91341476D01*
X143439882Y-91341476D02*
X143439882Y-91244714D01*
X143439882Y-91244714D02*
X143415692Y-91196333D01*
X143415692Y-91196333D02*
X143391501Y-91172142D01*
X143391501Y-91172142D02*
X143343120Y-91147952D01*
D11*
X139171429Y-113580819D02*
X139409524Y-114580819D01*
X139409524Y-114580819D02*
X139600000Y-113866533D01*
X139600000Y-113866533D02*
X139790476Y-114580819D01*
X139790476Y-114580819D02*
X140028572Y-113580819D01*
X108818095Y-67169819D02*
X108818095Y-66169819D01*
X109389523Y-67169819D02*
X108960952Y-66598390D01*
X109389523Y-66169819D02*
X108818095Y-66741247D01*
X134234286Y-66169819D02*
X134234286Y-66979342D01*
X134234286Y-66979342D02*
X134281905Y-67074580D01*
X134281905Y-67074580D02*
X134329524Y-67122200D01*
X134329524Y-67122200D02*
X134424762Y-67169819D01*
X134424762Y-67169819D02*
X134615238Y-67169819D01*
X134615238Y-67169819D02*
X134710476Y-67122200D01*
X134710476Y-67122200D02*
X134758095Y-67074580D01*
X134758095Y-67074580D02*
X134805714Y-66979342D01*
X134805714Y-66979342D02*
X134805714Y-66169819D01*
D10*
X82724593Y-73476904D02*
X82724593Y-73525285D01*
X82724593Y-73525285D02*
X82700403Y-73573666D01*
X82700403Y-73573666D02*
X82676212Y-73597856D01*
X82676212Y-73597856D02*
X82627831Y-73622047D01*
X82627831Y-73622047D02*
X82531069Y-73646237D01*
X82531069Y-73646237D02*
X82410117Y-73646237D01*
X82410117Y-73646237D02*
X82313355Y-73622047D01*
X82313355Y-73622047D02*
X82264974Y-73597856D01*
X82264974Y-73597856D02*
X82240784Y-73573666D01*
X82240784Y-73573666D02*
X82216593Y-73525285D01*
X82216593Y-73525285D02*
X82216593Y-73476904D01*
X82216593Y-73476904D02*
X82240784Y-73428523D01*
X82240784Y-73428523D02*
X82264974Y-73404332D01*
X82264974Y-73404332D02*
X82313355Y-73380142D01*
X82313355Y-73380142D02*
X82410117Y-73355951D01*
X82410117Y-73355951D02*
X82531069Y-73355951D01*
X82531069Y-73355951D02*
X82627831Y-73380142D01*
X82627831Y-73380142D02*
X82676212Y-73404332D01*
X82676212Y-73404332D02*
X82700403Y-73428523D01*
X82700403Y-73428523D02*
X82724593Y-73476904D01*
X82676212Y-73839761D02*
X82700403Y-73863952D01*
X82700403Y-73863952D02*
X82724593Y-73912333D01*
X82724593Y-73912333D02*
X82724593Y-74033285D01*
X82724593Y-74033285D02*
X82700403Y-74081666D01*
X82700403Y-74081666D02*
X82676212Y-74105857D01*
X82676212Y-74105857D02*
X82627831Y-74130047D01*
X82627831Y-74130047D02*
X82579450Y-74130047D01*
X82579450Y-74130047D02*
X82506879Y-74105857D01*
X82506879Y-74105857D02*
X82216593Y-73815571D01*
X82216593Y-73815571D02*
X82216593Y-74130047D01*
D11*
X111889523Y-67169819D02*
X111413333Y-67169819D01*
X111413333Y-67169819D02*
X111413333Y-66169819D01*
X116454286Y-114580819D02*
X116454286Y-113580819D01*
X116454286Y-113580819D02*
X117025714Y-114580819D01*
X117025714Y-114580819D02*
X117025714Y-113580819D01*
D10*
X82216593Y-106666237D02*
X82216593Y-106375951D01*
X82216593Y-106521094D02*
X82724593Y-106521094D01*
X82724593Y-106521094D02*
X82652022Y-106472713D01*
X82652022Y-106472713D02*
X82603641Y-106424332D01*
X82603641Y-106424332D02*
X82579450Y-106375951D01*
X82724593Y-107125857D02*
X82724593Y-106883952D01*
X82724593Y-106883952D02*
X82482688Y-106859761D01*
X82482688Y-106859761D02*
X82506879Y-106883952D01*
X82506879Y-106883952D02*
X82531069Y-106932333D01*
X82531069Y-106932333D02*
X82531069Y-107053285D01*
X82531069Y-107053285D02*
X82506879Y-107101666D01*
X82506879Y-107101666D02*
X82482688Y-107125857D01*
X82482688Y-107125857D02*
X82434307Y-107150047D01*
X82434307Y-107150047D02*
X82313355Y-107150047D01*
X82313355Y-107150047D02*
X82264974Y-107125857D01*
X82264974Y-107125857D02*
X82240784Y-107101666D01*
X82240784Y-107101666D02*
X82216593Y-107053285D01*
X82216593Y-107053285D02*
X82216593Y-106932333D01*
X82216593Y-106932333D02*
X82240784Y-106883952D01*
X82240784Y-106883952D02*
X82264974Y-106859761D01*
X82216593Y-96506237D02*
X82216593Y-96215951D01*
X82216593Y-96361094D02*
X82724593Y-96361094D01*
X82724593Y-96361094D02*
X82652022Y-96312713D01*
X82652022Y-96312713D02*
X82603641Y-96264332D01*
X82603641Y-96264332D02*
X82579450Y-96215951D01*
X82216593Y-96990047D02*
X82216593Y-96699761D01*
X82216593Y-96844904D02*
X82724593Y-96844904D01*
X82724593Y-96844904D02*
X82652022Y-96796523D01*
X82652022Y-96796523D02*
X82603641Y-96748142D01*
X82603641Y-96748142D02*
X82579450Y-96699761D01*
X143125406Y-89261095D02*
X143125406Y-89212714D01*
X143125406Y-89212714D02*
X143149596Y-89164333D01*
X143149596Y-89164333D02*
X143173787Y-89140143D01*
X143173787Y-89140143D02*
X143222168Y-89115952D01*
X143222168Y-89115952D02*
X143318930Y-89091762D01*
X143318930Y-89091762D02*
X143439882Y-89091762D01*
X143439882Y-89091762D02*
X143536644Y-89115952D01*
X143536644Y-89115952D02*
X143585025Y-89140143D01*
X143585025Y-89140143D02*
X143609216Y-89164333D01*
X143609216Y-89164333D02*
X143633406Y-89212714D01*
X143633406Y-89212714D02*
X143633406Y-89261095D01*
X143633406Y-89261095D02*
X143609216Y-89309476D01*
X143609216Y-89309476D02*
X143585025Y-89333667D01*
X143585025Y-89333667D02*
X143536644Y-89357857D01*
X143536644Y-89357857D02*
X143439882Y-89382048D01*
X143439882Y-89382048D02*
X143318930Y-89382048D01*
X143318930Y-89382048D02*
X143222168Y-89357857D01*
X143222168Y-89357857D02*
X143173787Y-89333667D01*
X143173787Y-89333667D02*
X143149596Y-89309476D01*
X143149596Y-89309476D02*
X143125406Y-89261095D01*
X143343120Y-88801476D02*
X143318930Y-88849857D01*
X143318930Y-88849857D02*
X143294739Y-88874047D01*
X143294739Y-88874047D02*
X143246358Y-88898238D01*
X143246358Y-88898238D02*
X143222168Y-88898238D01*
X143222168Y-88898238D02*
X143173787Y-88874047D01*
X143173787Y-88874047D02*
X143149596Y-88849857D01*
X143149596Y-88849857D02*
X143125406Y-88801476D01*
X143125406Y-88801476D02*
X143125406Y-88704714D01*
X143125406Y-88704714D02*
X143149596Y-88656333D01*
X143149596Y-88656333D02*
X143173787Y-88632142D01*
X143173787Y-88632142D02*
X143222168Y-88607952D01*
X143222168Y-88607952D02*
X143246358Y-88607952D01*
X143246358Y-88607952D02*
X143294739Y-88632142D01*
X143294739Y-88632142D02*
X143318930Y-88656333D01*
X143318930Y-88656333D02*
X143343120Y-88704714D01*
X143343120Y-88704714D02*
X143343120Y-88801476D01*
X143343120Y-88801476D02*
X143367311Y-88849857D01*
X143367311Y-88849857D02*
X143391501Y-88874047D01*
X143391501Y-88874047D02*
X143439882Y-88898238D01*
X143439882Y-88898238D02*
X143536644Y-88898238D01*
X143536644Y-88898238D02*
X143585025Y-88874047D01*
X143585025Y-88874047D02*
X143609216Y-88849857D01*
X143609216Y-88849857D02*
X143633406Y-88801476D01*
X143633406Y-88801476D02*
X143633406Y-88704714D01*
X143633406Y-88704714D02*
X143609216Y-88656333D01*
X143609216Y-88656333D02*
X143585025Y-88632142D01*
X143585025Y-88632142D02*
X143536644Y-88607952D01*
X143536644Y-88607952D02*
X143439882Y-88607952D01*
X143439882Y-88607952D02*
X143391501Y-88632142D01*
X143391501Y-88632142D02*
X143367311Y-88656333D01*
X143367311Y-88656333D02*
X143343120Y-88704714D01*
%LPC*%
D12*
X106520000Y-87720000D03*
D13*
X145442000Y-99140000D03*
D14*
X87470000Y-95255000D03*
X110330000Y-102875000D03*
D15*
X125630000Y-86390000D03*
D16*
X111660000Y-83910000D03*
D12*
X142080000Y-105500000D03*
D15*
X110390000Y-78770000D03*
X115470000Y-106710000D03*
X105310000Y-96550000D03*
D14*
X125570000Y-72395000D03*
D16*
X121820000Y-96610000D03*
D15*
X87530000Y-99090000D03*
X84990000Y-96550000D03*
X112930000Y-83850000D03*
D16*
X91340000Y-71210000D03*
D14*
X128110000Y-100335000D03*
D16*
X106580000Y-81370000D03*
D15*
X92610000Y-106710000D03*
D16*
X98960000Y-83910000D03*
D14*
X123030000Y-87635000D03*
D12*
X86200000Y-69940000D03*
X131920000Y-97880000D03*
D15*
X118010000Y-71150000D03*
D16*
X116740000Y-81370000D03*
D15*
X135790000Y-78770000D03*
X87530000Y-109250000D03*
D16*
X96420000Y-83910000D03*
D14*
X97630000Y-77475000D03*
D12*
X134460000Y-87720000D03*
D15*
X120550000Y-111790000D03*
D12*
X101440000Y-108040000D03*
D15*
X95150000Y-101630000D03*
D16*
X134520000Y-94070000D03*
X111660000Y-86450000D03*
D12*
X86200000Y-75020000D03*
X91280000Y-69940000D03*
D14*
X120490000Y-82555000D03*
D15*
X123090000Y-81310000D03*
X115470000Y-109250000D03*
D12*
X114140000Y-102960000D03*
D15*
X92610000Y-83850000D03*
D16*
X137060000Y-88990000D03*
D15*
X105310000Y-94010000D03*
X87530000Y-73690000D03*
X102770000Y-78770000D03*
D16*
X83720000Y-96610000D03*
D12*
X131920000Y-75020000D03*
D15*
X97690000Y-76230000D03*
D12*
X129380000Y-97880000D03*
D14*
X90010000Y-100335000D03*
D16*
X98960000Y-86450000D03*
D15*
X110390000Y-104170000D03*
D12*
X139540000Y-69940000D03*
D14*
X140810000Y-110495000D03*
D15*
X112930000Y-73690000D03*
X87530000Y-83850000D03*
D12*
X93820000Y-69940000D03*
D14*
X117950000Y-77475000D03*
D12*
X96360000Y-90260000D03*
D16*
X121820000Y-78830000D03*
D15*
X123090000Y-83850000D03*
X120550000Y-94010000D03*
D16*
X91340000Y-78830000D03*
D15*
X135790000Y-109250000D03*
D16*
X106580000Y-86450000D03*
D14*
X105250000Y-85095000D03*
D15*
X118010000Y-76230000D03*
D12*
X126840000Y-90260000D03*
D16*
X124360000Y-86450000D03*
X131980000Y-101690000D03*
D15*
X112930000Y-88930000D03*
X84990000Y-86390000D03*
D14*
X110330000Y-80015000D03*
D15*
X84990000Y-94010000D03*
D16*
X116740000Y-111850000D03*
X139600000Y-96610000D03*
X93880000Y-83910000D03*
D14*
X130650000Y-95255000D03*
D12*
X106520000Y-108040000D03*
D15*
X135790000Y-81310000D03*
D14*
X105250000Y-90175000D03*
X125570000Y-74935000D03*
D15*
X135790000Y-73690000D03*
D14*
X135730000Y-100335000D03*
D12*
X124300000Y-100420000D03*
X139540000Y-72480000D03*
D16*
X126900000Y-96610000D03*
X93880000Y-86450000D03*
D15*
X90070000Y-81310000D03*
D14*
X138270000Y-92715000D03*
D15*
X118010000Y-81310000D03*
D16*
X124360000Y-83910000D03*
X137060000Y-73750000D03*
D15*
X128170000Y-111790000D03*
D16*
X101500000Y-104230000D03*
D12*
X124300000Y-82640000D03*
D16*
X134520000Y-96610000D03*
D15*
X84990000Y-99090000D03*
X120550000Y-104170000D03*
D12*
X111600000Y-80100000D03*
D15*
X140870000Y-101630000D03*
D14*
X138270000Y-105415000D03*
D16*
X106580000Y-73750000D03*
D15*
X115470000Y-111790000D03*
D14*
X120490000Y-90175000D03*
D15*
X107850000Y-111790000D03*
D12*
X126840000Y-110580000D03*
D15*
X115470000Y-71150000D03*
D14*
X105250000Y-105415000D03*
D15*
X90070000Y-83850000D03*
X140870000Y-99090000D03*
D16*
X96420000Y-109310000D03*
D12*
X93820000Y-75020000D03*
X121760000Y-80100000D03*
X129380000Y-77560000D03*
D16*
X93880000Y-68670000D03*
X111660000Y-109310000D03*
D13*
X80418000Y-96600000D03*
D15*
X97690000Y-73690000D03*
D12*
X116680000Y-105500000D03*
D14*
X135730000Y-74935000D03*
D12*
X131920000Y-80100000D03*
D16*
X119280000Y-99150000D03*
D14*
X102710000Y-95255000D03*
D15*
X110390000Y-91470000D03*
D16*
X86260000Y-96610000D03*
D12*
X129380000Y-87720000D03*
D15*
X125630000Y-99090000D03*
X130710000Y-111790000D03*
D14*
X105250000Y-100335000D03*
D16*
X124360000Y-71210000D03*
D17*
X80500000Y-67850000D03*
D12*
X83660000Y-110580000D03*
X106520000Y-105500000D03*
X137000000Y-77560000D03*
D16*
X83720000Y-104230000D03*
X137060000Y-68670000D03*
D15*
X135790000Y-83850000D03*
D14*
X100170000Y-107955000D03*
D16*
X88800000Y-71210000D03*
X93880000Y-88990000D03*
D14*
X115410000Y-74935000D03*
D15*
X128170000Y-81310000D03*
D12*
X131920000Y-95340000D03*
D16*
X96420000Y-73750000D03*
D13*
X145442000Y-86440000D03*
D12*
X91280000Y-72480000D03*
D16*
X126900000Y-109310000D03*
X142140000Y-73750000D03*
D14*
X115410000Y-80015000D03*
D12*
X142080000Y-97880000D03*
X111600000Y-87720000D03*
D16*
X106580000Y-94070000D03*
D13*
X80418000Y-76280000D03*
D15*
X118010000Y-109250000D03*
D12*
X86200000Y-92800000D03*
D14*
X87470000Y-102875000D03*
D12*
X86200000Y-72480000D03*
X134460000Y-92800000D03*
D15*
X140870000Y-106710000D03*
X102770000Y-109250000D03*
X115470000Y-86390000D03*
D14*
X133190000Y-80015000D03*
D12*
X91280000Y-82640000D03*
D14*
X84930000Y-97795000D03*
D12*
X93820000Y-82640000D03*
D14*
X128110000Y-87635000D03*
D15*
X105310000Y-71150000D03*
D14*
X135730000Y-72395000D03*
D12*
X106520000Y-100420000D03*
D16*
X106580000Y-99150000D03*
X139600000Y-106770000D03*
X131980000Y-99150000D03*
D14*
X112870000Y-77475000D03*
D12*
X116680000Y-82640000D03*
D15*
X97690000Y-111790000D03*
X125630000Y-91470000D03*
D12*
X88740000Y-87720000D03*
D16*
X139600000Y-99150000D03*
D12*
X121760000Y-87720000D03*
D15*
X118010000Y-94010000D03*
D16*
X114200000Y-81370000D03*
D15*
X133250000Y-96550000D03*
D12*
X124300000Y-87720000D03*
D15*
X123090000Y-71150000D03*
D16*
X93880000Y-71210000D03*
D15*
X133250000Y-91470000D03*
X115470000Y-99090000D03*
D14*
X102710000Y-107955000D03*
D16*
X116740000Y-109310000D03*
D14*
X92550000Y-102875000D03*
D12*
X111600000Y-102960000D03*
D15*
X140870000Y-78770000D03*
D16*
X91340000Y-99150000D03*
D15*
X120550000Y-71150000D03*
D16*
X129440000Y-99150000D03*
X104040000Y-71210000D03*
X109120000Y-81370000D03*
D15*
X100230000Y-78770000D03*
D12*
X137000000Y-90260000D03*
D16*
X83720000Y-83910000D03*
D15*
X110390000Y-83850000D03*
D14*
X140810000Y-87635000D03*
D16*
X104040000Y-73750000D03*
D14*
X112870000Y-82555000D03*
X90010000Y-69855000D03*
D15*
X133250000Y-99090000D03*
D14*
X112870000Y-80015000D03*
D16*
X114200000Y-91530000D03*
D14*
X140810000Y-69855000D03*
D15*
X128170000Y-73690000D03*
D13*
X145442000Y-101680000D03*
D14*
X117950000Y-100335000D03*
D15*
X84990000Y-83850000D03*
D16*
X109120000Y-104230000D03*
X114200000Y-73750000D03*
X91340000Y-96610000D03*
D15*
X92610000Y-91470000D03*
X123090000Y-91470000D03*
D16*
X142140000Y-94070000D03*
D15*
X130710000Y-71150000D03*
D16*
X104040000Y-111850000D03*
D12*
X109060000Y-87720000D03*
D17*
X80500000Y-112650000D03*
D16*
X98960000Y-106770000D03*
D12*
X124300000Y-108040000D03*
D15*
X123090000Y-109250000D03*
D16*
X96420000Y-68670000D03*
D15*
X95150000Y-96550000D03*
X115470000Y-78770000D03*
D14*
X92550000Y-97795000D03*
D12*
X101440000Y-95340000D03*
D15*
X138330000Y-106710000D03*
X87530000Y-94010000D03*
D12*
X119220000Y-75020000D03*
D16*
X137060000Y-104230000D03*
X142140000Y-88990000D03*
X91340000Y-106770000D03*
X131980000Y-71210000D03*
D15*
X92610000Y-86390000D03*
X130710000Y-76230000D03*
D16*
X134520000Y-81370000D03*
D12*
X93820000Y-105500000D03*
X91280000Y-75020000D03*
D14*
X138270000Y-72395000D03*
D16*
X111660000Y-104230000D03*
D12*
X103980000Y-80100000D03*
D16*
X111660000Y-81370000D03*
D12*
X103980000Y-100420000D03*
D15*
X102770000Y-73690000D03*
D12*
X142080000Y-85180000D03*
X101440000Y-82640000D03*
X116680000Y-110580000D03*
X109060000Y-92800000D03*
D15*
X95150000Y-99090000D03*
D14*
X107790000Y-69855000D03*
X140810000Y-74935000D03*
X105250000Y-102875000D03*
D12*
X93820000Y-97880000D03*
D15*
X120550000Y-78770000D03*
D14*
X135730000Y-107955000D03*
X120490000Y-107955000D03*
D16*
X106580000Y-68670000D03*
D12*
X86200000Y-80100000D03*
D15*
X115470000Y-68610000D03*
D12*
X119220000Y-97880000D03*
D14*
X130650000Y-100335000D03*
D16*
X121820000Y-106770000D03*
D15*
X130710000Y-106710000D03*
D13*
X145442000Y-73740000D03*
D15*
X130710000Y-81310000D03*
D16*
X104040000Y-106770000D03*
D15*
X107850000Y-73690000D03*
D16*
X142140000Y-104230000D03*
D15*
X100230000Y-109250000D03*
D12*
X124300000Y-75020000D03*
X88740000Y-100420000D03*
X126840000Y-80100000D03*
X91280000Y-102960000D03*
D15*
X105310000Y-73690000D03*
D14*
X125570000Y-85095000D03*
X133190000Y-69855000D03*
X84930000Y-95255000D03*
D15*
X87530000Y-71150000D03*
X135790000Y-111790000D03*
X118010000Y-78770000D03*
D16*
X121820000Y-111850000D03*
X101500000Y-111850000D03*
D15*
X84990000Y-81310000D03*
D12*
X98900000Y-82640000D03*
D13*
X80418000Y-101680000D03*
D12*
X114140000Y-72480000D03*
X116680000Y-80100000D03*
X121760000Y-100420000D03*
D14*
X112870000Y-110495000D03*
D16*
X116740000Y-99150000D03*
X124360000Y-73750000D03*
D12*
X114140000Y-75020000D03*
D15*
X128170000Y-86390000D03*
D16*
X98960000Y-68670000D03*
D15*
X135790000Y-101630000D03*
D14*
X102710000Y-87635000D03*
D15*
X118010000Y-96550000D03*
X84990000Y-88930000D03*
D16*
X111660000Y-96610000D03*
D15*
X112930000Y-78770000D03*
X115470000Y-83850000D03*
D14*
X123030000Y-97795000D03*
X102710000Y-80015000D03*
D15*
X97690000Y-68610000D03*
D16*
X98960000Y-71210000D03*
X142140000Y-86450000D03*
D15*
X138330000Y-71150000D03*
X130710000Y-94010000D03*
X112930000Y-86390000D03*
D12*
X98900000Y-87720000D03*
D15*
X105310000Y-68610000D03*
D12*
X114140000Y-69940000D03*
D14*
X117950000Y-95255000D03*
D15*
X92610000Y-76230000D03*
D16*
X139600000Y-91530000D03*
D15*
X92610000Y-73690000D03*
D12*
X119220000Y-85180000D03*
D16*
X98960000Y-91530000D03*
D12*
X98900000Y-75020000D03*
D14*
X100170000Y-80015000D03*
D15*
X133250000Y-71150000D03*
D14*
X84930000Y-102875000D03*
D12*
X121760000Y-108040000D03*
D14*
X130650000Y-110495000D03*
X84930000Y-69855000D03*
X100170000Y-92715000D03*
D16*
X114200000Y-106770000D03*
X116740000Y-83910000D03*
D15*
X92610000Y-71150000D03*
X112930000Y-91470000D03*
X107850000Y-109250000D03*
D16*
X96420000Y-111850000D03*
D15*
X118010000Y-104170000D03*
D14*
X123030000Y-72395000D03*
X97630000Y-105415000D03*
D15*
X110390000Y-73690000D03*
D16*
X98960000Y-94070000D03*
X91340000Y-91530000D03*
D15*
X125630000Y-109250000D03*
X97690000Y-96550000D03*
X105310000Y-76230000D03*
D16*
X106580000Y-111850000D03*
D15*
X95150000Y-109250000D03*
D12*
X96360000Y-77560000D03*
X126840000Y-72480000D03*
X129380000Y-80100000D03*
X91280000Y-100420000D03*
X93820000Y-95340000D03*
D16*
X119280000Y-86450000D03*
D12*
X103980000Y-77560000D03*
D14*
X125570000Y-97795000D03*
D13*
X80418000Y-71200000D03*
D15*
X138330000Y-88930000D03*
X107850000Y-76230000D03*
D14*
X123030000Y-77475000D03*
D16*
X124360000Y-111850000D03*
X111660000Y-94070000D03*
X137060000Y-94070000D03*
D14*
X100170000Y-110495000D03*
D16*
X109120000Y-101690000D03*
D15*
X100230000Y-86390000D03*
D12*
X124300000Y-102960000D03*
D16*
X129440000Y-83910000D03*
D12*
X134460000Y-100420000D03*
X88740000Y-75020000D03*
D16*
X111660000Y-99150000D03*
D15*
X92610000Y-81310000D03*
X107850000Y-94010000D03*
D16*
X119280000Y-104230000D03*
D14*
X117950000Y-87635000D03*
D16*
X121820000Y-71210000D03*
D12*
X91280000Y-97880000D03*
X98900000Y-105500000D03*
D14*
X87470000Y-110495000D03*
D13*
X80418000Y-81360000D03*
D16*
X86260000Y-83910000D03*
D14*
X133190000Y-82555000D03*
D16*
X137060000Y-86450000D03*
X126900000Y-101690000D03*
X86260000Y-71210000D03*
D14*
X135730000Y-102875000D03*
X117950000Y-82555000D03*
X117950000Y-80015000D03*
D16*
X88800000Y-68670000D03*
D15*
X90070000Y-88930000D03*
X130710000Y-91470000D03*
D16*
X91340000Y-111850000D03*
X88800000Y-73750000D03*
D12*
X86200000Y-95340000D03*
D16*
X109120000Y-78830000D03*
D12*
X96360000Y-92800000D03*
D15*
X140870000Y-104170000D03*
D13*
X145442000Y-104220000D03*
D14*
X110330000Y-100335000D03*
X100170000Y-95255000D03*
D12*
X101440000Y-87720000D03*
X91280000Y-87720000D03*
D14*
X135730000Y-97795000D03*
D16*
X139600000Y-86450000D03*
D15*
X140870000Y-88930000D03*
X135790000Y-94010000D03*
D12*
X129380000Y-72480000D03*
D16*
X104040000Y-68670000D03*
X131980000Y-104230000D03*
D15*
X140870000Y-86390000D03*
X100230000Y-88930000D03*
D12*
X93820000Y-77560000D03*
D16*
X137060000Y-106770000D03*
X83720000Y-73750000D03*
X88800000Y-109310000D03*
D15*
X115470000Y-104170000D03*
D12*
X93820000Y-108040000D03*
D14*
X133190000Y-95255000D03*
D12*
X134460000Y-105500000D03*
D15*
X133250000Y-104170000D03*
D12*
X134460000Y-97880000D03*
D14*
X95090000Y-69855000D03*
D15*
X135790000Y-91470000D03*
D12*
X137000000Y-75020000D03*
D14*
X115410000Y-110495000D03*
X115410000Y-102875000D03*
D16*
X121820000Y-109310000D03*
D15*
X135790000Y-99090000D03*
D12*
X93820000Y-92800000D03*
D14*
X133190000Y-92715000D03*
X130650000Y-105415000D03*
D15*
X123090000Y-73690000D03*
D14*
X110330000Y-82555000D03*
X107790000Y-77475000D03*
D15*
X97690000Y-109250000D03*
D12*
X103980000Y-85180000D03*
X134460000Y-77560000D03*
D15*
X140870000Y-76230000D03*
D14*
X90010000Y-105415000D03*
D16*
X114200000Y-71210000D03*
D12*
X88740000Y-77560000D03*
X106520000Y-90260000D03*
D15*
X90070000Y-104170000D03*
D16*
X142140000Y-68670000D03*
D12*
X131920000Y-69940000D03*
D16*
X119280000Y-68670000D03*
D15*
X140870000Y-109250000D03*
X105310000Y-111790000D03*
X92610000Y-94010000D03*
D14*
X120490000Y-74935000D03*
X130650000Y-74935000D03*
D16*
X88800000Y-94070000D03*
X104040000Y-76290000D03*
D14*
X112870000Y-74935000D03*
D16*
X131980000Y-106770000D03*
D15*
X115470000Y-91470000D03*
D12*
X88740000Y-108040000D03*
X106520000Y-102960000D03*
D15*
X135790000Y-88930000D03*
D12*
X109060000Y-90260000D03*
X139540000Y-82640000D03*
D14*
X130650000Y-87635000D03*
X130650000Y-72395000D03*
D13*
X80418000Y-88980000D03*
D12*
X124300000Y-97880000D03*
X96360000Y-108040000D03*
D14*
X125570000Y-105415000D03*
X138270000Y-107955000D03*
X92550000Y-105415000D03*
D12*
X93820000Y-110580000D03*
D15*
X133250000Y-101630000D03*
D14*
X102710000Y-85095000D03*
X100170000Y-97795000D03*
X115410000Y-72395000D03*
D16*
X134520000Y-83910000D03*
D12*
X126840000Y-85180000D03*
D16*
X109120000Y-91530000D03*
D15*
X118010000Y-91470000D03*
D16*
X137060000Y-71210000D03*
D14*
X87470000Y-92715000D03*
D13*
X80418000Y-86440000D03*
D16*
X121820000Y-83910000D03*
D12*
X114140000Y-100420000D03*
D16*
X83720000Y-71210000D03*
D14*
X97630000Y-97795000D03*
D13*
X145442000Y-91520000D03*
D14*
X92550000Y-107955000D03*
D16*
X142140000Y-91530000D03*
X109120000Y-106770000D03*
X96420000Y-94070000D03*
D14*
X120490000Y-100335000D03*
X100170000Y-85095000D03*
X87470000Y-72395000D03*
D16*
X126900000Y-99150000D03*
X116740000Y-73750000D03*
D12*
X86200000Y-100420000D03*
D15*
X125630000Y-68610000D03*
D16*
X86260000Y-101690000D03*
D15*
X97690000Y-83850000D03*
D12*
X101440000Y-105500000D03*
D15*
X120550000Y-91470000D03*
D16*
X124360000Y-104230000D03*
D15*
X118010000Y-73690000D03*
D12*
X106520000Y-75020000D03*
D15*
X107850000Y-96550000D03*
D14*
X97630000Y-72395000D03*
D16*
X98960000Y-109310000D03*
D12*
X142080000Y-108040000D03*
D16*
X134520000Y-101690000D03*
X131980000Y-94070000D03*
D15*
X120550000Y-109250000D03*
D13*
X80418000Y-83900000D03*
D15*
X97690000Y-86390000D03*
D12*
X101440000Y-85180000D03*
D14*
X123030000Y-100335000D03*
X107790000Y-87635000D03*
D12*
X131920000Y-102960000D03*
D16*
X121820000Y-94070000D03*
D12*
X131920000Y-110580000D03*
X96360000Y-82640000D03*
D16*
X83720000Y-111850000D03*
D12*
X134460000Y-72480000D03*
D16*
X142140000Y-96610000D03*
X121820000Y-73750000D03*
X142140000Y-78830000D03*
D15*
X102770000Y-94010000D03*
D12*
X103980000Y-90260000D03*
D14*
X95090000Y-77475000D03*
D15*
X140870000Y-96550000D03*
X112930000Y-99090000D03*
D16*
X126900000Y-76290000D03*
D14*
X100170000Y-74935000D03*
D15*
X100230000Y-73690000D03*
D14*
X112870000Y-95255000D03*
D16*
X139600000Y-104230000D03*
D14*
X102710000Y-110495000D03*
D12*
X96360000Y-85180000D03*
D14*
X100170000Y-72395000D03*
D15*
X135790000Y-68610000D03*
D14*
X140810000Y-102875000D03*
X95090000Y-107955000D03*
X135730000Y-82555000D03*
D16*
X142140000Y-101690000D03*
D14*
X133190000Y-102875000D03*
D15*
X118010000Y-99090000D03*
D16*
X101500000Y-99150000D03*
D15*
X100230000Y-101630000D03*
D14*
X117950000Y-92715000D03*
X95090000Y-102875000D03*
D16*
X126900000Y-86450000D03*
D15*
X97690000Y-71150000D03*
D16*
X88800000Y-78830000D03*
D12*
X142080000Y-100420000D03*
X137000000Y-110580000D03*
X119220000Y-80100000D03*
X114140000Y-105500000D03*
D16*
X134520000Y-106770000D03*
D14*
X92550000Y-85095000D03*
X87470000Y-74935000D03*
D15*
X133250000Y-81310000D03*
D14*
X100170000Y-90175000D03*
X130650000Y-77475000D03*
D15*
X138330000Y-94010000D03*
D16*
X114200000Y-88990000D03*
D15*
X130710000Y-101630000D03*
D16*
X93880000Y-94070000D03*
D14*
X117950000Y-105415000D03*
D12*
X98900000Y-110580000D03*
D16*
X104040000Y-104230000D03*
D12*
X91280000Y-85180000D03*
D16*
X88800000Y-83910000D03*
D15*
X95150000Y-78770000D03*
D14*
X140810000Y-95255000D03*
D16*
X93880000Y-104230000D03*
D14*
X140810000Y-80015000D03*
D15*
X123090000Y-94010000D03*
D12*
X137000000Y-108040000D03*
D15*
X95150000Y-71150000D03*
D16*
X96420000Y-88990000D03*
X83720000Y-81370000D03*
D14*
X110330000Y-69855000D03*
X133190000Y-107955000D03*
X117950000Y-90175000D03*
X92550000Y-74935000D03*
D16*
X126900000Y-81370000D03*
D12*
X114140000Y-108040000D03*
X109060000Y-75020000D03*
D15*
X92610000Y-68610000D03*
X133250000Y-111790000D03*
D14*
X95090000Y-87635000D03*
D15*
X105310000Y-91470000D03*
X112930000Y-76230000D03*
D14*
X125570000Y-102875000D03*
X117950000Y-74935000D03*
D12*
X121760000Y-90260000D03*
X124300000Y-72480000D03*
X103980000Y-69940000D03*
X96360000Y-95340000D03*
D15*
X90070000Y-111790000D03*
D14*
X128110000Y-107955000D03*
X90010000Y-110495000D03*
D15*
X100230000Y-68610000D03*
D16*
X134520000Y-111850000D03*
D12*
X137000000Y-97880000D03*
D15*
X138330000Y-68610000D03*
D14*
X102710000Y-97795000D03*
D16*
X91340000Y-76290000D03*
X88800000Y-86450000D03*
D14*
X135730000Y-77475000D03*
D15*
X84990000Y-68610000D03*
D16*
X91340000Y-101690000D03*
D12*
X88740000Y-80100000D03*
D15*
X102770000Y-88930000D03*
D14*
X138270000Y-74935000D03*
D15*
X138330000Y-86390000D03*
D12*
X114140000Y-77560000D03*
D16*
X139600000Y-81370000D03*
D12*
X119220000Y-82640000D03*
X101440000Y-69940000D03*
X96360000Y-87720000D03*
D13*
X145442000Y-88980000D03*
D12*
X129380000Y-92800000D03*
X83660000Y-92800000D03*
D14*
X110330000Y-107955000D03*
D16*
X137060000Y-91530000D03*
D15*
X133250000Y-83850000D03*
X102770000Y-96550000D03*
D16*
X109120000Y-88990000D03*
X131980000Y-88990000D03*
X134520000Y-99150000D03*
D15*
X133250000Y-106710000D03*
D16*
X116740000Y-104230000D03*
D14*
X84930000Y-77475000D03*
D15*
X128170000Y-83850000D03*
D12*
X86200000Y-85180000D03*
D14*
X97630000Y-92715000D03*
D15*
X102770000Y-81310000D03*
D12*
X96360000Y-110580000D03*
D15*
X90070000Y-96550000D03*
D16*
X124360000Y-99150000D03*
X83720000Y-94070000D03*
D15*
X97690000Y-91470000D03*
X92610000Y-101630000D03*
X135790000Y-106710000D03*
X97690000Y-101630000D03*
D14*
X128110000Y-110495000D03*
D12*
X137000000Y-102960000D03*
D16*
X86260000Y-78830000D03*
X114200000Y-86450000D03*
D14*
X90010000Y-102875000D03*
D12*
X142080000Y-95340000D03*
D16*
X86260000Y-73750000D03*
X114200000Y-94070000D03*
D13*
X145442000Y-76280000D03*
D12*
X91280000Y-92800000D03*
D14*
X110330000Y-87635000D03*
D13*
X145442000Y-106760000D03*
D12*
X121760000Y-77560000D03*
D16*
X86260000Y-104230000D03*
D12*
X98900000Y-95340000D03*
D15*
X123090000Y-78770000D03*
D16*
X124360000Y-109310000D03*
X119280000Y-111850000D03*
D14*
X84930000Y-82555000D03*
D16*
X106580000Y-78830000D03*
X134520000Y-86450000D03*
D12*
X134460000Y-82640000D03*
D14*
X117950000Y-85095000D03*
D12*
X109060000Y-80100000D03*
X109060000Y-102960000D03*
D14*
X107790000Y-82555000D03*
D16*
X86260000Y-86450000D03*
D12*
X83660000Y-82640000D03*
D15*
X138330000Y-81310000D03*
X128170000Y-106710000D03*
D16*
X121820000Y-76290000D03*
D12*
X134460000Y-75020000D03*
X131920000Y-108040000D03*
D16*
X104040000Y-99150000D03*
D15*
X125630000Y-78770000D03*
D16*
X101500000Y-78830000D03*
D14*
X100170000Y-69855000D03*
D13*
X80418000Y-99140000D03*
D14*
X87470000Y-82555000D03*
D16*
X139600000Y-71210000D03*
D12*
X98900000Y-85180000D03*
X116680000Y-100420000D03*
X86200000Y-82640000D03*
D14*
X120490000Y-102875000D03*
X128110000Y-72395000D03*
X120490000Y-110495000D03*
D16*
X86260000Y-109310000D03*
D14*
X110330000Y-74935000D03*
D15*
X110390000Y-86390000D03*
D14*
X105250000Y-97795000D03*
D16*
X126900000Y-78830000D03*
X104040000Y-88990000D03*
X111660000Y-76290000D03*
D12*
X126840000Y-92800000D03*
D15*
X125630000Y-71150000D03*
D14*
X112870000Y-102875000D03*
X138270000Y-95255000D03*
D16*
X101500000Y-106770000D03*
D15*
X133250000Y-86390000D03*
X100230000Y-76230000D03*
D12*
X126840000Y-75020000D03*
D14*
X128110000Y-74935000D03*
X115410000Y-105415000D03*
D15*
X112930000Y-96550000D03*
D16*
X106580000Y-76290000D03*
D14*
X110330000Y-97795000D03*
D12*
X111600000Y-69940000D03*
D16*
X109120000Y-111850000D03*
D14*
X102710000Y-90175000D03*
D16*
X83720000Y-91530000D03*
D14*
X135730000Y-92715000D03*
D16*
X111660000Y-106770000D03*
X91340000Y-88990000D03*
X96420000Y-99150000D03*
D14*
X90010000Y-77475000D03*
D15*
X100230000Y-99090000D03*
D16*
X129440000Y-109310000D03*
X93880000Y-109310000D03*
D14*
X140810000Y-97795000D03*
D16*
X114200000Y-83910000D03*
X93880000Y-91530000D03*
D15*
X140870000Y-68610000D03*
D16*
X111660000Y-68670000D03*
D12*
X137000000Y-92800000D03*
D15*
X115470000Y-101630000D03*
D16*
X137060000Y-99150000D03*
D14*
X138270000Y-80015000D03*
D15*
X100230000Y-83850000D03*
X130710000Y-88930000D03*
X105310000Y-78770000D03*
X87530000Y-78770000D03*
D14*
X123030000Y-90175000D03*
D12*
X126840000Y-105500000D03*
X134460000Y-90260000D03*
D16*
X86260000Y-94070000D03*
D12*
X116680000Y-69940000D03*
D14*
X105250000Y-77475000D03*
D16*
X109120000Y-109310000D03*
X86260000Y-99150000D03*
D13*
X145442000Y-109300000D03*
D15*
X90070000Y-78770000D03*
D12*
X98900000Y-69940000D03*
D16*
X104040000Y-86450000D03*
X116740000Y-78830000D03*
D13*
X145442000Y-94060000D03*
D12*
X131920000Y-85180000D03*
X134460000Y-102960000D03*
D14*
X120490000Y-80015000D03*
X125570000Y-82555000D03*
D15*
X95150000Y-104170000D03*
D16*
X129440000Y-101690000D03*
D14*
X120490000Y-92715000D03*
D16*
X111660000Y-88990000D03*
X137060000Y-76290000D03*
D15*
X140870000Y-73690000D03*
D14*
X100170000Y-82555000D03*
D15*
X87530000Y-91470000D03*
D14*
X105250000Y-110495000D03*
D15*
X133250000Y-109250000D03*
D12*
X88740000Y-110580000D03*
X116680000Y-72480000D03*
D16*
X124360000Y-96610000D03*
D12*
X124300000Y-105500000D03*
D14*
X138270000Y-110495000D03*
D16*
X109120000Y-71210000D03*
X111660000Y-71210000D03*
D15*
X115470000Y-81310000D03*
D12*
X116680000Y-95340000D03*
X139540000Y-92800000D03*
D16*
X111660000Y-91530000D03*
X101500000Y-81370000D03*
D15*
X90070000Y-68610000D03*
D14*
X87470000Y-100335000D03*
X123030000Y-95255000D03*
D16*
X142140000Y-71210000D03*
D14*
X128110000Y-77475000D03*
D15*
X115470000Y-73690000D03*
D12*
X119220000Y-105500000D03*
D15*
X90070000Y-86390000D03*
D12*
X101440000Y-75020000D03*
D15*
X107850000Y-99090000D03*
D14*
X90010000Y-97795000D03*
X84930000Y-107955000D03*
X112870000Y-92715000D03*
D15*
X120550000Y-73690000D03*
D12*
X101440000Y-77560000D03*
D14*
X100170000Y-77475000D03*
D12*
X88740000Y-90260000D03*
D16*
X137060000Y-101690000D03*
D12*
X124300000Y-90260000D03*
D15*
X97690000Y-88930000D03*
D16*
X93880000Y-81370000D03*
D12*
X98900000Y-100420000D03*
D15*
X112930000Y-111790000D03*
X130710000Y-109250000D03*
D12*
X116680000Y-75020000D03*
D15*
X107850000Y-71150000D03*
D16*
X114200000Y-111850000D03*
D14*
X90010000Y-72395000D03*
X95090000Y-90175000D03*
D12*
X86200000Y-90260000D03*
D14*
X128110000Y-90175000D03*
D16*
X131980000Y-73750000D03*
D15*
X130710000Y-83850000D03*
X112930000Y-94010000D03*
D12*
X121760000Y-75020000D03*
D14*
X128110000Y-95255000D03*
D15*
X120550000Y-86390000D03*
D12*
X116680000Y-85180000D03*
D14*
X92550000Y-69855000D03*
D12*
X109060000Y-72480000D03*
X114140000Y-92800000D03*
D15*
X87530000Y-106710000D03*
D12*
X114140000Y-90260000D03*
X119220000Y-90260000D03*
X86200000Y-110580000D03*
D15*
X115470000Y-88930000D03*
D14*
X95090000Y-74935000D03*
D12*
X129380000Y-105500000D03*
D14*
X97630000Y-110495000D03*
D15*
X110390000Y-96550000D03*
X135790000Y-86390000D03*
D16*
X137060000Y-78830000D03*
D15*
X125630000Y-76230000D03*
D12*
X129380000Y-85180000D03*
X103980000Y-75020000D03*
D15*
X120550000Y-99090000D03*
D12*
X121760000Y-97880000D03*
D15*
X130710000Y-99090000D03*
D14*
X92550000Y-82555000D03*
X138270000Y-77475000D03*
D16*
X119280000Y-88990000D03*
D14*
X84930000Y-74935000D03*
D15*
X135790000Y-71150000D03*
D12*
X106520000Y-92800000D03*
D14*
X138270000Y-100335000D03*
D12*
X121760000Y-105500000D03*
X139540000Y-87720000D03*
D14*
X130650000Y-107955000D03*
D12*
X83660000Y-102960000D03*
X119220000Y-102960000D03*
D14*
X90010000Y-92715000D03*
X95090000Y-72395000D03*
D16*
X109120000Y-68670000D03*
D14*
X125570000Y-110495000D03*
D15*
X115470000Y-76230000D03*
D16*
X119280000Y-73750000D03*
D15*
X128170000Y-88930000D03*
D14*
X97630000Y-95255000D03*
X87470000Y-90175000D03*
D16*
X131980000Y-86450000D03*
D12*
X83660000Y-87720000D03*
D14*
X115410000Y-82555000D03*
D16*
X131980000Y-76290000D03*
D12*
X139540000Y-102960000D03*
D15*
X110390000Y-111790000D03*
X110390000Y-71150000D03*
D16*
X96420000Y-76290000D03*
D14*
X130650000Y-97795000D03*
D15*
X107850000Y-83850000D03*
D14*
X90010000Y-82555000D03*
D16*
X106580000Y-106770000D03*
X134520000Y-109310000D03*
D15*
X125630000Y-101630000D03*
D12*
X119220000Y-77560000D03*
X124300000Y-95340000D03*
X131920000Y-87720000D03*
X91280000Y-110580000D03*
X103980000Y-95340000D03*
D15*
X105310000Y-83850000D03*
D12*
X93820000Y-100420000D03*
D15*
X105310000Y-86390000D03*
D14*
X110330000Y-90175000D03*
D16*
X101500000Y-101690000D03*
X101500000Y-73750000D03*
D15*
X112930000Y-68610000D03*
X138330000Y-104170000D03*
D14*
X140810000Y-72395000D03*
X115410000Y-100335000D03*
D15*
X105310000Y-101630000D03*
X97690000Y-99090000D03*
D14*
X102710000Y-105415000D03*
D16*
X109120000Y-73750000D03*
D15*
X128170000Y-104170000D03*
D16*
X86260000Y-111850000D03*
D12*
X109060000Y-105500000D03*
D14*
X107790000Y-100335000D03*
X115410000Y-69855000D03*
X133190000Y-87635000D03*
D12*
X83660000Y-90260000D03*
X91280000Y-105500000D03*
D14*
X95090000Y-85095000D03*
D12*
X119220000Y-95340000D03*
D16*
X109120000Y-83910000D03*
X91340000Y-83910000D03*
D15*
X110390000Y-81310000D03*
D16*
X88800000Y-99150000D03*
D14*
X112870000Y-105415000D03*
D12*
X114140000Y-85180000D03*
D16*
X131980000Y-91530000D03*
D12*
X96360000Y-100420000D03*
D14*
X107790000Y-92715000D03*
D16*
X121820000Y-91530000D03*
D14*
X135730000Y-90175000D03*
D15*
X107850000Y-88930000D03*
D12*
X119220000Y-92800000D03*
D16*
X83720000Y-68670000D03*
D14*
X105250000Y-72395000D03*
D12*
X139540000Y-80100000D03*
X101440000Y-100420000D03*
X116680000Y-77560000D03*
X88740000Y-102960000D03*
D16*
X101500000Y-83910000D03*
D15*
X84990000Y-71150000D03*
D12*
X109060000Y-82640000D03*
D16*
X134520000Y-71210000D03*
D14*
X87470000Y-105415000D03*
D16*
X111660000Y-111850000D03*
D15*
X100230000Y-96550000D03*
D14*
X128110000Y-102875000D03*
D15*
X125630000Y-88930000D03*
D12*
X126840000Y-77560000D03*
D16*
X134520000Y-104230000D03*
D12*
X124300000Y-80100000D03*
D16*
X114200000Y-78830000D03*
D12*
X139540000Y-105500000D03*
D16*
X83720000Y-88990000D03*
X106580000Y-109310000D03*
D14*
X90010000Y-85095000D03*
D15*
X118010000Y-106710000D03*
D16*
X93880000Y-78830000D03*
D14*
X135730000Y-80015000D03*
X120490000Y-77475000D03*
X138270000Y-97795000D03*
D15*
X123090000Y-104170000D03*
D16*
X126900000Y-104230000D03*
D12*
X98900000Y-97880000D03*
X83660000Y-100420000D03*
D17*
X145300000Y-112650000D03*
D12*
X98900000Y-108040000D03*
D16*
X139600000Y-76290000D03*
D12*
X139540000Y-97880000D03*
X88740000Y-82640000D03*
X83660000Y-97880000D03*
D15*
X138330000Y-83850000D03*
X120550000Y-106710000D03*
D14*
X138270000Y-85095000D03*
D15*
X90070000Y-99090000D03*
D14*
X138270000Y-69855000D03*
D16*
X116740000Y-94070000D03*
D14*
X102710000Y-102875000D03*
D16*
X129440000Y-71210000D03*
D14*
X90010000Y-107955000D03*
D15*
X130710000Y-78770000D03*
D12*
X129380000Y-100420000D03*
D16*
X91340000Y-73750000D03*
D12*
X114140000Y-97880000D03*
D14*
X97630000Y-90175000D03*
D16*
X137060000Y-96610000D03*
D15*
X120550000Y-96550000D03*
X130710000Y-68610000D03*
D16*
X91340000Y-94070000D03*
D14*
X120490000Y-69855000D03*
D12*
X96360000Y-102960000D03*
D15*
X123090000Y-68610000D03*
X92610000Y-104170000D03*
D16*
X116740000Y-86450000D03*
X109120000Y-86450000D03*
X96420000Y-78830000D03*
D12*
X86200000Y-102960000D03*
D15*
X140870000Y-81310000D03*
D12*
X124300000Y-85180000D03*
D15*
X105310000Y-104170000D03*
X84990000Y-101630000D03*
X84990000Y-111790000D03*
D13*
X80418000Y-104220000D03*
D12*
X88740000Y-97880000D03*
D14*
X120490000Y-87635000D03*
D15*
X84990000Y-91470000D03*
D12*
X131920000Y-77560000D03*
D14*
X92550000Y-77475000D03*
D16*
X116740000Y-68670000D03*
D15*
X95150000Y-76230000D03*
D14*
X112870000Y-85095000D03*
D16*
X106580000Y-88990000D03*
D14*
X105250000Y-80015000D03*
D15*
X95150000Y-73690000D03*
D14*
X123030000Y-69855000D03*
D15*
X130710000Y-73690000D03*
D16*
X142140000Y-76290000D03*
X129440000Y-91530000D03*
D12*
X121760000Y-72480000D03*
X121760000Y-69940000D03*
D14*
X128110000Y-80015000D03*
X105250000Y-92715000D03*
X123030000Y-80015000D03*
D12*
X111600000Y-110580000D03*
X134460000Y-110580000D03*
D15*
X120550000Y-68610000D03*
X105310000Y-99090000D03*
D12*
X126840000Y-87720000D03*
D15*
X140870000Y-111790000D03*
D14*
X140810000Y-77475000D03*
D15*
X95150000Y-86390000D03*
D16*
X121820000Y-68670000D03*
D12*
X116680000Y-90260000D03*
X139540000Y-100420000D03*
D16*
X142140000Y-111850000D03*
X101500000Y-94070000D03*
D15*
X87530000Y-68610000D03*
D14*
X117950000Y-102875000D03*
D15*
X107850000Y-101630000D03*
D14*
X115410000Y-92715000D03*
D12*
X114140000Y-110580000D03*
D16*
X124360000Y-94070000D03*
D14*
X97630000Y-85095000D03*
D16*
X126900000Y-106770000D03*
D12*
X116680000Y-92800000D03*
X114140000Y-82640000D03*
D14*
X107790000Y-102875000D03*
D15*
X115470000Y-96550000D03*
D12*
X91280000Y-108040000D03*
D15*
X100230000Y-106710000D03*
D12*
X96360000Y-72480000D03*
D16*
X116740000Y-76290000D03*
D14*
X84930000Y-100335000D03*
D15*
X102770000Y-99090000D03*
X95150000Y-91470000D03*
D12*
X111600000Y-92800000D03*
D16*
X83720000Y-101690000D03*
D12*
X88740000Y-69940000D03*
D14*
X140810000Y-100335000D03*
D12*
X119220000Y-110580000D03*
X124300000Y-77560000D03*
X139540000Y-90260000D03*
D14*
X112870000Y-100335000D03*
D16*
X126900000Y-71210000D03*
D14*
X92550000Y-92715000D03*
D15*
X87530000Y-101630000D03*
D12*
X91280000Y-90260000D03*
D14*
X115410000Y-90175000D03*
D12*
X106520000Y-80100000D03*
D16*
X129440000Y-73750000D03*
D15*
X125630000Y-94010000D03*
D12*
X111600000Y-90260000D03*
D15*
X123090000Y-99090000D03*
D16*
X106580000Y-96610000D03*
D14*
X105250000Y-69855000D03*
D13*
X145442000Y-83900000D03*
D16*
X124360000Y-78830000D03*
D14*
X115410000Y-77475000D03*
D12*
X126840000Y-69940000D03*
X137000000Y-82640000D03*
D16*
X139600000Y-73750000D03*
D15*
X140870000Y-91470000D03*
X115470000Y-94010000D03*
D14*
X84930000Y-80015000D03*
D12*
X126840000Y-102960000D03*
X111600000Y-97880000D03*
X116680000Y-102960000D03*
D15*
X125630000Y-83850000D03*
D12*
X134460000Y-85180000D03*
D16*
X129440000Y-96610000D03*
D14*
X125570000Y-69855000D03*
X123030000Y-82555000D03*
D12*
X103980000Y-97880000D03*
D15*
X128170000Y-109250000D03*
D12*
X131920000Y-105500000D03*
X109060000Y-97880000D03*
D16*
X93880000Y-96610000D03*
D15*
X105310000Y-109250000D03*
D12*
X86200000Y-77560000D03*
D15*
X138330000Y-91470000D03*
D16*
X96420000Y-96610000D03*
D12*
X134460000Y-80100000D03*
D14*
X87470000Y-107955000D03*
D12*
X91280000Y-80100000D03*
D14*
X97630000Y-74935000D03*
X110330000Y-110495000D03*
D12*
X137000000Y-87720000D03*
D15*
X100230000Y-91470000D03*
D12*
X139540000Y-95340000D03*
D16*
X116740000Y-96610000D03*
D12*
X111600000Y-108040000D03*
D14*
X87470000Y-77475000D03*
X112870000Y-69855000D03*
D16*
X98960000Y-96610000D03*
D12*
X88740000Y-92800000D03*
D16*
X86260000Y-88990000D03*
D14*
X115410000Y-97795000D03*
D16*
X131980000Y-111850000D03*
D12*
X119220000Y-100420000D03*
D16*
X96420000Y-104230000D03*
X88800000Y-88990000D03*
D15*
X95150000Y-106710000D03*
D14*
X92550000Y-110495000D03*
D16*
X129440000Y-68670000D03*
D14*
X102710000Y-100335000D03*
D12*
X83660000Y-108040000D03*
D15*
X87530000Y-104170000D03*
D16*
X98960000Y-81370000D03*
D15*
X84990000Y-78770000D03*
X112930000Y-101630000D03*
D12*
X83660000Y-75020000D03*
D14*
X138270000Y-102875000D03*
D15*
X92610000Y-109250000D03*
D14*
X95090000Y-105415000D03*
X120490000Y-72395000D03*
D15*
X120550000Y-101630000D03*
D14*
X135730000Y-87635000D03*
D15*
X110390000Y-106710000D03*
D14*
X95090000Y-92715000D03*
D12*
X131920000Y-82640000D03*
D16*
X104040000Y-96610000D03*
D14*
X110330000Y-92715000D03*
D16*
X139600000Y-94070000D03*
D15*
X107850000Y-68610000D03*
X140870000Y-94010000D03*
D16*
X129440000Y-88990000D03*
D12*
X98900000Y-72480000D03*
D15*
X110390000Y-99090000D03*
D12*
X106520000Y-77560000D03*
D16*
X129440000Y-104230000D03*
D14*
X140810000Y-82555000D03*
D16*
X119280000Y-71210000D03*
D15*
X87530000Y-81310000D03*
D12*
X124300000Y-69940000D03*
X142080000Y-82640000D03*
X103980000Y-105500000D03*
D16*
X86260000Y-91530000D03*
D13*
X145442000Y-96600000D03*
D16*
X109120000Y-96610000D03*
D13*
X80418000Y-94060000D03*
D16*
X101500000Y-76290000D03*
D14*
X125570000Y-95255000D03*
D16*
X83720000Y-78830000D03*
X129440000Y-106770000D03*
X104040000Y-91530000D03*
D12*
X96360000Y-80100000D03*
D14*
X92550000Y-80015000D03*
X130650000Y-85095000D03*
X84930000Y-87635000D03*
X125570000Y-100335000D03*
D12*
X109060000Y-95340000D03*
D15*
X97690000Y-94010000D03*
D16*
X88800000Y-91530000D03*
X83720000Y-109310000D03*
D12*
X88740000Y-95340000D03*
D16*
X129440000Y-86450000D03*
X93880000Y-101690000D03*
D13*
X80418000Y-91520000D03*
D15*
X133250000Y-76230000D03*
D14*
X87470000Y-80015000D03*
D12*
X142080000Y-87720000D03*
X139540000Y-108040000D03*
D14*
X138270000Y-87635000D03*
X107790000Y-74935000D03*
D17*
X145300000Y-67850000D03*
D16*
X98960000Y-99150000D03*
D15*
X125630000Y-81310000D03*
D12*
X114140000Y-95340000D03*
D16*
X98960000Y-78830000D03*
D12*
X93820000Y-87720000D03*
D14*
X123030000Y-74935000D03*
D16*
X119280000Y-78830000D03*
X131980000Y-81370000D03*
D12*
X109060000Y-100420000D03*
D16*
X126900000Y-94070000D03*
D15*
X130710000Y-104170000D03*
D14*
X87470000Y-97795000D03*
D12*
X119220000Y-72480000D03*
D15*
X102770000Y-111790000D03*
X107850000Y-86390000D03*
D16*
X142140000Y-106770000D03*
D14*
X140810000Y-85095000D03*
D12*
X137000000Y-72480000D03*
X103980000Y-110580000D03*
D14*
X130650000Y-90175000D03*
X123030000Y-85095000D03*
X107790000Y-80015000D03*
D15*
X135790000Y-76230000D03*
D16*
X131980000Y-78830000D03*
D12*
X101440000Y-97880000D03*
D14*
X123030000Y-92715000D03*
D12*
X93820000Y-72480000D03*
D15*
X92610000Y-78770000D03*
D16*
X116740000Y-106770000D03*
D14*
X92550000Y-87635000D03*
X133190000Y-85095000D03*
D16*
X121820000Y-86450000D03*
X119280000Y-109310000D03*
D15*
X125630000Y-96550000D03*
D12*
X137000000Y-80100000D03*
D15*
X112930000Y-104170000D03*
D14*
X130650000Y-82555000D03*
D12*
X106520000Y-97880000D03*
D16*
X139600000Y-111850000D03*
X88800000Y-96610000D03*
X86260000Y-68670000D03*
D12*
X131920000Y-90260000D03*
D15*
X87530000Y-76230000D03*
D14*
X128110000Y-69855000D03*
D12*
X98900000Y-80100000D03*
D15*
X90070000Y-109250000D03*
D14*
X102710000Y-82555000D03*
D16*
X98960000Y-111850000D03*
X121820000Y-99150000D03*
D13*
X145442000Y-71200000D03*
D16*
X134520000Y-73750000D03*
X131980000Y-83910000D03*
D15*
X105310000Y-88930000D03*
D12*
X83660000Y-77560000D03*
D14*
X84930000Y-110495000D03*
D16*
X129440000Y-111850000D03*
X96420000Y-91530000D03*
X93880000Y-99150000D03*
X88800000Y-76290000D03*
D14*
X120490000Y-105415000D03*
D16*
X114200000Y-68670000D03*
D14*
X95090000Y-95255000D03*
D15*
X140870000Y-71150000D03*
D16*
X134520000Y-91530000D03*
D15*
X125630000Y-111790000D03*
D16*
X104040000Y-83910000D03*
X134520000Y-88990000D03*
D14*
X128110000Y-85095000D03*
D16*
X101500000Y-109310000D03*
D15*
X123090000Y-76230000D03*
D14*
X117950000Y-110495000D03*
D15*
X138330000Y-101630000D03*
D14*
X90010000Y-80015000D03*
D15*
X112930000Y-106710000D03*
D12*
X83660000Y-80100000D03*
D14*
X107790000Y-97795000D03*
D15*
X84990000Y-109250000D03*
X128170000Y-94010000D03*
X110390000Y-101630000D03*
D16*
X116740000Y-88990000D03*
D14*
X125570000Y-92715000D03*
X140810000Y-105415000D03*
D12*
X124300000Y-92800000D03*
D15*
X102770000Y-91470000D03*
X128170000Y-96550000D03*
D12*
X119220000Y-69940000D03*
D15*
X128170000Y-99090000D03*
D14*
X128110000Y-105415000D03*
D12*
X142080000Y-77560000D03*
D15*
X118010000Y-88930000D03*
D16*
X114200000Y-101690000D03*
X86260000Y-76290000D03*
D15*
X125630000Y-104170000D03*
D14*
X125570000Y-107955000D03*
D16*
X129440000Y-94070000D03*
D12*
X93820000Y-90260000D03*
D14*
X92550000Y-90175000D03*
D12*
X139540000Y-75020000D03*
D14*
X130650000Y-80015000D03*
D16*
X101500000Y-88990000D03*
D14*
X133190000Y-100335000D03*
D16*
X139600000Y-83910000D03*
D14*
X105250000Y-82555000D03*
D16*
X124360000Y-91530000D03*
X126900000Y-68670000D03*
D14*
X90010000Y-95255000D03*
X87470000Y-87635000D03*
D16*
X126900000Y-88990000D03*
D15*
X87530000Y-86390000D03*
D16*
X131980000Y-68670000D03*
D12*
X109060000Y-85180000D03*
D15*
X123090000Y-111790000D03*
D12*
X106520000Y-69940000D03*
D16*
X109120000Y-94070000D03*
D14*
X110330000Y-72395000D03*
X123030000Y-107955000D03*
X90010000Y-74935000D03*
D16*
X131980000Y-109310000D03*
D12*
X124300000Y-110580000D03*
D14*
X107790000Y-107955000D03*
X135730000Y-105415000D03*
D15*
X123090000Y-101630000D03*
D12*
X121760000Y-85180000D03*
X142080000Y-75020000D03*
X111600000Y-75020000D03*
X86200000Y-108040000D03*
D16*
X124360000Y-88990000D03*
D15*
X125630000Y-73690000D03*
X123090000Y-86390000D03*
D16*
X106580000Y-71210000D03*
X93880000Y-106770000D03*
D15*
X105310000Y-106710000D03*
D16*
X104040000Y-101690000D03*
D15*
X118010000Y-111790000D03*
D16*
X106580000Y-104230000D03*
D12*
X103980000Y-72480000D03*
X111600000Y-77560000D03*
D14*
X97630000Y-80015000D03*
D16*
X126900000Y-91530000D03*
D13*
X145442000Y-78820000D03*
D16*
X129440000Y-81370000D03*
X119280000Y-76290000D03*
D14*
X92550000Y-100335000D03*
D15*
X120550000Y-81310000D03*
D12*
X116680000Y-108040000D03*
D16*
X96420000Y-71210000D03*
D15*
X110390000Y-68610000D03*
X100230000Y-81310000D03*
D16*
X83720000Y-86450000D03*
D15*
X107850000Y-91470000D03*
D12*
X86200000Y-97880000D03*
D15*
X130710000Y-96550000D03*
D16*
X124360000Y-101690000D03*
X139600000Y-78830000D03*
D12*
X121760000Y-102960000D03*
D14*
X133190000Y-72395000D03*
D12*
X139540000Y-85180000D03*
D15*
X133250000Y-94010000D03*
D13*
X145442000Y-81360000D03*
D15*
X135790000Y-104170000D03*
D14*
X112870000Y-90175000D03*
D12*
X111600000Y-85180000D03*
D14*
X92550000Y-95255000D03*
D16*
X139600000Y-68670000D03*
X137060000Y-111850000D03*
D14*
X112870000Y-72395000D03*
D16*
X116740000Y-71210000D03*
X88800000Y-111850000D03*
X131980000Y-96610000D03*
D15*
X133250000Y-68610000D03*
D12*
X139540000Y-110580000D03*
D16*
X121820000Y-88990000D03*
X88800000Y-106770000D03*
D15*
X110390000Y-109250000D03*
D16*
X106580000Y-91530000D03*
D12*
X103980000Y-102960000D03*
D14*
X117950000Y-97795000D03*
D12*
X142080000Y-92800000D03*
X121760000Y-92800000D03*
X98900000Y-102960000D03*
X121760000Y-95340000D03*
X126840000Y-97880000D03*
X121760000Y-82640000D03*
D14*
X107790000Y-85095000D03*
D12*
X93820000Y-80100000D03*
X142080000Y-90260000D03*
D15*
X112930000Y-71150000D03*
X100230000Y-71150000D03*
D16*
X98960000Y-104230000D03*
D15*
X112930000Y-109250000D03*
D16*
X124360000Y-76290000D03*
D15*
X90070000Y-91470000D03*
D12*
X114140000Y-80100000D03*
D15*
X138330000Y-73690000D03*
D14*
X92550000Y-72395000D03*
D12*
X109060000Y-108040000D03*
X126840000Y-95340000D03*
X88740000Y-105500000D03*
D16*
X121820000Y-101690000D03*
X142140000Y-99150000D03*
D15*
X118010000Y-86390000D03*
D14*
X125570000Y-80015000D03*
D12*
X129380000Y-95340000D03*
D15*
X125630000Y-106710000D03*
D14*
X110330000Y-85095000D03*
D16*
X126900000Y-83910000D03*
D15*
X140870000Y-83850000D03*
D12*
X111600000Y-95340000D03*
D15*
X110390000Y-94010000D03*
D14*
X100170000Y-102875000D03*
D15*
X87530000Y-88930000D03*
D16*
X111660000Y-101690000D03*
D12*
X137000000Y-69940000D03*
X111600000Y-105500000D03*
X111600000Y-72480000D03*
X96360000Y-97880000D03*
D15*
X128170000Y-68610000D03*
D12*
X109060000Y-110580000D03*
D15*
X138330000Y-76230000D03*
D16*
X93880000Y-76290000D03*
D12*
X131920000Y-92800000D03*
D16*
X126900000Y-73750000D03*
X104040000Y-109310000D03*
X114200000Y-109310000D03*
X126900000Y-111850000D03*
D14*
X115410000Y-85095000D03*
D16*
X114200000Y-104230000D03*
X134520000Y-76290000D03*
D14*
X112870000Y-87635000D03*
D15*
X138330000Y-96550000D03*
D14*
X107790000Y-90175000D03*
X107790000Y-95255000D03*
D16*
X119280000Y-94070000D03*
D14*
X117950000Y-72395000D03*
D12*
X83660000Y-105500000D03*
D15*
X100230000Y-94010000D03*
D14*
X140810000Y-90175000D03*
X84930000Y-92715000D03*
D15*
X90070000Y-106710000D03*
D16*
X114200000Y-99150000D03*
X139600000Y-88990000D03*
D12*
X106520000Y-95340000D03*
X103980000Y-87720000D03*
D15*
X107850000Y-78770000D03*
D14*
X102710000Y-77475000D03*
D12*
X96360000Y-75020000D03*
D15*
X133250000Y-78770000D03*
D16*
X106580000Y-83910000D03*
D14*
X97630000Y-82555000D03*
D12*
X142080000Y-102960000D03*
D16*
X134520000Y-68670000D03*
X116740000Y-91530000D03*
D12*
X106520000Y-110580000D03*
D15*
X118010000Y-101630000D03*
X110390000Y-88930000D03*
D16*
X83720000Y-99150000D03*
D12*
X88740000Y-72480000D03*
D16*
X98960000Y-76290000D03*
D12*
X129380000Y-90260000D03*
X88740000Y-85180000D03*
D16*
X91340000Y-68670000D03*
D12*
X101440000Y-72480000D03*
D14*
X107790000Y-110495000D03*
D13*
X80418000Y-73740000D03*
D12*
X98900000Y-77560000D03*
X106520000Y-85180000D03*
D15*
X128170000Y-91470000D03*
D14*
X115410000Y-87635000D03*
X135730000Y-69855000D03*
D16*
X119280000Y-106770000D03*
D14*
X138270000Y-82555000D03*
X125570000Y-87635000D03*
D16*
X116740000Y-101690000D03*
D14*
X100170000Y-105415000D03*
D15*
X105310000Y-81310000D03*
D16*
X114200000Y-76290000D03*
D12*
X116680000Y-87720000D03*
D15*
X120550000Y-76230000D03*
D16*
X96420000Y-106770000D03*
D14*
X128110000Y-82555000D03*
D13*
X80418000Y-78820000D03*
D12*
X103980000Y-92800000D03*
D14*
X97630000Y-87635000D03*
D12*
X101440000Y-80100000D03*
D14*
X110330000Y-77475000D03*
D15*
X87530000Y-96550000D03*
X97690000Y-106710000D03*
D16*
X101500000Y-71210000D03*
D12*
X103980000Y-82640000D03*
D16*
X93880000Y-73750000D03*
D12*
X131920000Y-72480000D03*
X129380000Y-69940000D03*
D15*
X128170000Y-76230000D03*
D16*
X101500000Y-86450000D03*
D15*
X95150000Y-111790000D03*
X102770000Y-71150000D03*
D12*
X134460000Y-95340000D03*
D16*
X101500000Y-91530000D03*
D14*
X90010000Y-87635000D03*
X84930000Y-90175000D03*
X123030000Y-105415000D03*
D15*
X90070000Y-101630000D03*
D16*
X91340000Y-86450000D03*
D15*
X97690000Y-81310000D03*
X102770000Y-86390000D03*
X100230000Y-104170000D03*
D14*
X107790000Y-72395000D03*
D15*
X84990000Y-104170000D03*
X138330000Y-109250000D03*
D14*
X95090000Y-100335000D03*
D15*
X92610000Y-111790000D03*
D16*
X88800000Y-101690000D03*
D14*
X87470000Y-85095000D03*
D16*
X124360000Y-68670000D03*
X121820000Y-81370000D03*
D14*
X110330000Y-105415000D03*
X135730000Y-110495000D03*
X112870000Y-97795000D03*
D16*
X96420000Y-81370000D03*
D14*
X120490000Y-95255000D03*
D15*
X84990000Y-76230000D03*
D12*
X129380000Y-102960000D03*
D14*
X135730000Y-85095000D03*
X135730000Y-95255000D03*
D16*
X137060000Y-109310000D03*
X98960000Y-73750000D03*
X88800000Y-104230000D03*
X142140000Y-81370000D03*
D14*
X105250000Y-87635000D03*
D12*
X96360000Y-105500000D03*
X121760000Y-110580000D03*
X137000000Y-85180000D03*
D14*
X138270000Y-90175000D03*
D16*
X101500000Y-68670000D03*
X121820000Y-104230000D03*
D12*
X126840000Y-108040000D03*
D14*
X102710000Y-69855000D03*
D16*
X98960000Y-88990000D03*
D12*
X126840000Y-100420000D03*
D16*
X129440000Y-78830000D03*
D15*
X102770000Y-101630000D03*
D12*
X103980000Y-108040000D03*
D14*
X112870000Y-107955000D03*
X84930000Y-72395000D03*
D15*
X87530000Y-111790000D03*
D14*
X100170000Y-100335000D03*
D16*
X137060000Y-83910000D03*
D14*
X125570000Y-77475000D03*
D12*
X119220000Y-87720000D03*
D14*
X128110000Y-92715000D03*
D16*
X93880000Y-111850000D03*
X96420000Y-101690000D03*
D12*
X111600000Y-100420000D03*
D16*
X88800000Y-81370000D03*
D14*
X90010000Y-90175000D03*
D12*
X101440000Y-92800000D03*
D15*
X118010000Y-83850000D03*
X100230000Y-111790000D03*
D12*
X96360000Y-69940000D03*
D15*
X107850000Y-81310000D03*
D14*
X95090000Y-97795000D03*
X117950000Y-107955000D03*
D15*
X90070000Y-76230000D03*
X92610000Y-88930000D03*
D12*
X93820000Y-102960000D03*
X83660000Y-95340000D03*
D15*
X84990000Y-73690000D03*
X102770000Y-83850000D03*
D16*
X124360000Y-106770000D03*
D14*
X117950000Y-69855000D03*
D15*
X92610000Y-96550000D03*
D16*
X86260000Y-106770000D03*
D14*
X97630000Y-100335000D03*
D12*
X129380000Y-82640000D03*
D15*
X102770000Y-68610000D03*
D14*
X84930000Y-105415000D03*
D16*
X83720000Y-76290000D03*
D12*
X137000000Y-105500000D03*
D16*
X86260000Y-81370000D03*
D12*
X109060000Y-77560000D03*
D14*
X140810000Y-92715000D03*
D12*
X91280000Y-77560000D03*
D14*
X110330000Y-95255000D03*
D16*
X119280000Y-91530000D03*
X98960000Y-101690000D03*
X114200000Y-96610000D03*
D14*
X105250000Y-74935000D03*
D15*
X95150000Y-94010000D03*
D12*
X142080000Y-72480000D03*
D14*
X140810000Y-107955000D03*
X115410000Y-107955000D03*
X123030000Y-102875000D03*
X95090000Y-80015000D03*
X107790000Y-105415000D03*
D15*
X123090000Y-106710000D03*
X90070000Y-71150000D03*
D12*
X142080000Y-69940000D03*
D15*
X110390000Y-76230000D03*
D16*
X142140000Y-109310000D03*
D14*
X102710000Y-74935000D03*
D15*
X95150000Y-88930000D03*
D16*
X119280000Y-101690000D03*
X142140000Y-83910000D03*
X104040000Y-78830000D03*
D14*
X133190000Y-97795000D03*
D15*
X133250000Y-88930000D03*
D16*
X111660000Y-73750000D03*
D12*
X98900000Y-92800000D03*
D16*
X119280000Y-83910000D03*
D12*
X106520000Y-72480000D03*
D16*
X91340000Y-81370000D03*
X83720000Y-106770000D03*
X129440000Y-76290000D03*
D12*
X137000000Y-100420000D03*
D14*
X120490000Y-85095000D03*
X97630000Y-69855000D03*
D16*
X91340000Y-109310000D03*
D14*
X97630000Y-107955000D03*
X133190000Y-74935000D03*
D12*
X101440000Y-102960000D03*
D15*
X138330000Y-78770000D03*
D13*
X80418000Y-106760000D03*
D12*
X83660000Y-69940000D03*
D14*
X95090000Y-110495000D03*
D15*
X112930000Y-81310000D03*
D12*
X139540000Y-77560000D03*
D16*
X124360000Y-81370000D03*
D15*
X123090000Y-96550000D03*
D14*
X87470000Y-69855000D03*
D15*
X118010000Y-68610000D03*
D16*
X134520000Y-78830000D03*
D14*
X130650000Y-102875000D03*
D12*
X134460000Y-69940000D03*
X101440000Y-90260000D03*
D15*
X90070000Y-94010000D03*
D12*
X126840000Y-82640000D03*
D14*
X102710000Y-92715000D03*
D15*
X90070000Y-73690000D03*
D16*
X119280000Y-96610000D03*
X139600000Y-109310000D03*
D15*
X84990000Y-106710000D03*
D12*
X129380000Y-75020000D03*
D15*
X102770000Y-76230000D03*
D12*
X109060000Y-69940000D03*
D14*
X125570000Y-90175000D03*
D15*
X107850000Y-106710000D03*
D16*
X139600000Y-101690000D03*
X96420000Y-86450000D03*
D15*
X120550000Y-83850000D03*
X128170000Y-71150000D03*
X128170000Y-78770000D03*
X107850000Y-104170000D03*
D12*
X83660000Y-72480000D03*
D14*
X84930000Y-85095000D03*
D15*
X97690000Y-104170000D03*
D14*
X100170000Y-87635000D03*
X105250000Y-107955000D03*
D12*
X116680000Y-97880000D03*
D16*
X106580000Y-101690000D03*
D12*
X142080000Y-80100000D03*
D15*
X123090000Y-88930000D03*
D12*
X129380000Y-110580000D03*
X86200000Y-105500000D03*
D15*
X102770000Y-104170000D03*
D16*
X109120000Y-99150000D03*
D14*
X130650000Y-92715000D03*
D12*
X119220000Y-108040000D03*
D15*
X120550000Y-88930000D03*
D16*
X104040000Y-81370000D03*
D15*
X138330000Y-111790000D03*
D12*
X106520000Y-82640000D03*
D14*
X130650000Y-69855000D03*
D15*
X135790000Y-96550000D03*
X95150000Y-81310000D03*
D14*
X120490000Y-97795000D03*
D12*
X86200000Y-87720000D03*
X98900000Y-90260000D03*
D14*
X105250000Y-95255000D03*
X115410000Y-95255000D03*
X95090000Y-82555000D03*
X133190000Y-110495000D03*
D16*
X119280000Y-81370000D03*
D14*
X133190000Y-90175000D03*
D16*
X104040000Y-94070000D03*
X111660000Y-78830000D03*
D15*
X133250000Y-73690000D03*
D12*
X142080000Y-110580000D03*
X83660000Y-85180000D03*
D14*
X97630000Y-102875000D03*
X133190000Y-77475000D03*
D15*
X92610000Y-99090000D03*
D14*
X102710000Y-72395000D03*
X123030000Y-110495000D03*
D15*
X95150000Y-83850000D03*
D16*
X101500000Y-96610000D03*
D15*
X95150000Y-68610000D03*
D16*
X137060000Y-81370000D03*
D12*
X114140000Y-87720000D03*
D15*
X97690000Y-78770000D03*
D12*
X111600000Y-82640000D03*
D15*
X130710000Y-86390000D03*
D16*
X109120000Y-76290000D03*
D13*
X80418000Y-109300000D03*
D15*
X102770000Y-106710000D03*
D12*
X93820000Y-85180000D03*
X134460000Y-108040000D03*
X137000000Y-95340000D03*
X91280000Y-95340000D03*
D16*
X91340000Y-104230000D03*
D12*
X131920000Y-100420000D03*
D15*
X138330000Y-99090000D03*
X128170000Y-101630000D03*
D14*
X128110000Y-97795000D03*
D12*
X129380000Y-108040000D03*
D14*
X133190000Y-105415000D03*
D12*
X101440000Y-110580000D03*
%LPD*%
M02*
