%TF.GenerationSoftware,KiCad,Pcbnew,9.0.1*%
%TF.CreationDate,2025-05-06T23:49:06-04:00*%
%TF.ProjectId,classic-protoboard_14x20,636c6173-7369-4632-9d70-726f746f626f,rev?*%
%TF.SameCoordinates,Original*%
%TF.FileFunction,Legend,Top*%
%TF.FilePolarity,Positive*%
%FSLAX46Y46*%
G04 Gerber Fmt 4.6, Leading zero omitted, Abs format (unit mm)*
G04 Created by KiCad (PCBNEW 9.0.1) date 2025-05-06 23:49:06*
%MOMM*%
%LPD*%
G01*
G04 APERTURE LIST*
%ADD10C,0.150000*%
%ADD11C,0.127000*%
%ADD12C,0.000000*%
%ADD13O,3.148000X1.624000*%
%ADD14C,2.300000*%
%ADD15C,1.624000*%
G04 APERTURE END LIST*
D10*
X122631428Y-77561009D02*
X122774285Y-77608628D01*
X122774285Y-77608628D02*
X122821904Y-77656247D01*
X122821904Y-77656247D02*
X122869523Y-77751485D01*
X122869523Y-77751485D02*
X122869523Y-77894342D01*
X122869523Y-77894342D02*
X122821904Y-77989580D01*
X122821904Y-77989580D02*
X122774285Y-78037200D01*
X122774285Y-78037200D02*
X122679047Y-78084819D01*
X122679047Y-78084819D02*
X122298095Y-78084819D01*
X122298095Y-78084819D02*
X122298095Y-77084819D01*
X122298095Y-77084819D02*
X122631428Y-77084819D01*
X122631428Y-77084819D02*
X122726666Y-77132438D01*
X122726666Y-77132438D02*
X122774285Y-77180057D01*
X122774285Y-77180057D02*
X122821904Y-77275295D01*
X122821904Y-77275295D02*
X122821904Y-77370533D01*
X122821904Y-77370533D02*
X122774285Y-77465771D01*
X122774285Y-77465771D02*
X122726666Y-77513390D01*
X122726666Y-77513390D02*
X122631428Y-77561009D01*
X122631428Y-77561009D02*
X122298095Y-77561009D01*
X125409523Y-77989580D02*
X125361904Y-78037200D01*
X125361904Y-78037200D02*
X125219047Y-78084819D01*
X125219047Y-78084819D02*
X125123809Y-78084819D01*
X125123809Y-78084819D02*
X124980952Y-78037200D01*
X124980952Y-78037200D02*
X124885714Y-77941961D01*
X124885714Y-77941961D02*
X124838095Y-77846723D01*
X124838095Y-77846723D02*
X124790476Y-77656247D01*
X124790476Y-77656247D02*
X124790476Y-77513390D01*
X124790476Y-77513390D02*
X124838095Y-77322914D01*
X124838095Y-77322914D02*
X124885714Y-77227676D01*
X124885714Y-77227676D02*
X124980952Y-77132438D01*
X124980952Y-77132438D02*
X125123809Y-77084819D01*
X125123809Y-77084819D02*
X125219047Y-77084819D01*
X125219047Y-77084819D02*
X125361904Y-77132438D01*
X125361904Y-77132438D02*
X125409523Y-77180057D01*
X127378095Y-78084819D02*
X127378095Y-77084819D01*
X127378095Y-77084819D02*
X127616190Y-77084819D01*
X127616190Y-77084819D02*
X127759047Y-77132438D01*
X127759047Y-77132438D02*
X127854285Y-77227676D01*
X127854285Y-77227676D02*
X127901904Y-77322914D01*
X127901904Y-77322914D02*
X127949523Y-77513390D01*
X127949523Y-77513390D02*
X127949523Y-77656247D01*
X127949523Y-77656247D02*
X127901904Y-77846723D01*
X127901904Y-77846723D02*
X127854285Y-77941961D01*
X127854285Y-77941961D02*
X127759047Y-78037200D01*
X127759047Y-78037200D02*
X127616190Y-78084819D01*
X127616190Y-78084819D02*
X127378095Y-78084819D01*
X129965714Y-77561009D02*
X130299047Y-77561009D01*
X130441904Y-78084819D02*
X129965714Y-78084819D01*
X129965714Y-78084819D02*
X129965714Y-77084819D01*
X129965714Y-77084819D02*
X130441904Y-77084819D01*
X132862857Y-77561009D02*
X132529524Y-77561009D01*
X132529524Y-78084819D02*
X132529524Y-77084819D01*
X132529524Y-77084819D02*
X133005714Y-77084819D01*
X135521904Y-77132438D02*
X135426666Y-77084819D01*
X135426666Y-77084819D02*
X135283809Y-77084819D01*
X135283809Y-77084819D02*
X135140952Y-77132438D01*
X135140952Y-77132438D02*
X135045714Y-77227676D01*
X135045714Y-77227676D02*
X134998095Y-77322914D01*
X134998095Y-77322914D02*
X134950476Y-77513390D01*
X134950476Y-77513390D02*
X134950476Y-77656247D01*
X134950476Y-77656247D02*
X134998095Y-77846723D01*
X134998095Y-77846723D02*
X135045714Y-77941961D01*
X135045714Y-77941961D02*
X135140952Y-78037200D01*
X135140952Y-78037200D02*
X135283809Y-78084819D01*
X135283809Y-78084819D02*
X135379047Y-78084819D01*
X135379047Y-78084819D02*
X135521904Y-78037200D01*
X135521904Y-78037200D02*
X135569523Y-77989580D01*
X135569523Y-77989580D02*
X135569523Y-77656247D01*
X135569523Y-77656247D02*
X135379047Y-77656247D01*
X137514286Y-78084819D02*
X137514286Y-77084819D01*
X137514286Y-77561009D02*
X138085714Y-77561009D01*
X138085714Y-78084819D02*
X138085714Y-77084819D01*
X140340000Y-78084819D02*
X140340000Y-77084819D01*
X143022857Y-77084819D02*
X143022857Y-77799104D01*
X143022857Y-77799104D02*
X142975238Y-77941961D01*
X142975238Y-77941961D02*
X142880000Y-78037200D01*
X142880000Y-78037200D02*
X142737143Y-78084819D01*
X142737143Y-78084819D02*
X142641905Y-78084819D01*
X145158095Y-78084819D02*
X145158095Y-77084819D01*
X145729523Y-78084819D02*
X145300952Y-77513390D01*
X145729523Y-77084819D02*
X145158095Y-77656247D01*
X148139523Y-78084819D02*
X147663333Y-78084819D01*
X147663333Y-78084819D02*
X147663333Y-77084819D01*
X150166667Y-78084819D02*
X150166667Y-77084819D01*
X150166667Y-77084819D02*
X150500000Y-77799104D01*
X150500000Y-77799104D02*
X150833333Y-77084819D01*
X150833333Y-77084819D02*
X150833333Y-78084819D01*
X152754286Y-78084819D02*
X152754286Y-77084819D01*
X152754286Y-77084819D02*
X153325714Y-78084819D01*
X153325714Y-78084819D02*
X153325714Y-77084819D01*
X155484762Y-77084819D02*
X155675238Y-77084819D01*
X155675238Y-77084819D02*
X155770476Y-77132438D01*
X155770476Y-77132438D02*
X155865714Y-77227676D01*
X155865714Y-77227676D02*
X155913333Y-77418152D01*
X155913333Y-77418152D02*
X155913333Y-77751485D01*
X155913333Y-77751485D02*
X155865714Y-77941961D01*
X155865714Y-77941961D02*
X155770476Y-78037200D01*
X155770476Y-78037200D02*
X155675238Y-78084819D01*
X155675238Y-78084819D02*
X155484762Y-78084819D01*
X155484762Y-78084819D02*
X155389524Y-78037200D01*
X155389524Y-78037200D02*
X155294286Y-77941961D01*
X155294286Y-77941961D02*
X155246667Y-77751485D01*
X155246667Y-77751485D02*
X155246667Y-77418152D01*
X155246667Y-77418152D02*
X155294286Y-77227676D01*
X155294286Y-77227676D02*
X155389524Y-77132438D01*
X155389524Y-77132438D02*
X155484762Y-77084819D01*
X157858095Y-78084819D02*
X157858095Y-77084819D01*
X157858095Y-77084819D02*
X158239047Y-77084819D01*
X158239047Y-77084819D02*
X158334285Y-77132438D01*
X158334285Y-77132438D02*
X158381904Y-77180057D01*
X158381904Y-77180057D02*
X158429523Y-77275295D01*
X158429523Y-77275295D02*
X158429523Y-77418152D01*
X158429523Y-77418152D02*
X158381904Y-77513390D01*
X158381904Y-77513390D02*
X158334285Y-77561009D01*
X158334285Y-77561009D02*
X158239047Y-77608628D01*
X158239047Y-77608628D02*
X157858095Y-77608628D01*
X161040952Y-78180057D02*
X160945714Y-78132438D01*
X160945714Y-78132438D02*
X160850476Y-78037200D01*
X160850476Y-78037200D02*
X160707619Y-77894342D01*
X160707619Y-77894342D02*
X160612381Y-77846723D01*
X160612381Y-77846723D02*
X160517143Y-77846723D01*
X160564762Y-78084819D02*
X160469524Y-78037200D01*
X160469524Y-78037200D02*
X160374286Y-77941961D01*
X160374286Y-77941961D02*
X160326667Y-77751485D01*
X160326667Y-77751485D02*
X160326667Y-77418152D01*
X160326667Y-77418152D02*
X160374286Y-77227676D01*
X160374286Y-77227676D02*
X160469524Y-77132438D01*
X160469524Y-77132438D02*
X160564762Y-77084819D01*
X160564762Y-77084819D02*
X160755238Y-77084819D01*
X160755238Y-77084819D02*
X160850476Y-77132438D01*
X160850476Y-77132438D02*
X160945714Y-77227676D01*
X160945714Y-77227676D02*
X160993333Y-77418152D01*
X160993333Y-77418152D02*
X160993333Y-77751485D01*
X160993333Y-77751485D02*
X160945714Y-77941961D01*
X160945714Y-77941961D02*
X160850476Y-78037200D01*
X160850476Y-78037200D02*
X160755238Y-78084819D01*
X160755238Y-78084819D02*
X160564762Y-78084819D01*
X163509523Y-78084819D02*
X163176190Y-77608628D01*
X162938095Y-78084819D02*
X162938095Y-77084819D01*
X162938095Y-77084819D02*
X163319047Y-77084819D01*
X163319047Y-77084819D02*
X163414285Y-77132438D01*
X163414285Y-77132438D02*
X163461904Y-77180057D01*
X163461904Y-77180057D02*
X163509523Y-77275295D01*
X163509523Y-77275295D02*
X163509523Y-77418152D01*
X163509523Y-77418152D02*
X163461904Y-77513390D01*
X163461904Y-77513390D02*
X163414285Y-77561009D01*
X163414285Y-77561009D02*
X163319047Y-77608628D01*
X163319047Y-77608628D02*
X162938095Y-77608628D01*
X165454286Y-78037200D02*
X165597143Y-78084819D01*
X165597143Y-78084819D02*
X165835238Y-78084819D01*
X165835238Y-78084819D02*
X165930476Y-78037200D01*
X165930476Y-78037200D02*
X165978095Y-77989580D01*
X165978095Y-77989580D02*
X166025714Y-77894342D01*
X166025714Y-77894342D02*
X166025714Y-77799104D01*
X166025714Y-77799104D02*
X165978095Y-77703866D01*
X165978095Y-77703866D02*
X165930476Y-77656247D01*
X165930476Y-77656247D02*
X165835238Y-77608628D01*
X165835238Y-77608628D02*
X165644762Y-77561009D01*
X165644762Y-77561009D02*
X165549524Y-77513390D01*
X165549524Y-77513390D02*
X165501905Y-77465771D01*
X165501905Y-77465771D02*
X165454286Y-77370533D01*
X165454286Y-77370533D02*
X165454286Y-77275295D01*
X165454286Y-77275295D02*
X165501905Y-77180057D01*
X165501905Y-77180057D02*
X165549524Y-77132438D01*
X165549524Y-77132438D02*
X165644762Y-77084819D01*
X165644762Y-77084819D02*
X165882857Y-77084819D01*
X165882857Y-77084819D02*
X166025714Y-77132438D01*
X167994286Y-77084819D02*
X168565714Y-77084819D01*
X168280000Y-78084819D02*
X168280000Y-77084819D01*
X119781905Y-115305104D02*
X120258095Y-115305104D01*
X119686667Y-115590819D02*
X120020000Y-114590819D01*
X120020000Y-114590819D02*
X120353333Y-115590819D01*
X122631428Y-115067009D02*
X122774285Y-115114628D01*
X122774285Y-115114628D02*
X122821904Y-115162247D01*
X122821904Y-115162247D02*
X122869523Y-115257485D01*
X122869523Y-115257485D02*
X122869523Y-115400342D01*
X122869523Y-115400342D02*
X122821904Y-115495580D01*
X122821904Y-115495580D02*
X122774285Y-115543200D01*
X122774285Y-115543200D02*
X122679047Y-115590819D01*
X122679047Y-115590819D02*
X122298095Y-115590819D01*
X122298095Y-115590819D02*
X122298095Y-114590819D01*
X122298095Y-114590819D02*
X122631428Y-114590819D01*
X122631428Y-114590819D02*
X122726666Y-114638438D01*
X122726666Y-114638438D02*
X122774285Y-114686057D01*
X122774285Y-114686057D02*
X122821904Y-114781295D01*
X122821904Y-114781295D02*
X122821904Y-114876533D01*
X122821904Y-114876533D02*
X122774285Y-114971771D01*
X122774285Y-114971771D02*
X122726666Y-115019390D01*
X122726666Y-115019390D02*
X122631428Y-115067009D01*
X122631428Y-115067009D02*
X122298095Y-115067009D01*
X125409523Y-115495580D02*
X125361904Y-115543200D01*
X125361904Y-115543200D02*
X125219047Y-115590819D01*
X125219047Y-115590819D02*
X125123809Y-115590819D01*
X125123809Y-115590819D02*
X124980952Y-115543200D01*
X124980952Y-115543200D02*
X124885714Y-115447961D01*
X124885714Y-115447961D02*
X124838095Y-115352723D01*
X124838095Y-115352723D02*
X124790476Y-115162247D01*
X124790476Y-115162247D02*
X124790476Y-115019390D01*
X124790476Y-115019390D02*
X124838095Y-114828914D01*
X124838095Y-114828914D02*
X124885714Y-114733676D01*
X124885714Y-114733676D02*
X124980952Y-114638438D01*
X124980952Y-114638438D02*
X125123809Y-114590819D01*
X125123809Y-114590819D02*
X125219047Y-114590819D01*
X125219047Y-114590819D02*
X125361904Y-114638438D01*
X125361904Y-114638438D02*
X125409523Y-114686057D01*
X127378095Y-115590819D02*
X127378095Y-114590819D01*
X127378095Y-114590819D02*
X127616190Y-114590819D01*
X127616190Y-114590819D02*
X127759047Y-114638438D01*
X127759047Y-114638438D02*
X127854285Y-114733676D01*
X127854285Y-114733676D02*
X127901904Y-114828914D01*
X127901904Y-114828914D02*
X127949523Y-115019390D01*
X127949523Y-115019390D02*
X127949523Y-115162247D01*
X127949523Y-115162247D02*
X127901904Y-115352723D01*
X127901904Y-115352723D02*
X127854285Y-115447961D01*
X127854285Y-115447961D02*
X127759047Y-115543200D01*
X127759047Y-115543200D02*
X127616190Y-115590819D01*
X127616190Y-115590819D02*
X127378095Y-115590819D01*
X129965714Y-115067009D02*
X130299047Y-115067009D01*
X130441904Y-115590819D02*
X129965714Y-115590819D01*
X129965714Y-115590819D02*
X129965714Y-114590819D01*
X129965714Y-114590819D02*
X130441904Y-114590819D01*
X132862857Y-115067009D02*
X132529524Y-115067009D01*
X132529524Y-115590819D02*
X132529524Y-114590819D01*
X132529524Y-114590819D02*
X133005714Y-114590819D01*
X135521904Y-114638438D02*
X135426666Y-114590819D01*
X135426666Y-114590819D02*
X135283809Y-114590819D01*
X135283809Y-114590819D02*
X135140952Y-114638438D01*
X135140952Y-114638438D02*
X135045714Y-114733676D01*
X135045714Y-114733676D02*
X134998095Y-114828914D01*
X134998095Y-114828914D02*
X134950476Y-115019390D01*
X134950476Y-115019390D02*
X134950476Y-115162247D01*
X134950476Y-115162247D02*
X134998095Y-115352723D01*
X134998095Y-115352723D02*
X135045714Y-115447961D01*
X135045714Y-115447961D02*
X135140952Y-115543200D01*
X135140952Y-115543200D02*
X135283809Y-115590819D01*
X135283809Y-115590819D02*
X135379047Y-115590819D01*
X135379047Y-115590819D02*
X135521904Y-115543200D01*
X135521904Y-115543200D02*
X135569523Y-115495580D01*
X135569523Y-115495580D02*
X135569523Y-115162247D01*
X135569523Y-115162247D02*
X135379047Y-115162247D01*
X137514286Y-115590819D02*
X137514286Y-114590819D01*
X137514286Y-115067009D02*
X138085714Y-115067009D01*
X138085714Y-115590819D02*
X138085714Y-114590819D01*
X140340000Y-115590819D02*
X140340000Y-114590819D01*
X143022857Y-114590819D02*
X143022857Y-115305104D01*
X143022857Y-115305104D02*
X142975238Y-115447961D01*
X142975238Y-115447961D02*
X142880000Y-115543200D01*
X142880000Y-115543200D02*
X142737143Y-115590819D01*
X142737143Y-115590819D02*
X142641905Y-115590819D01*
X145158095Y-115590819D02*
X145158095Y-114590819D01*
X145729523Y-115590819D02*
X145300952Y-115019390D01*
X145729523Y-114590819D02*
X145158095Y-115162247D01*
X148269523Y-115590819D02*
X147793333Y-115590819D01*
X147793333Y-115590819D02*
X147793333Y-114590819D01*
X150166667Y-115590819D02*
X150166667Y-114590819D01*
X150166667Y-114590819D02*
X150500000Y-115305104D01*
X150500000Y-115305104D02*
X150833333Y-114590819D01*
X150833333Y-114590819D02*
X150833333Y-115590819D01*
X152754286Y-115590819D02*
X152754286Y-114590819D01*
X152754286Y-114590819D02*
X153325714Y-115590819D01*
X153325714Y-115590819D02*
X153325714Y-114590819D01*
X155484762Y-114590819D02*
X155675238Y-114590819D01*
X155675238Y-114590819D02*
X155770476Y-114638438D01*
X155770476Y-114638438D02*
X155865714Y-114733676D01*
X155865714Y-114733676D02*
X155913333Y-114924152D01*
X155913333Y-114924152D02*
X155913333Y-115257485D01*
X155913333Y-115257485D02*
X155865714Y-115447961D01*
X155865714Y-115447961D02*
X155770476Y-115543200D01*
X155770476Y-115543200D02*
X155675238Y-115590819D01*
X155675238Y-115590819D02*
X155484762Y-115590819D01*
X155484762Y-115590819D02*
X155389524Y-115543200D01*
X155389524Y-115543200D02*
X155294286Y-115447961D01*
X155294286Y-115447961D02*
X155246667Y-115257485D01*
X155246667Y-115257485D02*
X155246667Y-114924152D01*
X155246667Y-114924152D02*
X155294286Y-114733676D01*
X155294286Y-114733676D02*
X155389524Y-114638438D01*
X155389524Y-114638438D02*
X155484762Y-114590819D01*
X157858095Y-115590819D02*
X157858095Y-114590819D01*
X157858095Y-114590819D02*
X158239047Y-114590819D01*
X158239047Y-114590819D02*
X158334285Y-114638438D01*
X158334285Y-114638438D02*
X158381904Y-114686057D01*
X158381904Y-114686057D02*
X158429523Y-114781295D01*
X158429523Y-114781295D02*
X158429523Y-114924152D01*
X158429523Y-114924152D02*
X158381904Y-115019390D01*
X158381904Y-115019390D02*
X158334285Y-115067009D01*
X158334285Y-115067009D02*
X158239047Y-115114628D01*
X158239047Y-115114628D02*
X157858095Y-115114628D01*
X161040952Y-115686057D02*
X160945714Y-115638438D01*
X160945714Y-115638438D02*
X160850476Y-115543200D01*
X160850476Y-115543200D02*
X160707619Y-115400342D01*
X160707619Y-115400342D02*
X160612381Y-115352723D01*
X160612381Y-115352723D02*
X160517143Y-115352723D01*
X160564762Y-115590819D02*
X160469524Y-115543200D01*
X160469524Y-115543200D02*
X160374286Y-115447961D01*
X160374286Y-115447961D02*
X160326667Y-115257485D01*
X160326667Y-115257485D02*
X160326667Y-114924152D01*
X160326667Y-114924152D02*
X160374286Y-114733676D01*
X160374286Y-114733676D02*
X160469524Y-114638438D01*
X160469524Y-114638438D02*
X160564762Y-114590819D01*
X160564762Y-114590819D02*
X160755238Y-114590819D01*
X160755238Y-114590819D02*
X160850476Y-114638438D01*
X160850476Y-114638438D02*
X160945714Y-114733676D01*
X160945714Y-114733676D02*
X160993333Y-114924152D01*
X160993333Y-114924152D02*
X160993333Y-115257485D01*
X160993333Y-115257485D02*
X160945714Y-115447961D01*
X160945714Y-115447961D02*
X160850476Y-115543200D01*
X160850476Y-115543200D02*
X160755238Y-115590819D01*
X160755238Y-115590819D02*
X160564762Y-115590819D01*
X163509523Y-115590819D02*
X163176190Y-115114628D01*
X162938095Y-115590819D02*
X162938095Y-114590819D01*
X162938095Y-114590819D02*
X163319047Y-114590819D01*
X163319047Y-114590819D02*
X163414285Y-114638438D01*
X163414285Y-114638438D02*
X163461904Y-114686057D01*
X163461904Y-114686057D02*
X163509523Y-114781295D01*
X163509523Y-114781295D02*
X163509523Y-114924152D01*
X163509523Y-114924152D02*
X163461904Y-115019390D01*
X163461904Y-115019390D02*
X163414285Y-115067009D01*
X163414285Y-115067009D02*
X163319047Y-115114628D01*
X163319047Y-115114628D02*
X162938095Y-115114628D01*
X165454286Y-115543200D02*
X165597143Y-115590819D01*
X165597143Y-115590819D02*
X165835238Y-115590819D01*
X165835238Y-115590819D02*
X165930476Y-115543200D01*
X165930476Y-115543200D02*
X165978095Y-115495580D01*
X165978095Y-115495580D02*
X166025714Y-115400342D01*
X166025714Y-115400342D02*
X166025714Y-115305104D01*
X166025714Y-115305104D02*
X165978095Y-115209866D01*
X165978095Y-115209866D02*
X165930476Y-115162247D01*
X165930476Y-115162247D02*
X165835238Y-115114628D01*
X165835238Y-115114628D02*
X165644762Y-115067009D01*
X165644762Y-115067009D02*
X165549524Y-115019390D01*
X165549524Y-115019390D02*
X165501905Y-114971771D01*
X165501905Y-114971771D02*
X165454286Y-114876533D01*
X165454286Y-114876533D02*
X165454286Y-114781295D01*
X165454286Y-114781295D02*
X165501905Y-114686057D01*
X165501905Y-114686057D02*
X165549524Y-114638438D01*
X165549524Y-114638438D02*
X165644762Y-114590819D01*
X165644762Y-114590819D02*
X165882857Y-114590819D01*
X165882857Y-114590819D02*
X166025714Y-114638438D01*
X167994286Y-114590819D02*
X168565714Y-114590819D01*
X168280000Y-115590819D02*
X168280000Y-114590819D01*
D11*
X119049593Y-84683904D02*
X119049593Y-84732285D01*
X119049593Y-84732285D02*
X119025403Y-84780666D01*
X119025403Y-84780666D02*
X119001212Y-84804856D01*
X119001212Y-84804856D02*
X118952831Y-84829047D01*
X118952831Y-84829047D02*
X118856069Y-84853237D01*
X118856069Y-84853237D02*
X118735117Y-84853237D01*
X118735117Y-84853237D02*
X118638355Y-84829047D01*
X118638355Y-84829047D02*
X118589974Y-84804856D01*
X118589974Y-84804856D02*
X118565784Y-84780666D01*
X118565784Y-84780666D02*
X118541593Y-84732285D01*
X118541593Y-84732285D02*
X118541593Y-84683904D01*
X118541593Y-84683904D02*
X118565784Y-84635523D01*
X118565784Y-84635523D02*
X118589974Y-84611332D01*
X118589974Y-84611332D02*
X118638355Y-84587142D01*
X118638355Y-84587142D02*
X118735117Y-84562951D01*
X118735117Y-84562951D02*
X118856069Y-84562951D01*
X118856069Y-84562951D02*
X118952831Y-84587142D01*
X118952831Y-84587142D02*
X119001212Y-84611332D01*
X119001212Y-84611332D02*
X119025403Y-84635523D01*
X119025403Y-84635523D02*
X119049593Y-84683904D01*
X119001212Y-85046761D02*
X119025403Y-85070952D01*
X119025403Y-85070952D02*
X119049593Y-85119333D01*
X119049593Y-85119333D02*
X119049593Y-85240285D01*
X119049593Y-85240285D02*
X119025403Y-85288666D01*
X119025403Y-85288666D02*
X119001212Y-85312857D01*
X119001212Y-85312857D02*
X118952831Y-85337047D01*
X118952831Y-85337047D02*
X118904450Y-85337047D01*
X118904450Y-85337047D02*
X118831879Y-85312857D01*
X118831879Y-85312857D02*
X118541593Y-85022571D01*
X118541593Y-85022571D02*
X118541593Y-85337047D01*
X119049593Y-87223904D02*
X119049593Y-87272285D01*
X119049593Y-87272285D02*
X119025403Y-87320666D01*
X119025403Y-87320666D02*
X119001212Y-87344856D01*
X119001212Y-87344856D02*
X118952831Y-87369047D01*
X118952831Y-87369047D02*
X118856069Y-87393237D01*
X118856069Y-87393237D02*
X118735117Y-87393237D01*
X118735117Y-87393237D02*
X118638355Y-87369047D01*
X118638355Y-87369047D02*
X118589974Y-87344856D01*
X118589974Y-87344856D02*
X118565784Y-87320666D01*
X118565784Y-87320666D02*
X118541593Y-87272285D01*
X118541593Y-87272285D02*
X118541593Y-87223904D01*
X118541593Y-87223904D02*
X118565784Y-87175523D01*
X118565784Y-87175523D02*
X118589974Y-87151332D01*
X118589974Y-87151332D02*
X118638355Y-87127142D01*
X118638355Y-87127142D02*
X118735117Y-87102951D01*
X118735117Y-87102951D02*
X118856069Y-87102951D01*
X118856069Y-87102951D02*
X118952831Y-87127142D01*
X118952831Y-87127142D02*
X119001212Y-87151332D01*
X119001212Y-87151332D02*
X119025403Y-87175523D01*
X119025403Y-87175523D02*
X119049593Y-87223904D01*
X119049593Y-87562571D02*
X119049593Y-87877047D01*
X119049593Y-87877047D02*
X118856069Y-87707714D01*
X118856069Y-87707714D02*
X118856069Y-87780285D01*
X118856069Y-87780285D02*
X118831879Y-87828666D01*
X118831879Y-87828666D02*
X118807688Y-87852857D01*
X118807688Y-87852857D02*
X118759307Y-87877047D01*
X118759307Y-87877047D02*
X118638355Y-87877047D01*
X118638355Y-87877047D02*
X118589974Y-87852857D01*
X118589974Y-87852857D02*
X118565784Y-87828666D01*
X118565784Y-87828666D02*
X118541593Y-87780285D01*
X118541593Y-87780285D02*
X118541593Y-87635142D01*
X118541593Y-87635142D02*
X118565784Y-87586761D01*
X118565784Y-87586761D02*
X118589974Y-87562571D01*
X119049593Y-89763904D02*
X119049593Y-89812285D01*
X119049593Y-89812285D02*
X119025403Y-89860666D01*
X119025403Y-89860666D02*
X119001212Y-89884856D01*
X119001212Y-89884856D02*
X118952831Y-89909047D01*
X118952831Y-89909047D02*
X118856069Y-89933237D01*
X118856069Y-89933237D02*
X118735117Y-89933237D01*
X118735117Y-89933237D02*
X118638355Y-89909047D01*
X118638355Y-89909047D02*
X118589974Y-89884856D01*
X118589974Y-89884856D02*
X118565784Y-89860666D01*
X118565784Y-89860666D02*
X118541593Y-89812285D01*
X118541593Y-89812285D02*
X118541593Y-89763904D01*
X118541593Y-89763904D02*
X118565784Y-89715523D01*
X118565784Y-89715523D02*
X118589974Y-89691332D01*
X118589974Y-89691332D02*
X118638355Y-89667142D01*
X118638355Y-89667142D02*
X118735117Y-89642951D01*
X118735117Y-89642951D02*
X118856069Y-89642951D01*
X118856069Y-89642951D02*
X118952831Y-89667142D01*
X118952831Y-89667142D02*
X119001212Y-89691332D01*
X119001212Y-89691332D02*
X119025403Y-89715523D01*
X119025403Y-89715523D02*
X119049593Y-89763904D01*
X118880260Y-90368666D02*
X118541593Y-90368666D01*
X119073784Y-90247714D02*
X118710926Y-90126761D01*
X118710926Y-90126761D02*
X118710926Y-90441238D01*
X119049593Y-92303904D02*
X119049593Y-92352285D01*
X119049593Y-92352285D02*
X119025403Y-92400666D01*
X119025403Y-92400666D02*
X119001212Y-92424856D01*
X119001212Y-92424856D02*
X118952831Y-92449047D01*
X118952831Y-92449047D02*
X118856069Y-92473237D01*
X118856069Y-92473237D02*
X118735117Y-92473237D01*
X118735117Y-92473237D02*
X118638355Y-92449047D01*
X118638355Y-92449047D02*
X118589974Y-92424856D01*
X118589974Y-92424856D02*
X118565784Y-92400666D01*
X118565784Y-92400666D02*
X118541593Y-92352285D01*
X118541593Y-92352285D02*
X118541593Y-92303904D01*
X118541593Y-92303904D02*
X118565784Y-92255523D01*
X118565784Y-92255523D02*
X118589974Y-92231332D01*
X118589974Y-92231332D02*
X118638355Y-92207142D01*
X118638355Y-92207142D02*
X118735117Y-92182951D01*
X118735117Y-92182951D02*
X118856069Y-92182951D01*
X118856069Y-92182951D02*
X118952831Y-92207142D01*
X118952831Y-92207142D02*
X119001212Y-92231332D01*
X119001212Y-92231332D02*
X119025403Y-92255523D01*
X119025403Y-92255523D02*
X119049593Y-92303904D01*
X119049593Y-92932857D02*
X119049593Y-92690952D01*
X119049593Y-92690952D02*
X118807688Y-92666761D01*
X118807688Y-92666761D02*
X118831879Y-92690952D01*
X118831879Y-92690952D02*
X118856069Y-92739333D01*
X118856069Y-92739333D02*
X118856069Y-92860285D01*
X118856069Y-92860285D02*
X118831879Y-92908666D01*
X118831879Y-92908666D02*
X118807688Y-92932857D01*
X118807688Y-92932857D02*
X118759307Y-92957047D01*
X118759307Y-92957047D02*
X118638355Y-92957047D01*
X118638355Y-92957047D02*
X118589974Y-92932857D01*
X118589974Y-92932857D02*
X118565784Y-92908666D01*
X118565784Y-92908666D02*
X118541593Y-92860285D01*
X118541593Y-92860285D02*
X118541593Y-92739333D01*
X118541593Y-92739333D02*
X118565784Y-92690952D01*
X118565784Y-92690952D02*
X118589974Y-92666761D01*
X119049593Y-94843904D02*
X119049593Y-94892285D01*
X119049593Y-94892285D02*
X119025403Y-94940666D01*
X119025403Y-94940666D02*
X119001212Y-94964856D01*
X119001212Y-94964856D02*
X118952831Y-94989047D01*
X118952831Y-94989047D02*
X118856069Y-95013237D01*
X118856069Y-95013237D02*
X118735117Y-95013237D01*
X118735117Y-95013237D02*
X118638355Y-94989047D01*
X118638355Y-94989047D02*
X118589974Y-94964856D01*
X118589974Y-94964856D02*
X118565784Y-94940666D01*
X118565784Y-94940666D02*
X118541593Y-94892285D01*
X118541593Y-94892285D02*
X118541593Y-94843904D01*
X118541593Y-94843904D02*
X118565784Y-94795523D01*
X118565784Y-94795523D02*
X118589974Y-94771332D01*
X118589974Y-94771332D02*
X118638355Y-94747142D01*
X118638355Y-94747142D02*
X118735117Y-94722951D01*
X118735117Y-94722951D02*
X118856069Y-94722951D01*
X118856069Y-94722951D02*
X118952831Y-94747142D01*
X118952831Y-94747142D02*
X119001212Y-94771332D01*
X119001212Y-94771332D02*
X119025403Y-94795523D01*
X119025403Y-94795523D02*
X119049593Y-94843904D01*
X119049593Y-95448666D02*
X119049593Y-95351904D01*
X119049593Y-95351904D02*
X119025403Y-95303523D01*
X119025403Y-95303523D02*
X119001212Y-95279333D01*
X119001212Y-95279333D02*
X118928641Y-95230952D01*
X118928641Y-95230952D02*
X118831879Y-95206761D01*
X118831879Y-95206761D02*
X118638355Y-95206761D01*
X118638355Y-95206761D02*
X118589974Y-95230952D01*
X118589974Y-95230952D02*
X118565784Y-95255142D01*
X118565784Y-95255142D02*
X118541593Y-95303523D01*
X118541593Y-95303523D02*
X118541593Y-95400285D01*
X118541593Y-95400285D02*
X118565784Y-95448666D01*
X118565784Y-95448666D02*
X118589974Y-95472857D01*
X118589974Y-95472857D02*
X118638355Y-95497047D01*
X118638355Y-95497047D02*
X118759307Y-95497047D01*
X118759307Y-95497047D02*
X118807688Y-95472857D01*
X118807688Y-95472857D02*
X118831879Y-95448666D01*
X118831879Y-95448666D02*
X118856069Y-95400285D01*
X118856069Y-95400285D02*
X118856069Y-95303523D01*
X118856069Y-95303523D02*
X118831879Y-95255142D01*
X118831879Y-95255142D02*
X118807688Y-95230952D01*
X118807688Y-95230952D02*
X118759307Y-95206761D01*
X119049593Y-97383904D02*
X119049593Y-97432285D01*
X119049593Y-97432285D02*
X119025403Y-97480666D01*
X119025403Y-97480666D02*
X119001212Y-97504856D01*
X119001212Y-97504856D02*
X118952831Y-97529047D01*
X118952831Y-97529047D02*
X118856069Y-97553237D01*
X118856069Y-97553237D02*
X118735117Y-97553237D01*
X118735117Y-97553237D02*
X118638355Y-97529047D01*
X118638355Y-97529047D02*
X118589974Y-97504856D01*
X118589974Y-97504856D02*
X118565784Y-97480666D01*
X118565784Y-97480666D02*
X118541593Y-97432285D01*
X118541593Y-97432285D02*
X118541593Y-97383904D01*
X118541593Y-97383904D02*
X118565784Y-97335523D01*
X118565784Y-97335523D02*
X118589974Y-97311332D01*
X118589974Y-97311332D02*
X118638355Y-97287142D01*
X118638355Y-97287142D02*
X118735117Y-97262951D01*
X118735117Y-97262951D02*
X118856069Y-97262951D01*
X118856069Y-97262951D02*
X118952831Y-97287142D01*
X118952831Y-97287142D02*
X119001212Y-97311332D01*
X119001212Y-97311332D02*
X119025403Y-97335523D01*
X119025403Y-97335523D02*
X119049593Y-97383904D01*
X119049593Y-97722571D02*
X119049593Y-98061238D01*
X119049593Y-98061238D02*
X118541593Y-97843523D01*
X119049593Y-99923904D02*
X119049593Y-99972285D01*
X119049593Y-99972285D02*
X119025403Y-100020666D01*
X119025403Y-100020666D02*
X119001212Y-100044856D01*
X119001212Y-100044856D02*
X118952831Y-100069047D01*
X118952831Y-100069047D02*
X118856069Y-100093237D01*
X118856069Y-100093237D02*
X118735117Y-100093237D01*
X118735117Y-100093237D02*
X118638355Y-100069047D01*
X118638355Y-100069047D02*
X118589974Y-100044856D01*
X118589974Y-100044856D02*
X118565784Y-100020666D01*
X118565784Y-100020666D02*
X118541593Y-99972285D01*
X118541593Y-99972285D02*
X118541593Y-99923904D01*
X118541593Y-99923904D02*
X118565784Y-99875523D01*
X118565784Y-99875523D02*
X118589974Y-99851332D01*
X118589974Y-99851332D02*
X118638355Y-99827142D01*
X118638355Y-99827142D02*
X118735117Y-99802951D01*
X118735117Y-99802951D02*
X118856069Y-99802951D01*
X118856069Y-99802951D02*
X118952831Y-99827142D01*
X118952831Y-99827142D02*
X119001212Y-99851332D01*
X119001212Y-99851332D02*
X119025403Y-99875523D01*
X119025403Y-99875523D02*
X119049593Y-99923904D01*
X118831879Y-100383523D02*
X118856069Y-100335142D01*
X118856069Y-100335142D02*
X118880260Y-100310952D01*
X118880260Y-100310952D02*
X118928641Y-100286761D01*
X118928641Y-100286761D02*
X118952831Y-100286761D01*
X118952831Y-100286761D02*
X119001212Y-100310952D01*
X119001212Y-100310952D02*
X119025403Y-100335142D01*
X119025403Y-100335142D02*
X119049593Y-100383523D01*
X119049593Y-100383523D02*
X119049593Y-100480285D01*
X119049593Y-100480285D02*
X119025403Y-100528666D01*
X119025403Y-100528666D02*
X119001212Y-100552857D01*
X119001212Y-100552857D02*
X118952831Y-100577047D01*
X118952831Y-100577047D02*
X118928641Y-100577047D01*
X118928641Y-100577047D02*
X118880260Y-100552857D01*
X118880260Y-100552857D02*
X118856069Y-100528666D01*
X118856069Y-100528666D02*
X118831879Y-100480285D01*
X118831879Y-100480285D02*
X118831879Y-100383523D01*
X118831879Y-100383523D02*
X118807688Y-100335142D01*
X118807688Y-100335142D02*
X118783498Y-100310952D01*
X118783498Y-100310952D02*
X118735117Y-100286761D01*
X118735117Y-100286761D02*
X118638355Y-100286761D01*
X118638355Y-100286761D02*
X118589974Y-100310952D01*
X118589974Y-100310952D02*
X118565784Y-100335142D01*
X118565784Y-100335142D02*
X118541593Y-100383523D01*
X118541593Y-100383523D02*
X118541593Y-100480285D01*
X118541593Y-100480285D02*
X118565784Y-100528666D01*
X118565784Y-100528666D02*
X118589974Y-100552857D01*
X118589974Y-100552857D02*
X118638355Y-100577047D01*
X118638355Y-100577047D02*
X118735117Y-100577047D01*
X118735117Y-100577047D02*
X118783498Y-100552857D01*
X118783498Y-100552857D02*
X118807688Y-100528666D01*
X118807688Y-100528666D02*
X118831879Y-100480285D01*
X119049593Y-102463904D02*
X119049593Y-102512285D01*
X119049593Y-102512285D02*
X119025403Y-102560666D01*
X119025403Y-102560666D02*
X119001212Y-102584856D01*
X119001212Y-102584856D02*
X118952831Y-102609047D01*
X118952831Y-102609047D02*
X118856069Y-102633237D01*
X118856069Y-102633237D02*
X118735117Y-102633237D01*
X118735117Y-102633237D02*
X118638355Y-102609047D01*
X118638355Y-102609047D02*
X118589974Y-102584856D01*
X118589974Y-102584856D02*
X118565784Y-102560666D01*
X118565784Y-102560666D02*
X118541593Y-102512285D01*
X118541593Y-102512285D02*
X118541593Y-102463904D01*
X118541593Y-102463904D02*
X118565784Y-102415523D01*
X118565784Y-102415523D02*
X118589974Y-102391332D01*
X118589974Y-102391332D02*
X118638355Y-102367142D01*
X118638355Y-102367142D02*
X118735117Y-102342951D01*
X118735117Y-102342951D02*
X118856069Y-102342951D01*
X118856069Y-102342951D02*
X118952831Y-102367142D01*
X118952831Y-102367142D02*
X119001212Y-102391332D01*
X119001212Y-102391332D02*
X119025403Y-102415523D01*
X119025403Y-102415523D02*
X119049593Y-102463904D01*
X118541593Y-102875142D02*
X118541593Y-102971904D01*
X118541593Y-102971904D02*
X118565784Y-103020285D01*
X118565784Y-103020285D02*
X118589974Y-103044476D01*
X118589974Y-103044476D02*
X118662545Y-103092857D01*
X118662545Y-103092857D02*
X118759307Y-103117047D01*
X118759307Y-103117047D02*
X118952831Y-103117047D01*
X118952831Y-103117047D02*
X119001212Y-103092857D01*
X119001212Y-103092857D02*
X119025403Y-103068666D01*
X119025403Y-103068666D02*
X119049593Y-103020285D01*
X119049593Y-103020285D02*
X119049593Y-102923523D01*
X119049593Y-102923523D02*
X119025403Y-102875142D01*
X119025403Y-102875142D02*
X119001212Y-102850952D01*
X119001212Y-102850952D02*
X118952831Y-102826761D01*
X118952831Y-102826761D02*
X118831879Y-102826761D01*
X118831879Y-102826761D02*
X118783498Y-102850952D01*
X118783498Y-102850952D02*
X118759307Y-102875142D01*
X118759307Y-102875142D02*
X118735117Y-102923523D01*
X118735117Y-102923523D02*
X118735117Y-103020285D01*
X118735117Y-103020285D02*
X118759307Y-103068666D01*
X118759307Y-103068666D02*
X118783498Y-103092857D01*
X118783498Y-103092857D02*
X118831879Y-103117047D01*
X118541593Y-105173237D02*
X118541593Y-104882951D01*
X118541593Y-105028094D02*
X119049593Y-105028094D01*
X119049593Y-105028094D02*
X118977022Y-104979713D01*
X118977022Y-104979713D02*
X118928641Y-104931332D01*
X118928641Y-104931332D02*
X118904450Y-104882951D01*
X119049593Y-105487714D02*
X119049593Y-105536095D01*
X119049593Y-105536095D02*
X119025403Y-105584476D01*
X119025403Y-105584476D02*
X119001212Y-105608666D01*
X119001212Y-105608666D02*
X118952831Y-105632857D01*
X118952831Y-105632857D02*
X118856069Y-105657047D01*
X118856069Y-105657047D02*
X118735117Y-105657047D01*
X118735117Y-105657047D02*
X118638355Y-105632857D01*
X118638355Y-105632857D02*
X118589974Y-105608666D01*
X118589974Y-105608666D02*
X118565784Y-105584476D01*
X118565784Y-105584476D02*
X118541593Y-105536095D01*
X118541593Y-105536095D02*
X118541593Y-105487714D01*
X118541593Y-105487714D02*
X118565784Y-105439333D01*
X118565784Y-105439333D02*
X118589974Y-105415142D01*
X118589974Y-105415142D02*
X118638355Y-105390952D01*
X118638355Y-105390952D02*
X118735117Y-105366761D01*
X118735117Y-105366761D02*
X118856069Y-105366761D01*
X118856069Y-105366761D02*
X118952831Y-105390952D01*
X118952831Y-105390952D02*
X119001212Y-105415142D01*
X119001212Y-105415142D02*
X119025403Y-105439333D01*
X119025403Y-105439333D02*
X119049593Y-105487714D01*
X118541593Y-107713237D02*
X118541593Y-107422951D01*
X118541593Y-107568094D02*
X119049593Y-107568094D01*
X119049593Y-107568094D02*
X118977022Y-107519713D01*
X118977022Y-107519713D02*
X118928641Y-107471332D01*
X118928641Y-107471332D02*
X118904450Y-107422951D01*
X118541593Y-108197047D02*
X118541593Y-107906761D01*
X118541593Y-108051904D02*
X119049593Y-108051904D01*
X119049593Y-108051904D02*
X118977022Y-108003523D01*
X118977022Y-108003523D02*
X118928641Y-107955142D01*
X118928641Y-107955142D02*
X118904450Y-107906761D01*
X118541593Y-110253237D02*
X118541593Y-109962951D01*
X118541593Y-110108094D02*
X119049593Y-110108094D01*
X119049593Y-110108094D02*
X118977022Y-110059713D01*
X118977022Y-110059713D02*
X118928641Y-110011332D01*
X118928641Y-110011332D02*
X118904450Y-109962951D01*
X119001212Y-110446761D02*
X119025403Y-110470952D01*
X119025403Y-110470952D02*
X119049593Y-110519333D01*
X119049593Y-110519333D02*
X119049593Y-110640285D01*
X119049593Y-110640285D02*
X119025403Y-110688666D01*
X119025403Y-110688666D02*
X119001212Y-110712857D01*
X119001212Y-110712857D02*
X118952831Y-110737047D01*
X118952831Y-110737047D02*
X118904450Y-110737047D01*
X118904450Y-110737047D02*
X118831879Y-110712857D01*
X118831879Y-110712857D02*
X118541593Y-110422571D01*
X118541593Y-110422571D02*
X118541593Y-110737047D01*
X169200406Y-85186095D02*
X169200406Y-85137714D01*
X169200406Y-85137714D02*
X169224596Y-85089333D01*
X169224596Y-85089333D02*
X169248787Y-85065143D01*
X169248787Y-85065143D02*
X169297168Y-85040952D01*
X169297168Y-85040952D02*
X169393930Y-85016762D01*
X169393930Y-85016762D02*
X169514882Y-85016762D01*
X169514882Y-85016762D02*
X169611644Y-85040952D01*
X169611644Y-85040952D02*
X169660025Y-85065143D01*
X169660025Y-85065143D02*
X169684216Y-85089333D01*
X169684216Y-85089333D02*
X169708406Y-85137714D01*
X169708406Y-85137714D02*
X169708406Y-85186095D01*
X169708406Y-85186095D02*
X169684216Y-85234476D01*
X169684216Y-85234476D02*
X169660025Y-85258667D01*
X169660025Y-85258667D02*
X169611644Y-85282857D01*
X169611644Y-85282857D02*
X169514882Y-85307048D01*
X169514882Y-85307048D02*
X169393930Y-85307048D01*
X169393930Y-85307048D02*
X169297168Y-85282857D01*
X169297168Y-85282857D02*
X169248787Y-85258667D01*
X169248787Y-85258667D02*
X169224596Y-85234476D01*
X169224596Y-85234476D02*
X169200406Y-85186095D01*
X169248787Y-84823238D02*
X169224596Y-84799047D01*
X169224596Y-84799047D02*
X169200406Y-84750666D01*
X169200406Y-84750666D02*
X169200406Y-84629714D01*
X169200406Y-84629714D02*
X169224596Y-84581333D01*
X169224596Y-84581333D02*
X169248787Y-84557142D01*
X169248787Y-84557142D02*
X169297168Y-84532952D01*
X169297168Y-84532952D02*
X169345549Y-84532952D01*
X169345549Y-84532952D02*
X169418120Y-84557142D01*
X169418120Y-84557142D02*
X169708406Y-84847428D01*
X169708406Y-84847428D02*
X169708406Y-84532952D01*
X169200406Y-87726095D02*
X169200406Y-87677714D01*
X169200406Y-87677714D02*
X169224596Y-87629333D01*
X169224596Y-87629333D02*
X169248787Y-87605143D01*
X169248787Y-87605143D02*
X169297168Y-87580952D01*
X169297168Y-87580952D02*
X169393930Y-87556762D01*
X169393930Y-87556762D02*
X169514882Y-87556762D01*
X169514882Y-87556762D02*
X169611644Y-87580952D01*
X169611644Y-87580952D02*
X169660025Y-87605143D01*
X169660025Y-87605143D02*
X169684216Y-87629333D01*
X169684216Y-87629333D02*
X169708406Y-87677714D01*
X169708406Y-87677714D02*
X169708406Y-87726095D01*
X169708406Y-87726095D02*
X169684216Y-87774476D01*
X169684216Y-87774476D02*
X169660025Y-87798667D01*
X169660025Y-87798667D02*
X169611644Y-87822857D01*
X169611644Y-87822857D02*
X169514882Y-87847048D01*
X169514882Y-87847048D02*
X169393930Y-87847048D01*
X169393930Y-87847048D02*
X169297168Y-87822857D01*
X169297168Y-87822857D02*
X169248787Y-87798667D01*
X169248787Y-87798667D02*
X169224596Y-87774476D01*
X169224596Y-87774476D02*
X169200406Y-87726095D01*
X169200406Y-87387428D02*
X169200406Y-87072952D01*
X169200406Y-87072952D02*
X169393930Y-87242285D01*
X169393930Y-87242285D02*
X169393930Y-87169714D01*
X169393930Y-87169714D02*
X169418120Y-87121333D01*
X169418120Y-87121333D02*
X169442311Y-87097142D01*
X169442311Y-87097142D02*
X169490692Y-87072952D01*
X169490692Y-87072952D02*
X169611644Y-87072952D01*
X169611644Y-87072952D02*
X169660025Y-87097142D01*
X169660025Y-87097142D02*
X169684216Y-87121333D01*
X169684216Y-87121333D02*
X169708406Y-87169714D01*
X169708406Y-87169714D02*
X169708406Y-87314857D01*
X169708406Y-87314857D02*
X169684216Y-87363238D01*
X169684216Y-87363238D02*
X169660025Y-87387428D01*
X169200406Y-90266095D02*
X169200406Y-90217714D01*
X169200406Y-90217714D02*
X169224596Y-90169333D01*
X169224596Y-90169333D02*
X169248787Y-90145143D01*
X169248787Y-90145143D02*
X169297168Y-90120952D01*
X169297168Y-90120952D02*
X169393930Y-90096762D01*
X169393930Y-90096762D02*
X169514882Y-90096762D01*
X169514882Y-90096762D02*
X169611644Y-90120952D01*
X169611644Y-90120952D02*
X169660025Y-90145143D01*
X169660025Y-90145143D02*
X169684216Y-90169333D01*
X169684216Y-90169333D02*
X169708406Y-90217714D01*
X169708406Y-90217714D02*
X169708406Y-90266095D01*
X169708406Y-90266095D02*
X169684216Y-90314476D01*
X169684216Y-90314476D02*
X169660025Y-90338667D01*
X169660025Y-90338667D02*
X169611644Y-90362857D01*
X169611644Y-90362857D02*
X169514882Y-90387048D01*
X169514882Y-90387048D02*
X169393930Y-90387048D01*
X169393930Y-90387048D02*
X169297168Y-90362857D01*
X169297168Y-90362857D02*
X169248787Y-90338667D01*
X169248787Y-90338667D02*
X169224596Y-90314476D01*
X169224596Y-90314476D02*
X169200406Y-90266095D01*
X169369739Y-89661333D02*
X169708406Y-89661333D01*
X169176216Y-89782285D02*
X169539073Y-89903238D01*
X169539073Y-89903238D02*
X169539073Y-89588761D01*
X169200406Y-82646095D02*
X169200406Y-82597714D01*
X169200406Y-82597714D02*
X169224596Y-82549333D01*
X169224596Y-82549333D02*
X169248787Y-82525143D01*
X169248787Y-82525143D02*
X169297168Y-82500952D01*
X169297168Y-82500952D02*
X169393930Y-82476762D01*
X169393930Y-82476762D02*
X169514882Y-82476762D01*
X169514882Y-82476762D02*
X169611644Y-82500952D01*
X169611644Y-82500952D02*
X169660025Y-82525143D01*
X169660025Y-82525143D02*
X169684216Y-82549333D01*
X169684216Y-82549333D02*
X169708406Y-82597714D01*
X169708406Y-82597714D02*
X169708406Y-82646095D01*
X169708406Y-82646095D02*
X169684216Y-82694476D01*
X169684216Y-82694476D02*
X169660025Y-82718667D01*
X169660025Y-82718667D02*
X169611644Y-82742857D01*
X169611644Y-82742857D02*
X169514882Y-82767048D01*
X169514882Y-82767048D02*
X169393930Y-82767048D01*
X169393930Y-82767048D02*
X169297168Y-82742857D01*
X169297168Y-82742857D02*
X169248787Y-82718667D01*
X169248787Y-82718667D02*
X169224596Y-82694476D01*
X169224596Y-82694476D02*
X169200406Y-82646095D01*
X169708406Y-81992952D02*
X169708406Y-82283238D01*
X169708406Y-82138095D02*
X169200406Y-82138095D01*
X169200406Y-82138095D02*
X169272977Y-82186476D01*
X169272977Y-82186476D02*
X169321358Y-82234857D01*
X169321358Y-82234857D02*
X169345549Y-82283238D01*
X169200406Y-100426095D02*
X169200406Y-100377714D01*
X169200406Y-100377714D02*
X169224596Y-100329333D01*
X169224596Y-100329333D02*
X169248787Y-100305143D01*
X169248787Y-100305143D02*
X169297168Y-100280952D01*
X169297168Y-100280952D02*
X169393930Y-100256762D01*
X169393930Y-100256762D02*
X169514882Y-100256762D01*
X169514882Y-100256762D02*
X169611644Y-100280952D01*
X169611644Y-100280952D02*
X169660025Y-100305143D01*
X169660025Y-100305143D02*
X169684216Y-100329333D01*
X169684216Y-100329333D02*
X169708406Y-100377714D01*
X169708406Y-100377714D02*
X169708406Y-100426095D01*
X169708406Y-100426095D02*
X169684216Y-100474476D01*
X169684216Y-100474476D02*
X169660025Y-100498667D01*
X169660025Y-100498667D02*
X169611644Y-100522857D01*
X169611644Y-100522857D02*
X169514882Y-100547048D01*
X169514882Y-100547048D02*
X169393930Y-100547048D01*
X169393930Y-100547048D02*
X169297168Y-100522857D01*
X169297168Y-100522857D02*
X169248787Y-100498667D01*
X169248787Y-100498667D02*
X169224596Y-100474476D01*
X169224596Y-100474476D02*
X169200406Y-100426095D01*
X169418120Y-99966476D02*
X169393930Y-100014857D01*
X169393930Y-100014857D02*
X169369739Y-100039047D01*
X169369739Y-100039047D02*
X169321358Y-100063238D01*
X169321358Y-100063238D02*
X169297168Y-100063238D01*
X169297168Y-100063238D02*
X169248787Y-100039047D01*
X169248787Y-100039047D02*
X169224596Y-100014857D01*
X169224596Y-100014857D02*
X169200406Y-99966476D01*
X169200406Y-99966476D02*
X169200406Y-99869714D01*
X169200406Y-99869714D02*
X169224596Y-99821333D01*
X169224596Y-99821333D02*
X169248787Y-99797142D01*
X169248787Y-99797142D02*
X169297168Y-99772952D01*
X169297168Y-99772952D02*
X169321358Y-99772952D01*
X169321358Y-99772952D02*
X169369739Y-99797142D01*
X169369739Y-99797142D02*
X169393930Y-99821333D01*
X169393930Y-99821333D02*
X169418120Y-99869714D01*
X169418120Y-99869714D02*
X169418120Y-99966476D01*
X169418120Y-99966476D02*
X169442311Y-100014857D01*
X169442311Y-100014857D02*
X169466501Y-100039047D01*
X169466501Y-100039047D02*
X169514882Y-100063238D01*
X169514882Y-100063238D02*
X169611644Y-100063238D01*
X169611644Y-100063238D02*
X169660025Y-100039047D01*
X169660025Y-100039047D02*
X169684216Y-100014857D01*
X169684216Y-100014857D02*
X169708406Y-99966476D01*
X169708406Y-99966476D02*
X169708406Y-99869714D01*
X169708406Y-99869714D02*
X169684216Y-99821333D01*
X169684216Y-99821333D02*
X169660025Y-99797142D01*
X169660025Y-99797142D02*
X169611644Y-99772952D01*
X169611644Y-99772952D02*
X169514882Y-99772952D01*
X169514882Y-99772952D02*
X169466501Y-99797142D01*
X169466501Y-99797142D02*
X169442311Y-99821333D01*
X169442311Y-99821333D02*
X169418120Y-99869714D01*
X169200406Y-102966095D02*
X169200406Y-102917714D01*
X169200406Y-102917714D02*
X169224596Y-102869333D01*
X169224596Y-102869333D02*
X169248787Y-102845143D01*
X169248787Y-102845143D02*
X169297168Y-102820952D01*
X169297168Y-102820952D02*
X169393930Y-102796762D01*
X169393930Y-102796762D02*
X169514882Y-102796762D01*
X169514882Y-102796762D02*
X169611644Y-102820952D01*
X169611644Y-102820952D02*
X169660025Y-102845143D01*
X169660025Y-102845143D02*
X169684216Y-102869333D01*
X169684216Y-102869333D02*
X169708406Y-102917714D01*
X169708406Y-102917714D02*
X169708406Y-102966095D01*
X169708406Y-102966095D02*
X169684216Y-103014476D01*
X169684216Y-103014476D02*
X169660025Y-103038667D01*
X169660025Y-103038667D02*
X169611644Y-103062857D01*
X169611644Y-103062857D02*
X169514882Y-103087048D01*
X169514882Y-103087048D02*
X169393930Y-103087048D01*
X169393930Y-103087048D02*
X169297168Y-103062857D01*
X169297168Y-103062857D02*
X169248787Y-103038667D01*
X169248787Y-103038667D02*
X169224596Y-103014476D01*
X169224596Y-103014476D02*
X169200406Y-102966095D01*
X169708406Y-102554857D02*
X169708406Y-102458095D01*
X169708406Y-102458095D02*
X169684216Y-102409714D01*
X169684216Y-102409714D02*
X169660025Y-102385523D01*
X169660025Y-102385523D02*
X169587454Y-102337142D01*
X169587454Y-102337142D02*
X169490692Y-102312952D01*
X169490692Y-102312952D02*
X169297168Y-102312952D01*
X169297168Y-102312952D02*
X169248787Y-102337142D01*
X169248787Y-102337142D02*
X169224596Y-102361333D01*
X169224596Y-102361333D02*
X169200406Y-102409714D01*
X169200406Y-102409714D02*
X169200406Y-102506476D01*
X169200406Y-102506476D02*
X169224596Y-102554857D01*
X169224596Y-102554857D02*
X169248787Y-102579047D01*
X169248787Y-102579047D02*
X169297168Y-102603238D01*
X169297168Y-102603238D02*
X169418120Y-102603238D01*
X169418120Y-102603238D02*
X169466501Y-102579047D01*
X169466501Y-102579047D02*
X169490692Y-102554857D01*
X169490692Y-102554857D02*
X169514882Y-102506476D01*
X169514882Y-102506476D02*
X169514882Y-102409714D01*
X169514882Y-102409714D02*
X169490692Y-102361333D01*
X169490692Y-102361333D02*
X169466501Y-102337142D01*
X169466501Y-102337142D02*
X169418120Y-102312952D01*
X169200406Y-92806095D02*
X169200406Y-92757714D01*
X169200406Y-92757714D02*
X169224596Y-92709333D01*
X169224596Y-92709333D02*
X169248787Y-92685143D01*
X169248787Y-92685143D02*
X169297168Y-92660952D01*
X169297168Y-92660952D02*
X169393930Y-92636762D01*
X169393930Y-92636762D02*
X169514882Y-92636762D01*
X169514882Y-92636762D02*
X169611644Y-92660952D01*
X169611644Y-92660952D02*
X169660025Y-92685143D01*
X169660025Y-92685143D02*
X169684216Y-92709333D01*
X169684216Y-92709333D02*
X169708406Y-92757714D01*
X169708406Y-92757714D02*
X169708406Y-92806095D01*
X169708406Y-92806095D02*
X169684216Y-92854476D01*
X169684216Y-92854476D02*
X169660025Y-92878667D01*
X169660025Y-92878667D02*
X169611644Y-92902857D01*
X169611644Y-92902857D02*
X169514882Y-92927048D01*
X169514882Y-92927048D02*
X169393930Y-92927048D01*
X169393930Y-92927048D02*
X169297168Y-92902857D01*
X169297168Y-92902857D02*
X169248787Y-92878667D01*
X169248787Y-92878667D02*
X169224596Y-92854476D01*
X169224596Y-92854476D02*
X169200406Y-92806095D01*
X169200406Y-92177142D02*
X169200406Y-92419047D01*
X169200406Y-92419047D02*
X169442311Y-92443238D01*
X169442311Y-92443238D02*
X169418120Y-92419047D01*
X169418120Y-92419047D02*
X169393930Y-92370666D01*
X169393930Y-92370666D02*
X169393930Y-92249714D01*
X169393930Y-92249714D02*
X169418120Y-92201333D01*
X169418120Y-92201333D02*
X169442311Y-92177142D01*
X169442311Y-92177142D02*
X169490692Y-92152952D01*
X169490692Y-92152952D02*
X169611644Y-92152952D01*
X169611644Y-92152952D02*
X169660025Y-92177142D01*
X169660025Y-92177142D02*
X169684216Y-92201333D01*
X169684216Y-92201333D02*
X169708406Y-92249714D01*
X169708406Y-92249714D02*
X169708406Y-92370666D01*
X169708406Y-92370666D02*
X169684216Y-92419047D01*
X169684216Y-92419047D02*
X169660025Y-92443238D01*
X169708406Y-107876762D02*
X169708406Y-108167048D01*
X169708406Y-108021905D02*
X169200406Y-108021905D01*
X169200406Y-108021905D02*
X169272977Y-108070286D01*
X169272977Y-108070286D02*
X169321358Y-108118667D01*
X169321358Y-108118667D02*
X169345549Y-108167048D01*
X169708406Y-107392952D02*
X169708406Y-107683238D01*
X169708406Y-107538095D02*
X169200406Y-107538095D01*
X169200406Y-107538095D02*
X169272977Y-107586476D01*
X169272977Y-107586476D02*
X169321358Y-107634857D01*
X169321358Y-107634857D02*
X169345549Y-107683238D01*
X169708406Y-105336762D02*
X169708406Y-105627048D01*
X169708406Y-105481905D02*
X169200406Y-105481905D01*
X169200406Y-105481905D02*
X169272977Y-105530286D01*
X169272977Y-105530286D02*
X169321358Y-105578667D01*
X169321358Y-105578667D02*
X169345549Y-105627048D01*
X169200406Y-105022285D02*
X169200406Y-104973904D01*
X169200406Y-104973904D02*
X169224596Y-104925523D01*
X169224596Y-104925523D02*
X169248787Y-104901333D01*
X169248787Y-104901333D02*
X169297168Y-104877142D01*
X169297168Y-104877142D02*
X169393930Y-104852952D01*
X169393930Y-104852952D02*
X169514882Y-104852952D01*
X169514882Y-104852952D02*
X169611644Y-104877142D01*
X169611644Y-104877142D02*
X169660025Y-104901333D01*
X169660025Y-104901333D02*
X169684216Y-104925523D01*
X169684216Y-104925523D02*
X169708406Y-104973904D01*
X169708406Y-104973904D02*
X169708406Y-105022285D01*
X169708406Y-105022285D02*
X169684216Y-105070666D01*
X169684216Y-105070666D02*
X169660025Y-105094857D01*
X169660025Y-105094857D02*
X169611644Y-105119047D01*
X169611644Y-105119047D02*
X169514882Y-105143238D01*
X169514882Y-105143238D02*
X169393930Y-105143238D01*
X169393930Y-105143238D02*
X169297168Y-105119047D01*
X169297168Y-105119047D02*
X169248787Y-105094857D01*
X169248787Y-105094857D02*
X169224596Y-105070666D01*
X169224596Y-105070666D02*
X169200406Y-105022285D01*
X169200406Y-95346095D02*
X169200406Y-95297714D01*
X169200406Y-95297714D02*
X169224596Y-95249333D01*
X169224596Y-95249333D02*
X169248787Y-95225143D01*
X169248787Y-95225143D02*
X169297168Y-95200952D01*
X169297168Y-95200952D02*
X169393930Y-95176762D01*
X169393930Y-95176762D02*
X169514882Y-95176762D01*
X169514882Y-95176762D02*
X169611644Y-95200952D01*
X169611644Y-95200952D02*
X169660025Y-95225143D01*
X169660025Y-95225143D02*
X169684216Y-95249333D01*
X169684216Y-95249333D02*
X169708406Y-95297714D01*
X169708406Y-95297714D02*
X169708406Y-95346095D01*
X169708406Y-95346095D02*
X169684216Y-95394476D01*
X169684216Y-95394476D02*
X169660025Y-95418667D01*
X169660025Y-95418667D02*
X169611644Y-95442857D01*
X169611644Y-95442857D02*
X169514882Y-95467048D01*
X169514882Y-95467048D02*
X169393930Y-95467048D01*
X169393930Y-95467048D02*
X169297168Y-95442857D01*
X169297168Y-95442857D02*
X169248787Y-95418667D01*
X169248787Y-95418667D02*
X169224596Y-95394476D01*
X169224596Y-95394476D02*
X169200406Y-95346095D01*
X169200406Y-94741333D02*
X169200406Y-94838095D01*
X169200406Y-94838095D02*
X169224596Y-94886476D01*
X169224596Y-94886476D02*
X169248787Y-94910666D01*
X169248787Y-94910666D02*
X169321358Y-94959047D01*
X169321358Y-94959047D02*
X169418120Y-94983238D01*
X169418120Y-94983238D02*
X169611644Y-94983238D01*
X169611644Y-94983238D02*
X169660025Y-94959047D01*
X169660025Y-94959047D02*
X169684216Y-94934857D01*
X169684216Y-94934857D02*
X169708406Y-94886476D01*
X169708406Y-94886476D02*
X169708406Y-94789714D01*
X169708406Y-94789714D02*
X169684216Y-94741333D01*
X169684216Y-94741333D02*
X169660025Y-94717142D01*
X169660025Y-94717142D02*
X169611644Y-94692952D01*
X169611644Y-94692952D02*
X169490692Y-94692952D01*
X169490692Y-94692952D02*
X169442311Y-94717142D01*
X169442311Y-94717142D02*
X169418120Y-94741333D01*
X169418120Y-94741333D02*
X169393930Y-94789714D01*
X169393930Y-94789714D02*
X169393930Y-94886476D01*
X169393930Y-94886476D02*
X169418120Y-94934857D01*
X169418120Y-94934857D02*
X169442311Y-94959047D01*
X169442311Y-94959047D02*
X169490692Y-94983238D01*
X169200406Y-97886095D02*
X169200406Y-97837714D01*
X169200406Y-97837714D02*
X169224596Y-97789333D01*
X169224596Y-97789333D02*
X169248787Y-97765143D01*
X169248787Y-97765143D02*
X169297168Y-97740952D01*
X169297168Y-97740952D02*
X169393930Y-97716762D01*
X169393930Y-97716762D02*
X169514882Y-97716762D01*
X169514882Y-97716762D02*
X169611644Y-97740952D01*
X169611644Y-97740952D02*
X169660025Y-97765143D01*
X169660025Y-97765143D02*
X169684216Y-97789333D01*
X169684216Y-97789333D02*
X169708406Y-97837714D01*
X169708406Y-97837714D02*
X169708406Y-97886095D01*
X169708406Y-97886095D02*
X169684216Y-97934476D01*
X169684216Y-97934476D02*
X169660025Y-97958667D01*
X169660025Y-97958667D02*
X169611644Y-97982857D01*
X169611644Y-97982857D02*
X169514882Y-98007048D01*
X169514882Y-98007048D02*
X169393930Y-98007048D01*
X169393930Y-98007048D02*
X169297168Y-97982857D01*
X169297168Y-97982857D02*
X169248787Y-97958667D01*
X169248787Y-97958667D02*
X169224596Y-97934476D01*
X169224596Y-97934476D02*
X169200406Y-97886095D01*
X169200406Y-97547428D02*
X169200406Y-97208761D01*
X169200406Y-97208761D02*
X169708406Y-97426476D01*
X169708406Y-110416762D02*
X169708406Y-110707048D01*
X169708406Y-110561905D02*
X169200406Y-110561905D01*
X169200406Y-110561905D02*
X169272977Y-110610286D01*
X169272977Y-110610286D02*
X169321358Y-110658667D01*
X169321358Y-110658667D02*
X169345549Y-110707048D01*
X169248787Y-110223238D02*
X169224596Y-110199047D01*
X169224596Y-110199047D02*
X169200406Y-110150666D01*
X169200406Y-110150666D02*
X169200406Y-110029714D01*
X169200406Y-110029714D02*
X169224596Y-109981333D01*
X169224596Y-109981333D02*
X169248787Y-109957142D01*
X169248787Y-109957142D02*
X169297168Y-109932952D01*
X169297168Y-109932952D02*
X169345549Y-109932952D01*
X169345549Y-109932952D02*
X169418120Y-109957142D01*
X169418120Y-109957142D02*
X169708406Y-110247428D01*
X169708406Y-110247428D02*
X169708406Y-109932952D01*
D10*
X119781905Y-77799104D02*
X120258095Y-77799104D01*
X119686667Y-78084819D02*
X120020000Y-77084819D01*
X120020000Y-77084819D02*
X120353333Y-78084819D01*
D11*
X119049593Y-82143904D02*
X119049593Y-82192285D01*
X119049593Y-82192285D02*
X119025403Y-82240666D01*
X119025403Y-82240666D02*
X119001212Y-82264856D01*
X119001212Y-82264856D02*
X118952831Y-82289047D01*
X118952831Y-82289047D02*
X118856069Y-82313237D01*
X118856069Y-82313237D02*
X118735117Y-82313237D01*
X118735117Y-82313237D02*
X118638355Y-82289047D01*
X118638355Y-82289047D02*
X118589974Y-82264856D01*
X118589974Y-82264856D02*
X118565784Y-82240666D01*
X118565784Y-82240666D02*
X118541593Y-82192285D01*
X118541593Y-82192285D02*
X118541593Y-82143904D01*
X118541593Y-82143904D02*
X118565784Y-82095523D01*
X118565784Y-82095523D02*
X118589974Y-82071332D01*
X118589974Y-82071332D02*
X118638355Y-82047142D01*
X118638355Y-82047142D02*
X118735117Y-82022951D01*
X118735117Y-82022951D02*
X118856069Y-82022951D01*
X118856069Y-82022951D02*
X118952831Y-82047142D01*
X118952831Y-82047142D02*
X119001212Y-82071332D01*
X119001212Y-82071332D02*
X119025403Y-82095523D01*
X119025403Y-82095523D02*
X119049593Y-82143904D01*
X118541593Y-82797047D02*
X118541593Y-82506761D01*
X118541593Y-82651904D02*
X119049593Y-82651904D01*
X119049593Y-82651904D02*
X118977022Y-82603523D01*
X118977022Y-82603523D02*
X118928641Y-82555142D01*
X118928641Y-82555142D02*
X118904450Y-82506761D01*
D12*
%TO.C,G\u002A\u002A\u002A*%
G36*
X135468645Y-105958760D02*
G01*
X134773674Y-106863637D01*
X132739910Y-106872457D01*
X130707910Y-106881276D01*
X130702618Y-107246401D01*
X130699090Y-107613289D01*
X133258493Y-107613289D01*
X134414832Y-107614337D01*
X135209354Y-107617700D01*
X135478582Y-107620353D01*
X135666532Y-107623709D01*
X135776266Y-107627808D01*
X135802757Y-107630149D01*
X135810840Y-107632692D01*
X135602260Y-107908741D01*
X135110577Y-108549913D01*
X134413840Y-109447734D01*
X132556465Y-109447734D01*
X130699090Y-109447734D01*
X130699090Y-110770650D01*
X130699090Y-112093569D01*
X129605479Y-112093569D01*
X128511868Y-112093569D01*
X128511868Y-108574608D01*
X128511868Y-105055651D01*
X132337743Y-105055651D01*
X136165381Y-105055651D01*
X135468645Y-105958760D01*
G37*
G36*
X161495185Y-105056533D02*
G01*
X162125359Y-105057883D01*
X162591304Y-105060060D01*
X162914788Y-105063230D01*
X163117577Y-105067557D01*
X163180512Y-105070206D01*
X163221436Y-105073207D01*
X163243069Y-105076580D01*
X163247502Y-105078412D01*
X163248132Y-105080345D01*
X163036907Y-105356394D01*
X162547867Y-105986986D01*
X161861716Y-106872457D01*
X160801617Y-106875984D01*
X159741522Y-106881276D01*
X159736230Y-109486540D01*
X159732703Y-112093569D01*
X158639090Y-112093569D01*
X157545480Y-112093569D01*
X157545480Y-109483013D01*
X157545480Y-106872457D01*
X156099090Y-106868929D01*
X154652701Y-106863637D01*
X155263006Y-106069887D01*
X155719192Y-105476558D01*
X155959741Y-105165012D01*
X156046173Y-105055651D01*
X159655090Y-105055651D01*
X161495185Y-105056533D01*
G37*
G36*
X139252792Y-105028884D02*
G01*
X139317259Y-105032362D01*
X139381818Y-105039095D01*
X139446474Y-105049081D01*
X139511227Y-105062318D01*
X139576082Y-105078802D01*
X139641039Y-105098532D01*
X139706103Y-105121504D01*
X139771275Y-105147717D01*
X139836559Y-105177167D01*
X139901956Y-105209852D01*
X139967469Y-105245769D01*
X140033101Y-105284916D01*
X140098855Y-105327291D01*
X140209807Y-105403017D01*
X140316750Y-105493895D01*
X140453872Y-105645503D01*
X140655362Y-105903420D01*
X140955409Y-106313224D01*
X141388202Y-106920495D01*
X142788785Y-108909749D01*
X145021867Y-112084749D01*
X142947536Y-112090041D01*
X138812979Y-112090041D01*
X136752757Y-112084749D01*
X137401868Y-111185164D01*
X138052743Y-110285582D01*
X139527354Y-110276763D01*
X141003729Y-110267943D01*
X140098855Y-109012053D01*
X139745636Y-108524421D01*
X139454594Y-108125920D01*
X139255495Y-107857396D01*
X139199726Y-107784639D01*
X139184414Y-107765871D01*
X139178104Y-107759694D01*
X138706484Y-108396677D01*
X137590604Y-109923986D01*
X136015451Y-112084749D01*
X134655493Y-112090041D01*
X133293771Y-112093569D01*
X133939354Y-111199275D01*
X136235937Y-108010164D01*
X136986224Y-106970545D01*
X137522033Y-106235031D01*
X137714211Y-105974854D01*
X137858412Y-105782952D01*
X137956518Y-105656741D01*
X137988873Y-105617462D01*
X138010409Y-105593637D01*
X138065837Y-105540191D01*
X138124091Y-105488444D01*
X138184856Y-105438569D01*
X138247818Y-105390734D01*
X138312661Y-105345112D01*
X138379069Y-105301871D01*
X138446728Y-105261184D01*
X138515323Y-105223220D01*
X138584537Y-105188150D01*
X138654057Y-105156144D01*
X138723566Y-105127373D01*
X138792749Y-105102008D01*
X138861292Y-105080218D01*
X138928879Y-105062175D01*
X138995194Y-105048050D01*
X139059923Y-105038011D01*
X139124127Y-105031707D01*
X139188415Y-105028665D01*
X139252792Y-105028884D01*
G37*
G36*
X154441034Y-105066234D02*
G01*
X154386629Y-105140373D01*
X154238628Y-105335227D01*
X153753117Y-105969347D01*
X153063438Y-106863637D01*
X150484633Y-106872457D01*
X147905826Y-106881276D01*
X147822925Y-106920079D01*
X147803450Y-106929654D01*
X147785363Y-106939872D01*
X147768645Y-106950756D01*
X147753278Y-106962331D01*
X147739245Y-106974618D01*
X147726527Y-106987642D01*
X147715106Y-107001426D01*
X147704964Y-107015992D01*
X147696083Y-107031365D01*
X147688445Y-107047567D01*
X147682031Y-107064622D01*
X147676824Y-107082552D01*
X147672806Y-107101382D01*
X147669958Y-107121135D01*
X147668263Y-107141833D01*
X147667702Y-107163500D01*
X147668219Y-107183903D01*
X147668866Y-107193784D01*
X147669772Y-107203452D01*
X147670938Y-107212910D01*
X147672364Y-107222158D01*
X147674050Y-107231200D01*
X147675997Y-107240035D01*
X147678205Y-107248667D01*
X147680674Y-107257096D01*
X147683405Y-107265324D01*
X147686398Y-107273353D01*
X147689653Y-107281184D01*
X147693170Y-107288819D01*
X147696951Y-107296260D01*
X147700995Y-107303507D01*
X147705302Y-107310564D01*
X147709873Y-107317431D01*
X147714708Y-107324110D01*
X147719808Y-107330603D01*
X147725173Y-107336911D01*
X147730803Y-107343036D01*
X147736698Y-107348979D01*
X147742859Y-107354742D01*
X147749286Y-107360328D01*
X147755980Y-107365736D01*
X147762941Y-107370969D01*
X147770168Y-107376029D01*
X147777663Y-107380917D01*
X147785426Y-107385635D01*
X147793457Y-107390184D01*
X147801756Y-107394567D01*
X147831150Y-107405143D01*
X147884108Y-107413363D01*
X147983204Y-107419682D01*
X148151008Y-107424553D01*
X148783031Y-107431774D01*
X149960757Y-107438664D01*
X150711185Y-107442292D01*
X151277748Y-107446189D01*
X151502319Y-107448683D01*
X151693210Y-107451780D01*
X151854515Y-107455657D01*
X151990332Y-107460493D01*
X152104754Y-107466465D01*
X152201878Y-107473753D01*
X152285798Y-107482534D01*
X152360611Y-107492986D01*
X152430410Y-107505289D01*
X152499293Y-107519620D01*
X152650688Y-107555080D01*
X152752084Y-107580602D01*
X152851826Y-107608855D01*
X152949832Y-107639800D01*
X153046019Y-107673399D01*
X153140304Y-107709613D01*
X153232605Y-107748403D01*
X153322839Y-107789730D01*
X153410923Y-107833556D01*
X153496775Y-107879841D01*
X153580312Y-107928548D01*
X153661450Y-107979636D01*
X153740109Y-108033068D01*
X153816204Y-108088805D01*
X153889653Y-108146808D01*
X153960374Y-108207038D01*
X154028284Y-108269457D01*
X154099794Y-108339692D01*
X154132801Y-108373640D01*
X154164131Y-108407012D01*
X154193900Y-108439961D01*
X154222226Y-108472638D01*
X154249223Y-108505196D01*
X154275008Y-108537788D01*
X154299698Y-108570566D01*
X154323409Y-108603682D01*
X154346256Y-108637289D01*
X154368357Y-108671540D01*
X154389827Y-108706586D01*
X154410783Y-108742581D01*
X154431341Y-108779677D01*
X154451617Y-108818025D01*
X154481167Y-108876860D01*
X154508345Y-108934491D01*
X154533218Y-108991202D01*
X154555853Y-109047277D01*
X154576318Y-109103000D01*
X154594680Y-109158656D01*
X154611005Y-109214530D01*
X154625362Y-109270904D01*
X154637816Y-109328064D01*
X154648437Y-109386294D01*
X154657289Y-109445878D01*
X154664442Y-109507100D01*
X154669962Y-109570244D01*
X154673916Y-109635594D01*
X154676371Y-109703436D01*
X154677396Y-109774053D01*
X154677055Y-109844606D01*
X154675335Y-109912250D01*
X154672179Y-109977258D01*
X154667529Y-110039905D01*
X154661328Y-110100464D01*
X154653521Y-110159209D01*
X154644049Y-110216414D01*
X154632857Y-110272353D01*
X154619887Y-110327299D01*
X154605083Y-110381528D01*
X154588387Y-110435312D01*
X154569743Y-110488925D01*
X154549094Y-110542642D01*
X154526383Y-110596736D01*
X154501553Y-110651482D01*
X154474548Y-110707152D01*
X154455851Y-110743673D01*
X154436753Y-110779216D01*
X154417184Y-110813882D01*
X154397076Y-110847767D01*
X154376357Y-110880970D01*
X154354959Y-110913589D01*
X154332812Y-110945722D01*
X154309846Y-110977468D01*
X154285990Y-111008924D01*
X154261177Y-111040189D01*
X154235334Y-111071361D01*
X154208394Y-111102538D01*
X154180286Y-111133818D01*
X154150940Y-111165301D01*
X154120287Y-111197082D01*
X154088257Y-111229262D01*
X154007114Y-111306162D01*
X153923054Y-111379455D01*
X153836013Y-111449171D01*
X153745925Y-111515343D01*
X153652726Y-111578001D01*
X153556352Y-111637176D01*
X153456737Y-111692898D01*
X153353818Y-111745200D01*
X153247529Y-111794112D01*
X153137807Y-111839665D01*
X153024586Y-111881890D01*
X152907802Y-111920817D01*
X152787390Y-111956479D01*
X152663286Y-111988906D01*
X152535425Y-112018129D01*
X152403743Y-112044179D01*
X152192076Y-112084749D01*
X148694285Y-112090041D01*
X145196493Y-112093569D01*
X145302327Y-111957750D01*
X146004355Y-111049346D01*
X146600549Y-110278527D01*
X149272841Y-110273235D01*
X150720800Y-110269211D01*
X151196289Y-110266723D01*
X151537894Y-110263533D01*
X151665939Y-110261584D01*
X151769450Y-110259351D01*
X151851406Y-110256797D01*
X151914788Y-110253887D01*
X151962574Y-110250584D01*
X151997742Y-110246852D01*
X152023274Y-110242655D01*
X152042146Y-110237956D01*
X152107842Y-110217433D01*
X152168774Y-110196801D01*
X152225096Y-110175952D01*
X152276964Y-110154777D01*
X152324532Y-110133169D01*
X152346752Y-110122168D01*
X152367956Y-110111018D01*
X152388162Y-110099705D01*
X152407390Y-110088215D01*
X152425659Y-110076536D01*
X152442990Y-110064654D01*
X152459400Y-110052554D01*
X152474910Y-110040224D01*
X152489539Y-110027649D01*
X152503307Y-110014817D01*
X152516231Y-110001714D01*
X152528333Y-109988325D01*
X152539632Y-109974638D01*
X152550146Y-109960640D01*
X152559895Y-109946315D01*
X152568899Y-109931652D01*
X152577177Y-109916636D01*
X152584748Y-109901253D01*
X152591632Y-109885491D01*
X152597848Y-109869335D01*
X152603416Y-109852773D01*
X152608354Y-109835790D01*
X152613090Y-109815028D01*
X152616392Y-109794424D01*
X152618272Y-109773991D01*
X152618745Y-109753741D01*
X152617822Y-109733688D01*
X152615517Y-109713844D01*
X152611842Y-109694222D01*
X152606811Y-109674835D01*
X152600437Y-109655696D01*
X152592731Y-109636818D01*
X152583708Y-109618214D01*
X152573380Y-109599897D01*
X152561760Y-109581880D01*
X152548861Y-109564175D01*
X152534696Y-109546796D01*
X152519278Y-109529755D01*
X152502620Y-109513066D01*
X152484734Y-109496741D01*
X152445333Y-109465235D01*
X152401177Y-109435342D01*
X152352370Y-109407165D01*
X152299016Y-109380807D01*
X152241217Y-109356371D01*
X152179078Y-109333961D01*
X152112701Y-109313680D01*
X152066585Y-109303682D01*
X151994796Y-109295875D01*
X151689368Y-109285016D01*
X149837285Y-109269582D01*
X148877536Y-109263629D01*
X148175922Y-109256352D01*
X147728639Y-109247753D01*
X147599183Y-109242958D01*
X147531883Y-109237831D01*
X147391558Y-109216619D01*
X147255621Y-109191990D01*
X147123993Y-109163921D01*
X146996598Y-109132383D01*
X146873357Y-109097353D01*
X146754194Y-109058803D01*
X146639031Y-109016708D01*
X146527789Y-108971043D01*
X146420393Y-108921781D01*
X146316763Y-108868896D01*
X146216823Y-108812363D01*
X146120496Y-108752156D01*
X146027703Y-108688249D01*
X145938367Y-108620615D01*
X145852411Y-108549230D01*
X145769757Y-108474068D01*
X145693153Y-108396886D01*
X145622100Y-108317485D01*
X145556607Y-108235877D01*
X145496685Y-108152076D01*
X145442343Y-108066093D01*
X145393594Y-107977943D01*
X145350446Y-107887638D01*
X145312910Y-107795191D01*
X145280996Y-107700615D01*
X145254715Y-107603923D01*
X145234077Y-107505128D01*
X145219093Y-107404242D01*
X145209772Y-107301278D01*
X145206126Y-107196250D01*
X145208164Y-107089171D01*
X145215896Y-106980052D01*
X145225463Y-106894980D01*
X145237690Y-106812925D01*
X145252677Y-106733681D01*
X145270522Y-106657041D01*
X145291322Y-106582799D01*
X145315177Y-106510749D01*
X145342184Y-106440682D01*
X145372441Y-106372394D01*
X145406047Y-106305676D01*
X145443100Y-106240322D01*
X145483698Y-106176126D01*
X145527939Y-106112881D01*
X145575921Y-106050380D01*
X145627743Y-105988417D01*
X145683503Y-105926784D01*
X145743298Y-105865276D01*
X145821899Y-105790906D01*
X145905359Y-105719362D01*
X145993372Y-105650785D01*
X146085631Y-105585314D01*
X146181827Y-105523087D01*
X146281653Y-105464246D01*
X146384802Y-105408929D01*
X146490967Y-105357276D01*
X146599839Y-105309426D01*
X146711112Y-105265519D01*
X146824477Y-105225695D01*
X146939628Y-105190092D01*
X147056257Y-105158851D01*
X147174057Y-105132111D01*
X147292719Y-105110012D01*
X147411937Y-105092693D01*
X147477366Y-105084590D01*
X147537173Y-105076818D01*
X147614784Y-105066234D01*
X151055691Y-105058296D01*
X154441034Y-105066234D01*
G37*
G36*
X146326705Y-80284697D02*
G01*
X147214217Y-80296576D01*
X147493332Y-80304634D01*
X147600674Y-80313580D01*
X147629913Y-80385266D01*
X147668887Y-80525909D01*
X147717907Y-80736997D01*
X147777284Y-81020019D01*
X147928344Y-81807816D01*
X148124548Y-82901206D01*
X148167974Y-83144853D01*
X148186433Y-83245995D01*
X148203070Y-83334654D01*
X148218146Y-83411810D01*
X148231923Y-83478442D01*
X148244661Y-83535529D01*
X148250722Y-83560799D01*
X148256621Y-83584051D01*
X148262391Y-83605406D01*
X148268064Y-83624987D01*
X148273674Y-83642916D01*
X148279252Y-83659316D01*
X148284831Y-83674309D01*
X148290444Y-83688018D01*
X148296124Y-83700564D01*
X148301903Y-83712071D01*
X148307814Y-83722661D01*
X148313889Y-83732456D01*
X148320161Y-83741578D01*
X148326663Y-83750150D01*
X148333427Y-83758295D01*
X148340485Y-83766134D01*
X148355618Y-83781388D01*
X148379717Y-83803701D01*
X148409831Y-83825291D01*
X148458093Y-83851553D01*
X148536637Y-83887882D01*
X148833108Y-84012318D01*
X149396312Y-84241762D01*
X149908502Y-84450121D01*
X150108455Y-84532721D01*
X150234160Y-84585720D01*
X150299209Y-84613308D01*
X150358999Y-84637913D01*
X150413897Y-84659615D01*
X150464264Y-84678489D01*
X150510467Y-84694615D01*
X150552869Y-84708069D01*
X150591834Y-84718928D01*
X150627727Y-84727272D01*
X150660913Y-84733176D01*
X150676604Y-84735237D01*
X150691754Y-84736718D01*
X150706410Y-84737628D01*
X150720617Y-84737976D01*
X150734420Y-84737773D01*
X150747865Y-84737028D01*
X150760997Y-84735751D01*
X150773862Y-84733951D01*
X150786505Y-84731638D01*
X150798973Y-84728822D01*
X150823562Y-84721719D01*
X150847993Y-84712720D01*
X150969150Y-84634861D01*
X151256333Y-84441743D01*
X152156799Y-83825485D01*
X152551411Y-83554593D01*
X152875557Y-83333166D01*
X153135499Y-83157091D01*
X153337503Y-83022253D01*
X153487829Y-82924540D01*
X153545571Y-82888320D01*
X153592742Y-82859838D01*
X153630126Y-82838580D01*
X153658505Y-82824033D01*
X153678663Y-82815681D01*
X153685903Y-82813669D01*
X153691382Y-82813012D01*
X153707206Y-82823322D01*
X153742401Y-82853244D01*
X153864712Y-82965864D01*
X154273686Y-83359817D01*
X154819250Y-83897968D01*
X155402353Y-84483414D01*
X155632076Y-84716837D01*
X155725694Y-84812266D01*
X155806422Y-84894924D01*
X155875213Y-84965872D01*
X155933019Y-85026172D01*
X155958102Y-85052661D01*
X155980796Y-85076886D01*
X156001220Y-85098980D01*
X156019495Y-85119076D01*
X156035739Y-85137306D01*
X156050071Y-85153804D01*
X156062610Y-85168701D01*
X156073476Y-85182132D01*
X156082788Y-85194227D01*
X156090665Y-85205121D01*
X156097226Y-85214946D01*
X156102591Y-85223834D01*
X156106878Y-85231919D01*
X156110207Y-85239333D01*
X156112696Y-85246209D01*
X156114466Y-85252680D01*
X156115635Y-85258878D01*
X156116323Y-85264936D01*
X156116648Y-85270987D01*
X156116730Y-85277164D01*
X156116216Y-85284387D01*
X156115348Y-85292122D01*
X156114144Y-85300302D01*
X156112623Y-85308859D01*
X156110802Y-85317725D01*
X156108699Y-85326835D01*
X156106333Y-85336120D01*
X156103721Y-85345514D01*
X156100882Y-85354950D01*
X156097833Y-85364359D01*
X156094593Y-85373676D01*
X156091180Y-85382832D01*
X156087613Y-85391761D01*
X156083908Y-85400395D01*
X156080084Y-85408668D01*
X156076160Y-85416512D01*
X155995875Y-85539102D01*
X155805623Y-85820442D01*
X155208325Y-86690039D01*
X154326382Y-87974150D01*
X154319101Y-87986117D01*
X154312450Y-87997622D01*
X154306399Y-88008780D01*
X154300916Y-88019708D01*
X154295970Y-88030523D01*
X154291531Y-88041340D01*
X154287568Y-88052276D01*
X154284049Y-88063447D01*
X154280943Y-88074970D01*
X154278220Y-88086960D01*
X154275848Y-88099534D01*
X154273797Y-88112809D01*
X154272035Y-88126900D01*
X154270532Y-88141924D01*
X154269256Y-88157996D01*
X154268176Y-88175234D01*
X154266006Y-88226091D01*
X154266122Y-88249114D01*
X154267349Y-88271532D01*
X154269920Y-88294095D01*
X154274067Y-88317551D01*
X154280023Y-88342652D01*
X154288020Y-88370144D01*
X154298291Y-88400779D01*
X154311068Y-88435305D01*
X154345071Y-88519028D01*
X154391889Y-88627307D01*
X154453384Y-88766137D01*
X154527218Y-88932715D01*
X154616763Y-89139641D01*
X154710607Y-89360458D01*
X154797342Y-89568707D01*
X154912087Y-89842802D01*
X155007878Y-90067804D01*
X155049408Y-90163453D01*
X155087090Y-90248696D01*
X155121223Y-90324157D01*
X155152103Y-90390458D01*
X155180026Y-90448222D01*
X155205291Y-90498072D01*
X155228195Y-90540631D01*
X155249034Y-90576520D01*
X155268105Y-90606364D01*
X155285707Y-90630784D01*
X155302135Y-90650403D01*
X155317688Y-90665844D01*
X155347771Y-90679498D01*
X155426057Y-90700324D01*
X155798348Y-90777632D01*
X157903549Y-91173845D01*
X158021512Y-91195742D01*
X158134205Y-91217390D01*
X158239001Y-91238212D01*
X158333276Y-91257629D01*
X158414404Y-91275061D01*
X158479761Y-91289930D01*
X158526721Y-91301657D01*
X158542481Y-91306162D01*
X158552658Y-91309664D01*
X158560009Y-91312530D01*
X158567476Y-91315810D01*
X158575011Y-91319462D01*
X158582563Y-91323445D01*
X158590084Y-91327717D01*
X158597525Y-91332237D01*
X158604837Y-91336963D01*
X158611971Y-91341855D01*
X158618877Y-91346872D01*
X158625506Y-91351970D01*
X158631810Y-91357110D01*
X158637740Y-91362250D01*
X158643245Y-91367349D01*
X158648278Y-91372365D01*
X158652789Y-91377256D01*
X158656729Y-91381983D01*
X158668374Y-91400586D01*
X158677124Y-91437215D01*
X158683394Y-91510720D01*
X158687598Y-91639952D01*
X158691456Y-92141007D01*
X158692007Y-93091191D01*
X158692007Y-94758068D01*
X158639090Y-94807457D01*
X158632772Y-94813076D01*
X158625751Y-94818678D01*
X158618069Y-94824243D01*
X158609766Y-94829753D01*
X158600885Y-94835192D01*
X158591466Y-94840540D01*
X158581550Y-94845779D01*
X158571181Y-94850892D01*
X158560397Y-94855860D01*
X158549242Y-94860666D01*
X158537756Y-94865290D01*
X158525980Y-94869716D01*
X158513957Y-94873924D01*
X158501727Y-94877898D01*
X158489332Y-94881618D01*
X158476813Y-94885066D01*
X158352652Y-94910726D01*
X158097357Y-94959371D01*
X157340869Y-95098499D01*
X156856092Y-95186063D01*
X156456416Y-95259260D01*
X156134338Y-95319601D01*
X155882353Y-95368594D01*
X155692959Y-95407747D01*
X155619389Y-95424106D01*
X155558652Y-95438570D01*
X155509812Y-95451330D01*
X155471929Y-95462573D01*
X155444067Y-95472487D01*
X155425287Y-95481262D01*
X155406695Y-95493181D01*
X155388255Y-95508568D01*
X155369417Y-95528616D01*
X155349631Y-95554518D01*
X155328347Y-95587470D01*
X155305013Y-95628664D01*
X155249998Y-95740553D01*
X155180183Y-95899737D01*
X155091165Y-96115766D01*
X154837909Y-96756554D01*
X154638811Y-97260585D01*
X154551912Y-97476386D01*
X154488660Y-97629679D01*
X154458421Y-97702248D01*
X154431791Y-97767551D01*
X154408661Y-97826178D01*
X154388917Y-97878718D01*
X154372450Y-97925759D01*
X154359148Y-97967890D01*
X154353650Y-97987300D01*
X154348901Y-98005702D01*
X154344887Y-98023172D01*
X154341596Y-98039783D01*
X154339012Y-98055608D01*
X154337123Y-98070721D01*
X154335913Y-98085197D01*
X154335371Y-98099107D01*
X154335480Y-98112527D01*
X154336228Y-98125529D01*
X154337601Y-98138188D01*
X154339584Y-98150577D01*
X154342164Y-98162769D01*
X154345328Y-98174839D01*
X154349060Y-98186860D01*
X154353348Y-98198905D01*
X154363533Y-98223364D01*
X154375772Y-98248804D01*
X154394716Y-98280457D01*
X154434062Y-98341297D01*
X154564286Y-98536317D01*
X154747097Y-98805420D01*
X154963147Y-99120165D01*
X155439176Y-99810727D01*
X155813342Y-100358414D01*
X155872974Y-100445521D01*
X155925111Y-100522221D01*
X155970111Y-100589392D01*
X156008334Y-100647912D01*
X156025016Y-100674203D01*
X156040139Y-100698660D01*
X156053746Y-100721394D01*
X156065884Y-100742514D01*
X156076597Y-100762131D01*
X156085930Y-100780353D01*
X156093927Y-100797292D01*
X156100635Y-100813056D01*
X156106097Y-100827756D01*
X156110358Y-100841501D01*
X156113464Y-100854401D01*
X156115459Y-100866565D01*
X156116388Y-100878105D01*
X156116296Y-100889129D01*
X156115228Y-100899748D01*
X156113229Y-100910070D01*
X156110344Y-100920207D01*
X156106618Y-100930268D01*
X156102095Y-100940362D01*
X156096820Y-100950599D01*
X156090839Y-100961090D01*
X156084196Y-100971944D01*
X156069104Y-100995180D01*
X155958971Y-101114524D01*
X155703979Y-101377116D01*
X154949917Y-102140384D01*
X154187917Y-102901667D01*
X153923003Y-103161778D01*
X153798979Y-103277651D01*
X153784525Y-103287636D01*
X153770248Y-103296427D01*
X153756114Y-103304029D01*
X153742095Y-103310448D01*
X153728158Y-103315689D01*
X153714272Y-103319757D01*
X153700407Y-103322657D01*
X153686532Y-103324394D01*
X153672616Y-103324974D01*
X153658627Y-103324401D01*
X153644535Y-103322681D01*
X153630308Y-103319819D01*
X153615916Y-103315821D01*
X153601328Y-103310690D01*
X153586512Y-103304433D01*
X153571438Y-103297055D01*
X153524275Y-103269749D01*
X153446808Y-103220822D01*
X153212045Y-103065544D01*
X152889309Y-102846105D01*
X152500757Y-102577387D01*
X152065490Y-102275542D01*
X151725308Y-102042488D01*
X151452264Y-101859043D01*
X151218411Y-101706026D01*
X150966174Y-101545513D01*
X150839174Y-101605483D01*
X150764870Y-101641257D01*
X150657493Y-101695883D01*
X150531595Y-101761753D01*
X150401729Y-101831261D01*
X150244736Y-101915584D01*
X150078773Y-102002800D01*
X149912891Y-102088363D01*
X149756147Y-102167724D01*
X149617592Y-102236337D01*
X149506281Y-102289653D01*
X149431267Y-102323125D01*
X149410201Y-102330998D01*
X149404274Y-102332471D01*
X149401605Y-102332205D01*
X148873981Y-100230532D01*
X148355618Y-98112984D01*
X148355680Y-98111641D01*
X148355862Y-98110259D01*
X148356163Y-98108842D01*
X148356579Y-98107392D01*
X148357746Y-98104407D01*
X148359339Y-98101326D01*
X148361335Y-98098172D01*
X148363711Y-98094969D01*
X148366444Y-98091741D01*
X148369510Y-98088510D01*
X148372885Y-98085299D01*
X148376548Y-98082133D01*
X148380474Y-98079034D01*
X148384641Y-98076025D01*
X148389024Y-98073130D01*
X148393601Y-98070372D01*
X148398349Y-98067774D01*
X148403244Y-98065360D01*
X148411083Y-98062004D01*
X148418168Y-98059269D01*
X148424654Y-98057236D01*
X148427720Y-98056509D01*
X148430695Y-98055989D01*
X148433597Y-98055686D01*
X148436446Y-98055610D01*
X148439262Y-98055772D01*
X148442063Y-98056182D01*
X148444870Y-98056850D01*
X148447701Y-98057787D01*
X148450576Y-98059003D01*
X148453515Y-98060509D01*
X148456536Y-98062314D01*
X148459659Y-98064429D01*
X148462903Y-98066865D01*
X148466289Y-98069631D01*
X148473559Y-98076198D01*
X148481626Y-98084211D01*
X148490643Y-98093754D01*
X148500767Y-98104909D01*
X148524951Y-98132387D01*
X149355745Y-99128984D01*
X149884277Y-99762662D01*
X150263485Y-100213776D01*
X150397144Y-100370872D01*
X150493535Y-100482328D01*
X150552677Y-100548143D01*
X150568286Y-100563935D01*
X150572601Y-100567552D01*
X150574591Y-100568317D01*
X150380122Y-100129328D01*
X149907840Y-99083121D01*
X149433134Y-98032066D01*
X149287476Y-97706711D01*
X149232272Y-97580290D01*
X149232168Y-97579102D01*
X149232185Y-97577856D01*
X149232321Y-97576553D01*
X149232571Y-97575199D01*
X149232935Y-97573795D01*
X149233407Y-97572345D01*
X149234669Y-97569321D01*
X149236335Y-97566152D01*
X149238380Y-97562865D01*
X149240781Y-97559484D01*
X149243516Y-97556037D01*
X149246561Y-97552548D01*
X149249893Y-97549043D01*
X149253488Y-97545549D01*
X149257324Y-97542091D01*
X149261376Y-97538695D01*
X149265623Y-97535386D01*
X149270039Y-97532192D01*
X149274603Y-97529137D01*
X149290075Y-97521103D01*
X149298048Y-97519230D01*
X149307098Y-97519435D01*
X149317915Y-97522203D01*
X149331190Y-97528020D01*
X149347611Y-97537372D01*
X149367870Y-97550744D01*
X149392655Y-97568622D01*
X149422658Y-97591493D01*
X149501071Y-97654152D01*
X149750854Y-97860747D01*
X150438413Y-98429492D01*
X151109270Y-98976407D01*
X151620384Y-99385739D01*
X151771338Y-99502638D01*
X151812841Y-99532815D01*
X151828715Y-99541733D01*
X151762983Y-99443039D01*
X151579346Y-99176829D01*
X150971466Y-98305248D01*
X150345065Y-97410295D01*
X150050716Y-96987622D01*
X149992508Y-96902956D01*
X150036604Y-96858859D01*
X150080702Y-96814762D01*
X150491687Y-97044068D01*
X151007460Y-97327254D01*
X151536792Y-97613583D01*
X152037020Y-97879737D01*
X152465478Y-98102400D01*
X152932910Y-98342288D01*
X152717715Y-98112984D01*
X152293500Y-97674878D01*
X151578244Y-96941762D01*
X151220422Y-96575231D01*
X150928911Y-96274350D01*
X150733643Y-96070373D01*
X150681454Y-96014490D01*
X150668357Y-95999784D01*
X150664549Y-95994553D01*
X150785348Y-96032725D01*
X151107065Y-96141176D01*
X152156799Y-96500789D01*
X153203005Y-96859520D01*
X153522793Y-96967365D01*
X153610516Y-96996101D01*
X153641994Y-97005261D01*
X153565861Y-96942003D01*
X153348444Y-96781303D01*
X152635034Y-96270602D01*
X151792309Y-95679203D01*
X151110814Y-95213150D01*
X151104278Y-95208711D01*
X151098549Y-95204593D01*
X151093605Y-95200701D01*
X151089425Y-95196944D01*
X151087616Y-95195087D01*
X151085990Y-95193229D01*
X151084546Y-95191358D01*
X151083279Y-95189462D01*
X151082188Y-95187530D01*
X151081270Y-95185550D01*
X151080523Y-95183511D01*
X151079944Y-95181401D01*
X151079530Y-95179208D01*
X151079279Y-95176920D01*
X151079188Y-95174527D01*
X151079255Y-95172016D01*
X151079477Y-95169376D01*
X151079851Y-95166595D01*
X151081046Y-95160565D01*
X151082820Y-95153831D01*
X151085153Y-95146302D01*
X151088023Y-95137884D01*
X151091409Y-95128484D01*
X151094606Y-95118821D01*
X151097635Y-95110301D01*
X151100575Y-95102865D01*
X151103509Y-95096458D01*
X151104997Y-95093623D01*
X151106514Y-95091023D01*
X151108069Y-95088652D01*
X151109672Y-95086502D01*
X151111333Y-95084567D01*
X151113062Y-95082839D01*
X151114870Y-95081311D01*
X151116765Y-95079977D01*
X151118759Y-95078828D01*
X151120861Y-95077859D01*
X151123082Y-95077061D01*
X151125430Y-95076428D01*
X151127917Y-95075953D01*
X151130552Y-95075628D01*
X151133345Y-95075446D01*
X151136306Y-95075401D01*
X151142774Y-95075691D01*
X151150035Y-95076441D01*
X151158170Y-95077595D01*
X151167258Y-95079094D01*
X152772176Y-95318322D01*
X154232898Y-95527123D01*
X154163234Y-95485213D01*
X153949434Y-95379369D01*
X153227259Y-95039628D01*
X152342035Y-94635394D01*
X151569424Y-94294164D01*
X151385980Y-94216554D01*
X151396564Y-94156581D01*
X151398620Y-94144806D01*
X151400780Y-94133485D01*
X151402982Y-94122908D01*
X151405162Y-94113365D01*
X151407260Y-94105145D01*
X151408259Y-94101622D01*
X151409214Y-94098537D01*
X151410117Y-94095929D01*
X151410960Y-94093831D01*
X151411737Y-94092282D01*
X151412098Y-94091724D01*
X151412439Y-94091316D01*
X151894641Y-94068828D01*
X153047563Y-94022525D01*
X154199823Y-93977105D01*
X154682687Y-93955498D01*
X154681776Y-93954552D01*
X154678460Y-93953059D01*
X154665076Y-93948553D01*
X154614558Y-93934332D01*
X154538574Y-93914818D01*
X154444565Y-93891997D01*
X152670532Y-93469987D01*
X151481230Y-93193498D01*
X151475253Y-93191816D01*
X151469875Y-93190043D01*
X151465076Y-93188130D01*
X151460835Y-93186029D01*
X151458917Y-93184893D01*
X151457131Y-93183691D01*
X151455475Y-93182417D01*
X151453945Y-93181065D01*
X151452539Y-93179629D01*
X151451254Y-93178103D01*
X151450088Y-93176481D01*
X151449039Y-93174757D01*
X151448103Y-93172924D01*
X151447278Y-93170976D01*
X151446562Y-93168908D01*
X151445952Y-93166712D01*
X151445445Y-93164384D01*
X151445039Y-93161916D01*
X151444519Y-93156539D01*
X151444371Y-93150531D01*
X151444575Y-93143844D01*
X151445109Y-93136427D01*
X151445953Y-93128234D01*
X151451243Y-93071790D01*
X153065201Y-92711955D01*
X154207099Y-92455751D01*
X154556211Y-92376101D01*
X154686215Y-92345068D01*
X154686535Y-92344727D01*
X154686835Y-92344367D01*
X154687114Y-92343988D01*
X154687373Y-92343593D01*
X154687610Y-92343182D01*
X154687827Y-92342757D01*
X154688024Y-92342320D01*
X154688199Y-92341870D01*
X154688355Y-92341410D01*
X154688489Y-92340942D01*
X154688603Y-92340465D01*
X154688696Y-92339982D01*
X154688820Y-92339002D01*
X154688861Y-92338011D01*
X154688820Y-92337021D01*
X154688696Y-92336040D01*
X154688603Y-92335558D01*
X154688489Y-92335081D01*
X154688355Y-92334612D01*
X154688199Y-92334153D01*
X154688024Y-92333703D01*
X154687827Y-92333265D01*
X154687610Y-92332841D01*
X154687373Y-92332430D01*
X154687114Y-92332035D01*
X154686835Y-92331657D01*
X154686535Y-92331297D01*
X154686215Y-92330956D01*
X154475045Y-92316872D01*
X153944059Y-92289725D01*
X152474298Y-92223359D01*
X151964975Y-92202192D01*
X151606467Y-92186318D01*
X151355992Y-92175733D01*
X151345410Y-92122817D01*
X151344149Y-92117551D01*
X151343012Y-92112357D01*
X151341999Y-92107267D01*
X151341111Y-92102312D01*
X151340346Y-92097521D01*
X151339705Y-92092927D01*
X151339188Y-92088561D01*
X151338796Y-92084452D01*
X151338527Y-92080633D01*
X151338382Y-92077135D01*
X151338362Y-92073988D01*
X151338465Y-92071223D01*
X151338693Y-92068872D01*
X151339044Y-92066965D01*
X151339267Y-92066188D01*
X151339520Y-92065534D01*
X151339804Y-92065006D01*
X151340120Y-92064609D01*
X151776681Y-91874770D01*
X152816493Y-91429609D01*
X153862259Y-90982022D01*
X154314035Y-90785790D01*
X154317899Y-90783288D01*
X154320884Y-90781070D01*
X154322980Y-90779131D01*
X154324177Y-90777466D01*
X154324436Y-90776735D01*
X154324465Y-90776070D01*
X154324265Y-90775471D01*
X154323833Y-90774937D01*
X154323169Y-90774468D01*
X154322271Y-90774063D01*
X154319768Y-90773442D01*
X154316314Y-90773069D01*
X154311899Y-90772939D01*
X154306512Y-90773047D01*
X154300144Y-90773387D01*
X154284420Y-90774745D01*
X154264645Y-90776970D01*
X153876590Y-90821067D01*
X153223400Y-90901903D01*
X152343330Y-91016638D01*
X151545942Y-91124429D01*
X151140799Y-91184429D01*
X151133555Y-91185600D01*
X151126998Y-91186441D01*
X151121071Y-91186909D01*
X151118326Y-91186991D01*
X151115718Y-91186964D01*
X151113239Y-91186824D01*
X151110882Y-91186564D01*
X151108640Y-91186181D01*
X151106506Y-91185669D01*
X151104473Y-91185022D01*
X151102533Y-91184235D01*
X151100680Y-91183304D01*
X151098906Y-91182223D01*
X151097205Y-91180987D01*
X151095569Y-91179591D01*
X151093991Y-91178030D01*
X151092464Y-91176298D01*
X151090981Y-91174390D01*
X151089535Y-91172301D01*
X151088118Y-91170027D01*
X151086724Y-91167561D01*
X151083976Y-91162035D01*
X151081233Y-91155682D01*
X151078439Y-91148461D01*
X151075535Y-91140331D01*
X151056131Y-91085651D01*
X152421382Y-90173719D01*
X152950080Y-89818268D01*
X153382040Y-89526151D01*
X153672779Y-89327631D01*
X153751289Y-89272927D01*
X153777814Y-89252970D01*
X153738095Y-89261393D01*
X153628737Y-89293567D01*
X153220204Y-89422965D01*
X151777562Y-89898553D01*
X150657493Y-90272499D01*
X150618689Y-90224872D01*
X150578117Y-90177248D01*
X150971466Y-89780373D01*
X152121521Y-88617970D01*
X152339203Y-88398166D01*
X152430053Y-88306089D01*
X152509632Y-88225119D01*
X152578483Y-88154669D01*
X152637149Y-88094157D01*
X152686172Y-88042998D01*
X152726094Y-88000608D01*
X152757459Y-87966405D01*
X152770102Y-87952190D01*
X152780809Y-87939802D01*
X152789648Y-87929169D01*
X152796687Y-87920218D01*
X152801993Y-87912875D01*
X152805634Y-87907067D01*
X152807679Y-87902722D01*
X152808124Y-87901075D01*
X152808195Y-87899766D01*
X152807900Y-87898786D01*
X152807249Y-87898126D01*
X152806250Y-87897778D01*
X152804911Y-87897730D01*
X152803240Y-87897976D01*
X152801246Y-87898505D01*
X152796324Y-87900377D01*
X152790213Y-87903274D01*
X152782979Y-87907121D01*
X151382451Y-88704401D01*
X150080702Y-89446998D01*
X150038368Y-89408193D01*
X150034114Y-89404188D01*
X150029965Y-89400131D01*
X150025946Y-89396053D01*
X150022079Y-89391986D01*
X150018388Y-89387961D01*
X150014896Y-89384007D01*
X150011626Y-89380157D01*
X150008602Y-89376442D01*
X150005846Y-89372892D01*
X150003383Y-89369538D01*
X150001234Y-89366412D01*
X149999424Y-89363544D01*
X149997976Y-89360965D01*
X149996913Y-89358707D01*
X149996533Y-89357708D01*
X149996258Y-89356801D01*
X149996090Y-89355989D01*
X149996034Y-89355277D01*
X150066204Y-89250159D01*
X150257090Y-88973393D01*
X150883272Y-88072928D01*
X151447137Y-87268044D01*
X151611692Y-87032496D01*
X151670260Y-86948234D01*
X151715166Y-86883185D01*
X151748021Y-86835004D01*
X151770436Y-86801344D01*
X151784018Y-86779859D01*
X151788001Y-86772948D01*
X151790379Y-86768202D01*
X151791355Y-86765327D01*
X151791379Y-86764499D01*
X151791128Y-86764028D01*
X151790627Y-86763879D01*
X151789901Y-86764015D01*
X151787875Y-86764991D01*
X151775799Y-86772943D01*
X151676691Y-86844997D01*
X151475387Y-87001449D01*
X150866073Y-87487097D01*
X150147619Y-88068987D01*
X149519784Y-88586219D01*
X149478764Y-88620412D01*
X149439666Y-88652393D01*
X149403420Y-88681439D01*
X149370957Y-88706826D01*
X149343207Y-88727831D01*
X149321099Y-88743730D01*
X149312453Y-88749539D01*
X149305566Y-88753800D01*
X149300555Y-88756423D01*
X149298789Y-88757092D01*
X149297536Y-88757318D01*
X149295411Y-88757154D01*
X149293026Y-88756673D01*
X149290408Y-88755887D01*
X149287586Y-88754809D01*
X149284588Y-88753452D01*
X149281443Y-88751829D01*
X149278179Y-88749953D01*
X149274825Y-88747836D01*
X149271409Y-88745492D01*
X149267959Y-88742934D01*
X149264504Y-88740174D01*
X149261072Y-88737225D01*
X149257692Y-88734101D01*
X149254392Y-88730814D01*
X149251200Y-88727377D01*
X149248146Y-88723803D01*
X149243687Y-88717378D01*
X149241411Y-88708121D01*
X149246520Y-88673753D01*
X149269695Y-88605981D01*
X149317158Y-88490088D01*
X149509835Y-88055069D01*
X149874325Y-87250956D01*
X150127775Y-86690315D01*
X150334260Y-86230546D01*
X150472616Y-85918944D01*
X150509630Y-85833485D01*
X150521675Y-85802804D01*
X150476706Y-85845467D01*
X150359369Y-85974452D01*
X149957449Y-86433834D01*
X149415632Y-87065857D01*
X148833632Y-87755428D01*
X148754788Y-87850692D01*
X148680780Y-87939424D01*
X148554056Y-88089686D01*
X148467019Y-88190999D01*
X148442620Y-88218546D01*
X148435943Y-88225710D01*
X148433229Y-88228151D01*
X148431538Y-88227748D01*
X148427966Y-88226580D01*
X148422781Y-88224709D01*
X148416253Y-88222198D01*
X148408649Y-88219107D01*
X148400240Y-88215500D01*
X148391293Y-88211438D01*
X148382077Y-88206983D01*
X148376952Y-88204607D01*
X148372169Y-88202115D01*
X148367736Y-88199515D01*
X148365655Y-88198176D01*
X148363666Y-88196813D01*
X148361770Y-88195427D01*
X148359968Y-88194019D01*
X148358261Y-88192590D01*
X148356652Y-88191140D01*
X148355140Y-88189670D01*
X148353728Y-88188182D01*
X148352417Y-88186677D01*
X148351208Y-88185156D01*
X148350103Y-88183618D01*
X148349102Y-88182067D01*
X148348207Y-88180501D01*
X148347419Y-88178924D01*
X148346739Y-88177334D01*
X148346170Y-88175734D01*
X148345711Y-88174124D01*
X148345365Y-88172505D01*
X148345133Y-88170879D01*
X148345016Y-88169246D01*
X148345015Y-88167607D01*
X148345131Y-88165963D01*
X148345366Y-88164316D01*
X148345722Y-88162665D01*
X148346199Y-88161013D01*
X148346799Y-88159359D01*
X148478125Y-87621814D01*
X148709498Y-86619925D01*
X148935910Y-85613406D01*
X149052354Y-85061970D01*
X149058693Y-85028880D01*
X149059079Y-85012553D01*
X149041440Y-85034220D01*
X148993705Y-85115107D01*
X148759659Y-85539461D01*
X148260368Y-86455443D01*
X148016879Y-86902981D01*
X147917727Y-87084760D01*
X147832157Y-87241089D01*
X147759062Y-87373875D01*
X147726846Y-87432034D01*
X147697333Y-87485023D01*
X147670384Y-87533079D01*
X147645862Y-87576441D01*
X147623627Y-87615347D01*
X147603540Y-87650036D01*
X147585464Y-87680746D01*
X147569259Y-87707715D01*
X147554788Y-87731181D01*
X147541911Y-87751384D01*
X147530490Y-87768561D01*
X147525282Y-87776089D01*
X147520386Y-87782950D01*
X147515785Y-87789175D01*
X147511461Y-87794791D01*
X147507398Y-87799830D01*
X147503577Y-87804321D01*
X147499982Y-87808294D01*
X147496594Y-87811779D01*
X147493398Y-87814805D01*
X147490375Y-87817403D01*
X147487508Y-87819602D01*
X147484780Y-87821432D01*
X147482174Y-87822922D01*
X147479671Y-87824103D01*
X147477256Y-87825004D01*
X147474910Y-87825655D01*
X147472617Y-87826087D01*
X147470358Y-87826327D01*
X147468117Y-87826408D01*
X147465876Y-87826357D01*
X147461326Y-87825984D01*
X147451526Y-87824585D01*
X147442117Y-87823062D01*
X147433329Y-87821457D01*
X147425388Y-87819810D01*
X147421806Y-87818984D01*
X147418522Y-87818164D01*
X147415563Y-87817353D01*
X147412958Y-87816558D01*
X147410736Y-87815784D01*
X147408924Y-87815036D01*
X147407551Y-87814318D01*
X147407039Y-87813973D01*
X147406647Y-87813637D01*
X147478966Y-86312788D01*
X147567160Y-84659803D01*
X147568030Y-84651085D01*
X147568665Y-84642808D01*
X147569078Y-84635002D01*
X147569281Y-84627695D01*
X147569289Y-84620914D01*
X147569113Y-84614690D01*
X147568766Y-84609049D01*
X147568262Y-84604020D01*
X147567613Y-84599632D01*
X147567238Y-84597687D01*
X147566832Y-84595914D01*
X147566397Y-84594314D01*
X147565933Y-84592893D01*
X147565442Y-84591653D01*
X147564927Y-84590598D01*
X147564389Y-84589731D01*
X147563829Y-84589057D01*
X147563249Y-84588579D01*
X147562650Y-84588300D01*
X147562035Y-84588224D01*
X147561404Y-84588354D01*
X147560760Y-84588694D01*
X147560104Y-84589247D01*
X147418414Y-84970413D01*
X147118470Y-85827498D01*
X146788430Y-86790416D01*
X146556451Y-87489081D01*
X146503535Y-87658414D01*
X146445326Y-87647831D01*
X146388882Y-87635485D01*
X146365951Y-87460859D01*
X146273403Y-86775698D01*
X146142820Y-85861011D01*
X146016205Y-85003210D01*
X145935562Y-84488706D01*
X145914397Y-84374054D01*
X145902049Y-84444609D01*
X145690382Y-86067387D01*
X145547287Y-87167171D01*
X145501618Y-87504570D01*
X145488220Y-87597718D01*
X145482243Y-87631956D01*
X145480227Y-87633924D01*
X145477837Y-87635856D01*
X145475102Y-87637745D01*
X145472049Y-87639587D01*
X145465108Y-87643107D01*
X145457245Y-87646371D01*
X145448690Y-87649335D01*
X145439672Y-87651955D01*
X145430421Y-87654188D01*
X145421168Y-87655989D01*
X145412143Y-87657315D01*
X145403574Y-87658121D01*
X145395693Y-87658364D01*
X145388729Y-87658000D01*
X145385663Y-87657577D01*
X145382913Y-87656985D01*
X145380507Y-87656220D01*
X145378473Y-87655275D01*
X145376842Y-87654146D01*
X145375641Y-87652826D01*
X145374899Y-87651311D01*
X145374646Y-87649594D01*
X145295546Y-87402871D01*
X145103007Y-86833355D01*
X144646159Y-85511762D01*
X144557117Y-85261107D01*
X144485811Y-85061281D01*
X144430297Y-84907055D01*
X144388632Y-84793198D01*
X144372385Y-84749774D01*
X144358873Y-84714481D01*
X144347851Y-84686666D01*
X144339077Y-84665675D01*
X144332308Y-84650853D01*
X144327302Y-84641549D01*
X144325383Y-84638761D01*
X144323814Y-84637106D01*
X144322564Y-84636505D01*
X144321603Y-84636873D01*
X144324773Y-84764397D01*
X144340345Y-85106729D01*
X144397452Y-86226137D01*
X144426980Y-86780067D01*
X144438600Y-87001764D01*
X144448136Y-87190212D01*
X144452124Y-87272811D01*
X144455594Y-87348110D01*
X144458547Y-87416445D01*
X144460983Y-87478153D01*
X144462903Y-87533573D01*
X144464309Y-87583041D01*
X144465202Y-87626894D01*
X144465582Y-87665470D01*
X144465450Y-87699106D01*
X144464808Y-87728138D01*
X144464296Y-87741034D01*
X144463656Y-87752905D01*
X144462889Y-87763794D01*
X144461995Y-87773743D01*
X144460975Y-87782794D01*
X144459827Y-87790989D01*
X144458553Y-87798371D01*
X144457152Y-87804981D01*
X144455625Y-87810862D01*
X144453971Y-87816056D01*
X144452191Y-87820605D01*
X144450286Y-87824551D01*
X144448254Y-87827937D01*
X144446096Y-87830804D01*
X144443813Y-87833194D01*
X144441404Y-87835150D01*
X144438869Y-87836714D01*
X144436209Y-87837928D01*
X144433424Y-87838835D01*
X144430514Y-87839476D01*
X144427479Y-87839893D01*
X144424319Y-87840129D01*
X144417625Y-87840225D01*
X144402743Y-87840096D01*
X144397882Y-87837651D01*
X144390558Y-87830291D01*
X144368430Y-87800684D01*
X144336174Y-87750985D01*
X144293602Y-87680904D01*
X144176772Y-87478442D01*
X144016452Y-87190983D01*
X143591354Y-86422479D01*
X143176840Y-85679772D01*
X142861545Y-85120289D01*
X142734103Y-84901457D01*
X142846552Y-85379691D01*
X143125688Y-86520706D01*
X143406146Y-87668998D01*
X143491309Y-88023870D01*
X143522563Y-88161122D01*
X143522507Y-88162465D01*
X143522339Y-88163847D01*
X143522063Y-88165263D01*
X143521681Y-88166711D01*
X143520610Y-88169688D01*
X143519145Y-88172753D01*
X143517309Y-88175881D01*
X143515122Y-88179044D01*
X143512603Y-88182218D01*
X143509775Y-88185376D01*
X143506657Y-88188493D01*
X143503270Y-88191543D01*
X143499636Y-88194499D01*
X143495774Y-88197337D01*
X143491705Y-88200030D01*
X143487450Y-88202553D01*
X143483030Y-88204879D01*
X143478465Y-88206983D01*
X143470907Y-88210286D01*
X143463968Y-88212816D01*
X143457444Y-88214421D01*
X143451125Y-88214949D01*
X143447979Y-88214761D01*
X143444807Y-88214247D01*
X143441583Y-88213387D01*
X143438282Y-88212162D01*
X143434878Y-88210554D01*
X143431344Y-88208543D01*
X143423785Y-88203236D01*
X143415400Y-88196089D01*
X143405981Y-88186951D01*
X143395322Y-88175668D01*
X143383216Y-88162088D01*
X143353836Y-88127426D01*
X143316188Y-88081748D01*
X142814141Y-87477561D01*
X142215521Y-86764564D01*
X141679079Y-86131603D01*
X141363563Y-85767526D01*
X141315938Y-85714609D01*
X141340631Y-85776345D01*
X142014438Y-87265068D01*
X142663548Y-88692053D01*
X142621216Y-88723803D01*
X142616900Y-88727066D01*
X142612572Y-88730225D01*
X142608259Y-88733260D01*
X142603990Y-88736151D01*
X142599793Y-88738876D01*
X142595697Y-88741415D01*
X142591731Y-88743747D01*
X142587922Y-88745852D01*
X142584299Y-88747709D01*
X142580890Y-88749297D01*
X142577725Y-88750596D01*
X142574830Y-88751585D01*
X142572236Y-88752243D01*
X142571060Y-88752441D01*
X142569969Y-88752549D01*
X142568968Y-88752564D01*
X142568059Y-88752484D01*
X142567247Y-88752305D01*
X142566534Y-88752025D01*
X142557019Y-88745604D01*
X142534730Y-88728433D01*
X142457615Y-88666477D01*
X142346765Y-88575416D01*
X142213757Y-88464512D01*
X141621531Y-87975446D01*
X140980358Y-87451819D01*
X140429804Y-87007237D01*
X140109437Y-86755303D01*
X140040646Y-86702387D01*
X140075924Y-86755303D01*
X140998438Y-88074691D01*
X141622193Y-88973614D01*
X141812279Y-89250187D01*
X141864069Y-89326803D01*
X141882146Y-89355277D01*
X141882089Y-89355989D01*
X141881922Y-89356801D01*
X141881267Y-89358707D01*
X141880204Y-89360965D01*
X141878756Y-89363544D01*
X141876946Y-89366412D01*
X141874798Y-89369538D01*
X141872334Y-89372892D01*
X141869578Y-89376442D01*
X141866554Y-89380157D01*
X141863284Y-89384007D01*
X141859792Y-89387961D01*
X141856102Y-89391986D01*
X141852235Y-89396053D01*
X141848216Y-89400131D01*
X141844067Y-89404188D01*
X141839813Y-89408193D01*
X141799243Y-89446998D01*
X141703993Y-89390554D01*
X141171298Y-89092814D01*
X140401802Y-88676840D01*
X139642227Y-88275086D01*
X139343262Y-88120936D01*
X139139298Y-88020011D01*
X139017591Y-87961804D01*
X139059923Y-88009429D01*
X140167645Y-89161248D01*
X140579927Y-89590066D01*
X140915314Y-89941989D01*
X141139245Y-90180472D01*
X141198614Y-90245753D01*
X141213260Y-90262905D01*
X141217159Y-90268969D01*
X140753919Y-90114409D01*
X139659646Y-89736276D01*
X139029496Y-89519124D01*
X138551482Y-89357701D01*
X138378001Y-89300626D01*
X138252724Y-89260770D01*
X138179040Y-89239227D01*
X138162605Y-89235666D01*
X138159675Y-89235748D01*
X138160340Y-89237094D01*
X138400449Y-89412409D01*
X138886621Y-89754576D01*
X139525590Y-90198277D01*
X140224090Y-90678193D01*
X140339456Y-90757947D01*
X140447195Y-90833360D01*
X140544970Y-90902737D01*
X140630447Y-90964383D01*
X140701288Y-91016604D01*
X140755159Y-91057704D01*
X140775000Y-91073554D01*
X140789723Y-91085988D01*
X140799036Y-91094794D01*
X140801572Y-91097771D01*
X140802646Y-91099761D01*
X140802874Y-91103167D01*
X140802901Y-91106751D01*
X140802731Y-91110485D01*
X140802370Y-91114340D01*
X140801823Y-91118289D01*
X140801095Y-91122302D01*
X140800192Y-91126351D01*
X140799118Y-91130408D01*
X140797879Y-91134445D01*
X140796479Y-91138432D01*
X140794924Y-91142342D01*
X140793220Y-91146146D01*
X140791371Y-91149815D01*
X140789382Y-91153322D01*
X140787259Y-91156637D01*
X140785007Y-91159733D01*
X140770069Y-91167939D01*
X140731319Y-91170151D01*
X140654039Y-91164508D01*
X140523511Y-91149150D01*
X140043843Y-91081848D01*
X139174576Y-90953359D01*
X138050979Y-90786231D01*
X137578257Y-90716998D01*
X137676098Y-90769284D01*
X137966423Y-90907084D01*
X138891031Y-91332815D01*
X139885093Y-91781367D01*
X140481618Y-92039914D01*
X140488816Y-92042509D01*
X140495216Y-92045048D01*
X140500846Y-92047596D01*
X140505734Y-92050222D01*
X140507909Y-92051586D01*
X140509909Y-92052993D01*
X140511738Y-92054454D01*
X140513399Y-92055976D01*
X140514897Y-92057568D01*
X140516233Y-92059238D01*
X140517413Y-92060994D01*
X140518440Y-92062845D01*
X140519316Y-92064800D01*
X140520046Y-92066867D01*
X140520634Y-92069053D01*
X140521082Y-92071369D01*
X140521395Y-92073821D01*
X140521575Y-92076418D01*
X140521627Y-92079169D01*
X140521554Y-92082083D01*
X140521047Y-92088429D01*
X140520083Y-92095525D01*
X140518690Y-92103437D01*
X140516897Y-92112233D01*
X140514840Y-92123347D01*
X140512680Y-92134007D01*
X140510478Y-92143922D01*
X140508297Y-92152804D01*
X140507234Y-92156766D01*
X140506199Y-92160362D01*
X140505200Y-92163555D01*
X140504246Y-92166308D01*
X140503343Y-92168586D01*
X140502499Y-92170353D01*
X140502102Y-92171033D01*
X140501722Y-92171572D01*
X140501362Y-92171964D01*
X140501021Y-92172206D01*
X138936452Y-92232179D01*
X137810649Y-92274071D01*
X137450155Y-92289229D01*
X137296035Y-92297442D01*
X137271585Y-92301118D01*
X137262661Y-92302872D01*
X137256209Y-92304690D01*
X137252435Y-92306664D01*
X137251615Y-92307737D01*
X137251541Y-92308883D01*
X137252239Y-92310113D01*
X137253733Y-92311438D01*
X137259213Y-92314420D01*
X137268187Y-92317918D01*
X137280859Y-92322023D01*
X137318111Y-92332417D01*
X137372602Y-92346325D01*
X137445965Y-92364470D01*
X138809451Y-92691010D01*
X140088270Y-92992414D01*
X140418118Y-93068263D01*
X140418118Y-93124706D01*
X140417997Y-93130321D01*
X140417643Y-93135899D01*
X140417072Y-93141398D01*
X140416299Y-93146782D01*
X140415341Y-93152010D01*
X140414211Y-93157045D01*
X140412927Y-93161847D01*
X140411503Y-93166377D01*
X140409956Y-93170598D01*
X140408299Y-93174470D01*
X140406550Y-93177954D01*
X140405646Y-93179539D01*
X140404723Y-93181012D01*
X140403786Y-93182369D01*
X140402835Y-93183605D01*
X140401872Y-93184715D01*
X140400899Y-93185694D01*
X140399919Y-93186537D01*
X140398933Y-93187240D01*
X140397943Y-93187798D01*
X140396951Y-93188205D01*
X139913205Y-93300434D01*
X138781229Y-93556859D01*
X138078871Y-93716436D01*
X137808141Y-93779171D01*
X137590163Y-93830703D01*
X137424275Y-93871155D01*
X137309815Y-93900652D01*
X137246122Y-93919317D01*
X137233107Y-93924627D01*
X137231270Y-93926283D01*
X137232535Y-93927275D01*
X137294167Y-93937066D01*
X137415042Y-93948056D01*
X137847250Y-93974460D01*
X139562632Y-94050748D01*
X139730701Y-94057103D01*
X139881596Y-94061325D01*
X140017159Y-94062972D01*
X140139231Y-94061607D01*
X140249655Y-94056790D01*
X140350274Y-94048082D01*
X140442929Y-94035043D01*
X140486847Y-94026762D01*
X140529464Y-94017234D01*
X140571011Y-94006404D01*
X140611719Y-93994217D01*
X140651818Y-93980617D01*
X140691538Y-93965551D01*
X140770763Y-93930798D01*
X140851236Y-93889518D01*
X140934799Y-93841272D01*
X141023294Y-93785620D01*
X141118564Y-93722125D01*
X141222452Y-93650345D01*
X142030230Y-93084110D01*
X142694637Y-92610312D01*
X142951011Y-92424150D01*
X143145063Y-92280382D01*
X143267967Y-92185439D01*
X143299980Y-92158285D01*
X143310896Y-92145748D01*
X143310436Y-92132560D01*
X143308784Y-92120692D01*
X143305536Y-92110018D01*
X143300285Y-92100411D01*
X143292626Y-92091744D01*
X143282154Y-92083891D01*
X143268462Y-92076726D01*
X143251144Y-92070121D01*
X143229796Y-92063950D01*
X143204012Y-92058087D01*
X143173385Y-92052405D01*
X143137511Y-92046777D01*
X143048397Y-92035177D01*
X142933424Y-92022276D01*
X142803640Y-92007228D01*
X142696842Y-91994495D01*
X142655525Y-91989307D01*
X142624109Y-91985069D01*
X142603979Y-91981906D01*
X142598580Y-91980766D01*
X142596521Y-91979942D01*
X142596130Y-91979327D01*
X142595625Y-91978164D01*
X142594316Y-91974320D01*
X142592676Y-91968656D01*
X142590788Y-91961422D01*
X142588735Y-91952864D01*
X142586599Y-91943232D01*
X142584463Y-91932773D01*
X142582410Y-91921735D01*
X142571828Y-91868818D01*
X143443187Y-91524860D01*
X143645738Y-91445164D01*
X143820715Y-91375452D01*
X143967993Y-91315786D01*
X144087448Y-91266228D01*
X144178957Y-91226840D01*
X144214192Y-91210980D01*
X144242395Y-91197685D01*
X144263548Y-91186963D01*
X144277638Y-91178823D01*
X144282029Y-91175723D01*
X144284648Y-91173271D01*
X144285493Y-91171469D01*
X144284563Y-91170317D01*
X144271912Y-91166803D01*
X144246859Y-91161718D01*
X144165500Y-91147828D01*
X144052391Y-91130631D01*
X143919438Y-91112110D01*
X143750866Y-91088359D01*
X143593146Y-91064980D01*
X143448365Y-91042346D01*
X143318613Y-91020828D01*
X143205975Y-91000798D01*
X143112541Y-90982628D01*
X143040397Y-90966691D01*
X143012962Y-90959677D01*
X142991632Y-90953359D01*
X142984303Y-90950732D01*
X142976886Y-90947826D01*
X142969406Y-90944659D01*
X142961887Y-90941253D01*
X142946836Y-90933802D01*
X142931936Y-90925633D01*
X142917386Y-90916906D01*
X142903390Y-90907780D01*
X142890147Y-90898417D01*
X142877861Y-90888977D01*
X142866733Y-90879619D01*
X142856964Y-90870504D01*
X142852652Y-90866088D01*
X142848755Y-90861793D01*
X142845299Y-90857638D01*
X142842308Y-90853644D01*
X142839809Y-90849831D01*
X142837825Y-90846219D01*
X142836383Y-90842828D01*
X142835508Y-90839678D01*
X142835224Y-90836788D01*
X142835557Y-90834180D01*
X142836532Y-90831873D01*
X142838174Y-90829887D01*
X143286422Y-90725817D01*
X144349827Y-90489456D01*
X144932627Y-90361106D01*
X145409924Y-90253757D01*
X145732439Y-90179150D01*
X145820255Y-90157794D01*
X145850896Y-90149027D01*
X145850127Y-90146185D01*
X145847849Y-90143289D01*
X145838924Y-90137354D01*
X145824444Y-90131275D01*
X145804731Y-90125103D01*
X145750902Y-90112687D01*
X145680019Y-90100519D01*
X145594667Y-90089012D01*
X145497429Y-90078581D01*
X145390890Y-90069637D01*
X145277632Y-90062596D01*
X145163292Y-90056205D01*
X145058597Y-90049504D01*
X144962857Y-90042348D01*
X144875383Y-90034593D01*
X144795485Y-90026094D01*
X144722472Y-90016706D01*
X144655656Y-90006285D01*
X144594346Y-89994685D01*
X144537852Y-89981763D01*
X144485484Y-89967372D01*
X144436553Y-89951370D01*
X144390368Y-89933611D01*
X144346241Y-89913949D01*
X144303480Y-89892242D01*
X144261396Y-89868343D01*
X144219299Y-89842109D01*
X144201572Y-89830870D01*
X144186043Y-89820901D01*
X144172639Y-89812111D01*
X144161283Y-89804406D01*
X144156350Y-89800932D01*
X144151902Y-89797693D01*
X144147928Y-89794680D01*
X144144419Y-89791880D01*
X144141367Y-89789281D01*
X144138761Y-89786872D01*
X144136593Y-89784642D01*
X144134852Y-89782578D01*
X144133530Y-89780669D01*
X144132618Y-89778904D01*
X144132312Y-89778071D01*
X144132105Y-89777270D01*
X144131996Y-89776499D01*
X144131983Y-89775757D01*
X144132065Y-89775041D01*
X144132241Y-89774352D01*
X144132511Y-89773686D01*
X144132872Y-89773044D01*
X144133865Y-89771821D01*
X144135211Y-89770672D01*
X144136900Y-89769585D01*
X144138924Y-89768548D01*
X144141273Y-89767550D01*
X144143937Y-89766579D01*
X144146907Y-89765624D01*
X144150175Y-89764672D01*
X144157562Y-89762734D01*
X144173747Y-89759937D01*
X144202707Y-89756891D01*
X144292500Y-89750387D01*
X144414043Y-89743882D01*
X144554437Y-89738040D01*
X144682547Y-89733062D01*
X144796476Y-89726988D01*
X144901393Y-89719219D01*
X145002466Y-89709156D01*
X145104861Y-89696199D01*
X145213746Y-89679748D01*
X145334290Y-89659205D01*
X145471660Y-89633969D01*
X145601733Y-89610450D01*
X145722462Y-89591333D01*
X145836412Y-89576391D01*
X145946146Y-89565398D01*
X146054225Y-89558125D01*
X146163214Y-89554346D01*
X146275675Y-89553833D01*
X146394173Y-89556358D01*
X146471221Y-89559595D01*
X146545140Y-89564061D01*
X146616233Y-89569830D01*
X146684801Y-89576974D01*
X146751147Y-89585564D01*
X146815573Y-89595674D01*
X146878382Y-89607375D01*
X146939876Y-89620741D01*
X147000357Y-89635842D01*
X147060127Y-89652753D01*
X147119489Y-89671544D01*
X147178745Y-89692289D01*
X147238198Y-89715059D01*
X147298149Y-89739928D01*
X147358901Y-89766967D01*
X147420756Y-89796249D01*
X147473149Y-89821660D01*
X147518432Y-89843432D01*
X147567160Y-89866804D01*
X147567710Y-89866766D01*
X147567714Y-89866001D01*
X147566137Y-89862366D01*
X147556990Y-89847180D01*
X147540526Y-89822403D01*
X147517551Y-89789192D01*
X147455291Y-89702100D01*
X147376660Y-89595165D01*
X147170285Y-89318233D01*
X147265536Y-89330581D01*
X147330325Y-89340203D01*
X147403505Y-89353980D01*
X147481895Y-89371106D01*
X147562310Y-89390774D01*
X147641568Y-89412178D01*
X147716485Y-89434513D01*
X147783878Y-89456972D01*
X147813758Y-89467996D01*
X147840564Y-89478749D01*
X147877590Y-89494772D01*
X147914609Y-89511769D01*
X147951653Y-89529764D01*
X147988757Y-89548780D01*
X148025954Y-89568839D01*
X148063278Y-89589966D01*
X148100762Y-89612183D01*
X148138439Y-89635513D01*
X148214510Y-89685608D01*
X148291760Y-89740437D01*
X148370456Y-89800185D01*
X148450868Y-89865039D01*
X148495019Y-89901760D01*
X148534615Y-89933999D01*
X148570267Y-89961944D01*
X148602590Y-89985783D01*
X148632194Y-90005705D01*
X148646168Y-90014255D01*
X148659692Y-90021898D01*
X148672843Y-90028655D01*
X148685697Y-90034551D01*
X148698331Y-90039610D01*
X148710821Y-90043854D01*
X148723244Y-90047307D01*
X148735676Y-90049993D01*
X148748194Y-90051936D01*
X148760875Y-90053159D01*
X148773794Y-90053685D01*
X148787029Y-90053539D01*
X148800657Y-90052744D01*
X148814753Y-90051323D01*
X148844657Y-90046698D01*
X148877354Y-90039854D01*
X148913456Y-90030979D01*
X148953577Y-90020262D01*
X149029427Y-90002757D01*
X149130765Y-89983082D01*
X149246861Y-89962870D01*
X149366988Y-89943753D01*
X149480418Y-89927365D01*
X149576423Y-89915338D01*
X149644274Y-89909306D01*
X149664289Y-89909048D01*
X149670233Y-89909698D01*
X149673244Y-89910901D01*
X149673586Y-89911447D01*
X149673625Y-89912416D01*
X149672823Y-89915579D01*
X149670895Y-89920303D01*
X149667897Y-89926500D01*
X149658919Y-89942961D01*
X149646345Y-89964258D01*
X149630628Y-89989690D01*
X149612224Y-90018553D01*
X149591588Y-90050144D01*
X149569174Y-90083761D01*
X149546288Y-90118201D01*
X149523998Y-90153893D01*
X149502407Y-90190604D01*
X149481613Y-90228097D01*
X149461719Y-90266139D01*
X149442825Y-90304492D01*
X149425031Y-90342924D01*
X149408440Y-90381198D01*
X149393150Y-90419079D01*
X149379263Y-90456332D01*
X149366880Y-90492722D01*
X149356102Y-90528014D01*
X149347029Y-90561973D01*
X149339762Y-90594363D01*
X149334402Y-90624950D01*
X149331050Y-90653498D01*
X149330505Y-90681948D01*
X149332978Y-90720360D01*
X149338676Y-90769770D01*
X149347806Y-90831210D01*
X149360573Y-90905713D01*
X149377185Y-90994314D01*
X149422771Y-91217942D01*
X149526538Y-91703893D01*
X149647006Y-92252022D01*
X149763835Y-92771707D01*
X149856686Y-93172330D01*
X149927243Y-93466901D01*
X149899020Y-93576261D01*
X149893542Y-93596796D01*
X149887380Y-93617366D01*
X149873117Y-93658461D01*
X149856461Y-93699246D01*
X149837643Y-93739421D01*
X149816892Y-93778686D01*
X149794438Y-93816742D01*
X149770512Y-93853290D01*
X149745342Y-93888029D01*
X149719160Y-93920659D01*
X149692195Y-93950881D01*
X149664677Y-93978395D01*
X149636835Y-94002902D01*
X149622866Y-94013934D01*
X149608901Y-94024102D01*
X149594971Y-94033368D01*
X149581104Y-94041694D01*
X149567329Y-94049044D01*
X149553674Y-94055380D01*
X149540168Y-94060664D01*
X149526840Y-94064859D01*
X149503468Y-94070865D01*
X149480321Y-94075656D01*
X149457406Y-94079237D01*
X149434732Y-94081613D01*
X149412306Y-94082788D01*
X149390135Y-94082769D01*
X149368228Y-94081559D01*
X149346593Y-94079163D01*
X149325236Y-94075586D01*
X149304166Y-94070834D01*
X149283391Y-94064910D01*
X149262918Y-94057820D01*
X149242755Y-94049569D01*
X149222910Y-94040161D01*
X149203391Y-94029602D01*
X149184205Y-94017895D01*
X149165359Y-94005047D01*
X149146863Y-93991061D01*
X149128723Y-93975943D01*
X149110948Y-93959697D01*
X149093545Y-93942329D01*
X149076521Y-93923843D01*
X149059885Y-93904244D01*
X149043644Y-93883537D01*
X149027807Y-93861726D01*
X149012380Y-93838817D01*
X148997372Y-93814815D01*
X148982790Y-93789723D01*
X148954937Y-93736294D01*
X148928882Y-93678568D01*
X148902129Y-93617244D01*
X148874267Y-93559058D01*
X148844519Y-93503176D01*
X148812107Y-93448766D01*
X148776254Y-93394998D01*
X148736181Y-93341038D01*
X148691111Y-93286055D01*
X148640266Y-93229217D01*
X148582869Y-93169692D01*
X148518141Y-93106647D01*
X148445305Y-93039252D01*
X148363584Y-92966673D01*
X148170372Y-92802638D01*
X147932284Y-92607886D01*
X147572450Y-92315080D01*
X147464854Y-92373290D01*
X147386313Y-92417559D01*
X147310790Y-92463031D01*
X147238326Y-92509665D01*
X147168963Y-92557423D01*
X147102741Y-92606266D01*
X147039703Y-92656156D01*
X146979889Y-92707053D01*
X146923341Y-92758920D01*
X146870100Y-92811716D01*
X146820208Y-92865404D01*
X146773706Y-92919945D01*
X146730636Y-92975299D01*
X146691037Y-93031429D01*
X146654953Y-93088295D01*
X146622424Y-93145858D01*
X146593492Y-93204080D01*
X146566707Y-93265651D01*
X146542257Y-93333175D01*
X146518675Y-93413432D01*
X146494495Y-93513203D01*
X146468246Y-93639266D01*
X146438464Y-93798402D01*
X146362424Y-94243012D01*
X146283931Y-94705812D01*
X146258740Y-94852463D01*
X146247771Y-94913289D01*
X146247352Y-94914808D01*
X146247085Y-94916386D01*
X146246968Y-94918020D01*
X146246999Y-94919707D01*
X146247174Y-94921445D01*
X146247491Y-94923231D01*
X146247948Y-94925060D01*
X146248542Y-94926932D01*
X146250130Y-94930788D01*
X146252235Y-94934776D01*
X146254836Y-94938873D01*
X146257913Y-94943055D01*
X146261444Y-94947299D01*
X146265409Y-94951582D01*
X146269788Y-94955880D01*
X146274559Y-94960171D01*
X146279703Y-94964430D01*
X146285198Y-94968635D01*
X146291023Y-94972763D01*
X146297159Y-94976790D01*
X146329169Y-94996099D01*
X146362409Y-95013684D01*
X146396951Y-95029558D01*
X146432868Y-95043735D01*
X146470232Y-95056227D01*
X146509115Y-95067048D01*
X146549590Y-95076210D01*
X146591729Y-95083726D01*
X146635604Y-95089608D01*
X146681287Y-95093871D01*
X146728852Y-95096527D01*
X146778370Y-95097589D01*
X146829914Y-95097069D01*
X146883556Y-95094981D01*
X146939369Y-95091337D01*
X146997424Y-95086151D01*
X147045604Y-95081621D01*
X147097773Y-95077359D01*
X147207547Y-95070056D01*
X147313683Y-95065067D01*
X147361305Y-95063699D01*
X147403117Y-95063220D01*
X147461181Y-95063468D01*
X147485632Y-95063872D01*
X147507463Y-95064543D01*
X147526999Y-95065546D01*
X147544567Y-95066941D01*
X147560491Y-95068791D01*
X147575098Y-95071158D01*
X147588712Y-95074103D01*
X147601659Y-95077690D01*
X147614266Y-95081979D01*
X147626857Y-95087033D01*
X147639758Y-95092913D01*
X147653294Y-95099683D01*
X147667792Y-95107403D01*
X147683577Y-95116136D01*
X147716567Y-95135691D01*
X147747404Y-95156655D01*
X147776087Y-95179029D01*
X147802612Y-95202816D01*
X147826977Y-95228019D01*
X147849180Y-95254640D01*
X147869217Y-95282683D01*
X147887086Y-95312149D01*
X147902785Y-95343042D01*
X147916310Y-95375363D01*
X147927660Y-95409116D01*
X147936833Y-95444303D01*
X147943824Y-95480926D01*
X147948632Y-95518989D01*
X147951254Y-95558493D01*
X147951688Y-95599442D01*
X147949517Y-95638898D01*
X147942262Y-95688877D01*
X147928805Y-95753944D01*
X147908032Y-95838670D01*
X147878824Y-95947621D01*
X147840067Y-96085366D01*
X147729437Y-96465512D01*
X147640581Y-96760109D01*
X147562309Y-97009892D01*
X147529829Y-97109762D01*
X147503219Y-97188568D01*
X147483554Y-97243025D01*
X147476663Y-97260094D01*
X147471910Y-97269844D01*
X147456302Y-97290544D01*
X147428406Y-97322499D01*
X147342154Y-97413932D01*
X147225972Y-97531658D01*
X147092674Y-97663192D01*
X146955077Y-97796049D01*
X146825996Y-97917743D01*
X146718247Y-98015790D01*
X146676377Y-98052045D01*
X146644646Y-98077706D01*
X146617550Y-98097848D01*
X146591095Y-98116636D01*
X146565178Y-98134121D01*
X146539695Y-98150357D01*
X146514542Y-98165393D01*
X146489617Y-98179282D01*
X146464816Y-98192075D01*
X146440035Y-98203825D01*
X146415172Y-98214582D01*
X146390122Y-98224399D01*
X146364784Y-98233326D01*
X146339052Y-98241417D01*
X146312824Y-98248722D01*
X146285997Y-98255294D01*
X146258467Y-98261183D01*
X146230131Y-98266442D01*
X146184142Y-98273601D01*
X146142588Y-98278403D01*
X146105236Y-98280643D01*
X146088062Y-98280736D01*
X146071850Y-98280112D01*
X146056571Y-98278743D01*
X146042196Y-98276605D01*
X146028694Y-98273671D01*
X146016037Y-98269915D01*
X146004195Y-98265311D01*
X145993138Y-98259834D01*
X145982839Y-98253458D01*
X145973266Y-98246157D01*
X145964391Y-98237905D01*
X145956184Y-98228677D01*
X145948616Y-98218446D01*
X145941657Y-98207187D01*
X145935279Y-98194873D01*
X145929451Y-98181479D01*
X145924144Y-98166980D01*
X145919330Y-98151349D01*
X145914978Y-98134560D01*
X145911058Y-98116588D01*
X145904402Y-98076990D01*
X145899125Y-98032349D01*
X145894993Y-97982457D01*
X145891175Y-97918084D01*
X145889743Y-97859057D01*
X145889971Y-97831462D01*
X145890854Y-97805099D01*
X145892411Y-97779935D01*
X145894663Y-97755935D01*
X145897627Y-97733063D01*
X145901324Y-97711287D01*
X145905773Y-97690570D01*
X145910993Y-97670879D01*
X145917003Y-97652178D01*
X145923824Y-97634434D01*
X145931474Y-97617612D01*
X145939973Y-97601677D01*
X145949340Y-97586594D01*
X145959594Y-97572330D01*
X145970756Y-97558849D01*
X145982844Y-97546118D01*
X145995877Y-97534100D01*
X146009876Y-97522763D01*
X146024859Y-97512071D01*
X146040845Y-97501989D01*
X146057855Y-97492484D01*
X146075908Y-97483521D01*
X146095022Y-97475064D01*
X146115218Y-97467080D01*
X146136515Y-97459534D01*
X146158931Y-97452392D01*
X146207202Y-97439179D01*
X146282198Y-97419361D01*
X146351262Y-97398788D01*
X146414662Y-97377244D01*
X146472667Y-97354512D01*
X146499731Y-97342632D01*
X146525546Y-97330374D01*
X146550147Y-97317710D01*
X146573567Y-97304613D01*
X146595840Y-97291056D01*
X146616999Y-97277013D01*
X146637079Y-97262455D01*
X146656112Y-97247356D01*
X146674132Y-97231688D01*
X146691172Y-97215425D01*
X146707267Y-97198539D01*
X146722450Y-97181003D01*
X146736755Y-97162791D01*
X146750214Y-97143874D01*
X146762862Y-97124226D01*
X146774733Y-97103820D01*
X146785859Y-97082628D01*
X146796275Y-97060623D01*
X146806014Y-97037779D01*
X146815109Y-97014068D01*
X146831504Y-96963937D01*
X146845729Y-96910013D01*
X146848617Y-96898534D01*
X146851965Y-96886641D01*
X146855737Y-96874418D01*
X146859896Y-96861947D01*
X146864407Y-96849310D01*
X146869232Y-96836591D01*
X146874337Y-96823871D01*
X146879685Y-96811235D01*
X146885239Y-96798763D01*
X146890964Y-96786540D01*
X146896823Y-96774647D01*
X146902780Y-96763168D01*
X146908799Y-96752185D01*
X146914845Y-96741781D01*
X146920879Y-96732038D01*
X146926868Y-96723039D01*
X146934521Y-96712072D01*
X146942285Y-96699627D01*
X146958260Y-96670013D01*
X146975020Y-96633619D01*
X146992794Y-96589866D01*
X147011807Y-96538176D01*
X147032288Y-96477969D01*
X147054463Y-96408668D01*
X147078561Y-96329692D01*
X147115769Y-96207405D01*
X147146031Y-96106781D01*
X147166371Y-96038237D01*
X147173813Y-96012192D01*
X147173529Y-96011700D01*
X147172697Y-96010900D01*
X147169513Y-96008472D01*
X147164511Y-96005092D01*
X147157938Y-96000948D01*
X147150041Y-95996224D01*
X147141070Y-95991109D01*
X147131272Y-95985786D01*
X147120895Y-95980443D01*
X147102392Y-95971400D01*
X147094010Y-95968277D01*
X147085645Y-95966304D01*
X147076878Y-95965644D01*
X147067287Y-95966459D01*
X147056450Y-95968912D01*
X147043946Y-95973166D01*
X147029355Y-95979384D01*
X147012255Y-95987729D01*
X146992225Y-95998362D01*
X146968844Y-96011448D01*
X146910343Y-96045627D01*
X146833383Y-96091567D01*
X146717610Y-96160528D01*
X146625878Y-96214626D01*
X146552624Y-96256860D01*
X146492290Y-96290226D01*
X146465230Y-96304520D01*
X146439315Y-96317721D01*
X146388138Y-96342343D01*
X146333199Y-96367089D01*
X146268938Y-96394957D01*
X146199531Y-96423467D01*
X146130734Y-96449486D01*
X146062330Y-96473045D01*
X145994102Y-96494175D01*
X145925832Y-96512908D01*
X145857304Y-96529274D01*
X145788300Y-96543304D01*
X145718604Y-96555029D01*
X145647999Y-96564481D01*
X145576267Y-96571689D01*
X145503191Y-96576686D01*
X145428555Y-96579503D01*
X145352141Y-96580169D01*
X145273732Y-96578717D01*
X145193112Y-96575177D01*
X145110063Y-96569580D01*
X145020811Y-96563307D01*
X144949025Y-96559080D01*
X144918526Y-96557754D01*
X144891006Y-96556962D01*
X144866002Y-96556713D01*
X144843053Y-96557014D01*
X144821696Y-96557873D01*
X144801468Y-96559298D01*
X144781906Y-96561297D01*
X144762548Y-96563877D01*
X144742932Y-96567046D01*
X144722596Y-96570812D01*
X144677910Y-96580165D01*
X144610445Y-96596205D01*
X144535724Y-96617206D01*
X144450792Y-96644161D01*
X144352693Y-96678060D01*
X144238471Y-96719897D01*
X144105169Y-96770664D01*
X143769507Y-96902956D01*
X143562357Y-96984901D01*
X143385282Y-97050847D01*
X143305485Y-97078454D01*
X143230160Y-97102820D01*
X143158292Y-97124199D01*
X143088866Y-97142845D01*
X143020866Y-97159010D01*
X142953278Y-97172948D01*
X142885084Y-97184912D01*
X142815271Y-97195155D01*
X142742821Y-97203931D01*
X142666722Y-97211492D01*
X142499507Y-97223984D01*
X142384479Y-97232238D01*
X142331584Y-97237177D01*
X142281419Y-97242725D01*
X142233725Y-97248935D01*
X142188240Y-97255858D01*
X142144703Y-97263546D01*
X142102853Y-97272050D01*
X142062429Y-97281422D01*
X142023171Y-97291714D01*
X141984817Y-97302978D01*
X141947107Y-97315265D01*
X141909779Y-97328626D01*
X141872572Y-97343115D01*
X141835226Y-97358781D01*
X141797479Y-97375678D01*
X141747387Y-97400098D01*
X141697702Y-97427010D01*
X141648504Y-97456340D01*
X141599869Y-97488016D01*
X141551874Y-97521965D01*
X141504598Y-97558117D01*
X141458118Y-97596397D01*
X141412511Y-97636734D01*
X141367854Y-97679055D01*
X141324227Y-97723289D01*
X141281705Y-97769362D01*
X141240366Y-97817202D01*
X141200288Y-97866737D01*
X141161549Y-97917895D01*
X141124226Y-97970603D01*
X141088396Y-98024790D01*
X140885851Y-98339120D01*
X140714231Y-98598714D01*
X140633557Y-98717546D01*
X140552862Y-98834166D01*
X140381077Y-99076068D01*
X140255496Y-99250480D01*
X140205754Y-99319612D01*
X140163898Y-99377969D01*
X140129318Y-99426508D01*
X140101404Y-99466184D01*
X140089756Y-99482997D01*
X140079546Y-99497953D01*
X140070698Y-99511172D01*
X140063136Y-99522772D01*
X140056782Y-99532874D01*
X140051562Y-99541597D01*
X140047398Y-99549060D01*
X140044215Y-99555383D01*
X140041936Y-99560686D01*
X140041112Y-99562991D01*
X140040486Y-99565087D01*
X140040047Y-99566987D01*
X140039787Y-99568707D01*
X140039696Y-99570261D01*
X140039764Y-99571664D01*
X140039982Y-99572932D01*
X140040340Y-99574079D01*
X140040830Y-99575121D01*
X140041440Y-99576071D01*
X140042162Y-99576946D01*
X140042987Y-99577759D01*
X140044904Y-99579264D01*
X140049547Y-99582198D01*
X140052119Y-99583867D01*
X140054758Y-99585829D01*
X140061211Y-99586448D01*
X140073809Y-99581272D01*
X140120517Y-99551020D01*
X140201043Y-99490053D01*
X140321545Y-99393345D01*
X140707120Y-99072622D01*
X141326521Y-98548665D01*
X141733242Y-98203945D01*
X141898571Y-98064078D01*
X142040951Y-97943954D01*
X142162185Y-97842134D01*
X142215435Y-97797638D01*
X142264076Y-97757178D01*
X142308332Y-97720575D01*
X142348428Y-97687648D01*
X142384591Y-97658217D01*
X142417045Y-97632104D01*
X142446016Y-97609127D01*
X142471730Y-97589107D01*
X142494411Y-97571864D01*
X142514286Y-97557217D01*
X142531580Y-97544989D01*
X142539329Y-97539724D01*
X142546518Y-97534997D01*
X142553174Y-97530784D01*
X142559325Y-97527063D01*
X142565001Y-97523811D01*
X142570228Y-97521006D01*
X142575035Y-97518626D01*
X142579451Y-97516647D01*
X142583503Y-97515048D01*
X142587220Y-97513805D01*
X142590630Y-97512898D01*
X142593760Y-97512302D01*
X142596640Y-97511995D01*
X142599298Y-97511956D01*
X142601761Y-97512161D01*
X142604057Y-97512588D01*
X142606216Y-97513215D01*
X142608265Y-97514018D01*
X142610231Y-97514976D01*
X142612145Y-97516067D01*
X142615924Y-97518553D01*
X142620178Y-97521277D01*
X142624327Y-97524138D01*
X142628346Y-97527107D01*
X142632212Y-97530157D01*
X142635903Y-97533258D01*
X142639395Y-97536382D01*
X142642665Y-97539501D01*
X142645689Y-97542587D01*
X142648445Y-97545610D01*
X142650908Y-97548543D01*
X142653057Y-97551358D01*
X142654867Y-97554025D01*
X142656315Y-97556516D01*
X142656896Y-97557687D01*
X142657378Y-97558803D01*
X142657758Y-97559861D01*
X142658033Y-97560858D01*
X142658200Y-97561789D01*
X142658256Y-97562651D01*
X142459158Y-98011341D01*
X141980925Y-99067249D01*
X141662597Y-99771177D01*
X141546656Y-100030507D01*
X141457049Y-100233839D01*
X141391916Y-100385496D01*
X141349396Y-100489796D01*
X141336035Y-100525537D01*
X141327630Y-100551059D01*
X141323948Y-100566903D01*
X141323806Y-100571364D01*
X141324757Y-100573607D01*
X141330967Y-100572060D01*
X141343843Y-100561887D01*
X141390792Y-100514242D01*
X141468004Y-100427819D01*
X141577875Y-100299765D01*
X141905187Y-99907355D01*
X142391910Y-99314192D01*
X142798761Y-98817465D01*
X143135829Y-98410861D01*
X143267136Y-98254429D01*
X143367726Y-98136218D01*
X143433176Y-98061456D01*
X143451341Y-98042003D01*
X143459062Y-98035373D01*
X143461497Y-98035495D01*
X143464154Y-98035852D01*
X143467008Y-98036431D01*
X143470032Y-98037220D01*
X143473201Y-98038205D01*
X143476488Y-98039373D01*
X143479869Y-98040712D01*
X143483316Y-98042208D01*
X143486805Y-98043850D01*
X143490310Y-98045622D01*
X143493804Y-98047514D01*
X143497262Y-98049512D01*
X143500658Y-98051603D01*
X143503966Y-98053774D01*
X143507161Y-98056012D01*
X143510216Y-98058304D01*
X143515459Y-98077448D01*
X143509830Y-98132745D01*
X143448920Y-98426295D01*
X143293423Y-99087946D01*
X143009271Y-100266693D01*
X142633563Y-101812741D01*
X142474814Y-102459207D01*
X142472201Y-102458709D01*
X142465818Y-102455969D01*
X142442539Y-102444213D01*
X142359498Y-102398793D01*
X142238424Y-102330221D01*
X142092049Y-102245775D01*
X141808118Y-102084407D01*
X141515257Y-101921882D01*
X141238271Y-101772254D01*
X141001966Y-101649579D01*
X140925168Y-101609265D01*
X140894298Y-101593607D01*
X140866808Y-101581395D01*
X140841468Y-101572966D01*
X140829219Y-101570275D01*
X140817047Y-101568656D01*
X140804797Y-101568150D01*
X140792316Y-101568800D01*
X140779450Y-101570647D01*
X140766046Y-101573734D01*
X140751948Y-101578102D01*
X140737005Y-101583794D01*
X140703965Y-101599317D01*
X140665695Y-101620638D01*
X140620965Y-101648093D01*
X140507208Y-101722748D01*
X140352854Y-101825969D01*
X140135620Y-101970939D01*
X139854556Y-102161550D01*
X139245132Y-102579151D01*
X138872362Y-102837643D01*
X138722462Y-102941299D01*
X138594284Y-103029493D01*
X138485878Y-103103425D01*
X138438479Y-103135417D01*
X138395292Y-103164293D01*
X138356072Y-103190203D01*
X138320576Y-103213296D01*
X138288560Y-103233723D01*
X138259780Y-103251633D01*
X138233991Y-103267177D01*
X138210951Y-103280503D01*
X138190415Y-103291762D01*
X138172140Y-103301105D01*
X138155881Y-103308680D01*
X138141395Y-103314637D01*
X138128439Y-103319127D01*
X138116767Y-103322299D01*
X138111337Y-103323438D01*
X138106136Y-103324303D01*
X138096303Y-103325290D01*
X138087024Y-103325408D01*
X138078054Y-103324807D01*
X138069151Y-103323639D01*
X138060069Y-103322051D01*
X138040396Y-103318221D01*
X138028519Y-103314516D01*
X138013345Y-103306690D01*
X137968848Y-103274592D01*
X137898389Y-103213762D01*
X137793451Y-103116035D01*
X137446076Y-102777231D01*
X136858591Y-102192859D01*
X136419603Y-101752575D01*
X136049406Y-101378603D01*
X135787028Y-101110134D01*
X135708466Y-101027711D01*
X135671493Y-100986360D01*
X135600938Y-100896401D01*
X135645035Y-100808206D01*
X135703381Y-100706783D01*
X135841929Y-100495557D01*
X136132943Y-100068035D01*
X136648688Y-99317720D01*
X136923524Y-98916793D01*
X137152719Y-98578871D01*
X137312461Y-98339176D01*
X137358846Y-98267170D01*
X137378937Y-98232929D01*
X137388519Y-98207380D01*
X137395973Y-98181834D01*
X137401118Y-98155549D01*
X137403770Y-98127784D01*
X137403744Y-98097797D01*
X137400859Y-98064845D01*
X137394929Y-98028189D01*
X137385772Y-97987086D01*
X137373205Y-97940795D01*
X137357044Y-97888574D01*
X137313205Y-97763375D01*
X137252788Y-97605559D01*
X137174326Y-97409192D01*
X136962660Y-96884876D01*
X136756284Y-96368498D01*
X136648091Y-96095905D01*
X136604143Y-95985797D01*
X136566088Y-95891339D01*
X136533273Y-95811174D01*
X136505044Y-95743947D01*
X136492446Y-95714761D01*
X136480748Y-95688301D01*
X136469871Y-95664396D01*
X136459731Y-95642878D01*
X136450248Y-95623577D01*
X136441339Y-95606324D01*
X136432923Y-95590948D01*
X136424918Y-95577280D01*
X136417243Y-95565151D01*
X136409815Y-95554391D01*
X136402554Y-95544831D01*
X136395376Y-95536300D01*
X136388202Y-95528630D01*
X136380948Y-95521651D01*
X136373533Y-95515193D01*
X136365876Y-95509087D01*
X136357895Y-95503163D01*
X136349507Y-95497252D01*
X136331187Y-95484789D01*
X136277341Y-95463133D01*
X136165658Y-95433250D01*
X135750427Y-95345001D01*
X135048785Y-95212434D01*
X134024021Y-95027942D01*
X133796365Y-94987221D01*
X133619952Y-94955182D01*
X133486658Y-94930088D01*
X133433642Y-94919603D01*
X133388359Y-94910203D01*
X133349795Y-94901671D01*
X133316932Y-94893791D01*
X133288757Y-94886344D01*
X133264253Y-94879114D01*
X133242406Y-94871885D01*
X133222199Y-94864438D01*
X133202618Y-94856558D01*
X133182646Y-94848026D01*
X133080340Y-94802165D01*
X133080340Y-93228775D01*
X133081250Y-92605627D01*
X133083648Y-92070782D01*
X133087038Y-91681459D01*
X133090924Y-91494873D01*
X133103271Y-91334359D01*
X133364326Y-91270859D01*
X133508469Y-91239384D01*
X133706521Y-91198980D01*
X133932354Y-91155269D01*
X134159840Y-91113873D01*
X135056364Y-90951071D01*
X135744033Y-90820847D01*
X136001330Y-90769656D01*
X136196553Y-90728656D01*
X136326416Y-90698529D01*
X136365810Y-90687756D01*
X136387632Y-90679956D01*
X136405899Y-90669978D01*
X136423140Y-90659000D01*
X136439571Y-90646683D01*
X136455404Y-90632689D01*
X136470855Y-90616681D01*
X136486137Y-90598318D01*
X136501467Y-90577263D01*
X136517057Y-90553177D01*
X136533123Y-90525721D01*
X136549879Y-90494558D01*
X136567539Y-90459349D01*
X136586317Y-90419755D01*
X136628089Y-90326059D01*
X136676910Y-90210762D01*
X136740575Y-90058158D01*
X136823753Y-89863055D01*
X137004993Y-89445234D01*
X137158065Y-89092483D01*
X137303531Y-88746513D01*
X137423200Y-88451806D01*
X137467676Y-88337578D01*
X137498882Y-88252846D01*
X137530632Y-88161122D01*
X137437146Y-88014721D01*
X137282751Y-87777229D01*
X137090983Y-87490625D01*
X136856220Y-87146804D01*
X136572840Y-86737665D01*
X136279924Y-86315462D01*
X136059107Y-85992643D01*
X135885254Y-85732331D01*
X135733229Y-85497650D01*
X135604465Y-85296566D01*
X135659146Y-85206608D01*
X135772073Y-85080036D01*
X136032071Y-84808521D01*
X136798398Y-84027450D01*
X137568363Y-83256961D01*
X137832908Y-82998675D01*
X137952202Y-82890623D01*
X137963017Y-82885602D01*
X137975473Y-82881128D01*
X137989351Y-82877213D01*
X138004429Y-82873866D01*
X138020490Y-82871098D01*
X138037313Y-82868919D01*
X138054678Y-82867339D01*
X138072367Y-82866369D01*
X138090158Y-82866020D01*
X138107834Y-82866301D01*
X138125173Y-82867222D01*
X138141958Y-82868795D01*
X138157966Y-82871029D01*
X138172981Y-82873935D01*
X138186780Y-82877524D01*
X138199146Y-82881804D01*
X139325609Y-83644244D01*
X140792062Y-84652747D01*
X140806799Y-84662863D01*
X140820663Y-84672074D01*
X140833773Y-84680428D01*
X140846247Y-84687970D01*
X140858204Y-84694748D01*
X140869763Y-84700807D01*
X140881043Y-84706194D01*
X140892163Y-84710956D01*
X140903242Y-84715140D01*
X140914398Y-84718790D01*
X140925750Y-84721956D01*
X140937418Y-84724681D01*
X140949520Y-84727014D01*
X140962175Y-84729001D01*
X140975501Y-84730688D01*
X140989619Y-84732122D01*
X141037870Y-84734393D01*
X141061280Y-84734018D01*
X141084923Y-84732426D01*
X141109331Y-84729459D01*
X141135035Y-84724960D01*
X141162569Y-84718772D01*
X141192465Y-84710736D01*
X141225255Y-84700694D01*
X141261470Y-84688490D01*
X141346309Y-84656964D01*
X141451240Y-84614896D01*
X141580521Y-84561025D01*
X141755642Y-84487025D01*
X141990625Y-84389708D01*
X142517146Y-84174733D01*
X142993038Y-83980844D01*
X143137295Y-83921819D01*
X143190875Y-83899698D01*
X143233947Y-83881708D01*
X143267903Y-83867253D01*
X143294136Y-83855735D01*
X143304791Y-83850892D01*
X143314038Y-83846559D01*
X143322051Y-83842662D01*
X143329003Y-83839126D01*
X143335069Y-83835878D01*
X143340423Y-83832841D01*
X143345239Y-83829942D01*
X143349691Y-83827106D01*
X143358199Y-83821325D01*
X143367340Y-83814900D01*
X143372108Y-83811250D01*
X143377121Y-83806948D01*
X143382335Y-83802048D01*
X143387708Y-83796599D01*
X143393194Y-83790655D01*
X143398749Y-83784266D01*
X143404331Y-83777485D01*
X143409894Y-83770362D01*
X143415396Y-83762950D01*
X143420791Y-83755300D01*
X143426037Y-83747464D01*
X143431088Y-83739494D01*
X143435902Y-83731441D01*
X143440435Y-83723357D01*
X143444641Y-83715294D01*
X143448479Y-83707303D01*
X143475564Y-83600309D01*
X143528571Y-83351080D01*
X143685723Y-82562760D01*
X143866687Y-81616020D01*
X144018216Y-80784540D01*
X144028575Y-80723951D01*
X144039576Y-80663631D01*
X144050865Y-80605171D01*
X144062092Y-80550163D01*
X144072907Y-80500199D01*
X144082956Y-80456870D01*
X144091889Y-80421768D01*
X144099354Y-80396484D01*
X144131103Y-80299470D01*
X144536798Y-80288887D01*
X145310209Y-80281087D01*
X146326705Y-80284697D01*
G37*
%TD*%
%LPC*%
D13*
%TO.C,REF\u002A\u002A*%
X171582000Y-82370000D03*
%TD*%
%TO.C,REF\u002A\u002A*%
X171582000Y-84910000D03*
%TD*%
%TO.C,REF\u002A\u002A*%
X171582000Y-87450000D03*
%TD*%
%TO.C,REF\u002A\u002A*%
X171582000Y-89990000D03*
%TD*%
%TO.C,REF\u002A\u002A*%
X171582000Y-92530000D03*
%TD*%
%TO.C,REF\u002A\u002A*%
X171582000Y-95070000D03*
%TD*%
%TO.C,REF\u002A\u002A*%
X171582000Y-97610000D03*
%TD*%
%TO.C,REF\u002A\u002A*%
X171582000Y-100150000D03*
%TD*%
%TO.C,REF\u002A\u002A*%
X171582000Y-102690000D03*
%TD*%
%TO.C,REF\u002A\u002A*%
X171582000Y-105230000D03*
%TD*%
%TO.C,REF\u002A\u002A*%
X171582000Y-107770000D03*
%TD*%
%TO.C,REF\u002A\u002A*%
X171582000Y-110310000D03*
%TD*%
%TO.C,REF\u002A\u002A*%
X116718000Y-82370000D03*
%TD*%
D14*
%TO.C,REF\u002A\u002A*%
X171480000Y-78940000D03*
%TD*%
%TO.C,REF\u002A\u002A*%
X116680000Y-78940000D03*
%TD*%
D13*
%TO.C,REF\u002A\u002A*%
X116718000Y-84910000D03*
%TD*%
%TO.C,REF\u002A\u002A*%
X116718000Y-87450000D03*
%TD*%
%TO.C,REF\u002A\u002A*%
X116718000Y-89990000D03*
%TD*%
%TO.C,REF\u002A\u002A*%
X116718000Y-92530000D03*
%TD*%
%TO.C,REF\u002A\u002A*%
X116718000Y-95070000D03*
%TD*%
%TO.C,REF\u002A\u002A*%
X116718000Y-97610000D03*
%TD*%
%TO.C,REF\u002A\u002A*%
X116718000Y-100150000D03*
%TD*%
%TO.C,REF\u002A\u002A*%
X116718000Y-102690000D03*
%TD*%
%TO.C,REF\u002A\u002A*%
X116718000Y-105230000D03*
%TD*%
%TO.C,REF\u002A\u002A*%
X116718000Y-107770000D03*
%TD*%
%TO.C,REF\u002A\u002A*%
X116718000Y-110310000D03*
%TD*%
D14*
%TO.C,REF\u002A\u002A*%
X116680000Y-113740000D03*
%TD*%
%TO.C,REF\u002A\u002A*%
X171480000Y-113740000D03*
%TD*%
D15*
X120020000Y-79830000D03*
X122560000Y-79830000D03*
X125100000Y-79830000D03*
X127640000Y-79830000D03*
X130180000Y-79830000D03*
X132720000Y-79830000D03*
X135260000Y-79830000D03*
X137800000Y-79830000D03*
X140340000Y-79830000D03*
X142880000Y-79830000D03*
X145420000Y-79830000D03*
X147960000Y-79830000D03*
X150500000Y-79830000D03*
X155580000Y-79830000D03*
X158120000Y-79830000D03*
X160660000Y-79830000D03*
X163200000Y-79830000D03*
X165740000Y-79830000D03*
X168280000Y-79830000D03*
X120020000Y-82370000D03*
X122560000Y-82370000D03*
X125100000Y-82370000D03*
X127640000Y-82370000D03*
X130180000Y-82370000D03*
X132720000Y-82370000D03*
X135260000Y-82370000D03*
X137800000Y-82370000D03*
X140340000Y-82370000D03*
X142880000Y-82370000D03*
X145420000Y-82370000D03*
X147960000Y-82370000D03*
X150500000Y-82370000D03*
X153040000Y-82370000D03*
X155580000Y-82370000D03*
X158120000Y-82370000D03*
X160660000Y-82370000D03*
X163200000Y-82370000D03*
X165740000Y-82370000D03*
X168280000Y-82370000D03*
X120020000Y-84910000D03*
X122560000Y-84910000D03*
X125100000Y-84910000D03*
X130180000Y-84910000D03*
X132720000Y-84910000D03*
X135260000Y-84910000D03*
X137800000Y-84910000D03*
X140340000Y-84910000D03*
X142880000Y-84910000D03*
X145420000Y-84910000D03*
X147960000Y-84910000D03*
X153040000Y-84910000D03*
X155580000Y-84910000D03*
X158120000Y-84910000D03*
X163200000Y-84910000D03*
X165740000Y-84910000D03*
X168280000Y-84910000D03*
X120020000Y-87450000D03*
X122560000Y-87450000D03*
X127640000Y-87450000D03*
X130180000Y-87450000D03*
X132720000Y-87450000D03*
X135260000Y-87450000D03*
X137800000Y-87450000D03*
X140340000Y-87450000D03*
X145420000Y-87450000D03*
X147960000Y-87450000D03*
X150500000Y-87450000D03*
X153040000Y-87450000D03*
X155580000Y-87450000D03*
X158120000Y-87450000D03*
X160660000Y-87450000D03*
X163200000Y-87450000D03*
X165740000Y-87450000D03*
X168280000Y-87450000D03*
X120020000Y-89990000D03*
X122560000Y-89990000D03*
X125100000Y-89990000D03*
X127640000Y-89990000D03*
X130180000Y-89990000D03*
X132720000Y-89990000D03*
X135260000Y-89990000D03*
X137800000Y-89990000D03*
X140340000Y-89990000D03*
X142880000Y-89990000D03*
X145420000Y-89990000D03*
X147960000Y-89990000D03*
X150500000Y-89990000D03*
X155580000Y-89990000D03*
X158120000Y-89990000D03*
X160660000Y-89990000D03*
X163200000Y-89990000D03*
X165740000Y-89990000D03*
X168280000Y-89990000D03*
X120020000Y-92530000D03*
X122560000Y-92530000D03*
X125100000Y-92530000D03*
X127640000Y-92530000D03*
X130180000Y-92530000D03*
X132720000Y-92530000D03*
X135260000Y-92530000D03*
X137800000Y-92530000D03*
X140340000Y-92530000D03*
X142880000Y-92530000D03*
X145420000Y-92530000D03*
X147960000Y-92530000D03*
X150500000Y-92530000D03*
X153040000Y-92530000D03*
X155580000Y-92530000D03*
X158120000Y-92530000D03*
X160660000Y-92530000D03*
X163200000Y-92530000D03*
X168280000Y-92530000D03*
X120020000Y-95070000D03*
X122560000Y-95070000D03*
X125100000Y-95070000D03*
X127640000Y-95070000D03*
X130180000Y-95070000D03*
X132720000Y-95070000D03*
X135260000Y-95070000D03*
X137800000Y-95070000D03*
X140340000Y-95070000D03*
X142880000Y-95070000D03*
X145420000Y-95070000D03*
X147960000Y-95070000D03*
X150500000Y-95070000D03*
X153040000Y-95070000D03*
X158120000Y-95070000D03*
X160660000Y-95070000D03*
X163200000Y-95070000D03*
X165740000Y-95070000D03*
X168280000Y-95070000D03*
X120020000Y-97610000D03*
X122560000Y-97610000D03*
X125100000Y-97610000D03*
X127640000Y-97610000D03*
X130180000Y-97610000D03*
X132720000Y-97610000D03*
X135260000Y-97610000D03*
X137800000Y-97610000D03*
X140340000Y-97610000D03*
X142880000Y-97610000D03*
X145420000Y-97610000D03*
X147960000Y-97610000D03*
X150500000Y-97610000D03*
X153040000Y-97610000D03*
X155580000Y-97610000D03*
X158120000Y-97610000D03*
X160660000Y-97610000D03*
X163200000Y-97610000D03*
X165740000Y-97610000D03*
X120020000Y-100150000D03*
X122560000Y-100150000D03*
X125100000Y-100150000D03*
X130180000Y-100150000D03*
X132720000Y-100150000D03*
X135260000Y-100150000D03*
X137800000Y-100150000D03*
X140340000Y-100150000D03*
X142880000Y-100150000D03*
X145420000Y-100150000D03*
X147960000Y-100150000D03*
X150500000Y-100150000D03*
X153040000Y-100150000D03*
X155580000Y-100150000D03*
X158120000Y-100150000D03*
X160660000Y-100150000D03*
X163200000Y-100150000D03*
X165740000Y-100150000D03*
X168280000Y-100150000D03*
X120020000Y-102690000D03*
X122560000Y-102690000D03*
X125100000Y-102690000D03*
X127640000Y-102690000D03*
X130180000Y-102690000D03*
X132720000Y-102690000D03*
X135260000Y-102690000D03*
X137800000Y-102690000D03*
X140340000Y-102690000D03*
X142880000Y-102690000D03*
X145420000Y-102690000D03*
X147960000Y-102690000D03*
X150500000Y-102690000D03*
X153040000Y-102690000D03*
X155580000Y-102690000D03*
X158120000Y-102690000D03*
X160660000Y-102690000D03*
X163200000Y-102690000D03*
X165740000Y-102690000D03*
X168280000Y-102690000D03*
X120020000Y-105230000D03*
X122560000Y-105230000D03*
X125100000Y-105230000D03*
X127640000Y-105230000D03*
X130180000Y-105230000D03*
X135260000Y-105230000D03*
X137800000Y-105230000D03*
X140340000Y-105230000D03*
X142880000Y-105230000D03*
X145420000Y-105230000D03*
X147960000Y-105230000D03*
X150500000Y-105230000D03*
X153040000Y-105230000D03*
X155580000Y-105230000D03*
X158120000Y-105230000D03*
X160660000Y-105230000D03*
X163200000Y-105230000D03*
X165740000Y-105230000D03*
X168280000Y-105230000D03*
X120020000Y-107770000D03*
X122560000Y-107770000D03*
X125100000Y-107770000D03*
X127640000Y-107770000D03*
X130180000Y-107770000D03*
X132720000Y-107770000D03*
X135260000Y-107770000D03*
X137800000Y-107770000D03*
X140340000Y-107770000D03*
X142880000Y-107770000D03*
X145420000Y-107770000D03*
X147960000Y-107770000D03*
X150500000Y-107770000D03*
X153040000Y-107770000D03*
X155580000Y-107770000D03*
X158120000Y-107770000D03*
X160660000Y-107770000D03*
X163200000Y-107770000D03*
X165740000Y-107770000D03*
X168280000Y-107770000D03*
X120020000Y-110310000D03*
X122560000Y-110310000D03*
X125100000Y-110310000D03*
X127640000Y-110310000D03*
X130180000Y-110310000D03*
X132720000Y-110310000D03*
X135260000Y-110310000D03*
X137800000Y-110310000D03*
X140340000Y-110310000D03*
X142880000Y-110310000D03*
X145420000Y-110310000D03*
X147960000Y-110310000D03*
X153040000Y-110310000D03*
X155580000Y-110310000D03*
X158120000Y-110310000D03*
X160660000Y-110310000D03*
X163200000Y-110310000D03*
X165740000Y-110310000D03*
X168280000Y-110310000D03*
X120020000Y-112850000D03*
X122560000Y-112850000D03*
X125100000Y-112850000D03*
X127640000Y-112850000D03*
X130180000Y-112850000D03*
X132720000Y-112850000D03*
X135260000Y-112850000D03*
X137800000Y-112850000D03*
X140340000Y-112850000D03*
X142880000Y-112850000D03*
X145420000Y-112850000D03*
X147960000Y-112850000D03*
X150500000Y-112850000D03*
X153040000Y-112850000D03*
X155580000Y-112850000D03*
X158120000Y-112850000D03*
X160660000Y-112850000D03*
X163200000Y-112850000D03*
X165740000Y-112850000D03*
X168280000Y-112850000D03*
X168280000Y-97610000D03*
X155580000Y-95070000D03*
X150500000Y-84910000D03*
X127640000Y-100150000D03*
X150500000Y-110310000D03*
X125100000Y-87450000D03*
X127640000Y-84910000D03*
X160660000Y-84910000D03*
X142880000Y-87450000D03*
X153040000Y-89990000D03*
X153040000Y-79830000D03*
X165740000Y-92530000D03*
X132720000Y-105230000D03*
%LPD*%
M02*
