M48
; DRILL file {KiCad 9.0.1} date 2025-05-06T23:49:08-0400
; FORMAT={-:-/ absolute / inch / decimal}
; #@! TF.CreationDate,2025-05-06T23:49:08-04:00
; #@! TF.GenerationSoftware,Kicad,Pcbnew,9.0.1
; #@! TF.FileFunction,Plated,1,2,PTH
FMAT,2
INCH
; #@! TA.AperFunction,Plated,PTH,ViaDrill
T1C0.0360
%
G90
G05
T1
X4.7252Y-3.1429
X4.7252Y-3.2429
X4.7252Y-3.3429
X4.7252Y-3.4429
X4.7252Y-3.5429
X4.7252Y-3.6429
X4.7252Y-3.7429
X4.7252Y-3.8429
X4.7252Y-3.9429
X4.7252Y-4.0429
X4.7252Y-4.1429
X4.7252Y-4.2429
X4.7252Y-4.3429
X4.7252Y-4.4429
X4.8252Y-3.1429
X4.8252Y-3.2429
X4.8252Y-3.3429
X4.8252Y-3.4429
X4.8252Y-3.5429
X4.8252Y-3.6429
X4.8252Y-3.7429
X4.8252Y-3.8429
X4.8252Y-3.9429
X4.8252Y-4.0429
X4.8252Y-4.1429
X4.8252Y-4.2429
X4.8252Y-4.3429
X4.8252Y-4.4429
X4.9252Y-3.1429
X4.9252Y-3.2429
X4.9252Y-3.3429
X4.9252Y-3.4429
X4.9252Y-3.5429
X4.9252Y-3.6429
X4.9252Y-3.7429
X4.9252Y-3.8429
X4.9252Y-3.9429
X4.9252Y-4.0429
X4.9252Y-4.1429
X4.9252Y-4.2429
X4.9252Y-4.3429
X4.9252Y-4.4429
X5.0252Y-3.1429
X5.0252Y-3.2429
X5.0252Y-3.3429
X5.0252Y-3.4429
X5.0252Y-3.5429
X5.0252Y-3.6429
X5.0252Y-3.7429
X5.0252Y-3.8429
X5.0252Y-3.9429
X5.0252Y-4.0429
X5.0252Y-4.1429
X5.0252Y-4.2429
X5.0252Y-4.3429
X5.0252Y-4.4429
X5.1252Y-3.1429
X5.1252Y-3.2429
X5.1252Y-3.3429
X5.1252Y-3.4429
X5.1252Y-3.5429
X5.1252Y-3.6429
X5.1252Y-3.7429
X5.1252Y-3.8429
X5.1252Y-3.9429
X5.1252Y-4.0429
X5.1252Y-4.1429
X5.1252Y-4.2429
X5.1252Y-4.3429
X5.1252Y-4.4429
X5.2252Y-3.1429
X5.2252Y-3.2429
X5.2252Y-3.3429
X5.2252Y-3.4429
X5.2252Y-3.5429
X5.2252Y-3.6429
X5.2252Y-3.7429
X5.2252Y-3.8429
X5.2252Y-3.9429
X5.2252Y-4.0429
X5.2252Y-4.1429
X5.2252Y-4.2429
X5.2252Y-4.3429
X5.2252Y-4.4429
X5.3252Y-3.1429
X5.3252Y-3.2429
X5.3252Y-3.3429
X5.3252Y-3.4429
X5.3252Y-3.5429
X5.3252Y-3.6429
X5.3252Y-3.7429
X5.3252Y-3.8429
X5.3252Y-3.9429
X5.3252Y-4.0429
X5.3252Y-4.1429
X5.3252Y-4.2429
X5.3252Y-4.3429
X5.3252Y-4.4429
X5.4252Y-3.1429
X5.4252Y-3.2429
X5.4252Y-3.3429
X5.4252Y-3.4429
X5.4252Y-3.5429
X5.4252Y-3.6429
X5.4252Y-3.7429
X5.4252Y-3.8429
X5.4252Y-3.9429
X5.4252Y-4.0429
X5.4252Y-4.1429
X5.4252Y-4.2429
X5.4252Y-4.3429
X5.4252Y-4.4429
X5.5252Y-3.1429
X5.5252Y-3.2429
X5.5252Y-3.3429
X5.5252Y-3.4429
X5.5252Y-3.5429
X5.5252Y-3.6429
X5.5252Y-3.7429
X5.5252Y-3.8429
X5.5252Y-3.9429
X5.5252Y-4.0429
X5.5252Y-4.1429
X5.5252Y-4.2429
X5.5252Y-4.3429
X5.5252Y-4.4429
X5.6252Y-3.1429
X5.6252Y-3.2429
X5.6252Y-3.3429
X5.6252Y-3.4429
X5.6252Y-3.5429
X5.6252Y-3.6429
X5.6252Y-3.7429
X5.6252Y-3.8429
X5.6252Y-3.9429
X5.6252Y-4.0429
X5.6252Y-4.1429
X5.6252Y-4.2429
X5.6252Y-4.3429
X5.6252Y-4.4429
X5.7252Y-3.1429
X5.7252Y-3.2429
X5.7252Y-3.3429
X5.7252Y-3.4429
X5.7252Y-3.5429
X5.7252Y-3.6429
X5.7252Y-3.7429
X5.7252Y-3.8429
X5.7252Y-3.9429
X5.7252Y-4.0429
X5.7252Y-4.1429
X5.7252Y-4.2429
X5.7252Y-4.3429
X5.7252Y-4.4429
X5.8252Y-3.1429
X5.8252Y-3.2429
X5.8252Y-3.3429
X5.8252Y-3.4429
X5.8252Y-3.5429
X5.8252Y-3.6429
X5.8252Y-3.7429
X5.8252Y-3.8429
X5.8252Y-3.9429
X5.8252Y-4.0429
X5.8252Y-4.1429
X5.8252Y-4.2429
X5.8252Y-4.3429
X5.8252Y-4.4429
X5.9252Y-3.1429
X5.9252Y-3.2429
X5.9252Y-3.3429
X5.9252Y-3.4429
X5.9252Y-3.5429
X5.9252Y-3.6429
X5.9252Y-3.7429
X5.9252Y-3.8429
X5.9252Y-3.9429
X5.9252Y-4.0429
X5.9252Y-4.1429
X5.9252Y-4.2429
X5.9252Y-4.3429
X5.9252Y-4.4429
X6.0252Y-3.1429
X6.0252Y-3.2429
X6.0252Y-3.3429
X6.0252Y-3.4429
X6.0252Y-3.5429
X6.0252Y-3.6429
X6.0252Y-3.7429
X6.0252Y-3.8429
X6.0252Y-3.9429
X6.0252Y-4.0429
X6.0252Y-4.1429
X6.0252Y-4.2429
X6.0252Y-4.3429
X6.0252Y-4.4429
X6.1252Y-3.1429
X6.1252Y-3.2429
X6.1252Y-3.3429
X6.1252Y-3.4429
X6.1252Y-3.5429
X6.1252Y-3.6429
X6.1252Y-3.7429
X6.1252Y-3.8429
X6.1252Y-3.9429
X6.1252Y-4.0429
X6.1252Y-4.1429
X6.1252Y-4.2429
X6.1252Y-4.3429
X6.1252Y-4.4429
X6.2252Y-3.1429
X6.2252Y-3.2429
X6.2252Y-3.3429
X6.2252Y-3.4429
X6.2252Y-3.5429
X6.2252Y-3.6429
X6.2252Y-3.7429
X6.2252Y-3.8429
X6.2252Y-3.9429
X6.2252Y-4.0429
X6.2252Y-4.1429
X6.2252Y-4.2429
X6.2252Y-4.3429
X6.2252Y-4.4429
X6.3252Y-3.1429
X6.3252Y-3.2429
X6.3252Y-3.3429
X6.3252Y-3.4429
X6.3252Y-3.5429
X6.3252Y-3.6429
X6.3252Y-3.7429
X6.3252Y-3.8429
X6.3252Y-3.9429
X6.3252Y-4.0429
X6.3252Y-4.1429
X6.3252Y-4.2429
X6.3252Y-4.3429
X6.3252Y-4.4429
X6.4252Y-3.1429
X6.4252Y-3.2429
X6.4252Y-3.3429
X6.4252Y-3.4429
X6.4252Y-3.5429
X6.4252Y-3.6429
X6.4252Y-3.7429
X6.4252Y-3.8429
X6.4252Y-3.9429
X6.4252Y-4.0429
X6.4252Y-4.1429
X6.4252Y-4.2429
X6.4252Y-4.3429
X6.4252Y-4.4429
X6.5252Y-3.1429
X6.5252Y-3.2429
X6.5252Y-3.3429
X6.5252Y-3.4429
X6.5252Y-3.5429
X6.5252Y-3.6429
X6.5252Y-3.7429
X6.5252Y-3.8429
X6.5252Y-3.9429
X6.5252Y-4.0429
X6.5252Y-4.1429
X6.5252Y-4.2429
X6.5252Y-4.3429
X6.5252Y-4.4429
X6.6252Y-3.1429
X6.6252Y-3.2429
X6.6252Y-3.3429
X6.6252Y-3.4429
X6.6252Y-3.5429
X6.6252Y-3.6429
X6.6252Y-3.7429
X6.6252Y-3.8429
X6.6252Y-3.9429
X6.6252Y-4.0429
X6.6252Y-4.1429
X6.6252Y-4.2429
X6.6252Y-4.3429
X6.6252Y-4.4429
M30
