%TF.GenerationSoftware,KiCad,Pcbnew,9.0.1*%
%TF.CreationDate,2026-01-25T18:19:53-05:00*%
%TF.ProjectId,classic-protoboard_14x20,636c6173-7369-4632-9d70-726f746f626f,rev?*%
%TF.SameCoordinates,Original*%
%TF.FileFunction,Legend,Bot*%
%TF.FilePolarity,Positive*%
%FSLAX46Y46*%
G04 Gerber Fmt 4.6, Leading zero omitted, Abs format (unit mm)*
G04 Created by KiCad (PCBNEW 9.0.1) date 2026-01-25 18:19:53*
%MOMM*%
%LPD*%
G01*
G04 APERTURE LIST*
%ADD10C,0.127000*%
%ADD11C,0.150000*%
%ADD12C,0.156250*%
%ADD13C,2.300000*%
%ADD14O,3.148000X1.624000*%
%ADD15C,2.100000*%
G04 APERTURE END LIST*
D10*
X169200406Y-82113904D02*
X169200406Y-82162285D01*
X169200406Y-82162285D02*
X169224596Y-82210666D01*
X169224596Y-82210666D02*
X169248787Y-82234856D01*
X169248787Y-82234856D02*
X169297168Y-82259047D01*
X169297168Y-82259047D02*
X169393930Y-82283237D01*
X169393930Y-82283237D02*
X169514882Y-82283237D01*
X169514882Y-82283237D02*
X169611644Y-82259047D01*
X169611644Y-82259047D02*
X169660025Y-82234856D01*
X169660025Y-82234856D02*
X169684216Y-82210666D01*
X169684216Y-82210666D02*
X169708406Y-82162285D01*
X169708406Y-82162285D02*
X169708406Y-82113904D01*
X169708406Y-82113904D02*
X169684216Y-82065523D01*
X169684216Y-82065523D02*
X169660025Y-82041332D01*
X169660025Y-82041332D02*
X169611644Y-82017142D01*
X169611644Y-82017142D02*
X169514882Y-81992951D01*
X169514882Y-81992951D02*
X169393930Y-81992951D01*
X169393930Y-81992951D02*
X169297168Y-82017142D01*
X169297168Y-82017142D02*
X169248787Y-82041332D01*
X169248787Y-82041332D02*
X169224596Y-82065523D01*
X169224596Y-82065523D02*
X169200406Y-82113904D01*
X169708406Y-82767047D02*
X169708406Y-82476761D01*
X169708406Y-82621904D02*
X169200406Y-82621904D01*
X169200406Y-82621904D02*
X169272977Y-82573523D01*
X169272977Y-82573523D02*
X169321358Y-82525142D01*
X169321358Y-82525142D02*
X169345549Y-82476761D01*
D11*
X155675237Y-77074819D02*
X155484761Y-77074819D01*
X155484761Y-77074819D02*
X155389523Y-77122438D01*
X155389523Y-77122438D02*
X155294285Y-77217676D01*
X155294285Y-77217676D02*
X155246666Y-77408152D01*
X155246666Y-77408152D02*
X155246666Y-77741485D01*
X155246666Y-77741485D02*
X155294285Y-77931961D01*
X155294285Y-77931961D02*
X155389523Y-78027200D01*
X155389523Y-78027200D02*
X155484761Y-78074819D01*
X155484761Y-78074819D02*
X155675237Y-78074819D01*
X155675237Y-78074819D02*
X155770475Y-78027200D01*
X155770475Y-78027200D02*
X155865713Y-77931961D01*
X155865713Y-77931961D02*
X155913332Y-77741485D01*
X155913332Y-77741485D02*
X155913332Y-77408152D01*
X155913332Y-77408152D02*
X155865713Y-77217676D01*
X155865713Y-77217676D02*
X155770475Y-77122438D01*
X155770475Y-77122438D02*
X155675237Y-77074819D01*
X138085713Y-115584819D02*
X138085713Y-114584819D01*
X138085713Y-115061009D02*
X137514285Y-115061009D01*
X137514285Y-115584819D02*
X137514285Y-114584819D01*
D10*
X118541593Y-110456762D02*
X118541593Y-110747048D01*
X118541593Y-110601905D02*
X119049593Y-110601905D01*
X119049593Y-110601905D02*
X118977022Y-110650286D01*
X118977022Y-110650286D02*
X118928641Y-110698667D01*
X118928641Y-110698667D02*
X118904450Y-110747048D01*
X119001212Y-110263238D02*
X119025403Y-110239047D01*
X119025403Y-110239047D02*
X119049593Y-110190666D01*
X119049593Y-110190666D02*
X119049593Y-110069714D01*
X119049593Y-110069714D02*
X119025403Y-110021333D01*
X119025403Y-110021333D02*
X119001212Y-109997142D01*
X119001212Y-109997142D02*
X118952831Y-109972952D01*
X118952831Y-109972952D02*
X118904450Y-109972952D01*
X118904450Y-109972952D02*
X118831879Y-109997142D01*
X118831879Y-109997142D02*
X118541593Y-110287428D01*
X118541593Y-110287428D02*
X118541593Y-109972952D01*
D11*
X134998095Y-114632438D02*
X135093333Y-114584819D01*
X135093333Y-114584819D02*
X135236190Y-114584819D01*
X135236190Y-114584819D02*
X135379047Y-114632438D01*
X135379047Y-114632438D02*
X135474285Y-114727676D01*
X135474285Y-114727676D02*
X135521904Y-114822914D01*
X135521904Y-114822914D02*
X135569523Y-115013390D01*
X135569523Y-115013390D02*
X135569523Y-115156247D01*
X135569523Y-115156247D02*
X135521904Y-115346723D01*
X135521904Y-115346723D02*
X135474285Y-115441961D01*
X135474285Y-115441961D02*
X135379047Y-115537200D01*
X135379047Y-115537200D02*
X135236190Y-115584819D01*
X135236190Y-115584819D02*
X135140952Y-115584819D01*
X135140952Y-115584819D02*
X134998095Y-115537200D01*
X134998095Y-115537200D02*
X134950476Y-115489580D01*
X134950476Y-115489580D02*
X134950476Y-115156247D01*
X134950476Y-115156247D02*
X135140952Y-115156247D01*
X158381904Y-115584819D02*
X158381904Y-114584819D01*
X158381904Y-114584819D02*
X158000952Y-114584819D01*
X158000952Y-114584819D02*
X157905714Y-114632438D01*
X157905714Y-114632438D02*
X157858095Y-114680057D01*
X157858095Y-114680057D02*
X157810476Y-114775295D01*
X157810476Y-114775295D02*
X157810476Y-114918152D01*
X157810476Y-114918152D02*
X157858095Y-115013390D01*
X157858095Y-115013390D02*
X157905714Y-115061009D01*
X157905714Y-115061009D02*
X158000952Y-115108628D01*
X158000952Y-115108628D02*
X158381904Y-115108628D01*
D10*
X169200406Y-94813904D02*
X169200406Y-94862285D01*
X169200406Y-94862285D02*
X169224596Y-94910666D01*
X169224596Y-94910666D02*
X169248787Y-94934856D01*
X169248787Y-94934856D02*
X169297168Y-94959047D01*
X169297168Y-94959047D02*
X169393930Y-94983237D01*
X169393930Y-94983237D02*
X169514882Y-94983237D01*
X169514882Y-94983237D02*
X169611644Y-94959047D01*
X169611644Y-94959047D02*
X169660025Y-94934856D01*
X169660025Y-94934856D02*
X169684216Y-94910666D01*
X169684216Y-94910666D02*
X169708406Y-94862285D01*
X169708406Y-94862285D02*
X169708406Y-94813904D01*
X169708406Y-94813904D02*
X169684216Y-94765523D01*
X169684216Y-94765523D02*
X169660025Y-94741332D01*
X169660025Y-94741332D02*
X169611644Y-94717142D01*
X169611644Y-94717142D02*
X169514882Y-94692951D01*
X169514882Y-94692951D02*
X169393930Y-94692951D01*
X169393930Y-94692951D02*
X169297168Y-94717142D01*
X169297168Y-94717142D02*
X169248787Y-94741332D01*
X169248787Y-94741332D02*
X169224596Y-94765523D01*
X169224596Y-94765523D02*
X169200406Y-94813904D01*
X169200406Y-95418666D02*
X169200406Y-95321904D01*
X169200406Y-95321904D02*
X169224596Y-95273523D01*
X169224596Y-95273523D02*
X169248787Y-95249333D01*
X169248787Y-95249333D02*
X169321358Y-95200952D01*
X169321358Y-95200952D02*
X169418120Y-95176761D01*
X169418120Y-95176761D02*
X169611644Y-95176761D01*
X169611644Y-95176761D02*
X169660025Y-95200952D01*
X169660025Y-95200952D02*
X169684216Y-95225142D01*
X169684216Y-95225142D02*
X169708406Y-95273523D01*
X169708406Y-95273523D02*
X169708406Y-95370285D01*
X169708406Y-95370285D02*
X169684216Y-95418666D01*
X169684216Y-95418666D02*
X169660025Y-95442857D01*
X169660025Y-95442857D02*
X169611644Y-95467047D01*
X169611644Y-95467047D02*
X169490692Y-95467047D01*
X169490692Y-95467047D02*
X169442311Y-95442857D01*
X169442311Y-95442857D02*
X169418120Y-95418666D01*
X169418120Y-95418666D02*
X169393930Y-95370285D01*
X169393930Y-95370285D02*
X169393930Y-95273523D01*
X169393930Y-95273523D02*
X169418120Y-95225142D01*
X169418120Y-95225142D02*
X169442311Y-95200952D01*
X169442311Y-95200952D02*
X169490692Y-95176761D01*
D11*
X140339999Y-115584819D02*
X140339999Y-114584819D01*
X158381904Y-78074819D02*
X158381904Y-77074819D01*
X158381904Y-77074819D02*
X158000952Y-77074819D01*
X158000952Y-77074819D02*
X157905714Y-77122438D01*
X157905714Y-77122438D02*
X157858095Y-77170057D01*
X157858095Y-77170057D02*
X157810476Y-77265295D01*
X157810476Y-77265295D02*
X157810476Y-77408152D01*
X157810476Y-77408152D02*
X157858095Y-77503390D01*
X157858095Y-77503390D02*
X157905714Y-77551009D01*
X157905714Y-77551009D02*
X158000952Y-77598628D01*
X158000952Y-77598628D02*
X158381904Y-77598628D01*
X162890476Y-115584819D02*
X163223809Y-115108628D01*
X163461904Y-115584819D02*
X163461904Y-114584819D01*
X163461904Y-114584819D02*
X163080952Y-114584819D01*
X163080952Y-114584819D02*
X162985714Y-114632438D01*
X162985714Y-114632438D02*
X162938095Y-114680057D01*
X162938095Y-114680057D02*
X162890476Y-114775295D01*
X162890476Y-114775295D02*
X162890476Y-114918152D01*
X162890476Y-114918152D02*
X162938095Y-115013390D01*
X162938095Y-115013390D02*
X162985714Y-115061009D01*
X162985714Y-115061009D02*
X163080952Y-115108628D01*
X163080952Y-115108628D02*
X163461904Y-115108628D01*
X168565713Y-114584819D02*
X167994285Y-114584819D01*
X168279999Y-115584819D02*
X168279999Y-114584819D01*
D10*
X119049593Y-90306095D02*
X119049593Y-90257714D01*
X119049593Y-90257714D02*
X119025403Y-90209333D01*
X119025403Y-90209333D02*
X119001212Y-90185143D01*
X119001212Y-90185143D02*
X118952831Y-90160952D01*
X118952831Y-90160952D02*
X118856069Y-90136762D01*
X118856069Y-90136762D02*
X118735117Y-90136762D01*
X118735117Y-90136762D02*
X118638355Y-90160952D01*
X118638355Y-90160952D02*
X118589974Y-90185143D01*
X118589974Y-90185143D02*
X118565784Y-90209333D01*
X118565784Y-90209333D02*
X118541593Y-90257714D01*
X118541593Y-90257714D02*
X118541593Y-90306095D01*
X118541593Y-90306095D02*
X118565784Y-90354476D01*
X118565784Y-90354476D02*
X118589974Y-90378667D01*
X118589974Y-90378667D02*
X118638355Y-90402857D01*
X118638355Y-90402857D02*
X118735117Y-90427048D01*
X118735117Y-90427048D02*
X118856069Y-90427048D01*
X118856069Y-90427048D02*
X118952831Y-90402857D01*
X118952831Y-90402857D02*
X119001212Y-90378667D01*
X119001212Y-90378667D02*
X119025403Y-90354476D01*
X119025403Y-90354476D02*
X119049593Y-90306095D01*
X118880260Y-89701333D02*
X118541593Y-89701333D01*
X119073784Y-89822285D02*
X118710926Y-89943238D01*
X118710926Y-89943238D02*
X118710926Y-89628761D01*
D11*
X130394285Y-77551009D02*
X130060952Y-77551009D01*
X129918095Y-78074819D02*
X130394285Y-78074819D01*
X130394285Y-78074819D02*
X130394285Y-77074819D01*
X130394285Y-77074819D02*
X129918095Y-77074819D01*
D10*
X118541593Y-107916762D02*
X118541593Y-108207048D01*
X118541593Y-108061905D02*
X119049593Y-108061905D01*
X119049593Y-108061905D02*
X118977022Y-108110286D01*
X118977022Y-108110286D02*
X118928641Y-108158667D01*
X118928641Y-108158667D02*
X118904450Y-108207048D01*
X118541593Y-107432952D02*
X118541593Y-107723238D01*
X118541593Y-107578095D02*
X119049593Y-107578095D01*
X119049593Y-107578095D02*
X118977022Y-107626476D01*
X118977022Y-107626476D02*
X118928641Y-107674857D01*
X118928641Y-107674857D02*
X118904450Y-107723238D01*
X119049593Y-82686095D02*
X119049593Y-82637714D01*
X119049593Y-82637714D02*
X119025403Y-82589333D01*
X119025403Y-82589333D02*
X119001212Y-82565143D01*
X119001212Y-82565143D02*
X118952831Y-82540952D01*
X118952831Y-82540952D02*
X118856069Y-82516762D01*
X118856069Y-82516762D02*
X118735117Y-82516762D01*
X118735117Y-82516762D02*
X118638355Y-82540952D01*
X118638355Y-82540952D02*
X118589974Y-82565143D01*
X118589974Y-82565143D02*
X118565784Y-82589333D01*
X118565784Y-82589333D02*
X118541593Y-82637714D01*
X118541593Y-82637714D02*
X118541593Y-82686095D01*
X118541593Y-82686095D02*
X118565784Y-82734476D01*
X118565784Y-82734476D02*
X118589974Y-82758667D01*
X118589974Y-82758667D02*
X118638355Y-82782857D01*
X118638355Y-82782857D02*
X118735117Y-82807048D01*
X118735117Y-82807048D02*
X118856069Y-82807048D01*
X118856069Y-82807048D02*
X118952831Y-82782857D01*
X118952831Y-82782857D02*
X119001212Y-82758667D01*
X119001212Y-82758667D02*
X119025403Y-82734476D01*
X119025403Y-82734476D02*
X119049593Y-82686095D01*
X118541593Y-82032952D02*
X118541593Y-82323238D01*
X118541593Y-82178095D02*
X119049593Y-82178095D01*
X119049593Y-82178095D02*
X118977022Y-82226476D01*
X118977022Y-82226476D02*
X118928641Y-82274857D01*
X118928641Y-82274857D02*
X118904450Y-82323238D01*
D11*
X160279047Y-115680057D02*
X160374285Y-115632438D01*
X160374285Y-115632438D02*
X160469523Y-115537200D01*
X160469523Y-115537200D02*
X160612380Y-115394342D01*
X160612380Y-115394342D02*
X160707618Y-115346723D01*
X160707618Y-115346723D02*
X160802856Y-115346723D01*
X160755237Y-115584819D02*
X160850475Y-115537200D01*
X160850475Y-115537200D02*
X160945713Y-115441961D01*
X160945713Y-115441961D02*
X160993332Y-115251485D01*
X160993332Y-115251485D02*
X160993332Y-114918152D01*
X160993332Y-114918152D02*
X160945713Y-114727676D01*
X160945713Y-114727676D02*
X160850475Y-114632438D01*
X160850475Y-114632438D02*
X160755237Y-114584819D01*
X160755237Y-114584819D02*
X160564761Y-114584819D01*
X160564761Y-114584819D02*
X160469523Y-114632438D01*
X160469523Y-114632438D02*
X160374285Y-114727676D01*
X160374285Y-114727676D02*
X160326666Y-114918152D01*
X160326666Y-114918152D02*
X160326666Y-115251485D01*
X160326666Y-115251485D02*
X160374285Y-115441961D01*
X160374285Y-115441961D02*
X160469523Y-115537200D01*
X160469523Y-115537200D02*
X160564761Y-115584819D01*
X160564761Y-115584819D02*
X160755237Y-115584819D01*
D10*
X169708406Y-110223237D02*
X169708406Y-109932951D01*
X169708406Y-110078094D02*
X169200406Y-110078094D01*
X169200406Y-110078094D02*
X169272977Y-110029713D01*
X169272977Y-110029713D02*
X169321358Y-109981332D01*
X169321358Y-109981332D02*
X169345549Y-109932951D01*
X169248787Y-110416761D02*
X169224596Y-110440952D01*
X169224596Y-110440952D02*
X169200406Y-110489333D01*
X169200406Y-110489333D02*
X169200406Y-110610285D01*
X169200406Y-110610285D02*
X169224596Y-110658666D01*
X169224596Y-110658666D02*
X169248787Y-110682857D01*
X169248787Y-110682857D02*
X169297168Y-110707047D01*
X169297168Y-110707047D02*
X169345549Y-110707047D01*
X169345549Y-110707047D02*
X169418120Y-110682857D01*
X169418120Y-110682857D02*
X169708406Y-110392571D01*
X169708406Y-110392571D02*
X169708406Y-110707047D01*
X169708406Y-105143237D02*
X169708406Y-104852951D01*
X169708406Y-104998094D02*
X169200406Y-104998094D01*
X169200406Y-104998094D02*
X169272977Y-104949713D01*
X169272977Y-104949713D02*
X169321358Y-104901332D01*
X169321358Y-104901332D02*
X169345549Y-104852951D01*
X169200406Y-105457714D02*
X169200406Y-105506095D01*
X169200406Y-105506095D02*
X169224596Y-105554476D01*
X169224596Y-105554476D02*
X169248787Y-105578666D01*
X169248787Y-105578666D02*
X169297168Y-105602857D01*
X169297168Y-105602857D02*
X169393930Y-105627047D01*
X169393930Y-105627047D02*
X169514882Y-105627047D01*
X169514882Y-105627047D02*
X169611644Y-105602857D01*
X169611644Y-105602857D02*
X169660025Y-105578666D01*
X169660025Y-105578666D02*
X169684216Y-105554476D01*
X169684216Y-105554476D02*
X169708406Y-105506095D01*
X169708406Y-105506095D02*
X169708406Y-105457714D01*
X169708406Y-105457714D02*
X169684216Y-105409333D01*
X169684216Y-105409333D02*
X169660025Y-105385142D01*
X169660025Y-105385142D02*
X169611644Y-105360952D01*
X169611644Y-105360952D02*
X169514882Y-105336761D01*
X169514882Y-105336761D02*
X169393930Y-105336761D01*
X169393930Y-105336761D02*
X169297168Y-105360952D01*
X169297168Y-105360952D02*
X169248787Y-105385142D01*
X169248787Y-105385142D02*
X169224596Y-105409333D01*
X169224596Y-105409333D02*
X169200406Y-105457714D01*
X119049593Y-100466095D02*
X119049593Y-100417714D01*
X119049593Y-100417714D02*
X119025403Y-100369333D01*
X119025403Y-100369333D02*
X119001212Y-100345143D01*
X119001212Y-100345143D02*
X118952831Y-100320952D01*
X118952831Y-100320952D02*
X118856069Y-100296762D01*
X118856069Y-100296762D02*
X118735117Y-100296762D01*
X118735117Y-100296762D02*
X118638355Y-100320952D01*
X118638355Y-100320952D02*
X118589974Y-100345143D01*
X118589974Y-100345143D02*
X118565784Y-100369333D01*
X118565784Y-100369333D02*
X118541593Y-100417714D01*
X118541593Y-100417714D02*
X118541593Y-100466095D01*
X118541593Y-100466095D02*
X118565784Y-100514476D01*
X118565784Y-100514476D02*
X118589974Y-100538667D01*
X118589974Y-100538667D02*
X118638355Y-100562857D01*
X118638355Y-100562857D02*
X118735117Y-100587048D01*
X118735117Y-100587048D02*
X118856069Y-100587048D01*
X118856069Y-100587048D02*
X118952831Y-100562857D01*
X118952831Y-100562857D02*
X119001212Y-100538667D01*
X119001212Y-100538667D02*
X119025403Y-100514476D01*
X119025403Y-100514476D02*
X119049593Y-100466095D01*
X118831879Y-100006476D02*
X118856069Y-100054857D01*
X118856069Y-100054857D02*
X118880260Y-100079047D01*
X118880260Y-100079047D02*
X118928641Y-100103238D01*
X118928641Y-100103238D02*
X118952831Y-100103238D01*
X118952831Y-100103238D02*
X119001212Y-100079047D01*
X119001212Y-100079047D02*
X119025403Y-100054857D01*
X119025403Y-100054857D02*
X119049593Y-100006476D01*
X119049593Y-100006476D02*
X119049593Y-99909714D01*
X119049593Y-99909714D02*
X119025403Y-99861333D01*
X119025403Y-99861333D02*
X119001212Y-99837142D01*
X119001212Y-99837142D02*
X118952831Y-99812952D01*
X118952831Y-99812952D02*
X118928641Y-99812952D01*
X118928641Y-99812952D02*
X118880260Y-99837142D01*
X118880260Y-99837142D02*
X118856069Y-99861333D01*
X118856069Y-99861333D02*
X118831879Y-99909714D01*
X118831879Y-99909714D02*
X118831879Y-100006476D01*
X118831879Y-100006476D02*
X118807688Y-100054857D01*
X118807688Y-100054857D02*
X118783498Y-100079047D01*
X118783498Y-100079047D02*
X118735117Y-100103238D01*
X118735117Y-100103238D02*
X118638355Y-100103238D01*
X118638355Y-100103238D02*
X118589974Y-100079047D01*
X118589974Y-100079047D02*
X118565784Y-100054857D01*
X118565784Y-100054857D02*
X118541593Y-100006476D01*
X118541593Y-100006476D02*
X118541593Y-99909714D01*
X118541593Y-99909714D02*
X118565784Y-99861333D01*
X118565784Y-99861333D02*
X118589974Y-99837142D01*
X118589974Y-99837142D02*
X118638355Y-99812952D01*
X118638355Y-99812952D02*
X118735117Y-99812952D01*
X118735117Y-99812952D02*
X118783498Y-99837142D01*
X118783498Y-99837142D02*
X118807688Y-99861333D01*
X118807688Y-99861333D02*
X118831879Y-99909714D01*
D11*
X142737142Y-77074819D02*
X142737142Y-77789104D01*
X142737142Y-77789104D02*
X142784761Y-77931961D01*
X142784761Y-77931961D02*
X142879999Y-78027200D01*
X142879999Y-78027200D02*
X143022856Y-78074819D01*
X143022856Y-78074819D02*
X143118094Y-78074819D01*
D10*
X119049593Y-85226095D02*
X119049593Y-85177714D01*
X119049593Y-85177714D02*
X119025403Y-85129333D01*
X119025403Y-85129333D02*
X119001212Y-85105143D01*
X119001212Y-85105143D02*
X118952831Y-85080952D01*
X118952831Y-85080952D02*
X118856069Y-85056762D01*
X118856069Y-85056762D02*
X118735117Y-85056762D01*
X118735117Y-85056762D02*
X118638355Y-85080952D01*
X118638355Y-85080952D02*
X118589974Y-85105143D01*
X118589974Y-85105143D02*
X118565784Y-85129333D01*
X118565784Y-85129333D02*
X118541593Y-85177714D01*
X118541593Y-85177714D02*
X118541593Y-85226095D01*
X118541593Y-85226095D02*
X118565784Y-85274476D01*
X118565784Y-85274476D02*
X118589974Y-85298667D01*
X118589974Y-85298667D02*
X118638355Y-85322857D01*
X118638355Y-85322857D02*
X118735117Y-85347048D01*
X118735117Y-85347048D02*
X118856069Y-85347048D01*
X118856069Y-85347048D02*
X118952831Y-85322857D01*
X118952831Y-85322857D02*
X119001212Y-85298667D01*
X119001212Y-85298667D02*
X119025403Y-85274476D01*
X119025403Y-85274476D02*
X119049593Y-85226095D01*
X119001212Y-84863238D02*
X119025403Y-84839047D01*
X119025403Y-84839047D02*
X119049593Y-84790666D01*
X119049593Y-84790666D02*
X119049593Y-84669714D01*
X119049593Y-84669714D02*
X119025403Y-84621333D01*
X119025403Y-84621333D02*
X119001212Y-84597142D01*
X119001212Y-84597142D02*
X118952831Y-84572952D01*
X118952831Y-84572952D02*
X118904450Y-84572952D01*
X118904450Y-84572952D02*
X118831879Y-84597142D01*
X118831879Y-84597142D02*
X118541593Y-84887428D01*
X118541593Y-84887428D02*
X118541593Y-84572952D01*
D11*
X132577142Y-115061009D02*
X132910475Y-115061009D01*
X132910475Y-115584819D02*
X132910475Y-114584819D01*
X132910475Y-114584819D02*
X132434285Y-114584819D01*
D10*
X118541593Y-105376762D02*
X118541593Y-105667048D01*
X118541593Y-105521905D02*
X119049593Y-105521905D01*
X119049593Y-105521905D02*
X118977022Y-105570286D01*
X118977022Y-105570286D02*
X118928641Y-105618667D01*
X118928641Y-105618667D02*
X118904450Y-105667048D01*
X119049593Y-105062285D02*
X119049593Y-105013904D01*
X119049593Y-105013904D02*
X119025403Y-104965523D01*
X119025403Y-104965523D02*
X119001212Y-104941333D01*
X119001212Y-104941333D02*
X118952831Y-104917142D01*
X118952831Y-104917142D02*
X118856069Y-104892952D01*
X118856069Y-104892952D02*
X118735117Y-104892952D01*
X118735117Y-104892952D02*
X118638355Y-104917142D01*
X118638355Y-104917142D02*
X118589974Y-104941333D01*
X118589974Y-104941333D02*
X118565784Y-104965523D01*
X118565784Y-104965523D02*
X118541593Y-105013904D01*
X118541593Y-105013904D02*
X118541593Y-105062285D01*
X118541593Y-105062285D02*
X118565784Y-105110666D01*
X118565784Y-105110666D02*
X118589974Y-105134857D01*
X118589974Y-105134857D02*
X118638355Y-105159047D01*
X118638355Y-105159047D02*
X118735117Y-105183238D01*
X118735117Y-105183238D02*
X118856069Y-105183238D01*
X118856069Y-105183238D02*
X118952831Y-105159047D01*
X118952831Y-105159047D02*
X119001212Y-105134857D01*
X119001212Y-105134857D02*
X119025403Y-105110666D01*
X119025403Y-105110666D02*
X119049593Y-105062285D01*
D11*
X150833332Y-78074819D02*
X150833332Y-77074819D01*
X150833332Y-77074819D02*
X150499999Y-77789104D01*
X150499999Y-77789104D02*
X150166666Y-77074819D01*
X150166666Y-77074819D02*
X150166666Y-78074819D01*
X138085713Y-78074819D02*
X138085713Y-77074819D01*
X138085713Y-77551009D02*
X137514285Y-77551009D01*
X137514285Y-78074819D02*
X137514285Y-77074819D01*
X145681904Y-78074819D02*
X145681904Y-77074819D01*
X145110476Y-78074819D02*
X145539047Y-77503390D01*
X145110476Y-77074819D02*
X145681904Y-77646247D01*
D12*
X153437142Y-111915779D02*
X153508570Y-111953875D01*
X153508570Y-111953875D02*
X153722856Y-111991970D01*
X153722856Y-111991970D02*
X153865713Y-111991970D01*
X153865713Y-111991970D02*
X154079999Y-111953875D01*
X154079999Y-111953875D02*
X154222856Y-111877684D01*
X154222856Y-111877684D02*
X154294285Y-111801494D01*
X154294285Y-111801494D02*
X154365713Y-111649113D01*
X154365713Y-111649113D02*
X154365713Y-111534827D01*
X154365713Y-111534827D02*
X154294285Y-111382446D01*
X154294285Y-111382446D02*
X154222856Y-111306255D01*
X154222856Y-111306255D02*
X154079999Y-111230065D01*
X154079999Y-111230065D02*
X153865713Y-111191970D01*
X153865713Y-111191970D02*
X153722856Y-111191970D01*
X153722856Y-111191970D02*
X153508570Y-111230065D01*
X153508570Y-111230065D02*
X153437142Y-111268160D01*
X152794285Y-111915779D02*
X152722856Y-111953875D01*
X152722856Y-111953875D02*
X152794285Y-111991970D01*
X152794285Y-111991970D02*
X152865713Y-111953875D01*
X152865713Y-111953875D02*
X152794285Y-111915779D01*
X152794285Y-111915779D02*
X152794285Y-111991970D01*
X151579999Y-111572922D02*
X151365713Y-111611017D01*
X151365713Y-111611017D02*
X151294284Y-111649113D01*
X151294284Y-111649113D02*
X151222856Y-111725303D01*
X151222856Y-111725303D02*
X151222856Y-111839589D01*
X151222856Y-111839589D02*
X151294284Y-111915779D01*
X151294284Y-111915779D02*
X151365713Y-111953875D01*
X151365713Y-111953875D02*
X151508570Y-111991970D01*
X151508570Y-111991970D02*
X152079999Y-111991970D01*
X152079999Y-111991970D02*
X152079999Y-111191970D01*
X152079999Y-111191970D02*
X151579999Y-111191970D01*
X151579999Y-111191970D02*
X151437142Y-111230065D01*
X151437142Y-111230065D02*
X151365713Y-111268160D01*
X151365713Y-111268160D02*
X151294284Y-111344351D01*
X151294284Y-111344351D02*
X151294284Y-111420541D01*
X151294284Y-111420541D02*
X151365713Y-111496732D01*
X151365713Y-111496732D02*
X151437142Y-111534827D01*
X151437142Y-111534827D02*
X151579999Y-111572922D01*
X151579999Y-111572922D02*
X152079999Y-111572922D01*
X150579999Y-111991970D02*
X150579999Y-111458636D01*
X150579999Y-111611017D02*
X150508570Y-111534827D01*
X150508570Y-111534827D02*
X150437142Y-111496732D01*
X150437142Y-111496732D02*
X150294284Y-111458636D01*
X150294284Y-111458636D02*
X150151427Y-111458636D01*
X149437142Y-111991970D02*
X149579999Y-111953875D01*
X149579999Y-111953875D02*
X149651428Y-111915779D01*
X149651428Y-111915779D02*
X149722856Y-111839589D01*
X149722856Y-111839589D02*
X149722856Y-111611017D01*
X149722856Y-111611017D02*
X149651428Y-111534827D01*
X149651428Y-111534827D02*
X149579999Y-111496732D01*
X149579999Y-111496732D02*
X149437142Y-111458636D01*
X149437142Y-111458636D02*
X149222856Y-111458636D01*
X149222856Y-111458636D02*
X149079999Y-111496732D01*
X149079999Y-111496732D02*
X149008571Y-111534827D01*
X149008571Y-111534827D02*
X148937142Y-111611017D01*
X148937142Y-111611017D02*
X148937142Y-111839589D01*
X148937142Y-111839589D02*
X149008571Y-111915779D01*
X149008571Y-111915779D02*
X149079999Y-111953875D01*
X149079999Y-111953875D02*
X149222856Y-111991970D01*
X149222856Y-111991970D02*
X149437142Y-111991970D01*
X148079999Y-111991970D02*
X148222856Y-111953875D01*
X148222856Y-111953875D02*
X148294285Y-111915779D01*
X148294285Y-111915779D02*
X148365713Y-111839589D01*
X148365713Y-111839589D02*
X148365713Y-111611017D01*
X148365713Y-111611017D02*
X148294285Y-111534827D01*
X148294285Y-111534827D02*
X148222856Y-111496732D01*
X148222856Y-111496732D02*
X148079999Y-111458636D01*
X148079999Y-111458636D02*
X147865713Y-111458636D01*
X147865713Y-111458636D02*
X147722856Y-111496732D01*
X147722856Y-111496732D02*
X147651428Y-111534827D01*
X147651428Y-111534827D02*
X147579999Y-111611017D01*
X147579999Y-111611017D02*
X147579999Y-111839589D01*
X147579999Y-111839589D02*
X147651428Y-111915779D01*
X147651428Y-111915779D02*
X147722856Y-111953875D01*
X147722856Y-111953875D02*
X147865713Y-111991970D01*
X147865713Y-111991970D02*
X148079999Y-111991970D01*
X146937142Y-111991970D02*
X146937142Y-111191970D01*
X146794285Y-111687208D02*
X146365713Y-111991970D01*
X146365713Y-111458636D02*
X146937142Y-111763398D01*
X145794284Y-111953875D02*
X145651427Y-111991970D01*
X145651427Y-111991970D02*
X145365713Y-111991970D01*
X145365713Y-111991970D02*
X145222856Y-111953875D01*
X145222856Y-111953875D02*
X145151427Y-111877684D01*
X145151427Y-111877684D02*
X145151427Y-111839589D01*
X145151427Y-111839589D02*
X145222856Y-111763398D01*
X145222856Y-111763398D02*
X145365713Y-111725303D01*
X145365713Y-111725303D02*
X145579999Y-111725303D01*
X145579999Y-111725303D02*
X145722856Y-111687208D01*
X145722856Y-111687208D02*
X145794284Y-111611017D01*
X145794284Y-111611017D02*
X145794284Y-111572922D01*
X145794284Y-111572922D02*
X145722856Y-111496732D01*
X145722856Y-111496732D02*
X145579999Y-111458636D01*
X145579999Y-111458636D02*
X145365713Y-111458636D01*
X145365713Y-111458636D02*
X145222856Y-111496732D01*
X143437141Y-111268160D02*
X143365713Y-111230065D01*
X143365713Y-111230065D02*
X143222856Y-111191970D01*
X143222856Y-111191970D02*
X142865713Y-111191970D01*
X142865713Y-111191970D02*
X142722856Y-111230065D01*
X142722856Y-111230065D02*
X142651427Y-111268160D01*
X142651427Y-111268160D02*
X142579998Y-111344351D01*
X142579998Y-111344351D02*
X142579998Y-111420541D01*
X142579998Y-111420541D02*
X142651427Y-111534827D01*
X142651427Y-111534827D02*
X143508570Y-111991970D01*
X143508570Y-111991970D02*
X142579998Y-111991970D01*
X141651427Y-111191970D02*
X141508570Y-111191970D01*
X141508570Y-111191970D02*
X141365713Y-111230065D01*
X141365713Y-111230065D02*
X141294285Y-111268160D01*
X141294285Y-111268160D02*
X141222856Y-111344351D01*
X141222856Y-111344351D02*
X141151427Y-111496732D01*
X141151427Y-111496732D02*
X141151427Y-111687208D01*
X141151427Y-111687208D02*
X141222856Y-111839589D01*
X141222856Y-111839589D02*
X141294285Y-111915779D01*
X141294285Y-111915779D02*
X141365713Y-111953875D01*
X141365713Y-111953875D02*
X141508570Y-111991970D01*
X141508570Y-111991970D02*
X141651427Y-111991970D01*
X141651427Y-111991970D02*
X141794285Y-111953875D01*
X141794285Y-111953875D02*
X141865713Y-111915779D01*
X141865713Y-111915779D02*
X141937142Y-111839589D01*
X141937142Y-111839589D02*
X142008570Y-111687208D01*
X142008570Y-111687208D02*
X142008570Y-111496732D01*
X142008570Y-111496732D02*
X141937142Y-111344351D01*
X141937142Y-111344351D02*
X141865713Y-111268160D01*
X141865713Y-111268160D02*
X141794285Y-111230065D01*
X141794285Y-111230065D02*
X141651427Y-111191970D01*
X140579999Y-111268160D02*
X140508571Y-111230065D01*
X140508571Y-111230065D02*
X140365714Y-111191970D01*
X140365714Y-111191970D02*
X140008571Y-111191970D01*
X140008571Y-111191970D02*
X139865714Y-111230065D01*
X139865714Y-111230065D02*
X139794285Y-111268160D01*
X139794285Y-111268160D02*
X139722856Y-111344351D01*
X139722856Y-111344351D02*
X139722856Y-111420541D01*
X139722856Y-111420541D02*
X139794285Y-111534827D01*
X139794285Y-111534827D02*
X140651428Y-111991970D01*
X140651428Y-111991970D02*
X139722856Y-111991970D01*
X138365714Y-111191970D02*
X139080000Y-111191970D01*
X139080000Y-111191970D02*
X139151428Y-111572922D01*
X139151428Y-111572922D02*
X139080000Y-111534827D01*
X139080000Y-111534827D02*
X138937143Y-111496732D01*
X138937143Y-111496732D02*
X138580000Y-111496732D01*
X138580000Y-111496732D02*
X138437143Y-111534827D01*
X138437143Y-111534827D02*
X138365714Y-111572922D01*
X138365714Y-111572922D02*
X138294285Y-111649113D01*
X138294285Y-111649113D02*
X138294285Y-111839589D01*
X138294285Y-111839589D02*
X138365714Y-111915779D01*
X138365714Y-111915779D02*
X138437143Y-111953875D01*
X138437143Y-111953875D02*
X138580000Y-111991970D01*
X138580000Y-111991970D02*
X138937143Y-111991970D01*
X138937143Y-111991970D02*
X139080000Y-111953875D01*
X139080000Y-111953875D02*
X139151428Y-111915779D01*
D11*
X150833332Y-115584819D02*
X150833332Y-114584819D01*
X150833332Y-114584819D02*
X150499999Y-115299104D01*
X150499999Y-115299104D02*
X150166666Y-114584819D01*
X150166666Y-114584819D02*
X150166666Y-115584819D01*
X153325713Y-115584819D02*
X153325713Y-114584819D01*
X153325713Y-114584819D02*
X152754285Y-115584819D01*
X152754285Y-115584819D02*
X152754285Y-114584819D01*
D10*
X169200406Y-84653904D02*
X169200406Y-84702285D01*
X169200406Y-84702285D02*
X169224596Y-84750666D01*
X169224596Y-84750666D02*
X169248787Y-84774856D01*
X169248787Y-84774856D02*
X169297168Y-84799047D01*
X169297168Y-84799047D02*
X169393930Y-84823237D01*
X169393930Y-84823237D02*
X169514882Y-84823237D01*
X169514882Y-84823237D02*
X169611644Y-84799047D01*
X169611644Y-84799047D02*
X169660025Y-84774856D01*
X169660025Y-84774856D02*
X169684216Y-84750666D01*
X169684216Y-84750666D02*
X169708406Y-84702285D01*
X169708406Y-84702285D02*
X169708406Y-84653904D01*
X169708406Y-84653904D02*
X169684216Y-84605523D01*
X169684216Y-84605523D02*
X169660025Y-84581332D01*
X169660025Y-84581332D02*
X169611644Y-84557142D01*
X169611644Y-84557142D02*
X169514882Y-84532951D01*
X169514882Y-84532951D02*
X169393930Y-84532951D01*
X169393930Y-84532951D02*
X169297168Y-84557142D01*
X169297168Y-84557142D02*
X169248787Y-84581332D01*
X169248787Y-84581332D02*
X169224596Y-84605523D01*
X169224596Y-84605523D02*
X169200406Y-84653904D01*
X169248787Y-85016761D02*
X169224596Y-85040952D01*
X169224596Y-85040952D02*
X169200406Y-85089333D01*
X169200406Y-85089333D02*
X169200406Y-85210285D01*
X169200406Y-85210285D02*
X169224596Y-85258666D01*
X169224596Y-85258666D02*
X169248787Y-85282857D01*
X169248787Y-85282857D02*
X169297168Y-85307047D01*
X169297168Y-85307047D02*
X169345549Y-85307047D01*
X169345549Y-85307047D02*
X169418120Y-85282857D01*
X169418120Y-85282857D02*
X169708406Y-84992571D01*
X169708406Y-84992571D02*
X169708406Y-85307047D01*
D11*
X153325713Y-78074819D02*
X153325713Y-77074819D01*
X153325713Y-77074819D02*
X152754285Y-78074819D01*
X152754285Y-78074819D02*
X152754285Y-77074819D01*
X166025713Y-115537200D02*
X165882856Y-115584819D01*
X165882856Y-115584819D02*
X165644761Y-115584819D01*
X165644761Y-115584819D02*
X165549523Y-115537200D01*
X165549523Y-115537200D02*
X165501904Y-115489580D01*
X165501904Y-115489580D02*
X165454285Y-115394342D01*
X165454285Y-115394342D02*
X165454285Y-115299104D01*
X165454285Y-115299104D02*
X165501904Y-115203866D01*
X165501904Y-115203866D02*
X165549523Y-115156247D01*
X165549523Y-115156247D02*
X165644761Y-115108628D01*
X165644761Y-115108628D02*
X165835237Y-115061009D01*
X165835237Y-115061009D02*
X165930475Y-115013390D01*
X165930475Y-115013390D02*
X165978094Y-114965771D01*
X165978094Y-114965771D02*
X166025713Y-114870533D01*
X166025713Y-114870533D02*
X166025713Y-114775295D01*
X166025713Y-114775295D02*
X165978094Y-114680057D01*
X165978094Y-114680057D02*
X165930475Y-114632438D01*
X165930475Y-114632438D02*
X165835237Y-114584819D01*
X165835237Y-114584819D02*
X165597142Y-114584819D01*
X165597142Y-114584819D02*
X165454285Y-114632438D01*
X134998095Y-77122438D02*
X135093333Y-77074819D01*
X135093333Y-77074819D02*
X135236190Y-77074819D01*
X135236190Y-77074819D02*
X135379047Y-77122438D01*
X135379047Y-77122438D02*
X135474285Y-77217676D01*
X135474285Y-77217676D02*
X135521904Y-77312914D01*
X135521904Y-77312914D02*
X135569523Y-77503390D01*
X135569523Y-77503390D02*
X135569523Y-77646247D01*
X135569523Y-77646247D02*
X135521904Y-77836723D01*
X135521904Y-77836723D02*
X135474285Y-77931961D01*
X135474285Y-77931961D02*
X135379047Y-78027200D01*
X135379047Y-78027200D02*
X135236190Y-78074819D01*
X135236190Y-78074819D02*
X135140952Y-78074819D01*
X135140952Y-78074819D02*
X134998095Y-78027200D01*
X134998095Y-78027200D02*
X134950476Y-77979580D01*
X134950476Y-77979580D02*
X134950476Y-77646247D01*
X134950476Y-77646247D02*
X135140952Y-77646247D01*
X160279047Y-78170057D02*
X160374285Y-78122438D01*
X160374285Y-78122438D02*
X160469523Y-78027200D01*
X160469523Y-78027200D02*
X160612380Y-77884342D01*
X160612380Y-77884342D02*
X160707618Y-77836723D01*
X160707618Y-77836723D02*
X160802856Y-77836723D01*
X160755237Y-78074819D02*
X160850475Y-78027200D01*
X160850475Y-78027200D02*
X160945713Y-77931961D01*
X160945713Y-77931961D02*
X160993332Y-77741485D01*
X160993332Y-77741485D02*
X160993332Y-77408152D01*
X160993332Y-77408152D02*
X160945713Y-77217676D01*
X160945713Y-77217676D02*
X160850475Y-77122438D01*
X160850475Y-77122438D02*
X160755237Y-77074819D01*
X160755237Y-77074819D02*
X160564761Y-77074819D01*
X160564761Y-77074819D02*
X160469523Y-77122438D01*
X160469523Y-77122438D02*
X160374285Y-77217676D01*
X160374285Y-77217676D02*
X160326666Y-77408152D01*
X160326666Y-77408152D02*
X160326666Y-77741485D01*
X160326666Y-77741485D02*
X160374285Y-77931961D01*
X160374285Y-77931961D02*
X160469523Y-78027200D01*
X160469523Y-78027200D02*
X160564761Y-78074819D01*
X160564761Y-78074819D02*
X160755237Y-78074819D01*
X142737142Y-114584819D02*
X142737142Y-115299104D01*
X142737142Y-115299104D02*
X142784761Y-115441961D01*
X142784761Y-115441961D02*
X142879999Y-115537200D01*
X142879999Y-115537200D02*
X143022856Y-115584819D01*
X143022856Y-115584819D02*
X143118094Y-115584819D01*
X130394285Y-115061009D02*
X130060952Y-115061009D01*
X129918095Y-115584819D02*
X130394285Y-115584819D01*
X130394285Y-115584819D02*
X130394285Y-114584819D01*
X130394285Y-114584819D02*
X129918095Y-114584819D01*
D10*
X119049593Y-97926095D02*
X119049593Y-97877714D01*
X119049593Y-97877714D02*
X119025403Y-97829333D01*
X119025403Y-97829333D02*
X119001212Y-97805143D01*
X119001212Y-97805143D02*
X118952831Y-97780952D01*
X118952831Y-97780952D02*
X118856069Y-97756762D01*
X118856069Y-97756762D02*
X118735117Y-97756762D01*
X118735117Y-97756762D02*
X118638355Y-97780952D01*
X118638355Y-97780952D02*
X118589974Y-97805143D01*
X118589974Y-97805143D02*
X118565784Y-97829333D01*
X118565784Y-97829333D02*
X118541593Y-97877714D01*
X118541593Y-97877714D02*
X118541593Y-97926095D01*
X118541593Y-97926095D02*
X118565784Y-97974476D01*
X118565784Y-97974476D02*
X118589974Y-97998667D01*
X118589974Y-97998667D02*
X118638355Y-98022857D01*
X118638355Y-98022857D02*
X118735117Y-98047048D01*
X118735117Y-98047048D02*
X118856069Y-98047048D01*
X118856069Y-98047048D02*
X118952831Y-98022857D01*
X118952831Y-98022857D02*
X119001212Y-97998667D01*
X119001212Y-97998667D02*
X119025403Y-97974476D01*
X119025403Y-97974476D02*
X119049593Y-97926095D01*
X119049593Y-97587428D02*
X119049593Y-97248761D01*
X119049593Y-97248761D02*
X118541593Y-97466476D01*
D11*
X122488571Y-115061009D02*
X122345714Y-115108628D01*
X122345714Y-115108628D02*
X122298095Y-115156247D01*
X122298095Y-115156247D02*
X122250476Y-115251485D01*
X122250476Y-115251485D02*
X122250476Y-115394342D01*
X122250476Y-115394342D02*
X122298095Y-115489580D01*
X122298095Y-115489580D02*
X122345714Y-115537200D01*
X122345714Y-115537200D02*
X122440952Y-115584819D01*
X122440952Y-115584819D02*
X122821904Y-115584819D01*
X122821904Y-115584819D02*
X122821904Y-114584819D01*
X122821904Y-114584819D02*
X122488571Y-114584819D01*
X122488571Y-114584819D02*
X122393333Y-114632438D01*
X122393333Y-114632438D02*
X122345714Y-114680057D01*
X122345714Y-114680057D02*
X122298095Y-114775295D01*
X122298095Y-114775295D02*
X122298095Y-114870533D01*
X122298095Y-114870533D02*
X122345714Y-114965771D01*
X122345714Y-114965771D02*
X122393333Y-115013390D01*
X122393333Y-115013390D02*
X122488571Y-115061009D01*
X122488571Y-115061009D02*
X122821904Y-115061009D01*
D10*
X169708406Y-107683237D02*
X169708406Y-107392951D01*
X169708406Y-107538094D02*
X169200406Y-107538094D01*
X169200406Y-107538094D02*
X169272977Y-107489713D01*
X169272977Y-107489713D02*
X169321358Y-107441332D01*
X169321358Y-107441332D02*
X169345549Y-107392951D01*
X169708406Y-108167047D02*
X169708406Y-107876761D01*
X169708406Y-108021904D02*
X169200406Y-108021904D01*
X169200406Y-108021904D02*
X169272977Y-107973523D01*
X169272977Y-107973523D02*
X169321358Y-107925142D01*
X169321358Y-107925142D02*
X169345549Y-107876761D01*
X169200406Y-99893904D02*
X169200406Y-99942285D01*
X169200406Y-99942285D02*
X169224596Y-99990666D01*
X169224596Y-99990666D02*
X169248787Y-100014856D01*
X169248787Y-100014856D02*
X169297168Y-100039047D01*
X169297168Y-100039047D02*
X169393930Y-100063237D01*
X169393930Y-100063237D02*
X169514882Y-100063237D01*
X169514882Y-100063237D02*
X169611644Y-100039047D01*
X169611644Y-100039047D02*
X169660025Y-100014856D01*
X169660025Y-100014856D02*
X169684216Y-99990666D01*
X169684216Y-99990666D02*
X169708406Y-99942285D01*
X169708406Y-99942285D02*
X169708406Y-99893904D01*
X169708406Y-99893904D02*
X169684216Y-99845523D01*
X169684216Y-99845523D02*
X169660025Y-99821332D01*
X169660025Y-99821332D02*
X169611644Y-99797142D01*
X169611644Y-99797142D02*
X169514882Y-99772951D01*
X169514882Y-99772951D02*
X169393930Y-99772951D01*
X169393930Y-99772951D02*
X169297168Y-99797142D01*
X169297168Y-99797142D02*
X169248787Y-99821332D01*
X169248787Y-99821332D02*
X169224596Y-99845523D01*
X169224596Y-99845523D02*
X169200406Y-99893904D01*
X169418120Y-100353523D02*
X169393930Y-100305142D01*
X169393930Y-100305142D02*
X169369739Y-100280952D01*
X169369739Y-100280952D02*
X169321358Y-100256761D01*
X169321358Y-100256761D02*
X169297168Y-100256761D01*
X169297168Y-100256761D02*
X169248787Y-100280952D01*
X169248787Y-100280952D02*
X169224596Y-100305142D01*
X169224596Y-100305142D02*
X169200406Y-100353523D01*
X169200406Y-100353523D02*
X169200406Y-100450285D01*
X169200406Y-100450285D02*
X169224596Y-100498666D01*
X169224596Y-100498666D02*
X169248787Y-100522857D01*
X169248787Y-100522857D02*
X169297168Y-100547047D01*
X169297168Y-100547047D02*
X169321358Y-100547047D01*
X169321358Y-100547047D02*
X169369739Y-100522857D01*
X169369739Y-100522857D02*
X169393930Y-100498666D01*
X169393930Y-100498666D02*
X169418120Y-100450285D01*
X169418120Y-100450285D02*
X169418120Y-100353523D01*
X169418120Y-100353523D02*
X169442311Y-100305142D01*
X169442311Y-100305142D02*
X169466501Y-100280952D01*
X169466501Y-100280952D02*
X169514882Y-100256761D01*
X169514882Y-100256761D02*
X169611644Y-100256761D01*
X169611644Y-100256761D02*
X169660025Y-100280952D01*
X169660025Y-100280952D02*
X169684216Y-100305142D01*
X169684216Y-100305142D02*
X169708406Y-100353523D01*
X169708406Y-100353523D02*
X169708406Y-100450285D01*
X169708406Y-100450285D02*
X169684216Y-100498666D01*
X169684216Y-100498666D02*
X169660025Y-100522857D01*
X169660025Y-100522857D02*
X169611644Y-100547047D01*
X169611644Y-100547047D02*
X169514882Y-100547047D01*
X169514882Y-100547047D02*
X169466501Y-100522857D01*
X169466501Y-100522857D02*
X169442311Y-100498666D01*
X169442311Y-100498666D02*
X169418120Y-100450285D01*
D11*
X132577142Y-77551009D02*
X132910475Y-77551009D01*
X132910475Y-78074819D02*
X132910475Y-77074819D01*
X132910475Y-77074819D02*
X132434285Y-77074819D01*
D10*
X169200406Y-89733904D02*
X169200406Y-89782285D01*
X169200406Y-89782285D02*
X169224596Y-89830666D01*
X169224596Y-89830666D02*
X169248787Y-89854856D01*
X169248787Y-89854856D02*
X169297168Y-89879047D01*
X169297168Y-89879047D02*
X169393930Y-89903237D01*
X169393930Y-89903237D02*
X169514882Y-89903237D01*
X169514882Y-89903237D02*
X169611644Y-89879047D01*
X169611644Y-89879047D02*
X169660025Y-89854856D01*
X169660025Y-89854856D02*
X169684216Y-89830666D01*
X169684216Y-89830666D02*
X169708406Y-89782285D01*
X169708406Y-89782285D02*
X169708406Y-89733904D01*
X169708406Y-89733904D02*
X169684216Y-89685523D01*
X169684216Y-89685523D02*
X169660025Y-89661332D01*
X169660025Y-89661332D02*
X169611644Y-89637142D01*
X169611644Y-89637142D02*
X169514882Y-89612951D01*
X169514882Y-89612951D02*
X169393930Y-89612951D01*
X169393930Y-89612951D02*
X169297168Y-89637142D01*
X169297168Y-89637142D02*
X169248787Y-89661332D01*
X169248787Y-89661332D02*
X169224596Y-89685523D01*
X169224596Y-89685523D02*
X169200406Y-89733904D01*
X169369739Y-90338666D02*
X169708406Y-90338666D01*
X169176216Y-90217714D02*
X169539073Y-90096761D01*
X169539073Y-90096761D02*
X169539073Y-90411238D01*
X119049593Y-95386095D02*
X119049593Y-95337714D01*
X119049593Y-95337714D02*
X119025403Y-95289333D01*
X119025403Y-95289333D02*
X119001212Y-95265143D01*
X119001212Y-95265143D02*
X118952831Y-95240952D01*
X118952831Y-95240952D02*
X118856069Y-95216762D01*
X118856069Y-95216762D02*
X118735117Y-95216762D01*
X118735117Y-95216762D02*
X118638355Y-95240952D01*
X118638355Y-95240952D02*
X118589974Y-95265143D01*
X118589974Y-95265143D02*
X118565784Y-95289333D01*
X118565784Y-95289333D02*
X118541593Y-95337714D01*
X118541593Y-95337714D02*
X118541593Y-95386095D01*
X118541593Y-95386095D02*
X118565784Y-95434476D01*
X118565784Y-95434476D02*
X118589974Y-95458667D01*
X118589974Y-95458667D02*
X118638355Y-95482857D01*
X118638355Y-95482857D02*
X118735117Y-95507048D01*
X118735117Y-95507048D02*
X118856069Y-95507048D01*
X118856069Y-95507048D02*
X118952831Y-95482857D01*
X118952831Y-95482857D02*
X119001212Y-95458667D01*
X119001212Y-95458667D02*
X119025403Y-95434476D01*
X119025403Y-95434476D02*
X119049593Y-95386095D01*
X119049593Y-94781333D02*
X119049593Y-94878095D01*
X119049593Y-94878095D02*
X119025403Y-94926476D01*
X119025403Y-94926476D02*
X119001212Y-94950666D01*
X119001212Y-94950666D02*
X118928641Y-94999047D01*
X118928641Y-94999047D02*
X118831879Y-95023238D01*
X118831879Y-95023238D02*
X118638355Y-95023238D01*
X118638355Y-95023238D02*
X118589974Y-94999047D01*
X118589974Y-94999047D02*
X118565784Y-94974857D01*
X118565784Y-94974857D02*
X118541593Y-94926476D01*
X118541593Y-94926476D02*
X118541593Y-94829714D01*
X118541593Y-94829714D02*
X118565784Y-94781333D01*
X118565784Y-94781333D02*
X118589974Y-94757142D01*
X118589974Y-94757142D02*
X118638355Y-94732952D01*
X118638355Y-94732952D02*
X118759307Y-94732952D01*
X118759307Y-94732952D02*
X118807688Y-94757142D01*
X118807688Y-94757142D02*
X118831879Y-94781333D01*
X118831879Y-94781333D02*
X118856069Y-94829714D01*
X118856069Y-94829714D02*
X118856069Y-94926476D01*
X118856069Y-94926476D02*
X118831879Y-94974857D01*
X118831879Y-94974857D02*
X118807688Y-94999047D01*
X118807688Y-94999047D02*
X118759307Y-95023238D01*
X119049593Y-103006095D02*
X119049593Y-102957714D01*
X119049593Y-102957714D02*
X119025403Y-102909333D01*
X119025403Y-102909333D02*
X119001212Y-102885143D01*
X119001212Y-102885143D02*
X118952831Y-102860952D01*
X118952831Y-102860952D02*
X118856069Y-102836762D01*
X118856069Y-102836762D02*
X118735117Y-102836762D01*
X118735117Y-102836762D02*
X118638355Y-102860952D01*
X118638355Y-102860952D02*
X118589974Y-102885143D01*
X118589974Y-102885143D02*
X118565784Y-102909333D01*
X118565784Y-102909333D02*
X118541593Y-102957714D01*
X118541593Y-102957714D02*
X118541593Y-103006095D01*
X118541593Y-103006095D02*
X118565784Y-103054476D01*
X118565784Y-103054476D02*
X118589974Y-103078667D01*
X118589974Y-103078667D02*
X118638355Y-103102857D01*
X118638355Y-103102857D02*
X118735117Y-103127048D01*
X118735117Y-103127048D02*
X118856069Y-103127048D01*
X118856069Y-103127048D02*
X118952831Y-103102857D01*
X118952831Y-103102857D02*
X119001212Y-103078667D01*
X119001212Y-103078667D02*
X119025403Y-103054476D01*
X119025403Y-103054476D02*
X119049593Y-103006095D01*
X118541593Y-102594857D02*
X118541593Y-102498095D01*
X118541593Y-102498095D02*
X118565784Y-102449714D01*
X118565784Y-102449714D02*
X118589974Y-102425523D01*
X118589974Y-102425523D02*
X118662545Y-102377142D01*
X118662545Y-102377142D02*
X118759307Y-102352952D01*
X118759307Y-102352952D02*
X118952831Y-102352952D01*
X118952831Y-102352952D02*
X119001212Y-102377142D01*
X119001212Y-102377142D02*
X119025403Y-102401333D01*
X119025403Y-102401333D02*
X119049593Y-102449714D01*
X119049593Y-102449714D02*
X119049593Y-102546476D01*
X119049593Y-102546476D02*
X119025403Y-102594857D01*
X119025403Y-102594857D02*
X119001212Y-102619047D01*
X119001212Y-102619047D02*
X118952831Y-102643238D01*
X118952831Y-102643238D02*
X118831879Y-102643238D01*
X118831879Y-102643238D02*
X118783498Y-102619047D01*
X118783498Y-102619047D02*
X118759307Y-102594857D01*
X118759307Y-102594857D02*
X118735117Y-102546476D01*
X118735117Y-102546476D02*
X118735117Y-102449714D01*
X118735117Y-102449714D02*
X118759307Y-102401333D01*
X118759307Y-102401333D02*
X118783498Y-102377142D01*
X118783498Y-102377142D02*
X118831879Y-102352952D01*
D11*
X162890476Y-78074819D02*
X163223809Y-77598628D01*
X163461904Y-78074819D02*
X163461904Y-77074819D01*
X163461904Y-77074819D02*
X163080952Y-77074819D01*
X163080952Y-77074819D02*
X162985714Y-77122438D01*
X162985714Y-77122438D02*
X162938095Y-77170057D01*
X162938095Y-77170057D02*
X162890476Y-77265295D01*
X162890476Y-77265295D02*
X162890476Y-77408152D01*
X162890476Y-77408152D02*
X162938095Y-77503390D01*
X162938095Y-77503390D02*
X162985714Y-77551009D01*
X162985714Y-77551009D02*
X163080952Y-77598628D01*
X163080952Y-77598628D02*
X163461904Y-77598628D01*
X168565713Y-77074819D02*
X167994285Y-77074819D01*
X168279999Y-78074819D02*
X168279999Y-77074819D01*
X166025713Y-78027200D02*
X165882856Y-78074819D01*
X165882856Y-78074819D02*
X165644761Y-78074819D01*
X165644761Y-78074819D02*
X165549523Y-78027200D01*
X165549523Y-78027200D02*
X165501904Y-77979580D01*
X165501904Y-77979580D02*
X165454285Y-77884342D01*
X165454285Y-77884342D02*
X165454285Y-77789104D01*
X165454285Y-77789104D02*
X165501904Y-77693866D01*
X165501904Y-77693866D02*
X165549523Y-77646247D01*
X165549523Y-77646247D02*
X165644761Y-77598628D01*
X165644761Y-77598628D02*
X165835237Y-77551009D01*
X165835237Y-77551009D02*
X165930475Y-77503390D01*
X165930475Y-77503390D02*
X165978094Y-77455771D01*
X165978094Y-77455771D02*
X166025713Y-77360533D01*
X166025713Y-77360533D02*
X166025713Y-77265295D01*
X166025713Y-77265295D02*
X165978094Y-77170057D01*
X165978094Y-77170057D02*
X165930475Y-77122438D01*
X165930475Y-77122438D02*
X165835237Y-77074819D01*
X165835237Y-77074819D02*
X165597142Y-77074819D01*
X165597142Y-77074819D02*
X165454285Y-77122438D01*
X124820476Y-115489580D02*
X124868095Y-115537200D01*
X124868095Y-115537200D02*
X125010952Y-115584819D01*
X125010952Y-115584819D02*
X125106190Y-115584819D01*
X125106190Y-115584819D02*
X125249047Y-115537200D01*
X125249047Y-115537200D02*
X125344285Y-115441961D01*
X125344285Y-115441961D02*
X125391904Y-115346723D01*
X125391904Y-115346723D02*
X125439523Y-115156247D01*
X125439523Y-115156247D02*
X125439523Y-115013390D01*
X125439523Y-115013390D02*
X125391904Y-114822914D01*
X125391904Y-114822914D02*
X125344285Y-114727676D01*
X125344285Y-114727676D02*
X125249047Y-114632438D01*
X125249047Y-114632438D02*
X125106190Y-114584819D01*
X125106190Y-114584819D02*
X125010952Y-114584819D01*
X125010952Y-114584819D02*
X124868095Y-114632438D01*
X124868095Y-114632438D02*
X124820476Y-114680057D01*
X122488571Y-77551009D02*
X122345714Y-77598628D01*
X122345714Y-77598628D02*
X122298095Y-77646247D01*
X122298095Y-77646247D02*
X122250476Y-77741485D01*
X122250476Y-77741485D02*
X122250476Y-77884342D01*
X122250476Y-77884342D02*
X122298095Y-77979580D01*
X122298095Y-77979580D02*
X122345714Y-78027200D01*
X122345714Y-78027200D02*
X122440952Y-78074819D01*
X122440952Y-78074819D02*
X122821904Y-78074819D01*
X122821904Y-78074819D02*
X122821904Y-77074819D01*
X122821904Y-77074819D02*
X122488571Y-77074819D01*
X122488571Y-77074819D02*
X122393333Y-77122438D01*
X122393333Y-77122438D02*
X122345714Y-77170057D01*
X122345714Y-77170057D02*
X122298095Y-77265295D01*
X122298095Y-77265295D02*
X122298095Y-77360533D01*
X122298095Y-77360533D02*
X122345714Y-77455771D01*
X122345714Y-77455771D02*
X122393333Y-77503390D01*
X122393333Y-77503390D02*
X122488571Y-77551009D01*
X122488571Y-77551009D02*
X122821904Y-77551009D01*
X124790476Y-77979580D02*
X124838095Y-78027200D01*
X124838095Y-78027200D02*
X124980952Y-78074819D01*
X124980952Y-78074819D02*
X125076190Y-78074819D01*
X125076190Y-78074819D02*
X125219047Y-78027200D01*
X125219047Y-78027200D02*
X125314285Y-77931961D01*
X125314285Y-77931961D02*
X125361904Y-77836723D01*
X125361904Y-77836723D02*
X125409523Y-77646247D01*
X125409523Y-77646247D02*
X125409523Y-77503390D01*
X125409523Y-77503390D02*
X125361904Y-77312914D01*
X125361904Y-77312914D02*
X125314285Y-77217676D01*
X125314285Y-77217676D02*
X125219047Y-77122438D01*
X125219047Y-77122438D02*
X125076190Y-77074819D01*
X125076190Y-77074819D02*
X124980952Y-77074819D01*
X124980952Y-77074819D02*
X124838095Y-77122438D01*
X124838095Y-77122438D02*
X124790476Y-77170057D01*
X127901904Y-115584819D02*
X127901904Y-114584819D01*
X127901904Y-114584819D02*
X127663809Y-114584819D01*
X127663809Y-114584819D02*
X127520952Y-114632438D01*
X127520952Y-114632438D02*
X127425714Y-114727676D01*
X127425714Y-114727676D02*
X127378095Y-114822914D01*
X127378095Y-114822914D02*
X127330476Y-115013390D01*
X127330476Y-115013390D02*
X127330476Y-115156247D01*
X127330476Y-115156247D02*
X127378095Y-115346723D01*
X127378095Y-115346723D02*
X127425714Y-115441961D01*
X127425714Y-115441961D02*
X127520952Y-115537200D01*
X127520952Y-115537200D02*
X127663809Y-115584819D01*
X127663809Y-115584819D02*
X127901904Y-115584819D01*
X147650476Y-115584819D02*
X148126666Y-115584819D01*
X148126666Y-115584819D02*
X148126666Y-114584819D01*
X120268094Y-115299104D02*
X119791904Y-115299104D01*
X120363332Y-115584819D02*
X120029999Y-114584819D01*
X120029999Y-114584819D02*
X119696666Y-115584819D01*
D10*
X169200406Y-87193904D02*
X169200406Y-87242285D01*
X169200406Y-87242285D02*
X169224596Y-87290666D01*
X169224596Y-87290666D02*
X169248787Y-87314856D01*
X169248787Y-87314856D02*
X169297168Y-87339047D01*
X169297168Y-87339047D02*
X169393930Y-87363237D01*
X169393930Y-87363237D02*
X169514882Y-87363237D01*
X169514882Y-87363237D02*
X169611644Y-87339047D01*
X169611644Y-87339047D02*
X169660025Y-87314856D01*
X169660025Y-87314856D02*
X169684216Y-87290666D01*
X169684216Y-87290666D02*
X169708406Y-87242285D01*
X169708406Y-87242285D02*
X169708406Y-87193904D01*
X169708406Y-87193904D02*
X169684216Y-87145523D01*
X169684216Y-87145523D02*
X169660025Y-87121332D01*
X169660025Y-87121332D02*
X169611644Y-87097142D01*
X169611644Y-87097142D02*
X169514882Y-87072951D01*
X169514882Y-87072951D02*
X169393930Y-87072951D01*
X169393930Y-87072951D02*
X169297168Y-87097142D01*
X169297168Y-87097142D02*
X169248787Y-87121332D01*
X169248787Y-87121332D02*
X169224596Y-87145523D01*
X169224596Y-87145523D02*
X169200406Y-87193904D01*
X169200406Y-87532571D02*
X169200406Y-87847047D01*
X169200406Y-87847047D02*
X169393930Y-87677714D01*
X169393930Y-87677714D02*
X169393930Y-87750285D01*
X169393930Y-87750285D02*
X169418120Y-87798666D01*
X169418120Y-87798666D02*
X169442311Y-87822857D01*
X169442311Y-87822857D02*
X169490692Y-87847047D01*
X169490692Y-87847047D02*
X169611644Y-87847047D01*
X169611644Y-87847047D02*
X169660025Y-87822857D01*
X169660025Y-87822857D02*
X169684216Y-87798666D01*
X169684216Y-87798666D02*
X169708406Y-87750285D01*
X169708406Y-87750285D02*
X169708406Y-87605142D01*
X169708406Y-87605142D02*
X169684216Y-87556761D01*
X169684216Y-87556761D02*
X169660025Y-87532571D01*
X119049593Y-92846095D02*
X119049593Y-92797714D01*
X119049593Y-92797714D02*
X119025403Y-92749333D01*
X119025403Y-92749333D02*
X119001212Y-92725143D01*
X119001212Y-92725143D02*
X118952831Y-92700952D01*
X118952831Y-92700952D02*
X118856069Y-92676762D01*
X118856069Y-92676762D02*
X118735117Y-92676762D01*
X118735117Y-92676762D02*
X118638355Y-92700952D01*
X118638355Y-92700952D02*
X118589974Y-92725143D01*
X118589974Y-92725143D02*
X118565784Y-92749333D01*
X118565784Y-92749333D02*
X118541593Y-92797714D01*
X118541593Y-92797714D02*
X118541593Y-92846095D01*
X118541593Y-92846095D02*
X118565784Y-92894476D01*
X118565784Y-92894476D02*
X118589974Y-92918667D01*
X118589974Y-92918667D02*
X118638355Y-92942857D01*
X118638355Y-92942857D02*
X118735117Y-92967048D01*
X118735117Y-92967048D02*
X118856069Y-92967048D01*
X118856069Y-92967048D02*
X118952831Y-92942857D01*
X118952831Y-92942857D02*
X119001212Y-92918667D01*
X119001212Y-92918667D02*
X119025403Y-92894476D01*
X119025403Y-92894476D02*
X119049593Y-92846095D01*
X119049593Y-92217142D02*
X119049593Y-92459047D01*
X119049593Y-92459047D02*
X118807688Y-92483238D01*
X118807688Y-92483238D02*
X118831879Y-92459047D01*
X118831879Y-92459047D02*
X118856069Y-92410666D01*
X118856069Y-92410666D02*
X118856069Y-92289714D01*
X118856069Y-92289714D02*
X118831879Y-92241333D01*
X118831879Y-92241333D02*
X118807688Y-92217142D01*
X118807688Y-92217142D02*
X118759307Y-92192952D01*
X118759307Y-92192952D02*
X118638355Y-92192952D01*
X118638355Y-92192952D02*
X118589974Y-92217142D01*
X118589974Y-92217142D02*
X118565784Y-92241333D01*
X118565784Y-92241333D02*
X118541593Y-92289714D01*
X118541593Y-92289714D02*
X118541593Y-92410666D01*
X118541593Y-92410666D02*
X118565784Y-92459047D01*
X118565784Y-92459047D02*
X118589974Y-92483238D01*
D11*
X140339999Y-78074819D02*
X140339999Y-77074819D01*
X127901904Y-78074819D02*
X127901904Y-77074819D01*
X127901904Y-77074819D02*
X127663809Y-77074819D01*
X127663809Y-77074819D02*
X127520952Y-77122438D01*
X127520952Y-77122438D02*
X127425714Y-77217676D01*
X127425714Y-77217676D02*
X127378095Y-77312914D01*
X127378095Y-77312914D02*
X127330476Y-77503390D01*
X127330476Y-77503390D02*
X127330476Y-77646247D01*
X127330476Y-77646247D02*
X127378095Y-77836723D01*
X127378095Y-77836723D02*
X127425714Y-77931961D01*
X127425714Y-77931961D02*
X127520952Y-78027200D01*
X127520952Y-78027200D02*
X127663809Y-78074819D01*
X127663809Y-78074819D02*
X127901904Y-78074819D01*
X147650476Y-78074819D02*
X148126666Y-78074819D01*
X148126666Y-78074819D02*
X148126666Y-77074819D01*
X145691904Y-115584819D02*
X145691904Y-114584819D01*
X145120476Y-115584819D02*
X145549047Y-115013390D01*
X145120476Y-114584819D02*
X145691904Y-115156247D01*
X155675237Y-114584819D02*
X155484761Y-114584819D01*
X155484761Y-114584819D02*
X155389523Y-114632438D01*
X155389523Y-114632438D02*
X155294285Y-114727676D01*
X155294285Y-114727676D02*
X155246666Y-114918152D01*
X155246666Y-114918152D02*
X155246666Y-115251485D01*
X155246666Y-115251485D02*
X155294285Y-115441961D01*
X155294285Y-115441961D02*
X155389523Y-115537200D01*
X155389523Y-115537200D02*
X155484761Y-115584819D01*
X155484761Y-115584819D02*
X155675237Y-115584819D01*
X155675237Y-115584819D02*
X155770475Y-115537200D01*
X155770475Y-115537200D02*
X155865713Y-115441961D01*
X155865713Y-115441961D02*
X155913332Y-115251485D01*
X155913332Y-115251485D02*
X155913332Y-114918152D01*
X155913332Y-114918152D02*
X155865713Y-114727676D01*
X155865713Y-114727676D02*
X155770475Y-114632438D01*
X155770475Y-114632438D02*
X155675237Y-114584819D01*
D10*
X169200406Y-92273904D02*
X169200406Y-92322285D01*
X169200406Y-92322285D02*
X169224596Y-92370666D01*
X169224596Y-92370666D02*
X169248787Y-92394856D01*
X169248787Y-92394856D02*
X169297168Y-92419047D01*
X169297168Y-92419047D02*
X169393930Y-92443237D01*
X169393930Y-92443237D02*
X169514882Y-92443237D01*
X169514882Y-92443237D02*
X169611644Y-92419047D01*
X169611644Y-92419047D02*
X169660025Y-92394856D01*
X169660025Y-92394856D02*
X169684216Y-92370666D01*
X169684216Y-92370666D02*
X169708406Y-92322285D01*
X169708406Y-92322285D02*
X169708406Y-92273904D01*
X169708406Y-92273904D02*
X169684216Y-92225523D01*
X169684216Y-92225523D02*
X169660025Y-92201332D01*
X169660025Y-92201332D02*
X169611644Y-92177142D01*
X169611644Y-92177142D02*
X169514882Y-92152951D01*
X169514882Y-92152951D02*
X169393930Y-92152951D01*
X169393930Y-92152951D02*
X169297168Y-92177142D01*
X169297168Y-92177142D02*
X169248787Y-92201332D01*
X169248787Y-92201332D02*
X169224596Y-92225523D01*
X169224596Y-92225523D02*
X169200406Y-92273904D01*
X169200406Y-92902857D02*
X169200406Y-92660952D01*
X169200406Y-92660952D02*
X169442311Y-92636761D01*
X169442311Y-92636761D02*
X169418120Y-92660952D01*
X169418120Y-92660952D02*
X169393930Y-92709333D01*
X169393930Y-92709333D02*
X169393930Y-92830285D01*
X169393930Y-92830285D02*
X169418120Y-92878666D01*
X169418120Y-92878666D02*
X169442311Y-92902857D01*
X169442311Y-92902857D02*
X169490692Y-92927047D01*
X169490692Y-92927047D02*
X169611644Y-92927047D01*
X169611644Y-92927047D02*
X169660025Y-92902857D01*
X169660025Y-92902857D02*
X169684216Y-92878666D01*
X169684216Y-92878666D02*
X169708406Y-92830285D01*
X169708406Y-92830285D02*
X169708406Y-92709333D01*
X169708406Y-92709333D02*
X169684216Y-92660952D01*
X169684216Y-92660952D02*
X169660025Y-92636761D01*
X169200406Y-102433904D02*
X169200406Y-102482285D01*
X169200406Y-102482285D02*
X169224596Y-102530666D01*
X169224596Y-102530666D02*
X169248787Y-102554856D01*
X169248787Y-102554856D02*
X169297168Y-102579047D01*
X169297168Y-102579047D02*
X169393930Y-102603237D01*
X169393930Y-102603237D02*
X169514882Y-102603237D01*
X169514882Y-102603237D02*
X169611644Y-102579047D01*
X169611644Y-102579047D02*
X169660025Y-102554856D01*
X169660025Y-102554856D02*
X169684216Y-102530666D01*
X169684216Y-102530666D02*
X169708406Y-102482285D01*
X169708406Y-102482285D02*
X169708406Y-102433904D01*
X169708406Y-102433904D02*
X169684216Y-102385523D01*
X169684216Y-102385523D02*
X169660025Y-102361332D01*
X169660025Y-102361332D02*
X169611644Y-102337142D01*
X169611644Y-102337142D02*
X169514882Y-102312951D01*
X169514882Y-102312951D02*
X169393930Y-102312951D01*
X169393930Y-102312951D02*
X169297168Y-102337142D01*
X169297168Y-102337142D02*
X169248787Y-102361332D01*
X169248787Y-102361332D02*
X169224596Y-102385523D01*
X169224596Y-102385523D02*
X169200406Y-102433904D01*
X169708406Y-102845142D02*
X169708406Y-102941904D01*
X169708406Y-102941904D02*
X169684216Y-102990285D01*
X169684216Y-102990285D02*
X169660025Y-103014476D01*
X169660025Y-103014476D02*
X169587454Y-103062857D01*
X169587454Y-103062857D02*
X169490692Y-103087047D01*
X169490692Y-103087047D02*
X169297168Y-103087047D01*
X169297168Y-103087047D02*
X169248787Y-103062857D01*
X169248787Y-103062857D02*
X169224596Y-103038666D01*
X169224596Y-103038666D02*
X169200406Y-102990285D01*
X169200406Y-102990285D02*
X169200406Y-102893523D01*
X169200406Y-102893523D02*
X169224596Y-102845142D01*
X169224596Y-102845142D02*
X169248787Y-102820952D01*
X169248787Y-102820952D02*
X169297168Y-102796761D01*
X169297168Y-102796761D02*
X169418120Y-102796761D01*
X169418120Y-102796761D02*
X169466501Y-102820952D01*
X169466501Y-102820952D02*
X169490692Y-102845142D01*
X169490692Y-102845142D02*
X169514882Y-102893523D01*
X169514882Y-102893523D02*
X169514882Y-102990285D01*
X169514882Y-102990285D02*
X169490692Y-103038666D01*
X169490692Y-103038666D02*
X169466501Y-103062857D01*
X169466501Y-103062857D02*
X169418120Y-103087047D01*
X119049593Y-87766095D02*
X119049593Y-87717714D01*
X119049593Y-87717714D02*
X119025403Y-87669333D01*
X119025403Y-87669333D02*
X119001212Y-87645143D01*
X119001212Y-87645143D02*
X118952831Y-87620952D01*
X118952831Y-87620952D02*
X118856069Y-87596762D01*
X118856069Y-87596762D02*
X118735117Y-87596762D01*
X118735117Y-87596762D02*
X118638355Y-87620952D01*
X118638355Y-87620952D02*
X118589974Y-87645143D01*
X118589974Y-87645143D02*
X118565784Y-87669333D01*
X118565784Y-87669333D02*
X118541593Y-87717714D01*
X118541593Y-87717714D02*
X118541593Y-87766095D01*
X118541593Y-87766095D02*
X118565784Y-87814476D01*
X118565784Y-87814476D02*
X118589974Y-87838667D01*
X118589974Y-87838667D02*
X118638355Y-87862857D01*
X118638355Y-87862857D02*
X118735117Y-87887048D01*
X118735117Y-87887048D02*
X118856069Y-87887048D01*
X118856069Y-87887048D02*
X118952831Y-87862857D01*
X118952831Y-87862857D02*
X119001212Y-87838667D01*
X119001212Y-87838667D02*
X119025403Y-87814476D01*
X119025403Y-87814476D02*
X119049593Y-87766095D01*
X119049593Y-87427428D02*
X119049593Y-87112952D01*
X119049593Y-87112952D02*
X118856069Y-87282285D01*
X118856069Y-87282285D02*
X118856069Y-87209714D01*
X118856069Y-87209714D02*
X118831879Y-87161333D01*
X118831879Y-87161333D02*
X118807688Y-87137142D01*
X118807688Y-87137142D02*
X118759307Y-87112952D01*
X118759307Y-87112952D02*
X118638355Y-87112952D01*
X118638355Y-87112952D02*
X118589974Y-87137142D01*
X118589974Y-87137142D02*
X118565784Y-87161333D01*
X118565784Y-87161333D02*
X118541593Y-87209714D01*
X118541593Y-87209714D02*
X118541593Y-87354857D01*
X118541593Y-87354857D02*
X118565784Y-87403238D01*
X118565784Y-87403238D02*
X118589974Y-87427428D01*
D11*
X120258094Y-77789104D02*
X119781904Y-77789104D01*
X120353332Y-78074819D02*
X120019999Y-77074819D01*
X120019999Y-77074819D02*
X119686666Y-78074819D01*
D10*
X169200406Y-97353904D02*
X169200406Y-97402285D01*
X169200406Y-97402285D02*
X169224596Y-97450666D01*
X169224596Y-97450666D02*
X169248787Y-97474856D01*
X169248787Y-97474856D02*
X169297168Y-97499047D01*
X169297168Y-97499047D02*
X169393930Y-97523237D01*
X169393930Y-97523237D02*
X169514882Y-97523237D01*
X169514882Y-97523237D02*
X169611644Y-97499047D01*
X169611644Y-97499047D02*
X169660025Y-97474856D01*
X169660025Y-97474856D02*
X169684216Y-97450666D01*
X169684216Y-97450666D02*
X169708406Y-97402285D01*
X169708406Y-97402285D02*
X169708406Y-97353904D01*
X169708406Y-97353904D02*
X169684216Y-97305523D01*
X169684216Y-97305523D02*
X169660025Y-97281332D01*
X169660025Y-97281332D02*
X169611644Y-97257142D01*
X169611644Y-97257142D02*
X169514882Y-97232951D01*
X169514882Y-97232951D02*
X169393930Y-97232951D01*
X169393930Y-97232951D02*
X169297168Y-97257142D01*
X169297168Y-97257142D02*
X169248787Y-97281332D01*
X169248787Y-97281332D02*
X169224596Y-97305523D01*
X169224596Y-97305523D02*
X169200406Y-97353904D01*
X169200406Y-97692571D02*
X169200406Y-98031238D01*
X169200406Y-98031238D02*
X169708406Y-97813523D01*
%LPC*%
D13*
%TO.C,REF\u002A\u002A*%
X171480000Y-78940000D03*
%TD*%
%TO.C,REF\u002A\u002A*%
X116680000Y-78940000D03*
%TD*%
%TO.C,REF\u002A\u002A*%
X116680000Y-113740000D03*
%TD*%
%TO.C,REF\u002A\u002A*%
X171480000Y-113740000D03*
%TD*%
D14*
%TO.C,REF\u002A\u002A*%
X116720000Y-89990000D03*
%TD*%
%TO.C,REF\u002A\u002A*%
X116720000Y-97610000D03*
%TD*%
%TO.C,REF\u002A\u002A*%
X116720000Y-100150000D03*
%TD*%
%TO.C,REF\u002A\u002A*%
X171580000Y-105230000D03*
%TD*%
%TO.C,REF\u002A\u002A*%
X171580000Y-97610000D03*
%TD*%
%TO.C,REF\u002A\u002A*%
X116720000Y-87450000D03*
%TD*%
%TO.C,REF\u002A\u002A*%
X116720000Y-95070000D03*
%TD*%
%TO.C,REF\u002A\u002A*%
X171580000Y-82370000D03*
%TD*%
%TO.C,REF\u002A\u002A*%
X171580000Y-89990000D03*
%TD*%
%TO.C,REF\u002A\u002A*%
X116720000Y-105230000D03*
%TD*%
%TO.C,REF\u002A\u002A*%
X171580000Y-92530000D03*
%TD*%
%TO.C,REF\u002A\u002A*%
X171580000Y-107770000D03*
%TD*%
%TO.C,REF\u002A\u002A*%
X171580000Y-84910000D03*
%TD*%
%TO.C,REF\u002A\u002A*%
X116720000Y-84910000D03*
%TD*%
%TO.C,REF\u002A\u002A*%
X116720000Y-82370000D03*
%TD*%
%TO.C,REF\u002A\u002A*%
X171580000Y-110310000D03*
%TD*%
%TO.C,REF\u002A\u002A*%
X116720000Y-92530000D03*
%TD*%
%TO.C,REF\u002A\u002A*%
X116720000Y-102690000D03*
%TD*%
%TO.C,REF\u002A\u002A*%
X171580000Y-95070000D03*
%TD*%
%TO.C,REF\u002A\u002A*%
X171580000Y-87450000D03*
%TD*%
%TO.C,REF\u002A\u002A*%
X171580000Y-100150000D03*
%TD*%
%TO.C,REF\u002A\u002A*%
X116720000Y-110310000D03*
%TD*%
%TO.C,REF\u002A\u002A*%
X171580000Y-102690000D03*
%TD*%
%TO.C,REF\u002A\u002A*%
X116720000Y-107770000D03*
%TD*%
D15*
X120020000Y-79830000D03*
X122560000Y-79830000D03*
X125100000Y-79830000D03*
X127640000Y-79830000D03*
X130180000Y-79830000D03*
X132720000Y-79830000D03*
X135260000Y-79830000D03*
X137800000Y-79830000D03*
X140340000Y-79830000D03*
X142880000Y-79830000D03*
X145420000Y-79830000D03*
X147960000Y-79830000D03*
X150500000Y-79830000D03*
X155580000Y-79830000D03*
X158120000Y-79830000D03*
X160660000Y-79830000D03*
X163200000Y-79830000D03*
X165740000Y-79830000D03*
X168280000Y-79830000D03*
X120020000Y-82370000D03*
X122560000Y-82370000D03*
X125100000Y-82370000D03*
X127640000Y-82370000D03*
X130180000Y-82370000D03*
X132720000Y-82370000D03*
X135260000Y-82370000D03*
X137800000Y-82370000D03*
X140340000Y-82370000D03*
X142880000Y-82370000D03*
X145420000Y-82370000D03*
X147960000Y-82370000D03*
X150500000Y-82370000D03*
X153040000Y-82370000D03*
X155580000Y-82370000D03*
X158120000Y-82370000D03*
X160660000Y-82370000D03*
X163200000Y-82370000D03*
X165740000Y-82370000D03*
X168280000Y-82370000D03*
X120020000Y-84910000D03*
X122560000Y-84910000D03*
X125100000Y-84910000D03*
X130180000Y-84910000D03*
X132720000Y-84910000D03*
X135260000Y-84910000D03*
X137800000Y-84910000D03*
X140340000Y-84910000D03*
X142880000Y-84910000D03*
X145420000Y-84910000D03*
X147960000Y-84910000D03*
X153040000Y-84910000D03*
X155580000Y-84910000D03*
X158120000Y-84910000D03*
X163200000Y-84910000D03*
X165740000Y-84910000D03*
X168280000Y-84910000D03*
X120020000Y-87450000D03*
X122560000Y-87450000D03*
X127640000Y-87450000D03*
X130180000Y-87450000D03*
X132720000Y-87450000D03*
X135260000Y-87450000D03*
X137800000Y-87450000D03*
X140340000Y-87450000D03*
X145420000Y-87450000D03*
X147960000Y-87450000D03*
X150500000Y-87450000D03*
X153040000Y-87450000D03*
X155580000Y-87450000D03*
X158120000Y-87450000D03*
X160660000Y-87450000D03*
X163200000Y-87450000D03*
X165740000Y-87450000D03*
X168280000Y-87450000D03*
X120020000Y-89990000D03*
X122560000Y-89990000D03*
X125100000Y-89990000D03*
X127640000Y-89990000D03*
X130180000Y-89990000D03*
X132720000Y-89990000D03*
X135260000Y-89990000D03*
X137800000Y-89990000D03*
X140340000Y-89990000D03*
X142880000Y-89990000D03*
X145420000Y-89990000D03*
X147960000Y-89990000D03*
X150500000Y-89990000D03*
X155580000Y-89990000D03*
X158120000Y-89990000D03*
X160660000Y-89990000D03*
X163200000Y-89990000D03*
X165740000Y-89990000D03*
X168280000Y-89990000D03*
X120020000Y-92530000D03*
X122560000Y-92530000D03*
X125100000Y-92530000D03*
X127640000Y-92530000D03*
X130180000Y-92530000D03*
X132720000Y-92530000D03*
X135260000Y-92530000D03*
X137800000Y-92530000D03*
X140340000Y-92530000D03*
X142880000Y-92530000D03*
X145420000Y-92530000D03*
X147960000Y-92530000D03*
X150500000Y-92530000D03*
X153040000Y-92530000D03*
X155580000Y-92530000D03*
X158120000Y-92530000D03*
X160660000Y-92530000D03*
X163200000Y-92530000D03*
X168280000Y-92530000D03*
X120020000Y-95070000D03*
X122560000Y-95070000D03*
X125100000Y-95070000D03*
X127640000Y-95070000D03*
X130180000Y-95070000D03*
X132720000Y-95070000D03*
X135260000Y-95070000D03*
X137800000Y-95070000D03*
X140340000Y-95070000D03*
X142880000Y-95070000D03*
X145420000Y-95070000D03*
X147960000Y-95070000D03*
X150500000Y-95070000D03*
X153040000Y-95070000D03*
X158120000Y-95070000D03*
X160660000Y-95070000D03*
X163200000Y-95070000D03*
X165740000Y-95070000D03*
X168280000Y-95070000D03*
X120020000Y-97610000D03*
X122560000Y-97610000D03*
X125100000Y-97610000D03*
X127640000Y-97610000D03*
X130180000Y-97610000D03*
X132720000Y-97610000D03*
X135260000Y-97610000D03*
X137800000Y-97610000D03*
X140340000Y-97610000D03*
X142880000Y-97610000D03*
X145420000Y-97610000D03*
X147960000Y-97610000D03*
X150500000Y-97610000D03*
X153040000Y-97610000D03*
X155580000Y-97610000D03*
X158120000Y-97610000D03*
X160660000Y-97610000D03*
X163200000Y-97610000D03*
X165740000Y-97610000D03*
X120020000Y-100150000D03*
X122560000Y-100150000D03*
X125100000Y-100150000D03*
X130180000Y-100150000D03*
X132720000Y-100150000D03*
X135260000Y-100150000D03*
X137800000Y-100150000D03*
X140340000Y-100150000D03*
X142880000Y-100150000D03*
X145420000Y-100150000D03*
X147960000Y-100150000D03*
X150500000Y-100150000D03*
X153040000Y-100150000D03*
X155580000Y-100150000D03*
X158120000Y-100150000D03*
X160660000Y-100150000D03*
X163200000Y-100150000D03*
X165740000Y-100150000D03*
X168280000Y-100150000D03*
X120020000Y-102690000D03*
X122560000Y-102690000D03*
X125100000Y-102690000D03*
X127640000Y-102690000D03*
X130180000Y-102690000D03*
X132720000Y-102690000D03*
X135260000Y-102690000D03*
X137800000Y-102690000D03*
X140340000Y-102690000D03*
X142880000Y-102690000D03*
X145420000Y-102690000D03*
X147960000Y-102690000D03*
X150500000Y-102690000D03*
X153040000Y-102690000D03*
X155580000Y-102690000D03*
X158120000Y-102690000D03*
X160660000Y-102690000D03*
X163200000Y-102690000D03*
X165740000Y-102690000D03*
X168280000Y-102690000D03*
X120020000Y-105230000D03*
X122560000Y-105230000D03*
X125100000Y-105230000D03*
X127640000Y-105230000D03*
X130180000Y-105230000D03*
X135260000Y-105230000D03*
X137800000Y-105230000D03*
X140340000Y-105230000D03*
X142880000Y-105230000D03*
X145420000Y-105230000D03*
X147960000Y-105230000D03*
X150500000Y-105230000D03*
X153040000Y-105230000D03*
X155580000Y-105230000D03*
X158120000Y-105230000D03*
X160660000Y-105230000D03*
X163200000Y-105230000D03*
X165740000Y-105230000D03*
X168280000Y-105230000D03*
X120020000Y-107770000D03*
X122560000Y-107770000D03*
X125100000Y-107770000D03*
X127640000Y-107770000D03*
X130180000Y-107770000D03*
X132720000Y-107770000D03*
X135260000Y-107770000D03*
X137800000Y-107770000D03*
X140340000Y-107770000D03*
X142880000Y-107770000D03*
X145420000Y-107770000D03*
X147960000Y-107770000D03*
X150500000Y-107770000D03*
X153040000Y-107770000D03*
X155580000Y-107770000D03*
X158120000Y-107770000D03*
X160660000Y-107770000D03*
X163200000Y-107770000D03*
X165740000Y-107770000D03*
X168280000Y-107770000D03*
X120020000Y-110310000D03*
X122560000Y-110310000D03*
X125100000Y-110310000D03*
X127640000Y-110310000D03*
X130180000Y-110310000D03*
X132720000Y-110310000D03*
X135260000Y-110310000D03*
X137800000Y-110310000D03*
X140340000Y-110310000D03*
X142880000Y-110310000D03*
X145420000Y-110310000D03*
X147960000Y-110310000D03*
X153040000Y-110310000D03*
X155580000Y-110310000D03*
X158120000Y-110310000D03*
X160660000Y-110310000D03*
X163200000Y-110310000D03*
X165740000Y-110310000D03*
X168280000Y-110310000D03*
X120020000Y-112850000D03*
X122560000Y-112850000D03*
X125100000Y-112850000D03*
X127640000Y-112850000D03*
X130180000Y-112850000D03*
X132720000Y-112850000D03*
X135260000Y-112850000D03*
X137800000Y-112850000D03*
X140340000Y-112850000D03*
X142880000Y-112850000D03*
X145420000Y-112850000D03*
X147960000Y-112850000D03*
X150500000Y-112850000D03*
X153040000Y-112850000D03*
X155580000Y-112850000D03*
X158120000Y-112850000D03*
X160660000Y-112850000D03*
X163200000Y-112850000D03*
X165740000Y-112850000D03*
X168280000Y-112850000D03*
X168280000Y-97610000D03*
X155580000Y-95070000D03*
X150500000Y-84910000D03*
X127640000Y-100150000D03*
X150500000Y-110310000D03*
X125100000Y-87450000D03*
X127640000Y-84910000D03*
X160660000Y-84910000D03*
X142880000Y-87450000D03*
X153040000Y-89990000D03*
X153040000Y-79830000D03*
X165740000Y-92530000D03*
X132720000Y-105230000D03*
%LPD*%
M02*
