M48
; DRILL file {KiCad 9.0.1} date 2025-05-07T17:16:20-0400
; FORMAT={-:-/ absolute / inch / decimal}
; #@! TF.CreationDate,2025-05-07T17:16:20-04:00
; #@! TF.GenerationSoftware,Kicad,Pcbnew,9.0.1
; #@! TF.FileFunction,Plated,1,2,PTH
FMAT,2
INCH
; #@! TA.AperFunction,Plated,PTH,ComponentDrill
T1C0.0315
%
G90
G05
T1
X3.2961Y-5.2189
X3.2961Y-5.2189
X3.2961Y-5.3189
X3.2961Y-5.3189
X3.2961Y-5.4189
X3.2961Y-5.4189
X3.2961Y-5.5189
X3.2961Y-5.5189
X3.2961Y-5.6189
X3.2961Y-5.6189
X3.2961Y-5.7189
X3.2961Y-5.7189
X3.2961Y-5.8189
X3.2961Y-5.8189
X3.2961Y-5.9189
X3.2961Y-5.9189
X3.2961Y-6.0189
X3.2961Y-6.0189
X3.2961Y-6.1189
X3.2961Y-6.1189
X3.2961Y-6.2189
X3.2961Y-6.2189
X3.2961Y-6.3189
X3.2961Y-6.3189
X3.2961Y-6.4189
X3.2961Y-6.4189
X3.2961Y-6.5189
X3.2961Y-6.5189
X3.2961Y-6.6189
X3.2961Y-6.6189
X3.2961Y-6.7189
X3.2961Y-6.7189
X3.2961Y-6.8189
X3.2961Y-6.8189
X3.2961Y-6.9189
X3.2961Y-6.9189
X3.3961Y-5.2189
X3.3961Y-5.2189
X3.3961Y-5.3189
X3.3961Y-5.3189
X3.3961Y-5.4189
X3.3961Y-5.4189
X3.3961Y-5.5189
X3.3961Y-5.5189
X3.3961Y-5.6189
X3.3961Y-5.6189
X3.3961Y-5.7189
X3.3961Y-5.7189
X3.3961Y-5.8189
X3.3961Y-5.8189
X3.3961Y-5.9189
X3.3961Y-5.9189
X3.3961Y-6.0189
X3.3961Y-6.0189
X3.3961Y-6.1189
X3.3961Y-6.1189
X3.3961Y-6.2189
X3.3961Y-6.2189
X3.3961Y-6.3189
X3.3961Y-6.3189
X3.3961Y-6.4189
X3.3961Y-6.4189
X3.3961Y-6.5189
X3.3961Y-6.5189
X3.3961Y-6.6189
X3.3961Y-6.6189
X3.3961Y-6.7189
X3.3961Y-6.7189
X3.3961Y-6.8189
X3.3961Y-6.8189
X3.3961Y-6.9189
X3.3961Y-6.9189
X3.4961Y-5.2189
X3.4961Y-5.2189
X3.4961Y-5.3189
X3.4961Y-5.3189
X3.4961Y-5.4189
X3.4961Y-5.4189
X3.4961Y-5.5189
X3.4961Y-5.5189
X3.4961Y-5.6189
X3.4961Y-5.6189
X3.4961Y-5.7189
X3.4961Y-5.7189
X3.4961Y-5.8189
X3.4961Y-5.8189
X3.4961Y-5.9189
X3.4961Y-5.9189
X3.4961Y-6.0189
X3.4961Y-6.0189
X3.4961Y-6.1189
X3.4961Y-6.1189
X3.4961Y-6.2189
X3.4961Y-6.2189
X3.4961Y-6.3189
X3.4961Y-6.3189
X3.4961Y-6.4189
X3.4961Y-6.4189
X3.4961Y-6.5189
X3.4961Y-6.5189
X3.4961Y-6.6189
X3.4961Y-6.6189
X3.4961Y-6.7189
X3.4961Y-6.7189
X3.4961Y-6.8189
X3.4961Y-6.8189
X3.4961Y-6.9189
X3.4961Y-6.9189
X3.5961Y-5.2189
X3.5961Y-5.2189
X3.5961Y-5.3189
X3.5961Y-5.3189
X3.5961Y-5.4189
X3.5961Y-5.4189
X3.5961Y-5.5189
X3.5961Y-5.5189
X3.5961Y-5.6189
X3.5961Y-5.6189
X3.5961Y-5.7189
X3.5961Y-5.7189
X3.5961Y-5.8189
X3.5961Y-5.8189
X3.5961Y-5.9189
X3.5961Y-5.9189
X3.5961Y-6.0189
X3.5961Y-6.0189
X3.5961Y-6.1189
X3.5961Y-6.1189
X3.5961Y-6.2189
X3.5961Y-6.2189
X3.5961Y-6.3189
X3.5961Y-6.3189
X3.5961Y-6.4189
X3.5961Y-6.4189
X3.5961Y-6.5189
X3.5961Y-6.5189
X3.5961Y-6.6189
X3.5961Y-6.6189
X3.5961Y-6.7189
X3.5961Y-6.7189
X3.5961Y-6.8189
X3.5961Y-6.8189
X3.5961Y-6.9189
X3.5961Y-6.9189
X3.6961Y-5.2189
X3.6961Y-5.2189
X3.6961Y-5.3189
X3.6961Y-5.3189
X3.6961Y-5.4189
X3.6961Y-5.4189
X3.6961Y-5.5189
X3.6961Y-5.5189
X3.6961Y-5.6189
X3.6961Y-5.6189
X3.6961Y-5.7189
X3.6961Y-5.7189
X3.6961Y-5.8189
X3.6961Y-5.8189
X3.6961Y-5.9189
X3.6961Y-5.9189
X3.6961Y-6.0189
X3.6961Y-6.0189
X3.6961Y-6.1189
X3.6961Y-6.1189
X3.6961Y-6.2189
X3.6961Y-6.2189
X3.6961Y-6.3189
X3.6961Y-6.3189
X3.6961Y-6.4189
X3.6961Y-6.4189
X3.6961Y-6.5189
X3.6961Y-6.5189
X3.6961Y-6.6189
X3.6961Y-6.6189
X3.6961Y-6.7189
X3.6961Y-6.7189
X3.6961Y-6.8189
X3.6961Y-6.8189
X3.6961Y-6.9189
X3.6961Y-6.9189
X3.7961Y-5.2189
X3.7961Y-5.2189
X3.7961Y-5.3189
X3.7961Y-5.3189
X3.7961Y-5.4189
X3.7961Y-5.4189
X3.7961Y-5.5189
X3.7961Y-5.5189
X3.7961Y-5.6189
X3.7961Y-5.6189
X3.7961Y-5.7189
X3.7961Y-5.7189
X3.7961Y-5.8189
X3.7961Y-5.8189
X3.7961Y-5.9189
X3.7961Y-5.9189
X3.7961Y-6.0189
X3.7961Y-6.0189
X3.7961Y-6.1189
X3.7961Y-6.1189
X3.7961Y-6.2189
X3.7961Y-6.2189
X3.7961Y-6.3189
X3.7961Y-6.3189
X3.7961Y-6.4189
X3.7961Y-6.4189
X3.7961Y-6.5189
X3.7961Y-6.5189
X3.7961Y-6.6189
X3.7961Y-6.6189
X3.7961Y-6.7189
X3.7961Y-6.7189
X3.7961Y-6.8189
X3.7961Y-6.8189
X3.7961Y-6.9189
X3.7961Y-6.9189
X3.8961Y-5.2189
X3.8961Y-5.2189
X3.8961Y-5.3189
X3.8961Y-5.3189
X3.8961Y-5.4189
X3.8961Y-5.4189
X3.8961Y-5.5189
X3.8961Y-5.5189
X3.8961Y-5.6189
X3.8961Y-5.6189
X3.8961Y-5.7189
X3.8961Y-5.7189
X3.8961Y-5.8189
X3.8961Y-5.8189
X3.8961Y-5.9189
X3.8961Y-5.9189
X3.8961Y-6.0189
X3.8961Y-6.0189
X3.8961Y-6.1189
X3.8961Y-6.1189
X3.8961Y-6.2189
X3.8961Y-6.2189
X3.8961Y-6.3189
X3.8961Y-6.3189
X3.8961Y-6.4189
X3.8961Y-6.4189
X3.8961Y-6.5189
X3.8961Y-6.5189
X3.8961Y-6.6189
X3.8961Y-6.6189
X3.8961Y-6.7189
X3.8961Y-6.7189
X3.8961Y-6.8189
X3.8961Y-6.8189
X3.8961Y-6.9189
X3.8961Y-6.9189
X3.9961Y-5.2189
X3.9961Y-5.2189
X3.9961Y-5.3189
X3.9961Y-5.3189
X3.9961Y-5.4189
X3.9961Y-5.4189
X3.9961Y-5.5189
X3.9961Y-5.5189
X3.9961Y-5.6189
X3.9961Y-5.6189
X3.9961Y-5.7189
X3.9961Y-5.7189
X3.9961Y-5.8189
X3.9961Y-5.8189
X3.9961Y-5.9189
X3.9961Y-5.9189
X3.9961Y-6.0189
X3.9961Y-6.0189
X3.9961Y-6.1189
X3.9961Y-6.1189
X3.9961Y-6.2189
X3.9961Y-6.2189
X3.9961Y-6.3189
X3.9961Y-6.3189
X3.9961Y-6.4189
X3.9961Y-6.4189
X3.9961Y-6.5189
X3.9961Y-6.5189
X3.9961Y-6.6189
X3.9961Y-6.6189
X3.9961Y-6.7189
X3.9961Y-6.7189
X3.9961Y-6.8189
X3.9961Y-6.8189
X3.9961Y-6.9189
X3.9961Y-6.9189
X4.0961Y-5.2189
X4.0961Y-5.2189
X4.0961Y-5.3189
X4.0961Y-5.3189
X4.0961Y-5.4189
X4.0961Y-5.4189
X4.0961Y-5.5189
X4.0961Y-5.5189
X4.0961Y-5.6189
X4.0961Y-5.6189
X4.0961Y-5.7189
X4.0961Y-5.7189
X4.0961Y-5.8189
X4.0961Y-5.8189
X4.0961Y-5.9189
X4.0961Y-5.9189
X4.0961Y-6.0189
X4.0961Y-6.0189
X4.0961Y-6.1189
X4.0961Y-6.1189
X4.0961Y-6.2189
X4.0961Y-6.2189
X4.0961Y-6.3189
X4.0961Y-6.3189
X4.0961Y-6.4189
X4.0961Y-6.4189
X4.0961Y-6.5189
X4.0961Y-6.5189
X4.0961Y-6.6189
X4.0961Y-6.6189
X4.0961Y-6.7189
X4.0961Y-6.7189
X4.0961Y-6.8189
X4.0961Y-6.8189
X4.0961Y-6.9189
X4.0961Y-6.9189
X4.1961Y-5.2189
X4.1961Y-5.2189
X4.1961Y-5.3189
X4.1961Y-5.3189
X4.1961Y-5.4189
X4.1961Y-5.4189
X4.1961Y-5.5189
X4.1961Y-5.5189
X4.1961Y-5.6189
X4.1961Y-5.6189
X4.1961Y-5.7189
X4.1961Y-5.7189
X4.1961Y-5.8189
X4.1961Y-5.8189
X4.1961Y-5.9189
X4.1961Y-5.9189
X4.1961Y-6.0189
X4.1961Y-6.0189
X4.1961Y-6.1189
X4.1961Y-6.1189
X4.1961Y-6.2189
X4.1961Y-6.2189
X4.1961Y-6.3189
X4.1961Y-6.3189
X4.1961Y-6.4189
X4.1961Y-6.4189
X4.1961Y-6.5189
X4.1961Y-6.5189
X4.1961Y-6.6189
X4.1961Y-6.6189
X4.1961Y-6.7189
X4.1961Y-6.7189
X4.1961Y-6.8189
X4.1961Y-6.8189
X4.1961Y-6.9189
X4.1961Y-6.9189
X4.2961Y-5.2189
X4.2961Y-5.2189
X4.2961Y-5.3189
X4.2961Y-5.3189
X4.2961Y-5.4189
X4.2961Y-5.4189
X4.2961Y-5.5189
X4.2961Y-5.5189
X4.2961Y-5.6189
X4.2961Y-5.6189
X4.2961Y-5.7189
X4.2961Y-5.7189
X4.2961Y-5.8189
X4.2961Y-5.8189
X4.2961Y-5.9189
X4.2961Y-5.9189
X4.2961Y-6.0189
X4.2961Y-6.0189
X4.2961Y-6.1189
X4.2961Y-6.1189
X4.2961Y-6.2189
X4.2961Y-6.2189
X4.2961Y-6.3189
X4.2961Y-6.3189
X4.2961Y-6.4189
X4.2961Y-6.4189
X4.2961Y-6.5189
X4.2961Y-6.5189
X4.2961Y-6.6189
X4.2961Y-6.6189
X4.2961Y-6.7189
X4.2961Y-6.7189
X4.2961Y-6.8189
X4.2961Y-6.8189
X4.2961Y-6.9189
X4.2961Y-6.9189
X4.3961Y-5.2189
X4.3961Y-5.2189
X4.3961Y-5.3189
X4.3961Y-5.3189
X4.3961Y-5.4189
X4.3961Y-5.4189
X4.3961Y-5.5189
X4.3961Y-5.5189
X4.3961Y-5.6189
X4.3961Y-5.6189
X4.3961Y-5.7189
X4.3961Y-5.7189
X4.3961Y-5.8189
X4.3961Y-5.8189
X4.3961Y-5.9189
X4.3961Y-5.9189
X4.3961Y-6.0189
X4.3961Y-6.0189
X4.3961Y-6.1189
X4.3961Y-6.1189
X4.3961Y-6.2189
X4.3961Y-6.2189
X4.3961Y-6.3189
X4.3961Y-6.3189
X4.3961Y-6.4189
X4.3961Y-6.4189
X4.3961Y-6.5189
X4.3961Y-6.5189
X4.3961Y-6.6189
X4.3961Y-6.6189
X4.3961Y-6.7189
X4.3961Y-6.7189
X4.3961Y-6.8189
X4.3961Y-6.8189
X4.3961Y-6.9189
X4.3961Y-6.9189
X4.4961Y-5.2189
X4.4961Y-5.2189
X4.4961Y-5.3189
X4.4961Y-5.3189
X4.4961Y-5.4189
X4.4961Y-5.4189
X4.4961Y-5.5189
X4.4961Y-5.5189
X4.4961Y-5.6189
X4.4961Y-5.6189
X4.4961Y-5.7189
X4.4961Y-5.7189
X4.4961Y-5.8189
X4.4961Y-5.8189
X4.4961Y-5.9189
X4.4961Y-5.9189
X4.4961Y-6.0189
X4.4961Y-6.0189
X4.4961Y-6.1189
X4.4961Y-6.1189
X4.4961Y-6.2189
X4.4961Y-6.2189
X4.4961Y-6.3189
X4.4961Y-6.3189
X4.4961Y-6.4189
X4.4961Y-6.4189
X4.4961Y-6.5189
X4.4961Y-6.5189
X4.4961Y-6.6189
X4.4961Y-6.6189
X4.4961Y-6.7189
X4.4961Y-6.7189
X4.4961Y-6.8189
X4.4961Y-6.8189
X4.4961Y-6.9189
X4.4961Y-6.9189
X4.5961Y-5.2189
X4.5961Y-5.2189
X4.5961Y-5.3189
X4.5961Y-5.3189
X4.5961Y-5.4189
X4.5961Y-5.4189
X4.5961Y-5.5189
X4.5961Y-5.5189
X4.5961Y-5.6189
X4.5961Y-5.6189
X4.5961Y-5.7189
X4.5961Y-5.7189
X4.5961Y-5.8189
X4.5961Y-5.8189
X4.5961Y-5.9189
X4.5961Y-5.9189
X4.5961Y-6.0189
X4.5961Y-6.0189
X4.5961Y-6.1189
X4.5961Y-6.1189
X4.5961Y-6.2189
X4.5961Y-6.2189
X4.5961Y-6.3189
X4.5961Y-6.3189
X4.5961Y-6.4189
X4.5961Y-6.4189
X4.5961Y-6.5189
X4.5961Y-6.5189
X4.5961Y-6.6189
X4.5961Y-6.6189
X4.5961Y-6.7189
X4.5961Y-6.7189
X4.5961Y-6.8189
X4.5961Y-6.8189
X4.5961Y-6.9189
X4.5961Y-6.9189
X4.6961Y-5.2189
X4.6961Y-5.2189
X4.6961Y-5.3189
X4.6961Y-5.3189
X4.6961Y-5.4189
X4.6961Y-5.4189
X4.6961Y-5.5189
X4.6961Y-5.5189
X4.6961Y-5.6189
X4.6961Y-5.6189
X4.6961Y-5.7189
X4.6961Y-5.7189
X4.6961Y-5.8189
X4.6961Y-5.8189
X4.6961Y-5.9189
X4.6961Y-5.9189
X4.6961Y-6.0189
X4.6961Y-6.0189
X4.6961Y-6.1189
X4.6961Y-6.1189
X4.6961Y-6.2189
X4.6961Y-6.2189
X4.6961Y-6.3189
X4.6961Y-6.3189
X4.6961Y-6.4189
X4.6961Y-6.4189
X4.6961Y-6.5189
X4.6961Y-6.5189
X4.6961Y-6.6189
X4.6961Y-6.6189
X4.6961Y-6.7189
X4.6961Y-6.7189
X4.6961Y-6.8189
X4.6961Y-6.8189
X4.6961Y-6.9189
X4.6961Y-6.9189
X4.7961Y-5.2189
X4.7961Y-5.2189
X4.7961Y-5.3189
X4.7961Y-5.3189
X4.7961Y-5.4189
X4.7961Y-5.4189
X4.7961Y-5.5189
X4.7961Y-5.5189
X4.7961Y-5.6189
X4.7961Y-5.6189
X4.7961Y-5.7189
X4.7961Y-5.7189
X4.7961Y-5.8189
X4.7961Y-5.8189
X4.7961Y-5.9189
X4.7961Y-5.9189
X4.7961Y-6.0189
X4.7961Y-6.0189
X4.7961Y-6.1189
X4.7961Y-6.1189
X4.7961Y-6.2189
X4.7961Y-6.2189
X4.7961Y-6.3189
X4.7961Y-6.3189
X4.7961Y-6.4189
X4.7961Y-6.4189
X4.7961Y-6.5189
X4.7961Y-6.5189
X4.7961Y-6.6189
X4.7961Y-6.6189
X4.7961Y-6.7189
X4.7961Y-6.7189
X4.7961Y-6.8189
X4.7961Y-6.8189
X4.7961Y-6.9189
X4.7961Y-6.9189
X4.8961Y-5.2189
X4.8961Y-5.2189
X4.8961Y-5.3189
X4.8961Y-5.3189
X4.8961Y-5.4189
X4.8961Y-5.4189
X4.8961Y-5.5189
X4.8961Y-5.5189
X4.8961Y-5.6189
X4.8961Y-5.6189
X4.8961Y-5.7189
X4.8961Y-5.7189
X4.8961Y-5.8189
X4.8961Y-5.8189
X4.8961Y-5.9189
X4.8961Y-5.9189
X4.8961Y-6.0189
X4.8961Y-6.0189
X4.8961Y-6.1189
X4.8961Y-6.1189
X4.8961Y-6.2189
X4.8961Y-6.2189
X4.8961Y-6.3189
X4.8961Y-6.3189
X4.8961Y-6.4189
X4.8961Y-6.4189
X4.8961Y-6.5189
X4.8961Y-6.5189
X4.8961Y-6.6189
X4.8961Y-6.6189
X4.8961Y-6.7189
X4.8961Y-6.7189
X4.8961Y-6.8189
X4.8961Y-6.8189
X4.8961Y-6.9189
X4.8961Y-6.9189
X4.9961Y-5.2189
X4.9961Y-5.2189
X4.9961Y-5.3189
X4.9961Y-5.3189
X4.9961Y-5.4189
X4.9961Y-5.4189
X4.9961Y-5.5189
X4.9961Y-5.5189
X4.9961Y-5.6189
X4.9961Y-5.6189
X4.9961Y-5.7189
X4.9961Y-5.7189
X4.9961Y-5.8189
X4.9961Y-5.8189
X4.9961Y-5.9189
X4.9961Y-5.9189
X4.9961Y-6.0189
X4.9961Y-6.0189
X4.9961Y-6.1189
X4.9961Y-6.1189
X4.9961Y-6.2189
X4.9961Y-6.2189
X4.9961Y-6.3189
X4.9961Y-6.3189
X4.9961Y-6.4189
X4.9961Y-6.4189
X4.9961Y-6.5189
X4.9961Y-6.5189
X4.9961Y-6.6189
X4.9961Y-6.6189
X4.9961Y-6.7189
X4.9961Y-6.7189
X4.9961Y-6.8189
X4.9961Y-6.8189
X4.9961Y-6.9189
X4.9961Y-6.9189
X5.0961Y-5.2189
X5.0961Y-5.2189
X5.0961Y-5.3189
X5.0961Y-5.3189
X5.0961Y-5.4189
X5.0961Y-5.4189
X5.0961Y-5.5189
X5.0961Y-5.5189
X5.0961Y-5.6189
X5.0961Y-5.6189
X5.0961Y-5.7189
X5.0961Y-5.7189
X5.0961Y-5.8189
X5.0961Y-5.8189
X5.0961Y-5.9189
X5.0961Y-5.9189
X5.0961Y-6.0189
X5.0961Y-6.0189
X5.0961Y-6.1189
X5.0961Y-6.1189
X5.0961Y-6.2189
X5.0961Y-6.2189
X5.0961Y-6.3189
X5.0961Y-6.3189
X5.0961Y-6.4189
X5.0961Y-6.4189
X5.0961Y-6.5189
X5.0961Y-6.5189
X5.0961Y-6.6189
X5.0961Y-6.6189
X5.0961Y-6.7189
X5.0961Y-6.7189
X5.0961Y-6.8189
X5.0961Y-6.8189
X5.0961Y-6.9189
X5.0961Y-6.9189
X5.1961Y-5.2189
X5.1961Y-5.2189
X5.1961Y-5.3189
X5.1961Y-5.3189
X5.1961Y-5.4189
X5.1961Y-5.4189
X5.1961Y-5.5189
X5.1961Y-5.5189
X5.1961Y-5.6189
X5.1961Y-5.6189
X5.1961Y-5.7189
X5.1961Y-5.7189
X5.1961Y-5.8189
X5.1961Y-5.8189
X5.1961Y-5.9189
X5.1961Y-5.9189
X5.1961Y-6.0189
X5.1961Y-6.0189
X5.1961Y-6.1189
X5.1961Y-6.1189
X5.1961Y-6.2189
X5.1961Y-6.2189
X5.1961Y-6.3189
X5.1961Y-6.3189
X5.1961Y-6.4189
X5.1961Y-6.4189
X5.1961Y-6.5189
X5.1961Y-6.5189
X5.1961Y-6.6189
X5.1961Y-6.6189
X5.1961Y-6.7189
X5.1961Y-6.7189
X5.1961Y-6.8189
X5.1961Y-6.8189
X5.1961Y-6.9189
X5.1961Y-6.9189
X5.2961Y-5.2189
X5.2961Y-5.2189
X5.2961Y-5.3189
X5.2961Y-5.3189
X5.2961Y-5.4189
X5.2961Y-5.4189
X5.2961Y-5.5189
X5.2961Y-5.5189
X5.2961Y-5.6189
X5.2961Y-5.6189
X5.2961Y-5.7189
X5.2961Y-5.7189
X5.2961Y-5.8189
X5.2961Y-5.8189
X5.2961Y-5.9189
X5.2961Y-5.9189
X5.2961Y-6.0189
X5.2961Y-6.0189
X5.2961Y-6.1189
X5.2961Y-6.1189
X5.2961Y-6.2189
X5.2961Y-6.2189
X5.2961Y-6.3189
X5.2961Y-6.3189
X5.2961Y-6.4189
X5.2961Y-6.4189
X5.2961Y-6.5189
X5.2961Y-6.5189
X5.2961Y-6.6189
X5.2961Y-6.6189
X5.2961Y-6.7189
X5.2961Y-6.7189
X5.2961Y-6.8189
X5.2961Y-6.8189
X5.2961Y-6.9189
X5.2961Y-6.9189
X5.3961Y-5.2189
X5.3961Y-5.2189
X5.3961Y-5.3189
X5.3961Y-5.3189
X5.3961Y-5.4189
X5.3961Y-5.4189
X5.3961Y-5.5189
X5.3961Y-5.5189
X5.3961Y-5.6189
X5.3961Y-5.6189
X5.3961Y-5.7189
X5.3961Y-5.7189
X5.3961Y-5.8189
X5.3961Y-5.8189
X5.3961Y-5.9189
X5.3961Y-5.9189
X5.3961Y-6.0189
X5.3961Y-6.0189
X5.3961Y-6.1189
X5.3961Y-6.1189
X5.3961Y-6.2189
X5.3961Y-6.2189
X5.3961Y-6.3189
X5.3961Y-6.3189
X5.3961Y-6.4189
X5.3961Y-6.4189
X5.3961Y-6.5189
X5.3961Y-6.5189
X5.3961Y-6.6189
X5.3961Y-6.6189
X5.3961Y-6.7189
X5.3961Y-6.7189
X5.3961Y-6.8189
X5.3961Y-6.8189
X5.3961Y-6.9189
X5.3961Y-6.9189
X5.4961Y-5.2189
X5.4961Y-5.2189
X5.4961Y-5.3189
X5.4961Y-5.3189
X5.4961Y-5.4189
X5.4961Y-5.4189
X5.4961Y-5.5189
X5.4961Y-5.5189
X5.4961Y-5.6189
X5.4961Y-5.6189
X5.4961Y-5.7189
X5.4961Y-5.7189
X5.4961Y-5.8189
X5.4961Y-5.8189
X5.4961Y-5.9189
X5.4961Y-5.9189
X5.4961Y-6.0189
X5.4961Y-6.0189
X5.4961Y-6.1189
X5.4961Y-6.1189
X5.4961Y-6.2189
X5.4961Y-6.2189
X5.4961Y-6.3189
X5.4961Y-6.3189
X5.4961Y-6.4189
X5.4961Y-6.4189
X5.4961Y-6.5189
X5.4961Y-6.5189
X5.4961Y-6.6189
X5.4961Y-6.6189
X5.4961Y-6.7189
X5.4961Y-6.7189
X5.4961Y-6.8189
X5.4961Y-6.8189
X5.4961Y-6.9189
X5.4961Y-6.9189
X5.5961Y-5.2189
X5.5961Y-5.2189
X5.5961Y-5.3189
X5.5961Y-5.3189
X5.5961Y-5.4189
X5.5961Y-5.4189
X5.5961Y-5.5189
X5.5961Y-5.5189
X5.5961Y-5.6189
X5.5961Y-5.6189
X5.5961Y-5.7189
X5.5961Y-5.7189
X5.5961Y-5.8189
X5.5961Y-5.8189
X5.5961Y-5.9189
X5.5961Y-5.9189
X5.5961Y-6.0189
X5.5961Y-6.0189
X5.5961Y-6.1189
X5.5961Y-6.1189
X5.5961Y-6.2189
X5.5961Y-6.2189
X5.5961Y-6.3189
X5.5961Y-6.3189
X5.5961Y-6.4189
X5.5961Y-6.4189
X5.5961Y-6.5189
X5.5961Y-6.5189
X5.5961Y-6.6189
X5.5961Y-6.6189
X5.5961Y-6.7189
X5.5961Y-6.7189
X5.5961Y-6.8189
X5.5961Y-6.8189
X5.5961Y-6.9189
X5.5961Y-6.9189
M30
