G04 #@! TF.GenerationSoftware,KiCad,Pcbnew,9.0.1*
G04 #@! TF.CreationDate,2026-01-25T19:12:43-05:00*
G04 #@! TF.ProjectId,project-board-sporniket,70726f6a-6563-4742-9d62-6f6172642d73,v1.0.0*
G04 #@! TF.SameCoordinates,Original*
G04 #@! TF.FileFunction,Legend,Bot*
G04 #@! TF.FilePolarity,Positive*
%FSLAX46Y46*%
G04 Gerber Fmt 4.6, Leading zero omitted, Abs format (unit mm)*
G04 Created by KiCad (PCBNEW 9.0.1) date 2026-01-25 19:12:43*
%MOMM*%
%LPD*%
G01*
G04 APERTURE LIST*
%ADD10C,1.524000*%
%ADD11C,2.200000*%
G04 #@! TA.AperFunction,Profile*
%ADD12C,0.050000*%
G04 #@! TD*
G04 APERTURE END LIST*
%LPC*%
D10*
X83600000Y-103180000D03*
X83600000Y-105720000D03*
X83600000Y-108260000D03*
X83600000Y-110800000D03*
X83600000Y-113340000D03*
X83600000Y-115880000D03*
X83600000Y-118420000D03*
X83600000Y-120960000D03*
X83600000Y-123500000D03*
X83600000Y-126040000D03*
X83600000Y-128580000D03*
X83600000Y-131120000D03*
X83600000Y-133660000D03*
X83600000Y-136200000D03*
X83600000Y-138740000D03*
X83600000Y-141280000D03*
X83600000Y-143820000D03*
X83600000Y-146360000D03*
X83600000Y-148900000D03*
X83600000Y-151440000D03*
X83600000Y-153980000D03*
X83600000Y-156520000D03*
X83600000Y-159060000D03*
X83600000Y-161600000D03*
X83600000Y-164140000D03*
X83600000Y-166680000D03*
X83600000Y-169220000D03*
X83600000Y-171760000D03*
X83600000Y-174300000D03*
X83600000Y-176840000D03*
X83600000Y-179380000D03*
X83600000Y-181920000D03*
X83600000Y-184460000D03*
X83600000Y-187000000D03*
X88680000Y-103180000D03*
X88680000Y-105720000D03*
X88680000Y-108260000D03*
X88680000Y-110800000D03*
X88680000Y-113340000D03*
X88680000Y-115880000D03*
X88680000Y-118420000D03*
X88680000Y-120960000D03*
X88680000Y-123500000D03*
X88680000Y-126040000D03*
X88680000Y-128580000D03*
X88680000Y-131120000D03*
X88680000Y-133660000D03*
X88680000Y-136200000D03*
X88680000Y-138740000D03*
X88680000Y-141280000D03*
X88680000Y-143820000D03*
X88680000Y-146360000D03*
X88680000Y-148900000D03*
X88680000Y-151440000D03*
X88680000Y-153980000D03*
X88680000Y-156520000D03*
X88680000Y-159060000D03*
X88680000Y-161600000D03*
X88680000Y-164140000D03*
X88680000Y-166680000D03*
X88680000Y-169220000D03*
X88680000Y-171760000D03*
X88680000Y-174300000D03*
X88680000Y-176840000D03*
X88680000Y-179380000D03*
X88680000Y-181920000D03*
X88680000Y-184460000D03*
X88680000Y-187000000D03*
X63280000Y-103180000D03*
X63280000Y-105720000D03*
X63280000Y-108260000D03*
X63280000Y-110800000D03*
X63280000Y-113340000D03*
X63280000Y-115880000D03*
X63280000Y-118420000D03*
X63280000Y-120960000D03*
X63280000Y-123500000D03*
X63280000Y-126040000D03*
X63280000Y-128580000D03*
X63280000Y-131120000D03*
X63280000Y-133660000D03*
X63280000Y-136200000D03*
X63280000Y-138740000D03*
X63280000Y-141280000D03*
X63280000Y-143820000D03*
X63280000Y-146360000D03*
X63280000Y-148900000D03*
X63280000Y-151440000D03*
X63280000Y-153980000D03*
X63280000Y-156520000D03*
X63280000Y-159060000D03*
X63280000Y-161600000D03*
X63280000Y-164140000D03*
X63280000Y-166680000D03*
X63280000Y-169220000D03*
X63280000Y-171760000D03*
X63280000Y-174300000D03*
X63280000Y-176840000D03*
X63280000Y-179380000D03*
X63280000Y-181920000D03*
X63280000Y-184460000D03*
X63280000Y-187000000D03*
X70900000Y-103180000D03*
X70900000Y-105720000D03*
X70900000Y-108260000D03*
X70900000Y-110800000D03*
X70900000Y-113340000D03*
X70900000Y-115880000D03*
X70900000Y-118420000D03*
X70900000Y-120960000D03*
X70900000Y-123500000D03*
X70900000Y-126040000D03*
X70900000Y-128580000D03*
X70900000Y-131120000D03*
X70900000Y-133660000D03*
X70900000Y-136200000D03*
X70900000Y-138740000D03*
X70900000Y-141280000D03*
X70900000Y-143820000D03*
X70900000Y-146360000D03*
X70900000Y-148900000D03*
X70900000Y-151440000D03*
X70900000Y-153980000D03*
X70900000Y-156520000D03*
X70900000Y-159060000D03*
X70900000Y-161600000D03*
X70900000Y-164140000D03*
X70900000Y-166680000D03*
X70900000Y-169220000D03*
X70900000Y-171760000D03*
X70900000Y-174300000D03*
X70900000Y-176840000D03*
X70900000Y-179380000D03*
X70900000Y-181920000D03*
X70900000Y-184460000D03*
X70900000Y-187000000D03*
X73440000Y-103180000D03*
X73440000Y-105720000D03*
X73440000Y-108260000D03*
X73440000Y-110800000D03*
X73440000Y-113340000D03*
X73440000Y-115880000D03*
X73440000Y-118420000D03*
X73440000Y-120960000D03*
X73440000Y-123500000D03*
X73440000Y-126040000D03*
X73440000Y-128580000D03*
X73440000Y-131120000D03*
X73440000Y-133660000D03*
X73440000Y-136200000D03*
X73440000Y-138740000D03*
X73440000Y-141280000D03*
X73440000Y-143820000D03*
X73440000Y-146360000D03*
X73440000Y-148900000D03*
X73440000Y-151440000D03*
X73440000Y-153980000D03*
X73440000Y-156520000D03*
X73440000Y-159060000D03*
X73440000Y-161600000D03*
X73440000Y-164140000D03*
X73440000Y-166680000D03*
X73440000Y-169220000D03*
X73440000Y-171760000D03*
X73440000Y-174300000D03*
X73440000Y-176840000D03*
X73440000Y-179380000D03*
X73440000Y-181920000D03*
X73440000Y-184460000D03*
X73440000Y-187000000D03*
X91220000Y-103180000D03*
X91220000Y-105720000D03*
X91220000Y-108260000D03*
X91220000Y-110800000D03*
X91220000Y-113340000D03*
X91220000Y-115880000D03*
X91220000Y-118420000D03*
X91220000Y-120960000D03*
X91220000Y-123500000D03*
X91220000Y-126040000D03*
X91220000Y-128580000D03*
X91220000Y-131120000D03*
X91220000Y-133660000D03*
X91220000Y-136200000D03*
X91220000Y-138740000D03*
X91220000Y-141280000D03*
X91220000Y-143820000D03*
X91220000Y-146360000D03*
X91220000Y-148900000D03*
X91220000Y-151440000D03*
X91220000Y-153980000D03*
X91220000Y-156520000D03*
X91220000Y-159060000D03*
X91220000Y-161600000D03*
X91220000Y-164140000D03*
X91220000Y-166680000D03*
X91220000Y-169220000D03*
X91220000Y-171760000D03*
X91220000Y-174300000D03*
X91220000Y-176840000D03*
X91220000Y-179380000D03*
X91220000Y-181920000D03*
X91220000Y-184460000D03*
X91220000Y-187000000D03*
X68360000Y-103180000D03*
X68360000Y-105720000D03*
X68360000Y-108260000D03*
X68360000Y-110800000D03*
X68360000Y-113340000D03*
X68360000Y-115880000D03*
X68360000Y-118420000D03*
X68360000Y-120960000D03*
X68360000Y-123500000D03*
X68360000Y-126040000D03*
X68360000Y-128580000D03*
X68360000Y-131120000D03*
X68360000Y-133660000D03*
X68360000Y-136200000D03*
X68360000Y-138740000D03*
X68360000Y-141280000D03*
X68360000Y-143820000D03*
X68360000Y-146360000D03*
X68360000Y-148900000D03*
X68360000Y-151440000D03*
X68360000Y-153980000D03*
X68360000Y-156520000D03*
X68360000Y-159060000D03*
X68360000Y-161600000D03*
X68360000Y-164140000D03*
X68360000Y-166680000D03*
X68360000Y-169220000D03*
X68360000Y-171760000D03*
X68360000Y-174300000D03*
X68360000Y-176840000D03*
X68360000Y-179380000D03*
X68360000Y-181920000D03*
X68360000Y-184460000D03*
X68360000Y-187000000D03*
X86140000Y-103180000D03*
X86140000Y-105720000D03*
X86140000Y-108260000D03*
X86140000Y-110800000D03*
X86140000Y-113340000D03*
X86140000Y-115880000D03*
X86140000Y-118420000D03*
X86140000Y-120960000D03*
X86140000Y-123500000D03*
X86140000Y-126040000D03*
X86140000Y-128580000D03*
X86140000Y-131120000D03*
X86140000Y-133660000D03*
X86140000Y-136200000D03*
X86140000Y-138740000D03*
X86140000Y-141280000D03*
X86140000Y-143820000D03*
X86140000Y-146360000D03*
X86140000Y-148900000D03*
X86140000Y-151440000D03*
X86140000Y-153980000D03*
X86140000Y-156520000D03*
X86140000Y-159060000D03*
X86140000Y-161600000D03*
X86140000Y-164140000D03*
X86140000Y-166680000D03*
X86140000Y-169220000D03*
X86140000Y-171760000D03*
X86140000Y-174300000D03*
X86140000Y-176840000D03*
X86140000Y-179380000D03*
X86140000Y-181920000D03*
X86140000Y-184460000D03*
X86140000Y-187000000D03*
X93760000Y-103180000D03*
X93760000Y-105720000D03*
X93760000Y-108260000D03*
X93760000Y-110800000D03*
X93760000Y-113340000D03*
X93760000Y-115880000D03*
X93760000Y-118420000D03*
X93760000Y-120960000D03*
X93760000Y-123500000D03*
X93760000Y-126040000D03*
X93760000Y-128580000D03*
X93760000Y-131120000D03*
X93760000Y-133660000D03*
X93760000Y-136200000D03*
X93760000Y-138740000D03*
X93760000Y-141280000D03*
X93760000Y-143820000D03*
X93760000Y-146360000D03*
X93760000Y-148900000D03*
X93760000Y-151440000D03*
X93760000Y-153980000D03*
X93760000Y-156520000D03*
X93760000Y-159060000D03*
X93760000Y-161600000D03*
X93760000Y-164140000D03*
X93760000Y-166680000D03*
X93760000Y-169220000D03*
X93760000Y-171760000D03*
X93760000Y-174300000D03*
X93760000Y-176840000D03*
X93760000Y-179380000D03*
X93760000Y-181920000D03*
X93760000Y-184460000D03*
X93760000Y-187000000D03*
X96300000Y-103180000D03*
X96300000Y-105720000D03*
X96300000Y-108260000D03*
X96300000Y-110800000D03*
X96300000Y-113340000D03*
X96300000Y-115880000D03*
X96300000Y-118420000D03*
X96300000Y-120960000D03*
X96300000Y-123500000D03*
X96300000Y-126040000D03*
X96300000Y-128580000D03*
X96300000Y-131120000D03*
X96300000Y-133660000D03*
X96300000Y-136200000D03*
X96300000Y-138740000D03*
X96300000Y-141280000D03*
X96300000Y-143820000D03*
X96300000Y-146360000D03*
X96300000Y-148900000D03*
X96300000Y-151440000D03*
X96300000Y-153980000D03*
X96300000Y-156520000D03*
X96300000Y-159060000D03*
X96300000Y-161600000D03*
X96300000Y-164140000D03*
X96300000Y-166680000D03*
X96300000Y-169220000D03*
X96300000Y-171760000D03*
X96300000Y-174300000D03*
X96300000Y-176840000D03*
X96300000Y-179380000D03*
X96300000Y-181920000D03*
X96300000Y-184460000D03*
X96300000Y-187000000D03*
X103920000Y-103180000D03*
X103920000Y-105720000D03*
X103920000Y-108260000D03*
X103920000Y-110800000D03*
X103920000Y-113340000D03*
X103920000Y-115880000D03*
X103920000Y-118420000D03*
X103920000Y-120960000D03*
X103920000Y-123500000D03*
X103920000Y-126040000D03*
X103920000Y-128580000D03*
X103920000Y-131120000D03*
X103920000Y-133660000D03*
X103920000Y-136200000D03*
X103920000Y-138740000D03*
X103920000Y-141280000D03*
X103920000Y-143820000D03*
X103920000Y-146360000D03*
X103920000Y-148900000D03*
X103920000Y-151440000D03*
X103920000Y-153980000D03*
X103920000Y-156520000D03*
X103920000Y-159060000D03*
X103920000Y-161600000D03*
X103920000Y-164140000D03*
X103920000Y-166680000D03*
X103920000Y-169220000D03*
X103920000Y-171760000D03*
X103920000Y-174300000D03*
X103920000Y-176840000D03*
X103920000Y-179380000D03*
X103920000Y-181920000D03*
X103920000Y-184460000D03*
X103920000Y-187000000D03*
X106460000Y-103180000D03*
X106460000Y-105720000D03*
X106460000Y-108260000D03*
X106460000Y-110800000D03*
X106460000Y-113340000D03*
X106460000Y-115880000D03*
X106460000Y-118420000D03*
X106460000Y-120960000D03*
X106460000Y-123500000D03*
X106460000Y-126040000D03*
X106460000Y-128580000D03*
X106460000Y-131120000D03*
X106460000Y-133660000D03*
X106460000Y-136200000D03*
X106460000Y-138740000D03*
X106460000Y-141280000D03*
X106460000Y-143820000D03*
X106460000Y-146360000D03*
X106460000Y-148900000D03*
X106460000Y-151440000D03*
X106460000Y-153980000D03*
X106460000Y-156520000D03*
X106460000Y-159060000D03*
X106460000Y-161600000D03*
X106460000Y-164140000D03*
X106460000Y-166680000D03*
X106460000Y-169220000D03*
X106460000Y-171760000D03*
X106460000Y-174300000D03*
X106460000Y-176840000D03*
X106460000Y-179380000D03*
X106460000Y-181920000D03*
X106460000Y-184460000D03*
X106460000Y-187000000D03*
X136940000Y-103180000D03*
X136940000Y-105720000D03*
X136940000Y-108260000D03*
X136940000Y-110800000D03*
X136940000Y-113340000D03*
X136940000Y-115880000D03*
X136940000Y-118420000D03*
X136940000Y-120960000D03*
X136940000Y-123500000D03*
X136940000Y-126040000D03*
X136940000Y-128580000D03*
X136940000Y-131120000D03*
X136940000Y-133660000D03*
X136940000Y-136200000D03*
X136940000Y-138740000D03*
X136940000Y-141280000D03*
X136940000Y-143820000D03*
X136940000Y-146360000D03*
X136940000Y-148900000D03*
X136940000Y-151440000D03*
X136940000Y-153980000D03*
X136940000Y-156520000D03*
X136940000Y-159060000D03*
X136940000Y-161600000D03*
X136940000Y-164140000D03*
X136940000Y-166680000D03*
X136940000Y-169220000D03*
X136940000Y-171760000D03*
X136940000Y-174300000D03*
X136940000Y-176840000D03*
X136940000Y-179380000D03*
X136940000Y-181920000D03*
X136940000Y-184460000D03*
X136940000Y-187000000D03*
D11*
X55110000Y-95060000D03*
D10*
X124240000Y-103180000D03*
X124240000Y-105720000D03*
X124240000Y-108260000D03*
X124240000Y-110800000D03*
X124240000Y-113340000D03*
X124240000Y-115880000D03*
X124240000Y-118420000D03*
X124240000Y-120960000D03*
X124240000Y-123500000D03*
X124240000Y-126040000D03*
X124240000Y-128580000D03*
X124240000Y-131120000D03*
X124240000Y-133660000D03*
X124240000Y-136200000D03*
X124240000Y-138740000D03*
X124240000Y-141280000D03*
X124240000Y-143820000D03*
X124240000Y-146360000D03*
X124240000Y-148900000D03*
X124240000Y-151440000D03*
X124240000Y-153980000D03*
X124240000Y-156520000D03*
X124240000Y-159060000D03*
X124240000Y-161600000D03*
X124240000Y-164140000D03*
X124240000Y-166680000D03*
X124240000Y-169220000D03*
X124240000Y-171760000D03*
X124240000Y-174300000D03*
X124240000Y-176840000D03*
X124240000Y-179380000D03*
X124240000Y-181920000D03*
X124240000Y-184460000D03*
X124240000Y-187000000D03*
X126780000Y-103180000D03*
X126780000Y-105720000D03*
X126780000Y-108260000D03*
X126780000Y-110800000D03*
X126780000Y-113340000D03*
X126780000Y-115880000D03*
X126780000Y-118420000D03*
X126780000Y-120960000D03*
X126780000Y-123500000D03*
X126780000Y-126040000D03*
X126780000Y-128580000D03*
X126780000Y-131120000D03*
X126780000Y-133660000D03*
X126780000Y-136200000D03*
X126780000Y-138740000D03*
X126780000Y-141280000D03*
X126780000Y-143820000D03*
X126780000Y-146360000D03*
X126780000Y-148900000D03*
X126780000Y-151440000D03*
X126780000Y-153980000D03*
X126780000Y-156520000D03*
X126780000Y-159060000D03*
X126780000Y-161600000D03*
X126780000Y-164140000D03*
X126780000Y-166680000D03*
X126780000Y-169220000D03*
X126780000Y-171760000D03*
X126780000Y-174300000D03*
X126780000Y-176840000D03*
X126780000Y-179380000D03*
X126780000Y-181920000D03*
X126780000Y-184460000D03*
X126780000Y-187000000D03*
X129320000Y-103180000D03*
X129320000Y-105720000D03*
X129320000Y-108260000D03*
X129320000Y-110800000D03*
X129320000Y-113340000D03*
X129320000Y-115880000D03*
X129320000Y-118420000D03*
X129320000Y-120960000D03*
X129320000Y-123500000D03*
X129320000Y-126040000D03*
X129320000Y-128580000D03*
X129320000Y-131120000D03*
X129320000Y-133660000D03*
X129320000Y-136200000D03*
X129320000Y-138740000D03*
X129320000Y-141280000D03*
X129320000Y-143820000D03*
X129320000Y-146360000D03*
X129320000Y-148900000D03*
X129320000Y-151440000D03*
X129320000Y-153980000D03*
X129320000Y-156520000D03*
X129320000Y-159060000D03*
X129320000Y-161600000D03*
X129320000Y-164140000D03*
X129320000Y-166680000D03*
X129320000Y-169220000D03*
X129320000Y-171760000D03*
X129320000Y-174300000D03*
X129320000Y-176840000D03*
X129320000Y-179380000D03*
X129320000Y-181920000D03*
X129320000Y-184460000D03*
X129320000Y-187000000D03*
X134400000Y-103180000D03*
X134400000Y-105720000D03*
X134400000Y-108260000D03*
X134400000Y-110800000D03*
X134400000Y-113340000D03*
X134400000Y-115880000D03*
X134400000Y-118420000D03*
X134400000Y-120960000D03*
X134400000Y-123500000D03*
X134400000Y-126040000D03*
X134400000Y-128580000D03*
X134400000Y-131120000D03*
X134400000Y-133660000D03*
X134400000Y-136200000D03*
X134400000Y-138740000D03*
X134400000Y-141280000D03*
X134400000Y-143820000D03*
X134400000Y-146360000D03*
X134400000Y-148900000D03*
X134400000Y-151440000D03*
X134400000Y-153980000D03*
X134400000Y-156520000D03*
X134400000Y-159060000D03*
X134400000Y-161600000D03*
X134400000Y-164140000D03*
X134400000Y-166680000D03*
X134400000Y-169220000D03*
X134400000Y-171760000D03*
X134400000Y-174300000D03*
X134400000Y-176840000D03*
X134400000Y-179380000D03*
X134400000Y-181920000D03*
X134400000Y-184460000D03*
X134400000Y-187000000D03*
D11*
X55110000Y-195060000D03*
D10*
X131860000Y-103180000D03*
X131860000Y-105720000D03*
X131860000Y-108260000D03*
X131860000Y-110800000D03*
X131860000Y-113340000D03*
X131860000Y-115880000D03*
X131860000Y-118420000D03*
X131860000Y-120960000D03*
X131860000Y-123500000D03*
X131860000Y-126040000D03*
X131860000Y-128580000D03*
X131860000Y-131120000D03*
X131860000Y-133660000D03*
X131860000Y-136200000D03*
X131860000Y-138740000D03*
X131860000Y-141280000D03*
X131860000Y-143820000D03*
X131860000Y-146360000D03*
X131860000Y-148900000D03*
X131860000Y-151440000D03*
X131860000Y-153980000D03*
X131860000Y-156520000D03*
X131860000Y-159060000D03*
X131860000Y-161600000D03*
X131860000Y-164140000D03*
X131860000Y-166680000D03*
X131860000Y-169220000D03*
X131860000Y-171760000D03*
X131860000Y-174300000D03*
X131860000Y-176840000D03*
X131860000Y-179380000D03*
X131860000Y-181920000D03*
X131860000Y-184460000D03*
X131860000Y-187000000D03*
X103920000Y-95560000D03*
X106460000Y-95560000D03*
X109000000Y-95560000D03*
X111540000Y-95560000D03*
X114080000Y-95560000D03*
X116620000Y-95560000D03*
D11*
X145110000Y-195060000D03*
D10*
X53120000Y-103180000D03*
X53120000Y-105720000D03*
X53120000Y-108260000D03*
X53120000Y-110800000D03*
X53120000Y-113340000D03*
X53120000Y-115880000D03*
X53120000Y-118420000D03*
X53120000Y-120960000D03*
X53120000Y-123500000D03*
X53120000Y-126040000D03*
X53120000Y-128580000D03*
X53120000Y-131120000D03*
X53120000Y-133660000D03*
X53120000Y-136200000D03*
X53120000Y-138740000D03*
X53120000Y-141280000D03*
X53120000Y-143820000D03*
X53120000Y-146360000D03*
X53120000Y-148900000D03*
X53120000Y-151440000D03*
X53120000Y-153980000D03*
X53120000Y-156520000D03*
X53120000Y-159060000D03*
X53120000Y-161600000D03*
X53120000Y-164140000D03*
X53120000Y-166680000D03*
X53120000Y-169220000D03*
X53120000Y-171760000D03*
X53120000Y-174300000D03*
X53120000Y-176840000D03*
X53120000Y-179380000D03*
X53120000Y-181920000D03*
X53120000Y-184460000D03*
X53120000Y-187000000D03*
X144560000Y-103180000D03*
X144560000Y-105720000D03*
X144560000Y-108260000D03*
X144560000Y-110800000D03*
X144560000Y-113340000D03*
X144560000Y-115880000D03*
X144560000Y-118420000D03*
X144560000Y-120960000D03*
X144560000Y-123500000D03*
X144560000Y-126040000D03*
X144560000Y-128580000D03*
X144560000Y-131120000D03*
X144560000Y-133660000D03*
X144560000Y-136200000D03*
X144560000Y-138740000D03*
X144560000Y-141280000D03*
X144560000Y-143820000D03*
X144560000Y-146360000D03*
X144560000Y-148900000D03*
X144560000Y-151440000D03*
X144560000Y-153980000D03*
X144560000Y-156520000D03*
X144560000Y-159060000D03*
X144560000Y-161600000D03*
X144560000Y-164140000D03*
X144560000Y-166680000D03*
X144560000Y-169220000D03*
X144560000Y-171760000D03*
X144560000Y-174300000D03*
X144560000Y-176840000D03*
X144560000Y-179380000D03*
X144560000Y-181920000D03*
X144560000Y-184460000D03*
X144560000Y-187000000D03*
X103920000Y-194620000D03*
X106460000Y-194620000D03*
X109000000Y-194620000D03*
X111540000Y-194620000D03*
X114080000Y-194620000D03*
X116620000Y-194620000D03*
X96300000Y-95560000D03*
X93760000Y-95560000D03*
X91220000Y-95560000D03*
X88680000Y-95560000D03*
X86140000Y-95560000D03*
X83600000Y-95560000D03*
D11*
X145110000Y-95060000D03*
D10*
X55660000Y-103180000D03*
X55660000Y-105720000D03*
X55660000Y-108260000D03*
X55660000Y-110800000D03*
X55660000Y-113340000D03*
X55660000Y-115880000D03*
X55660000Y-118420000D03*
X55660000Y-120960000D03*
X55660000Y-123500000D03*
X55660000Y-126040000D03*
X55660000Y-128580000D03*
X55660000Y-131120000D03*
X55660000Y-133660000D03*
X55660000Y-136200000D03*
X55660000Y-138740000D03*
X55660000Y-141280000D03*
X55660000Y-143820000D03*
X55660000Y-146360000D03*
X55660000Y-148900000D03*
X55660000Y-151440000D03*
X55660000Y-153980000D03*
X55660000Y-156520000D03*
X55660000Y-159060000D03*
X55660000Y-161600000D03*
X55660000Y-164140000D03*
X55660000Y-166680000D03*
X55660000Y-169220000D03*
X55660000Y-171760000D03*
X55660000Y-174300000D03*
X55660000Y-176840000D03*
X55660000Y-179380000D03*
X55660000Y-181920000D03*
X55660000Y-184460000D03*
X55660000Y-187000000D03*
X96300000Y-194620000D03*
X93760000Y-194620000D03*
X91220000Y-194620000D03*
X88680000Y-194620000D03*
X86140000Y-194620000D03*
X83600000Y-194620000D03*
X147100000Y-103180000D03*
X147100000Y-105720000D03*
X147100000Y-108260000D03*
X147100000Y-110800000D03*
X147100000Y-113340000D03*
X147100000Y-115880000D03*
X147100000Y-118420000D03*
X147100000Y-120960000D03*
X147100000Y-123500000D03*
X147100000Y-126040000D03*
X147100000Y-128580000D03*
X147100000Y-131120000D03*
X147100000Y-133660000D03*
X147100000Y-136200000D03*
X147100000Y-138740000D03*
X147100000Y-141280000D03*
X147100000Y-143820000D03*
X147100000Y-146360000D03*
X147100000Y-148900000D03*
X147100000Y-151440000D03*
X147100000Y-153980000D03*
X147100000Y-156520000D03*
X147100000Y-159060000D03*
X147100000Y-161600000D03*
X147100000Y-164140000D03*
X147100000Y-166680000D03*
X147100000Y-169220000D03*
X147100000Y-171760000D03*
X147100000Y-174300000D03*
X147100000Y-176840000D03*
X147100000Y-179380000D03*
X147100000Y-181920000D03*
X147100000Y-184460000D03*
X147100000Y-187000000D03*
X65820000Y-103180000D03*
X65820000Y-105720000D03*
X65820000Y-108260000D03*
X65820000Y-110800000D03*
X65820000Y-113340000D03*
X65820000Y-115880000D03*
X65820000Y-118420000D03*
X65820000Y-120960000D03*
X65820000Y-123500000D03*
X65820000Y-126040000D03*
X65820000Y-128580000D03*
X65820000Y-131120000D03*
X65820000Y-133660000D03*
X65820000Y-136200000D03*
X65820000Y-138740000D03*
X65820000Y-141280000D03*
X65820000Y-143820000D03*
X65820000Y-146360000D03*
X65820000Y-148900000D03*
X65820000Y-151440000D03*
X65820000Y-153980000D03*
X65820000Y-156520000D03*
X65820000Y-159060000D03*
X65820000Y-161600000D03*
X65820000Y-164140000D03*
X65820000Y-166680000D03*
X65820000Y-169220000D03*
X65820000Y-171760000D03*
X65820000Y-174300000D03*
X65820000Y-176840000D03*
X65820000Y-179380000D03*
X65820000Y-181920000D03*
X65820000Y-184460000D03*
X65820000Y-187000000D03*
X116620000Y-103180000D03*
X116620000Y-105720000D03*
X116620000Y-108260000D03*
X116620000Y-110800000D03*
X116620000Y-113340000D03*
X116620000Y-115880000D03*
X116620000Y-118420000D03*
X116620000Y-120960000D03*
X116620000Y-123500000D03*
X116620000Y-126040000D03*
X116620000Y-128580000D03*
X116620000Y-131120000D03*
X116620000Y-133660000D03*
X116620000Y-136200000D03*
X116620000Y-138740000D03*
X116620000Y-141280000D03*
X116620000Y-143820000D03*
X116620000Y-146360000D03*
X116620000Y-148900000D03*
X116620000Y-151440000D03*
X116620000Y-153980000D03*
X116620000Y-156520000D03*
X116620000Y-159060000D03*
X116620000Y-161600000D03*
X116620000Y-164140000D03*
X116620000Y-166680000D03*
X116620000Y-169220000D03*
X116620000Y-171760000D03*
X116620000Y-174300000D03*
X116620000Y-176840000D03*
X116620000Y-179380000D03*
X116620000Y-181920000D03*
X116620000Y-184460000D03*
X116620000Y-187000000D03*
X111540000Y-103180000D03*
X111540000Y-105720000D03*
X111540000Y-108260000D03*
X111540000Y-110800000D03*
X111540000Y-113340000D03*
X111540000Y-115880000D03*
X111540000Y-118420000D03*
X111540000Y-120960000D03*
X111540000Y-123500000D03*
X111540000Y-126040000D03*
X111540000Y-128580000D03*
X111540000Y-131120000D03*
X111540000Y-133660000D03*
X111540000Y-136200000D03*
X111540000Y-138740000D03*
X111540000Y-141280000D03*
X111540000Y-143820000D03*
X111540000Y-146360000D03*
X111540000Y-148900000D03*
X111540000Y-151440000D03*
X111540000Y-153980000D03*
X111540000Y-156520000D03*
X111540000Y-159060000D03*
X111540000Y-161600000D03*
X111540000Y-164140000D03*
X111540000Y-166680000D03*
X111540000Y-169220000D03*
X111540000Y-171760000D03*
X111540000Y-174300000D03*
X111540000Y-176840000D03*
X111540000Y-179380000D03*
X111540000Y-181920000D03*
X111540000Y-184460000D03*
X111540000Y-187000000D03*
X109000000Y-103180000D03*
X109000000Y-105720000D03*
X109000000Y-108260000D03*
X109000000Y-110800000D03*
X109000000Y-113340000D03*
X109000000Y-115880000D03*
X109000000Y-118420000D03*
X109000000Y-120960000D03*
X109000000Y-123500000D03*
X109000000Y-126040000D03*
X109000000Y-128580000D03*
X109000000Y-131120000D03*
X109000000Y-133660000D03*
X109000000Y-136200000D03*
X109000000Y-138740000D03*
X109000000Y-141280000D03*
X109000000Y-143820000D03*
X109000000Y-146360000D03*
X109000000Y-148900000D03*
X109000000Y-151440000D03*
X109000000Y-153980000D03*
X109000000Y-156520000D03*
X109000000Y-159060000D03*
X109000000Y-161600000D03*
X109000000Y-164140000D03*
X109000000Y-166680000D03*
X109000000Y-169220000D03*
X109000000Y-171760000D03*
X109000000Y-174300000D03*
X109000000Y-176840000D03*
X109000000Y-179380000D03*
X109000000Y-181920000D03*
X109000000Y-184460000D03*
X109000000Y-187000000D03*
X114080000Y-103180000D03*
X114080000Y-105720000D03*
X114080000Y-108260000D03*
X114080000Y-110800000D03*
X114080000Y-113340000D03*
X114080000Y-115880000D03*
X114080000Y-118420000D03*
X114080000Y-120960000D03*
X114080000Y-123500000D03*
X114080000Y-126040000D03*
X114080000Y-128580000D03*
X114080000Y-131120000D03*
X114080000Y-133660000D03*
X114080000Y-136200000D03*
X114080000Y-138740000D03*
X114080000Y-141280000D03*
X114080000Y-143820000D03*
X114080000Y-146360000D03*
X114080000Y-148900000D03*
X114080000Y-151440000D03*
X114080000Y-153980000D03*
X114080000Y-156520000D03*
X114080000Y-159060000D03*
X114080000Y-161600000D03*
X114080000Y-164140000D03*
X114080000Y-166680000D03*
X114080000Y-169220000D03*
X114080000Y-171760000D03*
X114080000Y-174300000D03*
X114080000Y-176840000D03*
X114080000Y-179380000D03*
X114080000Y-181920000D03*
X114080000Y-184460000D03*
X114080000Y-187000000D03*
X75980000Y-103180000D03*
X75980000Y-105720000D03*
X75980000Y-108260000D03*
X75980000Y-110800000D03*
X75980000Y-113340000D03*
X75980000Y-115880000D03*
X75980000Y-118420000D03*
X75980000Y-120960000D03*
X75980000Y-123500000D03*
X75980000Y-126040000D03*
X75980000Y-128580000D03*
X75980000Y-131120000D03*
X75980000Y-133660000D03*
X75980000Y-136200000D03*
X75980000Y-138740000D03*
X75980000Y-141280000D03*
X75980000Y-143820000D03*
X75980000Y-146360000D03*
X75980000Y-148900000D03*
X75980000Y-151440000D03*
X75980000Y-153980000D03*
X75980000Y-156520000D03*
X75980000Y-159060000D03*
X75980000Y-161600000D03*
X75980000Y-164140000D03*
X75980000Y-166680000D03*
X75980000Y-169220000D03*
X75980000Y-171760000D03*
X75980000Y-174300000D03*
X75980000Y-176840000D03*
X75980000Y-179380000D03*
X75980000Y-181920000D03*
X75980000Y-184460000D03*
X75980000Y-187000000D03*
%LPD*%
D12*
X145110000Y-200060000D02*
X55110000Y-200060000D01*
X50110000Y-95060000D02*
G75*
G02*
X55110000Y-90060000I5000000J0D01*
G01*
X55110000Y-200060000D02*
G75*
G02*
X50110000Y-195060000I0J5000000D01*
G01*
X150110000Y-195060000D02*
G75*
G02*
X145110000Y-200060000I-5000000J0D01*
G01*
X145110000Y-90060000D02*
G75*
G02*
X150110000Y-95060000I0J-5000000D01*
G01*
X50110000Y-195060000D02*
X50110000Y-95060000D01*
X150110000Y-95060000D02*
X150110000Y-195060000D01*
X55110000Y-90060000D02*
X145110000Y-90060000D01*
M02*
