M48
; DRILL file {KiCad 9.0.1} date 2026-01-25T19:12:46-0500
; FORMAT={-:-/ absolute / inch / decimal}
; #@! TF.CreationDate,2026-01-25T19:12:46-05:00
; #@! TF.GenerationSoftware,Kicad,Pcbnew,9.0.1
; #@! TF.FileFunction,Plated,1,2,PTH
FMAT,2
INCH
; #@! TA.AperFunction,Plated,PTH,ComponentDrill
T1C0.0300
%
G90
G05
T1
X2.0913Y-4.0622
X2.0913Y-4.1622
X2.0913Y-4.2622
X2.0913Y-4.3622
X2.0913Y-4.4622
X2.0913Y-4.5622
X2.0913Y-4.6622
X2.0913Y-4.7622
X2.0913Y-4.8622
X2.0913Y-4.9622
X2.0913Y-5.0622
X2.0913Y-5.1622
X2.0913Y-5.2622
X2.0913Y-5.3622
X2.0913Y-5.4622
X2.0913Y-5.5622
X2.0913Y-5.6622
X2.0913Y-5.7622
X2.0913Y-5.8622
X2.0913Y-5.9622
X2.0913Y-6.0622
X2.0913Y-6.1622
X2.0913Y-6.2622
X2.0913Y-6.3622
X2.0913Y-6.4622
X2.0913Y-6.5622
X2.0913Y-6.6622
X2.0913Y-6.7622
X2.0913Y-6.8622
X2.0913Y-6.9622
X2.0913Y-7.0622
X2.0913Y-7.1622
X2.0913Y-7.2622
X2.0913Y-7.3622
X2.1913Y-4.0622
X2.1913Y-4.1622
X2.1913Y-4.2622
X2.1913Y-4.3622
X2.1913Y-4.4622
X2.1913Y-4.5622
X2.1913Y-4.6622
X2.1913Y-4.7622
X2.1913Y-4.8622
X2.1913Y-4.9622
X2.1913Y-5.0622
X2.1913Y-5.1622
X2.1913Y-5.2622
X2.1913Y-5.3622
X2.1913Y-5.4622
X2.1913Y-5.5622
X2.1913Y-5.6622
X2.1913Y-5.7622
X2.1913Y-5.8622
X2.1913Y-5.9622
X2.1913Y-6.0622
X2.1913Y-6.1622
X2.1913Y-6.2622
X2.1913Y-6.3622
X2.1913Y-6.4622
X2.1913Y-6.5622
X2.1913Y-6.6622
X2.1913Y-6.7622
X2.1913Y-6.8622
X2.1913Y-6.9622
X2.1913Y-7.0622
X2.1913Y-7.1622
X2.1913Y-7.2622
X2.1913Y-7.3622
X2.4913Y-4.0622
X2.4913Y-4.1622
X2.4913Y-4.2622
X2.4913Y-4.3622
X2.4913Y-4.4622
X2.4913Y-4.5622
X2.4913Y-4.6622
X2.4913Y-4.7622
X2.4913Y-4.8622
X2.4913Y-4.9622
X2.4913Y-5.0622
X2.4913Y-5.1622
X2.4913Y-5.2622
X2.4913Y-5.3622
X2.4913Y-5.4622
X2.4913Y-5.5622
X2.4913Y-5.6622
X2.4913Y-5.7622
X2.4913Y-5.8622
X2.4913Y-5.9622
X2.4913Y-6.0622
X2.4913Y-6.1622
X2.4913Y-6.2622
X2.4913Y-6.3622
X2.4913Y-6.4622
X2.4913Y-6.5622
X2.4913Y-6.6622
X2.4913Y-6.7622
X2.4913Y-6.8622
X2.4913Y-6.9622
X2.4913Y-7.0622
X2.4913Y-7.1622
X2.4913Y-7.2622
X2.4913Y-7.3622
X2.5913Y-4.0622
X2.5913Y-4.1622
X2.5913Y-4.2622
X2.5913Y-4.3622
X2.5913Y-4.4622
X2.5913Y-4.5622
X2.5913Y-4.6622
X2.5913Y-4.7622
X2.5913Y-4.8622
X2.5913Y-4.9622
X2.5913Y-5.0622
X2.5913Y-5.1622
X2.5913Y-5.2622
X2.5913Y-5.3622
X2.5913Y-5.4622
X2.5913Y-5.5622
X2.5913Y-5.6622
X2.5913Y-5.7622
X2.5913Y-5.8622
X2.5913Y-5.9622
X2.5913Y-6.0622
X2.5913Y-6.1622
X2.5913Y-6.2622
X2.5913Y-6.3622
X2.5913Y-6.4622
X2.5913Y-6.5622
X2.5913Y-6.6622
X2.5913Y-6.7622
X2.5913Y-6.8622
X2.5913Y-6.9622
X2.5913Y-7.0622
X2.5913Y-7.1622
X2.5913Y-7.2622
X2.5913Y-7.3622
X2.6913Y-4.0622
X2.6913Y-4.1622
X2.6913Y-4.2622
X2.6913Y-4.3622
X2.6913Y-4.4622
X2.6913Y-4.5622
X2.6913Y-4.6622
X2.6913Y-4.7622
X2.6913Y-4.8622
X2.6913Y-4.9622
X2.6913Y-5.0622
X2.6913Y-5.1622
X2.6913Y-5.2622
X2.6913Y-5.3622
X2.6913Y-5.4622
X2.6913Y-5.5622
X2.6913Y-5.6622
X2.6913Y-5.7622
X2.6913Y-5.8622
X2.6913Y-5.9622
X2.6913Y-6.0622
X2.6913Y-6.1622
X2.6913Y-6.2622
X2.6913Y-6.3622
X2.6913Y-6.4622
X2.6913Y-6.5622
X2.6913Y-6.6622
X2.6913Y-6.7622
X2.6913Y-6.8622
X2.6913Y-6.9622
X2.6913Y-7.0622
X2.6913Y-7.1622
X2.6913Y-7.2622
X2.6913Y-7.3622
X2.7913Y-4.0622
X2.7913Y-4.1622
X2.7913Y-4.2622
X2.7913Y-4.3622
X2.7913Y-4.4622
X2.7913Y-4.5622
X2.7913Y-4.6622
X2.7913Y-4.7622
X2.7913Y-4.8622
X2.7913Y-4.9622
X2.7913Y-5.0622
X2.7913Y-5.1622
X2.7913Y-5.2622
X2.7913Y-5.3622
X2.7913Y-5.4622
X2.7913Y-5.5622
X2.7913Y-5.6622
X2.7913Y-5.7622
X2.7913Y-5.8622
X2.7913Y-5.9622
X2.7913Y-6.0622
X2.7913Y-6.1622
X2.7913Y-6.2622
X2.7913Y-6.3622
X2.7913Y-6.4622
X2.7913Y-6.5622
X2.7913Y-6.6622
X2.7913Y-6.7622
X2.7913Y-6.8622
X2.7913Y-6.9622
X2.7913Y-7.0622
X2.7913Y-7.1622
X2.7913Y-7.2622
X2.7913Y-7.3622
X2.8913Y-4.0622
X2.8913Y-4.1622
X2.8913Y-4.2622
X2.8913Y-4.3622
X2.8913Y-4.4622
X2.8913Y-4.5622
X2.8913Y-4.6622
X2.8913Y-4.7622
X2.8913Y-4.8622
X2.8913Y-4.9622
X2.8913Y-5.0622
X2.8913Y-5.1622
X2.8913Y-5.2622
X2.8913Y-5.3622
X2.8913Y-5.4622
X2.8913Y-5.5622
X2.8913Y-5.6622
X2.8913Y-5.7622
X2.8913Y-5.8622
X2.8913Y-5.9622
X2.8913Y-6.0622
X2.8913Y-6.1622
X2.8913Y-6.2622
X2.8913Y-6.3622
X2.8913Y-6.4622
X2.8913Y-6.5622
X2.8913Y-6.6622
X2.8913Y-6.7622
X2.8913Y-6.8622
X2.8913Y-6.9622
X2.8913Y-7.0622
X2.8913Y-7.1622
X2.8913Y-7.2622
X2.8913Y-7.3622
X2.9913Y-4.0622
X2.9913Y-4.1622
X2.9913Y-4.2622
X2.9913Y-4.3622
X2.9913Y-4.4622
X2.9913Y-4.5622
X2.9913Y-4.6622
X2.9913Y-4.7622
X2.9913Y-4.8622
X2.9913Y-4.9622
X2.9913Y-5.0622
X2.9913Y-5.1622
X2.9913Y-5.2622
X2.9913Y-5.3622
X2.9913Y-5.4622
X2.9913Y-5.5622
X2.9913Y-5.6622
X2.9913Y-5.7622
X2.9913Y-5.8622
X2.9913Y-5.9622
X2.9913Y-6.0622
X2.9913Y-6.1622
X2.9913Y-6.2622
X2.9913Y-6.3622
X2.9913Y-6.4622
X2.9913Y-6.5622
X2.9913Y-6.6622
X2.9913Y-6.7622
X2.9913Y-6.8622
X2.9913Y-6.9622
X2.9913Y-7.0622
X2.9913Y-7.1622
X2.9913Y-7.2622
X2.9913Y-7.3622
X3.2913Y-3.7622
X3.2913Y-4.0622
X3.2913Y-4.1622
X3.2913Y-4.2622
X3.2913Y-4.3622
X3.2913Y-4.4622
X3.2913Y-4.5622
X3.2913Y-4.6622
X3.2913Y-4.7622
X3.2913Y-4.8622
X3.2913Y-4.9622
X3.2913Y-5.0622
X3.2913Y-5.1622
X3.2913Y-5.2622
X3.2913Y-5.3622
X3.2913Y-5.4622
X3.2913Y-5.5622
X3.2913Y-5.6622
X3.2913Y-5.7622
X3.2913Y-5.8622
X3.2913Y-5.9622
X3.2913Y-6.0622
X3.2913Y-6.1622
X3.2913Y-6.2622
X3.2913Y-6.3622
X3.2913Y-6.4622
X3.2913Y-6.5622
X3.2913Y-6.6622
X3.2913Y-6.7622
X3.2913Y-6.8622
X3.2913Y-6.9622
X3.2913Y-7.0622
X3.2913Y-7.1622
X3.2913Y-7.2622
X3.2913Y-7.3622
X3.2913Y-7.6622
X3.3913Y-3.7622
X3.3913Y-4.0622
X3.3913Y-4.1622
X3.3913Y-4.2622
X3.3913Y-4.3622
X3.3913Y-4.4622
X3.3913Y-4.5622
X3.3913Y-4.6622
X3.3913Y-4.7622
X3.3913Y-4.8622
X3.3913Y-4.9622
X3.3913Y-5.0622
X3.3913Y-5.1622
X3.3913Y-5.2622
X3.3913Y-5.3622
X3.3913Y-5.4622
X3.3913Y-5.5622
X3.3913Y-5.6622
X3.3913Y-5.7622
X3.3913Y-5.8622
X3.3913Y-5.9622
X3.3913Y-6.0622
X3.3913Y-6.1622
X3.3913Y-6.2622
X3.3913Y-6.3622
X3.3913Y-6.4622
X3.3913Y-6.5622
X3.3913Y-6.6622
X3.3913Y-6.7622
X3.3913Y-6.8622
X3.3913Y-6.9622
X3.3913Y-7.0622
X3.3913Y-7.1622
X3.3913Y-7.2622
X3.3913Y-7.3622
X3.3913Y-7.6622
X3.4913Y-3.7622
X3.4913Y-4.0622
X3.4913Y-4.1622
X3.4913Y-4.2622
X3.4913Y-4.3622
X3.4913Y-4.4622
X3.4913Y-4.5622
X3.4913Y-4.6622
X3.4913Y-4.7622
X3.4913Y-4.8622
X3.4913Y-4.9622
X3.4913Y-5.0622
X3.4913Y-5.1622
X3.4913Y-5.2622
X3.4913Y-5.3622
X3.4913Y-5.4622
X3.4913Y-5.5622
X3.4913Y-5.6622
X3.4913Y-5.7622
X3.4913Y-5.8622
X3.4913Y-5.9622
X3.4913Y-6.0622
X3.4913Y-6.1622
X3.4913Y-6.2622
X3.4913Y-6.3622
X3.4913Y-6.4622
X3.4913Y-6.5622
X3.4913Y-6.6622
X3.4913Y-6.7622
X3.4913Y-6.8622
X3.4913Y-6.9622
X3.4913Y-7.0622
X3.4913Y-7.1622
X3.4913Y-7.2622
X3.4913Y-7.3622
X3.4913Y-7.6622
X3.5913Y-3.7622
X3.5913Y-4.0622
X3.5913Y-4.1622
X3.5913Y-4.2622
X3.5913Y-4.3622
X3.5913Y-4.4622
X3.5913Y-4.5622
X3.5913Y-4.6622
X3.5913Y-4.7622
X3.5913Y-4.8622
X3.5913Y-4.9622
X3.5913Y-5.0622
X3.5913Y-5.1622
X3.5913Y-5.2622
X3.5913Y-5.3622
X3.5913Y-5.4622
X3.5913Y-5.5622
X3.5913Y-5.6622
X3.5913Y-5.7622
X3.5913Y-5.8622
X3.5913Y-5.9622
X3.5913Y-6.0622
X3.5913Y-6.1622
X3.5913Y-6.2622
X3.5913Y-6.3622
X3.5913Y-6.4622
X3.5913Y-6.5622
X3.5913Y-6.6622
X3.5913Y-6.7622
X3.5913Y-6.8622
X3.5913Y-6.9622
X3.5913Y-7.0622
X3.5913Y-7.1622
X3.5913Y-7.2622
X3.5913Y-7.3622
X3.5913Y-7.6622
X3.6913Y-3.7622
X3.6913Y-4.0622
X3.6913Y-4.1622
X3.6913Y-4.2622
X3.6913Y-4.3622
X3.6913Y-4.4622
X3.6913Y-4.5622
X3.6913Y-4.6622
X3.6913Y-4.7622
X3.6913Y-4.8622
X3.6913Y-4.9622
X3.6913Y-5.0622
X3.6913Y-5.1622
X3.6913Y-5.2622
X3.6913Y-5.3622
X3.6913Y-5.4622
X3.6913Y-5.5622
X3.6913Y-5.6622
X3.6913Y-5.7622
X3.6913Y-5.8622
X3.6913Y-5.9622
X3.6913Y-6.0622
X3.6913Y-6.1622
X3.6913Y-6.2622
X3.6913Y-6.3622
X3.6913Y-6.4622
X3.6913Y-6.5622
X3.6913Y-6.6622
X3.6913Y-6.7622
X3.6913Y-6.8622
X3.6913Y-6.9622
X3.6913Y-7.0622
X3.6913Y-7.1622
X3.6913Y-7.2622
X3.6913Y-7.3622
X3.6913Y-7.6622
X3.7913Y-3.7622
X3.7913Y-4.0622
X3.7913Y-4.1622
X3.7913Y-4.2622
X3.7913Y-4.3622
X3.7913Y-4.4622
X3.7913Y-4.5622
X3.7913Y-4.6622
X3.7913Y-4.7622
X3.7913Y-4.8622
X3.7913Y-4.9622
X3.7913Y-5.0622
X3.7913Y-5.1622
X3.7913Y-5.2622
X3.7913Y-5.3622
X3.7913Y-5.4622
X3.7913Y-5.5622
X3.7913Y-5.6622
X3.7913Y-5.7622
X3.7913Y-5.8622
X3.7913Y-5.9622
X3.7913Y-6.0622
X3.7913Y-6.1622
X3.7913Y-6.2622
X3.7913Y-6.3622
X3.7913Y-6.4622
X3.7913Y-6.5622
X3.7913Y-6.6622
X3.7913Y-6.7622
X3.7913Y-6.8622
X3.7913Y-6.9622
X3.7913Y-7.0622
X3.7913Y-7.1622
X3.7913Y-7.2622
X3.7913Y-7.3622
X3.7913Y-7.6622
X4.0913Y-3.7622
X4.0913Y-4.0622
X4.0913Y-4.1622
X4.0913Y-4.2622
X4.0913Y-4.3622
X4.0913Y-4.4622
X4.0913Y-4.5622
X4.0913Y-4.6622
X4.0913Y-4.7622
X4.0913Y-4.8622
X4.0913Y-4.9622
X4.0913Y-5.0622
X4.0913Y-5.1622
X4.0913Y-5.2622
X4.0913Y-5.3622
X4.0913Y-5.4622
X4.0913Y-5.5622
X4.0913Y-5.6622
X4.0913Y-5.7622
X4.0913Y-5.8622
X4.0913Y-5.9622
X4.0913Y-6.0622
X4.0913Y-6.1622
X4.0913Y-6.2622
X4.0913Y-6.3622
X4.0913Y-6.4622
X4.0913Y-6.5622
X4.0913Y-6.6622
X4.0913Y-6.7622
X4.0913Y-6.8622
X4.0913Y-6.9622
X4.0913Y-7.0622
X4.0913Y-7.1622
X4.0913Y-7.2622
X4.0913Y-7.3622
X4.0913Y-7.6622
X4.1913Y-3.7622
X4.1913Y-4.0622
X4.1913Y-4.1622
X4.1913Y-4.2622
X4.1913Y-4.3622
X4.1913Y-4.4622
X4.1913Y-4.5622
X4.1913Y-4.6622
X4.1913Y-4.7622
X4.1913Y-4.8622
X4.1913Y-4.9622
X4.1913Y-5.0622
X4.1913Y-5.1622
X4.1913Y-5.2622
X4.1913Y-5.3622
X4.1913Y-5.4622
X4.1913Y-5.5622
X4.1913Y-5.6622
X4.1913Y-5.7622
X4.1913Y-5.8622
X4.1913Y-5.9622
X4.1913Y-6.0622
X4.1913Y-6.1622
X4.1913Y-6.2622
X4.1913Y-6.3622
X4.1913Y-6.4622
X4.1913Y-6.5622
X4.1913Y-6.6622
X4.1913Y-6.7622
X4.1913Y-6.8622
X4.1913Y-6.9622
X4.1913Y-7.0622
X4.1913Y-7.1622
X4.1913Y-7.2622
X4.1913Y-7.3622
X4.1913Y-7.6622
X4.2913Y-3.7622
X4.2913Y-4.0622
X4.2913Y-4.1622
X4.2913Y-4.2622
X4.2913Y-4.3622
X4.2913Y-4.4622
X4.2913Y-4.5622
X4.2913Y-4.6622
X4.2913Y-4.7622
X4.2913Y-4.8622
X4.2913Y-4.9622
X4.2913Y-5.0622
X4.2913Y-5.1622
X4.2913Y-5.2622
X4.2913Y-5.3622
X4.2913Y-5.4622
X4.2913Y-5.5622
X4.2913Y-5.6622
X4.2913Y-5.7622
X4.2913Y-5.8622
X4.2913Y-5.9622
X4.2913Y-6.0622
X4.2913Y-6.1622
X4.2913Y-6.2622
X4.2913Y-6.3622
X4.2913Y-6.4622
X4.2913Y-6.5622
X4.2913Y-6.6622
X4.2913Y-6.7622
X4.2913Y-6.8622
X4.2913Y-6.9622
X4.2913Y-7.0622
X4.2913Y-7.1622
X4.2913Y-7.2622
X4.2913Y-7.3622
X4.2913Y-7.6622
X4.3913Y-3.7622
X4.3913Y-4.0622
X4.3913Y-4.1622
X4.3913Y-4.2622
X4.3913Y-4.3622
X4.3913Y-4.4622
X4.3913Y-4.5622
X4.3913Y-4.6622
X4.3913Y-4.7622
X4.3913Y-4.8622
X4.3913Y-4.9622
X4.3913Y-5.0622
X4.3913Y-5.1622
X4.3913Y-5.2622
X4.3913Y-5.3622
X4.3913Y-5.4622
X4.3913Y-5.5622
X4.3913Y-5.6622
X4.3913Y-5.7622
X4.3913Y-5.8622
X4.3913Y-5.9622
X4.3913Y-6.0622
X4.3913Y-6.1622
X4.3913Y-6.2622
X4.3913Y-6.3622
X4.3913Y-6.4622
X4.3913Y-6.5622
X4.3913Y-6.6622
X4.3913Y-6.7622
X4.3913Y-6.8622
X4.3913Y-6.9622
X4.3913Y-7.0622
X4.3913Y-7.1622
X4.3913Y-7.2622
X4.3913Y-7.3622
X4.3913Y-7.6622
X4.4913Y-3.7622
X4.4913Y-4.0622
X4.4913Y-4.1622
X4.4913Y-4.2622
X4.4913Y-4.3622
X4.4913Y-4.4622
X4.4913Y-4.5622
X4.4913Y-4.6622
X4.4913Y-4.7622
X4.4913Y-4.8622
X4.4913Y-4.9622
X4.4913Y-5.0622
X4.4913Y-5.1622
X4.4913Y-5.2622
X4.4913Y-5.3622
X4.4913Y-5.4622
X4.4913Y-5.5622
X4.4913Y-5.6622
X4.4913Y-5.7622
X4.4913Y-5.8622
X4.4913Y-5.9622
X4.4913Y-6.0622
X4.4913Y-6.1622
X4.4913Y-6.2622
X4.4913Y-6.3622
X4.4913Y-6.4622
X4.4913Y-6.5622
X4.4913Y-6.6622
X4.4913Y-6.7622
X4.4913Y-6.8622
X4.4913Y-6.9622
X4.4913Y-7.0622
X4.4913Y-7.1622
X4.4913Y-7.2622
X4.4913Y-7.3622
X4.4913Y-7.6622
X4.5913Y-3.7622
X4.5913Y-4.0622
X4.5913Y-4.1622
X4.5913Y-4.2622
X4.5913Y-4.3622
X4.5913Y-4.4622
X4.5913Y-4.5622
X4.5913Y-4.6622
X4.5913Y-4.7622
X4.5913Y-4.8622
X4.5913Y-4.9622
X4.5913Y-5.0622
X4.5913Y-5.1622
X4.5913Y-5.2622
X4.5913Y-5.3622
X4.5913Y-5.4622
X4.5913Y-5.5622
X4.5913Y-5.6622
X4.5913Y-5.7622
X4.5913Y-5.8622
X4.5913Y-5.9622
X4.5913Y-6.0622
X4.5913Y-6.1622
X4.5913Y-6.2622
X4.5913Y-6.3622
X4.5913Y-6.4622
X4.5913Y-6.5622
X4.5913Y-6.6622
X4.5913Y-6.7622
X4.5913Y-6.8622
X4.5913Y-6.9622
X4.5913Y-7.0622
X4.5913Y-7.1622
X4.5913Y-7.2622
X4.5913Y-7.3622
X4.5913Y-7.6622
X4.8913Y-4.0622
X4.8913Y-4.1622
X4.8913Y-4.2622
X4.8913Y-4.3622
X4.8913Y-4.4622
X4.8913Y-4.5622
X4.8913Y-4.6622
X4.8913Y-4.7622
X4.8913Y-4.8622
X4.8913Y-4.9622
X4.8913Y-5.0622
X4.8913Y-5.1622
X4.8913Y-5.2622
X4.8913Y-5.3622
X4.8913Y-5.4622
X4.8913Y-5.5622
X4.8913Y-5.6622
X4.8913Y-5.7622
X4.8913Y-5.8622
X4.8913Y-5.9622
X4.8913Y-6.0622
X4.8913Y-6.1622
X4.8913Y-6.2622
X4.8913Y-6.3622
X4.8913Y-6.4622
X4.8913Y-6.5622
X4.8913Y-6.6622
X4.8913Y-6.7622
X4.8913Y-6.8622
X4.8913Y-6.9622
X4.8913Y-7.0622
X4.8913Y-7.1622
X4.8913Y-7.2622
X4.8913Y-7.3622
X4.9913Y-4.0622
X4.9913Y-4.1622
X4.9913Y-4.2622
X4.9913Y-4.3622
X4.9913Y-4.4622
X4.9913Y-4.5622
X4.9913Y-4.6622
X4.9913Y-4.7622
X4.9913Y-4.8622
X4.9913Y-4.9622
X4.9913Y-5.0622
X4.9913Y-5.1622
X4.9913Y-5.2622
X4.9913Y-5.3622
X4.9913Y-5.4622
X4.9913Y-5.5622
X4.9913Y-5.6622
X4.9913Y-5.7622
X4.9913Y-5.8622
X4.9913Y-5.9622
X4.9913Y-6.0622
X4.9913Y-6.1622
X4.9913Y-6.2622
X4.9913Y-6.3622
X4.9913Y-6.4622
X4.9913Y-6.5622
X4.9913Y-6.6622
X4.9913Y-6.7622
X4.9913Y-6.8622
X4.9913Y-6.9622
X4.9913Y-7.0622
X4.9913Y-7.1622
X4.9913Y-7.2622
X4.9913Y-7.3622
X5.0913Y-4.0622
X5.0913Y-4.1622
X5.0913Y-4.2622
X5.0913Y-4.3622
X5.0913Y-4.4622
X5.0913Y-4.5622
X5.0913Y-4.6622
X5.0913Y-4.7622
X5.0913Y-4.8622
X5.0913Y-4.9622
X5.0913Y-5.0622
X5.0913Y-5.1622
X5.0913Y-5.2622
X5.0913Y-5.3622
X5.0913Y-5.4622
X5.0913Y-5.5622
X5.0913Y-5.6622
X5.0913Y-5.7622
X5.0913Y-5.8622
X5.0913Y-5.9622
X5.0913Y-6.0622
X5.0913Y-6.1622
X5.0913Y-6.2622
X5.0913Y-6.3622
X5.0913Y-6.4622
X5.0913Y-6.5622
X5.0913Y-6.6622
X5.0913Y-6.7622
X5.0913Y-6.8622
X5.0913Y-6.9622
X5.0913Y-7.0622
X5.0913Y-7.1622
X5.0913Y-7.2622
X5.0913Y-7.3622
X5.1913Y-4.0622
X5.1913Y-4.1622
X5.1913Y-4.2622
X5.1913Y-4.3622
X5.1913Y-4.4622
X5.1913Y-4.5622
X5.1913Y-4.6622
X5.1913Y-4.7622
X5.1913Y-4.8622
X5.1913Y-4.9622
X5.1913Y-5.0622
X5.1913Y-5.1622
X5.1913Y-5.2622
X5.1913Y-5.3622
X5.1913Y-5.4622
X5.1913Y-5.5622
X5.1913Y-5.6622
X5.1913Y-5.7622
X5.1913Y-5.8622
X5.1913Y-5.9622
X5.1913Y-6.0622
X5.1913Y-6.1622
X5.1913Y-6.2622
X5.1913Y-6.3622
X5.1913Y-6.4622
X5.1913Y-6.5622
X5.1913Y-6.6622
X5.1913Y-6.7622
X5.1913Y-6.8622
X5.1913Y-6.9622
X5.1913Y-7.0622
X5.1913Y-7.1622
X5.1913Y-7.2622
X5.1913Y-7.3622
X5.2913Y-4.0622
X5.2913Y-4.1622
X5.2913Y-4.2622
X5.2913Y-4.3622
X5.2913Y-4.4622
X5.2913Y-4.5622
X5.2913Y-4.6622
X5.2913Y-4.7622
X5.2913Y-4.8622
X5.2913Y-4.9622
X5.2913Y-5.0622
X5.2913Y-5.1622
X5.2913Y-5.2622
X5.2913Y-5.3622
X5.2913Y-5.4622
X5.2913Y-5.5622
X5.2913Y-5.6622
X5.2913Y-5.7622
X5.2913Y-5.8622
X5.2913Y-5.9622
X5.2913Y-6.0622
X5.2913Y-6.1622
X5.2913Y-6.2622
X5.2913Y-6.3622
X5.2913Y-6.4622
X5.2913Y-6.5622
X5.2913Y-6.6622
X5.2913Y-6.7622
X5.2913Y-6.8622
X5.2913Y-6.9622
X5.2913Y-7.0622
X5.2913Y-7.1622
X5.2913Y-7.2622
X5.2913Y-7.3622
X5.3913Y-4.0622
X5.3913Y-4.1622
X5.3913Y-4.2622
X5.3913Y-4.3622
X5.3913Y-4.4622
X5.3913Y-4.5622
X5.3913Y-4.6622
X5.3913Y-4.7622
X5.3913Y-4.8622
X5.3913Y-4.9622
X5.3913Y-5.0622
X5.3913Y-5.1622
X5.3913Y-5.2622
X5.3913Y-5.3622
X5.3913Y-5.4622
X5.3913Y-5.5622
X5.3913Y-5.6622
X5.3913Y-5.7622
X5.3913Y-5.8622
X5.3913Y-5.9622
X5.3913Y-6.0622
X5.3913Y-6.1622
X5.3913Y-6.2622
X5.3913Y-6.3622
X5.3913Y-6.4622
X5.3913Y-6.5622
X5.3913Y-6.6622
X5.3913Y-6.7622
X5.3913Y-6.8622
X5.3913Y-6.9622
X5.3913Y-7.0622
X5.3913Y-7.1622
X5.3913Y-7.2622
X5.3913Y-7.3622
X5.6913Y-4.0622
X5.6913Y-4.1622
X5.6913Y-4.2622
X5.6913Y-4.3622
X5.6913Y-4.4622
X5.6913Y-4.5622
X5.6913Y-4.6622
X5.6913Y-4.7622
X5.6913Y-4.8622
X5.6913Y-4.9622
X5.6913Y-5.0622
X5.6913Y-5.1622
X5.6913Y-5.2622
X5.6913Y-5.3622
X5.6913Y-5.4622
X5.6913Y-5.5622
X5.6913Y-5.6622
X5.6913Y-5.7622
X5.6913Y-5.8622
X5.6913Y-5.9622
X5.6913Y-6.0622
X5.6913Y-6.1622
X5.6913Y-6.2622
X5.6913Y-6.3622
X5.6913Y-6.4622
X5.6913Y-6.5622
X5.6913Y-6.6622
X5.6913Y-6.7622
X5.6913Y-6.8622
X5.6913Y-6.9622
X5.6913Y-7.0622
X5.6913Y-7.1622
X5.6913Y-7.2622
X5.6913Y-7.3622
X5.7913Y-4.0622
X5.7913Y-4.1622
X5.7913Y-4.2622
X5.7913Y-4.3622
X5.7913Y-4.4622
X5.7913Y-4.5622
X5.7913Y-4.6622
X5.7913Y-4.7622
X5.7913Y-4.8622
X5.7913Y-4.9622
X5.7913Y-5.0622
X5.7913Y-5.1622
X5.7913Y-5.2622
X5.7913Y-5.3622
X5.7913Y-5.4622
X5.7913Y-5.5622
X5.7913Y-5.6622
X5.7913Y-5.7622
X5.7913Y-5.8622
X5.7913Y-5.9622
X5.7913Y-6.0622
X5.7913Y-6.1622
X5.7913Y-6.2622
X5.7913Y-6.3622
X5.7913Y-6.4622
X5.7913Y-6.5622
X5.7913Y-6.6622
X5.7913Y-6.7622
X5.7913Y-6.8622
X5.7913Y-6.9622
X5.7913Y-7.0622
X5.7913Y-7.1622
X5.7913Y-7.2622
X5.7913Y-7.3622
M30
