G04 #@! TF.GenerationSoftware,KiCad,Pcbnew,9.0.1*
G04 #@! TF.CreationDate,2025-05-06T23:59:07-04:00*
G04 #@! TF.ProjectId,matrix-protoboard_6x28,6d617472-6978-42d7-9072-6f746f626f61,rev?*
G04 #@! TF.SameCoordinates,Original*
G04 #@! TF.FileFunction,Copper,L2,Bot*
G04 #@! TF.FilePolarity,Positive*
%FSLAX46Y46*%
G04 Gerber Fmt 4.6, Leading zero omitted, Abs format (unit mm)*
G04 Created by KiCad (PCBNEW 9.0.1) date 2025-05-06 23:59:07*
%MOMM*%
%LPD*%
G01*
G04 APERTURE LIST*
G04 Aperture macros list*
%AMFreePoly0*
4,1,38,0.000354,0.765354,0.325208,0.440500,0.550000,0.440500,0.550354,0.440354,0.550500,0.440000,0.550354,0.439646,0.350500,0.239792,0.350500,-0.359792,0.550354,-0.559646,0.550500,-0.560000,0.550354,-0.560354,0.550000,-0.560500,0.338500,-0.560500,0.338500,-0.763000,0.338354,-0.763354,0.338000,-0.763500,0.337646,-0.763354,-0.000208,-0.425500,-0.009792,-0.425500,-0.347646,-0.763354,
-0.348000,-0.763500,-0.348354,-0.763354,-0.348500,-0.763000,-0.348500,-0.560500,-0.550000,-0.560500,-0.550354,-0.560354,-0.550500,-0.560000,-0.550354,-0.559646,-0.350500,-0.359792,-0.350500,0.239792,-0.550354,0.439646,-0.550500,0.440000,-0.550354,0.440354,-0.550000,0.440500,-0.325208,0.440500,-0.000354,0.765354,0.000000,0.765500,0.000354,0.765354,0.000354,0.765354,$1*%
%AMFreePoly1*
4,1,28,0.060354,0.560354,0.357208,0.263500,0.583000,0.263500,0.583354,0.263354,0.583500,0.263000,0.583354,0.262646,0.235708,-0.085000,0.582354,-0.431646,0.582500,-0.432000,0.582354,-0.432354,0.582000,-0.432500,0.407500,-0.432500,0.407500,-0.607000,0.407354,-0.607354,0.407000,-0.607500,0.406646,-0.607354,0.060000,-0.260708,-0.287646,-0.608354,-0.288000,-0.608500,-0.288354,-0.608354,
-0.288500,-0.608000,-0.288500,-0.382208,-0.585354,-0.085354,-0.585500,-0.085000,-0.585354,-0.084646,0.059646,0.560354,0.060000,0.560500,0.060354,0.560354,0.060354,0.560354,$1*%
G04 Aperture macros list end*
G04 #@! TA.AperFunction,ComponentPad*
%ADD10C,1.400000*%
G04 #@! TD*
G04 #@! TA.AperFunction,SMDPad,CuDef*
%ADD11FreePoly0,0.000000*%
G04 #@! TD*
G04 #@! TA.AperFunction,SMDPad,CuDef*
%ADD12FreePoly1,0.000000*%
G04 #@! TD*
G04 #@! TA.AperFunction,SMDPad,CuDef*
%ADD13FreePoly0,90.000000*%
G04 #@! TD*
G04 APERTURE END LIST*
D10*
X151560000Y-85230000D03*
D11*
X157910000Y-80090000D03*
D10*
X161720000Y-80150000D03*
D11*
X178230000Y-80090000D03*
X175690000Y-80090000D03*
D12*
X124830000Y-73715000D03*
D11*
X135050000Y-80090000D03*
D12*
X183250000Y-78795000D03*
D11*
X127430000Y-75010000D03*
D13*
X176900000Y-83960000D03*
D10*
X174420000Y-80150000D03*
X126160000Y-80150000D03*
D11*
X132510000Y-80090000D03*
D10*
X133780000Y-77610000D03*
D11*
X132510000Y-82630000D03*
D10*
X126160000Y-82690000D03*
D13*
X184520000Y-73800000D03*
D11*
X145210000Y-75010000D03*
D13*
X154040000Y-78880000D03*
X189600000Y-83960000D03*
D12*
X137530000Y-76255000D03*
D13*
X126100000Y-76340000D03*
D11*
X170610000Y-85170000D03*
D10*
X189660000Y-85230000D03*
D12*
X188330000Y-83875000D03*
D13*
X156580000Y-78880000D03*
X154040000Y-76340000D03*
D10*
X141400000Y-85230000D03*
D12*
X140070000Y-81335000D03*
D11*
X183310000Y-77550000D03*
D13*
X174360000Y-76340000D03*
D12*
X150230000Y-83875000D03*
D10*
X123620000Y-82690000D03*
X176960000Y-77610000D03*
D12*
X147690000Y-83875000D03*
X178170000Y-81335000D03*
D13*
X174360000Y-81420000D03*
D12*
X134990000Y-81335000D03*
D10*
X179500000Y-85230000D03*
X189660000Y-77610000D03*
D11*
X168070000Y-82630000D03*
X127430000Y-85170000D03*
D13*
X136260000Y-83960000D03*
D10*
X187120000Y-75070000D03*
X154100000Y-77610000D03*
D13*
X141340000Y-76340000D03*
D10*
X169340000Y-85230000D03*
D11*
X188390000Y-85170000D03*
X150290000Y-80090000D03*
D13*
X151500000Y-76340000D03*
D10*
X146480000Y-77610000D03*
X182040000Y-80150000D03*
D11*
X160450000Y-77550000D03*
D12*
X190870000Y-73715000D03*
D11*
X160450000Y-72470000D03*
D10*
X143940000Y-80150000D03*
D13*
X154040000Y-73800000D03*
D11*
X150290000Y-72470000D03*
D12*
X157850000Y-76255000D03*
D10*
X161720000Y-72530000D03*
D13*
X126100000Y-83960000D03*
X131180000Y-78880000D03*
D10*
X151560000Y-82690000D03*
D11*
X124890000Y-72470000D03*
X162990000Y-77550000D03*
D10*
X149020000Y-75070000D03*
D13*
X192140000Y-78880000D03*
D11*
X137590000Y-77550000D03*
D12*
X190870000Y-76255000D03*
D11*
X137590000Y-85170000D03*
D12*
X142610000Y-76255000D03*
D11*
X132510000Y-85170000D03*
D10*
X146480000Y-82690000D03*
D12*
X165470000Y-81335000D03*
D10*
X192200000Y-82690000D03*
X131240000Y-75070000D03*
X184580000Y-82690000D03*
D11*
X188390000Y-75010000D03*
D12*
X175630000Y-81335000D03*
X155310000Y-81335000D03*
D10*
X131240000Y-85230000D03*
X187120000Y-72530000D03*
D11*
X170610000Y-75010000D03*
D12*
X185790000Y-78795000D03*
D13*
X136260000Y-76340000D03*
X161660000Y-73800000D03*
D11*
X155370000Y-77550000D03*
D13*
X187060000Y-83960000D03*
D10*
X179500000Y-80150000D03*
X128700000Y-82690000D03*
X146480000Y-72530000D03*
D13*
X133720000Y-81420000D03*
D10*
X143940000Y-72530000D03*
D13*
X184520000Y-83960000D03*
D12*
X132450000Y-83875000D03*
D13*
X156580000Y-81420000D03*
D10*
X156640000Y-85230000D03*
X126160000Y-85230000D03*
X126160000Y-75070000D03*
D13*
X161660000Y-76340000D03*
D12*
X145150000Y-78795000D03*
D11*
X132510000Y-72470000D03*
X185850000Y-77550000D03*
D10*
X161720000Y-85230000D03*
D13*
X151500000Y-83960000D03*
D12*
X162930000Y-83875000D03*
D10*
X128700000Y-80150000D03*
D12*
X180710000Y-78795000D03*
D13*
X166740000Y-83960000D03*
X164200000Y-73800000D03*
D10*
X133780000Y-80150000D03*
D13*
X148960000Y-73800000D03*
D11*
X129970000Y-72470000D03*
X155370000Y-80090000D03*
D13*
X159120000Y-78880000D03*
D10*
X184580000Y-77610000D03*
X143940000Y-77610000D03*
D12*
X170550000Y-73715000D03*
D13*
X151500000Y-73800000D03*
D10*
X136320000Y-75070000D03*
X156640000Y-82690000D03*
D11*
X165530000Y-80090000D03*
D10*
X138860000Y-85230000D03*
X154100000Y-80150000D03*
D13*
X171820000Y-73800000D03*
D11*
X152830000Y-77550000D03*
D13*
X174360000Y-83960000D03*
D11*
X140130000Y-77550000D03*
X168070000Y-75010000D03*
D13*
X148960000Y-76340000D03*
D12*
X160390000Y-73715000D03*
D11*
X145210000Y-72470000D03*
D12*
X165470000Y-73715000D03*
D13*
X159120000Y-73800000D03*
D10*
X154100000Y-85230000D03*
D13*
X181980000Y-78880000D03*
D12*
X147690000Y-81335000D03*
D10*
X166800000Y-75070000D03*
X123620000Y-80150000D03*
D13*
X148960000Y-83960000D03*
D10*
X128700000Y-75070000D03*
D12*
X127370000Y-78795000D03*
X152770000Y-83875000D03*
D11*
X152830000Y-72470000D03*
D10*
X146480000Y-80150000D03*
D13*
X184520000Y-78880000D03*
X156580000Y-83960000D03*
X176900000Y-78880000D03*
D10*
X143940000Y-82690000D03*
D11*
X145210000Y-82630000D03*
D10*
X169340000Y-72530000D03*
D11*
X180770000Y-82630000D03*
X188390000Y-82630000D03*
D13*
X171820000Y-76340000D03*
X189600000Y-78880000D03*
D10*
X136320000Y-80150000D03*
D12*
X175630000Y-76255000D03*
X183250000Y-76255000D03*
D10*
X131240000Y-82690000D03*
D11*
X157910000Y-85170000D03*
D12*
X132450000Y-76255000D03*
D11*
X157910000Y-75010000D03*
X190930000Y-72470000D03*
D13*
X138800000Y-73800000D03*
D11*
X173150000Y-80090000D03*
D10*
X136320000Y-82690000D03*
D13*
X169280000Y-81420000D03*
X176900000Y-81420000D03*
X174360000Y-78880000D03*
X166740000Y-78880000D03*
D10*
X174420000Y-75070000D03*
X184580000Y-72530000D03*
D11*
X190930000Y-75010000D03*
D10*
X179500000Y-72530000D03*
D12*
X188330000Y-81335000D03*
X145150000Y-76255000D03*
D13*
X169280000Y-73800000D03*
D10*
X156640000Y-75070000D03*
X141400000Y-77610000D03*
D12*
X124830000Y-81335000D03*
D11*
X129970000Y-75010000D03*
D12*
X165470000Y-83875000D03*
D11*
X178230000Y-75010000D03*
X132510000Y-77550000D03*
D10*
X149020000Y-82690000D03*
D11*
X175690000Y-82630000D03*
D12*
X160390000Y-76255000D03*
D11*
X147750000Y-82630000D03*
X162990000Y-80090000D03*
X135050000Y-82630000D03*
X129970000Y-77550000D03*
X124890000Y-75010000D03*
D13*
X133720000Y-76340000D03*
X171820000Y-83960000D03*
D12*
X157850000Y-83875000D03*
D10*
X126160000Y-77610000D03*
D13*
X141340000Y-78880000D03*
D12*
X178170000Y-83875000D03*
D11*
X170610000Y-72470000D03*
D10*
X138860000Y-80150000D03*
X189660000Y-80150000D03*
D11*
X127430000Y-80090000D03*
D13*
X169280000Y-83960000D03*
D10*
X159180000Y-80150000D03*
D11*
X173150000Y-85170000D03*
D13*
X156580000Y-73800000D03*
D12*
X124830000Y-76255000D03*
X134990000Y-83875000D03*
D11*
X124890000Y-82630000D03*
D12*
X190870000Y-81335000D03*
D10*
X154100000Y-72530000D03*
D12*
X162930000Y-81335000D03*
D13*
X166740000Y-76340000D03*
D10*
X192200000Y-80150000D03*
D13*
X164200000Y-83960000D03*
D11*
X147750000Y-85170000D03*
X168070000Y-72470000D03*
X190930000Y-80090000D03*
D13*
X176900000Y-73800000D03*
X126100000Y-73800000D03*
X154040000Y-81420000D03*
X136260000Y-73800000D03*
X123560000Y-81420000D03*
D10*
X128700000Y-85230000D03*
D12*
X129910000Y-81335000D03*
D10*
X133780000Y-85230000D03*
X182040000Y-75070000D03*
X164260000Y-85230000D03*
D13*
X128640000Y-73800000D03*
D12*
X142610000Y-81335000D03*
D13*
X192140000Y-76340000D03*
X123560000Y-78880000D03*
X159120000Y-76340000D03*
D12*
X129910000Y-78795000D03*
D13*
X143880000Y-81420000D03*
D10*
X161720000Y-75070000D03*
D12*
X134990000Y-73715000D03*
D11*
X185850000Y-72470000D03*
D13*
X184520000Y-81420000D03*
D11*
X137590000Y-75010000D03*
D10*
X159180000Y-75070000D03*
D11*
X180770000Y-72470000D03*
X168070000Y-85170000D03*
D10*
X187120000Y-80150000D03*
X159180000Y-85230000D03*
D13*
X143880000Y-76340000D03*
X156580000Y-76340000D03*
D12*
X124830000Y-83875000D03*
X157850000Y-78795000D03*
D10*
X131240000Y-80150000D03*
D13*
X138800000Y-81420000D03*
D10*
X171880000Y-80150000D03*
D11*
X165530000Y-77550000D03*
D12*
X140070000Y-73715000D03*
D13*
X169280000Y-78880000D03*
D11*
X185850000Y-85170000D03*
D10*
X159180000Y-77610000D03*
D13*
X146420000Y-81420000D03*
X146420000Y-76340000D03*
D11*
X142670000Y-75010000D03*
X145210000Y-80090000D03*
D12*
X157850000Y-73715000D03*
D11*
X188390000Y-80090000D03*
D12*
X137530000Y-78795000D03*
X150230000Y-73715000D03*
D11*
X129970000Y-85170000D03*
D10*
X182040000Y-77610000D03*
X192200000Y-72530000D03*
D12*
X155310000Y-78795000D03*
D13*
X189600000Y-73800000D03*
D10*
X189660000Y-82690000D03*
D11*
X140130000Y-80090000D03*
D10*
X164260000Y-77610000D03*
D12*
X185790000Y-73715000D03*
D10*
X128700000Y-77610000D03*
X146480000Y-85230000D03*
D13*
X171820000Y-81420000D03*
D12*
X168010000Y-73715000D03*
D11*
X185850000Y-80090000D03*
D12*
X165470000Y-78795000D03*
X180710000Y-81335000D03*
D11*
X175690000Y-75010000D03*
D10*
X169340000Y-75070000D03*
D12*
X142610000Y-78795000D03*
D13*
X138800000Y-76340000D03*
D10*
X151560000Y-75070000D03*
X143940000Y-85230000D03*
X179500000Y-77610000D03*
D12*
X127370000Y-83875000D03*
X175630000Y-73715000D03*
D13*
X161660000Y-81420000D03*
X143880000Y-73800000D03*
X148960000Y-78880000D03*
D12*
X162930000Y-73715000D03*
D13*
X179440000Y-78880000D03*
X151500000Y-81420000D03*
X192140000Y-83960000D03*
D10*
X133780000Y-82690000D03*
X126160000Y-72530000D03*
D13*
X164200000Y-81420000D03*
D10*
X151560000Y-80150000D03*
D12*
X150230000Y-76255000D03*
D11*
X190930000Y-85170000D03*
D12*
X160390000Y-78795000D03*
D11*
X173150000Y-82630000D03*
X135050000Y-85170000D03*
X190930000Y-82630000D03*
D12*
X180710000Y-83875000D03*
D10*
X166800000Y-80150000D03*
D11*
X142670000Y-85170000D03*
D13*
X187060000Y-73800000D03*
D12*
X178170000Y-78795000D03*
X183250000Y-81335000D03*
D10*
X159180000Y-82690000D03*
D13*
X171820000Y-78880000D03*
D12*
X173090000Y-73715000D03*
D11*
X140130000Y-85170000D03*
D10*
X154100000Y-75070000D03*
X136320000Y-85230000D03*
D11*
X180770000Y-80090000D03*
D10*
X174420000Y-85230000D03*
D12*
X142610000Y-73715000D03*
D10*
X187120000Y-82690000D03*
D13*
X123560000Y-83960000D03*
D11*
X155370000Y-85170000D03*
X185850000Y-75010000D03*
D12*
X178170000Y-73715000D03*
D10*
X136320000Y-72530000D03*
D13*
X187060000Y-78880000D03*
D12*
X168010000Y-83875000D03*
D11*
X157910000Y-72470000D03*
X160450000Y-85170000D03*
D13*
X161660000Y-78880000D03*
D12*
X173090000Y-83875000D03*
D10*
X169340000Y-80150000D03*
X176960000Y-80150000D03*
D11*
X183310000Y-75010000D03*
X147750000Y-77550000D03*
X160450000Y-82630000D03*
D12*
X160390000Y-83875000D03*
X152770000Y-73715000D03*
X175630000Y-78795000D03*
D13*
X131180000Y-83960000D03*
D10*
X146480000Y-75070000D03*
X151560000Y-72530000D03*
D13*
X187060000Y-81420000D03*
D10*
X159180000Y-72530000D03*
D11*
X188390000Y-77550000D03*
D12*
X162930000Y-76255000D03*
D10*
X138860000Y-75070000D03*
D13*
X189600000Y-81420000D03*
X138800000Y-78880000D03*
D10*
X133780000Y-72530000D03*
D11*
X140130000Y-82630000D03*
D13*
X181980000Y-76340000D03*
D11*
X157910000Y-82630000D03*
D10*
X123620000Y-72530000D03*
D12*
X188330000Y-73715000D03*
D10*
X187120000Y-85230000D03*
D13*
X128640000Y-78880000D03*
D10*
X171880000Y-82690000D03*
D11*
X137590000Y-80090000D03*
X140130000Y-75010000D03*
X173150000Y-72470000D03*
X173150000Y-77550000D03*
D10*
X192200000Y-85230000D03*
X138860000Y-82690000D03*
D11*
X162990000Y-72470000D03*
D10*
X182040000Y-85230000D03*
D13*
X133720000Y-78880000D03*
D10*
X174420000Y-77610000D03*
X141400000Y-82690000D03*
D12*
X145150000Y-83875000D03*
D10*
X189660000Y-72530000D03*
D11*
X170610000Y-80090000D03*
D10*
X166800000Y-72530000D03*
X141400000Y-75070000D03*
D11*
X129970000Y-82630000D03*
D12*
X190870000Y-78795000D03*
X145150000Y-73715000D03*
D11*
X165530000Y-85170000D03*
D13*
X128640000Y-76340000D03*
D12*
X147690000Y-73715000D03*
D13*
X146420000Y-78880000D03*
D12*
X165470000Y-76255000D03*
D10*
X179500000Y-75070000D03*
D11*
X178230000Y-82630000D03*
D12*
X185790000Y-83875000D03*
X170550000Y-78795000D03*
X160390000Y-81335000D03*
X134990000Y-78795000D03*
D11*
X137590000Y-82630000D03*
D10*
X149020000Y-80150000D03*
D12*
X170550000Y-83875000D03*
D10*
X164260000Y-80150000D03*
D11*
X183310000Y-80090000D03*
D13*
X143880000Y-83960000D03*
X123560000Y-76340000D03*
D10*
X176960000Y-72530000D03*
D12*
X157850000Y-81335000D03*
X150230000Y-78795000D03*
D11*
X180770000Y-85170000D03*
D13*
X148960000Y-81420000D03*
D10*
X123620000Y-85230000D03*
D13*
X184520000Y-76340000D03*
D11*
X185850000Y-82630000D03*
D12*
X168010000Y-78795000D03*
D11*
X178230000Y-72470000D03*
D10*
X166800000Y-85230000D03*
D11*
X150290000Y-82630000D03*
X160450000Y-75010000D03*
D12*
X150230000Y-81335000D03*
D13*
X174360000Y-73800000D03*
D11*
X165530000Y-82630000D03*
D13*
X161660000Y-83960000D03*
X189600000Y-76340000D03*
D11*
X168070000Y-80090000D03*
X190930000Y-77550000D03*
D12*
X132450000Y-78795000D03*
D13*
X138800000Y-83960000D03*
X128640000Y-81420000D03*
D10*
X169340000Y-82690000D03*
X171880000Y-77610000D03*
D13*
X131180000Y-73800000D03*
D10*
X138860000Y-72530000D03*
D11*
X145210000Y-77550000D03*
X132510000Y-75010000D03*
D10*
X156640000Y-80150000D03*
D13*
X136260000Y-78880000D03*
X146420000Y-73800000D03*
D12*
X140070000Y-76255000D03*
D10*
X136320000Y-77610000D03*
X164260000Y-75070000D03*
D13*
X126100000Y-81420000D03*
D10*
X179500000Y-82690000D03*
D13*
X179440000Y-83960000D03*
D12*
X183250000Y-73715000D03*
D11*
X155370000Y-72470000D03*
D13*
X128640000Y-83960000D03*
D11*
X129970000Y-80090000D03*
D12*
X147690000Y-76255000D03*
D11*
X137590000Y-72470000D03*
D12*
X183250000Y-83875000D03*
X147690000Y-78795000D03*
D11*
X147750000Y-80090000D03*
D13*
X169280000Y-76340000D03*
D10*
X154100000Y-82690000D03*
D11*
X127430000Y-72470000D03*
X175690000Y-77550000D03*
D12*
X137530000Y-73715000D03*
D11*
X127430000Y-82630000D03*
D12*
X180710000Y-76255000D03*
D13*
X179440000Y-73800000D03*
D10*
X156640000Y-77610000D03*
D11*
X152830000Y-75010000D03*
D13*
X141340000Y-83960000D03*
X123560000Y-73800000D03*
D10*
X149020000Y-77610000D03*
D12*
X155310000Y-83875000D03*
X170550000Y-81335000D03*
X173090000Y-81335000D03*
D10*
X143940000Y-75070000D03*
D12*
X127370000Y-81335000D03*
D13*
X164200000Y-78880000D03*
X192140000Y-81420000D03*
D11*
X178230000Y-85170000D03*
D12*
X129910000Y-73715000D03*
D13*
X131180000Y-81420000D03*
D12*
X140070000Y-78795000D03*
D11*
X155370000Y-75010000D03*
X147750000Y-72470000D03*
D12*
X152770000Y-76255000D03*
D10*
X171880000Y-72530000D03*
D12*
X152770000Y-81335000D03*
D10*
X141400000Y-80150000D03*
D12*
X127370000Y-73715000D03*
X127370000Y-76255000D03*
X155310000Y-76255000D03*
D13*
X154040000Y-83960000D03*
D10*
X189660000Y-75070000D03*
D12*
X155310000Y-73715000D03*
D11*
X180770000Y-75010000D03*
X152830000Y-85170000D03*
X162990000Y-85170000D03*
D13*
X126100000Y-78880000D03*
D11*
X152830000Y-82630000D03*
D10*
X161720000Y-82690000D03*
X184580000Y-80150000D03*
D12*
X178170000Y-76255000D03*
X152770000Y-78795000D03*
D10*
X166800000Y-77610000D03*
D13*
X181980000Y-73800000D03*
D11*
X142670000Y-82630000D03*
X142670000Y-72470000D03*
D13*
X159120000Y-83960000D03*
D11*
X180770000Y-77550000D03*
D12*
X137530000Y-83875000D03*
D10*
X161720000Y-77610000D03*
X164260000Y-72530000D03*
D12*
X124830000Y-78795000D03*
D13*
X133720000Y-83960000D03*
X166740000Y-73800000D03*
X133720000Y-73800000D03*
D10*
X123620000Y-77610000D03*
X176960000Y-75070000D03*
D11*
X150290000Y-75010000D03*
X162990000Y-75010000D03*
D12*
X142610000Y-83875000D03*
D11*
X175690000Y-85170000D03*
D10*
X192200000Y-77610000D03*
D13*
X143880000Y-78880000D03*
D10*
X169340000Y-77610000D03*
X164260000Y-82690000D03*
D12*
X129910000Y-83875000D03*
D10*
X123620000Y-75070000D03*
D12*
X134990000Y-76255000D03*
D11*
X173150000Y-75010000D03*
X157910000Y-77550000D03*
D10*
X184580000Y-75070000D03*
D13*
X141340000Y-81420000D03*
D11*
X188390000Y-72470000D03*
D12*
X168010000Y-76255000D03*
D11*
X170610000Y-77550000D03*
D10*
X128700000Y-72530000D03*
D11*
X135050000Y-77550000D03*
X127430000Y-77550000D03*
D12*
X132450000Y-81335000D03*
D11*
X183310000Y-82630000D03*
D12*
X129910000Y-76255000D03*
D10*
X156640000Y-72530000D03*
D12*
X173090000Y-78795000D03*
D10*
X171880000Y-85230000D03*
X187120000Y-77610000D03*
D13*
X192140000Y-73800000D03*
D11*
X168070000Y-77550000D03*
D10*
X174420000Y-72530000D03*
D12*
X190870000Y-83875000D03*
D11*
X155370000Y-82630000D03*
X165530000Y-72470000D03*
D12*
X180710000Y-73715000D03*
D11*
X124890000Y-80090000D03*
X178230000Y-77550000D03*
D13*
X166740000Y-81420000D03*
D11*
X145210000Y-85170000D03*
D13*
X181980000Y-83960000D03*
D12*
X170550000Y-76255000D03*
D13*
X181980000Y-81420000D03*
X146420000Y-83960000D03*
D11*
X135050000Y-72470000D03*
D12*
X173090000Y-76255000D03*
D13*
X136260000Y-81420000D03*
D10*
X171880000Y-75070000D03*
D11*
X150290000Y-85170000D03*
D10*
X131240000Y-77610000D03*
D11*
X175690000Y-72470000D03*
D13*
X187060000Y-76340000D03*
D10*
X151560000Y-77610000D03*
D13*
X179440000Y-76340000D03*
D11*
X183310000Y-85170000D03*
X147750000Y-75010000D03*
X165530000Y-75010000D03*
D12*
X188330000Y-78795000D03*
D13*
X176900000Y-76340000D03*
D12*
X132450000Y-73715000D03*
X145150000Y-81335000D03*
D11*
X183310000Y-72470000D03*
D10*
X182040000Y-72530000D03*
X141400000Y-72530000D03*
D11*
X140130000Y-72470000D03*
D10*
X176960000Y-85230000D03*
D12*
X162930000Y-78795000D03*
D11*
X142670000Y-77550000D03*
X152830000Y-80090000D03*
D10*
X182040000Y-82690000D03*
D11*
X150290000Y-77550000D03*
D12*
X137530000Y-81335000D03*
D10*
X131240000Y-72530000D03*
X192200000Y-75070000D03*
X138860000Y-77610000D03*
D12*
X168010000Y-81335000D03*
D10*
X176960000Y-82690000D03*
D11*
X142670000Y-80090000D03*
D12*
X185790000Y-76255000D03*
X175630000Y-83875000D03*
D13*
X159120000Y-81420000D03*
D11*
X160450000Y-80090000D03*
D10*
X149020000Y-85230000D03*
X133780000Y-75070000D03*
D13*
X179440000Y-81420000D03*
D11*
X124890000Y-77550000D03*
D12*
X188330000Y-76255000D03*
D11*
X162990000Y-82630000D03*
D10*
X184580000Y-85230000D03*
D12*
X185790000Y-81335000D03*
D10*
X149020000Y-72530000D03*
D13*
X164200000Y-76340000D03*
D11*
X124890000Y-85170000D03*
X170610000Y-82630000D03*
D12*
X140070000Y-83875000D03*
D11*
X135050000Y-75010000D03*
D10*
X174420000Y-82690000D03*
D13*
X131180000Y-76340000D03*
X141340000Y-73800000D03*
D10*
X166800000Y-82690000D03*
D13*
X151500000Y-78880000D03*
M02*
