G04 #@! TF.GenerationSoftware,KiCad,Pcbnew,9.0.1*
G04 #@! TF.CreationDate,2025-05-07T17:10:41-04:00*
G04 #@! TF.ProjectId,matrix-protoboard_14x20,6d617472-6978-42d7-9072-6f746f626f61,rev?*
G04 #@! TF.SameCoordinates,Original*
G04 #@! TF.FileFunction,Copper,L1,Top*
G04 #@! TF.FilePolarity,Positive*
%FSLAX46Y46*%
G04 Gerber Fmt 4.6, Leading zero omitted, Abs format (unit mm)*
G04 Created by KiCad (PCBNEW 9.0.1) date 2025-05-07 17:10:41*
%MOMM*%
%LPD*%
G01*
G04 APERTURE LIST*
G04 Aperture macros list*
%AMOutline4P*
0 Free polygon, 4 corners , with rotation*
0 The origin of the aperture is its center*
0 number of corners: always 4*
0 $1 to $8 corner X, Y*
0 $9 Rotation angle, in degrees counterclockwise*
0 create outline with 4 corners*
4,1,4,$1,$2,$3,$4,$5,$6,$7,$8,$1,$2,$9*%
G04 Aperture macros list end*
G04 #@! TA.AperFunction,SMDPad,CuDef*
%ADD10Outline4P,-0.247450X-0.123750X0.247450X-0.123750X0.000050X0.123750X-0.000050X0.123750X135.000000*%
G04 #@! TD*
G04 #@! TA.AperFunction,SMDPad,CuDef*
%ADD11Outline4P,-0.282750X-0.141400X0.282750X-0.141400X0.000050X0.141400X-0.000050X0.141400X45.000000*%
G04 #@! TD*
G04 #@! TA.AperFunction,SMDPad,CuDef*
%ADD12Outline4P,-0.282750X-0.141400X0.282750X-0.141400X0.000050X0.141400X-0.000050X0.141400X315.000000*%
G04 #@! TD*
G04 #@! TA.AperFunction,SMDPad,CuDef*
%ADD13Outline4P,-0.349950X-0.175000X0.349950X-0.175000X0.000050X0.175000X-0.000050X0.175000X90.000000*%
G04 #@! TD*
G04 #@! TA.AperFunction,SMDPad,CuDef*
%ADD14R,0.850000X0.700000*%
G04 #@! TD*
G04 #@! TA.AperFunction,SMDPad,CuDef*
%ADD15Outline4P,-0.282750X-0.141400X0.282750X-0.141400X0.000050X0.141400X-0.000050X0.141400X135.000000*%
G04 #@! TD*
G04 #@! TA.AperFunction,SMDPad,CuDef*
%ADD16Outline4P,-0.282750X-0.141400X0.282750X-0.141400X0.000050X0.141400X-0.000050X0.141400X225.000000*%
G04 #@! TD*
G04 #@! TA.AperFunction,SMDPad,CuDef*
%ADD17Outline4P,-0.247450X-0.123750X0.247450X-0.123750X0.000050X0.123750X-0.000050X0.123750X45.000000*%
G04 #@! TD*
G04 #@! TA.AperFunction,SMDPad,CuDef*
%ADD18Outline4P,-0.349950X-0.175000X0.349950X-0.175000X0.000050X0.175000X-0.000050X0.175000X0.000000*%
G04 #@! TD*
G04 #@! TA.AperFunction,SMDPad,CuDef*
%ADD19R,0.700000X0.850000*%
G04 #@! TD*
G04 #@! TA.AperFunction,SMDPad,CuDef*
%ADD20Outline4P,-0.247450X-0.123750X0.247450X-0.123750X0.000050X0.123750X-0.000050X0.123750X315.000000*%
G04 #@! TD*
G04 #@! TA.AperFunction,ComponentPad*
%ADD21C,1.400000*%
G04 #@! TD*
G04 #@! TA.AperFunction,SMDPad,CuDef*
%ADD22R,0.470000X0.520000*%
G04 #@! TD*
G04 #@! TA.AperFunction,SMDPad,CuDef*
%ADD23O,3.048000X1.524000*%
G04 #@! TD*
G04 APERTURE END LIST*
D10*
X150140000Y-135780000D03*
D11*
X149300000Y-135770000D03*
D12*
X150100000Y-135770000D03*
D13*
X149050000Y-135520000D03*
D14*
X149640000Y-135520000D03*
D15*
X149300000Y-135270000D03*
D16*
X150100000Y-135270000D03*
D17*
X150140000Y-135270000D03*
X153250000Y-142310000D03*
D12*
X153260000Y-141470000D03*
D16*
X153260000Y-142270000D03*
D18*
X153510000Y-141220000D03*
D19*
X153510000Y-141810000D03*
D11*
X153760000Y-141470000D03*
D15*
X153760000Y-142270000D03*
D20*
X153760000Y-142310000D03*
D10*
X139980000Y-156100000D03*
D11*
X139140000Y-156090000D03*
D12*
X139940000Y-156090000D03*
D13*
X138890000Y-155840000D03*
D14*
X139480000Y-155840000D03*
D15*
X139140000Y-155590000D03*
D16*
X139940000Y-155590000D03*
D17*
X139980000Y-155590000D03*
X171030000Y-129610000D03*
D12*
X171040000Y-128770000D03*
D16*
X171040000Y-129570000D03*
D18*
X171290000Y-128520000D03*
D19*
X171290000Y-129110000D03*
D11*
X171540000Y-128770000D03*
D15*
X171540000Y-129570000D03*
D20*
X171540000Y-129610000D03*
D21*
X172560000Y-126630000D03*
D17*
X150710000Y-144850000D03*
D12*
X150720000Y-144010000D03*
D16*
X150720000Y-144810000D03*
D18*
X150970000Y-143760000D03*
D19*
X150970000Y-144350000D03*
D11*
X151220000Y-144010000D03*
D15*
X151220000Y-144810000D03*
D20*
X151220000Y-144850000D03*
D13*
X168280000Y-140600000D03*
D17*
X168490000Y-140860000D03*
D22*
X168690000Y-140515000D03*
D18*
X168750000Y-140130000D03*
D17*
X169010000Y-140340000D03*
D10*
X169010000Y-140860000D03*
D20*
X169010000Y-140860000D03*
D10*
X173000000Y-125620000D03*
D11*
X172160000Y-125610000D03*
D12*
X172960000Y-125610000D03*
D13*
X171910000Y-125360000D03*
D14*
X172500000Y-125360000D03*
D15*
X172160000Y-125110000D03*
D16*
X172960000Y-125110000D03*
D17*
X173000000Y-125110000D03*
X143090000Y-137230000D03*
D12*
X143100000Y-136390000D03*
D16*
X143100000Y-137190000D03*
D18*
X143350000Y-136140000D03*
D19*
X143350000Y-136730000D03*
D11*
X143600000Y-136390000D03*
D15*
X143600000Y-137190000D03*
D20*
X143600000Y-137230000D03*
D17*
X165950000Y-142310000D03*
D12*
X165960000Y-141470000D03*
D16*
X165960000Y-142270000D03*
D18*
X166210000Y-141220000D03*
D19*
X166210000Y-141810000D03*
D11*
X166460000Y-141470000D03*
D15*
X166460000Y-142270000D03*
D20*
X166460000Y-142310000D03*
D10*
X139980000Y-135780000D03*
D11*
X139140000Y-135770000D03*
D12*
X139940000Y-135770000D03*
D13*
X138890000Y-135520000D03*
D14*
X139480000Y-135520000D03*
D15*
X139140000Y-135270000D03*
D16*
X139940000Y-135270000D03*
D17*
X139980000Y-135270000D03*
X150710000Y-137230000D03*
D12*
X150720000Y-136390000D03*
D16*
X150720000Y-137190000D03*
D18*
X150970000Y-136140000D03*
D19*
X150970000Y-136730000D03*
D11*
X151220000Y-136390000D03*
D15*
X151220000Y-137190000D03*
D20*
X151220000Y-137230000D03*
D21*
X159860000Y-154570000D03*
X170020000Y-146950000D03*
X162400000Y-152030000D03*
D17*
X168490000Y-149930000D03*
D12*
X168500000Y-149090000D03*
D16*
X168500000Y-149890000D03*
D18*
X168750000Y-148840000D03*
D19*
X168750000Y-149430000D03*
D11*
X169000000Y-149090000D03*
D15*
X169000000Y-149890000D03*
D20*
X169000000Y-149930000D03*
D10*
X157760000Y-156100000D03*
D11*
X156920000Y-156090000D03*
D12*
X157720000Y-156090000D03*
D13*
X156670000Y-155840000D03*
D14*
X157260000Y-155840000D03*
D15*
X156920000Y-155590000D03*
D16*
X157720000Y-155590000D03*
D17*
X157760000Y-155590000D03*
D13*
X150500000Y-145680000D03*
D17*
X150710000Y-145940000D03*
D22*
X150910000Y-145595000D03*
D18*
X150970000Y-145210000D03*
D17*
X151230000Y-145420000D03*
D10*
X151230000Y-145940000D03*
D20*
X151230000Y-145940000D03*
D10*
X147600000Y-133240000D03*
D11*
X146760000Y-133230000D03*
D12*
X147560000Y-133230000D03*
D13*
X146510000Y-132980000D03*
D14*
X147100000Y-132980000D03*
D15*
X146760000Y-132730000D03*
D16*
X147560000Y-132730000D03*
D17*
X147600000Y-132730000D03*
D13*
X168280000Y-127900000D03*
D17*
X168490000Y-128160000D03*
D22*
X168690000Y-127815000D03*
D18*
X168750000Y-127430000D03*
D17*
X169010000Y-127640000D03*
D20*
X169010000Y-128160000D03*
D10*
X169010000Y-128160000D03*
D13*
X145420000Y-138060000D03*
D17*
X145630000Y-138320000D03*
D22*
X145830000Y-137975000D03*
D18*
X145890000Y-137590000D03*
D17*
X146150000Y-137800000D03*
D20*
X146150000Y-138320000D03*
D10*
X146150000Y-138320000D03*
X139980000Y-133240000D03*
D11*
X139140000Y-133230000D03*
D12*
X139940000Y-133230000D03*
D13*
X138890000Y-132980000D03*
D14*
X139480000Y-132980000D03*
D15*
X139140000Y-132730000D03*
D16*
X139940000Y-132730000D03*
D17*
X139980000Y-132730000D03*
X143090000Y-124530000D03*
D12*
X143100000Y-123690000D03*
D16*
X143100000Y-124490000D03*
D18*
X143350000Y-123440000D03*
D19*
X143350000Y-124030000D03*
D11*
X143600000Y-123690000D03*
D15*
X143600000Y-124490000D03*
D20*
X143600000Y-124530000D03*
D21*
X185260000Y-131710000D03*
X147160000Y-129170000D03*
D17*
X163410000Y-142310000D03*
D12*
X163420000Y-141470000D03*
D16*
X163420000Y-142270000D03*
D18*
X163670000Y-141220000D03*
D19*
X163670000Y-141810000D03*
D11*
X163920000Y-141470000D03*
D15*
X163920000Y-142270000D03*
D20*
X163920000Y-142310000D03*
D13*
X186060000Y-132980000D03*
D17*
X186270000Y-133240000D03*
D22*
X186470000Y-132895000D03*
D18*
X186530000Y-132510000D03*
D17*
X186790000Y-132720000D03*
D20*
X186790000Y-133240000D03*
D10*
X186790000Y-133240000D03*
X167920000Y-133240000D03*
D11*
X167080000Y-133230000D03*
D12*
X167880000Y-133230000D03*
D13*
X166830000Y-132980000D03*
D14*
X167420000Y-132980000D03*
D15*
X167080000Y-132730000D03*
D16*
X167880000Y-132730000D03*
D17*
X167920000Y-132730000D03*
D21*
X142080000Y-136790000D03*
X164940000Y-126630000D03*
D17*
X181190000Y-152470000D03*
D12*
X181200000Y-151630000D03*
D16*
X181200000Y-152430000D03*
D18*
X181450000Y-151380000D03*
D19*
X181450000Y-151970000D03*
D11*
X181700000Y-151630000D03*
D15*
X181700000Y-152430000D03*
D20*
X181700000Y-152470000D03*
D13*
X173360000Y-132980000D03*
D17*
X173570000Y-133240000D03*
D22*
X173770000Y-132895000D03*
D18*
X173830000Y-132510000D03*
D17*
X174090000Y-132720000D03*
D20*
X174090000Y-133240000D03*
D10*
X174090000Y-133240000D03*
D17*
X163410000Y-149930000D03*
D12*
X163420000Y-149090000D03*
D16*
X163420000Y-149890000D03*
D18*
X163670000Y-148840000D03*
D19*
X163670000Y-149430000D03*
D11*
X163920000Y-149090000D03*
D15*
X163920000Y-149890000D03*
D20*
X163920000Y-149930000D03*
D13*
X173360000Y-140600000D03*
D17*
X173570000Y-140860000D03*
D22*
X173770000Y-140515000D03*
D18*
X173830000Y-140130000D03*
D17*
X174090000Y-140340000D03*
D20*
X174090000Y-140860000D03*
D10*
X174090000Y-140860000D03*
D13*
X175900000Y-153300000D03*
D17*
X176110000Y-153560000D03*
D22*
X176310000Y-153215000D03*
D18*
X176370000Y-152830000D03*
D17*
X176630000Y-153040000D03*
D20*
X176630000Y-153560000D03*
D10*
X176630000Y-153560000D03*
D21*
X175100000Y-129170000D03*
D17*
X181190000Y-127070000D03*
D12*
X181200000Y-126230000D03*
D16*
X181200000Y-127030000D03*
D18*
X181450000Y-125980000D03*
D19*
X181450000Y-126570000D03*
D11*
X181700000Y-126230000D03*
D15*
X181700000Y-127030000D03*
D20*
X181700000Y-127070000D03*
D21*
X149700000Y-124090000D03*
X159860000Y-134250000D03*
D13*
X153040000Y-153300000D03*
D17*
X153250000Y-153560000D03*
D22*
X153450000Y-153215000D03*
D18*
X153510000Y-152830000D03*
D17*
X153770000Y-153040000D03*
D10*
X153770000Y-153560000D03*
D20*
X153770000Y-153560000D03*
D13*
X165740000Y-153300000D03*
D17*
X165950000Y-153560000D03*
D22*
X166150000Y-153215000D03*
D18*
X166210000Y-152830000D03*
D17*
X166470000Y-153040000D03*
D20*
X166470000Y-153560000D03*
D10*
X166470000Y-153560000D03*
D13*
X178440000Y-153300000D03*
D17*
X178650000Y-153560000D03*
D22*
X178850000Y-153215000D03*
D18*
X178910000Y-152830000D03*
D17*
X179170000Y-153040000D03*
D10*
X179170000Y-153560000D03*
D20*
X179170000Y-153560000D03*
D13*
X186060000Y-153300000D03*
D17*
X186270000Y-153560000D03*
D22*
X186470000Y-153215000D03*
D18*
X186530000Y-152830000D03*
D17*
X186790000Y-153040000D03*
D10*
X186790000Y-153560000D03*
D20*
X186790000Y-153560000D03*
D17*
X150710000Y-124530000D03*
D12*
X150720000Y-123690000D03*
D16*
X150720000Y-124490000D03*
D18*
X150970000Y-123440000D03*
D19*
X150970000Y-124030000D03*
D11*
X151220000Y-123690000D03*
D15*
X151220000Y-124490000D03*
D20*
X151220000Y-124530000D03*
D13*
X183520000Y-130440000D03*
D17*
X183730000Y-130700000D03*
D22*
X183930000Y-130355000D03*
D18*
X183990000Y-129970000D03*
D17*
X184250000Y-130180000D03*
D10*
X184250000Y-130700000D03*
D20*
X184250000Y-130700000D03*
D17*
X160870000Y-157550000D03*
D12*
X160880000Y-156710000D03*
D16*
X160880000Y-157510000D03*
D18*
X161130000Y-156460000D03*
D19*
X161130000Y-157050000D03*
D11*
X161380000Y-156710000D03*
D15*
X161380000Y-157510000D03*
D20*
X161380000Y-157550000D03*
D10*
X150140000Y-153560000D03*
D11*
X149300000Y-153550000D03*
D12*
X150100000Y-153550000D03*
D13*
X149050000Y-153300000D03*
D14*
X149640000Y-153300000D03*
D15*
X149300000Y-153050000D03*
D16*
X150100000Y-153050000D03*
D17*
X150140000Y-153050000D03*
X176110000Y-152470000D03*
D12*
X176120000Y-151630000D03*
D16*
X176120000Y-152430000D03*
D18*
X176370000Y-151380000D03*
D19*
X176370000Y-151970000D03*
D11*
X176620000Y-151630000D03*
D15*
X176620000Y-152430000D03*
D20*
X176620000Y-152470000D03*
D17*
X183730000Y-127070000D03*
D12*
X183740000Y-126230000D03*
D16*
X183740000Y-127030000D03*
D18*
X183990000Y-125980000D03*
D19*
X183990000Y-126570000D03*
D11*
X184240000Y-126230000D03*
D15*
X184240000Y-127030000D03*
D20*
X184240000Y-127070000D03*
D10*
X170460000Y-140860000D03*
D11*
X169620000Y-140850000D03*
D12*
X170420000Y-140850000D03*
D13*
X169370000Y-140600000D03*
D14*
X169960000Y-140600000D03*
D15*
X169620000Y-140350000D03*
D16*
X170420000Y-140350000D03*
D17*
X170460000Y-140350000D03*
D13*
X168280000Y-138060000D03*
D17*
X168490000Y-138320000D03*
D22*
X168690000Y-137975000D03*
D18*
X168750000Y-137590000D03*
D17*
X169010000Y-137800000D03*
D20*
X169010000Y-138320000D03*
D10*
X169010000Y-138320000D03*
D13*
X175900000Y-140600000D03*
D17*
X176110000Y-140860000D03*
D22*
X176310000Y-140515000D03*
D18*
X176370000Y-140130000D03*
D17*
X176630000Y-140340000D03*
D10*
X176630000Y-140860000D03*
D20*
X176630000Y-140860000D03*
D13*
X178440000Y-132980000D03*
D17*
X178650000Y-133240000D03*
D22*
X178850000Y-132895000D03*
D18*
X178910000Y-132510000D03*
D17*
X179170000Y-132720000D03*
D10*
X179170000Y-133240000D03*
D20*
X179170000Y-133240000D03*
D13*
X160660000Y-150760000D03*
D17*
X160870000Y-151020000D03*
D22*
X161070000Y-150675000D03*
D18*
X161130000Y-150290000D03*
D17*
X161390000Y-150500000D03*
D10*
X161390000Y-151020000D03*
D20*
X161390000Y-151020000D03*
D10*
X173000000Y-133240000D03*
D11*
X172160000Y-133230000D03*
D12*
X172960000Y-133230000D03*
D13*
X171910000Y-132980000D03*
D14*
X172500000Y-132980000D03*
D15*
X172160000Y-132730000D03*
D16*
X172960000Y-132730000D03*
D17*
X173000000Y-132730000D03*
D13*
X170820000Y-130440000D03*
D17*
X171030000Y-130700000D03*
D22*
X171230000Y-130355000D03*
D18*
X171290000Y-129970000D03*
D17*
X171550000Y-130180000D03*
D10*
X171550000Y-130700000D03*
D20*
X171550000Y-130700000D03*
D21*
X185260000Y-149490000D03*
X167480000Y-154570000D03*
D10*
X142520000Y-140860000D03*
D11*
X141680000Y-140850000D03*
D12*
X142480000Y-140850000D03*
D13*
X141430000Y-140600000D03*
D14*
X142020000Y-140600000D03*
D15*
X141680000Y-140350000D03*
D16*
X142480000Y-140350000D03*
D17*
X142520000Y-140350000D03*
X140550000Y-157550000D03*
D12*
X140560000Y-156710000D03*
D16*
X140560000Y-157510000D03*
D18*
X140810000Y-156460000D03*
D19*
X140810000Y-157050000D03*
D11*
X141060000Y-156710000D03*
D15*
X141060000Y-157510000D03*
D20*
X141060000Y-157550000D03*
D10*
X157760000Y-140860000D03*
D11*
X156920000Y-140850000D03*
D12*
X157720000Y-140850000D03*
D13*
X156670000Y-140600000D03*
D14*
X157260000Y-140600000D03*
D15*
X156920000Y-140350000D03*
D16*
X157720000Y-140350000D03*
D17*
X157760000Y-140350000D03*
D21*
X149700000Y-139330000D03*
D17*
X153250000Y-157550000D03*
D12*
X153260000Y-156710000D03*
D16*
X153260000Y-157510000D03*
D18*
X153510000Y-156460000D03*
D19*
X153510000Y-157050000D03*
D11*
X153760000Y-156710000D03*
D15*
X153760000Y-157510000D03*
D20*
X153760000Y-157550000D03*
D10*
X183160000Y-148480000D03*
D11*
X182320000Y-148470000D03*
D12*
X183120000Y-148470000D03*
D13*
X182070000Y-148220000D03*
D14*
X182660000Y-148220000D03*
D15*
X182320000Y-147970000D03*
D16*
X183120000Y-147970000D03*
D17*
X183160000Y-147970000D03*
D10*
X165380000Y-125620000D03*
D11*
X164540000Y-125610000D03*
D12*
X165340000Y-125610000D03*
D13*
X164290000Y-125360000D03*
D14*
X164880000Y-125360000D03*
D15*
X164540000Y-125110000D03*
D16*
X165340000Y-125110000D03*
D17*
X165380000Y-125110000D03*
D21*
X162400000Y-124090000D03*
X154780000Y-144410000D03*
X172560000Y-144410000D03*
X172560000Y-131710000D03*
D13*
X170820000Y-143140000D03*
D17*
X171030000Y-143400000D03*
D22*
X171230000Y-143055000D03*
D18*
X171290000Y-142670000D03*
D17*
X171550000Y-142880000D03*
D10*
X171550000Y-143400000D03*
D20*
X171550000Y-143400000D03*
D17*
X140550000Y-149930000D03*
D12*
X140560000Y-149090000D03*
D16*
X140560000Y-149890000D03*
D18*
X140810000Y-148840000D03*
D19*
X140810000Y-149430000D03*
D11*
X141060000Y-149090000D03*
D15*
X141060000Y-149890000D03*
D20*
X141060000Y-149930000D03*
D17*
X183730000Y-129610000D03*
D12*
X183740000Y-128770000D03*
D16*
X183740000Y-129570000D03*
D18*
X183990000Y-128520000D03*
D19*
X183990000Y-129110000D03*
D11*
X184240000Y-128770000D03*
D15*
X184240000Y-129570000D03*
D20*
X184240000Y-129610000D03*
D21*
X149700000Y-131710000D03*
D13*
X155580000Y-153300000D03*
D17*
X155790000Y-153560000D03*
D22*
X155990000Y-153215000D03*
D18*
X156050000Y-152830000D03*
D17*
X156310000Y-153040000D03*
D20*
X156310000Y-153560000D03*
D10*
X156310000Y-153560000D03*
D17*
X140550000Y-142310000D03*
D12*
X140560000Y-141470000D03*
D16*
X140560000Y-142270000D03*
D18*
X140810000Y-141220000D03*
D19*
X140810000Y-141810000D03*
D11*
X141060000Y-141470000D03*
D15*
X141060000Y-142270000D03*
D20*
X141060000Y-142310000D03*
D10*
X157760000Y-151020000D03*
D11*
X156920000Y-151010000D03*
D12*
X157720000Y-151010000D03*
D13*
X156670000Y-150760000D03*
D14*
X157260000Y-150760000D03*
D15*
X156920000Y-150510000D03*
D16*
X157720000Y-150510000D03*
D17*
X157760000Y-150510000D03*
D21*
X175100000Y-146950000D03*
D13*
X155580000Y-132980000D03*
D17*
X155790000Y-133240000D03*
D22*
X155990000Y-132895000D03*
D18*
X156050000Y-132510000D03*
D17*
X156310000Y-132720000D03*
D20*
X156310000Y-133240000D03*
D10*
X156310000Y-133240000D03*
D21*
X177640000Y-134250000D03*
X164940000Y-141870000D03*
D13*
X147960000Y-135520000D03*
D17*
X148170000Y-135780000D03*
D22*
X148370000Y-135435000D03*
D18*
X148430000Y-135050000D03*
D17*
X148690000Y-135260000D03*
D20*
X148690000Y-135780000D03*
D10*
X148690000Y-135780000D03*
D21*
X149700000Y-152030000D03*
D10*
X183160000Y-143400000D03*
D11*
X182320000Y-143390000D03*
D12*
X183120000Y-143390000D03*
D13*
X182070000Y-143140000D03*
D14*
X182660000Y-143140000D03*
D15*
X182320000Y-142890000D03*
D16*
X183120000Y-142890000D03*
D17*
X183160000Y-142890000D03*
X186270000Y-149930000D03*
D12*
X186280000Y-149090000D03*
D16*
X186280000Y-149890000D03*
D18*
X186530000Y-148840000D03*
D19*
X186530000Y-149430000D03*
D11*
X186780000Y-149090000D03*
D15*
X186780000Y-149890000D03*
D20*
X186780000Y-149930000D03*
D10*
X185700000Y-133240000D03*
D11*
X184860000Y-133230000D03*
D12*
X185660000Y-133230000D03*
D13*
X184610000Y-132980000D03*
D14*
X185200000Y-132980000D03*
D15*
X184860000Y-132730000D03*
D16*
X185660000Y-132730000D03*
D17*
X185700000Y-132730000D03*
D10*
X147600000Y-125620000D03*
D11*
X146760000Y-125610000D03*
D12*
X147560000Y-125610000D03*
D13*
X146510000Y-125360000D03*
D14*
X147100000Y-125360000D03*
D15*
X146760000Y-125110000D03*
D16*
X147560000Y-125110000D03*
D17*
X147600000Y-125110000D03*
D13*
X153040000Y-155840000D03*
D17*
X153250000Y-156100000D03*
D22*
X153450000Y-155755000D03*
D18*
X153510000Y-155370000D03*
D17*
X153770000Y-155580000D03*
D10*
X153770000Y-156100000D03*
D20*
X153770000Y-156100000D03*
D21*
X142080000Y-129170000D03*
X162400000Y-154570000D03*
X144620000Y-129170000D03*
X164940000Y-124090000D03*
X185260000Y-124090000D03*
D13*
X175900000Y-143140000D03*
D17*
X176110000Y-143400000D03*
D22*
X176310000Y-143055000D03*
D18*
X176370000Y-142670000D03*
D17*
X176630000Y-142880000D03*
D10*
X176630000Y-143400000D03*
D20*
X176630000Y-143400000D03*
D17*
X168490000Y-139770000D03*
D12*
X168500000Y-138930000D03*
D16*
X168500000Y-139730000D03*
D18*
X168750000Y-138680000D03*
D19*
X168750000Y-139270000D03*
D11*
X169000000Y-138930000D03*
D15*
X169000000Y-139730000D03*
D20*
X169000000Y-139770000D03*
D10*
X155220000Y-143400000D03*
D11*
X154380000Y-143390000D03*
D12*
X155180000Y-143390000D03*
D13*
X154130000Y-143140000D03*
D14*
X154720000Y-143140000D03*
D15*
X154380000Y-142890000D03*
D16*
X155180000Y-142890000D03*
D17*
X155220000Y-142890000D03*
X140550000Y-127070000D03*
D12*
X140560000Y-126230000D03*
D16*
X140560000Y-127030000D03*
D18*
X140810000Y-125980000D03*
D19*
X140810000Y-126570000D03*
D11*
X141060000Y-126230000D03*
D15*
X141060000Y-127030000D03*
D20*
X141060000Y-127070000D03*
D17*
X186270000Y-157550000D03*
D12*
X186280000Y-156710000D03*
D16*
X186280000Y-157510000D03*
D18*
X186530000Y-156460000D03*
D19*
X186530000Y-157050000D03*
D11*
X186780000Y-156710000D03*
D15*
X186780000Y-157510000D03*
D20*
X186780000Y-157550000D03*
D13*
X155580000Y-135520000D03*
D17*
X155790000Y-135780000D03*
D22*
X155990000Y-135435000D03*
D18*
X156050000Y-135050000D03*
D17*
X156310000Y-135260000D03*
D10*
X156310000Y-135780000D03*
D20*
X156310000Y-135780000D03*
D21*
X167480000Y-144410000D03*
D13*
X145420000Y-145680000D03*
D17*
X145630000Y-145940000D03*
D22*
X145830000Y-145595000D03*
D18*
X145890000Y-145210000D03*
D17*
X146150000Y-145420000D03*
D10*
X146150000Y-145940000D03*
D20*
X146150000Y-145940000D03*
D10*
X160300000Y-138320000D03*
D11*
X159460000Y-138310000D03*
D12*
X160260000Y-138310000D03*
D13*
X159210000Y-138060000D03*
D14*
X159800000Y-138060000D03*
D15*
X159460000Y-137810000D03*
D16*
X160260000Y-137810000D03*
D17*
X160300000Y-137810000D03*
X155790000Y-152470000D03*
D12*
X155800000Y-151630000D03*
D16*
X155800000Y-152430000D03*
D18*
X156050000Y-151380000D03*
D19*
X156050000Y-151970000D03*
D11*
X156300000Y-151630000D03*
D15*
X156300000Y-152430000D03*
D20*
X156300000Y-152470000D03*
D17*
X158330000Y-144850000D03*
D12*
X158340000Y-144010000D03*
D16*
X158340000Y-144810000D03*
D18*
X158590000Y-143760000D03*
D19*
X158590000Y-144350000D03*
D11*
X158840000Y-144010000D03*
D15*
X158840000Y-144810000D03*
D20*
X158840000Y-144850000D03*
D10*
X150140000Y-156100000D03*
D11*
X149300000Y-156090000D03*
D12*
X150100000Y-156090000D03*
D13*
X149050000Y-155840000D03*
D14*
X149640000Y-155840000D03*
D15*
X149300000Y-155590000D03*
D16*
X150100000Y-155590000D03*
D17*
X150140000Y-155590000D03*
D21*
X149700000Y-136790000D03*
X182720000Y-157110000D03*
X159860000Y-141870000D03*
D13*
X160660000Y-127900000D03*
D17*
X160870000Y-128160000D03*
D22*
X161070000Y-127815000D03*
D18*
X161130000Y-127430000D03*
D17*
X161390000Y-127640000D03*
D10*
X161390000Y-128160000D03*
D20*
X161390000Y-128160000D03*
D17*
X143090000Y-127070000D03*
D12*
X143100000Y-126230000D03*
D16*
X143100000Y-127030000D03*
D18*
X143350000Y-125980000D03*
D19*
X143350000Y-126570000D03*
D11*
X143600000Y-126230000D03*
D15*
X143600000Y-127030000D03*
D20*
X143600000Y-127070000D03*
D21*
X170020000Y-157110000D03*
D13*
X170820000Y-125360000D03*
D17*
X171030000Y-125620000D03*
D22*
X171230000Y-125275000D03*
D18*
X171290000Y-124890000D03*
D17*
X171550000Y-125100000D03*
D20*
X171550000Y-125620000D03*
D10*
X171550000Y-125620000D03*
D21*
X185260000Y-154570000D03*
D17*
X150710000Y-134690000D03*
D12*
X150720000Y-133850000D03*
D16*
X150720000Y-134650000D03*
D18*
X150970000Y-133600000D03*
D19*
X150970000Y-134190000D03*
D11*
X151220000Y-133850000D03*
D15*
X151220000Y-134650000D03*
D20*
X151220000Y-134690000D03*
D21*
X185260000Y-144410000D03*
X159860000Y-124090000D03*
D10*
X150140000Y-125620000D03*
D11*
X149300000Y-125610000D03*
D12*
X150100000Y-125610000D03*
D13*
X149050000Y-125360000D03*
D14*
X149640000Y-125360000D03*
D15*
X149300000Y-125110000D03*
D16*
X150100000Y-125110000D03*
D17*
X150140000Y-125110000D03*
D13*
X186060000Y-135520000D03*
D17*
X186270000Y-135780000D03*
D22*
X186470000Y-135435000D03*
D18*
X186530000Y-135050000D03*
D17*
X186790000Y-135260000D03*
D10*
X186790000Y-135780000D03*
D20*
X186790000Y-135780000D03*
D17*
X148170000Y-149930000D03*
D12*
X148180000Y-149090000D03*
D16*
X148180000Y-149890000D03*
D18*
X148430000Y-148840000D03*
D19*
X148430000Y-149430000D03*
D11*
X148680000Y-149090000D03*
D15*
X148680000Y-149890000D03*
D20*
X148680000Y-149930000D03*
D23*
X136238000Y-146950000D03*
D13*
X153040000Y-143140000D03*
D17*
X153250000Y-143400000D03*
D22*
X153450000Y-143055000D03*
D18*
X153510000Y-142670000D03*
D17*
X153770000Y-142880000D03*
D10*
X153770000Y-143400000D03*
D20*
X153770000Y-143400000D03*
D21*
X147160000Y-149490000D03*
D17*
X186270000Y-155010000D03*
D12*
X186280000Y-154170000D03*
D16*
X186280000Y-154970000D03*
D18*
X186530000Y-153920000D03*
D19*
X186530000Y-154510000D03*
D11*
X186780000Y-154170000D03*
D15*
X186780000Y-154970000D03*
D20*
X186780000Y-155010000D03*
D10*
X167920000Y-135780000D03*
D11*
X167080000Y-135770000D03*
D12*
X167880000Y-135770000D03*
D13*
X166830000Y-135520000D03*
D14*
X167420000Y-135520000D03*
D15*
X167080000Y-135270000D03*
D16*
X167880000Y-135270000D03*
D17*
X167920000Y-135270000D03*
D10*
X165380000Y-138320000D03*
D11*
X164540000Y-138310000D03*
D12*
X165340000Y-138310000D03*
D13*
X164290000Y-138060000D03*
D14*
X164880000Y-138060000D03*
D15*
X164540000Y-137810000D03*
D16*
X165340000Y-137810000D03*
D17*
X165380000Y-137810000D03*
D13*
X186060000Y-140600000D03*
D17*
X186270000Y-140860000D03*
D22*
X186470000Y-140515000D03*
D18*
X186530000Y-140130000D03*
D17*
X186790000Y-140340000D03*
D10*
X186790000Y-140860000D03*
D20*
X186790000Y-140860000D03*
D13*
X153040000Y-145680000D03*
D17*
X153250000Y-145940000D03*
D22*
X153450000Y-145595000D03*
D18*
X153510000Y-145210000D03*
D17*
X153770000Y-145420000D03*
D20*
X153770000Y-145940000D03*
D10*
X153770000Y-145940000D03*
X142520000Y-133240000D03*
D11*
X141680000Y-133230000D03*
D12*
X142480000Y-133230000D03*
D13*
X141430000Y-132980000D03*
D14*
X142020000Y-132980000D03*
D15*
X141680000Y-132730000D03*
D16*
X142480000Y-132730000D03*
D17*
X142520000Y-132730000D03*
X183730000Y-147390000D03*
D12*
X183740000Y-146550000D03*
D16*
X183740000Y-147350000D03*
D18*
X183990000Y-146300000D03*
D19*
X183990000Y-146890000D03*
D11*
X184240000Y-146550000D03*
D15*
X184240000Y-147350000D03*
D20*
X184240000Y-147390000D03*
D21*
X159860000Y-139330000D03*
D10*
X183160000Y-145940000D03*
D11*
X182320000Y-145930000D03*
D12*
X183120000Y-145930000D03*
D13*
X182070000Y-145680000D03*
D14*
X182660000Y-145680000D03*
D15*
X182320000Y-145430000D03*
D16*
X183120000Y-145430000D03*
D17*
X183160000Y-145430000D03*
X165950000Y-144850000D03*
D12*
X165960000Y-144010000D03*
D16*
X165960000Y-144810000D03*
D18*
X166210000Y-143760000D03*
D19*
X166210000Y-144350000D03*
D11*
X166460000Y-144010000D03*
D15*
X166460000Y-144810000D03*
D20*
X166460000Y-144850000D03*
D10*
X167920000Y-140860000D03*
D11*
X167080000Y-140850000D03*
D12*
X167880000Y-140850000D03*
D13*
X166830000Y-140600000D03*
D14*
X167420000Y-140600000D03*
D15*
X167080000Y-140350000D03*
D16*
X167880000Y-140350000D03*
D17*
X167920000Y-140350000D03*
D10*
X170460000Y-128160000D03*
D11*
X169620000Y-128150000D03*
D12*
X170420000Y-128150000D03*
D13*
X169370000Y-127900000D03*
D14*
X169960000Y-127900000D03*
D15*
X169620000Y-127650000D03*
D16*
X170420000Y-127650000D03*
D17*
X170460000Y-127650000D03*
D21*
X147160000Y-134250000D03*
D17*
X140550000Y-144850000D03*
D12*
X140560000Y-144010000D03*
D16*
X140560000Y-144810000D03*
D18*
X140810000Y-143760000D03*
D19*
X140810000Y-144350000D03*
D11*
X141060000Y-144010000D03*
D15*
X141060000Y-144810000D03*
D20*
X141060000Y-144850000D03*
D17*
X148170000Y-155010000D03*
D12*
X148180000Y-154170000D03*
D16*
X148180000Y-154970000D03*
D18*
X148430000Y-153920000D03*
D19*
X148430000Y-154510000D03*
D11*
X148680000Y-154170000D03*
D15*
X148680000Y-154970000D03*
D20*
X148680000Y-155010000D03*
D13*
X180980000Y-132980000D03*
D17*
X181190000Y-133240000D03*
D22*
X181390000Y-132895000D03*
D18*
X181450000Y-132510000D03*
D17*
X181710000Y-132720000D03*
D10*
X181710000Y-133240000D03*
D20*
X181710000Y-133240000D03*
D21*
X180180000Y-152030000D03*
D10*
X142520000Y-143400000D03*
D11*
X141680000Y-143390000D03*
D12*
X142480000Y-143390000D03*
D13*
X141430000Y-143140000D03*
D14*
X142020000Y-143140000D03*
D15*
X141680000Y-142890000D03*
D16*
X142480000Y-142890000D03*
D17*
X142520000Y-142890000D03*
D13*
X165740000Y-145680000D03*
D17*
X165950000Y-145940000D03*
D22*
X166150000Y-145595000D03*
D18*
X166210000Y-145210000D03*
D17*
X166470000Y-145420000D03*
D10*
X166470000Y-145940000D03*
D20*
X166470000Y-145940000D03*
D13*
X180980000Y-125360000D03*
D17*
X181190000Y-125620000D03*
D22*
X181390000Y-125275000D03*
D18*
X181450000Y-124890000D03*
D17*
X181710000Y-125100000D03*
D10*
X181710000Y-125620000D03*
D20*
X181710000Y-125620000D03*
D13*
X168280000Y-155840000D03*
D17*
X168490000Y-156100000D03*
D22*
X168690000Y-155755000D03*
D18*
X168750000Y-155370000D03*
D17*
X169010000Y-155580000D03*
D20*
X169010000Y-156100000D03*
D10*
X169010000Y-156100000D03*
D21*
X185260000Y-146950000D03*
D17*
X143090000Y-142310000D03*
D12*
X143100000Y-141470000D03*
D16*
X143100000Y-142270000D03*
D18*
X143350000Y-141220000D03*
D19*
X143350000Y-141810000D03*
D11*
X143600000Y-141470000D03*
D15*
X143600000Y-142270000D03*
D20*
X143600000Y-142310000D03*
D17*
X150710000Y-147390000D03*
D12*
X150720000Y-146550000D03*
D16*
X150720000Y-147350000D03*
D18*
X150970000Y-146300000D03*
D19*
X150970000Y-146890000D03*
D11*
X151220000Y-146550000D03*
D15*
X151220000Y-147350000D03*
D20*
X151220000Y-147390000D03*
D17*
X155790000Y-129610000D03*
D12*
X155800000Y-128770000D03*
D16*
X155800000Y-129570000D03*
D18*
X156050000Y-128520000D03*
D19*
X156050000Y-129110000D03*
D11*
X156300000Y-128770000D03*
D15*
X156300000Y-129570000D03*
D20*
X156300000Y-129610000D03*
D13*
X180980000Y-148220000D03*
D17*
X181190000Y-148480000D03*
D22*
X181390000Y-148135000D03*
D18*
X181450000Y-147750000D03*
D17*
X181710000Y-147960000D03*
D20*
X181710000Y-148480000D03*
D10*
X181710000Y-148480000D03*
D17*
X165950000Y-139770000D03*
D12*
X165960000Y-138930000D03*
D16*
X165960000Y-139730000D03*
D18*
X166210000Y-138680000D03*
D19*
X166210000Y-139270000D03*
D11*
X166460000Y-138930000D03*
D15*
X166460000Y-139730000D03*
D20*
X166460000Y-139770000D03*
D10*
X183160000Y-125620000D03*
D11*
X182320000Y-125610000D03*
D12*
X183120000Y-125610000D03*
D13*
X182070000Y-125360000D03*
D14*
X182660000Y-125360000D03*
D15*
X182320000Y-125110000D03*
D16*
X183120000Y-125110000D03*
D17*
X183160000Y-125110000D03*
X178650000Y-152470000D03*
D12*
X178660000Y-151630000D03*
D16*
X178660000Y-152430000D03*
D18*
X178910000Y-151380000D03*
D19*
X178910000Y-151970000D03*
D11*
X179160000Y-151630000D03*
D15*
X179160000Y-152430000D03*
D20*
X179160000Y-152470000D03*
D17*
X163410000Y-129610000D03*
D12*
X163420000Y-128770000D03*
D16*
X163420000Y-129570000D03*
D18*
X163670000Y-128520000D03*
D19*
X163670000Y-129110000D03*
D11*
X163920000Y-128770000D03*
D15*
X163920000Y-129570000D03*
D20*
X163920000Y-129610000D03*
D23*
X191102000Y-139330000D03*
D21*
X164940000Y-154570000D03*
X162400000Y-129170000D03*
D10*
X160300000Y-135780000D03*
D11*
X159460000Y-135770000D03*
D12*
X160260000Y-135770000D03*
D13*
X159210000Y-135520000D03*
D14*
X159800000Y-135520000D03*
D15*
X159460000Y-135270000D03*
D16*
X160260000Y-135270000D03*
D17*
X160300000Y-135270000D03*
D21*
X149700000Y-157110000D03*
D13*
X150500000Y-148220000D03*
D17*
X150710000Y-148480000D03*
D22*
X150910000Y-148135000D03*
D18*
X150970000Y-147750000D03*
D17*
X151230000Y-147960000D03*
D20*
X151230000Y-148480000D03*
D10*
X151230000Y-148480000D03*
D13*
X180980000Y-150760000D03*
D17*
X181190000Y-151020000D03*
D22*
X181390000Y-150675000D03*
D18*
X181450000Y-150290000D03*
D17*
X181710000Y-150500000D03*
D20*
X181710000Y-151020000D03*
D10*
X181710000Y-151020000D03*
D13*
X178440000Y-135520000D03*
D17*
X178650000Y-135780000D03*
D22*
X178850000Y-135435000D03*
D18*
X178910000Y-135050000D03*
D17*
X179170000Y-135260000D03*
D20*
X179170000Y-135780000D03*
D10*
X179170000Y-135780000D03*
D21*
X175100000Y-131710000D03*
D17*
X158330000Y-152470000D03*
D12*
X158340000Y-151630000D03*
D16*
X158340000Y-152430000D03*
D18*
X158590000Y-151380000D03*
D19*
X158590000Y-151970000D03*
D11*
X158840000Y-151630000D03*
D15*
X158840000Y-152430000D03*
D20*
X158840000Y-152470000D03*
D17*
X150710000Y-139770000D03*
D12*
X150720000Y-138930000D03*
D16*
X150720000Y-139730000D03*
D18*
X150970000Y-138680000D03*
D19*
X150970000Y-139270000D03*
D11*
X151220000Y-138930000D03*
D15*
X151220000Y-139730000D03*
D20*
X151220000Y-139770000D03*
D21*
X157320000Y-131710000D03*
D13*
X170820000Y-145680000D03*
D17*
X171030000Y-145940000D03*
D22*
X171230000Y-145595000D03*
D18*
X171290000Y-145210000D03*
D17*
X171550000Y-145420000D03*
D10*
X171550000Y-145940000D03*
D20*
X171550000Y-145940000D03*
D10*
X145060000Y-140860000D03*
D11*
X144220000Y-140850000D03*
D12*
X145020000Y-140850000D03*
D13*
X143970000Y-140600000D03*
D14*
X144560000Y-140600000D03*
D15*
X144220000Y-140350000D03*
D16*
X145020000Y-140350000D03*
D17*
X145060000Y-140350000D03*
D13*
X150500000Y-132980000D03*
D17*
X150710000Y-133240000D03*
D22*
X150910000Y-132895000D03*
D18*
X150970000Y-132510000D03*
D17*
X151230000Y-132720000D03*
D20*
X151230000Y-133240000D03*
D10*
X151230000Y-133240000D03*
D21*
X162400000Y-157110000D03*
D10*
X175540000Y-138320000D03*
D11*
X174700000Y-138310000D03*
D12*
X175500000Y-138310000D03*
D13*
X174450000Y-138060000D03*
D14*
X175040000Y-138060000D03*
D15*
X174700000Y-137810000D03*
D16*
X175500000Y-137810000D03*
D17*
X175540000Y-137810000D03*
D10*
X167920000Y-138320000D03*
D11*
X167080000Y-138310000D03*
D12*
X167880000Y-138310000D03*
D13*
X166830000Y-138060000D03*
D14*
X167420000Y-138060000D03*
D15*
X167080000Y-137810000D03*
D16*
X167880000Y-137810000D03*
D17*
X167920000Y-137810000D03*
D21*
X167480000Y-141870000D03*
X154780000Y-129170000D03*
X167480000Y-157110000D03*
D17*
X160870000Y-144850000D03*
D12*
X160880000Y-144010000D03*
D16*
X160880000Y-144810000D03*
D18*
X161130000Y-143760000D03*
D19*
X161130000Y-144350000D03*
D11*
X161380000Y-144010000D03*
D15*
X161380000Y-144810000D03*
D20*
X161380000Y-144850000D03*
D21*
X152240000Y-149490000D03*
D17*
X155790000Y-139770000D03*
D12*
X155800000Y-138930000D03*
D16*
X155800000Y-139730000D03*
D18*
X156050000Y-138680000D03*
D19*
X156050000Y-139270000D03*
D11*
X156300000Y-138930000D03*
D15*
X156300000Y-139730000D03*
D20*
X156300000Y-139770000D03*
D21*
X175100000Y-154570000D03*
D13*
X168280000Y-130440000D03*
D17*
X168490000Y-130700000D03*
D22*
X168690000Y-130355000D03*
D18*
X168750000Y-129970000D03*
D17*
X169010000Y-130180000D03*
D20*
X169010000Y-130700000D03*
D10*
X169010000Y-130700000D03*
X185700000Y-145940000D03*
D11*
X184860000Y-145930000D03*
D12*
X185660000Y-145930000D03*
D13*
X184610000Y-145680000D03*
D14*
X185200000Y-145680000D03*
D15*
X184860000Y-145430000D03*
D16*
X185660000Y-145430000D03*
D17*
X185700000Y-145430000D03*
X150710000Y-157550000D03*
D12*
X150720000Y-156710000D03*
D16*
X150720000Y-157510000D03*
D18*
X150970000Y-156460000D03*
D19*
X150970000Y-157050000D03*
D11*
X151220000Y-156710000D03*
D15*
X151220000Y-157510000D03*
D20*
X151220000Y-157550000D03*
D17*
X171030000Y-134690000D03*
D12*
X171040000Y-133850000D03*
D16*
X171040000Y-134650000D03*
D18*
X171290000Y-133600000D03*
D19*
X171290000Y-134190000D03*
D11*
X171540000Y-133850000D03*
D15*
X171540000Y-134650000D03*
D20*
X171540000Y-134690000D03*
D10*
X170460000Y-148480000D03*
D11*
X169620000Y-148470000D03*
D12*
X170420000Y-148470000D03*
D13*
X169370000Y-148220000D03*
D14*
X169960000Y-148220000D03*
D15*
X169620000Y-147970000D03*
D16*
X170420000Y-147970000D03*
D17*
X170460000Y-147970000D03*
D10*
X178080000Y-125620000D03*
D11*
X177240000Y-125610000D03*
D12*
X178040000Y-125610000D03*
D13*
X176990000Y-125360000D03*
D14*
X177580000Y-125360000D03*
D15*
X177240000Y-125110000D03*
D16*
X178040000Y-125110000D03*
D17*
X178080000Y-125110000D03*
D21*
X147160000Y-124090000D03*
D17*
X150710000Y-129610000D03*
D12*
X150720000Y-128770000D03*
D16*
X150720000Y-129570000D03*
D18*
X150970000Y-128520000D03*
D19*
X150970000Y-129110000D03*
D11*
X151220000Y-128770000D03*
D15*
X151220000Y-129570000D03*
D20*
X151220000Y-129610000D03*
D10*
X167920000Y-143400000D03*
D11*
X167080000Y-143390000D03*
D12*
X167880000Y-143390000D03*
D13*
X166830000Y-143140000D03*
D14*
X167420000Y-143140000D03*
D15*
X167080000Y-142890000D03*
D16*
X167880000Y-142890000D03*
D17*
X167920000Y-142890000D03*
X158330000Y-134690000D03*
D12*
X158340000Y-133850000D03*
D16*
X158340000Y-134650000D03*
D18*
X158590000Y-133600000D03*
D19*
X158590000Y-134190000D03*
D11*
X158840000Y-133850000D03*
D15*
X158840000Y-134650000D03*
D20*
X158840000Y-134690000D03*
D10*
X145060000Y-125620000D03*
D11*
X144220000Y-125610000D03*
D12*
X145020000Y-125610000D03*
D13*
X143970000Y-125360000D03*
D14*
X144560000Y-125360000D03*
D15*
X144220000Y-125110000D03*
D16*
X145020000Y-125110000D03*
D17*
X145060000Y-125110000D03*
D13*
X178440000Y-140600000D03*
D17*
X178650000Y-140860000D03*
D22*
X178850000Y-140515000D03*
D18*
X178910000Y-140130000D03*
D17*
X179170000Y-140340000D03*
D20*
X179170000Y-140860000D03*
D10*
X179170000Y-140860000D03*
D21*
X159860000Y-136790000D03*
D17*
X165950000Y-137230000D03*
D12*
X165960000Y-136390000D03*
D16*
X165960000Y-137190000D03*
D18*
X166210000Y-136140000D03*
D19*
X166210000Y-136730000D03*
D11*
X166460000Y-136390000D03*
D15*
X166460000Y-137190000D03*
D20*
X166460000Y-137230000D03*
D21*
X185260000Y-129170000D03*
D17*
X176110000Y-142310000D03*
D12*
X176120000Y-141470000D03*
D16*
X176120000Y-142270000D03*
D18*
X176370000Y-141220000D03*
D19*
X176370000Y-141810000D03*
D11*
X176620000Y-141470000D03*
D15*
X176620000Y-142270000D03*
D20*
X176620000Y-142310000D03*
D10*
X145060000Y-145940000D03*
D11*
X144220000Y-145930000D03*
D12*
X145020000Y-145930000D03*
D13*
X143970000Y-145680000D03*
D14*
X144560000Y-145680000D03*
D15*
X144220000Y-145430000D03*
D16*
X145020000Y-145430000D03*
D17*
X145060000Y-145430000D03*
D10*
X173000000Y-130700000D03*
D11*
X172160000Y-130690000D03*
D12*
X172960000Y-130690000D03*
D13*
X171910000Y-130440000D03*
D14*
X172500000Y-130440000D03*
D15*
X172160000Y-130190000D03*
D16*
X172960000Y-130190000D03*
D17*
X173000000Y-130190000D03*
D21*
X170020000Y-131710000D03*
X157320000Y-124090000D03*
D17*
X168490000Y-144850000D03*
D12*
X168500000Y-144010000D03*
D16*
X168500000Y-144810000D03*
D18*
X168750000Y-143760000D03*
D19*
X168750000Y-144350000D03*
D11*
X169000000Y-144010000D03*
D15*
X169000000Y-144810000D03*
D20*
X169000000Y-144850000D03*
D13*
X158120000Y-155840000D03*
D17*
X158330000Y-156100000D03*
D22*
X158530000Y-155755000D03*
D18*
X158590000Y-155370000D03*
D17*
X158850000Y-155580000D03*
D20*
X158850000Y-156100000D03*
D10*
X158850000Y-156100000D03*
D13*
X163200000Y-138060000D03*
D17*
X163410000Y-138320000D03*
D22*
X163610000Y-137975000D03*
D18*
X163670000Y-137590000D03*
D17*
X163930000Y-137800000D03*
D10*
X163930000Y-138320000D03*
D20*
X163930000Y-138320000D03*
D17*
X176110000Y-124530000D03*
D12*
X176120000Y-123690000D03*
D16*
X176120000Y-124490000D03*
D18*
X176370000Y-123440000D03*
D19*
X176370000Y-124030000D03*
D11*
X176620000Y-123690000D03*
D15*
X176620000Y-124490000D03*
D20*
X176620000Y-124530000D03*
D13*
X170820000Y-150760000D03*
D17*
X171030000Y-151020000D03*
D22*
X171230000Y-150675000D03*
D18*
X171290000Y-150290000D03*
D17*
X171550000Y-150500000D03*
D20*
X171550000Y-151020000D03*
D10*
X171550000Y-151020000D03*
D17*
X158330000Y-137230000D03*
D12*
X158340000Y-136390000D03*
D16*
X158340000Y-137190000D03*
D18*
X158590000Y-136140000D03*
D19*
X158590000Y-136730000D03*
D11*
X158840000Y-136390000D03*
D15*
X158840000Y-137190000D03*
D20*
X158840000Y-137230000D03*
D10*
X160300000Y-148480000D03*
D11*
X159460000Y-148470000D03*
D12*
X160260000Y-148470000D03*
D13*
X159210000Y-148220000D03*
D14*
X159800000Y-148220000D03*
D15*
X159460000Y-147970000D03*
D16*
X160260000Y-147970000D03*
D17*
X160300000Y-147970000D03*
D10*
X165380000Y-145940000D03*
D11*
X164540000Y-145930000D03*
D12*
X165340000Y-145930000D03*
D13*
X164290000Y-145680000D03*
D14*
X164880000Y-145680000D03*
D15*
X164540000Y-145430000D03*
D16*
X165340000Y-145430000D03*
D17*
X165380000Y-145430000D03*
D13*
X155580000Y-140600000D03*
D17*
X155790000Y-140860000D03*
D22*
X155990000Y-140515000D03*
D18*
X156050000Y-140130000D03*
D17*
X156310000Y-140340000D03*
D10*
X156310000Y-140860000D03*
D20*
X156310000Y-140860000D03*
D10*
X188240000Y-138320000D03*
D11*
X187400000Y-138310000D03*
D12*
X188200000Y-138310000D03*
D13*
X187150000Y-138060000D03*
D14*
X187740000Y-138060000D03*
D15*
X187400000Y-137810000D03*
D16*
X188200000Y-137810000D03*
D17*
X188240000Y-137810000D03*
D23*
X191102000Y-141870000D03*
D21*
X172560000Y-141870000D03*
D10*
X188240000Y-151020000D03*
D11*
X187400000Y-151010000D03*
D12*
X188200000Y-151010000D03*
D13*
X187150000Y-150760000D03*
D14*
X187740000Y-150760000D03*
D15*
X187400000Y-150510000D03*
D16*
X188200000Y-150510000D03*
D17*
X188240000Y-150510000D03*
D21*
X187800000Y-157110000D03*
D23*
X136238000Y-131710000D03*
D10*
X162840000Y-125620000D03*
D11*
X162000000Y-125610000D03*
D12*
X162800000Y-125610000D03*
D13*
X161750000Y-125360000D03*
D14*
X162340000Y-125360000D03*
D15*
X162000000Y-125110000D03*
D16*
X162800000Y-125110000D03*
D17*
X162840000Y-125110000D03*
X155790000Y-127070000D03*
D12*
X155800000Y-126230000D03*
D16*
X155800000Y-127030000D03*
D18*
X156050000Y-125980000D03*
D19*
X156050000Y-126570000D03*
D11*
X156300000Y-126230000D03*
D15*
X156300000Y-127030000D03*
D20*
X156300000Y-127070000D03*
D21*
X142080000Y-152030000D03*
D17*
X165950000Y-149930000D03*
D12*
X165960000Y-149090000D03*
D16*
X165960000Y-149890000D03*
D18*
X166210000Y-148840000D03*
D19*
X166210000Y-149430000D03*
D11*
X166460000Y-149090000D03*
D15*
X166460000Y-149890000D03*
D20*
X166460000Y-149930000D03*
D17*
X176110000Y-139770000D03*
D12*
X176120000Y-138930000D03*
D16*
X176120000Y-139730000D03*
D18*
X176370000Y-138680000D03*
D19*
X176370000Y-139270000D03*
D11*
X176620000Y-138930000D03*
D15*
X176620000Y-139730000D03*
D20*
X176620000Y-139770000D03*
D17*
X176110000Y-155010000D03*
D12*
X176120000Y-154170000D03*
D16*
X176120000Y-154970000D03*
D18*
X176370000Y-153920000D03*
D19*
X176370000Y-154510000D03*
D11*
X176620000Y-154170000D03*
D15*
X176620000Y-154970000D03*
D20*
X176620000Y-155010000D03*
D10*
X150140000Y-138320000D03*
D11*
X149300000Y-138310000D03*
D12*
X150100000Y-138310000D03*
D13*
X149050000Y-138060000D03*
D14*
X149640000Y-138060000D03*
D15*
X149300000Y-137810000D03*
D16*
X150100000Y-137810000D03*
D17*
X150140000Y-137810000D03*
D21*
X154780000Y-131710000D03*
D17*
X160870000Y-127070000D03*
D12*
X160880000Y-126230000D03*
D16*
X160880000Y-127030000D03*
D18*
X161130000Y-125980000D03*
D19*
X161130000Y-126570000D03*
D11*
X161380000Y-126230000D03*
D15*
X161380000Y-127030000D03*
D20*
X161380000Y-127070000D03*
D10*
X145060000Y-135780000D03*
D11*
X144220000Y-135770000D03*
D12*
X145020000Y-135770000D03*
D13*
X143970000Y-135520000D03*
D14*
X144560000Y-135520000D03*
D15*
X144220000Y-135270000D03*
D16*
X145020000Y-135270000D03*
D17*
X145060000Y-135270000D03*
X145630000Y-142310000D03*
D12*
X145640000Y-141470000D03*
D16*
X145640000Y-142270000D03*
D18*
X145890000Y-141220000D03*
D19*
X145890000Y-141810000D03*
D11*
X146140000Y-141470000D03*
D15*
X146140000Y-142270000D03*
D20*
X146140000Y-142310000D03*
D17*
X160870000Y-134690000D03*
D12*
X160880000Y-133850000D03*
D16*
X160880000Y-134650000D03*
D18*
X161130000Y-133600000D03*
D19*
X161130000Y-134190000D03*
D11*
X161380000Y-133850000D03*
D15*
X161380000Y-134650000D03*
D20*
X161380000Y-134690000D03*
D13*
X145420000Y-143140000D03*
D17*
X145630000Y-143400000D03*
D22*
X145830000Y-143055000D03*
D18*
X145890000Y-142670000D03*
D17*
X146150000Y-142880000D03*
D10*
X146150000Y-143400000D03*
D20*
X146150000Y-143400000D03*
D10*
X139980000Y-153560000D03*
D11*
X139140000Y-153550000D03*
D12*
X139940000Y-153550000D03*
D13*
X138890000Y-153300000D03*
D14*
X139480000Y-153300000D03*
D15*
X139140000Y-153050000D03*
D16*
X139940000Y-153050000D03*
D17*
X139980000Y-153050000D03*
D10*
X145060000Y-153560000D03*
D11*
X144220000Y-153550000D03*
D12*
X145020000Y-153550000D03*
D13*
X143970000Y-153300000D03*
D14*
X144560000Y-153300000D03*
D15*
X144220000Y-153050000D03*
D16*
X145020000Y-153050000D03*
D17*
X145060000Y-153050000D03*
D13*
X168280000Y-135520000D03*
D17*
X168490000Y-135780000D03*
D22*
X168690000Y-135435000D03*
D18*
X168750000Y-135050000D03*
D17*
X169010000Y-135260000D03*
D10*
X169010000Y-135780000D03*
D20*
X169010000Y-135780000D03*
D13*
X175900000Y-130440000D03*
D17*
X176110000Y-130700000D03*
D22*
X176310000Y-130355000D03*
D18*
X176370000Y-129970000D03*
D17*
X176630000Y-130180000D03*
D10*
X176630000Y-130700000D03*
D20*
X176630000Y-130700000D03*
D17*
X155790000Y-137230000D03*
D12*
X155800000Y-136390000D03*
D16*
X155800000Y-137190000D03*
D18*
X156050000Y-136140000D03*
D19*
X156050000Y-136730000D03*
D11*
X156300000Y-136390000D03*
D15*
X156300000Y-137190000D03*
D20*
X156300000Y-137230000D03*
D23*
X136238000Y-144410000D03*
D13*
X147960000Y-148220000D03*
D17*
X148170000Y-148480000D03*
D22*
X148370000Y-148135000D03*
D18*
X148430000Y-147750000D03*
D17*
X148690000Y-147960000D03*
D20*
X148690000Y-148480000D03*
D10*
X148690000Y-148480000D03*
D13*
X170820000Y-127900000D03*
D17*
X171030000Y-128160000D03*
D22*
X171230000Y-127815000D03*
D18*
X171290000Y-127430000D03*
D17*
X171550000Y-127640000D03*
D10*
X171550000Y-128160000D03*
D20*
X171550000Y-128160000D03*
D17*
X181190000Y-144850000D03*
D12*
X181200000Y-144010000D03*
D16*
X181200000Y-144810000D03*
D18*
X181450000Y-143760000D03*
D19*
X181450000Y-144350000D03*
D11*
X181700000Y-144010000D03*
D15*
X181700000Y-144810000D03*
D20*
X181700000Y-144850000D03*
D17*
X163410000Y-124530000D03*
D12*
X163420000Y-123690000D03*
D16*
X163420000Y-124490000D03*
D18*
X163670000Y-123440000D03*
D19*
X163670000Y-124030000D03*
D11*
X163920000Y-123690000D03*
D15*
X163920000Y-124490000D03*
D20*
X163920000Y-124530000D03*
D21*
X180180000Y-136790000D03*
D17*
X155790000Y-144850000D03*
D12*
X155800000Y-144010000D03*
D16*
X155800000Y-144810000D03*
D18*
X156050000Y-143760000D03*
D19*
X156050000Y-144350000D03*
D11*
X156300000Y-144010000D03*
D15*
X156300000Y-144810000D03*
D20*
X156300000Y-144850000D03*
D10*
X175540000Y-151020000D03*
D11*
X174700000Y-151010000D03*
D12*
X175500000Y-151010000D03*
D13*
X174450000Y-150760000D03*
D14*
X175040000Y-150760000D03*
D15*
X174700000Y-150510000D03*
D16*
X175500000Y-150510000D03*
D17*
X175540000Y-150510000D03*
D21*
X147160000Y-157110000D03*
X142080000Y-149490000D03*
X149700000Y-146950000D03*
D17*
X178650000Y-149930000D03*
D12*
X178660000Y-149090000D03*
D16*
X178660000Y-149890000D03*
D18*
X178910000Y-148840000D03*
D19*
X178910000Y-149430000D03*
D11*
X179160000Y-149090000D03*
D15*
X179160000Y-149890000D03*
D20*
X179160000Y-149930000D03*
D21*
X139540000Y-136790000D03*
D10*
X175540000Y-133240000D03*
D11*
X174700000Y-133230000D03*
D12*
X175500000Y-133230000D03*
D13*
X174450000Y-132980000D03*
D14*
X175040000Y-132980000D03*
D15*
X174700000Y-132730000D03*
D16*
X175500000Y-132730000D03*
D17*
X175540000Y-132730000D03*
D23*
X191102000Y-131710000D03*
D13*
X178440000Y-150760000D03*
D17*
X178650000Y-151020000D03*
D22*
X178850000Y-150675000D03*
D18*
X178910000Y-150290000D03*
D17*
X179170000Y-150500000D03*
D20*
X179170000Y-151020000D03*
D10*
X179170000Y-151020000D03*
X160300000Y-156100000D03*
D11*
X159460000Y-156090000D03*
D12*
X160260000Y-156090000D03*
D13*
X159210000Y-155840000D03*
D14*
X159800000Y-155840000D03*
D15*
X159460000Y-155590000D03*
D16*
X160260000Y-155590000D03*
D17*
X160300000Y-155590000D03*
D21*
X170020000Y-152030000D03*
D10*
X162840000Y-130700000D03*
D11*
X162000000Y-130690000D03*
D12*
X162800000Y-130690000D03*
D13*
X161750000Y-130440000D03*
D14*
X162340000Y-130440000D03*
D15*
X162000000Y-130190000D03*
D16*
X162800000Y-130190000D03*
D17*
X162840000Y-130190000D03*
D21*
X170020000Y-134250000D03*
D17*
X145630000Y-152470000D03*
D12*
X145640000Y-151630000D03*
D16*
X145640000Y-152430000D03*
D18*
X145890000Y-151380000D03*
D19*
X145890000Y-151970000D03*
D11*
X146140000Y-151630000D03*
D15*
X146140000Y-152430000D03*
D20*
X146140000Y-152470000D03*
D21*
X180180000Y-139330000D03*
D13*
X158120000Y-153300000D03*
D17*
X158330000Y-153560000D03*
D22*
X158530000Y-153215000D03*
D18*
X158590000Y-152830000D03*
D17*
X158850000Y-153040000D03*
D20*
X158850000Y-153560000D03*
D10*
X158850000Y-153560000D03*
X173000000Y-156100000D03*
D11*
X172160000Y-156090000D03*
D12*
X172960000Y-156090000D03*
D13*
X171910000Y-155840000D03*
D14*
X172500000Y-155840000D03*
D15*
X172160000Y-155590000D03*
D16*
X172960000Y-155590000D03*
D17*
X173000000Y-155590000D03*
X178650000Y-139770000D03*
D12*
X178660000Y-138930000D03*
D16*
X178660000Y-139730000D03*
D18*
X178910000Y-138680000D03*
D19*
X178910000Y-139270000D03*
D11*
X179160000Y-138930000D03*
D15*
X179160000Y-139730000D03*
D20*
X179160000Y-139770000D03*
D13*
X140340000Y-148220000D03*
D17*
X140550000Y-148480000D03*
D22*
X140750000Y-148135000D03*
D18*
X140810000Y-147750000D03*
D17*
X141070000Y-147960000D03*
D10*
X141070000Y-148480000D03*
D20*
X141070000Y-148480000D03*
D21*
X147160000Y-154570000D03*
X182720000Y-124090000D03*
D13*
X140340000Y-153300000D03*
D17*
X140550000Y-153560000D03*
D22*
X140750000Y-153215000D03*
D18*
X140810000Y-152830000D03*
D17*
X141070000Y-153040000D03*
D20*
X141070000Y-153560000D03*
D10*
X141070000Y-153560000D03*
X185700000Y-135780000D03*
D11*
X184860000Y-135770000D03*
D12*
X185660000Y-135770000D03*
D13*
X184610000Y-135520000D03*
D14*
X185200000Y-135520000D03*
D15*
X184860000Y-135270000D03*
D16*
X185660000Y-135270000D03*
D17*
X185700000Y-135270000D03*
D21*
X180180000Y-141870000D03*
D17*
X173570000Y-127070000D03*
D12*
X173580000Y-126230000D03*
D16*
X173580000Y-127030000D03*
D18*
X173830000Y-125980000D03*
D19*
X173830000Y-126570000D03*
D11*
X174080000Y-126230000D03*
D15*
X174080000Y-127030000D03*
D20*
X174080000Y-127070000D03*
D10*
X145060000Y-133240000D03*
D11*
X144220000Y-133230000D03*
D12*
X145020000Y-133230000D03*
D13*
X143970000Y-132980000D03*
D14*
X144560000Y-132980000D03*
D15*
X144220000Y-132730000D03*
D16*
X145020000Y-132730000D03*
D17*
X145060000Y-132730000D03*
D10*
X167920000Y-125620000D03*
D11*
X167080000Y-125610000D03*
D12*
X167880000Y-125610000D03*
D13*
X166830000Y-125360000D03*
D14*
X167420000Y-125360000D03*
D15*
X167080000Y-125110000D03*
D16*
X167880000Y-125110000D03*
D17*
X167920000Y-125110000D03*
D10*
X173000000Y-135780000D03*
D11*
X172160000Y-135770000D03*
D12*
X172960000Y-135770000D03*
D13*
X171910000Y-135520000D03*
D14*
X172500000Y-135520000D03*
D15*
X172160000Y-135270000D03*
D16*
X172960000Y-135270000D03*
D17*
X173000000Y-135270000D03*
X155790000Y-134690000D03*
D12*
X155800000Y-133850000D03*
D16*
X155800000Y-134650000D03*
D18*
X156050000Y-133600000D03*
D19*
X156050000Y-134190000D03*
D11*
X156300000Y-133850000D03*
D15*
X156300000Y-134650000D03*
D20*
X156300000Y-134690000D03*
D21*
X142080000Y-154570000D03*
D10*
X139980000Y-128160000D03*
D11*
X139140000Y-128150000D03*
D12*
X139940000Y-128150000D03*
D13*
X138890000Y-127900000D03*
D14*
X139480000Y-127900000D03*
D15*
X139140000Y-127650000D03*
D16*
X139940000Y-127650000D03*
D17*
X139980000Y-127650000D03*
D21*
X157320000Y-141870000D03*
D13*
X163200000Y-150760000D03*
D17*
X163410000Y-151020000D03*
D22*
X163610000Y-150675000D03*
D18*
X163670000Y-150290000D03*
D17*
X163930000Y-150500000D03*
D20*
X163930000Y-151020000D03*
D10*
X163930000Y-151020000D03*
X139980000Y-125620000D03*
D11*
X139140000Y-125610000D03*
D12*
X139940000Y-125610000D03*
D13*
X138890000Y-125360000D03*
D14*
X139480000Y-125360000D03*
D15*
X139140000Y-125110000D03*
D16*
X139940000Y-125110000D03*
D17*
X139980000Y-125110000D03*
D21*
X180180000Y-134250000D03*
D17*
X145630000Y-134690000D03*
D12*
X145640000Y-133850000D03*
D16*
X145640000Y-134650000D03*
D18*
X145890000Y-133600000D03*
D19*
X145890000Y-134190000D03*
D11*
X146140000Y-133850000D03*
D15*
X146140000Y-134650000D03*
D20*
X146140000Y-134690000D03*
D17*
X140550000Y-124530000D03*
D12*
X140560000Y-123690000D03*
D16*
X140560000Y-124490000D03*
D18*
X140810000Y-123440000D03*
D19*
X140810000Y-124030000D03*
D11*
X141060000Y-123690000D03*
D15*
X141060000Y-124490000D03*
D20*
X141060000Y-124530000D03*
D23*
X191102000Y-152030000D03*
D13*
X170820000Y-153300000D03*
D17*
X171030000Y-153560000D03*
D22*
X171230000Y-153215000D03*
D18*
X171290000Y-152830000D03*
D17*
X171550000Y-153040000D03*
D20*
X171550000Y-153560000D03*
D10*
X171550000Y-153560000D03*
D17*
X163410000Y-137230000D03*
D12*
X163420000Y-136390000D03*
D16*
X163420000Y-137190000D03*
D18*
X163670000Y-136140000D03*
D19*
X163670000Y-136730000D03*
D11*
X163920000Y-136390000D03*
D15*
X163920000Y-137190000D03*
D20*
X163920000Y-137230000D03*
D17*
X143090000Y-152470000D03*
D12*
X143100000Y-151630000D03*
D16*
X143100000Y-152430000D03*
D18*
X143350000Y-151380000D03*
D19*
X143350000Y-151970000D03*
D11*
X143600000Y-151630000D03*
D15*
X143600000Y-152430000D03*
D20*
X143600000Y-152470000D03*
D10*
X188240000Y-156100000D03*
D11*
X187400000Y-156090000D03*
D12*
X188200000Y-156090000D03*
D13*
X187150000Y-155840000D03*
D14*
X187740000Y-155840000D03*
D15*
X187400000Y-155590000D03*
D16*
X188200000Y-155590000D03*
D17*
X188240000Y-155590000D03*
X178650000Y-127070000D03*
D12*
X178660000Y-126230000D03*
D16*
X178660000Y-127030000D03*
D18*
X178910000Y-125980000D03*
D19*
X178910000Y-126570000D03*
D11*
X179160000Y-126230000D03*
D15*
X179160000Y-127030000D03*
D20*
X179160000Y-127070000D03*
D17*
X171030000Y-124530000D03*
D12*
X171040000Y-123690000D03*
D16*
X171040000Y-124490000D03*
D18*
X171290000Y-123440000D03*
D19*
X171290000Y-124030000D03*
D11*
X171540000Y-123690000D03*
D15*
X171540000Y-124490000D03*
D20*
X171540000Y-124530000D03*
D13*
X142880000Y-150760000D03*
D17*
X143090000Y-151020000D03*
D22*
X143290000Y-150675000D03*
D18*
X143350000Y-150290000D03*
D17*
X143610000Y-150500000D03*
D20*
X143610000Y-151020000D03*
D10*
X143610000Y-151020000D03*
X160300000Y-125620000D03*
D11*
X159460000Y-125610000D03*
D12*
X160260000Y-125610000D03*
D13*
X159210000Y-125360000D03*
D14*
X159800000Y-125360000D03*
D15*
X159460000Y-125110000D03*
D16*
X160260000Y-125110000D03*
D17*
X160300000Y-125110000D03*
D21*
X144620000Y-136790000D03*
D23*
X136238000Y-129170000D03*
D13*
X158120000Y-132980000D03*
D17*
X158330000Y-133240000D03*
D22*
X158530000Y-132895000D03*
D18*
X158590000Y-132510000D03*
D17*
X158850000Y-132720000D03*
D20*
X158850000Y-133240000D03*
D10*
X158850000Y-133240000D03*
D13*
X183520000Y-140600000D03*
D17*
X183730000Y-140860000D03*
D22*
X183930000Y-140515000D03*
D18*
X183990000Y-140130000D03*
D17*
X184250000Y-140340000D03*
D10*
X184250000Y-140860000D03*
D20*
X184250000Y-140860000D03*
D10*
X185700000Y-148480000D03*
D11*
X184860000Y-148470000D03*
D12*
X185660000Y-148470000D03*
D13*
X184610000Y-148220000D03*
D14*
X185200000Y-148220000D03*
D15*
X184860000Y-147970000D03*
D16*
X185660000Y-147970000D03*
D17*
X185700000Y-147970000D03*
D10*
X170460000Y-125620000D03*
D11*
X169620000Y-125610000D03*
D12*
X170420000Y-125610000D03*
D13*
X169370000Y-125360000D03*
D14*
X169960000Y-125360000D03*
D15*
X169620000Y-125110000D03*
D16*
X170420000Y-125110000D03*
D17*
X170460000Y-125110000D03*
D13*
X163200000Y-135520000D03*
D17*
X163410000Y-135780000D03*
D22*
X163610000Y-135435000D03*
D18*
X163670000Y-135050000D03*
D17*
X163930000Y-135260000D03*
D10*
X163930000Y-135780000D03*
D20*
X163930000Y-135780000D03*
D10*
X155220000Y-130700000D03*
D11*
X154380000Y-130690000D03*
D12*
X155180000Y-130690000D03*
D13*
X154130000Y-130440000D03*
D14*
X154720000Y-130440000D03*
D15*
X154380000Y-130190000D03*
D16*
X155180000Y-130190000D03*
D17*
X155220000Y-130190000D03*
D21*
X139540000Y-152030000D03*
D10*
X185700000Y-156100000D03*
D11*
X184860000Y-156090000D03*
D12*
X185660000Y-156090000D03*
D13*
X184610000Y-155840000D03*
D14*
X185200000Y-155840000D03*
D15*
X184860000Y-155590000D03*
D16*
X185660000Y-155590000D03*
D17*
X185700000Y-155590000D03*
X183730000Y-155010000D03*
D12*
X183740000Y-154170000D03*
D16*
X183740000Y-154970000D03*
D18*
X183990000Y-153920000D03*
D19*
X183990000Y-154510000D03*
D11*
X184240000Y-154170000D03*
D15*
X184240000Y-154970000D03*
D20*
X184240000Y-155010000D03*
D13*
X147960000Y-127900000D03*
D17*
X148170000Y-128160000D03*
D22*
X148370000Y-127815000D03*
D18*
X148430000Y-127430000D03*
D17*
X148690000Y-127640000D03*
D20*
X148690000Y-128160000D03*
D10*
X148690000Y-128160000D03*
D13*
X170820000Y-132980000D03*
D17*
X171030000Y-133240000D03*
D22*
X171230000Y-132895000D03*
D18*
X171290000Y-132510000D03*
D17*
X171550000Y-132720000D03*
D10*
X171550000Y-133240000D03*
D20*
X171550000Y-133240000D03*
D13*
X186060000Y-148220000D03*
D17*
X186270000Y-148480000D03*
D22*
X186470000Y-148135000D03*
D18*
X186530000Y-147750000D03*
D17*
X186790000Y-147960000D03*
D10*
X186790000Y-148480000D03*
D20*
X186790000Y-148480000D03*
D10*
X183160000Y-135780000D03*
D11*
X182320000Y-135770000D03*
D12*
X183120000Y-135770000D03*
D13*
X182070000Y-135520000D03*
D14*
X182660000Y-135520000D03*
D15*
X182320000Y-135270000D03*
D16*
X183120000Y-135270000D03*
D17*
X183160000Y-135270000D03*
X143090000Y-139770000D03*
D12*
X143100000Y-138930000D03*
D16*
X143100000Y-139730000D03*
D18*
X143350000Y-138680000D03*
D19*
X143350000Y-139270000D03*
D11*
X143600000Y-138930000D03*
D15*
X143600000Y-139730000D03*
D20*
X143600000Y-139770000D03*
D13*
X168280000Y-153300000D03*
D17*
X168490000Y-153560000D03*
D22*
X168690000Y-153215000D03*
D18*
X168750000Y-152830000D03*
D17*
X169010000Y-153040000D03*
D20*
X169010000Y-153560000D03*
D10*
X169010000Y-153560000D03*
D13*
X180980000Y-127900000D03*
D17*
X181190000Y-128160000D03*
D22*
X181390000Y-127815000D03*
D18*
X181450000Y-127430000D03*
D17*
X181710000Y-127640000D03*
D10*
X181710000Y-128160000D03*
D20*
X181710000Y-128160000D03*
D10*
X157760000Y-138320000D03*
D11*
X156920000Y-138310000D03*
D12*
X157720000Y-138310000D03*
D13*
X156670000Y-138060000D03*
D14*
X157260000Y-138060000D03*
D15*
X156920000Y-137810000D03*
D16*
X157720000Y-137810000D03*
D17*
X157760000Y-137810000D03*
D13*
X140340000Y-140600000D03*
D17*
X140550000Y-140860000D03*
D22*
X140750000Y-140515000D03*
D18*
X140810000Y-140130000D03*
D17*
X141070000Y-140340000D03*
D10*
X141070000Y-140860000D03*
D20*
X141070000Y-140860000D03*
D13*
X155580000Y-130440000D03*
D17*
X155790000Y-130700000D03*
D22*
X155990000Y-130355000D03*
D18*
X156050000Y-129970000D03*
D17*
X156310000Y-130180000D03*
D20*
X156310000Y-130700000D03*
D10*
X156310000Y-130700000D03*
D13*
X158120000Y-143140000D03*
D17*
X158330000Y-143400000D03*
D22*
X158530000Y-143055000D03*
D18*
X158590000Y-142670000D03*
D17*
X158850000Y-142880000D03*
D10*
X158850000Y-143400000D03*
D20*
X158850000Y-143400000D03*
D10*
X139980000Y-130700000D03*
D11*
X139140000Y-130690000D03*
D12*
X139940000Y-130690000D03*
D13*
X138890000Y-130440000D03*
D14*
X139480000Y-130440000D03*
D15*
X139140000Y-130190000D03*
D16*
X139940000Y-130190000D03*
D17*
X139980000Y-130190000D03*
D10*
X157760000Y-125620000D03*
D11*
X156920000Y-125610000D03*
D12*
X157720000Y-125610000D03*
D13*
X156670000Y-125360000D03*
D14*
X157260000Y-125360000D03*
D15*
X156920000Y-125110000D03*
D16*
X157720000Y-125110000D03*
D17*
X157760000Y-125110000D03*
D21*
X142080000Y-146950000D03*
D10*
X180620000Y-138320000D03*
D11*
X179780000Y-138310000D03*
D12*
X180580000Y-138310000D03*
D13*
X179530000Y-138060000D03*
D14*
X180120000Y-138060000D03*
D15*
X179780000Y-137810000D03*
D16*
X180580000Y-137810000D03*
D17*
X180620000Y-137810000D03*
D10*
X150140000Y-151020000D03*
D11*
X149300000Y-151010000D03*
D12*
X150100000Y-151010000D03*
D13*
X149050000Y-150760000D03*
D14*
X149640000Y-150760000D03*
D15*
X149300000Y-150510000D03*
D16*
X150100000Y-150510000D03*
D17*
X150140000Y-150510000D03*
D13*
X140340000Y-138060000D03*
D17*
X140550000Y-138320000D03*
D22*
X140750000Y-137975000D03*
D18*
X140810000Y-137590000D03*
D17*
X141070000Y-137800000D03*
D10*
X141070000Y-138320000D03*
D20*
X141070000Y-138320000D03*
D13*
X173360000Y-155840000D03*
D17*
X173570000Y-156100000D03*
D22*
X173770000Y-155755000D03*
D18*
X173830000Y-155370000D03*
D17*
X174090000Y-155580000D03*
D10*
X174090000Y-156100000D03*
D20*
X174090000Y-156100000D03*
D17*
X160870000Y-124530000D03*
D12*
X160880000Y-123690000D03*
D16*
X160880000Y-124490000D03*
D18*
X161130000Y-123440000D03*
D19*
X161130000Y-124030000D03*
D11*
X161380000Y-123690000D03*
D15*
X161380000Y-124490000D03*
D20*
X161380000Y-124530000D03*
D21*
X177640000Y-131710000D03*
D17*
X176110000Y-147390000D03*
D12*
X176120000Y-146550000D03*
D16*
X176120000Y-147350000D03*
D18*
X176370000Y-146300000D03*
D19*
X176370000Y-146890000D03*
D11*
X176620000Y-146550000D03*
D15*
X176620000Y-147350000D03*
D20*
X176620000Y-147390000D03*
D23*
X191102000Y-144410000D03*
D10*
X175540000Y-143400000D03*
D11*
X174700000Y-143390000D03*
D12*
X175500000Y-143390000D03*
D13*
X174450000Y-143140000D03*
D14*
X175040000Y-143140000D03*
D15*
X174700000Y-142890000D03*
D16*
X175500000Y-142890000D03*
D17*
X175540000Y-142890000D03*
D13*
X170820000Y-148220000D03*
D17*
X171030000Y-148480000D03*
D22*
X171230000Y-148135000D03*
D18*
X171290000Y-147750000D03*
D17*
X171550000Y-147960000D03*
D10*
X171550000Y-148480000D03*
D20*
X171550000Y-148480000D03*
D13*
X163200000Y-145680000D03*
D17*
X163410000Y-145940000D03*
D22*
X163610000Y-145595000D03*
D18*
X163670000Y-145210000D03*
D17*
X163930000Y-145420000D03*
D10*
X163930000Y-145940000D03*
D20*
X163930000Y-145940000D03*
D21*
X149700000Y-129170000D03*
D10*
X150140000Y-140860000D03*
D11*
X149300000Y-140850000D03*
D12*
X150100000Y-140850000D03*
D13*
X149050000Y-140600000D03*
D14*
X149640000Y-140600000D03*
D15*
X149300000Y-140350000D03*
D16*
X150100000Y-140350000D03*
D17*
X150140000Y-140350000D03*
X176110000Y-132150000D03*
D12*
X176120000Y-131310000D03*
D16*
X176120000Y-132110000D03*
D18*
X176370000Y-131060000D03*
D19*
X176370000Y-131650000D03*
D11*
X176620000Y-131310000D03*
D15*
X176620000Y-132110000D03*
D20*
X176620000Y-132150000D03*
D10*
X180620000Y-156100000D03*
D11*
X179780000Y-156090000D03*
D12*
X180580000Y-156090000D03*
D13*
X179530000Y-155840000D03*
D14*
X180120000Y-155840000D03*
D15*
X179780000Y-155590000D03*
D16*
X180580000Y-155590000D03*
D17*
X180620000Y-155590000D03*
X148170000Y-124530000D03*
D12*
X148180000Y-123690000D03*
D16*
X148180000Y-124490000D03*
D18*
X148430000Y-123440000D03*
D19*
X148430000Y-124030000D03*
D11*
X148680000Y-123690000D03*
D15*
X148680000Y-124490000D03*
D20*
X148680000Y-124530000D03*
D21*
X172560000Y-124090000D03*
X144620000Y-134250000D03*
D13*
X150500000Y-135520000D03*
D17*
X150710000Y-135780000D03*
D22*
X150910000Y-135435000D03*
D18*
X150970000Y-135050000D03*
D17*
X151230000Y-135260000D03*
D10*
X151230000Y-135780000D03*
D20*
X151230000Y-135780000D03*
D17*
X145630000Y-139770000D03*
D12*
X145640000Y-138930000D03*
D16*
X145640000Y-139730000D03*
D18*
X145890000Y-138680000D03*
D19*
X145890000Y-139270000D03*
D11*
X146140000Y-138930000D03*
D15*
X146140000Y-139730000D03*
D20*
X146140000Y-139770000D03*
D17*
X176110000Y-134690000D03*
D12*
X176120000Y-133850000D03*
D16*
X176120000Y-134650000D03*
D18*
X176370000Y-133600000D03*
D19*
X176370000Y-134190000D03*
D11*
X176620000Y-133850000D03*
D15*
X176620000Y-134650000D03*
D20*
X176620000Y-134690000D03*
D13*
X178440000Y-148220000D03*
D17*
X178650000Y-148480000D03*
D22*
X178850000Y-148135000D03*
D18*
X178910000Y-147750000D03*
D17*
X179170000Y-147960000D03*
D10*
X179170000Y-148480000D03*
D20*
X179170000Y-148480000D03*
D17*
X155790000Y-155010000D03*
D12*
X155800000Y-154170000D03*
D16*
X155800000Y-154970000D03*
D18*
X156050000Y-153920000D03*
D19*
X156050000Y-154510000D03*
D11*
X156300000Y-154170000D03*
D15*
X156300000Y-154970000D03*
D20*
X156300000Y-155010000D03*
D13*
X140340000Y-155840000D03*
D17*
X140550000Y-156100000D03*
D22*
X140750000Y-155755000D03*
D18*
X140810000Y-155370000D03*
D17*
X141070000Y-155580000D03*
D10*
X141070000Y-156100000D03*
D20*
X141070000Y-156100000D03*
D13*
X150500000Y-125360000D03*
D17*
X150710000Y-125620000D03*
D22*
X150910000Y-125275000D03*
D18*
X150970000Y-124890000D03*
D17*
X151230000Y-125100000D03*
D10*
X151230000Y-125620000D03*
D20*
X151230000Y-125620000D03*
D21*
X162400000Y-131710000D03*
D10*
X175540000Y-156100000D03*
D11*
X174700000Y-156090000D03*
D12*
X175500000Y-156090000D03*
D13*
X174450000Y-155840000D03*
D14*
X175040000Y-155840000D03*
D15*
X174700000Y-155590000D03*
D16*
X175500000Y-155590000D03*
D17*
X175540000Y-155590000D03*
D21*
X177640000Y-154570000D03*
X159860000Y-157110000D03*
D13*
X160660000Y-140600000D03*
D17*
X160870000Y-140860000D03*
D22*
X161070000Y-140515000D03*
D18*
X161130000Y-140130000D03*
D17*
X161390000Y-140340000D03*
D10*
X161390000Y-140860000D03*
D20*
X161390000Y-140860000D03*
D21*
X172560000Y-152030000D03*
X167480000Y-134250000D03*
D10*
X157760000Y-130700000D03*
D11*
X156920000Y-130690000D03*
D12*
X157720000Y-130690000D03*
D13*
X156670000Y-130440000D03*
D14*
X157260000Y-130440000D03*
D15*
X156920000Y-130190000D03*
D16*
X157720000Y-130190000D03*
D17*
X157760000Y-130190000D03*
D21*
X162400000Y-139330000D03*
D17*
X173570000Y-147390000D03*
D12*
X173580000Y-146550000D03*
D16*
X173580000Y-147350000D03*
D18*
X173830000Y-146300000D03*
D19*
X173830000Y-146890000D03*
D11*
X174080000Y-146550000D03*
D15*
X174080000Y-147350000D03*
D20*
X174080000Y-147390000D03*
D13*
X145420000Y-155840000D03*
D17*
X145630000Y-156100000D03*
D22*
X145830000Y-155755000D03*
D18*
X145890000Y-155370000D03*
D17*
X146150000Y-155580000D03*
D20*
X146150000Y-156100000D03*
D10*
X146150000Y-156100000D03*
D21*
X139540000Y-144410000D03*
D17*
X168490000Y-132150000D03*
D12*
X168500000Y-131310000D03*
D16*
X168500000Y-132110000D03*
D18*
X168750000Y-131060000D03*
D19*
X168750000Y-131650000D03*
D11*
X169000000Y-131310000D03*
D15*
X169000000Y-132110000D03*
D20*
X169000000Y-132150000D03*
D17*
X173570000Y-142310000D03*
D12*
X173580000Y-141470000D03*
D16*
X173580000Y-142270000D03*
D18*
X173830000Y-141220000D03*
D19*
X173830000Y-141810000D03*
D11*
X174080000Y-141470000D03*
D15*
X174080000Y-142270000D03*
D20*
X174080000Y-142310000D03*
D10*
X155220000Y-133240000D03*
D11*
X154380000Y-133230000D03*
D12*
X155180000Y-133230000D03*
D13*
X154130000Y-132980000D03*
D14*
X154720000Y-132980000D03*
D15*
X154380000Y-132730000D03*
D16*
X155180000Y-132730000D03*
D17*
X155220000Y-132730000D03*
D10*
X147600000Y-140860000D03*
D11*
X146760000Y-140850000D03*
D12*
X147560000Y-140850000D03*
D13*
X146510000Y-140600000D03*
D14*
X147100000Y-140600000D03*
D15*
X146760000Y-140350000D03*
D16*
X147560000Y-140350000D03*
D17*
X147600000Y-140350000D03*
D10*
X165380000Y-148480000D03*
D11*
X164540000Y-148470000D03*
D12*
X165340000Y-148470000D03*
D13*
X164290000Y-148220000D03*
D14*
X164880000Y-148220000D03*
D15*
X164540000Y-147970000D03*
D16*
X165340000Y-147970000D03*
D17*
X165380000Y-147970000D03*
D21*
X139540000Y-149490000D03*
D10*
X173000000Y-153560000D03*
D11*
X172160000Y-153550000D03*
D12*
X172960000Y-153550000D03*
D13*
X171910000Y-153300000D03*
D14*
X172500000Y-153300000D03*
D15*
X172160000Y-153050000D03*
D16*
X172960000Y-153050000D03*
D17*
X173000000Y-153050000D03*
D21*
X147160000Y-136790000D03*
X144620000Y-144410000D03*
D13*
X183520000Y-143140000D03*
D17*
X183730000Y-143400000D03*
D22*
X183930000Y-143055000D03*
D18*
X183990000Y-142670000D03*
D17*
X184250000Y-142880000D03*
D10*
X184250000Y-143400000D03*
D20*
X184250000Y-143400000D03*
D21*
X157320000Y-157110000D03*
D17*
X173570000Y-155010000D03*
D12*
X173580000Y-154170000D03*
D16*
X173580000Y-154970000D03*
D18*
X173830000Y-153920000D03*
D19*
X173830000Y-154510000D03*
D11*
X174080000Y-154170000D03*
D15*
X174080000Y-154970000D03*
D20*
X174080000Y-155010000D03*
D23*
X191102000Y-129170000D03*
D10*
X162840000Y-138320000D03*
D11*
X162000000Y-138310000D03*
D12*
X162800000Y-138310000D03*
D13*
X161750000Y-138060000D03*
D14*
X162340000Y-138060000D03*
D15*
X162000000Y-137810000D03*
D16*
X162800000Y-137810000D03*
D17*
X162840000Y-137810000D03*
X140550000Y-147390000D03*
D12*
X140560000Y-146550000D03*
D16*
X140560000Y-147350000D03*
D18*
X140810000Y-146300000D03*
D19*
X140810000Y-146890000D03*
D11*
X141060000Y-146550000D03*
D15*
X141060000Y-147350000D03*
D20*
X141060000Y-147390000D03*
D10*
X155220000Y-138320000D03*
D11*
X154380000Y-138310000D03*
D12*
X155180000Y-138310000D03*
D13*
X154130000Y-138060000D03*
D14*
X154720000Y-138060000D03*
D15*
X154380000Y-137810000D03*
D16*
X155180000Y-137810000D03*
D17*
X155220000Y-137810000D03*
X148170000Y-157550000D03*
D12*
X148180000Y-156710000D03*
D16*
X148180000Y-157510000D03*
D18*
X148430000Y-156460000D03*
D19*
X148430000Y-157050000D03*
D11*
X148680000Y-156710000D03*
D15*
X148680000Y-157510000D03*
D20*
X148680000Y-157550000D03*
D13*
X153040000Y-140600000D03*
D17*
X153250000Y-140860000D03*
D22*
X153450000Y-140515000D03*
D18*
X153510000Y-140130000D03*
D17*
X153770000Y-140340000D03*
D20*
X153770000Y-140860000D03*
D10*
X153770000Y-140860000D03*
D17*
X143090000Y-149930000D03*
D12*
X143100000Y-149090000D03*
D16*
X143100000Y-149890000D03*
D18*
X143350000Y-148840000D03*
D19*
X143350000Y-149430000D03*
D11*
X143600000Y-149090000D03*
D15*
X143600000Y-149890000D03*
D20*
X143600000Y-149930000D03*
D13*
X142880000Y-125360000D03*
D17*
X143090000Y-125620000D03*
D22*
X143290000Y-125275000D03*
D18*
X143350000Y-124890000D03*
D17*
X143610000Y-125100000D03*
D20*
X143610000Y-125620000D03*
D10*
X143610000Y-125620000D03*
D21*
X185260000Y-157110000D03*
X139540000Y-124090000D03*
D13*
X160660000Y-153300000D03*
D17*
X160870000Y-153560000D03*
D22*
X161070000Y-153215000D03*
D18*
X161130000Y-152830000D03*
D17*
X161390000Y-153040000D03*
D20*
X161390000Y-153560000D03*
D10*
X161390000Y-153560000D03*
D13*
X145420000Y-140600000D03*
D17*
X145630000Y-140860000D03*
D22*
X145830000Y-140515000D03*
D18*
X145890000Y-140130000D03*
D17*
X146150000Y-140340000D03*
D20*
X146150000Y-140860000D03*
D10*
X146150000Y-140860000D03*
D17*
X143090000Y-132150000D03*
D12*
X143100000Y-131310000D03*
D16*
X143100000Y-132110000D03*
D18*
X143350000Y-131060000D03*
D19*
X143350000Y-131650000D03*
D11*
X143600000Y-131310000D03*
D15*
X143600000Y-132110000D03*
D20*
X143600000Y-132150000D03*
D17*
X145630000Y-144850000D03*
D12*
X145640000Y-144010000D03*
D16*
X145640000Y-144810000D03*
D18*
X145890000Y-143760000D03*
D19*
X145890000Y-144350000D03*
D11*
X146140000Y-144010000D03*
D15*
X146140000Y-144810000D03*
D20*
X146140000Y-144850000D03*
D17*
X150710000Y-149930000D03*
D12*
X150720000Y-149090000D03*
D16*
X150720000Y-149890000D03*
D18*
X150970000Y-148840000D03*
D19*
X150970000Y-149430000D03*
D11*
X151220000Y-149090000D03*
D15*
X151220000Y-149890000D03*
D20*
X151220000Y-149930000D03*
D10*
X188240000Y-153560000D03*
D11*
X187400000Y-153550000D03*
D12*
X188200000Y-153550000D03*
D13*
X187150000Y-153300000D03*
D14*
X187740000Y-153300000D03*
D15*
X187400000Y-153050000D03*
D16*
X188200000Y-153050000D03*
D17*
X188240000Y-153050000D03*
D13*
X168280000Y-125360000D03*
D17*
X168490000Y-125620000D03*
D22*
X168690000Y-125275000D03*
D18*
X168750000Y-124890000D03*
D17*
X169010000Y-125100000D03*
D10*
X169010000Y-125620000D03*
D20*
X169010000Y-125620000D03*
D13*
X173360000Y-127900000D03*
D17*
X173570000Y-128160000D03*
D22*
X173770000Y-127815000D03*
D18*
X173830000Y-127430000D03*
D17*
X174090000Y-127640000D03*
D20*
X174090000Y-128160000D03*
D10*
X174090000Y-128160000D03*
D21*
X154780000Y-139330000D03*
D10*
X175540000Y-125620000D03*
D11*
X174700000Y-125610000D03*
D12*
X175500000Y-125610000D03*
D13*
X174450000Y-125360000D03*
D14*
X175040000Y-125360000D03*
D15*
X174700000Y-125110000D03*
D16*
X175500000Y-125110000D03*
D17*
X175540000Y-125110000D03*
X150710000Y-152470000D03*
D12*
X150720000Y-151630000D03*
D16*
X150720000Y-152430000D03*
D18*
X150970000Y-151380000D03*
D19*
X150970000Y-151970000D03*
D11*
X151220000Y-151630000D03*
D15*
X151220000Y-152430000D03*
D20*
X151220000Y-152470000D03*
D21*
X185260000Y-152030000D03*
D13*
X168280000Y-148220000D03*
D17*
X168490000Y-148480000D03*
D22*
X168690000Y-148135000D03*
D18*
X168750000Y-147750000D03*
D17*
X169010000Y-147960000D03*
D20*
X169010000Y-148480000D03*
D10*
X169010000Y-148480000D03*
D13*
X155580000Y-127900000D03*
D17*
X155790000Y-128160000D03*
D22*
X155990000Y-127815000D03*
D18*
X156050000Y-127430000D03*
D17*
X156310000Y-127640000D03*
D20*
X156310000Y-128160000D03*
D10*
X156310000Y-128160000D03*
D13*
X160660000Y-155840000D03*
D17*
X160870000Y-156100000D03*
D22*
X161070000Y-155755000D03*
D18*
X161130000Y-155370000D03*
D17*
X161390000Y-155580000D03*
D20*
X161390000Y-156100000D03*
D10*
X161390000Y-156100000D03*
D17*
X155790000Y-132150000D03*
D12*
X155800000Y-131310000D03*
D16*
X155800000Y-132110000D03*
D18*
X156050000Y-131060000D03*
D19*
X156050000Y-131650000D03*
D11*
X156300000Y-131310000D03*
D15*
X156300000Y-132110000D03*
D20*
X156300000Y-132150000D03*
D13*
X178440000Y-130440000D03*
D17*
X178650000Y-130700000D03*
D22*
X178850000Y-130355000D03*
D18*
X178910000Y-129970000D03*
D17*
X179170000Y-130180000D03*
D20*
X179170000Y-130700000D03*
D10*
X179170000Y-130700000D03*
X155220000Y-153560000D03*
D11*
X154380000Y-153550000D03*
D12*
X155180000Y-153550000D03*
D13*
X154130000Y-153300000D03*
D14*
X154720000Y-153300000D03*
D15*
X154380000Y-153050000D03*
D16*
X155180000Y-153050000D03*
D17*
X155220000Y-153050000D03*
X163410000Y-134690000D03*
D12*
X163420000Y-133850000D03*
D16*
X163420000Y-134650000D03*
D18*
X163670000Y-133600000D03*
D19*
X163670000Y-134190000D03*
D11*
X163920000Y-133850000D03*
D15*
X163920000Y-134650000D03*
D20*
X163920000Y-134690000D03*
D21*
X182720000Y-134250000D03*
D10*
X160300000Y-145940000D03*
D11*
X159460000Y-145930000D03*
D12*
X160260000Y-145930000D03*
D13*
X159210000Y-145680000D03*
D14*
X159800000Y-145680000D03*
D15*
X159460000Y-145430000D03*
D16*
X160260000Y-145430000D03*
D17*
X160300000Y-145430000D03*
D21*
X152240000Y-154570000D03*
X180180000Y-149490000D03*
D17*
X158330000Y-149930000D03*
D12*
X158340000Y-149090000D03*
D16*
X158340000Y-149890000D03*
D18*
X158590000Y-148840000D03*
D19*
X158590000Y-149430000D03*
D11*
X158840000Y-149090000D03*
D15*
X158840000Y-149890000D03*
D20*
X158840000Y-149930000D03*
D10*
X167920000Y-148480000D03*
D11*
X167080000Y-148470000D03*
D12*
X167880000Y-148470000D03*
D13*
X166830000Y-148220000D03*
D14*
X167420000Y-148220000D03*
D15*
X167080000Y-147970000D03*
D16*
X167880000Y-147970000D03*
D17*
X167920000Y-147970000D03*
D10*
X147600000Y-135780000D03*
D11*
X146760000Y-135770000D03*
D12*
X147560000Y-135770000D03*
D13*
X146510000Y-135520000D03*
D14*
X147100000Y-135520000D03*
D15*
X146760000Y-135270000D03*
D16*
X147560000Y-135270000D03*
D17*
X147600000Y-135270000D03*
D21*
X149700000Y-149490000D03*
D13*
X158120000Y-125360000D03*
D17*
X158330000Y-125620000D03*
D22*
X158530000Y-125275000D03*
D18*
X158590000Y-124890000D03*
D17*
X158850000Y-125100000D03*
D10*
X158850000Y-125620000D03*
D20*
X158850000Y-125620000D03*
D17*
X181190000Y-134690000D03*
D12*
X181200000Y-133850000D03*
D16*
X181200000Y-134650000D03*
D18*
X181450000Y-133600000D03*
D19*
X181450000Y-134190000D03*
D11*
X181700000Y-133850000D03*
D15*
X181700000Y-134650000D03*
D20*
X181700000Y-134690000D03*
D13*
X183520000Y-155840000D03*
D17*
X183730000Y-156100000D03*
D22*
X183930000Y-155755000D03*
D18*
X183990000Y-155370000D03*
D17*
X184250000Y-155580000D03*
D10*
X184250000Y-156100000D03*
D20*
X184250000Y-156100000D03*
D13*
X158120000Y-138060000D03*
D17*
X158330000Y-138320000D03*
D22*
X158530000Y-137975000D03*
D18*
X158590000Y-137590000D03*
D17*
X158850000Y-137800000D03*
D20*
X158850000Y-138320000D03*
D10*
X158850000Y-138320000D03*
D13*
X186060000Y-143140000D03*
D17*
X186270000Y-143400000D03*
D22*
X186470000Y-143055000D03*
D18*
X186530000Y-142670000D03*
D17*
X186790000Y-142880000D03*
D20*
X186790000Y-143400000D03*
D10*
X186790000Y-143400000D03*
D13*
X147960000Y-138060000D03*
D17*
X148170000Y-138320000D03*
D22*
X148370000Y-137975000D03*
D18*
X148430000Y-137590000D03*
D17*
X148690000Y-137800000D03*
D10*
X148690000Y-138320000D03*
D20*
X148690000Y-138320000D03*
D21*
X142080000Y-139330000D03*
D13*
X158120000Y-130440000D03*
D17*
X158330000Y-130700000D03*
D22*
X158530000Y-130355000D03*
D18*
X158590000Y-129970000D03*
D17*
X158850000Y-130180000D03*
D10*
X158850000Y-130700000D03*
D20*
X158850000Y-130700000D03*
D13*
X142880000Y-132980000D03*
D17*
X143090000Y-133240000D03*
D22*
X143290000Y-132895000D03*
D18*
X143350000Y-132510000D03*
D17*
X143610000Y-132720000D03*
D20*
X143610000Y-133240000D03*
D10*
X143610000Y-133240000D03*
D21*
X177640000Y-136790000D03*
D17*
X165950000Y-134690000D03*
D12*
X165960000Y-133850000D03*
D16*
X165960000Y-134650000D03*
D18*
X166210000Y-133600000D03*
D19*
X166210000Y-134190000D03*
D11*
X166460000Y-133850000D03*
D15*
X166460000Y-134650000D03*
D20*
X166460000Y-134690000D03*
D17*
X153250000Y-147390000D03*
D12*
X153260000Y-146550000D03*
D16*
X153260000Y-147350000D03*
D18*
X153510000Y-146300000D03*
D19*
X153510000Y-146890000D03*
D11*
X153760000Y-146550000D03*
D15*
X153760000Y-147350000D03*
D20*
X153760000Y-147390000D03*
D13*
X140340000Y-125360000D03*
D17*
X140550000Y-125620000D03*
D22*
X140750000Y-125275000D03*
D18*
X140810000Y-124890000D03*
D17*
X141070000Y-125100000D03*
D20*
X141070000Y-125620000D03*
D10*
X141070000Y-125620000D03*
D13*
X165740000Y-155840000D03*
D17*
X165950000Y-156100000D03*
D22*
X166150000Y-155755000D03*
D18*
X166210000Y-155370000D03*
D17*
X166470000Y-155580000D03*
D10*
X166470000Y-156100000D03*
D20*
X166470000Y-156100000D03*
D13*
X186060000Y-130440000D03*
D17*
X186270000Y-130700000D03*
D22*
X186470000Y-130355000D03*
D18*
X186530000Y-129970000D03*
D17*
X186790000Y-130180000D03*
D20*
X186790000Y-130700000D03*
D10*
X186790000Y-130700000D03*
D21*
X167480000Y-139330000D03*
D17*
X153250000Y-152470000D03*
D12*
X153260000Y-151630000D03*
D16*
X153260000Y-152430000D03*
D18*
X153510000Y-151380000D03*
D19*
X153510000Y-151970000D03*
D11*
X153760000Y-151630000D03*
D15*
X153760000Y-152430000D03*
D20*
X153760000Y-152470000D03*
D21*
X139540000Y-129170000D03*
X187800000Y-136790000D03*
D17*
X168490000Y-147390000D03*
D12*
X168500000Y-146550000D03*
D16*
X168500000Y-147350000D03*
D18*
X168750000Y-146300000D03*
D19*
X168750000Y-146890000D03*
D11*
X169000000Y-146550000D03*
D15*
X169000000Y-147350000D03*
D20*
X169000000Y-147390000D03*
D10*
X185700000Y-125620000D03*
D11*
X184860000Y-125610000D03*
D12*
X185660000Y-125610000D03*
D13*
X184610000Y-125360000D03*
D14*
X185200000Y-125360000D03*
D15*
X184860000Y-125110000D03*
D16*
X185660000Y-125110000D03*
D17*
X185700000Y-125110000D03*
D21*
X144620000Y-154570000D03*
D17*
X165950000Y-132150000D03*
D12*
X165960000Y-131310000D03*
D16*
X165960000Y-132110000D03*
D18*
X166210000Y-131060000D03*
D19*
X166210000Y-131650000D03*
D11*
X166460000Y-131310000D03*
D15*
X166460000Y-132110000D03*
D20*
X166460000Y-132150000D03*
D10*
X152680000Y-153560000D03*
D11*
X151840000Y-153550000D03*
D12*
X152640000Y-153550000D03*
D13*
X151590000Y-153300000D03*
D14*
X152180000Y-153300000D03*
D15*
X151840000Y-153050000D03*
D16*
X152640000Y-153050000D03*
D17*
X152680000Y-153050000D03*
D21*
X170020000Y-136790000D03*
D10*
X152680000Y-133240000D03*
D11*
X151840000Y-133230000D03*
D12*
X152640000Y-133230000D03*
D13*
X151590000Y-132980000D03*
D14*
X152180000Y-132980000D03*
D15*
X151840000Y-132730000D03*
D16*
X152640000Y-132730000D03*
D17*
X152680000Y-132730000D03*
D13*
X145420000Y-148220000D03*
D17*
X145630000Y-148480000D03*
D22*
X145830000Y-148135000D03*
D18*
X145890000Y-147750000D03*
D17*
X146150000Y-147960000D03*
D10*
X146150000Y-148480000D03*
D20*
X146150000Y-148480000D03*
D10*
X183160000Y-130700000D03*
D11*
X182320000Y-130690000D03*
D12*
X183120000Y-130690000D03*
D13*
X182070000Y-130440000D03*
D14*
X182660000Y-130440000D03*
D15*
X182320000Y-130190000D03*
D16*
X183120000Y-130190000D03*
D17*
X183160000Y-130190000D03*
D10*
X139980000Y-138320000D03*
D11*
X139140000Y-138310000D03*
D12*
X139940000Y-138310000D03*
D13*
X138890000Y-138060000D03*
D14*
X139480000Y-138060000D03*
D15*
X139140000Y-137810000D03*
D16*
X139940000Y-137810000D03*
D17*
X139980000Y-137810000D03*
D10*
X167920000Y-145940000D03*
D11*
X167080000Y-145930000D03*
D12*
X167880000Y-145930000D03*
D13*
X166830000Y-145680000D03*
D14*
X167420000Y-145680000D03*
D15*
X167080000Y-145430000D03*
D16*
X167880000Y-145430000D03*
D17*
X167920000Y-145430000D03*
D10*
X147600000Y-151020000D03*
D11*
X146760000Y-151010000D03*
D12*
X147560000Y-151010000D03*
D13*
X146510000Y-150760000D03*
D14*
X147100000Y-150760000D03*
D15*
X146760000Y-150510000D03*
D16*
X147560000Y-150510000D03*
D17*
X147600000Y-150510000D03*
D13*
X180980000Y-145680000D03*
D17*
X181190000Y-145940000D03*
D22*
X181390000Y-145595000D03*
D18*
X181450000Y-145210000D03*
D17*
X181710000Y-145420000D03*
D10*
X181710000Y-145940000D03*
D20*
X181710000Y-145940000D03*
D10*
X145060000Y-130700000D03*
D11*
X144220000Y-130690000D03*
D12*
X145020000Y-130690000D03*
D13*
X143970000Y-130440000D03*
D14*
X144560000Y-130440000D03*
D15*
X144220000Y-130190000D03*
D16*
X145020000Y-130190000D03*
D17*
X145060000Y-130190000D03*
D13*
X173360000Y-135520000D03*
D17*
X173570000Y-135780000D03*
D22*
X173770000Y-135435000D03*
D18*
X173830000Y-135050000D03*
D17*
X174090000Y-135260000D03*
D10*
X174090000Y-135780000D03*
D20*
X174090000Y-135780000D03*
D10*
X183160000Y-133240000D03*
D11*
X182320000Y-133230000D03*
D12*
X183120000Y-133230000D03*
D13*
X182070000Y-132980000D03*
D14*
X182660000Y-132980000D03*
D15*
X182320000Y-132730000D03*
D16*
X183120000Y-132730000D03*
D17*
X183160000Y-132730000D03*
D21*
X144620000Y-149490000D03*
D17*
X181190000Y-142310000D03*
D12*
X181200000Y-141470000D03*
D16*
X181200000Y-142270000D03*
D18*
X181450000Y-141220000D03*
D19*
X181450000Y-141810000D03*
D11*
X181700000Y-141470000D03*
D15*
X181700000Y-142270000D03*
D20*
X181700000Y-142310000D03*
D17*
X168490000Y-127070000D03*
D12*
X168500000Y-126230000D03*
D16*
X168500000Y-127030000D03*
D18*
X168750000Y-125980000D03*
D19*
X168750000Y-126570000D03*
D11*
X169000000Y-126230000D03*
D15*
X169000000Y-127030000D03*
D20*
X169000000Y-127070000D03*
D21*
X139540000Y-134250000D03*
X154780000Y-126630000D03*
D10*
X175540000Y-145940000D03*
D11*
X174700000Y-145930000D03*
D12*
X175500000Y-145930000D03*
D13*
X174450000Y-145680000D03*
D14*
X175040000Y-145680000D03*
D15*
X174700000Y-145430000D03*
D16*
X175500000Y-145430000D03*
D17*
X175540000Y-145430000D03*
D10*
X165380000Y-151020000D03*
D11*
X164540000Y-151010000D03*
D12*
X165340000Y-151010000D03*
D13*
X164290000Y-150760000D03*
D14*
X164880000Y-150760000D03*
D15*
X164540000Y-150510000D03*
D16*
X165340000Y-150510000D03*
D17*
X165380000Y-150510000D03*
D13*
X147960000Y-125360000D03*
D17*
X148170000Y-125620000D03*
D22*
X148370000Y-125275000D03*
D18*
X148430000Y-124890000D03*
D17*
X148690000Y-125100000D03*
D10*
X148690000Y-125620000D03*
D20*
X148690000Y-125620000D03*
D21*
X157320000Y-149490000D03*
D17*
X183730000Y-152470000D03*
D12*
X183740000Y-151630000D03*
D16*
X183740000Y-152430000D03*
D18*
X183990000Y-151380000D03*
D19*
X183990000Y-151970000D03*
D11*
X184240000Y-151630000D03*
D15*
X184240000Y-152430000D03*
D20*
X184240000Y-152470000D03*
D17*
X165950000Y-152470000D03*
D12*
X165960000Y-151630000D03*
D16*
X165960000Y-152430000D03*
D18*
X166210000Y-151380000D03*
D19*
X166210000Y-151970000D03*
D11*
X166460000Y-151630000D03*
D15*
X166460000Y-152430000D03*
D20*
X166460000Y-152470000D03*
D13*
X170820000Y-140600000D03*
D17*
X171030000Y-140860000D03*
D22*
X171230000Y-140515000D03*
D18*
X171290000Y-140130000D03*
D17*
X171550000Y-140340000D03*
D10*
X171550000Y-140860000D03*
D20*
X171550000Y-140860000D03*
D13*
X155580000Y-138060000D03*
D17*
X155790000Y-138320000D03*
D22*
X155990000Y-137975000D03*
D18*
X156050000Y-137590000D03*
D17*
X156310000Y-137800000D03*
D10*
X156310000Y-138320000D03*
D20*
X156310000Y-138320000D03*
D13*
X175900000Y-155840000D03*
D17*
X176110000Y-156100000D03*
D22*
X176310000Y-155755000D03*
D18*
X176370000Y-155370000D03*
D17*
X176630000Y-155580000D03*
D10*
X176630000Y-156100000D03*
D20*
X176630000Y-156100000D03*
D17*
X140550000Y-155010000D03*
D12*
X140560000Y-154170000D03*
D16*
X140560000Y-154970000D03*
D18*
X140810000Y-153920000D03*
D19*
X140810000Y-154510000D03*
D11*
X141060000Y-154170000D03*
D15*
X141060000Y-154970000D03*
D20*
X141060000Y-155010000D03*
D21*
X170020000Y-124090000D03*
D23*
X191102000Y-136790000D03*
D21*
X167480000Y-152030000D03*
D10*
X175540000Y-148480000D03*
D11*
X174700000Y-148470000D03*
D12*
X175500000Y-148470000D03*
D13*
X174450000Y-148220000D03*
D14*
X175040000Y-148220000D03*
D15*
X174700000Y-147970000D03*
D16*
X175500000Y-147970000D03*
D17*
X175540000Y-147970000D03*
D10*
X160300000Y-133240000D03*
D11*
X159460000Y-133230000D03*
D12*
X160260000Y-133230000D03*
D13*
X159210000Y-132980000D03*
D14*
X159800000Y-132980000D03*
D15*
X159460000Y-132730000D03*
D16*
X160260000Y-132730000D03*
D17*
X160300000Y-132730000D03*
X160870000Y-129610000D03*
D12*
X160880000Y-128770000D03*
D16*
X160880000Y-129570000D03*
D18*
X161130000Y-128520000D03*
D19*
X161130000Y-129110000D03*
D11*
X161380000Y-128770000D03*
D15*
X161380000Y-129570000D03*
D20*
X161380000Y-129610000D03*
D17*
X143090000Y-155010000D03*
D12*
X143100000Y-154170000D03*
D16*
X143100000Y-154970000D03*
D18*
X143350000Y-153920000D03*
D19*
X143350000Y-154510000D03*
D11*
X143600000Y-154170000D03*
D15*
X143600000Y-154970000D03*
D20*
X143600000Y-155010000D03*
D10*
X183160000Y-151020000D03*
D11*
X182320000Y-151010000D03*
D12*
X183120000Y-151010000D03*
D13*
X182070000Y-150760000D03*
D14*
X182660000Y-150760000D03*
D15*
X182320000Y-150510000D03*
D16*
X183120000Y-150510000D03*
D17*
X183160000Y-150510000D03*
X148170000Y-134690000D03*
D12*
X148180000Y-133850000D03*
D16*
X148180000Y-134650000D03*
D18*
X148430000Y-133600000D03*
D19*
X148430000Y-134190000D03*
D11*
X148680000Y-133850000D03*
D15*
X148680000Y-134650000D03*
D20*
X148680000Y-134690000D03*
D13*
X165740000Y-135520000D03*
D17*
X165950000Y-135780000D03*
D22*
X166150000Y-135435000D03*
D18*
X166210000Y-135050000D03*
D17*
X166470000Y-135260000D03*
D20*
X166470000Y-135780000D03*
D10*
X166470000Y-135780000D03*
D21*
X172560000Y-154570000D03*
D10*
X160300000Y-153560000D03*
D11*
X159460000Y-153550000D03*
D12*
X160260000Y-153550000D03*
D13*
X159210000Y-153300000D03*
D14*
X159800000Y-153300000D03*
D15*
X159460000Y-153050000D03*
D16*
X160260000Y-153050000D03*
D17*
X160300000Y-153050000D03*
D13*
X147960000Y-140600000D03*
D17*
X148170000Y-140860000D03*
D22*
X148370000Y-140515000D03*
D18*
X148430000Y-140130000D03*
D17*
X148690000Y-140340000D03*
D20*
X148690000Y-140860000D03*
D10*
X148690000Y-140860000D03*
X152680000Y-151020000D03*
D11*
X151840000Y-151010000D03*
D12*
X152640000Y-151010000D03*
D13*
X151590000Y-150760000D03*
D14*
X152180000Y-150760000D03*
D15*
X151840000Y-150510000D03*
D16*
X152640000Y-150510000D03*
D17*
X152680000Y-150510000D03*
D10*
X155220000Y-140860000D03*
D11*
X154380000Y-140850000D03*
D12*
X155180000Y-140850000D03*
D13*
X154130000Y-140600000D03*
D14*
X154720000Y-140600000D03*
D15*
X154380000Y-140350000D03*
D16*
X155180000Y-140350000D03*
D17*
X155220000Y-140350000D03*
X158330000Y-124530000D03*
D12*
X158340000Y-123690000D03*
D16*
X158340000Y-124490000D03*
D18*
X158590000Y-123440000D03*
D19*
X158590000Y-124030000D03*
D11*
X158840000Y-123690000D03*
D15*
X158840000Y-124490000D03*
D20*
X158840000Y-124530000D03*
D10*
X188240000Y-130700000D03*
D11*
X187400000Y-130690000D03*
D12*
X188200000Y-130690000D03*
D13*
X187150000Y-130440000D03*
D14*
X187740000Y-130440000D03*
D15*
X187400000Y-130190000D03*
D16*
X188200000Y-130190000D03*
D17*
X188240000Y-130190000D03*
X140550000Y-134690000D03*
D12*
X140560000Y-133850000D03*
D16*
X140560000Y-134650000D03*
D18*
X140810000Y-133600000D03*
D19*
X140810000Y-134190000D03*
D11*
X141060000Y-133850000D03*
D15*
X141060000Y-134650000D03*
D20*
X141060000Y-134690000D03*
D21*
X147160000Y-152030000D03*
D10*
X165380000Y-133240000D03*
D11*
X164540000Y-133230000D03*
D12*
X165340000Y-133230000D03*
D13*
X164290000Y-132980000D03*
D14*
X164880000Y-132980000D03*
D15*
X164540000Y-132730000D03*
D16*
X165340000Y-132730000D03*
D17*
X165380000Y-132730000D03*
D21*
X144620000Y-146950000D03*
D17*
X173570000Y-149930000D03*
D12*
X173580000Y-149090000D03*
D16*
X173580000Y-149890000D03*
D18*
X173830000Y-148840000D03*
D19*
X173830000Y-149430000D03*
D11*
X174080000Y-149090000D03*
D15*
X174080000Y-149890000D03*
D20*
X174080000Y-149930000D03*
D13*
X163200000Y-125360000D03*
D17*
X163410000Y-125620000D03*
D22*
X163610000Y-125275000D03*
D18*
X163670000Y-124890000D03*
D17*
X163930000Y-125100000D03*
D20*
X163930000Y-125620000D03*
D10*
X163930000Y-125620000D03*
D21*
X142080000Y-144410000D03*
D10*
X150140000Y-145940000D03*
D11*
X149300000Y-145930000D03*
D12*
X150100000Y-145930000D03*
D13*
X149050000Y-145680000D03*
D14*
X149640000Y-145680000D03*
D15*
X149300000Y-145430000D03*
D16*
X150100000Y-145430000D03*
D17*
X150140000Y-145430000D03*
D10*
X145060000Y-143400000D03*
D11*
X144220000Y-143390000D03*
D12*
X145020000Y-143390000D03*
D13*
X143970000Y-143140000D03*
D14*
X144560000Y-143140000D03*
D15*
X144220000Y-142890000D03*
D16*
X145020000Y-142890000D03*
D17*
X145060000Y-142890000D03*
D21*
X187800000Y-154570000D03*
D17*
X153250000Y-124530000D03*
D12*
X153260000Y-123690000D03*
D16*
X153260000Y-124490000D03*
D18*
X153510000Y-123440000D03*
D19*
X153510000Y-124030000D03*
D11*
X153760000Y-123690000D03*
D15*
X153760000Y-124490000D03*
D20*
X153760000Y-124530000D03*
D21*
X142080000Y-141870000D03*
D10*
X145060000Y-138320000D03*
D11*
X144220000Y-138310000D03*
D12*
X145020000Y-138310000D03*
D13*
X143970000Y-138060000D03*
D14*
X144560000Y-138060000D03*
D15*
X144220000Y-137810000D03*
D16*
X145020000Y-137810000D03*
D17*
X145060000Y-137810000D03*
D13*
X180980000Y-153300000D03*
D17*
X181190000Y-153560000D03*
D22*
X181390000Y-153215000D03*
D18*
X181450000Y-152830000D03*
D17*
X181710000Y-153040000D03*
D20*
X181710000Y-153560000D03*
D10*
X181710000Y-153560000D03*
X178080000Y-151020000D03*
D11*
X177240000Y-151010000D03*
D12*
X178040000Y-151010000D03*
D13*
X176990000Y-150760000D03*
D14*
X177580000Y-150760000D03*
D15*
X177240000Y-150510000D03*
D16*
X178040000Y-150510000D03*
D17*
X178080000Y-150510000D03*
X140550000Y-129610000D03*
D12*
X140560000Y-128770000D03*
D16*
X140560000Y-129570000D03*
D18*
X140810000Y-128520000D03*
D19*
X140810000Y-129110000D03*
D11*
X141060000Y-128770000D03*
D15*
X141060000Y-129570000D03*
D20*
X141060000Y-129610000D03*
D17*
X153250000Y-132150000D03*
D12*
X153260000Y-131310000D03*
D16*
X153260000Y-132110000D03*
D18*
X153510000Y-131060000D03*
D19*
X153510000Y-131650000D03*
D11*
X153760000Y-131310000D03*
D15*
X153760000Y-132110000D03*
D20*
X153760000Y-132150000D03*
D21*
X144620000Y-157110000D03*
D17*
X181190000Y-157550000D03*
D12*
X181200000Y-156710000D03*
D16*
X181200000Y-157510000D03*
D18*
X181450000Y-156460000D03*
D19*
X181450000Y-157050000D03*
D11*
X181700000Y-156710000D03*
D15*
X181700000Y-157510000D03*
D20*
X181700000Y-157550000D03*
D21*
X157320000Y-152030000D03*
D13*
X180980000Y-135520000D03*
D17*
X181190000Y-135780000D03*
D22*
X181390000Y-135435000D03*
D18*
X181450000Y-135050000D03*
D17*
X181710000Y-135260000D03*
D20*
X181710000Y-135780000D03*
D10*
X181710000Y-135780000D03*
D17*
X181190000Y-155010000D03*
D12*
X181200000Y-154170000D03*
D16*
X181200000Y-154970000D03*
D18*
X181450000Y-153920000D03*
D19*
X181450000Y-154510000D03*
D11*
X181700000Y-154170000D03*
D15*
X181700000Y-154970000D03*
D20*
X181700000Y-155010000D03*
D13*
X183520000Y-132980000D03*
D17*
X183730000Y-133240000D03*
D22*
X183930000Y-132895000D03*
D18*
X183990000Y-132510000D03*
D17*
X184250000Y-132720000D03*
D10*
X184250000Y-133240000D03*
D20*
X184250000Y-133240000D03*
D17*
X178650000Y-137230000D03*
D12*
X178660000Y-136390000D03*
D16*
X178660000Y-137190000D03*
D18*
X178910000Y-136140000D03*
D19*
X178910000Y-136730000D03*
D11*
X179160000Y-136390000D03*
D15*
X179160000Y-137190000D03*
D20*
X179160000Y-137230000D03*
D13*
X173360000Y-138060000D03*
D17*
X173570000Y-138320000D03*
D22*
X173770000Y-137975000D03*
D18*
X173830000Y-137590000D03*
D17*
X174090000Y-137800000D03*
D10*
X174090000Y-138320000D03*
D20*
X174090000Y-138320000D03*
D17*
X168490000Y-142310000D03*
D12*
X168500000Y-141470000D03*
D16*
X168500000Y-142270000D03*
D18*
X168750000Y-141220000D03*
D19*
X168750000Y-141810000D03*
D11*
X169000000Y-141470000D03*
D15*
X169000000Y-142270000D03*
D20*
X169000000Y-142310000D03*
D10*
X162840000Y-148480000D03*
D11*
X162000000Y-148470000D03*
D12*
X162800000Y-148470000D03*
D13*
X161750000Y-148220000D03*
D14*
X162340000Y-148220000D03*
D15*
X162000000Y-147970000D03*
D16*
X162800000Y-147970000D03*
D17*
X162840000Y-147970000D03*
X155790000Y-124530000D03*
D12*
X155800000Y-123690000D03*
D16*
X155800000Y-124490000D03*
D18*
X156050000Y-123440000D03*
D19*
X156050000Y-124030000D03*
D11*
X156300000Y-123690000D03*
D15*
X156300000Y-124490000D03*
D20*
X156300000Y-124530000D03*
D17*
X186270000Y-152470000D03*
D12*
X186280000Y-151630000D03*
D16*
X186280000Y-152430000D03*
D18*
X186530000Y-151380000D03*
D19*
X186530000Y-151970000D03*
D11*
X186780000Y-151630000D03*
D15*
X186780000Y-152430000D03*
D20*
X186780000Y-152470000D03*
D21*
X142080000Y-131710000D03*
X177640000Y-126630000D03*
D13*
X165740000Y-143140000D03*
D17*
X165950000Y-143400000D03*
D22*
X166150000Y-143055000D03*
D18*
X166210000Y-142670000D03*
D17*
X166470000Y-142880000D03*
D10*
X166470000Y-143400000D03*
D20*
X166470000Y-143400000D03*
D13*
X180980000Y-155840000D03*
D17*
X181190000Y-156100000D03*
D22*
X181390000Y-155755000D03*
D18*
X181450000Y-155370000D03*
D17*
X181710000Y-155580000D03*
D10*
X181710000Y-156100000D03*
D20*
X181710000Y-156100000D03*
D21*
X159860000Y-131710000D03*
D17*
X158330000Y-129610000D03*
D12*
X158340000Y-128770000D03*
D16*
X158340000Y-129570000D03*
D18*
X158590000Y-128520000D03*
D19*
X158590000Y-129110000D03*
D11*
X158840000Y-128770000D03*
D15*
X158840000Y-129570000D03*
D20*
X158840000Y-129610000D03*
D10*
X147600000Y-148480000D03*
D11*
X146760000Y-148470000D03*
D12*
X147560000Y-148470000D03*
D13*
X146510000Y-148220000D03*
D14*
X147100000Y-148220000D03*
D15*
X146760000Y-147970000D03*
D16*
X147560000Y-147970000D03*
D17*
X147600000Y-147970000D03*
D21*
X170020000Y-154570000D03*
D13*
X178440000Y-138060000D03*
D17*
X178650000Y-138320000D03*
D22*
X178850000Y-137975000D03*
D18*
X178910000Y-137590000D03*
D17*
X179170000Y-137800000D03*
D10*
X179170000Y-138320000D03*
D20*
X179170000Y-138320000D03*
D21*
X139540000Y-146950000D03*
X187800000Y-149490000D03*
X152240000Y-144410000D03*
X175100000Y-134250000D03*
D17*
X158330000Y-155010000D03*
D12*
X158340000Y-154170000D03*
D16*
X158340000Y-154970000D03*
D18*
X158590000Y-153920000D03*
D19*
X158590000Y-154510000D03*
D11*
X158840000Y-154170000D03*
D15*
X158840000Y-154970000D03*
D20*
X158840000Y-155010000D03*
D21*
X187800000Y-139330000D03*
D10*
X173000000Y-148480000D03*
D11*
X172160000Y-148470000D03*
D12*
X172960000Y-148470000D03*
D13*
X171910000Y-148220000D03*
D14*
X172500000Y-148220000D03*
D15*
X172160000Y-147970000D03*
D16*
X172960000Y-147970000D03*
D17*
X173000000Y-147970000D03*
D10*
X152680000Y-156100000D03*
D11*
X151840000Y-156090000D03*
D12*
X152640000Y-156090000D03*
D13*
X151590000Y-155840000D03*
D14*
X152180000Y-155840000D03*
D15*
X151840000Y-155590000D03*
D16*
X152640000Y-155590000D03*
D17*
X152680000Y-155590000D03*
D10*
X170460000Y-153560000D03*
D11*
X169620000Y-153550000D03*
D12*
X170420000Y-153550000D03*
D13*
X169370000Y-153300000D03*
D14*
X169960000Y-153300000D03*
D15*
X169620000Y-153050000D03*
D16*
X170420000Y-153050000D03*
D17*
X170460000Y-153050000D03*
X181190000Y-147390000D03*
D12*
X181200000Y-146550000D03*
D16*
X181200000Y-147350000D03*
D18*
X181450000Y-146300000D03*
D19*
X181450000Y-146890000D03*
D11*
X181700000Y-146550000D03*
D15*
X181700000Y-147350000D03*
D20*
X181700000Y-147390000D03*
D10*
X178080000Y-133240000D03*
D11*
X177240000Y-133230000D03*
D12*
X178040000Y-133230000D03*
D13*
X176990000Y-132980000D03*
D14*
X177580000Y-132980000D03*
D15*
X177240000Y-132730000D03*
D16*
X178040000Y-132730000D03*
D17*
X178080000Y-132730000D03*
D10*
X178080000Y-138320000D03*
D11*
X177240000Y-138310000D03*
D12*
X178040000Y-138310000D03*
D13*
X176990000Y-138060000D03*
D14*
X177580000Y-138060000D03*
D15*
X177240000Y-137810000D03*
D16*
X178040000Y-137810000D03*
D17*
X178080000Y-137810000D03*
D10*
X185700000Y-130700000D03*
D11*
X184860000Y-130690000D03*
D12*
X185660000Y-130690000D03*
D13*
X184610000Y-130440000D03*
D14*
X185200000Y-130440000D03*
D15*
X184860000Y-130190000D03*
D16*
X185660000Y-130190000D03*
D17*
X185700000Y-130190000D03*
D13*
X142880000Y-138060000D03*
D17*
X143090000Y-138320000D03*
D22*
X143290000Y-137975000D03*
D18*
X143350000Y-137590000D03*
D17*
X143610000Y-137800000D03*
D20*
X143610000Y-138320000D03*
D10*
X143610000Y-138320000D03*
D13*
X170820000Y-135520000D03*
D17*
X171030000Y-135780000D03*
D22*
X171230000Y-135435000D03*
D18*
X171290000Y-135050000D03*
D17*
X171550000Y-135260000D03*
D10*
X171550000Y-135780000D03*
D20*
X171550000Y-135780000D03*
D21*
X177640000Y-139330000D03*
D13*
X145420000Y-127900000D03*
D17*
X145630000Y-128160000D03*
D22*
X145830000Y-127815000D03*
D18*
X145890000Y-127430000D03*
D17*
X146150000Y-127640000D03*
D20*
X146150000Y-128160000D03*
D10*
X146150000Y-128160000D03*
X165380000Y-156100000D03*
D11*
X164540000Y-156090000D03*
D12*
X165340000Y-156090000D03*
D13*
X164290000Y-155840000D03*
D14*
X164880000Y-155840000D03*
D15*
X164540000Y-155590000D03*
D16*
X165340000Y-155590000D03*
D17*
X165380000Y-155590000D03*
X186270000Y-134690000D03*
D12*
X186280000Y-133850000D03*
D16*
X186280000Y-134650000D03*
D18*
X186530000Y-133600000D03*
D19*
X186530000Y-134190000D03*
D11*
X186780000Y-133850000D03*
D15*
X186780000Y-134650000D03*
D20*
X186780000Y-134690000D03*
D13*
X153040000Y-150760000D03*
D17*
X153250000Y-151020000D03*
D22*
X153450000Y-150675000D03*
D18*
X153510000Y-150290000D03*
D17*
X153770000Y-150500000D03*
D10*
X153770000Y-151020000D03*
D20*
X153770000Y-151020000D03*
D10*
X147600000Y-145940000D03*
D11*
X146760000Y-145930000D03*
D12*
X147560000Y-145930000D03*
D13*
X146510000Y-145680000D03*
D14*
X147100000Y-145680000D03*
D15*
X146760000Y-145430000D03*
D16*
X147560000Y-145430000D03*
D17*
X147600000Y-145430000D03*
D21*
X182720000Y-152030000D03*
X180180000Y-146950000D03*
D13*
X158120000Y-127900000D03*
D17*
X158330000Y-128160000D03*
D22*
X158530000Y-127815000D03*
D18*
X158590000Y-127430000D03*
D17*
X158850000Y-127640000D03*
D20*
X158850000Y-128160000D03*
D10*
X158850000Y-128160000D03*
D17*
X158330000Y-127070000D03*
D12*
X158340000Y-126230000D03*
D16*
X158340000Y-127030000D03*
D18*
X158590000Y-125980000D03*
D19*
X158590000Y-126570000D03*
D11*
X158840000Y-126230000D03*
D15*
X158840000Y-127030000D03*
D20*
X158840000Y-127070000D03*
D13*
X163200000Y-140600000D03*
D17*
X163410000Y-140860000D03*
D22*
X163610000Y-140515000D03*
D18*
X163670000Y-140130000D03*
D17*
X163930000Y-140340000D03*
D20*
X163930000Y-140860000D03*
D10*
X163930000Y-140860000D03*
D13*
X142880000Y-135520000D03*
D17*
X143090000Y-135780000D03*
D22*
X143290000Y-135435000D03*
D18*
X143350000Y-135050000D03*
D17*
X143610000Y-135260000D03*
D20*
X143610000Y-135780000D03*
D10*
X143610000Y-135780000D03*
X188240000Y-125620000D03*
D11*
X187400000Y-125610000D03*
D12*
X188200000Y-125610000D03*
D13*
X187150000Y-125360000D03*
D14*
X187740000Y-125360000D03*
D15*
X187400000Y-125110000D03*
D16*
X188200000Y-125110000D03*
D17*
X188240000Y-125110000D03*
D10*
X180620000Y-153560000D03*
D11*
X179780000Y-153550000D03*
D12*
X180580000Y-153550000D03*
D13*
X179530000Y-153300000D03*
D14*
X180120000Y-153300000D03*
D15*
X179780000Y-153050000D03*
D16*
X180580000Y-153050000D03*
D17*
X180620000Y-153050000D03*
D21*
X182720000Y-149490000D03*
X164940000Y-131710000D03*
X139540000Y-157110000D03*
X142080000Y-124090000D03*
D17*
X171030000Y-132150000D03*
D12*
X171040000Y-131310000D03*
D16*
X171040000Y-132110000D03*
D18*
X171290000Y-131060000D03*
D19*
X171290000Y-131650000D03*
D11*
X171540000Y-131310000D03*
D15*
X171540000Y-132110000D03*
D20*
X171540000Y-132150000D03*
D10*
X167920000Y-128160000D03*
D11*
X167080000Y-128150000D03*
D12*
X167880000Y-128150000D03*
D13*
X166830000Y-127900000D03*
D14*
X167420000Y-127900000D03*
D15*
X167080000Y-127650000D03*
D16*
X167880000Y-127650000D03*
D17*
X167920000Y-127650000D03*
X171030000Y-149930000D03*
D12*
X171040000Y-149090000D03*
D16*
X171040000Y-149890000D03*
D18*
X171290000Y-148840000D03*
D19*
X171290000Y-149430000D03*
D11*
X171540000Y-149090000D03*
D15*
X171540000Y-149890000D03*
D20*
X171540000Y-149930000D03*
D13*
X163200000Y-127900000D03*
D17*
X163410000Y-128160000D03*
D22*
X163610000Y-127815000D03*
D18*
X163670000Y-127430000D03*
D17*
X163930000Y-127640000D03*
D20*
X163930000Y-128160000D03*
D10*
X163930000Y-128160000D03*
D17*
X145630000Y-124530000D03*
D12*
X145640000Y-123690000D03*
D16*
X145640000Y-124490000D03*
D18*
X145890000Y-123440000D03*
D19*
X145890000Y-124030000D03*
D11*
X146140000Y-123690000D03*
D15*
X146140000Y-124490000D03*
D20*
X146140000Y-124530000D03*
D10*
X162840000Y-156100000D03*
D11*
X162000000Y-156090000D03*
D12*
X162800000Y-156090000D03*
D13*
X161750000Y-155840000D03*
D14*
X162340000Y-155840000D03*
D15*
X162000000Y-155590000D03*
D16*
X162800000Y-155590000D03*
D17*
X162840000Y-155590000D03*
D13*
X155580000Y-143140000D03*
D17*
X155790000Y-143400000D03*
D22*
X155990000Y-143055000D03*
D18*
X156050000Y-142670000D03*
D17*
X156310000Y-142880000D03*
D10*
X156310000Y-143400000D03*
D20*
X156310000Y-143400000D03*
D10*
X155220000Y-135780000D03*
D11*
X154380000Y-135770000D03*
D12*
X155180000Y-135770000D03*
D13*
X154130000Y-135520000D03*
D14*
X154720000Y-135520000D03*
D15*
X154380000Y-135270000D03*
D16*
X155180000Y-135270000D03*
D17*
X155220000Y-135270000D03*
D10*
X178080000Y-156100000D03*
D11*
X177240000Y-156090000D03*
D12*
X178040000Y-156090000D03*
D13*
X176990000Y-155840000D03*
D14*
X177580000Y-155840000D03*
D15*
X177240000Y-155590000D03*
D16*
X178040000Y-155590000D03*
D17*
X178080000Y-155590000D03*
D10*
X155220000Y-145940000D03*
D11*
X154380000Y-145930000D03*
D12*
X155180000Y-145930000D03*
D13*
X154130000Y-145680000D03*
D14*
X154720000Y-145680000D03*
D15*
X154380000Y-145430000D03*
D16*
X155180000Y-145430000D03*
D17*
X155220000Y-145430000D03*
D21*
X167480000Y-149490000D03*
D13*
X145420000Y-153300000D03*
D17*
X145630000Y-153560000D03*
D22*
X145830000Y-153215000D03*
D18*
X145890000Y-152830000D03*
D17*
X146150000Y-153040000D03*
D20*
X146150000Y-153560000D03*
D10*
X146150000Y-153560000D03*
D13*
X165740000Y-148220000D03*
D17*
X165950000Y-148480000D03*
D22*
X166150000Y-148135000D03*
D18*
X166210000Y-147750000D03*
D17*
X166470000Y-147960000D03*
D20*
X166470000Y-148480000D03*
D10*
X166470000Y-148480000D03*
D17*
X145630000Y-127070000D03*
D12*
X145640000Y-126230000D03*
D16*
X145640000Y-127030000D03*
D18*
X145890000Y-125980000D03*
D19*
X145890000Y-126570000D03*
D11*
X146140000Y-126230000D03*
D15*
X146140000Y-127030000D03*
D20*
X146140000Y-127070000D03*
D17*
X173570000Y-129610000D03*
D12*
X173580000Y-128770000D03*
D16*
X173580000Y-129570000D03*
D18*
X173830000Y-128520000D03*
D19*
X173830000Y-129110000D03*
D11*
X174080000Y-128770000D03*
D15*
X174080000Y-129570000D03*
D20*
X174080000Y-129610000D03*
D21*
X164940000Y-136790000D03*
D10*
X170460000Y-143400000D03*
D11*
X169620000Y-143390000D03*
D12*
X170420000Y-143390000D03*
D13*
X169370000Y-143140000D03*
D14*
X169960000Y-143140000D03*
D15*
X169620000Y-142890000D03*
D16*
X170420000Y-142890000D03*
D17*
X170460000Y-142890000D03*
D21*
X152240000Y-136790000D03*
D10*
X155220000Y-148480000D03*
D11*
X154380000Y-148470000D03*
D12*
X155180000Y-148470000D03*
D13*
X154130000Y-148220000D03*
D14*
X154720000Y-148220000D03*
D15*
X154380000Y-147970000D03*
D16*
X155180000Y-147970000D03*
D17*
X155220000Y-147970000D03*
D21*
X177640000Y-149490000D03*
D10*
X160300000Y-130700000D03*
D11*
X159460000Y-130690000D03*
D12*
X160260000Y-130690000D03*
D13*
X159210000Y-130440000D03*
D14*
X159800000Y-130440000D03*
D15*
X159460000Y-130190000D03*
D16*
X160260000Y-130190000D03*
D17*
X160300000Y-130190000D03*
D10*
X150140000Y-133240000D03*
D11*
X149300000Y-133230000D03*
D12*
X150100000Y-133230000D03*
D13*
X149050000Y-132980000D03*
D14*
X149640000Y-132980000D03*
D15*
X149300000Y-132730000D03*
D16*
X150100000Y-132730000D03*
D17*
X150140000Y-132730000D03*
D10*
X165380000Y-140860000D03*
D11*
X164540000Y-140850000D03*
D12*
X165340000Y-140850000D03*
D13*
X164290000Y-140600000D03*
D14*
X164880000Y-140600000D03*
D15*
X164540000Y-140350000D03*
D16*
X165340000Y-140350000D03*
D17*
X165380000Y-140350000D03*
X158330000Y-142310000D03*
D12*
X158340000Y-141470000D03*
D16*
X158340000Y-142270000D03*
D18*
X158590000Y-141220000D03*
D19*
X158590000Y-141810000D03*
D11*
X158840000Y-141470000D03*
D15*
X158840000Y-142270000D03*
D20*
X158840000Y-142310000D03*
D13*
X142880000Y-130440000D03*
D17*
X143090000Y-130700000D03*
D22*
X143290000Y-130355000D03*
D18*
X143350000Y-129970000D03*
D17*
X143610000Y-130180000D03*
D20*
X143610000Y-130700000D03*
D10*
X143610000Y-130700000D03*
D13*
X147960000Y-145680000D03*
D17*
X148170000Y-145940000D03*
D22*
X148370000Y-145595000D03*
D18*
X148430000Y-145210000D03*
D17*
X148690000Y-145420000D03*
D10*
X148690000Y-145940000D03*
D20*
X148690000Y-145940000D03*
D10*
X139980000Y-145940000D03*
D11*
X139140000Y-145930000D03*
D12*
X139940000Y-145930000D03*
D13*
X138890000Y-145680000D03*
D14*
X139480000Y-145680000D03*
D15*
X139140000Y-145430000D03*
D16*
X139940000Y-145430000D03*
D17*
X139980000Y-145430000D03*
D13*
X147960000Y-153300000D03*
D17*
X148170000Y-153560000D03*
D22*
X148370000Y-153215000D03*
D18*
X148430000Y-152830000D03*
D17*
X148690000Y-153040000D03*
D10*
X148690000Y-153560000D03*
D20*
X148690000Y-153560000D03*
D10*
X180620000Y-148480000D03*
D11*
X179780000Y-148470000D03*
D12*
X180580000Y-148470000D03*
D13*
X179530000Y-148220000D03*
D14*
X180120000Y-148220000D03*
D15*
X179780000Y-147970000D03*
D16*
X180580000Y-147970000D03*
D17*
X180620000Y-147970000D03*
D21*
X149700000Y-144410000D03*
D13*
X160660000Y-138060000D03*
D17*
X160870000Y-138320000D03*
D22*
X161070000Y-137975000D03*
D18*
X161130000Y-137590000D03*
D17*
X161390000Y-137800000D03*
D10*
X161390000Y-138320000D03*
D20*
X161390000Y-138320000D03*
D21*
X175100000Y-144410000D03*
X147160000Y-131710000D03*
X154780000Y-154570000D03*
X182720000Y-144410000D03*
D13*
X178440000Y-145680000D03*
D17*
X178650000Y-145940000D03*
D22*
X178850000Y-145595000D03*
D18*
X178910000Y-145210000D03*
D17*
X179170000Y-145420000D03*
D20*
X179170000Y-145940000D03*
D10*
X179170000Y-145940000D03*
D13*
X173360000Y-130440000D03*
D17*
X173570000Y-130700000D03*
D22*
X173770000Y-130355000D03*
D18*
X173830000Y-129970000D03*
D17*
X174090000Y-130180000D03*
D20*
X174090000Y-130700000D03*
D10*
X174090000Y-130700000D03*
X183160000Y-153560000D03*
D11*
X182320000Y-153550000D03*
D12*
X183120000Y-153550000D03*
D13*
X182070000Y-153300000D03*
D14*
X182660000Y-153300000D03*
D15*
X182320000Y-153050000D03*
D16*
X183120000Y-153050000D03*
D17*
X183160000Y-153050000D03*
D21*
X147160000Y-126630000D03*
D13*
X160660000Y-145680000D03*
D17*
X160870000Y-145940000D03*
D22*
X161070000Y-145595000D03*
D18*
X161130000Y-145210000D03*
D17*
X161390000Y-145420000D03*
D10*
X161390000Y-145940000D03*
D20*
X161390000Y-145940000D03*
D21*
X159860000Y-129170000D03*
D17*
X153250000Y-129610000D03*
D12*
X153260000Y-128770000D03*
D16*
X153260000Y-129570000D03*
D18*
X153510000Y-128520000D03*
D19*
X153510000Y-129110000D03*
D11*
X153760000Y-128770000D03*
D15*
X153760000Y-129570000D03*
D20*
X153760000Y-129610000D03*
D10*
X178080000Y-128160000D03*
D11*
X177240000Y-128150000D03*
D12*
X178040000Y-128150000D03*
D13*
X176990000Y-127900000D03*
D14*
X177580000Y-127900000D03*
D15*
X177240000Y-127650000D03*
D16*
X178040000Y-127650000D03*
D17*
X178080000Y-127650000D03*
D23*
X191102000Y-154570000D03*
D10*
X170460000Y-138320000D03*
D11*
X169620000Y-138310000D03*
D12*
X170420000Y-138310000D03*
D13*
X169370000Y-138060000D03*
D14*
X169960000Y-138060000D03*
D15*
X169620000Y-137810000D03*
D16*
X170420000Y-137810000D03*
D17*
X170460000Y-137810000D03*
D13*
X183520000Y-127900000D03*
D17*
X183730000Y-128160000D03*
D22*
X183930000Y-127815000D03*
D18*
X183990000Y-127430000D03*
D17*
X184250000Y-127640000D03*
D10*
X184250000Y-128160000D03*
D20*
X184250000Y-128160000D03*
D17*
X178650000Y-155010000D03*
D12*
X178660000Y-154170000D03*
D16*
X178660000Y-154970000D03*
D18*
X178910000Y-153920000D03*
D19*
X178910000Y-154510000D03*
D11*
X179160000Y-154170000D03*
D15*
X179160000Y-154970000D03*
D20*
X179160000Y-155010000D03*
D10*
X162840000Y-151020000D03*
D11*
X162000000Y-151010000D03*
D12*
X162800000Y-151010000D03*
D13*
X161750000Y-150760000D03*
D14*
X162340000Y-150760000D03*
D15*
X162000000Y-150510000D03*
D16*
X162800000Y-150510000D03*
D17*
X162840000Y-150510000D03*
D10*
X139980000Y-148480000D03*
D11*
X139140000Y-148470000D03*
D12*
X139940000Y-148470000D03*
D13*
X138890000Y-148220000D03*
D14*
X139480000Y-148220000D03*
D15*
X139140000Y-147970000D03*
D16*
X139940000Y-147970000D03*
D17*
X139980000Y-147970000D03*
D21*
X154780000Y-149490000D03*
D10*
X180620000Y-143400000D03*
D11*
X179780000Y-143390000D03*
D12*
X180580000Y-143390000D03*
D13*
X179530000Y-143140000D03*
D14*
X180120000Y-143140000D03*
D15*
X179780000Y-142890000D03*
D16*
X180580000Y-142890000D03*
D17*
X180620000Y-142890000D03*
D13*
X158120000Y-145680000D03*
D17*
X158330000Y-145940000D03*
D22*
X158530000Y-145595000D03*
D18*
X158590000Y-145210000D03*
D17*
X158850000Y-145420000D03*
D20*
X158850000Y-145940000D03*
D10*
X158850000Y-145940000D03*
D17*
X140550000Y-139770000D03*
D12*
X140560000Y-138930000D03*
D16*
X140560000Y-139730000D03*
D18*
X140810000Y-138680000D03*
D19*
X140810000Y-139270000D03*
D11*
X141060000Y-138930000D03*
D15*
X141060000Y-139730000D03*
D20*
X141060000Y-139770000D03*
D21*
X170020000Y-139330000D03*
D10*
X173000000Y-143400000D03*
D11*
X172160000Y-143390000D03*
D12*
X172960000Y-143390000D03*
D13*
X171910000Y-143140000D03*
D14*
X172500000Y-143140000D03*
D15*
X172160000Y-142890000D03*
D16*
X172960000Y-142890000D03*
D17*
X173000000Y-142890000D03*
X176110000Y-137230000D03*
D12*
X176120000Y-136390000D03*
D16*
X176120000Y-137190000D03*
D18*
X176370000Y-136140000D03*
D19*
X176370000Y-136730000D03*
D11*
X176620000Y-136390000D03*
D15*
X176620000Y-137190000D03*
D20*
X176620000Y-137230000D03*
D13*
X173360000Y-148220000D03*
D17*
X173570000Y-148480000D03*
D22*
X173770000Y-148135000D03*
D18*
X173830000Y-147750000D03*
D17*
X174090000Y-147960000D03*
D20*
X174090000Y-148480000D03*
D10*
X174090000Y-148480000D03*
D13*
X173360000Y-145680000D03*
D17*
X173570000Y-145940000D03*
D22*
X173770000Y-145595000D03*
D18*
X173830000Y-145210000D03*
D17*
X174090000Y-145420000D03*
D20*
X174090000Y-145940000D03*
D10*
X174090000Y-145940000D03*
X178080000Y-148480000D03*
D11*
X177240000Y-148470000D03*
D12*
X178040000Y-148470000D03*
D13*
X176990000Y-148220000D03*
D14*
X177580000Y-148220000D03*
D15*
X177240000Y-147970000D03*
D16*
X178040000Y-147970000D03*
D17*
X178080000Y-147970000D03*
D10*
X188240000Y-135780000D03*
D11*
X187400000Y-135770000D03*
D12*
X188200000Y-135770000D03*
D13*
X187150000Y-135520000D03*
D14*
X187740000Y-135520000D03*
D15*
X187400000Y-135270000D03*
D16*
X188200000Y-135270000D03*
D17*
X188240000Y-135270000D03*
D21*
X182720000Y-141870000D03*
X167480000Y-129170000D03*
D17*
X153250000Y-139770000D03*
D12*
X153260000Y-138930000D03*
D16*
X153260000Y-139730000D03*
D18*
X153510000Y-138680000D03*
D19*
X153510000Y-139270000D03*
D11*
X153760000Y-138930000D03*
D15*
X153760000Y-139730000D03*
D20*
X153760000Y-139770000D03*
D13*
X142880000Y-148220000D03*
D17*
X143090000Y-148480000D03*
D22*
X143290000Y-148135000D03*
D18*
X143350000Y-147750000D03*
D17*
X143610000Y-147960000D03*
D20*
X143610000Y-148480000D03*
D10*
X143610000Y-148480000D03*
X170460000Y-145940000D03*
D11*
X169620000Y-145930000D03*
D12*
X170420000Y-145930000D03*
D13*
X169370000Y-145680000D03*
D14*
X169960000Y-145680000D03*
D15*
X169620000Y-145430000D03*
D16*
X170420000Y-145430000D03*
D17*
X170460000Y-145430000D03*
D13*
X175900000Y-145680000D03*
D17*
X176110000Y-145940000D03*
D22*
X176310000Y-145595000D03*
D18*
X176370000Y-145210000D03*
D17*
X176630000Y-145420000D03*
D20*
X176630000Y-145940000D03*
D10*
X176630000Y-145940000D03*
X165380000Y-143400000D03*
D11*
X164540000Y-143390000D03*
D12*
X165340000Y-143390000D03*
D13*
X164290000Y-143140000D03*
D14*
X164880000Y-143140000D03*
D15*
X164540000Y-142890000D03*
D16*
X165340000Y-142890000D03*
D17*
X165380000Y-142890000D03*
D21*
X162400000Y-126630000D03*
D17*
X153250000Y-155010000D03*
D12*
X153260000Y-154170000D03*
D16*
X153260000Y-154970000D03*
D18*
X153510000Y-153920000D03*
D19*
X153510000Y-154510000D03*
D11*
X153760000Y-154170000D03*
D15*
X153760000Y-154970000D03*
D20*
X153760000Y-155010000D03*
D13*
X183520000Y-150760000D03*
D17*
X183730000Y-151020000D03*
D22*
X183930000Y-150675000D03*
D18*
X183990000Y-150290000D03*
D17*
X184250000Y-150500000D03*
D20*
X184250000Y-151020000D03*
D10*
X184250000Y-151020000D03*
D13*
X186060000Y-155840000D03*
D17*
X186270000Y-156100000D03*
D22*
X186470000Y-155755000D03*
D18*
X186530000Y-155370000D03*
D17*
X186790000Y-155580000D03*
D20*
X186790000Y-156100000D03*
D10*
X186790000Y-156100000D03*
D21*
X157320000Y-134250000D03*
D10*
X152680000Y-125620000D03*
D11*
X151840000Y-125610000D03*
D12*
X152640000Y-125610000D03*
D13*
X151590000Y-125360000D03*
D14*
X152180000Y-125360000D03*
D15*
X151840000Y-125110000D03*
D16*
X152640000Y-125110000D03*
D17*
X152680000Y-125110000D03*
D21*
X154780000Y-157110000D03*
X152240000Y-152030000D03*
D13*
X168280000Y-150760000D03*
D17*
X168490000Y-151020000D03*
D22*
X168690000Y-150675000D03*
D18*
X168750000Y-150290000D03*
D17*
X169010000Y-150500000D03*
D20*
X169010000Y-151020000D03*
D10*
X169010000Y-151020000D03*
D21*
X187800000Y-131710000D03*
D13*
X140340000Y-145680000D03*
D17*
X140550000Y-145940000D03*
D22*
X140750000Y-145595000D03*
D18*
X140810000Y-145210000D03*
D17*
X141070000Y-145420000D03*
D20*
X141070000Y-145940000D03*
D10*
X141070000Y-145940000D03*
D21*
X154780000Y-146950000D03*
X185260000Y-134250000D03*
D17*
X168490000Y-129610000D03*
D12*
X168500000Y-128770000D03*
D16*
X168500000Y-129570000D03*
D18*
X168750000Y-128520000D03*
D19*
X168750000Y-129110000D03*
D11*
X169000000Y-128770000D03*
D15*
X169000000Y-129570000D03*
D20*
X169000000Y-129610000D03*
D13*
X140340000Y-143140000D03*
D17*
X140550000Y-143400000D03*
D22*
X140750000Y-143055000D03*
D18*
X140810000Y-142670000D03*
D17*
X141070000Y-142880000D03*
D10*
X141070000Y-143400000D03*
D20*
X141070000Y-143400000D03*
D17*
X176110000Y-157550000D03*
D12*
X176120000Y-156710000D03*
D16*
X176120000Y-157510000D03*
D18*
X176370000Y-156460000D03*
D19*
X176370000Y-157050000D03*
D11*
X176620000Y-156710000D03*
D15*
X176620000Y-157510000D03*
D20*
X176620000Y-157550000D03*
D10*
X147600000Y-156100000D03*
D11*
X146760000Y-156090000D03*
D12*
X147560000Y-156090000D03*
D13*
X146510000Y-155840000D03*
D14*
X147100000Y-155840000D03*
D15*
X146760000Y-155590000D03*
D16*
X147560000Y-155590000D03*
D17*
X147600000Y-155590000D03*
D13*
X150500000Y-138060000D03*
D17*
X150710000Y-138320000D03*
D22*
X150910000Y-137975000D03*
D18*
X150970000Y-137590000D03*
D17*
X151230000Y-137800000D03*
D20*
X151230000Y-138320000D03*
D10*
X151230000Y-138320000D03*
D21*
X172560000Y-149490000D03*
D17*
X165950000Y-127070000D03*
D12*
X165960000Y-126230000D03*
D16*
X165960000Y-127030000D03*
D18*
X166210000Y-125980000D03*
D19*
X166210000Y-126570000D03*
D11*
X166460000Y-126230000D03*
D15*
X166460000Y-127030000D03*
D20*
X166460000Y-127070000D03*
D13*
X168280000Y-132980000D03*
D17*
X168490000Y-133240000D03*
D22*
X168690000Y-132895000D03*
D18*
X168750000Y-132510000D03*
D17*
X169010000Y-132720000D03*
D10*
X169010000Y-133240000D03*
D20*
X169010000Y-133240000D03*
D21*
X185260000Y-139330000D03*
D17*
X143090000Y-144850000D03*
D12*
X143100000Y-144010000D03*
D16*
X143100000Y-144810000D03*
D18*
X143350000Y-143760000D03*
D19*
X143350000Y-144350000D03*
D11*
X143600000Y-144010000D03*
D15*
X143600000Y-144810000D03*
D20*
X143600000Y-144850000D03*
D10*
X165380000Y-128160000D03*
D11*
X164540000Y-128150000D03*
D12*
X165340000Y-128150000D03*
D13*
X164290000Y-127900000D03*
D14*
X164880000Y-127900000D03*
D15*
X164540000Y-127650000D03*
D16*
X165340000Y-127650000D03*
D17*
X165380000Y-127650000D03*
D10*
X178080000Y-130700000D03*
D11*
X177240000Y-130690000D03*
D12*
X178040000Y-130690000D03*
D13*
X176990000Y-130440000D03*
D14*
X177580000Y-130440000D03*
D15*
X177240000Y-130190000D03*
D16*
X178040000Y-130190000D03*
D17*
X178080000Y-130190000D03*
X165950000Y-129610000D03*
D12*
X165960000Y-128770000D03*
D16*
X165960000Y-129570000D03*
D18*
X166210000Y-128520000D03*
D19*
X166210000Y-129110000D03*
D11*
X166460000Y-128770000D03*
D15*
X166460000Y-129570000D03*
D20*
X166460000Y-129610000D03*
D13*
X178440000Y-143140000D03*
D17*
X178650000Y-143400000D03*
D22*
X178850000Y-143055000D03*
D18*
X178910000Y-142670000D03*
D17*
X179170000Y-142880000D03*
D20*
X179170000Y-143400000D03*
D10*
X179170000Y-143400000D03*
D17*
X178650000Y-124530000D03*
D12*
X178660000Y-123690000D03*
D16*
X178660000Y-124490000D03*
D18*
X178910000Y-123440000D03*
D19*
X178910000Y-124030000D03*
D11*
X179160000Y-123690000D03*
D15*
X179160000Y-124490000D03*
D20*
X179160000Y-124530000D03*
D10*
X180620000Y-128160000D03*
D11*
X179780000Y-128150000D03*
D12*
X180580000Y-128150000D03*
D13*
X179530000Y-127900000D03*
D14*
X180120000Y-127900000D03*
D15*
X179780000Y-127650000D03*
D16*
X180580000Y-127650000D03*
D17*
X180620000Y-127650000D03*
D13*
X160660000Y-125360000D03*
D17*
X160870000Y-125620000D03*
D22*
X161070000Y-125275000D03*
D18*
X161130000Y-124890000D03*
D17*
X161390000Y-125100000D03*
D20*
X161390000Y-125620000D03*
D10*
X161390000Y-125620000D03*
D13*
X153040000Y-125360000D03*
D17*
X153250000Y-125620000D03*
D22*
X153450000Y-125275000D03*
D18*
X153510000Y-124890000D03*
D17*
X153770000Y-125100000D03*
D10*
X153770000Y-125620000D03*
D20*
X153770000Y-125620000D03*
D21*
X185260000Y-126630000D03*
D10*
X188240000Y-143400000D03*
D11*
X187400000Y-143390000D03*
D12*
X188200000Y-143390000D03*
D13*
X187150000Y-143140000D03*
D14*
X187740000Y-143140000D03*
D15*
X187400000Y-142890000D03*
D16*
X188200000Y-142890000D03*
D17*
X188240000Y-142890000D03*
D10*
X175540000Y-140860000D03*
D11*
X174700000Y-140850000D03*
D12*
X175500000Y-140850000D03*
D13*
X174450000Y-140600000D03*
D14*
X175040000Y-140600000D03*
D15*
X174700000Y-140350000D03*
D16*
X175500000Y-140350000D03*
D17*
X175540000Y-140350000D03*
D10*
X178080000Y-145940000D03*
D11*
X177240000Y-145930000D03*
D12*
X178040000Y-145930000D03*
D13*
X176990000Y-145680000D03*
D14*
X177580000Y-145680000D03*
D15*
X177240000Y-145430000D03*
D16*
X178040000Y-145430000D03*
D17*
X178080000Y-145430000D03*
D13*
X165740000Y-125360000D03*
D17*
X165950000Y-125620000D03*
D22*
X166150000Y-125275000D03*
D18*
X166210000Y-124890000D03*
D17*
X166470000Y-125100000D03*
D20*
X166470000Y-125620000D03*
D10*
X166470000Y-125620000D03*
D13*
X165740000Y-140600000D03*
D17*
X165950000Y-140860000D03*
D22*
X166150000Y-140515000D03*
D18*
X166210000Y-140130000D03*
D17*
X166470000Y-140340000D03*
D10*
X166470000Y-140860000D03*
D20*
X166470000Y-140860000D03*
D21*
X164940000Y-149490000D03*
D10*
X142520000Y-148480000D03*
D11*
X141680000Y-148470000D03*
D12*
X142480000Y-148470000D03*
D13*
X141430000Y-148220000D03*
D14*
X142020000Y-148220000D03*
D15*
X141680000Y-147970000D03*
D16*
X142480000Y-147970000D03*
D17*
X142520000Y-147970000D03*
X148170000Y-137230000D03*
D12*
X148180000Y-136390000D03*
D16*
X148180000Y-137190000D03*
D18*
X148430000Y-136140000D03*
D19*
X148430000Y-136730000D03*
D11*
X148680000Y-136390000D03*
D15*
X148680000Y-137190000D03*
D20*
X148680000Y-137230000D03*
D10*
X178080000Y-140860000D03*
D11*
X177240000Y-140850000D03*
D12*
X178040000Y-140850000D03*
D13*
X176990000Y-140600000D03*
D14*
X177580000Y-140600000D03*
D15*
X177240000Y-140350000D03*
D16*
X178040000Y-140350000D03*
D17*
X178080000Y-140350000D03*
D21*
X187800000Y-152030000D03*
D10*
X147600000Y-138320000D03*
D11*
X146760000Y-138310000D03*
D12*
X147560000Y-138310000D03*
D13*
X146510000Y-138060000D03*
D14*
X147100000Y-138060000D03*
D15*
X146760000Y-137810000D03*
D16*
X147560000Y-137810000D03*
D17*
X147600000Y-137810000D03*
D10*
X160300000Y-151020000D03*
D11*
X159460000Y-151010000D03*
D12*
X160260000Y-151010000D03*
D13*
X159210000Y-150760000D03*
D14*
X159800000Y-150760000D03*
D15*
X159460000Y-150510000D03*
D16*
X160260000Y-150510000D03*
D17*
X160300000Y-150510000D03*
X143090000Y-134690000D03*
D12*
X143100000Y-133850000D03*
D16*
X143100000Y-134650000D03*
D18*
X143350000Y-133600000D03*
D19*
X143350000Y-134190000D03*
D11*
X143600000Y-133850000D03*
D15*
X143600000Y-134650000D03*
D20*
X143600000Y-134690000D03*
D10*
X145060000Y-151020000D03*
D11*
X144220000Y-151010000D03*
D12*
X145020000Y-151010000D03*
D13*
X143970000Y-150760000D03*
D14*
X144560000Y-150760000D03*
D15*
X144220000Y-150510000D03*
D16*
X145020000Y-150510000D03*
D17*
X145060000Y-150510000D03*
X186270000Y-129610000D03*
D12*
X186280000Y-128770000D03*
D16*
X186280000Y-129570000D03*
D18*
X186530000Y-128520000D03*
D19*
X186530000Y-129110000D03*
D11*
X186780000Y-128770000D03*
D15*
X186780000Y-129570000D03*
D20*
X186780000Y-129610000D03*
D17*
X183730000Y-132150000D03*
D12*
X183740000Y-131310000D03*
D16*
X183740000Y-132110000D03*
D18*
X183990000Y-131060000D03*
D19*
X183990000Y-131650000D03*
D11*
X184240000Y-131310000D03*
D15*
X184240000Y-132110000D03*
D20*
X184240000Y-132150000D03*
D10*
X160300000Y-128160000D03*
D11*
X159460000Y-128150000D03*
D12*
X160260000Y-128150000D03*
D13*
X159210000Y-127900000D03*
D14*
X159800000Y-127900000D03*
D15*
X159460000Y-127650000D03*
D16*
X160260000Y-127650000D03*
D17*
X160300000Y-127650000D03*
D13*
X175900000Y-150760000D03*
D17*
X176110000Y-151020000D03*
D22*
X176310000Y-150675000D03*
D18*
X176370000Y-150290000D03*
D17*
X176630000Y-150500000D03*
D20*
X176630000Y-151020000D03*
D10*
X176630000Y-151020000D03*
D21*
X162400000Y-146950000D03*
D13*
X145420000Y-132980000D03*
D17*
X145630000Y-133240000D03*
D22*
X145830000Y-132895000D03*
D18*
X145890000Y-132510000D03*
D17*
X146150000Y-132720000D03*
D20*
X146150000Y-133240000D03*
D10*
X146150000Y-133240000D03*
X175540000Y-153560000D03*
D11*
X174700000Y-153550000D03*
D12*
X175500000Y-153550000D03*
D13*
X174450000Y-153300000D03*
D14*
X175040000Y-153300000D03*
D15*
X174700000Y-153050000D03*
D16*
X175500000Y-153050000D03*
D17*
X175540000Y-153050000D03*
X176110000Y-149930000D03*
D12*
X176120000Y-149090000D03*
D16*
X176120000Y-149890000D03*
D18*
X176370000Y-148840000D03*
D19*
X176370000Y-149430000D03*
D11*
X176620000Y-149090000D03*
D15*
X176620000Y-149890000D03*
D20*
X176620000Y-149930000D03*
D10*
X173000000Y-128160000D03*
D11*
X172160000Y-128150000D03*
D12*
X172960000Y-128150000D03*
D13*
X171910000Y-127900000D03*
D14*
X172500000Y-127900000D03*
D15*
X172160000Y-127650000D03*
D16*
X172960000Y-127650000D03*
D17*
X173000000Y-127650000D03*
D13*
X163200000Y-155840000D03*
D17*
X163410000Y-156100000D03*
D22*
X163610000Y-155755000D03*
D18*
X163670000Y-155370000D03*
D17*
X163930000Y-155580000D03*
D20*
X163930000Y-156100000D03*
D10*
X163930000Y-156100000D03*
D17*
X150710000Y-132150000D03*
D12*
X150720000Y-131310000D03*
D16*
X150720000Y-132110000D03*
D18*
X150970000Y-131060000D03*
D19*
X150970000Y-131650000D03*
D11*
X151220000Y-131310000D03*
D15*
X151220000Y-132110000D03*
D20*
X151220000Y-132150000D03*
D17*
X153250000Y-144850000D03*
D12*
X153260000Y-144010000D03*
D16*
X153260000Y-144810000D03*
D18*
X153510000Y-143760000D03*
D19*
X153510000Y-144350000D03*
D11*
X153760000Y-144010000D03*
D15*
X153760000Y-144810000D03*
D20*
X153760000Y-144850000D03*
D17*
X145630000Y-147390000D03*
D12*
X145640000Y-146550000D03*
D16*
X145640000Y-147350000D03*
D18*
X145890000Y-146300000D03*
D19*
X145890000Y-146890000D03*
D11*
X146140000Y-146550000D03*
D15*
X146140000Y-147350000D03*
D20*
X146140000Y-147390000D03*
D13*
X173360000Y-125360000D03*
D17*
X173570000Y-125620000D03*
D22*
X173770000Y-125275000D03*
D18*
X173830000Y-124890000D03*
D17*
X174090000Y-125100000D03*
D10*
X174090000Y-125620000D03*
D20*
X174090000Y-125620000D03*
D13*
X183520000Y-138060000D03*
D17*
X183730000Y-138320000D03*
D22*
X183930000Y-137975000D03*
D18*
X183990000Y-137590000D03*
D17*
X184250000Y-137800000D03*
D10*
X184250000Y-138320000D03*
D20*
X184250000Y-138320000D03*
D10*
X180620000Y-130700000D03*
D11*
X179780000Y-130690000D03*
D12*
X180580000Y-130690000D03*
D13*
X179530000Y-130440000D03*
D14*
X180120000Y-130440000D03*
D15*
X179780000Y-130190000D03*
D16*
X180580000Y-130190000D03*
D17*
X180620000Y-130190000D03*
D21*
X139540000Y-131710000D03*
D10*
X152680000Y-128160000D03*
D11*
X151840000Y-128150000D03*
D12*
X152640000Y-128150000D03*
D13*
X151590000Y-127900000D03*
D14*
X152180000Y-127900000D03*
D15*
X151840000Y-127650000D03*
D16*
X152640000Y-127650000D03*
D17*
X152680000Y-127650000D03*
D10*
X188240000Y-145940000D03*
D11*
X187400000Y-145930000D03*
D12*
X188200000Y-145930000D03*
D13*
X187150000Y-145680000D03*
D14*
X187740000Y-145680000D03*
D15*
X187400000Y-145430000D03*
D16*
X188200000Y-145430000D03*
D17*
X188240000Y-145430000D03*
D13*
X147960000Y-132980000D03*
D17*
X148170000Y-133240000D03*
D22*
X148370000Y-132895000D03*
D18*
X148430000Y-132510000D03*
D17*
X148690000Y-132720000D03*
D10*
X148690000Y-133240000D03*
D20*
X148690000Y-133240000D03*
D17*
X181190000Y-137230000D03*
D12*
X181200000Y-136390000D03*
D16*
X181200000Y-137190000D03*
D18*
X181450000Y-136140000D03*
D19*
X181450000Y-136730000D03*
D11*
X181700000Y-136390000D03*
D15*
X181700000Y-137190000D03*
D20*
X181700000Y-137230000D03*
D21*
X177640000Y-144410000D03*
D23*
X191102000Y-134250000D03*
D13*
X142880000Y-143140000D03*
D17*
X143090000Y-143400000D03*
D22*
X143290000Y-143055000D03*
D18*
X143350000Y-142670000D03*
D17*
X143610000Y-142880000D03*
D20*
X143610000Y-143400000D03*
D10*
X143610000Y-143400000D03*
D17*
X148170000Y-139770000D03*
D12*
X148180000Y-138930000D03*
D16*
X148180000Y-139730000D03*
D18*
X148430000Y-138680000D03*
D19*
X148430000Y-139270000D03*
D11*
X148680000Y-138930000D03*
D15*
X148680000Y-139730000D03*
D20*
X148680000Y-139770000D03*
D21*
X182720000Y-139330000D03*
D17*
X160870000Y-149930000D03*
D12*
X160880000Y-149090000D03*
D16*
X160880000Y-149890000D03*
D18*
X161130000Y-148840000D03*
D19*
X161130000Y-149430000D03*
D11*
X161380000Y-149090000D03*
D15*
X161380000Y-149890000D03*
D20*
X161380000Y-149930000D03*
D21*
X142080000Y-134250000D03*
X172560000Y-134250000D03*
X180180000Y-131710000D03*
D23*
X136238000Y-126630000D03*
D13*
X142880000Y-145680000D03*
D17*
X143090000Y-145940000D03*
D22*
X143290000Y-145595000D03*
D18*
X143350000Y-145210000D03*
D17*
X143610000Y-145420000D03*
D10*
X143610000Y-145940000D03*
D20*
X143610000Y-145940000D03*
D10*
X145060000Y-148480000D03*
D11*
X144220000Y-148470000D03*
D12*
X145020000Y-148470000D03*
D13*
X143970000Y-148220000D03*
D14*
X144560000Y-148220000D03*
D15*
X144220000Y-147970000D03*
D16*
X145020000Y-147970000D03*
D17*
X145060000Y-147970000D03*
X148170000Y-127070000D03*
D12*
X148180000Y-126230000D03*
D16*
X148180000Y-127030000D03*
D18*
X148430000Y-125980000D03*
D19*
X148430000Y-126570000D03*
D11*
X148680000Y-126230000D03*
D15*
X148680000Y-127030000D03*
D20*
X148680000Y-127070000D03*
D10*
X165380000Y-153560000D03*
D11*
X164540000Y-153550000D03*
D12*
X165340000Y-153550000D03*
D13*
X164290000Y-153300000D03*
D14*
X164880000Y-153300000D03*
D15*
X164540000Y-153050000D03*
D16*
X165340000Y-153050000D03*
D17*
X165380000Y-153050000D03*
D13*
X165740000Y-138060000D03*
D17*
X165950000Y-138320000D03*
D22*
X166150000Y-137975000D03*
D18*
X166210000Y-137590000D03*
D17*
X166470000Y-137800000D03*
D20*
X166470000Y-138320000D03*
D10*
X166470000Y-138320000D03*
D21*
X147160000Y-144410000D03*
D10*
X147600000Y-128160000D03*
D11*
X146760000Y-128150000D03*
D12*
X147560000Y-128150000D03*
D13*
X146510000Y-127900000D03*
D14*
X147100000Y-127900000D03*
D15*
X146760000Y-127650000D03*
D16*
X147560000Y-127650000D03*
D17*
X147600000Y-127650000D03*
X140550000Y-137230000D03*
D12*
X140560000Y-136390000D03*
D16*
X140560000Y-137190000D03*
D18*
X140810000Y-136140000D03*
D19*
X140810000Y-136730000D03*
D11*
X141060000Y-136390000D03*
D15*
X141060000Y-137190000D03*
D20*
X141060000Y-137230000D03*
D13*
X175900000Y-148220000D03*
D17*
X176110000Y-148480000D03*
D22*
X176310000Y-148135000D03*
D18*
X176370000Y-147750000D03*
D17*
X176630000Y-147960000D03*
D10*
X176630000Y-148480000D03*
D20*
X176630000Y-148480000D03*
D21*
X185260000Y-141870000D03*
D23*
X136238000Y-149490000D03*
D21*
X147160000Y-139330000D03*
D10*
X152680000Y-145940000D03*
D11*
X151840000Y-145930000D03*
D12*
X152640000Y-145930000D03*
D13*
X151590000Y-145680000D03*
D14*
X152180000Y-145680000D03*
D15*
X151840000Y-145430000D03*
D16*
X152640000Y-145430000D03*
D17*
X152680000Y-145430000D03*
D21*
X144620000Y-152030000D03*
D13*
X155580000Y-125360000D03*
D17*
X155790000Y-125620000D03*
D22*
X155990000Y-125275000D03*
D18*
X156050000Y-124890000D03*
D17*
X156310000Y-125100000D03*
D10*
X156310000Y-125620000D03*
D20*
X156310000Y-125620000D03*
D10*
X188240000Y-148480000D03*
D11*
X187400000Y-148470000D03*
D12*
X188200000Y-148470000D03*
D13*
X187150000Y-148220000D03*
D14*
X187740000Y-148220000D03*
D15*
X187400000Y-147970000D03*
D16*
X188200000Y-147970000D03*
D17*
X188240000Y-147970000D03*
D21*
X164940000Y-139330000D03*
D17*
X173570000Y-139770000D03*
D12*
X173580000Y-138930000D03*
D16*
X173580000Y-139730000D03*
D18*
X173830000Y-138680000D03*
D19*
X173830000Y-139270000D03*
D11*
X174080000Y-138930000D03*
D15*
X174080000Y-139730000D03*
D20*
X174080000Y-139770000D03*
D10*
X155220000Y-128160000D03*
D11*
X154380000Y-128150000D03*
D12*
X155180000Y-128150000D03*
D13*
X154130000Y-127900000D03*
D14*
X154720000Y-127900000D03*
D15*
X154380000Y-127650000D03*
D16*
X155180000Y-127650000D03*
D17*
X155220000Y-127650000D03*
D21*
X164940000Y-146950000D03*
D17*
X171030000Y-155010000D03*
D12*
X171040000Y-154170000D03*
D16*
X171040000Y-154970000D03*
D18*
X171290000Y-153920000D03*
D19*
X171290000Y-154510000D03*
D11*
X171540000Y-154170000D03*
D15*
X171540000Y-154970000D03*
D20*
X171540000Y-155010000D03*
D23*
X136238000Y-134250000D03*
D17*
X186270000Y-142310000D03*
D12*
X186280000Y-141470000D03*
D16*
X186280000Y-142270000D03*
D18*
X186530000Y-141220000D03*
D19*
X186530000Y-141810000D03*
D11*
X186780000Y-141470000D03*
D15*
X186780000Y-142270000D03*
D20*
X186780000Y-142310000D03*
D17*
X176110000Y-127070000D03*
D12*
X176120000Y-126230000D03*
D16*
X176120000Y-127030000D03*
D18*
X176370000Y-125980000D03*
D19*
X176370000Y-126570000D03*
D11*
X176620000Y-126230000D03*
D15*
X176620000Y-127030000D03*
D20*
X176620000Y-127070000D03*
D13*
X186060000Y-150760000D03*
D17*
X186270000Y-151020000D03*
D22*
X186470000Y-150675000D03*
D18*
X186530000Y-150290000D03*
D17*
X186790000Y-150500000D03*
D20*
X186790000Y-151020000D03*
D10*
X186790000Y-151020000D03*
D13*
X160660000Y-130440000D03*
D17*
X160870000Y-130700000D03*
D22*
X161070000Y-130355000D03*
D18*
X161130000Y-129970000D03*
D17*
X161390000Y-130180000D03*
D10*
X161390000Y-130700000D03*
D20*
X161390000Y-130700000D03*
D13*
X153040000Y-135520000D03*
D17*
X153250000Y-135780000D03*
D22*
X153450000Y-135435000D03*
D18*
X153510000Y-135050000D03*
D17*
X153770000Y-135260000D03*
D10*
X153770000Y-135780000D03*
D20*
X153770000Y-135780000D03*
D13*
X145420000Y-130440000D03*
D17*
X145630000Y-130700000D03*
D22*
X145830000Y-130355000D03*
D18*
X145890000Y-129970000D03*
D17*
X146150000Y-130180000D03*
D20*
X146150000Y-130700000D03*
D10*
X146150000Y-130700000D03*
D21*
X187800000Y-146950000D03*
D13*
X186060000Y-138060000D03*
D17*
X186270000Y-138320000D03*
D22*
X186470000Y-137975000D03*
D18*
X186530000Y-137590000D03*
D17*
X186790000Y-137800000D03*
D10*
X186790000Y-138320000D03*
D20*
X186790000Y-138320000D03*
D10*
X142520000Y-128160000D03*
D11*
X141680000Y-128150000D03*
D12*
X142480000Y-128150000D03*
D13*
X141430000Y-127900000D03*
D14*
X142020000Y-127900000D03*
D15*
X141680000Y-127650000D03*
D16*
X142480000Y-127650000D03*
D17*
X142520000Y-127650000D03*
D21*
X154780000Y-136790000D03*
D17*
X186270000Y-124530000D03*
D12*
X186280000Y-123690000D03*
D16*
X186280000Y-124490000D03*
D18*
X186530000Y-123440000D03*
D19*
X186530000Y-124030000D03*
D11*
X186780000Y-123690000D03*
D15*
X186780000Y-124490000D03*
D20*
X186780000Y-124530000D03*
D13*
X163200000Y-132980000D03*
D17*
X163410000Y-133240000D03*
D22*
X163610000Y-132895000D03*
D18*
X163670000Y-132510000D03*
D17*
X163930000Y-132720000D03*
D10*
X163930000Y-133240000D03*
D20*
X163930000Y-133240000D03*
D21*
X180180000Y-129170000D03*
D10*
X157760000Y-135780000D03*
D11*
X156920000Y-135770000D03*
D12*
X157720000Y-135770000D03*
D13*
X156670000Y-135520000D03*
D14*
X157260000Y-135520000D03*
D15*
X156920000Y-135270000D03*
D16*
X157720000Y-135270000D03*
D17*
X157760000Y-135270000D03*
D21*
X164940000Y-157110000D03*
D13*
X183520000Y-153300000D03*
D17*
X183730000Y-153560000D03*
D22*
X183930000Y-153215000D03*
D18*
X183990000Y-152830000D03*
D17*
X184250000Y-153040000D03*
D20*
X184250000Y-153560000D03*
D10*
X184250000Y-153560000D03*
D13*
X150500000Y-155840000D03*
D17*
X150710000Y-156100000D03*
D22*
X150910000Y-155755000D03*
D18*
X150970000Y-155370000D03*
D17*
X151230000Y-155580000D03*
D10*
X151230000Y-156100000D03*
D20*
X151230000Y-156100000D03*
D21*
X175100000Y-124090000D03*
D10*
X170460000Y-151020000D03*
D11*
X169620000Y-151010000D03*
D12*
X170420000Y-151010000D03*
D13*
X169370000Y-150760000D03*
D14*
X169960000Y-150760000D03*
D15*
X169620000Y-150510000D03*
D16*
X170420000Y-150510000D03*
D17*
X170460000Y-150510000D03*
X183730000Y-134690000D03*
D12*
X183740000Y-133850000D03*
D16*
X183740000Y-134650000D03*
D18*
X183990000Y-133600000D03*
D19*
X183990000Y-134190000D03*
D11*
X184240000Y-133850000D03*
D15*
X184240000Y-134650000D03*
D20*
X184240000Y-134690000D03*
D17*
X186270000Y-147390000D03*
D12*
X186280000Y-146550000D03*
D16*
X186280000Y-147350000D03*
D18*
X186530000Y-146300000D03*
D19*
X186530000Y-146890000D03*
D11*
X186780000Y-146550000D03*
D15*
X186780000Y-147350000D03*
D20*
X186780000Y-147390000D03*
D21*
X182720000Y-146950000D03*
X177640000Y-129170000D03*
X159860000Y-152030000D03*
D10*
X142520000Y-145940000D03*
D11*
X141680000Y-145930000D03*
D12*
X142480000Y-145930000D03*
D13*
X141430000Y-145680000D03*
D14*
X142020000Y-145680000D03*
D15*
X141680000Y-145430000D03*
D16*
X142480000Y-145430000D03*
D17*
X142520000Y-145430000D03*
D21*
X159860000Y-146950000D03*
D17*
X173570000Y-137230000D03*
D12*
X173580000Y-136390000D03*
D16*
X173580000Y-137190000D03*
D18*
X173830000Y-136140000D03*
D19*
X173830000Y-136730000D03*
D11*
X174080000Y-136390000D03*
D15*
X174080000Y-137190000D03*
D20*
X174080000Y-137230000D03*
D10*
X188240000Y-128160000D03*
D11*
X187400000Y-128150000D03*
D12*
X188200000Y-128150000D03*
D13*
X187150000Y-127900000D03*
D14*
X187740000Y-127900000D03*
D15*
X187400000Y-127650000D03*
D16*
X188200000Y-127650000D03*
D17*
X188240000Y-127650000D03*
D13*
X175900000Y-127900000D03*
D17*
X176110000Y-128160000D03*
D22*
X176310000Y-127815000D03*
D18*
X176370000Y-127430000D03*
D17*
X176630000Y-127640000D03*
D10*
X176630000Y-128160000D03*
D20*
X176630000Y-128160000D03*
D21*
X177640000Y-141870000D03*
D17*
X168490000Y-152470000D03*
D12*
X168500000Y-151630000D03*
D16*
X168500000Y-152430000D03*
D18*
X168750000Y-151380000D03*
D19*
X168750000Y-151970000D03*
D11*
X169000000Y-151630000D03*
D15*
X169000000Y-152430000D03*
D20*
X169000000Y-152470000D03*
D10*
X188240000Y-133240000D03*
D11*
X187400000Y-133230000D03*
D12*
X188200000Y-133230000D03*
D13*
X187150000Y-132980000D03*
D14*
X187740000Y-132980000D03*
D15*
X187400000Y-132730000D03*
D16*
X188200000Y-132730000D03*
D17*
X188240000Y-132730000D03*
D10*
X157760000Y-153560000D03*
D11*
X156920000Y-153550000D03*
D12*
X157720000Y-153550000D03*
D13*
X156670000Y-153300000D03*
D14*
X157260000Y-153300000D03*
D15*
X156920000Y-153050000D03*
D16*
X157720000Y-153050000D03*
D17*
X157760000Y-153050000D03*
X178650000Y-157550000D03*
D12*
X178660000Y-156710000D03*
D16*
X178660000Y-157510000D03*
D18*
X178910000Y-156460000D03*
D19*
X178910000Y-157050000D03*
D11*
X179160000Y-156710000D03*
D15*
X179160000Y-157510000D03*
D20*
X179160000Y-157550000D03*
D13*
X186060000Y-145680000D03*
D17*
X186270000Y-145940000D03*
D22*
X186470000Y-145595000D03*
D18*
X186530000Y-145210000D03*
D17*
X186790000Y-145420000D03*
D20*
X186790000Y-145940000D03*
D10*
X186790000Y-145940000D03*
D17*
X143090000Y-129610000D03*
D12*
X143100000Y-128770000D03*
D16*
X143100000Y-129570000D03*
D18*
X143350000Y-128520000D03*
D19*
X143350000Y-129110000D03*
D11*
X143600000Y-128770000D03*
D15*
X143600000Y-129570000D03*
D20*
X143600000Y-129610000D03*
D21*
X185260000Y-136790000D03*
D13*
X153040000Y-132980000D03*
D17*
X153250000Y-133240000D03*
D22*
X153450000Y-132895000D03*
D18*
X153510000Y-132510000D03*
D17*
X153770000Y-132720000D03*
D10*
X153770000Y-133240000D03*
D20*
X153770000Y-133240000D03*
D17*
X173570000Y-152470000D03*
D12*
X173580000Y-151630000D03*
D16*
X173580000Y-152430000D03*
D18*
X173830000Y-151380000D03*
D19*
X173830000Y-151970000D03*
D11*
X174080000Y-151630000D03*
D15*
X174080000Y-152430000D03*
D20*
X174080000Y-152470000D03*
D23*
X191102000Y-149490000D03*
D10*
X162840000Y-133240000D03*
D11*
X162000000Y-133230000D03*
D12*
X162800000Y-133230000D03*
D13*
X161750000Y-132980000D03*
D14*
X162340000Y-132980000D03*
D15*
X162000000Y-132730000D03*
D16*
X162800000Y-132730000D03*
D17*
X162840000Y-132730000D03*
D13*
X180980000Y-143140000D03*
D17*
X181190000Y-143400000D03*
D22*
X181390000Y-143055000D03*
D18*
X181450000Y-142670000D03*
D17*
X181710000Y-142880000D03*
D20*
X181710000Y-143400000D03*
D10*
X181710000Y-143400000D03*
D17*
X155790000Y-149930000D03*
D12*
X155800000Y-149090000D03*
D16*
X155800000Y-149890000D03*
D18*
X156050000Y-148840000D03*
D19*
X156050000Y-149430000D03*
D11*
X156300000Y-149090000D03*
D15*
X156300000Y-149890000D03*
D20*
X156300000Y-149930000D03*
D21*
X172560000Y-157110000D03*
D17*
X171030000Y-157550000D03*
D12*
X171040000Y-156710000D03*
D16*
X171040000Y-157510000D03*
D18*
X171290000Y-156460000D03*
D19*
X171290000Y-157050000D03*
D11*
X171540000Y-156710000D03*
D15*
X171540000Y-157510000D03*
D20*
X171540000Y-157550000D03*
D10*
X157760000Y-133240000D03*
D11*
X156920000Y-133230000D03*
D12*
X157720000Y-133230000D03*
D13*
X156670000Y-132980000D03*
D14*
X157260000Y-132980000D03*
D15*
X156920000Y-132730000D03*
D16*
X157720000Y-132730000D03*
D17*
X157760000Y-132730000D03*
D21*
X149700000Y-126630000D03*
D17*
X163410000Y-127070000D03*
D12*
X163420000Y-126230000D03*
D16*
X163420000Y-127030000D03*
D18*
X163670000Y-125980000D03*
D19*
X163670000Y-126570000D03*
D11*
X163920000Y-126230000D03*
D15*
X163920000Y-127030000D03*
D20*
X163920000Y-127070000D03*
D21*
X149700000Y-154570000D03*
D13*
X150500000Y-140600000D03*
D17*
X150710000Y-140860000D03*
D22*
X150910000Y-140515000D03*
D18*
X150970000Y-140130000D03*
D17*
X151230000Y-140340000D03*
D10*
X151230000Y-140860000D03*
D20*
X151230000Y-140860000D03*
D13*
X150500000Y-143140000D03*
D17*
X150710000Y-143400000D03*
D22*
X150910000Y-143055000D03*
D18*
X150970000Y-142670000D03*
D17*
X151230000Y-142880000D03*
D20*
X151230000Y-143400000D03*
D10*
X151230000Y-143400000D03*
D17*
X155790000Y-157550000D03*
D12*
X155800000Y-156710000D03*
D16*
X155800000Y-157510000D03*
D18*
X156050000Y-156460000D03*
D19*
X156050000Y-157050000D03*
D11*
X156300000Y-156710000D03*
D15*
X156300000Y-157510000D03*
D20*
X156300000Y-157550000D03*
D21*
X157320000Y-129170000D03*
D13*
X145420000Y-150760000D03*
D17*
X145630000Y-151020000D03*
D22*
X145830000Y-150675000D03*
D18*
X145890000Y-150290000D03*
D17*
X146150000Y-150500000D03*
D20*
X146150000Y-151020000D03*
D10*
X146150000Y-151020000D03*
D17*
X145630000Y-132150000D03*
D12*
X145640000Y-131310000D03*
D16*
X145640000Y-132110000D03*
D18*
X145890000Y-131060000D03*
D19*
X145890000Y-131650000D03*
D11*
X146140000Y-131310000D03*
D15*
X146140000Y-132110000D03*
D20*
X146140000Y-132150000D03*
D13*
X155580000Y-145680000D03*
D17*
X155790000Y-145940000D03*
D22*
X155990000Y-145595000D03*
D18*
X156050000Y-145210000D03*
D17*
X156310000Y-145420000D03*
D20*
X156310000Y-145940000D03*
D10*
X156310000Y-145940000D03*
X142520000Y-153560000D03*
D11*
X141680000Y-153550000D03*
D12*
X142480000Y-153550000D03*
D13*
X141430000Y-153300000D03*
D14*
X142020000Y-153300000D03*
D15*
X141680000Y-153050000D03*
D16*
X142480000Y-153050000D03*
D17*
X142520000Y-153050000D03*
D13*
X163200000Y-153300000D03*
D17*
X163410000Y-153560000D03*
D22*
X163610000Y-153215000D03*
D18*
X163670000Y-152830000D03*
D17*
X163930000Y-153040000D03*
D20*
X163930000Y-153560000D03*
D10*
X163930000Y-153560000D03*
X165380000Y-135780000D03*
D11*
X164540000Y-135770000D03*
D12*
X165340000Y-135770000D03*
D13*
X164290000Y-135520000D03*
D14*
X164880000Y-135520000D03*
D15*
X164540000Y-135270000D03*
D16*
X165340000Y-135270000D03*
D17*
X165380000Y-135270000D03*
D13*
X158120000Y-148220000D03*
D17*
X158330000Y-148480000D03*
D22*
X158530000Y-148135000D03*
D18*
X158590000Y-147750000D03*
D17*
X158850000Y-147960000D03*
D10*
X158850000Y-148480000D03*
D20*
X158850000Y-148480000D03*
D23*
X191102000Y-146950000D03*
D17*
X148170000Y-129610000D03*
D12*
X148180000Y-128770000D03*
D16*
X148180000Y-129570000D03*
D18*
X148430000Y-128520000D03*
D19*
X148430000Y-129110000D03*
D11*
X148680000Y-128770000D03*
D15*
X148680000Y-129570000D03*
D20*
X148680000Y-129610000D03*
D17*
X160870000Y-142310000D03*
D12*
X160880000Y-141470000D03*
D16*
X160880000Y-142270000D03*
D18*
X161130000Y-141220000D03*
D19*
X161130000Y-141810000D03*
D11*
X161380000Y-141470000D03*
D15*
X161380000Y-142270000D03*
D20*
X161380000Y-142310000D03*
D21*
X152240000Y-126630000D03*
D10*
X157760000Y-145940000D03*
D11*
X156920000Y-145930000D03*
D12*
X157720000Y-145930000D03*
D13*
X156670000Y-145680000D03*
D14*
X157260000Y-145680000D03*
D15*
X156920000Y-145430000D03*
D16*
X157720000Y-145430000D03*
D17*
X157760000Y-145430000D03*
D10*
X185700000Y-151020000D03*
D11*
X184860000Y-151010000D03*
D12*
X185660000Y-151010000D03*
D13*
X184610000Y-150760000D03*
D14*
X185200000Y-150760000D03*
D15*
X184860000Y-150510000D03*
D16*
X185660000Y-150510000D03*
D17*
X185700000Y-150510000D03*
D10*
X155220000Y-125620000D03*
D11*
X154380000Y-125610000D03*
D12*
X155180000Y-125610000D03*
D13*
X154130000Y-125360000D03*
D14*
X154720000Y-125360000D03*
D15*
X154380000Y-125110000D03*
D16*
X155180000Y-125110000D03*
D17*
X155220000Y-125110000D03*
X178650000Y-134690000D03*
D12*
X178660000Y-133850000D03*
D16*
X178660000Y-134650000D03*
D18*
X178910000Y-133600000D03*
D19*
X178910000Y-134190000D03*
D11*
X179160000Y-133850000D03*
D15*
X179160000Y-134650000D03*
D20*
X179160000Y-134690000D03*
D17*
X168490000Y-137230000D03*
D12*
X168500000Y-136390000D03*
D16*
X168500000Y-137190000D03*
D18*
X168750000Y-136140000D03*
D19*
X168750000Y-136730000D03*
D11*
X169000000Y-136390000D03*
D15*
X169000000Y-137190000D03*
D20*
X169000000Y-137230000D03*
D10*
X152680000Y-148480000D03*
D11*
X151840000Y-148470000D03*
D12*
X152640000Y-148470000D03*
D13*
X151590000Y-148220000D03*
D14*
X152180000Y-148220000D03*
D15*
X151840000Y-147970000D03*
D16*
X152640000Y-147970000D03*
D17*
X152680000Y-147970000D03*
X145630000Y-155010000D03*
D12*
X145640000Y-154170000D03*
D16*
X145640000Y-154970000D03*
D18*
X145890000Y-153920000D03*
D19*
X145890000Y-154510000D03*
D11*
X146140000Y-154170000D03*
D15*
X146140000Y-154970000D03*
D20*
X146140000Y-155010000D03*
D10*
X183160000Y-138320000D03*
D11*
X182320000Y-138310000D03*
D12*
X183120000Y-138310000D03*
D13*
X182070000Y-138060000D03*
D14*
X182660000Y-138060000D03*
D15*
X182320000Y-137810000D03*
D16*
X183120000Y-137810000D03*
D17*
X183160000Y-137810000D03*
D21*
X159860000Y-126630000D03*
D17*
X171030000Y-147390000D03*
D12*
X171040000Y-146550000D03*
D16*
X171040000Y-147350000D03*
D18*
X171290000Y-146300000D03*
D19*
X171290000Y-146890000D03*
D11*
X171540000Y-146550000D03*
D15*
X171540000Y-147350000D03*
D20*
X171540000Y-147390000D03*
D10*
X173000000Y-145940000D03*
D11*
X172160000Y-145930000D03*
D12*
X172960000Y-145930000D03*
D13*
X171910000Y-145680000D03*
D14*
X172500000Y-145680000D03*
D15*
X172160000Y-145430000D03*
D16*
X172960000Y-145430000D03*
D17*
X173000000Y-145430000D03*
D13*
X140340000Y-130440000D03*
D17*
X140550000Y-130700000D03*
D22*
X140750000Y-130355000D03*
D18*
X140810000Y-129970000D03*
D17*
X141070000Y-130180000D03*
D20*
X141070000Y-130700000D03*
D10*
X141070000Y-130700000D03*
D21*
X152240000Y-129170000D03*
D10*
X180620000Y-133240000D03*
D11*
X179780000Y-133230000D03*
D12*
X180580000Y-133230000D03*
D13*
X179530000Y-132980000D03*
D14*
X180120000Y-132980000D03*
D15*
X179780000Y-132730000D03*
D16*
X180580000Y-132730000D03*
D17*
X180620000Y-132730000D03*
D13*
X147960000Y-155840000D03*
D17*
X148170000Y-156100000D03*
D22*
X148370000Y-155755000D03*
D18*
X148430000Y-155370000D03*
D17*
X148690000Y-155580000D03*
D10*
X148690000Y-156100000D03*
D20*
X148690000Y-156100000D03*
D10*
X147600000Y-143400000D03*
D11*
X146760000Y-143390000D03*
D12*
X147560000Y-143390000D03*
D13*
X146510000Y-143140000D03*
D14*
X147100000Y-143140000D03*
D15*
X146760000Y-142890000D03*
D16*
X147560000Y-142890000D03*
D17*
X147600000Y-142890000D03*
D21*
X139540000Y-139330000D03*
D17*
X168490000Y-157550000D03*
D12*
X168500000Y-156710000D03*
D16*
X168500000Y-157510000D03*
D18*
X168750000Y-156460000D03*
D19*
X168750000Y-157050000D03*
D11*
X169000000Y-156710000D03*
D15*
X169000000Y-157510000D03*
D20*
X169000000Y-157550000D03*
D17*
X176110000Y-144850000D03*
D12*
X176120000Y-144010000D03*
D16*
X176120000Y-144810000D03*
D18*
X176370000Y-143760000D03*
D19*
X176370000Y-144350000D03*
D11*
X176620000Y-144010000D03*
D15*
X176620000Y-144810000D03*
D20*
X176620000Y-144850000D03*
D13*
X147960000Y-143140000D03*
D17*
X148170000Y-143400000D03*
D22*
X148370000Y-143055000D03*
D18*
X148430000Y-142670000D03*
D17*
X148690000Y-142880000D03*
D10*
X148690000Y-143400000D03*
D20*
X148690000Y-143400000D03*
D13*
X178440000Y-127900000D03*
D17*
X178650000Y-128160000D03*
D22*
X178850000Y-127815000D03*
D18*
X178910000Y-127430000D03*
D17*
X179170000Y-127640000D03*
D10*
X179170000Y-128160000D03*
D20*
X179170000Y-128160000D03*
D17*
X171030000Y-152470000D03*
D12*
X171040000Y-151630000D03*
D16*
X171040000Y-152430000D03*
D18*
X171290000Y-151380000D03*
D19*
X171290000Y-151970000D03*
D11*
X171540000Y-151630000D03*
D15*
X171540000Y-152430000D03*
D20*
X171540000Y-152470000D03*
D13*
X140340000Y-127900000D03*
D17*
X140550000Y-128160000D03*
D22*
X140750000Y-127815000D03*
D18*
X140810000Y-127430000D03*
D17*
X141070000Y-127640000D03*
D20*
X141070000Y-128160000D03*
D10*
X141070000Y-128160000D03*
D23*
X136238000Y-141870000D03*
D10*
X139980000Y-151020000D03*
D11*
X139140000Y-151010000D03*
D12*
X139940000Y-151010000D03*
D13*
X138890000Y-150760000D03*
D14*
X139480000Y-150760000D03*
D15*
X139140000Y-150510000D03*
D16*
X139940000Y-150510000D03*
D17*
X139980000Y-150510000D03*
D21*
X139540000Y-126630000D03*
D13*
X173360000Y-153300000D03*
D17*
X173570000Y-153560000D03*
D22*
X173770000Y-153215000D03*
D18*
X173830000Y-152830000D03*
D17*
X174090000Y-153040000D03*
D10*
X174090000Y-153560000D03*
D20*
X174090000Y-153560000D03*
D13*
X155580000Y-148220000D03*
D17*
X155790000Y-148480000D03*
D22*
X155990000Y-148135000D03*
D18*
X156050000Y-147750000D03*
D17*
X156310000Y-147960000D03*
D20*
X156310000Y-148480000D03*
D10*
X156310000Y-148480000D03*
X185700000Y-153560000D03*
D11*
X184860000Y-153550000D03*
D12*
X185660000Y-153550000D03*
D13*
X184610000Y-153300000D03*
D14*
X185200000Y-153300000D03*
D15*
X184860000Y-153050000D03*
D16*
X185660000Y-153050000D03*
D17*
X185700000Y-153050000D03*
D13*
X163200000Y-143140000D03*
D17*
X163410000Y-143400000D03*
D22*
X163610000Y-143055000D03*
D18*
X163670000Y-142670000D03*
D17*
X163930000Y-142880000D03*
D10*
X163930000Y-143400000D03*
D20*
X163930000Y-143400000D03*
D17*
X186270000Y-132150000D03*
D12*
X186280000Y-131310000D03*
D16*
X186280000Y-132110000D03*
D18*
X186530000Y-131060000D03*
D19*
X186530000Y-131650000D03*
D11*
X186780000Y-131310000D03*
D15*
X186780000Y-132110000D03*
D20*
X186780000Y-132150000D03*
D17*
X186270000Y-137230000D03*
D12*
X186280000Y-136390000D03*
D16*
X186280000Y-137190000D03*
D18*
X186530000Y-136140000D03*
D19*
X186530000Y-136730000D03*
D11*
X186780000Y-136390000D03*
D15*
X186780000Y-137190000D03*
D20*
X186780000Y-137230000D03*
D10*
X162840000Y-140860000D03*
D11*
X162000000Y-140850000D03*
D12*
X162800000Y-140850000D03*
D13*
X161750000Y-140600000D03*
D14*
X162340000Y-140600000D03*
D15*
X162000000Y-140350000D03*
D16*
X162800000Y-140350000D03*
D17*
X162840000Y-140350000D03*
D21*
X172560000Y-129170000D03*
D13*
X155580000Y-155840000D03*
D17*
X155790000Y-156100000D03*
D22*
X155990000Y-155755000D03*
D18*
X156050000Y-155370000D03*
D17*
X156310000Y-155580000D03*
D20*
X156310000Y-156100000D03*
D10*
X156310000Y-156100000D03*
D21*
X152240000Y-141870000D03*
D17*
X160870000Y-139770000D03*
D12*
X160880000Y-138930000D03*
D16*
X160880000Y-139730000D03*
D18*
X161130000Y-138680000D03*
D19*
X161130000Y-139270000D03*
D11*
X161380000Y-138930000D03*
D15*
X161380000Y-139730000D03*
D20*
X161380000Y-139770000D03*
D17*
X163410000Y-132150000D03*
D12*
X163420000Y-131310000D03*
D16*
X163420000Y-132110000D03*
D18*
X163670000Y-131060000D03*
D19*
X163670000Y-131650000D03*
D11*
X163920000Y-131310000D03*
D15*
X163920000Y-132110000D03*
D20*
X163920000Y-132150000D03*
D17*
X183730000Y-124530000D03*
D12*
X183740000Y-123690000D03*
D16*
X183740000Y-124490000D03*
D18*
X183990000Y-123440000D03*
D19*
X183990000Y-124030000D03*
D11*
X184240000Y-123690000D03*
D15*
X184240000Y-124490000D03*
D20*
X184240000Y-124530000D03*
D17*
X145630000Y-129610000D03*
D12*
X145640000Y-128770000D03*
D16*
X145640000Y-129570000D03*
D18*
X145890000Y-128520000D03*
D19*
X145890000Y-129110000D03*
D11*
X146140000Y-128770000D03*
D15*
X146140000Y-129570000D03*
D20*
X146140000Y-129610000D03*
D21*
X180180000Y-126630000D03*
X157320000Y-126630000D03*
D13*
X142880000Y-155840000D03*
D17*
X143090000Y-156100000D03*
D22*
X143290000Y-155755000D03*
D18*
X143350000Y-155370000D03*
D17*
X143610000Y-155580000D03*
D10*
X143610000Y-156100000D03*
D20*
X143610000Y-156100000D03*
D13*
X145420000Y-135520000D03*
D17*
X145630000Y-135780000D03*
D22*
X145830000Y-135435000D03*
D18*
X145890000Y-135050000D03*
D17*
X146150000Y-135260000D03*
D20*
X146150000Y-135780000D03*
D10*
X146150000Y-135780000D03*
D17*
X178650000Y-129610000D03*
D12*
X178660000Y-128770000D03*
D16*
X178660000Y-129570000D03*
D18*
X178910000Y-128520000D03*
D19*
X178910000Y-129110000D03*
D11*
X179160000Y-128770000D03*
D15*
X179160000Y-129570000D03*
D20*
X179160000Y-129610000D03*
D21*
X149700000Y-141870000D03*
X175100000Y-141870000D03*
D10*
X162840000Y-128160000D03*
D11*
X162000000Y-128150000D03*
D12*
X162800000Y-128150000D03*
D13*
X161750000Y-127900000D03*
D14*
X162340000Y-127900000D03*
D15*
X162000000Y-127650000D03*
D16*
X162800000Y-127650000D03*
D17*
X162840000Y-127650000D03*
X178650000Y-144850000D03*
D12*
X178660000Y-144010000D03*
D16*
X178660000Y-144810000D03*
D18*
X178910000Y-143760000D03*
D19*
X178910000Y-144350000D03*
D11*
X179160000Y-144010000D03*
D15*
X179160000Y-144810000D03*
D20*
X179160000Y-144850000D03*
D17*
X173570000Y-124530000D03*
D12*
X173580000Y-123690000D03*
D16*
X173580000Y-124490000D03*
D18*
X173830000Y-123440000D03*
D19*
X173830000Y-124030000D03*
D11*
X174080000Y-123690000D03*
D15*
X174080000Y-124490000D03*
D20*
X174080000Y-124530000D03*
D21*
X139540000Y-154570000D03*
D17*
X168490000Y-124530000D03*
D12*
X168500000Y-123690000D03*
D16*
X168500000Y-124490000D03*
D18*
X168750000Y-123440000D03*
D19*
X168750000Y-124030000D03*
D11*
X169000000Y-123690000D03*
D15*
X169000000Y-124490000D03*
D20*
X169000000Y-124530000D03*
D10*
X162840000Y-135780000D03*
D11*
X162000000Y-135770000D03*
D12*
X162800000Y-135770000D03*
D13*
X161750000Y-135520000D03*
D14*
X162340000Y-135520000D03*
D15*
X162000000Y-135270000D03*
D16*
X162800000Y-135270000D03*
D17*
X162840000Y-135270000D03*
D10*
X162840000Y-153560000D03*
D11*
X162000000Y-153550000D03*
D12*
X162800000Y-153550000D03*
D13*
X161750000Y-153300000D03*
D14*
X162340000Y-153300000D03*
D15*
X162000000Y-153050000D03*
D16*
X162800000Y-153050000D03*
D17*
X162840000Y-153050000D03*
D10*
X142520000Y-135780000D03*
D11*
X141680000Y-135770000D03*
D12*
X142480000Y-135770000D03*
D13*
X141430000Y-135520000D03*
D14*
X142020000Y-135520000D03*
D15*
X141680000Y-135270000D03*
D16*
X142480000Y-135270000D03*
D17*
X142520000Y-135270000D03*
D13*
X160660000Y-148220000D03*
D17*
X160870000Y-148480000D03*
D22*
X161070000Y-148135000D03*
D18*
X161130000Y-147750000D03*
D17*
X161390000Y-147960000D03*
D10*
X161390000Y-148480000D03*
D20*
X161390000Y-148480000D03*
D17*
X168490000Y-155010000D03*
D12*
X168500000Y-154170000D03*
D16*
X168500000Y-154970000D03*
D18*
X168750000Y-153920000D03*
D19*
X168750000Y-154510000D03*
D11*
X169000000Y-154170000D03*
D15*
X169000000Y-154970000D03*
D20*
X169000000Y-155010000D03*
D17*
X163410000Y-157550000D03*
D12*
X163420000Y-156710000D03*
D16*
X163420000Y-157510000D03*
D18*
X163670000Y-156460000D03*
D19*
X163670000Y-157050000D03*
D11*
X163920000Y-156710000D03*
D15*
X163920000Y-157510000D03*
D20*
X163920000Y-157550000D03*
D17*
X153250000Y-137230000D03*
D12*
X153260000Y-136390000D03*
D16*
X153260000Y-137190000D03*
D18*
X153510000Y-136140000D03*
D19*
X153510000Y-136730000D03*
D11*
X153760000Y-136390000D03*
D15*
X153760000Y-137190000D03*
D20*
X153760000Y-137230000D03*
D17*
X153250000Y-127070000D03*
D12*
X153260000Y-126230000D03*
D16*
X153260000Y-127030000D03*
D18*
X153510000Y-125980000D03*
D19*
X153510000Y-126570000D03*
D11*
X153760000Y-126230000D03*
D15*
X153760000Y-127030000D03*
D20*
X153760000Y-127070000D03*
D21*
X170020000Y-141870000D03*
X154780000Y-134250000D03*
D13*
X145420000Y-125360000D03*
D17*
X145630000Y-125620000D03*
D22*
X145830000Y-125275000D03*
D18*
X145890000Y-124890000D03*
D17*
X146150000Y-125100000D03*
D20*
X146150000Y-125620000D03*
D10*
X146150000Y-125620000D03*
D21*
X180180000Y-144410000D03*
D17*
X178650000Y-132150000D03*
D12*
X178660000Y-131310000D03*
D16*
X178660000Y-132110000D03*
D18*
X178910000Y-131060000D03*
D19*
X178910000Y-131650000D03*
D11*
X179160000Y-131310000D03*
D15*
X179160000Y-132110000D03*
D20*
X179160000Y-132150000D03*
D13*
X160660000Y-135520000D03*
D17*
X160870000Y-135780000D03*
D22*
X161070000Y-135435000D03*
D18*
X161130000Y-135050000D03*
D17*
X161390000Y-135260000D03*
D10*
X161390000Y-135780000D03*
D20*
X161390000Y-135780000D03*
D21*
X180180000Y-154570000D03*
D23*
X136238000Y-154570000D03*
D21*
X154780000Y-152030000D03*
D10*
X150140000Y-143400000D03*
D11*
X149300000Y-143390000D03*
D12*
X150100000Y-143390000D03*
D13*
X149050000Y-143140000D03*
D14*
X149640000Y-143140000D03*
D15*
X149300000Y-142890000D03*
D16*
X150100000Y-142890000D03*
D17*
X150140000Y-142890000D03*
D13*
X183520000Y-135520000D03*
D17*
X183730000Y-135780000D03*
D22*
X183930000Y-135435000D03*
D18*
X183990000Y-135050000D03*
D17*
X184250000Y-135260000D03*
D20*
X184250000Y-135780000D03*
D10*
X184250000Y-135780000D03*
D13*
X183520000Y-148220000D03*
D17*
X183730000Y-148480000D03*
D22*
X183930000Y-148135000D03*
D18*
X183990000Y-147750000D03*
D17*
X184250000Y-147960000D03*
D10*
X184250000Y-148480000D03*
D20*
X184250000Y-148480000D03*
D21*
X162400000Y-144410000D03*
X167480000Y-146950000D03*
X144620000Y-131710000D03*
D17*
X176110000Y-129610000D03*
D12*
X176120000Y-128770000D03*
D16*
X176120000Y-129570000D03*
D18*
X176370000Y-128520000D03*
D19*
X176370000Y-129110000D03*
D11*
X176620000Y-128770000D03*
D15*
X176620000Y-129570000D03*
D20*
X176620000Y-129610000D03*
D17*
X143090000Y-157550000D03*
D12*
X143100000Y-156710000D03*
D16*
X143100000Y-157510000D03*
D18*
X143350000Y-156460000D03*
D19*
X143350000Y-157050000D03*
D11*
X143600000Y-156710000D03*
D15*
X143600000Y-157510000D03*
D20*
X143600000Y-157550000D03*
D21*
X147160000Y-141870000D03*
D17*
X153250000Y-149930000D03*
D12*
X153260000Y-149090000D03*
D16*
X153260000Y-149890000D03*
D18*
X153510000Y-148840000D03*
D19*
X153510000Y-149430000D03*
D11*
X153760000Y-149090000D03*
D15*
X153760000Y-149890000D03*
D20*
X153760000Y-149930000D03*
D13*
X175900000Y-135520000D03*
D17*
X176110000Y-135780000D03*
D22*
X176310000Y-135435000D03*
D18*
X176370000Y-135050000D03*
D17*
X176630000Y-135260000D03*
D20*
X176630000Y-135780000D03*
D10*
X176630000Y-135780000D03*
D17*
X143090000Y-147390000D03*
D12*
X143100000Y-146550000D03*
D16*
X143100000Y-147350000D03*
D18*
X143350000Y-146300000D03*
D19*
X143350000Y-146890000D03*
D11*
X143600000Y-146550000D03*
D15*
X143600000Y-147350000D03*
D20*
X143600000Y-147390000D03*
D17*
X160870000Y-155010000D03*
D12*
X160880000Y-154170000D03*
D16*
X160880000Y-154970000D03*
D18*
X161130000Y-153920000D03*
D19*
X161130000Y-154510000D03*
D11*
X161380000Y-154170000D03*
D15*
X161380000Y-154970000D03*
D20*
X161380000Y-155010000D03*
D17*
X186270000Y-144850000D03*
D12*
X186280000Y-144010000D03*
D16*
X186280000Y-144810000D03*
D18*
X186530000Y-143760000D03*
D19*
X186530000Y-144350000D03*
D11*
X186780000Y-144010000D03*
D15*
X186780000Y-144810000D03*
D20*
X186780000Y-144850000D03*
D21*
X154780000Y-124090000D03*
D17*
X165950000Y-124530000D03*
D12*
X165960000Y-123690000D03*
D16*
X165960000Y-124490000D03*
D18*
X166210000Y-123440000D03*
D19*
X166210000Y-124030000D03*
D11*
X166460000Y-123690000D03*
D15*
X166460000Y-124490000D03*
D20*
X166460000Y-124530000D03*
D21*
X157320000Y-154570000D03*
D10*
X142520000Y-130700000D03*
D11*
X141680000Y-130690000D03*
D12*
X142480000Y-130690000D03*
D13*
X141430000Y-130440000D03*
D14*
X142020000Y-130440000D03*
D15*
X141680000Y-130190000D03*
D16*
X142480000Y-130190000D03*
D17*
X142520000Y-130190000D03*
D10*
X142520000Y-125620000D03*
D11*
X141680000Y-125610000D03*
D12*
X142480000Y-125610000D03*
D13*
X141430000Y-125360000D03*
D14*
X142020000Y-125360000D03*
D15*
X141680000Y-125110000D03*
D16*
X142480000Y-125110000D03*
D17*
X142520000Y-125110000D03*
X140550000Y-152470000D03*
D12*
X140560000Y-151630000D03*
D16*
X140560000Y-152430000D03*
D18*
X140810000Y-151380000D03*
D19*
X140810000Y-151970000D03*
D11*
X141060000Y-151630000D03*
D15*
X141060000Y-152430000D03*
D20*
X141060000Y-152470000D03*
D21*
X172560000Y-139330000D03*
D10*
X152680000Y-135780000D03*
D11*
X151840000Y-135770000D03*
D12*
X152640000Y-135770000D03*
D13*
X151590000Y-135520000D03*
D14*
X152180000Y-135520000D03*
D15*
X151840000Y-135270000D03*
D16*
X152640000Y-135270000D03*
D17*
X152680000Y-135270000D03*
D21*
X152240000Y-139330000D03*
D13*
X183520000Y-145680000D03*
D17*
X183730000Y-145940000D03*
D22*
X183930000Y-145595000D03*
D18*
X183990000Y-145210000D03*
D17*
X184250000Y-145420000D03*
D10*
X184250000Y-145940000D03*
D20*
X184250000Y-145940000D03*
D17*
X178650000Y-147390000D03*
D12*
X178660000Y-146550000D03*
D16*
X178660000Y-147350000D03*
D18*
X178910000Y-146300000D03*
D19*
X178910000Y-146890000D03*
D11*
X179160000Y-146550000D03*
D15*
X179160000Y-147350000D03*
D20*
X179160000Y-147390000D03*
D21*
X175100000Y-126630000D03*
D10*
X167920000Y-151020000D03*
D11*
X167080000Y-151010000D03*
D12*
X167880000Y-151010000D03*
D13*
X166830000Y-150760000D03*
D14*
X167420000Y-150760000D03*
D15*
X167080000Y-150510000D03*
D16*
X167880000Y-150510000D03*
D17*
X167920000Y-150510000D03*
D13*
X180980000Y-140600000D03*
D17*
X181190000Y-140860000D03*
D22*
X181390000Y-140515000D03*
D18*
X181450000Y-140130000D03*
D17*
X181710000Y-140340000D03*
D10*
X181710000Y-140860000D03*
D20*
X181710000Y-140860000D03*
D17*
X150710000Y-127070000D03*
D12*
X150720000Y-126230000D03*
D16*
X150720000Y-127030000D03*
D18*
X150970000Y-125980000D03*
D19*
X150970000Y-126570000D03*
D11*
X151220000Y-126230000D03*
D15*
X151220000Y-127030000D03*
D20*
X151220000Y-127070000D03*
D13*
X163200000Y-130440000D03*
D17*
X163410000Y-130700000D03*
D22*
X163610000Y-130355000D03*
D18*
X163670000Y-129970000D03*
D17*
X163930000Y-130180000D03*
D20*
X163930000Y-130700000D03*
D10*
X163930000Y-130700000D03*
D17*
X163410000Y-144850000D03*
D12*
X163420000Y-144010000D03*
D16*
X163420000Y-144810000D03*
D18*
X163670000Y-143760000D03*
D19*
X163670000Y-144350000D03*
D11*
X163920000Y-144010000D03*
D15*
X163920000Y-144810000D03*
D20*
X163920000Y-144850000D03*
D17*
X171030000Y-137230000D03*
D12*
X171040000Y-136390000D03*
D16*
X171040000Y-137190000D03*
D18*
X171290000Y-136140000D03*
D19*
X171290000Y-136730000D03*
D11*
X171540000Y-136390000D03*
D15*
X171540000Y-137190000D03*
D20*
X171540000Y-137230000D03*
D21*
X180180000Y-157110000D03*
D10*
X139980000Y-140860000D03*
D11*
X139140000Y-140850000D03*
D12*
X139940000Y-140850000D03*
D13*
X138890000Y-140600000D03*
D14*
X139480000Y-140600000D03*
D15*
X139140000Y-140350000D03*
D16*
X139940000Y-140350000D03*
D17*
X139980000Y-140350000D03*
D10*
X180620000Y-140860000D03*
D11*
X179780000Y-140850000D03*
D12*
X180580000Y-140850000D03*
D13*
X179530000Y-140600000D03*
D14*
X180120000Y-140600000D03*
D15*
X179780000Y-140350000D03*
D16*
X180580000Y-140350000D03*
D17*
X180620000Y-140350000D03*
X181190000Y-129610000D03*
D12*
X181200000Y-128770000D03*
D16*
X181200000Y-129570000D03*
D18*
X181450000Y-128520000D03*
D19*
X181450000Y-129110000D03*
D11*
X181700000Y-128770000D03*
D15*
X181700000Y-129570000D03*
D20*
X181700000Y-129610000D03*
D10*
X188240000Y-140860000D03*
D11*
X187400000Y-140850000D03*
D12*
X188200000Y-140850000D03*
D13*
X187150000Y-140600000D03*
D14*
X187740000Y-140600000D03*
D15*
X187400000Y-140350000D03*
D16*
X188200000Y-140350000D03*
D17*
X188240000Y-140350000D03*
D21*
X157320000Y-139330000D03*
D17*
X158330000Y-147390000D03*
D12*
X158340000Y-146550000D03*
D16*
X158340000Y-147350000D03*
D18*
X158590000Y-146300000D03*
D19*
X158590000Y-146890000D03*
D11*
X158840000Y-146550000D03*
D15*
X158840000Y-147350000D03*
D20*
X158840000Y-147390000D03*
D21*
X154780000Y-141870000D03*
X182720000Y-131710000D03*
D10*
X152680000Y-140860000D03*
D11*
X151840000Y-140850000D03*
D12*
X152640000Y-140850000D03*
D13*
X151590000Y-140600000D03*
D14*
X152180000Y-140600000D03*
D15*
X151840000Y-140350000D03*
D16*
X152640000Y-140350000D03*
D17*
X152680000Y-140350000D03*
D23*
X136238000Y-139330000D03*
D17*
X153250000Y-134690000D03*
D12*
X153260000Y-133850000D03*
D16*
X153260000Y-134650000D03*
D18*
X153510000Y-133600000D03*
D19*
X153510000Y-134190000D03*
D11*
X153760000Y-133850000D03*
D15*
X153760000Y-134650000D03*
D20*
X153760000Y-134690000D03*
D13*
X140340000Y-135520000D03*
D17*
X140550000Y-135780000D03*
D22*
X140750000Y-135435000D03*
D18*
X140810000Y-135050000D03*
D17*
X141070000Y-135260000D03*
D20*
X141070000Y-135780000D03*
D10*
X141070000Y-135780000D03*
D13*
X150500000Y-150760000D03*
D17*
X150710000Y-151020000D03*
D22*
X150910000Y-150675000D03*
D18*
X150970000Y-150290000D03*
D17*
X151230000Y-150500000D03*
D20*
X151230000Y-151020000D03*
D10*
X151230000Y-151020000D03*
D21*
X182720000Y-129170000D03*
D13*
X158120000Y-150760000D03*
D17*
X158330000Y-151020000D03*
D22*
X158530000Y-150675000D03*
D18*
X158590000Y-150290000D03*
D17*
X158850000Y-150500000D03*
D10*
X158850000Y-151020000D03*
D20*
X158850000Y-151020000D03*
D21*
X167480000Y-124090000D03*
D10*
X170460000Y-130700000D03*
D11*
X169620000Y-130690000D03*
D12*
X170420000Y-130690000D03*
D13*
X169370000Y-130440000D03*
D14*
X169960000Y-130440000D03*
D15*
X169620000Y-130190000D03*
D16*
X170420000Y-130190000D03*
D17*
X170460000Y-130190000D03*
D21*
X152240000Y-134250000D03*
D10*
X150140000Y-130700000D03*
D11*
X149300000Y-130690000D03*
D12*
X150100000Y-130690000D03*
D13*
X149050000Y-130440000D03*
D14*
X149640000Y-130440000D03*
D15*
X149300000Y-130190000D03*
D16*
X150100000Y-130190000D03*
D17*
X150140000Y-130190000D03*
D21*
X182720000Y-154570000D03*
X177640000Y-146950000D03*
X170020000Y-144410000D03*
D13*
X170820000Y-138060000D03*
D17*
X171030000Y-138320000D03*
D22*
X171230000Y-137975000D03*
D18*
X171290000Y-137590000D03*
D17*
X171550000Y-137800000D03*
D10*
X171550000Y-138320000D03*
D20*
X171550000Y-138320000D03*
D17*
X183730000Y-157550000D03*
D12*
X183740000Y-156710000D03*
D16*
X183740000Y-157510000D03*
D18*
X183990000Y-156460000D03*
D19*
X183990000Y-157050000D03*
D11*
X184240000Y-156710000D03*
D15*
X184240000Y-157510000D03*
D20*
X184240000Y-157550000D03*
D17*
X173570000Y-132150000D03*
D12*
X173580000Y-131310000D03*
D16*
X173580000Y-132110000D03*
D18*
X173830000Y-131060000D03*
D19*
X173830000Y-131650000D03*
D11*
X174080000Y-131310000D03*
D15*
X174080000Y-132110000D03*
D20*
X174080000Y-132150000D03*
D10*
X175540000Y-135780000D03*
D11*
X174700000Y-135770000D03*
D12*
X175500000Y-135770000D03*
D13*
X174450000Y-135520000D03*
D14*
X175040000Y-135520000D03*
D15*
X174700000Y-135270000D03*
D16*
X175500000Y-135270000D03*
D17*
X175540000Y-135270000D03*
D21*
X159860000Y-144410000D03*
D10*
X139980000Y-143400000D03*
D11*
X139140000Y-143390000D03*
D12*
X139940000Y-143390000D03*
D13*
X138890000Y-143140000D03*
D14*
X139480000Y-143140000D03*
D15*
X139140000Y-142890000D03*
D16*
X139940000Y-142890000D03*
D17*
X139980000Y-142890000D03*
D10*
X180620000Y-151020000D03*
D11*
X179780000Y-151010000D03*
D12*
X180580000Y-151010000D03*
D13*
X179530000Y-150760000D03*
D14*
X180120000Y-150760000D03*
D15*
X179780000Y-150510000D03*
D16*
X180580000Y-150510000D03*
D17*
X180620000Y-150510000D03*
D21*
X164940000Y-144410000D03*
D17*
X183730000Y-144850000D03*
D12*
X183740000Y-144010000D03*
D16*
X183740000Y-144810000D03*
D18*
X183990000Y-143760000D03*
D19*
X183990000Y-144350000D03*
D11*
X184240000Y-144010000D03*
D15*
X184240000Y-144810000D03*
D20*
X184240000Y-144850000D03*
D10*
X173000000Y-140860000D03*
D11*
X172160000Y-140850000D03*
D12*
X172960000Y-140850000D03*
D13*
X171910000Y-140600000D03*
D14*
X172500000Y-140600000D03*
D15*
X172160000Y-140350000D03*
D16*
X172960000Y-140350000D03*
D17*
X173000000Y-140350000D03*
D13*
X168280000Y-143140000D03*
D17*
X168490000Y-143400000D03*
D22*
X168690000Y-143055000D03*
D18*
X168750000Y-142670000D03*
D17*
X169010000Y-142880000D03*
D20*
X169010000Y-143400000D03*
D10*
X169010000Y-143400000D03*
D21*
X142080000Y-157110000D03*
X162400000Y-136790000D03*
D13*
X175900000Y-125360000D03*
D17*
X176110000Y-125620000D03*
D22*
X176310000Y-125275000D03*
D18*
X176370000Y-124890000D03*
D17*
X176630000Y-125100000D03*
D10*
X176630000Y-125620000D03*
D20*
X176630000Y-125620000D03*
D13*
X165740000Y-150760000D03*
D17*
X165950000Y-151020000D03*
D22*
X166150000Y-150675000D03*
D18*
X166210000Y-150290000D03*
D17*
X166470000Y-150500000D03*
D20*
X166470000Y-151020000D03*
D10*
X166470000Y-151020000D03*
D21*
X149700000Y-134250000D03*
X162400000Y-134250000D03*
D17*
X158330000Y-157550000D03*
D12*
X158340000Y-156710000D03*
D16*
X158340000Y-157510000D03*
D18*
X158590000Y-156460000D03*
D19*
X158590000Y-157050000D03*
D11*
X158840000Y-156710000D03*
D15*
X158840000Y-157510000D03*
D20*
X158840000Y-157550000D03*
D21*
X162400000Y-149490000D03*
X175100000Y-139330000D03*
D17*
X140550000Y-132150000D03*
D12*
X140560000Y-131310000D03*
D16*
X140560000Y-132110000D03*
D18*
X140810000Y-131060000D03*
D19*
X140810000Y-131650000D03*
D11*
X141060000Y-131310000D03*
D15*
X141060000Y-132110000D03*
D20*
X141060000Y-132150000D03*
D21*
X175100000Y-149490000D03*
D13*
X160660000Y-132980000D03*
D17*
X160870000Y-133240000D03*
D22*
X161070000Y-132895000D03*
D18*
X161130000Y-132510000D03*
D17*
X161390000Y-132720000D03*
D10*
X161390000Y-133240000D03*
D20*
X161390000Y-133240000D03*
D21*
X144620000Y-124090000D03*
D10*
X152680000Y-143400000D03*
D11*
X151840000Y-143390000D03*
D12*
X152640000Y-143390000D03*
D13*
X151590000Y-143140000D03*
D14*
X152180000Y-143140000D03*
D15*
X151840000Y-142890000D03*
D16*
X152640000Y-142890000D03*
D17*
X152680000Y-142890000D03*
D21*
X144620000Y-126630000D03*
X170020000Y-126630000D03*
D10*
X160300000Y-140860000D03*
D11*
X159460000Y-140850000D03*
D12*
X160260000Y-140850000D03*
D13*
X159210000Y-140600000D03*
D14*
X159800000Y-140600000D03*
D15*
X159460000Y-140350000D03*
D16*
X160260000Y-140350000D03*
D17*
X160300000Y-140350000D03*
X148170000Y-144850000D03*
D12*
X148180000Y-144010000D03*
D16*
X148180000Y-144810000D03*
D18*
X148430000Y-143760000D03*
D19*
X148430000Y-144350000D03*
D11*
X148680000Y-144010000D03*
D15*
X148680000Y-144810000D03*
D20*
X148680000Y-144850000D03*
D21*
X164940000Y-152030000D03*
D13*
X153040000Y-127900000D03*
D17*
X153250000Y-128160000D03*
D22*
X153450000Y-127815000D03*
D18*
X153510000Y-127430000D03*
D17*
X153770000Y-127640000D03*
D20*
X153770000Y-128160000D03*
D10*
X153770000Y-128160000D03*
D17*
X160870000Y-152470000D03*
D12*
X160880000Y-151630000D03*
D16*
X160880000Y-152430000D03*
D18*
X161130000Y-151380000D03*
D19*
X161130000Y-151970000D03*
D11*
X161380000Y-151630000D03*
D15*
X161380000Y-152430000D03*
D20*
X161380000Y-152470000D03*
D10*
X185700000Y-143400000D03*
D11*
X184860000Y-143390000D03*
D12*
X185660000Y-143390000D03*
D13*
X184610000Y-143140000D03*
D14*
X185200000Y-143140000D03*
D15*
X184860000Y-142890000D03*
D16*
X185660000Y-142890000D03*
D17*
X185700000Y-142890000D03*
D10*
X173000000Y-138320000D03*
D11*
X172160000Y-138310000D03*
D12*
X172960000Y-138310000D03*
D13*
X171910000Y-138060000D03*
D14*
X172500000Y-138060000D03*
D15*
X172160000Y-137810000D03*
D16*
X172960000Y-137810000D03*
D17*
X173000000Y-137810000D03*
D13*
X158120000Y-135520000D03*
D17*
X158330000Y-135780000D03*
D22*
X158530000Y-135435000D03*
D18*
X158590000Y-135050000D03*
D17*
X158850000Y-135260000D03*
D20*
X158850000Y-135780000D03*
D10*
X158850000Y-135780000D03*
D13*
X153040000Y-148220000D03*
D17*
X153250000Y-148480000D03*
D22*
X153450000Y-148135000D03*
D18*
X153510000Y-147750000D03*
D17*
X153770000Y-147960000D03*
D20*
X153770000Y-148480000D03*
D10*
X153770000Y-148480000D03*
X185700000Y-128160000D03*
D11*
X184860000Y-128150000D03*
D12*
X185660000Y-128150000D03*
D13*
X184610000Y-127900000D03*
D14*
X185200000Y-127900000D03*
D15*
X184860000Y-127650000D03*
D16*
X185660000Y-127650000D03*
D17*
X185700000Y-127650000D03*
X181190000Y-132150000D03*
D12*
X181200000Y-131310000D03*
D16*
X181200000Y-132110000D03*
D18*
X181450000Y-131060000D03*
D19*
X181450000Y-131650000D03*
D11*
X181700000Y-131310000D03*
D15*
X181700000Y-132110000D03*
D20*
X181700000Y-132150000D03*
D21*
X172560000Y-136790000D03*
D10*
X157760000Y-128160000D03*
D11*
X156920000Y-128150000D03*
D12*
X157720000Y-128150000D03*
D13*
X156670000Y-127900000D03*
D14*
X157260000Y-127900000D03*
D15*
X156920000Y-127650000D03*
D16*
X157720000Y-127650000D03*
D17*
X157760000Y-127650000D03*
D13*
X140340000Y-132980000D03*
D17*
X140550000Y-133240000D03*
D22*
X140750000Y-132895000D03*
D18*
X140810000Y-132510000D03*
D17*
X141070000Y-132720000D03*
D20*
X141070000Y-133240000D03*
D10*
X141070000Y-133240000D03*
X155220000Y-151020000D03*
D11*
X154380000Y-151010000D03*
D12*
X155180000Y-151010000D03*
D13*
X154130000Y-150760000D03*
D14*
X154720000Y-150760000D03*
D15*
X154380000Y-150510000D03*
D16*
X155180000Y-150510000D03*
D17*
X155220000Y-150510000D03*
D13*
X165740000Y-132980000D03*
D17*
X165950000Y-133240000D03*
D22*
X166150000Y-132895000D03*
D18*
X166210000Y-132510000D03*
D17*
X166470000Y-132720000D03*
D10*
X166470000Y-133240000D03*
D20*
X166470000Y-133240000D03*
D17*
X145630000Y-157550000D03*
D12*
X145640000Y-156710000D03*
D16*
X145640000Y-157510000D03*
D18*
X145890000Y-156460000D03*
D19*
X145890000Y-157050000D03*
D11*
X146140000Y-156710000D03*
D15*
X146140000Y-157510000D03*
D20*
X146140000Y-157550000D03*
D21*
X159860000Y-149490000D03*
D10*
X152680000Y-138320000D03*
D11*
X151840000Y-138310000D03*
D12*
X152640000Y-138310000D03*
D13*
X151590000Y-138060000D03*
D14*
X152180000Y-138060000D03*
D15*
X151840000Y-137810000D03*
D16*
X152640000Y-137810000D03*
D17*
X152680000Y-137810000D03*
D10*
X142520000Y-138320000D03*
D11*
X141680000Y-138310000D03*
D12*
X142480000Y-138310000D03*
D13*
X141430000Y-138060000D03*
D14*
X142020000Y-138060000D03*
D15*
X141680000Y-137810000D03*
D16*
X142480000Y-137810000D03*
D17*
X142520000Y-137810000D03*
X160870000Y-147390000D03*
D12*
X160880000Y-146550000D03*
D16*
X160880000Y-147350000D03*
D18*
X161130000Y-146300000D03*
D19*
X161130000Y-146890000D03*
D11*
X161380000Y-146550000D03*
D15*
X161380000Y-147350000D03*
D20*
X161380000Y-147390000D03*
D13*
X155580000Y-150760000D03*
D17*
X155790000Y-151020000D03*
D22*
X155990000Y-150675000D03*
D18*
X156050000Y-150290000D03*
D17*
X156310000Y-150500000D03*
D10*
X156310000Y-151020000D03*
D20*
X156310000Y-151020000D03*
D17*
X145630000Y-149930000D03*
D12*
X145640000Y-149090000D03*
D16*
X145640000Y-149890000D03*
D18*
X145890000Y-148840000D03*
D19*
X145890000Y-149430000D03*
D11*
X146140000Y-149090000D03*
D15*
X146140000Y-149890000D03*
D20*
X146140000Y-149930000D03*
D13*
X147960000Y-150760000D03*
D17*
X148170000Y-151020000D03*
D22*
X148370000Y-150675000D03*
D18*
X148430000Y-150290000D03*
D17*
X148690000Y-150500000D03*
D10*
X148690000Y-151020000D03*
D20*
X148690000Y-151020000D03*
D17*
X148170000Y-147390000D03*
D12*
X148180000Y-146550000D03*
D16*
X148180000Y-147350000D03*
D18*
X148430000Y-146300000D03*
D19*
X148430000Y-146890000D03*
D11*
X148680000Y-146550000D03*
D15*
X148680000Y-147350000D03*
D20*
X148680000Y-147390000D03*
D13*
X153040000Y-130440000D03*
D17*
X153250000Y-130700000D03*
D22*
X153450000Y-130355000D03*
D18*
X153510000Y-129970000D03*
D17*
X153770000Y-130180000D03*
D10*
X153770000Y-130700000D03*
D20*
X153770000Y-130700000D03*
D13*
X142880000Y-140600000D03*
D17*
X143090000Y-140860000D03*
D22*
X143290000Y-140515000D03*
D18*
X143350000Y-140130000D03*
D17*
X143610000Y-140340000D03*
D10*
X143610000Y-140860000D03*
D20*
X143610000Y-140860000D03*
D21*
X175100000Y-152030000D03*
D10*
X142520000Y-151020000D03*
D11*
X141680000Y-151010000D03*
D12*
X142480000Y-151010000D03*
D13*
X141430000Y-150760000D03*
D14*
X142020000Y-150760000D03*
D15*
X141680000Y-150510000D03*
D16*
X142480000Y-150510000D03*
D17*
X142520000Y-150510000D03*
D10*
X165380000Y-130700000D03*
D11*
X164540000Y-130690000D03*
D12*
X165340000Y-130690000D03*
D13*
X164290000Y-130440000D03*
D14*
X164880000Y-130440000D03*
D15*
X164540000Y-130190000D03*
D16*
X165340000Y-130190000D03*
D17*
X165380000Y-130190000D03*
X173570000Y-157550000D03*
D12*
X173580000Y-156710000D03*
D16*
X173580000Y-157510000D03*
D18*
X173830000Y-156460000D03*
D19*
X173830000Y-157050000D03*
D11*
X174080000Y-156710000D03*
D15*
X174080000Y-157510000D03*
D20*
X174080000Y-157550000D03*
D23*
X136238000Y-152030000D03*
D10*
X178080000Y-135780000D03*
D11*
X177240000Y-135770000D03*
D12*
X178040000Y-135770000D03*
D13*
X176990000Y-135520000D03*
D14*
X177580000Y-135520000D03*
D15*
X177240000Y-135270000D03*
D16*
X178040000Y-135270000D03*
D17*
X178080000Y-135270000D03*
D10*
X183160000Y-156100000D03*
D11*
X182320000Y-156090000D03*
D12*
X183120000Y-156090000D03*
D13*
X182070000Y-155840000D03*
D14*
X182660000Y-155840000D03*
D15*
X182320000Y-155590000D03*
D16*
X183120000Y-155590000D03*
D17*
X183160000Y-155590000D03*
D21*
X142080000Y-126630000D03*
D13*
X183520000Y-125360000D03*
D17*
X183730000Y-125620000D03*
D22*
X183930000Y-125275000D03*
D18*
X183990000Y-124890000D03*
D17*
X184250000Y-125100000D03*
D10*
X184250000Y-125620000D03*
D20*
X184250000Y-125620000D03*
D13*
X186060000Y-127900000D03*
D17*
X186270000Y-128160000D03*
D22*
X186470000Y-127815000D03*
D18*
X186530000Y-127430000D03*
D17*
X186790000Y-127640000D03*
D10*
X186790000Y-128160000D03*
D20*
X186790000Y-128160000D03*
D21*
X139540000Y-141870000D03*
X175100000Y-136790000D03*
D17*
X158330000Y-139770000D03*
D12*
X158340000Y-138930000D03*
D16*
X158340000Y-139730000D03*
D18*
X158590000Y-138680000D03*
D19*
X158590000Y-139270000D03*
D11*
X158840000Y-138930000D03*
D15*
X158840000Y-139730000D03*
D20*
X158840000Y-139770000D03*
D13*
X153040000Y-138060000D03*
D17*
X153250000Y-138320000D03*
D22*
X153450000Y-137975000D03*
D18*
X153510000Y-137590000D03*
D17*
X153770000Y-137800000D03*
D20*
X153770000Y-138320000D03*
D10*
X153770000Y-138320000D03*
D13*
X165740000Y-130440000D03*
D17*
X165950000Y-130700000D03*
D22*
X166150000Y-130355000D03*
D18*
X166210000Y-129970000D03*
D17*
X166470000Y-130180000D03*
D10*
X166470000Y-130700000D03*
D20*
X166470000Y-130700000D03*
D10*
X180620000Y-125620000D03*
D11*
X179780000Y-125610000D03*
D12*
X180580000Y-125610000D03*
D13*
X179530000Y-125360000D03*
D14*
X180120000Y-125360000D03*
D15*
X179780000Y-125110000D03*
D16*
X180580000Y-125110000D03*
D17*
X180620000Y-125110000D03*
D13*
X175900000Y-132980000D03*
D17*
X176110000Y-133240000D03*
D22*
X176310000Y-132895000D03*
D18*
X176370000Y-132510000D03*
D17*
X176630000Y-132720000D03*
D10*
X176630000Y-133240000D03*
D20*
X176630000Y-133240000D03*
D21*
X162400000Y-141870000D03*
D17*
X158330000Y-132150000D03*
D12*
X158340000Y-131310000D03*
D16*
X158340000Y-132110000D03*
D18*
X158590000Y-131060000D03*
D19*
X158590000Y-131650000D03*
D11*
X158840000Y-131310000D03*
D15*
X158840000Y-132110000D03*
D20*
X158840000Y-132150000D03*
D10*
X162840000Y-145940000D03*
D11*
X162000000Y-145930000D03*
D12*
X162800000Y-145930000D03*
D13*
X161750000Y-145680000D03*
D14*
X162340000Y-145680000D03*
D15*
X162000000Y-145430000D03*
D16*
X162800000Y-145430000D03*
D17*
X162840000Y-145430000D03*
D10*
X170460000Y-133240000D03*
D11*
X169620000Y-133230000D03*
D12*
X170420000Y-133230000D03*
D13*
X169370000Y-132980000D03*
D14*
X169960000Y-132980000D03*
D15*
X169620000Y-132730000D03*
D16*
X170420000Y-132730000D03*
D17*
X170460000Y-132730000D03*
D10*
X142520000Y-156100000D03*
D11*
X141680000Y-156090000D03*
D12*
X142480000Y-156090000D03*
D13*
X141430000Y-155840000D03*
D14*
X142020000Y-155840000D03*
D15*
X141680000Y-155590000D03*
D16*
X142480000Y-155590000D03*
D17*
X142520000Y-155590000D03*
D21*
X152240000Y-146950000D03*
D10*
X150140000Y-128160000D03*
D11*
X149300000Y-128150000D03*
D12*
X150100000Y-128150000D03*
D13*
X149050000Y-127900000D03*
D14*
X149640000Y-127900000D03*
D15*
X149300000Y-127650000D03*
D16*
X150100000Y-127650000D03*
D17*
X150140000Y-127650000D03*
X186270000Y-139770000D03*
D12*
X186280000Y-138930000D03*
D16*
X186280000Y-139730000D03*
D18*
X186530000Y-138680000D03*
D19*
X186530000Y-139270000D03*
D11*
X186780000Y-138930000D03*
D15*
X186780000Y-139730000D03*
D20*
X186780000Y-139770000D03*
D21*
X187800000Y-124090000D03*
D10*
X175540000Y-130700000D03*
D11*
X174700000Y-130690000D03*
D12*
X175500000Y-130690000D03*
D13*
X174450000Y-130440000D03*
D14*
X175040000Y-130440000D03*
D15*
X174700000Y-130190000D03*
D16*
X175500000Y-130190000D03*
D17*
X175540000Y-130190000D03*
X145630000Y-137230000D03*
D12*
X145640000Y-136390000D03*
D16*
X145640000Y-137190000D03*
D18*
X145890000Y-136140000D03*
D19*
X145890000Y-136730000D03*
D11*
X146140000Y-136390000D03*
D15*
X146140000Y-137190000D03*
D20*
X146140000Y-137230000D03*
D17*
X148170000Y-132150000D03*
D12*
X148180000Y-131310000D03*
D16*
X148180000Y-132110000D03*
D18*
X148430000Y-131060000D03*
D19*
X148430000Y-131650000D03*
D11*
X148680000Y-131310000D03*
D15*
X148680000Y-132110000D03*
D20*
X148680000Y-132150000D03*
D10*
X180620000Y-135780000D03*
D11*
X179780000Y-135770000D03*
D12*
X180580000Y-135770000D03*
D13*
X179530000Y-135520000D03*
D14*
X180120000Y-135520000D03*
D15*
X179780000Y-135270000D03*
D16*
X180580000Y-135270000D03*
D17*
X180620000Y-135270000D03*
D21*
X164940000Y-129170000D03*
D17*
X165950000Y-157550000D03*
D12*
X165960000Y-156710000D03*
D16*
X165960000Y-157510000D03*
D18*
X166210000Y-156460000D03*
D19*
X166210000Y-157050000D03*
D11*
X166460000Y-156710000D03*
D15*
X166460000Y-157510000D03*
D20*
X166460000Y-157550000D03*
D21*
X157320000Y-146950000D03*
X157320000Y-144410000D03*
D17*
X155790000Y-147390000D03*
D12*
X155800000Y-146550000D03*
D16*
X155800000Y-147350000D03*
D18*
X156050000Y-146300000D03*
D19*
X156050000Y-146890000D03*
D11*
X156300000Y-146550000D03*
D15*
X156300000Y-147350000D03*
D20*
X156300000Y-147390000D03*
D17*
X165950000Y-155010000D03*
D12*
X165960000Y-154170000D03*
D16*
X165960000Y-154970000D03*
D18*
X166210000Y-153920000D03*
D19*
X166210000Y-154510000D03*
D11*
X166460000Y-154170000D03*
D15*
X166460000Y-154970000D03*
D20*
X166460000Y-155010000D03*
D10*
X162840000Y-143400000D03*
D11*
X162000000Y-143390000D03*
D12*
X162800000Y-143390000D03*
D13*
X161750000Y-143140000D03*
D14*
X162340000Y-143140000D03*
D15*
X162000000Y-142890000D03*
D16*
X162800000Y-142890000D03*
D17*
X162840000Y-142890000D03*
D13*
X165740000Y-127900000D03*
D17*
X165950000Y-128160000D03*
D22*
X166150000Y-127815000D03*
D18*
X166210000Y-127430000D03*
D17*
X166470000Y-127640000D03*
D10*
X166470000Y-128160000D03*
D20*
X166470000Y-128160000D03*
D17*
X181190000Y-139770000D03*
D12*
X181200000Y-138930000D03*
D16*
X181200000Y-139730000D03*
D18*
X181450000Y-138680000D03*
D19*
X181450000Y-139270000D03*
D11*
X181700000Y-138930000D03*
D15*
X181700000Y-139730000D03*
D20*
X181700000Y-139770000D03*
D17*
X163410000Y-147390000D03*
D12*
X163420000Y-146550000D03*
D16*
X163420000Y-147350000D03*
D18*
X163670000Y-146300000D03*
D19*
X163670000Y-146890000D03*
D11*
X163920000Y-146550000D03*
D15*
X163920000Y-147350000D03*
D20*
X163920000Y-147390000D03*
D17*
X183730000Y-137230000D03*
D12*
X183740000Y-136390000D03*
D16*
X183740000Y-137190000D03*
D18*
X183990000Y-136140000D03*
D19*
X183990000Y-136730000D03*
D11*
X184240000Y-136390000D03*
D15*
X184240000Y-137190000D03*
D20*
X184240000Y-137230000D03*
D17*
X183730000Y-149930000D03*
D12*
X183740000Y-149090000D03*
D16*
X183740000Y-149890000D03*
D18*
X183990000Y-148840000D03*
D19*
X183990000Y-149430000D03*
D11*
X184240000Y-149090000D03*
D15*
X184240000Y-149890000D03*
D20*
X184240000Y-149930000D03*
D13*
X173360000Y-143140000D03*
D17*
X173570000Y-143400000D03*
D22*
X173770000Y-143055000D03*
D18*
X173830000Y-142670000D03*
D17*
X174090000Y-142880000D03*
D20*
X174090000Y-143400000D03*
D10*
X174090000Y-143400000D03*
D21*
X182720000Y-126630000D03*
D10*
X152680000Y-130700000D03*
D11*
X151840000Y-130690000D03*
D12*
X152640000Y-130690000D03*
D13*
X151590000Y-130440000D03*
D14*
X152180000Y-130440000D03*
D15*
X151840000Y-130190000D03*
D16*
X152640000Y-130190000D03*
D17*
X152680000Y-130190000D03*
X168490000Y-134690000D03*
D12*
X168500000Y-133850000D03*
D16*
X168500000Y-134650000D03*
D18*
X168750000Y-133600000D03*
D19*
X168750000Y-134190000D03*
D11*
X169000000Y-133850000D03*
D15*
X169000000Y-134650000D03*
D20*
X169000000Y-134690000D03*
D10*
X167920000Y-130700000D03*
D11*
X167080000Y-130690000D03*
D12*
X167880000Y-130690000D03*
D13*
X166830000Y-130440000D03*
D14*
X167420000Y-130440000D03*
D15*
X167080000Y-130190000D03*
D16*
X167880000Y-130190000D03*
D17*
X167920000Y-130190000D03*
D13*
X173360000Y-150760000D03*
D17*
X173570000Y-151020000D03*
D22*
X173770000Y-150675000D03*
D18*
X173830000Y-150290000D03*
D17*
X174090000Y-150500000D03*
D10*
X174090000Y-151020000D03*
D20*
X174090000Y-151020000D03*
D17*
X171030000Y-142310000D03*
D12*
X171040000Y-141470000D03*
D16*
X171040000Y-142270000D03*
D18*
X171290000Y-141220000D03*
D19*
X171290000Y-141810000D03*
D11*
X171540000Y-141470000D03*
D15*
X171540000Y-142270000D03*
D20*
X171540000Y-142310000D03*
D13*
X178440000Y-125360000D03*
D17*
X178650000Y-125620000D03*
D22*
X178850000Y-125275000D03*
D18*
X178910000Y-124890000D03*
D17*
X179170000Y-125100000D03*
D20*
X179170000Y-125620000D03*
D10*
X179170000Y-125620000D03*
X178080000Y-143400000D03*
D11*
X177240000Y-143390000D03*
D12*
X178040000Y-143390000D03*
D13*
X176990000Y-143140000D03*
D14*
X177580000Y-143140000D03*
D15*
X177240000Y-142890000D03*
D16*
X178040000Y-142890000D03*
D17*
X178080000Y-142890000D03*
X163410000Y-152470000D03*
D12*
X163420000Y-151630000D03*
D16*
X163420000Y-152430000D03*
D18*
X163670000Y-151380000D03*
D19*
X163670000Y-151970000D03*
D11*
X163920000Y-151630000D03*
D15*
X163920000Y-152430000D03*
D20*
X163920000Y-152470000D03*
D21*
X147160000Y-146950000D03*
D10*
X145060000Y-156100000D03*
D11*
X144220000Y-156090000D03*
D12*
X145020000Y-156090000D03*
D13*
X143970000Y-155840000D03*
D14*
X144560000Y-155840000D03*
D15*
X144220000Y-155590000D03*
D16*
X145020000Y-155590000D03*
D17*
X145060000Y-155590000D03*
D10*
X157760000Y-148480000D03*
D11*
X156920000Y-148470000D03*
D12*
X157720000Y-148470000D03*
D13*
X156670000Y-148220000D03*
D14*
X157260000Y-148220000D03*
D15*
X156920000Y-147970000D03*
D16*
X157720000Y-147970000D03*
D17*
X157760000Y-147970000D03*
X173570000Y-144850000D03*
D12*
X173580000Y-144010000D03*
D16*
X173580000Y-144810000D03*
D18*
X173830000Y-143760000D03*
D19*
X173830000Y-144350000D03*
D11*
X174080000Y-144010000D03*
D15*
X174080000Y-144810000D03*
D20*
X174080000Y-144850000D03*
D10*
X183160000Y-128160000D03*
D11*
X182320000Y-128150000D03*
D12*
X183120000Y-128150000D03*
D13*
X182070000Y-127900000D03*
D14*
X182660000Y-127900000D03*
D15*
X182320000Y-127650000D03*
D16*
X183120000Y-127650000D03*
D17*
X183160000Y-127650000D03*
X150710000Y-142310000D03*
D12*
X150720000Y-141470000D03*
D16*
X150720000Y-142270000D03*
D18*
X150970000Y-141220000D03*
D19*
X150970000Y-141810000D03*
D11*
X151220000Y-141470000D03*
D15*
X151220000Y-142270000D03*
D20*
X151220000Y-142310000D03*
D17*
X181190000Y-124530000D03*
D12*
X181200000Y-123690000D03*
D16*
X181200000Y-124490000D03*
D18*
X181450000Y-123440000D03*
D19*
X181450000Y-124030000D03*
D11*
X181700000Y-123690000D03*
D15*
X181700000Y-124490000D03*
D20*
X181700000Y-124530000D03*
D21*
X144620000Y-139330000D03*
X187800000Y-141870000D03*
X167480000Y-136790000D03*
D17*
X183730000Y-142310000D03*
D12*
X183740000Y-141470000D03*
D16*
X183740000Y-142270000D03*
D18*
X183990000Y-141220000D03*
D19*
X183990000Y-141810000D03*
D11*
X184240000Y-141470000D03*
D15*
X184240000Y-142270000D03*
D20*
X184240000Y-142310000D03*
D10*
X175540000Y-128160000D03*
D11*
X174700000Y-128150000D03*
D12*
X175500000Y-128150000D03*
D13*
X174450000Y-127900000D03*
D14*
X175040000Y-127900000D03*
D15*
X174700000Y-127650000D03*
D16*
X175500000Y-127650000D03*
D17*
X175540000Y-127650000D03*
D13*
X150500000Y-127900000D03*
D17*
X150710000Y-128160000D03*
D22*
X150910000Y-127815000D03*
D18*
X150970000Y-127430000D03*
D17*
X151230000Y-127640000D03*
D10*
X151230000Y-128160000D03*
D20*
X151230000Y-128160000D03*
D13*
X158120000Y-140600000D03*
D17*
X158330000Y-140860000D03*
D22*
X158530000Y-140515000D03*
D18*
X158590000Y-140130000D03*
D17*
X158850000Y-140340000D03*
D20*
X158850000Y-140860000D03*
D10*
X158850000Y-140860000D03*
D21*
X180180000Y-124090000D03*
D17*
X163410000Y-139770000D03*
D12*
X163420000Y-138930000D03*
D16*
X163420000Y-139730000D03*
D18*
X163670000Y-138680000D03*
D19*
X163670000Y-139270000D03*
D11*
X163920000Y-138930000D03*
D15*
X163920000Y-139730000D03*
D20*
X163920000Y-139770000D03*
D17*
X160870000Y-132150000D03*
D12*
X160880000Y-131310000D03*
D16*
X160880000Y-132110000D03*
D18*
X161130000Y-131060000D03*
D19*
X161130000Y-131650000D03*
D11*
X161380000Y-131310000D03*
D15*
X161380000Y-132110000D03*
D20*
X161380000Y-132150000D03*
D23*
X136238000Y-136790000D03*
D21*
X152240000Y-124090000D03*
D17*
X163410000Y-155010000D03*
D12*
X163420000Y-154170000D03*
D16*
X163420000Y-154970000D03*
D18*
X163670000Y-153920000D03*
D19*
X163670000Y-154510000D03*
D11*
X163920000Y-154170000D03*
D15*
X163920000Y-154970000D03*
D20*
X163920000Y-155010000D03*
D17*
X155790000Y-142310000D03*
D12*
X155800000Y-141470000D03*
D16*
X155800000Y-142270000D03*
D18*
X156050000Y-141220000D03*
D19*
X156050000Y-141810000D03*
D11*
X156300000Y-141470000D03*
D15*
X156300000Y-142270000D03*
D20*
X156300000Y-142310000D03*
D21*
X170020000Y-129170000D03*
X152240000Y-157110000D03*
D17*
X178650000Y-142310000D03*
D12*
X178660000Y-141470000D03*
D16*
X178660000Y-142270000D03*
D18*
X178910000Y-141220000D03*
D19*
X178910000Y-141810000D03*
D11*
X179160000Y-141470000D03*
D15*
X179160000Y-142270000D03*
D20*
X179160000Y-142310000D03*
D13*
X142880000Y-127900000D03*
D17*
X143090000Y-128160000D03*
D22*
X143290000Y-127815000D03*
D18*
X143350000Y-127430000D03*
D17*
X143610000Y-127640000D03*
D10*
X143610000Y-128160000D03*
D20*
X143610000Y-128160000D03*
D10*
X147600000Y-130700000D03*
D11*
X146760000Y-130690000D03*
D12*
X147560000Y-130690000D03*
D13*
X146510000Y-130440000D03*
D14*
X147100000Y-130440000D03*
D15*
X146760000Y-130190000D03*
D16*
X147560000Y-130190000D03*
D17*
X147600000Y-130190000D03*
D21*
X164940000Y-134250000D03*
X167480000Y-131710000D03*
X187800000Y-129170000D03*
D17*
X160870000Y-137230000D03*
D12*
X160880000Y-136390000D03*
D16*
X160880000Y-137190000D03*
D18*
X161130000Y-136140000D03*
D19*
X161130000Y-136730000D03*
D11*
X161380000Y-136390000D03*
D15*
X161380000Y-137190000D03*
D20*
X161380000Y-137230000D03*
D21*
X157320000Y-136790000D03*
D10*
X160300000Y-143400000D03*
D11*
X159460000Y-143390000D03*
D12*
X160260000Y-143390000D03*
D13*
X159210000Y-143140000D03*
D14*
X159800000Y-143140000D03*
D15*
X159460000Y-142890000D03*
D16*
X160260000Y-142890000D03*
D17*
X160300000Y-142890000D03*
X171030000Y-139770000D03*
D12*
X171040000Y-138930000D03*
D16*
X171040000Y-139730000D03*
D18*
X171290000Y-138680000D03*
D19*
X171290000Y-139270000D03*
D11*
X171540000Y-138930000D03*
D15*
X171540000Y-139730000D03*
D20*
X171540000Y-139770000D03*
D10*
X157760000Y-143400000D03*
D11*
X156920000Y-143390000D03*
D12*
X157720000Y-143390000D03*
D13*
X156670000Y-143140000D03*
D14*
X157260000Y-143140000D03*
D15*
X156920000Y-142890000D03*
D16*
X157720000Y-142890000D03*
D17*
X157760000Y-142890000D03*
X165950000Y-147390000D03*
D12*
X165960000Y-146550000D03*
D16*
X165960000Y-147350000D03*
D18*
X166210000Y-146300000D03*
D19*
X166210000Y-146890000D03*
D11*
X166460000Y-146550000D03*
D15*
X166460000Y-147350000D03*
D20*
X166460000Y-147390000D03*
D13*
X150500000Y-130440000D03*
D17*
X150710000Y-130700000D03*
D22*
X150910000Y-130355000D03*
D18*
X150970000Y-129970000D03*
D17*
X151230000Y-130180000D03*
D10*
X151230000Y-130700000D03*
D20*
X151230000Y-130700000D03*
D21*
X177640000Y-152030000D03*
X182720000Y-136790000D03*
D13*
X180980000Y-138060000D03*
D17*
X181190000Y-138320000D03*
D22*
X181390000Y-137975000D03*
D18*
X181450000Y-137590000D03*
D17*
X181710000Y-137800000D03*
D10*
X181710000Y-138320000D03*
D20*
X181710000Y-138320000D03*
D21*
X175100000Y-157110000D03*
D17*
X183730000Y-139770000D03*
D12*
X183740000Y-138930000D03*
D16*
X183740000Y-139730000D03*
D18*
X183990000Y-138680000D03*
D19*
X183990000Y-139270000D03*
D11*
X184240000Y-138930000D03*
D15*
X184240000Y-139730000D03*
D20*
X184240000Y-139770000D03*
D21*
X187800000Y-134250000D03*
D17*
X171030000Y-127070000D03*
D12*
X171040000Y-126230000D03*
D16*
X171040000Y-127030000D03*
D18*
X171290000Y-125980000D03*
D19*
X171290000Y-126570000D03*
D11*
X171540000Y-126230000D03*
D15*
X171540000Y-127030000D03*
D20*
X171540000Y-127070000D03*
D13*
X160660000Y-143140000D03*
D17*
X160870000Y-143400000D03*
D22*
X161070000Y-143055000D03*
D18*
X161130000Y-142670000D03*
D17*
X161390000Y-142880000D03*
D10*
X161390000Y-143400000D03*
D20*
X161390000Y-143400000D03*
D10*
X185700000Y-140860000D03*
D11*
X184860000Y-140850000D03*
D12*
X185660000Y-140850000D03*
D13*
X184610000Y-140600000D03*
D14*
X185200000Y-140600000D03*
D15*
X184860000Y-140350000D03*
D16*
X185660000Y-140350000D03*
D17*
X185700000Y-140350000D03*
D21*
X177640000Y-157110000D03*
D23*
X191102000Y-126630000D03*
D21*
X187800000Y-144410000D03*
X187800000Y-126630000D03*
X144620000Y-141870000D03*
D13*
X180980000Y-130440000D03*
D17*
X181190000Y-130700000D03*
D22*
X181390000Y-130355000D03*
D18*
X181450000Y-129970000D03*
D17*
X181710000Y-130180000D03*
D10*
X181710000Y-130700000D03*
D20*
X181710000Y-130700000D03*
D10*
X170460000Y-135780000D03*
D11*
X169620000Y-135770000D03*
D12*
X170420000Y-135770000D03*
D13*
X169370000Y-135520000D03*
D14*
X169960000Y-135520000D03*
D15*
X169620000Y-135270000D03*
D16*
X170420000Y-135270000D03*
D17*
X170460000Y-135270000D03*
D10*
X155220000Y-156100000D03*
D11*
X154380000Y-156090000D03*
D12*
X155180000Y-156090000D03*
D13*
X154130000Y-155840000D03*
D14*
X154720000Y-155840000D03*
D15*
X154380000Y-155590000D03*
D16*
X155180000Y-155590000D03*
D17*
X155220000Y-155590000D03*
D21*
X177640000Y-124090000D03*
D10*
X180620000Y-145940000D03*
D11*
X179780000Y-145930000D03*
D12*
X180580000Y-145930000D03*
D13*
X179530000Y-145680000D03*
D14*
X180120000Y-145680000D03*
D15*
X179780000Y-145430000D03*
D16*
X180580000Y-145430000D03*
D17*
X180620000Y-145430000D03*
D10*
X178080000Y-153560000D03*
D11*
X177240000Y-153550000D03*
D12*
X178040000Y-153550000D03*
D13*
X176990000Y-153300000D03*
D14*
X177580000Y-153300000D03*
D15*
X177240000Y-153050000D03*
D16*
X178040000Y-153050000D03*
D17*
X178080000Y-153050000D03*
D10*
X150140000Y-148480000D03*
D11*
X149300000Y-148470000D03*
D12*
X150100000Y-148470000D03*
D13*
X149050000Y-148220000D03*
D14*
X149640000Y-148220000D03*
D15*
X149300000Y-147970000D03*
D16*
X150100000Y-147970000D03*
D17*
X150140000Y-147970000D03*
D10*
X147600000Y-153560000D03*
D11*
X146760000Y-153550000D03*
D12*
X147560000Y-153550000D03*
D13*
X146510000Y-153300000D03*
D14*
X147100000Y-153300000D03*
D15*
X146760000Y-153050000D03*
D16*
X147560000Y-153050000D03*
D17*
X147600000Y-153050000D03*
D21*
X170020000Y-149490000D03*
D10*
X185700000Y-138320000D03*
D11*
X184860000Y-138310000D03*
D12*
X185660000Y-138310000D03*
D13*
X184610000Y-138060000D03*
D14*
X185200000Y-138060000D03*
D15*
X184860000Y-137810000D03*
D16*
X185660000Y-137810000D03*
D17*
X185700000Y-137810000D03*
D10*
X173000000Y-151020000D03*
D11*
X172160000Y-151010000D03*
D12*
X172960000Y-151010000D03*
D13*
X171910000Y-150760000D03*
D14*
X172500000Y-150760000D03*
D15*
X172160000Y-150510000D03*
D16*
X172960000Y-150510000D03*
D17*
X173000000Y-150510000D03*
X186270000Y-127070000D03*
D12*
X186280000Y-126230000D03*
D16*
X186280000Y-127030000D03*
D18*
X186530000Y-125980000D03*
D19*
X186530000Y-126570000D03*
D11*
X186780000Y-126230000D03*
D15*
X186780000Y-127030000D03*
D20*
X186780000Y-127070000D03*
D21*
X172560000Y-146950000D03*
D10*
X167920000Y-156100000D03*
D11*
X167080000Y-156090000D03*
D12*
X167880000Y-156090000D03*
D13*
X166830000Y-155840000D03*
D14*
X167420000Y-155840000D03*
D15*
X167080000Y-155590000D03*
D16*
X167880000Y-155590000D03*
D17*
X167920000Y-155590000D03*
D13*
X178440000Y-155840000D03*
D17*
X178650000Y-156100000D03*
D22*
X178850000Y-155755000D03*
D18*
X178910000Y-155370000D03*
D17*
X179170000Y-155580000D03*
D20*
X179170000Y-156100000D03*
D10*
X179170000Y-156100000D03*
D21*
X152240000Y-131710000D03*
D17*
X150710000Y-155010000D03*
D12*
X150720000Y-154170000D03*
D16*
X150720000Y-154970000D03*
D18*
X150970000Y-153920000D03*
D19*
X150970000Y-154510000D03*
D11*
X151220000Y-154170000D03*
D15*
X151220000Y-154970000D03*
D20*
X151220000Y-155010000D03*
D17*
X173570000Y-134690000D03*
D12*
X173580000Y-133850000D03*
D16*
X173580000Y-134650000D03*
D18*
X173830000Y-133600000D03*
D19*
X173830000Y-134190000D03*
D11*
X174080000Y-133850000D03*
D15*
X174080000Y-134650000D03*
D20*
X174080000Y-134690000D03*
D10*
X170460000Y-156100000D03*
D11*
X169620000Y-156090000D03*
D12*
X170420000Y-156090000D03*
D13*
X169370000Y-155840000D03*
D14*
X169960000Y-155840000D03*
D15*
X169620000Y-155590000D03*
D16*
X170420000Y-155590000D03*
D17*
X170460000Y-155590000D03*
D10*
X167920000Y-153560000D03*
D11*
X167080000Y-153550000D03*
D12*
X167880000Y-153550000D03*
D13*
X166830000Y-153300000D03*
D14*
X167420000Y-153300000D03*
D15*
X167080000Y-153050000D03*
D16*
X167880000Y-153050000D03*
D17*
X167920000Y-153050000D03*
D13*
X186060000Y-125360000D03*
D17*
X186270000Y-125620000D03*
D22*
X186470000Y-125275000D03*
D18*
X186530000Y-124890000D03*
D17*
X186790000Y-125100000D03*
D20*
X186790000Y-125620000D03*
D10*
X186790000Y-125620000D03*
D17*
X181190000Y-149930000D03*
D12*
X181200000Y-149090000D03*
D16*
X181200000Y-149890000D03*
D18*
X181450000Y-148840000D03*
D19*
X181450000Y-149430000D03*
D11*
X181700000Y-149090000D03*
D15*
X181700000Y-149890000D03*
D20*
X181700000Y-149930000D03*
D10*
X145060000Y-128160000D03*
D11*
X144220000Y-128150000D03*
D12*
X145020000Y-128150000D03*
D13*
X143970000Y-127900000D03*
D14*
X144560000Y-127900000D03*
D15*
X144220000Y-127650000D03*
D16*
X145020000Y-127650000D03*
D17*
X145060000Y-127650000D03*
D13*
X147960000Y-130440000D03*
D17*
X148170000Y-130700000D03*
D22*
X148370000Y-130355000D03*
D18*
X148430000Y-129970000D03*
D17*
X148690000Y-130180000D03*
D20*
X148690000Y-130700000D03*
D10*
X148690000Y-130700000D03*
D13*
X175900000Y-138060000D03*
D17*
X176110000Y-138320000D03*
D22*
X176310000Y-137975000D03*
D18*
X176370000Y-137590000D03*
D17*
X176630000Y-137800000D03*
D20*
X176630000Y-138320000D03*
D10*
X176630000Y-138320000D03*
X183160000Y-140860000D03*
D11*
X182320000Y-140850000D03*
D12*
X183120000Y-140850000D03*
D13*
X182070000Y-140600000D03*
D14*
X182660000Y-140600000D03*
D15*
X182320000Y-140350000D03*
D16*
X183120000Y-140350000D03*
D17*
X183160000Y-140350000D03*
D13*
X163200000Y-148220000D03*
D17*
X163410000Y-148480000D03*
D22*
X163610000Y-148135000D03*
D18*
X163670000Y-147750000D03*
D17*
X163930000Y-147960000D03*
D10*
X163930000Y-148480000D03*
D20*
X163930000Y-148480000D03*
D17*
X148170000Y-152470000D03*
D12*
X148180000Y-151630000D03*
D16*
X148180000Y-152430000D03*
D18*
X148430000Y-151380000D03*
D19*
X148430000Y-151970000D03*
D11*
X148680000Y-151630000D03*
D15*
X148680000Y-152430000D03*
D20*
X148680000Y-152470000D03*
D13*
X142880000Y-153300000D03*
D17*
X143090000Y-153560000D03*
D22*
X143290000Y-153215000D03*
D18*
X143350000Y-152830000D03*
D17*
X143610000Y-153040000D03*
D20*
X143610000Y-153560000D03*
D10*
X143610000Y-153560000D03*
D13*
X168280000Y-145680000D03*
D17*
X168490000Y-145940000D03*
D22*
X168690000Y-145595000D03*
D18*
X168750000Y-145210000D03*
D17*
X169010000Y-145420000D03*
D20*
X169010000Y-145940000D03*
D10*
X169010000Y-145940000D03*
D21*
X167480000Y-126630000D03*
D13*
X140340000Y-150760000D03*
D17*
X140550000Y-151020000D03*
D22*
X140750000Y-150675000D03*
D18*
X140810000Y-150290000D03*
D17*
X141070000Y-150500000D03*
D20*
X141070000Y-151020000D03*
D10*
X141070000Y-151020000D03*
D13*
X170820000Y-155840000D03*
D17*
X171030000Y-156100000D03*
D22*
X171230000Y-155755000D03*
D18*
X171290000Y-155370000D03*
D17*
X171550000Y-155580000D03*
D20*
X171550000Y-156100000D03*
D10*
X171550000Y-156100000D03*
D17*
X171030000Y-144850000D03*
D12*
X171040000Y-144010000D03*
D16*
X171040000Y-144810000D03*
D18*
X171290000Y-143760000D03*
D19*
X171290000Y-144350000D03*
D11*
X171540000Y-144010000D03*
D15*
X171540000Y-144810000D03*
D20*
X171540000Y-144850000D03*
D17*
X148170000Y-142310000D03*
D12*
X148180000Y-141470000D03*
D16*
X148180000Y-142270000D03*
D18*
X148430000Y-141220000D03*
D19*
X148430000Y-141810000D03*
D11*
X148680000Y-141470000D03*
D15*
X148680000Y-142270000D03*
D20*
X148680000Y-142310000D03*
D13*
X150500000Y-153300000D03*
D17*
X150710000Y-153560000D03*
D22*
X150910000Y-153215000D03*
D18*
X150970000Y-152830000D03*
D17*
X151230000Y-153040000D03*
D20*
X151230000Y-153560000D03*
D10*
X151230000Y-153560000D03*
M02*
