M48
; DRILL file {KiCad 9.0.1} date 2025-05-07T17:10:43-0400
; FORMAT={-:-/ absolute / inch / decimal}
; #@! TF.CreationDate,2025-05-07T17:10:43-04:00
; #@! TF.GenerationSoftware,Kicad,Pcbnew,9.0.1
; #@! TF.FileFunction,Plated,1,2,PTH
FMAT,2
INCH
; #@! TA.AperFunction,Plated,PTH,ComponentDrill
T1C0.0315
%
G90
G05
T1
X5.4937Y-4.8854
X5.4937Y-4.8854
X5.4937Y-4.9854
X5.4937Y-4.9854
X5.4937Y-5.0854
X5.4937Y-5.0854
X5.4937Y-5.1854
X5.4937Y-5.1854
X5.4937Y-5.2854
X5.4937Y-5.2854
X5.4937Y-5.3854
X5.4937Y-5.3854
X5.4937Y-5.4854
X5.4937Y-5.4854
X5.4937Y-5.5854
X5.4937Y-5.5854
X5.4937Y-5.6854
X5.4937Y-5.6854
X5.4937Y-5.7854
X5.4937Y-5.7854
X5.4937Y-5.8854
X5.4937Y-5.8854
X5.4937Y-5.9854
X5.4937Y-5.9854
X5.4937Y-6.0854
X5.4937Y-6.0854
X5.4937Y-6.1854
X5.4937Y-6.1854
X5.5937Y-4.8854
X5.5937Y-4.8854
X5.5937Y-4.9854
X5.5937Y-4.9854
X5.5937Y-5.0854
X5.5937Y-5.0854
X5.5937Y-5.1854
X5.5937Y-5.1854
X5.5937Y-5.2854
X5.5937Y-5.2854
X5.5937Y-5.3854
X5.5937Y-5.3854
X5.5937Y-5.4854
X5.5937Y-5.4854
X5.5937Y-5.5854
X5.5937Y-5.5854
X5.5937Y-5.6854
X5.5937Y-5.6854
X5.5937Y-5.7854
X5.5937Y-5.7854
X5.5937Y-5.8854
X5.5937Y-5.8854
X5.5937Y-5.9854
X5.5937Y-5.9854
X5.5937Y-6.0854
X5.5937Y-6.0854
X5.5937Y-6.1854
X5.5937Y-6.1854
X5.6937Y-4.8854
X5.6937Y-4.8854
X5.6937Y-4.9854
X5.6937Y-4.9854
X5.6937Y-5.0854
X5.6937Y-5.0854
X5.6937Y-5.1854
X5.6937Y-5.1854
X5.6937Y-5.2854
X5.6937Y-5.2854
X5.6937Y-5.3854
X5.6937Y-5.3854
X5.6937Y-5.4854
X5.6937Y-5.4854
X5.6937Y-5.5854
X5.6937Y-5.5854
X5.6937Y-5.6854
X5.6937Y-5.6854
X5.6937Y-5.7854
X5.6937Y-5.7854
X5.6937Y-5.8854
X5.6937Y-5.8854
X5.6937Y-5.9854
X5.6937Y-5.9854
X5.6937Y-6.0854
X5.6937Y-6.0854
X5.6937Y-6.1854
X5.6937Y-6.1854
X5.7937Y-4.8854
X5.7937Y-4.8854
X5.7937Y-4.9854
X5.7937Y-4.9854
X5.7937Y-5.0854
X5.7937Y-5.0854
X5.7937Y-5.1854
X5.7937Y-5.1854
X5.7937Y-5.2854
X5.7937Y-5.2854
X5.7937Y-5.3854
X5.7937Y-5.3854
X5.7937Y-5.4854
X5.7937Y-5.4854
X5.7937Y-5.5854
X5.7937Y-5.5854
X5.7937Y-5.6854
X5.7937Y-5.6854
X5.7937Y-5.7854
X5.7937Y-5.7854
X5.7937Y-5.8854
X5.7937Y-5.8854
X5.7937Y-5.9854
X5.7937Y-5.9854
X5.7937Y-6.0854
X5.7937Y-6.0854
X5.7937Y-6.1854
X5.7937Y-6.1854
X5.8937Y-4.8854
X5.8937Y-4.8854
X5.8937Y-4.9854
X5.8937Y-4.9854
X5.8937Y-5.0854
X5.8937Y-5.0854
X5.8937Y-5.1854
X5.8937Y-5.1854
X5.8937Y-5.2854
X5.8937Y-5.2854
X5.8937Y-5.3854
X5.8937Y-5.3854
X5.8937Y-5.4854
X5.8937Y-5.4854
X5.8937Y-5.5854
X5.8937Y-5.5854
X5.8937Y-5.6854
X5.8937Y-5.6854
X5.8937Y-5.7854
X5.8937Y-5.7854
X5.8937Y-5.8854
X5.8937Y-5.8854
X5.8937Y-5.9854
X5.8937Y-5.9854
X5.8937Y-6.0854
X5.8937Y-6.0854
X5.8937Y-6.1854
X5.8937Y-6.1854
X5.9937Y-4.8854
X5.9937Y-4.8854
X5.9937Y-4.9854
X5.9937Y-4.9854
X5.9937Y-5.0854
X5.9937Y-5.0854
X5.9937Y-5.1854
X5.9937Y-5.1854
X5.9937Y-5.2854
X5.9937Y-5.2854
X5.9937Y-5.3854
X5.9937Y-5.3854
X5.9937Y-5.4854
X5.9937Y-5.4854
X5.9937Y-5.5854
X5.9937Y-5.5854
X5.9937Y-5.6854
X5.9937Y-5.6854
X5.9937Y-5.7854
X5.9937Y-5.7854
X5.9937Y-5.8854
X5.9937Y-5.8854
X5.9937Y-5.9854
X5.9937Y-5.9854
X5.9937Y-6.0854
X5.9937Y-6.0854
X5.9937Y-6.1854
X5.9937Y-6.1854
X6.0937Y-4.8854
X6.0937Y-4.8854
X6.0937Y-4.9854
X6.0937Y-4.9854
X6.0937Y-5.0854
X6.0937Y-5.0854
X6.0937Y-5.1854
X6.0937Y-5.1854
X6.0937Y-5.2854
X6.0937Y-5.2854
X6.0937Y-5.3854
X6.0937Y-5.3854
X6.0937Y-5.4854
X6.0937Y-5.4854
X6.0937Y-5.5854
X6.0937Y-5.5854
X6.0937Y-5.6854
X6.0937Y-5.6854
X6.0937Y-5.7854
X6.0937Y-5.7854
X6.0937Y-5.8854
X6.0937Y-5.8854
X6.0937Y-5.9854
X6.0937Y-5.9854
X6.0937Y-6.0854
X6.0937Y-6.0854
X6.0937Y-6.1854
X6.0937Y-6.1854
X6.1937Y-4.8854
X6.1937Y-4.8854
X6.1937Y-4.9854
X6.1937Y-4.9854
X6.1937Y-5.0854
X6.1937Y-5.0854
X6.1937Y-5.1854
X6.1937Y-5.1854
X6.1937Y-5.2854
X6.1937Y-5.2854
X6.1937Y-5.3854
X6.1937Y-5.3854
X6.1937Y-5.4854
X6.1937Y-5.4854
X6.1937Y-5.5854
X6.1937Y-5.5854
X6.1937Y-5.6854
X6.1937Y-5.6854
X6.1937Y-5.7854
X6.1937Y-5.7854
X6.1937Y-5.8854
X6.1937Y-5.8854
X6.1937Y-5.9854
X6.1937Y-5.9854
X6.1937Y-6.0854
X6.1937Y-6.0854
X6.1937Y-6.1854
X6.1937Y-6.1854
X6.2937Y-4.8854
X6.2937Y-4.8854
X6.2937Y-4.9854
X6.2937Y-4.9854
X6.2937Y-5.0854
X6.2937Y-5.0854
X6.2937Y-5.1854
X6.2937Y-5.1854
X6.2937Y-5.2854
X6.2937Y-5.2854
X6.2937Y-5.3854
X6.2937Y-5.3854
X6.2937Y-5.4854
X6.2937Y-5.4854
X6.2937Y-5.5854
X6.2937Y-5.5854
X6.2937Y-5.6854
X6.2937Y-5.6854
X6.2937Y-5.7854
X6.2937Y-5.7854
X6.2937Y-5.8854
X6.2937Y-5.8854
X6.2937Y-5.9854
X6.2937Y-5.9854
X6.2937Y-6.0854
X6.2937Y-6.0854
X6.2937Y-6.1854
X6.2937Y-6.1854
X6.3937Y-4.8854
X6.3937Y-4.8854
X6.3937Y-4.9854
X6.3937Y-4.9854
X6.3937Y-5.0854
X6.3937Y-5.0854
X6.3937Y-5.1854
X6.3937Y-5.1854
X6.3937Y-5.2854
X6.3937Y-5.2854
X6.3937Y-5.3854
X6.3937Y-5.3854
X6.3937Y-5.4854
X6.3937Y-5.4854
X6.3937Y-5.5854
X6.3937Y-5.5854
X6.3937Y-5.6854
X6.3937Y-5.6854
X6.3937Y-5.7854
X6.3937Y-5.7854
X6.3937Y-5.8854
X6.3937Y-5.8854
X6.3937Y-5.9854
X6.3937Y-5.9854
X6.3937Y-6.0854
X6.3937Y-6.0854
X6.3937Y-6.1854
X6.3937Y-6.1854
X6.4937Y-4.8854
X6.4937Y-4.8854
X6.4937Y-4.9854
X6.4937Y-4.9854
X6.4937Y-5.0854
X6.4937Y-5.0854
X6.4937Y-5.1854
X6.4937Y-5.1854
X6.4937Y-5.2854
X6.4937Y-5.2854
X6.4937Y-5.3854
X6.4937Y-5.3854
X6.4937Y-5.4854
X6.4937Y-5.4854
X6.4937Y-5.5854
X6.4937Y-5.5854
X6.4937Y-5.6854
X6.4937Y-5.6854
X6.4937Y-5.7854
X6.4937Y-5.7854
X6.4937Y-5.8854
X6.4937Y-5.8854
X6.4937Y-5.9854
X6.4937Y-5.9854
X6.4937Y-6.0854
X6.4937Y-6.0854
X6.4937Y-6.1854
X6.4937Y-6.1854
X6.5937Y-4.8854
X6.5937Y-4.8854
X6.5937Y-4.9854
X6.5937Y-4.9854
X6.5937Y-5.0854
X6.5937Y-5.0854
X6.5937Y-5.1854
X6.5937Y-5.1854
X6.5937Y-5.2854
X6.5937Y-5.2854
X6.5937Y-5.3854
X6.5937Y-5.3854
X6.5937Y-5.4854
X6.5937Y-5.4854
X6.5937Y-5.5854
X6.5937Y-5.5854
X6.5937Y-5.6854
X6.5937Y-5.6854
X6.5937Y-5.7854
X6.5937Y-5.7854
X6.5937Y-5.8854
X6.5937Y-5.8854
X6.5937Y-5.9854
X6.5937Y-5.9854
X6.5937Y-6.0854
X6.5937Y-6.0854
X6.5937Y-6.1854
X6.5937Y-6.1854
X6.6937Y-4.8854
X6.6937Y-4.8854
X6.6937Y-4.9854
X6.6937Y-4.9854
X6.6937Y-5.0854
X6.6937Y-5.0854
X6.6937Y-5.1854
X6.6937Y-5.1854
X6.6937Y-5.2854
X6.6937Y-5.2854
X6.6937Y-5.3854
X6.6937Y-5.3854
X6.6937Y-5.4854
X6.6937Y-5.4854
X6.6937Y-5.5854
X6.6937Y-5.5854
X6.6937Y-5.6854
X6.6937Y-5.6854
X6.6937Y-5.7854
X6.6937Y-5.7854
X6.6937Y-5.8854
X6.6937Y-5.8854
X6.6937Y-5.9854
X6.6937Y-5.9854
X6.6937Y-6.0854
X6.6937Y-6.0854
X6.6937Y-6.1854
X6.6937Y-6.1854
X6.7937Y-4.8854
X6.7937Y-4.8854
X6.7937Y-4.9854
X6.7937Y-4.9854
X6.7937Y-5.0854
X6.7937Y-5.0854
X6.7937Y-5.1854
X6.7937Y-5.1854
X6.7937Y-5.2854
X6.7937Y-5.2854
X6.7937Y-5.3854
X6.7937Y-5.3854
X6.7937Y-5.4854
X6.7937Y-5.4854
X6.7937Y-5.5854
X6.7937Y-5.5854
X6.7937Y-5.6854
X6.7937Y-5.6854
X6.7937Y-5.7854
X6.7937Y-5.7854
X6.7937Y-5.8854
X6.7937Y-5.8854
X6.7937Y-5.9854
X6.7937Y-5.9854
X6.7937Y-6.0854
X6.7937Y-6.0854
X6.7937Y-6.1854
X6.7937Y-6.1854
X6.8937Y-4.8854
X6.8937Y-4.8854
X6.8937Y-4.9854
X6.8937Y-4.9854
X6.8937Y-5.0854
X6.8937Y-5.0854
X6.8937Y-5.1854
X6.8937Y-5.1854
X6.8937Y-5.2854
X6.8937Y-5.2854
X6.8937Y-5.3854
X6.8937Y-5.3854
X6.8937Y-5.4854
X6.8937Y-5.4854
X6.8937Y-5.5854
X6.8937Y-5.5854
X6.8937Y-5.6854
X6.8937Y-5.6854
X6.8937Y-5.7854
X6.8937Y-5.7854
X6.8937Y-5.8854
X6.8937Y-5.8854
X6.8937Y-5.9854
X6.8937Y-5.9854
X6.8937Y-6.0854
X6.8937Y-6.0854
X6.8937Y-6.1854
X6.8937Y-6.1854
X6.9937Y-4.8854
X6.9937Y-4.8854
X6.9937Y-4.9854
X6.9937Y-4.9854
X6.9937Y-5.0854
X6.9937Y-5.0854
X6.9937Y-5.1854
X6.9937Y-5.1854
X6.9937Y-5.2854
X6.9937Y-5.2854
X6.9937Y-5.3854
X6.9937Y-5.3854
X6.9937Y-5.4854
X6.9937Y-5.4854
X6.9937Y-5.5854
X6.9937Y-5.5854
X6.9937Y-5.6854
X6.9937Y-5.6854
X6.9937Y-5.7854
X6.9937Y-5.7854
X6.9937Y-5.8854
X6.9937Y-5.8854
X6.9937Y-5.9854
X6.9937Y-5.9854
X6.9937Y-6.0854
X6.9937Y-6.0854
X6.9937Y-6.1854
X6.9937Y-6.1854
X7.0937Y-4.8854
X7.0937Y-4.8854
X7.0937Y-4.9854
X7.0937Y-4.9854
X7.0937Y-5.0854
X7.0937Y-5.0854
X7.0937Y-5.1854
X7.0937Y-5.1854
X7.0937Y-5.2854
X7.0937Y-5.2854
X7.0937Y-5.3854
X7.0937Y-5.3854
X7.0937Y-5.4854
X7.0937Y-5.4854
X7.0937Y-5.5854
X7.0937Y-5.5854
X7.0937Y-5.6854
X7.0937Y-5.6854
X7.0937Y-5.7854
X7.0937Y-5.7854
X7.0937Y-5.8854
X7.0937Y-5.8854
X7.0937Y-5.9854
X7.0937Y-5.9854
X7.0937Y-6.0854
X7.0937Y-6.0854
X7.0937Y-6.1854
X7.0937Y-6.1854
X7.1937Y-4.8854
X7.1937Y-4.8854
X7.1937Y-4.9854
X7.1937Y-4.9854
X7.1937Y-5.0854
X7.1937Y-5.0854
X7.1937Y-5.1854
X7.1937Y-5.1854
X7.1937Y-5.2854
X7.1937Y-5.2854
X7.1937Y-5.3854
X7.1937Y-5.3854
X7.1937Y-5.4854
X7.1937Y-5.4854
X7.1937Y-5.5854
X7.1937Y-5.5854
X7.1937Y-5.6854
X7.1937Y-5.6854
X7.1937Y-5.7854
X7.1937Y-5.7854
X7.1937Y-5.8854
X7.1937Y-5.8854
X7.1937Y-5.9854
X7.1937Y-5.9854
X7.1937Y-6.0854
X7.1937Y-6.0854
X7.1937Y-6.1854
X7.1937Y-6.1854
X7.2937Y-4.8854
X7.2937Y-4.8854
X7.2937Y-4.9854
X7.2937Y-4.9854
X7.2937Y-5.0854
X7.2937Y-5.0854
X7.2937Y-5.1854
X7.2937Y-5.1854
X7.2937Y-5.2854
X7.2937Y-5.2854
X7.2937Y-5.3854
X7.2937Y-5.3854
X7.2937Y-5.4854
X7.2937Y-5.4854
X7.2937Y-5.5854
X7.2937Y-5.5854
X7.2937Y-5.6854
X7.2937Y-5.6854
X7.2937Y-5.7854
X7.2937Y-5.7854
X7.2937Y-5.8854
X7.2937Y-5.8854
X7.2937Y-5.9854
X7.2937Y-5.9854
X7.2937Y-6.0854
X7.2937Y-6.0854
X7.2937Y-6.1854
X7.2937Y-6.1854
X7.3937Y-4.8854
X7.3937Y-4.8854
X7.3937Y-4.9854
X7.3937Y-4.9854
X7.3937Y-5.0854
X7.3937Y-5.0854
X7.3937Y-5.1854
X7.3937Y-5.1854
X7.3937Y-5.2854
X7.3937Y-5.2854
X7.3937Y-5.3854
X7.3937Y-5.3854
X7.3937Y-5.4854
X7.3937Y-5.4854
X7.3937Y-5.5854
X7.3937Y-5.5854
X7.3937Y-5.6854
X7.3937Y-5.6854
X7.3937Y-5.7854
X7.3937Y-5.7854
X7.3937Y-5.8854
X7.3937Y-5.8854
X7.3937Y-5.9854
X7.3937Y-5.9854
X7.3937Y-6.0854
X7.3937Y-6.0854
X7.3937Y-6.1854
X7.3937Y-6.1854
M30
