G04 #@! TF.GenerationSoftware,KiCad,Pcbnew,9.0.1*
G04 #@! TF.CreationDate,2025-05-07T17:10:41-04:00*
G04 #@! TF.ProjectId,matrix-protoboard_14x20,6d617472-6978-42d7-9072-6f746f626f61,rev?*
G04 #@! TF.SameCoordinates,Original*
G04 #@! TF.FileFunction,Soldermask,Top*
G04 #@! TF.FilePolarity,Negative*
%FSLAX46Y46*%
G04 Gerber Fmt 4.6, Leading zero omitted, Abs format (unit mm)*
G04 Created by KiCad (PCBNEW 9.0.1) date 2025-05-07 17:10:41*
%MOMM*%
%LPD*%
G01*
G04 APERTURE LIST*
G04 APERTURE END LIST*
G36*
X136503479Y-156735919D02*
G01*
X136697488Y-156798957D01*
X136879248Y-156891568D01*
X137044282Y-157011472D01*
X137188528Y-157155718D01*
X137308432Y-157320752D01*
X137401043Y-157502512D01*
X137464081Y-157696521D01*
X137495993Y-157898003D01*
X137495993Y-158101997D01*
X137464081Y-158303479D01*
X137401043Y-158497488D01*
X137308432Y-158679248D01*
X137188528Y-158844282D01*
X137044282Y-158988528D01*
X136879248Y-159108432D01*
X136697488Y-159201043D01*
X136503479Y-159264081D01*
X136301997Y-159295993D01*
X136098003Y-159295993D01*
X135896521Y-159264081D01*
X135702512Y-159201043D01*
X135520752Y-159108432D01*
X135355718Y-158988528D01*
X135211472Y-158844282D01*
X135091568Y-158679248D01*
X134998957Y-158497488D01*
X134935919Y-158303479D01*
X134904007Y-158101997D01*
X134904007Y-157898003D01*
X134935919Y-157696521D01*
X134998957Y-157502512D01*
X135091568Y-157320752D01*
X135211472Y-157155718D01*
X135355718Y-157011472D01*
X135520752Y-156891568D01*
X135702512Y-156798957D01*
X135896521Y-156735919D01*
X136098003Y-156704007D01*
X136301997Y-156704007D01*
X136503479Y-156735919D01*
G37*
G36*
X191303479Y-156735919D02*
G01*
X191497488Y-156798957D01*
X191679248Y-156891568D01*
X191844282Y-157011472D01*
X191988528Y-157155718D01*
X192108432Y-157320752D01*
X192201043Y-157502512D01*
X192264081Y-157696521D01*
X192295993Y-157898003D01*
X192295993Y-158101997D01*
X192264081Y-158303479D01*
X192201043Y-158497488D01*
X192108432Y-158679248D01*
X191988528Y-158844282D01*
X191844282Y-158988528D01*
X191679248Y-159108432D01*
X191497488Y-159201043D01*
X191303479Y-159264081D01*
X191101997Y-159295993D01*
X190898003Y-159295993D01*
X190696521Y-159264081D01*
X190502512Y-159201043D01*
X190320752Y-159108432D01*
X190155718Y-158988528D01*
X190011472Y-158844282D01*
X189891568Y-158679248D01*
X189798957Y-158497488D01*
X189735919Y-158303479D01*
X189704007Y-158101997D01*
X189704007Y-157898003D01*
X189735919Y-157696521D01*
X189798957Y-157502512D01*
X189891568Y-157320752D01*
X190011472Y-157155718D01*
X190155718Y-157011472D01*
X190320752Y-156891568D01*
X190502512Y-156798957D01*
X190696521Y-156735919D01*
X190898003Y-156704007D01*
X191101997Y-156704007D01*
X191303479Y-156735919D01*
G37*
G36*
X140849082Y-123068846D02*
G01*
X140921176Y-123098714D01*
X140951492Y-123123598D01*
X141202621Y-123374800D01*
X141239369Y-123390028D01*
X141353599Y-123390048D01*
X141353613Y-123390049D01*
X141359956Y-123390051D01*
X141371333Y-123392315D01*
X141407081Y-123396887D01*
X141416487Y-123401304D01*
X141436472Y-123405282D01*
X141444766Y-123410825D01*
X141490285Y-123407404D01*
X141507305Y-123396031D01*
X141509046Y-123394291D01*
X141655743Y-123296271D01*
X141818744Y-123228754D01*
X141991785Y-123194334D01*
X142168215Y-123194334D01*
X142341256Y-123228754D01*
X142504257Y-123296271D01*
X142650954Y-123394291D01*
X142652695Y-123396032D01*
X142669713Y-123407403D01*
X142715230Y-123410825D01*
X142723527Y-123405281D01*
X142743508Y-123401303D01*
X142752913Y-123396888D01*
X142788642Y-123392320D01*
X142800045Y-123390051D01*
X142819275Y-123390047D01*
X142920629Y-123390029D01*
X142957378Y-123374800D01*
X143204827Y-123127281D01*
X143204827Y-123127280D01*
X143208507Y-123123600D01*
X143238824Y-123098714D01*
X143310917Y-123068846D01*
X143349951Y-123065000D01*
X143350050Y-123065000D01*
X143389082Y-123068846D01*
X143461176Y-123098714D01*
X143491492Y-123123598D01*
X143742621Y-123374800D01*
X143779369Y-123390028D01*
X143893599Y-123390048D01*
X143893613Y-123390049D01*
X143899956Y-123390051D01*
X143911333Y-123392315D01*
X143947081Y-123396887D01*
X143956487Y-123401304D01*
X143976472Y-123405282D01*
X143984766Y-123410825D01*
X144030285Y-123407404D01*
X144047305Y-123396031D01*
X144049046Y-123394291D01*
X144195743Y-123296271D01*
X144358744Y-123228754D01*
X144531785Y-123194334D01*
X144708215Y-123194334D01*
X144881256Y-123228754D01*
X145044257Y-123296271D01*
X145190954Y-123394291D01*
X145192695Y-123396032D01*
X145209713Y-123407403D01*
X145255230Y-123410825D01*
X145263527Y-123405281D01*
X145283508Y-123401303D01*
X145292913Y-123396888D01*
X145328642Y-123392320D01*
X145340045Y-123390051D01*
X145359275Y-123390047D01*
X145460629Y-123390029D01*
X145497378Y-123374800D01*
X145744827Y-123127281D01*
X145744827Y-123127280D01*
X145748507Y-123123600D01*
X145778824Y-123098714D01*
X145850917Y-123068846D01*
X145889951Y-123065000D01*
X145890050Y-123065000D01*
X145929082Y-123068846D01*
X146001176Y-123098714D01*
X146031492Y-123123598D01*
X146282621Y-123374800D01*
X146319369Y-123390028D01*
X146433599Y-123390048D01*
X146433613Y-123390049D01*
X146439956Y-123390051D01*
X146451333Y-123392315D01*
X146487081Y-123396887D01*
X146496487Y-123401304D01*
X146516472Y-123405282D01*
X146524766Y-123410825D01*
X146570285Y-123407404D01*
X146587305Y-123396031D01*
X146589046Y-123394291D01*
X146735743Y-123296271D01*
X146898744Y-123228754D01*
X147071785Y-123194334D01*
X147248215Y-123194334D01*
X147421256Y-123228754D01*
X147584257Y-123296271D01*
X147730954Y-123394291D01*
X147732695Y-123396032D01*
X147749713Y-123407403D01*
X147795230Y-123410825D01*
X147803527Y-123405281D01*
X147823508Y-123401303D01*
X147832913Y-123396888D01*
X147868642Y-123392320D01*
X147880045Y-123390051D01*
X147899275Y-123390047D01*
X148000629Y-123390029D01*
X148037378Y-123374800D01*
X148284827Y-123127281D01*
X148284827Y-123127280D01*
X148288507Y-123123600D01*
X148318824Y-123098714D01*
X148390917Y-123068846D01*
X148429951Y-123065000D01*
X148430050Y-123065000D01*
X148469082Y-123068846D01*
X148541176Y-123098714D01*
X148571492Y-123123598D01*
X148822621Y-123374800D01*
X148859369Y-123390028D01*
X148973599Y-123390048D01*
X148973613Y-123390049D01*
X148979956Y-123390051D01*
X148991333Y-123392315D01*
X149027081Y-123396887D01*
X149036487Y-123401304D01*
X149056472Y-123405282D01*
X149064766Y-123410825D01*
X149110285Y-123407404D01*
X149127305Y-123396031D01*
X149129046Y-123394291D01*
X149275743Y-123296271D01*
X149438744Y-123228754D01*
X149611785Y-123194334D01*
X149788215Y-123194334D01*
X149961256Y-123228754D01*
X150124257Y-123296271D01*
X150270954Y-123394291D01*
X150272695Y-123396032D01*
X150289713Y-123407403D01*
X150335230Y-123410825D01*
X150343527Y-123405281D01*
X150363508Y-123401303D01*
X150372913Y-123396888D01*
X150408642Y-123392320D01*
X150420045Y-123390051D01*
X150439275Y-123390047D01*
X150540629Y-123390029D01*
X150577378Y-123374800D01*
X150824827Y-123127281D01*
X150824827Y-123127280D01*
X150828507Y-123123600D01*
X150858824Y-123098714D01*
X150930917Y-123068846D01*
X150969951Y-123065000D01*
X150970050Y-123065000D01*
X151009082Y-123068846D01*
X151081176Y-123098714D01*
X151111492Y-123123598D01*
X151362621Y-123374800D01*
X151399369Y-123390028D01*
X151513599Y-123390048D01*
X151513613Y-123390049D01*
X151519956Y-123390051D01*
X151531333Y-123392315D01*
X151567081Y-123396887D01*
X151576487Y-123401304D01*
X151596472Y-123405282D01*
X151604766Y-123410825D01*
X151650285Y-123407404D01*
X151667305Y-123396031D01*
X151669046Y-123394291D01*
X151815743Y-123296271D01*
X151978744Y-123228754D01*
X152151785Y-123194334D01*
X152328215Y-123194334D01*
X152501256Y-123228754D01*
X152664257Y-123296271D01*
X152810954Y-123394291D01*
X152812695Y-123396032D01*
X152829713Y-123407403D01*
X152875230Y-123410825D01*
X152883527Y-123405281D01*
X152903508Y-123401303D01*
X152912913Y-123396888D01*
X152948642Y-123392320D01*
X152960045Y-123390051D01*
X152979275Y-123390047D01*
X153080629Y-123390029D01*
X153117378Y-123374800D01*
X153364827Y-123127281D01*
X153364827Y-123127280D01*
X153368507Y-123123600D01*
X153398824Y-123098714D01*
X153470917Y-123068846D01*
X153509951Y-123065000D01*
X153510050Y-123065000D01*
X153549082Y-123068846D01*
X153621176Y-123098714D01*
X153651492Y-123123598D01*
X153902621Y-123374800D01*
X153939369Y-123390028D01*
X154053599Y-123390048D01*
X154053613Y-123390049D01*
X154059956Y-123390051D01*
X154071333Y-123392315D01*
X154107081Y-123396887D01*
X154116487Y-123401304D01*
X154136472Y-123405282D01*
X154144766Y-123410825D01*
X154190285Y-123407404D01*
X154207305Y-123396031D01*
X154209046Y-123394291D01*
X154355743Y-123296271D01*
X154518744Y-123228754D01*
X154691785Y-123194334D01*
X154868215Y-123194334D01*
X155041256Y-123228754D01*
X155204257Y-123296271D01*
X155350954Y-123394291D01*
X155352695Y-123396032D01*
X155369713Y-123407403D01*
X155415230Y-123410825D01*
X155423527Y-123405281D01*
X155443508Y-123401303D01*
X155452913Y-123396888D01*
X155488642Y-123392320D01*
X155500045Y-123390051D01*
X155519275Y-123390047D01*
X155620629Y-123390029D01*
X155657378Y-123374800D01*
X155904827Y-123127281D01*
X155904827Y-123127280D01*
X155908507Y-123123600D01*
X155938824Y-123098714D01*
X156010917Y-123068846D01*
X156049951Y-123065000D01*
X156050050Y-123065000D01*
X156089082Y-123068846D01*
X156161176Y-123098714D01*
X156191492Y-123123598D01*
X156442621Y-123374800D01*
X156479369Y-123390028D01*
X156593599Y-123390048D01*
X156593613Y-123390049D01*
X156599956Y-123390051D01*
X156611333Y-123392315D01*
X156647081Y-123396887D01*
X156656487Y-123401304D01*
X156676472Y-123405282D01*
X156684766Y-123410825D01*
X156730285Y-123407404D01*
X156747305Y-123396031D01*
X156749046Y-123394291D01*
X156895743Y-123296271D01*
X157058744Y-123228754D01*
X157231785Y-123194334D01*
X157408215Y-123194334D01*
X157581256Y-123228754D01*
X157744257Y-123296271D01*
X157890954Y-123394291D01*
X157892695Y-123396032D01*
X157909713Y-123407403D01*
X157955230Y-123410825D01*
X157963527Y-123405281D01*
X157983508Y-123401303D01*
X157992913Y-123396888D01*
X158028642Y-123392320D01*
X158040045Y-123390051D01*
X158059275Y-123390047D01*
X158160629Y-123390029D01*
X158197378Y-123374800D01*
X158444827Y-123127281D01*
X158444827Y-123127280D01*
X158448507Y-123123600D01*
X158478824Y-123098714D01*
X158550917Y-123068846D01*
X158589951Y-123065000D01*
X158590050Y-123065000D01*
X158629082Y-123068846D01*
X158701176Y-123098714D01*
X158731492Y-123123598D01*
X158982621Y-123374800D01*
X159019369Y-123390028D01*
X159133599Y-123390048D01*
X159133613Y-123390049D01*
X159139956Y-123390051D01*
X159151333Y-123392315D01*
X159187081Y-123396887D01*
X159196487Y-123401304D01*
X159216472Y-123405282D01*
X159224766Y-123410825D01*
X159270285Y-123407404D01*
X159287305Y-123396031D01*
X159289046Y-123394291D01*
X159435743Y-123296271D01*
X159598744Y-123228754D01*
X159771785Y-123194334D01*
X159948215Y-123194334D01*
X160121256Y-123228754D01*
X160284257Y-123296271D01*
X160430954Y-123394291D01*
X160432695Y-123396032D01*
X160449713Y-123407403D01*
X160495230Y-123410825D01*
X160503527Y-123405281D01*
X160523508Y-123401303D01*
X160532913Y-123396888D01*
X160568642Y-123392320D01*
X160580045Y-123390051D01*
X160599275Y-123390047D01*
X160700629Y-123390029D01*
X160737378Y-123374800D01*
X160984827Y-123127281D01*
X160984827Y-123127280D01*
X160988507Y-123123600D01*
X161018824Y-123098714D01*
X161090917Y-123068846D01*
X161129951Y-123065000D01*
X161130050Y-123065000D01*
X161169082Y-123068846D01*
X161241176Y-123098714D01*
X161271492Y-123123598D01*
X161522621Y-123374800D01*
X161559369Y-123390028D01*
X161673599Y-123390048D01*
X161673613Y-123390049D01*
X161679956Y-123390051D01*
X161691333Y-123392315D01*
X161727081Y-123396887D01*
X161736487Y-123401304D01*
X161756472Y-123405282D01*
X161764766Y-123410825D01*
X161810285Y-123407404D01*
X161827305Y-123396031D01*
X161829046Y-123394291D01*
X161975743Y-123296271D01*
X162138744Y-123228754D01*
X162311785Y-123194334D01*
X162488215Y-123194334D01*
X162661256Y-123228754D01*
X162824257Y-123296271D01*
X162970954Y-123394291D01*
X162972695Y-123396032D01*
X162989713Y-123407403D01*
X163035230Y-123410825D01*
X163043527Y-123405281D01*
X163063508Y-123401303D01*
X163072913Y-123396888D01*
X163108642Y-123392320D01*
X163120045Y-123390051D01*
X163139275Y-123390047D01*
X163240629Y-123390029D01*
X163277378Y-123374800D01*
X163524827Y-123127281D01*
X163524827Y-123127280D01*
X163528507Y-123123600D01*
X163558824Y-123098714D01*
X163630917Y-123068846D01*
X163669951Y-123065000D01*
X163670050Y-123065000D01*
X163709082Y-123068846D01*
X163781176Y-123098714D01*
X163811492Y-123123598D01*
X164062621Y-123374800D01*
X164099369Y-123390028D01*
X164213599Y-123390048D01*
X164213613Y-123390049D01*
X164219956Y-123390051D01*
X164231333Y-123392315D01*
X164267081Y-123396887D01*
X164276487Y-123401304D01*
X164296472Y-123405282D01*
X164304766Y-123410825D01*
X164350285Y-123407404D01*
X164367305Y-123396031D01*
X164369046Y-123394291D01*
X164515743Y-123296271D01*
X164678744Y-123228754D01*
X164851785Y-123194334D01*
X165028215Y-123194334D01*
X165201256Y-123228754D01*
X165364257Y-123296271D01*
X165510954Y-123394291D01*
X165512695Y-123396032D01*
X165529713Y-123407403D01*
X165575230Y-123410825D01*
X165583527Y-123405281D01*
X165603508Y-123401303D01*
X165612913Y-123396888D01*
X165648642Y-123392320D01*
X165660045Y-123390051D01*
X165679275Y-123390047D01*
X165780629Y-123390029D01*
X165817378Y-123374800D01*
X166064827Y-123127281D01*
X166064827Y-123127280D01*
X166068507Y-123123600D01*
X166098824Y-123098714D01*
X166170917Y-123068846D01*
X166209951Y-123065000D01*
X166210050Y-123065000D01*
X166249082Y-123068846D01*
X166321176Y-123098714D01*
X166351492Y-123123598D01*
X166602621Y-123374800D01*
X166639369Y-123390028D01*
X166753599Y-123390048D01*
X166753613Y-123390049D01*
X166759956Y-123390051D01*
X166771333Y-123392315D01*
X166807081Y-123396887D01*
X166816487Y-123401304D01*
X166836472Y-123405282D01*
X166844766Y-123410825D01*
X166890285Y-123407404D01*
X166907305Y-123396031D01*
X166909046Y-123394291D01*
X167055743Y-123296271D01*
X167218744Y-123228754D01*
X167391785Y-123194334D01*
X167568215Y-123194334D01*
X167741256Y-123228754D01*
X167904257Y-123296271D01*
X168050954Y-123394291D01*
X168052695Y-123396032D01*
X168069713Y-123407403D01*
X168115230Y-123410825D01*
X168123527Y-123405281D01*
X168143508Y-123401303D01*
X168152913Y-123396888D01*
X168188642Y-123392320D01*
X168200045Y-123390051D01*
X168219275Y-123390047D01*
X168320629Y-123390029D01*
X168357378Y-123374800D01*
X168604827Y-123127281D01*
X168604827Y-123127280D01*
X168608507Y-123123600D01*
X168638824Y-123098714D01*
X168710917Y-123068846D01*
X168749951Y-123065000D01*
X168750050Y-123065000D01*
X168789082Y-123068846D01*
X168861176Y-123098714D01*
X168891492Y-123123598D01*
X169142621Y-123374800D01*
X169179369Y-123390028D01*
X169293599Y-123390048D01*
X169293613Y-123390049D01*
X169299956Y-123390051D01*
X169311333Y-123392315D01*
X169347081Y-123396887D01*
X169356487Y-123401304D01*
X169376472Y-123405282D01*
X169384766Y-123410825D01*
X169430285Y-123407404D01*
X169447305Y-123396031D01*
X169449046Y-123394291D01*
X169595743Y-123296271D01*
X169758744Y-123228754D01*
X169931785Y-123194334D01*
X170108215Y-123194334D01*
X170281256Y-123228754D01*
X170444257Y-123296271D01*
X170590954Y-123394291D01*
X170592695Y-123396032D01*
X170609713Y-123407403D01*
X170655230Y-123410825D01*
X170663527Y-123405281D01*
X170683508Y-123401303D01*
X170692913Y-123396888D01*
X170728642Y-123392320D01*
X170740045Y-123390051D01*
X170759275Y-123390047D01*
X170860629Y-123390029D01*
X170897378Y-123374800D01*
X171144827Y-123127281D01*
X171144827Y-123127280D01*
X171148507Y-123123600D01*
X171178824Y-123098714D01*
X171250917Y-123068846D01*
X171289951Y-123065000D01*
X171290050Y-123065000D01*
X171329082Y-123068846D01*
X171401176Y-123098714D01*
X171431492Y-123123598D01*
X171682621Y-123374800D01*
X171719369Y-123390028D01*
X171833599Y-123390048D01*
X171833613Y-123390049D01*
X171839956Y-123390051D01*
X171851333Y-123392315D01*
X171887081Y-123396887D01*
X171896487Y-123401304D01*
X171916472Y-123405282D01*
X171924766Y-123410825D01*
X171970285Y-123407404D01*
X171987305Y-123396031D01*
X171989046Y-123394291D01*
X172135743Y-123296271D01*
X172298744Y-123228754D01*
X172471785Y-123194334D01*
X172648215Y-123194334D01*
X172821256Y-123228754D01*
X172984257Y-123296271D01*
X173130954Y-123394291D01*
X173132695Y-123396032D01*
X173149713Y-123407403D01*
X173195230Y-123410825D01*
X173203527Y-123405281D01*
X173223508Y-123401303D01*
X173232913Y-123396888D01*
X173268642Y-123392320D01*
X173280045Y-123390051D01*
X173299275Y-123390047D01*
X173400629Y-123390029D01*
X173437378Y-123374800D01*
X173684827Y-123127281D01*
X173684827Y-123127280D01*
X173688507Y-123123600D01*
X173718824Y-123098714D01*
X173790917Y-123068846D01*
X173829951Y-123065000D01*
X173830050Y-123065000D01*
X173869082Y-123068846D01*
X173941176Y-123098714D01*
X173971492Y-123123598D01*
X174222621Y-123374800D01*
X174259369Y-123390028D01*
X174373599Y-123390048D01*
X174373613Y-123390049D01*
X174379956Y-123390051D01*
X174391333Y-123392315D01*
X174427081Y-123396887D01*
X174436487Y-123401304D01*
X174456472Y-123405282D01*
X174464766Y-123410825D01*
X174510285Y-123407404D01*
X174527305Y-123396031D01*
X174529046Y-123394291D01*
X174675743Y-123296271D01*
X174838744Y-123228754D01*
X175011785Y-123194334D01*
X175188215Y-123194334D01*
X175361256Y-123228754D01*
X175524257Y-123296271D01*
X175670954Y-123394291D01*
X175672695Y-123396032D01*
X175689713Y-123407403D01*
X175735230Y-123410825D01*
X175743527Y-123405281D01*
X175763508Y-123401303D01*
X175772913Y-123396888D01*
X175808642Y-123392320D01*
X175820045Y-123390051D01*
X175839275Y-123390047D01*
X175940629Y-123390029D01*
X175977378Y-123374800D01*
X176224827Y-123127281D01*
X176224827Y-123127280D01*
X176228507Y-123123600D01*
X176258824Y-123098714D01*
X176330917Y-123068846D01*
X176369951Y-123065000D01*
X176370050Y-123065000D01*
X176409082Y-123068846D01*
X176481176Y-123098714D01*
X176511492Y-123123598D01*
X176762621Y-123374800D01*
X176799369Y-123390028D01*
X176913599Y-123390048D01*
X176913613Y-123390049D01*
X176919956Y-123390051D01*
X176931333Y-123392315D01*
X176967081Y-123396887D01*
X176976487Y-123401304D01*
X176996472Y-123405282D01*
X177004766Y-123410825D01*
X177050285Y-123407404D01*
X177067305Y-123396031D01*
X177069046Y-123394291D01*
X177215743Y-123296271D01*
X177378744Y-123228754D01*
X177551785Y-123194334D01*
X177728215Y-123194334D01*
X177901256Y-123228754D01*
X178064257Y-123296271D01*
X178210954Y-123394291D01*
X178212695Y-123396032D01*
X178229713Y-123407403D01*
X178275230Y-123410825D01*
X178283527Y-123405281D01*
X178303508Y-123401303D01*
X178312913Y-123396888D01*
X178348642Y-123392320D01*
X178360045Y-123390051D01*
X178379275Y-123390047D01*
X178480629Y-123390029D01*
X178517378Y-123374800D01*
X178764827Y-123127281D01*
X178764827Y-123127280D01*
X178768507Y-123123600D01*
X178798824Y-123098714D01*
X178870917Y-123068846D01*
X178909951Y-123065000D01*
X178910050Y-123065000D01*
X178949082Y-123068846D01*
X179021176Y-123098714D01*
X179051492Y-123123598D01*
X179302621Y-123374800D01*
X179339369Y-123390028D01*
X179453599Y-123390048D01*
X179453613Y-123390049D01*
X179459956Y-123390051D01*
X179471333Y-123392315D01*
X179507081Y-123396887D01*
X179516487Y-123401304D01*
X179536472Y-123405282D01*
X179544766Y-123410825D01*
X179590285Y-123407404D01*
X179607305Y-123396031D01*
X179609046Y-123394291D01*
X179755743Y-123296271D01*
X179918744Y-123228754D01*
X180091785Y-123194334D01*
X180268215Y-123194334D01*
X180441256Y-123228754D01*
X180604257Y-123296271D01*
X180750954Y-123394291D01*
X180752695Y-123396032D01*
X180769713Y-123407403D01*
X180815230Y-123410825D01*
X180823527Y-123405281D01*
X180843508Y-123401303D01*
X180852913Y-123396888D01*
X180888642Y-123392320D01*
X180900045Y-123390051D01*
X180919275Y-123390047D01*
X181020629Y-123390029D01*
X181057378Y-123374800D01*
X181304827Y-123127281D01*
X181304827Y-123127280D01*
X181308507Y-123123600D01*
X181338824Y-123098714D01*
X181410917Y-123068846D01*
X181449951Y-123065000D01*
X181450050Y-123065000D01*
X181489082Y-123068846D01*
X181561176Y-123098714D01*
X181591492Y-123123598D01*
X181842621Y-123374800D01*
X181879369Y-123390028D01*
X181993599Y-123390048D01*
X181993613Y-123390049D01*
X181999956Y-123390051D01*
X182011333Y-123392315D01*
X182047081Y-123396887D01*
X182056487Y-123401304D01*
X182076472Y-123405282D01*
X182084766Y-123410825D01*
X182130285Y-123407404D01*
X182147305Y-123396031D01*
X182149046Y-123394291D01*
X182295743Y-123296271D01*
X182458744Y-123228754D01*
X182631785Y-123194334D01*
X182808215Y-123194334D01*
X182981256Y-123228754D01*
X183144257Y-123296271D01*
X183290954Y-123394291D01*
X183292695Y-123396032D01*
X183309713Y-123407403D01*
X183355230Y-123410825D01*
X183363527Y-123405281D01*
X183383508Y-123401303D01*
X183392913Y-123396888D01*
X183428642Y-123392320D01*
X183440045Y-123390051D01*
X183459275Y-123390047D01*
X183560629Y-123390029D01*
X183597378Y-123374800D01*
X183844827Y-123127281D01*
X183844827Y-123127280D01*
X183848507Y-123123600D01*
X183878824Y-123098714D01*
X183950917Y-123068846D01*
X183989951Y-123065000D01*
X183990050Y-123065000D01*
X184029082Y-123068846D01*
X184101176Y-123098714D01*
X184131492Y-123123598D01*
X184382621Y-123374800D01*
X184419369Y-123390028D01*
X184533599Y-123390048D01*
X184533613Y-123390049D01*
X184539956Y-123390051D01*
X184551333Y-123392315D01*
X184587081Y-123396887D01*
X184596487Y-123401304D01*
X184616472Y-123405282D01*
X184624766Y-123410825D01*
X184670285Y-123407404D01*
X184687305Y-123396031D01*
X184689046Y-123394291D01*
X184835743Y-123296271D01*
X184998744Y-123228754D01*
X185171785Y-123194334D01*
X185348215Y-123194334D01*
X185521256Y-123228754D01*
X185684257Y-123296271D01*
X185830954Y-123394291D01*
X185832695Y-123396032D01*
X185849713Y-123407403D01*
X185895230Y-123410825D01*
X185903527Y-123405281D01*
X185923508Y-123401303D01*
X185932913Y-123396888D01*
X185968642Y-123392320D01*
X185980045Y-123390051D01*
X185999275Y-123390047D01*
X186100629Y-123390029D01*
X186137378Y-123374800D01*
X186384827Y-123127281D01*
X186384827Y-123127280D01*
X186388507Y-123123600D01*
X186418824Y-123098714D01*
X186490917Y-123068846D01*
X186529951Y-123065000D01*
X186530050Y-123065000D01*
X186569082Y-123068846D01*
X186641176Y-123098714D01*
X186671492Y-123123598D01*
X186922621Y-123374800D01*
X186959369Y-123390028D01*
X187073599Y-123390048D01*
X187073613Y-123390049D01*
X187079956Y-123390051D01*
X187091333Y-123392315D01*
X187127081Y-123396887D01*
X187136487Y-123401304D01*
X187156472Y-123405282D01*
X187164766Y-123410825D01*
X187210285Y-123407404D01*
X187227305Y-123396031D01*
X187229046Y-123394291D01*
X187375743Y-123296271D01*
X187538744Y-123228754D01*
X187711785Y-123194334D01*
X187888215Y-123194334D01*
X188061256Y-123228754D01*
X188224257Y-123296271D01*
X188370954Y-123394291D01*
X188495709Y-123519046D01*
X188593729Y-123665743D01*
X188661246Y-123828744D01*
X188695666Y-124001785D01*
X188695666Y-124178215D01*
X188661246Y-124351256D01*
X188593729Y-124514257D01*
X188495709Y-124660954D01*
X188493964Y-124662698D01*
X188482595Y-124679714D01*
X188479173Y-124725229D01*
X188484719Y-124733527D01*
X188488697Y-124753518D01*
X188493109Y-124762912D01*
X188494823Y-124776329D01*
X188525035Y-124817815D01*
X188559039Y-124833781D01*
X188579034Y-124837762D01*
X188606242Y-124855946D01*
X188618291Y-124861604D01*
X188624607Y-124868220D01*
X188643914Y-124881124D01*
X188660204Y-124905510D01*
X188668602Y-124914307D01*
X188672713Y-124924235D01*
X188687261Y-124946013D01*
X188692367Y-124971698D01*
X188696479Y-124981627D01*
X188696758Y-124993784D01*
X188702478Y-125022551D01*
X188697944Y-125045329D01*
X188698155Y-125054473D01*
X188693633Y-125066990D01*
X188687246Y-125099087D01*
X188675917Y-125116039D01*
X188672393Y-125125798D01*
X188650379Y-125154256D01*
X188643900Y-125163953D01*
X188484272Y-125323580D01*
X188484272Y-125406420D01*
X188643899Y-125566048D01*
X188650360Y-125575716D01*
X188672393Y-125604199D01*
X188675920Y-125613964D01*
X188687246Y-125630913D01*
X188693633Y-125663010D01*
X188698155Y-125675528D01*
X188697944Y-125684670D01*
X188702478Y-125707449D01*
X188696759Y-125736210D01*
X188696480Y-125748373D01*
X188692366Y-125758305D01*
X188687261Y-125783987D01*
X188672715Y-125805761D01*
X188668603Y-125815692D01*
X188660204Y-125824489D01*
X188643914Y-125848876D01*
X188624604Y-125861781D01*
X188618290Y-125868396D01*
X188606244Y-125874052D01*
X188579034Y-125892238D01*
X188559037Y-125896218D01*
X188527965Y-125910809D01*
X188503223Y-125935549D01*
X188488696Y-125966484D01*
X188484718Y-125986472D01*
X188479174Y-125994766D01*
X188482595Y-126040285D01*
X188493966Y-126057303D01*
X188495709Y-126059046D01*
X188593729Y-126205743D01*
X188661246Y-126368744D01*
X188695666Y-126541785D01*
X188695666Y-126718215D01*
X188661246Y-126891256D01*
X188593729Y-127054257D01*
X188495709Y-127200954D01*
X188493964Y-127202698D01*
X188482595Y-127219714D01*
X188479173Y-127265229D01*
X188484719Y-127273527D01*
X188488697Y-127293518D01*
X188493109Y-127302912D01*
X188494823Y-127316329D01*
X188525035Y-127357815D01*
X188559039Y-127373781D01*
X188579034Y-127377762D01*
X188606242Y-127395946D01*
X188618291Y-127401604D01*
X188624607Y-127408220D01*
X188643914Y-127421124D01*
X188660204Y-127445510D01*
X188668602Y-127454307D01*
X188672713Y-127464235D01*
X188687261Y-127486013D01*
X188692367Y-127511698D01*
X188696479Y-127521627D01*
X188696758Y-127533784D01*
X188702478Y-127562551D01*
X188697944Y-127585329D01*
X188698155Y-127594473D01*
X188693633Y-127606990D01*
X188687246Y-127639087D01*
X188675917Y-127656039D01*
X188672393Y-127665798D01*
X188650379Y-127694256D01*
X188643900Y-127703953D01*
X188484272Y-127863580D01*
X188484272Y-127946420D01*
X188643899Y-128106048D01*
X188650360Y-128115716D01*
X188672393Y-128144199D01*
X188675920Y-128153964D01*
X188687246Y-128170913D01*
X188693633Y-128203010D01*
X188698155Y-128215528D01*
X188697944Y-128224670D01*
X188702478Y-128247449D01*
X188696759Y-128276210D01*
X188696480Y-128288373D01*
X188692366Y-128298305D01*
X188687261Y-128323987D01*
X188672715Y-128345761D01*
X188668603Y-128355692D01*
X188660204Y-128364489D01*
X188643914Y-128388876D01*
X188624604Y-128401781D01*
X188618290Y-128408396D01*
X188606244Y-128414052D01*
X188579034Y-128432238D01*
X188559037Y-128436218D01*
X188527965Y-128450809D01*
X188503223Y-128475549D01*
X188488696Y-128506484D01*
X188484718Y-128526472D01*
X188479174Y-128534766D01*
X188482595Y-128580285D01*
X188493966Y-128597303D01*
X188495709Y-128599046D01*
X188593729Y-128745743D01*
X188661246Y-128908744D01*
X188695666Y-129081785D01*
X188695666Y-129258215D01*
X188661246Y-129431256D01*
X188593729Y-129594257D01*
X188495709Y-129740954D01*
X188493964Y-129742698D01*
X188482595Y-129759714D01*
X188479173Y-129805229D01*
X188484719Y-129813527D01*
X188488697Y-129833518D01*
X188493109Y-129842912D01*
X188494823Y-129856329D01*
X188525035Y-129897815D01*
X188559039Y-129913781D01*
X188579034Y-129917762D01*
X188606242Y-129935946D01*
X188618291Y-129941604D01*
X188624607Y-129948220D01*
X188643914Y-129961124D01*
X188660204Y-129985510D01*
X188668602Y-129994307D01*
X188672713Y-130004235D01*
X188687261Y-130026013D01*
X188692367Y-130051698D01*
X188696479Y-130061627D01*
X188696758Y-130073784D01*
X188702478Y-130102551D01*
X188697944Y-130125329D01*
X188698155Y-130134473D01*
X188693633Y-130146990D01*
X188687246Y-130179087D01*
X188675917Y-130196039D01*
X188672393Y-130205798D01*
X188650379Y-130234256D01*
X188643900Y-130243953D01*
X188484272Y-130403580D01*
X188484272Y-130486420D01*
X188643899Y-130646048D01*
X188650360Y-130655716D01*
X188672393Y-130684199D01*
X188675920Y-130693964D01*
X188687246Y-130710913D01*
X188693633Y-130743010D01*
X188698155Y-130755528D01*
X188697944Y-130764670D01*
X188702478Y-130787449D01*
X188696759Y-130816210D01*
X188696480Y-130828373D01*
X188692366Y-130838305D01*
X188687261Y-130863987D01*
X188672715Y-130885761D01*
X188668603Y-130895692D01*
X188660204Y-130904489D01*
X188643914Y-130928876D01*
X188624604Y-130941781D01*
X188618290Y-130948396D01*
X188606244Y-130954052D01*
X188579034Y-130972238D01*
X188559037Y-130976218D01*
X188527965Y-130990809D01*
X188503223Y-131015549D01*
X188488696Y-131046484D01*
X188484718Y-131066472D01*
X188479174Y-131074766D01*
X188482595Y-131120285D01*
X188493966Y-131137303D01*
X188495709Y-131139046D01*
X188593729Y-131285743D01*
X188661246Y-131448744D01*
X188695666Y-131621785D01*
X188695666Y-131798215D01*
X188661246Y-131971256D01*
X188593729Y-132134257D01*
X188495709Y-132280954D01*
X188493964Y-132282698D01*
X188482595Y-132299714D01*
X188479173Y-132345229D01*
X188484719Y-132353527D01*
X188488697Y-132373518D01*
X188493109Y-132382912D01*
X188494823Y-132396329D01*
X188525035Y-132437815D01*
X188559039Y-132453781D01*
X188579034Y-132457762D01*
X188606242Y-132475946D01*
X188618291Y-132481604D01*
X188624607Y-132488220D01*
X188643914Y-132501124D01*
X188660204Y-132525510D01*
X188668602Y-132534307D01*
X188672713Y-132544235D01*
X188687261Y-132566013D01*
X188692367Y-132591698D01*
X188696479Y-132601627D01*
X188696758Y-132613784D01*
X188702478Y-132642551D01*
X188697944Y-132665329D01*
X188698155Y-132674473D01*
X188693633Y-132686990D01*
X188687246Y-132719087D01*
X188675917Y-132736039D01*
X188672393Y-132745798D01*
X188650379Y-132774256D01*
X188643900Y-132783953D01*
X188484272Y-132943580D01*
X188484272Y-133026420D01*
X188643899Y-133186048D01*
X188650360Y-133195716D01*
X188672393Y-133224199D01*
X188675920Y-133233964D01*
X188687246Y-133250913D01*
X188693633Y-133283010D01*
X188698155Y-133295528D01*
X188697944Y-133304670D01*
X188702478Y-133327449D01*
X188696759Y-133356210D01*
X188696480Y-133368373D01*
X188692366Y-133378305D01*
X188687261Y-133403987D01*
X188672715Y-133425761D01*
X188668603Y-133435692D01*
X188660204Y-133444489D01*
X188643914Y-133468876D01*
X188624604Y-133481781D01*
X188618290Y-133488396D01*
X188606244Y-133494052D01*
X188579034Y-133512238D01*
X188559037Y-133516218D01*
X188527965Y-133530809D01*
X188503223Y-133555549D01*
X188488696Y-133586484D01*
X188484718Y-133606472D01*
X188479174Y-133614766D01*
X188482595Y-133660285D01*
X188493966Y-133677303D01*
X188495709Y-133679046D01*
X188593729Y-133825743D01*
X188661246Y-133988744D01*
X188695666Y-134161785D01*
X188695666Y-134338215D01*
X188661246Y-134511256D01*
X188593729Y-134674257D01*
X188495709Y-134820954D01*
X188493964Y-134822698D01*
X188482595Y-134839714D01*
X188479173Y-134885229D01*
X188484719Y-134893527D01*
X188488697Y-134913518D01*
X188493109Y-134922912D01*
X188494823Y-134936329D01*
X188525035Y-134977815D01*
X188559039Y-134993781D01*
X188579034Y-134997762D01*
X188606242Y-135015946D01*
X188618291Y-135021604D01*
X188624607Y-135028220D01*
X188643914Y-135041124D01*
X188660204Y-135065510D01*
X188668602Y-135074307D01*
X188672713Y-135084235D01*
X188687261Y-135106013D01*
X188692367Y-135131698D01*
X188696479Y-135141627D01*
X188696758Y-135153784D01*
X188702478Y-135182551D01*
X188697944Y-135205329D01*
X188698155Y-135214473D01*
X188693633Y-135226990D01*
X188687246Y-135259087D01*
X188675917Y-135276039D01*
X188672393Y-135285798D01*
X188650379Y-135314256D01*
X188643900Y-135323953D01*
X188484272Y-135483580D01*
X188484272Y-135566420D01*
X188643899Y-135726048D01*
X188650360Y-135735716D01*
X188672393Y-135764199D01*
X188675920Y-135773964D01*
X188687246Y-135790913D01*
X188693633Y-135823010D01*
X188698155Y-135835528D01*
X188697944Y-135844670D01*
X188702478Y-135867449D01*
X188696759Y-135896210D01*
X188696480Y-135908373D01*
X188692366Y-135918305D01*
X188687261Y-135943987D01*
X188672715Y-135965761D01*
X188668603Y-135975692D01*
X188660204Y-135984489D01*
X188643914Y-136008876D01*
X188624604Y-136021781D01*
X188618290Y-136028396D01*
X188606244Y-136034052D01*
X188579034Y-136052238D01*
X188559037Y-136056218D01*
X188527965Y-136070809D01*
X188503223Y-136095549D01*
X188488696Y-136126484D01*
X188484718Y-136146472D01*
X188479174Y-136154766D01*
X188482595Y-136200285D01*
X188493966Y-136217303D01*
X188495709Y-136219046D01*
X188593729Y-136365743D01*
X188661246Y-136528744D01*
X188695666Y-136701785D01*
X188695666Y-136878215D01*
X188661246Y-137051256D01*
X188593729Y-137214257D01*
X188495709Y-137360954D01*
X188493964Y-137362698D01*
X188482595Y-137379714D01*
X188479173Y-137425229D01*
X188484719Y-137433527D01*
X188488697Y-137453518D01*
X188493109Y-137462912D01*
X188494823Y-137476329D01*
X188525035Y-137517815D01*
X188559039Y-137533781D01*
X188579034Y-137537762D01*
X188606242Y-137555946D01*
X188618291Y-137561604D01*
X188624607Y-137568220D01*
X188643914Y-137581124D01*
X188660204Y-137605510D01*
X188668602Y-137614307D01*
X188672713Y-137624235D01*
X188687261Y-137646013D01*
X188692367Y-137671698D01*
X188696479Y-137681627D01*
X188696758Y-137693784D01*
X188702478Y-137722551D01*
X188697944Y-137745329D01*
X188698155Y-137754473D01*
X188693633Y-137766990D01*
X188687246Y-137799087D01*
X188675917Y-137816039D01*
X188672393Y-137825798D01*
X188650379Y-137854256D01*
X188643900Y-137863953D01*
X188484272Y-138023580D01*
X188484272Y-138106420D01*
X188643899Y-138266048D01*
X188650360Y-138275716D01*
X188672393Y-138304199D01*
X188675920Y-138313964D01*
X188687246Y-138330913D01*
X188693633Y-138363010D01*
X188698155Y-138375528D01*
X188697944Y-138384670D01*
X188702478Y-138407449D01*
X188696759Y-138436210D01*
X188696480Y-138448373D01*
X188692366Y-138458305D01*
X188687261Y-138483987D01*
X188672715Y-138505761D01*
X188668603Y-138515692D01*
X188660204Y-138524489D01*
X188643914Y-138548876D01*
X188624604Y-138561781D01*
X188618290Y-138568396D01*
X188606244Y-138574052D01*
X188579034Y-138592238D01*
X188559037Y-138596218D01*
X188527965Y-138610809D01*
X188503223Y-138635549D01*
X188488696Y-138666484D01*
X188484718Y-138686472D01*
X188479174Y-138694766D01*
X188482595Y-138740285D01*
X188493966Y-138757303D01*
X188495709Y-138759046D01*
X188593729Y-138905743D01*
X188661246Y-139068744D01*
X188695666Y-139241785D01*
X188695666Y-139418215D01*
X188661246Y-139591256D01*
X188593729Y-139754257D01*
X188495709Y-139900954D01*
X188493964Y-139902698D01*
X188482595Y-139919714D01*
X188479173Y-139965229D01*
X188484719Y-139973527D01*
X188488697Y-139993518D01*
X188493109Y-140002912D01*
X188494823Y-140016329D01*
X188525035Y-140057815D01*
X188559039Y-140073781D01*
X188579034Y-140077762D01*
X188606242Y-140095946D01*
X188618291Y-140101604D01*
X188624607Y-140108220D01*
X188643914Y-140121124D01*
X188660204Y-140145510D01*
X188668602Y-140154307D01*
X188672713Y-140164235D01*
X188687261Y-140186013D01*
X188692367Y-140211698D01*
X188696479Y-140221627D01*
X188696758Y-140233784D01*
X188702478Y-140262551D01*
X188697944Y-140285329D01*
X188698155Y-140294473D01*
X188693633Y-140306990D01*
X188687246Y-140339087D01*
X188675917Y-140356039D01*
X188672393Y-140365798D01*
X188650379Y-140394256D01*
X188643900Y-140403953D01*
X188484272Y-140563580D01*
X188484272Y-140646420D01*
X188643899Y-140806048D01*
X188650360Y-140815716D01*
X188672393Y-140844199D01*
X188675920Y-140853964D01*
X188687246Y-140870913D01*
X188693633Y-140903010D01*
X188698155Y-140915528D01*
X188697944Y-140924670D01*
X188702478Y-140947449D01*
X188696759Y-140976210D01*
X188696480Y-140988373D01*
X188692366Y-140998305D01*
X188687261Y-141023987D01*
X188672715Y-141045761D01*
X188668603Y-141055692D01*
X188660204Y-141064489D01*
X188643914Y-141088876D01*
X188624604Y-141101781D01*
X188618290Y-141108396D01*
X188606244Y-141114052D01*
X188579034Y-141132238D01*
X188559037Y-141136218D01*
X188527965Y-141150809D01*
X188503223Y-141175549D01*
X188488696Y-141206484D01*
X188484718Y-141226472D01*
X188479174Y-141234766D01*
X188482595Y-141280285D01*
X188493966Y-141297303D01*
X188495709Y-141299046D01*
X188593729Y-141445743D01*
X188661246Y-141608744D01*
X188695666Y-141781785D01*
X188695666Y-141958215D01*
X188661246Y-142131256D01*
X188593729Y-142294257D01*
X188495709Y-142440954D01*
X188493964Y-142442698D01*
X188482595Y-142459714D01*
X188479173Y-142505229D01*
X188484719Y-142513527D01*
X188488697Y-142533518D01*
X188493109Y-142542912D01*
X188494823Y-142556329D01*
X188525035Y-142597815D01*
X188559039Y-142613781D01*
X188579034Y-142617762D01*
X188606242Y-142635946D01*
X188618291Y-142641604D01*
X188624607Y-142648220D01*
X188643914Y-142661124D01*
X188660204Y-142685510D01*
X188668602Y-142694307D01*
X188672713Y-142704235D01*
X188687261Y-142726013D01*
X188692367Y-142751698D01*
X188696479Y-142761627D01*
X188696758Y-142773784D01*
X188702478Y-142802551D01*
X188697944Y-142825329D01*
X188698155Y-142834473D01*
X188693633Y-142846990D01*
X188687246Y-142879087D01*
X188675917Y-142896039D01*
X188672393Y-142905798D01*
X188650379Y-142934256D01*
X188643900Y-142943953D01*
X188484272Y-143103580D01*
X188484272Y-143186420D01*
X188643899Y-143346048D01*
X188650360Y-143355716D01*
X188672393Y-143384199D01*
X188675920Y-143393964D01*
X188687246Y-143410913D01*
X188693633Y-143443010D01*
X188698155Y-143455528D01*
X188697944Y-143464670D01*
X188702478Y-143487449D01*
X188696759Y-143516210D01*
X188696480Y-143528373D01*
X188692366Y-143538305D01*
X188687261Y-143563987D01*
X188672715Y-143585761D01*
X188668603Y-143595692D01*
X188660204Y-143604489D01*
X188643914Y-143628876D01*
X188624604Y-143641781D01*
X188618290Y-143648396D01*
X188606244Y-143654052D01*
X188579034Y-143672238D01*
X188559037Y-143676218D01*
X188527965Y-143690809D01*
X188503223Y-143715549D01*
X188488696Y-143746484D01*
X188484718Y-143766472D01*
X188479174Y-143774766D01*
X188482595Y-143820285D01*
X188493966Y-143837303D01*
X188495709Y-143839046D01*
X188593729Y-143985743D01*
X188661246Y-144148744D01*
X188695666Y-144321785D01*
X188695666Y-144498215D01*
X188661246Y-144671256D01*
X188593729Y-144834257D01*
X188495709Y-144980954D01*
X188493964Y-144982698D01*
X188482595Y-144999714D01*
X188479173Y-145045229D01*
X188484719Y-145053527D01*
X188488697Y-145073518D01*
X188493109Y-145082912D01*
X188494823Y-145096329D01*
X188525035Y-145137815D01*
X188559039Y-145153781D01*
X188579034Y-145157762D01*
X188606242Y-145175946D01*
X188618291Y-145181604D01*
X188624607Y-145188220D01*
X188643914Y-145201124D01*
X188660204Y-145225510D01*
X188668602Y-145234307D01*
X188672713Y-145244235D01*
X188687261Y-145266013D01*
X188692367Y-145291698D01*
X188696479Y-145301627D01*
X188696758Y-145313784D01*
X188702478Y-145342551D01*
X188697944Y-145365329D01*
X188698155Y-145374473D01*
X188693633Y-145386990D01*
X188687246Y-145419087D01*
X188675917Y-145436039D01*
X188672393Y-145445798D01*
X188650379Y-145474256D01*
X188643900Y-145483953D01*
X188484272Y-145643580D01*
X188484272Y-145726420D01*
X188643899Y-145886048D01*
X188650360Y-145895716D01*
X188672393Y-145924199D01*
X188675920Y-145933964D01*
X188687246Y-145950913D01*
X188693633Y-145983010D01*
X188698155Y-145995528D01*
X188697944Y-146004670D01*
X188702478Y-146027449D01*
X188696759Y-146056210D01*
X188696480Y-146068373D01*
X188692366Y-146078305D01*
X188687261Y-146103987D01*
X188672715Y-146125761D01*
X188668603Y-146135692D01*
X188660204Y-146144489D01*
X188643914Y-146168876D01*
X188624604Y-146181781D01*
X188618290Y-146188396D01*
X188606244Y-146194052D01*
X188579034Y-146212238D01*
X188559037Y-146216218D01*
X188527965Y-146230809D01*
X188503223Y-146255549D01*
X188488696Y-146286484D01*
X188484718Y-146306472D01*
X188479174Y-146314766D01*
X188482595Y-146360285D01*
X188493966Y-146377303D01*
X188495709Y-146379046D01*
X188593729Y-146525743D01*
X188661246Y-146688744D01*
X188695666Y-146861785D01*
X188695666Y-147038215D01*
X188661246Y-147211256D01*
X188593729Y-147374257D01*
X188495709Y-147520954D01*
X188493964Y-147522698D01*
X188482595Y-147539714D01*
X188479173Y-147585229D01*
X188484719Y-147593527D01*
X188488697Y-147613518D01*
X188493109Y-147622912D01*
X188494823Y-147636329D01*
X188525035Y-147677815D01*
X188559039Y-147693781D01*
X188579034Y-147697762D01*
X188606242Y-147715946D01*
X188618291Y-147721604D01*
X188624607Y-147728220D01*
X188643914Y-147741124D01*
X188660204Y-147765510D01*
X188668602Y-147774307D01*
X188672713Y-147784235D01*
X188687261Y-147806013D01*
X188692367Y-147831698D01*
X188696479Y-147841627D01*
X188696758Y-147853784D01*
X188702478Y-147882551D01*
X188697944Y-147905329D01*
X188698155Y-147914473D01*
X188693633Y-147926990D01*
X188687246Y-147959087D01*
X188675917Y-147976039D01*
X188672393Y-147985798D01*
X188650379Y-148014256D01*
X188643900Y-148023953D01*
X188484272Y-148183580D01*
X188484272Y-148266420D01*
X188643899Y-148426048D01*
X188650360Y-148435716D01*
X188672393Y-148464199D01*
X188675920Y-148473964D01*
X188687246Y-148490913D01*
X188693633Y-148523010D01*
X188698155Y-148535528D01*
X188697944Y-148544670D01*
X188702478Y-148567449D01*
X188696759Y-148596210D01*
X188696480Y-148608373D01*
X188692366Y-148618305D01*
X188687261Y-148643987D01*
X188672715Y-148665761D01*
X188668603Y-148675692D01*
X188660204Y-148684489D01*
X188643914Y-148708876D01*
X188624604Y-148721781D01*
X188618290Y-148728396D01*
X188606244Y-148734052D01*
X188579034Y-148752238D01*
X188559037Y-148756218D01*
X188527965Y-148770809D01*
X188503223Y-148795549D01*
X188488696Y-148826484D01*
X188484718Y-148846472D01*
X188479174Y-148854766D01*
X188482595Y-148900285D01*
X188493966Y-148917303D01*
X188495709Y-148919046D01*
X188593729Y-149065743D01*
X188661246Y-149228744D01*
X188695666Y-149401785D01*
X188695666Y-149578215D01*
X188661246Y-149751256D01*
X188593729Y-149914257D01*
X188495709Y-150060954D01*
X188493964Y-150062698D01*
X188482595Y-150079714D01*
X188479173Y-150125229D01*
X188484719Y-150133527D01*
X188488697Y-150153518D01*
X188493109Y-150162912D01*
X188494823Y-150176329D01*
X188525035Y-150217815D01*
X188559039Y-150233781D01*
X188579034Y-150237762D01*
X188606242Y-150255946D01*
X188618291Y-150261604D01*
X188624607Y-150268220D01*
X188643914Y-150281124D01*
X188660204Y-150305510D01*
X188668602Y-150314307D01*
X188672713Y-150324235D01*
X188687261Y-150346013D01*
X188692367Y-150371698D01*
X188696479Y-150381627D01*
X188696758Y-150393784D01*
X188702478Y-150422551D01*
X188697944Y-150445329D01*
X188698155Y-150454473D01*
X188693633Y-150466990D01*
X188687246Y-150499087D01*
X188675917Y-150516039D01*
X188672393Y-150525798D01*
X188650379Y-150554256D01*
X188643900Y-150563953D01*
X188484272Y-150723580D01*
X188484272Y-150806420D01*
X188643899Y-150966048D01*
X188650360Y-150975716D01*
X188672393Y-151004199D01*
X188675920Y-151013964D01*
X188687246Y-151030913D01*
X188693633Y-151063010D01*
X188698155Y-151075528D01*
X188697944Y-151084670D01*
X188702478Y-151107449D01*
X188696759Y-151136210D01*
X188696480Y-151148373D01*
X188692366Y-151158305D01*
X188687261Y-151183987D01*
X188672715Y-151205761D01*
X188668603Y-151215692D01*
X188660204Y-151224489D01*
X188643914Y-151248876D01*
X188624604Y-151261781D01*
X188618290Y-151268396D01*
X188606244Y-151274052D01*
X188579034Y-151292238D01*
X188559037Y-151296218D01*
X188527965Y-151310809D01*
X188503223Y-151335549D01*
X188488696Y-151366484D01*
X188484718Y-151386472D01*
X188479174Y-151394766D01*
X188482595Y-151440285D01*
X188493966Y-151457303D01*
X188495709Y-151459046D01*
X188593729Y-151605743D01*
X188661246Y-151768744D01*
X188695666Y-151941785D01*
X188695666Y-152118215D01*
X188661246Y-152291256D01*
X188593729Y-152454257D01*
X188495709Y-152600954D01*
X188493964Y-152602698D01*
X188482595Y-152619714D01*
X188479173Y-152665229D01*
X188484719Y-152673527D01*
X188488697Y-152693518D01*
X188493109Y-152702912D01*
X188494823Y-152716329D01*
X188525035Y-152757815D01*
X188559039Y-152773781D01*
X188579034Y-152777762D01*
X188606242Y-152795946D01*
X188618291Y-152801604D01*
X188624607Y-152808220D01*
X188643914Y-152821124D01*
X188660204Y-152845510D01*
X188668602Y-152854307D01*
X188672713Y-152864235D01*
X188687261Y-152886013D01*
X188692367Y-152911698D01*
X188696479Y-152921627D01*
X188696758Y-152933784D01*
X188702478Y-152962551D01*
X188697944Y-152985329D01*
X188698155Y-152994473D01*
X188693633Y-153006990D01*
X188687246Y-153039087D01*
X188675917Y-153056039D01*
X188672393Y-153065798D01*
X188650379Y-153094256D01*
X188643900Y-153103953D01*
X188484272Y-153263580D01*
X188484272Y-153346420D01*
X188643899Y-153506048D01*
X188650360Y-153515716D01*
X188672393Y-153544199D01*
X188675920Y-153553964D01*
X188687246Y-153570913D01*
X188693633Y-153603010D01*
X188698155Y-153615528D01*
X188697944Y-153624670D01*
X188702478Y-153647449D01*
X188696759Y-153676210D01*
X188696480Y-153688373D01*
X188692366Y-153698305D01*
X188687261Y-153723987D01*
X188672715Y-153745761D01*
X188668603Y-153755692D01*
X188660204Y-153764489D01*
X188643914Y-153788876D01*
X188624604Y-153801781D01*
X188618290Y-153808396D01*
X188606244Y-153814052D01*
X188579034Y-153832238D01*
X188559037Y-153836218D01*
X188527965Y-153850809D01*
X188503223Y-153875549D01*
X188488696Y-153906484D01*
X188484718Y-153926472D01*
X188479174Y-153934766D01*
X188482595Y-153980285D01*
X188493966Y-153997303D01*
X188495709Y-153999046D01*
X188593729Y-154145743D01*
X188661246Y-154308744D01*
X188695666Y-154481785D01*
X188695666Y-154658215D01*
X188661246Y-154831256D01*
X188593729Y-154994257D01*
X188495709Y-155140954D01*
X188493964Y-155142698D01*
X188482595Y-155159714D01*
X188479173Y-155205229D01*
X188484719Y-155213527D01*
X188488697Y-155233518D01*
X188493109Y-155242912D01*
X188494823Y-155256329D01*
X188525035Y-155297815D01*
X188559039Y-155313781D01*
X188579034Y-155317762D01*
X188606242Y-155335946D01*
X188618291Y-155341604D01*
X188624607Y-155348220D01*
X188643914Y-155361124D01*
X188660204Y-155385510D01*
X188668602Y-155394307D01*
X188672713Y-155404235D01*
X188687261Y-155426013D01*
X188692367Y-155451698D01*
X188696479Y-155461627D01*
X188696758Y-155473784D01*
X188702478Y-155502551D01*
X188697944Y-155525329D01*
X188698155Y-155534473D01*
X188693633Y-155546990D01*
X188687246Y-155579087D01*
X188675917Y-155596039D01*
X188672393Y-155605798D01*
X188650379Y-155634256D01*
X188643900Y-155643953D01*
X188484272Y-155803580D01*
X188484272Y-155886420D01*
X188643899Y-156046048D01*
X188650360Y-156055716D01*
X188672393Y-156084199D01*
X188675920Y-156093964D01*
X188687246Y-156110913D01*
X188693633Y-156143010D01*
X188698155Y-156155528D01*
X188697944Y-156164670D01*
X188702478Y-156187449D01*
X188696759Y-156216210D01*
X188696480Y-156228373D01*
X188692366Y-156238305D01*
X188687261Y-156263987D01*
X188672715Y-156285761D01*
X188668603Y-156295692D01*
X188660204Y-156304489D01*
X188643914Y-156328876D01*
X188624604Y-156341781D01*
X188618290Y-156348396D01*
X188606244Y-156354052D01*
X188579034Y-156372238D01*
X188559037Y-156376218D01*
X188527965Y-156390809D01*
X188503223Y-156415549D01*
X188488696Y-156446484D01*
X188484718Y-156466472D01*
X188479174Y-156474766D01*
X188482595Y-156520285D01*
X188493966Y-156537303D01*
X188495709Y-156539046D01*
X188593729Y-156685743D01*
X188661246Y-156848744D01*
X188695666Y-157021785D01*
X188695666Y-157198215D01*
X188661246Y-157371256D01*
X188593729Y-157534257D01*
X188495709Y-157680954D01*
X188370954Y-157805709D01*
X188224257Y-157903729D01*
X188061256Y-157971246D01*
X187888215Y-158005666D01*
X187711785Y-158005666D01*
X187538744Y-157971246D01*
X187375743Y-157903729D01*
X187229046Y-157805709D01*
X187227303Y-157803966D01*
X187210285Y-157792595D01*
X187164768Y-157789174D01*
X187156473Y-157794719D01*
X187136481Y-157798698D01*
X187127088Y-157803109D01*
X187113672Y-157804822D01*
X187072184Y-157835035D01*
X187056218Y-157869034D01*
X187052238Y-157889034D01*
X187034048Y-157916249D01*
X187028395Y-157928290D01*
X187021782Y-157934602D01*
X187008876Y-157953914D01*
X186984486Y-157970206D01*
X186975692Y-157978602D01*
X186965765Y-157982712D01*
X186943987Y-157997261D01*
X186918299Y-158002368D01*
X186908372Y-158006479D01*
X186896215Y-158006758D01*
X186867449Y-158012478D01*
X186844670Y-158007944D01*
X186835526Y-158008155D01*
X186823007Y-158003633D01*
X186790913Y-157997246D01*
X186773961Y-157985918D01*
X186764201Y-157982393D01*
X186735736Y-157960374D01*
X186726047Y-157953900D01*
X186566420Y-157794272D01*
X186483580Y-157794272D01*
X186323952Y-157953899D01*
X186314275Y-157960365D01*
X186285800Y-157982393D01*
X186276036Y-157985919D01*
X186259087Y-157997246D01*
X186226987Y-158003634D01*
X186214471Y-158008155D01*
X186205328Y-158007944D01*
X186182551Y-158012478D01*
X186153789Y-158006759D01*
X186141626Y-158006480D01*
X186131692Y-158002366D01*
X186106013Y-157997261D01*
X186084240Y-157982716D01*
X186074307Y-157978603D01*
X186065507Y-157970202D01*
X186041124Y-157953914D01*
X186028220Y-157934607D01*
X186021603Y-157928290D01*
X186015944Y-157916239D01*
X185997762Y-157889034D01*
X185993782Y-157869040D01*
X185979190Y-157837964D01*
X185954449Y-157813223D01*
X185923513Y-157798696D01*
X185903528Y-157794718D01*
X185895233Y-157789174D01*
X185849714Y-157792595D01*
X185832698Y-157803964D01*
X185830954Y-157805709D01*
X185684257Y-157903729D01*
X185521256Y-157971246D01*
X185348215Y-158005666D01*
X185171785Y-158005666D01*
X184998744Y-157971246D01*
X184835743Y-157903729D01*
X184689046Y-157805709D01*
X184687303Y-157803966D01*
X184670285Y-157792595D01*
X184624768Y-157789174D01*
X184616473Y-157794719D01*
X184596481Y-157798698D01*
X184587088Y-157803109D01*
X184573672Y-157804822D01*
X184532184Y-157835035D01*
X184516218Y-157869034D01*
X184512238Y-157889034D01*
X184494048Y-157916249D01*
X184488395Y-157928290D01*
X184481782Y-157934602D01*
X184468876Y-157953914D01*
X184444486Y-157970206D01*
X184435692Y-157978602D01*
X184425765Y-157982712D01*
X184403987Y-157997261D01*
X184378299Y-158002368D01*
X184368372Y-158006479D01*
X184356215Y-158006758D01*
X184327449Y-158012478D01*
X184304670Y-158007944D01*
X184295526Y-158008155D01*
X184283007Y-158003633D01*
X184250913Y-157997246D01*
X184233961Y-157985918D01*
X184224201Y-157982393D01*
X184195736Y-157960374D01*
X184186047Y-157953900D01*
X184026420Y-157794272D01*
X183943580Y-157794272D01*
X183783952Y-157953899D01*
X183774275Y-157960365D01*
X183745800Y-157982393D01*
X183736036Y-157985919D01*
X183719087Y-157997246D01*
X183686987Y-158003634D01*
X183674471Y-158008155D01*
X183665328Y-158007944D01*
X183642551Y-158012478D01*
X183613789Y-158006759D01*
X183601626Y-158006480D01*
X183591692Y-158002366D01*
X183566013Y-157997261D01*
X183544240Y-157982716D01*
X183534307Y-157978603D01*
X183525507Y-157970202D01*
X183501124Y-157953914D01*
X183488220Y-157934607D01*
X183481603Y-157928290D01*
X183475944Y-157916239D01*
X183457762Y-157889034D01*
X183453782Y-157869040D01*
X183439190Y-157837964D01*
X183414449Y-157813223D01*
X183383513Y-157798696D01*
X183363528Y-157794718D01*
X183355233Y-157789174D01*
X183309714Y-157792595D01*
X183292698Y-157803964D01*
X183290954Y-157805709D01*
X183144257Y-157903729D01*
X182981256Y-157971246D01*
X182808215Y-158005666D01*
X182631785Y-158005666D01*
X182458744Y-157971246D01*
X182295743Y-157903729D01*
X182149046Y-157805709D01*
X182147303Y-157803966D01*
X182130285Y-157792595D01*
X182084768Y-157789174D01*
X182076473Y-157794719D01*
X182056481Y-157798698D01*
X182047088Y-157803109D01*
X182033672Y-157804822D01*
X181992184Y-157835035D01*
X181976218Y-157869034D01*
X181972238Y-157889034D01*
X181954048Y-157916249D01*
X181948395Y-157928290D01*
X181941782Y-157934602D01*
X181928876Y-157953914D01*
X181904486Y-157970206D01*
X181895692Y-157978602D01*
X181885765Y-157982712D01*
X181863987Y-157997261D01*
X181838299Y-158002368D01*
X181828372Y-158006479D01*
X181816215Y-158006758D01*
X181787449Y-158012478D01*
X181764670Y-158007944D01*
X181755526Y-158008155D01*
X181743007Y-158003633D01*
X181710913Y-157997246D01*
X181693961Y-157985918D01*
X181684201Y-157982393D01*
X181655736Y-157960374D01*
X181646047Y-157953900D01*
X181486420Y-157794272D01*
X181403580Y-157794272D01*
X181243952Y-157953899D01*
X181234275Y-157960365D01*
X181205800Y-157982393D01*
X181196036Y-157985919D01*
X181179087Y-157997246D01*
X181146987Y-158003634D01*
X181134471Y-158008155D01*
X181125328Y-158007944D01*
X181102551Y-158012478D01*
X181073789Y-158006759D01*
X181061626Y-158006480D01*
X181051692Y-158002366D01*
X181026013Y-157997261D01*
X181004240Y-157982716D01*
X180994307Y-157978603D01*
X180985507Y-157970202D01*
X180961124Y-157953914D01*
X180948220Y-157934607D01*
X180941603Y-157928290D01*
X180935944Y-157916239D01*
X180917762Y-157889034D01*
X180913782Y-157869040D01*
X180899190Y-157837964D01*
X180874449Y-157813223D01*
X180843513Y-157798696D01*
X180823528Y-157794718D01*
X180815233Y-157789174D01*
X180769714Y-157792595D01*
X180752698Y-157803964D01*
X180750954Y-157805709D01*
X180604257Y-157903729D01*
X180441256Y-157971246D01*
X180268215Y-158005666D01*
X180091785Y-158005666D01*
X179918744Y-157971246D01*
X179755743Y-157903729D01*
X179609046Y-157805709D01*
X179607303Y-157803966D01*
X179590285Y-157792595D01*
X179544768Y-157789174D01*
X179536473Y-157794719D01*
X179516481Y-157798698D01*
X179507088Y-157803109D01*
X179493672Y-157804822D01*
X179452184Y-157835035D01*
X179436218Y-157869034D01*
X179432238Y-157889034D01*
X179414048Y-157916249D01*
X179408395Y-157928290D01*
X179401782Y-157934602D01*
X179388876Y-157953914D01*
X179364486Y-157970206D01*
X179355692Y-157978602D01*
X179345765Y-157982712D01*
X179323987Y-157997261D01*
X179298299Y-158002368D01*
X179288372Y-158006479D01*
X179276215Y-158006758D01*
X179247449Y-158012478D01*
X179224670Y-158007944D01*
X179215526Y-158008155D01*
X179203007Y-158003633D01*
X179170913Y-157997246D01*
X179153961Y-157985918D01*
X179144201Y-157982393D01*
X179115736Y-157960374D01*
X179106047Y-157953900D01*
X178946420Y-157794272D01*
X178863580Y-157794272D01*
X178703952Y-157953899D01*
X178694275Y-157960365D01*
X178665800Y-157982393D01*
X178656036Y-157985919D01*
X178639087Y-157997246D01*
X178606987Y-158003634D01*
X178594471Y-158008155D01*
X178585328Y-158007944D01*
X178562551Y-158012478D01*
X178533789Y-158006759D01*
X178521626Y-158006480D01*
X178511692Y-158002366D01*
X178486013Y-157997261D01*
X178464240Y-157982716D01*
X178454307Y-157978603D01*
X178445507Y-157970202D01*
X178421124Y-157953914D01*
X178408220Y-157934607D01*
X178401603Y-157928290D01*
X178395944Y-157916239D01*
X178377762Y-157889034D01*
X178373782Y-157869040D01*
X178359190Y-157837964D01*
X178334449Y-157813223D01*
X178303513Y-157798696D01*
X178283528Y-157794718D01*
X178275233Y-157789174D01*
X178229714Y-157792595D01*
X178212698Y-157803964D01*
X178210954Y-157805709D01*
X178064257Y-157903729D01*
X177901256Y-157971246D01*
X177728215Y-158005666D01*
X177551785Y-158005666D01*
X177378744Y-157971246D01*
X177215743Y-157903729D01*
X177069046Y-157805709D01*
X177067303Y-157803966D01*
X177050285Y-157792595D01*
X177004768Y-157789174D01*
X176996473Y-157794719D01*
X176976481Y-157798698D01*
X176967088Y-157803109D01*
X176953672Y-157804822D01*
X176912184Y-157835035D01*
X176896218Y-157869034D01*
X176892238Y-157889034D01*
X176874048Y-157916249D01*
X176868395Y-157928290D01*
X176861782Y-157934602D01*
X176848876Y-157953914D01*
X176824486Y-157970206D01*
X176815692Y-157978602D01*
X176805765Y-157982712D01*
X176783987Y-157997261D01*
X176758299Y-158002368D01*
X176748372Y-158006479D01*
X176736215Y-158006758D01*
X176707449Y-158012478D01*
X176684670Y-158007944D01*
X176675526Y-158008155D01*
X176663007Y-158003633D01*
X176630913Y-157997246D01*
X176613961Y-157985918D01*
X176604201Y-157982393D01*
X176575736Y-157960374D01*
X176566047Y-157953900D01*
X176406420Y-157794272D01*
X176323580Y-157794272D01*
X176163952Y-157953899D01*
X176154275Y-157960365D01*
X176125800Y-157982393D01*
X176116036Y-157985919D01*
X176099087Y-157997246D01*
X176066987Y-158003634D01*
X176054471Y-158008155D01*
X176045328Y-158007944D01*
X176022551Y-158012478D01*
X175993789Y-158006759D01*
X175981626Y-158006480D01*
X175971692Y-158002366D01*
X175946013Y-157997261D01*
X175924240Y-157982716D01*
X175914307Y-157978603D01*
X175905507Y-157970202D01*
X175881124Y-157953914D01*
X175868220Y-157934607D01*
X175861603Y-157928290D01*
X175855944Y-157916239D01*
X175837762Y-157889034D01*
X175833782Y-157869040D01*
X175819190Y-157837964D01*
X175794449Y-157813223D01*
X175763513Y-157798696D01*
X175743528Y-157794718D01*
X175735233Y-157789174D01*
X175689714Y-157792595D01*
X175672698Y-157803964D01*
X175670954Y-157805709D01*
X175524257Y-157903729D01*
X175361256Y-157971246D01*
X175188215Y-158005666D01*
X175011785Y-158005666D01*
X174838744Y-157971246D01*
X174675743Y-157903729D01*
X174529046Y-157805709D01*
X174527303Y-157803966D01*
X174510285Y-157792595D01*
X174464768Y-157789174D01*
X174456473Y-157794719D01*
X174436481Y-157798698D01*
X174427088Y-157803109D01*
X174413672Y-157804822D01*
X174372184Y-157835035D01*
X174356218Y-157869034D01*
X174352238Y-157889034D01*
X174334048Y-157916249D01*
X174328395Y-157928290D01*
X174321782Y-157934602D01*
X174308876Y-157953914D01*
X174284486Y-157970206D01*
X174275692Y-157978602D01*
X174265765Y-157982712D01*
X174243987Y-157997261D01*
X174218299Y-158002368D01*
X174208372Y-158006479D01*
X174196215Y-158006758D01*
X174167449Y-158012478D01*
X174144670Y-158007944D01*
X174135526Y-158008155D01*
X174123007Y-158003633D01*
X174090913Y-157997246D01*
X174073961Y-157985918D01*
X174064201Y-157982393D01*
X174035736Y-157960374D01*
X174026047Y-157953900D01*
X173866420Y-157794272D01*
X173783580Y-157794272D01*
X173623952Y-157953899D01*
X173614275Y-157960365D01*
X173585800Y-157982393D01*
X173576036Y-157985919D01*
X173559087Y-157997246D01*
X173526987Y-158003634D01*
X173514471Y-158008155D01*
X173505328Y-158007944D01*
X173482551Y-158012478D01*
X173453789Y-158006759D01*
X173441626Y-158006480D01*
X173431692Y-158002366D01*
X173406013Y-157997261D01*
X173384240Y-157982716D01*
X173374307Y-157978603D01*
X173365507Y-157970202D01*
X173341124Y-157953914D01*
X173328220Y-157934607D01*
X173321603Y-157928290D01*
X173315944Y-157916239D01*
X173297762Y-157889034D01*
X173293782Y-157869040D01*
X173279190Y-157837964D01*
X173254449Y-157813223D01*
X173223513Y-157798696D01*
X173203528Y-157794718D01*
X173195233Y-157789174D01*
X173149714Y-157792595D01*
X173132698Y-157803964D01*
X173130954Y-157805709D01*
X172984257Y-157903729D01*
X172821256Y-157971246D01*
X172648215Y-158005666D01*
X172471785Y-158005666D01*
X172298744Y-157971246D01*
X172135743Y-157903729D01*
X171989046Y-157805709D01*
X171987303Y-157803966D01*
X171970285Y-157792595D01*
X171924768Y-157789174D01*
X171916473Y-157794719D01*
X171896481Y-157798698D01*
X171887088Y-157803109D01*
X171873672Y-157804822D01*
X171832184Y-157835035D01*
X171816218Y-157869034D01*
X171812238Y-157889034D01*
X171794048Y-157916249D01*
X171788395Y-157928290D01*
X171781782Y-157934602D01*
X171768876Y-157953914D01*
X171744486Y-157970206D01*
X171735692Y-157978602D01*
X171725765Y-157982712D01*
X171703987Y-157997261D01*
X171678299Y-158002368D01*
X171668372Y-158006479D01*
X171656215Y-158006758D01*
X171627449Y-158012478D01*
X171604670Y-158007944D01*
X171595526Y-158008155D01*
X171583007Y-158003633D01*
X171550913Y-157997246D01*
X171533961Y-157985918D01*
X171524201Y-157982393D01*
X171495736Y-157960374D01*
X171486047Y-157953900D01*
X171326420Y-157794272D01*
X171243580Y-157794272D01*
X171083952Y-157953899D01*
X171074275Y-157960365D01*
X171045800Y-157982393D01*
X171036036Y-157985919D01*
X171019087Y-157997246D01*
X170986987Y-158003634D01*
X170974471Y-158008155D01*
X170965328Y-158007944D01*
X170942551Y-158012478D01*
X170913789Y-158006759D01*
X170901626Y-158006480D01*
X170891692Y-158002366D01*
X170866013Y-157997261D01*
X170844240Y-157982716D01*
X170834307Y-157978603D01*
X170825507Y-157970202D01*
X170801124Y-157953914D01*
X170788220Y-157934607D01*
X170781603Y-157928290D01*
X170775944Y-157916239D01*
X170757762Y-157889034D01*
X170753782Y-157869040D01*
X170739190Y-157837964D01*
X170714449Y-157813223D01*
X170683513Y-157798696D01*
X170663528Y-157794718D01*
X170655233Y-157789174D01*
X170609714Y-157792595D01*
X170592698Y-157803964D01*
X170590954Y-157805709D01*
X170444257Y-157903729D01*
X170281256Y-157971246D01*
X170108215Y-158005666D01*
X169931785Y-158005666D01*
X169758744Y-157971246D01*
X169595743Y-157903729D01*
X169449046Y-157805709D01*
X169447303Y-157803966D01*
X169430285Y-157792595D01*
X169384768Y-157789174D01*
X169376473Y-157794719D01*
X169356481Y-157798698D01*
X169347088Y-157803109D01*
X169333672Y-157804822D01*
X169292184Y-157835035D01*
X169276218Y-157869034D01*
X169272238Y-157889034D01*
X169254048Y-157916249D01*
X169248395Y-157928290D01*
X169241782Y-157934602D01*
X169228876Y-157953914D01*
X169204486Y-157970206D01*
X169195692Y-157978602D01*
X169185765Y-157982712D01*
X169163987Y-157997261D01*
X169138299Y-158002368D01*
X169128372Y-158006479D01*
X169116215Y-158006758D01*
X169087449Y-158012478D01*
X169064670Y-158007944D01*
X169055526Y-158008155D01*
X169043007Y-158003633D01*
X169010913Y-157997246D01*
X168993961Y-157985918D01*
X168984201Y-157982393D01*
X168955736Y-157960374D01*
X168946047Y-157953900D01*
X168786420Y-157794272D01*
X168703580Y-157794272D01*
X168543952Y-157953899D01*
X168534275Y-157960365D01*
X168505800Y-157982393D01*
X168496036Y-157985919D01*
X168479087Y-157997246D01*
X168446987Y-158003634D01*
X168434471Y-158008155D01*
X168425328Y-158007944D01*
X168402551Y-158012478D01*
X168373789Y-158006759D01*
X168361626Y-158006480D01*
X168351692Y-158002366D01*
X168326013Y-157997261D01*
X168304240Y-157982716D01*
X168294307Y-157978603D01*
X168285507Y-157970202D01*
X168261124Y-157953914D01*
X168248220Y-157934607D01*
X168241603Y-157928290D01*
X168235944Y-157916239D01*
X168217762Y-157889034D01*
X168213782Y-157869040D01*
X168199190Y-157837964D01*
X168174449Y-157813223D01*
X168143513Y-157798696D01*
X168123528Y-157794718D01*
X168115233Y-157789174D01*
X168069714Y-157792595D01*
X168052698Y-157803964D01*
X168050954Y-157805709D01*
X167904257Y-157903729D01*
X167741256Y-157971246D01*
X167568215Y-158005666D01*
X167391785Y-158005666D01*
X167218744Y-157971246D01*
X167055743Y-157903729D01*
X166909046Y-157805709D01*
X166907303Y-157803966D01*
X166890285Y-157792595D01*
X166844768Y-157789174D01*
X166836473Y-157794719D01*
X166816481Y-157798698D01*
X166807088Y-157803109D01*
X166793672Y-157804822D01*
X166752184Y-157835035D01*
X166736218Y-157869034D01*
X166732238Y-157889034D01*
X166714048Y-157916249D01*
X166708395Y-157928290D01*
X166701782Y-157934602D01*
X166688876Y-157953914D01*
X166664486Y-157970206D01*
X166655692Y-157978602D01*
X166645765Y-157982712D01*
X166623987Y-157997261D01*
X166598299Y-158002368D01*
X166588372Y-158006479D01*
X166576215Y-158006758D01*
X166547449Y-158012478D01*
X166524670Y-158007944D01*
X166515526Y-158008155D01*
X166503007Y-158003633D01*
X166470913Y-157997246D01*
X166453961Y-157985918D01*
X166444201Y-157982393D01*
X166415736Y-157960374D01*
X166406047Y-157953900D01*
X166246420Y-157794272D01*
X166163580Y-157794272D01*
X166003952Y-157953899D01*
X165994275Y-157960365D01*
X165965800Y-157982393D01*
X165956036Y-157985919D01*
X165939087Y-157997246D01*
X165906987Y-158003634D01*
X165894471Y-158008155D01*
X165885328Y-158007944D01*
X165862551Y-158012478D01*
X165833789Y-158006759D01*
X165821626Y-158006480D01*
X165811692Y-158002366D01*
X165786013Y-157997261D01*
X165764240Y-157982716D01*
X165754307Y-157978603D01*
X165745507Y-157970202D01*
X165721124Y-157953914D01*
X165708220Y-157934607D01*
X165701603Y-157928290D01*
X165695944Y-157916239D01*
X165677762Y-157889034D01*
X165673782Y-157869040D01*
X165659190Y-157837964D01*
X165634449Y-157813223D01*
X165603513Y-157798696D01*
X165583528Y-157794718D01*
X165575233Y-157789174D01*
X165529714Y-157792595D01*
X165512698Y-157803964D01*
X165510954Y-157805709D01*
X165364257Y-157903729D01*
X165201256Y-157971246D01*
X165028215Y-158005666D01*
X164851785Y-158005666D01*
X164678744Y-157971246D01*
X164515743Y-157903729D01*
X164369046Y-157805709D01*
X164367303Y-157803966D01*
X164350285Y-157792595D01*
X164304768Y-157789174D01*
X164296473Y-157794719D01*
X164276481Y-157798698D01*
X164267088Y-157803109D01*
X164253672Y-157804822D01*
X164212184Y-157835035D01*
X164196218Y-157869034D01*
X164192238Y-157889034D01*
X164174048Y-157916249D01*
X164168395Y-157928290D01*
X164161782Y-157934602D01*
X164148876Y-157953914D01*
X164124486Y-157970206D01*
X164115692Y-157978602D01*
X164105765Y-157982712D01*
X164083987Y-157997261D01*
X164058299Y-158002368D01*
X164048372Y-158006479D01*
X164036215Y-158006758D01*
X164007449Y-158012478D01*
X163984670Y-158007944D01*
X163975526Y-158008155D01*
X163963007Y-158003633D01*
X163930913Y-157997246D01*
X163913961Y-157985918D01*
X163904201Y-157982393D01*
X163875736Y-157960374D01*
X163866047Y-157953900D01*
X163706420Y-157794272D01*
X163623580Y-157794272D01*
X163463952Y-157953899D01*
X163454275Y-157960365D01*
X163425800Y-157982393D01*
X163416036Y-157985919D01*
X163399087Y-157997246D01*
X163366987Y-158003634D01*
X163354471Y-158008155D01*
X163345328Y-158007944D01*
X163322551Y-158012478D01*
X163293789Y-158006759D01*
X163281626Y-158006480D01*
X163271692Y-158002366D01*
X163246013Y-157997261D01*
X163224240Y-157982716D01*
X163214307Y-157978603D01*
X163205507Y-157970202D01*
X163181124Y-157953914D01*
X163168220Y-157934607D01*
X163161603Y-157928290D01*
X163155944Y-157916239D01*
X163137762Y-157889034D01*
X163133782Y-157869040D01*
X163119190Y-157837964D01*
X163094449Y-157813223D01*
X163063513Y-157798696D01*
X163043528Y-157794718D01*
X163035233Y-157789174D01*
X162989714Y-157792595D01*
X162972698Y-157803964D01*
X162970954Y-157805709D01*
X162824257Y-157903729D01*
X162661256Y-157971246D01*
X162488215Y-158005666D01*
X162311785Y-158005666D01*
X162138744Y-157971246D01*
X161975743Y-157903729D01*
X161829046Y-157805709D01*
X161827303Y-157803966D01*
X161810285Y-157792595D01*
X161764768Y-157789174D01*
X161756473Y-157794719D01*
X161736481Y-157798698D01*
X161727088Y-157803109D01*
X161713672Y-157804822D01*
X161672184Y-157835035D01*
X161656218Y-157869034D01*
X161652238Y-157889034D01*
X161634048Y-157916249D01*
X161628395Y-157928290D01*
X161621782Y-157934602D01*
X161608876Y-157953914D01*
X161584486Y-157970206D01*
X161575692Y-157978602D01*
X161565765Y-157982712D01*
X161543987Y-157997261D01*
X161518299Y-158002368D01*
X161508372Y-158006479D01*
X161496215Y-158006758D01*
X161467449Y-158012478D01*
X161444670Y-158007944D01*
X161435526Y-158008155D01*
X161423007Y-158003633D01*
X161390913Y-157997246D01*
X161373961Y-157985918D01*
X161364201Y-157982393D01*
X161335736Y-157960374D01*
X161326047Y-157953900D01*
X161166420Y-157794272D01*
X161083580Y-157794272D01*
X160923952Y-157953899D01*
X160914275Y-157960365D01*
X160885800Y-157982393D01*
X160876036Y-157985919D01*
X160859087Y-157997246D01*
X160826987Y-158003634D01*
X160814471Y-158008155D01*
X160805328Y-158007944D01*
X160782551Y-158012478D01*
X160753789Y-158006759D01*
X160741626Y-158006480D01*
X160731692Y-158002366D01*
X160706013Y-157997261D01*
X160684240Y-157982716D01*
X160674307Y-157978603D01*
X160665507Y-157970202D01*
X160641124Y-157953914D01*
X160628220Y-157934607D01*
X160621603Y-157928290D01*
X160615944Y-157916239D01*
X160597762Y-157889034D01*
X160593782Y-157869040D01*
X160579190Y-157837964D01*
X160554449Y-157813223D01*
X160523513Y-157798696D01*
X160503528Y-157794718D01*
X160495233Y-157789174D01*
X160449714Y-157792595D01*
X160432698Y-157803964D01*
X160430954Y-157805709D01*
X160284257Y-157903729D01*
X160121256Y-157971246D01*
X159948215Y-158005666D01*
X159771785Y-158005666D01*
X159598744Y-157971246D01*
X159435743Y-157903729D01*
X159289046Y-157805709D01*
X159287303Y-157803966D01*
X159270285Y-157792595D01*
X159224768Y-157789174D01*
X159216473Y-157794719D01*
X159196481Y-157798698D01*
X159187088Y-157803109D01*
X159173672Y-157804822D01*
X159132184Y-157835035D01*
X159116218Y-157869034D01*
X159112238Y-157889034D01*
X159094048Y-157916249D01*
X159088395Y-157928290D01*
X159081782Y-157934602D01*
X159068876Y-157953914D01*
X159044486Y-157970206D01*
X159035692Y-157978602D01*
X159025765Y-157982712D01*
X159003987Y-157997261D01*
X158978299Y-158002368D01*
X158968372Y-158006479D01*
X158956215Y-158006758D01*
X158927449Y-158012478D01*
X158904670Y-158007944D01*
X158895526Y-158008155D01*
X158883007Y-158003633D01*
X158850913Y-157997246D01*
X158833961Y-157985918D01*
X158824201Y-157982393D01*
X158795736Y-157960374D01*
X158786047Y-157953900D01*
X158626420Y-157794272D01*
X158543580Y-157794272D01*
X158383952Y-157953899D01*
X158374275Y-157960365D01*
X158345800Y-157982393D01*
X158336036Y-157985919D01*
X158319087Y-157997246D01*
X158286987Y-158003634D01*
X158274471Y-158008155D01*
X158265328Y-158007944D01*
X158242551Y-158012478D01*
X158213789Y-158006759D01*
X158201626Y-158006480D01*
X158191692Y-158002366D01*
X158166013Y-157997261D01*
X158144240Y-157982716D01*
X158134307Y-157978603D01*
X158125507Y-157970202D01*
X158101124Y-157953914D01*
X158088220Y-157934607D01*
X158081603Y-157928290D01*
X158075944Y-157916239D01*
X158057762Y-157889034D01*
X158053782Y-157869040D01*
X158039190Y-157837964D01*
X158014449Y-157813223D01*
X157983513Y-157798696D01*
X157963528Y-157794718D01*
X157955233Y-157789174D01*
X157909714Y-157792595D01*
X157892698Y-157803964D01*
X157890954Y-157805709D01*
X157744257Y-157903729D01*
X157581256Y-157971246D01*
X157408215Y-158005666D01*
X157231785Y-158005666D01*
X157058744Y-157971246D01*
X156895743Y-157903729D01*
X156749046Y-157805709D01*
X156747303Y-157803966D01*
X156730285Y-157792595D01*
X156684768Y-157789174D01*
X156676473Y-157794719D01*
X156656481Y-157798698D01*
X156647088Y-157803109D01*
X156633672Y-157804822D01*
X156592184Y-157835035D01*
X156576218Y-157869034D01*
X156572238Y-157889034D01*
X156554048Y-157916249D01*
X156548395Y-157928290D01*
X156541782Y-157934602D01*
X156528876Y-157953914D01*
X156504486Y-157970206D01*
X156495692Y-157978602D01*
X156485765Y-157982712D01*
X156463987Y-157997261D01*
X156438299Y-158002368D01*
X156428372Y-158006479D01*
X156416215Y-158006758D01*
X156387449Y-158012478D01*
X156364670Y-158007944D01*
X156355526Y-158008155D01*
X156343007Y-158003633D01*
X156310913Y-157997246D01*
X156293961Y-157985918D01*
X156284201Y-157982393D01*
X156255736Y-157960374D01*
X156246047Y-157953900D01*
X156086420Y-157794272D01*
X156003580Y-157794272D01*
X155843952Y-157953899D01*
X155834275Y-157960365D01*
X155805800Y-157982393D01*
X155796036Y-157985919D01*
X155779087Y-157997246D01*
X155746987Y-158003634D01*
X155734471Y-158008155D01*
X155725328Y-158007944D01*
X155702551Y-158012478D01*
X155673789Y-158006759D01*
X155661626Y-158006480D01*
X155651692Y-158002366D01*
X155626013Y-157997261D01*
X155604240Y-157982716D01*
X155594307Y-157978603D01*
X155585507Y-157970202D01*
X155561124Y-157953914D01*
X155548220Y-157934607D01*
X155541603Y-157928290D01*
X155535944Y-157916239D01*
X155517762Y-157889034D01*
X155513782Y-157869040D01*
X155499190Y-157837964D01*
X155474449Y-157813223D01*
X155443513Y-157798696D01*
X155423528Y-157794718D01*
X155415233Y-157789174D01*
X155369714Y-157792595D01*
X155352698Y-157803964D01*
X155350954Y-157805709D01*
X155204257Y-157903729D01*
X155041256Y-157971246D01*
X154868215Y-158005666D01*
X154691785Y-158005666D01*
X154518744Y-157971246D01*
X154355743Y-157903729D01*
X154209046Y-157805709D01*
X154207303Y-157803966D01*
X154190285Y-157792595D01*
X154144768Y-157789174D01*
X154136473Y-157794719D01*
X154116481Y-157798698D01*
X154107088Y-157803109D01*
X154093672Y-157804822D01*
X154052184Y-157835035D01*
X154036218Y-157869034D01*
X154032238Y-157889034D01*
X154014048Y-157916249D01*
X154008395Y-157928290D01*
X154001782Y-157934602D01*
X153988876Y-157953914D01*
X153964486Y-157970206D01*
X153955692Y-157978602D01*
X153945765Y-157982712D01*
X153923987Y-157997261D01*
X153898299Y-158002368D01*
X153888372Y-158006479D01*
X153876215Y-158006758D01*
X153847449Y-158012478D01*
X153824670Y-158007944D01*
X153815526Y-158008155D01*
X153803007Y-158003633D01*
X153770913Y-157997246D01*
X153753961Y-157985918D01*
X153744201Y-157982393D01*
X153715736Y-157960374D01*
X153706047Y-157953900D01*
X153546420Y-157794272D01*
X153463580Y-157794272D01*
X153303952Y-157953899D01*
X153294275Y-157960365D01*
X153265800Y-157982393D01*
X153256036Y-157985919D01*
X153239087Y-157997246D01*
X153206987Y-158003634D01*
X153194471Y-158008155D01*
X153185328Y-158007944D01*
X153162551Y-158012478D01*
X153133789Y-158006759D01*
X153121626Y-158006480D01*
X153111692Y-158002366D01*
X153086013Y-157997261D01*
X153064240Y-157982716D01*
X153054307Y-157978603D01*
X153045507Y-157970202D01*
X153021124Y-157953914D01*
X153008220Y-157934607D01*
X153001603Y-157928290D01*
X152995944Y-157916239D01*
X152977762Y-157889034D01*
X152973782Y-157869040D01*
X152959190Y-157837964D01*
X152934449Y-157813223D01*
X152903513Y-157798696D01*
X152883528Y-157794718D01*
X152875233Y-157789174D01*
X152829714Y-157792595D01*
X152812698Y-157803964D01*
X152810954Y-157805709D01*
X152664257Y-157903729D01*
X152501256Y-157971246D01*
X152328215Y-158005666D01*
X152151785Y-158005666D01*
X151978744Y-157971246D01*
X151815743Y-157903729D01*
X151669046Y-157805709D01*
X151667303Y-157803966D01*
X151650285Y-157792595D01*
X151604768Y-157789174D01*
X151596473Y-157794719D01*
X151576481Y-157798698D01*
X151567088Y-157803109D01*
X151553672Y-157804822D01*
X151512184Y-157835035D01*
X151496218Y-157869034D01*
X151492238Y-157889034D01*
X151474048Y-157916249D01*
X151468395Y-157928290D01*
X151461782Y-157934602D01*
X151448876Y-157953914D01*
X151424486Y-157970206D01*
X151415692Y-157978602D01*
X151405765Y-157982712D01*
X151383987Y-157997261D01*
X151358299Y-158002368D01*
X151348372Y-158006479D01*
X151336215Y-158006758D01*
X151307449Y-158012478D01*
X151284670Y-158007944D01*
X151275526Y-158008155D01*
X151263007Y-158003633D01*
X151230913Y-157997246D01*
X151213961Y-157985918D01*
X151204201Y-157982393D01*
X151175736Y-157960374D01*
X151166047Y-157953900D01*
X151006420Y-157794272D01*
X150923580Y-157794272D01*
X150763952Y-157953899D01*
X150754275Y-157960365D01*
X150725800Y-157982393D01*
X150716036Y-157985919D01*
X150699087Y-157997246D01*
X150666987Y-158003634D01*
X150654471Y-158008155D01*
X150645328Y-158007944D01*
X150622551Y-158012478D01*
X150593789Y-158006759D01*
X150581626Y-158006480D01*
X150571692Y-158002366D01*
X150546013Y-157997261D01*
X150524240Y-157982716D01*
X150514307Y-157978603D01*
X150505507Y-157970202D01*
X150481124Y-157953914D01*
X150468220Y-157934607D01*
X150461603Y-157928290D01*
X150455944Y-157916239D01*
X150437762Y-157889034D01*
X150433782Y-157869040D01*
X150419190Y-157837964D01*
X150394449Y-157813223D01*
X150363513Y-157798696D01*
X150343528Y-157794718D01*
X150335233Y-157789174D01*
X150289714Y-157792595D01*
X150272698Y-157803964D01*
X150270954Y-157805709D01*
X150124257Y-157903729D01*
X149961256Y-157971246D01*
X149788215Y-158005666D01*
X149611785Y-158005666D01*
X149438744Y-157971246D01*
X149275743Y-157903729D01*
X149129046Y-157805709D01*
X149127303Y-157803966D01*
X149110285Y-157792595D01*
X149064768Y-157789174D01*
X149056473Y-157794719D01*
X149036481Y-157798698D01*
X149027088Y-157803109D01*
X149013672Y-157804822D01*
X148972184Y-157835035D01*
X148956218Y-157869034D01*
X148952238Y-157889034D01*
X148934048Y-157916249D01*
X148928395Y-157928290D01*
X148921782Y-157934602D01*
X148908876Y-157953914D01*
X148884486Y-157970206D01*
X148875692Y-157978602D01*
X148865765Y-157982712D01*
X148843987Y-157997261D01*
X148818299Y-158002368D01*
X148808372Y-158006479D01*
X148796215Y-158006758D01*
X148767449Y-158012478D01*
X148744670Y-158007944D01*
X148735526Y-158008155D01*
X148723007Y-158003633D01*
X148690913Y-157997246D01*
X148673961Y-157985918D01*
X148664201Y-157982393D01*
X148635736Y-157960374D01*
X148626047Y-157953900D01*
X148466420Y-157794272D01*
X148383580Y-157794272D01*
X148223952Y-157953899D01*
X148214275Y-157960365D01*
X148185800Y-157982393D01*
X148176036Y-157985919D01*
X148159087Y-157997246D01*
X148126987Y-158003634D01*
X148114471Y-158008155D01*
X148105328Y-158007944D01*
X148082551Y-158012478D01*
X148053789Y-158006759D01*
X148041626Y-158006480D01*
X148031692Y-158002366D01*
X148006013Y-157997261D01*
X147984240Y-157982716D01*
X147974307Y-157978603D01*
X147965507Y-157970202D01*
X147941124Y-157953914D01*
X147928220Y-157934607D01*
X147921603Y-157928290D01*
X147915944Y-157916239D01*
X147897762Y-157889034D01*
X147893782Y-157869040D01*
X147879190Y-157837964D01*
X147854449Y-157813223D01*
X147823513Y-157798696D01*
X147803528Y-157794718D01*
X147795233Y-157789174D01*
X147749714Y-157792595D01*
X147732698Y-157803964D01*
X147730954Y-157805709D01*
X147584257Y-157903729D01*
X147421256Y-157971246D01*
X147248215Y-158005666D01*
X147071785Y-158005666D01*
X146898744Y-157971246D01*
X146735743Y-157903729D01*
X146589046Y-157805709D01*
X146587303Y-157803966D01*
X146570285Y-157792595D01*
X146524768Y-157789174D01*
X146516473Y-157794719D01*
X146496481Y-157798698D01*
X146487088Y-157803109D01*
X146473672Y-157804822D01*
X146432184Y-157835035D01*
X146416218Y-157869034D01*
X146412238Y-157889034D01*
X146394048Y-157916249D01*
X146388395Y-157928290D01*
X146381782Y-157934602D01*
X146368876Y-157953914D01*
X146344486Y-157970206D01*
X146335692Y-157978602D01*
X146325765Y-157982712D01*
X146303987Y-157997261D01*
X146278299Y-158002368D01*
X146268372Y-158006479D01*
X146256215Y-158006758D01*
X146227449Y-158012478D01*
X146204670Y-158007944D01*
X146195526Y-158008155D01*
X146183007Y-158003633D01*
X146150913Y-157997246D01*
X146133961Y-157985918D01*
X146124201Y-157982393D01*
X146095736Y-157960374D01*
X146086047Y-157953900D01*
X145926420Y-157794272D01*
X145843580Y-157794272D01*
X145683952Y-157953899D01*
X145674275Y-157960365D01*
X145645800Y-157982393D01*
X145636036Y-157985919D01*
X145619087Y-157997246D01*
X145586987Y-158003634D01*
X145574471Y-158008155D01*
X145565328Y-158007944D01*
X145542551Y-158012478D01*
X145513789Y-158006759D01*
X145501626Y-158006480D01*
X145491692Y-158002366D01*
X145466013Y-157997261D01*
X145444240Y-157982716D01*
X145434307Y-157978603D01*
X145425507Y-157970202D01*
X145401124Y-157953914D01*
X145388220Y-157934607D01*
X145381603Y-157928290D01*
X145375944Y-157916239D01*
X145357762Y-157889034D01*
X145353782Y-157869040D01*
X145339190Y-157837964D01*
X145314449Y-157813223D01*
X145283513Y-157798696D01*
X145263528Y-157794718D01*
X145255233Y-157789174D01*
X145209714Y-157792595D01*
X145192698Y-157803964D01*
X145190954Y-157805709D01*
X145044257Y-157903729D01*
X144881256Y-157971246D01*
X144708215Y-158005666D01*
X144531785Y-158005666D01*
X144358744Y-157971246D01*
X144195743Y-157903729D01*
X144049046Y-157805709D01*
X144047303Y-157803966D01*
X144030285Y-157792595D01*
X143984768Y-157789174D01*
X143976473Y-157794719D01*
X143956481Y-157798698D01*
X143947088Y-157803109D01*
X143933672Y-157804822D01*
X143892184Y-157835035D01*
X143876218Y-157869034D01*
X143872238Y-157889034D01*
X143854048Y-157916249D01*
X143848395Y-157928290D01*
X143841782Y-157934602D01*
X143828876Y-157953914D01*
X143804486Y-157970206D01*
X143795692Y-157978602D01*
X143785765Y-157982712D01*
X143763987Y-157997261D01*
X143738299Y-158002368D01*
X143728372Y-158006479D01*
X143716215Y-158006758D01*
X143687449Y-158012478D01*
X143664670Y-158007944D01*
X143655526Y-158008155D01*
X143643007Y-158003633D01*
X143610913Y-157997246D01*
X143593961Y-157985918D01*
X143584201Y-157982393D01*
X143555736Y-157960374D01*
X143546047Y-157953900D01*
X143386420Y-157794272D01*
X143303580Y-157794272D01*
X143143952Y-157953899D01*
X143134275Y-157960365D01*
X143105800Y-157982393D01*
X143096036Y-157985919D01*
X143079087Y-157997246D01*
X143046987Y-158003634D01*
X143034471Y-158008155D01*
X143025328Y-158007944D01*
X143002551Y-158012478D01*
X142973789Y-158006759D01*
X142961626Y-158006480D01*
X142951692Y-158002366D01*
X142926013Y-157997261D01*
X142904240Y-157982716D01*
X142894307Y-157978603D01*
X142885507Y-157970202D01*
X142861124Y-157953914D01*
X142848220Y-157934607D01*
X142841603Y-157928290D01*
X142835944Y-157916239D01*
X142817762Y-157889034D01*
X142813782Y-157869040D01*
X142799190Y-157837964D01*
X142774449Y-157813223D01*
X142743513Y-157798696D01*
X142723528Y-157794718D01*
X142715233Y-157789174D01*
X142669714Y-157792595D01*
X142652698Y-157803964D01*
X142650954Y-157805709D01*
X142504257Y-157903729D01*
X142341256Y-157971246D01*
X142168215Y-158005666D01*
X141991785Y-158005666D01*
X141818744Y-157971246D01*
X141655743Y-157903729D01*
X141509046Y-157805709D01*
X141507303Y-157803966D01*
X141490285Y-157792595D01*
X141444768Y-157789174D01*
X141436473Y-157794719D01*
X141416481Y-157798698D01*
X141407088Y-157803109D01*
X141393672Y-157804822D01*
X141352184Y-157835035D01*
X141336218Y-157869034D01*
X141332238Y-157889034D01*
X141314048Y-157916249D01*
X141308395Y-157928290D01*
X141301782Y-157934602D01*
X141288876Y-157953914D01*
X141264486Y-157970206D01*
X141255692Y-157978602D01*
X141245765Y-157982712D01*
X141223987Y-157997261D01*
X141198299Y-158002368D01*
X141188372Y-158006479D01*
X141176215Y-158006758D01*
X141147449Y-158012478D01*
X141124670Y-158007944D01*
X141115526Y-158008155D01*
X141103007Y-158003633D01*
X141070913Y-157997246D01*
X141053961Y-157985918D01*
X141044201Y-157982393D01*
X141015736Y-157960374D01*
X141006047Y-157953900D01*
X140846420Y-157794272D01*
X140763580Y-157794272D01*
X140603952Y-157953899D01*
X140594275Y-157960365D01*
X140565800Y-157982393D01*
X140556036Y-157985919D01*
X140539087Y-157997246D01*
X140506987Y-158003634D01*
X140494471Y-158008155D01*
X140485328Y-158007944D01*
X140462551Y-158012478D01*
X140433789Y-158006759D01*
X140421626Y-158006480D01*
X140411692Y-158002366D01*
X140386013Y-157997261D01*
X140364240Y-157982716D01*
X140354307Y-157978603D01*
X140345507Y-157970202D01*
X140321124Y-157953914D01*
X140308220Y-157934607D01*
X140301603Y-157928290D01*
X140295944Y-157916239D01*
X140277762Y-157889034D01*
X140273782Y-157869040D01*
X140259190Y-157837964D01*
X140234449Y-157813223D01*
X140203513Y-157798696D01*
X140183528Y-157794718D01*
X140175233Y-157789174D01*
X140129714Y-157792595D01*
X140112698Y-157803964D01*
X140110954Y-157805709D01*
X139964257Y-157903729D01*
X139801256Y-157971246D01*
X139628215Y-158005666D01*
X139451785Y-158005666D01*
X139278744Y-157971246D01*
X139115743Y-157903729D01*
X138969046Y-157805709D01*
X138844291Y-157680954D01*
X138746271Y-157534257D01*
X138678754Y-157371256D01*
X138644334Y-157198215D01*
X138644334Y-157021785D01*
X138678754Y-156848744D01*
X138746271Y-156685743D01*
X138844291Y-156539046D01*
X138846031Y-156537305D01*
X138857404Y-156520285D01*
X138860825Y-156474768D01*
X138855281Y-156466473D01*
X138851303Y-156446487D01*
X138846888Y-156437085D01*
X138842321Y-156401359D01*
X138840051Y-156389955D01*
X138840044Y-156348396D01*
X138840029Y-156269370D01*
X138824800Y-156232622D01*
X138573600Y-155981493D01*
X138548714Y-155951176D01*
X138518846Y-155879083D01*
X138515000Y-155840049D01*
X138515000Y-155839950D01*
X138518846Y-155800918D01*
X138548714Y-155728824D01*
X138573598Y-155698508D01*
X138806507Y-155465666D01*
X138824799Y-155447379D01*
X138840028Y-155410630D01*
X138840048Y-155296400D01*
X138840049Y-155296385D01*
X138840051Y-155290044D01*
X138842315Y-155278669D01*
X138846887Y-155242916D01*
X138851305Y-155233506D01*
X138855282Y-155213528D01*
X138860825Y-155205233D01*
X138857403Y-155159713D01*
X138846032Y-155142695D01*
X138844291Y-155140954D01*
X138746271Y-154994257D01*
X138678754Y-154831256D01*
X138644334Y-154658215D01*
X138644334Y-154481785D01*
X138678754Y-154308744D01*
X138746271Y-154145743D01*
X138844291Y-153999046D01*
X138846031Y-153997305D01*
X138857404Y-153980285D01*
X138860825Y-153934768D01*
X138855281Y-153926473D01*
X138851303Y-153906487D01*
X138846888Y-153897085D01*
X138842321Y-153861359D01*
X138840051Y-153849955D01*
X138840044Y-153808396D01*
X138840029Y-153729370D01*
X138824800Y-153692622D01*
X138573600Y-153441493D01*
X138548714Y-153411176D01*
X138518846Y-153339083D01*
X138515000Y-153300049D01*
X138515000Y-153299950D01*
X138518846Y-153260918D01*
X138548714Y-153188824D01*
X138573598Y-153158508D01*
X138806507Y-152925666D01*
X138824799Y-152907379D01*
X138840028Y-152870630D01*
X138840048Y-152756400D01*
X138840049Y-152756385D01*
X138840051Y-152750044D01*
X138842315Y-152738669D01*
X138846887Y-152702916D01*
X138851305Y-152693506D01*
X138855282Y-152673528D01*
X138860825Y-152665233D01*
X138857403Y-152619713D01*
X138846032Y-152602695D01*
X138844291Y-152600954D01*
X138746271Y-152454257D01*
X138678754Y-152291256D01*
X138644334Y-152118215D01*
X138644334Y-151941785D01*
X138678754Y-151768744D01*
X138746271Y-151605743D01*
X138844291Y-151459046D01*
X138846031Y-151457305D01*
X138857404Y-151440285D01*
X138860825Y-151394768D01*
X138855281Y-151386473D01*
X138851303Y-151366487D01*
X138846888Y-151357085D01*
X138842321Y-151321359D01*
X138840051Y-151309955D01*
X138840044Y-151268396D01*
X138840029Y-151189370D01*
X138824800Y-151152622D01*
X138573600Y-150901493D01*
X138548714Y-150871176D01*
X138518846Y-150799083D01*
X138515000Y-150760049D01*
X138515000Y-150759950D01*
X138518846Y-150720918D01*
X138548714Y-150648824D01*
X138573598Y-150618508D01*
X138806507Y-150385666D01*
X138824799Y-150367379D01*
X138840028Y-150330630D01*
X138840048Y-150216400D01*
X138840049Y-150216385D01*
X138840051Y-150210044D01*
X138842315Y-150198669D01*
X138846887Y-150162916D01*
X138851305Y-150153506D01*
X138855282Y-150133528D01*
X138860825Y-150125233D01*
X138857403Y-150079713D01*
X138846032Y-150062695D01*
X138844291Y-150060954D01*
X138746271Y-149914257D01*
X138678754Y-149751256D01*
X138644334Y-149578215D01*
X138644334Y-149401785D01*
X138678754Y-149228744D01*
X138746271Y-149065743D01*
X138844291Y-148919046D01*
X138846031Y-148917305D01*
X138857404Y-148900285D01*
X138860825Y-148854768D01*
X138855281Y-148846473D01*
X138851303Y-148826487D01*
X138846888Y-148817085D01*
X138842321Y-148781359D01*
X138840051Y-148769955D01*
X138840044Y-148728396D01*
X138840029Y-148649370D01*
X138824800Y-148612622D01*
X138573600Y-148361493D01*
X138548714Y-148331176D01*
X138518846Y-148259083D01*
X138515000Y-148220049D01*
X138515000Y-148219950D01*
X138518846Y-148180918D01*
X138548714Y-148108824D01*
X138573598Y-148078508D01*
X138806507Y-147845666D01*
X138824799Y-147827379D01*
X138840028Y-147790630D01*
X138840048Y-147676400D01*
X138840049Y-147676385D01*
X138840051Y-147670044D01*
X138842315Y-147658669D01*
X138846887Y-147622916D01*
X138851305Y-147613506D01*
X138855282Y-147593528D01*
X138860825Y-147585233D01*
X138857403Y-147539713D01*
X138846032Y-147522695D01*
X138844291Y-147520954D01*
X138746271Y-147374257D01*
X138678754Y-147211256D01*
X138644334Y-147038215D01*
X138644334Y-146861785D01*
X138678754Y-146688744D01*
X138746271Y-146525743D01*
X138844291Y-146379046D01*
X138846031Y-146377305D01*
X138857404Y-146360285D01*
X138860825Y-146314768D01*
X138855281Y-146306473D01*
X138851303Y-146286487D01*
X138846888Y-146277085D01*
X138842321Y-146241359D01*
X138840051Y-146229955D01*
X138840044Y-146188396D01*
X138840029Y-146109370D01*
X138824800Y-146072622D01*
X138573600Y-145821493D01*
X138548714Y-145791176D01*
X138518846Y-145719083D01*
X138515000Y-145680049D01*
X138515000Y-145679950D01*
X138518846Y-145640918D01*
X138548714Y-145568824D01*
X138573598Y-145538508D01*
X138806507Y-145305666D01*
X138824799Y-145287379D01*
X138840028Y-145250630D01*
X138840048Y-145136400D01*
X138840049Y-145136385D01*
X138840051Y-145130044D01*
X138842315Y-145118669D01*
X138846887Y-145082916D01*
X138851305Y-145073506D01*
X138855282Y-145053528D01*
X138860825Y-145045233D01*
X138857403Y-144999713D01*
X138846032Y-144982695D01*
X138844291Y-144980954D01*
X138746271Y-144834257D01*
X138678754Y-144671256D01*
X138644334Y-144498215D01*
X138644334Y-144321785D01*
X138678754Y-144148744D01*
X138746271Y-143985743D01*
X138844291Y-143839046D01*
X138846031Y-143837305D01*
X138857404Y-143820285D01*
X138860825Y-143774768D01*
X138855281Y-143766473D01*
X138851303Y-143746487D01*
X138846888Y-143737085D01*
X138842321Y-143701359D01*
X138840051Y-143689955D01*
X138840044Y-143648396D01*
X138840029Y-143569370D01*
X138824800Y-143532622D01*
X138573600Y-143281493D01*
X138548714Y-143251176D01*
X138518846Y-143179083D01*
X138515000Y-143140049D01*
X138515000Y-143139950D01*
X138518846Y-143100918D01*
X138548714Y-143028824D01*
X138573598Y-142998508D01*
X138806507Y-142765666D01*
X138824799Y-142747379D01*
X138840028Y-142710630D01*
X138840048Y-142596400D01*
X138840049Y-142596385D01*
X138840051Y-142590044D01*
X138842315Y-142578669D01*
X138846887Y-142542916D01*
X138851305Y-142533506D01*
X138855282Y-142513528D01*
X138860825Y-142505233D01*
X138857403Y-142459713D01*
X138846032Y-142442695D01*
X138844291Y-142440954D01*
X138746271Y-142294257D01*
X138678754Y-142131256D01*
X138644334Y-141958215D01*
X138644334Y-141781785D01*
X138678754Y-141608744D01*
X138746271Y-141445743D01*
X138844291Y-141299046D01*
X138846031Y-141297305D01*
X138857404Y-141280285D01*
X138860825Y-141234768D01*
X138855281Y-141226473D01*
X138851303Y-141206487D01*
X138846888Y-141197085D01*
X138842321Y-141161359D01*
X138840051Y-141149955D01*
X138840044Y-141108396D01*
X138840029Y-141029370D01*
X138824800Y-140992622D01*
X138573600Y-140741493D01*
X138548714Y-140711176D01*
X138518846Y-140639083D01*
X138515000Y-140600049D01*
X138515000Y-140599950D01*
X138518846Y-140560918D01*
X138548714Y-140488824D01*
X138573598Y-140458508D01*
X138806507Y-140225666D01*
X138824799Y-140207379D01*
X138840028Y-140170630D01*
X138840048Y-140056400D01*
X138840049Y-140056385D01*
X138840051Y-140050044D01*
X138842315Y-140038669D01*
X138846887Y-140002916D01*
X138851305Y-139993506D01*
X138855282Y-139973528D01*
X138860825Y-139965233D01*
X138857403Y-139919713D01*
X138846032Y-139902695D01*
X138844291Y-139900954D01*
X138746271Y-139754257D01*
X138678754Y-139591256D01*
X138644334Y-139418215D01*
X138644334Y-139241785D01*
X138678754Y-139068744D01*
X138746271Y-138905743D01*
X138844291Y-138759046D01*
X138846031Y-138757305D01*
X138857404Y-138740285D01*
X138860825Y-138694768D01*
X138855281Y-138686473D01*
X138851303Y-138666487D01*
X138846888Y-138657085D01*
X138842321Y-138621359D01*
X138840051Y-138609955D01*
X138840044Y-138568396D01*
X138840029Y-138489370D01*
X138824800Y-138452622D01*
X138573600Y-138201493D01*
X138548714Y-138171176D01*
X138518846Y-138099083D01*
X138515000Y-138060049D01*
X138515000Y-138059950D01*
X138518846Y-138020918D01*
X138548714Y-137948824D01*
X138573598Y-137918508D01*
X138806507Y-137685666D01*
X138824799Y-137667379D01*
X138840028Y-137630630D01*
X138840048Y-137516400D01*
X138840049Y-137516385D01*
X138840051Y-137510044D01*
X138842315Y-137498669D01*
X138846887Y-137462916D01*
X138851305Y-137453506D01*
X138855282Y-137433528D01*
X138860825Y-137425233D01*
X138857403Y-137379713D01*
X138846032Y-137362695D01*
X138844291Y-137360954D01*
X138746271Y-137214257D01*
X138678754Y-137051256D01*
X138644334Y-136878215D01*
X138644334Y-136701785D01*
X138678754Y-136528744D01*
X138746271Y-136365743D01*
X138844291Y-136219046D01*
X138846031Y-136217305D01*
X138857404Y-136200285D01*
X138860825Y-136154768D01*
X138855281Y-136146473D01*
X138851303Y-136126487D01*
X138846888Y-136117085D01*
X138842321Y-136081359D01*
X138840051Y-136069955D01*
X138840044Y-136028396D01*
X138840029Y-135949370D01*
X138824800Y-135912622D01*
X138573600Y-135661493D01*
X138548714Y-135631176D01*
X138518846Y-135559083D01*
X138515000Y-135520049D01*
X138515000Y-135519950D01*
X138518846Y-135480918D01*
X138548714Y-135408824D01*
X138573598Y-135378508D01*
X138806507Y-135145666D01*
X138824799Y-135127379D01*
X138840028Y-135090630D01*
X138840048Y-134976400D01*
X138840049Y-134976385D01*
X138840051Y-134970044D01*
X138842315Y-134958669D01*
X138846887Y-134922916D01*
X138851305Y-134913506D01*
X138855282Y-134893528D01*
X138860825Y-134885233D01*
X138857403Y-134839713D01*
X138846032Y-134822695D01*
X138844291Y-134820954D01*
X138746271Y-134674257D01*
X138678754Y-134511256D01*
X138644334Y-134338215D01*
X138644334Y-134161785D01*
X138678754Y-133988744D01*
X138746271Y-133825743D01*
X138844291Y-133679046D01*
X138846031Y-133677305D01*
X138857404Y-133660285D01*
X138860825Y-133614768D01*
X138855281Y-133606473D01*
X138851303Y-133586487D01*
X138846888Y-133577085D01*
X138842321Y-133541359D01*
X138840051Y-133529955D01*
X138840044Y-133488396D01*
X138840029Y-133409370D01*
X138824800Y-133372622D01*
X138573600Y-133121493D01*
X138548714Y-133091176D01*
X138518846Y-133019083D01*
X138515000Y-132980049D01*
X138515000Y-132979950D01*
X138518846Y-132940918D01*
X138548714Y-132868824D01*
X138573598Y-132838508D01*
X138806507Y-132605666D01*
X138824799Y-132587379D01*
X138840028Y-132550630D01*
X138840048Y-132436400D01*
X138840049Y-132436385D01*
X138840051Y-132430044D01*
X138842315Y-132418669D01*
X138846887Y-132382916D01*
X138851305Y-132373506D01*
X138855282Y-132353528D01*
X138860825Y-132345233D01*
X138857403Y-132299713D01*
X138846032Y-132282695D01*
X138844291Y-132280954D01*
X138746271Y-132134257D01*
X138678754Y-131971256D01*
X138644334Y-131798215D01*
X138644334Y-131621785D01*
X138678754Y-131448744D01*
X138746271Y-131285743D01*
X138844291Y-131139046D01*
X138846031Y-131137305D01*
X138857404Y-131120285D01*
X138860825Y-131074768D01*
X138855281Y-131066473D01*
X138851303Y-131046487D01*
X138846888Y-131037085D01*
X138842321Y-131001359D01*
X138840051Y-130989955D01*
X138840044Y-130948396D01*
X138840029Y-130869370D01*
X138824800Y-130832622D01*
X138573600Y-130581493D01*
X138548714Y-130551176D01*
X138518846Y-130479083D01*
X138515000Y-130440049D01*
X138515000Y-130439950D01*
X138518846Y-130400918D01*
X138548714Y-130328824D01*
X138573598Y-130298508D01*
X138806507Y-130065666D01*
X138824799Y-130047379D01*
X138840028Y-130010630D01*
X138840048Y-129896400D01*
X138840049Y-129896385D01*
X138840051Y-129890044D01*
X138842315Y-129878669D01*
X138846887Y-129842916D01*
X138851305Y-129833506D01*
X138855282Y-129813528D01*
X138860825Y-129805233D01*
X138857403Y-129759713D01*
X138846032Y-129742695D01*
X138844291Y-129740954D01*
X138746271Y-129594257D01*
X138678754Y-129431256D01*
X138644334Y-129258215D01*
X138644334Y-129081785D01*
X138678754Y-128908744D01*
X138746271Y-128745743D01*
X138844291Y-128599046D01*
X138846031Y-128597305D01*
X138857404Y-128580285D01*
X138860825Y-128534768D01*
X138855281Y-128526473D01*
X138851303Y-128506487D01*
X138846888Y-128497085D01*
X138842321Y-128461359D01*
X138840051Y-128449955D01*
X138840044Y-128408396D01*
X138840029Y-128329370D01*
X138824800Y-128292622D01*
X138573600Y-128041493D01*
X138548714Y-128011176D01*
X138518846Y-127939083D01*
X138515000Y-127900049D01*
X138515000Y-127899950D01*
X138518846Y-127860918D01*
X138548714Y-127788824D01*
X138573598Y-127758508D01*
X138806507Y-127525666D01*
X138824799Y-127507379D01*
X138840028Y-127470630D01*
X138840048Y-127356400D01*
X138840049Y-127356385D01*
X138840051Y-127350044D01*
X138842315Y-127338669D01*
X138846887Y-127302916D01*
X138851305Y-127293506D01*
X138855282Y-127273528D01*
X138860825Y-127265233D01*
X138857403Y-127219713D01*
X138846032Y-127202695D01*
X138844291Y-127200954D01*
X138746271Y-127054257D01*
X138678754Y-126891256D01*
X138644334Y-126718215D01*
X138644334Y-126541785D01*
X138678754Y-126368744D01*
X138746271Y-126205743D01*
X138844291Y-126059046D01*
X138846031Y-126057305D01*
X138857404Y-126040285D01*
X138860825Y-125994768D01*
X138855281Y-125986473D01*
X138851303Y-125966487D01*
X138846888Y-125957085D01*
X138842321Y-125921359D01*
X138840051Y-125909955D01*
X138840044Y-125868396D01*
X138840029Y-125789370D01*
X138824800Y-125752622D01*
X138573600Y-125501493D01*
X138548714Y-125471176D01*
X138518846Y-125399083D01*
X138515000Y-125360049D01*
X138515000Y-125359950D01*
X138518846Y-125320918D01*
X138548714Y-125248824D01*
X138573598Y-125218508D01*
X138806507Y-124985666D01*
X138824799Y-124967379D01*
X138840028Y-124930630D01*
X138840048Y-124816400D01*
X138840049Y-124816385D01*
X138840051Y-124810044D01*
X138842315Y-124798669D01*
X138846887Y-124762916D01*
X138851305Y-124753506D01*
X138855282Y-124733528D01*
X138860825Y-124725233D01*
X138857403Y-124679713D01*
X138846032Y-124662695D01*
X138844291Y-124660954D01*
X138746271Y-124514257D01*
X138678754Y-124351256D01*
X138644334Y-124178215D01*
X138644334Y-124001785D01*
X138678754Y-123828744D01*
X138746271Y-123665743D01*
X138844291Y-123519046D01*
X138969046Y-123394291D01*
X139115743Y-123296271D01*
X139278744Y-123228754D01*
X139451785Y-123194334D01*
X139628215Y-123194334D01*
X139801256Y-123228754D01*
X139964257Y-123296271D01*
X140110954Y-123394291D01*
X140112695Y-123396032D01*
X140129713Y-123407403D01*
X140175230Y-123410825D01*
X140183527Y-123405281D01*
X140203508Y-123401303D01*
X140212913Y-123396888D01*
X140248642Y-123392320D01*
X140260045Y-123390051D01*
X140279275Y-123390047D01*
X140380629Y-123390029D01*
X140417378Y-123374800D01*
X140664827Y-123127281D01*
X140664827Y-123127280D01*
X140668507Y-123123600D01*
X140698824Y-123098714D01*
X140770917Y-123068846D01*
X140809951Y-123065000D01*
X140810050Y-123065000D01*
X140849082Y-123068846D01*
G37*
G36*
X137094292Y-153612632D02*
G01*
X137279254Y-153649423D01*
X137453484Y-153721592D01*
X137610286Y-153826364D01*
X137743636Y-153959714D01*
X137848408Y-154116516D01*
X137920577Y-154290746D01*
X137957368Y-154475708D01*
X137957368Y-154664292D01*
X137920577Y-154849254D01*
X137848408Y-155023484D01*
X137743636Y-155180286D01*
X137610286Y-155313636D01*
X137453484Y-155418408D01*
X137279254Y-155490577D01*
X137094292Y-155527368D01*
X137000000Y-155532000D01*
X136997536Y-155532000D01*
X135478464Y-155532000D01*
X135476000Y-155532000D01*
X135381708Y-155527368D01*
X135196746Y-155490577D01*
X135022516Y-155418408D01*
X134865714Y-155313636D01*
X134732364Y-155180286D01*
X134627592Y-155023484D01*
X134555423Y-154849254D01*
X134518632Y-154664292D01*
X134518632Y-154475708D01*
X134555423Y-154290746D01*
X134627592Y-154116516D01*
X134732364Y-153959714D01*
X134865714Y-153826364D01*
X135022516Y-153721592D01*
X135196746Y-153649423D01*
X135381708Y-153612632D01*
X135476000Y-153608000D01*
X137000000Y-153608000D01*
X137094292Y-153612632D01*
G37*
G36*
X191958292Y-153612632D02*
G01*
X192143254Y-153649423D01*
X192317484Y-153721592D01*
X192474286Y-153826364D01*
X192607636Y-153959714D01*
X192712408Y-154116516D01*
X192784577Y-154290746D01*
X192821368Y-154475708D01*
X192821368Y-154664292D01*
X192784577Y-154849254D01*
X192712408Y-155023484D01*
X192607636Y-155180286D01*
X192474286Y-155313636D01*
X192317484Y-155418408D01*
X192143254Y-155490577D01*
X191958292Y-155527368D01*
X191864000Y-155532000D01*
X191861536Y-155532000D01*
X190342464Y-155532000D01*
X190340000Y-155532000D01*
X190245708Y-155527368D01*
X190060746Y-155490577D01*
X189886516Y-155418408D01*
X189729714Y-155313636D01*
X189596364Y-155180286D01*
X189491592Y-155023484D01*
X189419423Y-154849254D01*
X189382632Y-154664292D01*
X189382632Y-154475708D01*
X189419423Y-154290746D01*
X189491592Y-154116516D01*
X189596364Y-153959714D01*
X189729714Y-153826364D01*
X189886516Y-153721592D01*
X190060746Y-153649423D01*
X190245708Y-153612632D01*
X190340000Y-153608000D01*
X191864000Y-153608000D01*
X191958292Y-153612632D01*
G37*
G36*
X137094292Y-151072632D02*
G01*
X137279254Y-151109423D01*
X137453484Y-151181592D01*
X137610286Y-151286364D01*
X137743636Y-151419714D01*
X137848408Y-151576516D01*
X137920577Y-151750746D01*
X137957368Y-151935708D01*
X137957368Y-152124292D01*
X137920577Y-152309254D01*
X137848408Y-152483484D01*
X137743636Y-152640286D01*
X137610286Y-152773636D01*
X137453484Y-152878408D01*
X137279254Y-152950577D01*
X137094292Y-152987368D01*
X137000000Y-152992000D01*
X136997536Y-152992000D01*
X135478464Y-152992000D01*
X135476000Y-152992000D01*
X135381708Y-152987368D01*
X135196746Y-152950577D01*
X135022516Y-152878408D01*
X134865714Y-152773636D01*
X134732364Y-152640286D01*
X134627592Y-152483484D01*
X134555423Y-152309254D01*
X134518632Y-152124292D01*
X134518632Y-151935708D01*
X134555423Y-151750746D01*
X134627592Y-151576516D01*
X134732364Y-151419714D01*
X134865714Y-151286364D01*
X135022516Y-151181592D01*
X135196746Y-151109423D01*
X135381708Y-151072632D01*
X135476000Y-151068000D01*
X137000000Y-151068000D01*
X137094292Y-151072632D01*
G37*
G36*
X191958292Y-151072632D02*
G01*
X192143254Y-151109423D01*
X192317484Y-151181592D01*
X192474286Y-151286364D01*
X192607636Y-151419714D01*
X192712408Y-151576516D01*
X192784577Y-151750746D01*
X192821368Y-151935708D01*
X192821368Y-152124292D01*
X192784577Y-152309254D01*
X192712408Y-152483484D01*
X192607636Y-152640286D01*
X192474286Y-152773636D01*
X192317484Y-152878408D01*
X192143254Y-152950577D01*
X191958292Y-152987368D01*
X191864000Y-152992000D01*
X191861536Y-152992000D01*
X190342464Y-152992000D01*
X190340000Y-152992000D01*
X190245708Y-152987368D01*
X190060746Y-152950577D01*
X189886516Y-152878408D01*
X189729714Y-152773636D01*
X189596364Y-152640286D01*
X189491592Y-152483484D01*
X189419423Y-152309254D01*
X189382632Y-152124292D01*
X189382632Y-151935708D01*
X189419423Y-151750746D01*
X189491592Y-151576516D01*
X189596364Y-151419714D01*
X189729714Y-151286364D01*
X189886516Y-151181592D01*
X190060746Y-151109423D01*
X190245708Y-151072632D01*
X190340000Y-151068000D01*
X191864000Y-151068000D01*
X191958292Y-151072632D01*
G37*
G36*
X137094292Y-148532632D02*
G01*
X137279254Y-148569423D01*
X137453484Y-148641592D01*
X137610286Y-148746364D01*
X137743636Y-148879714D01*
X137848408Y-149036516D01*
X137920577Y-149210746D01*
X137957368Y-149395708D01*
X137957368Y-149584292D01*
X137920577Y-149769254D01*
X137848408Y-149943484D01*
X137743636Y-150100286D01*
X137610286Y-150233636D01*
X137453484Y-150338408D01*
X137279254Y-150410577D01*
X137094292Y-150447368D01*
X137000000Y-150452000D01*
X136997536Y-150452000D01*
X135478464Y-150452000D01*
X135476000Y-150452000D01*
X135381708Y-150447368D01*
X135196746Y-150410577D01*
X135022516Y-150338408D01*
X134865714Y-150233636D01*
X134732364Y-150100286D01*
X134627592Y-149943484D01*
X134555423Y-149769254D01*
X134518632Y-149584292D01*
X134518632Y-149395708D01*
X134555423Y-149210746D01*
X134627592Y-149036516D01*
X134732364Y-148879714D01*
X134865714Y-148746364D01*
X135022516Y-148641592D01*
X135196746Y-148569423D01*
X135381708Y-148532632D01*
X135476000Y-148528000D01*
X137000000Y-148528000D01*
X137094292Y-148532632D01*
G37*
G36*
X191958292Y-148532632D02*
G01*
X192143254Y-148569423D01*
X192317484Y-148641592D01*
X192474286Y-148746364D01*
X192607636Y-148879714D01*
X192712408Y-149036516D01*
X192784577Y-149210746D01*
X192821368Y-149395708D01*
X192821368Y-149584292D01*
X192784577Y-149769254D01*
X192712408Y-149943484D01*
X192607636Y-150100286D01*
X192474286Y-150233636D01*
X192317484Y-150338408D01*
X192143254Y-150410577D01*
X191958292Y-150447368D01*
X191864000Y-150452000D01*
X191861536Y-150452000D01*
X190342464Y-150452000D01*
X190340000Y-150452000D01*
X190245708Y-150447368D01*
X190060746Y-150410577D01*
X189886516Y-150338408D01*
X189729714Y-150233636D01*
X189596364Y-150100286D01*
X189491592Y-149943484D01*
X189419423Y-149769254D01*
X189382632Y-149584292D01*
X189382632Y-149395708D01*
X189419423Y-149210746D01*
X189491592Y-149036516D01*
X189596364Y-148879714D01*
X189729714Y-148746364D01*
X189886516Y-148641592D01*
X190060746Y-148569423D01*
X190245708Y-148532632D01*
X190340000Y-148528000D01*
X191864000Y-148528000D01*
X191958292Y-148532632D01*
G37*
G36*
X137094292Y-145992632D02*
G01*
X137279254Y-146029423D01*
X137453484Y-146101592D01*
X137610286Y-146206364D01*
X137743636Y-146339714D01*
X137848408Y-146496516D01*
X137920577Y-146670746D01*
X137957368Y-146855708D01*
X137957368Y-147044292D01*
X137920577Y-147229254D01*
X137848408Y-147403484D01*
X137743636Y-147560286D01*
X137610286Y-147693636D01*
X137453484Y-147798408D01*
X137279254Y-147870577D01*
X137094292Y-147907368D01*
X137000000Y-147912000D01*
X136997536Y-147912000D01*
X135478464Y-147912000D01*
X135476000Y-147912000D01*
X135381708Y-147907368D01*
X135196746Y-147870577D01*
X135022516Y-147798408D01*
X134865714Y-147693636D01*
X134732364Y-147560286D01*
X134627592Y-147403484D01*
X134555423Y-147229254D01*
X134518632Y-147044292D01*
X134518632Y-146855708D01*
X134555423Y-146670746D01*
X134627592Y-146496516D01*
X134732364Y-146339714D01*
X134865714Y-146206364D01*
X135022516Y-146101592D01*
X135196746Y-146029423D01*
X135381708Y-145992632D01*
X135476000Y-145988000D01*
X137000000Y-145988000D01*
X137094292Y-145992632D01*
G37*
G36*
X191958292Y-145992632D02*
G01*
X192143254Y-146029423D01*
X192317484Y-146101592D01*
X192474286Y-146206364D01*
X192607636Y-146339714D01*
X192712408Y-146496516D01*
X192784577Y-146670746D01*
X192821368Y-146855708D01*
X192821368Y-147044292D01*
X192784577Y-147229254D01*
X192712408Y-147403484D01*
X192607636Y-147560286D01*
X192474286Y-147693636D01*
X192317484Y-147798408D01*
X192143254Y-147870577D01*
X191958292Y-147907368D01*
X191864000Y-147912000D01*
X191861536Y-147912000D01*
X190342464Y-147912000D01*
X190340000Y-147912000D01*
X190245708Y-147907368D01*
X190060746Y-147870577D01*
X189886516Y-147798408D01*
X189729714Y-147693636D01*
X189596364Y-147560286D01*
X189491592Y-147403484D01*
X189419423Y-147229254D01*
X189382632Y-147044292D01*
X189382632Y-146855708D01*
X189419423Y-146670746D01*
X189491592Y-146496516D01*
X189596364Y-146339714D01*
X189729714Y-146206364D01*
X189886516Y-146101592D01*
X190060746Y-146029423D01*
X190245708Y-145992632D01*
X190340000Y-145988000D01*
X191864000Y-145988000D01*
X191958292Y-145992632D01*
G37*
G36*
X137094292Y-143452632D02*
G01*
X137279254Y-143489423D01*
X137453484Y-143561592D01*
X137610286Y-143666364D01*
X137743636Y-143799714D01*
X137848408Y-143956516D01*
X137920577Y-144130746D01*
X137957368Y-144315708D01*
X137957368Y-144504292D01*
X137920577Y-144689254D01*
X137848408Y-144863484D01*
X137743636Y-145020286D01*
X137610286Y-145153636D01*
X137453484Y-145258408D01*
X137279254Y-145330577D01*
X137094292Y-145367368D01*
X137000000Y-145372000D01*
X136997536Y-145372000D01*
X135478464Y-145372000D01*
X135476000Y-145372000D01*
X135381708Y-145367368D01*
X135196746Y-145330577D01*
X135022516Y-145258408D01*
X134865714Y-145153636D01*
X134732364Y-145020286D01*
X134627592Y-144863484D01*
X134555423Y-144689254D01*
X134518632Y-144504292D01*
X134518632Y-144315708D01*
X134555423Y-144130746D01*
X134627592Y-143956516D01*
X134732364Y-143799714D01*
X134865714Y-143666364D01*
X135022516Y-143561592D01*
X135196746Y-143489423D01*
X135381708Y-143452632D01*
X135476000Y-143448000D01*
X137000000Y-143448000D01*
X137094292Y-143452632D01*
G37*
G36*
X191958292Y-143452632D02*
G01*
X192143254Y-143489423D01*
X192317484Y-143561592D01*
X192474286Y-143666364D01*
X192607636Y-143799714D01*
X192712408Y-143956516D01*
X192784577Y-144130746D01*
X192821368Y-144315708D01*
X192821368Y-144504292D01*
X192784577Y-144689254D01*
X192712408Y-144863484D01*
X192607636Y-145020286D01*
X192474286Y-145153636D01*
X192317484Y-145258408D01*
X192143254Y-145330577D01*
X191958292Y-145367368D01*
X191864000Y-145372000D01*
X191861536Y-145372000D01*
X190342464Y-145372000D01*
X190340000Y-145372000D01*
X190245708Y-145367368D01*
X190060746Y-145330577D01*
X189886516Y-145258408D01*
X189729714Y-145153636D01*
X189596364Y-145020286D01*
X189491592Y-144863484D01*
X189419423Y-144689254D01*
X189382632Y-144504292D01*
X189382632Y-144315708D01*
X189419423Y-144130746D01*
X189491592Y-143956516D01*
X189596364Y-143799714D01*
X189729714Y-143666364D01*
X189886516Y-143561592D01*
X190060746Y-143489423D01*
X190245708Y-143452632D01*
X190340000Y-143448000D01*
X191864000Y-143448000D01*
X191958292Y-143452632D01*
G37*
G36*
X137094292Y-140912632D02*
G01*
X137279254Y-140949423D01*
X137453484Y-141021592D01*
X137610286Y-141126364D01*
X137743636Y-141259714D01*
X137848408Y-141416516D01*
X137920577Y-141590746D01*
X137957368Y-141775708D01*
X137957368Y-141964292D01*
X137920577Y-142149254D01*
X137848408Y-142323484D01*
X137743636Y-142480286D01*
X137610286Y-142613636D01*
X137453484Y-142718408D01*
X137279254Y-142790577D01*
X137094292Y-142827368D01*
X137000000Y-142832000D01*
X136997536Y-142832000D01*
X135478464Y-142832000D01*
X135476000Y-142832000D01*
X135381708Y-142827368D01*
X135196746Y-142790577D01*
X135022516Y-142718408D01*
X134865714Y-142613636D01*
X134732364Y-142480286D01*
X134627592Y-142323484D01*
X134555423Y-142149254D01*
X134518632Y-141964292D01*
X134518632Y-141775708D01*
X134555423Y-141590746D01*
X134627592Y-141416516D01*
X134732364Y-141259714D01*
X134865714Y-141126364D01*
X135022516Y-141021592D01*
X135196746Y-140949423D01*
X135381708Y-140912632D01*
X135476000Y-140908000D01*
X137000000Y-140908000D01*
X137094292Y-140912632D01*
G37*
G36*
X191958292Y-140912632D02*
G01*
X192143254Y-140949423D01*
X192317484Y-141021592D01*
X192474286Y-141126364D01*
X192607636Y-141259714D01*
X192712408Y-141416516D01*
X192784577Y-141590746D01*
X192821368Y-141775708D01*
X192821368Y-141964292D01*
X192784577Y-142149254D01*
X192712408Y-142323484D01*
X192607636Y-142480286D01*
X192474286Y-142613636D01*
X192317484Y-142718408D01*
X192143254Y-142790577D01*
X191958292Y-142827368D01*
X191864000Y-142832000D01*
X191861536Y-142832000D01*
X190342464Y-142832000D01*
X190340000Y-142832000D01*
X190245708Y-142827368D01*
X190060746Y-142790577D01*
X189886516Y-142718408D01*
X189729714Y-142613636D01*
X189596364Y-142480286D01*
X189491592Y-142323484D01*
X189419423Y-142149254D01*
X189382632Y-141964292D01*
X189382632Y-141775708D01*
X189419423Y-141590746D01*
X189491592Y-141416516D01*
X189596364Y-141259714D01*
X189729714Y-141126364D01*
X189886516Y-141021592D01*
X190060746Y-140949423D01*
X190245708Y-140912632D01*
X190340000Y-140908000D01*
X191864000Y-140908000D01*
X191958292Y-140912632D01*
G37*
G36*
X137094292Y-138372632D02*
G01*
X137279254Y-138409423D01*
X137453484Y-138481592D01*
X137610286Y-138586364D01*
X137743636Y-138719714D01*
X137848408Y-138876516D01*
X137920577Y-139050746D01*
X137957368Y-139235708D01*
X137957368Y-139424292D01*
X137920577Y-139609254D01*
X137848408Y-139783484D01*
X137743636Y-139940286D01*
X137610286Y-140073636D01*
X137453484Y-140178408D01*
X137279254Y-140250577D01*
X137094292Y-140287368D01*
X137000000Y-140292000D01*
X136997536Y-140292000D01*
X135478464Y-140292000D01*
X135476000Y-140292000D01*
X135381708Y-140287368D01*
X135196746Y-140250577D01*
X135022516Y-140178408D01*
X134865714Y-140073636D01*
X134732364Y-139940286D01*
X134627592Y-139783484D01*
X134555423Y-139609254D01*
X134518632Y-139424292D01*
X134518632Y-139235708D01*
X134555423Y-139050746D01*
X134627592Y-138876516D01*
X134732364Y-138719714D01*
X134865714Y-138586364D01*
X135022516Y-138481592D01*
X135196746Y-138409423D01*
X135381708Y-138372632D01*
X135476000Y-138368000D01*
X137000000Y-138368000D01*
X137094292Y-138372632D01*
G37*
G36*
X191958292Y-138372632D02*
G01*
X192143254Y-138409423D01*
X192317484Y-138481592D01*
X192474286Y-138586364D01*
X192607636Y-138719714D01*
X192712408Y-138876516D01*
X192784577Y-139050746D01*
X192821368Y-139235708D01*
X192821368Y-139424292D01*
X192784577Y-139609254D01*
X192712408Y-139783484D01*
X192607636Y-139940286D01*
X192474286Y-140073636D01*
X192317484Y-140178408D01*
X192143254Y-140250577D01*
X191958292Y-140287368D01*
X191864000Y-140292000D01*
X191861536Y-140292000D01*
X190342464Y-140292000D01*
X190340000Y-140292000D01*
X190245708Y-140287368D01*
X190060746Y-140250577D01*
X189886516Y-140178408D01*
X189729714Y-140073636D01*
X189596364Y-139940286D01*
X189491592Y-139783484D01*
X189419423Y-139609254D01*
X189382632Y-139424292D01*
X189382632Y-139235708D01*
X189419423Y-139050746D01*
X189491592Y-138876516D01*
X189596364Y-138719714D01*
X189729714Y-138586364D01*
X189886516Y-138481592D01*
X190060746Y-138409423D01*
X190245708Y-138372632D01*
X190340000Y-138368000D01*
X191864000Y-138368000D01*
X191958292Y-138372632D01*
G37*
G36*
X137094292Y-135832632D02*
G01*
X137279254Y-135869423D01*
X137453484Y-135941592D01*
X137610286Y-136046364D01*
X137743636Y-136179714D01*
X137848408Y-136336516D01*
X137920577Y-136510746D01*
X137957368Y-136695708D01*
X137957368Y-136884292D01*
X137920577Y-137069254D01*
X137848408Y-137243484D01*
X137743636Y-137400286D01*
X137610286Y-137533636D01*
X137453484Y-137638408D01*
X137279254Y-137710577D01*
X137094292Y-137747368D01*
X137000000Y-137752000D01*
X136997536Y-137752000D01*
X135478464Y-137752000D01*
X135476000Y-137752000D01*
X135381708Y-137747368D01*
X135196746Y-137710577D01*
X135022516Y-137638408D01*
X134865714Y-137533636D01*
X134732364Y-137400286D01*
X134627592Y-137243484D01*
X134555423Y-137069254D01*
X134518632Y-136884292D01*
X134518632Y-136695708D01*
X134555423Y-136510746D01*
X134627592Y-136336516D01*
X134732364Y-136179714D01*
X134865714Y-136046364D01*
X135022516Y-135941592D01*
X135196746Y-135869423D01*
X135381708Y-135832632D01*
X135476000Y-135828000D01*
X137000000Y-135828000D01*
X137094292Y-135832632D01*
G37*
G36*
X191958292Y-135832632D02*
G01*
X192143254Y-135869423D01*
X192317484Y-135941592D01*
X192474286Y-136046364D01*
X192607636Y-136179714D01*
X192712408Y-136336516D01*
X192784577Y-136510746D01*
X192821368Y-136695708D01*
X192821368Y-136884292D01*
X192784577Y-137069254D01*
X192712408Y-137243484D01*
X192607636Y-137400286D01*
X192474286Y-137533636D01*
X192317484Y-137638408D01*
X192143254Y-137710577D01*
X191958292Y-137747368D01*
X191864000Y-137752000D01*
X191861536Y-137752000D01*
X190342464Y-137752000D01*
X190340000Y-137752000D01*
X190245708Y-137747368D01*
X190060746Y-137710577D01*
X189886516Y-137638408D01*
X189729714Y-137533636D01*
X189596364Y-137400286D01*
X189491592Y-137243484D01*
X189419423Y-137069254D01*
X189382632Y-136884292D01*
X189382632Y-136695708D01*
X189419423Y-136510746D01*
X189491592Y-136336516D01*
X189596364Y-136179714D01*
X189729714Y-136046364D01*
X189886516Y-135941592D01*
X190060746Y-135869423D01*
X190245708Y-135832632D01*
X190340000Y-135828000D01*
X191864000Y-135828000D01*
X191958292Y-135832632D01*
G37*
G36*
X137094292Y-133292632D02*
G01*
X137279254Y-133329423D01*
X137453484Y-133401592D01*
X137610286Y-133506364D01*
X137743636Y-133639714D01*
X137848408Y-133796516D01*
X137920577Y-133970746D01*
X137957368Y-134155708D01*
X137957368Y-134344292D01*
X137920577Y-134529254D01*
X137848408Y-134703484D01*
X137743636Y-134860286D01*
X137610286Y-134993636D01*
X137453484Y-135098408D01*
X137279254Y-135170577D01*
X137094292Y-135207368D01*
X137000000Y-135212000D01*
X136997536Y-135212000D01*
X135478464Y-135212000D01*
X135476000Y-135212000D01*
X135381708Y-135207368D01*
X135196746Y-135170577D01*
X135022516Y-135098408D01*
X134865714Y-134993636D01*
X134732364Y-134860286D01*
X134627592Y-134703484D01*
X134555423Y-134529254D01*
X134518632Y-134344292D01*
X134518632Y-134155708D01*
X134555423Y-133970746D01*
X134627592Y-133796516D01*
X134732364Y-133639714D01*
X134865714Y-133506364D01*
X135022516Y-133401592D01*
X135196746Y-133329423D01*
X135381708Y-133292632D01*
X135476000Y-133288000D01*
X137000000Y-133288000D01*
X137094292Y-133292632D01*
G37*
G36*
X191958292Y-133292632D02*
G01*
X192143254Y-133329423D01*
X192317484Y-133401592D01*
X192474286Y-133506364D01*
X192607636Y-133639714D01*
X192712408Y-133796516D01*
X192784577Y-133970746D01*
X192821368Y-134155708D01*
X192821368Y-134344292D01*
X192784577Y-134529254D01*
X192712408Y-134703484D01*
X192607636Y-134860286D01*
X192474286Y-134993636D01*
X192317484Y-135098408D01*
X192143254Y-135170577D01*
X191958292Y-135207368D01*
X191864000Y-135212000D01*
X191861536Y-135212000D01*
X190342464Y-135212000D01*
X190340000Y-135212000D01*
X190245708Y-135207368D01*
X190060746Y-135170577D01*
X189886516Y-135098408D01*
X189729714Y-134993636D01*
X189596364Y-134860286D01*
X189491592Y-134703484D01*
X189419423Y-134529254D01*
X189382632Y-134344292D01*
X189382632Y-134155708D01*
X189419423Y-133970746D01*
X189491592Y-133796516D01*
X189596364Y-133639714D01*
X189729714Y-133506364D01*
X189886516Y-133401592D01*
X190060746Y-133329423D01*
X190245708Y-133292632D01*
X190340000Y-133288000D01*
X191864000Y-133288000D01*
X191958292Y-133292632D01*
G37*
G36*
X137094292Y-130752632D02*
G01*
X137279254Y-130789423D01*
X137453484Y-130861592D01*
X137610286Y-130966364D01*
X137743636Y-131099714D01*
X137848408Y-131256516D01*
X137920577Y-131430746D01*
X137957368Y-131615708D01*
X137957368Y-131804292D01*
X137920577Y-131989254D01*
X137848408Y-132163484D01*
X137743636Y-132320286D01*
X137610286Y-132453636D01*
X137453484Y-132558408D01*
X137279254Y-132630577D01*
X137094292Y-132667368D01*
X137000000Y-132672000D01*
X136997536Y-132672000D01*
X135478464Y-132672000D01*
X135476000Y-132672000D01*
X135381708Y-132667368D01*
X135196746Y-132630577D01*
X135022516Y-132558408D01*
X134865714Y-132453636D01*
X134732364Y-132320286D01*
X134627592Y-132163484D01*
X134555423Y-131989254D01*
X134518632Y-131804292D01*
X134518632Y-131615708D01*
X134555423Y-131430746D01*
X134627592Y-131256516D01*
X134732364Y-131099714D01*
X134865714Y-130966364D01*
X135022516Y-130861592D01*
X135196746Y-130789423D01*
X135381708Y-130752632D01*
X135476000Y-130748000D01*
X137000000Y-130748000D01*
X137094292Y-130752632D01*
G37*
G36*
X191958292Y-130752632D02*
G01*
X192143254Y-130789423D01*
X192317484Y-130861592D01*
X192474286Y-130966364D01*
X192607636Y-131099714D01*
X192712408Y-131256516D01*
X192784577Y-131430746D01*
X192821368Y-131615708D01*
X192821368Y-131804292D01*
X192784577Y-131989254D01*
X192712408Y-132163484D01*
X192607636Y-132320286D01*
X192474286Y-132453636D01*
X192317484Y-132558408D01*
X192143254Y-132630577D01*
X191958292Y-132667368D01*
X191864000Y-132672000D01*
X191861536Y-132672000D01*
X190342464Y-132672000D01*
X190340000Y-132672000D01*
X190245708Y-132667368D01*
X190060746Y-132630577D01*
X189886516Y-132558408D01*
X189729714Y-132453636D01*
X189596364Y-132320286D01*
X189491592Y-132163484D01*
X189419423Y-131989254D01*
X189382632Y-131804292D01*
X189382632Y-131615708D01*
X189419423Y-131430746D01*
X189491592Y-131256516D01*
X189596364Y-131099714D01*
X189729714Y-130966364D01*
X189886516Y-130861592D01*
X190060746Y-130789423D01*
X190245708Y-130752632D01*
X190340000Y-130748000D01*
X191864000Y-130748000D01*
X191958292Y-130752632D01*
G37*
G36*
X137094292Y-128212632D02*
G01*
X137279254Y-128249423D01*
X137453484Y-128321592D01*
X137610286Y-128426364D01*
X137743636Y-128559714D01*
X137848408Y-128716516D01*
X137920577Y-128890746D01*
X137957368Y-129075708D01*
X137957368Y-129264292D01*
X137920577Y-129449254D01*
X137848408Y-129623484D01*
X137743636Y-129780286D01*
X137610286Y-129913636D01*
X137453484Y-130018408D01*
X137279254Y-130090577D01*
X137094292Y-130127368D01*
X137000000Y-130132000D01*
X136997536Y-130132000D01*
X135478464Y-130132000D01*
X135476000Y-130132000D01*
X135381708Y-130127368D01*
X135196746Y-130090577D01*
X135022516Y-130018408D01*
X134865714Y-129913636D01*
X134732364Y-129780286D01*
X134627592Y-129623484D01*
X134555423Y-129449254D01*
X134518632Y-129264292D01*
X134518632Y-129075708D01*
X134555423Y-128890746D01*
X134627592Y-128716516D01*
X134732364Y-128559714D01*
X134865714Y-128426364D01*
X135022516Y-128321592D01*
X135196746Y-128249423D01*
X135381708Y-128212632D01*
X135476000Y-128208000D01*
X137000000Y-128208000D01*
X137094292Y-128212632D01*
G37*
G36*
X191958292Y-128212632D02*
G01*
X192143254Y-128249423D01*
X192317484Y-128321592D01*
X192474286Y-128426364D01*
X192607636Y-128559714D01*
X192712408Y-128716516D01*
X192784577Y-128890746D01*
X192821368Y-129075708D01*
X192821368Y-129264292D01*
X192784577Y-129449254D01*
X192712408Y-129623484D01*
X192607636Y-129780286D01*
X192474286Y-129913636D01*
X192317484Y-130018408D01*
X192143254Y-130090577D01*
X191958292Y-130127368D01*
X191864000Y-130132000D01*
X191861536Y-130132000D01*
X190342464Y-130132000D01*
X190340000Y-130132000D01*
X190245708Y-130127368D01*
X190060746Y-130090577D01*
X189886516Y-130018408D01*
X189729714Y-129913636D01*
X189596364Y-129780286D01*
X189491592Y-129623484D01*
X189419423Y-129449254D01*
X189382632Y-129264292D01*
X189382632Y-129075708D01*
X189419423Y-128890746D01*
X189491592Y-128716516D01*
X189596364Y-128559714D01*
X189729714Y-128426364D01*
X189886516Y-128321592D01*
X190060746Y-128249423D01*
X190245708Y-128212632D01*
X190340000Y-128208000D01*
X191864000Y-128208000D01*
X191958292Y-128212632D01*
G37*
G36*
X137094292Y-125672632D02*
G01*
X137279254Y-125709423D01*
X137453484Y-125781592D01*
X137610286Y-125886364D01*
X137743636Y-126019714D01*
X137848408Y-126176516D01*
X137920577Y-126350746D01*
X137957368Y-126535708D01*
X137957368Y-126724292D01*
X137920577Y-126909254D01*
X137848408Y-127083484D01*
X137743636Y-127240286D01*
X137610286Y-127373636D01*
X137453484Y-127478408D01*
X137279254Y-127550577D01*
X137094292Y-127587368D01*
X137000000Y-127592000D01*
X136997536Y-127592000D01*
X135478464Y-127592000D01*
X135476000Y-127592000D01*
X135381708Y-127587368D01*
X135196746Y-127550577D01*
X135022516Y-127478408D01*
X134865714Y-127373636D01*
X134732364Y-127240286D01*
X134627592Y-127083484D01*
X134555423Y-126909254D01*
X134518632Y-126724292D01*
X134518632Y-126535708D01*
X134555423Y-126350746D01*
X134627592Y-126176516D01*
X134732364Y-126019714D01*
X134865714Y-125886364D01*
X135022516Y-125781592D01*
X135196746Y-125709423D01*
X135381708Y-125672632D01*
X135476000Y-125668000D01*
X137000000Y-125668000D01*
X137094292Y-125672632D01*
G37*
G36*
X191958292Y-125672632D02*
G01*
X192143254Y-125709423D01*
X192317484Y-125781592D01*
X192474286Y-125886364D01*
X192607636Y-126019714D01*
X192712408Y-126176516D01*
X192784577Y-126350746D01*
X192821368Y-126535708D01*
X192821368Y-126724292D01*
X192784577Y-126909254D01*
X192712408Y-127083484D01*
X192607636Y-127240286D01*
X192474286Y-127373636D01*
X192317484Y-127478408D01*
X192143254Y-127550577D01*
X191958292Y-127587368D01*
X191864000Y-127592000D01*
X191861536Y-127592000D01*
X190342464Y-127592000D01*
X190340000Y-127592000D01*
X190245708Y-127587368D01*
X190060746Y-127550577D01*
X189886516Y-127478408D01*
X189729714Y-127373636D01*
X189596364Y-127240286D01*
X189491592Y-127083484D01*
X189419423Y-126909254D01*
X189382632Y-126724292D01*
X189382632Y-126535708D01*
X189419423Y-126350746D01*
X189491592Y-126176516D01*
X189596364Y-126019714D01*
X189729714Y-125886364D01*
X189886516Y-125781592D01*
X190060746Y-125709423D01*
X190245708Y-125672632D01*
X190340000Y-125668000D01*
X191864000Y-125668000D01*
X191958292Y-125672632D01*
G37*
G36*
X136503479Y-121935919D02*
G01*
X136697488Y-121998957D01*
X136879248Y-122091568D01*
X137044282Y-122211472D01*
X137188528Y-122355718D01*
X137308432Y-122520752D01*
X137401043Y-122702512D01*
X137464081Y-122896521D01*
X137495993Y-123098003D01*
X137495993Y-123301997D01*
X137464081Y-123503479D01*
X137401043Y-123697488D01*
X137308432Y-123879248D01*
X137188528Y-124044282D01*
X137044282Y-124188528D01*
X136879248Y-124308432D01*
X136697488Y-124401043D01*
X136503479Y-124464081D01*
X136301997Y-124495993D01*
X136098003Y-124495993D01*
X135896521Y-124464081D01*
X135702512Y-124401043D01*
X135520752Y-124308432D01*
X135355718Y-124188528D01*
X135211472Y-124044282D01*
X135091568Y-123879248D01*
X134998957Y-123697488D01*
X134935919Y-123503479D01*
X134904007Y-123301997D01*
X134904007Y-123098003D01*
X134935919Y-122896521D01*
X134998957Y-122702512D01*
X135091568Y-122520752D01*
X135211472Y-122355718D01*
X135355718Y-122211472D01*
X135520752Y-122091568D01*
X135702512Y-121998957D01*
X135896521Y-121935919D01*
X136098003Y-121904007D01*
X136301997Y-121904007D01*
X136503479Y-121935919D01*
G37*
G36*
X191303479Y-121935919D02*
G01*
X191497488Y-121998957D01*
X191679248Y-122091568D01*
X191844282Y-122211472D01*
X191988528Y-122355718D01*
X192108432Y-122520752D01*
X192201043Y-122702512D01*
X192264081Y-122896521D01*
X192295993Y-123098003D01*
X192295993Y-123301997D01*
X192264081Y-123503479D01*
X192201043Y-123697488D01*
X192108432Y-123879248D01*
X191988528Y-124044282D01*
X191844282Y-124188528D01*
X191679248Y-124308432D01*
X191497488Y-124401043D01*
X191303479Y-124464081D01*
X191101997Y-124495993D01*
X190898003Y-124495993D01*
X190696521Y-124464081D01*
X190502512Y-124401043D01*
X190320752Y-124308432D01*
X190155718Y-124188528D01*
X190011472Y-124044282D01*
X189891568Y-123879248D01*
X189798957Y-123697488D01*
X189735919Y-123503479D01*
X189704007Y-123301997D01*
X189704007Y-123098003D01*
X189735919Y-122896521D01*
X189798957Y-122702512D01*
X189891568Y-122520752D01*
X190011472Y-122355718D01*
X190155718Y-122211472D01*
X190320752Y-122091568D01*
X190502512Y-121998957D01*
X190696521Y-121935919D01*
X190898003Y-121904007D01*
X191101997Y-121904007D01*
X191303479Y-121935919D01*
G37*
M02*
