%TF.GenerationSoftware,KiCad,Pcbnew,9.0.1*%
%TF.CreationDate,2025-05-06T23:45:29-04:00*%
%TF.ProjectId,classic-protoboard_6x28,636c6173-7369-4632-9d70-726f746f626f,rev?*%
%TF.SameCoordinates,Original*%
%TF.FileFunction,Legend,Top*%
%TF.FilePolarity,Positive*%
%FSLAX46Y46*%
G04 Gerber Fmt 4.6, Leading zero omitted, Abs format (unit mm)*
G04 Created by KiCad (PCBNEW 9.0.1) date 2025-05-06 23:45:29*
%MOMM*%
%LPD*%
G01*
G04 APERTURE LIST*
%ADD10C,0.150000*%
%ADD11C,0.127000*%
%ADD12C,0.000000*%
%ADD13O,3.148000X1.624000*%
%ADD14C,2.300000*%
%ADD15C,1.624000*%
G04 APERTURE END LIST*
D10*
X155321523Y-119172819D02*
X154988190Y-118696628D01*
X154750095Y-119172819D02*
X154750095Y-118172819D01*
X154750095Y-118172819D02*
X155131047Y-118172819D01*
X155131047Y-118172819D02*
X155226285Y-118220438D01*
X155226285Y-118220438D02*
X155273904Y-118268057D01*
X155273904Y-118268057D02*
X155321523Y-118363295D01*
X155321523Y-118363295D02*
X155321523Y-118506152D01*
X155321523Y-118506152D02*
X155273904Y-118601390D01*
X155273904Y-118601390D02*
X155226285Y-118649009D01*
X155226285Y-118649009D02*
X155131047Y-118696628D01*
X155131047Y-118696628D02*
X154750095Y-118696628D01*
X157266286Y-119125200D02*
X157409143Y-119172819D01*
X157409143Y-119172819D02*
X157647238Y-119172819D01*
X157647238Y-119172819D02*
X157742476Y-119125200D01*
X157742476Y-119125200D02*
X157790095Y-119077580D01*
X157790095Y-119077580D02*
X157837714Y-118982342D01*
X157837714Y-118982342D02*
X157837714Y-118887104D01*
X157837714Y-118887104D02*
X157790095Y-118791866D01*
X157790095Y-118791866D02*
X157742476Y-118744247D01*
X157742476Y-118744247D02*
X157647238Y-118696628D01*
X157647238Y-118696628D02*
X157456762Y-118649009D01*
X157456762Y-118649009D02*
X157361524Y-118601390D01*
X157361524Y-118601390D02*
X157313905Y-118553771D01*
X157313905Y-118553771D02*
X157266286Y-118458533D01*
X157266286Y-118458533D02*
X157266286Y-118363295D01*
X157266286Y-118363295D02*
X157313905Y-118268057D01*
X157313905Y-118268057D02*
X157361524Y-118220438D01*
X157361524Y-118220438D02*
X157456762Y-118172819D01*
X157456762Y-118172819D02*
X157694857Y-118172819D01*
X157694857Y-118172819D02*
X157837714Y-118220438D01*
X119190095Y-135936819D02*
X119190095Y-134936819D01*
X119190095Y-134936819D02*
X119428190Y-134936819D01*
X119428190Y-134936819D02*
X119571047Y-134984438D01*
X119571047Y-134984438D02*
X119666285Y-135079676D01*
X119666285Y-135079676D02*
X119713904Y-135174914D01*
X119713904Y-135174914D02*
X119761523Y-135365390D01*
X119761523Y-135365390D02*
X119761523Y-135508247D01*
X119761523Y-135508247D02*
X119713904Y-135698723D01*
X119713904Y-135698723D02*
X119666285Y-135793961D01*
X119666285Y-135793961D02*
X119571047Y-135889200D01*
X119571047Y-135889200D02*
X119428190Y-135936819D01*
X119428190Y-135936819D02*
X119190095Y-135936819D01*
D11*
X181360406Y-128636095D02*
X181360406Y-128587714D01*
X181360406Y-128587714D02*
X181384596Y-128539333D01*
X181384596Y-128539333D02*
X181408787Y-128515143D01*
X181408787Y-128515143D02*
X181457168Y-128490952D01*
X181457168Y-128490952D02*
X181553930Y-128466762D01*
X181553930Y-128466762D02*
X181674882Y-128466762D01*
X181674882Y-128466762D02*
X181771644Y-128490952D01*
X181771644Y-128490952D02*
X181820025Y-128515143D01*
X181820025Y-128515143D02*
X181844216Y-128539333D01*
X181844216Y-128539333D02*
X181868406Y-128587714D01*
X181868406Y-128587714D02*
X181868406Y-128636095D01*
X181868406Y-128636095D02*
X181844216Y-128684476D01*
X181844216Y-128684476D02*
X181820025Y-128708667D01*
X181820025Y-128708667D02*
X181771644Y-128732857D01*
X181771644Y-128732857D02*
X181674882Y-128757048D01*
X181674882Y-128757048D02*
X181553930Y-128757048D01*
X181553930Y-128757048D02*
X181457168Y-128732857D01*
X181457168Y-128732857D02*
X181408787Y-128708667D01*
X181408787Y-128708667D02*
X181384596Y-128684476D01*
X181384596Y-128684476D02*
X181360406Y-128636095D01*
X181360406Y-128297428D02*
X181360406Y-127982952D01*
X181360406Y-127982952D02*
X181553930Y-128152285D01*
X181553930Y-128152285D02*
X181553930Y-128079714D01*
X181553930Y-128079714D02*
X181578120Y-128031333D01*
X181578120Y-128031333D02*
X181602311Y-128007142D01*
X181602311Y-128007142D02*
X181650692Y-127982952D01*
X181650692Y-127982952D02*
X181771644Y-127982952D01*
X181771644Y-127982952D02*
X181820025Y-128007142D01*
X181820025Y-128007142D02*
X181844216Y-128031333D01*
X181844216Y-128031333D02*
X181868406Y-128079714D01*
X181868406Y-128079714D02*
X181868406Y-128224857D01*
X181868406Y-128224857D02*
X181844216Y-128273238D01*
X181844216Y-128273238D02*
X181820025Y-128297428D01*
D10*
X167283429Y-134936819D02*
X167521524Y-135936819D01*
X167521524Y-135936819D02*
X167712000Y-135222533D01*
X167712000Y-135222533D02*
X167902476Y-135936819D01*
X167902476Y-135936819D02*
X168140572Y-134936819D01*
X136970095Y-135936819D02*
X136970095Y-134936819D01*
X137541523Y-135936819D02*
X137112952Y-135365390D01*
X137541523Y-134936819D02*
X136970095Y-135508247D01*
D11*
X110909593Y-123023904D02*
X110909593Y-123072285D01*
X110909593Y-123072285D02*
X110885403Y-123120666D01*
X110885403Y-123120666D02*
X110861212Y-123144856D01*
X110861212Y-123144856D02*
X110812831Y-123169047D01*
X110812831Y-123169047D02*
X110716069Y-123193237D01*
X110716069Y-123193237D02*
X110595117Y-123193237D01*
X110595117Y-123193237D02*
X110498355Y-123169047D01*
X110498355Y-123169047D02*
X110449974Y-123144856D01*
X110449974Y-123144856D02*
X110425784Y-123120666D01*
X110425784Y-123120666D02*
X110401593Y-123072285D01*
X110401593Y-123072285D02*
X110401593Y-123023904D01*
X110401593Y-123023904D02*
X110425784Y-122975523D01*
X110425784Y-122975523D02*
X110449974Y-122951332D01*
X110449974Y-122951332D02*
X110498355Y-122927142D01*
X110498355Y-122927142D02*
X110595117Y-122902951D01*
X110595117Y-122902951D02*
X110716069Y-122902951D01*
X110716069Y-122902951D02*
X110812831Y-122927142D01*
X110812831Y-122927142D02*
X110861212Y-122951332D01*
X110861212Y-122951332D02*
X110885403Y-122975523D01*
X110885403Y-122975523D02*
X110909593Y-123023904D01*
X110401593Y-123677047D02*
X110401593Y-123386761D01*
X110401593Y-123531904D02*
X110909593Y-123531904D01*
X110909593Y-123531904D02*
X110837022Y-123483523D01*
X110837022Y-123483523D02*
X110788641Y-123435142D01*
X110788641Y-123435142D02*
X110764450Y-123386761D01*
D10*
X132152000Y-135936819D02*
X132152000Y-134936819D01*
D11*
X181360406Y-123556095D02*
X181360406Y-123507714D01*
X181360406Y-123507714D02*
X181384596Y-123459333D01*
X181384596Y-123459333D02*
X181408787Y-123435143D01*
X181408787Y-123435143D02*
X181457168Y-123410952D01*
X181457168Y-123410952D02*
X181553930Y-123386762D01*
X181553930Y-123386762D02*
X181674882Y-123386762D01*
X181674882Y-123386762D02*
X181771644Y-123410952D01*
X181771644Y-123410952D02*
X181820025Y-123435143D01*
X181820025Y-123435143D02*
X181844216Y-123459333D01*
X181844216Y-123459333D02*
X181868406Y-123507714D01*
X181868406Y-123507714D02*
X181868406Y-123556095D01*
X181868406Y-123556095D02*
X181844216Y-123604476D01*
X181844216Y-123604476D02*
X181820025Y-123628667D01*
X181820025Y-123628667D02*
X181771644Y-123652857D01*
X181771644Y-123652857D02*
X181674882Y-123677048D01*
X181674882Y-123677048D02*
X181553930Y-123677048D01*
X181553930Y-123677048D02*
X181457168Y-123652857D01*
X181457168Y-123652857D02*
X181408787Y-123628667D01*
X181408787Y-123628667D02*
X181384596Y-123604476D01*
X181384596Y-123604476D02*
X181360406Y-123556095D01*
X181868406Y-122902952D02*
X181868406Y-123193238D01*
X181868406Y-123048095D02*
X181360406Y-123048095D01*
X181360406Y-123048095D02*
X181432977Y-123096476D01*
X181432977Y-123096476D02*
X181481358Y-123144857D01*
X181481358Y-123144857D02*
X181505549Y-123193238D01*
X181360406Y-131176095D02*
X181360406Y-131127714D01*
X181360406Y-131127714D02*
X181384596Y-131079333D01*
X181384596Y-131079333D02*
X181408787Y-131055143D01*
X181408787Y-131055143D02*
X181457168Y-131030952D01*
X181457168Y-131030952D02*
X181553930Y-131006762D01*
X181553930Y-131006762D02*
X181674882Y-131006762D01*
X181674882Y-131006762D02*
X181771644Y-131030952D01*
X181771644Y-131030952D02*
X181820025Y-131055143D01*
X181820025Y-131055143D02*
X181844216Y-131079333D01*
X181844216Y-131079333D02*
X181868406Y-131127714D01*
X181868406Y-131127714D02*
X181868406Y-131176095D01*
X181868406Y-131176095D02*
X181844216Y-131224476D01*
X181844216Y-131224476D02*
X181820025Y-131248667D01*
X181820025Y-131248667D02*
X181771644Y-131272857D01*
X181771644Y-131272857D02*
X181674882Y-131297048D01*
X181674882Y-131297048D02*
X181553930Y-131297048D01*
X181553930Y-131297048D02*
X181457168Y-131272857D01*
X181457168Y-131272857D02*
X181408787Y-131248667D01*
X181408787Y-131248667D02*
X181384596Y-131224476D01*
X181384596Y-131224476D02*
X181360406Y-131176095D01*
X181529739Y-130571333D02*
X181868406Y-130571333D01*
X181336216Y-130692285D02*
X181699073Y-130813238D01*
X181699073Y-130813238D02*
X181699073Y-130498761D01*
X110909593Y-130643904D02*
X110909593Y-130692285D01*
X110909593Y-130692285D02*
X110885403Y-130740666D01*
X110885403Y-130740666D02*
X110861212Y-130764856D01*
X110861212Y-130764856D02*
X110812831Y-130789047D01*
X110812831Y-130789047D02*
X110716069Y-130813237D01*
X110716069Y-130813237D02*
X110595117Y-130813237D01*
X110595117Y-130813237D02*
X110498355Y-130789047D01*
X110498355Y-130789047D02*
X110449974Y-130764856D01*
X110449974Y-130764856D02*
X110425784Y-130740666D01*
X110425784Y-130740666D02*
X110401593Y-130692285D01*
X110401593Y-130692285D02*
X110401593Y-130643904D01*
X110401593Y-130643904D02*
X110425784Y-130595523D01*
X110425784Y-130595523D02*
X110449974Y-130571332D01*
X110449974Y-130571332D02*
X110498355Y-130547142D01*
X110498355Y-130547142D02*
X110595117Y-130522951D01*
X110595117Y-130522951D02*
X110716069Y-130522951D01*
X110716069Y-130522951D02*
X110812831Y-130547142D01*
X110812831Y-130547142D02*
X110861212Y-130571332D01*
X110861212Y-130571332D02*
X110885403Y-130595523D01*
X110885403Y-130595523D02*
X110909593Y-130643904D01*
X110740260Y-131248666D02*
X110401593Y-131248666D01*
X110933784Y-131127714D02*
X110570926Y-131006761D01*
X110570926Y-131006761D02*
X110570926Y-131321238D01*
D10*
X129326286Y-135936819D02*
X129326286Y-134936819D01*
X129326286Y-135413009D02*
X129897714Y-135413009D01*
X129897714Y-135936819D02*
X129897714Y-134936819D01*
X147296762Y-134936819D02*
X147487238Y-134936819D01*
X147487238Y-134936819D02*
X147582476Y-134984438D01*
X147582476Y-134984438D02*
X147677714Y-135079676D01*
X147677714Y-135079676D02*
X147725333Y-135270152D01*
X147725333Y-135270152D02*
X147725333Y-135603485D01*
X147725333Y-135603485D02*
X147677714Y-135793961D01*
X147677714Y-135793961D02*
X147582476Y-135889200D01*
X147582476Y-135889200D02*
X147487238Y-135936819D01*
X147487238Y-135936819D02*
X147296762Y-135936819D01*
X147296762Y-135936819D02*
X147201524Y-135889200D01*
X147201524Y-135889200D02*
X147106286Y-135793961D01*
X147106286Y-135793961D02*
X147058667Y-135603485D01*
X147058667Y-135603485D02*
X147058667Y-135270152D01*
X147058667Y-135270152D02*
X147106286Y-135079676D01*
X147106286Y-135079676D02*
X147201524Y-134984438D01*
X147201524Y-134984438D02*
X147296762Y-134936819D01*
X149670095Y-135936819D02*
X149670095Y-134936819D01*
X149670095Y-134936819D02*
X150051047Y-134936819D01*
X150051047Y-134936819D02*
X150146285Y-134984438D01*
X150146285Y-134984438D02*
X150193904Y-135032057D01*
X150193904Y-135032057D02*
X150241523Y-135127295D01*
X150241523Y-135127295D02*
X150241523Y-135270152D01*
X150241523Y-135270152D02*
X150193904Y-135365390D01*
X150193904Y-135365390D02*
X150146285Y-135413009D01*
X150146285Y-135413009D02*
X150051047Y-135460628D01*
X150051047Y-135460628D02*
X149670095Y-135460628D01*
X121777714Y-118649009D02*
X122111047Y-118649009D01*
X122253904Y-119172819D02*
X121777714Y-119172819D01*
X121777714Y-119172819D02*
X121777714Y-118172819D01*
X121777714Y-118172819D02*
X122253904Y-118172819D01*
X134834857Y-118172819D02*
X134834857Y-118887104D01*
X134834857Y-118887104D02*
X134787238Y-119029961D01*
X134787238Y-119029961D02*
X134692000Y-119125200D01*
X134692000Y-119125200D02*
X134549143Y-119172819D01*
X134549143Y-119172819D02*
X134453905Y-119172819D01*
X111593905Y-135651104D02*
X112070095Y-135651104D01*
X111498667Y-135936819D02*
X111832000Y-134936819D01*
X111832000Y-134936819D02*
X112165333Y-135936819D01*
X121777714Y-135413009D02*
X122111047Y-135413009D01*
X122253904Y-135936819D02*
X121777714Y-135936819D01*
X121777714Y-135936819D02*
X121777714Y-134936819D01*
X121777714Y-134936819D02*
X122253904Y-134936819D01*
D11*
X181360406Y-126096095D02*
X181360406Y-126047714D01*
X181360406Y-126047714D02*
X181384596Y-125999333D01*
X181384596Y-125999333D02*
X181408787Y-125975143D01*
X181408787Y-125975143D02*
X181457168Y-125950952D01*
X181457168Y-125950952D02*
X181553930Y-125926762D01*
X181553930Y-125926762D02*
X181674882Y-125926762D01*
X181674882Y-125926762D02*
X181771644Y-125950952D01*
X181771644Y-125950952D02*
X181820025Y-125975143D01*
X181820025Y-125975143D02*
X181844216Y-125999333D01*
X181844216Y-125999333D02*
X181868406Y-126047714D01*
X181868406Y-126047714D02*
X181868406Y-126096095D01*
X181868406Y-126096095D02*
X181844216Y-126144476D01*
X181844216Y-126144476D02*
X181820025Y-126168667D01*
X181820025Y-126168667D02*
X181771644Y-126192857D01*
X181771644Y-126192857D02*
X181674882Y-126217048D01*
X181674882Y-126217048D02*
X181553930Y-126217048D01*
X181553930Y-126217048D02*
X181457168Y-126192857D01*
X181457168Y-126192857D02*
X181408787Y-126168667D01*
X181408787Y-126168667D02*
X181384596Y-126144476D01*
X181384596Y-126144476D02*
X181360406Y-126096095D01*
X181408787Y-125733238D02*
X181384596Y-125709047D01*
X181384596Y-125709047D02*
X181360406Y-125660666D01*
X181360406Y-125660666D02*
X181360406Y-125539714D01*
X181360406Y-125539714D02*
X181384596Y-125491333D01*
X181384596Y-125491333D02*
X181408787Y-125467142D01*
X181408787Y-125467142D02*
X181457168Y-125442952D01*
X181457168Y-125442952D02*
X181505549Y-125442952D01*
X181505549Y-125442952D02*
X181578120Y-125467142D01*
X181578120Y-125467142D02*
X181868406Y-125757428D01*
X181868406Y-125757428D02*
X181868406Y-125442952D01*
D10*
X152852952Y-136032057D02*
X152757714Y-135984438D01*
X152757714Y-135984438D02*
X152662476Y-135889200D01*
X152662476Y-135889200D02*
X152519619Y-135746342D01*
X152519619Y-135746342D02*
X152424381Y-135698723D01*
X152424381Y-135698723D02*
X152329143Y-135698723D01*
X152376762Y-135936819D02*
X152281524Y-135889200D01*
X152281524Y-135889200D02*
X152186286Y-135793961D01*
X152186286Y-135793961D02*
X152138667Y-135603485D01*
X152138667Y-135603485D02*
X152138667Y-135270152D01*
X152138667Y-135270152D02*
X152186286Y-135079676D01*
X152186286Y-135079676D02*
X152281524Y-134984438D01*
X152281524Y-134984438D02*
X152376762Y-134936819D01*
X152376762Y-134936819D02*
X152567238Y-134936819D01*
X152567238Y-134936819D02*
X152662476Y-134984438D01*
X152662476Y-134984438D02*
X152757714Y-135079676D01*
X152757714Y-135079676D02*
X152805333Y-135270152D01*
X152805333Y-135270152D02*
X152805333Y-135603485D01*
X152805333Y-135603485D02*
X152757714Y-135793961D01*
X152757714Y-135793961D02*
X152662476Y-135889200D01*
X152662476Y-135889200D02*
X152567238Y-135936819D01*
X152567238Y-135936819D02*
X152376762Y-135936819D01*
X157266286Y-135889200D02*
X157409143Y-135936819D01*
X157409143Y-135936819D02*
X157647238Y-135936819D01*
X157647238Y-135936819D02*
X157742476Y-135889200D01*
X157742476Y-135889200D02*
X157790095Y-135841580D01*
X157790095Y-135841580D02*
X157837714Y-135746342D01*
X157837714Y-135746342D02*
X157837714Y-135651104D01*
X157837714Y-135651104D02*
X157790095Y-135555866D01*
X157790095Y-135555866D02*
X157742476Y-135508247D01*
X157742476Y-135508247D02*
X157647238Y-135460628D01*
X157647238Y-135460628D02*
X157456762Y-135413009D01*
X157456762Y-135413009D02*
X157361524Y-135365390D01*
X157361524Y-135365390D02*
X157313905Y-135317771D01*
X157313905Y-135317771D02*
X157266286Y-135222533D01*
X157266286Y-135222533D02*
X157266286Y-135127295D01*
X157266286Y-135127295D02*
X157313905Y-135032057D01*
X157313905Y-135032057D02*
X157361524Y-134984438D01*
X157361524Y-134984438D02*
X157456762Y-134936819D01*
X157456762Y-134936819D02*
X157694857Y-134936819D01*
X157694857Y-134936819D02*
X157837714Y-134984438D01*
X129326286Y-119172819D02*
X129326286Y-118172819D01*
X129326286Y-118649009D02*
X129897714Y-118649009D01*
X129897714Y-119172819D02*
X129897714Y-118172819D01*
X132152000Y-119172819D02*
X132152000Y-118172819D01*
X144566286Y-135936819D02*
X144566286Y-134936819D01*
X144566286Y-134936819D02*
X145137714Y-135936819D01*
X145137714Y-135936819D02*
X145137714Y-134936819D01*
X141978667Y-119172819D02*
X141978667Y-118172819D01*
X141978667Y-118172819D02*
X142312000Y-118887104D01*
X142312000Y-118887104D02*
X142645333Y-118172819D01*
X142645333Y-118172819D02*
X142645333Y-119172819D01*
X114443428Y-135413009D02*
X114586285Y-135460628D01*
X114586285Y-135460628D02*
X114633904Y-135508247D01*
X114633904Y-135508247D02*
X114681523Y-135603485D01*
X114681523Y-135603485D02*
X114681523Y-135746342D01*
X114681523Y-135746342D02*
X114633904Y-135841580D01*
X114633904Y-135841580D02*
X114586285Y-135889200D01*
X114586285Y-135889200D02*
X114491047Y-135936819D01*
X114491047Y-135936819D02*
X114110095Y-135936819D01*
X114110095Y-135936819D02*
X114110095Y-134936819D01*
X114110095Y-134936819D02*
X114443428Y-134936819D01*
X114443428Y-134936819D02*
X114538666Y-134984438D01*
X114538666Y-134984438D02*
X114586285Y-135032057D01*
X114586285Y-135032057D02*
X114633904Y-135127295D01*
X114633904Y-135127295D02*
X114633904Y-135222533D01*
X114633904Y-135222533D02*
X114586285Y-135317771D01*
X114586285Y-135317771D02*
X114538666Y-135365390D01*
X114538666Y-135365390D02*
X114443428Y-135413009D01*
X114443428Y-135413009D02*
X114110095Y-135413009D01*
X117221523Y-135841580D02*
X117173904Y-135889200D01*
X117173904Y-135889200D02*
X117031047Y-135936819D01*
X117031047Y-135936819D02*
X116935809Y-135936819D01*
X116935809Y-135936819D02*
X116792952Y-135889200D01*
X116792952Y-135889200D02*
X116697714Y-135793961D01*
X116697714Y-135793961D02*
X116650095Y-135698723D01*
X116650095Y-135698723D02*
X116602476Y-135508247D01*
X116602476Y-135508247D02*
X116602476Y-135365390D01*
X116602476Y-135365390D02*
X116650095Y-135174914D01*
X116650095Y-135174914D02*
X116697714Y-135079676D01*
X116697714Y-135079676D02*
X116792952Y-134984438D01*
X116792952Y-134984438D02*
X116935809Y-134936819D01*
X116935809Y-134936819D02*
X117031047Y-134936819D01*
X117031047Y-134936819D02*
X117173904Y-134984438D01*
X117173904Y-134984438D02*
X117221523Y-135032057D01*
X145137713Y-118263180D02*
X145137713Y-119263180D01*
X145137713Y-119263180D02*
X144566285Y-118263180D01*
X144566285Y-118263180D02*
X144566285Y-119263180D01*
D11*
X110909593Y-128103904D02*
X110909593Y-128152285D01*
X110909593Y-128152285D02*
X110885403Y-128200666D01*
X110885403Y-128200666D02*
X110861212Y-128224856D01*
X110861212Y-128224856D02*
X110812831Y-128249047D01*
X110812831Y-128249047D02*
X110716069Y-128273237D01*
X110716069Y-128273237D02*
X110595117Y-128273237D01*
X110595117Y-128273237D02*
X110498355Y-128249047D01*
X110498355Y-128249047D02*
X110449974Y-128224856D01*
X110449974Y-128224856D02*
X110425784Y-128200666D01*
X110425784Y-128200666D02*
X110401593Y-128152285D01*
X110401593Y-128152285D02*
X110401593Y-128103904D01*
X110401593Y-128103904D02*
X110425784Y-128055523D01*
X110425784Y-128055523D02*
X110449974Y-128031332D01*
X110449974Y-128031332D02*
X110498355Y-128007142D01*
X110498355Y-128007142D02*
X110595117Y-127982951D01*
X110595117Y-127982951D02*
X110716069Y-127982951D01*
X110716069Y-127982951D02*
X110812831Y-128007142D01*
X110812831Y-128007142D02*
X110861212Y-128031332D01*
X110861212Y-128031332D02*
X110885403Y-128055523D01*
X110885403Y-128055523D02*
X110909593Y-128103904D01*
X110909593Y-128442571D02*
X110909593Y-128757047D01*
X110909593Y-128757047D02*
X110716069Y-128587714D01*
X110716069Y-128587714D02*
X110716069Y-128660285D01*
X110716069Y-128660285D02*
X110691879Y-128708666D01*
X110691879Y-128708666D02*
X110667688Y-128732857D01*
X110667688Y-128732857D02*
X110619307Y-128757047D01*
X110619307Y-128757047D02*
X110498355Y-128757047D01*
X110498355Y-128757047D02*
X110449974Y-128732857D01*
X110449974Y-128732857D02*
X110425784Y-128708666D01*
X110425784Y-128708666D02*
X110401593Y-128660285D01*
X110401593Y-128660285D02*
X110401593Y-128515142D01*
X110401593Y-128515142D02*
X110425784Y-128466761D01*
X110425784Y-128466761D02*
X110449974Y-128442571D01*
D10*
X134834857Y-134936819D02*
X134834857Y-135651104D01*
X134834857Y-135651104D02*
X134787238Y-135793961D01*
X134787238Y-135793961D02*
X134692000Y-135889200D01*
X134692000Y-135889200D02*
X134549143Y-135936819D01*
X134549143Y-135936819D02*
X134453905Y-135936819D01*
X117221523Y-119077580D02*
X117173904Y-119125200D01*
X117173904Y-119125200D02*
X117031047Y-119172819D01*
X117031047Y-119172819D02*
X116935809Y-119172819D01*
X116935809Y-119172819D02*
X116792952Y-119125200D01*
X116792952Y-119125200D02*
X116697714Y-119029961D01*
X116697714Y-119029961D02*
X116650095Y-118934723D01*
X116650095Y-118934723D02*
X116602476Y-118744247D01*
X116602476Y-118744247D02*
X116602476Y-118601390D01*
X116602476Y-118601390D02*
X116650095Y-118410914D01*
X116650095Y-118410914D02*
X116697714Y-118315676D01*
X116697714Y-118315676D02*
X116792952Y-118220438D01*
X116792952Y-118220438D02*
X116935809Y-118172819D01*
X116935809Y-118172819D02*
X117031047Y-118172819D01*
X117031047Y-118172819D02*
X117173904Y-118220438D01*
X117173904Y-118220438D02*
X117221523Y-118268057D01*
X124674857Y-135413009D02*
X124341524Y-135413009D01*
X124341524Y-135936819D02*
X124341524Y-134936819D01*
X124341524Y-134936819D02*
X124817714Y-134936819D01*
X164838667Y-118172819D02*
X165172000Y-119172819D01*
X165172000Y-119172819D02*
X165505333Y-118172819D01*
X155321523Y-135936819D02*
X154988190Y-135460628D01*
X154750095Y-135936819D02*
X154750095Y-134936819D01*
X154750095Y-134936819D02*
X155131047Y-134936819D01*
X155131047Y-134936819D02*
X155226285Y-134984438D01*
X155226285Y-134984438D02*
X155273904Y-135032057D01*
X155273904Y-135032057D02*
X155321523Y-135127295D01*
X155321523Y-135127295D02*
X155321523Y-135270152D01*
X155321523Y-135270152D02*
X155273904Y-135365390D01*
X155273904Y-135365390D02*
X155226285Y-135413009D01*
X155226285Y-135413009D02*
X155131047Y-135460628D01*
X155131047Y-135460628D02*
X154750095Y-135460628D01*
X162346286Y-134936819D02*
X162346286Y-135746342D01*
X162346286Y-135746342D02*
X162393905Y-135841580D01*
X162393905Y-135841580D02*
X162441524Y-135889200D01*
X162441524Y-135889200D02*
X162536762Y-135936819D01*
X162536762Y-135936819D02*
X162727238Y-135936819D01*
X162727238Y-135936819D02*
X162822476Y-135889200D01*
X162822476Y-135889200D02*
X162870095Y-135841580D01*
X162870095Y-135841580D02*
X162917714Y-135746342D01*
X162917714Y-135746342D02*
X162917714Y-134936819D01*
X147296762Y-118172819D02*
X147487238Y-118172819D01*
X147487238Y-118172819D02*
X147582476Y-118220438D01*
X147582476Y-118220438D02*
X147677714Y-118315676D01*
X147677714Y-118315676D02*
X147725333Y-118506152D01*
X147725333Y-118506152D02*
X147725333Y-118839485D01*
X147725333Y-118839485D02*
X147677714Y-119029961D01*
X147677714Y-119029961D02*
X147582476Y-119125200D01*
X147582476Y-119125200D02*
X147487238Y-119172819D01*
X147487238Y-119172819D02*
X147296762Y-119172819D01*
X147296762Y-119172819D02*
X147201524Y-119125200D01*
X147201524Y-119125200D02*
X147106286Y-119029961D01*
X147106286Y-119029961D02*
X147058667Y-118839485D01*
X147058667Y-118839485D02*
X147058667Y-118506152D01*
X147058667Y-118506152D02*
X147106286Y-118315676D01*
X147106286Y-118315676D02*
X147201524Y-118220438D01*
X147201524Y-118220438D02*
X147296762Y-118172819D01*
X164838667Y-134936819D02*
X165172000Y-135936819D01*
X165172000Y-135936819D02*
X165505333Y-134936819D01*
X111593905Y-118887104D02*
X112070095Y-118887104D01*
X111498667Y-119172819D02*
X111832000Y-118172819D01*
X111832000Y-118172819D02*
X112165333Y-119172819D01*
X127333904Y-134984438D02*
X127238666Y-134936819D01*
X127238666Y-134936819D02*
X127095809Y-134936819D01*
X127095809Y-134936819D02*
X126952952Y-134984438D01*
X126952952Y-134984438D02*
X126857714Y-135079676D01*
X126857714Y-135079676D02*
X126810095Y-135174914D01*
X126810095Y-135174914D02*
X126762476Y-135365390D01*
X126762476Y-135365390D02*
X126762476Y-135508247D01*
X126762476Y-135508247D02*
X126810095Y-135698723D01*
X126810095Y-135698723D02*
X126857714Y-135793961D01*
X126857714Y-135793961D02*
X126952952Y-135889200D01*
X126952952Y-135889200D02*
X127095809Y-135936819D01*
X127095809Y-135936819D02*
X127191047Y-135936819D01*
X127191047Y-135936819D02*
X127333904Y-135889200D01*
X127333904Y-135889200D02*
X127381523Y-135841580D01*
X127381523Y-135841580D02*
X127381523Y-135508247D01*
X127381523Y-135508247D02*
X127191047Y-135508247D01*
X149670095Y-119172819D02*
X149670095Y-118172819D01*
X149670095Y-118172819D02*
X150051047Y-118172819D01*
X150051047Y-118172819D02*
X150146285Y-118220438D01*
X150146285Y-118220438D02*
X150193904Y-118268057D01*
X150193904Y-118268057D02*
X150241523Y-118363295D01*
X150241523Y-118363295D02*
X150241523Y-118506152D01*
X150241523Y-118506152D02*
X150193904Y-118601390D01*
X150193904Y-118601390D02*
X150146285Y-118649009D01*
X150146285Y-118649009D02*
X150051047Y-118696628D01*
X150051047Y-118696628D02*
X149670095Y-118696628D01*
X169918667Y-118172819D02*
X170585333Y-119172819D01*
X170585333Y-118172819D02*
X169918667Y-119172819D01*
X136970095Y-119172819D02*
X136970095Y-118172819D01*
X137541523Y-119172819D02*
X137112952Y-118601390D01*
X137541523Y-118172819D02*
X136970095Y-118744247D01*
X114443428Y-118649009D02*
X114586285Y-118696628D01*
X114586285Y-118696628D02*
X114633904Y-118744247D01*
X114633904Y-118744247D02*
X114681523Y-118839485D01*
X114681523Y-118839485D02*
X114681523Y-118982342D01*
X114681523Y-118982342D02*
X114633904Y-119077580D01*
X114633904Y-119077580D02*
X114586285Y-119125200D01*
X114586285Y-119125200D02*
X114491047Y-119172819D01*
X114491047Y-119172819D02*
X114110095Y-119172819D01*
X114110095Y-119172819D02*
X114110095Y-118172819D01*
X114110095Y-118172819D02*
X114443428Y-118172819D01*
X114443428Y-118172819D02*
X114538666Y-118220438D01*
X114538666Y-118220438D02*
X114586285Y-118268057D01*
X114586285Y-118268057D02*
X114633904Y-118363295D01*
X114633904Y-118363295D02*
X114633904Y-118458533D01*
X114633904Y-118458533D02*
X114586285Y-118553771D01*
X114586285Y-118553771D02*
X114538666Y-118601390D01*
X114538666Y-118601390D02*
X114443428Y-118649009D01*
X114443428Y-118649009D02*
X114110095Y-118649009D01*
X140081523Y-119172819D02*
X139605333Y-119172819D01*
X139605333Y-119172819D02*
X139605333Y-118172819D01*
D11*
X110909593Y-125563904D02*
X110909593Y-125612285D01*
X110909593Y-125612285D02*
X110885403Y-125660666D01*
X110885403Y-125660666D02*
X110861212Y-125684856D01*
X110861212Y-125684856D02*
X110812831Y-125709047D01*
X110812831Y-125709047D02*
X110716069Y-125733237D01*
X110716069Y-125733237D02*
X110595117Y-125733237D01*
X110595117Y-125733237D02*
X110498355Y-125709047D01*
X110498355Y-125709047D02*
X110449974Y-125684856D01*
X110449974Y-125684856D02*
X110425784Y-125660666D01*
X110425784Y-125660666D02*
X110401593Y-125612285D01*
X110401593Y-125612285D02*
X110401593Y-125563904D01*
X110401593Y-125563904D02*
X110425784Y-125515523D01*
X110425784Y-125515523D02*
X110449974Y-125491332D01*
X110449974Y-125491332D02*
X110498355Y-125467142D01*
X110498355Y-125467142D02*
X110595117Y-125442951D01*
X110595117Y-125442951D02*
X110716069Y-125442951D01*
X110716069Y-125442951D02*
X110812831Y-125467142D01*
X110812831Y-125467142D02*
X110861212Y-125491332D01*
X110861212Y-125491332D02*
X110885403Y-125515523D01*
X110885403Y-125515523D02*
X110909593Y-125563904D01*
X110861212Y-125926761D02*
X110885403Y-125950952D01*
X110885403Y-125950952D02*
X110909593Y-125999333D01*
X110909593Y-125999333D02*
X110909593Y-126120285D01*
X110909593Y-126120285D02*
X110885403Y-126168666D01*
X110885403Y-126168666D02*
X110861212Y-126192857D01*
X110861212Y-126192857D02*
X110812831Y-126217047D01*
X110812831Y-126217047D02*
X110764450Y-126217047D01*
X110764450Y-126217047D02*
X110691879Y-126192857D01*
X110691879Y-126192857D02*
X110401593Y-125902571D01*
X110401593Y-125902571D02*
X110401593Y-126217047D01*
D10*
X127333904Y-118220438D02*
X127238666Y-118172819D01*
X127238666Y-118172819D02*
X127095809Y-118172819D01*
X127095809Y-118172819D02*
X126952952Y-118220438D01*
X126952952Y-118220438D02*
X126857714Y-118315676D01*
X126857714Y-118315676D02*
X126810095Y-118410914D01*
X126810095Y-118410914D02*
X126762476Y-118601390D01*
X126762476Y-118601390D02*
X126762476Y-118744247D01*
X126762476Y-118744247D02*
X126810095Y-118934723D01*
X126810095Y-118934723D02*
X126857714Y-119029961D01*
X126857714Y-119029961D02*
X126952952Y-119125200D01*
X126952952Y-119125200D02*
X127095809Y-119172819D01*
X127095809Y-119172819D02*
X127191047Y-119172819D01*
X127191047Y-119172819D02*
X127333904Y-119125200D01*
X127333904Y-119125200D02*
X127381523Y-119077580D01*
X127381523Y-119077580D02*
X127381523Y-118744247D01*
X127381523Y-118744247D02*
X127191047Y-118744247D01*
X152852952Y-119268057D02*
X152757714Y-119220438D01*
X152757714Y-119220438D02*
X152662476Y-119125200D01*
X152662476Y-119125200D02*
X152519619Y-118982342D01*
X152519619Y-118982342D02*
X152424381Y-118934723D01*
X152424381Y-118934723D02*
X152329143Y-118934723D01*
X152376762Y-119172819D02*
X152281524Y-119125200D01*
X152281524Y-119125200D02*
X152186286Y-119029961D01*
X152186286Y-119029961D02*
X152138667Y-118839485D01*
X152138667Y-118839485D02*
X152138667Y-118506152D01*
X152138667Y-118506152D02*
X152186286Y-118315676D01*
X152186286Y-118315676D02*
X152281524Y-118220438D01*
X152281524Y-118220438D02*
X152376762Y-118172819D01*
X152376762Y-118172819D02*
X152567238Y-118172819D01*
X152567238Y-118172819D02*
X152662476Y-118220438D01*
X152662476Y-118220438D02*
X152757714Y-118315676D01*
X152757714Y-118315676D02*
X152805333Y-118506152D01*
X152805333Y-118506152D02*
X152805333Y-118839485D01*
X152805333Y-118839485D02*
X152757714Y-119029961D01*
X152757714Y-119029961D02*
X152662476Y-119125200D01*
X152662476Y-119125200D02*
X152567238Y-119172819D01*
X152567238Y-119172819D02*
X152376762Y-119172819D01*
X119190095Y-119172819D02*
X119190095Y-118172819D01*
X119190095Y-118172819D02*
X119428190Y-118172819D01*
X119428190Y-118172819D02*
X119571047Y-118220438D01*
X119571047Y-118220438D02*
X119666285Y-118315676D01*
X119666285Y-118315676D02*
X119713904Y-118410914D01*
X119713904Y-118410914D02*
X119761523Y-118601390D01*
X119761523Y-118601390D02*
X119761523Y-118744247D01*
X119761523Y-118744247D02*
X119713904Y-118934723D01*
X119713904Y-118934723D02*
X119666285Y-119029961D01*
X119666285Y-119029961D02*
X119571047Y-119125200D01*
X119571047Y-119125200D02*
X119428190Y-119172819D01*
X119428190Y-119172819D02*
X119190095Y-119172819D01*
X162346286Y-118172819D02*
X162346286Y-118982342D01*
X162346286Y-118982342D02*
X162393905Y-119077580D01*
X162393905Y-119077580D02*
X162441524Y-119125200D01*
X162441524Y-119125200D02*
X162536762Y-119172819D01*
X162536762Y-119172819D02*
X162727238Y-119172819D01*
X162727238Y-119172819D02*
X162822476Y-119125200D01*
X162822476Y-119125200D02*
X162870095Y-119077580D01*
X162870095Y-119077580D02*
X162917714Y-118982342D01*
X162917714Y-118982342D02*
X162917714Y-118172819D01*
X169918667Y-134936819D02*
X170585333Y-135936819D01*
X170585333Y-134936819D02*
X169918667Y-135936819D01*
X167283429Y-118172819D02*
X167521524Y-119172819D01*
X167521524Y-119172819D02*
X167712000Y-118458533D01*
X167712000Y-118458533D02*
X167902476Y-119172819D01*
X167902476Y-119172819D02*
X168140572Y-118172819D01*
X141978667Y-135936819D02*
X141978667Y-134936819D01*
X141978667Y-134936819D02*
X142312000Y-135651104D01*
X142312000Y-135651104D02*
X142645333Y-134936819D01*
X142645333Y-134936819D02*
X142645333Y-135936819D01*
X124674857Y-118649009D02*
X124341524Y-118649009D01*
X124341524Y-119172819D02*
X124341524Y-118172819D01*
X124341524Y-118172819D02*
X124817714Y-118172819D01*
X159806286Y-134936819D02*
X160377714Y-134936819D01*
X160092000Y-135936819D02*
X160092000Y-134936819D01*
X159806286Y-118172819D02*
X160377714Y-118172819D01*
X160092000Y-119172819D02*
X160092000Y-118172819D01*
X140081523Y-135936819D02*
X139605333Y-135936819D01*
X139605333Y-135936819D02*
X139605333Y-134936819D01*
X172792000Y-118696628D02*
X172792000Y-119172819D01*
X172458667Y-118172819D02*
X172792000Y-118696628D01*
X172792000Y-118696628D02*
X173125333Y-118172819D01*
X174998667Y-118172819D02*
X175665333Y-118172819D01*
X175665333Y-118172819D02*
X174998667Y-119172819D01*
X174998667Y-119172819D02*
X175665333Y-119172819D01*
X177633905Y-118887104D02*
X178110095Y-118887104D01*
X177538667Y-119172819D02*
X177872000Y-118172819D01*
X177872000Y-118172819D02*
X178205333Y-119172819D01*
X180483428Y-118649009D02*
X180626285Y-118696628D01*
X180626285Y-118696628D02*
X180673904Y-118744247D01*
X180673904Y-118744247D02*
X180721523Y-118839485D01*
X180721523Y-118839485D02*
X180721523Y-118982342D01*
X180721523Y-118982342D02*
X180673904Y-119077580D01*
X180673904Y-119077580D02*
X180626285Y-119125200D01*
X180626285Y-119125200D02*
X180531047Y-119172819D01*
X180531047Y-119172819D02*
X180150095Y-119172819D01*
X180150095Y-119172819D02*
X180150095Y-118172819D01*
X180150095Y-118172819D02*
X180483428Y-118172819D01*
X180483428Y-118172819D02*
X180578666Y-118220438D01*
X180578666Y-118220438D02*
X180626285Y-118268057D01*
X180626285Y-118268057D02*
X180673904Y-118363295D01*
X180673904Y-118363295D02*
X180673904Y-118458533D01*
X180673904Y-118458533D02*
X180626285Y-118553771D01*
X180626285Y-118553771D02*
X180578666Y-118601390D01*
X180578666Y-118601390D02*
X180483428Y-118649009D01*
X180483428Y-118649009D02*
X180150095Y-118649009D01*
X172792000Y-135460628D02*
X172792000Y-135936819D01*
X172458667Y-134936819D02*
X172792000Y-135460628D01*
X172792000Y-135460628D02*
X173125333Y-134936819D01*
X174998667Y-134936819D02*
X175665333Y-134936819D01*
X175665333Y-134936819D02*
X174998667Y-135936819D01*
X174998667Y-135936819D02*
X175665333Y-135936819D01*
X177633905Y-135651104D02*
X178110095Y-135651104D01*
X177538667Y-135936819D02*
X177872000Y-134936819D01*
X177872000Y-134936819D02*
X178205333Y-135936819D01*
X180483428Y-135413009D02*
X180626285Y-135460628D01*
X180626285Y-135460628D02*
X180673904Y-135508247D01*
X180673904Y-135508247D02*
X180721523Y-135603485D01*
X180721523Y-135603485D02*
X180721523Y-135746342D01*
X180721523Y-135746342D02*
X180673904Y-135841580D01*
X180673904Y-135841580D02*
X180626285Y-135889200D01*
X180626285Y-135889200D02*
X180531047Y-135936819D01*
X180531047Y-135936819D02*
X180150095Y-135936819D01*
X180150095Y-135936819D02*
X180150095Y-134936819D01*
X180150095Y-134936819D02*
X180483428Y-134936819D01*
X180483428Y-134936819D02*
X180578666Y-134984438D01*
X180578666Y-134984438D02*
X180626285Y-135032057D01*
X180626285Y-135032057D02*
X180673904Y-135127295D01*
X180673904Y-135127295D02*
X180673904Y-135222533D01*
X180673904Y-135222533D02*
X180626285Y-135317771D01*
X180626285Y-135317771D02*
X180578666Y-135365390D01*
X180578666Y-135365390D02*
X180483428Y-135413009D01*
X180483428Y-135413009D02*
X180150095Y-135413009D01*
D12*
%TO.C,G\u002A\u002A\u002A*%
G36*
X141978648Y-130981317D02*
G01*
X141700659Y-131343268D01*
X140887153Y-131346796D01*
X140074353Y-131350324D01*
X140072237Y-131496373D01*
X140070825Y-131643129D01*
X141094587Y-131643129D01*
X141557122Y-131643548D01*
X141874931Y-131644893D01*
X141982622Y-131645954D01*
X142057802Y-131647297D01*
X142101696Y-131648936D01*
X142112292Y-131649873D01*
X142115526Y-131650890D01*
X142032094Y-131761310D01*
X141835420Y-132017778D01*
X141556726Y-132376907D01*
X140813775Y-132376907D01*
X140070825Y-132376907D01*
X140070825Y-132906073D01*
X140070825Y-133435241D01*
X139633381Y-133435241D01*
X139195937Y-133435241D01*
X139195937Y-132027656D01*
X139195937Y-130620073D01*
X140726287Y-130620073D01*
X142257342Y-130620073D01*
X141978648Y-130981317D01*
G37*
G36*
X152389263Y-130620426D02*
G01*
X152641333Y-130620966D01*
X152827711Y-130621837D01*
X152957105Y-130623105D01*
X153038220Y-130624836D01*
X153063394Y-130625896D01*
X153079764Y-130627096D01*
X153088417Y-130628445D01*
X153090190Y-130629178D01*
X153090442Y-130629951D01*
X153005952Y-130740371D01*
X152810336Y-130992608D01*
X152535876Y-131346796D01*
X152111836Y-131348207D01*
X151687798Y-131350324D01*
X151685682Y-132392429D01*
X151684270Y-133435241D01*
X151246825Y-133435241D01*
X150809381Y-133435241D01*
X150809381Y-132391018D01*
X150809381Y-131346796D01*
X150230826Y-131345385D01*
X149652270Y-131343268D01*
X149896392Y-131025768D01*
X150078866Y-130788437D01*
X150175086Y-130663818D01*
X150209659Y-130620073D01*
X151653225Y-130620073D01*
X152389263Y-130620426D01*
G37*
G36*
X143492306Y-130609367D02*
G01*
X143518093Y-130610758D01*
X143543917Y-130613451D01*
X143569779Y-130617446D01*
X143595680Y-130622740D01*
X143621622Y-130629334D01*
X143647605Y-130637226D01*
X143673631Y-130646415D01*
X143699700Y-130656900D01*
X143725813Y-130668680D01*
X143751972Y-130681754D01*
X143778177Y-130696121D01*
X143804430Y-130711780D01*
X143830731Y-130728729D01*
X143875112Y-130759020D01*
X143917889Y-130795371D01*
X143972738Y-130856014D01*
X144053334Y-130959181D01*
X144173353Y-131123103D01*
X144346470Y-131366011D01*
X144906703Y-132161713D01*
X145799936Y-133431713D01*
X144970204Y-133433830D01*
X143316381Y-133433830D01*
X142492292Y-133431713D01*
X142751936Y-133071879D01*
X143012287Y-132712046D01*
X143602131Y-132708518D01*
X144192681Y-132704990D01*
X143830731Y-132202634D01*
X143689444Y-132007582D01*
X143573027Y-131848181D01*
X143493387Y-131740771D01*
X143471080Y-131711669D01*
X143464955Y-131704162D01*
X143462431Y-131701691D01*
X143273783Y-131956484D01*
X142827431Y-132567407D01*
X142197370Y-133431713D01*
X141653387Y-133433830D01*
X141108698Y-133435241D01*
X141366931Y-133077523D01*
X142285564Y-131801879D01*
X142585679Y-131386031D01*
X142800003Y-131091826D01*
X142876874Y-130987755D01*
X142934554Y-130910994D01*
X142973797Y-130860510D01*
X142986739Y-130844798D01*
X142995353Y-130835268D01*
X143017524Y-130813889D01*
X143040826Y-130793191D01*
X143065132Y-130773241D01*
X143090317Y-130754107D01*
X143116254Y-130735858D01*
X143142817Y-130718562D01*
X143169881Y-130702287D01*
X143197318Y-130687101D01*
X143225004Y-130673073D01*
X143252812Y-130660271D01*
X143280616Y-130648762D01*
X143308289Y-130638616D01*
X143335706Y-130629901D01*
X143362741Y-130622683D01*
X143389267Y-130617033D01*
X143415159Y-130613018D01*
X143440840Y-130610496D01*
X143466556Y-130609279D01*
X143492306Y-130609367D01*
G37*
G36*
X149567603Y-130624307D02*
G01*
X149545841Y-130653962D01*
X149486641Y-130731904D01*
X149292436Y-130985552D01*
X149016565Y-131343268D01*
X147985043Y-131346796D01*
X146953520Y-131350324D01*
X146920359Y-131365845D01*
X146912569Y-131369675D01*
X146905334Y-131373762D01*
X146898647Y-131378116D01*
X146892501Y-131382745D01*
X146886887Y-131387660D01*
X146881800Y-131392870D01*
X146877232Y-131398383D01*
X146873175Y-131404210D01*
X146869623Y-131410359D01*
X146866567Y-131416840D01*
X146864002Y-131423662D01*
X146861919Y-131430834D01*
X146860312Y-131438366D01*
X146859173Y-131446267D01*
X146858494Y-131454546D01*
X146858270Y-131463213D01*
X146858477Y-131471375D01*
X146858736Y-131475327D01*
X146859098Y-131479194D01*
X146859565Y-131482977D01*
X146860135Y-131486677D01*
X146860810Y-131490293D01*
X146861588Y-131493827D01*
X146862471Y-131497280D01*
X146863459Y-131500651D01*
X146864551Y-131503943D01*
X146865749Y-131507154D01*
X146867051Y-131510287D01*
X146868458Y-131513341D01*
X146869970Y-131516317D01*
X146871587Y-131519216D01*
X146873310Y-131522039D01*
X146875139Y-131524786D01*
X146877073Y-131527457D01*
X146879113Y-131530054D01*
X146881258Y-131532578D01*
X146883510Y-131535028D01*
X146885869Y-131537405D01*
X146888333Y-131539710D01*
X146890904Y-131541944D01*
X146893581Y-131544108D01*
X146896366Y-131546201D01*
X146899257Y-131548225D01*
X146902255Y-131550180D01*
X146905360Y-131552067D01*
X146908572Y-131553887D01*
X146911892Y-131555640D01*
X146923649Y-131559870D01*
X146944833Y-131563159D01*
X146984471Y-131565686D01*
X147051592Y-131567634D01*
X147304402Y-131570523D01*
X147775492Y-131573279D01*
X148075663Y-131574730D01*
X148302289Y-131576289D01*
X148392117Y-131577287D01*
X148468473Y-131578525D01*
X148532996Y-131580076D01*
X148587322Y-131582010D01*
X148633091Y-131584399D01*
X148671941Y-131587314D01*
X148705509Y-131590827D01*
X148735434Y-131595008D01*
X148763354Y-131599929D01*
X148790907Y-131605661D01*
X148851465Y-131619845D01*
X148892023Y-131630054D01*
X148931920Y-131641355D01*
X148971122Y-131653733D01*
X149009597Y-131667173D01*
X149047311Y-131681659D01*
X149084232Y-131697174D01*
X149120325Y-131713705D01*
X149155559Y-131731236D01*
X149189899Y-131749750D01*
X149223314Y-131769232D01*
X149255770Y-131789668D01*
X149287233Y-131811041D01*
X149317671Y-131833335D01*
X149347051Y-131856536D01*
X149375339Y-131880628D01*
X149402503Y-131905596D01*
X149431107Y-131933690D01*
X149444310Y-131947269D01*
X149456842Y-131960618D01*
X149468750Y-131973797D01*
X149480080Y-131986868D01*
X149490879Y-131999892D01*
X149501193Y-132012928D01*
X149511069Y-132026039D01*
X149520553Y-132039286D01*
X149529692Y-132052729D01*
X149538532Y-132066429D01*
X149547120Y-132080448D01*
X149555503Y-132094846D01*
X149563726Y-132109684D01*
X149571836Y-132125023D01*
X149583656Y-132148557D01*
X149594527Y-132171610D01*
X149604477Y-132194294D01*
X149613531Y-132216724D01*
X149621717Y-132239013D01*
X149629061Y-132261276D01*
X149635591Y-132283625D01*
X149641334Y-132306175D01*
X149646316Y-132329039D01*
X149650564Y-132352331D01*
X149654105Y-132376164D01*
X149656966Y-132400653D01*
X149659174Y-132425911D01*
X149660756Y-132452051D01*
X149661738Y-132479188D01*
X149662148Y-132507434D01*
X149662012Y-132535656D01*
X149661324Y-132562713D01*
X149660061Y-132588717D01*
X149658201Y-132613775D01*
X149655721Y-132637999D01*
X149652598Y-132661497D01*
X149648809Y-132684379D01*
X149644332Y-132706754D01*
X149639144Y-132728733D01*
X149633222Y-132750424D01*
X149626544Y-132771938D01*
X149619087Y-132793383D01*
X149610827Y-132814870D01*
X149601743Y-132836508D01*
X149591811Y-132858406D01*
X149581009Y-132880674D01*
X149573530Y-132895282D01*
X149565890Y-132909500D01*
X149558063Y-132923366D01*
X149550020Y-132936920D01*
X149541732Y-132950201D01*
X149533173Y-132963249D01*
X149524314Y-132976102D01*
X149515128Y-132988800D01*
X149505586Y-133001383D01*
X149495660Y-133013889D01*
X149485323Y-133026358D01*
X149474547Y-133038828D01*
X149463304Y-133051341D01*
X149451565Y-133063933D01*
X149439304Y-133076646D01*
X149426492Y-133089518D01*
X149394035Y-133120278D01*
X149360411Y-133149595D01*
X149325595Y-133177482D01*
X149289559Y-133203950D01*
X149252280Y-133229014D01*
X149213730Y-133252683D01*
X149173884Y-133274973D01*
X149132717Y-133295893D01*
X149090201Y-133315458D01*
X149046312Y-133333679D01*
X149001024Y-133350569D01*
X148954310Y-133366140D01*
X148906145Y-133380405D01*
X148856504Y-133393376D01*
X148805359Y-133405065D01*
X148752687Y-133415485D01*
X148668020Y-133431713D01*
X147268904Y-133433830D01*
X145869787Y-133435241D01*
X145912120Y-133380913D01*
X146192931Y-133017551D01*
X146431409Y-132709224D01*
X147500326Y-132707107D01*
X148079510Y-132705498D01*
X148269705Y-132704503D01*
X148406347Y-132703226D01*
X148457565Y-132702447D01*
X148498969Y-132701554D01*
X148531752Y-132700532D01*
X148557105Y-132699368D01*
X148576219Y-132698047D01*
X148590286Y-132696554D01*
X148600499Y-132694875D01*
X148608048Y-132692996D01*
X148634326Y-132684786D01*
X148658699Y-132676534D01*
X148681228Y-132668194D01*
X148701975Y-132659724D01*
X148721002Y-132651081D01*
X148729890Y-132646680D01*
X148738372Y-132642220D01*
X148746454Y-132637695D01*
X148754145Y-132633099D01*
X148761453Y-132628428D01*
X148768385Y-132623675D01*
X148774950Y-132618835D01*
X148781154Y-132613903D01*
X148787005Y-132608873D01*
X148792512Y-132603740D01*
X148797682Y-132598499D01*
X148802523Y-132593143D01*
X148807042Y-132587669D01*
X148811248Y-132582069D01*
X148815148Y-132576339D01*
X148818749Y-132570474D01*
X148822060Y-132564467D01*
X148825089Y-132558315D01*
X148827842Y-132552010D01*
X148830329Y-132545547D01*
X148832556Y-132538922D01*
X148834531Y-132532129D01*
X148836425Y-132523824D01*
X148837746Y-132515583D01*
X148838498Y-132507410D01*
X148838687Y-132499310D01*
X148838318Y-132491288D01*
X148837396Y-132483351D01*
X148835926Y-132475502D01*
X148833914Y-132467747D01*
X148831364Y-132460092D01*
X148828282Y-132452540D01*
X148824673Y-132445099D01*
X148820541Y-132437772D01*
X148815894Y-132430565D01*
X148810734Y-132423483D01*
X148805068Y-132416531D01*
X148798901Y-132409715D01*
X148792237Y-132403039D01*
X148785083Y-132396509D01*
X148769323Y-132383907D01*
X148751660Y-132371950D01*
X148732138Y-132360679D01*
X148710796Y-132350136D01*
X148687676Y-132340362D01*
X148662821Y-132331397D01*
X148636270Y-132323285D01*
X148617823Y-132319286D01*
X148589108Y-132316163D01*
X148466936Y-132311820D01*
X147726103Y-132305646D01*
X147342204Y-132303265D01*
X147061558Y-132300354D01*
X146882645Y-132296915D01*
X146830863Y-132294996D01*
X146803943Y-132292946D01*
X146747813Y-132284461D01*
X146693438Y-132274609D01*
X146640787Y-132263381D01*
X146589829Y-132250767D01*
X146540532Y-132236754D01*
X146492867Y-132221334D01*
X146446802Y-132204497D01*
X146402305Y-132186230D01*
X146359346Y-132166525D01*
X146317895Y-132145372D01*
X146277919Y-132122758D01*
X146239388Y-132098676D01*
X146202271Y-132073113D01*
X146166536Y-132046059D01*
X146132154Y-132017505D01*
X146099092Y-131987440D01*
X146068451Y-131956568D01*
X146040029Y-131924807D01*
X146013832Y-131892164D01*
X145989863Y-131858643D01*
X145968127Y-131824251D01*
X145948627Y-131788991D01*
X145931368Y-131752869D01*
X145916353Y-131715890D01*
X145903588Y-131678059D01*
X145893075Y-131639382D01*
X145884820Y-131599864D01*
X145878827Y-131559510D01*
X145875098Y-131518324D01*
X145873640Y-131476313D01*
X145874455Y-131433481D01*
X145877548Y-131389834D01*
X145881374Y-131355805D01*
X145886265Y-131322983D01*
X145892260Y-131291285D01*
X145899398Y-131260630D01*
X145907718Y-131230933D01*
X145917260Y-131202113D01*
X145928063Y-131174086D01*
X145940166Y-131146771D01*
X145953608Y-131120084D01*
X145968429Y-131093942D01*
X145984669Y-131068264D01*
X146002365Y-131042966D01*
X146021558Y-131017965D01*
X146042287Y-130993180D01*
X146064590Y-130968527D01*
X146088509Y-130943924D01*
X146119949Y-130914175D01*
X146153333Y-130885558D01*
X146188538Y-130858127D01*
X146225442Y-130831939D01*
X146263920Y-130807048D01*
X146303851Y-130783512D01*
X146345110Y-130761385D01*
X146387576Y-130740724D01*
X146431125Y-130721584D01*
X146475634Y-130704021D01*
X146520980Y-130688091D01*
X146567041Y-130673850D01*
X146613692Y-130661354D01*
X146660812Y-130650658D01*
X146708277Y-130641818D01*
X146755964Y-130634890D01*
X146782136Y-130631649D01*
X146806059Y-130628540D01*
X146837103Y-130624307D01*
X148213466Y-130621132D01*
X149567603Y-130624307D01*
G37*
G36*
X146321872Y-120711692D02*
G01*
X146676876Y-120716444D01*
X146788522Y-120719667D01*
X146831459Y-120723245D01*
X146843154Y-120751920D01*
X146858744Y-120808177D01*
X146878352Y-120892612D01*
X146902103Y-121005821D01*
X146962527Y-121320940D01*
X147041009Y-121758296D01*
X147058379Y-121855755D01*
X147065763Y-121896211D01*
X147072417Y-121931675D01*
X147078448Y-121962537D01*
X147083959Y-121989190D01*
X147089054Y-122012025D01*
X147091478Y-122022133D01*
X147093838Y-122031434D01*
X147096146Y-122039976D01*
X147098415Y-122047808D01*
X147100659Y-122054980D01*
X147102890Y-122061540D01*
X147105122Y-122067537D01*
X147107367Y-122073020D01*
X147109639Y-122078039D01*
X147111951Y-122082642D01*
X147114315Y-122086877D01*
X147116745Y-122090795D01*
X147119254Y-122094444D01*
X147121854Y-122097873D01*
X147124560Y-122101131D01*
X147127384Y-122104267D01*
X147133437Y-122110368D01*
X147143076Y-122119294D01*
X147155122Y-122127930D01*
X147174427Y-122138434D01*
X147205844Y-122152966D01*
X147324433Y-122202741D01*
X147549714Y-122294518D01*
X147754590Y-122377862D01*
X147834571Y-122410902D01*
X147884853Y-122432101D01*
X147910873Y-122443136D01*
X147934789Y-122452978D01*
X147956748Y-122461659D01*
X147976895Y-122469209D01*
X147995376Y-122475659D01*
X148012337Y-122481041D01*
X148027923Y-122485385D01*
X148042280Y-122488722D01*
X148055554Y-122491083D01*
X148061831Y-122491908D01*
X148067891Y-122492500D01*
X148073754Y-122492864D01*
X148079436Y-122493004D01*
X148084957Y-122492923D01*
X148090335Y-122492624D01*
X148095588Y-122492114D01*
X148100734Y-122491394D01*
X148105792Y-122490468D01*
X148110779Y-122489342D01*
X148120614Y-122486501D01*
X148130387Y-122482901D01*
X148178849Y-122451758D01*
X148293723Y-122374510D01*
X148653909Y-122128007D01*
X148811754Y-122019650D01*
X148941412Y-121931080D01*
X149045389Y-121860650D01*
X149126190Y-121806715D01*
X149186321Y-121767629D01*
X149209418Y-121753141D01*
X149228286Y-121741748D01*
X149243240Y-121733245D01*
X149254592Y-121727426D01*
X149262655Y-121724086D01*
X149265551Y-121723281D01*
X149267742Y-121723018D01*
X149274072Y-121727142D01*
X149288150Y-121739111D01*
X149337074Y-121784159D01*
X149500664Y-121941740D01*
X149718890Y-122157001D01*
X149952131Y-122391179D01*
X150044020Y-122484548D01*
X150081467Y-122522720D01*
X150113758Y-122555783D01*
X150141274Y-122584162D01*
X150164397Y-122608282D01*
X150174430Y-122618878D01*
X150183508Y-122628568D01*
X150191678Y-122637405D01*
X150198987Y-122645444D01*
X150205485Y-122652736D01*
X150211218Y-122659335D01*
X150216233Y-122665294D01*
X150220580Y-122670666D01*
X150224305Y-122675504D01*
X150227455Y-122679862D01*
X150230080Y-122683792D01*
X150232226Y-122687347D01*
X150233941Y-122690581D01*
X150235272Y-122693547D01*
X150236268Y-122696297D01*
X150236976Y-122698885D01*
X150237443Y-122701364D01*
X150237718Y-122703788D01*
X150237848Y-122706208D01*
X150237881Y-122708679D01*
X150237676Y-122711568D01*
X150237329Y-122714662D01*
X150236847Y-122717934D01*
X150236239Y-122721357D01*
X150235510Y-122724903D01*
X150234669Y-122728547D01*
X150233722Y-122732261D01*
X150232678Y-122736019D01*
X150231542Y-122739793D01*
X150230323Y-122743557D01*
X150229027Y-122747283D01*
X150227662Y-122750946D01*
X150226234Y-122754518D01*
X150224752Y-122757971D01*
X150223223Y-122761280D01*
X150221653Y-122764418D01*
X150189539Y-122813454D01*
X150113438Y-122925990D01*
X149874519Y-123273829D01*
X149521742Y-123787473D01*
X149518830Y-123792260D01*
X149516169Y-123796862D01*
X149513749Y-123801325D01*
X149511556Y-123805696D01*
X149509578Y-123810022D01*
X149507802Y-123814349D01*
X149506217Y-123818724D01*
X149504809Y-123823192D01*
X149503567Y-123827801D01*
X149502477Y-123832597D01*
X149501529Y-123837627D01*
X149500708Y-123842937D01*
X149500003Y-123848573D01*
X149499402Y-123854583D01*
X149498892Y-123861012D01*
X149498460Y-123867907D01*
X149497592Y-123888250D01*
X149497638Y-123897459D01*
X149498129Y-123906426D01*
X149499157Y-123915451D01*
X149500816Y-123924834D01*
X149503199Y-123934874D01*
X149506397Y-123945871D01*
X149510506Y-123958125D01*
X149515616Y-123971935D01*
X149529218Y-124005424D01*
X149547945Y-124048736D01*
X149572543Y-124104268D01*
X149602077Y-124170899D01*
X149637895Y-124253670D01*
X149675432Y-124341996D01*
X149710126Y-124425296D01*
X149756024Y-124534934D01*
X149794340Y-124624935D01*
X149810952Y-124663194D01*
X149826026Y-124697292D01*
X149839679Y-124727476D01*
X149852030Y-124753996D01*
X149863200Y-124777102D01*
X149873306Y-124797042D01*
X149882467Y-124814065D01*
X149890803Y-124828421D01*
X149898431Y-124840359D01*
X149905472Y-124850127D01*
X149912043Y-124857974D01*
X149918265Y-124864151D01*
X149930298Y-124869612D01*
X149961612Y-124877943D01*
X150110528Y-124908866D01*
X150952609Y-125067351D01*
X150999794Y-125076110D01*
X151044871Y-125084769D01*
X151086790Y-125093098D01*
X151124500Y-125100865D01*
X151156951Y-125107838D01*
X151183094Y-125113785D01*
X151201878Y-125118476D01*
X151208182Y-125120278D01*
X151212253Y-125121679D01*
X151215193Y-125122825D01*
X151218180Y-125124137D01*
X151221194Y-125125598D01*
X151224215Y-125127191D01*
X151227223Y-125128900D01*
X151230200Y-125130708D01*
X151233124Y-125132599D01*
X151235978Y-125134555D01*
X151238740Y-125136562D01*
X151241392Y-125138601D01*
X151243914Y-125140657D01*
X151246285Y-125142713D01*
X151248488Y-125144753D01*
X151250501Y-125146759D01*
X151252305Y-125148716D01*
X151253881Y-125150606D01*
X151258539Y-125158048D01*
X151262039Y-125172699D01*
X151264547Y-125202101D01*
X151266228Y-125253794D01*
X151267772Y-125454216D01*
X151267992Y-125834290D01*
X151267992Y-126501040D01*
X151246825Y-126520796D01*
X151244298Y-126523044D01*
X151241490Y-126525284D01*
X151238417Y-126527510D01*
X151235096Y-126529715D01*
X151231543Y-126531890D01*
X151227776Y-126534029D01*
X151223810Y-126536125D01*
X151219662Y-126538170D01*
X151215348Y-126540157D01*
X151210886Y-126542079D01*
X151206292Y-126543929D01*
X151201582Y-126545700D01*
X151196772Y-126547383D01*
X151191880Y-126548972D01*
X151186922Y-126550460D01*
X151181914Y-126551840D01*
X151132250Y-126562104D01*
X151030132Y-126581562D01*
X150727537Y-126637213D01*
X150533626Y-126672238D01*
X150373756Y-126701517D01*
X150244924Y-126725654D01*
X150144131Y-126745251D01*
X150068373Y-126760912D01*
X150038945Y-126767455D01*
X150014650Y-126773241D01*
X149995114Y-126778345D01*
X149979961Y-126782842D01*
X149968816Y-126786808D01*
X149961304Y-126790318D01*
X149953867Y-126795086D01*
X149946491Y-126801240D01*
X149938956Y-126809260D01*
X149931042Y-126819621D01*
X149922528Y-126832801D01*
X149913195Y-126849279D01*
X149891189Y-126894035D01*
X149863263Y-126957708D01*
X149827655Y-127044119D01*
X149726353Y-127300435D01*
X149646714Y-127502047D01*
X149611954Y-127588368D01*
X149586653Y-127649685D01*
X149574558Y-127678712D01*
X149563906Y-127704834D01*
X149554654Y-127728284D01*
X149546756Y-127749300D01*
X149540170Y-127768117D01*
X149534849Y-127784969D01*
X149532649Y-127792733D01*
X149530750Y-127800094D01*
X149529144Y-127807082D01*
X149527828Y-127813726D01*
X149526794Y-127820056D01*
X149526038Y-127826102D01*
X149525555Y-127831892D01*
X149525338Y-127837456D01*
X149525381Y-127842824D01*
X149525681Y-127848025D01*
X149526230Y-127853089D01*
X149527023Y-127858044D01*
X149528055Y-127862921D01*
X149529320Y-127867749D01*
X149530813Y-127872557D01*
X149532528Y-127877375D01*
X149536602Y-127887159D01*
X149541498Y-127897335D01*
X149549076Y-127909996D01*
X149564814Y-127934332D01*
X149616904Y-128012340D01*
X149690028Y-128119981D01*
X149776448Y-128245879D01*
X149966860Y-128522104D01*
X150116526Y-128741179D01*
X150140379Y-128776022D01*
X150161234Y-128806702D01*
X150179234Y-128833570D01*
X150194523Y-128856978D01*
X150201196Y-128867494D01*
X150207245Y-128877277D01*
X150212688Y-128886371D01*
X150217543Y-128894819D01*
X150221828Y-128902666D01*
X150225561Y-128909955D01*
X150228760Y-128916730D01*
X150231443Y-128923036D01*
X150233628Y-128928915D01*
X150235333Y-128934413D01*
X150236575Y-128939573D01*
X150237373Y-128944439D01*
X150237745Y-128949055D01*
X150237708Y-128953465D01*
X150237281Y-128957712D01*
X150236481Y-128961841D01*
X150235327Y-128965896D01*
X150233836Y-128969920D01*
X150232027Y-128973958D01*
X150229917Y-128978053D01*
X150227525Y-128982249D01*
X150224868Y-128986591D01*
X150218831Y-128995885D01*
X150174778Y-129043623D01*
X150072781Y-129148660D01*
X149771156Y-129453967D01*
X149466356Y-129758480D01*
X149360391Y-129862525D01*
X149310781Y-129908873D01*
X149305000Y-129912867D01*
X149299288Y-129916384D01*
X149293635Y-129919425D01*
X149288027Y-129921993D01*
X149282452Y-129924089D01*
X149276898Y-129925716D01*
X149271352Y-129926876D01*
X149265802Y-129927571D01*
X149260236Y-129927803D01*
X149254640Y-129927574D01*
X149249003Y-129926886D01*
X149243313Y-129925741D01*
X149237556Y-129924141D01*
X149231721Y-129922089D01*
X149225794Y-129919587D01*
X149219765Y-129916635D01*
X149200899Y-129905713D01*
X149169913Y-129886142D01*
X149076008Y-129824031D01*
X148946913Y-129736255D01*
X148791492Y-129628768D01*
X148617385Y-129508030D01*
X148481313Y-129414808D01*
X148372095Y-129341431D01*
X148278554Y-129280224D01*
X148177659Y-129216018D01*
X148126859Y-129240006D01*
X148097137Y-129254316D01*
X148054187Y-129276166D01*
X148003827Y-129302515D01*
X147951881Y-129330318D01*
X147889084Y-129364047D01*
X147822698Y-129398933D01*
X147756346Y-129433158D01*
X147693648Y-129464903D01*
X147638226Y-129492348D01*
X147593702Y-129513674D01*
X147563696Y-129527063D01*
X147555270Y-129530212D01*
X147552899Y-129530801D01*
X147551831Y-129530695D01*
X147340782Y-128690026D01*
X147133437Y-127843007D01*
X147133461Y-127842470D01*
X147133534Y-127841917D01*
X147133655Y-127841350D01*
X147133821Y-127840770D01*
X147134288Y-127839576D01*
X147134925Y-127838343D01*
X147135724Y-127837082D01*
X147136674Y-127835801D01*
X147137767Y-127834510D01*
X147138993Y-127833217D01*
X147140344Y-127831933D01*
X147141809Y-127830666D01*
X147143379Y-127829427D01*
X147145046Y-127828223D01*
X147146799Y-127827065D01*
X147148630Y-127825962D01*
X147150529Y-127824923D01*
X147152487Y-127823957D01*
X147155623Y-127822615D01*
X147158457Y-127821521D01*
X147161051Y-127820708D01*
X147162277Y-127820417D01*
X147163467Y-127820209D01*
X147164628Y-127820087D01*
X147165768Y-127820057D01*
X147166894Y-127820122D01*
X147168015Y-127820286D01*
X147169137Y-127820553D01*
X147170270Y-127820928D01*
X147171420Y-127821415D01*
X147172595Y-127822017D01*
X147173804Y-127822739D01*
X147175053Y-127823585D01*
X147176351Y-127824559D01*
X147177705Y-127825666D01*
X147180613Y-127828292D01*
X147183840Y-127831498D01*
X147187447Y-127835315D01*
X147191496Y-127839777D01*
X147201170Y-127850768D01*
X147533487Y-128249407D01*
X147744900Y-128502878D01*
X147896583Y-128683324D01*
X147950047Y-128746162D01*
X147988603Y-128790744D01*
X148012260Y-128817070D01*
X148018504Y-128823387D01*
X148020230Y-128824834D01*
X148021026Y-128825140D01*
X147943238Y-128649545D01*
X147754325Y-128231062D01*
X147564443Y-127810639D01*
X147506180Y-127680498D01*
X147484098Y-127629929D01*
X147484057Y-127629454D01*
X147484064Y-127628955D01*
X147484118Y-127628434D01*
X147484218Y-127627893D01*
X147484363Y-127627331D01*
X147484552Y-127626751D01*
X147485057Y-127625542D01*
X147485723Y-127624274D01*
X147486541Y-127622959D01*
X147487502Y-127621607D01*
X147488596Y-127620228D01*
X147489814Y-127618832D01*
X147491147Y-127617430D01*
X147492585Y-127616033D01*
X147494119Y-127614649D01*
X147495740Y-127613291D01*
X147497438Y-127611968D01*
X147499205Y-127610690D01*
X147501031Y-127609468D01*
X147507220Y-127606254D01*
X147510409Y-127605505D01*
X147514029Y-127605587D01*
X147518355Y-127606695D01*
X147523665Y-127609021D01*
X147530234Y-127612762D01*
X147538337Y-127618111D01*
X147548252Y-127625262D01*
X147560252Y-127634410D01*
X147591618Y-127659474D01*
X147691531Y-127742112D01*
X147966554Y-127969610D01*
X148234897Y-128188376D01*
X148439343Y-128352109D01*
X148499724Y-128398868D01*
X148516326Y-128410939D01*
X148522676Y-128414506D01*
X148496383Y-128375029D01*
X148422928Y-128268545D01*
X148179776Y-127919912D01*
X147929215Y-127561931D01*
X147811476Y-127392862D01*
X147788193Y-127358996D01*
X147805831Y-127341357D01*
X147823470Y-127323718D01*
X147987864Y-127415440D01*
X148194173Y-127528715D01*
X148405906Y-127643246D01*
X148605997Y-127749708D01*
X148777381Y-127838773D01*
X148964353Y-127934729D01*
X148878276Y-127843007D01*
X148708589Y-127667764D01*
X148422487Y-127374518D01*
X148279358Y-127227906D01*
X148162754Y-127107553D01*
X148084647Y-127025962D01*
X148063771Y-127003609D01*
X148058532Y-126997727D01*
X148057009Y-126995634D01*
X148105329Y-127010903D01*
X148234015Y-127054284D01*
X148653909Y-127198129D01*
X149072392Y-127341621D01*
X149200307Y-127384759D01*
X149235396Y-127396254D01*
X149247987Y-127399918D01*
X149217534Y-127374614D01*
X149130567Y-127310335D01*
X148845203Y-127106054D01*
X148508113Y-126869495D01*
X148235515Y-126683073D01*
X148232901Y-126681298D01*
X148230609Y-126679650D01*
X148228631Y-126678094D01*
X148226960Y-126676591D01*
X148226236Y-126675848D01*
X148225586Y-126675105D01*
X148225008Y-126674356D01*
X148224501Y-126673598D01*
X148224065Y-126672825D01*
X148223698Y-126672033D01*
X148223399Y-126671218D01*
X148223167Y-126670373D01*
X148223001Y-126669496D01*
X148222901Y-126668581D01*
X148222865Y-126667624D01*
X148222891Y-126666620D01*
X148222980Y-126665564D01*
X148223130Y-126664451D01*
X148223608Y-126662039D01*
X148224318Y-126659346D01*
X148225251Y-126656334D01*
X148226398Y-126652967D01*
X148227753Y-126649207D01*
X148229032Y-126645342D01*
X148230243Y-126641933D01*
X148231420Y-126638959D01*
X148232593Y-126636397D01*
X148233188Y-126635262D01*
X148233795Y-126634222D01*
X148234417Y-126633274D01*
X148235058Y-126632414D01*
X148235723Y-126631640D01*
X148236414Y-126630949D01*
X148237137Y-126630338D01*
X148237896Y-126629804D01*
X148238693Y-126629344D01*
X148239534Y-126628957D01*
X148240422Y-126628638D01*
X148241361Y-126628384D01*
X148242356Y-126628194D01*
X148243410Y-126628064D01*
X148244527Y-126627992D01*
X148245712Y-126627974D01*
X148248299Y-126628090D01*
X148251204Y-126628390D01*
X148254457Y-126628851D01*
X148258092Y-126629451D01*
X148900060Y-126725142D01*
X149484349Y-126808662D01*
X149456483Y-126791898D01*
X149370963Y-126749561D01*
X149082093Y-126613664D01*
X148728003Y-126451971D01*
X148418959Y-126315479D01*
X148345581Y-126284435D01*
X148349815Y-126260446D01*
X148350638Y-126255736D01*
X148351501Y-126251207D01*
X148352382Y-126246977D01*
X148353254Y-126243159D01*
X148354093Y-126239871D01*
X148354493Y-126238462D01*
X148354875Y-126237228D01*
X148355236Y-126236185D01*
X148355574Y-126235346D01*
X148355884Y-126234726D01*
X148356029Y-126234503D01*
X148356165Y-126234340D01*
X148549046Y-126225344D01*
X149010215Y-126206823D01*
X149471119Y-126188655D01*
X149664264Y-126180012D01*
X149663900Y-126179634D01*
X149662573Y-126179037D01*
X149657220Y-126177234D01*
X149637013Y-126171546D01*
X149606619Y-126163741D01*
X149569015Y-126154612D01*
X148859402Y-125985808D01*
X148383681Y-125875213D01*
X148381290Y-125874540D01*
X148379139Y-125873830D01*
X148377220Y-125873065D01*
X148375523Y-125872225D01*
X148374756Y-125871770D01*
X148374042Y-125871289D01*
X148373379Y-125870780D01*
X148372767Y-125870239D01*
X148372205Y-125869665D01*
X148371691Y-125869055D01*
X148371225Y-125868406D01*
X148370805Y-125867716D01*
X148370431Y-125866983D01*
X148370101Y-125866204D01*
X148369814Y-125865376D01*
X148369570Y-125864498D01*
X148369368Y-125863567D01*
X148369205Y-125862580D01*
X148368997Y-125860429D01*
X148368938Y-125858026D01*
X148369019Y-125855351D01*
X148369233Y-125852384D01*
X148369571Y-125849107D01*
X148371687Y-125826529D01*
X149017270Y-125682595D01*
X149474029Y-125580114D01*
X149613674Y-125548254D01*
X149665675Y-125535840D01*
X149665804Y-125535704D01*
X149665923Y-125535560D01*
X149666035Y-125535408D01*
X149666138Y-125535250D01*
X149666234Y-125535086D01*
X149666320Y-125534916D01*
X149666399Y-125534741D01*
X149666469Y-125534561D01*
X149666531Y-125534377D01*
X149666585Y-125534190D01*
X149666630Y-125533999D01*
X149666668Y-125533806D01*
X149666717Y-125533414D01*
X149666734Y-125533018D01*
X149666717Y-125532621D01*
X149666668Y-125532229D01*
X149666630Y-125532036D01*
X149666585Y-125531846D01*
X149666531Y-125531658D01*
X149666469Y-125531474D01*
X149666399Y-125531294D01*
X149666320Y-125531119D01*
X149666234Y-125530949D01*
X149666138Y-125530785D01*
X149666035Y-125530627D01*
X149665923Y-125530476D01*
X149665804Y-125530332D01*
X149665675Y-125530195D01*
X149581207Y-125524562D01*
X149368813Y-125513703D01*
X148780909Y-125487157D01*
X148577180Y-125478690D01*
X148433776Y-125472340D01*
X148333586Y-125468106D01*
X148329353Y-125446940D01*
X148328849Y-125444834D01*
X148328394Y-125442756D01*
X148327989Y-125440720D01*
X148327634Y-125438738D01*
X148327328Y-125436822D01*
X148327071Y-125434984D01*
X148326865Y-125433237D01*
X148326708Y-125431594D01*
X148326600Y-125430067D01*
X148326542Y-125428667D01*
X148326534Y-125427408D01*
X148326576Y-125426302D01*
X148326667Y-125425362D01*
X148326807Y-125424599D01*
X148326896Y-125424288D01*
X148326997Y-125424027D01*
X148327111Y-125423816D01*
X148327237Y-125423657D01*
X148501862Y-125347721D01*
X148917787Y-125169657D01*
X149336093Y-124990622D01*
X149516803Y-124912129D01*
X149518349Y-124911128D01*
X149519543Y-124910241D01*
X149520381Y-124909466D01*
X149520860Y-124908800D01*
X149520964Y-124908507D01*
X149520975Y-124908241D01*
X149520895Y-124908002D01*
X149520723Y-124907788D01*
X149520457Y-124907600D01*
X149520098Y-124907438D01*
X149519096Y-124907190D01*
X149517715Y-124907041D01*
X149515949Y-124906989D01*
X149513794Y-124907032D01*
X149511247Y-124907168D01*
X149504958Y-124907711D01*
X149497048Y-124908601D01*
X149341825Y-124926240D01*
X149080549Y-124958574D01*
X148728521Y-125004468D01*
X148409566Y-125047585D01*
X148247509Y-125071585D01*
X148244611Y-125072053D01*
X148241988Y-125072389D01*
X148239618Y-125072577D01*
X148238520Y-125072610D01*
X148237477Y-125072599D01*
X148236485Y-125072543D01*
X148235542Y-125072439D01*
X148234645Y-125072286D01*
X148233792Y-125072081D01*
X148232978Y-125071822D01*
X148232203Y-125071507D01*
X148231461Y-125071135D01*
X148230752Y-125070703D01*
X148230071Y-125070208D01*
X148229417Y-125069650D01*
X148228786Y-125069025D01*
X148228175Y-125068332D01*
X148227582Y-125067569D01*
X148227003Y-125066734D01*
X148226437Y-125065824D01*
X148225879Y-125064838D01*
X148224780Y-125062627D01*
X148223683Y-125060086D01*
X148222565Y-125057198D01*
X148221404Y-125053945D01*
X148213642Y-125032074D01*
X148759742Y-124667301D01*
X148971221Y-124525120D01*
X149144005Y-124408274D01*
X149260301Y-124328866D01*
X149291705Y-124306984D01*
X149302315Y-124299001D01*
X149286427Y-124302370D01*
X149242684Y-124315240D01*
X149079271Y-124366999D01*
X148502214Y-124557234D01*
X148054187Y-124706813D01*
X148038665Y-124687762D01*
X148022436Y-124668712D01*
X148179776Y-124509962D01*
X148639798Y-124045001D01*
X148726871Y-123957079D01*
X148763211Y-123920249D01*
X148795042Y-123887861D01*
X148822583Y-123859681D01*
X148846049Y-123835476D01*
X148865658Y-123815012D01*
X148881627Y-123798057D01*
X148894173Y-123784375D01*
X148899230Y-123778689D01*
X148903513Y-123773734D01*
X148907049Y-123769481D01*
X148909864Y-123765900D01*
X148911987Y-123762963D01*
X148913443Y-123760640D01*
X148914261Y-123758902D01*
X148914439Y-123758243D01*
X148914467Y-123757719D01*
X148914350Y-123757328D01*
X148914089Y-123757064D01*
X148913689Y-123756924D01*
X148913154Y-123756905D01*
X148912485Y-123757004D01*
X148911688Y-123757215D01*
X148909719Y-123757964D01*
X148907274Y-123759123D01*
X148904381Y-123760662D01*
X148344170Y-124079574D01*
X147823470Y-124376612D01*
X147806537Y-124361090D01*
X147804835Y-124359488D01*
X147803176Y-124357866D01*
X147801568Y-124356235D01*
X147800021Y-124354608D01*
X147798545Y-124352997D01*
X147797148Y-124351416D01*
X147795840Y-124349876D01*
X147794630Y-124348390D01*
X147793528Y-124346970D01*
X147792542Y-124345628D01*
X147791683Y-124344378D01*
X147790959Y-124343231D01*
X147790380Y-124342199D01*
X147789954Y-124341296D01*
X147789802Y-124340896D01*
X147789692Y-124340534D01*
X147789626Y-124340209D01*
X147789603Y-124339924D01*
X147817671Y-124297877D01*
X147894026Y-124187171D01*
X148144498Y-123826984D01*
X148370044Y-123505031D01*
X148435866Y-123410811D01*
X148459293Y-123377107D01*
X148477256Y-123351087D01*
X148490398Y-123331815D01*
X148499364Y-123318351D01*
X148504797Y-123309757D01*
X148506390Y-123306993D01*
X148507341Y-123305094D01*
X148507731Y-123303944D01*
X148507741Y-123303613D01*
X148507641Y-123303425D01*
X148507440Y-123303365D01*
X148507150Y-123303419D01*
X148506339Y-123303810D01*
X148501509Y-123306990D01*
X148461866Y-123335812D01*
X148381344Y-123398393D01*
X148137619Y-123592652D01*
X147850237Y-123825408D01*
X147599103Y-124032301D01*
X147582695Y-124045978D01*
X147567056Y-124058770D01*
X147552557Y-124070389D01*
X147539572Y-124080544D01*
X147528472Y-124088946D01*
X147519629Y-124095305D01*
X147516171Y-124097629D01*
X147513416Y-124099333D01*
X147511411Y-124100382D01*
X147510705Y-124100650D01*
X147510204Y-124100740D01*
X147509354Y-124100675D01*
X147508400Y-124100483D01*
X147507353Y-124100168D01*
X147506224Y-124099737D01*
X147505025Y-124099194D01*
X147503767Y-124098545D01*
X147502461Y-124097794D01*
X147501119Y-124096948D01*
X147499753Y-124096010D01*
X147498373Y-124094987D01*
X147496991Y-124093883D01*
X147495618Y-124092703D01*
X147494266Y-124091454D01*
X147492946Y-124090139D01*
X147491670Y-124088764D01*
X147490448Y-124087334D01*
X147488664Y-124084764D01*
X147487754Y-124081062D01*
X147489797Y-124067314D01*
X147499067Y-124040206D01*
X147518053Y-123993848D01*
X147595123Y-123819841D01*
X147740920Y-123498196D01*
X147842299Y-123273939D01*
X147924894Y-123090032D01*
X147980236Y-122965391D01*
X147995042Y-122931207D01*
X147999859Y-122918935D01*
X147981872Y-122936000D01*
X147934937Y-122987594D01*
X147774169Y-123171347D01*
X147557442Y-123424156D01*
X147324642Y-123699984D01*
X147293104Y-123738090D01*
X147263502Y-123773583D01*
X147212812Y-123833687D01*
X147177997Y-123874213D01*
X147168238Y-123885232D01*
X147165567Y-123888097D01*
X147164481Y-123889074D01*
X147163805Y-123888912D01*
X147162376Y-123888445D01*
X147160302Y-123887697D01*
X147157690Y-123886692D01*
X147154649Y-123885456D01*
X147151285Y-123884013D01*
X147147706Y-123882388D01*
X147144020Y-123880606D01*
X147141970Y-123879656D01*
X147140057Y-123878659D01*
X147138284Y-123877619D01*
X147137452Y-123877084D01*
X147136656Y-123876539D01*
X147135897Y-123875984D01*
X147135176Y-123875421D01*
X147134494Y-123874849D01*
X147133850Y-123874269D01*
X147133246Y-123873681D01*
X147132681Y-123873086D01*
X147132156Y-123872484D01*
X147131673Y-123871875D01*
X147131230Y-123871261D01*
X147130830Y-123870640D01*
X147130472Y-123870014D01*
X147130157Y-123869383D01*
X147129885Y-123868747D01*
X147129657Y-123868107D01*
X147129474Y-123867463D01*
X147129336Y-123866815D01*
X147129243Y-123866165D01*
X147129196Y-123865512D01*
X147129195Y-123864856D01*
X147129242Y-123864199D01*
X147129336Y-123863539D01*
X147129478Y-123862879D01*
X147129669Y-123862218D01*
X147129909Y-123861557D01*
X147182440Y-123646539D01*
X147274989Y-123245783D01*
X147365553Y-122843176D01*
X147412131Y-122622601D01*
X147414667Y-122609365D01*
X147414821Y-122602835D01*
X147407766Y-122611501D01*
X147388671Y-122643856D01*
X147295053Y-122813597D01*
X147095337Y-123179990D01*
X146997941Y-123359006D01*
X146958280Y-123431717D01*
X146924052Y-123494249D01*
X146894814Y-123547363D01*
X146881928Y-123570627D01*
X146870123Y-123591822D01*
X146859343Y-123611045D01*
X146849534Y-123628390D01*
X146840640Y-123643952D01*
X146832605Y-123657828D01*
X146825375Y-123670111D01*
X146818893Y-123680899D01*
X146813104Y-123690286D01*
X146807954Y-123698367D01*
X146803385Y-123705238D01*
X146801302Y-123708249D01*
X146799344Y-123710993D01*
X146797503Y-123713483D01*
X146795774Y-123715730D01*
X146794149Y-123717745D01*
X146792620Y-123719542D01*
X146791182Y-123721131D01*
X146789827Y-123722525D01*
X146788549Y-123723735D01*
X146787339Y-123724774D01*
X146786193Y-123725654D01*
X146785101Y-123726386D01*
X146784059Y-123726982D01*
X146783058Y-123727454D01*
X146782092Y-123727815D01*
X146781154Y-123728075D01*
X146780236Y-123728248D01*
X146779333Y-123728344D01*
X146778436Y-123728376D01*
X146777540Y-123728356D01*
X146775720Y-123728207D01*
X146771800Y-123727647D01*
X146768036Y-123727038D01*
X146764521Y-123726396D01*
X146761345Y-123725737D01*
X146759912Y-123725407D01*
X146758598Y-123725079D01*
X146757415Y-123724754D01*
X146756373Y-123724436D01*
X146755484Y-123724127D01*
X146754759Y-123723827D01*
X146754210Y-123723540D01*
X146754005Y-123723402D01*
X146753848Y-123723268D01*
X146782776Y-123122928D01*
X146818053Y-122461734D01*
X146818401Y-122458247D01*
X146818655Y-122454937D01*
X146818821Y-122451814D01*
X146818902Y-122448891D01*
X146818905Y-122446179D01*
X146818834Y-122443689D01*
X146818696Y-122441433D01*
X146818494Y-122439421D01*
X146818235Y-122437666D01*
X146818085Y-122436888D01*
X146817922Y-122436179D01*
X146817748Y-122435539D01*
X146817562Y-122434970D01*
X146817366Y-122434474D01*
X146817160Y-122434052D01*
X146816945Y-122433706D01*
X146816721Y-122433436D01*
X146816489Y-122433245D01*
X146816249Y-122433133D01*
X146816003Y-122433103D01*
X146815751Y-122433155D01*
X146815494Y-122433291D01*
X146815231Y-122433512D01*
X146758555Y-122585978D01*
X146638578Y-122928812D01*
X146506561Y-123313979D01*
X146413770Y-123593446D01*
X146392604Y-123661179D01*
X146369320Y-123656946D01*
X146346742Y-123652007D01*
X146337570Y-123582157D01*
X146300550Y-123308092D01*
X146248317Y-122942218D01*
X146197672Y-122599097D01*
X146165414Y-122393296D01*
X146156948Y-122347435D01*
X146152009Y-122375657D01*
X146067342Y-123024768D01*
X146010104Y-123464682D01*
X145991837Y-123599641D01*
X145986478Y-123636901D01*
X145984087Y-123650596D01*
X145983280Y-123651383D01*
X145982324Y-123652155D01*
X145981230Y-123652911D01*
X145980009Y-123653648D01*
X145977233Y-123655056D01*
X145974088Y-123656361D01*
X145970665Y-123657547D01*
X145967058Y-123658595D01*
X145963358Y-123659488D01*
X145959657Y-123660209D01*
X145956046Y-123660739D01*
X145952619Y-123661062D01*
X145949467Y-123661159D01*
X145946681Y-123661013D01*
X145945455Y-123660844D01*
X145944355Y-123660607D01*
X145943392Y-123660301D01*
X145942579Y-123659923D01*
X145941926Y-123659472D01*
X145941446Y-123658944D01*
X145941149Y-123658338D01*
X145941048Y-123657651D01*
X145909408Y-123558961D01*
X145832392Y-123331155D01*
X145649653Y-122802518D01*
X145614036Y-122702256D01*
X145585514Y-122622326D01*
X145563308Y-122560635D01*
X145546642Y-122515092D01*
X145540143Y-122497723D01*
X145534738Y-122483606D01*
X145530330Y-122472480D01*
X145526820Y-122464083D01*
X145524113Y-122458155D01*
X145522110Y-122454433D01*
X145521343Y-122453317D01*
X145520715Y-122452656D01*
X145520215Y-122452415D01*
X145519831Y-122452563D01*
X145521099Y-122503572D01*
X145527328Y-122640505D01*
X145550170Y-123088268D01*
X145561981Y-123309840D01*
X145566629Y-123398519D01*
X145570444Y-123473898D01*
X145572039Y-123506938D01*
X145573427Y-123537057D01*
X145574608Y-123564391D01*
X145575582Y-123589075D01*
X145576351Y-123611242D01*
X145576913Y-123631030D01*
X145577270Y-123648571D01*
X145577422Y-123664001D01*
X145577369Y-123677456D01*
X145577113Y-123689069D01*
X145576908Y-123694227D01*
X145576652Y-123698975D01*
X145576345Y-123703331D01*
X145575988Y-123707310D01*
X145575579Y-123710931D01*
X145575120Y-123714209D01*
X145574611Y-123717162D01*
X145574050Y-123719806D01*
X145573439Y-123722158D01*
X145572778Y-123724236D01*
X145572066Y-123726055D01*
X145571304Y-123727634D01*
X145570491Y-123728988D01*
X145569628Y-123730135D01*
X145568714Y-123731091D01*
X145567751Y-123731873D01*
X145566737Y-123732499D01*
X145565673Y-123732985D01*
X145564559Y-123733347D01*
X145563395Y-123733603D01*
X145562181Y-123733770D01*
X145560917Y-123733865D01*
X145558239Y-123733903D01*
X145552287Y-123733851D01*
X145550342Y-123732873D01*
X145547413Y-123729930D01*
X145538561Y-123718087D01*
X145525659Y-123698207D01*
X145508630Y-123670175D01*
X145461898Y-123589190D01*
X145397770Y-123474206D01*
X145227731Y-123166805D01*
X145061926Y-122869722D01*
X144935807Y-122645929D01*
X144884831Y-122558396D01*
X144929810Y-122749690D01*
X145041465Y-123206095D01*
X145153648Y-123665412D01*
X145187713Y-123807361D01*
X145200215Y-123862262D01*
X145200192Y-123862799D01*
X145200125Y-123863352D01*
X145200015Y-123863918D01*
X145199862Y-123864497D01*
X145199433Y-123865688D01*
X145198848Y-123866915D01*
X145198113Y-123868165D01*
X145197238Y-123869431D01*
X145196231Y-123870700D01*
X145195099Y-123871964D01*
X145193852Y-123873210D01*
X145192497Y-123874430D01*
X145191044Y-123875613D01*
X145189499Y-123876748D01*
X145187871Y-123877825D01*
X145186169Y-123878834D01*
X145184401Y-123879765D01*
X145182575Y-123880606D01*
X145179552Y-123881927D01*
X145176777Y-123882940D01*
X145174167Y-123883582D01*
X145171640Y-123883793D01*
X145170381Y-123883718D01*
X145169112Y-123883512D01*
X145167823Y-123883168D01*
X145166502Y-123882678D01*
X145165140Y-123882035D01*
X145163727Y-123881230D01*
X145160704Y-123879108D01*
X145157349Y-123876249D01*
X145153582Y-123872594D01*
X145149318Y-123868080D01*
X145144476Y-123862648D01*
X145132724Y-123848784D01*
X145117665Y-123830512D01*
X144916846Y-123588838D01*
X144677398Y-123303639D01*
X144462821Y-123050455D01*
X144336615Y-122904824D01*
X144317564Y-122883657D01*
X144327442Y-122908351D01*
X144596964Y-123503841D01*
X144856609Y-124074634D01*
X144839676Y-124087334D01*
X144837949Y-124088639D01*
X144836218Y-124089903D01*
X144834493Y-124091117D01*
X144832785Y-124092273D01*
X144831107Y-124093364D01*
X144829468Y-124094379D01*
X144827882Y-124095312D01*
X144826358Y-124096154D01*
X144824909Y-124096897D01*
X144823545Y-124097532D01*
X144822279Y-124098052D01*
X144821121Y-124098447D01*
X144820084Y-124098710D01*
X144819613Y-124098790D01*
X144819177Y-124098833D01*
X144818777Y-124098839D01*
X144818413Y-124098807D01*
X144818088Y-124098735D01*
X144817803Y-124098623D01*
X144813997Y-124096055D01*
X144805081Y-124089187D01*
X144774235Y-124064404D01*
X144729896Y-124027980D01*
X144676692Y-123983618D01*
X144439802Y-123787992D01*
X144183333Y-123578541D01*
X143963111Y-123400708D01*
X143834964Y-123299935D01*
X143807448Y-123278768D01*
X143821559Y-123299935D01*
X144190565Y-123827690D01*
X144440066Y-124187259D01*
X144516101Y-124297888D01*
X144536817Y-124328534D01*
X144544048Y-124339924D01*
X144544025Y-124340209D01*
X144543958Y-124340534D01*
X144543696Y-124341296D01*
X144543271Y-124342199D01*
X144542692Y-124343231D01*
X144541968Y-124344378D01*
X144541108Y-124345628D01*
X144540123Y-124346970D01*
X144539021Y-124348390D01*
X144537811Y-124349876D01*
X144536503Y-124351416D01*
X144535106Y-124352997D01*
X144533630Y-124354608D01*
X144532083Y-124356235D01*
X144530476Y-124357866D01*
X144528816Y-124359488D01*
X144527115Y-124361090D01*
X144510887Y-124376612D01*
X144472787Y-124354035D01*
X144259709Y-124234939D01*
X143951910Y-124068549D01*
X143648080Y-123907848D01*
X143528494Y-123846187D01*
X143446909Y-123805818D01*
X143398226Y-123782535D01*
X143415159Y-123801585D01*
X143858247Y-124262312D01*
X144023160Y-124433839D01*
X144157315Y-124574609D01*
X144246887Y-124670002D01*
X144270635Y-124696114D01*
X144276493Y-124702975D01*
X144278053Y-124705401D01*
X144092757Y-124643577D01*
X143655048Y-124492323D01*
X143402988Y-124405463D01*
X143211782Y-124340894D01*
X143142390Y-124318064D01*
X143092279Y-124302121D01*
X143062805Y-124293504D01*
X143056231Y-124292080D01*
X143055059Y-124292112D01*
X143055325Y-124292651D01*
X143151369Y-124362777D01*
X143345838Y-124499644D01*
X143601425Y-124677124D01*
X143880826Y-124869090D01*
X143926972Y-124900992D01*
X143970067Y-124931157D01*
X144009178Y-124958908D01*
X144043368Y-124983567D01*
X144071705Y-125004455D01*
X144093253Y-125020895D01*
X144101190Y-125027235D01*
X144107079Y-125032208D01*
X144110804Y-125035731D01*
X144111818Y-125036921D01*
X144112248Y-125037717D01*
X144112339Y-125039080D01*
X144112350Y-125040514D01*
X144112282Y-125042007D01*
X144112137Y-125043549D01*
X144111919Y-125045129D01*
X144111628Y-125046734D01*
X144111266Y-125048354D01*
X144110837Y-125049977D01*
X144110341Y-125051591D01*
X144109781Y-125053186D01*
X144109159Y-125054750D01*
X144108477Y-125056271D01*
X144107738Y-125057739D01*
X144106942Y-125059142D01*
X144106093Y-125060468D01*
X144105192Y-125061706D01*
X144099217Y-125064989D01*
X144083717Y-125065874D01*
X144052805Y-125063617D01*
X144000594Y-125057473D01*
X143808727Y-125030552D01*
X143461020Y-124979157D01*
X143011581Y-124912305D01*
X142822492Y-124884612D01*
X142861628Y-124905527D01*
X142977758Y-124960647D01*
X143347602Y-125130939D01*
X143745227Y-125310360D01*
X143983837Y-125413779D01*
X143986716Y-125414817D01*
X143989276Y-125415832D01*
X143991528Y-125416852D01*
X143993483Y-125417902D01*
X143994353Y-125418447D01*
X143995153Y-125419010D01*
X143995885Y-125419595D01*
X143996549Y-125420204D01*
X143997148Y-125420840D01*
X143997683Y-125421508D01*
X143998155Y-125422211D01*
X143998565Y-125422951D01*
X143998916Y-125423733D01*
X143999208Y-125424560D01*
X143999443Y-125425435D01*
X143999622Y-125426361D01*
X143999747Y-125427341D01*
X143999819Y-125428380D01*
X143999840Y-125429481D01*
X143999811Y-125430646D01*
X143999608Y-125433185D01*
X143999223Y-125436023D01*
X143998665Y-125439188D01*
X143997948Y-125442706D01*
X143997125Y-125447152D01*
X143996261Y-125451416D01*
X143995381Y-125455382D01*
X143994508Y-125458935D01*
X143994083Y-125460520D01*
X143993669Y-125461958D01*
X143993270Y-125463235D01*
X143992888Y-125464337D01*
X143992526Y-125465248D01*
X143992189Y-125465954D01*
X143992030Y-125466226D01*
X143991878Y-125466442D01*
X143991734Y-125466599D01*
X143991598Y-125466696D01*
X143365770Y-125490685D01*
X142915449Y-125507441D01*
X142771251Y-125513505D01*
X142709603Y-125516790D01*
X142699823Y-125518260D01*
X142696254Y-125518962D01*
X142693673Y-125519689D01*
X142692163Y-125520479D01*
X142691835Y-125520908D01*
X142691806Y-125521367D01*
X142692085Y-125521858D01*
X142692682Y-125522389D01*
X142694875Y-125523581D01*
X142698464Y-125524980D01*
X142703533Y-125526622D01*
X142718434Y-125530780D01*
X142740230Y-125536343D01*
X142769576Y-125543601D01*
X143314970Y-125674217D01*
X143826498Y-125794779D01*
X143958437Y-125825118D01*
X143958437Y-125847695D01*
X143958388Y-125849942D01*
X143958246Y-125852173D01*
X143958018Y-125854372D01*
X143957709Y-125856526D01*
X143957326Y-125858617D01*
X143956874Y-125860631D01*
X143956360Y-125862552D01*
X143955791Y-125864364D01*
X143955172Y-125866052D01*
X143954509Y-125867601D01*
X143953809Y-125868995D01*
X143953448Y-125869629D01*
X143953079Y-125870218D01*
X143952704Y-125870761D01*
X143952323Y-125871255D01*
X143951938Y-125871699D01*
X143951549Y-125872091D01*
X143951157Y-125872428D01*
X143950763Y-125872709D01*
X143950367Y-125872932D01*
X143949970Y-125873095D01*
X143756471Y-125917987D01*
X143303681Y-126020557D01*
X143022738Y-126084388D01*
X142914446Y-126109482D01*
X142827255Y-126130094D01*
X142760899Y-126146275D01*
X142715115Y-126158074D01*
X142689638Y-126165540D01*
X142684432Y-126167664D01*
X142683698Y-126168326D01*
X142684203Y-126168723D01*
X142708856Y-126172640D01*
X142757206Y-126177036D01*
X142930089Y-126187597D01*
X143616242Y-126218112D01*
X143683470Y-126220655D01*
X143743828Y-126222343D01*
X143798053Y-126223002D01*
X143846882Y-126222456D01*
X143891052Y-126220529D01*
X143931299Y-126217046D01*
X143968361Y-126211830D01*
X143985928Y-126208518D01*
X144002975Y-126204707D01*
X144019594Y-126200375D01*
X144035877Y-126195500D01*
X144051917Y-126190060D01*
X144067805Y-126184034D01*
X144099495Y-126170132D01*
X144131684Y-126153620D01*
X144165109Y-126134322D01*
X144200507Y-126112061D01*
X144238615Y-126086663D01*
X144280170Y-126057951D01*
X144603281Y-125831457D01*
X144869044Y-125641938D01*
X144971594Y-125567473D01*
X145049215Y-125509966D01*
X145098376Y-125471989D01*
X145111181Y-125461127D01*
X145115548Y-125456112D01*
X145115364Y-125450837D01*
X145114703Y-125446090D01*
X145113404Y-125441820D01*
X145111303Y-125437977D01*
X145108240Y-125434511D01*
X145104051Y-125431370D01*
X145098574Y-125428504D01*
X145091647Y-125425862D01*
X145083108Y-125423393D01*
X145072794Y-125421048D01*
X145060544Y-125418775D01*
X145046194Y-125416524D01*
X145010548Y-125411884D01*
X144964559Y-125406724D01*
X144912645Y-125400704D01*
X144869926Y-125395611D01*
X144853399Y-125393536D01*
X144840833Y-125391841D01*
X144832781Y-125390576D01*
X144830621Y-125390120D01*
X144829798Y-125389790D01*
X144829641Y-125389544D01*
X144829439Y-125389079D01*
X144828916Y-125387541D01*
X144828260Y-125385276D01*
X144827505Y-125382382D01*
X144826683Y-125378959D01*
X144825829Y-125375106D01*
X144824975Y-125370922D01*
X144824153Y-125366507D01*
X144819920Y-125345340D01*
X145168464Y-125207757D01*
X145249485Y-125175879D01*
X145319475Y-125147994D01*
X145378387Y-125124128D01*
X145426169Y-125104305D01*
X145462772Y-125088549D01*
X145476866Y-125082205D01*
X145488147Y-125076887D01*
X145496609Y-125072598D01*
X145502245Y-125069342D01*
X145504001Y-125068102D01*
X145505049Y-125067122D01*
X145505387Y-125066401D01*
X145505014Y-125065940D01*
X145499954Y-125064534D01*
X145489933Y-125062501D01*
X145457389Y-125056945D01*
X145412146Y-125050065D01*
X145358965Y-125042657D01*
X145291536Y-125033157D01*
X145228448Y-125023805D01*
X145170536Y-125014752D01*
X145118634Y-125006144D01*
X145073580Y-124998132D01*
X145036206Y-124990864D01*
X145007348Y-124984490D01*
X144996374Y-124981684D01*
X144987842Y-124979157D01*
X144984911Y-124978106D01*
X144981944Y-124976943D01*
X144978952Y-124975677D01*
X144975944Y-124974314D01*
X144969924Y-124971334D01*
X144963964Y-124968066D01*
X144958144Y-124964575D01*
X144952545Y-124960925D01*
X144947248Y-124957180D01*
X144942334Y-124953404D01*
X144937883Y-124949661D01*
X144933975Y-124946015D01*
X144932250Y-124944248D01*
X144930691Y-124942530D01*
X144929309Y-124940868D01*
X144928113Y-124939271D01*
X144927113Y-124937746D01*
X144926320Y-124936301D01*
X144925743Y-124934944D01*
X144925392Y-124933684D01*
X144925279Y-124932529D01*
X144925412Y-124931485D01*
X144925802Y-124930562D01*
X144926459Y-124929768D01*
X145105758Y-124888140D01*
X145531120Y-124793595D01*
X145764240Y-124742255D01*
X145955159Y-124699316D01*
X146084165Y-124669473D01*
X146119291Y-124660931D01*
X146131548Y-124657424D01*
X146131240Y-124656287D01*
X146130329Y-124655129D01*
X146126759Y-124652755D01*
X146120967Y-124650323D01*
X146113082Y-124647854D01*
X146091550Y-124642888D01*
X146063197Y-124638021D01*
X146029056Y-124633418D01*
X145990161Y-124629246D01*
X145947545Y-124625668D01*
X145902242Y-124622851D01*
X145856506Y-124620295D01*
X145814628Y-124617615D01*
X145776332Y-124614753D01*
X145741343Y-124611651D01*
X145709383Y-124608251D01*
X145680178Y-124604496D01*
X145653452Y-124600327D01*
X145628928Y-124595687D01*
X145606330Y-124590518D01*
X145585383Y-124584762D01*
X145565811Y-124578361D01*
X145547337Y-124571257D01*
X145529686Y-124563393D01*
X145512581Y-124554710D01*
X145495748Y-124545151D01*
X145478909Y-124534657D01*
X145471818Y-124530161D01*
X145465607Y-124526174D01*
X145460245Y-124522658D01*
X145455703Y-124519576D01*
X145453730Y-124518186D01*
X145451950Y-124516891D01*
X145450360Y-124515685D01*
X145448957Y-124514565D01*
X145447736Y-124513526D01*
X145446694Y-124512562D01*
X145445826Y-124511670D01*
X145445130Y-124510844D01*
X145444602Y-124510081D01*
X145444236Y-124509375D01*
X145444114Y-124509042D01*
X145444031Y-124508721D01*
X145443988Y-124508413D01*
X145443982Y-124508116D01*
X145444015Y-124507830D01*
X145444086Y-124507554D01*
X145444194Y-124507288D01*
X145444338Y-124507031D01*
X145444735Y-124506542D01*
X145445274Y-124506082D01*
X145445949Y-124505647D01*
X145446759Y-124505232D01*
X145447698Y-124504833D01*
X145448764Y-124504445D01*
X145449952Y-124504063D01*
X145451259Y-124503682D01*
X145454214Y-124502907D01*
X145460688Y-124501788D01*
X145472272Y-124500570D01*
X145508189Y-124497968D01*
X145556806Y-124495366D01*
X145612964Y-124493029D01*
X145664208Y-124491038D01*
X145709780Y-124488608D01*
X145751747Y-124485501D01*
X145792176Y-124481476D01*
X145833134Y-124476293D01*
X145876688Y-124469713D01*
X145924905Y-124461495D01*
X145979853Y-124451401D01*
X146031882Y-124441993D01*
X146080174Y-124434346D01*
X146125754Y-124428370D01*
X146169648Y-124423972D01*
X146212879Y-124421063D01*
X146256475Y-124419552D01*
X146301460Y-124419346D01*
X146348858Y-124420356D01*
X146379678Y-124421651D01*
X146409245Y-124423438D01*
X146437683Y-124425745D01*
X146465110Y-124428603D01*
X146491648Y-124432039D01*
X146517419Y-124436083D01*
X146542542Y-124440763D01*
X146567140Y-124446109D01*
X146591332Y-124452150D01*
X146615240Y-124458914D01*
X146638985Y-124466431D01*
X146662687Y-124474729D01*
X146686468Y-124483837D01*
X146710449Y-124493784D01*
X146734750Y-124504600D01*
X146759492Y-124516313D01*
X146780449Y-124526477D01*
X146798562Y-124535186D01*
X146818053Y-124544535D01*
X146818273Y-124544519D01*
X146818275Y-124544214D01*
X146817644Y-124542760D01*
X146813985Y-124536685D01*
X146807400Y-124526774D01*
X146798210Y-124513490D01*
X146773306Y-124478653D01*
X146741853Y-124435879D01*
X146659303Y-124325106D01*
X146697404Y-124330046D01*
X146723319Y-124333895D01*
X146752591Y-124339405D01*
X146783947Y-124346255D01*
X146816113Y-124354123D01*
X146847817Y-124362684D01*
X146877783Y-124371618D01*
X146904741Y-124380602D01*
X146916693Y-124385011D01*
X146927415Y-124389313D01*
X146942225Y-124395722D01*
X146957033Y-124402521D01*
X146971851Y-124409719D01*
X146986692Y-124417325D01*
X147001571Y-124425349D01*
X147016501Y-124433800D01*
X147031494Y-124442686D01*
X147046565Y-124452019D01*
X147076994Y-124472057D01*
X147107893Y-124493988D01*
X147139372Y-124517887D01*
X147171537Y-124543829D01*
X147189197Y-124558517D01*
X147205035Y-124571413D01*
X147219296Y-124582591D01*
X147232225Y-124592126D01*
X147244067Y-124600095D01*
X147249657Y-124603515D01*
X147255066Y-124606572D01*
X147260327Y-124609275D01*
X147265468Y-124611634D01*
X147270522Y-124613657D01*
X147275518Y-124615355D01*
X147280487Y-124616736D01*
X147285460Y-124617810D01*
X147290467Y-124618588D01*
X147295539Y-124619077D01*
X147300707Y-124619287D01*
X147306001Y-124619229D01*
X147311452Y-124618911D01*
X147317090Y-124618342D01*
X147329052Y-124616492D01*
X147342131Y-124613755D01*
X147356572Y-124610205D01*
X147372620Y-124605918D01*
X147402960Y-124598916D01*
X147443495Y-124591046D01*
X147489934Y-124582961D01*
X147537985Y-124575314D01*
X147583357Y-124568759D01*
X147621758Y-124563948D01*
X147648899Y-124561536D01*
X147656905Y-124561432D01*
X147659283Y-124561692D01*
X147660487Y-124562174D01*
X147660624Y-124562392D01*
X147660639Y-124562780D01*
X147660319Y-124564045D01*
X147659547Y-124565935D01*
X147658348Y-124568413D01*
X147654757Y-124574997D01*
X147649727Y-124583516D01*
X147643441Y-124593689D01*
X147636079Y-124605234D01*
X147627825Y-124617871D01*
X147618859Y-124631318D01*
X147609705Y-124645093D01*
X147600789Y-124659370D01*
X147592152Y-124674055D01*
X147583835Y-124689052D01*
X147575877Y-124704269D01*
X147568319Y-124719610D01*
X147561202Y-124734983D01*
X147554565Y-124750292D01*
X147548449Y-124765445D01*
X147542895Y-124780346D01*
X147537942Y-124794902D01*
X147533630Y-124809019D01*
X147530001Y-124822602D01*
X147527094Y-124835558D01*
X147524950Y-124847793D01*
X147523609Y-124859213D01*
X147523391Y-124870592D01*
X147524381Y-124885957D01*
X147526660Y-124905721D01*
X147530312Y-124930297D01*
X147535419Y-124960099D01*
X147542064Y-124995539D01*
X147560298Y-125084990D01*
X147601804Y-125279371D01*
X147649992Y-125498622D01*
X147696723Y-125706496D01*
X147733864Y-125866745D01*
X147762087Y-125984574D01*
X147750798Y-126028317D01*
X147748606Y-126036532D01*
X147746141Y-126044760D01*
X147740436Y-126061197D01*
X147733774Y-126077511D01*
X147726247Y-126093581D01*
X147717946Y-126109288D01*
X147708965Y-126124510D01*
X147699394Y-126139129D01*
X147689326Y-126153025D01*
X147678853Y-126166077D01*
X147668067Y-126178166D01*
X147657060Y-126189171D01*
X147645924Y-126198974D01*
X147640336Y-126203387D01*
X147634750Y-126207454D01*
X147629178Y-126211160D01*
X147623631Y-126214491D01*
X147618121Y-126217431D01*
X147612659Y-126219965D01*
X147607257Y-126222079D01*
X147601925Y-126223757D01*
X147592577Y-126226159D01*
X147583318Y-126228075D01*
X147574152Y-126229508D01*
X147565082Y-126230458D01*
X147556112Y-126230929D01*
X147547244Y-126230921D01*
X147538481Y-126230437D01*
X147529827Y-126229478D01*
X147521284Y-126228048D01*
X147512856Y-126226147D01*
X147504546Y-126223777D01*
X147496357Y-126220941D01*
X147488292Y-126217641D01*
X147480354Y-126213878D01*
X147472546Y-126209654D01*
X147464871Y-126204971D01*
X147457333Y-126199832D01*
X147449935Y-126194238D01*
X147442679Y-126188190D01*
X147435569Y-126181692D01*
X147428607Y-126174745D01*
X147421798Y-126167350D01*
X147415143Y-126159511D01*
X147408647Y-126151228D01*
X147402312Y-126142504D01*
X147396141Y-126133340D01*
X147390138Y-126123739D01*
X147384306Y-126113703D01*
X147373164Y-126092331D01*
X147362742Y-126069240D01*
X147352041Y-126044711D01*
X147340896Y-126021436D01*
X147328997Y-125999083D01*
X147316032Y-125977320D01*
X147301691Y-125955812D01*
X147285662Y-125934228D01*
X147267634Y-125912235D01*
X147247296Y-125889500D01*
X147224337Y-125865690D01*
X147198446Y-125840472D01*
X147169312Y-125813514D01*
X147136623Y-125784482D01*
X147059338Y-125718868D01*
X146964103Y-125640968D01*
X146820169Y-125523845D01*
X146777131Y-125547129D01*
X146745715Y-125564837D01*
X146715505Y-125583025D01*
X146686520Y-125601679D01*
X146658774Y-125620782D01*
X146632286Y-125640320D01*
X146607070Y-125660276D01*
X146583145Y-125680634D01*
X146560526Y-125701381D01*
X146539230Y-125722500D01*
X146519273Y-125743975D01*
X146500672Y-125765791D01*
X146483444Y-125787933D01*
X146467604Y-125810385D01*
X146453171Y-125833131D01*
X146440159Y-125856156D01*
X146428586Y-125879445D01*
X146417872Y-125904074D01*
X146408092Y-125931083D01*
X146398660Y-125963186D01*
X146388987Y-126003094D01*
X146378488Y-126053519D01*
X146366575Y-126117174D01*
X146336159Y-126295018D01*
X146304762Y-126480138D01*
X146294685Y-126538798D01*
X146290298Y-126563129D01*
X146290130Y-126563736D01*
X146290023Y-126564368D01*
X146289977Y-126565021D01*
X146289989Y-126565696D01*
X146290059Y-126566391D01*
X146290186Y-126567105D01*
X146290369Y-126567837D01*
X146290606Y-126568586D01*
X146291242Y-126570129D01*
X146292084Y-126571724D01*
X146293124Y-126573362D01*
X146294355Y-126575035D01*
X146295767Y-126576733D01*
X146297353Y-126578446D01*
X146299105Y-126580165D01*
X146301013Y-126581881D01*
X146303071Y-126583585D01*
X146305268Y-126585267D01*
X146307599Y-126586918D01*
X146310053Y-126588529D01*
X146322857Y-126596253D01*
X146336153Y-126603287D01*
X146349970Y-126609636D01*
X146364337Y-126615307D01*
X146379282Y-126620304D01*
X146394835Y-126624632D01*
X146411025Y-126628297D01*
X146427881Y-126631303D01*
X146445431Y-126633657D01*
X146463704Y-126635362D01*
X146482730Y-126636424D01*
X146502538Y-126636849D01*
X146523155Y-126636641D01*
X146544612Y-126635806D01*
X146566937Y-126634348D01*
X146590159Y-126632274D01*
X146609431Y-126630462D01*
X146630299Y-126628757D01*
X146674208Y-126625835D01*
X146716663Y-126623840D01*
X146735711Y-126623293D01*
X146752436Y-126623101D01*
X146775662Y-126623201D01*
X146785442Y-126623362D01*
X146794175Y-126623631D01*
X146801989Y-126624032D01*
X146809016Y-126624590D01*
X146815386Y-126625330D01*
X146821228Y-126626276D01*
X146826674Y-126627455D01*
X146831853Y-126628889D01*
X146836896Y-126630605D01*
X146841932Y-126632626D01*
X146847093Y-126634979D01*
X146852507Y-126637686D01*
X146858306Y-126640774D01*
X146864620Y-126644268D01*
X146877816Y-126652090D01*
X146890151Y-126660475D01*
X146901624Y-126669425D01*
X146912234Y-126678940D01*
X146921980Y-126689021D01*
X146930861Y-126699669D01*
X146938876Y-126710886D01*
X146946024Y-126722673D01*
X146952303Y-126735030D01*
X146957714Y-126747959D01*
X146962254Y-126761460D01*
X146965922Y-126775534D01*
X146968719Y-126790184D01*
X146970642Y-126805409D01*
X146971691Y-126821210D01*
X146971864Y-126837590D01*
X146970996Y-126853373D01*
X146968094Y-126873364D01*
X146962712Y-126899391D01*
X146954402Y-126933281D01*
X146942719Y-126976862D01*
X146927216Y-127031960D01*
X146882964Y-127184018D01*
X146847422Y-127301857D01*
X146816113Y-127401770D01*
X146803121Y-127441718D01*
X146792477Y-127473241D01*
X146784611Y-127495023D01*
X146781854Y-127501851D01*
X146779953Y-127505751D01*
X146773710Y-127514031D01*
X146762552Y-127526813D01*
X146728051Y-127563386D01*
X146681578Y-127610477D01*
X146628259Y-127663090D01*
X146573220Y-127716233D01*
X146521588Y-127764910D01*
X146478488Y-127804129D01*
X146461740Y-127818631D01*
X146449048Y-127828895D01*
X146438209Y-127836952D01*
X146427628Y-127844467D01*
X146417261Y-127851462D01*
X146407067Y-127857956D01*
X146397006Y-127863970D01*
X146387036Y-127869526D01*
X146377116Y-127874643D01*
X146367203Y-127879343D01*
X146357258Y-127883646D01*
X146347238Y-127887573D01*
X146337103Y-127891144D01*
X146326810Y-127894380D01*
X146316319Y-127897302D01*
X146305588Y-127899931D01*
X146294576Y-127902286D01*
X146283242Y-127904390D01*
X146264846Y-127907253D01*
X146248225Y-127909174D01*
X146233284Y-127910070D01*
X146226414Y-127910108D01*
X146219930Y-127909858D01*
X146213818Y-127909311D01*
X146208068Y-127908455D01*
X146202667Y-127907281D01*
X146197604Y-127905779D01*
X146192867Y-127903938D01*
X146188445Y-127901747D01*
X146184325Y-127899197D01*
X146180496Y-127896276D01*
X146176946Y-127892975D01*
X146173663Y-127889284D01*
X146170636Y-127885192D01*
X146167852Y-127880688D01*
X146165301Y-127875762D01*
X146162970Y-127870405D01*
X146160847Y-127864605D01*
X146158921Y-127858353D01*
X146157180Y-127851637D01*
X146155613Y-127844448D01*
X146152950Y-127828609D01*
X146150840Y-127810753D01*
X146149187Y-127790796D01*
X146147659Y-127765047D01*
X146147087Y-127741436D01*
X146147178Y-127730398D01*
X146147531Y-127719853D01*
X146148154Y-127709787D01*
X146149054Y-127700187D01*
X146150240Y-127691039D01*
X146151719Y-127682328D01*
X146153498Y-127674041D01*
X146155586Y-127666165D01*
X146157991Y-127658684D01*
X146160719Y-127651587D01*
X146163779Y-127644858D01*
X146167178Y-127638484D01*
X146170925Y-127632451D01*
X146175027Y-127626745D01*
X146179492Y-127621353D01*
X146184327Y-127616260D01*
X146189540Y-127611453D01*
X146195140Y-127606918D01*
X146201133Y-127602642D01*
X146207528Y-127598609D01*
X146214332Y-127594807D01*
X146221553Y-127591222D01*
X146229198Y-127587839D01*
X146237277Y-127584645D01*
X146245795Y-127581627D01*
X146254762Y-127578770D01*
X146274070Y-127573485D01*
X146304069Y-127565558D01*
X146331694Y-127557329D01*
X146357054Y-127548711D01*
X146380256Y-127539618D01*
X146391082Y-127534866D01*
X146401408Y-127529963D01*
X146411248Y-127524897D01*
X146420616Y-127519658D01*
X146429525Y-127514236D01*
X146437989Y-127508618D01*
X146446021Y-127502795D01*
X146453634Y-127496755D01*
X146460842Y-127490488D01*
X146467658Y-127483983D01*
X146474096Y-127477229D01*
X146480169Y-127470214D01*
X146485891Y-127462929D01*
X146491275Y-127455363D01*
X146496334Y-127447504D01*
X146501083Y-127439341D01*
X146505533Y-127430864D01*
X146509699Y-127422063D01*
X146513595Y-127412925D01*
X146517233Y-127403440D01*
X146523791Y-127383388D01*
X146529481Y-127361818D01*
X146530636Y-127357227D01*
X146531975Y-127352470D01*
X146533484Y-127347580D01*
X146535148Y-127342592D01*
X146536952Y-127337537D01*
X146538882Y-127332449D01*
X146540924Y-127327362D01*
X146543063Y-127322307D01*
X146545285Y-127317318D01*
X146547575Y-127312429D01*
X146549919Y-127307672D01*
X146552301Y-127303081D01*
X146554709Y-127298687D01*
X146557127Y-127294526D01*
X146559541Y-127290628D01*
X146561936Y-127287029D01*
X146564998Y-127282642D01*
X146568103Y-127277664D01*
X146574493Y-127265818D01*
X146581197Y-127251261D01*
X146588307Y-127233760D01*
X146595912Y-127213084D01*
X146604105Y-127189001D01*
X146612975Y-127161280D01*
X146622614Y-127129690D01*
X146637497Y-127080775D01*
X146649602Y-127040526D01*
X146657738Y-127013108D01*
X146660714Y-127002690D01*
X146660601Y-127002493D01*
X146660268Y-127002173D01*
X146658995Y-127001202D01*
X146656994Y-126999850D01*
X146654364Y-126998192D01*
X146651206Y-126996303D01*
X146647617Y-126994257D01*
X146643698Y-126992128D01*
X146639548Y-126989990D01*
X146632146Y-126986373D01*
X146628793Y-126985124D01*
X146625448Y-126984335D01*
X146621941Y-126984071D01*
X146618104Y-126984397D01*
X146613769Y-126985378D01*
X146608768Y-126987080D01*
X146602931Y-126989567D01*
X146596091Y-126992905D01*
X146588079Y-126997158D01*
X146578727Y-127002392D01*
X146555326Y-127016064D01*
X146524543Y-127034440D01*
X146478234Y-127062024D01*
X146441540Y-127083664D01*
X146412239Y-127100557D01*
X146388105Y-127113903D01*
X146377281Y-127119621D01*
X146366915Y-127124902D01*
X146346445Y-127134750D01*
X146324469Y-127144649D01*
X146298764Y-127155796D01*
X146271002Y-127167200D01*
X146243483Y-127177608D01*
X146216121Y-127187031D01*
X146188830Y-127195483D01*
X146161522Y-127202976D01*
X146134111Y-127209523D01*
X146106510Y-127215135D01*
X146078631Y-127219825D01*
X146050389Y-127223605D01*
X146021696Y-127226489D01*
X145992466Y-127228488D01*
X145962611Y-127229614D01*
X145932046Y-127229881D01*
X145900682Y-127229300D01*
X145868434Y-127227884D01*
X145835215Y-127225645D01*
X145799514Y-127223136D01*
X145770799Y-127221445D01*
X145758600Y-127220915D01*
X145747592Y-127220598D01*
X145737590Y-127220498D01*
X145728411Y-127220619D01*
X145719868Y-127220962D01*
X145711776Y-127221532D01*
X145703952Y-127222332D01*
X145696209Y-127223364D01*
X145688362Y-127224632D01*
X145680228Y-127226138D01*
X145662353Y-127229879D01*
X145635367Y-127236295D01*
X145605479Y-127244696D01*
X145571506Y-127255477D01*
X145532267Y-127269037D01*
X145486578Y-127285772D01*
X145433257Y-127306079D01*
X145298992Y-127358996D01*
X145216132Y-127391774D01*
X145145302Y-127418152D01*
X145113383Y-127429195D01*
X145083253Y-127438941D01*
X145054506Y-127447493D01*
X145026736Y-127454951D01*
X144999536Y-127461417D01*
X144972500Y-127466992D01*
X144945223Y-127471778D01*
X144917298Y-127475875D01*
X144888318Y-127479386D01*
X144857878Y-127482410D01*
X144790992Y-127487407D01*
X144744981Y-127490709D01*
X144723823Y-127492684D01*
X144703757Y-127494903D01*
X144684679Y-127497387D01*
X144666485Y-127500156D01*
X144649070Y-127503231D01*
X144632331Y-127506633D01*
X144616161Y-127510382D01*
X144600458Y-127514499D01*
X144585116Y-127519004D01*
X144570032Y-127523919D01*
X144555101Y-127529264D01*
X144540218Y-127535059D01*
X144525280Y-127541326D01*
X144510181Y-127548084D01*
X144490144Y-127557853D01*
X144470270Y-127568617D01*
X144450591Y-127580349D01*
X144431137Y-127593019D01*
X144411939Y-127606599D01*
X144393029Y-127621060D01*
X144374436Y-127636372D01*
X144356194Y-127652507D01*
X144338331Y-127669435D01*
X144320880Y-127687129D01*
X144303871Y-127705558D01*
X144287336Y-127724694D01*
X144271305Y-127744508D01*
X144255809Y-127764971D01*
X144240880Y-127786055D01*
X144226548Y-127807729D01*
X144145530Y-127933461D01*
X144076882Y-128037299D01*
X144044612Y-128084832D01*
X144012334Y-128131480D01*
X143943620Y-128228241D01*
X143893388Y-128298005D01*
X143873491Y-128325658D01*
X143856749Y-128349001D01*
X143842916Y-128368416D01*
X143831751Y-128384287D01*
X143827092Y-128391012D01*
X143823008Y-128396995D01*
X143819469Y-128402282D01*
X143816444Y-128406922D01*
X143813902Y-128410963D01*
X143811814Y-128414452D01*
X143810149Y-128417437D01*
X143808875Y-128419966D01*
X143807964Y-128422087D01*
X143807634Y-128423010D01*
X143807384Y-128423848D01*
X143807208Y-128424608D01*
X143807104Y-128425296D01*
X143807068Y-128425917D01*
X143807095Y-128426479D01*
X143807182Y-128426986D01*
X143807326Y-128427445D01*
X143807521Y-128427861D01*
X143807765Y-128428242D01*
X143808054Y-128428591D01*
X143808384Y-128428917D01*
X143809151Y-128429519D01*
X143811008Y-128430692D01*
X143812037Y-128431360D01*
X143813092Y-128432145D01*
X143815674Y-128432393D01*
X143820713Y-128430322D01*
X143839396Y-128418221D01*
X143871607Y-128393834D01*
X143919808Y-128355151D01*
X144074038Y-128226862D01*
X144321798Y-128017279D01*
X144484486Y-127879391D01*
X144550618Y-127823444D01*
X144607570Y-127775395D01*
X144656063Y-127734667D01*
X144677363Y-127716868D01*
X144696820Y-127700684D01*
X144714522Y-127686043D01*
X144730561Y-127672872D01*
X144745026Y-127661100D01*
X144758007Y-127650655D01*
X144769596Y-127641464D01*
X144779881Y-127633456D01*
X144788954Y-127626559D01*
X144796904Y-127620700D01*
X144803821Y-127615809D01*
X144806921Y-127613703D01*
X144809796Y-127611812D01*
X144812459Y-127610127D01*
X144814919Y-127608638D01*
X144817190Y-127607338D01*
X144819281Y-127606216D01*
X144821203Y-127605263D01*
X144822970Y-127604472D01*
X144824591Y-127603832D01*
X144826077Y-127603335D01*
X144827441Y-127602972D01*
X144828694Y-127602734D01*
X144829846Y-127602611D01*
X144830908Y-127602596D01*
X144831894Y-127602678D01*
X144832812Y-127602848D01*
X144833676Y-127603099D01*
X144834495Y-127603421D01*
X144835282Y-127603804D01*
X144836047Y-127604240D01*
X144837559Y-127605235D01*
X144839261Y-127606324D01*
X144840920Y-127607468D01*
X144842528Y-127608656D01*
X144844074Y-127609876D01*
X144845551Y-127611116D01*
X144846948Y-127612366D01*
X144848255Y-127613614D01*
X144849465Y-127614848D01*
X144850567Y-127616057D01*
X144851553Y-127617231D01*
X144852412Y-127618356D01*
X144853136Y-127619423D01*
X144853715Y-127620420D01*
X144853948Y-127620888D01*
X144854141Y-127621334D01*
X144854293Y-127621758D01*
X144854403Y-127622156D01*
X144854469Y-127622529D01*
X144854492Y-127622874D01*
X144774852Y-127802349D01*
X144583559Y-128224713D01*
X144456228Y-128506284D01*
X144409852Y-128610016D01*
X144374009Y-128691349D01*
X144347956Y-128752011D01*
X144330948Y-128793731D01*
X144325604Y-128808028D01*
X144322242Y-128818237D01*
X144320769Y-128824574D01*
X144320712Y-128826359D01*
X144321092Y-128827256D01*
X144323576Y-128826637D01*
X144328726Y-128822568D01*
X144347506Y-128803510D01*
X144378391Y-128768941D01*
X144422339Y-128717719D01*
X144553264Y-128560755D01*
X144747953Y-128323490D01*
X144910694Y-128124799D01*
X145045521Y-127962158D01*
X145098044Y-127899585D01*
X145138280Y-127852300D01*
X145164460Y-127822396D01*
X145171726Y-127814614D01*
X145174814Y-127811962D01*
X145175788Y-127812011D01*
X145176851Y-127812154D01*
X145177993Y-127812386D01*
X145179202Y-127812701D01*
X145180470Y-127813095D01*
X145181785Y-127813562D01*
X145183137Y-127814098D01*
X145184516Y-127814697D01*
X145185912Y-127815353D01*
X145187313Y-127816062D01*
X145188711Y-127816819D01*
X145190094Y-127817618D01*
X145191453Y-127818454D01*
X145192776Y-127819323D01*
X145194054Y-127820218D01*
X145195276Y-127821135D01*
X145197373Y-127828792D01*
X145195121Y-127850911D01*
X145170758Y-127968331D01*
X145108558Y-128232992D01*
X144994898Y-128704491D01*
X144844614Y-129322910D01*
X144781115Y-129581496D01*
X144780070Y-129581297D01*
X144777517Y-129580201D01*
X144768205Y-129575499D01*
X144734989Y-129557330D01*
X144686559Y-129529902D01*
X144628009Y-129496123D01*
X144514436Y-129431576D01*
X144397292Y-129366566D01*
X144286498Y-129306715D01*
X144191976Y-129257645D01*
X144161257Y-129241519D01*
X144148909Y-129235256D01*
X144137913Y-129230371D01*
X144127776Y-129227000D01*
X144122877Y-129225923D01*
X144118008Y-129225275D01*
X144113108Y-129225073D01*
X144108116Y-129225333D01*
X144102970Y-129226072D01*
X144097608Y-129227307D01*
X144091969Y-129229054D01*
X144085991Y-129231331D01*
X144072775Y-129237540D01*
X144057467Y-129246068D01*
X144039576Y-129257050D01*
X143994073Y-129286912D01*
X143932331Y-129328201D01*
X143845437Y-129386189D01*
X143733012Y-129462433D01*
X143489242Y-129629473D01*
X143340134Y-129732870D01*
X143280174Y-129774333D01*
X143228903Y-129809611D01*
X143185541Y-129839183D01*
X143166581Y-129851980D01*
X143149306Y-129863530D01*
X143133618Y-129873894D01*
X143119420Y-129883132D01*
X143106613Y-129891302D01*
X143095101Y-129898466D01*
X143084786Y-129904684D01*
X143075570Y-129910014D01*
X143067355Y-129914518D01*
X143060045Y-129918255D01*
X143053542Y-129921285D01*
X143047748Y-129923668D01*
X143042565Y-129925464D01*
X143037896Y-129926733D01*
X143035724Y-129927188D01*
X143033644Y-129927535D01*
X143029711Y-129927929D01*
X143025999Y-129927976D01*
X143022411Y-129927736D01*
X143018850Y-129927269D01*
X143015217Y-129926634D01*
X143007348Y-129925102D01*
X143002597Y-129923620D01*
X142996527Y-129920489D01*
X142978729Y-129907650D01*
X142950545Y-129883318D01*
X142908570Y-129844227D01*
X142769620Y-129708705D01*
X142534626Y-129474957D01*
X142359030Y-129298843D01*
X142210952Y-129149254D01*
X142106000Y-129041867D01*
X142074576Y-129008898D01*
X142059786Y-128992357D01*
X142031564Y-128956373D01*
X142049203Y-128921096D01*
X142072542Y-128880526D01*
X142127961Y-128796036D01*
X142244367Y-128625027D01*
X142450664Y-128324901D01*
X142560599Y-128164531D01*
X142652277Y-128029362D01*
X142716174Y-127933483D01*
X142734728Y-127904681D01*
X142742764Y-127890985D01*
X142746597Y-127880765D01*
X142749579Y-127870547D01*
X142751637Y-127860033D01*
X142752697Y-127848927D01*
X142752687Y-127836932D01*
X142751533Y-127823751D01*
X142749161Y-127809089D01*
X142745498Y-127792648D01*
X142740471Y-127774131D01*
X142734007Y-127753243D01*
X142716471Y-127703163D01*
X142692305Y-127640037D01*
X142660920Y-127561490D01*
X142576253Y-127351764D01*
X142493703Y-127145213D01*
X142450426Y-127036175D01*
X142432847Y-126992132D01*
X142417625Y-126954349D01*
X142404499Y-126922283D01*
X142393207Y-126895392D01*
X142388168Y-126883718D01*
X142383489Y-126873133D01*
X142379138Y-126863572D01*
X142375082Y-126854964D01*
X142371288Y-126847244D01*
X142367725Y-126840343D01*
X142364359Y-126834192D01*
X142361157Y-126828725D01*
X142358087Y-126823874D01*
X142355116Y-126819570D01*
X142352211Y-126815746D01*
X142349340Y-126812333D01*
X142346470Y-126809265D01*
X142343569Y-126806474D01*
X142340603Y-126803891D01*
X142337540Y-126801448D01*
X142334347Y-126799079D01*
X142330992Y-126796714D01*
X142323664Y-126791729D01*
X142302126Y-126783066D01*
X142257452Y-126771113D01*
X142091360Y-126735814D01*
X141810703Y-126682787D01*
X141400798Y-126608990D01*
X141309736Y-126592702D01*
X141239170Y-126579886D01*
X141185853Y-126569848D01*
X141164646Y-126565654D01*
X141146533Y-126561894D01*
X141131107Y-126558482D01*
X141117962Y-126555329D01*
X141106692Y-126552351D01*
X141096891Y-126549459D01*
X141088152Y-126546567D01*
X141080069Y-126543589D01*
X141072236Y-126540436D01*
X141064248Y-126537023D01*
X141023325Y-126518679D01*
X141023325Y-125889323D01*
X141023689Y-125640064D01*
X141024648Y-125426126D01*
X141026004Y-125270397D01*
X141027559Y-125195762D01*
X141032498Y-125131557D01*
X141136920Y-125106157D01*
X141194577Y-125093567D01*
X141273798Y-125077405D01*
X141364131Y-125059921D01*
X141455126Y-125043362D01*
X141813735Y-124978242D01*
X142088802Y-124926152D01*
X142191721Y-124905676D01*
X142269811Y-124889276D01*
X142321756Y-124877225D01*
X142337513Y-124872915D01*
X142346242Y-124869796D01*
X142353549Y-124865804D01*
X142360446Y-124861413D01*
X142367018Y-124856486D01*
X142373351Y-124850889D01*
X142379531Y-124844485D01*
X142385644Y-124837140D01*
X142391776Y-124828718D01*
X142398012Y-124819084D01*
X142404439Y-124808102D01*
X142411141Y-124795637D01*
X142418205Y-124781553D01*
X142425716Y-124765715D01*
X142442425Y-124728237D01*
X142461953Y-124682118D01*
X142487419Y-124621076D01*
X142520691Y-124543035D01*
X142593186Y-124375907D01*
X142654415Y-124234807D01*
X142712602Y-124096418D01*
X142760469Y-123978536D01*
X142778260Y-123932844D01*
X142790742Y-123898952D01*
X142803442Y-123862262D01*
X142766048Y-123803702D01*
X142704290Y-123708705D01*
X142627582Y-123594063D01*
X142533677Y-123456535D01*
X142420325Y-123292879D01*
X142303159Y-123123998D01*
X142214832Y-122994870D01*
X142145291Y-122890745D01*
X142084481Y-122796873D01*
X142032976Y-122716440D01*
X142054848Y-122680457D01*
X142100019Y-122629828D01*
X142204018Y-122521222D01*
X142510549Y-122208793D01*
X142818535Y-121900598D01*
X142924353Y-121797283D01*
X142972070Y-121754063D01*
X142976396Y-121752054D01*
X142981379Y-121750265D01*
X142986930Y-121748698D01*
X142992961Y-121747360D01*
X142999385Y-121746252D01*
X143006115Y-121745381D01*
X143013061Y-121744749D01*
X143020136Y-121744361D01*
X143027253Y-121744221D01*
X143034323Y-121744333D01*
X143041259Y-121744702D01*
X143047972Y-121745331D01*
X143054376Y-121746225D01*
X143060382Y-121747387D01*
X143065902Y-121748823D01*
X143070848Y-121750535D01*
X143521433Y-122055511D01*
X144108014Y-122458912D01*
X144113909Y-122462958D01*
X144119455Y-122466643D01*
X144124699Y-122469984D01*
X144129688Y-122473001D01*
X144134471Y-122475712D01*
X144139095Y-122478136D01*
X144143607Y-122480291D01*
X144148055Y-122482196D01*
X144152486Y-122483869D01*
X144156949Y-122485329D01*
X144161490Y-122486595D01*
X144166157Y-122487686D01*
X144170997Y-122488619D01*
X144176059Y-122489414D01*
X144181390Y-122490088D01*
X144187037Y-122490662D01*
X144206338Y-122491570D01*
X144215702Y-122491420D01*
X144225159Y-122490784D01*
X144234922Y-122489597D01*
X144245204Y-122487797D01*
X144256217Y-122485322D01*
X144268175Y-122482107D01*
X144281291Y-122478091D01*
X144295778Y-122473209D01*
X144329713Y-122460599D01*
X144371685Y-122443772D01*
X144423398Y-122422223D01*
X144493446Y-122392623D01*
X144587439Y-122353696D01*
X144798048Y-122267706D01*
X144988405Y-122190151D01*
X145046107Y-122166541D01*
X145067539Y-122157692D01*
X145084768Y-122150496D01*
X145098351Y-122144714D01*
X145108844Y-122140107D01*
X145113106Y-122138170D01*
X145116805Y-122136437D01*
X145120010Y-122134878D01*
X145122791Y-122133464D01*
X145125217Y-122132164D01*
X145127359Y-122130950D01*
X145129285Y-122129790D01*
X145131066Y-122128656D01*
X145134469Y-122126343D01*
X145138125Y-122123773D01*
X145140032Y-122122313D01*
X145142038Y-122120593D01*
X145144124Y-122118632D01*
X145146272Y-122116453D01*
X145148467Y-122114075D01*
X145150689Y-122111520D01*
X145152922Y-122108807D01*
X145155147Y-122105958D01*
X145157348Y-122102993D01*
X145159506Y-122099933D01*
X145161604Y-122096799D01*
X145163625Y-122093611D01*
X145165550Y-122090390D01*
X145167363Y-122087156D01*
X145169046Y-122083931D01*
X145170581Y-122080734D01*
X145181415Y-122037937D01*
X145202618Y-121938245D01*
X145265478Y-121622917D01*
X145337864Y-121244221D01*
X145398476Y-120911629D01*
X145402620Y-120887394D01*
X145407020Y-120863266D01*
X145411535Y-120839882D01*
X145416026Y-120817878D01*
X145420352Y-120797893D01*
X145424372Y-120780561D01*
X145427945Y-120766520D01*
X145430931Y-120756407D01*
X145443631Y-120717601D01*
X145605909Y-120713368D01*
X145915273Y-120710248D01*
X146321872Y-120711692D01*
G37*
%TD*%
%LPC*%
D13*
%TO.C,REF\u002A\u002A*%
X108530000Y-130910000D03*
%TD*%
%TO.C,REF\u002A\u002A*%
X108530000Y-123290000D03*
%TD*%
%TO.C,REF\u002A\u002A*%
X108530000Y-128370000D03*
%TD*%
D14*
%TO.C,REF\u002A\u002A*%
X108730000Y-134530000D03*
%TD*%
D13*
%TO.C,REF\u002A\u002A*%
X183714000Y-123290000D03*
%TD*%
D14*
%TO.C,REF\u002A\u002A*%
X183530000Y-119730000D03*
%TD*%
D13*
%TO.C,REF\u002A\u002A*%
X183714000Y-130910000D03*
%TD*%
%TO.C,REF\u002A\u002A*%
X183714000Y-128370000D03*
%TD*%
%TO.C,REF\u002A\u002A*%
X183714000Y-125830000D03*
%TD*%
D14*
%TO.C,REF\u002A\u002A*%
X108730000Y-119730000D03*
%TD*%
D13*
%TO.C,REF\u002A\u002A*%
X108530000Y-125830000D03*
%TD*%
D14*
%TO.C,REF\u002A\u002A*%
X183530000Y-134530000D03*
%TD*%
D15*
X162632000Y-130910000D03*
X165172000Y-130910000D03*
X167712000Y-130910000D03*
X180412000Y-130910000D03*
X132152000Y-128370000D03*
X111832000Y-130910000D03*
X114372000Y-128370000D03*
X137232000Y-128370000D03*
X142312000Y-128370000D03*
X157552000Y-120750000D03*
X160092000Y-128370000D03*
X139772000Y-133450000D03*
X142312000Y-133450000D03*
X116912000Y-133450000D03*
X127072000Y-128370000D03*
X144852000Y-133450000D03*
X147392000Y-133450000D03*
X160092000Y-120750000D03*
X132152000Y-130910000D03*
X144852000Y-120750000D03*
X111832000Y-128370000D03*
X121992000Y-125830000D03*
X129612000Y-125830000D03*
X124532000Y-128370000D03*
X111832000Y-125830000D03*
X155012000Y-123290000D03*
X147392000Y-128370000D03*
X160092000Y-133450000D03*
X157552000Y-125830000D03*
X162632000Y-133450000D03*
X165172000Y-133450000D03*
X167712000Y-133450000D03*
X180412000Y-133450000D03*
X167712000Y-125830000D03*
X121992000Y-120750000D03*
X132152000Y-123290000D03*
X121992000Y-133450000D03*
X124532000Y-123290000D03*
X129612000Y-120750000D03*
X160092000Y-130910000D03*
X111832000Y-133450000D03*
X149932000Y-130910000D03*
X127072000Y-125830000D03*
X124532000Y-120750000D03*
X147392000Y-120750000D03*
X114372000Y-133450000D03*
X165172000Y-123290000D03*
X165172000Y-125830000D03*
X167712000Y-120750000D03*
X180412000Y-120750000D03*
X162632000Y-128370000D03*
X165172000Y-128370000D03*
X162632000Y-120750000D03*
X165172000Y-120750000D03*
X167712000Y-123290000D03*
X139772000Y-128370000D03*
X121992000Y-130910000D03*
X124532000Y-130910000D03*
X160092000Y-125830000D03*
X157552000Y-130910000D03*
X155012000Y-120750000D03*
X114372000Y-130910000D03*
X127072000Y-123290000D03*
X132152000Y-120750000D03*
X121992000Y-123290000D03*
X152472000Y-123290000D03*
X119452000Y-120750000D03*
X149932000Y-120750000D03*
X152472000Y-128370000D03*
X139772000Y-130910000D03*
X142312000Y-130910000D03*
X144852000Y-130910000D03*
X147392000Y-130910000D03*
X144852000Y-128370000D03*
X119452000Y-125830000D03*
X144852000Y-123290000D03*
X134692000Y-128370000D03*
X129612000Y-128370000D03*
X137232000Y-125830000D03*
X127072000Y-133450000D03*
X137232000Y-120750000D03*
X111832000Y-123290000D03*
X114372000Y-123290000D03*
X147392000Y-125830000D03*
X157552000Y-123290000D03*
X147392000Y-123290000D03*
X149932000Y-123290000D03*
X152472000Y-125830000D03*
X134692000Y-123290000D03*
X127072000Y-120750000D03*
X116912000Y-128370000D03*
X152472000Y-130910000D03*
X155012000Y-130910000D03*
X149932000Y-128370000D03*
X139772000Y-120750000D03*
X132152000Y-125830000D03*
X119452000Y-123290000D03*
X144852000Y-125830000D03*
X116912000Y-123290000D03*
X134692000Y-125830000D03*
X119452000Y-128370000D03*
X121992000Y-128370000D03*
X134692000Y-130910000D03*
X137232000Y-130910000D03*
X157552000Y-128370000D03*
X155012000Y-125830000D03*
X139772000Y-123290000D03*
X162632000Y-123290000D03*
X111832000Y-120750000D03*
X180412000Y-123290000D03*
X167712000Y-128370000D03*
X180412000Y-128370000D03*
X180412000Y-125830000D03*
X162632000Y-125830000D03*
X134692000Y-120750000D03*
X124532000Y-125830000D03*
X137232000Y-123290000D03*
X157552000Y-133450000D03*
X116912000Y-120750000D03*
X116912000Y-130910000D03*
X119452000Y-130910000D03*
X149932000Y-133450000D03*
X152472000Y-133450000D03*
X155012000Y-133450000D03*
X129612000Y-133450000D03*
X132152000Y-133450000D03*
X124532000Y-133450000D03*
X134692000Y-133450000D03*
X137232000Y-133450000D03*
X119452000Y-133450000D03*
X152472000Y-120750000D03*
X139772000Y-125830000D03*
X142312000Y-125830000D03*
X114372000Y-125830000D03*
X116912000Y-125830000D03*
X160092000Y-123290000D03*
X142312000Y-123290000D03*
X114372000Y-120750000D03*
X149932000Y-125830000D03*
X127072000Y-130910000D03*
X129612000Y-130910000D03*
X155012000Y-128370000D03*
X142312000Y-120750000D03*
X129612000Y-123290000D03*
X170252000Y-130910000D03*
X172792000Y-130910000D03*
X175332000Y-130910000D03*
X177872000Y-130910000D03*
X170252000Y-133450000D03*
X172792000Y-133450000D03*
X175332000Y-133450000D03*
X177872000Y-133450000D03*
X170252000Y-125830000D03*
X172792000Y-125830000D03*
X175332000Y-125830000D03*
X177872000Y-125830000D03*
X170252000Y-120750000D03*
X172792000Y-120750000D03*
X175332000Y-120750000D03*
X177872000Y-120750000D03*
X170252000Y-123290000D03*
X172792000Y-123290000D03*
X175332000Y-123290000D03*
X177872000Y-123290000D03*
X170252000Y-128370000D03*
X172792000Y-128370000D03*
X175332000Y-128370000D03*
X177872000Y-128370000D03*
%LPD*%
M02*
