%TF.GenerationSoftware,KiCad,Pcbnew,9.0.1*%
%TF.CreationDate,2025-05-06T23:45:29-04:00*%
%TF.ProjectId,classic-protoboard_6x28,636c6173-7369-4632-9d70-726f746f626f,rev?*%
%TF.SameCoordinates,Original*%
%TF.FileFunction,Legend,Bot*%
%TF.FilePolarity,Positive*%
%FSLAX46Y46*%
G04 Gerber Fmt 4.6, Leading zero omitted, Abs format (unit mm)*
G04 Created by KiCad (PCBNEW 9.0.1) date 2025-05-06 23:45:29*
%MOMM*%
%LPD*%
G01*
G04 APERTURE LIST*
%ADD10C,0.150000*%
%ADD11C,0.127000*%
%ADD12C,0.200000*%
%ADD13C,0.156250*%
%ADD14C,2.300000*%
%ADD15O,3.148000X1.624000*%
%ADD16C,1.624000*%
G04 APERTURE END LIST*
D10*
X126808095Y-134982438D02*
X126903333Y-134934819D01*
X126903333Y-134934819D02*
X127046190Y-134934819D01*
X127046190Y-134934819D02*
X127189047Y-134982438D01*
X127189047Y-134982438D02*
X127284285Y-135077676D01*
X127284285Y-135077676D02*
X127331904Y-135172914D01*
X127331904Y-135172914D02*
X127379523Y-135363390D01*
X127379523Y-135363390D02*
X127379523Y-135506247D01*
X127379523Y-135506247D02*
X127331904Y-135696723D01*
X127331904Y-135696723D02*
X127284285Y-135791961D01*
X127284285Y-135791961D02*
X127189047Y-135887200D01*
X127189047Y-135887200D02*
X127046190Y-135934819D01*
X127046190Y-135934819D02*
X126950952Y-135934819D01*
X126950952Y-135934819D02*
X126808095Y-135887200D01*
X126808095Y-135887200D02*
X126760476Y-135839580D01*
X126760476Y-135839580D02*
X126760476Y-135506247D01*
X126760476Y-135506247D02*
X126950952Y-135506247D01*
D11*
X181388406Y-125563904D02*
X181388406Y-125612285D01*
X181388406Y-125612285D02*
X181412596Y-125660666D01*
X181412596Y-125660666D02*
X181436787Y-125684856D01*
X181436787Y-125684856D02*
X181485168Y-125709047D01*
X181485168Y-125709047D02*
X181581930Y-125733237D01*
X181581930Y-125733237D02*
X181702882Y-125733237D01*
X181702882Y-125733237D02*
X181799644Y-125709047D01*
X181799644Y-125709047D02*
X181848025Y-125684856D01*
X181848025Y-125684856D02*
X181872216Y-125660666D01*
X181872216Y-125660666D02*
X181896406Y-125612285D01*
X181896406Y-125612285D02*
X181896406Y-125563904D01*
X181896406Y-125563904D02*
X181872216Y-125515523D01*
X181872216Y-125515523D02*
X181848025Y-125491332D01*
X181848025Y-125491332D02*
X181799644Y-125467142D01*
X181799644Y-125467142D02*
X181702882Y-125442951D01*
X181702882Y-125442951D02*
X181581930Y-125442951D01*
X181581930Y-125442951D02*
X181485168Y-125467142D01*
X181485168Y-125467142D02*
X181436787Y-125491332D01*
X181436787Y-125491332D02*
X181412596Y-125515523D01*
X181412596Y-125515523D02*
X181388406Y-125563904D01*
X181436787Y-125926761D02*
X181412596Y-125950952D01*
X181412596Y-125950952D02*
X181388406Y-125999333D01*
X181388406Y-125999333D02*
X181388406Y-126120285D01*
X181388406Y-126120285D02*
X181412596Y-126168666D01*
X181412596Y-126168666D02*
X181436787Y-126192857D01*
X181436787Y-126192857D02*
X181485168Y-126217047D01*
X181485168Y-126217047D02*
X181533549Y-126217047D01*
X181533549Y-126217047D02*
X181606120Y-126192857D01*
X181606120Y-126192857D02*
X181896406Y-125902571D01*
X181896406Y-125902571D02*
X181896406Y-126217047D01*
D10*
X168148570Y-118164819D02*
X167910475Y-119164819D01*
X167910475Y-119164819D02*
X167719999Y-118450533D01*
X167719999Y-118450533D02*
X167529523Y-119164819D01*
X167529523Y-119164819D02*
X167291428Y-118164819D01*
X114298571Y-135411009D02*
X114155714Y-135458628D01*
X114155714Y-135458628D02*
X114108095Y-135506247D01*
X114108095Y-135506247D02*
X114060476Y-135601485D01*
X114060476Y-135601485D02*
X114060476Y-135744342D01*
X114060476Y-135744342D02*
X114108095Y-135839580D01*
X114108095Y-135839580D02*
X114155714Y-135887200D01*
X114155714Y-135887200D02*
X114250952Y-135934819D01*
X114250952Y-135934819D02*
X114631904Y-135934819D01*
X114631904Y-135934819D02*
X114631904Y-134934819D01*
X114631904Y-134934819D02*
X114298571Y-134934819D01*
X114298571Y-134934819D02*
X114203333Y-134982438D01*
X114203333Y-134982438D02*
X114155714Y-135030057D01*
X114155714Y-135030057D02*
X114108095Y-135125295D01*
X114108095Y-135125295D02*
X114108095Y-135220533D01*
X114108095Y-135220533D02*
X114155714Y-135315771D01*
X114155714Y-135315771D02*
X114203333Y-135363390D01*
X114203333Y-135363390D02*
X114298571Y-135411009D01*
X114298571Y-135411009D02*
X114631904Y-135411009D01*
X150191904Y-135934819D02*
X150191904Y-134934819D01*
X150191904Y-134934819D02*
X149810952Y-134934819D01*
X149810952Y-134934819D02*
X149715714Y-134982438D01*
X149715714Y-134982438D02*
X149668095Y-135030057D01*
X149668095Y-135030057D02*
X149620476Y-135125295D01*
X149620476Y-135125295D02*
X149620476Y-135268152D01*
X149620476Y-135268152D02*
X149668095Y-135363390D01*
X149668095Y-135363390D02*
X149715714Y-135411009D01*
X149715714Y-135411009D02*
X149810952Y-135458628D01*
X149810952Y-135458628D02*
X150191904Y-135458628D01*
D12*
X155985714Y-130029695D02*
X155985714Y-129229695D01*
X155985714Y-129229695D02*
X155300000Y-129229695D01*
X155300000Y-129229695D02*
X155128571Y-129267790D01*
X155128571Y-129267790D02*
X155042857Y-129305885D01*
X155042857Y-129305885D02*
X154957143Y-129382076D01*
X154957143Y-129382076D02*
X154957143Y-129496361D01*
X154957143Y-129496361D02*
X155042857Y-129572552D01*
X155042857Y-129572552D02*
X155128571Y-129610647D01*
X155128571Y-129610647D02*
X155300000Y-129648742D01*
X155300000Y-129648742D02*
X155985714Y-129648742D01*
X154185714Y-130029695D02*
X154185714Y-129496361D01*
X154185714Y-129229695D02*
X154271428Y-129267790D01*
X154271428Y-129267790D02*
X154185714Y-129305885D01*
X154185714Y-129305885D02*
X154100000Y-129267790D01*
X154100000Y-129267790D02*
X154185714Y-129229695D01*
X154185714Y-129229695D02*
X154185714Y-129305885D01*
X153585714Y-129496361D02*
X152900000Y-129496361D01*
X153328571Y-129229695D02*
X153328571Y-129915409D01*
X153328571Y-129915409D02*
X153242857Y-129991600D01*
X153242857Y-129991600D02*
X153071428Y-130029695D01*
X153071428Y-130029695D02*
X152900000Y-130029695D01*
X151528572Y-129991600D02*
X151700000Y-130029695D01*
X151700000Y-130029695D02*
X152042857Y-130029695D01*
X152042857Y-130029695D02*
X152214286Y-129991600D01*
X152214286Y-129991600D02*
X152300000Y-129953504D01*
X152300000Y-129953504D02*
X152385714Y-129877314D01*
X152385714Y-129877314D02*
X152385714Y-129648742D01*
X152385714Y-129648742D02*
X152300000Y-129572552D01*
X152300000Y-129572552D02*
X152214286Y-129534457D01*
X152214286Y-129534457D02*
X152042857Y-129496361D01*
X152042857Y-129496361D02*
X151700000Y-129496361D01*
X151700000Y-129496361D02*
X151528572Y-129534457D01*
X150757143Y-130029695D02*
X150757143Y-129229695D01*
X149985715Y-130029695D02*
X149985715Y-129610647D01*
X149985715Y-129610647D02*
X150071429Y-129534457D01*
X150071429Y-129534457D02*
X150242857Y-129496361D01*
X150242857Y-129496361D02*
X150500000Y-129496361D01*
X150500000Y-129496361D02*
X150671429Y-129534457D01*
X150671429Y-129534457D02*
X150757143Y-129572552D01*
X147842857Y-129305885D02*
X147757143Y-129267790D01*
X147757143Y-129267790D02*
X147585715Y-129229695D01*
X147585715Y-129229695D02*
X147157143Y-129229695D01*
X147157143Y-129229695D02*
X146985715Y-129267790D01*
X146985715Y-129267790D02*
X146900000Y-129305885D01*
X146900000Y-129305885D02*
X146814286Y-129382076D01*
X146814286Y-129382076D02*
X146814286Y-129458266D01*
X146814286Y-129458266D02*
X146900000Y-129572552D01*
X146900000Y-129572552D02*
X147928572Y-130029695D01*
X147928572Y-130029695D02*
X146814286Y-130029695D01*
X146042857Y-129953504D02*
X145957143Y-129991600D01*
X145957143Y-129991600D02*
X146042857Y-130029695D01*
X146042857Y-130029695D02*
X146128571Y-129991600D01*
X146128571Y-129991600D02*
X146042857Y-129953504D01*
X146042857Y-129953504D02*
X146042857Y-130029695D01*
X144328571Y-129229695D02*
X145185714Y-129229695D01*
X145185714Y-129229695D02*
X145271428Y-129610647D01*
X145271428Y-129610647D02*
X145185714Y-129572552D01*
X145185714Y-129572552D02*
X145014286Y-129534457D01*
X145014286Y-129534457D02*
X144585714Y-129534457D01*
X144585714Y-129534457D02*
X144414286Y-129572552D01*
X144414286Y-129572552D02*
X144328571Y-129610647D01*
X144328571Y-129610647D02*
X144242857Y-129686838D01*
X144242857Y-129686838D02*
X144242857Y-129877314D01*
X144242857Y-129877314D02*
X144328571Y-129953504D01*
X144328571Y-129953504D02*
X144414286Y-129991600D01*
X144414286Y-129991600D02*
X144585714Y-130029695D01*
X144585714Y-130029695D02*
X145014286Y-130029695D01*
X145014286Y-130029695D02*
X145185714Y-129991600D01*
X145185714Y-129991600D02*
X145271428Y-129953504D01*
X142700000Y-129496361D02*
X142700000Y-130029695D01*
X143128571Y-129191600D02*
X143557142Y-129763028D01*
X143557142Y-129763028D02*
X142442857Y-129763028D01*
X141757142Y-130029695D02*
X141757142Y-129496361D01*
X141757142Y-129572552D02*
X141671428Y-129534457D01*
X141671428Y-129534457D02*
X141499999Y-129496361D01*
X141499999Y-129496361D02*
X141242856Y-129496361D01*
X141242856Y-129496361D02*
X141071428Y-129534457D01*
X141071428Y-129534457D02*
X140985714Y-129610647D01*
X140985714Y-129610647D02*
X140985714Y-130029695D01*
X140985714Y-129610647D02*
X140899999Y-129534457D01*
X140899999Y-129534457D02*
X140728571Y-129496361D01*
X140728571Y-129496361D02*
X140471428Y-129496361D01*
X140471428Y-129496361D02*
X140299999Y-129534457D01*
X140299999Y-129534457D02*
X140214285Y-129610647D01*
X140214285Y-129610647D02*
X140214285Y-130029695D01*
X139357142Y-130029695D02*
X139357142Y-129496361D01*
X139357142Y-129572552D02*
X139271428Y-129534457D01*
X139271428Y-129534457D02*
X139099999Y-129496361D01*
X139099999Y-129496361D02*
X138842856Y-129496361D01*
X138842856Y-129496361D02*
X138671428Y-129534457D01*
X138671428Y-129534457D02*
X138585714Y-129610647D01*
X138585714Y-129610647D02*
X138585714Y-130029695D01*
X138585714Y-129610647D02*
X138499999Y-129534457D01*
X138499999Y-129534457D02*
X138328571Y-129496361D01*
X138328571Y-129496361D02*
X138071428Y-129496361D01*
X138071428Y-129496361D02*
X137899999Y-129534457D01*
X137899999Y-129534457D02*
X137814285Y-129610647D01*
X137814285Y-129610647D02*
X137814285Y-130029695D01*
D10*
X147495237Y-118164819D02*
X147304761Y-118164819D01*
X147304761Y-118164819D02*
X147209523Y-118212438D01*
X147209523Y-118212438D02*
X147114285Y-118307676D01*
X147114285Y-118307676D02*
X147066666Y-118498152D01*
X147066666Y-118498152D02*
X147066666Y-118831485D01*
X147066666Y-118831485D02*
X147114285Y-119021961D01*
X147114285Y-119021961D02*
X147209523Y-119117200D01*
X147209523Y-119117200D02*
X147304761Y-119164819D01*
X147304761Y-119164819D02*
X147495237Y-119164819D01*
X147495237Y-119164819D02*
X147590475Y-119117200D01*
X147590475Y-119117200D02*
X147685713Y-119021961D01*
X147685713Y-119021961D02*
X147733332Y-118831485D01*
X147733332Y-118831485D02*
X147733332Y-118498152D01*
X147733332Y-118498152D02*
X147685713Y-118307676D01*
X147685713Y-118307676D02*
X147590475Y-118212438D01*
X147590475Y-118212438D02*
X147495237Y-118164819D01*
X170593332Y-118164819D02*
X169926666Y-119164819D01*
X169926666Y-118164819D02*
X170593332Y-119164819D01*
X124387142Y-135411009D02*
X124720475Y-135411009D01*
X124720475Y-135934819D02*
X124720475Y-134934819D01*
X124720475Y-134934819D02*
X124244285Y-134934819D01*
X116600476Y-135839580D02*
X116648095Y-135887200D01*
X116648095Y-135887200D02*
X116790952Y-135934819D01*
X116790952Y-135934819D02*
X116886190Y-135934819D01*
X116886190Y-135934819D02*
X117029047Y-135887200D01*
X117029047Y-135887200D02*
X117124285Y-135791961D01*
X117124285Y-135791961D02*
X117171904Y-135696723D01*
X117171904Y-135696723D02*
X117219523Y-135506247D01*
X117219523Y-135506247D02*
X117219523Y-135363390D01*
X117219523Y-135363390D02*
X117171904Y-135172914D01*
X117171904Y-135172914D02*
X117124285Y-135077676D01*
X117124285Y-135077676D02*
X117029047Y-134982438D01*
X117029047Y-134982438D02*
X116886190Y-134934819D01*
X116886190Y-134934819D02*
X116790952Y-134934819D01*
X116790952Y-134934819D02*
X116648095Y-134982438D01*
X116648095Y-134982438D02*
X116600476Y-135030057D01*
X145135713Y-135934819D02*
X145135713Y-134934819D01*
X145135713Y-134934819D02*
X144564285Y-135934819D01*
X144564285Y-135934819D02*
X144564285Y-134934819D01*
X180348571Y-118641009D02*
X180205714Y-118688628D01*
X180205714Y-118688628D02*
X180158095Y-118736247D01*
X180158095Y-118736247D02*
X180110476Y-118831485D01*
X180110476Y-118831485D02*
X180110476Y-118974342D01*
X180110476Y-118974342D02*
X180158095Y-119069580D01*
X180158095Y-119069580D02*
X180205714Y-119117200D01*
X180205714Y-119117200D02*
X180300952Y-119164819D01*
X180300952Y-119164819D02*
X180681904Y-119164819D01*
X180681904Y-119164819D02*
X180681904Y-118164819D01*
X180681904Y-118164819D02*
X180348571Y-118164819D01*
X180348571Y-118164819D02*
X180253333Y-118212438D01*
X180253333Y-118212438D02*
X180205714Y-118260057D01*
X180205714Y-118260057D02*
X180158095Y-118355295D01*
X180158095Y-118355295D02*
X180158095Y-118450533D01*
X180158095Y-118450533D02*
X180205714Y-118545771D01*
X180205714Y-118545771D02*
X180253333Y-118593390D01*
X180253333Y-118593390D02*
X180348571Y-118641009D01*
X180348571Y-118641009D02*
X180681904Y-118641009D01*
X139470476Y-119164819D02*
X139946666Y-119164819D01*
X139946666Y-119164819D02*
X139946666Y-118164819D01*
D11*
X181388406Y-130643904D02*
X181388406Y-130692285D01*
X181388406Y-130692285D02*
X181412596Y-130740666D01*
X181412596Y-130740666D02*
X181436787Y-130764856D01*
X181436787Y-130764856D02*
X181485168Y-130789047D01*
X181485168Y-130789047D02*
X181581930Y-130813237D01*
X181581930Y-130813237D02*
X181702882Y-130813237D01*
X181702882Y-130813237D02*
X181799644Y-130789047D01*
X181799644Y-130789047D02*
X181848025Y-130764856D01*
X181848025Y-130764856D02*
X181872216Y-130740666D01*
X181872216Y-130740666D02*
X181896406Y-130692285D01*
X181896406Y-130692285D02*
X181896406Y-130643904D01*
X181896406Y-130643904D02*
X181872216Y-130595523D01*
X181872216Y-130595523D02*
X181848025Y-130571332D01*
X181848025Y-130571332D02*
X181799644Y-130547142D01*
X181799644Y-130547142D02*
X181702882Y-130522951D01*
X181702882Y-130522951D02*
X181581930Y-130522951D01*
X181581930Y-130522951D02*
X181485168Y-130547142D01*
X181485168Y-130547142D02*
X181436787Y-130571332D01*
X181436787Y-130571332D02*
X181412596Y-130595523D01*
X181412596Y-130595523D02*
X181388406Y-130643904D01*
X181557739Y-131248666D02*
X181896406Y-131248666D01*
X181364216Y-131127714D02*
X181727073Y-131006761D01*
X181727073Y-131006761D02*
X181727073Y-131321238D01*
D12*
X156985713Y-122343504D02*
X157071427Y-122381600D01*
X157071427Y-122381600D02*
X157328570Y-122419695D01*
X157328570Y-122419695D02*
X157499998Y-122419695D01*
X157499998Y-122419695D02*
X157757141Y-122381600D01*
X157757141Y-122381600D02*
X157928570Y-122305409D01*
X157928570Y-122305409D02*
X158014284Y-122229219D01*
X158014284Y-122229219D02*
X158099998Y-122076838D01*
X158099998Y-122076838D02*
X158099998Y-121962552D01*
X158099998Y-121962552D02*
X158014284Y-121810171D01*
X158014284Y-121810171D02*
X157928570Y-121733980D01*
X157928570Y-121733980D02*
X157757141Y-121657790D01*
X157757141Y-121657790D02*
X157499998Y-121619695D01*
X157499998Y-121619695D02*
X157328570Y-121619695D01*
X157328570Y-121619695D02*
X157071427Y-121657790D01*
X157071427Y-121657790D02*
X156985713Y-121695885D01*
X155957141Y-122419695D02*
X156128570Y-122381600D01*
X156128570Y-122381600D02*
X156214284Y-122305409D01*
X156214284Y-122305409D02*
X156214284Y-121619695D01*
X154499999Y-122419695D02*
X154499999Y-122000647D01*
X154499999Y-122000647D02*
X154585713Y-121924457D01*
X154585713Y-121924457D02*
X154757141Y-121886361D01*
X154757141Y-121886361D02*
X155099999Y-121886361D01*
X155099999Y-121886361D02*
X155271427Y-121924457D01*
X154499999Y-122381600D02*
X154671427Y-122419695D01*
X154671427Y-122419695D02*
X155099999Y-122419695D01*
X155099999Y-122419695D02*
X155271427Y-122381600D01*
X155271427Y-122381600D02*
X155357141Y-122305409D01*
X155357141Y-122305409D02*
X155357141Y-122229219D01*
X155357141Y-122229219D02*
X155271427Y-122153028D01*
X155271427Y-122153028D02*
X155099999Y-122114933D01*
X155099999Y-122114933D02*
X154671427Y-122114933D01*
X154671427Y-122114933D02*
X154499999Y-122076838D01*
X153728570Y-122381600D02*
X153557142Y-122419695D01*
X153557142Y-122419695D02*
X153214285Y-122419695D01*
X153214285Y-122419695D02*
X153042856Y-122381600D01*
X153042856Y-122381600D02*
X152957142Y-122305409D01*
X152957142Y-122305409D02*
X152957142Y-122267314D01*
X152957142Y-122267314D02*
X153042856Y-122191123D01*
X153042856Y-122191123D02*
X153214285Y-122153028D01*
X153214285Y-122153028D02*
X153471428Y-122153028D01*
X153471428Y-122153028D02*
X153642856Y-122114933D01*
X153642856Y-122114933D02*
X153728570Y-122038742D01*
X153728570Y-122038742D02*
X153728570Y-122000647D01*
X153728570Y-122000647D02*
X153642856Y-121924457D01*
X153642856Y-121924457D02*
X153471428Y-121886361D01*
X153471428Y-121886361D02*
X153214285Y-121886361D01*
X153214285Y-121886361D02*
X153042856Y-121924457D01*
X152271427Y-122381600D02*
X152099999Y-122419695D01*
X152099999Y-122419695D02*
X151757142Y-122419695D01*
X151757142Y-122419695D02*
X151585713Y-122381600D01*
X151585713Y-122381600D02*
X151499999Y-122305409D01*
X151499999Y-122305409D02*
X151499999Y-122267314D01*
X151499999Y-122267314D02*
X151585713Y-122191123D01*
X151585713Y-122191123D02*
X151757142Y-122153028D01*
X151757142Y-122153028D02*
X152014285Y-122153028D01*
X152014285Y-122153028D02*
X152185713Y-122114933D01*
X152185713Y-122114933D02*
X152271427Y-122038742D01*
X152271427Y-122038742D02*
X152271427Y-122000647D01*
X152271427Y-122000647D02*
X152185713Y-121924457D01*
X152185713Y-121924457D02*
X152014285Y-121886361D01*
X152014285Y-121886361D02*
X151757142Y-121886361D01*
X151757142Y-121886361D02*
X151585713Y-121924457D01*
X150728570Y-122419695D02*
X150728570Y-121886361D01*
X150728570Y-121619695D02*
X150814284Y-121657790D01*
X150814284Y-121657790D02*
X150728570Y-121695885D01*
X150728570Y-121695885D02*
X150642856Y-121657790D01*
X150642856Y-121657790D02*
X150728570Y-121619695D01*
X150728570Y-121619695D02*
X150728570Y-121695885D01*
X149099999Y-122381600D02*
X149271427Y-122419695D01*
X149271427Y-122419695D02*
X149614284Y-122419695D01*
X149614284Y-122419695D02*
X149785713Y-122381600D01*
X149785713Y-122381600D02*
X149871427Y-122343504D01*
X149871427Y-122343504D02*
X149957141Y-122267314D01*
X149957141Y-122267314D02*
X149957141Y-122038742D01*
X149957141Y-122038742D02*
X149871427Y-121962552D01*
X149871427Y-121962552D02*
X149785713Y-121924457D01*
X149785713Y-121924457D02*
X149614284Y-121886361D01*
X149614284Y-121886361D02*
X149271427Y-121886361D01*
X149271427Y-121886361D02*
X149099999Y-121924457D01*
X146957141Y-122419695D02*
X146957141Y-121619695D01*
X146957141Y-121619695D02*
X146271427Y-121619695D01*
X146271427Y-121619695D02*
X146099998Y-121657790D01*
X146099998Y-121657790D02*
X146014284Y-121695885D01*
X146014284Y-121695885D02*
X145928570Y-121772076D01*
X145928570Y-121772076D02*
X145928570Y-121886361D01*
X145928570Y-121886361D02*
X146014284Y-121962552D01*
X146014284Y-121962552D02*
X146099998Y-122000647D01*
X146099998Y-122000647D02*
X146271427Y-122038742D01*
X146271427Y-122038742D02*
X146957141Y-122038742D01*
X145157141Y-122419695D02*
X145157141Y-121886361D01*
X145157141Y-122038742D02*
X145071427Y-121962552D01*
X145071427Y-121962552D02*
X144985713Y-121924457D01*
X144985713Y-121924457D02*
X144814284Y-121886361D01*
X144814284Y-121886361D02*
X144642855Y-121886361D01*
X143785712Y-122419695D02*
X143957141Y-122381600D01*
X143957141Y-122381600D02*
X144042855Y-122343504D01*
X144042855Y-122343504D02*
X144128569Y-122267314D01*
X144128569Y-122267314D02*
X144128569Y-122038742D01*
X144128569Y-122038742D02*
X144042855Y-121962552D01*
X144042855Y-121962552D02*
X143957141Y-121924457D01*
X143957141Y-121924457D02*
X143785712Y-121886361D01*
X143785712Y-121886361D02*
X143528569Y-121886361D01*
X143528569Y-121886361D02*
X143357141Y-121924457D01*
X143357141Y-121924457D02*
X143271427Y-121962552D01*
X143271427Y-121962552D02*
X143185712Y-122038742D01*
X143185712Y-122038742D02*
X143185712Y-122267314D01*
X143185712Y-122267314D02*
X143271427Y-122343504D01*
X143271427Y-122343504D02*
X143357141Y-122381600D01*
X143357141Y-122381600D02*
X143528569Y-122419695D01*
X143528569Y-122419695D02*
X143785712Y-122419695D01*
X142671427Y-121886361D02*
X141985713Y-121886361D01*
X142414284Y-121619695D02*
X142414284Y-122305409D01*
X142414284Y-122305409D02*
X142328570Y-122381600D01*
X142328570Y-122381600D02*
X142157141Y-122419695D01*
X142157141Y-122419695D02*
X141985713Y-122419695D01*
X141128570Y-122419695D02*
X141299999Y-122381600D01*
X141299999Y-122381600D02*
X141385713Y-122343504D01*
X141385713Y-122343504D02*
X141471427Y-122267314D01*
X141471427Y-122267314D02*
X141471427Y-122038742D01*
X141471427Y-122038742D02*
X141385713Y-121962552D01*
X141385713Y-121962552D02*
X141299999Y-121924457D01*
X141299999Y-121924457D02*
X141128570Y-121886361D01*
X141128570Y-121886361D02*
X140871427Y-121886361D01*
X140871427Y-121886361D02*
X140699999Y-121924457D01*
X140699999Y-121924457D02*
X140614285Y-121962552D01*
X140614285Y-121962552D02*
X140528570Y-122038742D01*
X140528570Y-122038742D02*
X140528570Y-122267314D01*
X140528570Y-122267314D02*
X140614285Y-122343504D01*
X140614285Y-122343504D02*
X140699999Y-122381600D01*
X140699999Y-122381600D02*
X140871427Y-122419695D01*
X140871427Y-122419695D02*
X141128570Y-122419695D01*
X139757142Y-122419695D02*
X139757142Y-121619695D01*
X139757142Y-121924457D02*
X139585714Y-121886361D01*
X139585714Y-121886361D02*
X139242856Y-121886361D01*
X139242856Y-121886361D02*
X139071428Y-121924457D01*
X139071428Y-121924457D02*
X138985714Y-121962552D01*
X138985714Y-121962552D02*
X138899999Y-122038742D01*
X138899999Y-122038742D02*
X138899999Y-122267314D01*
X138899999Y-122267314D02*
X138985714Y-122343504D01*
X138985714Y-122343504D02*
X139071428Y-122381600D01*
X139071428Y-122381600D02*
X139242856Y-122419695D01*
X139242856Y-122419695D02*
X139585714Y-122419695D01*
X139585714Y-122419695D02*
X139757142Y-122381600D01*
X137871428Y-122419695D02*
X138042857Y-122381600D01*
X138042857Y-122381600D02*
X138128571Y-122343504D01*
X138128571Y-122343504D02*
X138214285Y-122267314D01*
X138214285Y-122267314D02*
X138214285Y-122038742D01*
X138214285Y-122038742D02*
X138128571Y-121962552D01*
X138128571Y-121962552D02*
X138042857Y-121924457D01*
X138042857Y-121924457D02*
X137871428Y-121886361D01*
X137871428Y-121886361D02*
X137614285Y-121886361D01*
X137614285Y-121886361D02*
X137442857Y-121924457D01*
X137442857Y-121924457D02*
X137357143Y-121962552D01*
X137357143Y-121962552D02*
X137271428Y-122038742D01*
X137271428Y-122038742D02*
X137271428Y-122267314D01*
X137271428Y-122267314D02*
X137357143Y-122343504D01*
X137357143Y-122343504D02*
X137442857Y-122381600D01*
X137442857Y-122381600D02*
X137614285Y-122419695D01*
X137614285Y-122419695D02*
X137871428Y-122419695D01*
X135728572Y-122419695D02*
X135728572Y-122000647D01*
X135728572Y-122000647D02*
X135814286Y-121924457D01*
X135814286Y-121924457D02*
X135985714Y-121886361D01*
X135985714Y-121886361D02*
X136328572Y-121886361D01*
X136328572Y-121886361D02*
X136500000Y-121924457D01*
X135728572Y-122381600D02*
X135900000Y-122419695D01*
X135900000Y-122419695D02*
X136328572Y-122419695D01*
X136328572Y-122419695D02*
X136500000Y-122381600D01*
X136500000Y-122381600D02*
X136585714Y-122305409D01*
X136585714Y-122305409D02*
X136585714Y-122229219D01*
X136585714Y-122229219D02*
X136500000Y-122153028D01*
X136500000Y-122153028D02*
X136328572Y-122114933D01*
X136328572Y-122114933D02*
X135900000Y-122114933D01*
X135900000Y-122114933D02*
X135728572Y-122076838D01*
X134871429Y-122419695D02*
X134871429Y-121886361D01*
X134871429Y-122038742D02*
X134785715Y-121962552D01*
X134785715Y-121962552D02*
X134700001Y-121924457D01*
X134700001Y-121924457D02*
X134528572Y-121886361D01*
X134528572Y-121886361D02*
X134357143Y-121886361D01*
X132985715Y-122419695D02*
X132985715Y-121619695D01*
X132985715Y-122381600D02*
X133157143Y-122419695D01*
X133157143Y-122419695D02*
X133500000Y-122419695D01*
X133500000Y-122419695D02*
X133671429Y-122381600D01*
X133671429Y-122381600D02*
X133757143Y-122343504D01*
X133757143Y-122343504D02*
X133842857Y-122267314D01*
X133842857Y-122267314D02*
X133842857Y-122038742D01*
X133842857Y-122038742D02*
X133757143Y-121962552D01*
X133757143Y-121962552D02*
X133671429Y-121924457D01*
X133671429Y-121924457D02*
X133500000Y-121886361D01*
X133500000Y-121886361D02*
X133157143Y-121886361D01*
X133157143Y-121886361D02*
X132985715Y-121924457D01*
D10*
X162915713Y-134934819D02*
X162915713Y-135744342D01*
X162915713Y-135744342D02*
X162868094Y-135839580D01*
X162868094Y-135839580D02*
X162820475Y-135887200D01*
X162820475Y-135887200D02*
X162725237Y-135934819D01*
X162725237Y-135934819D02*
X162534761Y-135934819D01*
X162534761Y-135934819D02*
X162439523Y-135887200D01*
X162439523Y-135887200D02*
X162391904Y-135839580D01*
X162391904Y-135839580D02*
X162344285Y-135744342D01*
X162344285Y-135744342D02*
X162344285Y-134934819D01*
X172789999Y-135458628D02*
X172789999Y-135934819D01*
X173123332Y-134934819D02*
X172789999Y-135458628D01*
X172789999Y-135458628D02*
X172456666Y-134934819D01*
X129895713Y-135934819D02*
X129895713Y-134934819D01*
X129895713Y-135411009D02*
X129324285Y-135411009D01*
X129324285Y-135934819D02*
X129324285Y-134934819D01*
X134547142Y-134934819D02*
X134547142Y-135649104D01*
X134547142Y-135649104D02*
X134594761Y-135791961D01*
X134594761Y-135791961D02*
X134689999Y-135887200D01*
X134689999Y-135887200D02*
X134832856Y-135934819D01*
X134832856Y-135934819D02*
X134928094Y-135934819D01*
X162925713Y-118164819D02*
X162925713Y-118974342D01*
X162925713Y-118974342D02*
X162878094Y-119069580D01*
X162878094Y-119069580D02*
X162830475Y-119117200D01*
X162830475Y-119117200D02*
X162735237Y-119164819D01*
X162735237Y-119164819D02*
X162544761Y-119164819D01*
X162544761Y-119164819D02*
X162449523Y-119117200D01*
X162449523Y-119117200D02*
X162401904Y-119069580D01*
X162401904Y-119069580D02*
X162354285Y-118974342D01*
X162354285Y-118974342D02*
X162354285Y-118164819D01*
D12*
X156142857Y-124492552D02*
X156314286Y-124454457D01*
X156314286Y-124454457D02*
X156400000Y-124416361D01*
X156400000Y-124416361D02*
X156485714Y-124340171D01*
X156485714Y-124340171D02*
X156485714Y-124302076D01*
X156485714Y-124302076D02*
X156400000Y-124225885D01*
X156400000Y-124225885D02*
X156314286Y-124187790D01*
X156314286Y-124187790D02*
X156142857Y-124149695D01*
X156142857Y-124149695D02*
X155800000Y-124149695D01*
X155800000Y-124149695D02*
X155628572Y-124187790D01*
X155628572Y-124187790D02*
X155542857Y-124225885D01*
X155542857Y-124225885D02*
X155457143Y-124302076D01*
X155457143Y-124302076D02*
X155457143Y-124340171D01*
X155457143Y-124340171D02*
X155542857Y-124416361D01*
X155542857Y-124416361D02*
X155628572Y-124454457D01*
X155628572Y-124454457D02*
X155800000Y-124492552D01*
X155800000Y-124492552D02*
X156142857Y-124492552D01*
X156142857Y-124492552D02*
X156314286Y-124530647D01*
X156314286Y-124530647D02*
X156400000Y-124568742D01*
X156400000Y-124568742D02*
X156485714Y-124644933D01*
X156485714Y-124644933D02*
X156485714Y-124797314D01*
X156485714Y-124797314D02*
X156400000Y-124873504D01*
X156400000Y-124873504D02*
X156314286Y-124911600D01*
X156314286Y-124911600D02*
X156142857Y-124949695D01*
X156142857Y-124949695D02*
X155800000Y-124949695D01*
X155800000Y-124949695D02*
X155628572Y-124911600D01*
X155628572Y-124911600D02*
X155542857Y-124873504D01*
X155542857Y-124873504D02*
X155457143Y-124797314D01*
X155457143Y-124797314D02*
X155457143Y-124644933D01*
X155457143Y-124644933D02*
X155542857Y-124568742D01*
X155542857Y-124568742D02*
X155628572Y-124530647D01*
X155628572Y-124530647D02*
X155800000Y-124492552D01*
X154342857Y-124149695D02*
X154171428Y-124149695D01*
X154171428Y-124149695D02*
X154000000Y-124187790D01*
X154000000Y-124187790D02*
X153914286Y-124225885D01*
X153914286Y-124225885D02*
X153828571Y-124302076D01*
X153828571Y-124302076D02*
X153742857Y-124454457D01*
X153742857Y-124454457D02*
X153742857Y-124644933D01*
X153742857Y-124644933D02*
X153828571Y-124797314D01*
X153828571Y-124797314D02*
X153914286Y-124873504D01*
X153914286Y-124873504D02*
X154000000Y-124911600D01*
X154000000Y-124911600D02*
X154171428Y-124949695D01*
X154171428Y-124949695D02*
X154342857Y-124949695D01*
X154342857Y-124949695D02*
X154514286Y-124911600D01*
X154514286Y-124911600D02*
X154600000Y-124873504D01*
X154600000Y-124873504D02*
X154685714Y-124797314D01*
X154685714Y-124797314D02*
X154771428Y-124644933D01*
X154771428Y-124644933D02*
X154771428Y-124454457D01*
X154771428Y-124454457D02*
X154685714Y-124302076D01*
X154685714Y-124302076D02*
X154600000Y-124225885D01*
X154600000Y-124225885D02*
X154514286Y-124187790D01*
X154514286Y-124187790D02*
X154342857Y-124149695D01*
X152971428Y-124949695D02*
X152971428Y-124416361D01*
X152971428Y-124492552D02*
X152885714Y-124454457D01*
X152885714Y-124454457D02*
X152714285Y-124416361D01*
X152714285Y-124416361D02*
X152457142Y-124416361D01*
X152457142Y-124416361D02*
X152285714Y-124454457D01*
X152285714Y-124454457D02*
X152200000Y-124530647D01*
X152200000Y-124530647D02*
X152200000Y-124949695D01*
X152200000Y-124530647D02*
X152114285Y-124454457D01*
X152114285Y-124454457D02*
X151942857Y-124416361D01*
X151942857Y-124416361D02*
X151685714Y-124416361D01*
X151685714Y-124416361D02*
X151514285Y-124454457D01*
X151514285Y-124454457D02*
X151428571Y-124530647D01*
X151428571Y-124530647D02*
X151428571Y-124949695D01*
X150571428Y-124949695D02*
X150571428Y-124416361D01*
X150571428Y-124492552D02*
X150485714Y-124454457D01*
X150485714Y-124454457D02*
X150314285Y-124416361D01*
X150314285Y-124416361D02*
X150057142Y-124416361D01*
X150057142Y-124416361D02*
X149885714Y-124454457D01*
X149885714Y-124454457D02*
X149800000Y-124530647D01*
X149800000Y-124530647D02*
X149800000Y-124949695D01*
X149800000Y-124530647D02*
X149714285Y-124454457D01*
X149714285Y-124454457D02*
X149542857Y-124416361D01*
X149542857Y-124416361D02*
X149285714Y-124416361D01*
X149285714Y-124416361D02*
X149114285Y-124454457D01*
X149114285Y-124454457D02*
X149028571Y-124530647D01*
X149028571Y-124530647D02*
X149028571Y-124949695D01*
X146971428Y-124949695D02*
X146028571Y-124416361D01*
X146971428Y-124416361D02*
X146028571Y-124949695D01*
X144057141Y-124225885D02*
X143971427Y-124187790D01*
X143971427Y-124187790D02*
X143799999Y-124149695D01*
X143799999Y-124149695D02*
X143371427Y-124149695D01*
X143371427Y-124149695D02*
X143199999Y-124187790D01*
X143199999Y-124187790D02*
X143114284Y-124225885D01*
X143114284Y-124225885D02*
X143028570Y-124302076D01*
X143028570Y-124302076D02*
X143028570Y-124378266D01*
X143028570Y-124378266D02*
X143114284Y-124492552D01*
X143114284Y-124492552D02*
X144142856Y-124949695D01*
X144142856Y-124949695D02*
X143028570Y-124949695D01*
X141914284Y-124149695D02*
X141742855Y-124149695D01*
X141742855Y-124149695D02*
X141571427Y-124187790D01*
X141571427Y-124187790D02*
X141485713Y-124225885D01*
X141485713Y-124225885D02*
X141399998Y-124302076D01*
X141399998Y-124302076D02*
X141314284Y-124454457D01*
X141314284Y-124454457D02*
X141314284Y-124644933D01*
X141314284Y-124644933D02*
X141399998Y-124797314D01*
X141399998Y-124797314D02*
X141485713Y-124873504D01*
X141485713Y-124873504D02*
X141571427Y-124911600D01*
X141571427Y-124911600D02*
X141742855Y-124949695D01*
X141742855Y-124949695D02*
X141914284Y-124949695D01*
X141914284Y-124949695D02*
X142085713Y-124911600D01*
X142085713Y-124911600D02*
X142171427Y-124873504D01*
X142171427Y-124873504D02*
X142257141Y-124797314D01*
X142257141Y-124797314D02*
X142342855Y-124644933D01*
X142342855Y-124644933D02*
X142342855Y-124454457D01*
X142342855Y-124454457D02*
X142257141Y-124302076D01*
X142257141Y-124302076D02*
X142171427Y-124225885D01*
X142171427Y-124225885D02*
X142085713Y-124187790D01*
X142085713Y-124187790D02*
X141914284Y-124149695D01*
X140542855Y-124949695D02*
X140542855Y-124416361D01*
X140542855Y-124492552D02*
X140457141Y-124454457D01*
X140457141Y-124454457D02*
X140285712Y-124416361D01*
X140285712Y-124416361D02*
X140028569Y-124416361D01*
X140028569Y-124416361D02*
X139857141Y-124454457D01*
X139857141Y-124454457D02*
X139771427Y-124530647D01*
X139771427Y-124530647D02*
X139771427Y-124949695D01*
X139771427Y-124530647D02*
X139685712Y-124454457D01*
X139685712Y-124454457D02*
X139514284Y-124416361D01*
X139514284Y-124416361D02*
X139257141Y-124416361D01*
X139257141Y-124416361D02*
X139085712Y-124454457D01*
X139085712Y-124454457D02*
X138999998Y-124530647D01*
X138999998Y-124530647D02*
X138999998Y-124949695D01*
X138142855Y-124949695D02*
X138142855Y-124416361D01*
X138142855Y-124492552D02*
X138057141Y-124454457D01*
X138057141Y-124454457D02*
X137885712Y-124416361D01*
X137885712Y-124416361D02*
X137628569Y-124416361D01*
X137628569Y-124416361D02*
X137457141Y-124454457D01*
X137457141Y-124454457D02*
X137371427Y-124530647D01*
X137371427Y-124530647D02*
X137371427Y-124949695D01*
X137371427Y-124530647D02*
X137285712Y-124454457D01*
X137285712Y-124454457D02*
X137114284Y-124416361D01*
X137114284Y-124416361D02*
X136857141Y-124416361D01*
X136857141Y-124416361D02*
X136685712Y-124454457D01*
X136685712Y-124454457D02*
X136599998Y-124530647D01*
X136599998Y-124530647D02*
X136599998Y-124949695D01*
D10*
X114308571Y-118641009D02*
X114165714Y-118688628D01*
X114165714Y-118688628D02*
X114118095Y-118736247D01*
X114118095Y-118736247D02*
X114070476Y-118831485D01*
X114070476Y-118831485D02*
X114070476Y-118974342D01*
X114070476Y-118974342D02*
X114118095Y-119069580D01*
X114118095Y-119069580D02*
X114165714Y-119117200D01*
X114165714Y-119117200D02*
X114260952Y-119164819D01*
X114260952Y-119164819D02*
X114641904Y-119164819D01*
X114641904Y-119164819D02*
X114641904Y-118164819D01*
X114641904Y-118164819D02*
X114308571Y-118164819D01*
X114308571Y-118164819D02*
X114213333Y-118212438D01*
X114213333Y-118212438D02*
X114165714Y-118260057D01*
X114165714Y-118260057D02*
X114118095Y-118355295D01*
X114118095Y-118355295D02*
X114118095Y-118450533D01*
X114118095Y-118450533D02*
X114165714Y-118545771D01*
X114165714Y-118545771D02*
X114213333Y-118593390D01*
X114213333Y-118593390D02*
X114308571Y-118641009D01*
X114308571Y-118641009D02*
X114641904Y-118641009D01*
X180338571Y-135411009D02*
X180195714Y-135458628D01*
X180195714Y-135458628D02*
X180148095Y-135506247D01*
X180148095Y-135506247D02*
X180100476Y-135601485D01*
X180100476Y-135601485D02*
X180100476Y-135744342D01*
X180100476Y-135744342D02*
X180148095Y-135839580D01*
X180148095Y-135839580D02*
X180195714Y-135887200D01*
X180195714Y-135887200D02*
X180290952Y-135934819D01*
X180290952Y-135934819D02*
X180671904Y-135934819D01*
X180671904Y-135934819D02*
X180671904Y-134934819D01*
X180671904Y-134934819D02*
X180338571Y-134934819D01*
X180338571Y-134934819D02*
X180243333Y-134982438D01*
X180243333Y-134982438D02*
X180195714Y-135030057D01*
X180195714Y-135030057D02*
X180148095Y-135125295D01*
X180148095Y-135125295D02*
X180148095Y-135220533D01*
X180148095Y-135220533D02*
X180195714Y-135315771D01*
X180195714Y-135315771D02*
X180243333Y-135363390D01*
X180243333Y-135363390D02*
X180338571Y-135411009D01*
X180338571Y-135411009D02*
X180671904Y-135411009D01*
X119711904Y-135934819D02*
X119711904Y-134934819D01*
X119711904Y-134934819D02*
X119473809Y-134934819D01*
X119473809Y-134934819D02*
X119330952Y-134982438D01*
X119330952Y-134982438D02*
X119235714Y-135077676D01*
X119235714Y-135077676D02*
X119188095Y-135172914D01*
X119188095Y-135172914D02*
X119140476Y-135363390D01*
X119140476Y-135363390D02*
X119140476Y-135506247D01*
X119140476Y-135506247D02*
X119188095Y-135696723D01*
X119188095Y-135696723D02*
X119235714Y-135791961D01*
X119235714Y-135791961D02*
X119330952Y-135887200D01*
X119330952Y-135887200D02*
X119473809Y-135934819D01*
X119473809Y-135934819D02*
X119711904Y-135934819D01*
X170583332Y-134934819D02*
X169916666Y-135934819D01*
X169916666Y-134934819D02*
X170583332Y-135934819D01*
X124397142Y-118641009D02*
X124730475Y-118641009D01*
X124730475Y-119164819D02*
X124730475Y-118164819D01*
X124730475Y-118164819D02*
X124254285Y-118164819D01*
X122204285Y-135411009D02*
X121870952Y-135411009D01*
X121728095Y-135934819D02*
X122204285Y-135934819D01*
X122204285Y-135934819D02*
X122204285Y-134934819D01*
X122204285Y-134934819D02*
X121728095Y-134934819D01*
X165503332Y-134934819D02*
X165169999Y-135934819D01*
X165169999Y-135934819D02*
X164836666Y-134934819D01*
X144574286Y-118255180D02*
X144574286Y-119255180D01*
X144574286Y-119255180D02*
X145145714Y-118255180D01*
X145145714Y-118255180D02*
X145145714Y-119255180D01*
X157845713Y-119117200D02*
X157702856Y-119164819D01*
X157702856Y-119164819D02*
X157464761Y-119164819D01*
X157464761Y-119164819D02*
X157369523Y-119117200D01*
X157369523Y-119117200D02*
X157321904Y-119069580D01*
X157321904Y-119069580D02*
X157274285Y-118974342D01*
X157274285Y-118974342D02*
X157274285Y-118879104D01*
X157274285Y-118879104D02*
X157321904Y-118783866D01*
X157321904Y-118783866D02*
X157369523Y-118736247D01*
X157369523Y-118736247D02*
X157464761Y-118688628D01*
X157464761Y-118688628D02*
X157655237Y-118641009D01*
X157655237Y-118641009D02*
X157750475Y-118593390D01*
X157750475Y-118593390D02*
X157798094Y-118545771D01*
X157798094Y-118545771D02*
X157845713Y-118450533D01*
X157845713Y-118450533D02*
X157845713Y-118355295D01*
X157845713Y-118355295D02*
X157798094Y-118260057D01*
X157798094Y-118260057D02*
X157750475Y-118212438D01*
X157750475Y-118212438D02*
X157655237Y-118164819D01*
X157655237Y-118164819D02*
X157417142Y-118164819D01*
X157417142Y-118164819D02*
X157274285Y-118212438D01*
D12*
X156571427Y-126745885D02*
X156485713Y-126707790D01*
X156485713Y-126707790D02*
X156314285Y-126669695D01*
X156314285Y-126669695D02*
X155885713Y-126669695D01*
X155885713Y-126669695D02*
X155714285Y-126707790D01*
X155714285Y-126707790D02*
X155628570Y-126745885D01*
X155628570Y-126745885D02*
X155542856Y-126822076D01*
X155542856Y-126822076D02*
X155542856Y-126898266D01*
X155542856Y-126898266D02*
X155628570Y-127012552D01*
X155628570Y-127012552D02*
X156657142Y-127469695D01*
X156657142Y-127469695D02*
X155542856Y-127469695D01*
X154514284Y-127012552D02*
X154685713Y-126974457D01*
X154685713Y-126974457D02*
X154771427Y-126936361D01*
X154771427Y-126936361D02*
X154857141Y-126860171D01*
X154857141Y-126860171D02*
X154857141Y-126822076D01*
X154857141Y-126822076D02*
X154771427Y-126745885D01*
X154771427Y-126745885D02*
X154685713Y-126707790D01*
X154685713Y-126707790D02*
X154514284Y-126669695D01*
X154514284Y-126669695D02*
X154171427Y-126669695D01*
X154171427Y-126669695D02*
X153999999Y-126707790D01*
X153999999Y-126707790D02*
X153914284Y-126745885D01*
X153914284Y-126745885D02*
X153828570Y-126822076D01*
X153828570Y-126822076D02*
X153828570Y-126860171D01*
X153828570Y-126860171D02*
X153914284Y-126936361D01*
X153914284Y-126936361D02*
X153999999Y-126974457D01*
X153999999Y-126974457D02*
X154171427Y-127012552D01*
X154171427Y-127012552D02*
X154514284Y-127012552D01*
X154514284Y-127012552D02*
X154685713Y-127050647D01*
X154685713Y-127050647D02*
X154771427Y-127088742D01*
X154771427Y-127088742D02*
X154857141Y-127164933D01*
X154857141Y-127164933D02*
X154857141Y-127317314D01*
X154857141Y-127317314D02*
X154771427Y-127393504D01*
X154771427Y-127393504D02*
X154685713Y-127431600D01*
X154685713Y-127431600D02*
X154514284Y-127469695D01*
X154514284Y-127469695D02*
X154171427Y-127469695D01*
X154171427Y-127469695D02*
X153999999Y-127431600D01*
X153999999Y-127431600D02*
X153914284Y-127393504D01*
X153914284Y-127393504D02*
X153828570Y-127317314D01*
X153828570Y-127317314D02*
X153828570Y-127164933D01*
X153828570Y-127164933D02*
X153914284Y-127088742D01*
X153914284Y-127088742D02*
X153999999Y-127050647D01*
X153999999Y-127050647D02*
X154171427Y-127012552D01*
X153228570Y-127469695D02*
X152285713Y-126936361D01*
X153228570Y-126936361D02*
X152285713Y-127469695D01*
X151257141Y-126669695D02*
X151085712Y-126669695D01*
X151085712Y-126669695D02*
X150914284Y-126707790D01*
X150914284Y-126707790D02*
X150828570Y-126745885D01*
X150828570Y-126745885D02*
X150742855Y-126822076D01*
X150742855Y-126822076D02*
X150657141Y-126974457D01*
X150657141Y-126974457D02*
X150657141Y-127164933D01*
X150657141Y-127164933D02*
X150742855Y-127317314D01*
X150742855Y-127317314D02*
X150828570Y-127393504D01*
X150828570Y-127393504D02*
X150914284Y-127431600D01*
X150914284Y-127431600D02*
X151085712Y-127469695D01*
X151085712Y-127469695D02*
X151257141Y-127469695D01*
X151257141Y-127469695D02*
X151428570Y-127431600D01*
X151428570Y-127431600D02*
X151514284Y-127393504D01*
X151514284Y-127393504D02*
X151599998Y-127317314D01*
X151599998Y-127317314D02*
X151685712Y-127164933D01*
X151685712Y-127164933D02*
X151685712Y-126974457D01*
X151685712Y-126974457D02*
X151599998Y-126822076D01*
X151599998Y-126822076D02*
X151514284Y-126745885D01*
X151514284Y-126745885D02*
X151428570Y-126707790D01*
X151428570Y-126707790D02*
X151257141Y-126669695D01*
X149114284Y-126669695D02*
X149457141Y-126669695D01*
X149457141Y-126669695D02*
X149628569Y-126707790D01*
X149628569Y-126707790D02*
X149714284Y-126745885D01*
X149714284Y-126745885D02*
X149885712Y-126860171D01*
X149885712Y-126860171D02*
X149971426Y-127012552D01*
X149971426Y-127012552D02*
X149971426Y-127317314D01*
X149971426Y-127317314D02*
X149885712Y-127393504D01*
X149885712Y-127393504D02*
X149799998Y-127431600D01*
X149799998Y-127431600D02*
X149628569Y-127469695D01*
X149628569Y-127469695D02*
X149285712Y-127469695D01*
X149285712Y-127469695D02*
X149114284Y-127431600D01*
X149114284Y-127431600D02*
X149028569Y-127393504D01*
X149028569Y-127393504D02*
X148942855Y-127317314D01*
X148942855Y-127317314D02*
X148942855Y-127126838D01*
X148942855Y-127126838D02*
X149028569Y-127050647D01*
X149028569Y-127050647D02*
X149114284Y-127012552D01*
X149114284Y-127012552D02*
X149285712Y-126974457D01*
X149285712Y-126974457D02*
X149628569Y-126974457D01*
X149628569Y-126974457D02*
X149799998Y-127012552D01*
X149799998Y-127012552D02*
X149885712Y-127050647D01*
X149885712Y-127050647D02*
X149971426Y-127126838D01*
X147057140Y-126936361D02*
X146371426Y-126936361D01*
X146799997Y-126669695D02*
X146799997Y-127355409D01*
X146799997Y-127355409D02*
X146714283Y-127431600D01*
X146714283Y-127431600D02*
X146542854Y-127469695D01*
X146542854Y-127469695D02*
X146371426Y-127469695D01*
X145771426Y-127469695D02*
X145771426Y-126669695D01*
X144999998Y-127469695D02*
X144999998Y-127050647D01*
X144999998Y-127050647D02*
X145085712Y-126974457D01*
X145085712Y-126974457D02*
X145257140Y-126936361D01*
X145257140Y-126936361D02*
X145514283Y-126936361D01*
X145514283Y-126936361D02*
X145685712Y-126974457D01*
X145685712Y-126974457D02*
X145771426Y-127012552D01*
X144142855Y-127469695D02*
X144142855Y-126936361D01*
X144142855Y-127088742D02*
X144057141Y-127012552D01*
X144057141Y-127012552D02*
X143971427Y-126974457D01*
X143971427Y-126974457D02*
X143799998Y-126936361D01*
X143799998Y-126936361D02*
X143628569Y-126936361D01*
X142257141Y-126936361D02*
X142257141Y-127469695D01*
X143028569Y-126936361D02*
X143028569Y-127355409D01*
X143028569Y-127355409D02*
X142942855Y-127431600D01*
X142942855Y-127431600D02*
X142771426Y-127469695D01*
X142771426Y-127469695D02*
X142514283Y-127469695D01*
X142514283Y-127469695D02*
X142342855Y-127431600D01*
X142342855Y-127431600D02*
X142257141Y-127393504D01*
X141399998Y-127469695D02*
X141399998Y-126669695D01*
X140628570Y-127469695D02*
X140628570Y-127050647D01*
X140628570Y-127050647D02*
X140714284Y-126974457D01*
X140714284Y-126974457D02*
X140885712Y-126936361D01*
X140885712Y-126936361D02*
X141142855Y-126936361D01*
X141142855Y-126936361D02*
X141314284Y-126974457D01*
X141314284Y-126974457D02*
X141399998Y-127012552D01*
X139514284Y-127469695D02*
X139685713Y-127431600D01*
X139685713Y-127431600D02*
X139771427Y-127393504D01*
X139771427Y-127393504D02*
X139857141Y-127317314D01*
X139857141Y-127317314D02*
X139857141Y-127088742D01*
X139857141Y-127088742D02*
X139771427Y-127012552D01*
X139771427Y-127012552D02*
X139685713Y-126974457D01*
X139685713Y-126974457D02*
X139514284Y-126936361D01*
X139514284Y-126936361D02*
X139257141Y-126936361D01*
X139257141Y-126936361D02*
X139085713Y-126974457D01*
X139085713Y-126974457D02*
X138999999Y-127012552D01*
X138999999Y-127012552D02*
X138914284Y-127088742D01*
X138914284Y-127088742D02*
X138914284Y-127317314D01*
X138914284Y-127317314D02*
X138999999Y-127393504D01*
X138999999Y-127393504D02*
X139085713Y-127431600D01*
X139085713Y-127431600D02*
X139257141Y-127469695D01*
X139257141Y-127469695D02*
X139514284Y-127469695D01*
X137885713Y-127469695D02*
X138057142Y-127431600D01*
X138057142Y-127431600D02*
X138142856Y-127355409D01*
X138142856Y-127355409D02*
X138142856Y-126669695D01*
X136514285Y-127431600D02*
X136685713Y-127469695D01*
X136685713Y-127469695D02*
X137028571Y-127469695D01*
X137028571Y-127469695D02*
X137199999Y-127431600D01*
X137199999Y-127431600D02*
X137285713Y-127355409D01*
X137285713Y-127355409D02*
X137285713Y-127050647D01*
X137285713Y-127050647D02*
X137199999Y-126974457D01*
X137199999Y-126974457D02*
X137028571Y-126936361D01*
X137028571Y-126936361D02*
X136685713Y-126936361D01*
X136685713Y-126936361D02*
X136514285Y-126974457D01*
X136514285Y-126974457D02*
X136428571Y-127050647D01*
X136428571Y-127050647D02*
X136428571Y-127126838D01*
X136428571Y-127126838D02*
X137285713Y-127203028D01*
D10*
X137491904Y-135934819D02*
X137491904Y-134934819D01*
X136920476Y-135934819D02*
X137349047Y-135363390D01*
X136920476Y-134934819D02*
X137491904Y-135506247D01*
X147485237Y-134934819D02*
X147294761Y-134934819D01*
X147294761Y-134934819D02*
X147199523Y-134982438D01*
X147199523Y-134982438D02*
X147104285Y-135077676D01*
X147104285Y-135077676D02*
X147056666Y-135268152D01*
X147056666Y-135268152D02*
X147056666Y-135601485D01*
X147056666Y-135601485D02*
X147104285Y-135791961D01*
X147104285Y-135791961D02*
X147199523Y-135887200D01*
X147199523Y-135887200D02*
X147294761Y-135934819D01*
X147294761Y-135934819D02*
X147485237Y-135934819D01*
X147485237Y-135934819D02*
X147580475Y-135887200D01*
X147580475Y-135887200D02*
X147675713Y-135791961D01*
X147675713Y-135791961D02*
X147723332Y-135601485D01*
X147723332Y-135601485D02*
X147723332Y-135268152D01*
X147723332Y-135268152D02*
X147675713Y-135077676D01*
X147675713Y-135077676D02*
X147580475Y-134982438D01*
X147580475Y-134982438D02*
X147485237Y-134934819D01*
X150201904Y-119164819D02*
X150201904Y-118164819D01*
X150201904Y-118164819D02*
X149820952Y-118164819D01*
X149820952Y-118164819D02*
X149725714Y-118212438D01*
X149725714Y-118212438D02*
X149678095Y-118260057D01*
X149678095Y-118260057D02*
X149630476Y-118355295D01*
X149630476Y-118355295D02*
X149630476Y-118498152D01*
X149630476Y-118498152D02*
X149678095Y-118593390D01*
X149678095Y-118593390D02*
X149725714Y-118641009D01*
X149725714Y-118641009D02*
X149820952Y-118688628D01*
X149820952Y-118688628D02*
X150201904Y-118688628D01*
X154700476Y-135934819D02*
X155033809Y-135458628D01*
X155271904Y-135934819D02*
X155271904Y-134934819D01*
X155271904Y-134934819D02*
X154890952Y-134934819D01*
X154890952Y-134934819D02*
X154795714Y-134982438D01*
X154795714Y-134982438D02*
X154748095Y-135030057D01*
X154748095Y-135030057D02*
X154700476Y-135125295D01*
X154700476Y-135125295D02*
X154700476Y-135268152D01*
X154700476Y-135268152D02*
X154748095Y-135363390D01*
X154748095Y-135363390D02*
X154795714Y-135411009D01*
X154795714Y-135411009D02*
X154890952Y-135458628D01*
X154890952Y-135458628D02*
X155271904Y-135458628D01*
X129905713Y-119164819D02*
X129905713Y-118164819D01*
X129905713Y-118641009D02*
X129334285Y-118641009D01*
X129334285Y-119164819D02*
X129334285Y-118164819D01*
X172799999Y-118688628D02*
X172799999Y-119164819D01*
X173133332Y-118164819D02*
X172799999Y-118688628D01*
X172799999Y-118688628D02*
X172466666Y-118164819D01*
X122214285Y-118641009D02*
X121880952Y-118641009D01*
X121738095Y-119164819D02*
X122214285Y-119164819D01*
X122214285Y-119164819D02*
X122214285Y-118164819D01*
X122214285Y-118164819D02*
X121738095Y-118164819D01*
X160385713Y-118164819D02*
X159814285Y-118164819D01*
X160099999Y-119164819D02*
X160099999Y-118164819D01*
D11*
X110907593Y-131176095D02*
X110907593Y-131127714D01*
X110907593Y-131127714D02*
X110883403Y-131079333D01*
X110883403Y-131079333D02*
X110859212Y-131055143D01*
X110859212Y-131055143D02*
X110810831Y-131030952D01*
X110810831Y-131030952D02*
X110714069Y-131006762D01*
X110714069Y-131006762D02*
X110593117Y-131006762D01*
X110593117Y-131006762D02*
X110496355Y-131030952D01*
X110496355Y-131030952D02*
X110447974Y-131055143D01*
X110447974Y-131055143D02*
X110423784Y-131079333D01*
X110423784Y-131079333D02*
X110399593Y-131127714D01*
X110399593Y-131127714D02*
X110399593Y-131176095D01*
X110399593Y-131176095D02*
X110423784Y-131224476D01*
X110423784Y-131224476D02*
X110447974Y-131248667D01*
X110447974Y-131248667D02*
X110496355Y-131272857D01*
X110496355Y-131272857D02*
X110593117Y-131297048D01*
X110593117Y-131297048D02*
X110714069Y-131297048D01*
X110714069Y-131297048D02*
X110810831Y-131272857D01*
X110810831Y-131272857D02*
X110859212Y-131248667D01*
X110859212Y-131248667D02*
X110883403Y-131224476D01*
X110883403Y-131224476D02*
X110907593Y-131176095D01*
X110738260Y-130571333D02*
X110399593Y-130571333D01*
X110931784Y-130692285D02*
X110568926Y-130813238D01*
X110568926Y-130813238D02*
X110568926Y-130498761D01*
D10*
X160375713Y-134934819D02*
X159804285Y-134934819D01*
X160089999Y-135934819D02*
X160089999Y-134934819D01*
X152089047Y-136030057D02*
X152184285Y-135982438D01*
X152184285Y-135982438D02*
X152279523Y-135887200D01*
X152279523Y-135887200D02*
X152422380Y-135744342D01*
X152422380Y-135744342D02*
X152517618Y-135696723D01*
X152517618Y-135696723D02*
X152612856Y-135696723D01*
X152565237Y-135934819D02*
X152660475Y-135887200D01*
X152660475Y-135887200D02*
X152755713Y-135791961D01*
X152755713Y-135791961D02*
X152803332Y-135601485D01*
X152803332Y-135601485D02*
X152803332Y-135268152D01*
X152803332Y-135268152D02*
X152755713Y-135077676D01*
X152755713Y-135077676D02*
X152660475Y-134982438D01*
X152660475Y-134982438D02*
X152565237Y-134934819D01*
X152565237Y-134934819D02*
X152374761Y-134934819D01*
X152374761Y-134934819D02*
X152279523Y-134982438D01*
X152279523Y-134982438D02*
X152184285Y-135077676D01*
X152184285Y-135077676D02*
X152136666Y-135268152D01*
X152136666Y-135268152D02*
X152136666Y-135601485D01*
X152136666Y-135601485D02*
X152184285Y-135791961D01*
X152184285Y-135791961D02*
X152279523Y-135887200D01*
X152279523Y-135887200D02*
X152374761Y-135934819D01*
X152374761Y-135934819D02*
X152565237Y-135934819D01*
D13*
X154457142Y-132535779D02*
X154528570Y-132573875D01*
X154528570Y-132573875D02*
X154742856Y-132611970D01*
X154742856Y-132611970D02*
X154885713Y-132611970D01*
X154885713Y-132611970D02*
X155099999Y-132573875D01*
X155099999Y-132573875D02*
X155242856Y-132497684D01*
X155242856Y-132497684D02*
X155314285Y-132421494D01*
X155314285Y-132421494D02*
X155385713Y-132269113D01*
X155385713Y-132269113D02*
X155385713Y-132154827D01*
X155385713Y-132154827D02*
X155314285Y-132002446D01*
X155314285Y-132002446D02*
X155242856Y-131926255D01*
X155242856Y-131926255D02*
X155099999Y-131850065D01*
X155099999Y-131850065D02*
X154885713Y-131811970D01*
X154885713Y-131811970D02*
X154742856Y-131811970D01*
X154742856Y-131811970D02*
X154528570Y-131850065D01*
X154528570Y-131850065D02*
X154457142Y-131888160D01*
X153814285Y-132535779D02*
X153742856Y-132573875D01*
X153742856Y-132573875D02*
X153814285Y-132611970D01*
X153814285Y-132611970D02*
X153885713Y-132573875D01*
X153885713Y-132573875D02*
X153814285Y-132535779D01*
X153814285Y-132535779D02*
X153814285Y-132611970D01*
X152599999Y-132192922D02*
X152385713Y-132231017D01*
X152385713Y-132231017D02*
X152314284Y-132269113D01*
X152314284Y-132269113D02*
X152242856Y-132345303D01*
X152242856Y-132345303D02*
X152242856Y-132459589D01*
X152242856Y-132459589D02*
X152314284Y-132535779D01*
X152314284Y-132535779D02*
X152385713Y-132573875D01*
X152385713Y-132573875D02*
X152528570Y-132611970D01*
X152528570Y-132611970D02*
X153099999Y-132611970D01*
X153099999Y-132611970D02*
X153099999Y-131811970D01*
X153099999Y-131811970D02*
X152599999Y-131811970D01*
X152599999Y-131811970D02*
X152457142Y-131850065D01*
X152457142Y-131850065D02*
X152385713Y-131888160D01*
X152385713Y-131888160D02*
X152314284Y-131964351D01*
X152314284Y-131964351D02*
X152314284Y-132040541D01*
X152314284Y-132040541D02*
X152385713Y-132116732D01*
X152385713Y-132116732D02*
X152457142Y-132154827D01*
X152457142Y-132154827D02*
X152599999Y-132192922D01*
X152599999Y-132192922D02*
X153099999Y-132192922D01*
X151599999Y-132611970D02*
X151599999Y-132078636D01*
X151599999Y-132231017D02*
X151528570Y-132154827D01*
X151528570Y-132154827D02*
X151457142Y-132116732D01*
X151457142Y-132116732D02*
X151314284Y-132078636D01*
X151314284Y-132078636D02*
X151171427Y-132078636D01*
X150457142Y-132611970D02*
X150599999Y-132573875D01*
X150599999Y-132573875D02*
X150671428Y-132535779D01*
X150671428Y-132535779D02*
X150742856Y-132459589D01*
X150742856Y-132459589D02*
X150742856Y-132231017D01*
X150742856Y-132231017D02*
X150671428Y-132154827D01*
X150671428Y-132154827D02*
X150599999Y-132116732D01*
X150599999Y-132116732D02*
X150457142Y-132078636D01*
X150457142Y-132078636D02*
X150242856Y-132078636D01*
X150242856Y-132078636D02*
X150099999Y-132116732D01*
X150099999Y-132116732D02*
X150028571Y-132154827D01*
X150028571Y-132154827D02*
X149957142Y-132231017D01*
X149957142Y-132231017D02*
X149957142Y-132459589D01*
X149957142Y-132459589D02*
X150028571Y-132535779D01*
X150028571Y-132535779D02*
X150099999Y-132573875D01*
X150099999Y-132573875D02*
X150242856Y-132611970D01*
X150242856Y-132611970D02*
X150457142Y-132611970D01*
X149099999Y-132611970D02*
X149242856Y-132573875D01*
X149242856Y-132573875D02*
X149314285Y-132535779D01*
X149314285Y-132535779D02*
X149385713Y-132459589D01*
X149385713Y-132459589D02*
X149385713Y-132231017D01*
X149385713Y-132231017D02*
X149314285Y-132154827D01*
X149314285Y-132154827D02*
X149242856Y-132116732D01*
X149242856Y-132116732D02*
X149099999Y-132078636D01*
X149099999Y-132078636D02*
X148885713Y-132078636D01*
X148885713Y-132078636D02*
X148742856Y-132116732D01*
X148742856Y-132116732D02*
X148671428Y-132154827D01*
X148671428Y-132154827D02*
X148599999Y-132231017D01*
X148599999Y-132231017D02*
X148599999Y-132459589D01*
X148599999Y-132459589D02*
X148671428Y-132535779D01*
X148671428Y-132535779D02*
X148742856Y-132573875D01*
X148742856Y-132573875D02*
X148885713Y-132611970D01*
X148885713Y-132611970D02*
X149099999Y-132611970D01*
X147957142Y-132611970D02*
X147957142Y-131811970D01*
X147814285Y-132307208D02*
X147385713Y-132611970D01*
X147385713Y-132078636D02*
X147957142Y-132383398D01*
X146814284Y-132573875D02*
X146671427Y-132611970D01*
X146671427Y-132611970D02*
X146385713Y-132611970D01*
X146385713Y-132611970D02*
X146242856Y-132573875D01*
X146242856Y-132573875D02*
X146171427Y-132497684D01*
X146171427Y-132497684D02*
X146171427Y-132459589D01*
X146171427Y-132459589D02*
X146242856Y-132383398D01*
X146242856Y-132383398D02*
X146385713Y-132345303D01*
X146385713Y-132345303D02*
X146599999Y-132345303D01*
X146599999Y-132345303D02*
X146742856Y-132307208D01*
X146742856Y-132307208D02*
X146814284Y-132231017D01*
X146814284Y-132231017D02*
X146814284Y-132192922D01*
X146814284Y-132192922D02*
X146742856Y-132116732D01*
X146742856Y-132116732D02*
X146599999Y-132078636D01*
X146599999Y-132078636D02*
X146385713Y-132078636D01*
X146385713Y-132078636D02*
X146242856Y-132116732D01*
X144457141Y-131888160D02*
X144385713Y-131850065D01*
X144385713Y-131850065D02*
X144242856Y-131811970D01*
X144242856Y-131811970D02*
X143885713Y-131811970D01*
X143885713Y-131811970D02*
X143742856Y-131850065D01*
X143742856Y-131850065D02*
X143671427Y-131888160D01*
X143671427Y-131888160D02*
X143599998Y-131964351D01*
X143599998Y-131964351D02*
X143599998Y-132040541D01*
X143599998Y-132040541D02*
X143671427Y-132154827D01*
X143671427Y-132154827D02*
X144528570Y-132611970D01*
X144528570Y-132611970D02*
X143599998Y-132611970D01*
X142671427Y-131811970D02*
X142528570Y-131811970D01*
X142528570Y-131811970D02*
X142385713Y-131850065D01*
X142385713Y-131850065D02*
X142314285Y-131888160D01*
X142314285Y-131888160D02*
X142242856Y-131964351D01*
X142242856Y-131964351D02*
X142171427Y-132116732D01*
X142171427Y-132116732D02*
X142171427Y-132307208D01*
X142171427Y-132307208D02*
X142242856Y-132459589D01*
X142242856Y-132459589D02*
X142314285Y-132535779D01*
X142314285Y-132535779D02*
X142385713Y-132573875D01*
X142385713Y-132573875D02*
X142528570Y-132611970D01*
X142528570Y-132611970D02*
X142671427Y-132611970D01*
X142671427Y-132611970D02*
X142814285Y-132573875D01*
X142814285Y-132573875D02*
X142885713Y-132535779D01*
X142885713Y-132535779D02*
X142957142Y-132459589D01*
X142957142Y-132459589D02*
X143028570Y-132307208D01*
X143028570Y-132307208D02*
X143028570Y-132116732D01*
X143028570Y-132116732D02*
X142957142Y-131964351D01*
X142957142Y-131964351D02*
X142885713Y-131888160D01*
X142885713Y-131888160D02*
X142814285Y-131850065D01*
X142814285Y-131850065D02*
X142671427Y-131811970D01*
X141599999Y-131888160D02*
X141528571Y-131850065D01*
X141528571Y-131850065D02*
X141385714Y-131811970D01*
X141385714Y-131811970D02*
X141028571Y-131811970D01*
X141028571Y-131811970D02*
X140885714Y-131850065D01*
X140885714Y-131850065D02*
X140814285Y-131888160D01*
X140814285Y-131888160D02*
X140742856Y-131964351D01*
X140742856Y-131964351D02*
X140742856Y-132040541D01*
X140742856Y-132040541D02*
X140814285Y-132154827D01*
X140814285Y-132154827D02*
X141671428Y-132611970D01*
X141671428Y-132611970D02*
X140742856Y-132611970D01*
X139385714Y-131811970D02*
X140100000Y-131811970D01*
X140100000Y-131811970D02*
X140171428Y-132192922D01*
X140171428Y-132192922D02*
X140100000Y-132154827D01*
X140100000Y-132154827D02*
X139957143Y-132116732D01*
X139957143Y-132116732D02*
X139600000Y-132116732D01*
X139600000Y-132116732D02*
X139457143Y-132154827D01*
X139457143Y-132154827D02*
X139385714Y-132192922D01*
X139385714Y-132192922D02*
X139314285Y-132269113D01*
X139314285Y-132269113D02*
X139314285Y-132459589D01*
X139314285Y-132459589D02*
X139385714Y-132535779D01*
X139385714Y-132535779D02*
X139457143Y-132573875D01*
X139457143Y-132573875D02*
X139600000Y-132611970D01*
X139600000Y-132611970D02*
X139957143Y-132611970D01*
X139957143Y-132611970D02*
X140100000Y-132573875D01*
X140100000Y-132573875D02*
X140171428Y-132535779D01*
D10*
X154710476Y-119164819D02*
X155043809Y-118688628D01*
X155281904Y-119164819D02*
X155281904Y-118164819D01*
X155281904Y-118164819D02*
X154900952Y-118164819D01*
X154900952Y-118164819D02*
X154805714Y-118212438D01*
X154805714Y-118212438D02*
X154758095Y-118260057D01*
X154758095Y-118260057D02*
X154710476Y-118355295D01*
X154710476Y-118355295D02*
X154710476Y-118498152D01*
X154710476Y-118498152D02*
X154758095Y-118593390D01*
X154758095Y-118593390D02*
X154805714Y-118641009D01*
X154805714Y-118641009D02*
X154900952Y-118688628D01*
X154900952Y-118688628D02*
X155281904Y-118688628D01*
X119721904Y-119164819D02*
X119721904Y-118164819D01*
X119721904Y-118164819D02*
X119483809Y-118164819D01*
X119483809Y-118164819D02*
X119340952Y-118212438D01*
X119340952Y-118212438D02*
X119245714Y-118307676D01*
X119245714Y-118307676D02*
X119198095Y-118402914D01*
X119198095Y-118402914D02*
X119150476Y-118593390D01*
X119150476Y-118593390D02*
X119150476Y-118736247D01*
X119150476Y-118736247D02*
X119198095Y-118926723D01*
X119198095Y-118926723D02*
X119245714Y-119021961D01*
X119245714Y-119021961D02*
X119340952Y-119117200D01*
X119340952Y-119117200D02*
X119483809Y-119164819D01*
X119483809Y-119164819D02*
X119721904Y-119164819D01*
D11*
X110907593Y-128636095D02*
X110907593Y-128587714D01*
X110907593Y-128587714D02*
X110883403Y-128539333D01*
X110883403Y-128539333D02*
X110859212Y-128515143D01*
X110859212Y-128515143D02*
X110810831Y-128490952D01*
X110810831Y-128490952D02*
X110714069Y-128466762D01*
X110714069Y-128466762D02*
X110593117Y-128466762D01*
X110593117Y-128466762D02*
X110496355Y-128490952D01*
X110496355Y-128490952D02*
X110447974Y-128515143D01*
X110447974Y-128515143D02*
X110423784Y-128539333D01*
X110423784Y-128539333D02*
X110399593Y-128587714D01*
X110399593Y-128587714D02*
X110399593Y-128636095D01*
X110399593Y-128636095D02*
X110423784Y-128684476D01*
X110423784Y-128684476D02*
X110447974Y-128708667D01*
X110447974Y-128708667D02*
X110496355Y-128732857D01*
X110496355Y-128732857D02*
X110593117Y-128757048D01*
X110593117Y-128757048D02*
X110714069Y-128757048D01*
X110714069Y-128757048D02*
X110810831Y-128732857D01*
X110810831Y-128732857D02*
X110859212Y-128708667D01*
X110859212Y-128708667D02*
X110883403Y-128684476D01*
X110883403Y-128684476D02*
X110907593Y-128636095D01*
X110907593Y-128297428D02*
X110907593Y-127982952D01*
X110907593Y-127982952D02*
X110714069Y-128152285D01*
X110714069Y-128152285D02*
X110714069Y-128079714D01*
X110714069Y-128079714D02*
X110689879Y-128031333D01*
X110689879Y-128031333D02*
X110665688Y-128007142D01*
X110665688Y-128007142D02*
X110617307Y-127982952D01*
X110617307Y-127982952D02*
X110496355Y-127982952D01*
X110496355Y-127982952D02*
X110447974Y-128007142D01*
X110447974Y-128007142D02*
X110423784Y-128031333D01*
X110423784Y-128031333D02*
X110399593Y-128079714D01*
X110399593Y-128079714D02*
X110399593Y-128224857D01*
X110399593Y-128224857D02*
X110423784Y-128273238D01*
X110423784Y-128273238D02*
X110447974Y-128297428D01*
D10*
X112068094Y-135649104D02*
X111591904Y-135649104D01*
X112163332Y-135934819D02*
X111829999Y-134934819D01*
X111829999Y-134934819D02*
X111496666Y-135934819D01*
X175673332Y-118164819D02*
X175006666Y-118164819D01*
X175006666Y-118164819D02*
X175673332Y-119164819D01*
X175673332Y-119164819D02*
X175006666Y-119164819D01*
X142643332Y-135934819D02*
X142643332Y-134934819D01*
X142643332Y-134934819D02*
X142309999Y-135649104D01*
X142309999Y-135649104D02*
X141976666Y-134934819D01*
X141976666Y-134934819D02*
X141976666Y-135934819D01*
X157835713Y-135887200D02*
X157692856Y-135934819D01*
X157692856Y-135934819D02*
X157454761Y-135934819D01*
X157454761Y-135934819D02*
X157359523Y-135887200D01*
X157359523Y-135887200D02*
X157311904Y-135839580D01*
X157311904Y-135839580D02*
X157264285Y-135744342D01*
X157264285Y-135744342D02*
X157264285Y-135649104D01*
X157264285Y-135649104D02*
X157311904Y-135553866D01*
X157311904Y-135553866D02*
X157359523Y-135506247D01*
X157359523Y-135506247D02*
X157454761Y-135458628D01*
X157454761Y-135458628D02*
X157645237Y-135411009D01*
X157645237Y-135411009D02*
X157740475Y-135363390D01*
X157740475Y-135363390D02*
X157788094Y-135315771D01*
X157788094Y-135315771D02*
X157835713Y-135220533D01*
X157835713Y-135220533D02*
X157835713Y-135125295D01*
X157835713Y-135125295D02*
X157788094Y-135030057D01*
X157788094Y-135030057D02*
X157740475Y-134982438D01*
X157740475Y-134982438D02*
X157645237Y-134934819D01*
X157645237Y-134934819D02*
X157407142Y-134934819D01*
X157407142Y-134934819D02*
X157264285Y-134982438D01*
X178118094Y-118879104D02*
X177641904Y-118879104D01*
X178213332Y-119164819D02*
X177879999Y-118164819D01*
X177879999Y-118164819D02*
X177546666Y-119164819D01*
X152099047Y-119260057D02*
X152194285Y-119212438D01*
X152194285Y-119212438D02*
X152289523Y-119117200D01*
X152289523Y-119117200D02*
X152432380Y-118974342D01*
X152432380Y-118974342D02*
X152527618Y-118926723D01*
X152527618Y-118926723D02*
X152622856Y-118926723D01*
X152575237Y-119164819D02*
X152670475Y-119117200D01*
X152670475Y-119117200D02*
X152765713Y-119021961D01*
X152765713Y-119021961D02*
X152813332Y-118831485D01*
X152813332Y-118831485D02*
X152813332Y-118498152D01*
X152813332Y-118498152D02*
X152765713Y-118307676D01*
X152765713Y-118307676D02*
X152670475Y-118212438D01*
X152670475Y-118212438D02*
X152575237Y-118164819D01*
X152575237Y-118164819D02*
X152384761Y-118164819D01*
X152384761Y-118164819D02*
X152289523Y-118212438D01*
X152289523Y-118212438D02*
X152194285Y-118307676D01*
X152194285Y-118307676D02*
X152146666Y-118498152D01*
X152146666Y-118498152D02*
X152146666Y-118831485D01*
X152146666Y-118831485D02*
X152194285Y-119021961D01*
X152194285Y-119021961D02*
X152289523Y-119117200D01*
X152289523Y-119117200D02*
X152384761Y-119164819D01*
X152384761Y-119164819D02*
X152575237Y-119164819D01*
X116610476Y-119069580D02*
X116658095Y-119117200D01*
X116658095Y-119117200D02*
X116800952Y-119164819D01*
X116800952Y-119164819D02*
X116896190Y-119164819D01*
X116896190Y-119164819D02*
X117039047Y-119117200D01*
X117039047Y-119117200D02*
X117134285Y-119021961D01*
X117134285Y-119021961D02*
X117181904Y-118926723D01*
X117181904Y-118926723D02*
X117229523Y-118736247D01*
X117229523Y-118736247D02*
X117229523Y-118593390D01*
X117229523Y-118593390D02*
X117181904Y-118402914D01*
X117181904Y-118402914D02*
X117134285Y-118307676D01*
X117134285Y-118307676D02*
X117039047Y-118212438D01*
X117039047Y-118212438D02*
X116896190Y-118164819D01*
X116896190Y-118164819D02*
X116800952Y-118164819D01*
X116800952Y-118164819D02*
X116658095Y-118212438D01*
X116658095Y-118212438D02*
X116610476Y-118260057D01*
X168138570Y-134934819D02*
X167900475Y-135934819D01*
X167900475Y-135934819D02*
X167709999Y-135220533D01*
X167709999Y-135220533D02*
X167519523Y-135934819D01*
X167519523Y-135934819D02*
X167281428Y-134934819D01*
D11*
X110907593Y-123556095D02*
X110907593Y-123507714D01*
X110907593Y-123507714D02*
X110883403Y-123459333D01*
X110883403Y-123459333D02*
X110859212Y-123435143D01*
X110859212Y-123435143D02*
X110810831Y-123410952D01*
X110810831Y-123410952D02*
X110714069Y-123386762D01*
X110714069Y-123386762D02*
X110593117Y-123386762D01*
X110593117Y-123386762D02*
X110496355Y-123410952D01*
X110496355Y-123410952D02*
X110447974Y-123435143D01*
X110447974Y-123435143D02*
X110423784Y-123459333D01*
X110423784Y-123459333D02*
X110399593Y-123507714D01*
X110399593Y-123507714D02*
X110399593Y-123556095D01*
X110399593Y-123556095D02*
X110423784Y-123604476D01*
X110423784Y-123604476D02*
X110447974Y-123628667D01*
X110447974Y-123628667D02*
X110496355Y-123652857D01*
X110496355Y-123652857D02*
X110593117Y-123677048D01*
X110593117Y-123677048D02*
X110714069Y-123677048D01*
X110714069Y-123677048D02*
X110810831Y-123652857D01*
X110810831Y-123652857D02*
X110859212Y-123628667D01*
X110859212Y-123628667D02*
X110883403Y-123604476D01*
X110883403Y-123604476D02*
X110907593Y-123556095D01*
X110399593Y-122902952D02*
X110399593Y-123193238D01*
X110399593Y-123048095D02*
X110907593Y-123048095D01*
X110907593Y-123048095D02*
X110835022Y-123096476D01*
X110835022Y-123096476D02*
X110786641Y-123144857D01*
X110786641Y-123144857D02*
X110762450Y-123193238D01*
X181388406Y-128103904D02*
X181388406Y-128152285D01*
X181388406Y-128152285D02*
X181412596Y-128200666D01*
X181412596Y-128200666D02*
X181436787Y-128224856D01*
X181436787Y-128224856D02*
X181485168Y-128249047D01*
X181485168Y-128249047D02*
X181581930Y-128273237D01*
X181581930Y-128273237D02*
X181702882Y-128273237D01*
X181702882Y-128273237D02*
X181799644Y-128249047D01*
X181799644Y-128249047D02*
X181848025Y-128224856D01*
X181848025Y-128224856D02*
X181872216Y-128200666D01*
X181872216Y-128200666D02*
X181896406Y-128152285D01*
X181896406Y-128152285D02*
X181896406Y-128103904D01*
X181896406Y-128103904D02*
X181872216Y-128055523D01*
X181872216Y-128055523D02*
X181848025Y-128031332D01*
X181848025Y-128031332D02*
X181799644Y-128007142D01*
X181799644Y-128007142D02*
X181702882Y-127982951D01*
X181702882Y-127982951D02*
X181581930Y-127982951D01*
X181581930Y-127982951D02*
X181485168Y-128007142D01*
X181485168Y-128007142D02*
X181436787Y-128031332D01*
X181436787Y-128031332D02*
X181412596Y-128055523D01*
X181412596Y-128055523D02*
X181388406Y-128103904D01*
X181388406Y-128442571D02*
X181388406Y-128757047D01*
X181388406Y-128757047D02*
X181581930Y-128587714D01*
X181581930Y-128587714D02*
X181581930Y-128660285D01*
X181581930Y-128660285D02*
X181606120Y-128708666D01*
X181606120Y-128708666D02*
X181630311Y-128732857D01*
X181630311Y-128732857D02*
X181678692Y-128757047D01*
X181678692Y-128757047D02*
X181799644Y-128757047D01*
X181799644Y-128757047D02*
X181848025Y-128732857D01*
X181848025Y-128732857D02*
X181872216Y-128708666D01*
X181872216Y-128708666D02*
X181896406Y-128660285D01*
X181896406Y-128660285D02*
X181896406Y-128515142D01*
X181896406Y-128515142D02*
X181872216Y-128466761D01*
X181872216Y-128466761D02*
X181848025Y-128442571D01*
D10*
X137501904Y-119164819D02*
X137501904Y-118164819D01*
X136930476Y-119164819D02*
X137359047Y-118593390D01*
X136930476Y-118164819D02*
X137501904Y-118736247D01*
X142653332Y-119164819D02*
X142653332Y-118164819D01*
X142653332Y-118164819D02*
X142319999Y-118879104D01*
X142319999Y-118879104D02*
X141986666Y-118164819D01*
X141986666Y-118164819D02*
X141986666Y-119164819D01*
X165513332Y-118164819D02*
X165179999Y-119164819D01*
X165179999Y-119164819D02*
X164846666Y-118164819D01*
D11*
X110907593Y-126096095D02*
X110907593Y-126047714D01*
X110907593Y-126047714D02*
X110883403Y-125999333D01*
X110883403Y-125999333D02*
X110859212Y-125975143D01*
X110859212Y-125975143D02*
X110810831Y-125950952D01*
X110810831Y-125950952D02*
X110714069Y-125926762D01*
X110714069Y-125926762D02*
X110593117Y-125926762D01*
X110593117Y-125926762D02*
X110496355Y-125950952D01*
X110496355Y-125950952D02*
X110447974Y-125975143D01*
X110447974Y-125975143D02*
X110423784Y-125999333D01*
X110423784Y-125999333D02*
X110399593Y-126047714D01*
X110399593Y-126047714D02*
X110399593Y-126096095D01*
X110399593Y-126096095D02*
X110423784Y-126144476D01*
X110423784Y-126144476D02*
X110447974Y-126168667D01*
X110447974Y-126168667D02*
X110496355Y-126192857D01*
X110496355Y-126192857D02*
X110593117Y-126217048D01*
X110593117Y-126217048D02*
X110714069Y-126217048D01*
X110714069Y-126217048D02*
X110810831Y-126192857D01*
X110810831Y-126192857D02*
X110859212Y-126168667D01*
X110859212Y-126168667D02*
X110883403Y-126144476D01*
X110883403Y-126144476D02*
X110907593Y-126096095D01*
X110859212Y-125733238D02*
X110883403Y-125709047D01*
X110883403Y-125709047D02*
X110907593Y-125660666D01*
X110907593Y-125660666D02*
X110907593Y-125539714D01*
X110907593Y-125539714D02*
X110883403Y-125491333D01*
X110883403Y-125491333D02*
X110859212Y-125467142D01*
X110859212Y-125467142D02*
X110810831Y-125442952D01*
X110810831Y-125442952D02*
X110762450Y-125442952D01*
X110762450Y-125442952D02*
X110689879Y-125467142D01*
X110689879Y-125467142D02*
X110399593Y-125757428D01*
X110399593Y-125757428D02*
X110399593Y-125442952D01*
D10*
X175663332Y-134934819D02*
X174996666Y-134934819D01*
X174996666Y-134934819D02*
X175663332Y-135934819D01*
X175663332Y-135934819D02*
X174996666Y-135934819D01*
X139460476Y-135934819D02*
X139936666Y-135934819D01*
X139936666Y-135934819D02*
X139936666Y-134934819D01*
X126818095Y-118212438D02*
X126913333Y-118164819D01*
X126913333Y-118164819D02*
X127056190Y-118164819D01*
X127056190Y-118164819D02*
X127199047Y-118212438D01*
X127199047Y-118212438D02*
X127294285Y-118307676D01*
X127294285Y-118307676D02*
X127341904Y-118402914D01*
X127341904Y-118402914D02*
X127389523Y-118593390D01*
X127389523Y-118593390D02*
X127389523Y-118736247D01*
X127389523Y-118736247D02*
X127341904Y-118926723D01*
X127341904Y-118926723D02*
X127294285Y-119021961D01*
X127294285Y-119021961D02*
X127199047Y-119117200D01*
X127199047Y-119117200D02*
X127056190Y-119164819D01*
X127056190Y-119164819D02*
X126960952Y-119164819D01*
X126960952Y-119164819D02*
X126818095Y-119117200D01*
X126818095Y-119117200D02*
X126770476Y-119069580D01*
X126770476Y-119069580D02*
X126770476Y-118736247D01*
X126770476Y-118736247D02*
X126960952Y-118736247D01*
X134557142Y-118164819D02*
X134557142Y-118879104D01*
X134557142Y-118879104D02*
X134604761Y-119021961D01*
X134604761Y-119021961D02*
X134699999Y-119117200D01*
X134699999Y-119117200D02*
X134842856Y-119164819D01*
X134842856Y-119164819D02*
X134938094Y-119164819D01*
X178108094Y-135649104D02*
X177631904Y-135649104D01*
X178203332Y-135934819D02*
X177869999Y-134934819D01*
X177869999Y-134934819D02*
X177536666Y-135934819D01*
D11*
X181388406Y-123023904D02*
X181388406Y-123072285D01*
X181388406Y-123072285D02*
X181412596Y-123120666D01*
X181412596Y-123120666D02*
X181436787Y-123144856D01*
X181436787Y-123144856D02*
X181485168Y-123169047D01*
X181485168Y-123169047D02*
X181581930Y-123193237D01*
X181581930Y-123193237D02*
X181702882Y-123193237D01*
X181702882Y-123193237D02*
X181799644Y-123169047D01*
X181799644Y-123169047D02*
X181848025Y-123144856D01*
X181848025Y-123144856D02*
X181872216Y-123120666D01*
X181872216Y-123120666D02*
X181896406Y-123072285D01*
X181896406Y-123072285D02*
X181896406Y-123023904D01*
X181896406Y-123023904D02*
X181872216Y-122975523D01*
X181872216Y-122975523D02*
X181848025Y-122951332D01*
X181848025Y-122951332D02*
X181799644Y-122927142D01*
X181799644Y-122927142D02*
X181702882Y-122902951D01*
X181702882Y-122902951D02*
X181581930Y-122902951D01*
X181581930Y-122902951D02*
X181485168Y-122927142D01*
X181485168Y-122927142D02*
X181436787Y-122951332D01*
X181436787Y-122951332D02*
X181412596Y-122975523D01*
X181412596Y-122975523D02*
X181388406Y-123023904D01*
X181896406Y-123677047D02*
X181896406Y-123386761D01*
X181896406Y-123531904D02*
X181388406Y-123531904D01*
X181388406Y-123531904D02*
X181460977Y-123483523D01*
X181460977Y-123483523D02*
X181509358Y-123435142D01*
X181509358Y-123435142D02*
X181533549Y-123386761D01*
D10*
X132159999Y-119164819D02*
X132159999Y-118164819D01*
X112078094Y-118879104D02*
X111601904Y-118879104D01*
X112173332Y-119164819D02*
X111839999Y-118164819D01*
X111839999Y-118164819D02*
X111506666Y-119164819D01*
X132149999Y-135934819D02*
X132149999Y-134934819D01*
%LPC*%
D14*
%TO.C,REF\u002A\u002A*%
X108730000Y-134530000D03*
%TD*%
%TO.C,REF\u002A\u002A*%
X183530000Y-119730000D03*
%TD*%
%TO.C,REF\u002A\u002A*%
X108730000Y-119730000D03*
%TD*%
%TO.C,REF\u002A\u002A*%
X183530000Y-134530000D03*
%TD*%
D15*
%TO.C,*%
X183710000Y-125830000D03*
%TD*%
%TO.C,REF\u002A\u002A*%
X183710000Y-130910000D03*
%TD*%
%TO.C,*%
X108530000Y-123290000D03*
%TD*%
%TO.C,REF\u002A\u002A*%
X108530000Y-130910000D03*
%TD*%
%TO.C,*%
X108530000Y-125830000D03*
%TD*%
%TO.C,*%
X108530000Y-128370000D03*
%TD*%
%TO.C,*%
X183710000Y-123290000D03*
%TD*%
%TO.C,*%
X183710000Y-128370000D03*
%TD*%
D16*
X162632000Y-130910000D03*
X165172000Y-130910000D03*
X167712000Y-130910000D03*
X180412000Y-130910000D03*
X132152000Y-128370000D03*
X111832000Y-130910000D03*
X114372000Y-128370000D03*
X137232000Y-128370000D03*
X142312000Y-128370000D03*
X157552000Y-120750000D03*
X160092000Y-128370000D03*
X139772000Y-133450000D03*
X142312000Y-133450000D03*
X116912000Y-133450000D03*
X127072000Y-128370000D03*
X144852000Y-133450000D03*
X147392000Y-133450000D03*
X160092000Y-120750000D03*
X132152000Y-130910000D03*
X144852000Y-120750000D03*
X111832000Y-128370000D03*
X121992000Y-125830000D03*
X129612000Y-125830000D03*
X124532000Y-128370000D03*
X111832000Y-125830000D03*
X155012000Y-123290000D03*
X147392000Y-128370000D03*
X160092000Y-133450000D03*
X157552000Y-125830000D03*
X162632000Y-133450000D03*
X165172000Y-133450000D03*
X167712000Y-133450000D03*
X180412000Y-133450000D03*
X167712000Y-125830000D03*
X121992000Y-120750000D03*
X132152000Y-123290000D03*
X121992000Y-133450000D03*
X124532000Y-123290000D03*
X129612000Y-120750000D03*
X160092000Y-130910000D03*
X111832000Y-133450000D03*
X149932000Y-130910000D03*
X127072000Y-125830000D03*
X124532000Y-120750000D03*
X147392000Y-120750000D03*
X114372000Y-133450000D03*
X165172000Y-123290000D03*
X165172000Y-125830000D03*
X167712000Y-120750000D03*
X180412000Y-120750000D03*
X162632000Y-128370000D03*
X165172000Y-128370000D03*
X162632000Y-120750000D03*
X165172000Y-120750000D03*
X167712000Y-123290000D03*
X139772000Y-128370000D03*
X121992000Y-130910000D03*
X124532000Y-130910000D03*
X160092000Y-125830000D03*
X157552000Y-130910000D03*
X155012000Y-120750000D03*
X114372000Y-130910000D03*
X127072000Y-123290000D03*
X132152000Y-120750000D03*
X121992000Y-123290000D03*
X152472000Y-123290000D03*
X119452000Y-120750000D03*
X149932000Y-120750000D03*
X152472000Y-128370000D03*
X139772000Y-130910000D03*
X142312000Y-130910000D03*
X144852000Y-130910000D03*
X147392000Y-130910000D03*
X144852000Y-128370000D03*
X119452000Y-125830000D03*
X144852000Y-123290000D03*
X134692000Y-128370000D03*
X129612000Y-128370000D03*
X137232000Y-125830000D03*
X127072000Y-133450000D03*
X137232000Y-120750000D03*
X111832000Y-123290000D03*
X114372000Y-123290000D03*
X147392000Y-125830000D03*
X157552000Y-123290000D03*
X147392000Y-123290000D03*
X149932000Y-123290000D03*
X152472000Y-125830000D03*
X134692000Y-123290000D03*
X127072000Y-120750000D03*
X116912000Y-128370000D03*
X152472000Y-130910000D03*
X155012000Y-130910000D03*
X149932000Y-128370000D03*
X139772000Y-120750000D03*
X132152000Y-125830000D03*
X119452000Y-123290000D03*
X144852000Y-125830000D03*
X116912000Y-123290000D03*
X134692000Y-125830000D03*
X119452000Y-128370000D03*
X121992000Y-128370000D03*
X134692000Y-130910000D03*
X137232000Y-130910000D03*
X157552000Y-128370000D03*
X155012000Y-125830000D03*
X139772000Y-123290000D03*
X162632000Y-123290000D03*
X111832000Y-120750000D03*
X180412000Y-123290000D03*
X167712000Y-128370000D03*
X180412000Y-128370000D03*
X180412000Y-125830000D03*
X162632000Y-125830000D03*
X134692000Y-120750000D03*
X124532000Y-125830000D03*
X137232000Y-123290000D03*
X157552000Y-133450000D03*
X116912000Y-120750000D03*
X116912000Y-130910000D03*
X119452000Y-130910000D03*
X149932000Y-133450000D03*
X152472000Y-133450000D03*
X155012000Y-133450000D03*
X129612000Y-133450000D03*
X132152000Y-133450000D03*
X124532000Y-133450000D03*
X134692000Y-133450000D03*
X137232000Y-133450000D03*
X119452000Y-133450000D03*
X152472000Y-120750000D03*
X139772000Y-125830000D03*
X142312000Y-125830000D03*
X114372000Y-125830000D03*
X116912000Y-125830000D03*
X160092000Y-123290000D03*
X142312000Y-123290000D03*
X114372000Y-120750000D03*
X149932000Y-125830000D03*
X127072000Y-130910000D03*
X129612000Y-130910000D03*
X155012000Y-128370000D03*
X142312000Y-120750000D03*
X129612000Y-123290000D03*
X170252000Y-130910000D03*
X172792000Y-130910000D03*
X175332000Y-130910000D03*
X177872000Y-130910000D03*
X170252000Y-133450000D03*
X172792000Y-133450000D03*
X175332000Y-133450000D03*
X177872000Y-133450000D03*
X170252000Y-125830000D03*
X172792000Y-125830000D03*
X175332000Y-125830000D03*
X177872000Y-125830000D03*
X170252000Y-120750000D03*
X172792000Y-120750000D03*
X175332000Y-120750000D03*
X177872000Y-120750000D03*
X170252000Y-123290000D03*
X172792000Y-123290000D03*
X175332000Y-123290000D03*
X177872000Y-123290000D03*
X170252000Y-128370000D03*
X172792000Y-128370000D03*
X175332000Y-128370000D03*
X177872000Y-128370000D03*
%LPD*%
M02*
