%TF.GenerationSoftware,KiCad,Pcbnew,9.0.1*%
%TF.CreationDate,2026-01-25T18:17:39-05:00*%
%TF.ProjectId,classic-protoboard_6x28,636c6173-7369-4632-9d70-726f746f626f,rev?*%
%TF.SameCoordinates,Original*%
%TF.FileFunction,Legend,Bot*%
%TF.FilePolarity,Positive*%
%FSLAX46Y46*%
G04 Gerber Fmt 4.6, Leading zero omitted, Abs format (unit mm)*
G04 Created by KiCad (PCBNEW 9.0.1) date 2026-01-25 18:17:39*
%MOMM*%
%LPD*%
G01*
G04 APERTURE LIST*
%ADD10C,0.150000*%
%ADD11C,0.127000*%
%ADD12C,2.300000*%
%ADD13O,3.148000X1.624000*%
%ADD14C,2.100000*%
G04 APERTURE END LIST*
D10*
X126808095Y-134982438D02*
X126903333Y-134934819D01*
X126903333Y-134934819D02*
X127046190Y-134934819D01*
X127046190Y-134934819D02*
X127189047Y-134982438D01*
X127189047Y-134982438D02*
X127284285Y-135077676D01*
X127284285Y-135077676D02*
X127331904Y-135172914D01*
X127331904Y-135172914D02*
X127379523Y-135363390D01*
X127379523Y-135363390D02*
X127379523Y-135506247D01*
X127379523Y-135506247D02*
X127331904Y-135696723D01*
X127331904Y-135696723D02*
X127284285Y-135791961D01*
X127284285Y-135791961D02*
X127189047Y-135887200D01*
X127189047Y-135887200D02*
X127046190Y-135934819D01*
X127046190Y-135934819D02*
X126950952Y-135934819D01*
X126950952Y-135934819D02*
X126808095Y-135887200D01*
X126808095Y-135887200D02*
X126760476Y-135839580D01*
X126760476Y-135839580D02*
X126760476Y-135506247D01*
X126760476Y-135506247D02*
X126950952Y-135506247D01*
D11*
X181388406Y-125563904D02*
X181388406Y-125612285D01*
X181388406Y-125612285D02*
X181412596Y-125660666D01*
X181412596Y-125660666D02*
X181436787Y-125684856D01*
X181436787Y-125684856D02*
X181485168Y-125709047D01*
X181485168Y-125709047D02*
X181581930Y-125733237D01*
X181581930Y-125733237D02*
X181702882Y-125733237D01*
X181702882Y-125733237D02*
X181799644Y-125709047D01*
X181799644Y-125709047D02*
X181848025Y-125684856D01*
X181848025Y-125684856D02*
X181872216Y-125660666D01*
X181872216Y-125660666D02*
X181896406Y-125612285D01*
X181896406Y-125612285D02*
X181896406Y-125563904D01*
X181896406Y-125563904D02*
X181872216Y-125515523D01*
X181872216Y-125515523D02*
X181848025Y-125491332D01*
X181848025Y-125491332D02*
X181799644Y-125467142D01*
X181799644Y-125467142D02*
X181702882Y-125442951D01*
X181702882Y-125442951D02*
X181581930Y-125442951D01*
X181581930Y-125442951D02*
X181485168Y-125467142D01*
X181485168Y-125467142D02*
X181436787Y-125491332D01*
X181436787Y-125491332D02*
X181412596Y-125515523D01*
X181412596Y-125515523D02*
X181388406Y-125563904D01*
X181436787Y-125926761D02*
X181412596Y-125950952D01*
X181412596Y-125950952D02*
X181388406Y-125999333D01*
X181388406Y-125999333D02*
X181388406Y-126120285D01*
X181388406Y-126120285D02*
X181412596Y-126168666D01*
X181412596Y-126168666D02*
X181436787Y-126192857D01*
X181436787Y-126192857D02*
X181485168Y-126217047D01*
X181485168Y-126217047D02*
X181533549Y-126217047D01*
X181533549Y-126217047D02*
X181606120Y-126192857D01*
X181606120Y-126192857D02*
X181896406Y-125902571D01*
X181896406Y-125902571D02*
X181896406Y-126217047D01*
D10*
X168148570Y-118164819D02*
X167910475Y-119164819D01*
X167910475Y-119164819D02*
X167719999Y-118450533D01*
X167719999Y-118450533D02*
X167529523Y-119164819D01*
X167529523Y-119164819D02*
X167291428Y-118164819D01*
X114298571Y-135411009D02*
X114155714Y-135458628D01*
X114155714Y-135458628D02*
X114108095Y-135506247D01*
X114108095Y-135506247D02*
X114060476Y-135601485D01*
X114060476Y-135601485D02*
X114060476Y-135744342D01*
X114060476Y-135744342D02*
X114108095Y-135839580D01*
X114108095Y-135839580D02*
X114155714Y-135887200D01*
X114155714Y-135887200D02*
X114250952Y-135934819D01*
X114250952Y-135934819D02*
X114631904Y-135934819D01*
X114631904Y-135934819D02*
X114631904Y-134934819D01*
X114631904Y-134934819D02*
X114298571Y-134934819D01*
X114298571Y-134934819D02*
X114203333Y-134982438D01*
X114203333Y-134982438D02*
X114155714Y-135030057D01*
X114155714Y-135030057D02*
X114108095Y-135125295D01*
X114108095Y-135125295D02*
X114108095Y-135220533D01*
X114108095Y-135220533D02*
X114155714Y-135315771D01*
X114155714Y-135315771D02*
X114203333Y-135363390D01*
X114203333Y-135363390D02*
X114298571Y-135411009D01*
X114298571Y-135411009D02*
X114631904Y-135411009D01*
X150191904Y-135934819D02*
X150191904Y-134934819D01*
X150191904Y-134934819D02*
X149810952Y-134934819D01*
X149810952Y-134934819D02*
X149715714Y-134982438D01*
X149715714Y-134982438D02*
X149668095Y-135030057D01*
X149668095Y-135030057D02*
X149620476Y-135125295D01*
X149620476Y-135125295D02*
X149620476Y-135268152D01*
X149620476Y-135268152D02*
X149668095Y-135363390D01*
X149668095Y-135363390D02*
X149715714Y-135411009D01*
X149715714Y-135411009D02*
X149810952Y-135458628D01*
X149810952Y-135458628D02*
X150191904Y-135458628D01*
X147495237Y-118164819D02*
X147304761Y-118164819D01*
X147304761Y-118164819D02*
X147209523Y-118212438D01*
X147209523Y-118212438D02*
X147114285Y-118307676D01*
X147114285Y-118307676D02*
X147066666Y-118498152D01*
X147066666Y-118498152D02*
X147066666Y-118831485D01*
X147066666Y-118831485D02*
X147114285Y-119021961D01*
X147114285Y-119021961D02*
X147209523Y-119117200D01*
X147209523Y-119117200D02*
X147304761Y-119164819D01*
X147304761Y-119164819D02*
X147495237Y-119164819D01*
X147495237Y-119164819D02*
X147590475Y-119117200D01*
X147590475Y-119117200D02*
X147685713Y-119021961D01*
X147685713Y-119021961D02*
X147733332Y-118831485D01*
X147733332Y-118831485D02*
X147733332Y-118498152D01*
X147733332Y-118498152D02*
X147685713Y-118307676D01*
X147685713Y-118307676D02*
X147590475Y-118212438D01*
X147590475Y-118212438D02*
X147495237Y-118164819D01*
X170593332Y-118164819D02*
X169926666Y-119164819D01*
X169926666Y-118164819D02*
X170593332Y-119164819D01*
X124387142Y-135411009D02*
X124720475Y-135411009D01*
X124720475Y-135934819D02*
X124720475Y-134934819D01*
X124720475Y-134934819D02*
X124244285Y-134934819D01*
X116600476Y-135839580D02*
X116648095Y-135887200D01*
X116648095Y-135887200D02*
X116790952Y-135934819D01*
X116790952Y-135934819D02*
X116886190Y-135934819D01*
X116886190Y-135934819D02*
X117029047Y-135887200D01*
X117029047Y-135887200D02*
X117124285Y-135791961D01*
X117124285Y-135791961D02*
X117171904Y-135696723D01*
X117171904Y-135696723D02*
X117219523Y-135506247D01*
X117219523Y-135506247D02*
X117219523Y-135363390D01*
X117219523Y-135363390D02*
X117171904Y-135172914D01*
X117171904Y-135172914D02*
X117124285Y-135077676D01*
X117124285Y-135077676D02*
X117029047Y-134982438D01*
X117029047Y-134982438D02*
X116886190Y-134934819D01*
X116886190Y-134934819D02*
X116790952Y-134934819D01*
X116790952Y-134934819D02*
X116648095Y-134982438D01*
X116648095Y-134982438D02*
X116600476Y-135030057D01*
X145135713Y-135934819D02*
X145135713Y-134934819D01*
X145135713Y-134934819D02*
X144564285Y-135934819D01*
X144564285Y-135934819D02*
X144564285Y-134934819D01*
X180348571Y-118641009D02*
X180205714Y-118688628D01*
X180205714Y-118688628D02*
X180158095Y-118736247D01*
X180158095Y-118736247D02*
X180110476Y-118831485D01*
X180110476Y-118831485D02*
X180110476Y-118974342D01*
X180110476Y-118974342D02*
X180158095Y-119069580D01*
X180158095Y-119069580D02*
X180205714Y-119117200D01*
X180205714Y-119117200D02*
X180300952Y-119164819D01*
X180300952Y-119164819D02*
X180681904Y-119164819D01*
X180681904Y-119164819D02*
X180681904Y-118164819D01*
X180681904Y-118164819D02*
X180348571Y-118164819D01*
X180348571Y-118164819D02*
X180253333Y-118212438D01*
X180253333Y-118212438D02*
X180205714Y-118260057D01*
X180205714Y-118260057D02*
X180158095Y-118355295D01*
X180158095Y-118355295D02*
X180158095Y-118450533D01*
X180158095Y-118450533D02*
X180205714Y-118545771D01*
X180205714Y-118545771D02*
X180253333Y-118593390D01*
X180253333Y-118593390D02*
X180348571Y-118641009D01*
X180348571Y-118641009D02*
X180681904Y-118641009D01*
X139470476Y-119164819D02*
X139946666Y-119164819D01*
X139946666Y-119164819D02*
X139946666Y-118164819D01*
D11*
X181388406Y-130643904D02*
X181388406Y-130692285D01*
X181388406Y-130692285D02*
X181412596Y-130740666D01*
X181412596Y-130740666D02*
X181436787Y-130764856D01*
X181436787Y-130764856D02*
X181485168Y-130789047D01*
X181485168Y-130789047D02*
X181581930Y-130813237D01*
X181581930Y-130813237D02*
X181702882Y-130813237D01*
X181702882Y-130813237D02*
X181799644Y-130789047D01*
X181799644Y-130789047D02*
X181848025Y-130764856D01*
X181848025Y-130764856D02*
X181872216Y-130740666D01*
X181872216Y-130740666D02*
X181896406Y-130692285D01*
X181896406Y-130692285D02*
X181896406Y-130643904D01*
X181896406Y-130643904D02*
X181872216Y-130595523D01*
X181872216Y-130595523D02*
X181848025Y-130571332D01*
X181848025Y-130571332D02*
X181799644Y-130547142D01*
X181799644Y-130547142D02*
X181702882Y-130522951D01*
X181702882Y-130522951D02*
X181581930Y-130522951D01*
X181581930Y-130522951D02*
X181485168Y-130547142D01*
X181485168Y-130547142D02*
X181436787Y-130571332D01*
X181436787Y-130571332D02*
X181412596Y-130595523D01*
X181412596Y-130595523D02*
X181388406Y-130643904D01*
X181557739Y-131248666D02*
X181896406Y-131248666D01*
X181364216Y-131127714D02*
X181727073Y-131006761D01*
X181727073Y-131006761D02*
X181727073Y-131321238D01*
D10*
X162915713Y-134934819D02*
X162915713Y-135744342D01*
X162915713Y-135744342D02*
X162868094Y-135839580D01*
X162868094Y-135839580D02*
X162820475Y-135887200D01*
X162820475Y-135887200D02*
X162725237Y-135934819D01*
X162725237Y-135934819D02*
X162534761Y-135934819D01*
X162534761Y-135934819D02*
X162439523Y-135887200D01*
X162439523Y-135887200D02*
X162391904Y-135839580D01*
X162391904Y-135839580D02*
X162344285Y-135744342D01*
X162344285Y-135744342D02*
X162344285Y-134934819D01*
X172789999Y-135458628D02*
X172789999Y-135934819D01*
X173123332Y-134934819D02*
X172789999Y-135458628D01*
X172789999Y-135458628D02*
X172456666Y-134934819D01*
X129895713Y-135934819D02*
X129895713Y-134934819D01*
X129895713Y-135411009D02*
X129324285Y-135411009D01*
X129324285Y-135934819D02*
X129324285Y-134934819D01*
X134547142Y-134934819D02*
X134547142Y-135649104D01*
X134547142Y-135649104D02*
X134594761Y-135791961D01*
X134594761Y-135791961D02*
X134689999Y-135887200D01*
X134689999Y-135887200D02*
X134832856Y-135934819D01*
X134832856Y-135934819D02*
X134928094Y-135934819D01*
X162925713Y-118164819D02*
X162925713Y-118974342D01*
X162925713Y-118974342D02*
X162878094Y-119069580D01*
X162878094Y-119069580D02*
X162830475Y-119117200D01*
X162830475Y-119117200D02*
X162735237Y-119164819D01*
X162735237Y-119164819D02*
X162544761Y-119164819D01*
X162544761Y-119164819D02*
X162449523Y-119117200D01*
X162449523Y-119117200D02*
X162401904Y-119069580D01*
X162401904Y-119069580D02*
X162354285Y-118974342D01*
X162354285Y-118974342D02*
X162354285Y-118164819D01*
X114308571Y-118641009D02*
X114165714Y-118688628D01*
X114165714Y-118688628D02*
X114118095Y-118736247D01*
X114118095Y-118736247D02*
X114070476Y-118831485D01*
X114070476Y-118831485D02*
X114070476Y-118974342D01*
X114070476Y-118974342D02*
X114118095Y-119069580D01*
X114118095Y-119069580D02*
X114165714Y-119117200D01*
X114165714Y-119117200D02*
X114260952Y-119164819D01*
X114260952Y-119164819D02*
X114641904Y-119164819D01*
X114641904Y-119164819D02*
X114641904Y-118164819D01*
X114641904Y-118164819D02*
X114308571Y-118164819D01*
X114308571Y-118164819D02*
X114213333Y-118212438D01*
X114213333Y-118212438D02*
X114165714Y-118260057D01*
X114165714Y-118260057D02*
X114118095Y-118355295D01*
X114118095Y-118355295D02*
X114118095Y-118450533D01*
X114118095Y-118450533D02*
X114165714Y-118545771D01*
X114165714Y-118545771D02*
X114213333Y-118593390D01*
X114213333Y-118593390D02*
X114308571Y-118641009D01*
X114308571Y-118641009D02*
X114641904Y-118641009D01*
X180338571Y-135411009D02*
X180195714Y-135458628D01*
X180195714Y-135458628D02*
X180148095Y-135506247D01*
X180148095Y-135506247D02*
X180100476Y-135601485D01*
X180100476Y-135601485D02*
X180100476Y-135744342D01*
X180100476Y-135744342D02*
X180148095Y-135839580D01*
X180148095Y-135839580D02*
X180195714Y-135887200D01*
X180195714Y-135887200D02*
X180290952Y-135934819D01*
X180290952Y-135934819D02*
X180671904Y-135934819D01*
X180671904Y-135934819D02*
X180671904Y-134934819D01*
X180671904Y-134934819D02*
X180338571Y-134934819D01*
X180338571Y-134934819D02*
X180243333Y-134982438D01*
X180243333Y-134982438D02*
X180195714Y-135030057D01*
X180195714Y-135030057D02*
X180148095Y-135125295D01*
X180148095Y-135125295D02*
X180148095Y-135220533D01*
X180148095Y-135220533D02*
X180195714Y-135315771D01*
X180195714Y-135315771D02*
X180243333Y-135363390D01*
X180243333Y-135363390D02*
X180338571Y-135411009D01*
X180338571Y-135411009D02*
X180671904Y-135411009D01*
X119711904Y-135934819D02*
X119711904Y-134934819D01*
X119711904Y-134934819D02*
X119473809Y-134934819D01*
X119473809Y-134934819D02*
X119330952Y-134982438D01*
X119330952Y-134982438D02*
X119235714Y-135077676D01*
X119235714Y-135077676D02*
X119188095Y-135172914D01*
X119188095Y-135172914D02*
X119140476Y-135363390D01*
X119140476Y-135363390D02*
X119140476Y-135506247D01*
X119140476Y-135506247D02*
X119188095Y-135696723D01*
X119188095Y-135696723D02*
X119235714Y-135791961D01*
X119235714Y-135791961D02*
X119330952Y-135887200D01*
X119330952Y-135887200D02*
X119473809Y-135934819D01*
X119473809Y-135934819D02*
X119711904Y-135934819D01*
X170583332Y-134934819D02*
X169916666Y-135934819D01*
X169916666Y-134934819D02*
X170583332Y-135934819D01*
X124397142Y-118641009D02*
X124730475Y-118641009D01*
X124730475Y-119164819D02*
X124730475Y-118164819D01*
X124730475Y-118164819D02*
X124254285Y-118164819D01*
X122204285Y-135411009D02*
X121870952Y-135411009D01*
X121728095Y-135934819D02*
X122204285Y-135934819D01*
X122204285Y-135934819D02*
X122204285Y-134934819D01*
X122204285Y-134934819D02*
X121728095Y-134934819D01*
X165503332Y-134934819D02*
X165169999Y-135934819D01*
X165169999Y-135934819D02*
X164836666Y-134934819D01*
X144574286Y-118255180D02*
X144574286Y-119255180D01*
X144574286Y-119255180D02*
X145145714Y-118255180D01*
X145145714Y-118255180D02*
X145145714Y-119255180D01*
X157845713Y-119117200D02*
X157702856Y-119164819D01*
X157702856Y-119164819D02*
X157464761Y-119164819D01*
X157464761Y-119164819D02*
X157369523Y-119117200D01*
X157369523Y-119117200D02*
X157321904Y-119069580D01*
X157321904Y-119069580D02*
X157274285Y-118974342D01*
X157274285Y-118974342D02*
X157274285Y-118879104D01*
X157274285Y-118879104D02*
X157321904Y-118783866D01*
X157321904Y-118783866D02*
X157369523Y-118736247D01*
X157369523Y-118736247D02*
X157464761Y-118688628D01*
X157464761Y-118688628D02*
X157655237Y-118641009D01*
X157655237Y-118641009D02*
X157750475Y-118593390D01*
X157750475Y-118593390D02*
X157798094Y-118545771D01*
X157798094Y-118545771D02*
X157845713Y-118450533D01*
X157845713Y-118450533D02*
X157845713Y-118355295D01*
X157845713Y-118355295D02*
X157798094Y-118260057D01*
X157798094Y-118260057D02*
X157750475Y-118212438D01*
X157750475Y-118212438D02*
X157655237Y-118164819D01*
X157655237Y-118164819D02*
X157417142Y-118164819D01*
X157417142Y-118164819D02*
X157274285Y-118212438D01*
X137491904Y-135934819D02*
X137491904Y-134934819D01*
X136920476Y-135934819D02*
X137349047Y-135363390D01*
X136920476Y-134934819D02*
X137491904Y-135506247D01*
X147485237Y-134934819D02*
X147294761Y-134934819D01*
X147294761Y-134934819D02*
X147199523Y-134982438D01*
X147199523Y-134982438D02*
X147104285Y-135077676D01*
X147104285Y-135077676D02*
X147056666Y-135268152D01*
X147056666Y-135268152D02*
X147056666Y-135601485D01*
X147056666Y-135601485D02*
X147104285Y-135791961D01*
X147104285Y-135791961D02*
X147199523Y-135887200D01*
X147199523Y-135887200D02*
X147294761Y-135934819D01*
X147294761Y-135934819D02*
X147485237Y-135934819D01*
X147485237Y-135934819D02*
X147580475Y-135887200D01*
X147580475Y-135887200D02*
X147675713Y-135791961D01*
X147675713Y-135791961D02*
X147723332Y-135601485D01*
X147723332Y-135601485D02*
X147723332Y-135268152D01*
X147723332Y-135268152D02*
X147675713Y-135077676D01*
X147675713Y-135077676D02*
X147580475Y-134982438D01*
X147580475Y-134982438D02*
X147485237Y-134934819D01*
X150201904Y-119164819D02*
X150201904Y-118164819D01*
X150201904Y-118164819D02*
X149820952Y-118164819D01*
X149820952Y-118164819D02*
X149725714Y-118212438D01*
X149725714Y-118212438D02*
X149678095Y-118260057D01*
X149678095Y-118260057D02*
X149630476Y-118355295D01*
X149630476Y-118355295D02*
X149630476Y-118498152D01*
X149630476Y-118498152D02*
X149678095Y-118593390D01*
X149678095Y-118593390D02*
X149725714Y-118641009D01*
X149725714Y-118641009D02*
X149820952Y-118688628D01*
X149820952Y-118688628D02*
X150201904Y-118688628D01*
X154700476Y-135934819D02*
X155033809Y-135458628D01*
X155271904Y-135934819D02*
X155271904Y-134934819D01*
X155271904Y-134934819D02*
X154890952Y-134934819D01*
X154890952Y-134934819D02*
X154795714Y-134982438D01*
X154795714Y-134982438D02*
X154748095Y-135030057D01*
X154748095Y-135030057D02*
X154700476Y-135125295D01*
X154700476Y-135125295D02*
X154700476Y-135268152D01*
X154700476Y-135268152D02*
X154748095Y-135363390D01*
X154748095Y-135363390D02*
X154795714Y-135411009D01*
X154795714Y-135411009D02*
X154890952Y-135458628D01*
X154890952Y-135458628D02*
X155271904Y-135458628D01*
X129905713Y-119164819D02*
X129905713Y-118164819D01*
X129905713Y-118641009D02*
X129334285Y-118641009D01*
X129334285Y-119164819D02*
X129334285Y-118164819D01*
X172799999Y-118688628D02*
X172799999Y-119164819D01*
X173133332Y-118164819D02*
X172799999Y-118688628D01*
X172799999Y-118688628D02*
X172466666Y-118164819D01*
X122214285Y-118641009D02*
X121880952Y-118641009D01*
X121738095Y-119164819D02*
X122214285Y-119164819D01*
X122214285Y-119164819D02*
X122214285Y-118164819D01*
X122214285Y-118164819D02*
X121738095Y-118164819D01*
X160385713Y-118164819D02*
X159814285Y-118164819D01*
X160099999Y-119164819D02*
X160099999Y-118164819D01*
D11*
X110907593Y-131176095D02*
X110907593Y-131127714D01*
X110907593Y-131127714D02*
X110883403Y-131079333D01*
X110883403Y-131079333D02*
X110859212Y-131055143D01*
X110859212Y-131055143D02*
X110810831Y-131030952D01*
X110810831Y-131030952D02*
X110714069Y-131006762D01*
X110714069Y-131006762D02*
X110593117Y-131006762D01*
X110593117Y-131006762D02*
X110496355Y-131030952D01*
X110496355Y-131030952D02*
X110447974Y-131055143D01*
X110447974Y-131055143D02*
X110423784Y-131079333D01*
X110423784Y-131079333D02*
X110399593Y-131127714D01*
X110399593Y-131127714D02*
X110399593Y-131176095D01*
X110399593Y-131176095D02*
X110423784Y-131224476D01*
X110423784Y-131224476D02*
X110447974Y-131248667D01*
X110447974Y-131248667D02*
X110496355Y-131272857D01*
X110496355Y-131272857D02*
X110593117Y-131297048D01*
X110593117Y-131297048D02*
X110714069Y-131297048D01*
X110714069Y-131297048D02*
X110810831Y-131272857D01*
X110810831Y-131272857D02*
X110859212Y-131248667D01*
X110859212Y-131248667D02*
X110883403Y-131224476D01*
X110883403Y-131224476D02*
X110907593Y-131176095D01*
X110738260Y-130571333D02*
X110399593Y-130571333D01*
X110931784Y-130692285D02*
X110568926Y-130813238D01*
X110568926Y-130813238D02*
X110568926Y-130498761D01*
D10*
X160375713Y-134934819D02*
X159804285Y-134934819D01*
X160089999Y-135934819D02*
X160089999Y-134934819D01*
X152089047Y-136030057D02*
X152184285Y-135982438D01*
X152184285Y-135982438D02*
X152279523Y-135887200D01*
X152279523Y-135887200D02*
X152422380Y-135744342D01*
X152422380Y-135744342D02*
X152517618Y-135696723D01*
X152517618Y-135696723D02*
X152612856Y-135696723D01*
X152565237Y-135934819D02*
X152660475Y-135887200D01*
X152660475Y-135887200D02*
X152755713Y-135791961D01*
X152755713Y-135791961D02*
X152803332Y-135601485D01*
X152803332Y-135601485D02*
X152803332Y-135268152D01*
X152803332Y-135268152D02*
X152755713Y-135077676D01*
X152755713Y-135077676D02*
X152660475Y-134982438D01*
X152660475Y-134982438D02*
X152565237Y-134934819D01*
X152565237Y-134934819D02*
X152374761Y-134934819D01*
X152374761Y-134934819D02*
X152279523Y-134982438D01*
X152279523Y-134982438D02*
X152184285Y-135077676D01*
X152184285Y-135077676D02*
X152136666Y-135268152D01*
X152136666Y-135268152D02*
X152136666Y-135601485D01*
X152136666Y-135601485D02*
X152184285Y-135791961D01*
X152184285Y-135791961D02*
X152279523Y-135887200D01*
X152279523Y-135887200D02*
X152374761Y-135934819D01*
X152374761Y-135934819D02*
X152565237Y-135934819D01*
X154710476Y-119164819D02*
X155043809Y-118688628D01*
X155281904Y-119164819D02*
X155281904Y-118164819D01*
X155281904Y-118164819D02*
X154900952Y-118164819D01*
X154900952Y-118164819D02*
X154805714Y-118212438D01*
X154805714Y-118212438D02*
X154758095Y-118260057D01*
X154758095Y-118260057D02*
X154710476Y-118355295D01*
X154710476Y-118355295D02*
X154710476Y-118498152D01*
X154710476Y-118498152D02*
X154758095Y-118593390D01*
X154758095Y-118593390D02*
X154805714Y-118641009D01*
X154805714Y-118641009D02*
X154900952Y-118688628D01*
X154900952Y-118688628D02*
X155281904Y-118688628D01*
X119721904Y-119164819D02*
X119721904Y-118164819D01*
X119721904Y-118164819D02*
X119483809Y-118164819D01*
X119483809Y-118164819D02*
X119340952Y-118212438D01*
X119340952Y-118212438D02*
X119245714Y-118307676D01*
X119245714Y-118307676D02*
X119198095Y-118402914D01*
X119198095Y-118402914D02*
X119150476Y-118593390D01*
X119150476Y-118593390D02*
X119150476Y-118736247D01*
X119150476Y-118736247D02*
X119198095Y-118926723D01*
X119198095Y-118926723D02*
X119245714Y-119021961D01*
X119245714Y-119021961D02*
X119340952Y-119117200D01*
X119340952Y-119117200D02*
X119483809Y-119164819D01*
X119483809Y-119164819D02*
X119721904Y-119164819D01*
D11*
X110907593Y-128636095D02*
X110907593Y-128587714D01*
X110907593Y-128587714D02*
X110883403Y-128539333D01*
X110883403Y-128539333D02*
X110859212Y-128515143D01*
X110859212Y-128515143D02*
X110810831Y-128490952D01*
X110810831Y-128490952D02*
X110714069Y-128466762D01*
X110714069Y-128466762D02*
X110593117Y-128466762D01*
X110593117Y-128466762D02*
X110496355Y-128490952D01*
X110496355Y-128490952D02*
X110447974Y-128515143D01*
X110447974Y-128515143D02*
X110423784Y-128539333D01*
X110423784Y-128539333D02*
X110399593Y-128587714D01*
X110399593Y-128587714D02*
X110399593Y-128636095D01*
X110399593Y-128636095D02*
X110423784Y-128684476D01*
X110423784Y-128684476D02*
X110447974Y-128708667D01*
X110447974Y-128708667D02*
X110496355Y-128732857D01*
X110496355Y-128732857D02*
X110593117Y-128757048D01*
X110593117Y-128757048D02*
X110714069Y-128757048D01*
X110714069Y-128757048D02*
X110810831Y-128732857D01*
X110810831Y-128732857D02*
X110859212Y-128708667D01*
X110859212Y-128708667D02*
X110883403Y-128684476D01*
X110883403Y-128684476D02*
X110907593Y-128636095D01*
X110907593Y-128297428D02*
X110907593Y-127982952D01*
X110907593Y-127982952D02*
X110714069Y-128152285D01*
X110714069Y-128152285D02*
X110714069Y-128079714D01*
X110714069Y-128079714D02*
X110689879Y-128031333D01*
X110689879Y-128031333D02*
X110665688Y-128007142D01*
X110665688Y-128007142D02*
X110617307Y-127982952D01*
X110617307Y-127982952D02*
X110496355Y-127982952D01*
X110496355Y-127982952D02*
X110447974Y-128007142D01*
X110447974Y-128007142D02*
X110423784Y-128031333D01*
X110423784Y-128031333D02*
X110399593Y-128079714D01*
X110399593Y-128079714D02*
X110399593Y-128224857D01*
X110399593Y-128224857D02*
X110423784Y-128273238D01*
X110423784Y-128273238D02*
X110447974Y-128297428D01*
D10*
X112068094Y-135649104D02*
X111591904Y-135649104D01*
X112163332Y-135934819D02*
X111829999Y-134934819D01*
X111829999Y-134934819D02*
X111496666Y-135934819D01*
X175673332Y-118164819D02*
X175006666Y-118164819D01*
X175006666Y-118164819D02*
X175673332Y-119164819D01*
X175673332Y-119164819D02*
X175006666Y-119164819D01*
X142643332Y-135934819D02*
X142643332Y-134934819D01*
X142643332Y-134934819D02*
X142309999Y-135649104D01*
X142309999Y-135649104D02*
X141976666Y-134934819D01*
X141976666Y-134934819D02*
X141976666Y-135934819D01*
X157835713Y-135887200D02*
X157692856Y-135934819D01*
X157692856Y-135934819D02*
X157454761Y-135934819D01*
X157454761Y-135934819D02*
X157359523Y-135887200D01*
X157359523Y-135887200D02*
X157311904Y-135839580D01*
X157311904Y-135839580D02*
X157264285Y-135744342D01*
X157264285Y-135744342D02*
X157264285Y-135649104D01*
X157264285Y-135649104D02*
X157311904Y-135553866D01*
X157311904Y-135553866D02*
X157359523Y-135506247D01*
X157359523Y-135506247D02*
X157454761Y-135458628D01*
X157454761Y-135458628D02*
X157645237Y-135411009D01*
X157645237Y-135411009D02*
X157740475Y-135363390D01*
X157740475Y-135363390D02*
X157788094Y-135315771D01*
X157788094Y-135315771D02*
X157835713Y-135220533D01*
X157835713Y-135220533D02*
X157835713Y-135125295D01*
X157835713Y-135125295D02*
X157788094Y-135030057D01*
X157788094Y-135030057D02*
X157740475Y-134982438D01*
X157740475Y-134982438D02*
X157645237Y-134934819D01*
X157645237Y-134934819D02*
X157407142Y-134934819D01*
X157407142Y-134934819D02*
X157264285Y-134982438D01*
X178118094Y-118879104D02*
X177641904Y-118879104D01*
X178213332Y-119164819D02*
X177879999Y-118164819D01*
X177879999Y-118164819D02*
X177546666Y-119164819D01*
X152099047Y-119260057D02*
X152194285Y-119212438D01*
X152194285Y-119212438D02*
X152289523Y-119117200D01*
X152289523Y-119117200D02*
X152432380Y-118974342D01*
X152432380Y-118974342D02*
X152527618Y-118926723D01*
X152527618Y-118926723D02*
X152622856Y-118926723D01*
X152575237Y-119164819D02*
X152670475Y-119117200D01*
X152670475Y-119117200D02*
X152765713Y-119021961D01*
X152765713Y-119021961D02*
X152813332Y-118831485D01*
X152813332Y-118831485D02*
X152813332Y-118498152D01*
X152813332Y-118498152D02*
X152765713Y-118307676D01*
X152765713Y-118307676D02*
X152670475Y-118212438D01*
X152670475Y-118212438D02*
X152575237Y-118164819D01*
X152575237Y-118164819D02*
X152384761Y-118164819D01*
X152384761Y-118164819D02*
X152289523Y-118212438D01*
X152289523Y-118212438D02*
X152194285Y-118307676D01*
X152194285Y-118307676D02*
X152146666Y-118498152D01*
X152146666Y-118498152D02*
X152146666Y-118831485D01*
X152146666Y-118831485D02*
X152194285Y-119021961D01*
X152194285Y-119021961D02*
X152289523Y-119117200D01*
X152289523Y-119117200D02*
X152384761Y-119164819D01*
X152384761Y-119164819D02*
X152575237Y-119164819D01*
X116610476Y-119069580D02*
X116658095Y-119117200D01*
X116658095Y-119117200D02*
X116800952Y-119164819D01*
X116800952Y-119164819D02*
X116896190Y-119164819D01*
X116896190Y-119164819D02*
X117039047Y-119117200D01*
X117039047Y-119117200D02*
X117134285Y-119021961D01*
X117134285Y-119021961D02*
X117181904Y-118926723D01*
X117181904Y-118926723D02*
X117229523Y-118736247D01*
X117229523Y-118736247D02*
X117229523Y-118593390D01*
X117229523Y-118593390D02*
X117181904Y-118402914D01*
X117181904Y-118402914D02*
X117134285Y-118307676D01*
X117134285Y-118307676D02*
X117039047Y-118212438D01*
X117039047Y-118212438D02*
X116896190Y-118164819D01*
X116896190Y-118164819D02*
X116800952Y-118164819D01*
X116800952Y-118164819D02*
X116658095Y-118212438D01*
X116658095Y-118212438D02*
X116610476Y-118260057D01*
X168138570Y-134934819D02*
X167900475Y-135934819D01*
X167900475Y-135934819D02*
X167709999Y-135220533D01*
X167709999Y-135220533D02*
X167519523Y-135934819D01*
X167519523Y-135934819D02*
X167281428Y-134934819D01*
D11*
X110907593Y-123556095D02*
X110907593Y-123507714D01*
X110907593Y-123507714D02*
X110883403Y-123459333D01*
X110883403Y-123459333D02*
X110859212Y-123435143D01*
X110859212Y-123435143D02*
X110810831Y-123410952D01*
X110810831Y-123410952D02*
X110714069Y-123386762D01*
X110714069Y-123386762D02*
X110593117Y-123386762D01*
X110593117Y-123386762D02*
X110496355Y-123410952D01*
X110496355Y-123410952D02*
X110447974Y-123435143D01*
X110447974Y-123435143D02*
X110423784Y-123459333D01*
X110423784Y-123459333D02*
X110399593Y-123507714D01*
X110399593Y-123507714D02*
X110399593Y-123556095D01*
X110399593Y-123556095D02*
X110423784Y-123604476D01*
X110423784Y-123604476D02*
X110447974Y-123628667D01*
X110447974Y-123628667D02*
X110496355Y-123652857D01*
X110496355Y-123652857D02*
X110593117Y-123677048D01*
X110593117Y-123677048D02*
X110714069Y-123677048D01*
X110714069Y-123677048D02*
X110810831Y-123652857D01*
X110810831Y-123652857D02*
X110859212Y-123628667D01*
X110859212Y-123628667D02*
X110883403Y-123604476D01*
X110883403Y-123604476D02*
X110907593Y-123556095D01*
X110399593Y-122902952D02*
X110399593Y-123193238D01*
X110399593Y-123048095D02*
X110907593Y-123048095D01*
X110907593Y-123048095D02*
X110835022Y-123096476D01*
X110835022Y-123096476D02*
X110786641Y-123144857D01*
X110786641Y-123144857D02*
X110762450Y-123193238D01*
X181388406Y-128103904D02*
X181388406Y-128152285D01*
X181388406Y-128152285D02*
X181412596Y-128200666D01*
X181412596Y-128200666D02*
X181436787Y-128224856D01*
X181436787Y-128224856D02*
X181485168Y-128249047D01*
X181485168Y-128249047D02*
X181581930Y-128273237D01*
X181581930Y-128273237D02*
X181702882Y-128273237D01*
X181702882Y-128273237D02*
X181799644Y-128249047D01*
X181799644Y-128249047D02*
X181848025Y-128224856D01*
X181848025Y-128224856D02*
X181872216Y-128200666D01*
X181872216Y-128200666D02*
X181896406Y-128152285D01*
X181896406Y-128152285D02*
X181896406Y-128103904D01*
X181896406Y-128103904D02*
X181872216Y-128055523D01*
X181872216Y-128055523D02*
X181848025Y-128031332D01*
X181848025Y-128031332D02*
X181799644Y-128007142D01*
X181799644Y-128007142D02*
X181702882Y-127982951D01*
X181702882Y-127982951D02*
X181581930Y-127982951D01*
X181581930Y-127982951D02*
X181485168Y-128007142D01*
X181485168Y-128007142D02*
X181436787Y-128031332D01*
X181436787Y-128031332D02*
X181412596Y-128055523D01*
X181412596Y-128055523D02*
X181388406Y-128103904D01*
X181388406Y-128442571D02*
X181388406Y-128757047D01*
X181388406Y-128757047D02*
X181581930Y-128587714D01*
X181581930Y-128587714D02*
X181581930Y-128660285D01*
X181581930Y-128660285D02*
X181606120Y-128708666D01*
X181606120Y-128708666D02*
X181630311Y-128732857D01*
X181630311Y-128732857D02*
X181678692Y-128757047D01*
X181678692Y-128757047D02*
X181799644Y-128757047D01*
X181799644Y-128757047D02*
X181848025Y-128732857D01*
X181848025Y-128732857D02*
X181872216Y-128708666D01*
X181872216Y-128708666D02*
X181896406Y-128660285D01*
X181896406Y-128660285D02*
X181896406Y-128515142D01*
X181896406Y-128515142D02*
X181872216Y-128466761D01*
X181872216Y-128466761D02*
X181848025Y-128442571D01*
D10*
X137501904Y-119164819D02*
X137501904Y-118164819D01*
X136930476Y-119164819D02*
X137359047Y-118593390D01*
X136930476Y-118164819D02*
X137501904Y-118736247D01*
X142653332Y-119164819D02*
X142653332Y-118164819D01*
X142653332Y-118164819D02*
X142319999Y-118879104D01*
X142319999Y-118879104D02*
X141986666Y-118164819D01*
X141986666Y-118164819D02*
X141986666Y-119164819D01*
X165513332Y-118164819D02*
X165179999Y-119164819D01*
X165179999Y-119164819D02*
X164846666Y-118164819D01*
D11*
X110907593Y-126096095D02*
X110907593Y-126047714D01*
X110907593Y-126047714D02*
X110883403Y-125999333D01*
X110883403Y-125999333D02*
X110859212Y-125975143D01*
X110859212Y-125975143D02*
X110810831Y-125950952D01*
X110810831Y-125950952D02*
X110714069Y-125926762D01*
X110714069Y-125926762D02*
X110593117Y-125926762D01*
X110593117Y-125926762D02*
X110496355Y-125950952D01*
X110496355Y-125950952D02*
X110447974Y-125975143D01*
X110447974Y-125975143D02*
X110423784Y-125999333D01*
X110423784Y-125999333D02*
X110399593Y-126047714D01*
X110399593Y-126047714D02*
X110399593Y-126096095D01*
X110399593Y-126096095D02*
X110423784Y-126144476D01*
X110423784Y-126144476D02*
X110447974Y-126168667D01*
X110447974Y-126168667D02*
X110496355Y-126192857D01*
X110496355Y-126192857D02*
X110593117Y-126217048D01*
X110593117Y-126217048D02*
X110714069Y-126217048D01*
X110714069Y-126217048D02*
X110810831Y-126192857D01*
X110810831Y-126192857D02*
X110859212Y-126168667D01*
X110859212Y-126168667D02*
X110883403Y-126144476D01*
X110883403Y-126144476D02*
X110907593Y-126096095D01*
X110859212Y-125733238D02*
X110883403Y-125709047D01*
X110883403Y-125709047D02*
X110907593Y-125660666D01*
X110907593Y-125660666D02*
X110907593Y-125539714D01*
X110907593Y-125539714D02*
X110883403Y-125491333D01*
X110883403Y-125491333D02*
X110859212Y-125467142D01*
X110859212Y-125467142D02*
X110810831Y-125442952D01*
X110810831Y-125442952D02*
X110762450Y-125442952D01*
X110762450Y-125442952D02*
X110689879Y-125467142D01*
X110689879Y-125467142D02*
X110399593Y-125757428D01*
X110399593Y-125757428D02*
X110399593Y-125442952D01*
D10*
X175663332Y-134934819D02*
X174996666Y-134934819D01*
X174996666Y-134934819D02*
X175663332Y-135934819D01*
X175663332Y-135934819D02*
X174996666Y-135934819D01*
X139460476Y-135934819D02*
X139936666Y-135934819D01*
X139936666Y-135934819D02*
X139936666Y-134934819D01*
X126818095Y-118212438D02*
X126913333Y-118164819D01*
X126913333Y-118164819D02*
X127056190Y-118164819D01*
X127056190Y-118164819D02*
X127199047Y-118212438D01*
X127199047Y-118212438D02*
X127294285Y-118307676D01*
X127294285Y-118307676D02*
X127341904Y-118402914D01*
X127341904Y-118402914D02*
X127389523Y-118593390D01*
X127389523Y-118593390D02*
X127389523Y-118736247D01*
X127389523Y-118736247D02*
X127341904Y-118926723D01*
X127341904Y-118926723D02*
X127294285Y-119021961D01*
X127294285Y-119021961D02*
X127199047Y-119117200D01*
X127199047Y-119117200D02*
X127056190Y-119164819D01*
X127056190Y-119164819D02*
X126960952Y-119164819D01*
X126960952Y-119164819D02*
X126818095Y-119117200D01*
X126818095Y-119117200D02*
X126770476Y-119069580D01*
X126770476Y-119069580D02*
X126770476Y-118736247D01*
X126770476Y-118736247D02*
X126960952Y-118736247D01*
X134557142Y-118164819D02*
X134557142Y-118879104D01*
X134557142Y-118879104D02*
X134604761Y-119021961D01*
X134604761Y-119021961D02*
X134699999Y-119117200D01*
X134699999Y-119117200D02*
X134842856Y-119164819D01*
X134842856Y-119164819D02*
X134938094Y-119164819D01*
X178108094Y-135649104D02*
X177631904Y-135649104D01*
X178203332Y-135934819D02*
X177869999Y-134934819D01*
X177869999Y-134934819D02*
X177536666Y-135934819D01*
D11*
X181388406Y-123023904D02*
X181388406Y-123072285D01*
X181388406Y-123072285D02*
X181412596Y-123120666D01*
X181412596Y-123120666D02*
X181436787Y-123144856D01*
X181436787Y-123144856D02*
X181485168Y-123169047D01*
X181485168Y-123169047D02*
X181581930Y-123193237D01*
X181581930Y-123193237D02*
X181702882Y-123193237D01*
X181702882Y-123193237D02*
X181799644Y-123169047D01*
X181799644Y-123169047D02*
X181848025Y-123144856D01*
X181848025Y-123144856D02*
X181872216Y-123120666D01*
X181872216Y-123120666D02*
X181896406Y-123072285D01*
X181896406Y-123072285D02*
X181896406Y-123023904D01*
X181896406Y-123023904D02*
X181872216Y-122975523D01*
X181872216Y-122975523D02*
X181848025Y-122951332D01*
X181848025Y-122951332D02*
X181799644Y-122927142D01*
X181799644Y-122927142D02*
X181702882Y-122902951D01*
X181702882Y-122902951D02*
X181581930Y-122902951D01*
X181581930Y-122902951D02*
X181485168Y-122927142D01*
X181485168Y-122927142D02*
X181436787Y-122951332D01*
X181436787Y-122951332D02*
X181412596Y-122975523D01*
X181412596Y-122975523D02*
X181388406Y-123023904D01*
X181896406Y-123677047D02*
X181896406Y-123386761D01*
X181896406Y-123531904D02*
X181388406Y-123531904D01*
X181388406Y-123531904D02*
X181460977Y-123483523D01*
X181460977Y-123483523D02*
X181509358Y-123435142D01*
X181509358Y-123435142D02*
X181533549Y-123386761D01*
D10*
X132159999Y-119164819D02*
X132159999Y-118164819D01*
X112078094Y-118879104D02*
X111601904Y-118879104D01*
X112173332Y-119164819D02*
X111839999Y-118164819D01*
X111839999Y-118164819D02*
X111506666Y-119164819D01*
X132149999Y-135934819D02*
X132149999Y-134934819D01*
%LPC*%
D12*
%TO.C,REF\u002A\u002A*%
X108730000Y-134530000D03*
%TD*%
%TO.C,REF\u002A\u002A*%
X183530000Y-119730000D03*
%TD*%
%TO.C,REF\u002A\u002A*%
X108730000Y-119730000D03*
%TD*%
%TO.C,REF\u002A\u002A*%
X183530000Y-134530000D03*
%TD*%
D13*
%TO.C,*%
X183710000Y-125830000D03*
%TD*%
%TO.C,REF\u002A\u002A*%
X183710000Y-130910000D03*
%TD*%
%TO.C,*%
X108530000Y-123290000D03*
%TD*%
%TO.C,REF\u002A\u002A*%
X108530000Y-130910000D03*
%TD*%
%TO.C,*%
X108530000Y-125830000D03*
%TD*%
%TO.C,*%
X108530000Y-128370000D03*
%TD*%
%TO.C,*%
X183710000Y-123290000D03*
%TD*%
%TO.C,*%
X183710000Y-128370000D03*
%TD*%
D14*
X111832000Y-120750000D03*
X162632000Y-130910000D03*
X165172000Y-130910000D03*
X167712000Y-130910000D03*
X180412000Y-130910000D03*
X132152000Y-128370000D03*
X111832000Y-130910000D03*
X114372000Y-128370000D03*
X137232000Y-128370000D03*
X142312000Y-128370000D03*
X157552000Y-120750000D03*
X160092000Y-128370000D03*
X139772000Y-133450000D03*
X142312000Y-133450000D03*
X116912000Y-133450000D03*
X127072000Y-128370000D03*
X144852000Y-133450000D03*
X147392000Y-133450000D03*
X160092000Y-120750000D03*
X132152000Y-130910000D03*
X144852000Y-120750000D03*
X111832000Y-128370000D03*
X121992000Y-125830000D03*
X129612000Y-125830000D03*
X124532000Y-128370000D03*
X111832000Y-125830000D03*
X155012000Y-123290000D03*
X147392000Y-128370000D03*
X160092000Y-133450000D03*
X157552000Y-125830000D03*
X162632000Y-133450000D03*
X165172000Y-133450000D03*
X167712000Y-133450000D03*
X180412000Y-133450000D03*
X167712000Y-125830000D03*
X121992000Y-120750000D03*
X132152000Y-123290000D03*
X121992000Y-133450000D03*
X124532000Y-123290000D03*
X129612000Y-120750000D03*
X160092000Y-130910000D03*
X111832000Y-133450000D03*
X149932000Y-130910000D03*
X127072000Y-125830000D03*
X124532000Y-120750000D03*
X147392000Y-120750000D03*
X114372000Y-133450000D03*
X165172000Y-123290000D03*
X165172000Y-125830000D03*
X167712000Y-120750000D03*
X180412000Y-120750000D03*
X162632000Y-128370000D03*
X165172000Y-128370000D03*
X162632000Y-120750000D03*
X165172000Y-120750000D03*
X167712000Y-123290000D03*
X139772000Y-128370000D03*
X121992000Y-130910000D03*
X124532000Y-130910000D03*
X160092000Y-125830000D03*
X157552000Y-130910000D03*
X155012000Y-120750000D03*
X114372000Y-130910000D03*
X127072000Y-123290000D03*
X132152000Y-120750000D03*
X121992000Y-123290000D03*
X152472000Y-123290000D03*
X119452000Y-120750000D03*
X149932000Y-120750000D03*
X152472000Y-128370000D03*
X139772000Y-130910000D03*
X142312000Y-130910000D03*
X144852000Y-130910000D03*
X147392000Y-130910000D03*
X144852000Y-128370000D03*
X119452000Y-125830000D03*
X144852000Y-123290000D03*
X134692000Y-128370000D03*
X129612000Y-128370000D03*
X137232000Y-125830000D03*
X127072000Y-133450000D03*
X137232000Y-120750000D03*
X111832000Y-123290000D03*
X114372000Y-123290000D03*
X147392000Y-125830000D03*
X157552000Y-123290000D03*
X147392000Y-123290000D03*
X149932000Y-123290000D03*
X152472000Y-125830000D03*
X134692000Y-123290000D03*
X127072000Y-120750000D03*
X116912000Y-128370000D03*
X152472000Y-130910000D03*
X155012000Y-130910000D03*
X149932000Y-128370000D03*
X139772000Y-120750000D03*
X132152000Y-125830000D03*
X119452000Y-123290000D03*
X144852000Y-125830000D03*
X116912000Y-123290000D03*
X134692000Y-125830000D03*
X119452000Y-128370000D03*
X121992000Y-128370000D03*
X134692000Y-130910000D03*
X137232000Y-130910000D03*
X157552000Y-128370000D03*
X155012000Y-125830000D03*
X139772000Y-123290000D03*
X162632000Y-123290000D03*
X180412000Y-123290000D03*
X167712000Y-128370000D03*
X180412000Y-128370000D03*
X180412000Y-125830000D03*
X162632000Y-125830000D03*
X134692000Y-120750000D03*
X124532000Y-125830000D03*
X137232000Y-123290000D03*
X157552000Y-133450000D03*
X116912000Y-120750000D03*
X116912000Y-130910000D03*
X119452000Y-130910000D03*
X149932000Y-133450000D03*
X152472000Y-133450000D03*
X155012000Y-133450000D03*
X129612000Y-133450000D03*
X132152000Y-133450000D03*
X124532000Y-133450000D03*
X134692000Y-133450000D03*
X137232000Y-133450000D03*
X119452000Y-133450000D03*
X152472000Y-120750000D03*
X139772000Y-125830000D03*
X142312000Y-125830000D03*
X114372000Y-125830000D03*
X116912000Y-125830000D03*
X160092000Y-123290000D03*
X142312000Y-123290000D03*
X114372000Y-120750000D03*
X149932000Y-125830000D03*
X127072000Y-130910000D03*
X129612000Y-130910000D03*
X155012000Y-128370000D03*
X142312000Y-120750000D03*
X129612000Y-123290000D03*
X170252000Y-130910000D03*
X172792000Y-130910000D03*
X175332000Y-130910000D03*
X177872000Y-130910000D03*
X170252000Y-133450000D03*
X172792000Y-133450000D03*
X175332000Y-133450000D03*
X177872000Y-133450000D03*
X170252000Y-125830000D03*
X172792000Y-125830000D03*
X175332000Y-125830000D03*
X177872000Y-125830000D03*
X170252000Y-120750000D03*
X172792000Y-120750000D03*
X175332000Y-120750000D03*
X177872000Y-120750000D03*
X170252000Y-123290000D03*
X172792000Y-123290000D03*
X175332000Y-123290000D03*
X177872000Y-123290000D03*
X170252000Y-128370000D03*
X172792000Y-128370000D03*
X175332000Y-128370000D03*
X177872000Y-128370000D03*
%LPD*%
M02*
