M48
; DRILL file {KiCad 9.0.1} date 2025-05-06T23:45:31-0400
; FORMAT={-:-/ absolute / inch / decimal}
; #@! TF.CreationDate,2025-05-06T23:45:31-04:00
; #@! TF.GenerationSoftware,Kicad,Pcbnew,9.0.1
; #@! TF.FileFunction,Plated,1,2,PTH
FMAT,2
INCH
; #@! TA.AperFunction,Plated,PTH,ViaDrill
T1C0.0360
%
G90
G05
T1
X4.4028Y-4.7539
X4.4028Y-4.8539
X4.4028Y-4.9539
X4.4028Y-5.0539
X4.4028Y-5.1539
X4.4028Y-5.2539
X4.5028Y-4.7539
X4.5028Y-4.8539
X4.5028Y-4.9539
X4.5028Y-5.0539
X4.5028Y-5.1539
X4.5028Y-5.2539
X4.6028Y-4.7539
X4.6028Y-4.8539
X4.6028Y-4.9539
X4.6028Y-5.0539
X4.6028Y-5.1539
X4.6028Y-5.2539
X4.7028Y-4.7539
X4.7028Y-4.8539
X4.7028Y-4.9539
X4.7028Y-5.0539
X4.7028Y-5.1539
X4.7028Y-5.2539
X4.8028Y-4.7539
X4.8028Y-4.8539
X4.8028Y-4.9539
X4.8028Y-5.0539
X4.8028Y-5.1539
X4.8028Y-5.2539
X4.9028Y-4.7539
X4.9028Y-4.8539
X4.9028Y-4.9539
X4.9028Y-5.0539
X4.9028Y-5.1539
X4.9028Y-5.2539
X5.0028Y-4.7539
X5.0028Y-4.8539
X5.0028Y-4.9539
X5.0028Y-5.0539
X5.0028Y-5.1539
X5.0028Y-5.2539
X5.1028Y-4.7539
X5.1028Y-4.8539
X5.1028Y-4.9539
X5.1028Y-5.0539
X5.1028Y-5.1539
X5.1028Y-5.2539
X5.2028Y-4.7539
X5.2028Y-4.8539
X5.2028Y-4.9539
X5.2028Y-5.0539
X5.2028Y-5.1539
X5.2028Y-5.2539
X5.3028Y-4.7539
X5.3028Y-4.8539
X5.3028Y-4.9539
X5.3028Y-5.0539
X5.3028Y-5.1539
X5.3028Y-5.2539
X5.4028Y-4.7539
X5.4028Y-4.8539
X5.4028Y-4.9539
X5.4028Y-5.0539
X5.4028Y-5.1539
X5.4028Y-5.2539
X5.5028Y-4.7539
X5.5028Y-4.8539
X5.5028Y-4.9539
X5.5028Y-5.0539
X5.5028Y-5.1539
X5.5028Y-5.2539
X5.6028Y-4.7539
X5.6028Y-4.8539
X5.6028Y-4.9539
X5.6028Y-5.0539
X5.6028Y-5.1539
X5.6028Y-5.2539
X5.7028Y-4.7539
X5.7028Y-4.8539
X5.7028Y-4.9539
X5.7028Y-5.0539
X5.7028Y-5.1539
X5.7028Y-5.2539
X5.8028Y-4.7539
X5.8028Y-4.8539
X5.8028Y-4.9539
X5.8028Y-5.0539
X5.8028Y-5.1539
X5.8028Y-5.2539
X5.9028Y-4.7539
X5.9028Y-4.8539
X5.9028Y-4.9539
X5.9028Y-5.0539
X5.9028Y-5.1539
X5.9028Y-5.2539
X6.0028Y-4.7539
X6.0028Y-4.8539
X6.0028Y-4.9539
X6.0028Y-5.0539
X6.0028Y-5.1539
X6.0028Y-5.2539
X6.1028Y-4.7539
X6.1028Y-4.8539
X6.1028Y-4.9539
X6.1028Y-5.0539
X6.1028Y-5.1539
X6.1028Y-5.2539
X6.2028Y-4.7539
X6.2028Y-4.8539
X6.2028Y-4.9539
X6.2028Y-5.0539
X6.2028Y-5.1539
X6.2028Y-5.2539
X6.3028Y-4.7539
X6.3028Y-4.8539
X6.3028Y-4.9539
X6.3028Y-5.0539
X6.3028Y-5.1539
X6.3028Y-5.2539
X6.4028Y-4.7539
X6.4028Y-4.8539
X6.4028Y-4.9539
X6.4028Y-5.0539
X6.4028Y-5.1539
X6.4028Y-5.2539
X6.5028Y-4.7539
X6.5028Y-4.8539
X6.5028Y-4.9539
X6.5028Y-5.0539
X6.5028Y-5.1539
X6.5028Y-5.2539
X6.6028Y-4.7539
X6.6028Y-4.8539
X6.6028Y-4.9539
X6.6028Y-5.0539
X6.6028Y-5.1539
X6.6028Y-5.2539
X6.7028Y-4.7539
X6.7028Y-4.8539
X6.7028Y-4.9539
X6.7028Y-5.0539
X6.7028Y-5.1539
X6.7028Y-5.2539
X6.8028Y-4.7539
X6.8028Y-4.8539
X6.8028Y-4.9539
X6.8028Y-5.0539
X6.8028Y-5.1539
X6.8028Y-5.2539
X6.9028Y-4.7539
X6.9028Y-4.8539
X6.9028Y-4.9539
X6.9028Y-5.0539
X6.9028Y-5.1539
X6.9028Y-5.2539
X7.0028Y-4.7539
X7.0028Y-4.8539
X7.0028Y-4.9539
X7.0028Y-5.0539
X7.0028Y-5.1539
X7.0028Y-5.2539
X7.1028Y-4.7539
X7.1028Y-4.8539
X7.1028Y-4.9539
X7.1028Y-5.0539
X7.1028Y-5.1539
X7.1028Y-5.2539
M30
